<svg xmlns="http://www.w3.org/2000/svg" xmlns:xlink="http://www.w3.org/1999/xlink" fill="none" version="1.1" width="32" height="28" viewBox="0 0 32 28"><defs><mask id="master_svg0_0_356" style="mask-type:alpha" maskUnits="objectBoundingBox"><g><rect x="20.000022888183594" y="7.999966144561768" width="12" height="12" rx="0" fill="#FFFFFF" fill-opacity="1"/></g></mask></defs><g><g><path d="M16.2175,0.12465C15.5503,-0.13782,14.7848,0.022492,14.2857,0.527539C14.2857,0.527539,7.90773,6.96761,7.90773,6.96761C7.90773,6.96761,3.50858,6.96761,3.50858,6.96761C1.57397,6.96761,0,8.49384,0,10.3701C0,10.3701,0,17.6309,0,17.6309C0,19.5065,1.57397,21.0331,3.50858,21.0331C3.50858,21.0331,7.90773,21.0331,7.90773,21.0331C7.90773,21.0331,14.2857,27.4731,14.2857,27.4731C14.6254,27.8167,15.0875,28,15.559,28C15.7807,28,16.0045,27.9598,16.2175,27.876C16.8867,27.6155,17.3247,26.9872,17.3247,26.2882C17.3247,26.2882,17.3247,1.71324,17.3247,1.71324C17.3243,1.01422,16.8863,0.385588,16.2175,0.12465C16.2175,0.12465,16.2175,0.12465,16.2175,0.12465Z" fill="#FFFFFF" fill-opacity="1" style="mix-blend-mode:passthrough"/></g><g><g mask="url(#master_svg0_0_356)"><g><path d="M28.582632829795372,13.999966086173544C28.582632829795372,13.999966086173544,31.465722829795368,11.116836086173544,31.465722829795368,11.116836086173544C32.178422829795366,10.404136086173544,32.178422829795366,9.247966086173543,31.465722829795368,8.535270086173544C30.752022829795372,7.821531086173543,29.59689282979537,7.821531086173543,28.88315282979537,8.535270086173544C28.88315282979537,8.535270086173544,26.00002282979537,11.417356086173545,26.00002282979537,11.417356086173545C26.00002282979537,11.417356086173545,23.11793282979537,8.535270086173544,23.11793282979537,8.535270086173544C22.40419282979537,7.821531086173543,21.24906282979537,7.821531086173543,20.53532682979537,8.535270086173544C19.82158782979537,9.247966086173543,19.82158782979537,10.404136086173544,20.53532682979537,11.116836086173544C20.53532682979537,11.116836086173544,23.41845282979537,13.999966086173544,23.41845282979537,13.999966086173544C23.41845282979537,13.999966086173544,20.53532682979537,16.883096086173545,20.53532682979537,16.883096086173545C19.82158782979537,17.595796086173543,19.82158782979537,18.751966086173546,20.53532682979537,19.464666086173544C20.89219682979537,19.821566086173544,21.359672829795368,19.999966086173544,21.82611282979537,19.999966086173544C22.29359282979537,19.999966086173544,22.76106282979537,19.821566086173544,23.11793282979537,19.464666086173544C23.11793282979537,19.464666086173544,26.00002282979537,16.582576086173546,26.00002282979537,16.582576086173546C26.00002282979537,16.582576086173546,28.88315282979537,19.464666086173544,28.88315282979537,19.464666086173544C29.24002282979537,19.821566086173544,29.70750282979537,19.999966086173544,30.17392282979537,19.999966086173544C30.64142282979537,19.999966086173544,31.108922829795368,19.821566086173544,31.465722829795368,19.464666086173544C32.178422829795366,18.751966086173546,32.178422829795366,17.595796086173543,31.465722829795368,16.883096086173545C31.465722829795368,16.883096086173545,28.582632829795372,13.999966086173544,28.582632829795372,13.999966086173544C28.582632829795372,13.999966086173544,28.582632829795372,13.999966086173544,28.582632829795372,13.999966086173544Z" fill="#FFFFFF" fill-opacity="1" style="mix-blend-mode:passthrough"/></g></g></g></g></svg>