<svg xmlns="http://www.w3.org/2000/svg" xmlns:xlink="http://www.w3.org/1999/xlink" fill="none" version="1.1" width="28" height="28.00244140625" viewBox="0 0 28 28.00244140625"><g><g><path d="M0.0009765625,10.0396C0.0009765625,10.0396,4.2284565625,10.0396,4.2284565625,10.0396C4.2284565625,10.0396,4.2284565625,4.22687,4.2284565625,4.22687C4.2284565625,4.22687,10.0415765625,4.22687,10.0415765625,4.22687C10.0415765625,4.22687,10.0415765625,0,10.0415765625,0C10.0415765625,0,0.0009765625,0,0.0009765625,0C0.0009765625,0,0.0009765625,10.0396,0.0009765625,10.0396C0.0009765625,10.0396,0.0009765625,10.0396,0.0009765625,10.0396Z" fill="#FFFFFF" fill-opacity="1" style="mix-blend-mode:passthrough"/></g><g><path d="M4.22638,17.9632568359375C4.22638,17.9632568359375,0,17.9632568359375,0,17.9632568359375C0,17.9632568359375,0,28.002356835937498,0,28.002356835937498C0,28.002356835937498,10.0396,28.002356835937498,10.0396,28.002356835937498C10.0396,28.002356835937498,10.0396,23.7798168359375,10.0396,23.7798168359375C10.0396,23.7798168359375,4.22638,23.7798168359375,4.22638,23.7798168359375C4.22638,23.7798168359375,4.22638,17.9632568359375,4.22638,17.9632568359375C4.22638,17.9632568359375,4.22638,17.9632568359375,4.22638,17.9632568359375Z" fill="#FFFFFF" fill-opacity="1" style="mix-blend-mode:passthrough"/></g><g><path d="M23.7736219921875,23.77594162109375C23.7736219921875,23.77594162109375,17.9617919921875,23.77594162109375,17.9617919921875,23.77594162109375C17.9617919921875,23.77594162109375,17.9617919921875,27.99861162109375,17.9617919921875,27.99861162109375C17.9617919921875,27.99861162109375,27.9999919921875,27.99861162109375,27.9999919921875,27.99861162109375C27.9999919921875,27.99861162109375,27.9999919921875,17.95941162109375,27.9999919921875,17.95941162109375C27.9999919921875,17.95941162109375,23.7736219921875,17.95941162109375,23.7736219921875,17.95941162109375C23.7736219921875,17.95941162109375,23.7736219921875,23.77594162109375,23.7736219921875,23.77594162109375C23.7736219921875,23.77594162109375,23.7736219921875,23.77594162109375,23.7736219921875,23.77594162109375Z" fill="#FFFFFF" fill-opacity="1" style="mix-blend-mode:passthrough"/></g><g><path d="M17.96270751953125,0.0009765625C17.96270751953125,0.0009765625,17.96270751953125,4.2288465625,17.96270751953125,4.2288465625C17.96270751953125,4.2288465625,23.775447519531248,4.2288465625,23.775447519531248,4.2288465625C23.775447519531248,4.2288465625,23.77349751953125,10.0405765625,23.77349751953125,10.0405765625C23.77349751953125,10.0405765625,27.99990751953125,10.0405765625,27.99990751953125,10.0405765625C27.99990751953125,10.0405765625,27.99990751953125,0.0009765625,27.99990751953125,0.0009765625C27.99990751953125,0.0009765625,17.96270751953125,0.0009765625,17.96270751953125,0.0009765625C17.96270751953125,0.0009765625,17.96270751953125,0.0009765625,17.96270751953125,0.0009765625Z" fill="#FFFFFF" fill-opacity="1" style="mix-blend-mode:passthrough"/></g></g></svg>