<svg xmlns="http://www.w3.org/2000/svg" xmlns:xlink="http://www.w3.org/1999/xlink" fill="none" version="1.1" width="28" height="28.002197265625" viewBox="0 0 28 28.002197265625"><g><g transform="matrix(-1,0,0,-1,20.0830078125,20.0791015625)"><path d="M10.04150390625,20.07915078125C10.04150390625,20.07915078125,14.26898390625,20.07915078125,14.26898390625,20.07915078125C14.26898390625,20.07915078125,14.26898390625,14.26642078125,14.26898390625,14.26642078125C14.26898390625,14.26642078125,20.082103906249998,14.26642078125,20.082103906249998,14.26642078125C20.082103906249998,14.26642078125,20.082103906249998,10.03955078125,20.082103906249998,10.03955078125C20.082103906249998,10.03955078125,10.04150390625,10.03955078125,10.04150390625,10.03955078125C10.04150390625,10.03955078125,10.04150390625,20.07915078125,10.04150390625,20.07915078125C10.04150390625,20.07915078125,10.04150390625,20.07915078125,10.04150390625,20.07915078125Z" fill="#FFFFFF" fill-opacity="1" style="mix-blend-mode:passthrough"/></g><g transform="matrix(-1,0,0,-1,20.0791015625,56.00439453125)"><path d="M14.265930781249999,28.002197265625C14.265930781249999,28.002197265625,10.03955078125,28.002197265625,10.03955078125,28.002197265625C10.03955078125,28.002197265625,10.03955078125,38.041297265625,10.03955078125,38.041297265625C10.03955078125,38.041297265625,20.07915078125,38.041297265625,20.07915078125,38.041297265625C20.07915078125,38.041297265625,20.07915078125,33.818757265625,20.07915078125,33.818757265625C20.07915078125,33.818757265625,14.265930781249999,33.818757265625,14.265930781249999,33.818757265625C14.265930781249999,33.818757265625,14.265930781249999,28.002197265625,14.265930781249999,28.002197265625C14.265930781249999,28.002197265625,14.265930781249999,28.002197265625,14.265930781249999,28.002197265625Z" fill="#FFFFFF" fill-opacity="1" style="mix-blend-mode:passthrough"/></g><g transform="matrix(-1,0,0,-1,56,55.9970703125)"><path d="M33.81177,33.81500515625C33.81177,33.81500515625,28,33.81500515625,28,33.81500515625C28,33.81500515625,28,38.03773515625,28,38.03773515625C28,38.03773515625,38.0381,38.03773515625,38.0381,38.03773515625C38.0381,38.03773515625,38.0381,27.99853515625,38.0381,27.99853515625C38.0381,27.99853515625,33.81177,27.99853515625,33.81177,27.99853515625C33.81177,27.99853515625,33.81177,33.81500515625,33.81177,33.81500515625C33.81177,33.81500515625,33.81177,33.81500515625,33.81177,33.81500515625Z" fill="#FFFFFF" fill-opacity="1" style="mix-blend-mode:passthrough"/></g><g transform="matrix(-1,0,0,-1,56,20.0810546875)"><path d="M28,10.04052734375C28,10.04052734375,28,14.26839734375,28,14.26839734375C28,14.26839734375,33.81274,14.26839734375,33.81274,14.26839734375C33.81274,14.26839734375,33.81079,20.08012734375,33.81079,20.08012734375C33.81079,20.08012734375,38.0372,20.08012734375,38.0372,20.08012734375C38.0372,20.08012734375,38.0372,10.04052734375,38.0372,10.04052734375C38.0372,10.04052734375,28,10.04052734375,28,10.04052734375C28,10.04052734375,28,10.04052734375,28,10.04052734375Z" fill="#FFFFFF" fill-opacity="1" style="mix-blend-mode:passthrough"/></g></g></svg>