<svg xmlns="http://www.w3.org/2000/svg" xmlns:xlink="http://www.w3.org/1999/xlink" fill="none" version="1.1" width="136.00048828125" height="79.002197265625" viewBox="0 0 136.00048828125 79.002197265625"><defs><mask id="master_svg0_0_356" style="mask-type:alpha" maskUnits="objectBoundingBox"><g><rect x="72.0000228881836" y="58.99996614456177" width="12" height="12" rx="0" fill="#FFFFFF" fill-opacity="1"/></g></mask></defs><g><g><g transform="matrix(-1,0,0,-1,236.083984375,122.0791015625)"><path d="M118.0419921875,71.07915078125001C118.0419921875,71.07915078125001,122.2694721875,71.07915078125001,122.2694721875,71.07915078125001C122.2694721875,71.07915078125001,122.2694721875,65.26642078125,122.2694721875,65.26642078125C122.2694721875,65.26642078125,128.0825921875,65.26642078125,128.0825921875,65.26642078125C128.0825921875,65.26642078125,128.0825921875,61.03955078125,128.0825921875,61.03955078125C128.0825921875,61.03955078125,118.0419921875,61.03955078125,118.0419921875,61.03955078125C118.0419921875,61.03955078125,118.0419921875,71.07915078125001,118.0419921875,71.07915078125001C118.0419921875,71.07915078125001,118.0419921875,71.07915078125001,118.0419921875,71.07915078125001Z" fill="#FFFFFF" fill-opacity="1" style="mix-blend-mode:passthrough"/></g><g transform="matrix(-1,0,0,-1,236.080078125,158.00439453125)"><path d="M122.2664190625,79.002197265625C122.2664190625,79.002197265625,118.0400390625,79.002197265625,118.0400390625,79.002197265625C118.0400390625,79.002197265625,118.0400390625,89.041297265625,118.0400390625,89.041297265625C118.0400390625,89.041297265625,128.0796390625,89.041297265625,128.0796390625,89.041297265625C128.0796390625,89.041297265625,128.0796390625,84.818757265625,128.0796390625,84.818757265625C128.0796390625,84.818757265625,122.2664190625,84.818757265625,122.2664190625,84.818757265625C122.2664190625,84.818757265625,122.2664190625,79.002197265625,122.2664190625,79.002197265625C122.2664190625,79.002197265625,122.2664190625,79.002197265625,122.2664190625,79.002197265625Z" fill="#FFFFFF" fill-opacity="1" style="mix-blend-mode:passthrough"/></g><g transform="matrix(-1,0,0,-1,272.0009765625,157.9970703125)"><path d="M141.81225828125,84.81500515625C141.81225828125,84.81500515625,136.00048828125,84.81500515625,136.00048828125,84.81500515625C136.00048828125,84.81500515625,136.00048828125,89.03773515625,136.00048828125,89.03773515625C136.00048828125,89.03773515625,146.03858828125,89.03773515625,146.03858828125,89.03773515625C146.03858828125,89.03773515625,146.03858828125,78.99853515625,146.03858828125,78.99853515625C146.03858828125,78.99853515625,141.81225828125,78.99853515625,141.81225828125,78.99853515625C141.81225828125,78.99853515625,141.81225828125,84.81500515625,141.81225828125,84.81500515625C141.81225828125,84.81500515625,141.81225828125,84.81500515625,141.81225828125,84.81500515625Z" fill="#FFFFFF" fill-opacity="1" style="mix-blend-mode:passthrough"/></g><g transform="matrix(-1,0,0,-1,272.0009765625,122.0810546875)"><path d="M136.00048828125,61.04052734375C136.00048828125,61.04052734375,136.00048828125,65.26839734375,136.00048828125,65.26839734375C136.00048828125,65.26839734375,141.81322828125,65.26839734375,141.81322828125,65.26839734375C141.81322828125,65.26839734375,141.81127828125,71.08012734375001,141.81127828125,71.08012734375001C141.81127828125,71.08012734375001,146.03768828125,71.08012734375001,146.03768828125,71.08012734375001C146.03768828125,71.08012734375001,146.03768828125,61.04052734375,146.03768828125,61.04052734375C146.03768828125,61.04052734375,136.00048828125,61.04052734375,136.00048828125,61.04052734375C136.00048828125,61.04052734375,136.00048828125,61.04052734375,136.00048828125,61.04052734375Z" fill="#FFFFFF" fill-opacity="1" style="mix-blend-mode:passthrough"/></g></g><g><g><rect x="3.000244140625" y="51.00019532442093" width="8" height="27.99980354309082" rx="2" fill="#FFFFFF" fill-opacity="1" style="mix-blend-mode:passthrough"/></g><g><rect x="17.000341415405273" y="51" width="8" height="27.99980354309082" rx="2" fill="#FFFFFF" fill-opacity="1" style="mix-blend-mode:passthrough"/></g></g><g transform="matrix(0,1,-1,0,28,-28)"><path d="M43.7889,3.57771L54.552800000000005,25.1056C55.2177,26.4354,54.250699999999995,28,52.7639,28L31.236069999999998,28C29.7493,28,28.782312,26.4354,29.44721,25.1056L40.2111,3.57771C40.9482,2.10361,43.0518,2.10361,43.7889,3.57771" fill="#FFFFFF" fill-opacity="1" style="mix-blend-mode:passthrough"/></g><g><g><path d="M68.2175,0.12465C67.5503,-0.13782,66.7848,0.022492,66.2857,0.527539C66.2857,0.527539,59.90773,6.96761,59.90773,6.96761C59.90773,6.96761,55.50858,6.96761,55.50858,6.96761C53.57397,6.96761,52,8.49384,52,10.3701C52,10.3701,52,17.6309,52,17.6309C52,19.5065,53.57397,21.0331,55.50858,21.0331C55.50858,21.0331,59.90773,21.0331,59.90773,21.0331C59.90773,21.0331,66.2857,27.4731,66.2857,27.4731C66.6254,27.8167,67.0875,28,67.559,28C67.7807,28,68.00450000000001,27.9598,68.2175,27.876C68.8867,27.6155,69.3247,26.9872,69.3247,26.2882C69.3247,26.2882,69.3247,1.71324,69.3247,1.71324C69.3243,1.01422,68.8863,0.385588,68.2175,0.12465C68.2175,0.12465,68.2175,0.12465,68.2175,0.12465Z" fill="#FFFFFF" fill-opacity="1" style="mix-blend-mode:passthrough"/></g><g><path d="M76.5904312133789,5.189820186538697C76.5904312133789,4.735660186538697,76.76957721337891,4.2834231865386965,77.1262592133789,3.9367771865386962C77.8392612133789,3.2454021865386964,78.9949812133789,3.2454021865386964,79.70918121337891,3.9360131865386965C82.4775112133789,6.620400186538696,84.00059121337891,10.187080186538697,84.00059121337891,13.983650186538696C84.00059121337891,17.776550186538696,82.47830121337891,21.343550186538696,79.7127412133789,24.026750186538695C78.99852121337891,24.718150186538697,77.8420312133789,24.718950186538695,77.12783821337891,24.028350186538695C76.41524521337891,23.336550186538695,76.41524521337891,22.212850186538695,77.1262592133789,21.523350186538696C79.20331121337891,19.508150186538696,80.3464112133789,16.830650186538698,80.3464112133789,13.983650186538696C80.3464112133789,11.134030186538697,79.20215121337891,8.455770186538697,77.1262592133789,6.442100186538696C76.76955421337891,6.097750186538697,76.5904312133789,5.6428301865386965,76.5904312133789,5.189820186538697C76.5904312133789,5.189820186538697,76.5904312133789,5.189820186538697,76.5904312133789,5.189820186538697Z" fill="#FFFFFF" fill-opacity="1" style="mix-blend-mode:passthrough"/></g><g><path d="M72.67732620239258,8.98398443069458C72.67732620239258,8.53058443069458,72.85527420239258,8.07528343069458,73.21237220239257,7.7309384306945805C73.92656620239258,7.0387994306945805,75.08227620239258,7.0387994306945805,75.79527620239257,7.7309384306945805C77.51759620239258,9.40102443069458,78.46697620239257,11.621304430694579,78.46697620239257,13.98353443069458C78.46697620239257,16.343454430694578,77.51879620239258,18.56373443069458,75.79803620239258,20.23153443069458C75.08385620239258,20.924434430694582,73.92735620239257,20.924434430694582,73.21316120239258,20.23153443069458C72.50015220239258,19.54093443069458,72.50015220239258,18.41753443069458,73.21316120239258,17.726234430694582C74.24536620239257,16.72720443069458,74.81236620239258,15.39688443069458,74.81236620239258,13.98352443069458C74.81236620239258,12.56749443069458,74.24536620239257,11.23678443069458,73.21237220239257,10.23625443069458C72.85527420239258,9.891144430694581,72.67732620239258,9.436994430694579,72.67732620239258,8.98398443069458C72.67732620239258,8.98398443069458,72.67732620239258,8.98398443069458,72.67732620239258,8.98398443069458Z" fill="#FFFFFF" fill-opacity="1" style="mix-blend-mode:passthrough"/></g></g><g><g><path d="M68.2175,51.12465C67.5503,50.86218,66.7848,51.022492,66.2857,51.527539C66.2857,51.527539,59.90773,57.96761,59.90773,57.96761C59.90773,57.96761,55.50858,57.96761,55.50858,57.96761C53.57397,57.96761,52,59.49384,52,61.3701C52,61.3701,52,68.6309,52,68.6309C52,70.5065,53.57397,72.0331,55.50858,72.0331C55.50858,72.0331,59.90773,72.0331,59.90773,72.0331C59.90773,72.0331,66.2857,78.4731,66.2857,78.4731C66.6254,78.8167,67.0875,79,67.559,79C67.7807,79,68.00450000000001,78.9598,68.2175,78.876C68.8867,78.6155,69.3247,77.9872,69.3247,77.2882C69.3247,77.2882,69.3247,52.71324,69.3247,52.71324C69.3243,52.01422,68.8863,51.385588,68.2175,51.12465C68.2175,51.12465,68.2175,51.12465,68.2175,51.12465Z" fill="#FFFFFF" fill-opacity="1" style="mix-blend-mode:passthrough"/></g><g><g mask="url(#master_svg0_0_356)"><g><path d="M80.58263282979537,64.99996608617354C80.58263282979537,64.99996608617354,83.46572282979537,62.11683608617354,83.46572282979537,62.11683608617354C84.17842282979537,61.404136086173544,84.17842282979537,60.24796608617354,83.46572282979537,59.53527008617354C82.75202282979537,58.82153108617354,81.59689282979537,58.82153108617354,80.88315282979536,59.53527008617354C80.88315282979536,59.53527008617354,78.00002282979537,62.41735608617354,78.00002282979537,62.41735608617354C78.00002282979537,62.41735608617354,75.11793282979536,59.53527008617354,75.11793282979536,59.53527008617354C74.40419282979536,58.82153108617354,73.24906282979536,58.82153108617354,72.53532682979537,59.53527008617354C71.82158782979538,60.24796608617354,71.82158782979538,61.404136086173544,72.53532682979537,62.11683608617354C72.53532682979537,62.11683608617354,75.41845282979537,64.99996608617354,75.41845282979537,64.99996608617354C75.41845282979537,64.99996608617354,72.53532682979537,67.88309608617354,72.53532682979537,67.88309608617354C71.82158782979538,68.59579608617355,71.82158782979538,69.75196608617354,72.53532682979537,70.46466608617354C72.89219682979537,70.82156608617355,73.35967282979537,70.99996608617354,73.82611282979536,70.99996608617354C74.29359282979537,70.99996608617354,74.76106282979536,70.82156608617355,75.11793282979536,70.46466608617354C75.11793282979536,70.46466608617354,78.00002282979537,67.58257608617355,78.00002282979537,67.58257608617355C78.00002282979537,67.58257608617355,80.88315282979536,70.46466608617354,80.88315282979536,70.46466608617354C81.24002282979536,70.82156608617355,81.70750282979537,70.99996608617354,82.17392282979537,70.99996608617354C82.64142282979537,70.99996608617354,83.10892282979538,70.82156608617355,83.46572282979537,70.46466608617354C84.17842282979537,69.75196608617354,84.17842282979537,68.59579608617355,83.46572282979537,67.88309608617354C83.46572282979537,67.88309608617354,80.58263282979537,64.99996608617354,80.58263282979537,64.99996608617354C80.58263282979537,64.99996608617354,80.58263282979537,64.99996608617354,80.58263282979537,64.99996608617354Z" fill="#FFFFFF" fill-opacity="1" style="mix-blend-mode:passthrough"/></g></g></g></g><g><g><path d="M108.00146484375,10.0396C108.00146484375,10.0396,112.22894484375,10.0396,112.22894484375,10.0396C112.22894484375,10.0396,112.22894484375,4.22687,112.22894484375,4.22687C112.22894484375,4.22687,118.04206484375,4.22687,118.04206484375,4.22687C118.04206484375,4.22687,118.04206484375,0,118.04206484375,0C118.04206484375,0,108.00146484375,0,108.00146484375,0C108.00146484375,0,108.00146484375,10.0396,108.00146484375,10.0396C108.00146484375,10.0396,108.00146484375,10.0396,108.00146484375,10.0396Z" fill="#FFFFFF" fill-opacity="1" style="mix-blend-mode:passthrough"/></g><g><path d="M112.22686828125,17.9632568359375C112.22686828125,17.9632568359375,108.00048828125,17.9632568359375,108.00048828125,17.9632568359375C108.00048828125,17.9632568359375,108.00048828125,28.002356835937498,108.00048828125,28.002356835937498C108.00048828125,28.002356835937498,118.04008828125001,28.002356835937498,118.04008828125001,28.002356835937498C118.04008828125001,28.002356835937498,118.04008828125001,23.7798168359375,118.04008828125001,23.7798168359375C118.04008828125001,23.7798168359375,112.22686828125,23.7798168359375,112.22686828125,23.7798168359375C112.22686828125,23.7798168359375,112.22686828125,17.9632568359375,112.22686828125,17.9632568359375C112.22686828125,17.9632568359375,112.22686828125,17.9632568359375,112.22686828125,17.9632568359375Z" fill="#FFFFFF" fill-opacity="1" style="mix-blend-mode:passthrough"/></g><g><path d="M131.7741102734375,23.77594162109375C131.7741102734375,23.77594162109375,125.9622802734375,23.77594162109375,125.9622802734375,23.77594162109375C125.9622802734375,23.77594162109375,125.9622802734375,27.99861162109375,125.9622802734375,27.99861162109375C125.9622802734375,27.99861162109375,136.0004802734375,27.99861162109375,136.0004802734375,27.99861162109375C136.0004802734375,27.99861162109375,136.0004802734375,17.95941162109375,136.0004802734375,17.95941162109375C136.0004802734375,17.95941162109375,131.7741102734375,17.95941162109375,131.7741102734375,17.95941162109375C131.7741102734375,17.95941162109375,131.7741102734375,23.77594162109375,131.7741102734375,23.77594162109375C131.7741102734375,23.77594162109375,131.7741102734375,23.77594162109375,131.7741102734375,23.77594162109375Z" fill="#FFFFFF" fill-opacity="1" style="mix-blend-mode:passthrough"/></g><g><path d="M125.96319580078125,0.0009765625C125.96319580078125,0.0009765625,125.96319580078125,4.2288465625,125.96319580078125,4.2288465625C125.96319580078125,4.2288465625,131.77593580078124,4.2288465625,131.77593580078124,4.2288465625C131.77593580078124,4.2288465625,131.77398580078125,10.0405765625,131.77398580078125,10.0405765625C131.77398580078125,10.0405765625,136.00039580078126,10.0405765625,136.00039580078126,10.0405765625C136.00039580078126,10.0405765625,136.00039580078126,0.0009765625,136.00039580078126,0.0009765625C136.00039580078126,0.0009765625,125.96319580078125,0.0009765625,125.96319580078125,0.0009765625C125.96319580078125,0.0009765625,125.96319580078125,0.0009765625,125.96319580078125,0.0009765625Z" fill="#FFFFFF" fill-opacity="1" style="mix-blend-mode:passthrough"/></g></g></g></svg>