<svg xmlns="http://www.w3.org/2000/svg" xmlns:xlink="http://www.w3.org/1999/xlink" fill="none" version="1.1" width="32.00048828125" height="28" viewBox="0 0 32.00048828125 28"><g><g><path d="M16.2175,0.12465C15.5503,-0.13782,14.7848,0.022492,14.2857,0.527539C14.2857,0.527539,7.90773,6.96761,7.90773,6.96761C7.90773,6.96761,3.50858,6.96761,3.50858,6.96761C1.57397,6.96761,0,8.49384,0,10.3701C0,10.3701,0,17.6309,0,17.6309C0,19.5065,1.57397,21.0331,3.50858,21.0331C3.50858,21.0331,7.90773,21.0331,7.90773,21.0331C7.90773,21.0331,14.2857,27.4731,14.2857,27.4731C14.6254,27.8167,15.0875,28,15.559,28C15.7807,28,16.0045,27.9598,16.2175,27.876C16.8867,27.6155,17.3247,26.9872,17.3247,26.2882C17.3247,26.2882,17.3247,1.71324,17.3247,1.71324C17.3243,1.01422,16.8863,0.385588,16.2175,0.12465C16.2175,0.12465,16.2175,0.12465,16.2175,0.12465Z" fill="#FFFFFF" fill-opacity="1" style="mix-blend-mode:passthrough"/></g><g><path d="M24.590431213378906,5.189820186538697C24.590431213378906,4.735660186538697,24.769577213378906,4.2834231865386965,25.126259213378905,3.9367771865386962C25.839261213378908,3.2454021865386964,26.994981213378907,3.2454021865386964,27.709181213378905,3.9360131865386965C30.477511213378907,6.620400186538696,32.000591213378904,10.187080186538697,32.000591213378904,13.983650186538696C32.000591213378904,17.776550186538696,30.478301213378906,21.343550186538696,27.712741213378905,24.026750186538695C26.998521213378908,24.718150186538697,25.842031213378906,24.718950186538695,25.127838213378908,24.028350186538695C24.415245213378906,23.336550186538695,24.415245213378906,22.212850186538695,25.126259213378905,21.523350186538696C27.203311213378907,19.508150186538696,28.346411213378907,16.830650186538698,28.346411213378907,13.983650186538696C28.346411213378907,11.134030186538697,27.202151213378905,8.455770186538697,25.126259213378905,6.442100186538696C24.769554213378907,6.097750186538697,24.590431213378906,5.6428301865386965,24.590431213378906,5.189820186538697C24.590431213378906,5.189820186538697,24.590431213378906,5.189820186538697,24.590431213378906,5.189820186538697Z" fill="#FFFFFF" fill-opacity="1" style="mix-blend-mode:passthrough"/></g><g><path d="M20.677326202392578,8.98398443069458C20.677326202392578,8.53058443069458,20.85527420239258,8.07528343069458,21.21237220239258,7.7309384306945805C21.92656620239258,7.0387994306945805,23.082276202392578,7.0387994306945805,23.79527620239258,7.7309384306945805C25.51759620239258,9.40102443069458,26.46697620239258,11.621304430694579,26.46697620239258,13.98353443069458C26.46697620239258,16.343454430694578,25.51879620239258,18.56373443069458,23.798036202392577,20.23153443069458C23.083856202392578,20.924434430694582,21.927356202392577,20.924434430694582,21.213161202392577,20.23153443069458C20.500152202392577,19.54093443069458,20.500152202392577,18.41753443069458,21.213161202392577,17.726234430694582C22.245366202392578,16.72720443069458,22.812366202392578,15.39688443069458,22.812366202392578,13.98352443069458C22.812366202392578,12.56749443069458,22.245366202392578,11.23678443069458,21.21237220239258,10.23625443069458C20.85527420239258,9.891144430694581,20.677326202392578,9.436994430694579,20.677326202392578,8.98398443069458C20.677326202392578,8.98398443069458,20.677326202392578,8.98398443069458,20.677326202392578,8.98398443069458Z" fill="#FFFFFF" fill-opacity="1" style="mix-blend-mode:passthrough"/></g></g></svg>