<svg xmlns="http://www.w3.org/2000/svg" xmlns:xlink="http://www.w3.org/1999/xlink" fill="none" version="1.1" width="21.868896484375" height="12.4345703125" viewBox="0 0 21.868896484375 12.4345703125"><g transform="matrix(0,1,-1,0,21.868896484375,-18.868896484375)"><path d="M30.864096484375,9.87365L21.429546484375,0.43933L19.308246484375,2.56067L27.682136484375,10.93434L19.308236484375,19.3082L21.429556484375,21.4296L30.864096484375,11.995Q30.916196484375,11.9429,30.962996484374997,11.8859Q31.009696484375,11.8289,31.050696484375003,11.7677Q31.091596484375,11.7064,31.126396484375,11.6414Q31.161096484375,11.5764,31.189296484375,11.5083Q31.217496484374998,11.44025,31.238896484374997,11.36973Q31.260296484375,11.29922,31.274696484375,11.22694Q31.288996484374998,11.15467,31.296196484375002,11.08133Q31.303496484375,11.008,31.303496484375,10.93431Q31.303496484375,10.86062,31.296196484375002,10.78728Q31.288996484374998,10.71395,31.274596484375,10.64167Q31.260296484375,10.5694,31.238896484374997,10.49888Q31.217496484374998,10.42836,31.189296484375,10.36028Q31.161096484375,10.2922,31.126296484375,10.22721Q31.091596484375,10.16222,31.050696484375003,10.10095Q31.009696484375,10.03968,30.962996484374997,9.98272Q30.916196484375,9.92576,30.864096484375,9.87365Z" fill-rule="evenodd" fill="#FFFFFF" fill-opacity="1" style="mix-blend-mode:passthrough"/></g></svg>