<svg xmlns="http://www.w3.org/2000/svg" xmlns:xlink="http://www.w3.org/1999/xlink" fill="none" version="1.1" width="40.7235107421875" height="283" viewBox="0 0 40.7235107421875 283"><g><path d="M4.81472,4.5474765625C9.70211,0.3409725625,16.868,-1.1961034375,22.9529,0.9949035625C24.4676,1.5404665625,26.03,2.2649565625,27.411,3.1330065625C32.618,6.4059165625,36.8526,11.7030765625,36.437,18.1591765625C36.2388,21.2404765625,33.6339,24.4471765625,30.3622,24.0797765625C29.996,24.0389765625,29.6302,23.9983765625,29.2638,23.9614765625C29.7461,24.3770765625,30.2135,24.8079765625,30.6625,25.2531765625C32.0436,26.6234765625,33.3129,28.2940765625,34.0641,30.1064765625C35.0898,32.5813765625,35.61,34.6952765625,35.679,37.4109765625C35.7076,38.5330765625,35.5091,39.6906765625,35.3203,40.7913765625C35.2971,40.9266765625,35.274,41.0611765625,35.2516,41.1945765625C35.1677,41.6915765625,35.0569,42.1786765625,34.8849,42.6529765625C34.0378,44.9875765625,32.9004,47.2270765625,31.0039,48.8848765625C30.0909,49.6827765625,29.0878,50.4714765625,27.9686,50.9546765625C26.6092,51.5415765625,25.6617,51.8588765625,24.5309,52.0535765625C25.4833,52.5239765625,26.4334,52.9990765625,27.3606,53.5158765625C30.419,55.2227765625,33.46,57.5614765625,35.4153,60.5394765625C40.3373,68.0355765625,39.6172,79.8632765625,31.0529,84.3092765625C30.4422,84.6260765625,29.7895,84.8929765625,29.1323,85.1242765625C30.3174,85.7709765625,31.4655,86.4746765625,32.5299,87.3166765625C36.2526,90.2613765625,39.4367,93.8401765625,40.3826,98.6952765625C41.8805,106.3839765625,38.3834,113.8599765625,30.9343,116.4719765625C29.4056,117.0079765625,27.6624,117.1839765625,26.0543,117.0049765625C24.8782,116.8739765625,23.6832,116.7059765625,22.5308,116.4129765625C22.2573,116.3439765625,21.9947,116.2649765625,21.7381,116.1779765625C23.508,117.3559765625,25.3882,118.3629765625,27.1376,119.5779765625C29.8014,121.4279765625,32.1614,123.5829765625,33.82,126.4219765625C35.5182,129.3279765625,36.0589,132.8979765625,35.0606,136.1469765625C34.4463,138.1469765625,33.3456,140.0359765625,31.8529,141.4999765625C33.3459,142.9649765625,34.4467,144.8539765625,35.061,146.8539765625C36.0593,150.1029765625,35.5186,153.6729765625,33.8204,156.5789765625C32.1618,159.4179765625,29.8019,161.5729765625,27.138,163.4229765625C25.3887,164.6379765625,23.5084,165.6449765625,21.7385,166.8229765625C21.9951,166.7359765625,22.2577,166.6569765625,22.5312,166.5879765625C23.6836,166.2949765625,24.8786,166.1269765625,26.0547,165.9959765625C27.6628,165.8169765625,29.406,165.9929765625,30.9347,166.5289765625C38.3838,169.1409765625,41.881,176.6169765625,40.383,184.3059765625C39.4371,189.1609765625,36.253,192.7399765625,32.5304,195.6839765625C31.466,196.5259765625,30.3178,197.2299765625,29.1327,197.8769765625C29.7899,198.1079765625,30.4426,198.3749765625,31.0533,198.6919765625C39.6177,203.1379765625,40.3378,214.9649765625,35.4157,222.4609765625C33.4604,225.4389765625,30.4194,227.7779765625,27.361,229.4849765625C26.4338,230.0019765625,25.4837,230.4769765625,24.5313,230.9469765625C25.6621,231.1419765625,26.6096,231.4589765625,27.969,232.0459765625C29.0882,232.5289765625,30.0913,233.3179765625,31.0044,234.1159765625C32.9008,235.7739765625,34.0382,238.0129765625,34.8853,240.3479765625C35.0573,240.8219765625,35.1681,241.3089765625,35.252,241.8059765625C35.2745,241.9399765625,35.2976,242.0739765625,35.3208,242.2099765625C35.5095,243.3099765625,35.708,244.4679765625,35.6794,245.5899765625C35.6105,248.3059765625,35.0902,250.4189765625,34.0645,252.8939765625C33.3133,254.7069765625,32.044,256.3769765625,30.6629,257.7479765625C30.2139,258.1929765625,29.7465,258.6239765625,29.2643,259.0389765625C29.6306,259.0019765625,29.9964,258.9619765625,30.3626,258.9209765625C33.6343,258.5539765625,36.2392,261.7599765625,36.4375,264.8419765625C36.853,271.2979765625,32.6185,276.5949765625,27.4114,279.8679765625C26.0304,280.7359765625,24.4681,281.4599765625,22.9533,282.0059765625C16.8684,284.1969765625,9.70253,282.6599765625,4.81511,278.4529765625C4.56069,278.2339765625,4.32064,277.9979765625,4.09895,277.7449765625C-0.300495,272.7249765625,-1.27528,265.6519765625,1.74529,259.6279765625C2.36434,258.3919765625,3.2325,257.2669765625,4.04439,256.1689765625C5.3075,254.4589765625,6.97259,253.1349765625,8.6251,251.8329765625C9.70274,250.9839765625,10.8647,250.2709765625,12.0522,249.5979765625C12.0125,249.5919765625,11.9734,249.5859765625,11.9329,249.5799765625C9.60709,249.2249765625,7.16977,247.8289765625,5.49018,246.1909765625C0.448624,241.2719765625,-0.571568,232.9009765625,2.77739,226.7289765625C4.89913,222.8189765625,8.34616,219.8399765625,12.1205,217.6429765625C12.9568,217.1559765625,13.8126,216.7029765625,14.6713,216.2559765625C13.0739,216.0779765625,12.2512,215.8189765625,10.3936,215.0599765625C9.3317,214.6259765625,8.37559,213.8469765625,7.49815,213.1329765625C3.11101,209.5579765625,2.21213,202.6409765625,3.96601,197.4939765625C5.7663,192.2119765625,10.1074,188.1329765625,14.8371,185.4889765625C16.07,184.7999765625,17.3404,184.1779765625,18.5982,183.5349765625C18.5608,183.5339765625,18.5238,183.5329765625,18.4866,183.5319765625C18.514,183.5349765625,18.5411,183.5379765625,18.5685,183.5409765625C17.5545,183.4889765625,16.5188,183.4049765625,15.5236,183.1899765625C11.318,182.2819765625,7.99276,178.7729765625,6.73813,174.6699765625C5.64645,171.0979765625,6.30695,167.2609765625,7.9096,163.9619765625C10.8976,157.8119765625,17.2141,155.9799765625,22.1693,152.0249765625C22.5978,151.6839765625,23.0226,151.3009765625,23.3436,150.8579765625C23.2518,150.8419765625,23.1595,150.8239765625,23.0669,150.8019765625C22.2979,150.6249765625,21.5327,150.4389765625,20.7847,150.2159765625C19.5944,150.2519765625,18.4152,150.0959765625,17.2497,149.5799765625C14.5233,148.3749765625,13.0862,145.4279765625,12.8918,142.5469765625C12.8683,142.1979765625,12.8701,141.8499765625,12.8951,141.5029765625C12.8697,141.1549765625,12.8678,140.8049765625,12.8914,140.4539765625C13.0858,137.5729765625,14.5229,134.6259765625,17.2493,133.4209765625C18.4151,132.9049765625,19.5946,132.7489765625,20.7851,132.7849765625C21.5331,132.5619765625,22.2983,132.3769765625,23.0674,132.1989765625C23.1597,132.1769765625,23.2517,132.1589765625,23.3433,132.1429765625C23.0223,131.6999765625,22.5974,131.3169765625,22.1689,130.9759765625C17.2137,127.0209765625,10.8972,125.1889765625,7.9092,119.0389765625C6.30656,115.7399765625,5.64605,111.9029765625,6.73773,108.3309765625C7.99236,104.2279765625,11.3176,100.7189765625,15.5232,99.8112765625C16.5184,99.5963765625,17.5541,99.5118765625,18.568,99.4599765625C18.5407,99.4629765625,18.5136,99.4658765625,18.4862,99.4690765625C18.5233,99.4678765625,18.5604,99.4666765625,18.5978,99.4659765625C17.34,98.8227765625,16.0695,98.2007765625,14.8367,97.5117765625C10.107,94.8678765625,5.7659,90.7890765625,3.96561,85.5066765625C2.21174,80.3599765625,3.11063,73.4429765625,7.49775,69.8683765625C8.37519,69.1536765625,9.33129,68.3744765625,10.3932,67.9406765625C12.2508,67.1818765625,13.0735,66.9232765625,14.6709,66.7453765625C13.8122,66.2974765625,12.9564,65.8445765625,12.1201,65.3578765625C8.34576,63.1612765625,4.89872,60.1815765625,2.77699,56.2715765625C-0.571957,50.0995765625,0.448227,41.7291765625,5.48978,36.8101765625C7.16936,35.1714765625,9.60668,33.7755765625,11.9325,33.4204765625C11.973,33.4144765625,12.0121,33.4091765625,12.0518,33.4029765625C10.8643,32.7298765625,9.70234,32.0164765625,8.6247,31.1678765625C6.9722,29.8655765625,5.30711,28.5419765625,4.04399,26.8319765625C3.2321,25.7336765625,2.36396,24.6083765625,1.74489,23.3731765625C-1.27568,17.3484765625,-0.300896,10.2758765625,4.09856,5.2559265625C4.32026,5.0027965625,4.56029,4.7666065625,4.81472,4.5474765625Z" fill-rule="evenodd" fill="#FF90E8" fill-opacity="1" style="mix-blend-mode:passthrough"/><path d="" fill="#000000" fill-opacity="0" style="mix-blend-mode:passthrough"/></g></svg>