<svg xmlns="http://www.w3.org/2000/svg" xmlns:xlink="http://www.w3.org/1999/xlink" fill="none" version="1.1" width="194.4091796875" height="212.8046875" viewBox="0 0 194.4091796875 212.8046875"><g><g transform="matrix(0.5,-0.8660253882408142,0.8660253882408142,0.5,-130.63409429349122,75.421630859375)"><path d="M173.622,170.48656171875C171.823,161.81446171875,165.652,154.69728171875,157.322,151.68661171875C156.898,151.53458071875,156.464,151.41261271875,156.022,151.32161171875C147.349,149.45602171875,138.425,153.15061171875,133.608,160.60161171875C132.658,162.18846171875,131.846,163.85386171875,131.18,165.57956171875C130.183,168.22316171875,129.544,170.98836171875,129.281,173.80156171875C129.056,175.61946171875,128.969,177.45166171875,129.02,179.28256171875L128.919,179.15556171875C126.749,176.63206171875,123.885,174.80106171875,120.684,173.88956171875C111.632,171.27356171875,101.323,175.63956171875,96.4835,183.64256171875002C93.4175,188.71256171875,92.3135,194.71156171875,92.3295,200.57256171875C92.3295,201.87256171875,92.3885,203.17256171875,92.4525,204.47256171875C91.2734,202.84936171875,89.8359,201.43056171875,88.1975,200.27256171875C86.9169,199.37616171874998,85.5138,198.66886171875,84.0315,198.17256171875C76.9675,195.42766171875002,68.4095,198.97256171875,63.6735,204.43256171875C58.8135,210.03856171875,57.0475,217.81056171875,57.1935,225.08256171875001C57.2315,226.98266171875,57.3725,228.87266171875,57.4795,230.76756171875002L57.3975,230.63956171875L57.4635,230.72856171875C56.7341,229.55916171875,55.9132,228.44936171875,55.0085,227.40956171875C51.1325,223.10956171875,44.8585,221.55656171875,39.2965,222.81556171875002C34.5168,224.06876171875,30.3963,227.10036171874998,27.7775,231.29056171874998C22.7195,238.85956171875,24.8675,247.44256171875,23.6585,255.84826171875C23.5827,257.11426171875,23.0812,258.31726171875,22.2355,259.26126171875C21.2465,256.36126171875003,20.0805,253.61226171875,17.5355,251.73326171875C14.3145,249.35266171875,9.9585,249.63366171875,6.5155,251.31726171875C3.41562,252.99426171875,1.18442,255.92026171875,0.388503,259.35326171875C-0.557497,263.02426171875,0.388503,266.54626171875,1.4705,270.05326171875C3.0535,275.17926171875,10.1775,276.15326171875,12.5155,271.03126171875C13.141,271.61326171875,13.8219,272.13326171875,14.5485,272.58226171875003C22.3658,277.12726171875,32.3916,274.34026171875,36.7425,266.41326171875C38.7607,262.59926171875,39.9105,258.38626171875,40.1095,254.07526171875C40.3285,251.22826171875,40.2195,248.36666171874998,40.3815,245.51966171875C40.4545,245.87666171875,40.5405,246.23566171875,40.6455,246.60066171875002C41.1077,248.13706171875,41.6733,249.64056171875,42.3385,251.10026171875C43.2375,253.14126171875,44.5681,254.96226171875,46.2385,256.43926171875C54.2575,263.39526171875,65.2095,262.51226171875,73.0385,255.66126171874998C77.9835,251.33526171875002,79.9535,245.24566171875,80.8315,238.94866171875C81.0616,237.15206171875002,81.1392,235.33926171874998,81.0635,233.52966171875C81.7669,234.14686171875002,82.512,234.71486171875,83.2935,235.22966171874998C94.1735,242.26966171875,108.257,235.25866171875,113.56,224.54056171874998C115.667,220.28256171875,116.308,215.18256171874998,116.21,210.48266171875C116.18,209.05766171875,116.086,207.63466171875,115.985,206.21066171875C117.036,207.44966171875,118.238,208.55196171875,119.564,209.49156171875C120.919,210.43496171875,122.411,211.16566171875002,123.988,211.65856171875C127.16,212.62366171875,130.527,212.75826171875,133.767,212.04956171875C134.423,211.92896171875,135.067,211.74816171875,135.691,211.50956171875C137.297,210.98866171875,138.851,210.31456171874999,140.329,209.49656171875C143.19,207.76326171875002,145.676,205.47426171875,147.639,202.76456171875C149.193,200.60546171875,150.311,198.16286171875,150.928,195.57456171875Q151.242,194.34556171875,151.471,193.08566171875C151.671,193.53766171875,151.87,193.99156171875,152.071,194.44566171875C153.852,198.50666171875,159.293,199.41666171875,162.971,197.60266171875C170.671,193.80266171875002,173.911,185.34666171875,174.171,177.10266171875C174.221,174.88296171875,174.039,172.66426171875,173.622,170.48656171875Z" fill="#FF90E8" fill-opacity="1" style="mix-blend-mode:passthrough"/></g></g></svg>