<svg xmlns="http://www.w3.org/2000/svg" xmlns:xlink="http://www.w3.org/1999/xlink" fill="none" version="1.1" width="250.6500244140625" height="256.4248046875" viewBox="0 0 250.6500244140625 256.4248046875"><g><g transform="matrix(0.9902681112289429,-0.13917310535907745,0.13917310535907745,0.9902681112289429,-4.282291214505676,0.2994456556625664)"><g><path d="M220.8140455571171,131.97853125C219.4740455571171,124.12703125,213.30604555711713,117.99863125,205.39404555711712,116.09393125C205.39404555711712,116.09393125,197.77004555711713,115.45543125,197.77004555711713,115.45543125C197.36504555711713,115.45423125,196.9620455571171,115.45353125,196.56004555711712,115.45353125C195.62104555711713,115.45353125,194.6880455571171,115.45673125,193.78204555711713,115.46063125C193.78204555711713,115.46063125,189.62204555711713,115.46593125,189.62204555711713,115.46593125C188.75204555711713,115.46733125,187.88204555711712,115.46733125,187.01204555711712,115.46733125C187.01204555711712,115.46733125,186.97604555711712,115.46733125,186.97604555711712,115.46733125C184.5760455571171,115.46773125,182.0940455571171,115.46803125,179.6180455571171,115.49043125C178.3670455571171,115.50193125,176.6120455571171,115.57183125,174.62504555711712,115.97493125C173.29304555711713,112.42513125,171.6580455571171,109.01213125,169.72704555711712,105.75443125C170.76204555711712,105.03583125,171.7490455571171,104.21043125,172.68504555711712,103.27923125C174.84704555711713,101.13083125,177.01304555711712,98.98763125,179.17904555711712,96.84453125C179.17904555711712,96.84453125,179.3780455571171,96.64773125,179.3780455571171,96.64773125C181.4920455571171,94.55643125,183.6060455571171,92.46483125,185.71604555711713,90.36893125C189.43504555711712,86.67443125,191.60904555711713,81.89173124999999,191.8370455571171,76.90233125C192.09004555711712,71.38613125,190.0220455571171,66.16963125000001,186.01404555711713,62.21303125C182.26904555711712,58.516831249999996,177.3490455571171,56.48123125,172.16004555711712,56.48123125C166.84704555711713,56.48123125,161.74404555711712,58.616131249999995,157.79304555711713,62.49273125C156.24504555711712,64.01153124999999,154.69604555711712,65.54963125,153.19804555711713,67.03703125C153.19804555711713,67.03703125,151.4990455571171,68.72253125,151.4990455571171,68.72253125C150.82104555711712,69.39473125,150.1400455571171,70.06503125,149.44704555711712,70.74803125C147.72704555711712,72.44273125000001,145.94804555711713,74.19513125,144.18404555711712,75.99833125C143.2250455571171,76.97803125,142.3800455571171,78.03213124999999,141.65504555711712,79.14643125C140.84504555711712,78.71973125,140.03104555711712,78.31343125000001,139.21604555711713,77.92823125000001C136.49704555711713,76.64373125,133.6830455571171,75.55553125,130.80504555711713,74.67413125C130.80504555711713,74.67413125,130.80504555711713,70.36533125,130.80504555711713,70.36533125C130.81104555711713,68.99103124999999,130.8080455571171,67.62833125,130.80504555711713,66.37713124999999C130.80504555711713,66.37713124999999,130.80504555711713,62.218031249999996,130.80504555711713,62.218031249999996C130.80504555711713,61.34763125,130.8070455571171,59.57483125,130.8070455571171,59.57483125C130.81004555711712,57.17323125,130.8130455571171,54.69023125,130.79304555711713,52.213731249999995C130.78104555711712,50.588331249999996,130.6700455571171,48.11133125,129.85904555711713,45.37913125C127.26304555711712,36.64069125,119.68904555711711,30.76953125,111.01204555711712,30.76953125C109.96704555711712,30.76953125,108.91004555711712,30.85597295,107.87104555711711,31.02610525C98.45514555711712,32.56853125,91.31584555711711,41.37733125,91.26484555711711,51.51643125C91.23094555711712,58.20643125,91.24604555711711,64.97023125,91.26074555711712,71.51093125C91.26074555711712,71.51093125,91.26354555711711,72.82263125,91.26354555711711,72.82263125C91.26514555711712,73.51413124999999,91.30114555711712,74.21233125,91.37034555711712,74.90943125C87.60244555711712,75.99113125,84.00764555711712,77.33363125,80.60754555711712,78.92863125C80.60754555711712,78.92863125,76.00664555711712,73.71803125,76.00664555711712,73.71803125C75.09684555711712,72.67773125,74.19434555711712,71.65943125,73.36594555711712,70.72693125C73.36594555711712,70.72693125,70.61284555711711,67.60913124999999,70.61284555711711,67.60913124999999C70.08364555711712,67.00973125,68.85424555711712,65.61403125,68.85424555711712,65.61403125C67.27054555711712,63.81623125,65.63294555711713,61.95713125,63.983245557117115,60.11773125C62.89774555711712,58.90763125,61.17564555711712,57.12393125,58.758945557117116,55.61293125C55.37164555711712,53.49523125,51.53744555711712,52.37603125,47.67094555711712,52.37603125C42.95134555711712,52.37603125,38.43754555711712,54.06643125,34.96174555711712,57.135431249999996C34.17844555711712,57.82693125,33.44334555711712,58.591131250000004,32.77684555711712,59.40673125C26.73924555711712,66.79513125,27.21794555711712,78.12383125,33.89054555711712,85.75793125C38.301745557117115,90.80503125,42.78554555711712,95.86043125,47.12134555711712,100.74883125C47.12134555711712,100.74883125,47.99154555711712,101.72993125,47.99154555711712,101.72993125C49.19484555711712,103.08663125,50.60604555711712,104.32093125,52.113845557117116,105.33963125C50.246545557117116,108.61523125,48.60344555711712,112.11013125,47.19384555711712,115.80413125C47.19384555711712,115.80413125,47.19384555711712,115.44573125,47.19384555711712,115.44573125C47.19384555711712,115.44573125,39.569745557117116,115.45543125,39.569745557117116,115.45543125C39.16574555711712,115.45423125,38.76244555711712,115.45353125,38.36024555711712,115.45353125C37.42084555711712,115.45353125,36.48784555711712,115.45673125,35.58174555711712,115.46063125C35.58174555711712,115.46063125,31.42194555711712,115.46593125,31.42194555711712,115.46593125C30.55204555711712,115.46733125,29.68264555711712,115.46733125,28.811745557117117,115.46733125C28.811745557117117,115.46733125,28.776445557117118,115.46733125,28.776445557117118,115.46733125C26.37624555711712,115.46773125,23.893945557117117,115.46803125,21.41794555711712,115.49043125C19.79224555711712,115.50543125,17.31544555711712,115.61913125,14.58514555711712,116.43403125C5.850125557117119,119.04123125,-0.011173442882881267,126.62293125,0.000061680717118733,135.29953125C0.001208127117118733,136.34353125,0.08902555711711874,137.40053125,0.2607625571171187,138.44053125C1.8153355571171188,147.85453124999998,10.633545557117118,154.98253125,20.77264555711712,155.02053125C22.79384555711712,155.02753124999998,24.82464555711712,155.03053125,26.854345557117117,155.03053125C31.53644555711712,155.03053125,36.22904555711712,155.01453125,40.76704555711712,154.99853124999998C40.76704555711712,154.99853124999998,42.07864555711712,154.99353125,42.07864555711712,154.99353125C42.97974555711712,154.99053125,43.891645557117116,154.92853125,44.79754555711712,154.81153125C46.15564555711712,159.28153125,48.138445557117116,163.75753125,50.789545557117115,168.35453125C50.789545557117115,168.35453125,45.45944555711712,173.29153125,45.45944555711712,173.29153125C44.426745557117115,174.23853125,43.39544555711712,175.19753125,42.534645557117116,175.99953125C42.534645557117116,175.99953125,39.48374555711712,178.82553125,39.48374555711712,178.82553125C38.84494555711712,179.41753125,38.20594555711712,180.00753125,37.55104555711712,180.61253125C35.784645557117116,182.24553125,33.95814555711712,183.93253125,32.15184555711712,185.63253125C30.96774555711712,186.74653125,29.22564555711712,188.51053125,27.77244555711712,190.96253125C23.125445557117118,198.80453125,23.96464555711712,208.35153125,29.86074555711712,214.71753125C30.570845557117117,215.48353125,31.35224555711712,216.20053125,32.182945557117115,216.84653125C35.51384555711712,219.43853125,39.59794555711712,220.80953125,43.99384555711712,220.80953125C49.338145557117116,220.80953125,54.49004555711712,218.78353125,58.50054555711712,215.10653125C62.51584555711712,211.42453125,66.52784555711712,207.70253125,70.45234555711711,204.05353125C70.45234555711711,204.05353125,70.45234555711711,204.05753125,70.45234555711711,204.05753125C70.46504555711712,206.68453125,70.92104555711713,209.25353125,71.78614555711712,211.62953125C71.56674555711712,212.17253125,71.37344555711712,212.72653125,71.20724555711712,213.28953125C69.59094555711712,218.76453125,70.59824555711712,224.49753125,73.97054555711712,229.02053125C74.63234555711712,229.90753125,75.36904555711712,230.72553125,76.17544555711711,231.47053125C76.59504555711712,235.48953125,78.31654555711712,239.18853125,81.14094555711712,242.06253125C83.08024555711712,244.03653125,85.48524555711712,245.52953125,88.14264555711712,246.44353125C89.08274555711712,249.26153125,90.71324555711712,251.80253125,92.92284555711711,253.83553125C96.19074555711713,256.84253125,100.52604555711711,258.54353125,105.13204555711712,258.62453125C105.80804555711713,258.63653124999996,106.52304555711711,258.64153125,107.37904555711712,258.64153125C107.94204555711711,258.64153125,108.50504555711711,258.63953125,109.06604555711712,258.63753125C109.06604555711712,258.63753125,109.20204555711712,258.63653124999996,109.20204555711712,258.63653124999996C109.68004555711713,258.63453125,110.15704555711712,258.63253125,110.63704555711712,258.63253125C110.63704555711712,258.63253125,111.67204555711712,258.63253125,111.67204555711712,258.63253125C111.67204555711712,258.63253125,112.30004555711712,258.63553125,112.30004555711712,258.63553125C112.89604555711712,258.63853125,113.49304555711711,258.64253125,114.09004555711712,258.64253125C114.74004555711711,258.64253125,115.31604555711712,258.63853125,115.85504555711712,258.63053125C115.85504555711712,258.63053125,124.39204555711711,257.76153124999996,124.39204555711711,256.69453125C126.03904555711712,255.87453125,127.55304555711712,254.80753125,128.88204555711712,253.51853125C130.92304555711712,251.54053125,132.44204555711713,249.11753125,133.34104555711713,246.45753125C133.4150455571171,246.43253125,133.48904555711712,246.40753125,133.56204555711713,246.38053125C140.18104555711713,244.03153125,144.6290455571171,238.25653125,145.3320455571171,231.47153125C146.1340455571171,230.72453125,146.8680455571171,229.90453125,147.52604555711713,229.01553125C150.8800455571171,224.48753125,151.89204555711711,218.76453125,150.3010455571171,213.31453125C150.13204555711712,212.73453125,149.93404555711712,212.16553125,149.71004555711713,211.60953125C150.57104555711712,209.27353125,151.0280455571171,206.76353125,151.04804555711712,204.21053125C151.05304555711712,203.62753125,151.05404555711712,203.04953125,151.05304555711712,202.47753125C153.1640455571171,204.86453125,155.2660455571171,207.23453125,157.33404555711712,209.56553125C157.33404555711712,209.56553125,158.20404555711713,210.54653125,158.20404555711713,210.54653125C159.6340455571171,212.15853125,161.35704555711712,213.59853125,163.1880455571171,214.70853125C166.53604555711712,216.74053125,170.3130455571171,217.81453125,174.1110455571171,217.81453125C178.84504555711712,217.81453125,183.3620455571171,216.12853125,186.82704555711712,213.06853125C187.62604555711712,212.36253125,188.3730455571171,211.58253125,189.04804555711712,210.74753125C194.0570455571171,204.55053125,194.57804555711712,195.86653125,190.7720455571171,188.66753125C190.7720455571171,188.66753125,186.22104555711712,182.53653125,186.22104555711712,182.53653125C185.29304555711713,181.47553125,184.35804555711712,180.42153125,183.57804555711712,179.54453125C183.57804555711712,179.54453125,180.8250455571171,176.42653125,180.8250455571171,176.42653125C180.2490455571171,175.77453125,179.67504555711713,175.12153125,179.0990455571171,174.46853125C179.0990455571171,174.46853125,179.05504555711713,174.41853125,179.05504555711713,174.41853125C177.4750455571171,172.62453125,175.84104555711713,170.76953125,174.1950455571171,168.93453125C173.58404555711712,168.25253125,172.76904555711712,167.38753125,171.7420455571171,166.49253125C173.87004555711712,162.56053125,175.50604555711712,158.72353125,176.6830455571171,154.89253125C177.4390455571171,154.97453124999998,178.20304555711712,155.01753125,178.97304555711713,155.02053125C180.99404555711712,155.02753124999998,183.02504555711712,155.03053125,185.05404555711712,155.03053125C189.7360455571171,155.03053125,194.42904555711712,155.01453125,198.96704555711713,154.99853124999998C198.96704555711713,154.99853124999998,200.27904555711712,154.99353125,200.27904555711712,154.99353125C202.43404555711712,154.98553125,204.6530455571171,154.64353125,206.69604555711712,154.00353124999998C215.31604555711712,151.30553125,221.1000455571171,143.73953125,221.0880455571171,135.17853125C221.08604555711713,134.11253125000002,220.99404555711712,133.03553125000002,220.8140455571171,131.97853125Z" fill="#68FE7F" fill-opacity="1" style="mix-blend-mode:passthrough"/></g><g><path d="M110.75142587280274,211.36627072143554C104.37612587280273,211.36627072143554,98.00102587280273,211.36927072143556,91.62562587280274,211.36427072143556C87.17902587280274,211.36127072143555,84.23092587280274,208.43227072143554,84.20952587280274,203.99127072143554C84.19512587280273,201.01327072143556,84.19282587280273,198.03527072143555,84.20842587280274,195.05827072143555C84.23542587280274,189.91427072143554,82.42722587280274,185.52027072143557,78.83182587280274,181.86107072143557C72.82242587280274,175.74547072143554,67.26212587280273,169.27177072143553,62.91505587280273,161.83957072143556C59.750625872802736,156.42927072143556,57.377705872802736,150.71567072143554,56.587601872802736,144.44197072143555C55.88276787280273,138.84447072143556,56.301896672802734,133.27457072143554,57.744125872802734,127.86357072143554C63.74391587280273,105.35327072143555,78.15292587280274,91.14264072143554,100.98502587280274,86.74512072143554C120.78312587280273,82.93204072143554,137.89242587280273,89.19504072143555,151.49612587280274,104.14307072143555C160.38392587280273,113.90937072143555,164.75092587280272,125.65597072143555,165.19392587280274,138.84087072143555C165.45592587280274,146.62187072143556,163.08392587280275,153.72117072143556,159.37192587280273,160.44047072143553C155.20482587280273,167.98407072143556,149.79472587280273,174.58647072143555,143.76812587280273,180.68887072143553C140.83322587280273,183.66067072143557,138.44992587280274,186.90027072143556,137.69102587280275,191.08027072143557C137.40032587280274,192.68127072143557,137.34872587280273,194.33827072143555,137.31292587280274,195.97227072143556C137.25402587280274,198.68127072143557,137.31282587280273,201.39227072143555,137.29132587280273,204.10227072143556C137.25772587280272,208.40427072143555,134.28642587280274,211.35827072143553,129.99162587280273,211.36327072143553C123.57812587280273,211.37227072143554,117.16462587280273,211.36627072143554,110.75142587280274,211.36627072143554ZM128.88522587280272,202.94127072143556C128.88522587280272,200.58827072143555,128.92032587280272,198.30327072143555,128.87882587280274,196.01927072143553C128.73252587280274,187.96327072143555,131.56862587280273,181.18117072143554,137.19372587280273,175.39607072143554C140.59202587280274,171.90127072143554,143.77752587280276,168.17417072143553,146.80462587280272,164.35027072143555C150.60982587280273,159.54277072143555,153.65002587280273,154.25907072143553,155.50902587280274,148.35857072143554C157.65492587280272,141.54867072143554,157.02492587280273,134.75577072143554,155.17362587280275,128.05097072143553C148.44242587280274,103.66937072143554,123.82022587280274,89.16113072143554,99.36392587280272,95.59244072143555C82.10902587280273,100.13007072143554,71.05482587280274,111.47917072143555,66.16178587280274,128.64407072143555C64.68974587280273,133.80767072143556,64.15571587280273,139.14717072143554,65.07563587280274,144.51157072143553C66.17576587280274,150.92747072143555,69.19612587280274,156.51207072143555,72.81822587280274,161.80767072143556C76.40842587280274,167.05657072143555,80.65562587280273,171.75197072143555,85.09212587280274,176.28867072143555C88.50462587280273,179.77837072143555,90.73232587280273,183.93907072143554,91.89482587280273,188.67327072143553C92.77942587280273,192.27527072143556,92.61592587280273,195.94827072143556,92.61572587280273,199.61027072143554C92.61572587280273,199.61027072143554,92.61572587280273,202.94127072143556,92.61572587280273,202.94127072143556C92.61572587280273,202.94127072143556,128.88522587280272,202.94127072143556,128.88522587280272,202.94127072143556C128.88522587280272,202.94127072143556,128.88522587280272,202.94127072143556,128.88522587280272,202.94127072143556Z" fill="#5C2D25" fill-opacity="1" style="mix-blend-mode:passthrough"/></g><g><path d="M110.75429360351562,222.5642746484375C103.42569360351563,222.5640346484375,96.09699360351563,222.5749546484375,88.76849360351562,222.5589646484375C85.63037360351562,222.5523146484375,83.57257260351562,219.9923746484375,84.40142960351562,217.1847646484375C84.91092060351562,215.4588646484375,86.38769360351563,214.2982246484375,88.30273360351562,214.1695015484375C89.06283360351563,214.1186592484375,89.82889360351562,214.1489937384375,90.59216360351563,214.1489937384375C104.56229360351563,214.1482002784375,118.53239360351563,214.1463692184375,132.50239360351563,214.1505806484375C134.89669360351562,214.1512520484375,136.53109360351561,215.2385946484375,137.09489360351563,217.1701146484375C137.89149360351564,219.8982646484375,135.92159360351562,222.5174646484375,132.96879360351562,222.5519446484375C129.11419360351562,222.5970546484375,125.25879360351563,222.5640346484375,121.40349360351563,222.5642746484375C117.85389360351562,222.5648246484375,114.30409360351562,222.5645846484375,110.75429360351562,222.5642746484375Z" fill="#5C2D25" fill-opacity="1" style="mix-blend-mode:passthrough"/></g><g><path d="M110.86875495605469,225.33930045292968C116.40175495605469,225.3396056229297,121.93465495605469,225.3242858029297,127.46735495605469,225.3476012029297C129.5733549560547,225.35620720292968,131.29375495605467,226.8178205029297,131.6069549560547,228.7597105029297C131.94145495605468,230.8325305029297,130.8975549560547,232.7280905029297,128.9603549560547,233.41590050292967C128.36415495605468,233.62751050292968,127.6943549560547,233.7154605029297,127.0581549560547,233.71668050292968C116.18325495605468,233.7343805029297,105.30795495605469,233.7359705029297,94.43310495605469,233.72492050292968C91.63766495605469,233.7223005029297,89.79119565605468,231.97590050292968,89.8326385100547,229.4414705029297C89.87276915605469,226.99586050292967,91.74612495605469,225.3424132429297,94.49917495605469,225.3401549429297C99.95555495605468,225.33557730692968,105.41215495605469,225.3388121729297,110.86875495605469,225.33930045292968Z" fill="#5C2D25" fill-opacity="1" style="mix-blend-mode:passthrough"/></g><g><path d="M31.471602917480467,139.4392378930664C28.76598291748047,139.4392378930664,26.060382917480467,139.4515978930664,23.35499291748047,139.43578789306642C20.75648291748047,139.4206878930664,18.89330291748047,137.6576578930664,18.89330291748047,135.24810789306642C18.89330291748047,132.88366789306642,20.68288291748047,131.09634419306641,23.25504291748047,131.07485989306642C28.741702917480467,131.0287477930664,34.22950291748047,131.0260011930664,39.716402917480465,131.0771181930664C42.272002917480464,131.1009523930664,44.01870291748047,132.91366789306642,43.99370291748047,135.3145778930664C43.969402917480465,137.67879789306642,42.13150291748047,139.41607789306642,39.58820291748047,139.43462789306642C36.88280291748047,139.4546178930664,34.17720291748047,139.4392378930664,31.471602917480467,139.4392378930664Z" fill="#5C2D25" fill-opacity="1" style="mix-blend-mode:passthrough"/></g><g><path d="M189.6011080810547,139.43917789306641C186.9334980810547,139.4393878930664,184.26583808105468,139.4494978930664,181.5982380810547,139.4363978930664C178.95351808105468,139.4235578930664,177.1108085810547,137.7279978930664,177.0841972290547,135.31078789306642C177.0576469810547,132.89504789306642,178.8619680810547,131.0918886930664,181.49068808105469,131.07125879306642C186.93990808105468,131.0288698930664,192.39020808105468,131.0288698930664,197.8394080810547,131.0717470930664C200.39460808105468,131.0917055930664,202.19920808105468,132.8895278930664,202.2038080810547,135.2516478930664C202.20780808105468,137.6243878930664,200.2999080810547,139.4194378930664,197.7185080810547,139.43523789306641C195.0128080810547,139.4519678930664,192.3069080810547,139.43899789306641,189.6011080810547,139.43917789306641Z" fill="#5C2D25" fill-opacity="1" style="mix-blend-mode:passthrough"/></g><g><path d="M61.17843856811523,91.07330172729492C60.28373856811523,90.55610172729493,59.217038568115235,90.20640172729492,58.52283856811523,89.49380172729492C54.64068856811524,85.50880172729492,50.831538568115235,81.45170172729492,47.03359856811524,77.38572172729492C45.36804156811523,75.60301172729493,45.47351056811524,73.05310172729492,47.18375856811524,71.44439172729493C48.84772856811524,69.87904272729492,51.38618856811524,69.88317872729492,53.046658568115234,71.60559172729492C56.934738568115236,75.63856172729493,60.77533856811523,79.71759172729492,64.59843856811523,83.81230172729492C65.86433856811523,85.16820172729493,66.07903856811524,86.78660172729492,65.31063856811524,88.47940172729491C64.60833856811523,90.02730172729493,63.075338568115235,90.89470172729492,61.17843856811523,91.07330172729492Z" fill="#5C2D25" fill-opacity="1" style="mix-blend-mode:passthrough"/></g><g><path d="M172.15743090820314,201.23679353027345C171.6797309082031,200.97199353027344,170.55593090820312,200.63769353027345,169.84053090820314,199.90449353027344C165.9288309082031,195.89579353027344,162.09631090820312,191.80869353027344,158.28186090820313,187.70630353027343C156.68713490820312,185.99139353027343,156.82855390820313,183.40710353027345,158.48132090820312,181.84375353027343C160.1138309082031,180.29937853027343,162.64246090820313,180.24060153027344,164.25525090820312,181.90826353027344C168.22833090820313,186.01684353027343,172.14823090820312,190.17822353027344,176.02513090820312,194.37809353027345C177.2456309082031,195.70039353027343,177.3895309082031,197.33409353027344,176.56803090820313,198.95719353027343C175.79143090820313,200.49189353027344,174.47633090820312,201.21269353027344,172.15743090820314,201.23679353027345Z" fill="#5C2D25" fill-opacity="1" style="mix-blend-mode:passthrough"/></g><g><path d="M46.45342622436523,204.60816896972656C44.10067622436524,204.52866896972657,42.78683622436523,203.75376896972656,42.03820622436523,202.14826896972656C41.273771224365234,200.50916896972657,41.58517302436523,198.77256896972656,42.92190622436524,197.41486896972657C45.67587622436523,194.61836896972656,48.46334622436523,191.85473896972655,51.237486224365234,189.07825896972656C52.36883622436523,187.94592896972657,53.48543622436523,186.79846896972657,54.63833622436523,185.68847896972656C56.45723622436523,183.93689696972658,58.98743622436523,183.93189196972656,60.668136224365234,185.64618896972655C62.28193622436524,187.29193896972657,62.26303622436524,189.86615896972657,60.546136224365235,191.60028896972656C56.658336224365236,195.52696896972657,52.769636224365236,199.45376896972655,48.80087622436523,203.29746896972657C48.06118622436524,204.01406896972657,46.94592622436524,204.34266896972656,46.45342622436523,204.60816896972656Z" fill="#5C2D25" fill-opacity="1" style="mix-blend-mode:passthrough"/></g><g><path d="M160.05069351074218,91.60789686279297C158.2887235107422,91.54879686279297,156.9678035107422,90.74049686279297,156.2806695107422,89.12199686279297C155.5827935107422,87.47869686279297,155.7987974107422,85.87959686279297,157.06924351074218,84.56789686279296C159.1105635107422,82.46069686279297,161.2059035107422,80.40559686279298,163.27938351074218,78.32961686279297C165.0834035107422,76.52300686279297,166.88227351074218,74.71121686279297,168.6953735107422,72.91380686279297C170.6187735107422,71.00705086279297,173.1490735107422,70.90316886279297,174.8922735107422,72.64143686279297C176.63237351074218,74.37690686279296,176.52527351074218,76.91079686279296,174.6034735107422,78.84001686279296C170.8379735107422,82.61939686279297,167.05617351074218,86.38219686279297,163.2919035107422,90.16269686279297C162.39077351074218,91.06769686279297,161.3647735107422,91.64009686279297,160.05069351074218,91.60789686279297Z" fill="#5C2D25" fill-opacity="1" style="mix-blend-mode:passthrough"/></g><g><path d="M115.14980718994141,60.28423139343262C115.14980718994141,63.10883139343262,115.18490718994141,65.93393139343262,115.13820718994141,68.75783139343261C115.1044571899414,70.80333139343261,113.6303371899414,72.47163139343262,111.7237771899414,72.76903139343261C109.6295471899414,73.09573139343262,107.7153901899414,71.96443139343262,107.0401881899414,69.96783139343262C106.9084746899414,69.57843139343262,106.8371550899414,69.14903139343262,106.83627008994141,68.73763139343262C106.82278131994141,63.088431393432614,106.8062712899414,57.43925139343261,106.83700248994141,51.79027139343262C106.8482024899414,49.758541393432616,108.3441171899414,48.080154393432615,110.25411718994141,47.791702293432614C112.38143718994141,47.47047439343262,114.28383718994141,48.574508393432616,114.93087718994141,50.58146139343262C115.11336718994141,51.147801393432616,115.14437718994141,51.78019139343262,115.14943718994141,52.38299139343262C115.17183718994141,55.01658139343262,115.15902718994141,57.650441393432615,115.15902718994141,60.28423139343262C115.15902718994141,60.28423139343262,115.14980718994141,60.28423139343262,115.14980718994141,60.28423139343262C115.14980718994141,60.28423139343262,115.14980718994141,60.28423139343262,115.14980718994141,60.28423139343262Z" fill="#5C2D25" fill-opacity="1" style="mix-blend-mode:passthrough"/></g><g><path d="M110.63445986572266,244.8749413964844C108.88018986572266,244.8749413964844,107.12539986572266,244.89954139648438,105.37182986572266,244.86890139648438C102.80889986572265,244.82422139648438,100.99450696572265,243.09858139648438,100.96856698472266,240.7290713964844C100.94241346572265,238.34827139648436,102.83956986572265,236.54389109648437,105.43120986572265,236.53137889648437C109.01619986572265,236.51380081648438,112.60109986572266,236.51062698648437,116.18579986572266,236.53284379648437C118.69289986572265,236.5486518964844,120.55209986572265,238.3678613964844,120.53219986572266,240.72431139648438C120.51289986572266,243.0405913964844,118.71619986572266,244.80372139648438,116.24039986572265,244.86243139648437C114.37259986572266,244.90674139648436,112.50319986572265,244.87134139648438,110.63445986572266,244.87134139648438C110.63445986572266,244.87134139648438,110.63445986572266,244.8749413964844,110.63445986572266,244.8749413964844C110.63445986572266,244.8749413964844,110.63445986572266,244.8749413964844,110.63445986572266,244.8749413964844Z" fill="#5C2D25" fill-opacity="1" style="mix-blend-mode:passthrough"/></g><g><path d="M148.42788526611326,133.04301628417969C148.42788526611326,133.6526162841797,148.47278526611328,134.2665162841797,148.41978526611328,134.87131628417967C148.21768526611328,137.1835162841797,146.4125852661133,138.8060162841797,144.13628526611328,138.75781628417968C141.89888526611327,138.7103162841797,140.12068526611327,136.9557162841797,140.0846852661133,134.6331162841797C140.02758526611328,130.9541162841797,139.33648526611327,127.41791628417968,137.6324852661133,124.15321628417969C133.23058526611328,115.72121628417969,126.21838526611329,111.30053628417969,116.73055526611329,110.8627962841797C114.89303526611329,110.77795628417968,113.44808526611328,110.19537628417969,112.59811326611329,108.52587628417969C111.14926126611329,105.67993628417969,113.22952526611328,102.42614788417968,116.51962526611328,102.51666306417968C129.09098526611328,102.86267128417968,138.4750852661133,108.59258628417969,144.6539852661133,119.50181628417968C147.06108526611328,123.75151628417969,148.11748526611328,128.0466162841797,148.42788526611326,133.04301628417969Z" fill="#5C2D25" fill-opacity="1" style="mix-blend-mode:passthrough"/></g><g></g></g></g></svg>