<svg xmlns="http://www.w3.org/2000/svg" xmlns:xlink="http://www.w3.org/1999/xlink" fill="none" version="1.1" width="189.115966796875" height="194.919921875" viewBox="0 0 189.115966796875 194.919921875"><g><g><path d="M188.8820453679495,86.5731C187.7360453679495,79.857,182.4600453679495,74.6148,175.6920453679495,72.9856C175.6920453679495,72.9856,169.17004536794948,72.4393,169.17004536794948,72.4393C168.8240453679495,72.4384,168.4790453679495,72.4378,168.1350453679495,72.4378C167.3320453679495,72.4378,166.5340453679495,72.4405,165.75904536794948,72.4438C165.75904536794948,72.4438,162.20004536794949,72.4484,162.20004536794949,72.4484C161.45604536794949,72.4495,160.7120453679495,72.4495,159.9680453679495,72.4495C159.9680453679495,72.4495,159.9370453679495,72.4495,159.9370453679495,72.4495C157.88404536794948,72.4499,155.7610453679495,72.4501,153.6430453679495,72.4693C152.5730453679495,72.4792,151.0720453679495,72.539,149.3720453679495,72.8838C148.2330453679495,69.8473,146.8340453679495,66.9279,145.1830453679495,64.1412C146.0680453679495,63.5266,146.9120453679495,62.8205,147.7130453679495,62.024C149.5620453679495,60.1863,151.4150453679495,58.353,153.2680453679495,56.5198C153.2680453679495,56.5198,153.43804536794948,56.3515,153.43804536794948,56.3515C155.2460453679495,54.5626,157.0550453679495,52.7735,158.8590453679495,50.9807C162.0400453679495,47.8204,163.9000453679495,43.7293,164.0960453679495,39.4615C164.3120453679495,34.743,162.5430453679495,30.2808,159.1140453679495,26.8964C155.9110453679495,23.7348,151.7020453679495,21.9935,147.2640453679495,21.9935C142.7190453679495,21.9935,138.3540453679495,23.8197,134.9750453679495,27.1357C133.6510453679495,28.4348,132.32504536794949,29.7505,131.0430453679495,31.0228C131.0430453679495,31.0228,129.5900453679495,32.4645,129.5900453679495,32.4645C129.0100453679495,33.0396,128.4280453679495,33.6129,127.8360453679495,34.1972C126.3640453679495,35.6468,124.8430453679495,37.1458,123.3330453679495,38.6882C122.5130453679495,39.5262,121.7900453679495,40.4279,121.1700453679495,41.381C120.4770453679495,41.016,119.7810453679495,40.6685,119.0840453679495,40.339C116.75804536794949,39.2403,114.3510453679495,38.3094,111.88904536794949,37.5555C111.88904536794949,37.5555,111.88904536794949,33.8698,111.88904536794949,33.8698C111.8940453679495,32.6942,111.89204536794949,31.5286,111.88904536794949,30.4583C111.88904536794949,30.4583,111.88904536794949,26.9007,111.88904536794949,26.9007C111.88904536794949,26.1562,111.8910453679495,24.6397,111.8910453679495,24.6397C111.8930453679495,22.5854,111.8960453679495,20.4615,111.8790453679495,18.3431C111.86804536794949,16.9528,111.7740453679495,14.834,111.0800453679495,12.4969C108.85904536794949,5.02212,102.38004536794949,0,94.95834536794949,0C94.06454536794949,0,93.1606453679495,0.0739413,92.2719453679495,0.21947C84.2174453679495,1.53884,78.1105453679495,9.07379,78.0669453679495,17.7467C78.03794536794949,23.4692,78.05084536794949,29.2549,78.0634453679495,34.8497C78.0634453679495,34.8497,78.0657453679495,35.9718,78.0657453679495,35.9718C78.0671453679495,36.5633,78.09794536794949,37.1605,78.1571453679495,37.7567C74.9341453679495,38.6821,71.8592453679495,39.8304,68.9508453679495,41.1947C68.9508453679495,41.1947,65.01524536794949,36.7376,65.01524536794949,36.7376C64.23704536794949,35.8478,63.4650453679495,34.9768,62.756445367949496,34.1791C62.756445367949496,34.1791,60.4014453679495,31.5121,60.4014453679495,31.5121C59.948845367949495,30.9994,58.8971453679495,29.8056,58.8971453679495,29.8056C57.5424453679495,28.2677,56.1417453679495,26.6775,54.730545367949496,25.1042C53.802045367949496,24.069,52.328945367949494,22.5433,50.261745367949494,21.2508C47.36424536794949,19.4393,44.084545367949495,18.482,40.7772453679495,18.482C36.7400453679495,18.482,32.879045367949495,19.9279,29.905845367949496,22.5531C29.235945367949498,23.1446,28.607145367949496,23.7983,28.036945367949496,24.496C22.872445367949496,30.8159,23.281945367949497,40.5063,28.989545367949496,47.0365C32.7629453679495,51.3537,36.598245367949495,55.678,40.3070453679495,59.8595C40.3070453679495,59.8595,41.0514453679495,60.6988,41.0514453679495,60.6988C42.0807453679495,61.8593,43.287845367949494,62.915,44.57764536794949,63.7864C42.9803453679495,66.5884,41.5748453679495,69.5778,40.3690453679495,72.7377C40.3690453679495,72.7377,40.3690453679495,72.4311,40.3690453679495,72.4311C40.3690453679495,72.4311,33.84754536794949,72.4393,33.84754536794949,72.4393C33.501945367949496,72.4384,33.1569453679495,72.4378,32.812945367949496,72.4378C32.0093453679495,72.4378,31.211345367949498,72.4405,30.436245367949496,72.4438C30.436245367949496,72.4438,26.878045367949497,72.4484,26.878045367949497,72.4484C26.133945367949497,72.4495,25.390145367949497,72.4495,24.645245367949496,72.4495C24.645245367949496,72.4495,24.615045367949495,72.4495,24.615045367949495,72.4495C22.561945367949498,72.4499,20.438645367949498,72.4501,18.320645367949496,72.4693C16.930045367949496,72.4821,14.811445367949498,72.5794,12.475945367949496,73.2764C5.004135367949496,75.5066,-0.009551252050503278,81.9919,0.00005915994949672185,89.4135C0.0010398139494967218,90.3068,0.07615786794949672,91.2106,0.2230593679494967,92.1003C1.5528253679494968,100.153,9.095815367949497,106.25,17.768745367949496,106.282C19.497645367949495,106.289,21.234745367949497,106.292,22.970945367949497,106.292C26.975845367949496,106.292,30.989945367949495,106.277,34.871745367949494,106.264C34.871745367949494,106.264,35.993545367949494,106.26,35.993545367949494,106.26C36.764345367949495,106.257,37.5443453679495,106.204,38.319345367949495,106.104C39.480945367949495,109.928,41.1771453679495,113.757,43.444745367949494,117.688C43.444745367949494,117.688,38.8855453679495,121.911,38.8855453679495,121.911C38.002145367949495,122.722,37.1199453679495,123.542,36.3836453679495,124.228C36.3836453679495,124.228,33.773945367949494,126.646,33.773945367949494,126.646C33.227545367949496,127.152,32.6809453679495,127.657,32.120745367949496,128.174C30.609845367949497,129.571,29.047445367949496,131.014,27.5023453679495,132.468C26.489445367949497,133.421,24.999245367949495,134.93,23.756245367949496,137.027C19.781245367949495,143.736,20.499045367949495,151.901,25.542545367949497,157.347C26.149945367949496,158.002,26.818345367949497,158.615,27.528945367949497,159.168C30.378145367949497,161.386,33.8716453679495,162.558,37.631845367949495,162.558C42.2032453679495,162.558,46.6101453679495,160.825,50.040645367949494,157.68C53.475345367949494,154.531,56.9072453679495,151.346,60.264145367949496,148.225C60.264145367949496,148.225,60.264145367949496,148.228,60.264145367949496,148.228C60.2749453679495,150.476,60.665045367949496,152.673,61.4050453679495,154.706C61.2173453679495,155.17,61.052045367949496,155.644,60.909845367949494,156.126C59.52734536794949,160.809,60.388945367949496,165.713,63.2736453679495,169.581C63.839645367949494,170.34,64.4698453679495,171.04,65.1596453679495,171.677C65.5185453679495,175.115,66.9910453679495,178.279,69.4070453679495,180.738C71.06584536794949,182.426,73.12314536794949,183.704,75.39624536794949,184.485C76.2004453679495,186.895,77.5950453679495,189.069,79.4852453679495,190.808C82.2804453679495,193.38,85.9890453679495,194.835,89.9287453679495,194.905C90.5073453679495,194.915,91.1183453679495,194.919,91.8512453679495,194.919C92.33254536794949,194.919,92.81404536794949,194.918,93.29394536794949,194.915C93.29394536794949,194.915,93.41044536794949,194.915,93.41044536794949,194.915C93.81884536794949,194.913,94.22714536794949,194.911,94.6374453679495,194.911C94.6374453679495,194.911,95.5226453679495,194.911,95.5226453679495,194.911C95.5226453679495,194.911,96.0600453679495,194.914,96.0600453679495,194.914C96.5703453679495,194.917,97.0804453679495,194.92,97.59104536794949,194.92C98.1476453679495,194.92,98.6401453679495,194.917,99.1008453679495,194.909C99.1008453679495,194.909,106.4030453679495,194.167,106.4030453679495,193.254C107.8130453679495,192.552,109.1080453679495,191.639,110.2450453679495,190.537C111.99004536794949,188.845,113.2890453679495,186.772,114.0590453679495,184.497C114.1220453679495,184.476,114.1850453679495,184.454,114.2470453679495,184.431C119.9100453679495,182.422,123.7140453679495,177.482,124.3150453679495,171.678C125.00204536794949,171.04,125.6290453679495,170.338,126.19204536794949,169.577C129.0610453679495,165.704,129.92604536794948,160.809,128.5660453679495,156.147C128.4210453679495,155.651,128.2520453679495,155.164,128.0600453679495,154.688C128.7970453679495,152.691,129.18804536794948,150.544,129.2050453679495,148.359C129.2090453679495,147.86,129.2100453679495,147.366,129.2090453679495,146.877C131.01504536794948,148.919,132.81304536794948,150.946,134.5820453679495,152.94C134.5820453679495,152.94,135.3260453679495,153.779,135.3260453679495,153.779C136.5490453679495,155.158,138.0230453679495,156.39,139.5890453679495,157.34C142.4530453679495,159.077,145.6840453679495,159.996,148.93204536794948,159.996C152.9820453679495,159.996,156.8460453679495,158.554,159.8100453679495,155.936C160.4930453679495,155.333,161.1320453679495,154.665,161.7090453679495,153.951C165.9940453679495,148.65,166.4400453679495,141.222,163.1850453679495,135.064C163.1850453679495,135.064,159.2910453679495,129.82,159.2910453679495,129.82C158.4970453679495,128.912,157.6980453679495,128.011,157.0310453679495,127.26C157.0310453679495,127.26,154.67604536794948,124.593,154.67604536794948,124.593C154.1830453679495,124.035,153.6920453679495,123.477,153.1990453679495,122.918C153.1990453679495,122.918,153.1620453679495,122.875,153.1620453679495,122.875C151.8100453679495,121.341,150.4130453679495,119.755,149.0050453679495,118.185C148.4810453679495,117.601,147.7850453679495,116.862,146.9060453679495,116.096C148.7260453679495,112.732,150.1260453679495,109.45,151.1330453679495,106.174C151.7800453679495,106.244,152.4330453679495,106.28,153.0910453679495,106.282C154.8200453679495,106.289,156.55704536794948,106.292,158.2930453679495,106.292C162.2980453679495,106.292,166.3120453679495,106.277,170.19404536794949,106.264C170.19404536794949,106.264,171.3160453679495,106.26,171.3160453679495,106.26C173.1590453679495,106.253,175.0580453679495,105.96,176.8050453679495,105.413C184.1790453679495,103.105,189.1260453679495,96.6336,189.1160453679495,89.3105C189.1150453679495,88.3981,189.0360453679495,87.4771,188.8820453679495,86.5731Z" fill="#68FE7F" fill-opacity="1" style="mix-blend-mode:passthrough"/></g><g><path d="M94.73554117431641,154.47969342041017C89.28214117431641,154.47969342041017,83.82894117431641,154.48269342041016,78.37554117431641,154.47869342041014C74.57194117431641,154.47569342041015,72.05014117431641,151.97069342041016,72.03184117431641,148.17169342041015C72.0195411743164,145.62439342041017,72.0175411743164,143.07729342041017,72.03094117431641,140.53029342041015C72.05404117431641,136.13049342041018,70.50734117431641,132.37179342041014,67.4318411743164,129.24179342041015C62.291441174316404,124.01059342041016,57.53528117431641,118.47299342041016,53.816831174316405,112.11569342041015C51.11004117431641,107.48769342041015,49.080261174316405,102.60039342041016,48.404418174316405,97.23389342041015C47.801513174316405,92.44589342041016,48.16003367431641,87.68149342041016,49.393681174316406,83.05299342041016C54.525821174316405,63.79779342041016,66.85114117431641,51.64225342041016,86.38144117431641,47.88062942041016C103.3165411743164,44.61900342041016,117.9516411743164,49.976303420410154,129.5880411743164,62.76269342041016C137.1907411743164,71.11659342041015,140.92584117431642,81.16459342041016,141.30514117431642,92.44279342041015C141.52884117431643,99.09859342041015,139.5001411743164,105.17119342041016,136.3249411743164,110.91879342041015C132.7604411743164,117.37159342041015,128.1327411743164,123.01909342041016,122.9776411743164,128.23909342041014C120.46714117431641,130.78119342041015,118.42854117431641,133.55239342041017,117.7793411743164,137.12759342041016C117.5307411743164,138.49759342041017,117.4865411743164,139.91419342041016,117.45594117431641,141.31199342041015C117.40554117431641,143.62939342041017,117.4558411743164,145.94879342041014,117.43754117431641,148.26669342041015C117.4087411743164,151.94669342041016,114.86704117431641,154.47269342041017,111.1933411743164,154.47769342041016C105.70734117431641,154.48569342041014,100.22134117431641,154.47969342041017,94.73554117431641,154.47969342041017ZM110.2469411743164,147.27369342041015C110.2469411743164,145.26099342041016,110.2769411743164,143.30629342041016,110.2414411743164,141.35289342041017C110.1163411743164,134.46139342041016,112.5423411743164,128.66029342041014,117.3539411743164,123.71169342041016C120.26084117431641,120.72219342041015,122.98564117431641,117.53419342041016,125.57504117431641,114.26329342041015C128.83004117431642,110.15099342041016,131.4304411743164,105.63139342041015,133.0206411743164,100.58409342041016C134.8559411743164,94.75899342041015,134.31714117431642,88.94849342041016,132.7337411743164,83.21319342041016C126.9760411743164,62.357393420410155,105.91444117431641,49.94728342041016,84.9947411743164,55.44853342041016C70.23514117431641,59.329993420410155,60.7794411743164,69.03789342041016,56.594051174316405,83.72059342041015C55.33490117431641,88.13749342041015,54.87808117431641,92.70479342041016,55.66498117431641,97.29349342041016C56.60602117431641,102.78159342041016,59.18964117431641,107.55859342041015,62.28794117431641,112.08839342041016C65.35894117431641,116.57819342041016,68.9918411743164,120.59459342041016,72.78684117431641,124.47519342041015C75.7058411743164,127.46029342041015,77.61144117431641,131.01929342041015,78.6057411743164,135.06889342041018C79.3624411743164,138.15029342041015,79.22264117431641,141.29199342041017,79.2224411743164,144.42409342041014C79.2224411743164,144.42409342041014,79.2224411743164,147.27369342041015,79.2224411743164,147.27369342041015C79.2224411743164,147.27369342041015,110.2469411743164,147.27369342041015,110.2469411743164,147.27369342041015C110.2469411743164,147.27369342041015,110.2469411743164,147.27369342041015,110.2469411743164,147.27369342041015Z" fill="#5C2D25" fill-opacity="1" style="mix-blend-mode:passthrough"/></g><g><path d="M94.73794451904297,164.05932622558595C88.46914451904297,164.05908622558593,82.20024451904297,164.06835622558594,75.93154451904297,164.05474622558594C73.24728451904296,164.04907622558594,71.48702851904297,161.85931622558593,72.19604351904297,159.45764622558593C72.63186551904298,157.98138622558594,73.89511451904296,156.98858722558595,75.53320451904297,156.87847952558593C76.18334451904298,156.83496142558593,76.83862451904297,156.86096242558594,77.49154451904298,156.86096242558594C89.44144451904296,156.86029103558593,101.39134451904297,156.85870412558594,113.34114451904297,156.86230519558595C115.38914451904297,156.86285451558595,116.78714451904297,157.79303022558594,117.26944451904296,159.44518622558593C117.95084451904296,161.77886622558594,116.26584451904297,164.01922622558592,113.74004451904297,164.04870622558593C110.44284451904298,164.08734622558595,107.14494451904297,164.05908622558593,103.84724451904297,164.05932622558595C100.81094451904298,164.05969622558592,97.77444451904297,164.05944622558593,94.73794451904297,164.05932622558595Z" fill="#5C2D25" fill-opacity="1" style="mix-blend-mode:passthrough"/></g><g><path d="M94.83590096435546,166.4327410338672C99.56870096435547,166.4329851738672,104.30160096435547,166.4199236538672,109.03420096435548,166.4398211138672C110.83570096435547,166.4471453138672,112.30720096435547,167.6975067138672,112.57510096435547,169.35852671386718C112.86130096435548,171.1315967138672,111.96830096435548,172.75305671386718,110.31120096435546,173.3413067138672C109.80120096435547,173.5223367138672,109.22830096435547,173.5976567138672,108.68410096435547,173.5986367138672C99.38180096435548,173.6137667138672,90.07930096435547,173.61523671386718,80.77704096435546,173.6057167138672C78.38580096435547,173.6033967138672,76.80639516435546,172.10961671386718,76.84188706135546,169.9416567138672C76.87615826435547,167.84973671386717,78.47860096435546,166.43542658386718,80.83352096435547,166.43347345386718C85.50082096435547,166.4295672078672,90.16840096435547,166.43225275386717,94.83590096435546,166.4327410338672Z" fill="#5C2D25" fill-opacity="1" style="mix-blend-mode:passthrough"/></g><g><path d="M26.920417553710937,92.95499034912109C24.60609755371094,92.95499034912109,22.291767553710937,92.96555034912109,19.97760755371094,92.95200034912109C17.75484755371094,92.9391203491211,16.161117553710938,91.43100034912109,16.161117553710938,89.3699003491211C16.161117553710938,87.3473803491211,17.691907553710937,85.81857324912109,19.892097553710936,85.8001405491211C24.585317553710937,85.76071187912109,29.27951755371094,85.7583315491211,33.97291755371094,85.8020937491211C36.15901755371094,85.82247944912109,37.65311755371094,87.3730803491211,37.63171755371094,89.42679034912109C37.610917553710934,91.44907034912109,36.03871755371094,92.93515034912109,33.86331755371094,92.9510803491211C31.549117553710936,92.96811034912109,29.23481755371094,92.95499034912109,26.920417553710937,92.95499034912109Z" fill="#5C2D25" fill-opacity="1" style="mix-blend-mode:passthrough"/></g><g><path d="M162.1825859375,92.95495560791015C159.9008159375,92.95513560791015,157.6189559375,92.96374560791016,155.3370959375,92.95257560791016C153.0747759375,92.94158560791016,151.4986603375,91.49121560791016,151.4758331565,89.42352560791015C151.4531280375,87.35711560791016,152.9964659375,85.81475850791016,155.2451159375,85.79711940791016C159.9063159375,85.76080345791016,164.5683859375,85.76080345791016,169.2295859375,85.79754660791015C171.4152859375,85.81457540791016,172.9590859375,87.35241560791016,172.9627859375,89.37298560791015C172.9662859375,91.40258560791015,171.3342859375,92.93798560791015,169.1260859375,92.95159560791015C166.8117859375,92.96588560791015,164.4970859375,92.95477560791015,162.1825859375,92.95495560791015Z" fill="#5C2D25" fill-opacity="1" style="mix-blend-mode:passthrough"/></g><g><path d="M52.33133013916016,51.583123187255865C51.566030139160155,51.140623187255855,50.65363013916016,50.84152318725586,50.05973013916015,50.23202318725586C46.73904013916015,46.82322318725586,43.48073013916016,43.35290318725586,40.23201013916016,39.87490318725586C38.807311139160156,38.35000318725586,38.897552139160155,36.16882318725586,40.36046013916015,34.79275418725586C41.78380013916016,33.45379618725586,43.95515013916015,33.45730518725586,45.37552013916016,34.93066318725586C48.70134013916015,38.38040318725586,51.98653013916015,41.869563187255864,55.25683013916016,45.37212318725586C56.33963013916016,46.53202318725586,56.523230139160155,47.916323187255855,55.86603013916016,49.36432318725586C55.26523013916015,50.688423187255864,53.95393013916016,51.43032318725586,52.33133013916016,51.583123187255865Z" fill="#5C2D25" fill-opacity="1" style="mix-blend-mode:passthrough"/></g><g><path d="M147.2614970214844,145.81593989257811C146.85289702148438,145.58943989257813,145.89149702148438,145.30353989257813,145.27949702148436,144.6763398925781C141.93358702148439,141.2473398925781,138.65526702148438,137.7512798925781,135.3924520214844,134.24211989257813C134.02837702148437,132.77519989257812,134.14928802148438,130.56462989257813,135.56304702148438,129.22740989257812C136.9594670214844,127.90630389257812,139.1224370214844,127.85607189257813,140.5020070214844,129.28258989257813C143.90056702148436,132.79698989257813,147.25359702148438,136.35661989257812,150.56979702148436,139.94913989257813C151.61379702148437,141.08023989257813,151.73689702148437,142.4776398925781,151.03419702148437,143.86603989257813C150.36999702148438,145.17873989257814,149.24499702148438,145.7953398925781,147.2614970214844,145.81593989257811Z" fill="#5C2D25" fill-opacity="1" style="mix-blend-mode:passthrough"/></g><g><path d="M39.73576587524414,148.69969313964845C37.72326587524414,148.63169313964843,36.59940987524414,147.96879313964843,35.95904387524414,146.59549313964843C35.30515887524414,145.19339313964844,35.57151647524414,143.70789313964843,36.71493587524414,142.54659313964845C39.07066587524414,140.15460313964843,41.45503587524414,137.79046313964844,43.828005875244145,135.41546313964844C44.79574587524414,134.44689313964844,45.75091587524414,133.46545313964845,46.73701587524414,132.51599313964843C48.29291587524414,131.01769813964845,50.45721587524414,131.01342613964843,51.89491587524414,132.47979313964845C53.27521587524414,133.88751313964843,53.25921587524414,136.08953313964844,51.79051587524414,137.57281313964845C48.46491587524414,140.93164313964843,45.13857587524414,144.29059313964845,41.743745875244144,147.57849313964843C41.11102587524414,148.19149313964843,40.15705587524414,148.47249313964844,39.73576587524414,148.69969313964845Z" fill="#5C2D25" fill-opacity="1" style="mix-blend-mode:passthrough"/></g><g><path d="M136.90558062011718,52.04069313964844C135.3983806201172,51.99009313964844,134.2685546201172,51.298693139648435,133.68078662011717,49.91419313964844C133.08380162011719,48.50849313964844,133.2684937201172,47.140693139648434,134.3552206201172,46.018693139648434C136.1013806201172,44.21621313964844,137.8937406201172,42.45831313964844,139.6673606201172,40.68252313964844C141.2104506201172,39.13719313964844,142.74914062011717,37.58738313964844,144.3000606201172,36.04991313964844C145.94536062011719,34.41889913964844,148.10976062011719,34.330047139648435,149.6008606201172,35.816913139648435C151.0892606201172,37.30143313964844,150.9977606201172,39.46887313964844,149.3538606201172,41.11912313964844C146.13286062011719,44.351923139648434,142.8979506201172,47.57059313964844,139.6781006201172,50.80439313964844C138.90729062011718,51.57859313964843,138.0296606201172,52.06809313964844,136.90558062011718,52.04069313964844Z" fill="#5C2D25" fill-opacity="1" style="mix-blend-mode:passthrough"/></g><g><path d="M98.4979515649414,25.24658400115967C98.4979515649414,27.66268400115967,98.52792156494141,30.079284001159667,98.48800156494141,32.49478400115967C98.45907156494141,34.24448400115967,97.1982115649414,35.67148400115967,95.5673515649414,35.92588400115967C93.7759015649414,36.20538400115967,92.1385765649414,35.237684001159664,91.56100056494141,33.52978400115967C91.44839116494141,33.19678400115967,91.3873559649414,32.82938400115967,91.3866235649414,32.47748400115967C91.37502690494141,27.645284001159666,91.36092776494141,22.812994001159666,91.3872339649414,17.980914001159668C91.39681646494141,16.24299400115967,92.6764215649414,14.807327001159669,94.3101515649414,14.560592601159668C96.1298515649414,14.285812001159668,97.7571715649414,15.230194001159667,98.3106315649414,16.94691400115967C98.46676156494141,17.43135400115967,98.4932515649414,17.972294001159668,98.49752156494141,18.48792400115967C98.5167515649414,20.740674001159668,98.50576156494141,22.99363400115967,98.50576156494141,25.24658400115967C98.50576156494141,25.24658400115967,98.4979515649414,25.24658400115967,98.4979515649414,25.24658400115967C98.4979515649414,25.24658400115967,98.4979515649414,25.24658400115967,98.4979515649414,25.24658400115967Z" fill="#5C2D25" fill-opacity="1" style="mix-blend-mode:passthrough"/></g><g><path d="M94.63544172363281,183.14367942382813C93.13482172363281,183.14367942382813,91.63385172363282,183.16491942382814,90.13385172363282,183.13854942382812C87.9415317236328,183.10034942382813,86.38952652363281,181.62426942382814,86.36737079263281,179.59753942382812C86.34497092363281,177.56103942382813,87.96777172363281,176.01746012382813,90.18463172363282,176.0067180238281C93.2511617236328,175.99170332382812,96.3176917236328,175.98913985382814,99.38394172363282,176.00806072382812C101.52854172363281,176.02161052382812,103.11884172363281,177.57775942382813,103.10184172363282,179.5933894238281C103.08534172363281,181.57470942382812,101.5484417236328,183.08288942382814,99.43064172363282,183.13305942382812C97.83294172363281,183.17102942382812,96.2338817236328,183.1407494238281,94.63544172363281,183.1407494238281C94.63544172363281,183.1407494238281,94.63544172363281,183.14367942382813,94.63544172363281,183.14367942382813C94.63544172363281,183.14367942382813,94.63544172363281,183.14367942382813,94.63544172363281,183.14367942382813Z" fill="#5C2D25" fill-opacity="1" style="mix-blend-mode:passthrough"/></g><g><path d="M126.96359056396484,87.48325860595703C126.96359056396484,88.00475860595704,127.00199056396484,88.52985860595703,126.95669056396484,89.04715860595704C126.78379056396484,91.02495860595704,125.23979056396485,92.41275860595704,123.29249056396485,92.37155860595703C121.37869056396485,92.33105860595703,119.85769056396484,90.83015860595702,119.82689056396484,88.84335860595704C119.77809056396484,85.69645860595703,119.18689056396485,82.67155860595703,117.72929056396484,79.87905860595703C113.96389056396484,72.66635860595703,107.96579056396484,68.88497860595703,99.85003056396485,68.51049860595703C98.27820056396484,68.43795860595704,97.04223056396485,67.93960860595703,96.31518356396484,66.51156860595704C95.07580356396484,64.07717860595703,96.85528356396485,61.29391510595703,99.66955056396485,61.37133821595703C110.42299056396485,61.66732860595703,118.45009056396484,66.56860860595702,123.73539056396484,75.90015860595703C125.79439056396484,79.53535860595703,126.69799056396485,83.20935860595704,126.96359056396484,87.48325860595703Z" fill="#5C2D25" fill-opacity="1" style="mix-blend-mode:passthrough"/></g><g></g></g></svg>