<svg xmlns="http://www.w3.org/2000/svg" xmlns:xlink="http://www.w3.org/1999/xlink" fill="none" version="1.1" width="155.4964599609375" height="160.2685546875" viewBox="0 0 155.4964599609375 160.2685546875"><g><g><path d="M155.304045440549,71.1828C154.362045440549,65.6606,150.023045440549,61.3504,144.459045440549,60.0107C144.459045440549,60.0107,139.096045440549,59.5616,139.096045440549,59.5616C138.812045440549,59.5608,138.528045440549,59.5603,138.245045440549,59.5603C137.585045440549,59.5603,136.929045440549,59.5626,136.291045440549,59.5653C136.291045440549,59.5653,133.36604544054902,59.569,133.36604544054902,59.569C132.754045440549,59.57,132.142045440549,59.57,131.530045440549,59.57C131.530045440549,59.57,131.505045440549,59.57,131.505045440549,59.57C129.817045440549,59.5703,128.071045440549,59.5705,126.330045440549,59.5863C125.450045440549,59.5944,124.215045440549,59.6436,122.818045440549,59.9271C121.881045440549,57.4304,120.731045440549,55.0299,119.373045440549,52.7387C120.101045440549,52.2333,120.795045440549,51.6528,121.454045440549,50.9979C122.974045440549,49.4868,124.497045440549,47.9795,126.021045440549,46.4721C126.021045440549,46.4721,126.161045440549,46.3338,126.161045440549,46.3338C127.648045440549,44.8629,129.135045440549,43.3918,130.618045440549,41.9177C133.234045440549,39.3193,134.763045440549,35.9555,134.924045440549,32.4464C135.102045440549,28.5667,133.647045440549,24.8977,130.828045440549,22.115C128.194045440549,19.5154,124.734045440549,18.0837,121.084045440549,18.0837C117.347045440549,18.0837,113.759045440549,19.5852,110.980045440549,22.3117C109.89104544054901,23.3799,108.80204544054901,24.4617,107.748045440549,25.5078C107.748045440549,25.5078,106.553045440549,26.6933,106.553045440549,26.6933C106.076045440549,27.1661,105.597045440549,27.6375,105.110045440549,28.1179C103.90004544054901,29.3098,102.649045440549,30.5423,101.408045440549,31.8105C100.734045440549,32.4996,100.139045440549,33.2409,99.629745440549,34.0246C99.059645440549,33.7245,98.487445440549,33.4388,97.913845440549,33.1678C96.001445440549,32.2644,94.022545440549,31.4991,91.998245440549,30.8792C91.998245440549,30.8792,91.998245440549,27.8487,91.998245440549,27.8487C92.002745440549,26.8821,92.000745440549,25.9237,91.998245440549,25.0437C91.998245440549,25.0437,91.998245440549,22.1185,91.998245440549,22.1185C91.998245440549,21.5063,91.999645440549,20.2595,91.999645440549,20.2595C92.001545440549,18.5704,92.00364544054901,16.824,91.990145440549,15.0822C91.981245440549,13.939,91.903545440549,12.1969,91.33284544054901,10.2753C89.507045440549,4.12933,84.179945440549,0,78.077345440549,0C77.342545440549,0,76.599245440549,0.0607966,75.868545440549,0.180455C69.24594544054901,1.26528,64.224645440549,7.46073,64.188845440549,14.5918C64.164945440549,19.297,64.175645440549,24.0542,64.185945440549,28.6544C64.185945440549,28.6544,64.187845440549,29.577,64.187845440549,29.577C64.189045440549,30.0633,64.214345440549,30.5544,64.263045440549,31.0446C61.612945440549005,31.8055,59.084645440549004,32.7497,56.693245440549,33.8714C56.693245440549,33.8714,53.457345440549,30.2067,53.457345440549,30.2067C52.817445440549,29.4751,52.182745440549,28.7589,51.600045440549,28.103C51.600045440549,28.103,49.663745440549,25.9102,49.663745440549,25.9102C49.291545440549,25.4886,48.426845440549,24.507,48.426845440549,24.507C47.313045440549004,23.2425,46.161245440549,21.935,45.000945440549,20.6413C44.237545440549,19.7902,43.026345440549,18.5357,41.326545440549005,17.473C38.944245440549004,15.9835,36.247545440549004,15.1964,33.528145440549004,15.1964C30.208745440549002,15.1964,27.034045440549,16.3852,24.589445440549003,18.5438C24.038545440549,19.0301,23.521545440549,19.5676,23.052745440549003,20.1413C18.806345440549002,25.3377,19.143045440549002,33.3054,23.836045440549,38.6747C26.938545440549003,42.2244,30.092145440549,45.78,33.141645440549,49.2181C33.141645440549,49.2181,33.753645440549,49.9082,33.753645440549,49.9082C34.599945440549,50.8624,35.592545440549,51.7305,36.652945440549004,52.447C35.339645440549,54.7508,34.184045440549,57.2088,33.192545440549004,59.8069C33.192545440549004,59.8069,33.192545440549004,59.5549,33.192545440549004,59.5549C33.192545440549004,59.5549,27.830345440549003,59.5616,27.830345440549003,59.5616C27.546245440549,59.5608,27.262545440549,59.5603,26.979745440549003,59.5603C26.319045440549,59.5603,25.662845440549003,59.5626,25.025545440549003,59.5653C25.025545440549003,59.5653,22.099845440549,59.569,22.099845440549,59.569C21.488045440549,59.57,20.876545440549002,59.57,20.264045440549,59.57C20.264045440549,59.57,20.239145440549002,59.57,20.239145440549002,59.57C18.551045440549,59.5703,16.805245440549,59.5705,15.063745440549003,59.5863C13.920345440549001,59.5968,12.178445440549002,59.6768,10.258045440549001,60.2499C4.114555440549002,62.0836,-0.007845159450998203,67.416,0.000056780649001796175,73.5182C0.0008631015490017962,74.2528,0.0626272405490018,74.9959,0.1834144405490018,75.7274C1.2767854405490018,82.3486,7.4788454405490015,87.3618,14.609945440549001,87.3884C16.031445440549003,87.3936,17.459845440549003,87.3958,18.887345440549,87.3958C22.180345440549,87.3958,25.480745440549,87.3842,28.672545440549,87.3731C28.672545440549,87.3731,29.594945440549,87.3697,29.594945440549,87.3697C30.228745440549,87.3674,30.870045440549003,87.3241,31.507245440549003,87.2415C32.462345440549,90.3855,33.856945440549005,93.534,35.721545440549,96.7667C35.721545440549,96.7667,31.972745440549,100.239,31.972745440549,100.239C31.246445440549003,100.905,30.521045440549003,101.58,29.915645440549003,102.144C29.915645440549003,102.144,27.769945440549,104.132,27.769945440549,104.132C27.320645440549,104.548,26.871145440549,104.963,26.410645440549,105.389C25.168245440549,106.537,23.883645440549003,107.724,22.613145440549,108.919C21.780345440549002,109.702,20.555145440549,110.943,19.533045440549003,112.668C16.264645440549003,118.183,16.854945440549002,124.897,21.001845440549,129.375C21.501245440549003,129.914,22.050845440549,130.418,22.635045440549003,130.873C24.977745440549,132.696,27.850245440549003,133.659,30.941945440549002,133.659C34.700745440549,133.659,38.324145440549,132.235,41.144845440549,129.649C43.968845440549,127.059,46.790645440549,124.441,49.550945440549,121.875C49.550945440549,121.875,49.550945440549,121.877,49.550945440549,121.877C49.559745440549,123.725,49.880545440549,125.532,50.488945440549,127.204C50.334645440549004,127.585,50.198645440549,127.975,50.081745440549,128.371C48.945045440549,132.221,49.653445440549,136.254,52.025345440549,139.434C52.490745440549,140.058,53.008845440549,140.634,53.576045440549,141.158C53.871145440549,143.985,55.081945440549,146.586,57.068345440549,148.608C58.432345440549,149.996,60.123845440549005,151.046,61.992945440549,151.689C62.654045440549005,153.671,63.800845440549004,155.458,65.354945440549,156.888C67.653245440549,159.003,70.702645440549,160.199,73.941945440549,160.256C74.417645440549,160.264,74.920045440549,160.268,75.522645440549,160.268C75.918345440549,160.268,76.314245440549,160.267,76.708945440549,160.265C76.708945440549,160.265,76.804645440549,160.264,76.804645440549,160.264C77.140445440549,160.263,77.47624544054901,160.262,77.813545440549,160.262C77.813545440549,160.262,78.54134544054901,160.261,78.54134544054901,160.261C78.54134544054901,160.261,78.983245440549,160.264,78.983245440549,160.264C79.402845440549,160.266,79.822245440549,160.269,80.242045440549,160.269C80.69974544054901,160.269,81.104645440549,160.266,81.483445440549,160.26C81.483445440549,160.26,87.487845440549,159.649,87.487845440549,158.899C88.646445440549,158.322,89.711345440549,157.571,90.646145440549,156.665C92.081245440549,155.274,93.149745440549,153.569,93.782245440549,151.699C93.834245440549,151.681,93.88594544054901,151.663,93.937445440549,151.645C98.593045440549,149.992,101.721045440549,145.931,102.215045440549,141.159C102.780045440549,140.633,103.29604544054901,140.056,103.759045440549,139.431C106.118045440549,136.246,106.829045440549,132.221,105.710045440549,128.388C105.591045440549,127.98,105.452045440549,127.58,105.295045440549,127.189C105.90004544054901,125.546,106.222045440549,123.781,106.236045440549,121.985C106.239045440549,121.575,106.240045440549,121.168,106.240045440549,120.766C107.724045440549,122.445,109.202045440549,124.112,110.657045440549,125.752C110.657045440549,125.752,111.26904544054901,126.442,111.26904544054901,126.442C112.274045440549,127.576,113.487045440549,128.588,114.774045440549,129.369C117.129045440549,130.798,119.785045440549,131.553,122.456045440549,131.553C125.786045440549,131.553,128.963045440549,130.368,131.400045440549,128.215C131.962045440549,127.719,132.487045440549,127.17,132.962045440549,126.583C136.48504544054902,122.225,136.851045440549,116.116,134.175045440549,111.053C134.175045440549,111.053,130.97304544054901,106.742,130.97304544054901,106.742C130.321045440549,105.995,129.664045440549,105.254,129.115045440549,104.637C129.115045440549,104.637,127.179045440549,102.444,127.179045440549,102.444C126.774045440549,101.985,126.370045440549,101.526,125.965045440549,101.067C125.965045440549,101.067,125.934045440549,101.032,125.934045440549,101.032C124.823045440549,99.7701,123.67404544054901,98.4655,122.51604544054901,97.1749C122.086045440549,96.6951,121.513045440549,96.087,120.79004544054901,95.4574C122.28704544054901,92.6917,123.438045440549,89.9928,124.26604544054901,87.2991C124.797045440549,87.3565,125.334045440549,87.3863,125.876045440549,87.3884C127.297045440549,87.3936,128.726045440549,87.3958,130.153045440549,87.3958C133.446045440549,87.3958,136.746045440549,87.3842,139.938045440549,87.3731C139.938045440549,87.3731,140.861045440549,87.3697,140.861045440549,87.3697C142.376045440549,87.3642,143.937045440549,87.1236,145.374045440549,86.6737C151.437045440549,84.7758,155.505045440549,79.4549,155.496045440549,73.4336C155.495045440549,72.6834,155.431045440549,71.9261,155.304045440549,71.1828Z" fill="#FFFFFF" fill-opacity="1" style="mix-blend-mode:passthrough"/></g><g><path d="M77.89426784057616,127.01780936889648C73.41026784057618,127.01780936889648,68.92646784057618,127.02030936889649,64.44256784057617,127.01680936889649C61.31516784057617,127.01440936889648,59.24166784057617,124.95470936889649,59.22666784057617,121.83070936889648C59.21646784057617,119.73650936889648,59.214867840576176,117.64220936889649,59.22586784057617,115.54800936889649C59.24486784057618,111.93040936889649,57.97306784057617,108.83990936889649,55.44436784057617,106.26630936889649C51.21776784057617,101.96500936889649,47.30709784057617,97.41190936889649,44.24970784057617,92.18470936889648C42.024097840576175,88.37950936889649,40.355163840576175,84.36100936889648,39.79945384057617,79.94850936889648C39.303726840576175,76.01170936889648,39.59851094057617,72.09420936889649,40.61286784057617,68.28860936889649C44.832657840576175,52.456509368896484,54.96686784057617,42.461819368896485,71.02516784057617,39.36892836889648C84.94966784057617,36.687109368896486,96.98306784057617,41.09202936889648,106.55086784057617,51.605309368896485C112.80196784057617,58.47420936889648,115.87306784057617,66.73590936889649,116.18496784057618,76.00910936889647C116.36896784057618,81.48170936889647,114.70086784057617,86.47480936889649,112.09016784057617,91.2006093688965C109.15926784057618,96.50620936889649,105.35426784057617,101.14990936889649,101.11566784057618,105.44190936889649C99.05146784057618,107.53200936889648,97.37526784057617,109.81060936889648,96.84146784057617,112.75020936889648C96.63706784057618,113.87670936889648,96.60066784057616,115.04150936889648,96.57556784057617,116.19080936889648C96.53416784057617,118.09620936889648,96.57546784057618,120.00330936889648,96.56036784057616,121.90940936889649C96.53666784057617,124.93490936889648,94.44686784057618,127.01210936889649,91.42626784057617,127.01620936889648C86.91556784057617,127.02230936889649,82.40476784057617,127.01780936889648,77.89426784057616,127.01780936889648ZM90.64816784057618,121.09260936889649C90.64816784057618,119.43770936889648,90.67276784057617,117.83060936889649,90.64356784057617,116.22440936889649C90.54066784057616,110.55800936889648,92.53536784057617,105.78810936889649,96.49166784057617,101.71930936889649C98.88186784057618,99.26130936889649,101.12226784057617,96.63990936889648,103.25126784057616,93.9506093688965C105.92756784057617,90.56930936889648,108.06576784057617,86.85310936889648,109.37326784057618,82.7032093688965C110.88226784057618,77.91360936889649,110.43926784057618,73.13600936889648,109.13736784057618,68.42030936889648C104.40316784057617,51.27210936889648,87.08576784057618,41.06817936889649,69.88506784057617,45.59145936889649C57.74926784057617,48.78290936889648,49.97456784057617,56.765009368896486,46.533207840576175,68.83750936889649C45.49789784057617,72.46920936889649,45.122297840576174,76.2246093688965,45.76929784057617,79.99750936889649C46.54304784057617,84.51000936889648,48.66735784057617,88.43770936889649,51.214867840576176,92.16230936889649C53.73996784057617,95.85390936889648,56.72706784057617,99.15630936889649,59.84736784057617,102.34710936889648C62.24746784057617,104.80150936889649,63.81426784057617,107.72780936889649,64.63186784057618,111.05750936889649C65.25406784057617,113.59110936889648,65.13906784057617,116.17430936889649,65.13886784057617,118.74960936889649C65.13886784057617,118.74960936889649,65.13886784057617,121.09260936889649,65.13886784057617,121.09260936889649C65.13886784057617,121.09260936889649,90.64816784057618,121.09260936889649,90.64816784057618,121.09260936889649C90.64816784057618,121.09260936889649,90.64816784057618,121.09260936889649,90.64816784057618,121.09260936889649Z" fill="#5C2D25" fill-opacity="1" style="mix-blend-mode:passthrough"/></g><g><path d="M77.89621751708984,134.89403939941405C72.74181751708984,134.89385939941405,67.58733751708985,134.90148939941406,62.43304751708985,134.89025939941405C60.22595151708985,134.88561939941405,58.77862551708984,133.08513939941406,59.36160251708984,131.11040939941407C59.71993951708984,129.89660339941406,60.75860751708984,129.08025839941405,62.105497517089844,128.98974309941406C62.64007751708984,128.95397649941407,63.17886751708984,128.97533879941406,63.71569751708984,128.97533879941406C73.54121751708985,128.97478947941406,83.36671751708984,128.97350773941406,93.19221751708984,128.97643742941406C94.87611751708985,128.97692570941408,96.02561751708984,129.74169639941405,96.42221751708985,131.10015939941405C96.98241751708984,133.01897939941406,95.59701751708985,134.86107939941405,93.52021751708985,134.88530939941407C90.80921751708985,134.91704939941405,88.09761751708984,134.89385939941405,85.38611751708984,134.89403939941405C82.88951751708984,134.89434939941407,80.39281751708984,134.89415939941406,77.89621751708984,134.89403939941405Z" fill="#5C2D25" fill-opacity="1" style="mix-blend-mode:passthrough"/></g><g><path d="M77.97663790283204,136.84564129777343C81.86813790283203,136.84588543777343,85.75963790283203,136.83514325777344,89.65093790283203,136.85143963777344C91.13213790283203,136.85754316777343,92.34213790283204,137.88556196777344,92.56233790283203,139.25134196777344C92.79763790283204,140.70916196777344,92.06343790283204,142.04236196777345,90.70093790283204,142.52612196777343C90.28163790283203,142.67492196777343,89.81053790283204,142.73687196777342,89.36313790283202,142.73767196777345C81.71443790283203,142.75012196777342,74.06563790283204,142.75128196777345,66.41711790283203,142.74347196777344C64.45098790283203,142.74157196777344,63.15234470283203,141.51336196777345,63.18151955283203,139.73083196777344C63.20971780283203,138.01074196777344,64.52728790283203,136.84783856777344,66.46356790283203,136.84625165777345C70.30114790283203,136.84301678977343,74.13893790283203,136.84527508777344,77.97663790283204,136.84564129777343Z" fill="#5C2D25" fill-opacity="1" style="mix-blend-mode:passthrough"/></g><g><path d="M22.134761713867185,76.43014464355468C20.231831713867187,76.43014464355468,18.32892171386719,76.43883464355469,16.42615171386719,76.42770464355469C14.598551713867188,76.41708464355469,13.288131713867188,75.17709464355468,13.288131713867188,73.48238464355468C13.288131713867188,71.81942464355468,14.546791713867187,70.56237424355469,16.35585171386719,70.54723754355469C20.214741713867188,70.51479736355469,24.074431713867188,70.51287475355468,27.93353171386719,70.5488244435547C29.730931713867186,70.56557864355469,30.959431713867186,71.8405446435547,30.941831713867188,73.52914464355469C30.92483171386719,75.19195464355468,29.63213171386719,76.41384464355468,27.843331713867187,76.42690464355469C25.940631713867187,76.44091464355469,24.037631713867185,76.43014464355468,22.134761713867185,76.43014464355468Z" fill="#5C2D25" fill-opacity="1" style="mix-blend-mode:passthrough"/></g><g><path d="M133.35101142822265,76.43011279052735C131.47485142822265,76.43026279052734,129.59863142822266,76.43737279052735,127.72241142822266,76.42816279052734C125.86230142822265,76.41912279052734,124.56634262822266,75.22659279052735,124.54760487122266,73.52651279052735C124.52892812822266,71.82745279052735,125.79791142822266,70.55926149052735,127.64679142822266,70.54476569052734C131.47937142822266,70.51491946052734,135.31270142822265,70.51491946052734,139.14530142822267,70.54510139052735C140.94240142822267,70.55913939052735,142.21170142822265,71.82357279052735,142.21480142822264,73.48492279052735C142.21760142822265,75.15371279052735,140.87580142822264,76.41619279052735,139.06010142822265,76.42736279052734C137.15720142822266,76.43911279052735,135.25410142822267,76.42996279052734,133.35101142822265,76.43011279052735Z" fill="#5C2D25" fill-opacity="1" style="mix-blend-mode:passthrough"/></g><g><path d="M43.02828123779297,42.41316328430176C42.39908123779297,42.04936328430176,41.64882123779297,41.803463284301756,41.16052123779297,41.30226328430176C38.430161237792966,38.499463284301754,35.75108123779297,35.64605328430176,33.07989723779297,32.78634328430176C31.908479237792967,31.532513284301757,31.982668237792968,29.73910328430176,33.18551823779297,28.60766728430176C34.355821237792966,27.506714284301758,36.14117123779297,27.509614284301758,37.30904123779297,28.721039284301757C40.043611237792966,31.55752328430176,42.74478123779297,34.426403284301756,45.43368123779297,37.30627328430176C46.32408123779297,38.25996328430176,46.47498123779297,39.39816328430176,45.93458123779297,40.588763284301756C45.44068123779297,41.67746328430176,44.36238123779297,42.287563284301754,43.02828123779297,42.41316328430176Z" fill="#5C2D25" fill-opacity="1" style="mix-blend-mode:passthrough"/></g><g><path d="M121.08249848632812,119.89386379394531C120.74649848632812,119.70756379394531,119.95604848632813,119.47246379394531,119.45287848632813,118.95686379394532C116.70171848632812,116.13736379394531,114.00621848632812,113.26281379394531,111.32342348632812,110.37750379394531C110.20184148632812,109.17138379394531,110.30126748632813,107.35376379394532,111.46368148632813,106.25427279394532C112.61187848632812,105.1680307939453,114.39031848632813,105.12670979394531,115.52465848632812,106.2996217939453C118.31902848632812,109.18927379394532,121.07599848632813,112.11609379394531,123.80269848632813,115.06994379394531C124.66109848632813,115.99996379394531,124.76229848632812,117.14896379394531,124.18449848632812,118.29056379394531C123.63839848632813,119.36996379394532,122.71339848632812,119.87686379394532,121.08249848632812,119.89386379394531Z" fill="#5C2D25" fill-opacity="1" style="mix-blend-mode:passthrough"/></g><g><path d="M32.671826088867185,122.26490532226562C31.017086088867188,122.20900532226563,30.093032088867187,121.66390532226562,29.566497088867187,120.53480532226563C29.028854088867188,119.38190532226562,29.24786348886719,118.16050532226562,30.18801808886719,117.20568532226562C32.12495608886719,115.23888532226563,34.08544608886719,113.29504532226562,36.036576088867186,111.34228532226562C36.83227608886719,110.54589532226562,37.61762608886718,109.73888532226563,38.42846608886719,108.95824932226563C39.70776608886719,107.72631532226562,41.48736608886719,107.72277532226562,42.669366088867186,108.92846332226563C43.804366088867184,110.08593532226563,43.791166088867186,111.89648532226562,42.58356608886719,113.11608532226562C39.849166088867186,115.87780532226563,37.11416608886719,118.63960532226562,34.32284608886719,121.34300532226563C33.80259608886719,121.84700532226563,33.018216088867185,122.07810532226563,32.671826088867185,122.26490532226562Z" fill="#5C2D25" fill-opacity="1" style="mix-blend-mode:passthrough"/></g><g><path d="M112.56753486572265,42.78911136169434C111.32827486572266,42.747511361694336,110.39932086572266,42.17911136169434,109.91604386572266,41.040711361694335C109.42519986572266,39.884911361694336,109.57705486572266,38.760311361694335,110.47060986572265,37.83769136169434C111.90633486572266,36.35568136169434,113.38003486572265,34.91028136169434,114.83834486572266,33.450181361694334C116.10714486572266,32.179571361694336,117.37228486572266,30.905271361694336,118.64755486572265,29.641111361694335C120.00037486572266,28.300049361694334,121.77997486572265,28.226990361694337,123.00597486572266,29.449540361694336C124.22987486572265,30.670151361694337,124.15447486572266,32.452291361694336,122.80277486572265,33.809161361694336C120.15447486572266,36.46727136169434,117.49465486572265,39.11381136169434,114.84719486572266,41.772711361694334C114.21340486572265,42.40921136169433,113.49178486572265,42.811711361694336,112.56753486572265,42.78911136169434Z" fill="#5C2D25" fill-opacity="1" style="mix-blend-mode:passthrough"/></g><g><path d="M80.98770469726563,20.758463968811036C80.98770469726563,22.745103968811037,81.01235469726562,24.732003968811036,80.97952469726563,26.718103968811036C80.95577469726562,28.156803968811037,79.91903469726563,29.330103968811034,78.57809469726563,29.539303968811033C77.10513469726563,29.769103968811034,75.75887969726563,28.973403968811034,75.28396469726563,27.569103968811035C75.19137459726562,27.295303968811034,75.14120369726562,26.993303968811034,75.14059329726562,26.703903968811034C75.13107180726563,22.730703968811035,75.11947512726563,18.757493968811033,75.14108159726563,14.784423968811035C75.14895509726563,13.355463968811035,76.20107469726562,12.175009968811036,77.54440469726562,11.972137068811035C79.04061469726562,11.746207968811035,80.37863469726562,12.522704968811036,80.83370469726563,13.934243968811035C80.96206469726562,14.332563968811035,80.98385469726563,14.777333968811035,80.98739469726563,15.201303968811036C81.00320469726563,17.053573968811037,80.99417469726562,18.906023968811034,80.99417469726562,20.758463968811036C80.99417469726562,20.758463968811036,80.98770469726563,20.758463968811036,80.98770469726563,20.758463968811036C80.98770469726563,20.758463968811036,80.98770469726563,20.758463968811036,80.98770469726563,20.758463968811036Z" fill="#5C2D25" fill-opacity="1" style="mix-blend-mode:passthrough"/></g><g><path d="M77.8118906225586,150.58575582519532C76.5780606225586,150.58575582519532,75.34390062255859,150.6031558251953,74.1105606225586,150.58154582519532C72.3079506225586,150.55011582519532,71.0318881225586,149.3364258251953,71.0136386485586,147.6699858251953C70.9952365225586,145.99548582519532,72.32956062255859,144.7263834251953,74.15231062255859,144.7175333351953C76.6737006225586,144.7052042351953,79.1950606225586,144.7030069751953,81.71625062255859,144.71863192519533C83.47955062255859,144.7297403251953,84.7871506225586,146.00921582519533,84.77315062255859,147.6665658251953C84.7596506225586,149.29565582519533,83.4959506225586,150.53570582519532,81.75465062255859,150.5770258251953C80.4409806225586,150.60815582519533,79.1261906225586,150.5833158251953,77.8118906225586,150.5833158251953C77.8118906225586,150.5833158251953,77.8118906225586,150.58575582519532,77.8118906225586,150.58575582519532C77.8118906225586,150.58575582519532,77.8118906225586,150.58575582519532,77.8118906225586,150.58575582519532Z" fill="#5C2D25" fill-opacity="1" style="mix-blend-mode:passthrough"/></g><g><path d="M104.39297198486328,71.93129826660156C104.39297198486328,72.36009826660157,104.42457198486328,72.79179826660156,104.38727198486328,73.21719826660157C104.24507198486327,74.84339826660155,102.97557198486328,75.98449826660156,101.37457198486328,75.95069826660156C99.80097198486328,75.91729826660156,98.55037198486329,74.68329826660155,98.52497198486329,73.04969826660157C98.48487198486328,70.46219826660156,97.99877198486328,67.97499826660156,96.80027198486329,65.67889826660156C93.70427198486328,59.748478266601566,88.77243198486329,56.63931826660156,82.09946198486328,56.33141826660156C80.80707198486328,56.271758266601566,79.79080398486329,55.86199826660156,79.19299498486328,54.68783826660156C78.17398198486327,52.686218266601564,79.63711698486328,50.39773736660156,81.95108198486328,50.461397076601564C90.79287198486328,50.70477426660156,97.39297198486328,54.73473826660156,101.73867198486329,62.40739826660156C103.43167198486329,65.39639826660157,104.17467198486328,68.41719826660156,104.39297198486328,71.93129826660156Z" fill="#5C2D25" fill-opacity="1" style="mix-blend-mode:passthrough"/></g><g></g></g></svg>