<svg xmlns="http://www.w3.org/2000/svg" xmlns:xlink="http://www.w3.org/1999/xlink" fill="none" version="1.1" width="400" height="34.060546875" viewBox="0 0 400 34.060546875"><g><g transform="matrix(0,-1,1,0,-20.24188232421875,20.24188232421875)"><path d="M3.44353,419.6538823242187C3.55457,419.4688823242187,3.62757,419.17388232421877,3.63069,418.81488232421873C3.74236,415.84688232421877,3.84623,412.86488232421874,3.95073,409.8898823242188C5.3142,368.63888232421874,4.63761,327.16488232421875,4.79358,285.8008823242188C4.96608,220.75188232421874,4.94705,155.70488232421874,4.53904,90.66268232421875C4.4726,73.78388232421875,4.46324,56.90218232421875,4.60829,40.026682324218754C4.63948,35.73548232421875,4.69501,31.44428232421875,4.80106,27.16278232421875C4.84224,25.435442324218748,4.88342,23.70857232421875,4.92459,21.98092232421875C4.92896,21.74416232421875,4.90182,21.54733232421875,4.84224,21.39043232421875C4.53592,20.37524232421875,3.97506,20.24064311421875,3.52245,20.24189084861875C3.20334,20.29351602421875,2.73575,20.49705332421875,2.6456,21.48417232421875C1.09123,76.77068232421874,1.25531,132.31888232421875,0.832012,187.73288232421876C0.438039,248.88688232421876,-0.281906,310.06188232421874,0.116434,371.22788232421874C0.333229,387.1418823242187,0.55595,403.28788232421874,1.30615,418.99988232421873C1.81897,420.4928823242187,2.80749,420.54788232421873,3.44353,419.6538823242187Z" fill="#68FE7F" fill-opacity="1" style="mix-blend-mode:passthrough"/></g><g transform="matrix(0,-1,1,0,-34.0604248046875,34.0606689453125)"><path d="M3.1659020703125,171.568546875C3.6166420703125,171.630546875,4.3899320703125,171.575546875,4.4900620703125,170.270546875C4.7296220703125,167.215546875,4.9545320703125,164.153546875,5.1894120703125,161.096546875C5.9898420703125,147.775546875,6.4349720703125,134.321546875,6.4044020703125,120.853646875C6.2961620703125,97.371446875,6.4072020703125,73.876646875,6.0594020703125,50.404546875C5.9873420703125,46.671746875,5.8688120703125,42.944916875000004,5.6875720703125,39.233006875C5.6311120703125,38.105426875,5.5135120703125,37.002806875,5.3768920703125,35.917336875C5.1273420703125,34.886296875,4.6101520703125,34.531432875,4.1550420703125,34.252237875C3.4400920703125,33.929802875,2.0588420703125,33.779582875,1.7902620703125,35.785756875C1.7915120703125,49.516946875,1.0943420703125,63.221346874999995,0.7992510703125,76.934746875C0.2727050703125,99.343746875,-0.4909099296875,121.873846875,0.4327280703125,144.27754687499998C0.8369950703125,154.070546875,1.1876120703125,160.66454687499998,1.9431120703125,169.892546875C1.9428020703125,169.899546875,1.9412420703125,169.880546875,1.9415520703125,169.899546875C1.9421820703125,169.919546875,1.9468620703125,169.933546875,1.9481020703125,169.952546875C1.9530920703125,170.015546875,1.9577720703125,170.075546875,1.9630820703125,170.138546875C1.9590220703125,170.068546875,1.9571520703125,170.045546875,1.9543420703125,170.001546875C2.0579020703125,171.180546875,2.7369920703125,171.437546875,3.1659020703125,171.568546875Z" fill="#68FE7F" fill-opacity="1" style="mix-blend-mode:passthrough"/></g><g transform="matrix(0,-1,1,0,-7.9039306640625,7.9039306640625)"><path d="M2.80406,322.6749306640625C3.1762,322.6179306640625,3.66126,322.2939306640625,3.65408,321.0039306640625C4.05835,313.9459306640625,4.30946,306.8429306640625,4.55433,299.7259306640625C5.50385,270.6829306640625,5.26866,241.4379306640625,5.68478,212.3079306640625C6.24595,171.6379306640625,6.90444,130.9789306640625,6.7491,90.2646306640625C6.76282,69.7824306640625,7.08131,49.3189306640625,7.5829,28.8895306640625C7.68677,24.4285306640625,7.7947,19.9683306640625,7.87861,15.5031106640625C7.86613,14.0034206640625,8.02896,12.2008406640625,7.66088,11.0064906640625C6.75565,7.2463316640625,2.49088,6.4195406640625,2.02485,11.256290664062501C1.78965,26.1999306640625,1.02822,41.0853306640625,0.890657,56.0677306640625C0.548153,80.2059306640625,0.696946,104.3649306640625,0.622394,128.5149306640625C0.469234,168.1079306640625,-0.173975,207.6829306640625,0.0450032,247.2829306640625C0.0802518,271.5609306640625,0.183814,295.9129306640625,1.43498,319.9659306640625C1.48676,320.4999306640625,1.43374,321.1259306640625,1.56069,321.5529306640625C1.84954,322.5489306640625,2.37827,322.6729306640625,2.80406,322.6749306640625Z" fill="#68FE7F" fill-opacity="1" style="mix-blend-mode:passthrough"/></g></g></svg>