<svg xmlns="http://www.w3.org/2000/svg" xmlns:xlink="http://www.w3.org/1999/xlink" fill="none" version="1.1" width="82" height="82" viewBox="0 0 82 82"><defs><filter id="master_svg0_0_1671" filterUnits="objectBoundingBox" color-interpolation-filters="sRGB" x="-0.1875" y="-0.140625" width="1.375" height="1.375"><feFlood flood-opacity="0" result="BackgroundImageFix"/><feColorMatrix in="SourceAlpha" type="matrix" values="0 0 0 0 0 0 0 0 0 0 0 0 0 0 0 0 0 0 127 0"/><feOffset dy="3" dx="0"/><feGaussianBlur stdDeviation="3"/><feColorMatrix type="matrix" values="0 0 0 0 0 0 0 0 0 0 0 0 0 0 0 0 0 0 0.16078431904315948 0"/><feBlend mode="normal" in2="BackgroundImageFix" result="effect1_dropShadow"/><feBlend mode="normal" in="SourceGraphic" in2="effect1_dropShadow" result="shape"/></filter></defs><g><g filter="url(#master_svg0_0_1671)"><rect x="9" y="6" width="64" height="64" rx="0" fill="#FFFFFF" fill-opacity="1" style="mix-blend-mode:passthrough"/><rect x="10" y="7" width="62" height="62" rx="0" fill-opacity="0" stroke-opacity="1" stroke="#5C2D25" fill="none" stroke-width="2" style="mix-blend-mode:passthrough"/></g><g><path d="M53.1072544921875,52.7508896484375C52.4019544921875,52.7508896484375,51.7401544921875,52.4755896484375,51.2403544921875,51.9773896484375C51.2403544921875,51.9773896484375,41.0003544921875,41.7368896484375,41.0003544921875,41.7368896484375C41.0003544921875,41.7368896484375,30.7613544921875,51.9773896484375,30.7613544921875,51.9773896484375C30.2615944921875,52.4755896484375,29.5977744921875,52.7508896484375,28.8909944921875,52.7508896484375C28.1866444921875,52.7508896484375,27.5225844921875,52.4755896484375,27.0228274921875,51.9773896484375C25.9940184921875,50.9464896484375,25.9940184921875,49.269789648437495,27.0228274921875,48.2404896484375C27.0228274921875,48.2404896484375,37.2615544921875,38.0000896484375,37.2615544921875,38.0000896484375C37.2615544921875,38.0000896484375,27.0213624921875,27.7614696484375,27.0213624921875,27.7614696484375C25.9940184921875,26.7321796484375,25.9940184921875,25.0555396484375,27.0213624921875,24.0246586484375C27.5211144921875,23.5263676484375,28.1851844921875,23.2512206984375,28.8909944921875,23.2512206984375C29.5958244921875,23.2512206984375,30.2596444921875,23.5263676484375,30.7593944921875,24.0246586484375C30.7593944921875,24.0246586484375,41.0003544921875,34.2632896484375,41.0003544921875,34.2632896484375C41.0003544921875,34.2632896484375,51.2403544921875,24.0229496484375,51.2403544921875,24.0229496484375C51.7401544921875,23.5247806484375,52.4019544921875,23.2493896484375,53.1072544921875,23.2493896484375C53.8133544921875,23.2493896484375,54.477154492187495,23.5247806484375,54.9769544921875,24.0246586484375C56.0064544921875,25.0539596484375,56.0064544921875,26.7305896484375,54.9769544921875,27.7598896484375C54.9769544921875,27.7598896484375,44.7366544921875,38.0000896484375,44.7366544921875,38.0000896484375C44.7366544921875,38.0000896484375,54.9769544921875,48.2404896484375,54.9769544921875,48.2404896484375C56.0064544921875,49.269789648437495,56.0064544921875,50.9464896484375,54.9769544921875,51.9773896484375C54.477154492187495,52.4755896484375,53.8133544921875,52.7508896484375,53.1072544921875,52.7508896484375C53.1072544921875,52.7508896484375,53.1072544921875,52.7508896484375,53.1072544921875,52.7508896484375Z" fill="#5C2D25" fill-opacity="1" style="mix-blend-mode:passthrough"/><path d="" fill="#000000" fill-opacity="0" style="mix-blend-mode:passthrough"/></g></g></svg>