<svg xmlns="http://www.w3.org/2000/svg" xmlns:xlink="http://www.w3.org/1999/xlink" fill="none" version="1.1" width="82" height="82" viewBox="0 0 82 82"><defs><filter id="master_svg0_0_1705" filterUnits="objectBoundingBox" color-interpolation-filters="sRGB" x="-0.1875" y="-0.140625" width="1.375" height="1.375"><feFlood flood-opacity="0" result="BackgroundImageFix"/><feColorMatrix in="SourceAlpha" type="matrix" values="0 0 0 0 0 0 0 0 0 0 0 0 0 0 0 0 0 0 127 0"/><feOffset dy="3" dx="0"/><feGaussianBlur stdDeviation="3"/><feColorMatrix type="matrix" values="0 0 0 0 0 0 0 0 0 0 0 0 0 0 0 0 0 0 0.16078431904315948 0"/><feBlend mode="normal" in2="BackgroundImageFix" result="effect1_dropShadow"/><feBlend mode="normal" in="SourceGraphic" in2="effect1_dropShadow" result="shape"/></filter></defs><g><g filter="url(#master_svg0_0_1705)"><rect x="9" y="6" width="64" height="64" rx="0" fill="#FFFFFF" fill-opacity="1" style="mix-blend-mode:passthrough"/><rect x="10" y="7" width="62" height="62" rx="0" fill-opacity="0" stroke-opacity="1" stroke="#5C2D25" fill="none" stroke-width="2" style="mix-blend-mode:passthrough"/></g><g><path d="M60.24745586395264,40.50673097076416C60.22375586395264,40.188330970764156,60.123655863952635,39.885930970764164,59.95055586395264,39.607430970764156C59.62825586395264,39.06853097076416,59.07535586395264,38.65203097076416,58.50325586395264,38.51963097076416C58.297255863952635,38.47323097076416,58.090255863952635,38.449730970764165,57.88705586395264,38.449730970764165C57.44245586395264,38.449730970764165,57.02675586395264,38.565030970764155,56.68375586395263,38.78393097076416C56.394655863952636,38.96923097076416,55.71125586395264,39.48633097076416,55.599455863952635,40.28333097076416C55.41295586395264,41.59053097076416,55.07115586395264,42.87003097076416,54.583655863952636,44.08633097076416C54.06575586395264,45.278230970764156,53.40885586395264,46.40683097076416,52.63025586395264,47.44143097076416C51.873655863952635,48.38613097076416,51.01545586395264,49.24493097076416,50.07945586395263,49.994230970764164C49.03555586395264,50.78153097076416,47.89565586395264,51.44673097076416,46.69035586395263,51.97123097076416C45.49985586395263,52.44813097076416,44.25985586395264,52.78343097076416,43.00455586395263,52.96783097076416C42.37385586395264,53.04213097076416,41.73105586395263,53.079830970764164,41.094555863952635,53.079830970764164C40.45645586395264,53.079830970764164,39.810955863952636,53.04183097076416,39.17665586395263,52.967030970764164C37.906155863952634,52.78073097076416,36.653655863952636,52.44283097076416,35.45515586395264,51.96273097076416C34.25325586395264,51.44083097076416,33.11995586395264,50.77993097076416,32.08505586395263,49.99823097076416C31.160525863952635,49.25883097076416,30.309205863952634,48.40653097076416,29.554805863952637,47.46523097076416C28.764035863952635,46.41603097076416,28.100705863952637,45.27783097076416,27.582155863952636,44.08193097076416C27.103635863952636,42.88863097076416,26.767215863952636,41.64563097076416,26.582155863952636,40.387230970764165C26.432985863952638,39.11893097076416,26.432985863952638,37.83123097076416,26.583125863952638,36.56003097076416C26.769405863952635,35.28953097076416,27.107295863952636,34.03753097076416,27.587035863952636,32.83863097076416C28.109255863952637,31.636730970764162,28.770385863952637,30.50283097076416,29.552125863952636,29.46813097076416C30.29162586395264,28.54353097076416,31.14392586395264,27.69201097076416,32.08585586395264,26.93735097076416C33.13655586395264,26.145290970764158,34.273055863952635,25.48204097076416,35.46305586395263,24.965950970764162C36.649555863952635,24.490060970764162,37.89125586395264,24.15484097076416,39.15345586395264,23.96958097076416C39.77505586395264,23.89648097076416,40.410255863952635,23.85940097076416,41.04115586395264,23.85940097076416C41.68075586395264,23.85940097076416,42.328255863952634,23.89750097076416,42.96645586395263,23.97258097076416C44.25135586395264,24.16156097076416,45.51765586395264,24.50402097076416,46.72965586395264,24.99064097076416C47.91445586395264,25.50412097076416,49.041855863952634,26.16167097076416,50.080455863952636,26.94530097076416C50.448355863952635,27.239970970764162,50.80505586395263,27.55182097076416,51.14755586395263,27.87766097076416C50.78555586395264,27.87743097076416,50.42295586395264,27.87707097076416,50.06045586395264,27.87667097076416C49.18885586395264,27.87569097076416,48.31725586395264,27.87470097076416,47.446655863952635,27.87470097076416C47.446655863952635,27.87470097076416,46.24795586395264,27.87470097076416,46.24795586395264,27.87470097076416C45.608255863952635,27.87470097076416,44.97665586395264,28.15185097076416,44.51525586395263,28.635230970764162C44.07435586395263,29.09663097076416,43.84725586395264,29.68243097076416,43.875355863952635,30.28473097076416C43.903655863952636,30.90083097076416,44.15125586395264,31.47853097076416,44.57215586395264,31.911430970764158C45.01475586395264,32.36663097076416,45.60925586395264,32.61903097076416,46.24795586395264,32.62183097076416C47.32285586395264,32.62183097076416,48.43395586395263,32.62183097076416,49.52745586395264,32.62573097076416C50.39735586395264,32.62573097076416,51.26845586395264,32.62673097076416,52.13925586395264,32.62773097076416C53.01115586395264,32.62873097076416,53.882455863952636,32.62973097076416,54.75285586395264,32.62973097076416C54.75285586395264,32.62973097076416,55.95205586395264,32.62973097076416,55.95205586395264,32.62973097076416C56.15175586395264,32.62973097076416,56.35215586395264,32.60323097076416,56.54695586395264,32.55103097076416C56.77355586395264,32.49413097076416,56.984955863952635,32.40313097076416,57.172455863952635,32.28253097076416C57.180555863952634,32.27743097076416,57.18835586395264,32.27213097076416,57.196855863952635,32.26683097076416C57.196855863952635,32.26683097076416,57.20055586395264,32.26413097076416,57.20055586395264,32.26413097076416C57.894655863952636,31.82563097076416,58.32555586395264,31.05653097076416,58.32555586395264,30.25613097076416C58.32555586395264,29.17743097076416,58.32555586395264,28.06205097076416,58.32925586395264,26.96088097076416C58.32925586395264,26.09284097076416,58.33015586395263,25.22582097076416,58.33115586395264,24.35880097076416C58.332155863952636,23.49115097076416,58.33315586395263,22.62354097076416,58.33315586395263,21.75490097076416C58.33315586395263,21.75490097076416,58.33315586395263,20.55230097076416,58.33315586395263,20.55230097076416C58.33315586395263,19.94792097076416,58.08285586395264,19.34278097076416,57.646355863952635,18.89200697076416C57.20665586395263,18.43782897076416,56.61415586395264,18.17733097076657,56.02085586395264,18.17733097076657C55.988355863952634,18.17733097076657,55.95595586395264,18.17808246576416,55.92325586395264,18.17958546076416C54.612955863952635,18.23999307076416,53.58625586395264,19.28218097076416,53.58625586395264,20.55230097076416C53.58625586395264,21.58365097076416,53.58625586395264,22.64858097076416,53.58265586395264,23.70255097076416C52.67565586395264,22.93598097076416,51.70425586395264,22.25758097076416,50.68545586395264,21.68009097076416C47.73985586395264,20.00734097076416,44.408355863952636,19.12315097076416,41.050855863952634,19.12315097076416C40.983055863952636,19.12315097076416,40.91545586395264,19.12354597076416,40.847755863952635,19.12425897076416C39.08435586395264,19.14277197076416,37.323155863952636,19.40639097076416,35.613155863952635,19.90781097076416C33.899555863952635,20.41028097076416,32.27555586395263,21.14063097076416,30.785275863952634,22.07865097076416C29.30749586395264,23.01110097076416,27.960085863952635,24.13632097076416,26.78112586395264,25.42318097076416C25.584105863952637,26.73073097076416,24.585575863952638,28.17813097076416,23.814085863952638,29.725130970764162C22.242797863952635,32.87573097076416,21.532104863952636,36.31983097076416,21.758667363952636,39.68483097076416C22.004028863952637,43.32683097076416,23.215695863952636,46.76433097076416,25.262815863952635,49.62533097076416C27.353635863952636,52.55233097076416,30.10656586395264,54.80993097076416,33.22395586395264,56.15413097076416C34.923955863952635,56.88773097076416,36.51845586395264,57.35643097076416,38.099255863952635,57.58723097076416C39.18685586395264,57.745930970764164,40.19395586395264,57.82303097076416,41.17835586395263,57.82303097076416C41.892955863952636,57.82303097076416,42.59995586395264,57.78043097076416,43.27995586395264,57.69623097076416C45.17345586395264,57.46003097076416,46.835555863952635,57.03443097076416,48.36025586395264,56.39523097076416C49.40175586395264,55.96103097076416,50.247155863952635,55.54373097076416,51.022855863952636,55.08123097076416C51.86995586395264,54.57213097076416,52.729355863952634,53.95643097076416,53.57755586395264,53.25153097076416C56.43985586395264,50.87543097076416,58.606555863952636,47.54043097076416,59.678055863952636,43.86143097076416C59.90785586395263,43.07633097076416,60.08605586395264,42.25233097076416,60.20785586395264,41.41183097076416C60.29115586395264,41.115830970764165,60.30435586395264,40.811630970764156,60.24745586395264,40.50673097076416C60.24745586395264,40.50673097076416,60.24745586395264,40.50673097076416,60.24745586395264,40.50673097076416Z" fill="#5C2D25" fill-opacity="1" style="mix-blend-mode:passthrough"/><path d="" fill="#000000" fill-opacity="0" style="mix-blend-mode:passthrough"/></g></g></svg>