<svg xmlns="http://www.w3.org/2000/svg" xmlns:xlink="http://www.w3.org/1999/xlink" fill="none" version="1.1" width="82" height="82" viewBox="0 0 82 82"><defs><filter id="master_svg0_0_1481" filterUnits="objectBoundingBox" color-interpolation-filters="sRGB" x="-0.1875" y="-0.140625" width="1.375" height="1.375"><feFlood flood-opacity="0" result="BackgroundImageFix"/><feColorMatrix in="SourceAlpha" type="matrix" values="0 0 0 0 0 0 0 0 0 0 0 0 0 0 0 0 0 0 127 0"/><feOffset dy="3" dx="0"/><feGaussianBlur stdDeviation="3"/><feColorMatrix type="matrix" values="0 0 0 0 0 0 0 0 0 0 0 0 0 0 0 0 0 0 0.16078431904315948 0"/><feBlend mode="normal" in2="BackgroundImageFix" result="effect1_dropShadow"/><feBlend mode="normal" in="SourceGraphic" in2="effect1_dropShadow" result="shape"/></filter></defs><g><g filter="url(#master_svg0_0_1481)"><rect x="9" y="6" width="64" height="64" rx="0" fill="#FFFFFF" fill-opacity="1" style="mix-blend-mode:passthrough"/><rect x="10" y="7" width="62" height="62" rx="0" fill-opacity="0" stroke-opacity="1" stroke="#5C2D25" fill="none" stroke-width="2" style="mix-blend-mode:passthrough"/></g><g><path d="M37.55128975219726,50.20074248657227L58.41708975219726,29.334912486572264L54.881589752197264,25.799372486572267L35.78348975219727,44.89744248657227L27.118359752197264,36.232302486572266L23.582819752197267,39.76784248657226L34.015749752197266,50.20074248657227Q34.102599752197264,50.28764248657227,34.197539752197265,50.36554248657227Q34.292479752197266,50.443442486572266,34.39458975219726,50.51164248657227Q34.49670975219726,50.579942486572264,34.60502975219727,50.63784248657227Q34.713339752197264,50.69564248657227,34.82680975219726,50.742642486572265Q34.94027975219726,50.78964248657226,35.057809752197265,50.82534248657227Q35.17533975219727,50.86094248657227,35.295789752197265,50.884942486572264Q35.416289752197265,50.908942486572265,35.538489752197265,50.920942486572265Q35.660689752197264,50.932942486572266,35.78348975219727,50.932942486572266Q35.90628975219727,50.932942486572266,36.02858975219726,50.920942486572265Q36.15078975219727,50.908942486572265,36.27128975219726,50.884942486572264Q36.391689752197266,50.86094248657227,36.509189752197265,50.82534248657227Q36.62678975219727,50.78964248657226,36.74018975219727,50.742642486572265Q36.85368975219727,50.69564248657227,36.96198975219727,50.63784248657227Q37.07028975219727,50.579942486572264,37.172489752197265,50.51164248657227Q37.274589752197265,50.443442486572266,37.36948975219727,50.36554248657227Q37.46448975219727,50.28764248657227,37.55128975219726,50.20074248657227Z" fill-rule="evenodd" fill="#5C2D25" fill-opacity="1" style="mix-blend-mode:passthrough"/></g></g></svg>