<svg xmlns="http://www.w3.org/2000/svg" xmlns:xlink="http://www.w3.org/1999/xlink" fill="none" version="1.1" width="111.470458984375" height="130.58447265625" viewBox="0 0 111.470458984375 130.58447265625"><defs><filter id="master_svg0_0_4423" filterUnits="objectBoundingBox" color-interpolation-filters="sRGB" x="-1.2" y="-0.32142857142857145" width="3.4" height="1.8571428571428572"><feFlood flood-opacity="0" result="BackgroundImageFix"/><feColorMatrix in="SourceAlpha" type="matrix" values="0 0 0 0 0 0 0 0 0 0 0 0 0 0 0 0 0 0 127 0"/><feOffset dy="3" dx="0"/><feGaussianBlur stdDeviation="3"/><feColorMatrix type="matrix" values="0 0 0 0 0 0 0 0 0 0 0 0 0 0 0 0 0 0 0.16078431904315948 0"/><feBlend mode="normal" in2="BackgroundImageFix" result="effect1_dropShadow"/><feBlend mode="normal" in="SourceGraphic" in2="effect1_dropShadow" result="shape"/></filter><filter id="master_svg1_0_4425" filterUnits="objectBoundingBox" color-interpolation-filters="sRGB" x="-0.12838278715460372" y="-0.1092439231604548" width="1.2567655743092074" height="1.2913171284278795"><feFlood flood-opacity="0" result="BackgroundImageFix"/><feColorMatrix in="SourceAlpha" type="matrix" values="0 0 0 0 0 0 0 0 0 0 0 0 0 0 0 0 0 0 127 0"/><feOffset dy="3" dx="0"/><feGaussianBlur stdDeviation="3"/><feColorMatrix type="matrix" values="0 0 0 0 0 0 0 0 0 0 0 0 0 0 0 0 0 0 0.16078431904315948 0"/><feBlend mode="normal" in2="BackgroundImageFix" result="effect1_dropShadow"/><feBlend mode="normal" in="SourceGraphic" in2="effect1_dropShadow" result="shape"/></filter></defs><g><g filter="url(#master_svg0_0_4423)"><path d="M44.0553515625,34.19921875L44.0553515625,14.90721875L44.3073515625,15.13121875L39.0153515625,15.13121875L39.0153515625,14.59921875L44.587351562500004,14.59921875L44.587351562500004,34.19921875L44.0553515625,34.19921875Z" fill="#68FE7F" fill-opacity="1" style="mix-blend-mode:passthrough"/><path d="M44.0553515625,34.19921875L44.0553515625,14.90721875L44.3073515625,15.13121875L39.0153515625,15.13121875L39.0153515625,14.59921875L44.587351562500004,14.59921875L44.587351562500004,34.19921875L44.0553515625,34.19921875Z" fill-opacity="0" stroke-opacity="1" stroke="#68FE7F" fill="none" stroke-width="8" style="mix-blend-mode:passthrough"/></g><g><g filter="url(#master_svg1_0_4425)"><path d="M16.95703,51.46090703125L18.91825,58.780307031250004L18.916800000000002,58.78070703125C16.98492,59.14570703125,15.07593,59.59620703125,13.16797,60.10740703125L14.69345,65.80060703125L9,67.32620703125L22.7346,118.58460703125L55.4833,109.80960703125C56.2707,109.59860703125,57.0781,110.06600703125,57.2887,110.85190703125C57.7098,112.42380703125,59.3275,113.35780703125,60.8994,112.93660703125L66.59479999999999,111.41050703125C68.16669999999999,110.98930703125,69.1007,109.37170703125,68.67949999999999,107.79980703125C68.46889999999999,107.01380703125,68.9344,106.20540703125,69.7218,105.99440703125L102.4705,97.21940703125L88.7358,45.96101703125L83.0404,47.48710703125L83.0384,47.48760703125L81.5129,41.79443703125C79.6055,42.30554703125,77.7275,42.86975703125,75.8724,43.51935703125L73.9112,36.20011615725C65.7764,38.37982703125,58.6294,43.08547703125,53.4345,49.53170703125L41.3562,52.76810703125C33.6342,49.78290703125,25.0918,49.28120703125,16.95703,51.46090703125Z" fill-rule="evenodd" fill="#68FE7F" fill-opacity="1" style="mix-blend-mode:passthrough"/></g><g transform="matrix(0.9659258127212524,-0.258819043636322,0.258819043636322,0.9659258127212524,-14.809591075465505,6.091040868409436)"><g><path d="M16.728225708007812,70.97434616088867L20.476625708007813,70.97434616088867L20.476625708007813,68.97434616088867L15.728225708007812,68.97434616088867Q15.629734308007812,68.97434616088867,15.533135708007812,68.99356116088867Q15.436536708007813,69.01277616088868,15.345542708007812,69.05046716088867Q15.254547708007813,69.08815816088867,15.172655708007813,69.14287616088868Q15.090762708007812,69.19759516088867,15.021118708007812,69.26723916088868Q14.951474708007812,69.33688316088868,14.896755708007813,69.41877616088867Q14.842037708007812,69.50066816088867,14.804346708007813,69.59166316088867Q14.766655708007812,69.68265716088867,14.747440708007812,69.77925616088868Q14.728225708007812,69.87585476088867,14.728225708007812,69.97434616088867L14.728225708007812,112.70964616088867Q14.728225708007812,112.80814616088867,14.747440708007812,112.90474616088866Q14.766655708007812,113.00134616088867,14.804346708007813,113.09234616088867Q14.842037708007812,113.18334616088868,14.896755708007813,113.26514616088866Q14.951474708007812,113.34704616088868,15.021118708007812,113.41674616088866Q15.090762708007812,113.48634616088867,15.172655708007813,113.54104616088867Q15.254547708007813,113.59584616088867,15.345542708007812,113.63354616088867Q15.436536708007813,113.67114616088867,15.533135708007812,113.69044616088867Q15.629734308007812,113.70964616088867,15.728225708007812,113.70964616088867L43.03152570800781,113.70964616088867Q43.218625708007814,113.70964616088867,43.218625708007814,113.89674616088868Q43.218625708007814,115.29384616088868,44.20712570800781,116.28234616088866Q45.195725708007814,117.27094616088867,46.59282570800781,117.27094616088867L51.34122570800781,117.27094616088867Q52.738325708007814,117.27094616088867,53.726825708007816,116.28234616088866Q54.715425708007814,115.29384616088868,54.715425708007814,113.89674616088868Q54.715425708007814,113.70964616088867,54.902525708007815,113.70964616088867L82.20582570800781,113.70964616088867Q82.3042257080078,113.70964616088867,82.40082570800782,113.69044616088867Q82.49742570800781,113.67114616088867,82.58842570800782,113.63354616088867Q82.67942570800781,113.59584616088867,82.76132570800782,113.54104616088867Q82.84322570800781,113.48634616088867,82.91292570800782,113.41674616088866Q82.98252570800781,113.34704616088868,83.03722570800781,113.26514616088866Q83.0919257080078,113.18334616088868,83.12962570800781,113.09234616088867Q83.16732570800781,113.00134616088867,83.1865257080078,112.90474616088866Q83.20572570800782,112.80814616088867,83.20582570800781,112.70964616088867L83.20582570800781,69.97434616088867Q83.20572570800782,69.87585476088867,83.1865257080078,69.77925616088868Q83.16732570800781,69.68265716088867,83.12962570800781,69.59166316088867Q83.0919257080078,69.50066816088867,83.03722570800781,69.41877616088867Q82.98252570800781,69.33688316088868,82.91292570800782,69.26723916088868Q82.84322570800781,69.19759516088867,82.76132570800782,69.14287616088868Q82.67942570800781,69.08815816088867,82.58842570800782,69.05046716088867Q82.49742570800781,69.01277616088868,82.40082570800782,68.99356116088867Q82.3042257080078,68.97434616088867,82.20582570800781,68.97434616088867L77.4574257080078,68.97434616088867L77.4574257080078,70.97434616088867L81.20582570800781,70.97434616088867L81.20582570800781,111.70964616088867L54.902525708007815,111.70964616088867Q52.715425708007814,111.70964616088867,52.715425708007814,113.89674616088868Q52.715425708007814,114.46544616088867,52.312625708007815,114.86814616088867Q51.90992570800781,115.27094616088867,51.34122570800781,115.27094616088867L46.59282570800781,115.27094616088867Q45.218625708007814,115.27094616088867,45.218625708007814,113.89674616088868Q45.218625708007814,112.99104616088867,44.57852570800782,112.35054616088867Q43.938025708007814,111.70964616088867,43.03152570800781,111.70964616088867L16.728225708007812,111.70964616088867L16.728225708007812,70.97434616088867Z" fill-rule="evenodd" fill="#5C2D25" fill-opacity="1" style="mix-blend-mode:passthrough"/></g><g><path d="M48.967017547607426,68.49029734375011Q39.392917547607425,58.290527343750114,25.225017547607422,58.290527343750114Q25.12652614760742,58.290527343750114,25.02992754760742,58.309742343750116Q24.93332854760742,58.32895734375011,24.84233454760742,58.366648343750114Q24.751339547607422,58.40433934375012,24.669447547607422,58.45905734375011Q24.58755454760742,58.513776343750116,24.51791054760742,58.58342034375011Q24.44826654760742,58.65306434375012,24.393547547607422,58.73495734375011Q24.33882954760742,58.816849343750114,24.301138547607422,58.907844343750114Q24.26344754760742,58.998838343750116,24.24423254760742,59.09543734375011Q24.225017547607422,59.19203594375011,24.225017547607422,59.290527343750114L24.225017547607422,99.6516273437501Q24.225017547607422,99.75012734375011,24.24423254760742,99.8467273437501Q24.26344754760742,99.94332734375011,24.301138547607422,100.0343273437501Q24.33882954760742,100.12532734375012,24.393548547607423,100.2072273437501Q24.448268547607423,100.28912734375012,24.517912547607423,100.3587273437501Q24.58755654760742,100.42832734375011,24.66944954760742,100.48312734375011Q24.751342547607422,100.53782734375011,24.84233754760742,100.57552734375011Q24.933331547607423,100.61322734375011,25.029931547607422,100.63242734375012Q25.126530747607422,100.6516273437501,25.22502263386742,100.6516273437501Q39.051917547607424,100.6516273437501,48.21851754760742,110.99852734375011Q48.25861754760742,111.04382734375011,48.303917547607426,111.0839273437501Q48.37761754760742,111.14922734375011,48.46261754760742,111.19892734375011Q48.54771754760742,111.24862734375012,48.640817547607426,111.28072734375012Q48.73391754760742,111.31282734375012,48.83151754760742,111.3262273437501Q48.92901754760742,111.33952734375012,49.02741754760742,111.33362734375012Q49.12571754760742,111.32762734375012,49.22091754760742,111.30262734375012Q49.31621754760742,111.27762734375011,49.40481754760742,111.23452734375012Q49.49331754760742,111.19142734375012,49.57171754760742,111.1318273437501Q49.650217547607426,111.07232734375012,49.71551754760742,110.99852734375011Q58.88211754760742,100.6516273437501,72.70901754760743,100.6516273437501Q72.80751754760743,100.6516273437501,72.90401754760742,100.63242734375012Q73.00061754760742,100.61322734375011,73.09161754760743,100.57552734375011Q73.18261754760742,100.53782734375011,73.26451754760743,100.48312734375011Q73.34641754760742,100.42832734375011,73.41611754760743,100.3587273437501Q73.48571754760742,100.28912734375012,73.54041754760742,100.2072273437501Q73.59511754760743,100.12532734375012,73.63281754760743,100.0343273437501Q73.67051754760743,99.94332734375011,73.68971754760742,99.8467273437501Q73.70901754760743,99.75012734375011,73.70901754760743,99.6516273437501L73.70901754760743,59.290527343750114Q73.70901754760743,59.19203594375011,73.68971754760742,59.09543734375011Q73.67051754760743,58.998838343750116,73.63281754760743,58.907844343750114Q73.59511754760743,58.816849343750114,73.54041754760742,58.73495734375011Q73.48571754760742,58.65306434375012,73.41611754760743,58.58342034375011Q73.34641754760742,58.513776343750116,73.26451754760743,58.45905734375011Q73.18261754760742,58.40433834375011,73.09161754760743,58.36664734375012Q73.00061754760742,58.328956343750114,72.90411754760743,58.30974134375011Q72.80751754760743,58.290527343750114,72.70901754760743,58.290527343750114Q58.54111754760742,58.290527343750114,48.967017547607426,68.49029734375011ZM26.225017547607422,60.304227343750114L26.225017547607422,98.6644273437501Q39.73271754760742,99.01362734375012,48.967017547607426,108.85142734375012Q58.20121754760742,99.0137273437501,71.70901754760743,98.6644273437501L71.70901754760743,60.304227343750114Q58.54861754760742,60.66699734375011,49.71551754760742,70.63742734375012Q49.675417547607424,70.68272734375012,49.630117547607426,70.72282734375011Q49.556417547607424,70.78812734375012,49.47131754760743,70.83782734375012Q49.38631754760742,70.88752734375011,49.293217547607426,70.91962734375011Q49.20011754760742,70.95172734375011,49.10251754760742,70.96512734375011Q49.00491754760742,70.97842734375011,48.906617547607425,70.97252734375012Q48.80831754760742,70.96652734375012,48.71301754760742,70.94152734375011Q48.61781754760742,70.91652734375012,48.52921754760742,70.87342734375011Q48.44071754760742,70.83032734375011,48.36221754760742,70.77072734375011Q48.28381754760743,70.71122734375011,48.21851754760742,70.63742734375012Q39.38541754760742,60.66699734375011,26.225017547607422,60.304227343750114Z" fill-rule="evenodd" fill="#5C2D25" fill-opacity="1" style="mix-blend-mode:passthrough"/></g><g><path d="M77.45742162780762,64.22598075866699Q74.88182162780762,64.22598075866699,72.63402162780761,64.394988758667L72.78392162780762,66.389360758667Q74.51652162780762,66.25909075866699,76.45742162780762,66.23269075866699L76.45742162780762,104.59368075866699Q62.133421627807614,104.78398075866698,48.96702162780762,110.43298075866699Q35.80052162780762,104.78398075866698,21.476621627807617,104.59368075866699L21.476621627807617,66.23269075866699Q23.417451627807615,66.25909075866699,25.150041627807617,66.389360758667L25.299991627807618,64.394988758667Q23.052181627807617,64.22598075866699,20.476621627807617,64.22598075866699Q20.378130227807617,64.22598075866699,20.281531627807617,64.245195758667Q20.184932627807616,64.264410758667,20.093938627807617,64.30210175866699Q20.002943627807618,64.33979275866699,19.921051627807618,64.394510758667Q19.839158627807617,64.44922975866699,19.769514627807617,64.518873758667Q19.699870627807616,64.588517758667,19.645151627807618,64.67041075866699Q19.590433627807617,64.75230275866699,19.552742627807618,64.84329775866699Q19.515051627807615,64.93429175866699,19.495836627807616,65.030890758667Q19.476621627807617,65.12748935866699,19.476621627807617,65.22598075866699L19.476621627807617,105.58708075866699Q19.476621627807617,105.68558075866699,19.495836627807616,105.78218075866698Q19.515051627807615,105.87878075866699,19.552742627807618,105.96978075866699Q19.590433627807617,106.060780758667,19.645151627807618,106.14268075866698Q19.699870627807616,106.224580758667,19.769514627807617,106.29418075866698Q19.839158627807617,106.363880758667,19.921051627807618,106.41858075866699Q20.002943627807618,106.47328075866699,20.093938627807617,106.51098075866699Q20.184932627807616,106.54868075866699,20.281531627807617,106.567880758667Q20.378130227807617,106.58708075866699,20.476621627807617,106.58708075866699Q35.14282162780762,106.58708075866699,48.56742162780762,112.43918075866699Q48.75852162780762,112.52258075866699,48.96702162780762,112.52258075866699Q49.17552162780761,112.52258075866699,49.36662162780762,112.43918075866699Q62.79112162780762,106.58708075866699,77.45742162780762,106.58708075866699Q77.55582162780762,106.58708075866699,77.65242162780763,106.567880758667Q77.74902162780762,106.54868075866699,77.84002162780762,106.51098075866699Q77.93102162780761,106.47328075866699,78.01292162780761,106.41858075866699Q78.09482162780762,106.363880758667,78.16452162780762,106.29418075866698Q78.23412162780761,106.224580758667,78.28882162780761,106.14268075866698Q78.34352162780762,106.060780758667,78.38122162780762,105.96978075866699Q78.41892162780762,105.87878075866699,78.43812162780762,105.78218075866698Q78.45742162780762,105.68558075866699,78.45742162780762,105.58708075866699L78.45742162780762,65.22598075866699Q78.45742162780762,65.12748935866699,78.43812162780762,65.030890758667Q78.41892162780762,64.93429175866699,78.38122162780762,64.84329775866699Q78.34352162780762,64.75230275866699,78.28882162780761,64.67041075866699Q78.23412162780761,64.588517758667,78.16452162780762,64.518873758667Q78.09482162780762,64.44922975866699,78.01292162780761,64.394510758667Q77.93102162780761,64.33979275866699,77.84002162780762,64.30210175866699Q77.74902162780762,64.264410758667,77.65242162780763,64.245195758667Q77.55582162780762,64.22598075866699,77.45742162780762,64.22598075866699Z" fill-rule="evenodd" fill="#5C2D25" fill-opacity="1" style="mix-blend-mode:passthrough"/></g><g transform="matrix(0,1,-1,0,118.5013370513916,22.06304359436035)"><line x1="48.219146728515625" y1="69.28219032287598" x2="88.16178512573242" y2="69.28219032287598" fill-opacity="0" stroke-opacity="1" stroke="#5C2D25" fill="none" stroke-width="2" stroke-linejoin="round" style="mix-blend-mode:passthrough"/></g><g><path d="M65.40029306640625,67.18743574401856Q58.74731306640625,68.44759574401856,53.15248506640625,72.25799574401856L54.27830106640625,73.91103574401855Q59.52882306640625,70.33512574401855,65.77249306640626,69.15249574401855L65.40029306640625,67.18743574401856Z" fill-rule="evenodd" fill="#5C2D25" fill-opacity="1" style="mix-blend-mode:passthrough"/></g><g><path d="M32.16150738098145,69.15249574401855Q38.405182380981444,70.33513574401856,43.65571238098144,73.91103574401855L44.78151238098145,72.25800574401856Q39.186682380981445,68.44760074401856,32.53371738098144,67.18743574401856L32.16150738098145,69.15249574401855Z" fill-rule="evenodd" fill="#5C2D25" fill-opacity="1" style="mix-blend-mode:passthrough"/></g><g><path d="M65.40029306640625,73.08728086730957Q58.74731306640625,74.34744086730957,53.15248506640625,78.15784086730957L54.27830106640625,79.81088086730956Q59.52882306640625,76.23497086730957,65.77249306640626,75.05234086730957L65.40029306640625,73.08728086730957Z" fill-rule="evenodd" fill="#5C2D25" fill-opacity="1" style="mix-blend-mode:passthrough"/></g><g><path d="M32.16150738098145,75.05234086730957Q38.405182380981444,76.23498086730957,43.65571238098144,79.81088086730956L44.78151238098145,78.15785086730958Q39.186682380981445,74.34744586730957,32.53371738098144,73.08728086730957L32.16150738098145,75.05234086730957Z" fill-rule="evenodd" fill="#5C2D25" fill-opacity="1" style="mix-blend-mode:passthrough"/></g><g><path d="M65.40029306640625,78.98712026855469Q58.74731306640625,80.24728026855469,53.15248506640625,84.05768026855469L54.27830106640625,85.71072026855468Q59.52882306640625,82.13481026855469,65.77249306640626,80.95218026855468L65.40029306640625,78.98712026855469Z" fill-rule="evenodd" fill="#5C2D25" fill-opacity="1" style="mix-blend-mode:passthrough"/></g><g><path d="M32.16150738098145,80.95218026855468Q38.405182380981444,82.13482026855469,43.65571238098144,85.71072026855468L44.78151238098145,84.0576902685547Q39.186682380981445,80.24728526855469,32.53371738098144,78.98712026855469L32.16150738098145,80.95218026855468Z" fill-rule="evenodd" fill="#5C2D25" fill-opacity="1" style="mix-blend-mode:passthrough"/></g><g><path d="M65.40029306640625,84.88696348449707Q58.74731306640625,86.14712348449707,53.15248506640625,89.95752348449707L54.27830106640625,91.61056348449706Q59.52882306640625,88.03465348449707,65.77249306640626,86.85202348449707L65.40029306640625,84.88696348449707Z" fill-rule="evenodd" fill="#5C2D25" fill-opacity="1" style="mix-blend-mode:passthrough"/></g><g><path d="M32.16150738098145,86.85202348449707Q38.405182380981444,88.03466348449707,43.65571238098144,91.61056348449706L44.78151238098145,89.95753348449708Q39.186682380981445,86.14712848449707,32.53371738098144,84.88696348449707L32.16150738098145,86.85202348449707Z" fill-rule="evenodd" fill="#5C2D25" fill-opacity="1" style="mix-blend-mode:passthrough"/></g><g><path d="M65.40029306640625,90.78680570043946Q58.74732306640625,92.04696170043945,53.15248506640625,95.85737670043946L54.27830106640625,97.51040670043945Q59.52882306640625,93.93449670043945,65.77249306640626,92.75186570043945L65.40029306640625,90.78680570043946Z" fill-rule="evenodd" fill="#5C2D25" fill-opacity="1" style="mix-blend-mode:passthrough"/></g><g><path d="M32.161508380981445,92.75186570043945Q38.40517238098145,93.93449670043945,43.65571238098144,97.51040670043945L44.78151238098145,95.85737670043946Q39.186682380981445,92.04696470043945,32.533716380981446,90.78680570043946L32.161508380981445,92.75186570043945Z" fill-rule="evenodd" fill="#5C2D25" fill-opacity="1" style="mix-blend-mode:passthrough"/></g></g></g><g><path d="M44.0553515625,34.19921875L44.0553515625,14.90721875L44.3073515625,15.13121875L39.0153515625,15.13121875L39.0153515625,14.59921875L44.587351562500004,14.59921875L44.587351562500004,34.19921875L44.0553515625,34.19921875Z" fill="#5C2D25" fill-opacity="1" style="mix-blend-mode:passthrough"/></g></g></svg>