<svg xmlns="http://www.w3.org/2000/svg" xmlns:xlink="http://www.w3.org/1999/xlink" fill="none" version="1.1" width="129.23699951171875" height="143.18310546875" viewBox="0 0 129.23699951171875 143.18310546875"><defs><filter id="master_svg0_0_4447" filterUnits="objectBoundingBox" color-interpolation-filters="sRGB" x="-0.75" y="-0.32142857142857145" width="2.5" height="1.8571428571428572"><feFlood flood-opacity="0" result="BackgroundImageFix"/><feColorMatrix in="SourceAlpha" type="matrix" values="0 0 0 0 0 0 0 0 0 0 0 0 0 0 0 0 0 0 127 0"/><feOffset dy="3" dx="0"/><feGaussianBlur stdDeviation="3"/><feColorMatrix type="matrix" values="0 0 0 0 0 0 0 0 0 0 0 0 0 0 0 0 0 0 0.16078431904315948 0"/><feBlend mode="normal" in2="BackgroundImageFix" result="effect1_dropShadow"/><feBlend mode="normal" in="SourceGraphic" in2="effect1_dropShadow" result="shape"/></filter><filter id="master_svg1_0_4448" filterUnits="objectBoundingBox" color-interpolation-filters="sRGB" x="-0.14396477766044605" y="-0.12250237367249063" width="1.287929555320892" height="1.326672996459975"><feFlood flood-opacity="0" result="BackgroundImageFix"/><feColorMatrix in="SourceAlpha" type="matrix" values="0 0 0 0 0 0 0 0 0 0 0 0 0 0 0 0 0 0 127 0"/><feOffset dy="3" dx="0"/><feGaussianBlur stdDeviation="3"/><feColorMatrix type="matrix" values="0 0 0 0 0 0 0 0 0 0 0 0 0 0 0 0 0 0 0.16078431904315948 0"/><feBlend mode="normal" in2="BackgroundImageFix" result="effect1_dropShadow"/><feBlend mode="normal" in="SourceGraphic" in2="effect1_dropShadow" result="shape"/></filter></defs><g><g transform="matrix(0.9659258127212524,0.258819043636322,-0.258819043636322,0.9659258127212524,3.317548613216786,-9.721740409080667)"><g><g filter="url(#master_svg0_0_4447)"><path d="M82.64074951171875,31.82276953125Q80.48474951171875,31.82276953125,78.67874951171875,31.03876953125Q76.87274951171875,30.25476953125,75.97674951171875,29.05076953125L76.34074951171876,28.68676953125Q77.15274951171875,29.77876953125,78.83274951171875,30.53476953125Q80.51274951171875,31.29076953125,82.64074951171875,31.29076953125Q85.66474951171875,31.29076953125,87.13474951171875,29.86276953125Q88.60474951171875,28.43476953125,88.60474951171875,26.25076953125Q88.60474951171875,24.65476953125,87.89074951171875,23.50676953125Q87.17674951171875,22.358769531249997,85.49674951171875,21.75676953125Q83.81674951171875,21.15476953125,80.90474951171875,21.15476953125L77.20874951171875,21.15476953125L78.24474951171875,12.13876953125L88.18474951171875,12.13876953125L88.18474951171875,12.67076953125L78.55274951171874,12.67076953125L78.74874951171876,12.44676953125L77.76874951171875,20.90276953125L77.60074951171875,20.62276953125L81.01674951171876,20.62276953125Q84.04074951171876,20.62276953125,85.81874951171875,21.30876953125Q87.59674951171876,21.99476953125,88.38074951171875,23.25476953125Q89.16474951171875,24.51476953125,89.16474951171875,26.25076953125Q89.16474951171875,27.81876953125,88.43674951171874,29.09276953125Q87.70874951171875,30.36676953125,86.26674951171876,31.09476953125Q84.82474951171875,31.82276953125,82.64074951171875,31.82276953125Z" fill="#68FE7F" fill-opacity="1" style="mix-blend-mode:passthrough"/><path d="M82.64074951171875,31.82276953125Q80.48474951171875,31.82276953125,78.67874951171875,31.03876953125Q76.87274951171875,30.25476953125,75.97674951171875,29.05076953125L76.34074951171876,28.68676953125Q77.15274951171875,29.77876953125,78.83274951171875,30.53476953125Q80.51274951171875,31.29076953125,82.64074951171875,31.29076953125Q85.66474951171875,31.29076953125,87.13474951171875,29.86276953125Q88.60474951171875,28.43476953125,88.60474951171875,26.25076953125Q88.60474951171875,24.65476953125,87.89074951171875,23.50676953125Q87.17674951171875,22.358769531249997,85.49674951171875,21.75676953125Q83.81674951171875,21.15476953125,80.90474951171875,21.15476953125L77.20874951171875,21.15476953125L78.24474951171875,12.13876953125L88.18474951171875,12.13876953125L88.18474951171875,12.67076953125L78.55274951171874,12.67076953125L78.74874951171876,12.44676953125L77.76874951171875,20.90276953125L77.60074951171875,20.62276953125L81.01674951171876,20.62276953125Q84.04074951171876,20.62276953125,85.81874951171875,21.30876953125Q87.59674951171876,21.99476953125,88.38074951171875,23.25476953125Q89.16474951171875,24.51476953125,89.16474951171875,26.25076953125Q89.16474951171875,27.81876953125,88.43674951171874,29.09276953125Q87.70874951171875,30.36676953125,86.26674951171876,31.09476953125Q84.82474951171875,31.82276953125,82.64074951171875,31.82276953125Z" fill-opacity="0" stroke-opacity="1" stroke="#68FE7F" fill="none" stroke-width="8" style="mix-blend-mode:passthrough"/></g><g filter="url(#master_svg1_0_4448)"><path d="M45.67644951171875,51.35598203125L47.42547951171875,57.88338203125L47.42414951171875,57.88378203125C45.70136951171875,58.20928203125,43.99899951171875,58.61098203125,42.29754951171875,59.06688203125L43.65793951171875,64.14398203125L38.58074951171875,65.50438203125L50.82884951171875,111.21488203125L80.03294951171875,103.38968203125C80.73504951171876,103.20148203125,81.45504951171876,103.61828203125,81.64284951171875,104.31918203125C82.01854951171876,105.72088203125,83.46104951171876,106.55378203125,84.86284951171875,106.17818203125L89.94184951171874,104.81728203125C91.34364951171875,104.44168203125,92.17644951171874,102.99908203125,91.80084951171875,101.59728203125C91.61304951171874,100.89648203125,92.02814951171875,100.17548203125,92.73034951171874,99.98738203125001L121.93444951171875,92.16218203125L109.68634951171875,46.45169203125L104.60744951171876,47.81258203125L104.60564951171875,47.81308203125L103.24524951171875,42.73601203125C101.54424951171876,43.19179203125,99.86954951171876,43.69494203125,98.21514951171875,44.27422203125L96.46614951171875,37.74688625325C89.21174951171875,39.69072203125,82.83804951171875,43.88721203125,78.20544951171874,49.63588203125L67.43524951171875,52.52178203125C60.548949511718746,49.85958203125,52.93094951171875,49.41208203125,45.67644951171875,51.35598203125Z" fill-rule="evenodd" fill="#68FE7F" fill-opacity="1" style="mix-blend-mode:passthrough"/></g><g transform="matrix(0.9659258127212524,-0.258819043636322,0.258819043636322,0.9659258127212524,-13.580030627919768,13.526179801603575)"><g><path d="M45.58074951171875,68.8658390045166L48.81520951171875,68.8658390045166L48.81520951171875,66.8658390045166L44.58074951171875,66.8658390045166Q44.48225811171875,66.8658390045166,44.38565951171875,66.8850540045166Q44.28906051171875,66.9042690045166,44.19806651171875,66.9419600045166Q44.10707151171875,66.9796510045166,44.02517951171875,67.0343690045166Q43.94328651171875,67.0890880045166,43.87364251171875,67.15873200451661Q43.80399851171875,67.2283760045166,43.74927951171875,67.3102690045166Q43.69456151171875,67.3921610045166,43.65687051171875,67.4831560045166Q43.61917951171875,67.5741500045166,43.59996451171875,67.67074900451661Q43.58074951171875,67.7673476045166,43.58074951171875,67.8658390045166L43.58074951171875,105.97563900451661Q43.58074951171875,106.07413900451661,43.59996451171875,106.1707390045166Q43.61917951171875,106.2673390045166,43.65687051171875,106.35833900451661Q43.69456151171875,106.4493390045166,43.74927951171875,106.5312390045166Q43.80399851171875,106.6131390045166,43.87364251171875,106.6827390045166Q43.94328651171875,106.7524390045166,44.02517951171875,106.8071390045166Q44.10707151171875,106.86183900451661,44.19806651171875,106.89953900451661Q44.28906051171875,106.9372390045166,44.38565951171875,106.9564390045166Q44.48225811171875,106.97563900451661,44.58074951171875,106.97563900451661L68.92884951171875,106.97563900451661Q68.98744951171875,106.97563900451661,68.98744951171875,107.03423900451659Q68.98744951171875,108.32503900451661,69.90074951171874,109.2382390045166Q70.81394951171875,110.1515390045166,72.10474951171875,110.1515390045166L76.33914951171874,110.1515390045166Q77.62994951171875,110.1515390045166,78.54314951171875,109.2382390045166Q79.45634951171874,108.32503900451661,79.45634951171874,107.03423900451659Q79.45634951171874,106.97563900451661,79.51504951171876,106.97563900451661L103.86314951171875,106.97563900451661Q103.96164951171875,106.97563900451661,104.05824951171874,106.9564390045166Q104.15484951171875,106.9372390045166,104.24584951171875,106.89953900451661Q104.33684951171875,106.86183900451661,104.41864951171874,106.8071390045166Q104.50054951171876,106.7524390045166,104.57024951171874,106.6827390045166Q104.63984951171875,106.6131390045166,104.69454951171875,106.5312390045166Q104.74934951171875,106.4493390045166,104.78704951171875,106.35833900451661Q104.82464951171875,106.2673390045166,104.84394951171875,106.1707390045166Q104.86314951171875,106.07413900451661,104.86314951171875,105.97563900451661L104.86314951171875,67.8658390045166Q104.86314951171875,67.7673476045166,104.84394951171875,67.67074900451661Q104.82464951171875,67.5741500045166,104.78704951171875,67.4831560045166Q104.74934951171875,67.3921610045166,104.69454951171875,67.3102690045166Q104.63984951171875,67.2283760045166,104.57024951171874,67.15873200451661Q104.50054951171876,67.0890880045166,104.41864951171874,67.0343690045166Q104.33684951171875,66.9796510045166,104.24584951171875,66.9419600045166Q104.15484951171875,66.9042690045166,104.05824951171874,66.8850540045166Q103.96164951171875,66.8658390045166,103.86314951171875,66.8658390045166L99.62864951171875,66.8658390045166L99.62864951171875,68.8658390045166L102.86314951171875,68.8658390045166L102.86314951171875,104.97563900451661L79.51504951171876,104.97563900451661Q77.45634951171874,104.97563900451661,77.45634951171874,107.03423900451659Q77.45634951171874,108.1515390045166,76.33914951171874,108.1515390045166L72.10474951171875,108.1515390045166Q70.98744951171875,108.1515390045166,70.98744951171875,107.03423900451659Q70.98744951171875,104.97563900451661,68.92884951171875,104.97563900451661L45.58074951171875,104.97563900451661L45.58074951171875,68.8658390045166Z" fill-rule="evenodd" fill="#5C2D25" fill-opacity="1" style="mix-blend-mode:passthrough"/></g><g><path d="M74.22195972900391,66.38454033676148Q65.6728597290039,57.338380336761475,53.049659729003906,57.338380336761475Q52.951168329003906,57.338380336761475,52.854569729003906,57.35759533676148Q52.75797072900391,57.37681033676147,52.666976729003906,57.414501336761475Q52.57598172900391,57.45219233676148,52.4940897290039,57.50691033676147Q52.41219672900391,57.56162933676148,52.342552729003906,57.631273336761474Q52.27290872900391,57.70091733676148,52.2181897290039,57.78281033676147Q52.16347172900391,57.864702336761475,52.12578072900391,57.955697336761475Q52.088089729003904,58.04669133676148,52.06887472900391,58.143290336761474Q52.049659729003906,58.239888936761474,52.049659729003906,58.338380336761475L52.049659729003906,94.33098033676148Q52.049659729003906,94.42948033676147,52.06887472900391,94.52608033676148Q52.08808872900391,94.62268033676148,52.12577972900391,94.71368033676148Q52.163470729003905,94.80468033676146,52.2181897290039,94.88658033676148Q52.27290872900391,94.96848033676147,52.34255172900391,95.03808033676148Q52.412195729003905,95.10778033676146,52.494088729003906,95.16248033676148Q52.57598072900391,95.21718033676147,52.666974729003904,95.25488033676147Q52.757968729003906,95.29258033676147,52.854567729003904,95.31178033676147Q52.95116602900391,95.33098033676148,53.049657185873905,95.33098033676148Q65.3312597290039,95.33098033676148,73.4734597290039,104.52158033676147Q73.5135597290039,104.56688033676147,73.5588597290039,104.60698033676147Q73.6325597290039,104.67228033676147,73.71755972900391,104.72198033676148Q73.8026597290039,104.77168033676148,73.89575972900391,104.80378033676148Q73.9888597290039,104.83588033676148,74.0864597290039,104.84928033676147Q74.1839597290039,104.86258033676148,74.2823597290039,104.85668033676149Q74.38065972900391,104.85068033676149,74.4758597290039,104.82568033676148Q74.57115972900391,104.80068033676147,74.6596597290039,104.75758033676146Q74.7482597290039,104.71448033676148,74.82665972900391,104.65488033676147Q74.90515972900391,104.59528033676148,74.9704597290039,104.52158033676147Q83.1125597290039,95.33098033676148,95.3942597290039,95.33098033676148Q95.4926597290039,95.33098033676148,95.58925972900391,95.31178033676147Q95.68585972900391,95.29258033676147,95.77685972900392,95.25488033676147Q95.8678597290039,95.21718033676147,95.94975972900392,95.16248033676148Q96.0316597290039,95.10778033676146,96.1013597290039,95.03808033676148Q96.1709597290039,94.96848033676147,96.22565972900391,94.88658033676148Q96.2803597290039,94.80468033676146,96.3180597290039,94.71368033676148Q96.3557597290039,94.62268033676148,96.3749597290039,94.52608033676148Q96.3942597290039,94.42948033676147,96.3942597290039,94.33098033676148L96.3942597290039,58.338380336761475Q96.3942597290039,58.239888936761474,96.3749597290039,58.143290336761474Q96.3557597290039,58.04669133676148,96.3180597290039,57.955697336761475Q96.2803597290039,57.864702336761475,96.22565972900391,57.78281033676147Q96.1709597290039,57.70091733676148,96.1013597290039,57.631273336761474Q96.0316597290039,57.56162933676148,95.94975972900392,57.50691033676147Q95.8678597290039,57.45219233676148,95.77685972900392,57.414501336761475Q95.68585972900391,57.37681033676147,95.58925972900391,57.35759533676148Q95.4926597290039,57.338380336761475,95.3942597290039,57.338380336761475Q82.7709597290039,57.338380336761475,74.22195972900391,66.38454033676148ZM54.049659729003906,59.353830336761476L54.049659729003906,93.34538033676148Q66.0136597290039,93.69168033676146,74.22195972900391,102.37718033676148Q82.4301597290039,93.69168033676146,94.3942597290039,93.34538033676148L94.3942597290039,59.353830336761476Q82.7788597290039,59.71514033676147,74.9704597290039,68.52898033676148Q74.93035972900391,68.57428033676148,74.8850597290039,68.61438033676147Q74.7361597290039,68.74628033676147,74.54815972900391,68.81118033676148Q74.36015972900391,68.87598033676147,74.1615597290039,68.86398033676147Q73.9630597290039,68.85198033676147,73.7841597290039,68.76498033676148Q73.60535972900391,68.67788033676148,73.4734597290039,68.52898033676148Q65.6650597290039,59.71514033676147,54.049659729003906,59.353830336761476Z" fill-rule="evenodd" fill="#5C2D25" fill-opacity="1" style="mix-blend-mode:passthrough"/></g><g><path d="M99.62870462036133,62.63141202926636Q97.32780462036132,62.63141202926636,95.31920462036132,62.78243202926636L95.46920462036132,64.77680202926636Q96.96190462036134,64.66457202926635,98.62870462036133,64.63897202926636L98.62870462036133,98.63151202926636Q85.91440462036132,98.82061202926636,74.22190462036133,103.82771202926637Q62.52950462036133,98.82061202926636,49.81520462036133,98.63151202926636L49.81520462036133,64.63897202926636Q51.481964620361325,64.66457202926635,52.97468462036133,64.77680202926636L53.12463462036133,62.78243202926636Q51.11606462036133,62.63141202926636,48.81520462036133,62.63141202926636Q48.71671322036133,62.63141202926636,48.62011462036133,62.65062702926636Q48.52351562036133,62.669842029266356,48.43252162036133,62.70753302926636Q48.34152662036133,62.74522402926636,48.259634620361325,62.799942029266354Q48.17774162036133,62.85466102926636,48.10809762036133,62.92430502926636Q48.03845362036133,62.99394902926636,47.983734620361325,63.075842029266354Q47.92901662036133,63.15773402926636,47.89132562036133,63.24872902926636Q47.853634620361326,63.33972302926636,47.83441962036133,63.43632202926636Q47.81520462036133,63.53292062926636,47.81520462036133,63.63141202926636L47.81520462036133,99.62401202926637Q47.81520462036133,99.72251202926635,47.83441962036133,99.81911202926636Q47.853634620361326,99.91571202926636,47.89132562036133,100.00671202926637Q47.92901662036133,100.09771202926635,47.98373562036133,100.17961202926637Q48.038455620361326,100.26151202926636,48.10809962036133,100.33111202926636Q48.177743620361326,100.40081202926635,48.25963662036133,100.45551202926636Q48.34152962036133,100.51021202926636,48.43252462036133,100.54791202926636Q48.52351862036133,100.58561202926636,48.620118620361325,100.60481202926636Q48.716717820361325,100.62401202926637,48.81520970662133,100.62401202926637Q61.87150462036133,100.62401202926637,73.82230462036134,105.83371202926637Q74.01340462036133,105.91711202926635,74.22190462036133,105.91711202926635Q74.43040462036133,105.91711202926635,74.62150462036132,105.83371202926637Q86.57230462036134,100.62401202926637,99.62870462036133,100.62401202926637Q99.72710462036133,100.62401202926637,99.82370462036133,100.60481202926636Q99.92030462036132,100.58561202926636,100.01130462036133,100.54791202926636Q100.10230462036134,100.51021202926636,100.18420462036133,100.45551202926636Q100.26610462036132,100.40081202926635,100.33580462036133,100.33111202926636Q100.40540462036134,100.26151202926636,100.46010462036134,100.17961202926637Q100.51480462036133,100.09771202926635,100.55250462036133,100.00671202926637Q100.59020462036133,99.91571202926636,100.60940462036132,99.81911202926636Q100.62870462036133,99.72251202926635,100.62870462036133,99.62401202926637L100.62870462036133,63.63141202926636Q100.62870462036133,63.53292062926636,100.60940462036132,63.43632202926636Q100.59020462036133,63.33972302926636,100.55250462036133,63.24872902926636Q100.51480462036133,63.15773402926636,100.46010462036134,63.075842029266354Q100.40540462036134,62.99394902926636,100.33580462036133,62.92430502926636Q100.26610462036132,62.85466102926636,100.18420462036133,62.799942029266354Q100.10230462036134,62.74522402926636,100.01130462036133,62.70753302926636Q99.92030462036132,62.669842029266356,99.82370462036133,62.65062702926636Q99.72710462036133,62.63141202926636,99.62870462036133,62.63141202926636Z" fill-rule="evenodd" fill="#5C2D25" fill-opacity="1" style="mix-blend-mode:passthrough"/></g><g transform="matrix(0,1,-1,0,141.58715724945068,-5.306427955627441)"><line x1="73.44679260253906" y1="67.14036464691162" x2="109.06625366210938" y2="67.14036464691162" fill-opacity="0" stroke-opacity="1" stroke="#5C2D25" fill="none" stroke-width="2" stroke-linejoin="round" style="mix-blend-mode:passthrough"/></g><g><path d="M88.85639038085938,65.27422582885742Q82.90139038085937,66.40218882885742,77.89348238085938,69.81286582885743L79.01929838085937,71.46590582885742Q83.68290038085938,68.28972582885743,89.22859038085937,67.23928582885742L88.85639038085938,65.27422582885742Z" fill-rule="evenodd" fill="#5C2D25" fill-opacity="1" style="mix-blend-mode:passthrough"/></g><g><path d="M59.21523734564209,67.23928582885742Q64.76098334564209,68.28972582885743,69.42454334564209,71.46590582885742L70.55034334564209,69.81286582885743Q65.5424833456421,66.40219082885743,59.58744634564209,65.27422582885742L59.21523734564209,67.23928582885742Z" fill-rule="evenodd" fill="#5C2D25" fill-opacity="1" style="mix-blend-mode:passthrough"/></g><g><path d="M88.85639038085938,70.53550302764893Q82.90139038085937,71.66346602764892,77.89348238085938,75.07414302764893L79.01929838085937,76.72718302764892Q83.68290038085938,73.55100302764893,89.22859038085937,72.50056302764892L88.85639038085938,70.53550302764893Z" fill-rule="evenodd" fill="#5C2D25" fill-opacity="1" style="mix-blend-mode:passthrough"/></g><g><path d="M59.21523734564209,72.50056302764892Q64.76098334564209,73.55100302764893,69.42454334564209,76.72718302764892L70.55034334564209,75.07414302764893Q65.5424833456421,71.66346802764893,59.58744634564209,70.53550302764893L59.21523734564209,72.50056302764892Z" fill-rule="evenodd" fill="#5C2D25" fill-opacity="1" style="mix-blend-mode:passthrough"/></g><g><path d="M88.85639038085938,75.79677641174317Q82.90139038085937,76.92473941174316,77.89348238085938,80.33541641174317L79.01929838085937,81.98845641174316Q83.68290038085938,78.81227641174317,89.22859038085937,77.76183641174316L88.85639038085938,75.79677641174317Z" fill-rule="evenodd" fill="#5C2D25" fill-opacity="1" style="mix-blend-mode:passthrough"/></g><g><path d="M59.21523734564209,77.76183641174316Q64.76098334564209,78.81227641174317,69.42454334564209,81.98845641174316L70.55034334564209,80.33541641174317Q65.5424833456421,76.92474141174317,59.58744634564209,75.79677641174317L59.21523734564209,77.76183641174316Z" fill-rule="evenodd" fill="#5C2D25" fill-opacity="1" style="mix-blend-mode:passthrough"/></g><g><path d="M88.85639038085938,81.05805074951172Q82.90139038085937,82.18601374951172,77.89348238085938,85.59669074951172L79.01929838085937,87.24973074951171Q83.68290038085938,84.07355074951172,89.22859038085937,83.02311074951172L88.85639038085938,81.05805074951172Z" fill-rule="evenodd" fill="#5C2D25" fill-opacity="1" style="mix-blend-mode:passthrough"/></g><g><path d="M59.21523734564209,83.02311074951172Q64.76098334564209,84.07355074951172,69.42454334564209,87.24973074951171L70.55034334564209,85.59669074951172Q65.5424833456421,82.18601574951172,59.58744634564209,81.05805074951172L59.21523734564209,83.02311074951172Z" fill-rule="evenodd" fill="#5C2D25" fill-opacity="1" style="mix-blend-mode:passthrough"/></g><g><path d="M88.85639038085938,86.31932699462891Q82.90139038085937,87.4472899946289,77.89348238085938,90.85796699462891L79.01929838085937,92.5110069946289Q83.68290038085938,89.33482699462891,89.22859038085937,88.2843869946289L88.85639038085938,86.31932699462891Z" fill-rule="evenodd" fill="#5C2D25" fill-opacity="1" style="mix-blend-mode:passthrough"/></g><g><path d="M59.21523734564209,88.2843869946289Q64.76098334564209,89.33482699462891,69.42454334564209,92.5110069946289L70.55034334564209,90.85796699462891Q65.5424833456421,87.44729199462891,59.58744634564209,86.31932699462891L59.21523734564209,88.2843869946289Z" fill-rule="evenodd" fill="#5C2D25" fill-opacity="1" style="mix-blend-mode:passthrough"/></g></g><g><path d="M82.14074951171875,31.82276953125Q79.98474951171875,31.82276953125,78.17874951171875,31.03876953125Q76.37274951171875,30.25476953125,75.47674951171875,29.05076953125L75.84074951171876,28.68676953125Q76.65274951171875,29.77876953125,78.33274951171875,30.53476953125Q80.01274951171875,31.29076953125,82.14074951171875,31.29076953125Q85.16474951171875,31.29076953125,86.63474951171875,29.86276953125Q88.10474951171875,28.43476953125,88.10474951171875,26.25076953125Q88.10474951171875,24.65476953125,87.39074951171875,23.50676953125Q86.67674951171875,22.358769531249997,84.99674951171875,21.75676953125Q83.31674951171875,21.15476953125,80.40474951171875,21.15476953125L76.70874951171875,21.15476953125L77.74474951171875,12.13876953125L87.68474951171875,12.13876953125L87.68474951171875,12.67076953125L78.05274951171874,12.67076953125L78.24874951171876,12.44676953125L77.26874951171875,20.90276953125L77.10074951171875,20.62276953125L80.51674951171876,20.62276953125Q83.54074951171876,20.62276953125,85.31874951171875,21.30876953125Q87.09674951171876,21.99476953125,87.88074951171875,23.25476953125Q88.66474951171875,24.51476953125,88.66474951171875,26.25076953125Q88.66474951171875,27.81876953125,87.93674951171874,29.09276953125Q87.20874951171875,30.36676953125,85.76674951171876,31.09476953125Q84.32474951171875,31.82276953125,82.14074951171875,31.82276953125Z" fill="#5C2D25" fill-opacity="1" style="mix-blend-mode:passthrough"/></g></g></g></g></svg>