<svg xmlns="http://www.w3.org/2000/svg" xmlns:xlink="http://www.w3.org/1999/xlink" fill="none" version="1.1" width="101.35369873046875" height="111.16015625" viewBox="0 0 101.35369873046875 111.16015625"><defs><filter id="master_svg0_0_4393" filterUnits="objectBoundingBox" color-interpolation-filters="sRGB" x="-0.75" y="-0.32142857142857145" width="2.5" height="1.8571428571428572"><feFlood flood-opacity="0" result="BackgroundImageFix"/><feColorMatrix in="SourceAlpha" type="matrix" values="0 0 0 0 0 0 0 0 0 0 0 0 0 0 0 0 0 0 127 0"/><feOffset dy="3" dx="0"/><feGaussianBlur stdDeviation="3"/><feColorMatrix type="matrix" values="0 0 0 0 0 0 0 0 0 0 0 0 0 0 0 0 0 0 0.16078431904315948 0"/><feBlend mode="normal" in2="BackgroundImageFix" result="effect1_dropShadow"/><feBlend mode="normal" in="SourceGraphic" in2="effect1_dropShadow" result="shape"/></filter><filter id="master_svg1_0_4395" filterUnits="objectBoundingBox" color-interpolation-filters="sRGB" x="-0.14396477766044605" y="-0.12250237367249063" width="1.287929555320892" height="1.326672996459975"><feFlood flood-opacity="0" result="BackgroundImageFix"/><feColorMatrix in="SourceAlpha" type="matrix" values="0 0 0 0 0 0 0 0 0 0 0 0 0 0 0 0 0 0 127 0"/><feOffset dy="3" dx="0"/><feGaussianBlur stdDeviation="3"/><feColorMatrix type="matrix" values="0 0 0 0 0 0 0 0 0 0 0 0 0 0 0 0 0 0 0.16078431904315948 0"/><feBlend mode="normal" in2="BackgroundImageFix" result="effect1_dropShadow"/><feBlend mode="normal" in="SourceGraphic" in2="effect1_dropShadow" result="shape"/></filter></defs><g><g filter="url(#master_svg0_0_4393)"><path d="M34.87978125,29.68408203125L34.87978125,29.26408203125L43.36378125,20.66808203125Q44.62378125,19.40808203125,45.26778125,18.45608203125Q45.911781250000004,17.50408203125,46.13578125,16.67808203125Q46.35978125,15.85208203125,46.35978125,15.04008203125Q46.35978125,12.968082031249999,44.95978125,11.750082031249999Q43.55978125,10.532082031249999,40.899781250000004,10.532082031249999Q38.88378125,10.532082031249999,37.399781250000004,11.12008203125Q35.91578125,11.708082031250001,34.85178125,12.91208203125L34.45978125,12.52008203125Q35.55178125,11.28808203125,37.16178125,10.64408203125Q38.771781250000004,10.000082031249999,40.899781250000004,10.000082031249999Q42.74778125,10.000082031249999,44.10578125,10.60208203125Q45.46378125,11.20408203125,46.19178125,12.32408203125Q46.91978125,13.44408203125,46.91978125,15.01208203125Q46.91978125,15.93608203125,46.65378125,16.83208203125Q46.38778125,17.72808203125,45.71578125,18.73608203125Q45.04378125,19.744082031250002,43.75578125,21.03208203125L35.52378125,29.37608203125L35.18778125,29.15208203125L47.98378125,29.15208203125L47.98378125,29.68408203125L34.87978125,29.68408203125Z" fill="#874FFF" fill-opacity="1" style="mix-blend-mode:passthrough"/><path d="M34.87978125,29.68408203125L34.87978125,29.26408203125L43.36378125,20.66808203125Q44.62378125,19.40808203125,45.26778125,18.45608203125Q45.911781250000004,17.50408203125,46.13578125,16.67808203125Q46.35978125,15.85208203125,46.35978125,15.04008203125Q46.35978125,12.968082031249999,44.95978125,11.750082031249999Q43.55978125,10.532082031249999,40.899781250000004,10.532082031249999Q38.88378125,10.532082031249999,37.399781250000004,11.12008203125Q35.91578125,11.708082031250001,34.85178125,12.91208203125L34.45978125,12.52008203125Q35.55178125,11.28808203125,37.16178125,10.64408203125Q38.771781250000004,10.000082031249999,40.899781250000004,10.000082031249999Q42.74778125,10.000082031249999,44.10578125,10.60208203125Q45.46378125,11.20408203125,46.19178125,12.32408203125Q46.91978125,13.44408203125,46.91978125,15.01208203125Q46.91978125,15.93608203125,46.65378125,16.83208203125Q46.38778125,17.72808203125,45.71578125,18.73608203125Q45.04378125,19.744082031250002,43.75578125,21.03208203125L35.52378125,29.37608203125L35.18778125,29.15208203125L47.98378125,29.15208203125L47.98378125,29.68408203125L34.87978125,29.68408203125Z" fill-opacity="0" stroke-opacity="1" stroke="#68FE7F" fill="none" stroke-width="8" style="mix-blend-mode:passthrough"/></g><g><path d="M34.41103125,29.68408203125L34.41103125,29.26408203125L42.89503125,20.66808203125Q44.15503125,19.40808203125,44.79903125,18.45608203125Q45.443031250000004,17.50408203125,45.66703125,16.67808203125Q45.89103125,15.85208203125,45.89103125,15.04008203125Q45.89103125,12.968082031249999,44.49103125,11.750082031249999Q43.09103125,10.532082031249999,40.431031250000004,10.532082031249999Q38.41503125,10.532082031249999,36.931031250000004,11.12008203125Q35.44703125,11.708082031250001,34.38303125,12.91208203125L33.99103125,12.52008203125Q35.08303125,11.28808203125,36.69303125,10.64408203125Q38.303031250000004,10.000082031249999,40.431031250000004,10.000082031249999Q42.27903125,10.000082031249999,43.63703125,10.60208203125Q44.99503125,11.20408203125,45.72303125,12.32408203125Q46.45103125,13.44408203125,46.45103125,15.01208203125Q46.45103125,15.93608203125,46.18503125,16.83208203125Q45.91903125,17.72808203125,45.24703125,18.73608203125Q44.57503125,19.744082031250002,43.28703125,21.03208203125L35.05503125,29.37608203125L34.71903125,29.15208203125L47.51503125,29.15208203125L47.51503125,29.68408203125L34.41103125,29.68408203125Z" fill="#000000" fill-opacity="1" style="mix-blend-mode:passthrough"/></g><g filter="url(#master_svg1_0_4395)"><path d="M16.0957,39.30129453125L17.84473,45.82869453125L17.843400000000003,45.82909453125C16.12062,46.15459453125,14.41825,46.55629453125,12.7168,47.01219453125L14.07719,52.089294531250005L9,53.44969453125L21.2481,99.16019453125L50.4522,91.33499453125C51.1543,91.14679453125,51.8743,91.56359453125,52.0621,92.26449453125C52.4378,93.66619453125,53.8803,94.49909453125,55.2821,94.12349453125L60.3611,92.76259453125C61.7629,92.38699453125,62.5957,90.94439453125,62.2201,89.54259453125C62.0323,88.84179453125,62.4474,88.12079453125,63.1496,87.93269453125001L92.3537,80.10749453125L80.1056,34.39700453125L75.0267,35.75789453125L75.0249,35.75839453125L73.6645,30.68132453125C71.96350000000001,31.13710453125,70.28880000000001,31.64025453125,68.6344,32.21953453125L66.8854,25.69219875325C59.631,27.63603453125,53.2573,31.83252453125,48.6247,37.58119453125L37.8545,40.46709453125C30.9682,37.80489453125,23.3502,37.35739453125,16.0957,39.30129453125Z" fill-rule="evenodd" fill="#68FE7F" fill-opacity="1" style="mix-blend-mode:passthrough"/></g><g transform="matrix(0.9659258127212524,-0.258819043636322,0.258819043636322,0.9659258127212524,-11.467987936543068,5.459364823473152)"><g><path d="M16,56.8111515045166L19.23446,56.8111515045166L19.23446,54.8111515045166L15,54.8111515045166Q14.9015086,54.8111515045166,14.80491,54.830366504516604Q14.708311,54.8495815045166,14.617317,54.8872725045166Q14.526322,54.924963504516604,14.44443,54.9796815045166Q14.362537,55.034400504516604,14.292893,55.1040445045166Q14.223249,55.173688504516605,14.16853,55.2555815045166Q14.113812,55.3374735045166,14.076121,55.4284685045166Q14.03843,55.5194625045166,14.019214999999999,55.6160615045166Q14,55.7126601045166,14,55.8111515045166L14,93.92095150451661Q14,94.01945150451661,14.019214999999999,94.1160515045166Q14.03843,94.2126515045166,14.076121,94.30365150451661Q14.113812,94.3946515045166,14.16853,94.4765515045166Q14.223249,94.5584515045166,14.292893,94.6280515045166Q14.362537,94.6977515045166,14.44443,94.7524515045166Q14.526322,94.80715150451661,14.617317,94.84485150451661Q14.708311,94.8825515045166,14.80491,94.9017515045166Q14.9015086,94.92095150451661,15,94.92095150451661L39.3481,94.92095150451661Q39.4067,94.92095150451661,39.4067,94.97955150451659Q39.4067,96.27035150451661,40.32,97.1835515045166Q41.2332,98.0968515045166,42.524,98.0968515045166L46.7584,98.0968515045166Q48.0492,98.0968515045166,48.9624,97.1835515045166Q49.8756,96.27035150451661,49.8756,94.97955150451659Q49.8756,94.92095150451661,49.9343,94.92095150451661L74.2824,94.92095150451661Q74.3809,94.92095150451661,74.47749999999999,94.9017515045166Q74.5741,94.8825515045166,74.6651,94.84485150451661Q74.7561,94.80715150451661,74.83789999999999,94.7524515045166Q74.91980000000001,94.6977515045166,74.98949999999999,94.6280515045166Q75.0591,94.5584515045166,75.1138,94.4765515045166Q75.1686,94.3946515045166,75.2063,94.30365150451661Q75.2439,94.2126515045166,75.2632,94.1160515045166Q75.2824,94.01945150451661,75.2824,93.92095150451661L75.2824,55.8111515045166Q75.2824,55.7126601045166,75.2632,55.6160615045166Q75.2439,55.5194625045166,75.2063,55.4284685045166Q75.1686,55.3374735045166,75.1138,55.2555815045166Q75.0591,55.173688504516605,74.98949999999999,55.1040445045166Q74.91980000000001,55.034400504516604,74.83789999999999,54.9796815045166Q74.7561,54.924963504516604,74.6651,54.8872725045166Q74.5741,54.8495815045166,74.47749999999999,54.830366504516604Q74.3809,54.8111515045166,74.2824,54.8111515045166L70.0479,54.8111515045166L70.0479,56.8111515045166L73.2824,56.8111515045166L73.2824,92.92095150451661L49.9343,92.92095150451661Q47.8756,92.92095150451661,47.8756,94.97955150451659Q47.8756,96.0968515045166,46.7584,96.0968515045166L42.524,96.0968515045166Q41.4067,96.0968515045166,41.4067,94.97955150451659Q41.4067,92.92095150451661,39.3481,92.92095150451661L16,92.92095150451661L16,56.8111515045166Z" fill-rule="evenodd" fill="#000000" fill-opacity="1" style="mix-blend-mode:passthrough"/></g><g><path d="M44.641210217285156,54.329852836761475Q36.09211021728515,45.283692836761475,23.468910217285156,45.283692836761475Q23.370418817285156,45.283692836761475,23.273820217285156,45.30290783676148Q23.177221217285155,45.32212283676147,23.086227217285156,45.359813836761475Q22.995232217285157,45.39750483676148,22.913340217285157,45.45222283676147Q22.831447217285156,45.50694183676148,22.761803217285156,45.576585836761474Q22.692159217285155,45.64622983676148,22.637440217285157,45.72812283676147Q22.582722217285156,45.810014836761475,22.545031217285157,45.901009836761475Q22.507340217285154,45.99200383676148,22.488125217285155,46.088602836761474Q22.468910217285156,46.185201436761474,22.468910217285156,46.283692836761475L22.468910217285156,82.27629283676148Q22.468910217285156,82.37479283676147,22.488125217285155,82.47139283676148Q22.507339217285157,82.56799283676148,22.545030217285156,82.65899283676148Q22.582721217285155,82.74999283676146,22.637440217285157,82.83189283676148Q22.692159217285155,82.91379283676147,22.761802217285155,82.98339283676148Q22.831446217285155,83.05309283676146,22.913339217285156,83.10779283676148Q22.995231217285156,83.16249283676147,23.086225217285158,83.20019283676147Q23.177219217285156,83.23789283676147,23.273818217285157,83.25709283676147Q23.370416517285157,83.27629283676148,23.468907674155155,83.27629283676148Q35.750510217285154,83.27629283676148,43.892710217285156,92.46689283676147Q43.93281021728515,92.51219283676147,43.978110217285156,92.55229283676147Q44.05181021728515,92.61759283676147,44.13681021728516,92.66729283676148Q44.221910217285156,92.71699283676148,44.315010217285156,92.74909283676148Q44.408110217285156,92.78119283676148,44.505710217285156,92.79459283676147Q44.60321021728515,92.80789283676148,44.70161021728516,92.80199283676149Q44.79991021728516,92.79599283676149,44.89511021728516,92.77099283676148Q44.99041021728516,92.74599283676147,45.078910217285156,92.70289283676146Q45.167510217285155,92.65979283676148,45.24591021728516,92.60019283676147Q45.324410217285156,92.54059283676148,45.389710217285156,92.46689283676147Q53.531810217285155,83.27629283676148,65.81351021728516,83.27629283676148Q65.91191021728515,83.27629283676148,66.00851021728516,83.25709283676147Q66.10511021728516,83.23789283676147,66.19611021728517,83.20019283676147Q66.28711021728515,83.16249283676147,66.36901021728517,83.10779283676148Q66.45091021728516,83.05309283676146,66.52061021728515,82.98339283676148Q66.59021021728515,82.91379283676147,66.64491021728516,82.83189283676148Q66.69961021728516,82.74999283676146,66.73731021728516,82.65899283676148Q66.77501021728516,82.56799283676148,66.79421021728515,82.47139283676148Q66.81351021728516,82.37479283676147,66.81351021728516,82.27629283676148L66.81351021728516,46.283692836761475Q66.81351021728516,46.185201436761474,66.79421021728515,46.088602836761474Q66.77501021728516,45.99200383676148,66.73731021728516,45.901009836761475Q66.69961021728516,45.810014836761475,66.64491021728516,45.72812283676147Q66.59021021728515,45.64622983676148,66.52061021728515,45.576585836761474Q66.45091021728516,45.50694183676148,66.36901021728517,45.45222283676147Q66.28711021728515,45.39750483676148,66.19611021728517,45.359813836761475Q66.10511021728516,45.32212283676147,66.00851021728516,45.30290783676148Q65.91191021728515,45.283692836761475,65.81351021728516,45.283692836761475Q53.190210217285156,45.283692836761475,44.641210217285156,54.329852836761475ZM24.468910217285156,47.299142836761476L24.468910217285156,81.29069283676148Q36.432910217285155,81.63699283676146,44.641210217285156,90.32249283676148Q52.849410217285154,81.63699283676146,64.81351021728516,81.29069283676148L64.81351021728516,47.299142836761476Q53.198110217285155,47.66045283676147,45.389710217285156,56.47429283676148Q45.34961021728516,56.519592836761475,45.304310217285156,56.55969283676147Q45.15541021728515,56.69159283676147,44.967410217285156,56.756492836761474Q44.77941021728516,56.82129283676147,44.580810217285155,56.80929283676147Q44.38231021728515,56.79729283676147,44.20341021728515,56.710292836761475Q44.02461021728516,56.623192836761476,43.892710217285156,56.47429283676148Q36.08431021728516,47.66045283676147,24.468910217285156,47.299142836761476Z" fill-rule="evenodd" fill="#000000" fill-opacity="1" style="mix-blend-mode:passthrough"/></g><g><path d="M70.04795510864258,50.57672452926636Q67.74705510864257,50.57672452926636,65.73845510864257,50.72774452926636L65.88845510864257,52.722114529266356Q67.38115510864259,52.60988452926636,69.04795510864258,52.584284529266355L69.04795510864258,86.57682452926636Q56.33365510864258,86.76592452926636,44.64115510864258,91.77302452926637Q32.94875510864258,86.76592452926636,20.234455108642578,86.57682452926636L20.234455108642578,52.584284529266355Q21.901215108642578,52.60988452926636,23.39393510864258,52.722114529266356L23.543885108642577,50.72774452926636Q21.53531510864258,50.57672452926636,19.234455108642578,50.57672452926636Q19.135963708642578,50.57672452926636,19.039365108642578,50.59593952926636Q18.942766108642576,50.615154529266356,18.851772108642578,50.65284552926636Q18.76077710864258,50.69053652926636,18.67888510864258,50.745254529266354Q18.596992108642578,50.79997352926636,18.527348108642578,50.86961752926636Q18.457704108642577,50.93926152926636,18.40298510864258,51.021154529266354Q18.348267108642577,51.10304652926636,18.31057610864258,51.19404152926636Q18.272885108642576,51.28503552926636,18.253670108642577,51.38163452926636Q18.234455108642578,51.47823312926636,18.234455108642578,51.57672452926636L18.234455108642578,87.56932452926637Q18.234455108642578,87.66782452926635,18.253670108642577,87.76442452926636Q18.272885108642576,87.86102452926636,18.31057610864258,87.95202452926637Q18.348267108642577,88.04302452926635,18.40298610864258,88.12492452926637Q18.45770610864258,88.20682452926636,18.52735010864258,88.27642452926636Q18.596994108642576,88.34612452926635,18.678887108642577,88.40082452926636Q18.760780108642578,88.45552452926636,18.851775108642578,88.49322452926636Q18.94276910864258,88.53092452926636,19.03936910864258,88.55012452926636Q19.13596830864258,88.56932452926637,19.234460194902578,88.56932452926637Q32.29075510864258,88.56932452926637,44.24155510864258,93.77902452926637Q44.43265510864258,93.86242452926635,44.64115510864258,93.86242452926635Q44.84965510864258,93.86242452926635,45.04075510864258,93.77902452926637Q56.99155510864258,88.56932452926637,70.04795510864258,88.56932452926637Q70.14635510864258,88.56932452926637,70.24295510864258,88.55012452926636Q70.33955510864257,88.53092452926636,70.43055510864258,88.49322452926636Q70.52155510864259,88.45552452926636,70.60345510864258,88.40082452926636Q70.68535510864257,88.34612452926635,70.75505510864258,88.27642452926636Q70.82465510864259,88.20682452926636,70.87935510864259,88.12492452926637Q70.93405510864258,88.04302452926635,70.97175510864258,87.95202452926637Q71.00945510864258,87.86102452926636,71.02865510864257,87.76442452926636Q71.04795510864258,87.66782452926635,71.04795510864258,87.56932452926637L71.04795510864258,51.57672452926636Q71.04795510864258,51.47823312926636,71.02865510864257,51.38163452926636Q71.00945510864258,51.28503552926636,70.97175510864258,51.19404152926636Q70.93405510864258,51.10304652926636,70.87935510864259,51.021154529266354Q70.82465510864259,50.93926152926636,70.75505510864258,50.86961752926636Q70.68535510864257,50.79997352926636,70.60345510864258,50.745254529266354Q70.52155510864259,50.69053652926636,70.43055510864258,50.65284552926636Q70.33955510864257,50.615154529266356,70.24295510864258,50.59593952926636Q70.14635510864258,50.57672452926636,70.04795510864258,50.57672452926636Z" fill-rule="evenodd" fill="#000000" fill-opacity="1" style="mix-blend-mode:passthrough"/></g><g transform="matrix(0,1,-1,0,99.95172023773193,12.219634056091309)"><line x1="43.86604309082031" y1="55.08567714691162" x2="79.48550415039062" y2="55.08567714691162" fill-opacity="0" stroke-opacity="1" stroke="#000000" fill="none" stroke-width="2" stroke-linejoin="round" style="mix-blend-mode:passthrough"/></g><g><path d="M59.275640869140624,53.219538328857425Q53.320640869140625,54.34750132885742,48.312732869140625,57.75817832885742L49.438548869140625,59.41121832885742Q54.10215086914062,56.23503832885742,59.64784086914062,55.18459832885742L59.275640869140624,53.219538328857425Z" fill-rule="evenodd" fill="#000000" fill-opacity="1" style="mix-blend-mode:passthrough"/></g><g><path d="M29.63448783392334,55.18459832885742Q35.18023383392334,56.23503832885742,39.84379383392334,59.41121832885742L40.96959383392334,57.75817832885742Q35.96173383392334,54.34750332885742,30.00669683392334,53.219538328857425L29.63448783392334,55.18459832885742Z" fill-rule="evenodd" fill="#000000" fill-opacity="1" style="mix-blend-mode:passthrough"/></g><g><path d="M59.275640869140624,58.48081552764893Q53.320640869140625,59.60877852764892,48.312732869140625,63.01945552764892L49.438548869140625,64.67249552764892Q54.10215086914062,61.496315527648925,59.64784086914062,60.44587552764892L59.275640869140624,58.48081552764893Z" fill-rule="evenodd" fill="#000000" fill-opacity="1" style="mix-blend-mode:passthrough"/></g><g><path d="M29.63448783392334,60.44587552764892Q35.18023383392334,61.496315527648925,39.84379383392334,64.67249552764892L40.96959383392334,63.01945552764892Q35.96173383392334,59.608780527648925,30.00669683392334,58.48081552764893L29.63448783392334,60.44587552764892Z" fill-rule="evenodd" fill="#000000" fill-opacity="1" style="mix-blend-mode:passthrough"/></g><g><path d="M59.275640869140624,63.74208891174317Q53.320640869140625,64.87005191174316,48.312732869140625,68.28072891174317L49.438548869140625,69.93376891174316Q54.10215086914062,66.75758891174317,59.64784086914062,65.70714891174316L59.275640869140624,63.74208891174317Z" fill-rule="evenodd" fill="#000000" fill-opacity="1" style="mix-blend-mode:passthrough"/></g><g><path d="M29.63448783392334,65.70714891174316Q35.18023383392334,66.75758891174317,39.84379383392334,69.93376891174316L40.96959383392334,68.28072891174317Q35.96173383392334,64.87005391174317,30.00669683392334,63.74208891174317L29.63448783392334,65.70714891174316Z" fill-rule="evenodd" fill="#000000" fill-opacity="1" style="mix-blend-mode:passthrough"/></g><g><path d="M59.275640869140624,69.00336324951172Q53.320640869140625,70.13132624951172,48.312732869140625,73.54200324951172L49.438548869140625,75.19504324951171Q54.10215086914062,72.01886324951172,59.64784086914062,70.96842324951172L59.275640869140624,69.00336324951172Z" fill-rule="evenodd" fill="#000000" fill-opacity="1" style="mix-blend-mode:passthrough"/></g><g><path d="M29.63448783392334,70.96842324951172Q35.18023383392334,72.01886324951172,39.84379383392334,75.19504324951171L40.96959383392334,73.54200324951172Q35.96173383392334,70.13132824951172,30.00669683392334,69.00336324951172L29.63448783392334,70.96842324951172Z" fill-rule="evenodd" fill="#000000" fill-opacity="1" style="mix-blend-mode:passthrough"/></g><g><path d="M59.275640869140624,74.26463949462891Q53.320640869140625,75.3926024946289,48.312732869140625,78.80327949462891L49.438548869140625,80.4563194946289Q54.10215086914062,77.28013949462891,59.64784086914062,76.2296994946289L59.275640869140624,74.26463949462891Z" fill-rule="evenodd" fill="#000000" fill-opacity="1" style="mix-blend-mode:passthrough"/></g><g><path d="M29.63448783392334,76.2296994946289Q35.18023383392334,77.28013949462891,39.84379383392334,80.4563194946289L40.96959383392334,78.80327949462891Q35.96173383392334,75.39260449462891,30.00669683392334,74.26463949462891L29.63448783392334,76.2296994946289Z" fill-rule="evenodd" fill="#000000" fill-opacity="1" style="mix-blend-mode:passthrough"/></g></g></g></svg>