<svg xmlns="http://www.w3.org/2000/svg" xmlns:xlink="http://www.w3.org/1999/xlink" fill="none" version="1.1" width="101.35369873046875" height="121.076171875" viewBox="0 0 101.35369873046875 121.076171875"><defs><filter id="master_svg0_0_4476" filterUnits="objectBoundingBox" color-interpolation-filters="sRGB" x="-0.631578947368421" y="-0.32142857142857145" width="2.263157894736842" height="1.8571428571428572"><feFlood flood-opacity="0" result="BackgroundImageFix"/><feColorMatrix in="SourceAlpha" type="matrix" values="0 0 0 0 0 0 0 0 0 0 0 0 0 0 0 0 0 0 127 0"/><feOffset dy="3" dx="0"/><feGaussianBlur stdDeviation="3"/><feColorMatrix type="matrix" values="0 0 0 0 0 0 0 0 0 0 0 0 0 0 0 0 0 0 0.16078431904315948 0"/><feBlend mode="normal" in2="BackgroundImageFix" result="effect1_dropShadow"/><feBlend mode="normal" in="SourceGraphic" in2="effect1_dropShadow" result="shape"/></filter><filter id="master_svg1_0_4477" filterUnits="objectBoundingBox" color-interpolation-filters="sRGB" x="-0.14396477766044605" y="-0.12250237367249063" width="1.287929555320892" height="1.326672996459975"><feFlood flood-opacity="0" result="BackgroundImageFix"/><feColorMatrix in="SourceAlpha" type="matrix" values="0 0 0 0 0 0 0 0 0 0 0 0 0 0 0 0 0 0 127 0"/><feOffset dy="3" dx="0"/><feGaussianBlur stdDeviation="3"/><feColorMatrix type="matrix" values="0 0 0 0 0 0 0 0 0 0 0 0 0 0 0 0 0 0 0.16078431904315948 0"/><feBlend mode="normal" in2="BackgroundImageFix" result="effect1_dropShadow"/><feBlend mode="normal" in="SourceGraphic" in2="effect1_dropShadow" result="shape"/></filter></defs><g><g filter="url(#master_svg0_0_4476)"><path d="M46.788,23.77609765625L46.788,23.35609765625L57.82,10.00009765625L58.492000000000004,10.00009765625L47.46,23.35609765625L47.096000000000004,23.24409765625L63.056,23.24409765625L63.056,23.77609765625L46.788,23.77609765625ZM58.128,29.60009765625L58.128,23.77609765625L58.128,23.24409765625L58.128,18.12009765625L58.688,18.12009765625L58.688,29.60009765625L58.128,29.60009765625Z" fill="#68FE7F" fill-opacity="1" style="mix-blend-mode:passthrough"/><path d="M46.788,23.77609765625L46.788,23.35609765625L57.82,10.00009765625L58.492000000000004,10.00009765625L47.46,23.35609765625L47.096000000000004,23.24409765625L63.056,23.24409765625L63.056,23.77609765625L46.788,23.77609765625ZM58.128,29.60009765625L58.128,23.77609765625L58.128,23.24409765625L58.128,18.12009765625L58.688,18.12009765625L58.688,29.60009765625L58.128,29.60009765625Z" fill-opacity="0" stroke-opacity="1" stroke="#68FE7F" fill="none" stroke-width="8" style="mix-blend-mode:passthrough"/></g><g filter="url(#master_svg1_0_4477)"><path d="M16.0957,49.21731015625L17.84473,55.74471015625L17.843400000000003,55.74511015625C16.12062,56.07061015625,14.41825,56.47231015625,12.7168,56.92821015625L14.07719,62.005310156250005L9,63.36571015625L21.2481,109.07621015625L50.4522,101.25101015625C51.1543,101.06281015625,51.8743,101.47961015625,52.0621,102.18051015625C52.4378,103.58221015625,53.8803,104.41511015625,55.2821,104.03951015625L60.3611,102.67861015625C61.7629,102.30301015625,62.5957,100.86041015625,62.2201,99.45861015625C62.0323,98.75781015625,62.4474,98.03681015625,63.1496,97.84871015625001L92.3537,90.02351015625L80.1056,44.31302015625L75.0267,45.67391015625L75.0249,45.67441015625L73.6645,40.59734015625C71.96350000000001,41.05312015625,70.28880000000001,41.55627015625,68.6344,42.13555015625L66.8854,35.60821437825C59.631,37.55205015625,53.2573,41.74854015625,48.6247,47.49721015625L37.8545,50.38311015625C30.9682,47.72091015625,23.3502,47.27341015625,16.0957,49.21731015625Z" fill-rule="evenodd" fill="#68FE7F" fill-opacity="1" style="mix-blend-mode:passthrough"/></g><g transform="matrix(0.9659258127212524,-0.258819043636322,0.258819043636322,0.9659258127212524,-14.034441617288394,5.797244996938389)"><g><path d="M16,66.7271671295166L19.23446,66.7271671295166L19.23446,64.7271671295166L15,64.7271671295166Q14.9015086,64.7271671295166,14.80491,64.7463821295166Q14.708311,64.7655971295166,14.617317,64.8032881295166Q14.526322,64.8409791295166,14.44443,64.8956971295166Q14.362537,64.9504161295166,14.292893,65.02006012951661Q14.223249,65.0897041295166,14.16853,65.1715971295166Q14.113812,65.2534891295166,14.076121,65.3444841295166Q14.03843,65.4354781295166,14.019214999999999,65.53207712951661Q14,65.6286757295166,14,65.7271671295166L14,103.83696712951661Q14,103.93546712951661,14.019214999999999,104.0320671295166Q14.03843,104.1286671295166,14.076121,104.21966712951661Q14.113812,104.3106671295166,14.16853,104.3925671295166Q14.223249,104.4744671295166,14.292893,104.5440671295166Q14.362537,104.6137671295166,14.44443,104.6684671295166Q14.526322,104.72316712951661,14.617317,104.76086712951661Q14.708311,104.7985671295166,14.80491,104.8177671295166Q14.9015086,104.83696712951661,15,104.83696712951661L39.3481,104.83696712951661Q39.4067,104.83696712951661,39.4067,104.89556712951659Q39.4067,106.18636712951661,40.32,107.0995671295166Q41.2332,108.0128671295166,42.524,108.0128671295166L46.7584,108.0128671295166Q48.0492,108.0128671295166,48.9624,107.0995671295166Q49.8756,106.18636712951661,49.8756,104.89556712951659Q49.8756,104.83696712951661,49.9343,104.83696712951661L74.2824,104.83696712951661Q74.3809,104.83696712951661,74.47749999999999,104.8177671295166Q74.5741,104.7985671295166,74.6651,104.76086712951661Q74.7561,104.72316712951661,74.83789999999999,104.6684671295166Q74.91980000000001,104.6137671295166,74.98949999999999,104.5440671295166Q75.0591,104.4744671295166,75.1138,104.3925671295166Q75.1686,104.3106671295166,75.2063,104.21966712951661Q75.2439,104.1286671295166,75.2632,104.0320671295166Q75.2824,103.93546712951661,75.2824,103.83696712951661L75.2824,65.7271671295166Q75.2824,65.6286757295166,75.2632,65.53207712951661Q75.2439,65.4354781295166,75.2063,65.3444841295166Q75.1686,65.2534891295166,75.1138,65.1715971295166Q75.0591,65.0897041295166,74.98949999999999,65.02006012951661Q74.91980000000001,64.9504161295166,74.83789999999999,64.8956971295166Q74.7561,64.8409791295166,74.6651,64.8032881295166Q74.5741,64.7655971295166,74.47749999999999,64.7463821295166Q74.3809,64.7271671295166,74.2824,64.7271671295166L70.0479,64.7271671295166L70.0479,66.7271671295166L73.2824,66.7271671295166L73.2824,102.83696712951661L49.9343,102.83696712951661Q47.8756,102.83696712951661,47.8756,104.89556712951659Q47.8756,106.0128671295166,46.7584,106.0128671295166L42.524,106.0128671295166Q41.4067,106.0128671295166,41.4067,104.89556712951659Q41.4067,102.83696712951661,39.3481,102.83696712951661L16,102.83696712951661L16,66.7271671295166Z" fill-rule="evenodd" fill="#5C2D25" fill-opacity="1" style="mix-blend-mode:passthrough"/></g><g><path d="M44.641210217285156,64.24586846176148Q36.09211021728515,55.199708461761475,23.468910217285156,55.199708461761475Q23.370418817285156,55.199708461761475,23.273820217285156,55.21892346176148Q23.177221217285155,55.23813846176147,23.086227217285156,55.275829461761475Q22.995232217285157,55.31352046176148,22.913340217285157,55.36823846176147Q22.831447217285156,55.42295746176148,22.761803217285156,55.492601461761474Q22.692159217285155,55.56224546176148,22.637440217285157,55.64413846176147Q22.582722217285156,55.726030461761475,22.545031217285157,55.817025461761475Q22.507340217285154,55.90801946176148,22.488125217285155,56.004618461761474Q22.468910217285156,56.101217061761474,22.468910217285156,56.199708461761475L22.468910217285156,92.19230846176148Q22.468910217285156,92.29080846176147,22.488125217285155,92.38740846176148Q22.507339217285157,92.48400846176148,22.545030217285156,92.57500846176148Q22.582721217285155,92.66600846176146,22.637440217285157,92.74790846176148Q22.692159217285155,92.82980846176147,22.761802217285155,92.89940846176148Q22.831446217285155,92.96910846176146,22.913339217285156,93.02380846176148Q22.995231217285156,93.07850846176147,23.086225217285158,93.11620846176147Q23.177219217285156,93.15390846176147,23.273818217285157,93.17310846176147Q23.370416517285157,93.19230846176148,23.468907674155155,93.19230846176148Q35.750510217285154,93.19230846176148,43.892710217285156,102.38290846176147Q43.93281021728515,102.42820846176147,43.978110217285156,102.46830846176147Q44.05181021728515,102.53360846176147,44.13681021728516,102.58330846176148Q44.221910217285156,102.63300846176148,44.315010217285156,102.66510846176148Q44.408110217285156,102.69720846176148,44.505710217285156,102.71060846176147Q44.60321021728515,102.72390846176148,44.70161021728516,102.71800846176149Q44.79991021728516,102.71200846176149,44.89511021728516,102.68700846176148Q44.99041021728516,102.66200846176147,45.078910217285156,102.61890846176146Q45.167510217285155,102.57580846176148,45.24591021728516,102.51620846176147Q45.324410217285156,102.45660846176148,45.389710217285156,102.38290846176147Q53.531810217285155,93.19230846176148,65.81351021728516,93.19230846176148Q65.91191021728515,93.19230846176148,66.00851021728516,93.17310846176147Q66.10511021728516,93.15390846176147,66.19611021728517,93.11620846176147Q66.28711021728515,93.07850846176147,66.36901021728517,93.02380846176148Q66.45091021728516,92.96910846176146,66.52061021728515,92.89940846176148Q66.59021021728515,92.82980846176147,66.64491021728516,92.74790846176148Q66.69961021728516,92.66600846176146,66.73731021728516,92.57500846176148Q66.77501021728516,92.48400846176148,66.79421021728515,92.38740846176148Q66.81351021728516,92.29080846176147,66.81351021728516,92.19230846176148L66.81351021728516,56.199708461761475Q66.81351021728516,56.101217061761474,66.79421021728515,56.004618461761474Q66.77501021728516,55.90801946176148,66.73731021728516,55.817025461761475Q66.69961021728516,55.726030461761475,66.64491021728516,55.64413846176147Q66.59021021728515,55.56224546176148,66.52061021728515,55.492601461761474Q66.45091021728516,55.42295746176148,66.36901021728517,55.36823846176147Q66.28711021728515,55.31352046176148,66.19611021728517,55.275829461761475Q66.10511021728516,55.23813846176147,66.00851021728516,55.21892346176148Q65.91191021728515,55.199708461761475,65.81351021728516,55.199708461761475Q53.190210217285156,55.199708461761475,44.641210217285156,64.24586846176148ZM24.468910217285156,57.215158461761476L24.468910217285156,91.20670846176148Q36.432910217285155,91.55300846176146,44.641210217285156,100.23850846176148Q52.849410217285154,91.55300846176146,64.81351021728516,91.20670846176148L64.81351021728516,57.215158461761476Q53.198110217285155,57.57646846176147,45.389710217285156,66.39030846176148Q45.34961021728516,66.43560846176148,45.304310217285156,66.47570846176147Q45.15541021728515,66.60760846176147,44.967410217285156,66.67250846176148Q44.77941021728516,66.73730846176147,44.580810217285155,66.72530846176147Q44.38231021728515,66.71330846176147,44.20341021728515,66.62630846176148Q44.02461021728516,66.53920846176148,43.892710217285156,66.39030846176148Q36.08431021728516,57.57646846176147,24.468910217285156,57.215158461761476Z" fill-rule="evenodd" fill="#5C2D25" fill-opacity="1" style="mix-blend-mode:passthrough"/></g><g><path d="M70.04795510864258,60.49274015426636Q67.74705510864257,60.49274015426636,65.73845510864257,60.64376015426636L65.88845510864257,62.638130154266356Q67.38115510864259,62.52590015426636,69.04795510864258,62.500300154266355L69.04795510864258,96.49284015426636Q56.33365510864258,96.68194015426636,44.64115510864258,101.68904015426637Q32.94875510864258,96.68194015426636,20.234455108642578,96.49284015426636L20.234455108642578,62.500300154266355Q21.901215108642578,62.52590015426636,23.39393510864258,62.638130154266356L23.543885108642577,60.64376015426636Q21.53531510864258,60.49274015426636,19.234455108642578,60.49274015426636Q19.135963708642578,60.49274015426636,19.039365108642578,60.51195515426636Q18.942766108642576,60.531170154266356,18.851772108642578,60.56886115426636Q18.76077710864258,60.60655215426636,18.67888510864258,60.661270154266354Q18.596992108642578,60.71598915426636,18.527348108642578,60.78563315426636Q18.457704108642577,60.85527715426636,18.40298510864258,60.937170154266354Q18.348267108642577,61.01906215426636,18.31057610864258,61.11005715426636Q18.272885108642576,61.20105115426636,18.253670108642577,61.29765015426636Q18.234455108642578,61.39424875426636,18.234455108642578,61.49274015426636L18.234455108642578,97.48534015426637Q18.234455108642578,97.58384015426635,18.253670108642577,97.68044015426636Q18.272885108642576,97.77704015426636,18.31057610864258,97.86804015426637Q18.348267108642577,97.95904015426635,18.40298610864258,98.04094015426637Q18.45770610864258,98.12284015426636,18.52735010864258,98.19244015426636Q18.596994108642576,98.26214015426635,18.678887108642577,98.31684015426636Q18.760780108642578,98.37154015426636,18.851775108642578,98.40924015426636Q18.94276910864258,98.44694015426636,19.03936910864258,98.46614015426636Q19.13596830864258,98.48534015426637,19.234460194902578,98.48534015426637Q32.29075510864258,98.48534015426637,44.24155510864258,103.69504015426637Q44.43265510864258,103.77844015426635,44.64115510864258,103.77844015426635Q44.84965510864258,103.77844015426635,45.04075510864258,103.69504015426637Q56.99155510864258,98.48534015426637,70.04795510864258,98.48534015426637Q70.14635510864258,98.48534015426637,70.24295510864258,98.46614015426636Q70.33955510864257,98.44694015426636,70.43055510864258,98.40924015426636Q70.52155510864259,98.37154015426636,70.60345510864258,98.31684015426636Q70.68535510864257,98.26214015426635,70.75505510864258,98.19244015426636Q70.82465510864259,98.12284015426636,70.87935510864259,98.04094015426637Q70.93405510864258,97.95904015426635,70.97175510864258,97.86804015426637Q71.00945510864258,97.77704015426636,71.02865510864257,97.68044015426636Q71.04795510864258,97.58384015426635,71.04795510864258,97.48534015426637L71.04795510864258,61.49274015426636Q71.04795510864258,61.39424875426636,71.02865510864257,61.29765015426636Q71.00945510864258,61.20105115426636,70.97175510864258,61.11005715426636Q70.93405510864258,61.01906215426636,70.87935510864259,60.937170154266354Q70.82465510864259,60.85527715426636,70.75505510864258,60.78563315426636Q70.68535510864257,60.71598915426636,70.60345510864258,60.661270154266354Q70.52155510864259,60.60655215426636,70.43055510864258,60.56886115426636Q70.33955510864257,60.531170154266356,70.24295510864258,60.51195515426636Q70.14635510864258,60.49274015426636,70.04795510864258,60.49274015426636Z" fill-rule="evenodd" fill="#5C2D25" fill-opacity="1" style="mix-blend-mode:passthrough"/></g><g transform="matrix(0,1,-1,0,109.86773586273193,22.13564968109131)"><line x1="43.86604309082031" y1="65.00169277191162" x2="79.48550415039062" y2="65.00169277191162" fill-opacity="0" stroke-opacity="1" stroke="#5C2D25" fill="none" stroke-width="2" stroke-linejoin="round" style="mix-blend-mode:passthrough"/></g><g><path d="M59.275640869140624,63.135553953857425Q53.320640869140625,64.26351695385742,48.312732869140625,67.67419395385743L49.438548869140625,69.32723395385742Q54.10215086914062,66.15105395385743,59.64784086914062,65.10061395385742L59.275640869140624,63.135553953857425Z" fill-rule="evenodd" fill="#5C2D25" fill-opacity="1" style="mix-blend-mode:passthrough"/></g><g><path d="M29.63448783392334,65.10061395385742Q35.18023383392334,66.15105395385743,39.84379383392334,69.32723395385742L40.96959383392334,67.67419395385743Q35.96173383392334,64.26351895385743,30.00669683392334,63.135553953857425L29.63448783392334,65.10061395385742Z" fill-rule="evenodd" fill="#5C2D25" fill-opacity="1" style="mix-blend-mode:passthrough"/></g><g><path d="M59.275640869140624,68.39683115264893Q53.320640869140625,69.52479415264892,48.312732869140625,72.93547115264893L49.438548869140625,74.58851115264892Q54.10215086914062,71.41233115264893,59.64784086914062,70.36189115264892L59.275640869140624,68.39683115264893Z" fill-rule="evenodd" fill="#5C2D25" fill-opacity="1" style="mix-blend-mode:passthrough"/></g><g><path d="M29.63448783392334,70.36189115264892Q35.18023383392334,71.41233115264893,39.84379383392334,74.58851115264892L40.96959383392334,72.93547115264893Q35.96173383392334,69.52479615264893,30.00669683392334,68.39683115264893L29.63448783392334,70.36189115264892Z" fill-rule="evenodd" fill="#5C2D25" fill-opacity="1" style="mix-blend-mode:passthrough"/></g><g><path d="M59.275640869140624,73.65810453674317Q53.320640869140625,74.78606753674316,48.312732869140625,78.19674453674317L49.438548869140625,79.84978453674316Q54.10215086914062,76.67360453674317,59.64784086914062,75.62316453674316L59.275640869140624,73.65810453674317Z" fill-rule="evenodd" fill="#5C2D25" fill-opacity="1" style="mix-blend-mode:passthrough"/></g><g><path d="M29.63448783392334,75.62316453674316Q35.18023383392334,76.67360453674317,39.84379383392334,79.84978453674316L40.96959383392334,78.19674453674317Q35.96173383392334,74.78606953674317,30.00669683392334,73.65810453674317L29.63448783392334,75.62316453674316Z" fill-rule="evenodd" fill="#5C2D25" fill-opacity="1" style="mix-blend-mode:passthrough"/></g><g><path d="M59.275640869140624,78.91937887451172Q53.320640869140625,80.04734187451172,48.312732869140625,83.45801887451172L49.438548869140625,85.11105887451171Q54.10215086914062,81.93487887451172,59.64784086914062,80.88443887451172L59.275640869140624,78.91937887451172Z" fill-rule="evenodd" fill="#5C2D25" fill-opacity="1" style="mix-blend-mode:passthrough"/></g><g><path d="M29.63448783392334,80.88443887451172Q35.18023383392334,81.93487887451172,39.84379383392334,85.11105887451171L40.96959383392334,83.45801887451172Q35.96173383392334,80.04734387451172,30.00669683392334,78.91937887451172L29.63448783392334,80.88443887451172Z" fill-rule="evenodd" fill="#5C2D25" fill-opacity="1" style="mix-blend-mode:passthrough"/></g><g><path d="M59.275640869140624,84.18065511962891Q53.320640869140625,85.3086181196289,48.312732869140625,88.71929511962891L49.438548869140625,90.3723351196289Q54.10215086914062,87.19615511962891,59.64784086914062,86.1457151196289L59.275640869140624,84.18065511962891Z" fill-rule="evenodd" fill="#5C2D25" fill-opacity="1" style="mix-blend-mode:passthrough"/></g><g><path d="M29.63448783392334,86.1457151196289Q35.18023383392334,87.19615511962891,39.84379383392334,90.3723351196289L40.96959383392334,88.71929511962891Q35.96173383392334,85.30862011962891,30.00669683392334,84.18065511962891L29.63448783392334,86.1457151196289Z" fill-rule="evenodd" fill="#5C2D25" fill-opacity="1" style="mix-blend-mode:passthrough"/></g></g><g><path d="M46.288,23.77609765625L46.288,23.35609765625L57.32,10.00009765625L57.992000000000004,10.00009765625L46.96,23.35609765625L46.596000000000004,23.24409765625L62.556,23.24409765625L62.556,23.77609765625L46.288,23.77609765625ZM57.628,29.60009765625L57.628,23.77609765625L57.628,23.24409765625L57.628,18.12009765625L58.188,18.12009765625L58.188,29.60009765625L57.628,29.60009765625Z" fill="#5C2D25" fill-opacity="1" style="mix-blend-mode:passthrough"/></g></g></svg>