<svg xmlns="http://www.w3.org/2000/svg" xmlns:xlink="http://www.w3.org/1999/xlink" fill="none" version="1.1" width="24" height="24" viewBox="0 0 24 24"><defs><clipPath id="master_svg0_0_4520"><rect x="24" y="0" width="24" height="24" rx="0"/></clipPath><filter id="master_svg1_0_4520/0_4521" filterUnits="objectBoundingBox" color-interpolation-filters="sRGB" x="-0.5" y="-0.375" width="2" height="2"><feFlood flood-opacity="0" result="BackgroundImageFix"/><feColorMatrix in="SourceAlpha" type="matrix" values="0 0 0 0 0 0 0 0 0 0 0 0 0 0 0 0 0 0 127 0"/><feOffset dy="3" dx="0"/><feGaussianBlur stdDeviation="3"/><feColorMatrix type="matrix" values="0 0 0 0 0 0 0 0 0 0 0 0 0 0 0 0 0 0 0.16078431904315948 0"/><feBlend mode="normal" in2="BackgroundImageFix" result="effect1_dropShadow"/><feBlend mode="normal" in="SourceGraphic" in2="effect1_dropShadow" result="shape"/></filter></defs><g transform="matrix(0,1,-1,0,24,-24)" clip-path="url(#master_svg0_0_4520)"><g filter="url(#master_svg1_0_4520/0_4521)"><path d="M36,0C42.6274,0,48,5.37258,48,12C48,18.6274,42.6274,24,36,24C29.37258,24,24,18.6274,24,12C24,5.37258,29.37258,0,36,0C36,0,36,0,36,0Z" fill="#FF7051" fill-opacity="1" style="mix-blend-mode:passthrough"/></g><g transform="matrix(0.7071067690849304,0.7071067690849304,-0.7071067690849304,0.7071067690849304,14.230037300996088,-23.928292692438305)"><g transform="matrix(-1,-1.2246468525851679e-16,1.2246468525851679e-16,-1,91.19921875,18.024687767028816)"><line x1="45.599609375" y1="8.012343883514404" x2="55.199843406677246" y2="8.012343883514404" fill-opacity="0" stroke-opacity="1" stroke="#FFFFFF" fill="none" stroke-width="2" stroke-linecap="ROUND" style="mix-blend-mode:passthrough"/></g><g transform="matrix(0,-1,1,0,26.986679553985596,56.611953258514404)"><line x1="41.79931640625" y1="13.812636852264404" x2="51.39931583404541" y2="13.812636852264404" fill-opacity="0" stroke-opacity="1" stroke="#FFFFFF" fill="none" stroke-width="2" stroke-linecap="ROUND" style="mix-blend-mode:passthrough"/></g></g></g></svg>