<svg xmlns="http://www.w3.org/2000/svg" xmlns:xlink="http://www.w3.org/1999/xlink" fill="none" version="1.1" width="101.35369873046875" height="118.5185546875" viewBox="0 0 101.35369873046875 118.5185546875"><defs><filter id="master_svg0_0_4371" filterUnits="objectBoundingBox" color-interpolation-filters="sRGB" x="-0.75" y="-0.32142857142857145" width="2.5" height="1.8571428571428572"><feFlood flood-opacity="0" result="BackgroundImageFix"/><feColorMatrix in="SourceAlpha" type="matrix" values="0 0 0 0 0 0 0 0 0 0 0 0 0 0 0 0 0 0 127 0"/><feOffset dy="3" dx="0"/><feGaussianBlur stdDeviation="3"/><feColorMatrix type="matrix" values="0 0 0 0 0 0 0 0 0 0 0 0 0 0 0 0 0 0 0.16078431904315948 0"/><feBlend mode="normal" in2="BackgroundImageFix" result="effect1_dropShadow"/><feBlend mode="normal" in="SourceGraphic" in2="effect1_dropShadow" result="shape"/></filter><filter id="master_svg1_0_4372" filterUnits="objectBoundingBox" color-interpolation-filters="sRGB" x="-0.14396477766044605" y="-0.12250237367249063" width="1.287929555320892" height="1.326672996459975"><feFlood flood-opacity="0" result="BackgroundImageFix"/><feColorMatrix in="SourceAlpha" type="matrix" values="0 0 0 0 0 0 0 0 0 0 0 0 0 0 0 0 0 0 127 0"/><feOffset dy="3" dx="0"/><feGaussianBlur stdDeviation="3"/><feColorMatrix type="matrix" values="0 0 0 0 0 0 0 0 0 0 0 0 0 0 0 0 0 0 0.16078431904315948 0"/><feBlend mode="normal" in2="BackgroundImageFix" result="effect1_dropShadow"/><feBlend mode="normal" in="SourceGraphic" in2="effect1_dropShadow" result="shape"/></filter></defs><g><g filter="url(#master_svg0_0_4371)"><path d="M39.752,34.12648046875Q37.54,34.12648046875,35.734,33.34248046875Q33.928,32.55848046875,33.032,31.35448046875L33.396,30.99048046875Q34.208,32.08248046875,35.902,32.83848046875Q37.596000000000004,33.59448046875,39.752,33.59448046875Q42.664,33.59448046875,44.162,32.25048046875Q45.66,30.90648046875,45.66,28.66648046875Q45.66,26.42648046875,44.134,25.08248046875Q42.608000000000004,23.738480468749998,39.388,23.738480468749998L38.38,23.738480468749998L38.38,23.31848046875L44.876,14.77848046875L44.932,14.97448046875L33.648,14.97448046875L33.648,14.44248046875L45.492000000000004,14.44248046875L45.492000000000004,14.86248046875L38.996,23.40248046875L38.94,23.20648046875L39.36,23.20648046875Q42.832,23.20648046875,44.525999999999996,24.718480468750002Q46.22,26.23048046875,46.22,28.66648046875Q46.22,30.29048046875,45.478,31.52248046875Q44.736000000000004,32.75448046875,43.294,33.440480468749996Q41.852000000000004,34.12648046875,39.752,34.12648046875Z" fill="#68FE7F" fill-opacity="1" style="mix-blend-mode:passthrough"/><path d="M39.752,34.12648046875Q37.54,34.12648046875,35.734,33.34248046875Q33.928,32.55848046875,33.032,31.35448046875L33.396,30.99048046875Q34.208,32.08248046875,35.902,32.83848046875Q37.596000000000004,33.59448046875,39.752,33.59448046875Q42.664,33.59448046875,44.162,32.25048046875Q45.66,30.90648046875,45.66,28.66648046875Q45.66,26.42648046875,44.134,25.08248046875Q42.608000000000004,23.738480468749998,39.388,23.738480468749998L38.38,23.738480468749998L38.38,23.31848046875L44.876,14.77848046875L44.932,14.97448046875L33.648,14.97448046875L33.648,14.44248046875L45.492000000000004,14.44248046875L45.492000000000004,14.86248046875L38.996,23.40248046875L38.94,23.20648046875L39.36,23.20648046875Q42.832,23.20648046875,44.525999999999996,24.718480468750002Q46.22,26.23048046875,46.22,28.66648046875Q46.22,30.29048046875,45.478,31.52248046875Q44.736000000000004,32.75448046875,43.294,33.440480468749996Q41.852000000000004,34.12648046875,39.752,34.12648046875Z" fill-opacity="0" stroke-opacity="1" stroke="#68FE7F" fill="none" stroke-width="8" style="mix-blend-mode:passthrough"/></g><g filter="url(#master_svg1_0_4372)"><path d="M16.0957,46.65969296875L17.84473,53.18709296875L17.843400000000003,53.18749296875C16.12062,53.51299296875,14.41825,53.91469296875,12.7168,54.37059296875L14.07719,59.447692968750005L9,60.80809296875L21.2481,106.51859296875L50.4522,98.69339296875C51.1543,98.50519296875,51.8743,98.92199296875,52.0621,99.62289296875C52.4378,101.02459296875,53.8803,101.85749296875,55.2821,101.48189296875L60.3611,100.12099296875C61.7629,99.74539296875,62.5957,98.30279296875,62.2201,96.90099296875C62.0323,96.20019296875,62.4474,95.47919296875,63.1496,95.29109296875001L92.3537,87.46589296875L80.1056,41.75540296875L75.0267,43.11629296875L75.0249,43.11679296875L73.6645,38.03972296875C71.96350000000001,38.49550296875,70.28880000000001,38.99865296875,68.6344,39.57793296875L66.8854,33.05059719075C59.631,34.99443296875,53.2573,39.19092296875,48.6247,44.93959296875L37.8545,47.82549296875C30.9682,45.16329296875,23.3502,44.71579296875,16.0957,46.65969296875Z" fill-rule="evenodd" fill="#68FE7F" fill-opacity="1" style="mix-blend-mode:passthrough"/></g><g transform="matrix(0.9659258127212524,-0.258819043636322,0.258819043636322,0.9659258127212524,-13.372481582831824,5.71009626990417)"><g><path d="M16,64.1695499420166L19.23446,64.1695499420166L19.23446,62.1695499420166L15,62.1695499420166Q14.9015086,62.1695499420166,14.80491,62.188764942016604Q14.708311,62.2079799420166,14.617317,62.2456709420166Q14.526322,62.283361942016604,14.44443,62.3380799420166Q14.362537,62.392798942016604,14.292893,62.4624429420166Q14.223249,62.532086942016605,14.16853,62.6139799420166Q14.113812,62.6958719420166,14.076121,62.7868669420166Q14.03843,62.8778609420166,14.019214999999999,62.9744599420166Q14,63.0710585420166,14,63.1695499420166L14,101.27934994201661Q14,101.37784994201661,14.019214999999999,101.4744499420166Q14.03843,101.5710499420166,14.076121,101.66204994201661Q14.113812,101.7530499420166,14.16853,101.8349499420166Q14.223249,101.9168499420166,14.292893,101.9864499420166Q14.362537,102.0561499420166,14.44443,102.1108499420166Q14.526322,102.16554994201661,14.617317,102.20324994201661Q14.708311,102.2409499420166,14.80491,102.2601499420166Q14.9015086,102.27934994201661,15,102.27934994201661L39.3481,102.27934994201661Q39.4067,102.27934994201661,39.4067,102.33794994201659Q39.4067,103.62874994201661,40.32,104.5419499420166Q41.2332,105.4552499420166,42.524,105.4552499420166L46.7584,105.4552499420166Q48.0492,105.4552499420166,48.9624,104.5419499420166Q49.8756,103.62874994201661,49.8756,102.33794994201659Q49.8756,102.27934994201661,49.9343,102.27934994201661L74.2824,102.27934994201661Q74.3809,102.27934994201661,74.47749999999999,102.2601499420166Q74.5741,102.2409499420166,74.6651,102.20324994201661Q74.7561,102.16554994201661,74.83789999999999,102.1108499420166Q74.91980000000001,102.0561499420166,74.98949999999999,101.9864499420166Q75.0591,101.9168499420166,75.1138,101.8349499420166Q75.1686,101.7530499420166,75.2063,101.66204994201661Q75.2439,101.5710499420166,75.2632,101.4744499420166Q75.2824,101.37784994201661,75.2824,101.27934994201661L75.2824,63.1695499420166Q75.2824,63.0710585420166,75.2632,62.9744599420166Q75.2439,62.8778609420166,75.2063,62.7868669420166Q75.1686,62.6958719420166,75.1138,62.6139799420166Q75.0591,62.532086942016605,74.98949999999999,62.4624429420166Q74.91980000000001,62.392798942016604,74.83789999999999,62.3380799420166Q74.7561,62.283361942016604,74.6651,62.2456709420166Q74.5741,62.2079799420166,74.47749999999999,62.188764942016604Q74.3809,62.1695499420166,74.2824,62.1695499420166L70.0479,62.1695499420166L70.0479,64.1695499420166L73.2824,64.1695499420166L73.2824,100.27934994201661L49.9343,100.27934994201661Q47.8756,100.27934994201661,47.8756,102.33794994201659Q47.8756,103.4552499420166,46.7584,103.4552499420166L42.524,103.4552499420166Q41.4067,103.4552499420166,41.4067,102.33794994201659Q41.4067,100.27934994201661,39.3481,100.27934994201661L16,100.27934994201661L16,64.1695499420166Z" fill-rule="evenodd" fill="#5C2D25" fill-opacity="1" style="mix-blend-mode:passthrough"/></g><g><path d="M44.641210217285156,61.688251274261475Q36.09211021728515,52.642091274261475,23.468910217285156,52.642091274261475Q23.370418817285156,52.642091274261475,23.273820217285156,52.66130627426148Q23.177221217285155,52.68052127426147,23.086227217285156,52.718212274261475Q22.995232217285157,52.75590327426148,22.913340217285157,52.81062127426147Q22.831447217285156,52.86534027426148,22.761803217285156,52.934984274261474Q22.692159217285155,53.00462827426148,22.637440217285157,53.08652127426147Q22.582722217285156,53.168413274261475,22.545031217285157,53.259408274261475Q22.507340217285154,53.35040227426148,22.488125217285155,53.447001274261474Q22.468910217285156,53.543599874261474,22.468910217285156,53.642091274261475L22.468910217285156,89.63469127426148Q22.468910217285156,89.73319127426147,22.488125217285155,89.82979127426148Q22.507339217285157,89.92639127426148,22.545030217285156,90.01739127426148Q22.582721217285155,90.10839127426146,22.637440217285157,90.19029127426148Q22.692159217285155,90.27219127426147,22.761802217285155,90.34179127426148Q22.831446217285155,90.41149127426146,22.913339217285156,90.46619127426148Q22.995231217285156,90.52089127426147,23.086225217285158,90.55859127426147Q23.177219217285156,90.59629127426147,23.273818217285157,90.61549127426147Q23.370416517285157,90.63469127426148,23.468907674155155,90.63469127426148Q35.750510217285154,90.63469127426148,43.892710217285156,99.82529127426147Q43.93281021728515,99.87059127426147,43.978110217285156,99.91069127426147Q44.05181021728515,99.97599127426147,44.13681021728516,100.02569127426148Q44.221910217285156,100.07539127426148,44.315010217285156,100.10749127426148Q44.408110217285156,100.13959127426148,44.505710217285156,100.15299127426147Q44.60321021728515,100.16629127426148,44.70161021728516,100.16039127426149Q44.79991021728516,100.15439127426149,44.89511021728516,100.12939127426148Q44.99041021728516,100.10439127426147,45.078910217285156,100.06129127426146Q45.167510217285155,100.01819127426148,45.24591021728516,99.95859127426147Q45.324410217285156,99.89899127426148,45.389710217285156,99.82529127426147Q53.531810217285155,90.63469127426148,65.81351021728516,90.63469127426148Q65.91191021728515,90.63469127426148,66.00851021728516,90.61549127426147Q66.10511021728516,90.59629127426147,66.19611021728517,90.55859127426147Q66.28711021728515,90.52089127426147,66.36901021728517,90.46619127426148Q66.45091021728516,90.41149127426146,66.52061021728515,90.34179127426148Q66.59021021728515,90.27219127426147,66.64491021728516,90.19029127426148Q66.69961021728516,90.10839127426146,66.73731021728516,90.01739127426148Q66.77501021728516,89.92639127426148,66.79421021728515,89.82979127426148Q66.81351021728516,89.73319127426147,66.81351021728516,89.63469127426148L66.81351021728516,53.642091274261475Q66.81351021728516,53.543599874261474,66.79421021728515,53.447001274261474Q66.77501021728516,53.35040227426148,66.73731021728516,53.259408274261475Q66.69961021728516,53.168413274261475,66.64491021728516,53.08652127426147Q66.59021021728515,53.00462827426148,66.52061021728515,52.934984274261474Q66.45091021728516,52.86534027426148,66.36901021728517,52.81062127426147Q66.28711021728515,52.75590327426148,66.19611021728517,52.718212274261475Q66.10511021728516,52.68052127426147,66.00851021728516,52.66130627426148Q65.91191021728515,52.642091274261475,65.81351021728516,52.642091274261475Q53.190210217285156,52.642091274261475,44.641210217285156,61.688251274261475ZM24.468910217285156,54.657541274261476L24.468910217285156,88.64909127426148Q36.432910217285155,88.99539127426146,44.641210217285156,97.68089127426148Q52.849410217285154,88.99539127426146,64.81351021728516,88.64909127426148L64.81351021728516,54.657541274261476Q53.198110217285155,55.01885127426147,45.389710217285156,63.83269127426148Q45.34961021728516,63.877991274261475,45.304310217285156,63.91809127426147Q45.15541021728515,64.04999127426147,44.967410217285156,64.11489127426148Q44.77941021728516,64.17969127426147,44.580810217285155,64.16769127426147Q44.38231021728515,64.15569127426147,44.20341021728515,64.06869127426148Q44.02461021728516,63.981591274261476,43.892710217285156,63.83269127426148Q36.08431021728516,55.01885127426147,24.468910217285156,54.657541274261476Z" fill-rule="evenodd" fill="#5C2D25" fill-opacity="1" style="mix-blend-mode:passthrough"/></g><g><path d="M70.04795510864258,57.93512296676636Q67.74705510864257,57.93512296676636,65.73845510864257,58.08614296676636L65.88845510864257,60.080512966766356Q67.38115510864259,59.96828296676636,69.04795510864258,59.942682966766355L69.04795510864258,93.93522296676636Q56.33365510864258,94.12432296676636,44.64115510864258,99.13142296676637Q32.94875510864258,94.12432296676636,20.234455108642578,93.93522296676636L20.234455108642578,59.942682966766355Q21.901215108642578,59.96828296676636,23.39393510864258,60.080512966766356L23.543885108642577,58.08614296676636Q21.53531510864258,57.93512296676636,19.234455108642578,57.93512296676636Q19.135963708642578,57.93512296676636,19.039365108642578,57.95433796676636Q18.942766108642576,57.973552966766356,18.851772108642578,58.01124396676636Q18.76077710864258,58.04893496676636,18.67888510864258,58.103652966766354Q18.596992108642578,58.15837196676636,18.527348108642578,58.22801596676636Q18.457704108642577,58.29765996676636,18.40298510864258,58.379552966766354Q18.348267108642577,58.46144496676636,18.31057610864258,58.55243996676636Q18.272885108642576,58.64343396676636,18.253670108642577,58.74003296676636Q18.234455108642578,58.83663156676636,18.234455108642578,58.93512296676636L18.234455108642578,94.92772296676637Q18.234455108642578,95.02622296676635,18.253670108642577,95.12282296676636Q18.272885108642576,95.21942296676636,18.31057610864258,95.31042296676637Q18.348267108642577,95.40142296676635,18.40298610864258,95.48332296676637Q18.45770610864258,95.56522296676636,18.52735010864258,95.63482296676636Q18.596994108642576,95.70452296676635,18.678887108642577,95.75922296676636Q18.760780108642578,95.81392296676636,18.851775108642578,95.85162296676636Q18.94276910864258,95.88932296676636,19.03936910864258,95.90852296676636Q19.13596830864258,95.92772296676637,19.234460194902578,95.92772296676637Q32.29075510864258,95.92772296676637,44.24155510864258,101.13742296676637Q44.43265510864258,101.22082296676635,44.64115510864258,101.22082296676635Q44.84965510864258,101.22082296676635,45.04075510864258,101.13742296676637Q56.99155510864258,95.92772296676637,70.04795510864258,95.92772296676637Q70.14635510864258,95.92772296676637,70.24295510864258,95.90852296676636Q70.33955510864257,95.88932296676636,70.43055510864258,95.85162296676636Q70.52155510864259,95.81392296676636,70.60345510864258,95.75922296676636Q70.68535510864257,95.70452296676635,70.75505510864258,95.63482296676636Q70.82465510864259,95.56522296676636,70.87935510864259,95.48332296676637Q70.93405510864258,95.40142296676635,70.97175510864258,95.31042296676637Q71.00945510864258,95.21942296676636,71.02865510864257,95.12282296676636Q71.04795510864258,95.02622296676635,71.04795510864258,94.92772296676637L71.04795510864258,58.93512296676636Q71.04795510864258,58.83663156676636,71.02865510864257,58.74003296676636Q71.00945510864258,58.64343396676636,70.97175510864258,58.55243996676636Q70.93405510864258,58.46144496676636,70.87935510864259,58.379552966766354Q70.82465510864259,58.29765996676636,70.75505510864258,58.22801596676636Q70.68535510864257,58.15837196676636,70.60345510864258,58.103652966766354Q70.52155510864259,58.04893496676636,70.43055510864258,58.01124396676636Q70.33955510864257,57.973552966766356,70.24295510864258,57.95433796676636Q70.14635510864258,57.93512296676636,70.04795510864258,57.93512296676636Z" fill-rule="evenodd" fill="#5C2D25" fill-opacity="1" style="mix-blend-mode:passthrough"/></g><g transform="matrix(0,1,-1,0,107.31011867523193,19.57803249359131)"><line x1="43.86604309082031" y1="62.44407558441162" x2="79.48550415039062" y2="62.44407558441162" fill-opacity="0" stroke-opacity="1" stroke="#5C2D25" fill="none" stroke-width="2" stroke-linejoin="round" style="mix-blend-mode:passthrough"/></g><g><path d="M59.275640869140624,60.577936766357425Q53.320640869140625,61.70589976635742,48.312732869140625,65.11657676635743L49.438548869140625,66.76961676635742Q54.10215086914062,63.59343676635742,59.64784086914062,62.54299676635742L59.275640869140624,60.577936766357425Z" fill-rule="evenodd" fill="#5C2D25" fill-opacity="1" style="mix-blend-mode:passthrough"/></g><g><path d="M29.63448783392334,62.54299676635742Q35.18023383392334,63.59343676635742,39.84379383392334,66.76961676635742L40.96959383392334,65.11657676635743Q35.96173383392334,61.70590176635742,30.00669683392334,60.577936766357425L29.63448783392334,62.54299676635742Z" fill-rule="evenodd" fill="#5C2D25" fill-opacity="1" style="mix-blend-mode:passthrough"/></g><g><path d="M59.275640869140624,65.83921396514893Q53.320640869140625,66.96717696514892,48.312732869140625,70.37785396514893L49.438548869140625,72.03089396514892Q54.10215086914062,68.85471396514893,59.64784086914062,67.80427396514892L59.275640869140624,65.83921396514893Z" fill-rule="evenodd" fill="#5C2D25" fill-opacity="1" style="mix-blend-mode:passthrough"/></g><g><path d="M29.63448783392334,67.80427396514892Q35.18023383392334,68.85471396514893,39.84379383392334,72.03089396514892L40.96959383392334,70.37785396514893Q35.96173383392334,66.96717896514893,30.00669683392334,65.83921396514893L29.63448783392334,67.80427396514892Z" fill-rule="evenodd" fill="#5C2D25" fill-opacity="1" style="mix-blend-mode:passthrough"/></g><g><path d="M59.275640869140624,71.10048734924317Q53.320640869140625,72.22845034924316,48.312732869140625,75.63912734924317L49.438548869140625,77.29216734924316Q54.10215086914062,74.11598734924317,59.64784086914062,73.06554734924316L59.275640869140624,71.10048734924317Z" fill-rule="evenodd" fill="#5C2D25" fill-opacity="1" style="mix-blend-mode:passthrough"/></g><g><path d="M29.63448783392334,73.06554734924316Q35.18023383392334,74.11598734924317,39.84379383392334,77.29216734924316L40.96959383392334,75.63912734924317Q35.96173383392334,72.22845234924317,30.00669683392334,71.10048734924317L29.63448783392334,73.06554734924316Z" fill-rule="evenodd" fill="#5C2D25" fill-opacity="1" style="mix-blend-mode:passthrough"/></g><g><path d="M59.275640869140624,76.36176168701172Q53.320640869140625,77.48972468701172,48.312732869140625,80.90040168701172L49.438548869140625,82.55344168701171Q54.10215086914062,79.37726168701172,59.64784086914062,78.32682168701172L59.275640869140624,76.36176168701172Z" fill-rule="evenodd" fill="#5C2D25" fill-opacity="1" style="mix-blend-mode:passthrough"/></g><g><path d="M29.63448783392334,78.32682168701172Q35.18023383392334,79.37726168701172,39.84379383392334,82.55344168701171L40.96959383392334,80.90040168701172Q35.96173383392334,77.48972668701172,30.00669683392334,76.36176168701172L29.63448783392334,78.32682168701172Z" fill-rule="evenodd" fill="#5C2D25" fill-opacity="1" style="mix-blend-mode:passthrough"/></g><g><path d="M59.275640869140624,81.62303793212891Q53.320640869140625,82.7510009321289,48.312732869140625,86.16167793212891L49.438548869140625,87.8147179321289Q54.10215086914062,84.63853793212891,59.64784086914062,83.5880979321289L59.275640869140624,81.62303793212891Z" fill-rule="evenodd" fill="#5C2D25" fill-opacity="1" style="mix-blend-mode:passthrough"/></g><g><path d="M29.63448783392334,83.5880979321289Q35.18023383392334,84.63853793212891,39.84379383392334,87.8147179321289L40.96959383392334,86.16167793212891Q35.96173383392334,82.75100293212891,30.00669683392334,81.62303793212891L29.63448783392334,83.5880979321289Z" fill-rule="evenodd" fill="#5C2D25" fill-opacity="1" style="mix-blend-mode:passthrough"/></g></g><g><path d="M39.252,34.12648046875Q37.04,34.12648046875,35.234,33.34248046875Q33.428,32.55848046875,32.532,31.35448046875L32.896,30.99048046875Q33.708,32.08248046875,35.402,32.83848046875Q37.096000000000004,33.59448046875,39.252,33.59448046875Q42.164,33.59448046875,43.662,32.25048046875Q45.16,30.90648046875,45.16,28.66648046875Q45.16,26.42648046875,43.634,25.08248046875Q42.108000000000004,23.738480468749998,38.888,23.738480468749998L37.88,23.738480468749998L37.88,23.31848046875L44.376,14.77848046875L44.432,14.97448046875L33.148,14.97448046875L33.148,14.44248046875L44.992000000000004,14.44248046875L44.992000000000004,14.86248046875L38.496,23.40248046875L38.44,23.20648046875L38.86,23.20648046875Q42.332,23.20648046875,44.025999999999996,24.718480468750002Q45.72,26.23048046875,45.72,28.66648046875Q45.72,30.29048046875,44.978,31.52248046875Q44.236000000000004,32.75448046875,42.794,33.440480468749996Q41.352000000000004,34.12648046875,39.252,34.12648046875Z" fill="#5C2D25" fill-opacity="1" style="mix-blend-mode:passthrough"/></g></g></svg>