<svg xmlns="http://www.w3.org/2000/svg" xmlns:xlink="http://www.w3.org/1999/xlink" fill="none" version="1.1" width="204.0634765625" height="204.005859375" viewBox="0 0 204.0634765625 204.005859375"><defs><mask id="master_svg0_0_1386" style="mask-type:alpha" maskUnits="objectBoundingBox"><g><rect x="0" y="0" width="204.0634307861328" height="204.0059814453125" rx="0" fill="#FFFFFF" fill-opacity="1"/></g></mask></defs><g><g mask="url(#master_svg0_0_1386)"><g><path d="M204.03585672523326,125.92699903980643C203.59785672523327,116.79399903980642,196.78985672523325,109.71899903980642,187.84785672523327,109.10299903980642C187.69585672523326,109.09299903980643,187.54285672523326,109.08299903980642,187.38885672523327,109.07399903980642C187.38885672523327,109.07399903980642,187.38885672523327,108.91899903980642,187.38885672523327,108.91899903980642C187.38885672523327,108.91899903980642,177.55685672523325,108.91899903980642,177.55685672523325,108.91899903980642C176.72485672523325,108.91899903980642,175.89285672523326,108.91699903980643,175.06085672523326,108.91599903980642C174.21485672523326,108.91399903980643,173.36885672523326,108.91199903980643,172.52285672523325,108.91199903980643C171.31885672523325,108.91199903980643,170.31385672523325,108.91599903980642,169.37385672523325,108.92399903980643C169.40285672523325,108.89399903980643,169.43185672523325,108.86499903980642,169.46185672523325,108.83499903980642C183.57385672523327,94.40799903980643,188.10485672523325,76.31169903980643,182.56585672523326,56.50289903980642C179.94685672523326,47.135499039806426,173.81285672523325,37.90739903980643,165.73885672523326,31.184799039806425C156.36385672523326,23.379799039806425,145.10185672523326,19.254499039806426,133.17085672523325,19.254499039806426C132.93785672523325,19.254499039806426,132.70385672523327,19.255999039806426,132.46985672523326,19.259199039806425C118.87185672523326,19.287099039806424,107.06785672523326,23.771899039806424,97.38595672523326,32.58939903980642C96.62275672523326,33.28449903980643,95.87745672523326,33.986899039806424,95.14415672523326,34.69169903980642C95.14415672523326,34.69169903980642,95.14415672523326,26.595299039806427,95.14415672523326,26.595299039806427C95.14415672523326,25.845299039806427,95.14985672523326,25.095299039806427,95.15575672523326,24.345199039806424C95.17075672523326,22.391299039806427,95.18605672523326,20.370599039806425,95.10825672523326,18.277399039806426C95.01165672523325,15.670999039806425,94.60895672523326,13.415199039806426,93.87745672523326,11.381099039806426C91.35235672523326,4.3609490398064255,84.81085672523326,-9.601935744285583e-7,76.80535672523325,-9.601935744285583e-7C76.45075672523326,-9.601935744285583e-7,76.08875672523325,0.008454679806425572,75.72945672523326,0.02497263980642557C71.42985672523326,0.22358203980642558,67.38335672523326,1.8633890398064257,64.33525672523326,4.642139039806426C60.967256725233256,7.712519039806425,59.02585672523326,11.935399039806425,58.86895672523326,16.533699039806425C58.69485672523326,21.638999039806425,58.67365672523326,27.168599039806427,58.80525672523326,33.75159903980643C58.18935672523326,32.80979903980643,57.47555672523326,31.904299039806425,56.66475672523326,31.044199039806426C53.95045672523326,28.164399039806426,51.017756725233255,25.224899039806427,47.435556725233255,21.794099039806426C44.02065672523326,18.522999039806425,39.606156725233255,16.721499039806424,35.00595672523326,16.721499039806424C30.256256725233257,16.721499039806424,25.725356725233258,18.621899039806426,22.247556725233256,22.072399039806424C18.82385672523326,25.469399039806426,16.882556725233258,29.908799039806425,16.781856725233258,34.57269903980642C16.67945672523326,39.31749903980643,18.484656725233258,43.87019903980642,21.86505672523326,47.392099039806425C24.34865672523326,49.97949903980643,26.896956725233256,52.49319903980643,29.361556725233257,54.92429903980643C29.905456725233257,55.46069903980643,30.449356725233258,55.997399039806425,30.992456725233257,56.534399039806424C31.81775672523326,57.350799039806425,32.702456725233255,58.07109903980643,33.63905672523326,58.693299039806426C33.31265672523326,58.689599039806424,32.98015672523326,58.68699903980642,32.632256725233255,58.68699903980642C31.556656725233257,58.68699903980642,30.502856725233258,58.70429903980643,29.48405672523326,58.721099039806425C29.23255672523326,58.72519903980643,28.984956725233257,58.72929903980643,28.73995672523326,58.73299903980642C28.73995672523326,58.73299903980642,26.65765672523326,58.73299903980642,26.65765672523326,58.73299903980642C25.751356725233258,58.73299903980642,24.832256725233258,58.718499039806424,23.859456725233258,58.70319903980643C22.85305672523326,58.68719903980642,21.812156725233258,58.67069903980642,20.75095672523326,58.67069903980642C19.10145672523326,58.67069903980642,17.719656725233257,58.710799039806425,16.40155672523326,58.79679903980642C8.281216725233257,59.32609903980642,1.9904167252332579,64.95329903980642,0.37519472523325775,73.13279903980643C-1.2054232747667422,81.13869903980643,2.3013067252332577,89.03819903980643,9.100816725233258,92.78939903980643C11.889756725233259,94.32849903980643,14.986556725233259,95.07929903980643,18.567556725233256,95.08459903980642C21.015056725233258,95.08829903980643,23.462456725233256,95.09049903980643,25.909856725233258,95.09049903980643C28.843156725233257,95.09049903980643,31.77685672523326,95.08739903980643,34.710156725233254,95.08109903980643C34.72295672523326,95.08109903980643,34.73515672523326,95.08029903980642,34.74815672523326,95.08029903980642C34.73145672523326,95.09719903980643,34.71495672523326,95.11409903980642,34.69815672523326,95.13099903980643C20.51745672523326,109.59499903980642,15.980156725233257,127.72599903980642,21.57685672523326,147.56599903980643C24.288156725233257,157.17699903980642,30.350656725233257,166.21899903980642,38.64775672523326,173.02599903980644C47.99775672523326,180.69599903980642,59.18475672523326,184.74999903980643,70.99905672523326,184.74999903980643C71.20515672523325,184.74999903980643,71.41295672523326,184.74899903980642,71.62025672523326,184.74599903980643C85.73895672523325,184.74099903980644,97.91685672523326,179.92099903980642,107.81585672523326,170.41799903980643C108.20685672523325,170.04299903980643,108.59285672523326,169.6639990398064,108.98185672523326,169.28699903980643C108.95385672523325,174.79399903980644,108.93485672523326,180.19599903980642,109.00585672523326,185.72399903980642C109.03785672523325,188.12699903980644,109.47685672523326,190.54599903980642,110.27685672523326,192.71999903980642C112.83585672523326,199.6819990398064,119.35885672523325,204.00599903980643,127.29985672523325,204.00599903980643C127.62985672523325,204.00599903980643,127.96585672523325,203.99899903980642,128.29985672523327,203.98399903980643C137.50185672523327,203.58399903980643,144.63085672523326,196.76699903980642,145.25185672523327,187.77499903980643C145.26285672523326,187.61299903980643,145.27285672523325,187.45099903980642,145.28285672523324,187.28999903980642C145.28285672523324,187.28999903980642,145.43585672523326,187.28999903980642,145.43585672523326,187.28999903980642C145.43585672523326,187.28999903980642,145.43585672523326,177.48299903980643,145.43585672523326,177.48299903980643C145.43585672523326,176.72599903980642,145.44185672523327,175.96799903980641,145.44885672523327,175.21099903980644C145.46085672523327,173.67699903980642,145.47285672523327,172.10099903980642,145.43785672523325,170.47799903980643C146.05985672523326,171.41699903980643,146.71685672523327,172.20099903980642,147.34085672523327,172.84399903980642C147.34085672523327,172.84399903980642,148.06185672523327,173.58599903980644,148.06185672523327,173.58599903980644C150.91885672523327,176.52799903980642,153.87185672523327,179.56999903980642,157.01985672523327,182.48999903980643C160.32085672523326,185.54999903980644,164.60385672523327,187.23599903980642,169.08185672523325,187.23599903980642C173.96185672523325,187.23599903980642,178.73685672523325,185.18899903980642,182.18085672523327,181.61999903980643C185.44985672523325,178.23299903980643,187.28185672523327,173.84299903980641,187.33785672523325,169.25999903980642C187.39485672523327,164.58699903980641,185.60885672523327,160.11599903980644,182.30885672523326,156.66899903980644C178.83885672523326,153.04599903980642,175.87485672523326,150.08899903980642,172.97985672523325,147.36499903980643C172.18785672523325,146.61999903980643,171.35585672523325,145.95899903980643,170.49185672523325,145.3779990398064C170.49185672523325,145.3779990398064,171.17185672523325,145.38099903980643,171.17185672523325,145.38099903980643C173.34185672523327,145.39299903980643,175.58685672523325,145.40599903980643,177.80885672523326,145.40599903980643C180.88085672523326,145.40599903980643,183.43285672523325,145.38199903980643,185.84085672523327,145.33199903980642C188.00485672523325,145.28699903980643,191.25185672523327,144.90299903980642,194.43085672523327,143.33099903980641C200.91285672523327,140.12699903980644,204.41285672523327,133.7829990398064,204.03585672523326,125.92699903980643Z" fill="#FF90E8" fill-opacity="1" style="mix-blend-mode:passthrough"/></g><g><path d="M71.55847789916993,174.913873449707C50.76747789916992,175.19567344970704,35.22716789916992,159.74057344970703,31.039867899169924,144.89677344970704C26.47125789916992,128.70167344970702,29.77289589916992,114.19867344970703,41.71907789916992,102.01427344970703C47.74617789916992,95.86687344970703,53.87887789916992,89.82284344970704,59.97267789916992,83.74069344970704C62.337877899169925,81.38000144970704,65.15657789916992,80.39718344970703,68.39607789916992,81.44488244970704C71.55927789916993,82.46783344970703,73.56597789916992,84.70660344970703,74.24047789916992,87.99465344970703C74.71297789916991,90.29736344970703,74.13447789916992,92.41367344970703,72.73337789916992,94.28917344970704C72.32417789916992,94.83687344970703,71.84317789916992,95.33637344970703,71.35887789916993,95.82207344970703C65.25667789916992,101.94177344970703,58.99317789916992,107.90967344970703,53.080177899169925,114.20677344970703C45.94237789916993,121.80797344970703,44.05957789916992,130.89697344970705,47.36967789916992,140.70097344970702C50.63847789916992,150.38267344970703,57.68947789916992,156.14537344970705,67.78297789916992,157.78257344970703C76.51817789916993,159.19937344970702,84.17057789916993,156.66607344970703,90.49257789916993,150.42737344970703C96.52717789916993,144.47187344970703,102.49317789916992,138.44667344970702,108.48697789916991,132.45007344970702C110.93207789916993,130.00387344970704,113.79637789916993,129.00297344970704,117.16527789916992,130.10257344970702C122.97997789916992,132.00037344970704,124.88837789916992,139.01007344970702,120.80467789916992,143.54487344970704C119.05437789916992,145.48847344970704,117.13657789916992,147.28167344970703,115.28297789916992,149.13147344970702C110.53307789916992,153.871973449707,105.84707789916992,158.67907344970703,101.00667789916992,163.32557344970704C92.88557789916993,171.12167344970703,83.12087789916993,174.92297344970703,71.55847789916993,174.913873449707Z" fill="#5C2D25" fill-opacity="1" style="mix-blend-mode:passthrough"/></g><g><path d="M132.54738903808595,29.091125591479493C153.71698903808596,28.773941391479493,169.04708903808594,44.66755439147949,173.09688903808592,59.15055439147949C177.61848903808595,75.32105439147949,174.33418903808592,89.7929543914795,162.43278903808596,101.95965439147949C156.41198903808595,108.1147543914795,150.28958903808592,114.17115439147949,144.16768903808594,120.2261543914795C141.88738903808593,122.4816543914795,139.14778903808593,123.57955439147949,135.93318903808594,122.5797543914795C132.68258903808595,121.5686543914795,130.54778903808594,119.3947543914795,129.87628903808593,116.0030543914795C129.35928903808593,113.39325439147949,130.10888903808592,111.0612543914795,131.89028903808594,109.1074543914795C133.10258903808594,107.7779543914795,134.40748903808594,106.53295439147949,135.68018903808593,105.2591543914795C140.65498903808594,100.27935439147949,145.66178903808594,95.33085439147949,150.60498903808593,90.3195543914795C160.17278903808594,80.6199543914795,160.80798903808594,65.18375439147948,152.10138903808593,54.9457543914795C142.48278903808594,43.63545439147949,124.94558903808593,42.67205439147949,114.25608903808595,52.99145439147949C107.94448903808593,59.084854391479496,101.81668903808594,65.36875439147948,95.61558903808594,71.5763543914795C93.51478903808594,73.6790543914795,91.03890903808593,74.76535439147949,88.06469903808593,74.18205439147948C84.77386903808593,73.53665439147949,82.53707903808593,71.5079543914795,81.50390903808594,68.34905439147948C80.48626903808594,65.23855439147948,81.32849403808594,62.44625439147949,83.59344903808594,60.14105439147949C87.44821903808594,56.217554391479496,91.35238903808593,52.34275439147949,95.25078903808594,48.462354391479494C98.15088903808594,45.57565439147949,100.98298903808593,42.61185439147949,104.00588903808594,39.85885439147949C111.97688903808594,32.599624391479495,121.43098903808594,29.101547391479492,132.54738903808595,29.091125591479493Z" fill="#5C2D25" fill-opacity="1" style="mix-blend-mode:passthrough"/></g><g><path d="M26.6582924118042,68.5844762171875C29.8969924118042,68.5844762171875,33.1472924118042,68.4114110171875,36.371392411804194,68.6287266171875C40.3201924118042,68.8947786171875,43.1638924118042,72.0182576171875,43.3071924118042,75.9847176171875C43.3525924118042,77.2396876171875,43.2585924118042,78.5590076171875,42.9119924118042,79.75730761718751C42.0138924118042,82.8619076171875,39.7799924118042,84.5550076171875,36.6441924118042,85.0970076171875C36.0024924118042,85.2079076171875,35.3411924118042,85.2476076171875,34.6889924118042,85.2490076171875C29.3201924118042,85.2606076171875,23.9514924118042,85.2606076171875,18.5827324118042,85.2525076171875C16.9291724118042,85.2499076171875,15.3267324118042,84.9951076171875,13.851122411804198,84.1810076171875C10.8163334118042,82.5066076171875,9.272685411804199,78.8285076171875,10.021304411804199,75.0372976171875C10.7565534118042,71.3136676171875,13.2627624118042,68.8542516171875,17.0414524118042,68.6078526171875C20.234292411804198,68.3998146171875,23.4513924118042,68.5650060171875,26.6576924118042,68.5650060171875C26.6576924118042,68.5650060171875,26.6582924118042,68.5844762171875,26.6582924118042,68.5844762171875Z" fill="#5C2D25" fill-opacity="1" style="mix-blend-mode:passthrough"/></g><g><path d="M177.55708266601562,118.86798096044922C180.7631826660156,118.86798096044922,183.98148266601564,118.69238326044922,187.17238266601564,118.91198796044922C191.23728266601563,119.19183396044922,194.01918266601564,122.32080196044922,194.21488266601563,126.39783196044922C194.38308266601564,129.90017196044923,193.37208266601561,132.88657196044923,190.07378266601563,134.51737196044922C188.74888266601562,135.17247196044923,187.12968266601564,135.47097196044922,185.63538266601563,135.50197196044923C180.20368266601562,135.6152719604492,174.76798266601563,135.5664719604492,169.33385266601562,135.5391719604492C165.99840266601564,135.5221719604492,163.15063266601564,134.41217196044923,161.66228666601563,131.23397196044922C160.17882766601562,128.06628196044923,160.29796766601564,124.84985196044921,162.35546266601563,121.91437196044922C164.02337266601563,119.53479096044921,166.5317326660156,118.78161666044922,169.30736266601562,118.75665326044921C172.0569826660156,118.73187306044922,174.80708266601562,118.75134324044922,177.5568826660156,118.75134324044922C177.5568826660156,118.79010056044922,177.55708266601562,118.82904096044922,177.55708266601562,118.86798096044922Z" fill="#5C2D25" fill-opacity="1" style="mix-blend-mode:passthrough"/></g><g><path d="M85.1864365600586,26.59553233947754C85.1864365600586,29.834232339477538,85.3594365600586,33.08453233947754,85.14213656005859,36.30853233947754C84.8761365600586,40.258232339477544,81.7550365600586,43.04863233947754,77.7910765600586,43.28083233947754C76.06454656005859,43.382132339477536,74.38247656005859,43.22183233947754,72.8219065600586,42.42763233947754C70.3552265600586,41.17243233947754,68.7695035600586,39.112432339477536,68.7002895600586,36.396232339477535C68.53470136005859,29.89013233947754,68.4735441600586,23.37133233947754,68.6955595600586,16.86899233947754C68.83398756005859,12.814612339477538,72.09768656005859,10.03546133947754,76.1831365600586,9.84668313947754C80.32753656005859,9.65515133947754,83.4205365600586,11.35867233947754,84.62553656005859,14.708872339477539C85.0692365600586,15.942212339477539,85.2340365600586,17.32048233947754,85.2831365600586,18.64152233947754C85.3813365600586,21.28953233947754,85.3122365600586,23.94363233947754,85.3122365600586,26.59533233947754C85.3122365600586,26.59533233947754,85.1864365600586,26.59553233947754,85.1864365600586,26.59553233947754C85.1864365600586,26.59553233947754,85.1864365600586,26.59553233947754,85.1864365600586,26.59553233947754Z" fill="#5C2D25" fill-opacity="1" style="mix-blend-mode:passthrough"/></g><g><path d="M135.48705323486328,177.48301491699218C135.48705323486328,180.6891149169922,135.66345323486328,183.9073149169922,135.4429532348633,187.0983149169922C135.1592532348633,191.2063149169922,132.0197532348633,193.9808149169922,127.87283323486328,194.16121491699218C123.79250323486328,194.3389149169922,120.72073323486327,192.6349149169922,119.50509323486328,189.32801491699217C119.07442923486329,188.15681491699218,118.85421423486328,186.84621491699218,118.83785683486329,185.59531491699218C118.76748333486329,180.1623149169922,118.78652626486328,174.7275149169922,118.81429723486328,169.29345491699218C118.83608683486328,165.0272849169922,120.85287323486328,162.1297649169922,124.46188323486328,161.05902391699217C128.8512532348633,159.7568389169922,133.3451532348633,161.57519791699218,134.8435532348633,165.4164449169922C135.33015323486327,166.6633349169922,135.51615323486328,168.0807549169922,135.5711532348633,169.43109491699218C135.68055323486328,172.1109149169922,135.60345323486328,174.7984149169922,135.60345323486328,177.4828149169922C135.56465323486327,177.4828149169922,135.5257532348633,177.48301491699218,135.48705323486328,177.48301491699218Z" fill="#5C2D25" fill-opacity="1" style="mix-blend-mode:passthrough"/></g><g><path d="M43.42283494262695,51.71941202697754C41.28593494262695,51.734312026977534,39.42333494262695,51.044312026977536,37.90683494262695,49.544312026977536C34.90565494262695,46.57581202697754,31.881084942626952,43.62831202697754,28.958584942626953,40.58351202697754C25.723815942626953,37.21341202697754,25.864028942626952,32.33474202697754,29.172534942626953,29.05219202697754C32.442304942626954,25.80817302697754,37.28833494262695,25.68939902697754,40.63463494262695,28.89447202697754C43.65883494262695,31.79102202697754,46.638334942626955,34.74126202697754,49.510334942626955,37.78801202697754C51.87473494262696,40.29661202697754,52.49393494262695,43.325112026977536,51.05963494262696,46.50461202697754C49.605134942626954,49.728812026977536,47.08923494262695,51.62831202697754,43.42283494262695,51.71941202697754Z" fill="#5C2D25" fill-opacity="1" style="mix-blend-mode:passthrough"/></g><g><path d="M152.35663036213282,160.10711826660156C152.5744645361328,157.05969826660157,154.29375953613282,154.45990826660156,157.52026953613282,153.01416626660156C160.70367953613282,151.58795726660156,163.72909953613282,152.16077246660157,166.2420995361328,154.52557826660157C169.3151995361328,157.41699826660155,172.28809953613282,160.42035826660157,175.20689953613282,163.46864826660158C178.3383995361328,166.73924826660155,178.2406995361328,171.54464826660157,175.1063995361328,174.79214826660157C171.9879995361328,178.02324826660157,167.0009995361328,178.33624826660156,163.7053995361328,175.28044826660155C160.4924995361328,172.30104826660155,157.4480595361328,169.13694826660156,154.3930695361328,165.99244826660157C153.00177153613282,164.56024826660155,152.34222603613281,162.55274826660155,152.35663036213282,160.10711826660156Z" fill="#5C2D25" fill-opacity="1" style="mix-blend-mode:passthrough"/></g></g></g></svg>