<svg xmlns="http://www.w3.org/2000/svg" xmlns:xlink="http://www.w3.org/1999/xlink" fill="none" version="1.1" width="170.75634765625" height="170.70849609375" viewBox="0 0 170.75634765625 170.70849609375"><defs><mask id="master_svg0_0_1219" style="mask-type:alpha" maskUnits="objectBoundingBox"><g><rect x="0" y="0" width="170.7563934326172" height="170.7083282470703" rx="0" fill="#FFFFFF" fill-opacity="1"/></g></mask></defs><g><g mask="url(#master_svg0_0_1219)"><g><path d="M170.73288008740911,105.37299919673428C170.3668800874091,97.73109919673428,164.6698800874091,91.81069919673428,157.18688008740912,91.29549919673428C157.0598800874091,91.28679919673428,156.9318800874091,91.27839919673428,156.8038800874091,91.27089919673428C156.8038800874091,91.27089919673428,156.8038800874091,91.14149919673427,156.8038800874091,91.14149919673427C156.8038800874091,91.14149919673427,148.5758800874091,91.14149919673427,148.5758800874091,91.14149919673427C147.8798800874091,91.14149919673427,147.1838800874091,91.14009919673428,146.4878800874091,91.13859919673428C145.7798800874091,91.13709919673428,145.0718800874091,91.13559919673428,144.36388008740911,91.13559919673428C143.3568800874091,91.13559919673428,142.5158800874091,91.13869919673428,141.72888008740912,91.14529919673429C141.7528800874091,91.12049919673429,141.7778800874091,91.09579919673428,141.8018800874091,91.07109919673428C153.6108800874091,78.99879919673428,157.4028800874091,63.85619919673428,152.7678800874091,47.28059919673428C150.5758800874091,39.44209919673428,145.4438800874091,31.720199196734278,138.68688008740912,26.09479919673428C130.8428800874091,19.56379919673428,121.41888008740911,16.111799196734278,111.43488008740911,16.111799196734278C111.2398800874091,16.111799196734278,111.04388008740911,16.11309919673428,110.84788008740911,16.11569919673428C99.46988008740911,16.13909919673428,89.59228008740911,19.89189919673428,81.4906800874091,27.27019919673428C80.8520800874091,27.85189919673428,80.22848008740911,28.439599196734278,79.6148800874091,29.02939919673428C79.6148800874091,29.02939919673428,79.6148800874091,22.25449919673428,79.6148800874091,22.25449919673428C79.6148800874091,21.62689919673428,79.6195800874091,20.99929919673428,79.62458008740911,20.37159919673428C79.63708008740912,18.73659919673428,79.64988008740912,17.04569919673428,79.58478008740911,15.29409919673428C79.5039800874091,13.11319919673428,79.16698008740912,11.22559919673428,78.55488008740912,9.523479196734279C76.4418800874091,3.6491591967342796,70.9680800874091,-8.032657206058502e-7,64.26918008740911,-8.032657206058502e-7C63.97258008740911,-8.032657206058502e-7,63.66958008740911,0.007074716734279394,63.36898008740911,0.020896696734279394C59.77118008740911,0.1870891967342794,56.38508008740911,1.5592491967342794,53.83448008740911,3.884459196734279C51.01628008740911,6.453689196734279,49.391680087409114,9.987339196734279,49.26038008740911,13.83509919673428C49.11478008740911,18.10709919673428,49.09698008740911,22.73409919673428,49.20708008740911,28.24269919673428C48.69168008740911,27.45459919673428,48.09438008740911,26.69689919673428,47.41598008740911,25.97719919673428C45.14478008740911,23.56739919673428,42.69068008740911,21.10769919673428,39.69318008740911,18.236899196734278C36.83568008740911,15.49969919673428,33.141680087409114,13.99219919673428,29.29228008740911,13.99219919673428C25.31788008740911,13.99219919673428,21.52648008740911,15.58239919673428,18.61638008740911,18.46969919673428C15.75138008740911,21.31229919673428,14.12698008740911,25.02709919673428,14.04278008740911,28.92979919673428C13.95708008740911,32.90019919673428,15.467580087409111,36.70979919673428,18.29628008740911,39.656799196734276C20.37448008740911,41.82189919673428,22.50688008740911,43.92529919673428,24.56918008740911,45.95959919673428C25.02428008740911,46.408499196734276,25.479380087409112,46.85749919673428,25.93388008740911,47.30689919673428C26.62448008740911,47.99009919673428,27.36478008740911,48.592799196734276,28.148580087409112,49.11349919673428C27.87538008740911,49.11029919673428,27.59718008740911,49.108199196734276,27.30608008740911,49.108199196734276C26.40598008740911,49.108199196734276,25.52418008740911,49.12269919673428,24.67168008740911,49.13669919673428C24.46118008740911,49.140099196734276,24.25408008740911,49.14359919673428,24.04898008740911,49.14669919673428C24.04898008740911,49.14669919673428,22.30668008740911,49.14669919673428,22.30668008740911,49.14669919673428C21.54828008740911,49.14669919673428,20.77918008740911,49.13449919673428,19.96518008740911,49.121699196734276C19.12298008740911,49.10839919673428,18.25208008740911,49.094499196734276,17.36398008740911,49.094499196734276C15.98378008740911,49.094499196734276,14.82748008740911,49.12809919673428,13.72448008740911,49.19999919673428C6.929560087409111,49.64299919673428,1.6655400874091102,54.35159919673428,0.31395508740911027,61.19609919673428C-1.0086699125908898,67.89529919673429,1.9256900874091103,74.50549919673428,7.61539008740911,77.64439919673428C9.94916008740911,78.93229919673428,12.54048008740911,79.56059919673427,15.53698008740911,79.56499919673428C17.58498008740911,79.56809919673428,19.63288008740911,79.56989919673428,21.68088008740911,79.56989919673428C24.13538008740911,79.56989919673428,26.59028008740911,79.56729919673428,29.044880087409112,79.56199919673428C29.05548008740911,79.56199919673428,29.06568008740911,79.56139919673429,29.07658008740911,79.56139919673429C29.06258008740911,79.57549919673428,29.04878008740911,79.58969919673427,29.03478008740911,79.60379919673429C17.16868008740911,91.70669919673428,13.37188008740911,106.87899919673428,18.05508008740911,123.48099919673427C20.323880087409112,131.52299919673428,25.39678008740911,139.08899919673428,32.33968008740911,144.78399919673427C40.16358008740911,151.20299919673428,49.52468008740911,154.59599919673428,59.41068008740911,154.59499919673428C59.58308008740911,154.59499919673428,59.75698008740911,154.59399919673427,59.93048008740911,154.5919991967343C71.74478008740911,154.58799919673427,81.93498008740912,150.55399919673428,90.21788008740911,142.6029991967343C90.5450800874091,142.28899919673427,90.86858008740911,141.97099919673428,91.19418008740911,141.65599919673429C91.1704800874091,146.2639991967343,91.15458008740912,150.78499919673428,91.21438008740911,155.40999919673428C91.2407800874091,157.42099919673427,91.6084800874091,159.44599919673428,92.27738008740911,161.26499919673427C94.41868008740911,167.08999919673428,99.87698008740911,170.70799919673428,106.52188008740912,170.70799919673428C106.79788008740911,170.70799919673428,107.07988008740911,170.70199919673428,107.3588800874091,170.68999919673428C115.05888008740911,170.35499919673427,121.02488008740912,164.6509991967343,121.54388008740911,157.1269991967343C121.55288008740911,156.9909991967343,121.56188008740911,156.85599919673427,121.5698800874091,156.72099919673428C121.5698800874091,156.72099919673428,121.6978800874091,156.72099919673428,121.6978800874091,156.72099919673428C121.6978800874091,156.72099919673428,121.6978800874091,148.5139991967343,121.6978800874091,148.5139991967343C121.6978800874091,147.88099919673428,121.70288008740911,147.2469991967343,121.70888008740911,146.61299919673428C121.7188800874091,145.3289991967343,121.72888008740911,144.00999919673427,121.69988008740911,142.65299919673427C122.21988008740911,143.43899919673427,122.7698800874091,144.09499919673428,123.29188008740911,144.63199919673428C123.29188008740911,144.63199919673428,123.89588008740911,145.25399919673427,123.89588008740911,145.25399919673427C126.28588008740911,147.7159991967343,128.75688008740912,150.26099919673428,131.3918800874091,152.7039991967343C134.1528800874091,155.26499919673427,137.7378800874091,156.6749991967343,141.48388008740912,156.6749991967343C145.56788008740912,156.6749991967343,149.5638800874091,154.96299919673427,152.4458800874091,151.97599919673428C155.18088008740912,149.14199919673428,156.7138800874091,145.46899919673427,156.7608800874091,141.6329991967343C156.8088800874091,137.72399919673427,155.3138800874091,133.98199919673428,152.5528800874091,131.0979991967343C149.6488800874091,128.06599919673428,147.16888008740912,125.59199919673428,144.74588008740912,123.31199919673428C144.0828800874091,122.68899919673427,143.3868800874091,122.13599919673428,142.6648800874091,121.64899919673428C142.6648800874091,121.64899919673428,143.23288008740911,121.65199919673428,143.23288008740911,121.65199919673428C145.04988008740912,121.66199919673429,146.9278800874091,121.67299919673428,148.78688008740912,121.67299919673428C151.35788008740911,121.67299919673428,153.4928800874091,121.65299919673429,155.50788008740912,121.61099919673428C157.3188800874091,121.57299919673427,160.0358800874091,121.25199919673427,162.6968800874091,119.93699919673428C168.11988008740911,117.25599919673428,171.04888008740912,111.94699919673428,170.73288008740911,105.37299919673428Z" fill="#FF90E8" fill-opacity="1" style="mix-blend-mode:passthrough"/></g><g><path d="M59.87879940185547,146.36464609375C42.48119940185547,146.60044609375,29.47741940185547,133.66784609375,25.973559401855468,121.24684609375001C22.150639401855468,107.69514609375,24.913398401855467,95.55924609375,34.909799401855466,85.36364609374999C39.95309940185547,80.21954609375,45.08479940185547,75.16204609375,50.18399940185547,70.07262609375C52.163199401855465,68.09722709375,54.52179940185547,67.27484009375,57.23249940185547,68.15151809375C59.879399401855466,69.00750609375,61.55859940185547,70.88088609375001,62.122999401855466,73.63226609375C62.51839940185547,75.55911609375,62.03429940185547,77.32998609375,60.86189940185547,78.89944609375C60.51949940185547,79.35764609375,60.116999401855466,79.77564609375,59.711799401855465,80.18204609375C54.60549940185547,85.30294609375,49.364399401855465,90.29674609375,44.41649940185547,95.56604609375C38.44369940185547,101.92664609375001,36.86819940185547,109.53214609375,39.63799940185547,117.73594609375C42.37329940185547,125.83744609375,48.27339940185547,130.65944609375,56.719499401855465,132.02944609374998C64.02899940185547,133.21504609375,70.43229940185546,131.09514609375,75.72249940185546,125.87474609374999C80.77209940185547,120.89134609375,85.76429940185547,115.84954609375,90.77989940185547,110.83174609375C92.82579940185546,108.78474609375,95.22259940185548,107.94724609375001,98.04159940185546,108.86734609375C102.90729940185547,110.45544609375,104.50419940185547,116.32104609375,101.08709940185547,120.11564609375C99.62239940185547,121.74204609374999,98.01759940185546,123.24244609375,96.46659940185548,124.79044609375C92.49199940185547,128.75714609375,88.57079940185547,132.77964609375,84.52049940185546,136.66764609375C77.72489940185547,143.19134609374998,69.55399940185546,146.37214609375002,59.87879940185547,146.36464609375Z" fill="#5C2D25" fill-opacity="1" style="mix-blend-mode:passthrough"/></g><g><path d="M110.91319741210938,24.342896050463867C128.6274974121094,24.077484350463866,141.4553974121094,37.376987350463864,144.8441974121094,49.495987350463864C148.62779741210937,63.02718735046387,145.87959741210938,75.13708735046387,135.92069741210938,85.31788735046388C130.88259741210936,90.46838735046387,125.75949741210937,95.53628735046387,120.63679741210937,100.60298735046386C118.72869741210937,102.49028735046387,116.43619741210938,103.40898735046386,113.74629741210939,102.57238735046387C111.02629741210937,101.72628735046386,109.23989741210937,99.90728735046386,108.67799741210938,97.06918735046386C108.24539741210938,94.88528735046387,108.87269741210937,92.93388735046386,110.36329741210938,91.29898735046386C111.37769741210937,90.18648735046386,112.46959741210938,89.14478735046387,113.53459741210938,88.07878735046387C117.69749741210939,83.91178735046387,121.88699741210937,79.77098735046387,126.02339741210938,75.57768735046386C134.02949741210938,67.46128735046386,134.56099741210937,54.54448735046387,127.27559741210938,45.97748735046387C119.22689741210937,36.51328735046387,104.55209741210938,35.70718735046387,95.60739741210938,44.34228735046386C90.32589741210937,49.44108735046387,85.19829741210938,54.69928735046386,80.00929741210938,59.89378735046387C78.25149741210937,61.65328735046387,76.17962741210937,62.562187350463866,73.69085741210938,62.074187350463866C70.93719741210937,61.534087350463864,69.06549741210938,59.83648735046387,68.20092941210937,57.193187350463866C67.34936741210937,54.59038735046387,68.05414041210938,52.25378735046387,69.94940741210938,50.32488735046387C73.17498741210937,47.04178735046386,76.44189741210937,43.79938735046387,79.70399741210937,40.55238735046387C82.13079741210937,38.136887350463866,84.50059741210937,35.656787350463865,87.03019741210937,33.35314735046387C93.70009741210937,27.278747350463867,101.61119741210938,24.35162405046387,110.91319741210938,24.342896050463867Z" fill="#5C2D25" fill-opacity="1" style="mix-blend-mode:passthrough"/></g><g><path d="M22.307150772094726,57.39016584951172C25.017250772094727,57.39016584951172,27.737050772094726,57.245359949511716,30.434950772094727,57.42718374951172C33.73915077209473,57.64980974951172,36.11875077209473,60.26349074951172,36.23865077209473,63.58255074951172C36.276650772094726,64.63269074951172,36.19805077209473,65.73663074951172,35.90795077209472,66.73938074951172C35.15645077209473,69.33723074951172,33.287150772094726,70.75403074951171,30.663150772094728,71.20753074951172C30.126250772094725,71.30033074951172,29.572850772094725,71.33353074951172,29.027050772094725,71.33473074951172C24.534550772094725,71.34443074951172,20.04215077209473,71.34443074951172,15.549680772094726,71.33763074951172C14.166010772094726,71.33553074951172,12.825120772094728,71.12223074951171,11.590350772094727,70.44103074951173C9.050903772094726,69.03993074951171,7.759208772094727,65.96222074951172,8.385638772094726,62.78976074951172C9.000880772094726,59.67389074951172,11.098030772094727,57.61590474951172,14.259960772094725,57.409727649511716C16.931710772094725,57.23565534951172,19.623750772094727,57.373869449511716,22.306650772094727,57.373869449511716C22.306650772094727,57.373869449511716,22.307150772094726,57.39016584951172,22.307150772094726,57.39016584951172Z" fill="#5C2D25" fill-opacity="1" style="mix-blend-mode:passthrough"/></g><g><path d="M148.57651606445313,99.4664948569336C151.25931606445312,99.4664948569336,153.95221606445313,99.31952185693359,156.62231606445312,99.5032988569336C160.02381606445311,99.73749085693359,162.35171606445311,102.3557158569336,162.51541606445312,105.7673358569336C162.65611606445313,108.69800585693359,161.81011606445313,111.1969158569336,159.05021606445314,112.5616158569336C157.94151606445314,113.10971585693359,156.58661606445312,113.3595158569336,155.33621606445314,113.38541585693359C150.79111606445312,113.4802158569336,146.24251606445313,113.43941585693359,141.69544606445314,113.41661585693359C138.90436606445311,113.4024158569336,136.52142606445312,112.47361585693359,135.27600806445312,109.8141158569336C134.03467506445313,107.1634558569336,134.13434506445313,104.4719858569336,135.85602606445312,102.0156258569336C137.25171606445312,100.0244778569336,139.35065606445312,99.39422895693359,141.67328606445312,99.37335485693359C143.97406606445313,99.3526029569336,146.27531606445314,99.3688993169336,148.57631606445312,99.3688993169336C148.57631606445312,99.40130895693359,148.57651606445313,99.4339017569336,148.57651606445313,99.4664948569336Z" fill="#5C2D25" fill-opacity="1" style="mix-blend-mode:passthrough"/></g><g><path d="M71.28242893676757,22.25464546661377C71.28242893676757,24.96474546661377,71.42722893676758,27.68454546661377,71.24532893676758,30.38224546661377C71.02272893676758,33.68734546661377,68.41102893676758,36.02224546661377,65.09408893676758,36.21664546661377C63.64938893676758,36.30134546661377,62.24184893676758,36.16724546661377,60.935978936767576,35.50264546661377C58.87191893676758,34.45234546661377,57.545013936767575,32.72854546661377,57.48709193676758,30.45564546661377C57.34854223676758,25.011445466613768,57.29736423676758,19.55674546661377,57.483154936767576,14.11565546661377C57.59896993676758,10.72302546661377,60.32998893676758,8.39748446661377,63.74859893676758,8.23952136661377C67.21654893676758,8.07925046661377,69.80472893676757,9.504715466613769,70.81312893676758,12.30810546661377C71.18432893676757,13.34014546661377,71.32222893676757,14.49345546661377,71.36332893676757,15.59887546661377C71.44542893676758,17.814665466613768,71.38762893676758,20.03554546661377,71.38762893676758,22.25444546661377C71.38762893676758,22.25444546661377,71.28242893676757,22.25464546661377,71.28242893676757,22.25464546661377C71.28242893676757,22.25464546661377,71.28242893676757,22.25464546661377,71.28242893676757,22.25464546661377Z" fill="#5C2D25" fill-opacity="1" style="mix-blend-mode:passthrough"/></g><g><path d="M113.373034765625,148.51443413085937C113.373034765625,151.19713413085938,113.520634765625,153.89013413085937,113.336134765625,156.56023413085939C113.098734765625,159.99783413085936,110.471734765625,162.31943413085938,107.00161476562499,162.47043413085936C103.587254765625,162.61903413085938,101.016874765625,161.19323413085937,99.999665765625,158.42603413085936C99.639252765625,157.44593413085937,99.454987765625,156.34933413085938,99.441315865625,155.30263413085936C99.382416965625,150.7563341308594,99.398347135625,146.20863413085937,99.421601565625,141.66149413085938C99.439851065625,138.09166413085939,101.127474765625,135.66704413085938,104.147374765625,134.77111113085937C107.820344765625,133.6814501308594,111.580734765625,135.20299613085936,112.834634765625,138.41729413085937C113.241734765625,139.46068413085936,113.397334765625,140.64672413085938,113.443434765625,141.7766641308594C113.534934765625,144.01915413085936,113.470434765625,146.26803413085938,113.470434765625,148.51423413085936C113.437934765625,148.51423413085936,113.405334765625,148.51443413085937,113.373034765625,148.51443413085937Z" fill="#5C2D25" fill-opacity="1" style="mix-blend-mode:passthrough"/></g><g><path d="M36.33537703857422,43.277826562499996C34.54727703857422,43.2903265625,32.98867703857422,42.7129265625,31.719697038574218,41.4577265625C29.20838703857422,38.973726562500005,26.67748703857422,36.5073265625,24.231997038574217,33.9595265625C21.52520803857422,31.1395065625,21.642533038574218,27.0570865625,24.41102703857422,24.3103065625C27.14710703857422,21.5957875625,31.20220703857422,21.4964075625,34.00227703857422,24.1783565625C36.53287703857422,26.6021165625,39.026077038574215,29.0708265625,41.42927703857422,31.620306562499998C43.40777703857422,33.719426562500004,43.92597703857422,36.2536265625,42.72577703857422,38.914226562500005C41.50857703857422,41.612126562499995,39.40337703857422,43.201626562499996,36.33537703857422,43.277826562499996Z" fill="#5C2D25" fill-opacity="1" style="mix-blend-mode:passthrough"/></g><g><path d="M127.48907813516797,133.9745444189453C127.67132897216797,131.4244944189453,129.10998397216798,129.2490844189453,131.80987397216796,128.03936441894533C134.47369397216798,126.8458834189453,137.00531397216798,127.32525311894531,139.10818397216798,129.30401441894531C141.67968397216796,131.7235644189453,144.16738397216795,134.2366344189453,146.60978397216797,136.7875344189453C149.23018397216796,139.5242544189453,149.14828397216797,143.54525441894532,146.52568397216797,146.26275441894532C143.91628397216797,148.96635441894531,139.74318397216797,149.22835441894532,136.98553397216796,146.67135441894533C134.29700397216797,144.1782544189453,131.74945397216797,141.53055441894531,129.19311397216796,138.8993544189453C128.02887297216796,137.7008544189453,127.47699317216797,136.0210544189453,127.48907813516797,133.9745444189453Z" fill="#5C2D25" fill-opacity="1" style="mix-blend-mode:passthrough"/></g></g></g></svg>