<svg xmlns="http://www.w3.org/2000/svg" xmlns:xlink="http://www.w3.org/1999/xlink" fill="none" version="1.1" width="144.1458740234375" height="247.4755859375" viewBox="0 0 144.1458740234375 247.4755859375"><defs><mask id="master_svg0_0_713" style="mask-type:alpha" maskUnits="objectBoundingBox"><g><rect x="0" y="0" width="144.1459197998047" height="247.47607421875" rx="0" fill="#FFFFFF" fill-opacity="1"/></g></mask></defs><g><g mask="url(#master_svg0_0_713)"><g><path d="M140.49801269002404,41.1026C144.29301269002406,36.9435,145.31801269002406,30.7581,142.66401269002404,25.3995C140.63101269002405,21.2957,136.70401269002406,18.4404,132.29601269002404,17.7136C132.32001269002404,16.7143,132.24101269002406,15.7137,132.05001269002406,14.727C131.31401269002404,10.939,129.08801269002404,7.69258,125.78101269002406,5.58572C123.49801269002405,4.13078,120.88201269002406,3.36185,118.21501269002405,3.36185C113.33301269002405,3.36185,108.80801269002406,5.9209,106.11301269002405,10.2062C105.82701269002405,10.6607,105.54901269002406,11.1111,105.27601269002405,11.5573C100.72301269002405,7.42652,95.18611269002405,4.31852,88.74691269002405,2.33099C83.66541269002406,0.762486,78.36581269002404,0,72.54531269002405,0C69.65341269002406,0,66.68591269002405,0.187742,63.47331269002405,0.573361C55.21711269002405,1.56482,47.12731269002405,3.64542,40.62711269002405,5.31713C35.84581269002405,6.54701,31.75121269002405,8.24198,28.109012690024052,10.4995C20.23651269002405,15.3792,15.08571269002405,23.125,13.21331269002405,32.8993C11.79551269002405,40.3018,10.59671269002405,47.7841,9.43754269002405,55.0201C9.13139269002405,56.9312,8.825252690024051,58.8425,8.515192690024051,60.7526C6.94437269002405,70.426,5.09944269002405,81.8727,3.3238326900240502,93.4247C2.3289226900240503,99.8967,1.1937126900240502,107.425,0.31075269002405026,114.868C-0.5164633099759498,121.842,0.30983169002405025,128.173,2.76660269002405,133.686C4.58205269002405,137.759,6.97547269002405,141.378,9.07634269002405,144.45C12.70541269002405,149.756,17.52611269002405,152.882,21.80501269002405,154.866C21.08191269002405,159.247,20.69971269002405,163.581,21.04831269002405,168.26C21.73501269002405,177.485,25.66101269002405,184.827,32.29071269002405,189.542C32.28631269002405,193.291,32.28561269002405,197.041,32.28611269002405,200.743C27.66761269002405,201.558,22.45281269002405,202.726,17.38101269002405,205.376C14.975312690024051,206.634,12.66601269002405,208.376,10.70221269002405,210.417C6.72599269002405,214.549,5.3694226900240505,220.215,6.94023269002405,225.63C7.17450269002405,230.995,9.725262690024051,235.862,14.274112690024051,239.524C18.34251269002405,242.8,23.31871269002405,244.771,29.06501269002405,245.383C35.29981269002405,246.047,41.40341269002405,246.532,46.02491269002405,246.881C51.34061269002405,247.281,56.13571269002405,247.476,60.68461269002405,247.476C67.81051269002405,247.476,74.31471269002405,247,80.56911269002406,246.02C87.99011269002405,244.857,93.62451269002405,243.339,98.83771269002405,241.098C108.56701269002404,236.915,111.47301269002405,229.725,112.19701269002405,224.43C113.35301269002404,215.974,109.20801269002405,211.096,106.63601269002405,208.941C104.45201269002405,207.112,102.14301269002405,205.652,99.77291269002406,204.601C94.22111269002406,202.14,88.60271269002405,200.998,83.20171269002405,200.219C83.20171269002405,195.343,83.20101269002404,190.37,83.19311269002405,185.414C86.33571269002405,182.543,88.71001269002404,179.429,90.39411269002404,175.984C92.71711269002405,171.232,94.33261269002405,166.32,95.19601269002405,161.382C95.35401269002405,160.478,95.52011269002405,159.522,95.68851269002406,158.53C100.22301269002405,156.411,103.95101269002404,152.978,106.66101269002405,148.378C107.93901269002404,146.21,109.03001269002405,143.833,109.90401269002405,141.313C111.59201269002405,136.449,112.05801269002406,131.754,112.46901269002404,127.612C112.52001269002405,127.097,112.57101269002405,126.583,112.62501269002405,126.069C113.10301269002404,121.471,113.59001269002405,116.874,114.07801269002405,112.277C114.78701269002406,105.587,115.52001269002405,98.6686,116.21401269002405,91.8493C117.30801269002406,81.0969,118.35201269002405,70.3574,119.32701269002405,60.2294C119.32701269002405,60.2294,119.49101269002405,60.2212,119.49101269002405,60.2212C119.53501269002405,60.2188,119.57901269002404,60.2177,119.62101269002405,60.2177C119.83201269002404,60.2177,120.39201269002405,60.2177,121.47101269002405,60.8385C123.68601269002406,62.1135,126.17501269002405,62.7876,128.66801269002406,62.7876C133.42501269002406,62.7876,137.82101269002405,60.3732,140.42701269002404,56.3295C142.49701269002406,53.1169,143.18701269002406,49.3125,142.37001269002405,45.6174C142.01001269002404,43.9894,141.37401269002405,42.4684,140.49801269002404,41.1026Z" fill="#FFFFFF" fill-opacity="1" style="mix-blend-mode:passthrough"/></g><g><path d="M71.73882091369629,210.49996436309814C73.9429209136963,210.72696436309815,76.11632091369628,210.90896436309814,78.2784209136963,211.18096436309816C84.02592091369628,211.90396436309814,89.7574209136963,212.75996436309813,95.10522091369629,215.13096436309814C96.58682091369629,215.78796436309815,97.99432091369628,216.72796436309815,99.2403209136963,217.77096436309813C100.79232091369629,219.07096436309814,101.0678209136963,220.80496436309815,100.78542091369629,222.86896436309814C100.2343209136963,226.89996436309815,97.68842091369629,229.05496436309815,94.28862091369629,230.51596436309813C89.32942091369628,232.64896436309814,84.09382091369629,233.80896436309814,78.78662091369628,234.64096436309813C68.19132091369629,236.30096436309813,57.54462091369629,236.19796436309815,46.89082091369629,235.39496436309815C41.34972091369629,234.97696436309815,35.80962091369629,234.51796436309814,30.28472091369629,233.92996436309815C27.09352091369629,233.58996436309815,24.06532091369629,232.61996436309815,21.49725091369629,230.55296436309814C19.467800913696287,228.91896436309815,18.247820913696287,226.91296436309815,18.46551091369629,224.19996436309813C18.49430091369629,223.84096436309815,18.39985091369629,223.43796436309813,18.25219091369629,223.10396436309816C17.482790913696288,221.36396436309815,17.751400913696287,219.70196436309814,19.00201091369629,218.40296436309814C20.069720913696287,217.29296436309815,21.35351091369629,216.29596436309814,22.71632091369629,215.58396436309815C26.69892091369629,213.50296436309816,31.072320913696288,212.62396436309814,35.459220913696285,211.88396436309816C37.87522091369629,211.47696436309815,40.318220913696294,211.22896436309816,42.74822091369629,210.90396436309814C43.08202091369629,210.85896436309815,43.41142091369629,210.77996436309814,43.80512091369629,210.70496436309816C43.80512091369629,210.70496436309816,43.80512091369629,209.73996436309815,43.80512091369629,209.73996436309815C43.80512091369629,201.03396436309814,43.79772091369629,192.32796436309815,43.81892091369629,183.62196436309816C43.82082091369629,182.92696436309814,43.687620913696286,182.52596436309815,42.965220913696285,182.25296436309816C36.13232091369629,179.67496436309816,33.05592091369629,174.40996436309814,32.53442091369629,167.40496436309814C32.09352091369629,161.48396436309815,33.259320913696286,155.72896436309816,34.49542091369629,149.98896436309815C34.67992091369629,149.13096436309814,34.87712091369629,148.27596436309815,35.084920913696294,147.34696436309815C33.39822091369629,146.82696436309814,31.71082091369629,146.36796436309814,30.06592091369629,145.78796436309815C25.54722091369629,144.19496436309814,21.36157091369629,142.00996436309813,18.58391091369629,137.94796436309815C16.628170913696287,135.08796436309814,14.690170913696289,132.14496436309815,13.287060913696289,128.99696436309813C11.496711713696289,124.97996436309815,11.234332913696289,120.55896436309814,11.748492913696289,116.22396436309815C12.582850913696289,109.18956436309814,13.631440913696288,102.17786436309814,14.707900913696289,95.17476436309815C16.378460913696287,84.30736436309815,18.12204091369629,73.45126436309815,19.884280913696287,62.598464363098145C21.37608091369629,53.41126436309815,22.77532091369629,44.20456436309814,24.52572091369629,35.06576436309814C25.70132091369629,28.928564363098143,28.656320913696288,23.711264363098145,34.17732091369629,20.289254363098145C37.07152091369629,18.495224363098146,40.21982091369629,17.314644363098147,43.49622091369629,16.471984363098144C50.544220913696286,14.659304363098144,57.60292091369629,12.878864363098145,64.84672091369629,12.009033363098144C71.75932091369629,11.179050363098144,78.6371209136963,11.264515363098145,85.35022091369629,13.336584363098144C96.8032209136963,16.871434363098146,103.79482091369628,24.682664363098144,106.8525209136963,36.145964363098145C108.6145209136963,42.751064363098145,108.78942091369629,49.47696436309815,108.13982091369628,56.238464363098146C107.03682091369629,67.72276436309815,105.92302091369629,79.20606436309815,104.75542091369628,90.68366436309815C103.59552091369629,102.08506436309814,102.35452091369629,113.47796436309814,101.1684209136963,124.87696436309814C100.72432091369629,129.14496436309815,100.44172091369629,133.44796436309815,99.02292091369628,137.53696436309815C98.4244209136963,139.26096436309814,97.66292091369628,140.96096436309816,96.73752091369629,142.53196436309815C94.5597209136963,146.22796436309815,91.31972091369629,148.52096436309813,87.05162091369628,149.24296436309814C86.04702091369629,149.41296436309815,85.40202091369629,149.76796436309814,85.23852091369629,150.89896436309814C84.82782091369629,153.73996436309815,84.34452091369629,156.56996436309814,83.8503209136963,159.39796436309814C83.14642091369629,163.42396436309815,81.83612091369629,167.26496436309816,80.04672091369629,170.92496436309816C78.33992091369629,174.41696436309815,75.60192091369629,177.03696436309815,72.4891209136963,179.27796436309814C71.94432091369629,179.67096436309814,71.66392091369629,180.04496436309813,71.66582091369628,180.75696436309815C71.69042091369629,190.34496436309814,71.68192091369629,199.93396436309814,71.68472091369628,209.52196436309814C71.68472091369628,209.82396436309816,71.71722091369628,210.12596436309815,71.73882091369629,210.49996436309814ZM82.17082091369629,60.29766436309814C85.6568209136963,61.075564363098145,88.72682091369629,62.41256436309814,91.58092091369629,64.25446436309815C91.74222091369629,64.35836436309815,91.9064209136963,64.45816436309815,92.06152091369628,64.57056436309814C93.3409209136963,65.49746436309815,93.65232091369629,66.93286436309815,92.85112091369629,68.19566436309815C92.06812091369629,69.42966436309814,90.62032091369629,69.67066436309815,89.20922091369629,68.95146436309815C87.10372091369629,67.87826436309814,84.95402091369628,66.89116436309814,82.81122091369629,65.89276436309814C82.4933209136963,65.74466436309814,82.11052091369629,65.73566436309815,81.6804209136963,65.64606436309815C81.17892091369629,70.79646436309815,80.69332091369628,75.78456436309814,80.2365209136963,80.47696436309815C83.56632091369629,82.39476436309815,86.76322091369629,84.18786436309814,89.90762091369629,86.06846436309814C91.36902091369629,86.94266436309815,91.7026209136963,88.55706436309815,90.85072091369629,89.82996436309814C90.03522091369629,91.04856436309815,88.53422091369629,91.28636436309814,87.09662091369628,90.41486436309815C86.6050209136963,90.11676436309814,86.14082091369629,89.77216436309814,85.64092091369629,89.49026436309815C83.72462091369628,88.40866436309814,81.7985209136963,87.34396436309814,79.71772091369628,86.18456436309815C79.16512091369628,91.39416436309814,78.64082091369629,96.33736436309815,78.11442091369629,101.29906436309814C78.57012091369629,101.48776436309815,78.96772091369628,101.62206436309815,79.33762091369628,101.81046436309815C82.3687209136963,103.35596436309814,85.4115209136963,104.87996436309814,88.4133209136963,106.48056436309814C89.4745209136963,107.04646436309814,89.82632091369629,108.08936436309814,89.57402091369629,109.24826436309814C89.34122091369629,110.31716436309814,88.6153209136963,111.09806436309815,87.54112091369629,111.16696436309815C86.80472091369629,111.21416436309815,85.9800209136963,110.91836436309815,85.2968209136963,110.57376436309815C82.75292091369629,109.29046436309814,80.25152091369628,107.92366436309814,77.54012091369628,106.48536436309814C77.0806209136963,110.53596436309815,76.64592091369629,114.21796436309815,76.27482091369629,117.90696436309814C76.2446209136963,118.20596436309815,76.58072091369628,118.63196436309815,76.86082091369629,118.85796436309815C78.11122091369629,119.86596436309814,79.48482091369628,120.73396436309814,80.66522091369629,121.81496436309814C84.50752091369628,125.33296436309814,87.21452091369629,129.69596436309814,89.6577209136963,134.23696436309814C90.59872091369628,135.98596436309816,91.50082091369629,137.75496436309814,92.47732091369629,139.62396436309814C92.79102091369629,139.05396436309815,93.06792091369628,138.59696436309815,93.30102091369629,138.11996436309815C94.75642091369629,135.13696436309814,95.1992209136963,131.89096436309813,95.55002091369629,128.66196436309815C96.9817209136963,115.47696436309815,98.33482091369629,102.28406436309814,99.70132091369629,89.09236436309814C100.75952091369629,78.87436436309814,101.83652091369629,68.65806436309813,102.8238209136963,58.43306436309815C103.4107209136963,52.35326436309814,103.61412091369628,46.26056436309815,102.4792209136963,40.206964363098145C101.4591209136963,34.76846436309815,99.5258209136963,29.720364363098145,95.74052091369629,25.575064363098143C90.74222091369629,20.101284363098145,84.24312091369629,17.757394363098143,77.07482091369629,16.948144363098145C71.30142091369629,16.296224363098144,65.56712091369629,16.785504363098145,59.93132091369629,18.041194363098143C53.65912091369629,19.438774363098144,47.388620913696286,20.902234363098145,41.22282091369629,22.699464363098144C35.954520913696285,24.234864363098147,32.294820913696284,27.779764363098145,30.51782091369629,33.084764363098145C30.202020913696288,34.028064363098146,29.88072091369629,34.97616436309815,29.66322091369629,35.94486436309815C29.17322091369629,38.12816436309814,28.74662091369629,40.325764363098145,28.26842091369629,42.642964363098145C28.73482091369629,42.521364363098144,28.96182091369629,42.47916436309815,29.17692091369629,42.40336436309815C35.809420913696286,40.06386436309815,42.64942091369629,38.813764363098144,49.67212091369629,38.680864363098145C52.34822091369629,38.630364363098145,55.03532091369629,38.82526436309814,57.70772091369629,39.031864363098144C59.06042091369629,39.13666436309815,59.97582091369629,40.40226436309814,59.88902091369629,41.694364363098146C59.79702091369629,43.065264363098144,58.71072091369629,44.08276436309814,57.29812091369629,44.110864363098145C56.99202091369629,44.116864363098145,56.68512091369629,44.081364363098146,56.37852091369629,44.081564363098146C52.81722091369629,44.083664363098144,49.24362091369629,43.900264363098145,45.69772091369629,44.135464363098144C39.579920913696284,44.54136436309815,33.68322091369629,46.05506436309815,28.02282091369629,48.42406436309815C27.66922091369629,48.57196436309815,27.328320913696288,49.091164363098144,27.24772091369629,49.49106436309815C26.90032091369629,51.217864363098144,26.64392091369629,52.96306436309814,26.370220913696286,54.70386436309814C25.99752091369629,57.075164363098146,25.639520913696288,59.44876436309814,25.25902091369629,61.92736436309814C27.51832091369629,61.60836436309815,29.62332091369629,61.233064363098144,31.74492091369629,61.030364363098144C34.52862091369629,60.764564363098145,37.32332091369629,60.58276436309814,40.11732091369629,60.46696436309814C41.61602091369629,60.404964363098145,42.72862091369629,61.50336436309814,42.82632091369629,62.895364363098146C42.92052091369629,64.23906436309815,41.89252091369629,65.41636436309815,40.39902091369629,65.61496436309815C39.79362091369629,65.69536436309815,39.17052091369629,65.63776436309814,38.56312091369629,65.70826436309815C34.07712091369629,66.22866436309815,29.593920913696287,66.77296436309814,25.107420913696288,67.28856436309815C24.505720913696287,67.35766436309814,24.287820913696287,67.61286436309814,24.19912091369629,68.21666436309815C23.781220913696288,71.05906436309814,23.303920913696288,73.89286436309814,22.850120913696287,76.73026436309814C22.623220913696287,78.14766436309814,22.40092091369629,79.56566436309815,22.19312091369629,80.87916436309814C26.46192091369629,80.38416436309815,30.59552091369629,79.69566436309815,34.75362091369629,79.47866436309815C39.30052091369629,79.24136436309814,43.87102091369629,79.38736436309814,48.42892091369629,79.47836436309815C49.95362091369629,79.50876436309814,50.95662091369629,80.77326436309815,50.87572091369629,82.14066436309814C50.79032091369629,83.58196436309814,49.64052091369629,84.61516436309815,48.06952091369629,84.58796436309814C46.88202091369629,84.56726436309815,45.696620913696286,84.44626436309814,44.509120913696286,84.40276436309814C36.70042091369629,84.11646436309815,28.988520913696288,84.94176436309814,21.27611091369629,86.49506436309814C20.747660913696286,89.83096436309815,20.20932091369629,93.22756436309814,19.64978091369629,96.75916436309815C20.19711091369629,96.73196436309814,20.64492091369629,96.71176436309814,21.092510913696287,96.68726436309815C27.06572091369629,96.36346436309815,33.03822091369629,96.02846436309814,39.012320913696286,95.72096436309815C40.62132091369629,95.63826436309814,41.80242091369629,96.73016436309814,41.840220913696285,98.24176436309814C41.87822091369629,99.76906436309814,40.75822091369629,100.85236436309815,39.03122091369629,100.94246436309814C34.359320913696294,101.18596436309815,29.686720913696288,101.42136436309815,25.01482091369629,101.66536436309815C22.95982091369629,101.77266436309814,20.905460913696288,101.89316436309815,18.80943091369629,102.00996436309815C18.289280913696288,105.38656436309815,17.77858091369629,108.70166436309815,17.25014091369629,112.13196436309815C35.44222091369629,111.68196436309815,53.34262091369629,112.69396436309815,71.06802091369629,116.42296436309815C71.12632091369629,116.05796436309815,71.17882091369628,115.79996436309814,71.20762091369629,115.53896436309815C72.22072091369628,106.39646436309815,73.29002091369628,97.25926436309814,74.22782091369629,88.10876436309815C75.3375209136963,77.27916436309815,76.4038209136963,66.44406436309814,77.35842091369629,55.599964363098145C78.28972091369629,45.02146436309815,79.0554209136963,34.42816436309815,79.89722091369629,23.841564363098144C80.04372091369629,21.997564363098142,81.11782091369629,20.868144363098146,82.63382091369628,20.941174363098142C84.24102091369629,21.018574363098146,85.19082091369629,22.266664363098144,85.05102091369629,24.188064363098142C84.75862091369629,28.203164363098143,84.45872091369628,32.217664363098145,84.12122091369629,36.22916436309815C84.06302091369629,36.92436436309815,84.21022091369629,37.29546436309815,84.86252091369629,37.66496436309814C87.8961209136963,39.38296436309814,90.89262091369629,41.16706436309815,93.88312091369629,42.959964363098145C95.31462091369629,43.818264363098145,95.7343209136963,45.310564363098145,94.9817209136963,46.59156436309814C94.23742091369628,47.85856436309815,92.68782091369629,48.230564363098146,91.26192091369629,47.415064363098146C89.06682091369629,46.159864363098144,86.8991209136963,44.856764363098144,84.71742091369629,43.57776436309815C84.4000209136963,43.39186436309814,84.06922091369628,43.22806436309814,83.65222091369628,43.004664363098144C83.1526209136963,48.83846436309815,82.66562091369629,54.52346436309814,82.17082091369629,60.29766436309814ZM23.11132091369629,221.20196436309814C23.10282091369629,221.34896436309813,23.094120913696287,221.49596436309815,23.08562091369629,221.64296436309814C24.264320913696288,222.21896436309814,25.40112091369629,222.91296436309815,26.62892091369629,223.35296436309815C33.070920913696284,225.65896436309814,39.80402091369629,226.48496436309816,46.56942091369629,227.01796436309814C57.25962091369629,227.85996436309816,67.94162091369628,227.71596436309815,78.58972091369628,226.35396436309816C83.15282091369629,225.77096436309813,87.68402091369629,224.99196436309813,92.02142091369629,223.39596436309813C93.2870209136963,222.92996436309815,94.47052091369629,222.24196436309813,95.6919209136963,221.65596436309815C95.67422091369629,221.46696436309816,95.6564209136963,221.27896436309814,95.63872091369629,221.08996436309815C88.18112091369629,217.09196436309816,79.9218209136963,216.58896436309814,71.6980209136963,215.67096436309814C71.67522091369628,216.12096436309815,71.67112091369629,216.31296436309813,71.65472091369628,216.50296436309816C71.52302091369629,218.03396436309814,70.5020209136963,219.04996436309816,69.08692091369629,219.06096436309815C67.65132091369628,219.07196436309815,66.61472091369629,218.08296436309814,66.48022091369629,216.54996436309816C66.4436209136963,216.13096436309814,66.45852091369629,215.70696436309814,66.4583209136963,215.28496436309814C66.4574209136963,204.77996436309814,66.45762091369629,194.27596436309815,66.45762091369629,183.77096436309813C66.45762091369629,183.77096436309813,66.45762091369629,182.30296436309814,66.45762091369629,182.30296436309814C60.67262091369629,184.23996436309815,54.94942091369629,184.52796436309814,49.01052091369629,183.76396436309815C49.01052091369629,183.76396436309815,49.01052091369629,185.23396436309815,49.01052091369629,185.23396436309815C49.01052091369629,195.73896436309815,49.01122091369629,206.24396436309814,49.00842091369629,216.74896436309814C49.00842091369629,217.20796436309814,49.01602091369629,217.67196436309814,48.95662091369629,218.12596436309815C48.76632091369629,219.57596436309814,47.69752091369629,220.49396436309814,46.29672091369629,220.44496436309814C44.926720913696286,220.39796436309814,43.89452091369629,219.36296436309814,43.81642091369629,217.92296436309815C43.78372091369629,217.31996436309814,43.810920913696286,216.71396436309814,43.810920913696286,215.95296436309815C41.79752091369629,216.21296436309814,39.90722091369629,216.42196436309814,38.02872091369629,216.70796436309814C33.93562091369629,217.33296436309814,29.87512091369629,218.11696436309813,26.02192091369629,219.69396436309813C25.01482091369629,220.10696436309814,24.07952091369629,220.69496436309814,23.11132091369629,221.20196436309814ZM44.86112091369629,149.27296436309814C44.18572091369629,151.64696436309814,43.34812091369629,154.12096436309815,42.79132091369629,156.65596436309815C41.880720913696294,160.80296436309814,40.948920913696284,164.96396436309814,40.41242091369629,169.16796436309815C39.98092091369629,172.54996436309816,41.127020913696285,173.96096436309816,44.48282091369629,174.53996436309814C48.81722091369629,175.28696436309815,53.19382091369629,175.83396436309815,57.57152091369629,176.27296436309814C61.58122091369629,176.67496436309816,62.73692091369629,175.78996436309814,63.58162091369629,171.84396436309814C65.01632091369629,165.14096436309813,66.34292091369629,158.41396436309813,67.70782091369628,151.69496436309814C67.75042091369629,151.48496436309816,67.71312091369629,151.25796436309815,67.71312091369629,151.16596436309814C60.12372091369629,150.53696436309815,52.60892091369629,149.91496436309814,44.86112091369629,149.27296436309814ZM54.14662091369629,143.88896436309815C51.65412091369629,139.97096436309815,49.77182091369629,135.98596436309816,48.65602091369629,131.64896436309814C47.53782091369629,127.30196436309815,47.39892091369629,122.89396436309815,47.999920913696286,118.28196436309814C42.37392091369629,117.96496436309815,36.89642091369629,117.65696436309814,31.351320913696288,117.34496436309814C31.38562091369629,118.07196436309815,31.386320913696288,118.49396436309814,31.42802091369629,118.91196436309815C32.220620913696294,126.87296436309815,35.10472091369629,134.03796436309813,39.713520913696286,140.53396436309814C39.92892091369629,140.83796436309814,40.35142091369629,141.07796436309815,40.722520913696286,141.17496436309816C42.832520913696285,141.72396436309813,44.94262091369629,142.28896436309813,47.07922091369629,142.71496436309815C49.41992091369629,143.18196436309813,51.78962091369629,143.50396436309813,54.14662091369629,143.88896436309815ZM74.00762091369629,144.30896436309814C69.06922091369628,137.21496436309815,66.14342091369629,129.68396436309814,66.75892091369629,120.89996436309815C62.26072091369629,120.20096436309815,57.78072091369629,119.50496436309814,53.29792091369629,118.80896436309814C53.20462091369629,119.12996436309814,53.14292091369629,119.27096436309814,53.12422091369629,119.41696436309815C51.91052091369629,128.88896436309813,54.68752091369629,137.02596436309813,61.33512091369629,143.85396436309816C61.55382091369629,144.07796436309815,61.917520913696286,144.28696436309815,62.21532091369629,144.28896436309813C66.07452091369629,144.31796436309816,69.93402091369629,144.30896436309814,74.00762091369629,144.30896436309814ZM32.224620913696285,138.42096436309816C28.55152091369629,131.77896436309814,26.545520913696286,124.80896436309814,26.07882091369629,117.44696436309815C26.07882091369629,117.44696436309815,16.99467091369629,117.44696436309815,16.99467091369629,117.44696436309815C15.409340913696289,127.15096436309814,22.30622091369629,136.67596436309816,32.224620913696285,138.42096436309816ZM88.4197209136963,143.35496436309813C85.89292091369629,138.19996436309816,83.45372091369629,133.17696436309814,79.96602091369628,128.75896436309813C78.09972091369629,126.39496436309814,75.97902091369629,124.30996436309815,73.29282091369629,122.87396436309814C72.88052091369629,122.65396436309814,72.4402209136963,122.48496436309814,71.8024209136963,122.19796436309815C71.98942091369628,130.80496436309815,74.88782091369629,137.99196436309813,80.65572091369629,144.01396436309815C80.82902091369628,144.19496436309814,81.09252091369629,144.39696436309814,81.31922091369628,144.40296436309814C83.6932209136963,144.46896436309814,86.05862091369629,144.43196436309813,88.4197209136963,143.35496436309813ZM68.43322091369629,174.40096436309815C72.45522091369628,173.10096436309814,75.08112091369628,170.67196436309814,76.0785209136963,166.66796436309815C76.46672091369629,165.10896436309815,76.73412091369629,163.52096436309813,77.1089209136963,161.95796436309814C77.99142091369629,158.27896436309814,78.90522091369628,154.60696436309814,79.77492091369629,151.06096436309815C77.7463209136963,151.06096436309815,75.68672091369629,151.03796436309815,73.6294209136963,151.09496436309814C73.41442091369629,151.10096436309814,73.08622091369628,151.55296436309814,73.02402091369629,151.84396436309814C72.34512091369629,155.02496436309815,71.70702091369628,158.21496436309815,71.06132091369629,161.40296436309814C70.19702091369629,165.66996436309813,69.33572091369629,169.93696436309816,68.43322091369629,174.40096436309815Z" fill="#874FFF" fill-opacity="1" style="mix-blend-mode:passthrough"/></g><g><path d="M111.56153012451172,30.945196028137207C109.51480512451172,30.934296028137208,108.37015112451172,28.730296028137207,109.47748212451172,26.838796028137207C110.75367012451171,24.658916028137206,112.09482012451171,22.51704602813721,113.40833012451172,20.358816028137205C114.22425012451171,19.018136028137206,115.02567012451172,17.668466028137207,115.86139012451171,16.340216028137206C116.77594012451172,14.886429278137207,118.29926012451172,14.475701028137207,119.59224012451172,15.299462028137206C120.85554012451172,16.104336028137208,121.16214012451172,17.579776028137207,120.29514012451172,19.022976028137208C118.20505012451171,22.50091602813721,116.08255012451171,25.959296028137206,113.97892012451172,29.428896028137206C113.42377012451172,30.344596028137207,112.64951012451172,30.890296028137207,111.56153012451172,30.945196028137207Z" fill="#874FFF" fill-opacity="1" style="mix-blend-mode:passthrough"/></g><g><path d="M118.40938680664063,37.64075854003906C116.93462680664062,37.646508540039065,115.77569280664062,36.652288540039066,115.64394790664062,35.267368540039065C115.51861180664062,33.952718540039065,116.43059980664063,32.69542854003906,117.87749680664062,32.542458540039064C121.80071680664062,32.12805854003906,125.50441680664062,31.057578540039064,129.03627680664061,29.297409540039062C130.30367680664062,28.66577254003906,131.7373768066406,29.28934554003906,132.34287680664062,30.511858540039064C132.95787680664063,31.75348854003906,132.5763768066406,33.184698540039065,131.29697680664063,33.874168540039065C127.27427680664063,36.042058540039065,122.95849680664062,37.251898540039065,118.40938680664063,37.64075854003906Z" fill="#874FFF" fill-opacity="1" style="mix-blend-mode:passthrough"/></g><g><path d="M118.90673779296876,48.71798953735352C118.33336779296874,48.71798953735352,117.75930779296876,48.73571953735352,117.18663779296875,48.71453953735352C115.82476779296876,48.663849537353514,114.78170479296875,47.670319537353514,114.68334656296875,46.35265953735352C114.58221129296875,44.997689537353516,115.40597279296875,43.82586453735352,116.76622779296875,43.63029253735352C121.54039779296875,42.943601537353516,125.96188779296875,43.99357453735352,130.01718779296874,46.554229537353514C131.26478779296875,47.34227953735351,131.51488779296875,48.895809537353514,130.74508779296875,50.090449537353514C129.97958779296874,51.27840953735352,128.56768779296874,51.63384953735351,127.21638779296875,50.856169537353516C124.63595779296875,49.371049537353514,121.89516779296875,48.56617953735351,118.90673779296876,48.71798953735352Z" fill="#874FFF" fill-opacity="1" style="mix-blend-mode:passthrough"/></g></g></g></svg>