<svg xmlns="http://www.w3.org/2000/svg" xmlns:xlink="http://www.w3.org/1999/xlink" fill="none" version="1.1" width="221.8291015625" height="144.328125" viewBox="0 0 221.8291015625 144.328125"><g><g transform="matrix(0.9902680516242981,-0.13917310535907745,0.13917310535907745,0.9902680516242981,-4.021552941456662,0.2812148619909749)"><path d="M207.613,90.55704949951172C207.413,97.09434949951172,205.114,103.70564949951172,200.331,109.51864949951172C199.264,110.81474949951172,197.724,112.25694949951172,196.289,113.18564949951171C188.233,118.40494949951172,175.32,116.29714949951172,172.068,106.28534949951172C171.286,104.79604949951172,170.832,103.21834949951172,170.702,101.55074949951172C169.607,104.72204949951171,168.643,107.94084949951171,167.551,111.11204949951171C163.593,122.60744949951172,157.631,134.32504949951172,146.506,140.51804949951173C136.757,145.94504949951173,124.349,147.34204949951172,113.991,142.49904949951173C103.562,137.6210494995117,98.3209,126.88114949951172,97.7951,115.75274949951172C97.4055,107.50214949951172,98.9972,99.28194949951173,100.544,91.21834949951172C101.122,88.20164949951172,102.019,85.19524949951172,102.397,82.14474949951172C102.721,79.53104949951171,103.36,76.64214949951172,103.537,74.14914949951172C102.979,74.74124949951172,102.474,75.37954949951171,101.965,76.01544949951172C95.534,84.04194949951172,91.5017,93.68304949951172,87.6225,103.11594949951171C84.1698,111.51174949951172,79.2218,119.38864949951171,70.4373,122.99274949951172C61.952,126.47384949951172,51.9606,125.65514949951172,44.1367,120.69404949951172C36.4729,115.83414949951172,31.7327,107.35164949951172,30.0304,98.58734949951172C27.4349,85.22124949951171,33.2171,72.47954949951172,36.8741,59.927449499511724C37.2324,58.69754949951172,38.7971,54.566749499511715,37.7947,53.321849499511714C36.4571,51.660949499511716,34.155,56.497349499511714,33.4792,57.64364949951172C29.4037,64.55984949951173,25.6052,71.96834949951172,22.7361,79.58544949951172C20.3859,85.82494949951172,19.5581,95.06454949951171,13.4739,98.98754949951172C10.1165,101.15104949951171,5.31378,100.27944949951171,2.55957,97.51134949951172C-1.0465,93.88704949951172,-0.225909,88.68974949951172,1.28779,84.31594949951172C4.92801,73.79854949951172,8.4167,63.37474949951172,13.1699,53.26264949951172C16.4316,46.32284949951172,20.408,39.01644949951172,26.522,34.060749499511715C33.6846,28.25556949951172,43.4027,27.425369499511717,51.7731,31.16132949951172C63.7158,36.49116949951172,69.8457,50.66764949951172,68.7249,63.217449499511716C68.3925,66.93644949951172,67.8168,70.63744949951172,66.9813,74.27854949951171C68.5518,71.37044949951172,70.2333,68.53544949951171,72.1487,65.80374949951172C83.2435,49.98044949951172,107.921,25.83417949951172,127.933,43.17904949951172C128.301,43.497849499511716,128.659,43.827449499511715,129.009,44.165649499511716C134.502,49.47574949951172,136.329,57.54894949951172,136.706,64.98324949951171C137.332,77.33294949951173,134.982,90.09054949951172,133.373,102.30354949951172C133.295,102.89324949951173,133.214,103.48544949951172,133.129,104.07894949951172C133.173,103.99044949951171,133.214,103.90044949951172,133.256,103.81054949951172C134.201,101.35454949951172,135.042,98.86004949951172,135.894,96.37084949951172C142.432,77.25594949951173,157.56,54.803449499511714,180.812,57.79414949951172C196.339,59.79134949951172,208.081,75.25254949951172,207.613,90.55704949951172Z" fill="#68FE7F" fill-opacity="1" style="mix-blend-mode:passthrough"/></g></g></svg>