<svg xmlns="http://www.w3.org/2000/svg" xmlns:xlink="http://www.w3.org/1999/xlink" fill="none" version="1.1" width="328" height="239.7158203125" viewBox="0 0 328 239.7158203125"><defs><linearGradient x1="1.850905179977417" y1="1.4606961011886597" x2="0.1314769370270357" y2="1.3724007713920114" id="master_svg0_0_5614"><stop offset="0%" stop-color="#3FA7FF" stop-opacity="1"/><stop offset="100%" stop-color="#3C5AFF" stop-opacity="1"/></linearGradient><linearGradient x1="1.850905179977417" y1="1.4606961011886597" x2="0.13111683020377682" y2="1.3584881179783892" id="master_svg1_0_5614"><stop offset="0%" stop-color="#3FA7FF" stop-opacity="1"/><stop offset="100%" stop-color="#3C5AFF" stop-opacity="1"/></linearGradient><linearGradient x1="1.850905179977417" y1="1.4606961011886597" x2="0.13143039549689983" y2="1.3709959798511053" id="master_svg2_0_5614"><stop offset="0%" stop-color="#3FA7FF" stop-opacity="1"/><stop offset="100%" stop-color="#3C5AFF" stop-opacity="1"/></linearGradient><linearGradient x1="1.850905179977417" y1="1.4606961011886597" x2="0.2511299639820859" y2="0.9035675864821655" id="master_svg3_0_5614"><stop offset="0%" stop-color="#3FA7FF" stop-opacity="1"/><stop offset="100%" stop-color="#3C5AFF" stop-opacity="1"/></linearGradient><linearGradient x1="0.5" y1="0" x2="0.5" y2="1" id="master_svg4_0_5616"><stop offset="0%" stop-color="#65DADB" stop-opacity="1"/><stop offset="100%" stop-color="#4CC4F2" stop-opacity="1"/></linearGradient><linearGradient x1="0.5" y1="0" x2="0.5" y2="1" id="master_svg5_0_5620"><stop offset="0%" stop-color="#69DED6" stop-opacity="1"/><stop offset="100%" stop-color="#4AC3F5" stop-opacity="1"/></linearGradient><linearGradient x1="0.97254878282547" y1="1" x2="0" y2="1" id="master_svg6_0_4644"><stop offset="0%" stop-color="#FFFFFF" stop-opacity="0"/><stop offset="15.896299481391907%" stop-color="#FFFFFF" stop-opacity="0.40784314274787903"/><stop offset="41.416001319885254%" stop-color="#95EBFF" stop-opacity="1"/><stop offset="59.83930230140686%" stop-color="#3DB8F9" stop-opacity="1"/><stop offset="82.01829791069031%" stop-color="#1B74D8" stop-opacity="1"/><stop offset="100%" stop-color="#0024A8" stop-opacity="1"/></linearGradient><linearGradient x1="0.02745121717453003" y1="0" x2="1" y2="0" id="master_svg7_0_4646"><stop offset="0%" stop-color="#FFFFFF" stop-opacity="0"/><stop offset="15.896299481391907%" stop-color="#FFFFFF" stop-opacity="0.40784314274787903"/><stop offset="41.416001319885254%" stop-color="#95EBFF" stop-opacity="1"/><stop offset="59.83930230140686%" stop-color="#3DB8F9" stop-opacity="1"/><stop offset="82.01829791069031%" stop-color="#1B74D8" stop-opacity="1"/><stop offset="100%" stop-color="#0024A8" stop-opacity="1"/></linearGradient><linearGradient x1="0.5" y1="0" x2="0.5" y2="1" id="master_svg8_0_5626"><stop offset="0%" stop-color="#64D9DC" stop-opacity="1"/><stop offset="100%" stop-color="#4DC6F2" stop-opacity="1"/></linearGradient><linearGradient x1="0.9999996423721313" y1="0.012658518739044666" x2="-0.10869410951079991" y2="0.4628641597628006" id="master_svg9_0_5630"><stop offset="0%" stop-color="#FD979B" stop-opacity="1"/><stop offset="100%" stop-color="#F65466" stop-opacity="1"/></linearGradient><linearGradient x1="0.5" y1="0" x2="0.5" y2="1" id="master_svga_0_5634"><stop offset="0%" stop-color="#CDF8A0" stop-opacity="1"/><stop offset="100%" stop-color="#9CF5B3" stop-opacity="1"/></linearGradient><linearGradient x1="0.5" y1="0" x2="0.5" y2="1" id="master_svgb_0_5636"><stop offset="0%" stop-color="#FFE16E" stop-opacity="1"/><stop offset="100%" stop-color="#FFBC7C" stop-opacity="1"/></linearGradient><linearGradient x1="0.5" y1="0" x2="0.5" y2="1" id="master_svgc_0_5638"><stop offset="0%" stop-color="#C9F8A1" stop-opacity="1"/><stop offset="100%" stop-color="#A0F5B1" stop-opacity="1"/></linearGradient><linearGradient x1="0.5" y1="0" x2="0.5" y2="1" id="master_svgd_0_5640"><stop offset="0%" stop-color="#FFDE70" stop-opacity="1"/><stop offset="100%" stop-color="#FFBF7B" stop-opacity="1"/></linearGradient><linearGradient x1="0.5" y1="0" x2="0.5" y2="1" id="master_svge_0_5642"><stop offset="0%" stop-color="#C3F8A3" stop-opacity="1"/><stop offset="100%" stop-color="#A5F5AF" stop-opacity="1"/></linearGradient><linearGradient x1="0.5" y1="0" x2="0.5" y2="1" id="master_svgf_0_5644"><stop offset="0%" stop-color="#FFD972" stop-opacity="1"/><stop offset="100%" stop-color="#FFC379" stop-opacity="1"/></linearGradient></defs><g><g><g><path d="M278.03738867187496,140.6103116455078C277.351088671875,140.6103116455078,276.628688671875,140.4253116455078,275.936288671875,140.0583116455078C269.852388671875,136.82831164550782,247.49438867187502,125.55831164550781,215.228148671875,116.16151164550782C213.532108671875,115.6668116455078,212.348388671875,114.09611164550782,212.348388671875,112.34091164550782C212.348388671875,112.34091164550782,212.348388671875,24.796961645507814,212.348388671875,24.796961645507814C212.348388671875,24.104821645507812,212.658019671875,23.457955645507813,213.198608671875,23.02282464550781C213.737858671875,22.586697445507813,214.437008671875,22.421570645507813,215.111508671875,22.569058345507813C236.320288671875,27.18967164550781,257.769788671875,33.82411164550781,278.866288671875,42.28801164550781C278.866288671875,42.28801164550781,278.866988671875,42.28801164550781,278.866988671875,42.28801164550781C280.375388671875,42.893511645507814,281.350588671875,44.340411645507814,281.350588671875,45.97241164550781C281.350588671875,45.97241164550781,281.350588671875,137.0873116455078,281.350588671875,137.0873116455078C281.350588671875,138.4303116455078,280.776888671875,139.54431164550783,279.777088671875,140.1463116455078C279.261688671875,140.4563116455078,278.664588671875,140.6103116455078,278.03738867187496,140.6103116455078Z" fill="#FFFFFF" fill-opacity="1" style="mix-blend-mode:passthrough"/><path d="M278.03738867187496,141.1103116455078Q279.144188671875,141.1103116455078,280.034788671875,140.5753116455078L280.034988671875,140.5753116455078Q281.850588671875,139.48131164550782,281.850588671875,137.0873116455078L281.850588671875,45.97241164550781Q281.850588671875,42.947011645507814,279.053188671875,41.82401164550781L278.963588671875,41.78801164550781L278.962888671875,41.78801164550781Q247.173688671875,29.042491645507813,215.218318671875,22.080599645507814Q213.919628671875,21.79662364550781,212.885093671875,22.63332664550781Q211.848388671875,23.467792645507814,211.848388671875,24.796961645507814L211.848388671875,112.34091164550782Q211.848388671875,113.82461164550782,212.752963671875,115.02481164550781Q213.656798671875,116.22401164550782,215.088348671875,116.64161164550781Q235.844288671875,122.68631164550781,255.205688671875,130.8823116455078Q266.964988671875,135.8613116455078,275.701888671875,140.49931164550782Q276.852888671875,141.1103116455078,278.03738867187496,141.1103116455078ZM280.850588671875,137.0873116455078Q280.850588671875,138.91631164550782,279.519388671875,139.7183116455078L279.519188671875,139.7183116455078Q278.866488671875,140.1103116455078,278.03738867187496,140.1103116455078Q277.10188867187503,140.1103116455078,276.170688671875,139.6163116455078Q267.395188671875,134.95731164550782,255.595488671875,129.9613116455078Q236.179888671875,121.74221164550781,215.367958671875,115.68141164550781Q214.255528671875,115.35701164550781,213.551538671875,114.42291164550781Q212.848388671875,113.4900116455078,212.848388671875,112.34091164550782L212.848388671875,24.796961645507814Q212.848388671875,23.946571645507813,213.512118671875,23.412321645507813Q214.175108671875,22.876116645507814,215.004708671875,23.05751764550781Q246.92408867187498,30.011571645507814,278.680188671875,42.752011645507814L278.723688671875,42.76951164550781Q280.850588671875,43.646511645507815,280.850588671875,45.97241164550781L280.850588671875,137.0873116455078Z" fill-rule="evenodd" fill="#0024A9" fill-opacity="1" style="mix-blend-mode:passthrough"/></g><g><path d="M270.1166873046875,112.6684333618164C256.12698730468753,106.6222333618164,235.83278730468749,98.62142336181641,219.5612793046875,95.2349826618164C219.2022703046875,95.16004666181641,218.8689573046875,95.4357273618164,218.8647463046875,95.8022893618164C218.8647463046875,95.8022893618164,218.7244873046875,107.9456333618164,218.7244873046875,107.9456333618164C218.7244873046875,107.9456333618164,218.7261962846875,107.94963336181641,218.7282714846875,107.9502333618164C239.1869873046875,113.9698333618164,256.6948873046875,120.5869333618164,269.4214873046875,126.81223336181641C269.8535873046875,127.02363336181641,270.3523873046875,126.7110333618164,270.3575873046875,126.2299333618164C270.3575873046875,126.2299333618164,270.5070873046875,113.2756333618164,270.5070873046875,113.2756333618164C270.5100873046875,113.01163336181641,270.3589873046875,112.77323336181641,270.1166873046875,112.6684333618164Z" fill="url(#master_svg0_0_5614)" fill-opacity="1" style="mix-blend-mode:passthrough"/></g><g><path d="M256.20309477539064,87.47489163818359C256.20469477539064,87.33179163818359,256.1180947753906,87.2035916381836,255.98429477539062,87.15329163818359C244.46529477539062,82.8363516381836,231.28409477539063,78.57826163818359,219.28997377539062,76.3583542381836C219.18493277539062,76.3390366381836,219.08837477539063,76.41993873818359,219.0870327753906,76.5271626381836C219.0870327753906,76.5271626381836,218.9714317753906,86.6479916381836,218.94842148039064,88.77699163818359C218.94604110539063,89.0096916381836,219.10302377539062,89.21149163818359,219.32696177539063,89.27399163818359C233.22659477539062,93.15929163818359,245.35629477539064,97.0820916381836,255.60249477539062,100.83609163818359C255.82189477539063,100.91659163818359,256.04979477539064,100.75479163818359,256.05249477539064,100.52149163818359C256.05249477539064,100.52149163818359,256.20309477539064,87.47489163818359,256.20309477539064,87.47489163818359C256.20309477539064,87.47489163818359,256.20309477539064,87.47489163818359,256.20309477539064,87.47489163818359Z" fill="url(#master_svg1_0_5614)" fill-opacity="1" style="mix-blend-mode:passthrough"/></g><g><path d="M261.01899052734376,68.47831524658203C248.46929052734376,63.78514524658203,233.21769052734376,58.79061524658203,219.52178952734374,56.255752336582034C219.41644252734375,56.236129546582035,219.31988552734376,56.31733684658203,219.31866452734374,56.42456024658203C219.31866452734374,56.42456024658203,219.17279052734375,69.05991524658204,219.17279052734375,69.05991524658204C219.17279052734375,69.05991524658204,219.17449950734374,69.06391524658203,219.17620849734374,69.06461524658204C235.54759052734374,73.62961524658203,249.47499052734375,77.98321524658203,260.77919052734376,82.08011524658204C260.86119052734375,82.10971524658203,260.94539052734376,82.04911524658203,260.94609052734376,81.96221524658203C260.94609052734376,81.96221524658203,261.10049052734377,68.59811524658203,261.10049052734377,68.59811524658203C261.10129052734374,68.54481524658203,261.06889052734374,68.49691524658203,261.01899052734376,68.47831524658203Z" fill="url(#master_svg2_0_5614)" fill-opacity="1" style="mix-blend-mode:passthrough"/></g><g><path d="M228.0368652734375,38.27017152832031C225.0197752734375,37.570371528320315,222.03149527343749,36.950482528320315,219.1164552734375,36.44575241832031C219.0109863734375,36.42744182832031,218.9154052734375,36.50968672832031,218.9154052734375,36.61687952832031C218.9154052734375,36.61687952832031,218.9154052734375,49.25289152832031,218.9154052734375,49.25289152832031C218.9154052734375,49.25289152832031,218.9167480434375,49.25719152832031,218.9188232434375,49.257891528320314C221.9517252734375,50.065891528320314,224.8960552734375,50.86729152832031,227.7603752734375,51.66259152832031C228.1293952734375,51.76509152832031,228.4885252734375,51.48679152832031,228.4885252734375,51.10389152832031C228.4885252734375,51.10389152832031,228.4885252734375,38.837471528320314,228.4885252734375,38.837471528320314C228.4885252734375,38.56713152832031,228.3001752734375,38.331091528320314,228.0368652734375,38.27017152832031Z" fill="url(#master_svg3_0_5614)" fill-opacity="1" style="mix-blend-mode:passthrough"/></g><g><path d="M91.22054572143554,231.49540141601562C91.22054572143554,231.49540141601562,46.62278572143555,231.49540141601562,46.62278572143555,231.49540141601562C43.45371572143554,227.5292014160156,39.84285572143555,222.58340141601562,38.632695721435546,219.02040141601563C34.196195721435544,205.99870141601562,41.28339572143555,192.8322014160156,49.17734572143554,182.82560141601562C53.49894572143555,177.35170141601563,58.26204572143555,171.86820141601564,63.91834572143554,167.72920141601563C69.21954572143555,163.84952141601562,73.42564572143554,161.28531141601562,76.41224572143554,159.6432814160156C76.87334572143556,159.38400141601562,77.30544572143555,159.15365141601563,77.70864572143554,158.95178141601562C80.06174572143556,157.70343041601564,81.42534572143555,157.1750484160156,81.71334572143554,157.07919311601563C81.73264572143555,157.07919311601563,81.74234572143556,157.06951901601562,81.75194572143555,157.0598754860156C81.76124572143556,157.05020141601562,81.77094572143554,157.05020141601562,81.77094572143554,157.05020141601562C81.77094572143554,157.05020141601562,81.77094572143554,157.0598754860156,81.77094572143554,157.0598754860156C81.79984572143555,157.69372541601564,83.19214572143554,186.53270141601564,86.44784572143556,199.70850141601562C86.44784572143556,199.45870141601563,86.44784572143556,199.21870141601562,86.42854572143554,198.96890141601563C86.39954572143554,198.34480141601563,87.36004572143554,198.35410141601562,87.38894572143555,198.96890141601563C87.45624572143555,200.32300141601561,87.41764572143555,201.67690141601562,87.28344572143556,203.01190141601563C87.86904572143555,205.2878014160156,88.48364572143555,207.5446014160156,89.13684572143555,209.79180141601563C89.30964572143554,210.3872014160156,88.38774572143555,210.63690141601563,88.21494572143556,210.04160141601562C87.76354572143555,208.50490141601563,87.35074572143554,206.94940141601563,86.92794572143555,205.39370141601563C86.53434572143556,207.38120141601564,85.92914572143555,209.31150141601563,85.11314572143554,211.15550141601562C85.11314572143554,211.15550141601562,85.11314572143554,211.16520141601563,85.11314572143554,211.16520141601563C84.39264572143554,212.80710141601563,83.49944572143555,214.37260141601564,82.45274572143555,215.85150141601562C82.22234572143554,216.1877014160156,81.97264572143555,216.51430141601563,81.72304572143554,216.84050141601563C81.52124572143555,217.09990141601563,81.31024572143555,217.35910141601562,81.09874572143555,217.60880141601564C81.08914572143556,217.62810141601562,81.06984572143554,217.6379014160156,81.06014572143555,217.65680141601564C81.28114572143555,217.9162014160156,81.49264572143554,218.17560141601564,81.68474572143555,218.46350141601562C82.19344572143555,219.22220141601562,82.52964572143554,220.03860141601564,82.75044572143554,220.88350141601563C82.82724572143555,221.18150141601564,82.89454572143555,221.47910141601562,82.95214572143556,221.7767014160156C83.00004572143555,221.8057014160156,83.03834572143555,221.8247014160156,83.08664572143554,221.8537014160156C83.44184572143556,222.05540141601563,83.78774572143556,222.26650141601561,84.13334572143555,222.48750141601562C86.55334572143555,224.05290141601563,88.58914572143556,226.1943014160156,89.99144572143555,228.75850141601563C90.25084572143555,229.22880141601564,90.49084572143555,229.71860141601564,90.70224572143555,230.21800141601562C90.86534572143555,230.59280141601562,91.04784572143555,231.02500141601564,91.22054572143554,231.49540141601562Z" fill="url(#master_svg4_0_5616)" fill-opacity="1" style="mix-blend-mode:passthrough"/></g><g><path d="M90.70182552246094,230.21798209960937C89.31886552246094,227.0104720996094,87.00474552246094,224.34060209960938,84.13328552246094,222.48715209960938C84.52680952246094,224.30227209960938,85.09344452246094,226.10763209960936,85.54484552246093,227.89377209960938C85.85214552246094,229.07510209960938,86.12116552246094,230.2851820996094,86.39948552246094,231.49533209960939C86.39948552246094,231.49533209960939,91.22019552246094,231.49533209960939,91.22019552246094,231.49533209960939C91.04737552246094,231.02463209960936,90.86529552246094,230.59256209960938,90.70182552246094,230.21798209960937Z" fill="#38231D" fill-opacity="1" style="mix-blend-mode:passthrough"/></g><g><path d="M81.72248174438477,216.84053567382813C81.52068174438477,217.09993567382813,81.30938174438477,217.35921567382812,81.09828174438476,217.60890567382813C75.92198174438477,214.86226767382811,68.40266174438477,215.34236967382813,63.226402744384764,216.30294567382813C62.62146829438477,216.41805567382812,62.36212974438477,215.48653467382812,62.97670774438477,215.38069967382813C68.44094174438476,214.35323467382813,76.31548174438477,213.88253067382811,81.72248174438477,216.84053567382813Z" fill="#38231D" fill-opacity="1" style="mix-blend-mode:passthrough"/></g><g><path d="M83.08645419433594,221.85351609765624C80.80096419433593,221.76727309765624,78.59236419433594,222.50671009765625,76.43139919433594,223.41901009765624C75.85507436433593,223.65906009765624,75.61505319433594,222.72748009765624,76.17203019433593,222.48743009765624C78.32338419433594,221.58447309765626,80.51298419433594,220.88385009765625,82.75056419433594,220.88385009765625C82.82712419433594,221.18145709765625,82.89435419433593,221.47912609765626,82.95196419433594,221.77667209765625C83.00023419433593,221.80554209765626,83.03851419433593,221.82489009765624,83.08645419433594,221.85351609765624Z" fill="#38231D" fill-opacity="1" style="mix-blend-mode:passthrough"/></g><g><path d="M142.6523098876953,147.4614079082031C142.6523098876953,147.4614079082031,164.97400988769533,149.16563090820313,169.79490988769533,151.54268090820312C178.9315098876953,156.04780090820313,176.62350988769532,181.31313090820314,171.82250988769533,196.7986309082031C167.02070988769532,212.28383090820313,164.4999098876953,218.28603090820314,164.37960988769532,221.1668309082031C164.25980988769533,224.0479309082031,164.4999098876953,231.49073090820312,164.4999098876953,231.49073090820312C164.4999098876953,231.49073090820312,90.79410988769531,231.49073090820312,90.79410988769531,231.49073090820312C90.79410988769531,231.49073090820312,82.99143988769531,205.56143090820314,80.3507198876953,190.19623090820312C77.70963988769532,174.83083090820313,74.34845988769531,162.10663090820313,77.34940988769532,159.34573090820314C80.3507198876953,156.58448090820312,102.19830988769532,149.98231090820312,113.1221098876953,148.42183090820313C124.0459098876953,146.86112690820312,142.6523098876953,147.4614079082031,142.6523098876953,147.4614079082031Z" fill="url(#master_svg5_0_5620)" fill-opacity="1" style="mix-blend-mode:passthrough"/></g><g><path d="M85.1128428491211,211.15546518554686C85.1128428491211,211.15546518554686,85.1128428491211,211.16526518554687,85.1128428491211,211.16526518554687C84.3927128491211,212.8070651855469,83.49951284912109,214.37256518554688,82.4527928491211,215.85136518554688C81.53093284912109,215.09296518554686,80.0903828491211,213.64276518554686,78.64018284912109,211.15546518554686C76.23948784912109,207.02596518554688,78.8895228491211,206.35716518554688,77.1227128491211,199.99976518554686C75.3652228491211,193.64224518554687,77.52588284912109,189.42306518554688,77.52588284912109,189.42306518554688C77.52588284912109,189.42306518554688,85.1128428491211,211.15546518554686,85.1128428491211,211.15546518554686C85.1128428491211,211.15546518554686,85.1128428491211,211.15546518554686,85.1128428491211,211.15546518554686Z" fill="#38231D" fill-opacity="1" style="mix-blend-mode:passthrough"/></g><g><path d="M78.65951150390624,196.1071737792969C76.07602150390625,188.54957377929688,74.04983400390626,180.1465737792969,74.01159545490626,172.11827377929689C73.99227780390625,167.69110377929687,74.89483550390625,163.57122377929687,76.41226150390625,159.64340177929688C76.87338150390624,159.3840327792969,77.30554150390626,159.15359477929687,77.70868150390625,158.95187377929688C77.68005150390626,159.00952147929686,77.66073150390625,159.06713877929687,77.64175150390625,159.11532577929688C77.07483150390625,160.49798377929687,76.58508150390625,161.90026377929686,76.18188150390625,163.33111377929689C75.39419150390626,166.15432377929687,74.95275750390626,169.09297377929687,74.97170850390626,172.19487377929687C75.01034450390625,180.03117377929686,77.00787150390624,188.30927377929686,79.52374150390625,195.69447377929689C79.72549150390626,196.27037377929688,78.86123150390625,196.69317377929687,78.65951150390624,196.1071737792969Z" fill="#38231D" fill-opacity="1" style="mix-blend-mode:passthrough"/></g><g><path d="M138.31539725585938,141.18548544921876C138.31539725585938,141.18548544921876,138.31539725585938,145.90063544921875,138.31539725585938,145.90063544921875C135.70333725585937,143.93206544921875,132.98568725585938,140.61883544921875,132.98568725585938,140.61883544921875C132.98568725585938,140.61883544921875,138.31539725585938,141.18548544921876,138.31539725585938,141.18548544921876C138.31539725585938,141.18548544921876,138.31539725585938,141.18548544921876,138.31539725585938,141.18548544921876Z" fill="#38231D" fill-opacity="1" style="mix-blend-mode:passthrough"/></g><g></g><g><g><path d="M328,17.50701904296875L325.951,17.50792508796875L47.7472,17.63094904296875L0.447186,229.14801904296874L0,231.14801904296874L2.04913,231.14901904296875L280.511,231.31201904296876L327.556,19.50721904296875L328,17.50701904296875ZM2.49632,229.15001904296875L49.3495,19.63023904296875L325.507,19.50811904296875L278.907,229.31101904296875L2.49632,229.15001904296875Z" fill-rule="evenodd" fill="#0024A9" fill-opacity="1" style="mix-blend-mode:passthrough"/></g></g><g><g><path d="M217.93238217285156,0C217.93238217285156,0,328.00035217285154,0,328.00035217285154,0C328.00035217285154,0,323.82835217285157,17.5619,323.82835217285157,17.5619C323.82835217285157,17.5619,214.09535217285156,17.5619,214.09535217285156,17.5619C214.09535217285156,17.5619,217.93238217285156,0,217.93238217285156,0C217.93238217285156,0,217.93238217285156,0,217.93238217285156,0Z" fill="url(#master_svg6_0_4644)" fill-opacity="1" style="mix-blend-mode:passthrough"/></g><g><path d="M324.16335217285155,35.014016012573244C324.16335217285155,35.014016012573244,214.09535217285156,35.014016012573244,214.09535217285156,35.014016012573244C214.09535217285156,35.014016012573244,218.26694217285157,17.452116012573242,218.26694217285157,17.452116012573242C218.26694217285157,17.452116012573242,328.00035217285154,17.452116012573242,328.00035217285154,17.452116012573242C328.00035217285154,17.452116012573242,324.16335217285155,35.014016012573244,324.16335217285155,35.014016012573244C324.16335217285155,35.014016012573244,324.16335217285155,35.014016012573244,324.16335217285155,35.014016012573244Z" fill="url(#master_svg7_0_4646)" fill-opacity="1" style="mix-blend-mode:passthrough"/></g></g><g><path d="M235.7663826171875,156.94000778808595C235.7663826171875,156.94000778808595,233.9372826171875,162.43700778808594,233.9372826171875,162.43700778808594C233.9372826171875,162.43700778808594,231.0490826171875,171.06230778808595,231.0490826171875,171.06230778808595C231.0490826171875,171.06230778808595,225.7716826171875,186.87370778808594,225.7716826171875,186.87370778808594C225.7716826171875,186.87370778808594,198.7865596171875,180.75680778808595,198.7865596171875,180.75680778808595C198.7865596171875,180.75680778808595,197.9871826171875,168.86350778808594,197.9871826171875,168.86350778808594C197.9871826171875,168.86350778808594,202.7343726171875,158.70910778808593,202.7343726171875,158.70910778808593C202.7343726171875,158.70910778808593,206.31244261718751,151.04316778808592,206.31244261718751,151.04316778808592C206.31244261718751,151.04316778808592,208.6512826171875,146.02610778808594,208.6512826171875,146.02610778808594C208.6512826171875,146.02610778808594,223.01328261718749,146.52564978808593,223.01328261718749,146.52564978808593C223.01328261718749,146.52564978808593,235.7663826171875,156.94000778808595,235.7663826171875,156.94000778808595C235.7663826171875,156.94000778808595,235.7663826171875,156.94000778808595,235.7663826171875,156.94000778808595Z" fill="#BA5D4A" fill-opacity="1" style="mix-blend-mode:passthrough"/></g><g><path d="M225.39222465820313,190.61165107421874C225.39222465820313,190.61165107421874,225.52212465820313,190.27175107421874,225.71202465820312,189.75195107421877C225.71202465820312,189.75195107421877,225.71202465820312,189.74235107421876,225.71202465820312,189.74235107421876C226.3017246582031,188.16305107421874,227.4111246582031,184.92475107421876,226.97142465820312,184.42515107421875C218.03622465820314,169.49315107421876,197.98712465820313,168.86355107421875,197.98712465820313,168.86355107421875C197.98712465820313,168.86355107421875,195.39852465820312,173.34125107421875,195.39852465820312,173.34125107421875C195.39852465820312,173.34125107421875,194.90892465820312,174.18075107421876,194.90892465820312,174.18075107421876C194.90892465820312,174.18075107421876,194.7589246582031,174.23055107421874,194.5191246582031,174.32065107421874C193.51952465820312,174.70035107421876,190.87092465820314,175.76975107421876,190.03152465820312,176.77895107421875C189.92162465820311,176.89915107421876,189.8214246582031,177.02915107421876,189.73172465820312,177.16875107421876C189.50202465820314,177.46875107421874,189.3017246582031,177.78865107421876,189.12202465820312,178.11845107421874C189.09172465820313,178.15835107421876,189.07172465820312,178.19855107421876,189.05202465820312,178.23835107421874C188.05272465820312,176.48935107421875,182.81562465820312,165.78505107421876,180.8565246582031,163.07655107421874C180.65672465820313,162.79695107421875,180.44662465820312,162.51705107421876,180.23672465820312,162.24705107421875C179.93702465820311,161.84715107421874,179.63702465820313,161.45748107421875,179.32722465820314,161.07775107421875C178.7974246582031,160.42809107421874,178.25792465820314,159.78844107421875,177.68832465820313,159.16857107421876C175.21962465820312,156.48021107421874,173.35032465820314,154.65114107421874,169.93259465820313,153.29189107421874C168.36307465820312,152.66237207421875,165.83481465820313,152.12254707421874,163.81580465820312,151.72304106721876C163.18622465820312,151.59309707421875,169.27255465820312,169.85315107421874,166.60434465820313,175.89955107421875C164.11545465820313,181.51685107421875,162.78638465820313,187.50335107421876,161.56714465820312,193.49025107421875C160.41745665820312,199.10705107421876,159.62790665820313,204.33415107421877,162.55634465820313,209.54135107421877C163.88577465820313,211.90985107421875,165.42481465820313,214.20885107421876,167.10395465820312,216.39765107421874C167.60361465820313,217.06695107421876,168.12332465820313,217.72665107421875,168.65311465820312,218.37635107421875C169.18283465820312,219.02615107421875,169.71262465820314,219.67565107421876,170.26251465820312,220.30555107421876C170.9318246582031,221.08475107421873,171.61132465820313,221.85475107421877,172.29122465820313,222.60425107421875C172.56102465820314,222.90385107421875,172.83062465820313,223.19385107421874,173.1005246582031,223.48385107421876C173.2606246582031,223.65365107421874,173.4207246582031,223.83345107421874,173.59042465820312,224.00315107421875C177.16862465820313,227.83115107421875,181.18642465820312,231.83905107421873,185.8736246582031,234.23775107421875C190.50132465820312,236.61665107421874,194.86882465820312,236.66655107421875,199.78602465820313,235.10735107421874C209.29112465820313,232.06905107421875,217.62642465820312,221.82455107421873,219.64532465820312,212.05995107421876C219.91522465820313,210.74055107421876,219.89522465820312,209.39135107421873,220.13502465820312,208.08205107421875C220.68482465820313,205.00385107421874,223.87292465820312,203.03485107421875,225.30212465820313,200.38625107421876C225.95202465820313,199.20675107421874,226.17172465820312,197.95735107421876,226.18182465820314,196.67815107421876C226.20192465820313,194.79915107421874,225.75182465820313,192.87025107421874,225.4521246582031,191.01145107421874C225.43202465820312,190.88155107421875,225.41222465820312,190.74155107421876,225.39222465820313,190.61165107421874Z" fill="url(#master_svg8_0_5626)" fill-opacity="1" style="mix-blend-mode:passthrough"/></g><g><path d="M239.21546352539062,132.93318079833983C238.91576352539062,132.79318079833985,238.57596352539062,132.70308079833984,238.21596352539063,132.64318079833984C238.21596352539063,132.64318079833984,238.19616352539063,132.64318079833984,238.19616352539063,132.64318079833984C238.31556352539062,131.47408079833986,238.21596352539063,130.29468079833984,237.75596352539063,129.12528079833984C236.83656352539063,126.79658079833985,234.86796352539062,125.75708079833984,232.66896352539064,125.17748079833984C232.65896352539062,125.17748079833984,232.64896352539063,125.16738079833985,232.63896352539064,125.16738079833985C232.33926352539063,125.08738079833984,232.0294635253906,125.01738079833984,231.71956352539064,124.94738079833985C231.81946352539063,124.72768079833985,231.90956352539064,124.51768079833984,232.0192635253906,124.29778079833984C232.06916352539062,124.18788079833985,232.11916352539063,124.06798079833985,232.16926352539062,123.95778079833984C233.90846352539063,120.16998079833985,235.83726352539063,116.36218079833985,237.07666352539061,112.38426079833984C237.64626352539062,110.54549079833984,237.95606352539062,107.42711079833984,235.88706352539063,106.37763979833984C233.0286635253906,104.93834079833984,229.81046352539062,108.30644079833985,228.09126352539062,110.17540079833984C225.27286352539062,113.25392079833985,222.33446352539062,117.91138079833985,219.78616352539063,121.43918079833985C219.6159635253906,121.66928079833984,219.44616352539063,121.90908079833984,219.27636352539062,122.12908079833984C218.92646352539063,122.15888079833985,218.57646352539064,122.18908079833984,218.22696352539063,122.22888079833984C216.85760352539063,122.35878079833984,215.4882835253906,122.57878079833984,214.14910352539061,122.84878079833985C211.39044352539062,123.41838079833984,209.42163352539063,124.88748079833985,208.29211352539062,127.51618079833985C206.97308152539063,130.59438079833984,207.18261568539063,134.28238079833983,207.20287932539063,137.56048079833985C207.22289892539064,141.72828079833985,207.43285952539063,145.89618079833986,207.65252552539062,150.06358079833984C207.25274512539062,152.09268079833984,209.28173352539062,152.57248079833985,210.84088352539064,153.29218079833984C214.24890352539063,154.87108079833985,213.54931352539063,159.11898079833983,216.27789352539062,161.30768079833985C220.89546352539062,165.00568079833985,227.8514635253906,165.35528079833983,232.51906352539064,161.58768079833985C235.13756352539062,159.48868079833983,236.92666352539064,156.19048079833985,238.47566352539062,153.28208079833985C240.14476352539063,150.13358079833984,241.47426352539063,146.76538079833983,242.12376352539061,143.25728079833985C242.72346352539063,139.96918079833983,242.48336352539062,134.35238079833985,239.21546352539062,132.93318079833983Z" fill="#BA5D4A" fill-opacity="1" style="mix-blend-mode:passthrough"/></g><g><path d="M179.47812788085938,170.06259516601563C178.04892788085937,182.21574516601564,176.07980788085936,194.60924516601563,173.14129788085938,206.53274516601562C173.20150788085937,208.99144516601564,173.50130788085937,212.79924516601562,174.75069788085938,215.61784516601563C175.03030788085937,216.2474451660156,175.14053788085937,216.93694516601562,175.14053788085937,217.65654516601563C175.14053788085937,219.7354451660156,174.21087788085939,222.08424516601562,173.59100788085937,224.00314516601563C173.16137788085936,223.54334516601563,172.73177788085937,223.07344516601563,172.29205788085937,222.60404516601562C171.61221788085936,221.85424516601563,170.93279788085937,221.08474516601564,170.26305788085938,220.30504516601562C169.71346788085938,219.67554516601564,169.18377788085937,219.02584516601564,168.65392788085938,218.37614516601562C168.12414788085937,217.72654516601563,167.60449188085937,217.06684516601564,167.10482788085938,216.39744516601561C167.10482788085938,216.39744516601561,172.27193788085938,205.90314516601563,172.27193788085938,205.90314516601563C175.14053788085937,194.17954516601563,177.06939788085938,181.99614516601562,178.47852788085936,170.06259516601563C178.82842788085938,167.07415516601563,179.11812788085936,164.08578516601563,179.32802788085937,161.07754516601562C179.63782788085936,161.45736716601562,179.93782788085937,161.84704616601562,180.23762788085938,162.24697516601563C180.04772788085938,164.85534516601564,179.78792788085937,167.46392516601563,179.47812788085938,170.06259516601563Z" fill="#38231D" fill-opacity="1" style="mix-blend-mode:passthrough"/></g><g><path d="M215.65133134765625,207.9271232421875C213.65683134765624,199.6251232421875,205.31813134765625,192.9536232421875,197.76581134765624,189.9219232421875C197.62408134765624,189.8650232421875,197.50317134765626,189.8796232421875,197.40655134765626,189.9328232421875C194.78113134765624,185.7200632421875,192.22095134765624,181.4666132421875,189.73150634765625,177.1688232421875C189.50195334765624,177.4689022421875,189.30181934765625,177.7887572421875,189.12213134765625,178.1185002421875C194.22925134765626,186.9237332421875,199.63613134765626,195.5491232421875,205.32293134765627,203.9843232421875C205.68303134765625,204.5140232421875,206.55253134765624,204.0144232421875,206.18263134765624,203.4746232421875C203.44783134765626,199.4221232421875,200.78793134765624,195.3214232421875,198.18957134765625,191.1816232421875C205.23703134765626,194.2092232421875,212.84073134765626,200.5055232421875,214.68783134765624,208.1930232421875C214.83783134765625,208.8180232421875,215.80163134765624,208.5533232421875,215.65133134765625,207.9271232421875Z" fill="#38231D" fill-opacity="1" style="mix-blend-mode:passthrough"/></g><g><path d="M225.71170209960937,189.75185927734375C225.52170209960937,190.27155927734375,225.39180209960938,190.61145927734376,225.39180209960938,190.61145927734376C225.41150209960938,190.74145927734375,225.43160209960936,190.88145927734377,225.45170209960938,191.01135927734376C222.88280209960936,187.75295927734376,218.52550209960938,182.95559927734374,212.78840209960939,179.27767927734374C206.11200209960938,174.98995927734376,198.48630209960936,174.34030127734374,194.51840209960938,174.32025127734374C194.75851409960939,174.23043827734375,194.90817309960937,174.18057227734374,194.90817309960937,174.18057227734374C194.90817309960937,174.18057227734374,195.3981020996094,173.34075927734375,195.3981020996094,173.34075927734375C199.66568209960937,173.45092727734374,206.92180209960938,174.32025127734374,213.32820209960937,178.43816927734375C218.7953020996094,181.94591927734376,223.03290209960937,186.45375927734375,225.71170209960937,189.74185927734374C225.71170209960937,189.74185927734374,225.71170209960937,189.75185927734375,225.71170209960937,189.75185927734375C225.71170209960937,189.75185927734375,225.71170209960937,189.75185927734375,225.71170209960937,189.75185927734375Z" fill="#38231D" fill-opacity="1" style="mix-blend-mode:passthrough"/></g><g><path d="M219.7862180908203,121.43919372558594C219.7862180908203,121.43919372558594,216.25808409082032,128.00578372558593,216.25808409082032,128.00578372558593C216.16836209082032,128.16548372558594,215.98855309082032,128.26561372558595,215.8183260908203,128.26561372558595C215.7387360908203,128.26561372558595,215.6587190908203,128.24549372558593,215.57864109082033,128.20567372558594C215.33852849082032,128.07570372558592,215.2488068908203,127.77571372558594,215.3787506908203,127.52586372558594C215.3787506908203,127.52586372558594,218.2270780908203,122.22877472558594,218.2270780908203,122.22877472558594C218.5766880908203,122.18901072558593,218.9266680908203,122.15882872558593,219.2766380908203,122.12873872558593C219.4463180908203,121.90907272558594,219.6161780908203,121.66929672558594,219.7862180908203,121.43919372558594Z" fill="#38231D" fill-opacity="1" style="mix-blend-mode:passthrough"/></g><g><path d="M232.63848461914063,125.16746048339844C231.78905461914061,126.68648048339844,230.91961461914062,128.19579048339844,230.02984161914063,129.69499048339844C229.70037361914063,130.25456048339845,228.84075461914063,129.74486048339844,229.16057911914064,129.19533048339844C230.18981461914063,127.46602048339844,231.18951461914062,125.71703048339843,232.16875461914063,123.95787048339844C232.1188346191406,124.06809948339844,232.06896461914062,124.18797348339844,232.01903461914063,124.29780548339843C231.90887461914062,124.51780748339844,231.81908461914063,124.72782848339844,231.71899461914063,124.94746448339843C232.02904461914062,125.01750048339844,232.33880461914063,125.08745048339844,232.63848461914063,125.16746048339844Z" fill="#38231D" fill-opacity="1" style="mix-blend-mode:passthrough"/></g><g><path d="M239.21511526367186,132.87326064648437C238.57553526367187,133.99270764648438,237.93588526367188,135.10217764648436,237.27621526367187,136.2115776464844C236.94632026367188,136.76110764648436,236.08670126367187,136.26156764648437,236.4064643636719,135.70156764648436C237.01632726367188,134.66247764648438,237.62576526367187,133.62264764648438,238.21554526367188,132.58358764648438C238.57553526367187,132.64352414648437,238.91543526367187,132.73327664648437,239.21511526367186,132.87326064648437Z" fill="#38231D" fill-opacity="1" style="mix-blend-mode:passthrough"/></g><g><path d="M225.73245483398438,157.04972607910156C220.59505483398436,154.32118607910155,215.00805483398437,152.40235607910157,209.26126483398437,151.45268207910155C208.28176483398437,151.28288307910157,207.30221483398438,151.15296907910155,206.31259483398438,151.04310607910156C206.31259483398438,151.04310607910156,202.73495483398438,158.70902607910156,202.73495483398438,158.70902607910156C204.49386483398436,158.90898607910157,206.23294483398436,159.19865607910157,207.96200483398437,159.57838607910156C213.18895483398438,160.73768607910156,218.22645483398438,162.67670607910156,222.87385483398438,165.31510607910155C225.77225483398436,166.96440607910156,228.51085483398438,168.88320607910157,231.04915483398437,171.06230607910157C231.04915483398437,171.06230607910157,233.93785483398437,162.43690607910156,233.93785483398437,162.43690607910156C231.37905483398438,160.38810607910156,228.62065483398436,158.58885607910156,225.73245483398438,157.04972607910156Z" fill="#38231D" fill-opacity="1" style="mix-blend-mode:passthrough"/></g><g><path d="M224.26879498046875,158.76896190429687Q224.26879498046875,158.89062190429686,224.26282498046874,159.01213190429687Q224.25685498046874,159.13364190429687,224.24493498046874,159.25471190429687Q224.23301498046874,159.37579190429688,224.21516498046876,159.49613190429687Q224.19731498046875,159.61647190429687,224.17357498046874,159.7357919042969Q224.14984498046874,159.85511190429688,224.12028498046874,159.97312190429687Q224.09072498046874,160.09113190429687,224.05541498046875,160.20755190429688Q224.02009498046874,160.32397190429688,223.97911498046875,160.4385119042969Q223.93812498046876,160.55306190429687,223.89157498046876,160.66545190429687Q223.84502498046874,160.77785190429688,223.79300498046874,160.8878319042969Q223.74099498046874,160.99780190429686,223.68364498046876,161.10510190429687Q223.62629498046874,161.21239190429688,223.56375498046876,161.31674190429686Q223.50121498046875,161.42109190429687,223.43362498046875,161.52224190429686Q223.36604498046876,161.62339190429688,223.29357498046875,161.72111190429686Q223.22110498046874,161.81883190429687,223.14392498046874,161.91287190429688Q223.06675498046874,162.00691190429689,222.98505498046876,162.09705190429688Q222.90335498046875,162.18719190429687,222.81733498046876,162.27322190429686Q222.73131498046874,162.35924190429688,222.64117498046875,162.44094190429686Q222.55103498046876,162.52264190429688,222.45699498046875,162.59982190429687Q222.36295498046874,162.67700190429687,222.26524498046874,162.74947190429688Q222.16753498046876,162.82194190429686,222.06638498046874,162.8895319042969Q221.96523498046875,162.95712190429688,221.86088498046874,163.01967190429687Q221.75654498046876,163.08221190429688,221.64925498046875,163.13956190429687Q221.54196498046875,163.19691190429688,221.43199498046874,163.24892190429688Q221.32201498046874,163.30094190429688,221.20962498046876,163.34749190429687Q221.09723498046876,163.39405190429687,220.98269498046875,163.43503190429686Q220.86815498046874,163.47602190429689,220.75173498046874,163.51134190429687Q220.63532498046874,163.54665190429688,220.51731498046874,163.57621190429688Q220.39930498046874,163.6057719042969,220.27999498046876,163.62951190429686Q220.16067498046874,163.65324190429686,220.04033498046874,163.67109190429687Q219.92000498046875,163.68894190429688,219.79893498046874,163.7008719042969Q219.67786498046874,163.71279190429686,219.55636498046874,163.71876190429688Q219.43485498046874,163.72473190429687,219.31320498046875,163.72473190429687Q219.19154498046876,163.72473190429687,219.07004498046874,163.71876190429688Q218.94853498046876,163.71279190429686,218.82746498046876,163.7008719042969Q218.70640498046876,163.68894190429688,218.58606498046876,163.67109190429687Q218.46572498046876,163.65324190429686,218.34641498046875,163.62951190429686Q218.22709498046876,163.6057719042969,218.10908498046874,163.57621190429688Q217.99108498046874,163.54665190429688,217.87466498046874,163.51134190429687Q217.75825498046876,163.47602190429689,217.64371498046876,163.43503190429686Q217.52916498046875,163.39405190429687,217.41677498046874,163.34749190429687Q217.30438498046874,163.30094190429688,217.19441498046876,163.24892190429688Q217.08443498046876,163.19691190429688,216.97714498046875,163.13956190429687Q216.86986498046875,163.08221190429688,216.76551498046874,163.01967190429687Q216.66117498046876,162.95712190429688,216.56001498046874,162.8895319042969Q216.45886498046875,162.82194190429686,216.36115498046874,162.74947190429688Q216.26344498046876,162.67700190429687,216.16940498046876,162.59982190429687Q216.07536498046875,162.52264190429688,215.98522498046876,162.44094190429686Q215.89508498046874,162.35924190429688,215.80906498046875,162.27322190429686Q215.72304498046876,162.18719190429687,215.64134498046874,162.09705190429688Q215.55964498046876,162.00691190429689,215.48247498046874,161.91287190429688Q215.40529498046874,161.81883190429687,215.33282898046875,161.72111190429686Q215.26035998046876,161.62339190429688,215.19277398046876,161.52224190429686Q215.12518698046875,161.42108190429687,215.06264498046875,161.31674190429686Q215.00010198046874,161.21239190429688,214.94275598046875,161.10510190429687Q214.88540898046875,160.99780190429686,214.83339498046874,160.8878319042969Q214.78138198046875,160.77785190429688,214.73482698046874,160.66545190429687Q214.68827298046875,160.55306190429687,214.64728898046874,160.4385119042969Q214.60630498046876,160.32397190429688,214.57099098046876,160.20755190429688Q214.53567698046874,160.09113190429687,214.50611798046876,159.97312190429687Q214.47655898046875,159.85511190429688,214.45282538046874,159.7357919042969Q214.42909198046874,159.61647190429687,214.41124178046874,159.49613190429687Q214.39339158046874,159.37579190429688,214.38146758046875,159.25471190429687Q214.36954348046876,159.13364190429687,214.36357421046876,159.01213190429687Q214.35760498046875,158.89062190429686,214.35760498046875,158.76896190429687Q214.35760498046875,158.64731190429688,214.36357421046876,158.52580190429688Q214.36954348046876,158.40429190429688,214.38146758046875,158.28322190429688Q214.39339158046874,158.16214190429687,214.41124178046874,158.04180190429688Q214.42909198046874,157.92146190429688,214.45282538046874,157.8021419042969Q214.47655898046875,157.68282190429687,214.50611798046876,157.56481190429687Q214.53567698046874,157.44680190429688,214.57099098046876,157.33038190429687Q214.60630498046876,157.21396190429687,214.64728898046874,157.0994219042969Q214.68827298046875,156.98487190429688,214.73482698046874,156.87248190429688Q214.78138198046875,156.76008190429687,214.83339498046874,156.6501019042969Q214.88540898046875,156.54012190429688,214.94275598046875,156.43283190429688Q215.00010198046874,156.32554190429687,215.06264498046875,156.2211919042969Q215.12518698046875,156.11684190429688,215.19277398046876,156.0156919042969Q215.26035998046876,155.91454190429687,215.33282898046875,155.8168219042969Q215.40529498046874,155.71910190429688,215.48247498046874,155.62506190429687Q215.55964498046876,155.53102190429686,215.64134498046874,155.44088190429687Q215.72304498046876,155.35073190429688,215.80906498046875,155.2647119042969Q215.89508498046874,155.17869190429687,215.98522498046876,155.09699190429689Q216.07536498046875,155.01529190429687,216.16940498046876,154.93811190429687Q216.26344498046876,154.86093190429688,216.36115498046874,154.78845890429687Q216.45886498046875,154.71598790429687,216.56001498046874,154.64839890429687Q216.66117498046876,154.58080990429687,216.76551498046874,154.51826590429687Q216.86986498046875,154.45572090429687,216.97714498046875,154.39837190429688Q217.08443498046876,154.34102390429686,217.19441498046876,154.28900790429688Q217.30438498046874,154.23699290429687,217.41677498046874,154.1904369042969Q217.52916498046875,154.14388090429688,217.64371498046876,154.10289590429687Q217.75825498046876,154.06191090429687,217.87466498046874,154.02659590429687Q217.99108498046874,153.99127990429687,218.10908498046874,153.96171990429687Q218.22709498046876,153.93215990429687,218.34641498046875,153.90842550429687Q218.46572498046876,153.8846914042969,218.58606498046876,153.86684060429687Q218.70640498046876,153.84898980429688,218.82746498046876,153.83706530429689Q218.94853498046876,153.82514080429686,219.07004498046874,153.81917133429687Q219.19154498046876,153.81320190429688,219.31320498046875,153.81320190429688Q219.43485498046874,153.81320190429688,219.55636498046874,153.81917133429687Q219.67786498046874,153.82514080429686,219.79893498046874,153.83706530429689Q219.92000498046875,153.84898980429688,220.04033498046874,153.86684060429687Q220.16067498046874,153.8846914042969,220.27999498046876,153.90842550429687Q220.39930498046874,153.93215990429687,220.51731498046874,153.96171990429687Q220.63532498046874,153.99127990429687,220.75173498046874,154.02659590429687Q220.86814498046874,154.06191090429687,220.98269498046875,154.10289590429687Q221.09723498046876,154.14388090429688,221.20962498046876,154.1904369042969Q221.32201498046874,154.23699290429687,221.43199498046874,154.28900790429688Q221.54196498046875,154.34102390429686,221.64925498046875,154.39837190429688Q221.75654498046876,154.45572090429687,221.86088498046874,154.51826590429687Q221.96523498046875,154.58080990429687,222.06638498046874,154.64839890429687Q222.16753498046876,154.71598790429687,222.26524498046874,154.78845890429687Q222.36295498046874,154.86093190429688,222.45699498046875,154.93811190429687Q222.55103498046876,155.01529190429687,222.64117498046875,155.09699190429689Q222.73131498046874,155.17869190429687,222.81733498046876,155.2647119042969Q222.90335498046875,155.35073190429688,222.98505498046876,155.44088190429687Q223.06675498046874,155.53102190429686,223.14392498046874,155.62506190429687Q223.22110498046874,155.71910190429688,223.29357498046875,155.8168219042969Q223.36604498046876,155.91454190429687,223.43362498046875,156.0156919042969Q223.50121498046875,156.11684190429688,223.56375498046876,156.2211919042969Q223.62629498046874,156.32554190429687,223.68364498046876,156.43283190429688Q223.74099498046874,156.54013190429689,223.79300498046874,156.6501019042969Q223.84502498046874,156.76008190429687,223.89157498046876,156.87248190429688Q223.93812498046876,156.98487190429688,223.97911498046875,157.0994219042969Q224.02009498046874,157.21396190429687,224.05541498046875,157.33038190429687Q224.09072498046874,157.44680190429688,224.12028498046874,157.56481190429687Q224.14984498046874,157.68282190429687,224.17357498046874,157.8021419042969Q224.19731498046875,157.92146190429688,224.21516498046876,158.04180190429688Q224.23301498046874,158.16214190429687,224.24493498046874,158.28322190429688Q224.25685498046874,158.40429190429688,224.26282498046874,158.52580190429688Q224.26879498046875,158.64731190429688,224.26879498046875,158.76896190429687Z" fill="#FFFFFF" fill-opacity="1" style="mix-blend-mode:passthrough"/></g><g><path d="M99.94543752929687,109.81725200500489C99.22897752929687,109.81725200500489,98.53182752929688,109.56985200500489,97.96984752929687,109.10575200500489C97.26074252929688,108.51855200500488,96.85421752929688,107.65365200500489,96.85421752929688,106.73305200500488C96.85421752929688,106.73305200500488,96.85421752929688,21.04116200500488,96.85421752929688,21.04116200500488C96.85421752929688,19.512722005004882,97.98983752929688,18.197352005004884,99.49664752929688,17.981622005004883C114.69181752929687,15.801982005004882,129.8700175292969,14.696352005004883,144.6098175292969,14.696352005004883C159.34951752929686,14.696352005004883,174.52771752929686,15.801982005004882,189.72291752929686,17.981622005004883C191.22931752929688,18.197352005004884,192.36521752929687,19.512722005004882,192.36521752929687,21.04116200500488C192.36521752929687,21.04116200500488,192.36521752929687,106.72605200500489,192.36521752929687,106.72605200500489C192.36521752929687,107.64665200500488,191.95911752929686,108.51085200500488,191.25001752929688,109.09775200500488C190.53591752929688,109.68905200500488,189.6014175292969,109.92715200500488,188.68851752929686,109.75495200500488C173.60951752929688,106.89515200500489,158.7792175292969,105.44565200500489,144.6098175292969,105.44565200500489C130.42441752929687,105.44565200500489,115.59471752929687,106.89785200500488,100.53234752929687,109.76195200500489C100.33724752929687,109.79895200500488,100.14046752929687,109.81725200500489,99.94543752929687,109.81725200500489Z" fill="#FFFFFF" fill-opacity="1" style="mix-blend-mode:passthrough"/><path d="M99.94543752929687,110.31725200500489Q100.28757752929687,110.31725200500489,100.62537752929687,110.25325200500488L100.62574752929687,110.25315200500488Q123.27841752929687,105.94575200500488,144.6098175292969,105.94565200500489Q165.92031752929688,105.94575200500488,188.59591752929686,110.24635200500488Q190.2665175292969,110.56135200500488,191.5688175292969,109.48295200500489Q192.86521752929687,108.40995200500488,192.86521752929687,106.72605200500489L192.86521752929687,21.04116200500488Q192.86521752929687,19.70877200500488,191.98741752929686,18.692312005004883Q191.10881752929686,17.674982005004882,189.7939175292969,17.486682005004884Q166.8555175292969,14.196352005004883,144.6098175292969,14.196352005004883Q122.36401752929687,14.196352005004883,99.42577752929688,17.48666200500488Q98.11050752929688,17.674972005004882,97.23195452929687,18.692332005004882Q96.35421752929688,19.708732005004883,96.35421752929688,21.04116200500488L96.35421752929688,106.73305200500488Q96.35421752929688,108.41695200500489,97.65147052929687,109.49135200500488Q98.65158752929688,110.31725200500489,99.94543752929687,110.31725200500489ZM144.6098175292969,104.94565200500489Q123.18431752929688,104.94575200500488,100.43931752929687,109.27075200500488L100.43894752929687,109.27075200500488Q100.19348752929687,109.31725200500489,99.94543752929687,109.31725200500489Q99.01111752929687,109.31725200500489,98.28822752929688,108.72025200500488Q97.35421752929688,107.94675200500488,97.35421752929688,106.73305200500488L97.35421752929688,21.04116200500488Q97.35421752929688,20.080762005004882,97.98879752929687,19.345922005004883Q98.62273752929687,18.61183200500488,99.56750752929688,18.476572005004883Q122.43541752929687,15.196352005004883,144.6098175292969,15.196352005004883Q166.78421752929688,15.196352005004883,189.6519175292969,18.476552005004883Q190.59661752929688,18.61184200500488,191.23061752929686,19.345932005004883Q191.86531752929687,20.080812005004884,191.86521752929687,21.04116200500488L191.86521752929687,106.72605200500489Q191.86521752929687,107.93945200500488,190.93121752929687,108.71265200500488Q189.99041752929688,109.49165200500488,188.78111752929686,109.26365200500489Q166.0147175292969,104.94535200500488,144.6098175292969,104.94565200500489Z" fill-rule="evenodd" fill="#0024A9" fill-opacity="1" style="mix-blend-mode:passthrough"/></g><g><path d="M127.89915425488282,95.37818141174317C127.65077225488281,95.37818141174317,127.44966125488281,95.17748141174316,127.44966125488281,94.92908141174317C127.44966125488281,94.92908141174317,127.44966125488281,28.525297411743164,127.44966125488281,28.525297411743164C127.44966125488281,28.276933411743165,127.65077225488281,28.076181411743164,127.89915425488282,28.076181411743164C128.14744525488283,28.076181411743164,128.34822125488282,28.276933411743165,128.34822125488282,28.525297411743164C128.34822125488282,28.525297411743164,128.34822125488282,94.92908141174317,128.34822125488282,94.92908141174317C128.34822125488282,95.17748141174316,128.14744525488283,95.37818141174317,127.89915425488282,95.37818141174317Z" fill="#C4C8D4" fill-opacity="1" style="mix-blend-mode:passthrough"/></g><g><path d="M167.13009672070314,95.37818141174317C166.88174472070313,95.37818141174317,166.68093872070312,95.17748141174316,166.68093872070312,94.92908141174317C166.68093872070312,94.92908141174317,166.68093872070312,28.525297411743164,166.68093872070312,28.525297411743164C166.68093872070312,28.276933411743165,166.88174472070313,28.076181411743164,167.13009672070314,28.076181411743164C167.3784177207031,28.076181411743164,167.57925372070312,28.276933411743165,167.57925372070312,28.525297411743164C167.57925372070312,28.525297411743164,167.57925372070312,94.92908141174317,167.57925372070312,94.92908141174317C167.57925372070312,95.17748141174316,167.3784177207031,95.37818141174317,167.13009672070314,95.37818141174317Z" fill="#C4C8D4" fill-opacity="1" style="mix-blend-mode:passthrough"/></g><g><path d="M147.2763364375,94.56488141174316C147.0278324375,94.56488141174316,146.8271484375,94.36378141174316,146.8271484375,94.11578141174316C146.8271484375,94.11578141174316,146.8271484375,28.525297411743164,146.8271484375,28.525297411743164C146.8271484375,28.276933411743165,147.0278324375,28.076181411743164,147.2763364375,28.076181411743164C147.5245974375,28.076181411743164,147.7253724375,28.276933411743165,147.7253724375,28.525297411743164C147.7253724375,28.525297411743164,147.7253724375,94.11578141174316,147.7253724375,94.11578141174316C147.7253724375,94.36378141174316,147.5245974375,94.56488141174316,147.2763364375,94.56488141174316Z" fill="#C4C8D4" fill-opacity="1" style="mix-blend-mode:passthrough"/></g><g><path d="M106.55998313134765,31.44631812194824C106.47148313134765,31.44631812194824,106.38191313134766,31.420028121948242,106.30369713134766,31.365758121948243C106.10020573134766,31.224258121948242,106.04966863134766,30.94359812194824,106.19212473134766,30.73986812194824C106.19212473134766,30.73986812194824,108.56319213134766,27.335409121948242,108.56319213134766,27.335409121948242C108.64711213134765,27.216230721948243,108.76195213134766,27.14164955194824,108.93175213134765,27.143305127348242C109.07652213134766,27.143305127348242,109.21309213134765,27.213564221948243,109.29729213134766,27.331080121948244C109.29729213134766,27.331080121948244,111.73225213134765,30.73554812194824,111.73225213134765,30.73554812194824C111.87639213134766,30.937278121948243,111.83012213134765,31.218268121948242,111.62807213134765,31.362098121948243C111.42598213134765,31.506918121948242,111.14564213134766,31.461298121948243,111.00114213134765,31.25855812194824C111.00114213134765,31.25855812194824,108.93672213134765,28.371798121948242,108.93672213134765,28.371798121948242C108.93672213134765,28.371798121948242,106.92888013134765,31.25421812194824,106.92888013134765,31.25421812194824C106.84163013134766,31.378738121948242,106.70216513134766,31.44631812194824,106.55998313134765,31.44631812194824Z" fill="#C4C8D4" fill-opacity="1" style="mix-blend-mode:passthrough"/></g><g><path d="M177.69167658300782,99.6012558203125C177.52486758300782,99.6012558203125,177.3647725830078,99.5083558203125,177.28719638300782,99.3475658203125C177.1786758830078,99.1248458203125,177.27181558300782,98.8561658203125,177.4952655830078,98.7472958203125C177.4952655830078,98.7472958203125,180.6884975830078,97.1988958203125,180.6884975830078,97.1988958203125C180.6884975830078,97.1988958203125,178.1856945830078,94.7349378203125,178.1856945830078,94.7349378203125C178.00893758300782,94.5611398203125,178.00661758300782,94.2758618203125,178.18038458300782,94.0997448203125C178.3540875830078,93.9222849203125,178.63851758300783,93.9196146203125,178.8155775830078,94.0944198203125C178.8155775830078,94.0944198203125,181.7722475830078,97.0047858203125,181.7722475830078,97.0047858203125C181.8760075830078,97.1073258203125,181.92403758300782,97.2541758203125,181.9002975830078,97.3979458203125C181.87642758300782,97.5417958203125,181.7845075830078,97.6656458203125,181.6534075830078,97.7295558203125C181.6534075830078,97.7295558203125,177.88741658300782,99.5566658203125,177.88741658300782,99.5566658203125C177.8241225830078,99.5872658203125,177.7575945830078,99.6012558203125,177.69167658300782,99.6012558203125Z" fill="#C4C8D4" fill-opacity="1" style="mix-blend-mode:passthrough"/></g><g><path d="M108.93145960986328,80.23770980957032C108.72006460986329,80.23770980957032,108.53131320986328,80.08752980957031,108.49069430986329,79.87283980957031C108.44403290986328,79.62881980957032,108.60418960986328,79.39374980957031,108.84820760986328,79.34714980957031C119.48471260986328,77.3253298095703,132.25731260986328,75.29316080957031,146.32481260986327,75.59946550957031C155.49611260986327,75.7962128095703,168.9538126098633,76.49100580957031,180.9846126098633,78.6863198095703C181.22861260986326,78.73123980957031,181.3904126098633,78.96530980957031,181.3458126098633,79.20929980957031C181.30081260986327,79.45334980957031,181.06851260986326,79.6111498095703,180.8231126098633,79.57086980957031C168.85061260986328,77.38525980957031,155.44421260986329,76.69376980957031,146.30541260986328,76.49799480957032C132.3158126098633,76.20136380957031,119.60651260986329,78.21689980957031,109.01565760986328,80.22970980957031C108.98767260986328,80.23505980957032,108.95904760986328,80.23770980957032,108.93145960986328,80.23770980957032Z" fill="#C4C8D4" fill-opacity="1" style="mix-blend-mode:passthrough"/></g><g><path d="M108.93145960986328,63.13437290039062C108.72006460986329,63.13437290039062,108.53131320986328,62.984242900390626,108.49069430986329,62.76951290039062C108.44403290986328,62.525472900390625,108.60418960986328,62.29043290039063,108.84820760986328,62.24381290039062C119.48471260986328,60.22135290039063,132.25731260986328,58.193503900390624,146.32481260986327,58.496116400390626C155.49611260986327,58.69289390039062,168.9538126098633,59.387687900390624,180.9846126098633,61.58297290039062C181.22861260986326,61.62792290039062,181.3904126098633,61.86196290039062,181.3458126098633,62.10596290039062C181.30081260986327,62.35000290039063,181.06851260986326,62.50885290039062,180.8231126098633,62.46755290039062C168.85061260986328,60.28190290039063,155.44421260986329,59.590432900390624,146.30541260986328,59.39469090039063C132.3158126098633,59.09372690039063,119.60651260986329,61.113532900390624,109.01565760986328,63.126412900390626C108.98767260986328,63.13170290039062,108.95904760986328,63.13437290039062,108.93145960986328,63.13437290039062Z" fill="#C4C8D4" fill-opacity="1" style="mix-blend-mode:passthrough"/></g><g><path d="M108.93145960986328,46.03138672607422C108.72006460986329,46.03138672607422,108.53131320986328,45.88122672607422,108.49069430986329,45.66650672607422C108.44403290986328,45.42247672607422,108.60418960986328,45.18742672607422,108.84820760986328,45.140826726074216C119.48471260986328,43.11898672607422,132.25731260986328,41.09315872607422,146.32481260986327,41.39313082607422C155.49511260986327,41.58987772607422,168.95241260986327,42.28468672607422,180.9846126098633,44.47929672607422C181.22861260986326,44.52391672607422,181.3904126098633,44.75830672607422,181.3458126098633,45.002326726074216C181.30081260986327,45.24601672607422,181.06851260986326,45.403156726074215,180.8231126098633,45.36354672607422C168.84961260986327,43.178926726074216,155.44321260986328,42.48744672607422,146.30541260986328,42.29169072607422C132.3158126098633,41.99238972607422,119.60651260986329,44.01054672607422,109.01565760986328,46.02337672607422C108.98767260986328,46.02871672607422,108.95904760986328,46.03138672607422,108.93145960986328,46.03138672607422Z" fill="#C4C8D4" fill-opacity="1" style="mix-blend-mode:passthrough"/></g><g><path d="M123.53138359375001,84.4767273071289C123.40288359375,84.4767273071289,123.27968359375001,84.42152730712891,123.19408359375,84.32392730712891C123.19408359375,84.32392730712891,114.51953359375,74.46682730712891,114.51953359375,74.46682730712891C114.51953359375,74.46682730712891,109.22442959375,78.2688273071289,109.22442959375,78.2688273071289C109.02200659375,78.4136273071289,108.74234359375,78.36702730712891,108.59756819375,78.1662273071289C108.45273169375,77.96422730712891,108.49896589375,77.68352730712891,108.70077859375,77.53872730712891C108.70077859375,77.53872730712891,114.32608359375,73.5000273071289,114.32608359375,73.5000273071289C114.51355359375,73.3638273071289,114.77219359375,73.3938273071289,114.92538359375,73.5683273071289C114.92538359375,73.5683273071289,123.47338359375,83.2816273071289,123.47338359375,83.2816273071289C123.47338359375,83.2816273071289,136.73968359375,62.444027307128906,136.73968359375,62.444027307128906C136.82788359375,62.3052273071289,136.98708359375001,62.2256273071289,137.15018359375,62.237027307128905C137.31468359375,62.2483273071289,137.45948359375,62.349227307128906,137.52778359375,62.49932730712891C137.52778359375,62.49932730712891,144.31568359375,77.45442730712891,144.31568359375,77.45442730712891C144.31568359375,77.45442730712891,149.43028359375,77.45442730712891,149.43028359375,77.45442730712891C149.43028359375,77.45442730712891,153.78298359375,56.294627307128906,153.78298359375,56.294627307128906C153.82588359375,56.085927307128905,154.00958359375,55.936127307128906,154.22268359375,55.936127307128906C154.22268359375,55.936127307128906,168.21538359375,55.936127307128906,168.21538359375,55.936127307128906C168.21538359375,55.936127307128906,181.08778359375,37.4296783071289,181.08778359375,37.4296783071289C181.22968359375,37.22526400712891,181.50988359375,37.17500910712891,181.71338359375,37.31748810712891C181.91708359375,37.4586543071289,181.96738359375001,37.73863830712891,181.82548359375,37.94205330712891C181.82548359375,37.94205330712891,168.81938359375,56.64152730712891,168.81938359375,56.64152730712891C168.73508359375,56.7624273071289,168.59718359375,56.8343273071289,168.45008359375,56.8343273071289C168.45008359375,56.8343273071289,154.58928359375,56.8343273071289,154.58928359375,56.8343273071289C154.58928359375,56.8343273071289,150.23668359375,77.9941273071289,150.23668359375,77.9941273071289C150.19368359375,78.2029273071289,150.00988359375,78.35302730712891,149.79658359375,78.35302730712891C149.79658359375,78.35302730712891,144.02598359375,78.35302730712891,144.02598359375,78.35302730712891C143.84958359375,78.35302730712891,143.69008359375,78.2505273071289,143.61718359374998,78.0897273071289C143.61718359374998,78.0897273071289,137.05228359375,63.625927307128904,137.05228359375,63.625927307128904C137.05228359375,63.625927307128904,123.91058359375,84.2687273071289,123.91058359375,84.2687273071289C123.83468359375,84.38822730712891,123.70688359375,84.46442730712891,123.56598359375,84.4751273071289C123.55468359375,84.4757273071289,123.54268359375,84.4767273071289,123.53138359375001,84.4767273071289Z" fill="url(#master_svg9_0_5630)" fill-opacity="1" style="mix-blend-mode:passthrough"/></g><g><path d="M108.93186982714843,98.23334796142578C108.82832382714844,98.23334796142578,108.72642482714843,98.19734796142578,108.64521782714844,98.12984796142578C108.54234312714844,98.04454796142578,108.48277282714844,97.91844796142578,108.48277282714844,97.78424796142578C108.48277282714844,97.78424796142578,108.48277282714844,28.13545996142578,108.48277282714844,28.13545996142578C108.48277282714844,27.887427961425782,108.68351782714844,27.68634796142578,108.93186982714843,27.68634796142578C109.18022182714844,27.68634796142578,109.38090482714844,27.887427961425782,109.38090482714844,28.13545996142578C109.38090482714844,28.13545996142578,109.38090482714844,97.24194796142578,109.38090482714844,97.24194796142578C119.90997282714844,95.25334796142577,132.49167282714845,93.29844796142578,146.32497282714843,93.59504796142578C155.49597282714842,93.79184796142579,168.95397282714845,94.48664796142577,180.98467282714844,96.68194796142578C181.22837282714843,96.72684796142578,181.39047282714844,96.96094796142579,181.34567282714843,97.20494796142579C181.30097282714843,97.44894796142579,181.06817282714843,97.60774796142579,180.82317282714843,97.56654796142578C168.85067282714843,95.38084796142579,155.44427282714844,94.68934796142578,146.30557282714844,94.49364796142578C132.31597282714844,94.19534796142578,119.60637282714843,96.21254796142578,109.01576282714844,98.22534796142578C108.98814382714843,98.23064796142579,108.95982382714844,98.23334796142578,108.93186982714843,98.23334796142578Z" fill="#C4C8D4" fill-opacity="1" style="mix-blend-mode:passthrough"/></g><g><path d="M138.31494711914064,138.9384593798828C138.31494711914064,138.9384593798828,138.31494711914064,149.98248937988282,138.31494711914064,149.98248937988282C138.31494711914064,149.98248937988282,125.37924711914063,155.9074893798828,125.37924711914063,155.9074893798828C125.37924711914063,155.9074893798828,113.69204711914062,149.98248937988282,113.69204711914062,149.98248937988282C113.69204711914062,149.98248937988282,120.74069711914062,129.4984893798828,120.74069711914062,129.4984893798828C120.74069711914062,129.4984893798828,138.31494711914064,138.9384593798828,138.31494711914064,138.9384593798828C138.31494711914064,138.9384593798828,138.31494711914064,138.9384593798828,138.31494711914064,138.9384593798828Z" fill="#BA5D4A" fill-opacity="1" style="mix-blend-mode:passthrough"/></g><g><path d="M144.1060307739258,140.54245360107421C136.98053077392578,141.98295360107423,130.9782407739258,140.54245360107421,130.9782407739258,140.54245360107421C130.9782407739258,140.54245360107421,125.45645077392578,122.53605360107422,125.37951591892578,121.96945360107422C125.30261157392579,121.41245360107422,130.9014007739258,106.36406360107422,130.66131077392578,106.36406360107422C130.42126077392578,106.36406360107422,135.05984077392577,100.04524160107422,135.5400307739258,100.20835818107422C136.02003077392578,100.36216660107422,143.4628307739258,103.64640360107421,143.4628307739258,103.64640360107421C143.4628307739258,103.64640360107421,144.1350307739258,105.55741360107422,145.07573077392578,108.43852360107422C145.4313307739258,109.50450360107422,145.8249307739258,110.70465360107421,146.22843077392577,111.99185360107421C147.3902307739258,115.66985360107422,148.7156307739258,120.03945360107421,149.73363077392577,124.01515360107422C150.04063077392578,125.20605360107422,150.3096307739258,126.34865360107422,150.54973077392577,127.43405360107423C150.6076307739258,127.68365360107421,150.66523077392577,127.93335360107422,150.71313077392577,128.1733536010742C150.7804307739258,128.50935360107422,150.84763077392577,128.84555360107422,150.90523077392578,129.1722536010742C151.83673077392578,134.07945360107422,151.23153077392578,139.10185360107423,144.1060307739258,140.54245360107421Z" fill="#BA5D4A" fill-opacity="1" style="mix-blend-mode:passthrough"/></g><g><path d="M145.38711547851562,115.09011840820312C145.38711547851562,115.09011840820312,149.66842547851562,116.97091840820312,150.62893547851561,118.45132840820312C151.58944547851561,119.93185840820313,151.0290854785156,120.81209840820313,150.42883547851562,121.85247840820313C149.82861547851562,122.89284840820312,148.86843547851564,123.65325840820313,148.86843547851564,123.65325840820313C148.86843547851564,123.65325840820313,145.38711547851562,115.09011840820312,145.38711547851562,115.09011840820312C145.38711547851562,115.09011840820312,145.38711547851562,115.09011840820312,145.38711547851562,115.09011840820312Z" fill="#BA5D4A" fill-opacity="1" style="mix-blend-mode:passthrough"/></g><g><path d="M143.9575184453125,114.38204628808593C143.0872484453125,115.33053028808594,143.6509084453125,117.56942028808594,144.5041184453125,118.36142028808594C144.6709264453125,118.51660028808594,144.8663964453125,118.65545028808594,145.0987264453125,118.71866028808594C146.5509964453125,119.11349028808594,146.6994264453125,116.91989028808594,146.5216364453125,116.20010028808593C146.3565064453125,115.53192028808594,145.9603264453125,114.53417628808593,145.2545164453125,114.17458828808594C144.8530564453125,113.97015088808594,144.2540884453125,114.05941480808593,143.9575184453125,114.38204628808593Z" fill="#38231D" fill-opacity="1" style="mix-blend-mode:passthrough"/></g><g><path d="M150.55022395019532,127.43366680175781C148.96581395019533,127.12632680175781,146.5169039501953,126.42524680175781,145.1339375501953,124.86943080175782C144.9034989501953,124.61012280175781,145.1149555501953,124.1973118017578,145.4701799501953,124.17799380175781C145.4701799501953,124.17799380175781,149.73388395019532,124.01484680175781,149.73388395019532,124.01484680175781C150.0412239501953,125.20573680175781,150.3101439501953,126.34864680175781,150.55022395019532,127.43366680175781Z" fill="#FFFFFF" fill-opacity="1" style="mix-blend-mode:passthrough"/></g><g><path d="M146.22851072265624,111.99177182128906C145.73876072265625,112.13594182128907,145.23937072265625,112.27043182128907,144.75930072265626,112.44322182128906C143.65502072265625,112.83671182128906,142.57897072265624,113.28819182128906,141.52304072265625,113.78758182128907C141.22537072265624,113.93168182128906,140.90805072265624,114.08516182128906,140.57213972265626,114.06618182128906C140.13033672265624,114.03721182128906,139.67892042265626,113.58580182128907,139.65990797365626,113.13466182128906C139.65029493265624,112.91365182128906,139.74618112265625,112.69292182128906,139.84240272265626,112.49116182128907C140.47597872265624,111.17540182128906,141.46539072265625,110.00389182128906,142.72351072265624,109.24519382128906C143.43396072265625,108.82270782128906,144.25024072265626,108.53471372128907,145.07623072265625,108.43849182128906C145.43145072265625,109.50456182128906,145.82528072265626,110.70503182128907,146.22851072265624,111.99177182128906Z" fill="#38231D" fill-opacity="1" style="mix-blend-mode:passthrough"/></g><g><path d="M126.51108648681641,94.12581024169921C118.0845864868164,94.40483224169922,109.0560164868164,100.14167524169922,106.59309048681641,108.14783524169923C106.5451774868164,108.30363524169923,106.49924848681641,108.45973524169922,106.45563948681641,108.61653524169922C105.33799448681641,112.62823524169922,105.86594818681641,116.94093524169922,107.2252964868164,120.82443524169922C108.54636648681641,124.59913524169922,110.70032648681641,127.62963524169922,113.22092648681641,130.68023524169922C114.36481648681641,132.0651352416992,115.5343764868164,133.42883524169923,116.71958648681641,134.7784352416992C116.9312864868164,135.0195352416992,117.9662864868164,136.55703524169923,118.3078864868164,136.56463524169922C118.3078864868164,136.56463524169922,124.89718648681641,136.71083524169921,128.5797864868164,136.5060352416992C131.32418648681642,136.3535352416992,130.66588648681642,135.3012352416992,131.3933864868164,132.99313524169924C132.4490864868164,129.64413524169922,135.27728648681642,127.81443524169921,137.2700864868164,125.10543524169921C138.0001864868164,124.11333524169922,138.6450864868164,123.41553524169922,138.6337864868164,122.19173524169922C138.6213864868164,120.88103524169922,138.2425864868164,119.47383524169922,137.8493864868164,118.17203524169922C137.8500864868164,118.12743524169922,137.8523864868164,118.08213524169922,137.83878648681642,118.04023524169922C137.28408648681642,116.37493524169922,136.7267864868164,114.71023524169922,136.1747864868164,113.04433524169922C135.4126864868164,110.74453524169923,134.9492864868164,108.81663524169922,137.6133864868164,107.42933524169922C139.7816864868164,106.30003524169922,143.60418648681642,104.05317524169922,143.60418648681642,104.05317524169922C143.60418648681642,104.05317524169922,143.5213864868164,93.56283724169921,126.51108648681641,94.12581024169921Z" fill="#38231D" fill-opacity="1" style="mix-blend-mode:passthrough"/></g><g><path d="M138.87735962402343,115.25393950927734C138.84778962402345,115.22561950927734,138.81812962402344,115.19732950927734,138.78778962402345,115.16934950927734C138.48920962402343,114.89065850927734,138.16919962402343,114.62570450927734,137.79834962402344,114.43329150927734C136.95945962402342,113.99844630927734,135.91269962402345,113.97479520927735,134.99479962402344,114.24542550927734C133.30191962402344,114.74484550927734,131.93128962402344,116.11752950927735,131.21449062402343,117.56976950927735C129.75965662402345,120.51739950927734,131.33836162402343,126.05320950927734,134.03501962402345,128.16590950927736C136.60453962402343,130.17910950927734,140.04822962402343,128.27710950927735,141.14263962402345,125.81120950927735C142.69733962402344,122.30816950927735,141.70853962402344,117.96584950927735,138.87735962402343,115.25393950927734Z" fill="#BA5D4A" fill-opacity="1" style="mix-blend-mode:passthrough"/></g><g><path d="M138.02487729492188,123.950837421875C136.95591729492187,122.875157421875,138.01090729492188,121.600437421875,137.66336729492187,120.437807421875C137.38437729492188,119.503667421875,136.40457729492186,118.788271421875,135.74637829492187,118.127047421875C135.30997729492188,117.688235421875,134.63077829492187,118.367068421875,135.06754529492187,118.805910421875C135.46274829492188,119.203037421875,135.94016729492188,119.587557421875,136.28238729492188,120.033027421875C136.94425729492187,120.894657421875,136.57071729492188,121.282807421875,136.53574729492186,122.134467421875C136.49942729492187,123.017367421875,136.71250729492186,123.992467421875,137.34604729492187,124.629977421875C137.78214729492188,125.068787421875,138.46134729492186,124.389927421875,138.02487729492188,123.950837421875Z" fill="#38231D" fill-opacity="1" style="mix-blend-mode:passthrough"/></g><g><path d="M143.52068618164063,149.8670424609375C143.52068618164063,149.8670424609375,135.70368618164062,159.7008224609375,132.34248618164062,159.9505224609375C128.98138618164063,160.1809224609375,109.16958618164062,149.8670424609375,109.16958618164062,149.8670424609375C109.16958618164062,149.8670424609375,109.32336418164063,149.3965824609375,109.58273318164062,148.6761824609375C109.58273318164062,148.6761824609375,109.58273318164062,148.6665724609375,109.58273318164062,148.6665724609375C109.68789718164062,148.3978624609375,109.79376218164063,148.0902424609375,109.91860918164062,147.7639824609375C110.80224618164063,145.4494924609375,112.32900618164062,141.9441524609375,113.69296618164063,141.1854284609375C115.77673618164063,140.0138894609375,134.92568618164063,142.1845424609375,138.31578618164062,143.2598624609375C139.87148618164062,143.7495724609375,141.09098618164063,145.1805124609375,141.95538618164062,146.5827324609375C142.18568618164062,146.9573124609375,142.39708618164062,147.3222124609375,142.56988618164064,147.6677624609375C143.20368618164062,148.8876124609375,143.52068618164063,149.8670424609375,143.52068618164063,149.8670424609375Z" fill="#67DCD8" fill-opacity="1" style="mix-blend-mode:passthrough"/></g><g><path d="M142.56951599121095,147.66771271972655C138.03671599121094,147.96534271972655,133.52301599121094,148.43611271972657,128.94241599121094,149.03142271972655C122.77691599121094,149.82838271972656,115.88188599121094,149.89561271972656,109.58201599121094,148.67619271972657C109.58201599121094,148.67619271972657,109.58201599121094,148.66649271972656,109.58201599121094,148.66649271972656C109.68754599121094,148.39747271972655,109.79344199121094,148.09019271972656,109.91825899121093,147.76393271972657C116.74613599121093,149.05064271972657,124.25581599121094,148.82033271972657,130.90131599121094,147.76393271972657C134.57001599121094,147.18766771972656,138.25751599121094,146.81312571972657,141.95491599121095,146.58241271972656C142.18531599121093,146.95695471972655,142.39671599121095,147.32218971972657,142.56951599121095,147.66771271972655Z" fill="#38231D" fill-opacity="1" style="mix-blend-mode:passthrough"/></g></g><g><g><g><path d="M10.439896328125,184.041443359375C9.940506328125,184.041443359375,9.442126328125,183.907443359375,8.992016328125,183.63944335937498C8.123427328125,183.12244335937498,7.604736328125,182.210443359375,7.604736328125,181.20044335937502C7.604736328125,181.20044335937502,7.604736328125,88.144543359375,7.604736328125,88.144543359375C7.604736328125,86.510943359375,8.579196328125,85.063043359375,10.086666328125,84.45744335937499C31.140636328125,75.997943359375,52.512836328125,69.364503359375,73.609336328125,64.742231859375C74.405736328125,64.567448359375,75.227636328125,64.761543759375,75.864936328125,65.274904359375C76.504136328125,65.788933359375,76.870636328125,66.553323359375,76.870636328125,67.371973359375C76.870636328125,67.371973359375,76.870636328125,154.406243359375,76.870636328125,154.406243359375C76.870636328125,156.162043359375,75.686736328125,157.732443359375,73.991536328125,158.226443359375C45.373936328125,166.564443359375,22.736036328125,177.76444335937498,11.788886328124999,183.696443359375C11.363746328125,183.927443359375,10.901326328125,184.041443359375,10.439896328125,184.041443359375Z" fill="#FFFFFF" fill-opacity="1" style="mix-blend-mode:passthrough"/><path d="M12.027116328125,184.13544335937502L12.027376328125001,184.13544335937502Q41.300136328125,168.27244335937502,74.131436328125,158.70654335937502Q75.562336328125,158.289443359375,76.466136328125,157.090443359375Q77.370636328125,155.89034335937498,77.370636328125,154.406243359375L77.370636328125,67.371973359375Q77.370636328125,65.844153359375,76.178536328125,64.885543359375Q74.989336328125,63.927454359375,73.502336328125,64.253817359375Q41.670036328125,71.228353359375,9.900276328124999,83.993543359375Q7.104736328125,85.116543359375,7.104736328125,88.144543359375L7.104736328125,181.20044335937502Q7.104736328125,183.097443359375,8.735996328125,184.068443359375Q9.529426328125,184.541443359375,10.439896328125,184.541443359375Q11.278926328125,184.541443359375,12.027116328125,184.13544335937502ZM73.851636328125,157.746443359375Q40.917536328125,167.342443359375,11.550666328125,183.256443359375L11.550406328125,183.256443359375Q11.025206328125,183.541443359375,10.439896328125,183.541443359375Q9.804886328125,183.541443359375,9.248036328125,183.209443359375Q8.104736328125,182.529443359375,8.104736328125,181.20044335937502L8.104736328125,88.144543359375Q8.104736328125,85.792543359375,10.273046328125,84.921443359375Q41.965536328125,72.187423359375,73.716336328125,65.230646359375Q74.735336328125,65.006998359375,75.551236328125,65.664266359375Q76.370636328125,66.323213359375,76.370636328125,67.371973359375L76.370636328125,154.406243359375Q76.370636328125,155.55564335937498,75.667536328125,156.488543359375Q74.963736328125,157.42234335937502,73.851636328125,157.746443359375Z" fill-rule="evenodd" fill="#0024A9" fill-opacity="1" style="mix-blend-mode:passthrough"/></g><g><path d="M24.999838096618653,93.64545440673828C24.999838096618653,93.64545440673828,24.999838096618653,169.2907544067383,24.999838096618653,169.2907544067383C23.984458096618653,169.77615440673827,23.00533809661865,170.2522544067383,22.052848096618654,170.7196544067383C19.37515809661865,172.03135440673827,16.949168096618653,173.2622544067383,14.792838096618652,174.39445440673828C14.792838096618652,174.39445440673828,14.792838096618652,97.45506440673829,14.792838096618652,97.45506440673829C18.090418096618652,96.17932440673827,21.48654809661865,94.90323440673828,24.999838096618653,93.64545440673828Z" fill="url(#master_svga_0_5634)" fill-opacity="1" style="mix-blend-mode:passthrough"/></g><g><path d="M28.92633881591797,106.1885986328125C28.92633881591797,106.1885986328125,28.92633881591797,167.7902986328125,28.92633881591797,167.7902986328125C27.569678815917968,168.3472986328125,26.257638815917968,168.8955986328125,24.99986881591797,169.4345986328125C23.98444881591797,169.8750986328125,23.00532581591797,170.2971986328125,22.05284881591797,170.71969863281248C22.05284881591797,170.71969863281248,22.05284881591797,108.6415386328125,22.05284881591797,108.6415386328125C23.02297581591797,108.2819986328125,24.01141881591797,107.9317586328125,24.99986881591797,107.5722086328125C26.29392881591797,107.1051176328125,27.60563881591797,106.6466826328125,28.92633881591797,106.1885986328125Z" fill="url(#master_svgb_0_5636)" fill-opacity="1" style="mix-blend-mode:passthrough"/></g><g><path d="M45.216143829345704,117.536865234375C45.216143829345704,117.536865234375,45.216143829345704,160.467665234375,45.216143829345704,160.467665234375C44.2187338293457,160.862865234375,43.2393038293457,161.258465234375,42.269153829345704,161.653565234375C39.7442938293457,162.686965234375,37.3272838293457,163.711365234375,35.0091438293457,164.72646523437498C35.0091438293457,164.72646523437498,35.0091438293457,120.762555234375,35.0091438293457,120.762555234375C38.333693829345705,119.657255234375,41.738823829345705,118.588245234375,45.216143829345704,117.536865234375Z" fill="url(#master_svgc_0_5638)" fill-opacity="1" style="mix-blend-mode:passthrough"/></g><g><path d="M49.14264740966797,133.81771850585938C49.14264740966797,133.81771850585938,49.14264740966797,158.93991850585937,49.14264740966797,158.93991850585937C47.81296740966797,159.45231850585938,46.500927409667966,159.96431850585938,45.21617740966797,160.46741850585937C44.218737409667966,160.86291850585937,43.23929640966797,161.25801850585938,42.26915740966797,161.65361850585938C42.26915740966797,161.65361850585938,42.26915740966797,135.86617850585938,42.26915740966797,135.86617850585938C43.24828340966797,135.56986850585938,44.22774740966797,135.26426850585938,45.21617740966797,134.96760850585937C46.51891740966797,134.58142050585937,47.82195740966797,134.19491550585937,49.14264740966797,133.81771850585938Z" fill="url(#master_svgd_0_5640)" fill-opacity="1" style="mix-blend-mode:passthrough"/></g><g><path d="M65.30693743896484,101.30963134765625C65.30693743896484,101.30963134765625,65.46743743896485,153.02963134765625,65.46743743896485,153.02963134765625C64.47899743896484,153.34423134765626,63.330417438964844,153.88153134765625,62.359967438964844,154.21383134765625C59.880027438964845,155.03143134765625,57.45406743896484,155.87613134765624,55.099937438964844,156.72973134765624C55.099937438964844,156.72973134765624,55.099937438964844,103.67271134765625,55.099937438964844,103.67271134765625C57.48999743896484,103.00784134765625,59.90700743896485,102.37898134765625,62.359967438964844,101.75872834765624C62.961887438964844,101.60624734765625,63.563807438964844,101.45346034765625,64.17470743896484,101.30963134765625C64.17470743896484,101.30963134765625,65.30693743896484,101.30963134765625,65.30693743896484,101.30963134765625C65.30693743896484,101.30963134765625,65.30693743896484,101.30963134765625,65.30693743896484,101.30963134765625Z" fill="url(#master_svge_0_5642)" fill-opacity="1" style="mix-blend-mode:passthrough"/></g><g><path d="M69.224459140625,76.47504138946533C69.224459140625,76.47504138946533,69.224459140625,151.92594138946532,69.224459140625,151.92594138946532C69.224459140625,151.92594138946532,66.761159140625,153.01124138946534,65.467439140625,153.50564138946532C64.478999140625,153.86494138946534,63.330078140625,153.82764138946533,62.359619140625,154.21414138946534C62.359619140625,154.21414138946534,62.359619140625,78.13732138946533,62.359619140625,78.13732138946533C64.624179140625,77.56237138946533,66.915299140625,77.00538338946534,69.224459140625,76.47504138946533Z" fill="url(#master_svgf_0_5644)" fill-opacity="1" style="mix-blend-mode:passthrough"/></g></g></g></g></svg>