<svg xmlns="http://www.w3.org/2000/svg" xmlns:xlink="http://www.w3.org/1999/xlink" fill="none" version="1.1" width="12.4345703125" height="21.868896484375" viewBox="0 0 12.4345703125 21.868896484375"><g><path d="M11.9952,9.87365L2.56065,0.43933L0.4393499999999999,2.56067L8.81324,10.93434L0.43934000000000006,19.3082L2.56066,21.4296L11.9952,11.995Q12.0473,11.9429,12.0941,11.8859Q12.1408,11.8289,12.1818,11.7677Q12.2227,11.7064,12.2575,11.6414Q12.2922,11.5764,12.3204,11.5083Q12.3486,11.44025,12.37,11.36973Q12.3914,11.29922,12.4058,11.22694Q12.4201,11.15467,12.4273,11.08133Q12.4346,11.008,12.4346,10.93431Q12.4346,10.86062,12.4273,10.78728Q12.4201,10.71395,12.4057,10.64167Q12.3914,10.5694,12.37,10.49888Q12.3486,10.42836,12.3204,10.36028Q12.2922,10.2922,12.2574,10.22721Q12.2227,10.16222,12.1818,10.10095Q12.1408,10.03968,12.0941,9.98272Q12.0473,9.92576,11.9952,9.87365Z" fill-rule="evenodd" fill="#5C2D25" fill-opacity="1" style="mix-blend-mode:passthrough"/></g></svg>