<svg xmlns="http://www.w3.org/2000/svg" xmlns:xlink="http://www.w3.org/1999/xlink" fill="none" version="1.1" width="201.5078125" height="163.6787109375" viewBox="0 0 201.5078125 163.6787109375"><defs><mask id="master_svg0_0_987" style="mask-type:alpha" maskUnits="userSpaceOnUse"><g><rect x="58" y="30.000045776367188" width="96" height="96" rx="0" fill="#FFFFFF" fill-opacity="1"/></g></mask></defs><g><g><path d="M33.3428,7.9233856201171875C33.3428,7.9233856201171875,191.51,8.000045820117187,191.51,8.000045820117187C191.51,8.000045820117187,158.046,163.67838562011718,158.046,163.67838562011718C158.046,163.67838562011718,0,163.67838562011718,0,163.67838562011718C0,163.67838562011718,33.3428,7.9233856201171875,33.3428,7.9233856201171875C33.3428,7.9233856201171875,33.3428,7.9233856201171875,33.3428,7.9233856201171875Z" fill="#3B4AFF" fill-opacity="1" style="mix-blend-mode:passthrough"/></g><g><g><path d="M43.9561,0C43.9561,0,10,155.733,10,155.733C10,155.733,167.552,155.733,167.552,155.733C167.552,155.733,201.508,0,201.508,0C201.508,0,43.9561,0,43.9561,0C43.9561,0,43.9561,0,43.9561,0Z" fill="#9285F9" fill-opacity="1" style="mix-blend-mode:passthrough"/></g></g><g><g><path d="M88,91.00004577636719L88,80.00004577636719Q88,79.90155437636719,88.019215,79.8049557763672Q88.03843,79.70835677636718,88.076121,79.61736277636719Q88.113812,79.52636777636718,88.16853,79.44447577636718Q88.223249,79.36258277636719,88.292893,79.2929387763672Q88.362537,79.22329477636718,88.44443,79.16857577636719Q88.526322,79.11385777636718,88.617317,79.07616677636719Q88.708311,79.03847577636719,88.80491,79.01926077636719Q88.9015086,79.00004577636719,89,79.00004577636719L100,79.00004577636719Q100.0985,79.00004577636719,100.1951,79.01926077636719Q100.2917,79.03847577636719,100.3827,79.07616677636719Q100.4737,79.11385777636718,100.5556,79.16857577636719Q100.6375,79.22329477636718,100.7071,79.2929387763672Q100.7767,79.36258277636719,100.8315,79.44447577636718Q100.8862,79.52636777636718,100.9239,79.61736277636719Q100.9616,79.70835677636718,100.9808,79.8049557763672Q101,79.90155437636719,101,80.00004577636719L101,91.00004577636719Q101,91.09854577636719,100.9808,91.19514577636718Q100.9616,91.2917457763672,100.9239,91.38274577636719Q100.8862,91.47374577636718,100.8315,91.55564577636719Q100.7767,91.63754577636719,100.7071,91.70714577636718Q100.6375,91.77674577636719,100.5556,91.8315457763672Q100.4737,91.88624577636719,100.3827,91.92394577636719Q100.2917,91.96164577636719,100.1951,91.98084577636719Q100.0985,92.00004577636719,100,92.00004577636719L89,92.00004577636719Q88.9015086,92.00004577636719,88.80491,91.98084577636719Q88.708311,91.96164577636719,88.617317,91.92394577636719Q88.526322,91.88624577636719,88.44443,91.8315457763672Q88.362537,91.77674577636719,88.292893,91.70714577636718Q88.223249,91.63754577636719,88.16853,91.55564577636719Q88.113812,91.47374577636718,88.076121,91.38274577636719Q88.03843,91.2917457763672,88.019215,91.19514577636718Q88,91.09854577636719,88,91.00004577636719ZM90,81.00004577636719L90,90.00004577636719L99,90.00004577636719L99,81.00004577636719L90,81.00004577636719Z" fill="#FFFFFF" fill-opacity="1" style="mix-blend-mode:passthrough"/></g><g><path d="M99,91.00004577636719L99,72.00004577636719Q99,71.90155437636719,99.019215,71.8049557763672Q99.03843,71.70835677636718,99.076121,71.61736277636719Q99.113812,71.52636777636718,99.16853,71.44447577636718Q99.223249,71.36258277636719,99.292893,71.2929387763672Q99.362537,71.22329477636718,99.44443,71.16857577636719Q99.526322,71.11385777636718,99.617317,71.07616677636719Q99.708311,71.03847577636719,99.80491,71.01926077636719Q99.9015086,71.00004577636719,100,71.00004577636719L112,71.00004577636719Q112.0985,71.00004577636719,112.1951,71.01926077636719Q112.2917,71.03847577636719,112.3827,71.07616677636719Q112.4737,71.11385777636718,112.5556,71.16857577636719Q112.6375,71.22329477636718,112.7071,71.2929387763672Q112.7767,71.36258277636719,112.8315,71.44447577636718Q112.8862,71.52636777636718,112.9239,71.61736277636719Q112.9616,71.70835677636718,112.9808,71.8049557763672Q113,71.90155437636719,113,72.00004577636719L113,91.00004577636719Q113,91.09854577636719,112.9808,91.19514577636718Q112.9616,91.29174577636718,112.9239,91.38274577636719Q112.8862,91.4737457763672,112.8315,91.55564577636719Q112.7767,91.63754577636719,112.7071,91.70714577636718Q112.6375,91.77674577636719,112.5556,91.8315457763672Q112.4737,91.88624577636719,112.3827,91.92394577636719Q112.2917,91.96164577636719,112.1951,91.98084577636719Q112.0985,92.00004577636719,112,92.00004577636719L100,92.00004577636719Q99.9015086,92.00004577636719,99.80491,91.98084577636719Q99.708311,91.96164577636719,99.617317,91.92394577636719Q99.526322,91.88624577636719,99.44443,91.8315457763672Q99.362537,91.77674577636719,99.292893,91.70714577636718Q99.223249,91.63754577636719,99.16853,91.55564577636719Q99.113812,91.4737457763672,99.076121,91.38274577636719Q99.03843,91.29174577636718,99.019215,91.19514577636718Q99,91.09854577636719,99,91.00004577636719ZM101,73.00004577636719L101,90.00004577636719L111,90.00004577636719L111,73.00004577636719L101,73.00004577636719Z" fill="#FFFFFF" fill-opacity="1" style="mix-blend-mode:passthrough"/></g><g><path d="M111,91.00004577636719L111,65.00004577636719Q111,64.90155437636719,111.019215,64.8049557763672Q111.03843,64.70835677636718,111.076121,64.61736277636719Q111.113812,64.52636777636718,111.16853,64.44447577636718Q111.223249,64.36258277636719,111.292893,64.2929387763672Q111.362537,64.22329477636718,111.44443,64.16857577636719Q111.526322,64.11385777636718,111.617317,64.07616677636719Q111.708311,64.03847577636719,111.80491,64.01926077636719Q111.9015086,64.00004577636719,112,64.00004577636719L123,64.00004577636719Q123.0985,64.00004577636719,123.1951,64.01926077636719Q123.2917,64.03847577636719,123.3827,64.07616677636719Q123.4737,64.11385777636718,123.5556,64.16857577636719Q123.6375,64.22329477636718,123.7071,64.2929387763672Q123.7767,64.36258277636719,123.8315,64.44447577636718Q123.8862,64.52636777636718,123.9239,64.61736277636719Q123.9616,64.70835677636718,123.9808,64.8049557763672Q124,64.90155437636719,124,65.00004577636719L124,91.00004577636719Q124,91.09854577636719,123.9808,91.19514577636718Q123.9616,91.29174577636718,123.9239,91.38274577636719Q123.8862,91.4737457763672,123.8315,91.55564577636719Q123.7767,91.63754577636719,123.7071,91.70714577636718Q123.6375,91.77674577636719,123.5556,91.8315457763672Q123.4737,91.88624577636719,123.3827,91.92394577636719Q123.2917,91.96164577636719,123.1951,91.98084577636719Q123.0985,92.00004577636719,123,92.00004577636719L112,92.00004577636719Q111.9015086,92.00004577636719,111.80491,91.98084577636719Q111.708311,91.96164577636719,111.617317,91.92394577636719Q111.526322,91.88624577636719,111.44443,91.8315457763672Q111.362537,91.77674577636719,111.292893,91.70714577636718Q111.223249,91.63754577636719,111.16853,91.55564577636719Q111.113812,91.4737457763672,111.076121,91.38274577636719Q111.03843,91.29174577636718,111.019215,91.19514577636718Q111,91.09854577636719,111,91.00004577636719ZM113,66.00004577636719L113,90.00004577636719L122,90.00004577636719L122,66.00004577636719L113,66.00004577636719Z" fill="#FFFFFF" fill-opacity="1" style="mix-blend-mode:passthrough"/></g><g><g mask="url(#master_svg0_0_987)"><g><path d="M73.38193750953674,79.50008328590394Q73.45563750953674,79.50008328590394,73.52893750953675,79.49278328590393Q73.60223750953675,79.48558328590393,73.67453750953675,79.47118328590393Q73.74683750953675,79.45688328590393,73.81733750953674,79.43548328590393Q73.88783750953674,79.41408328590393,73.95593750953674,79.38588328590393Q74.02403750953674,79.35768328590393,74.08903750953674,79.32288328590393Q74.15403750953675,79.28818328590393,74.21523750953675,79.24728328590393Q74.27653750953674,79.20628328590394,74.33353750953674,79.15958328590392Q74.39043750953674,79.11278328590393,74.44253750953675,79.06068328590393Q74.49463750953674,79.00858328590394,74.54143750953675,78.95158328590392Q74.58813750953675,78.89468328590394,74.62913750953675,78.83338328590392Q74.67003750953674,78.77208328590393,74.70483750953674,78.70718328590394Q74.73953750953675,78.64218328590394,74.76773750953674,78.57408328590392Q74.79593750953674,78.50598328590394,74.81733750953674,78.43548328590393Q74.83873750953674,78.36498328590393,74.85313750953674,78.29268328590393Q74.86743750953674,78.22038328590392,74.87473750953674,78.14708328590393Q74.88193750953674,78.07378328590393,74.88193750953674,78.00008328590394Q74.88193750953674,65.11028328590393,83.99603750953675,55.996083285903936Q93.11023750953674,46.88198328590393,106.00003750953675,46.88198328590393Q106.07373750953674,46.88198328590393,106.14703750953674,46.87478328590393Q106.22033750953673,46.86748328590393,106.29263750953675,46.85318328590393Q106.36493750953674,46.83878328590393,106.43543750953674,46.81738328590393Q106.50593750953675,46.79598328590393,106.57403750953674,46.76778328590393Q106.64213750953675,46.73958328590393,106.70713750953675,46.70488328590393Q106.77203750953674,46.67008328590393,106.83333750953673,46.629183285903935Q106.89463750953675,46.58818328590393,106.95153750953673,46.54148328590393Q107.00853750953675,46.49468328590393,107.06063750953675,46.44258328590393Q107.11273750953674,46.39048328590393,107.15953750953673,46.33358328590393Q107.20623750953675,46.27658328590393,107.24723750953675,46.21528328590393Q107.28813750953674,46.15408328590393,107.32283750953674,46.08908328590393Q107.35763750953674,46.02408328590393,107.38583750953674,45.95598328590393Q107.41403750953674,45.88788328590393,107.43543750953674,45.81738328590393Q107.45683750953674,45.746883285903934,107.47113750953675,45.67458328590393Q107.48553750953674,45.60228328590393,107.49273750953674,45.528983285903934Q107.50003750953675,45.45568328590393,107.50003750953675,45.38198328590393L107.50003750953675,31.95098328590393Q107.50003750953675,31.87729298590393,107.49273750953674,31.80395728590393Q107.48553750953674,31.73062228590393,107.47113750953675,31.65834828590393Q107.45683750953674,31.586073285903932,107.43543750953674,31.51555628590393Q107.41403750953674,31.44503928590393,107.38583750953674,31.37695828590393Q107.35763750953674,31.308877285903932,107.32283750953674,31.24388828590393Q107.28813750953674,31.17889928590393,107.24723750953675,31.11762828590393Q107.20623750953675,31.05635628590393,107.15953750953673,30.99939328590393Q107.11273750953674,30.94243328590393,107.06063750953675,30.890323285903932Q107.00853750953675,30.83821328590393,106.95153750953673,30.79146328590393Q106.89463750953675,30.74472328590393,106.83333750953673,30.70378328590393Q106.77203750953674,30.662843285903932,106.70713750953675,30.62810328590393Q106.64213750953675,30.59336328590393,106.57403750953674,30.56516328590393Q106.50593750953675,30.53696328590393,106.43543750953674,30.51557328590393Q106.36493750953674,30.49418328590393,106.29263750953675,30.47980328590393Q106.22033750953673,30.46543328590393,106.14703750953674,30.45820328590393Q106.07373750953674,30.45098328590393,106.00003750953675,30.45098328590393Q86.30433750953674,30.45098328590393,72.37763750953674,44.37768328590393Q58.45093750953674,58.30438328590393,58.45093750953674,78.00008328590394Q58.45093750953674,78.07378328590393,58.45815750953674,78.14708328590393Q58.46538750953674,78.22038328590392,58.479757509536746,78.29268328590393Q58.49413750953674,78.36498328590393,58.515527509536746,78.43548328590393Q58.53691750953674,78.50598328590394,58.56511750953674,78.57408328590392Q58.593317509536746,78.64218328590394,58.628057509536745,78.70718328590394Q58.662797509536745,78.77208328590393,58.703737509536744,78.83338328590392Q58.74467750953674,78.89468328590394,58.79141750953674,78.95158328590392Q58.838167509536746,79.00858328590394,58.890277509536745,79.06068328590393Q58.94238750953674,79.11278328590393,58.99934750953674,79.15958328590392Q59.05631050953674,79.20628328590394,59.117582509536746,79.24728328590393Q59.178853509536744,79.28818328590393,59.24384250953674,79.32288328590393Q59.308831509536745,79.35768328590393,59.376912509536744,79.38588328590393Q59.444993509536744,79.41408328590393,59.515510509536746,79.43548328590393Q59.58602750953674,79.45688328590393,59.658302509536746,79.47118328590393Q59.730576509536746,79.48558328590393,59.803911509536746,79.49278328590393Q59.87724720953674,79.50008328590394,59.95093750953674,79.50008328590394L73.38193750953674,79.50008328590394ZM71.91053750953674,76.50008328590394Q72.41643750953675,63.33318328590393,81.87473750953674,53.87478328590393Q91.33313750953674,44.41648328590393,104.50003750953675,43.91058328590393L104.50003750953675,33.47279328590393Q87.01343750953674,33.98449328590393,74.49893750953674,46.49898328590393Q61.98443750953675,59.01348328590393,61.472747509536745,76.50008328590394L71.91053750953674,76.50008328590394Z" fill-rule="evenodd" fill="#FFFFFF" fill-opacity="1" style="mix-blend-mode:passthrough"/></g><g><path d="M104.5,45.38198328590393Q104.5,45.45568328590393,104.50722,45.528983285903934Q104.51445,45.60228328590393,104.52882,45.67458328590393Q104.5432,45.746883285903934,104.56459,45.81738328590393Q104.58598,45.88788328590393,104.61418,45.95598328590393Q104.64238,46.02408328590393,104.67712,46.08908328590393Q104.71186,46.15408328590393,104.7528,46.21528328590393Q104.79374,46.27658328590393,104.84048,46.33358328590393Q104.88723,46.39048328590393,104.93934,46.44258328590393Q104.99145,46.49468328590393,105.04841,46.54148328590393Q105.105373,46.58818328590393,105.166645,46.629183285903935Q105.227916,46.67008328590393,105.292905,46.70488328590393Q105.357894,46.73958328590393,105.425975,46.76778328590393Q105.494056,46.79598328590393,105.564573,46.81738328590393Q105.63509,46.83878328590393,105.707365,46.85318328590393Q105.779639,46.86748328590393,105.852974,46.87478328590393Q105.9263097,46.88198328590393,106,46.88198328590393Q118.8898,46.88198328590393,128.0039,55.996083285903936Q137.1181,65.11028328590393,137.1181,78.00008328590394Q137.1181,78.07378328590393,137.1253,78.14708328590393Q137.1325,78.22038328590392,137.1469,78.29268328590393Q137.1613,78.36498328590393,137.1827,78.43548328590393Q137.2041,78.50598328590394,137.2323,78.57408328590392Q137.2605,78.64218328590394,137.2952,78.70718328590394Q137.3299,78.77208328590393,137.3709,78.83338328590392Q137.4118,78.89468328590394,137.4586,78.95158328590392Q137.5053,79.00858328590394,137.5574,79.06068328590393Q137.6095,79.11278328590393,137.66649999999998,79.15958328590392Q137.7235,79.20628328590394,137.7847,79.24728328590393Q137.846,79.28818328590393,137.911,79.32288328590393Q137.976,79.35768328590393,138.04410000000001,79.38588328590393Q138.1121,79.41408328590393,138.1827,79.43548328590393Q138.2532,79.45688328590393,138.3255,79.47118328590393Q138.3977,79.48558328590393,138.4711,79.49278328590393Q138.5444,79.50008328590394,138.6181,79.50008328590394L152.0491,79.50008328590394Q152.12279999999998,79.50008328590394,152.1961,79.49278328590393Q152.2694,79.48558328590393,152.3417,79.47118328590393Q152.414,79.45688328590393,152.4845,79.43548328590393Q152.555,79.41408328590393,152.6231,79.38588328590393Q152.6912,79.35768328590393,152.7562,79.32288328590393Q152.8211,79.28818328590393,152.8824,79.24728328590393Q152.9437,79.20628328590394,153.0006,79.15958328590392Q153.0576,79.11278328590393,153.1097,79.06068328590393Q153.1618,79.00858328590394,153.2086,78.95158328590392Q153.2553,78.89468328590394,153.2963,78.83338328590392Q153.3372,78.77208328590393,153.37189999999998,78.70718328590394Q153.4067,78.64218328590394,153.4349,78.57408328590392Q153.4631,78.50598328590394,153.4845,78.43548328590393Q153.5059,78.36498328590393,153.5202,78.29268328590393Q153.5346,78.22038328590392,153.5418,78.14708328590393Q153.5491,78.07378328590393,153.5491,78.00008328590394Q153.5491,58.304283285903935,139.6224,44.37768328590393Q125.6957,30.45098328590393,106,30.45098328590393Q105.9263097,30.45098328590393,105.852974,30.45820328590393Q105.779639,30.46543328590393,105.707365,30.47980328590393Q105.63509,30.49418328590393,105.564573,30.51557328590393Q105.494056,30.53696328590393,105.425975,30.56516328590393Q105.357894,30.59336328590393,105.292905,30.62810328590393Q105.227916,30.662843285903932,105.166645,30.70378328590393Q105.105373,30.74472328590393,105.04841,30.79146328590393Q104.99145,30.83821328590393,104.93934,30.890323285903932Q104.88723,30.94243328590393,104.84048,30.99939328590393Q104.79374,31.05635628590393,104.7528,31.11762828590393Q104.71186,31.17889928590393,104.67712,31.24388828590393Q104.64238,31.308877285903932,104.61418,31.37695828590393Q104.58598,31.44503928590393,104.56459,31.51555628590393Q104.5432,31.586073285903932,104.52882,31.65834828590393Q104.51445,31.73062228590393,104.50722,31.80395728590393Q104.5,31.87729298590393,104.5,31.95098328590393L104.5,45.38198328590393ZM107.5,43.91058328590393Q120.6669,44.41648328590393,130.1252,53.87478328590393Q139.5836,63.33318328590393,140.0895,76.50008328590394L150.5272,76.50008328590394Q150.0155,59.01348328590393,137.5011,46.49898328590393Q124.9866,33.984483285903934,107.5,33.47279328590393L107.5,43.91058328590393Z" fill-rule="evenodd" fill="#FFFFFF" fill-opacity="1" style="mix-blend-mode:passthrough"/></g><g><path d="M107.50003750953675,110.61814577636719Q107.50003750953675,110.54444577636718,107.49273750953674,110.4711457763672Q107.48553750953674,110.39774577636719,107.47113750953675,110.32554577636719Q107.45683750953674,110.25324577636718,107.43543750953674,110.18274577636718Q107.41403750953674,110.11214577636719,107.38583750953674,110.04414577636719Q107.35763750953674,109.97604577636719,107.32283750953674,109.91104577636719Q107.28813750953674,109.84604577636719,107.24723750953675,109.78474577636719Q107.20623750953675,109.72354577636719,107.15953750953673,109.66654577636719Q107.11273750953674,109.60954577636718,107.06063750953675,109.55744577636719Q107.00853750953675,109.5053457763672,106.95153750953673,109.45864577636719Q106.89463750953675,109.41184577636719,106.83333750953673,109.3709457763672Q106.77203750953674,109.32994577636718,106.70713750953675,109.29524577636718Q106.64213750953675,109.2605457763672,106.57403750953674,109.23234577636718Q106.50593750953675,109.20414577636718,106.43543750953674,109.18274577636718Q106.36493750953674,109.16134577636718,106.29263750953675,109.14694577636719Q106.22033750953673,109.13254577636718,106.14703750953674,109.12534577636718Q106.07373750953674,109.11814577636719,106.00003750953675,109.11814577636719Q93.11023750953674,109.11814577636719,83.99603750953675,100.00394577636719Q74.88193750953674,90.88984577636718,74.88193750953674,78.00004577636719Q74.88193750953674,77.92635547636719,74.87473750953674,77.85301977636719Q74.86743750953674,77.77968477636719,74.85313750953674,77.70741077636718Q74.83873750953674,77.63513577636719,74.81733750953674,77.56461877636718Q74.79593750953674,77.49410177636719,74.76773750953674,77.42602077636718Q74.73953750953675,77.35793977636719,74.70483750953674,77.29295077636719Q74.67003750953674,77.22796177636718,74.62913750953675,77.16669077636719Q74.58813750953675,77.10541877636719,74.54143750953675,77.04845577636719Q74.49463750953674,76.99149577636719,74.44253750953675,76.93938577636719Q74.39043750953674,76.88727577636719,74.33353750953674,76.84052577636719Q74.27653750953674,76.79378577636719,74.21523750953675,76.75284577636718Q74.15403750953675,76.71190577636719,74.08903750953674,76.67716577636719Q74.02403750953674,76.64242577636719,73.95593750953674,76.61422577636719Q73.88783750953674,76.5860257763672,73.81733750953674,76.56463577636718Q73.74683750953675,76.54324577636719,73.67453750953675,76.52886577636718Q73.60223750953675,76.51449577636718,73.52893750953675,76.50726577636719Q73.45563750953674,76.50004577636719,73.38193750953674,76.50004577636719L59.95093750953674,76.50004577636719Q59.87724720953674,76.50004577636719,59.803911509536746,76.50726577636719Q59.730576509536746,76.51449577636718,59.658302509536746,76.52886577636718Q59.58602750953674,76.54324577636719,59.515510509536746,76.56463577636718Q59.444993509536744,76.5860257763672,59.376912509536744,76.61422577636719Q59.308831509536745,76.64242577636719,59.24384250953674,76.67716577636719Q59.178853509536744,76.71190577636719,59.117582509536746,76.75284577636718Q59.05631050953674,76.79378577636719,58.99934750953674,76.84052577636719Q58.94238750953674,76.88727577636719,58.890277509536745,76.93938577636719Q58.838167509536746,76.99149577636719,58.79141750953674,77.04845577636719Q58.74467750953674,77.10541877636719,58.703737509536744,77.16669077636719Q58.662797509536745,77.22796177636718,58.628057509536745,77.29295077636719Q58.593317509536746,77.35793977636719,58.56511750953674,77.42602077636718Q58.53691750953674,77.49410177636719,58.515527509536746,77.56461877636718Q58.49413750953674,77.63513577636719,58.479757509536746,77.70741077636718Q58.46538750953674,77.77968477636719,58.45815750953674,77.85301977636719Q58.45093750953674,77.92635547636719,58.45093750953674,78.00004577636719Q58.45093750953674,97.69574577636719,72.37763750953674,111.62244577636719Q86.30423750953675,125.5491457763672,106.00003750953675,125.5491457763672Q106.07373750953674,125.5491457763672,106.14703750953674,125.54184577636718Q106.22033750953673,125.53464577636719,106.29263750953675,125.52024577636719Q106.36493750953674,125.50594577636718,106.43543750953674,125.48454577636718Q106.50593750953675,125.46314577636718,106.57403750953674,125.43494577636719Q106.64213750953675,125.40674577636719,106.70713750953675,125.37194577636718Q106.77203750953674,125.33724577636718,106.83333750953673,125.29634577636719Q106.89463750953675,125.2553457763672,106.95153750953673,125.20864577636718Q107.00853750953675,125.16184577636719,107.06063750953675,125.10974577636719Q107.11273750953674,125.0576457763672,107.15953750953673,125.00064577636718Q107.20623750953675,124.9437457763672,107.24723750953675,124.88244577636718Q107.28813750953674,124.82114577636719,107.32283750953674,124.7562457763672Q107.35763750953674,124.6912457763672,107.38583750953674,124.62314577636718Q107.41403750953674,124.5550457763672,107.43543750953674,124.48454577636718Q107.45683750953674,124.41404577636719,107.47113750953675,124.34174577636719Q107.48553750953674,124.26944577636718,107.49273750953674,124.19614577636719Q107.50003750953675,124.12284577636719,107.50003750953675,124.0491457763672L107.50003750953675,110.61814577636719ZM104.50003750953675,112.08954577636719Q91.33313750953674,111.58364577636718,81.87473750953674,102.1252457763672Q72.41643750953675,92.66694577636719,71.91053750953674,79.50004577636719L61.472747509536745,79.50004577636719Q61.98444750953674,96.98664577636718,74.49893750953674,109.5011457763672Q87.01343750953674,122.0156457763672,104.50003750953675,122.52734577636718L104.50003750953675,112.08954577636719Z" fill-rule="evenodd" fill="#FFFFFF" fill-opacity="1" style="mix-blend-mode:passthrough"/></g><g><path d="M153.5491,78.00004577636719Q153.5491,77.92635547636719,153.5418,77.85301977636719Q153.5346,77.77968477636719,153.5202,77.70741077636718Q153.5059,77.63513577636719,153.4845,77.56461877636718Q153.4631,77.49410177636719,153.4349,77.42602077636718Q153.4067,77.35793977636719,153.37189999999998,77.29295077636719Q153.3372,77.22796177636718,153.2963,77.16669077636719Q153.2553,77.10541877636719,153.2086,77.04845577636719Q153.1618,76.99149577636719,153.1097,76.93938577636719Q153.0576,76.88727577636719,153.0006,76.84052577636719Q152.9437,76.79378577636719,152.8824,76.75284577636718Q152.8211,76.71190577636719,152.7562,76.67716577636719Q152.6912,76.64242577636719,152.6231,76.61422577636719Q152.555,76.5860257763672,152.4845,76.56463577636718Q152.414,76.54324577636719,152.3417,76.52886577636718Q152.2694,76.51449577636718,152.1961,76.50726577636719Q152.12279999999998,76.50004577636719,152.0491,76.50004577636719L138.6181,76.50004577636719Q138.5444,76.50004577636719,138.4711,76.50726577636719Q138.3977,76.51449577636718,138.3255,76.52886577636718Q138.2532,76.54324577636719,138.1827,76.56463577636718Q138.1121,76.5860257763672,138.04410000000001,76.61422577636719Q137.976,76.64242577636719,137.911,76.67716577636719Q137.846,76.71190577636719,137.7847,76.75284577636718Q137.7235,76.79378577636719,137.66649999999998,76.84052577636719Q137.6095,76.88727577636719,137.5574,76.93938577636719Q137.5053,76.99149577636719,137.4586,77.04845577636719Q137.4118,77.10541877636719,137.3709,77.16669077636719Q137.3299,77.22796177636718,137.2952,77.29295077636719Q137.2605,77.35793977636719,137.2323,77.42602077636718Q137.2041,77.49410177636719,137.1827,77.56461877636718Q137.1613,77.63513577636719,137.1469,77.70741077636718Q137.1325,77.77968477636719,137.1253,77.85301977636719Q137.1181,77.92635547636719,137.1181,78.00004577636719Q137.1181,90.88984577636718,128.0039,100.00394577636719Q118.8898,109.11814577636719,106,109.11814577636719Q105.9263097,109.11814577636719,105.852974,109.12534577636718Q105.779639,109.13254577636718,105.707365,109.14694577636719Q105.63509,109.16134577636718,105.564573,109.18274577636718Q105.494056,109.20414577636718,105.425975,109.23234577636718Q105.357894,109.2605457763672,105.292905,109.29524577636718Q105.227916,109.32994577636718,105.166645,109.3709457763672Q105.105373,109.41184577636719,105.04841,109.45864577636719Q104.99145,109.5053457763672,104.93934,109.55744577636719Q104.88723,109.60954577636718,104.84048,109.66654577636719Q104.79374,109.72354577636719,104.7528,109.78474577636719Q104.71186,109.84604577636719,104.67712,109.91104577636719Q104.64238,109.97604577636719,104.61418,110.04414577636719Q104.58598,110.11214577636719,104.56459,110.18274577636718Q104.5432,110.25324577636718,104.52882,110.32554577636719Q104.51445,110.39774577636719,104.50722,110.4711457763672Q104.5,110.54444577636718,104.5,110.61814577636719L104.5,124.0491457763672Q104.5,124.12284577636719,104.50722,124.19614577636719Q104.51445,124.26944577636718,104.52882,124.34174577636719Q104.5432,124.41404577636719,104.56459,124.48454577636718Q104.58598,124.5550457763672,104.61418,124.62314577636718Q104.64238,124.6912457763672,104.67712,124.7562457763672Q104.71186,124.82114577636719,104.7528,124.88244577636718Q104.79374,124.9437457763672,104.84048,125.00064577636718Q104.88723,125.0576457763672,104.93934,125.10974577636719Q104.99145,125.16184577636719,105.04841,125.20864577636718Q105.105373,125.2553457763672,105.166645,125.29634577636719Q105.227916,125.33724577636718,105.292905,125.37194577636718Q105.357894,125.40674577636719,105.425975,125.43494577636719Q105.494056,125.46314577636718,105.564573,125.48454577636718Q105.63509,125.50594577636718,105.707365,125.52024577636719Q105.779639,125.53464577636719,105.852974,125.54184577636718Q105.9263097,125.5491457763672,106,125.5491457763672Q125.6957,125.5491457763672,139.6224,111.62244577636719Q153.5491,97.69574577636719,153.5491,78.00004577636719ZM150.5273,79.50004577636719L140.0895,79.50004577636719Q139.5836,92.66694577636719,130.1252,102.1252457763672Q120.6669,111.58364577636718,107.5,112.08954577636719L107.5,122.52734577636718Q124.9866,122.0156457763672,137.5011,109.5011457763672Q150.0156,96.98664577636718,150.5273,79.50004577636719Z" fill-rule="evenodd" fill="#FFFFFF" fill-opacity="1" style="mix-blend-mode:passthrough"/></g><g><ellipse cx="106" cy="78.00004577636719" rx="33" ry="33" fill-opacity="0" stroke-opacity="1" stroke="#FFFFFF" fill="none" stroke-width="3" stroke-linecap="ROUND" stroke-linejoin="round" style="mix-blend-mode:passthrough"/></g></g></g></g></g></svg>