<svg xmlns="http://www.w3.org/2000/svg" xmlns:xlink="http://www.w3.org/1999/xlink" fill="none" version="1.1" width="25.318359375" height="17.111328125" viewBox="0 0 25.318359375 17.111328125"><g transform="matrix(0,-1,1,0,-17.111328125,17.111328125)"><g><path d="M17.1112,34.28875171875L9.26268,42.13698171875C8.87216,42.52749171875,8.23902,42.52749171875,7.8485,42.13698171875L0,34.28875171875L1.41419,32.8745117783546L8.55559,40.01567171875L15.697,32.87451171875L17.1112,34.28875171875Z" fill-rule="evenodd" fill="#FFFFFF" fill-opacity="1"/></g><g transform="matrix(0,-1,1,0,-33.4052734375,48.7255859375)"><path d="M30.61435625,41.0654296875L8.66015625,41.0654296875C8.10787125,41.0654296875,7.66015625,41.5131446875,7.66015625,42.0654296875C7.66015625,42.6177096875,8.10787125,43.0654296875,8.66015625,43.0654296875L30.61435625,43.0654296875C31.16665625,43.0654296875,31.61435625,42.6177096875,31.61435625,42.0654296875C31.61435625,41.5131446875,31.16665625,41.0654296875,30.61435625,41.0654296875Z" fill-rule="evenodd" fill="#FFFFFF" fill-opacity="1"/></g></g></svg>