<svg xmlns="http://www.w3.org/2000/svg" xmlns:xlink="http://www.w3.org/1999/xlink" fill="none" version="1.1" width="22.802734375" height="26" viewBox="0 0 22.802734375 26"><g><g><g><path d="M7.69998,3.6387210513305663Q4.76118,4.631041051330566,2.92844,7.1596310513305665Q1.06061,9.736641051330565,1.06061,12.946951051330567Q1.06061,14.949951051330567,1.82931,16.772851051330566Q2.57203,18.534151051330568,3.92802,19.890151051330566Q5.28401,21.246151051330568,7.04532,21.988851051330567Q8.86826,22.757551051330566,10.8712,22.757551051330566L10.8712,23.818151051330567Q8.65378,23.818151051330567,6.63322,22.966151051330566Q4.68074,22.142751051330567,3.17806,20.640151051330566Q1.67537,19.137451051330565,0.85204,17.184951051330565Q5.96046e-8,15.164351051330566,0,12.946951051330567Q-2.98023e-7,9.392701051330565,2.06968,6.537201051330566Q4.10111,3.734481051330566,7.36067,2.6338510513305664L7.69998,3.6387210513305663Z" fill-rule="evenodd" fill="#242424" fill-opacity="1"/></g><g><path d="M15.153972096252442,22.202807674026488Q18.05564209625244,21.21010767402649,19.880892096252442,18.68810767402649Q21.74230209625244,16.11620767402649,21.74231209625244,12.94690767402649Q21.74230209625244,10.943957674026489,20.973602096252442,9.12102767402649Q20.230882096252444,7.35971767402649,18.87489209625244,6.003727674026489Q17.51890209625244,4.647747674026489,15.757592096252441,3.9050176740264892Q13.934662096252442,3.1363176740264893,11.931672096252441,3.1363176740264893L11.931672096252441,2.0757076740264893Q14.149142096252442,2.0757076740264893,16.16969209625244,2.9277466740264892Q18.12217209625244,3.7510776740264893,19.624862096252443,5.25376767402649Q21.12754209625244,6.756447674026489,21.95087209625244,8.708927674026489Q22.802872096252443,10.729477674026489,22.802872096252443,12.94690767402649Q22.802872096252443,16.45970767402649,20.740082096252443,19.31000767402649Q18.71746209625244,22.10470767402649,15.497272096252441,23.20630767402649L15.153972096252442,22.202807674026488Z" fill-rule="evenodd" fill="#242424" fill-opacity="1"/></g><g transform="matrix(0.7071067690849304,0.7071067690849304,-0.7071067690849304,0.7071067690849304,4.807137760566768,-7.8933240241981295)"><path d="M15.16182397644043,1.856066346168518L12.46195897644043,1.856066346168518C12.16907897644043,1.856066346168518,11.93165397644043,2.093491346168518,11.93165397644043,2.3863713461685183C11.93165397644043,2.679250346168518,12.16907897644043,2.916676346168518,12.46195897644043,2.916676346168518L15.16182397644043,2.916676346168518C15.45470397644043,2.916676346168518,15.692133976440429,2.679250346168518,15.692133976440429,2.3863713461685183C15.692133976440429,2.093491346168518,15.45470397644043,1.856066346168518,15.16182397644043,1.856066346168518Z" fill-rule="evenodd" fill="#242424" fill-opacity="1"/></g><g transform="matrix(0.7071067690849304,-0.7071067690849304,0.7071067690849304,0.7071067690849304,1.4323103757446773,8.669963079556723)"><path d="M14.336906455688476,2.606030225753784L11.712031455688477,2.606030225753784C11.419151455688477,2.606030225753784,11.181726455688477,2.843455225753784,11.181726455688477,3.1363352257537844C11.181726455688477,3.429214225753784,11.419151455688477,3.6666402257537842,11.712031455688477,3.6666402257537842L14.336906455688476,3.6666402257537842C14.629786455688476,3.6666402257537842,14.867206455688477,3.429214225753784,14.867206455688477,3.1363352257537844C14.867206455688477,2.843455225753784,14.629786455688476,2.606030225753784,14.336906455688476,2.606030225753784Z" fill-rule="evenodd" fill="#242424" fill-opacity="1"/></g><g transform="matrix(-0.7071067690849304,-0.7071067690849304,0.7071067690849304,-0.7071067690849304,1.5610530212501317,48.72180797173144)"><path d="M14.176313341064454,24.037599563598633L11.401448341064453,24.037599563598633C11.108568341064453,24.037599563598633,10.871143341064453,24.275024563598635,10.871143341064453,24.56790456359863C10.871143341064453,24.860783563598634,11.108568341064453,25.098209563598633,11.401448341064453,25.098209563598633L14.176313341064454,25.098209563598633C14.469193341064454,25.098209563598633,14.706623341064454,24.860783563598634,14.706623341064454,24.56790456359863C14.706623341064454,24.275024563598635,14.469193341064454,24.037599563598633,14.176313341064454,24.037599563598633Z" fill-rule="evenodd" fill="#242424" fill-opacity="1"/></g><g transform="matrix(-0.7071067690849304,0.7071067690849304,-0.7071067690849304,-0.7071067690849304,36.305253644665754,31.53714284525995)"><path d="M14.926240861816407,23.287635803222656L12.151375861816406,23.287635803222656C11.858495861816406,23.287635803222656,11.621070861816406,23.525060803222658,11.621070861816406,23.817940803222655C11.621070861816406,24.110819803222657,11.858495861816406,24.348245803222657,12.151375861816406,24.348245803222657L14.926240861816407,24.348245803222657C15.219120861816407,24.348245803222657,15.456550861816407,24.110819803222657,15.456550861816407,23.817940803222655C15.456550861816407,23.525060803222658,15.219120861816407,23.287635803222656,14.926240861816407,23.287635803222656Z" fill-rule="evenodd" fill="#242424" fill-opacity="1"/></g><g><path d="M16.174386249999998,8.75743822494507L16.174386249999998,17.24232822494507Q16.174386249999998,17.89942822494507,15.70751625,18.366328224945068Q15.24063625,18.833228224945067,14.58347625,18.833228224945067L8.219816250000001,18.833228224945067Q7.56266125,18.833228224945067,7.09578325,18.366328224945068Q6.62890625,17.89942822494507,6.62890625,17.24232822494507L6.62890625,8.75743822494507Q6.62890625,8.100281224945068,7.09578325,7.633404224945068Q7.56266025,7.166528224945068,8.219816250000001,7.166528224945068L14.58347625,7.166528224945068Q15.24063625,7.166528165340468,15.70751625,7.633404224945068Q16.174386249999998,8.100282224945069,16.174386249999998,8.75743822494507ZM15.11377625,8.75743822494507Q15.11378625,8.539598224945069,14.95754625,8.383368224945068Q14.80131625,8.227138224945069,14.58347625,8.227138224945069L8.219816250000001,8.227138224945069Q8.00197625,8.227138224945069,7.8457462499999995,8.383368224945068Q7.6895162500000005,8.539598224945069,7.6895162500000005,8.75743822494507L7.6895162500000005,17.24232822494507Q7.6895162500000005,17.460128224945066,7.8457462499999995,17.616428224945068Q8.00197625,17.772628224945066,8.219816250000001,17.772628224945066L14.58347625,17.772628224945066Q14.80131625,17.772628224945066,14.95754625,17.616428224945068Q15.11377625,17.460128224945066,15.11377625,17.24232822494507L15.11377625,8.75743822494507Z" fill-rule="evenodd" fill="#242424" fill-opacity="1"/></g><g><path d="M13.522739999999999,10.348137855529785L9.280305,10.348137855529785C8.987425,10.348137855529785,8.75,10.585562855529785,8.75,10.878442855529785C8.75,11.171321855529785,8.987425,11.408747855529786,9.280305,11.408747855529786L13.522739999999999,11.408747855529786C13.81562,11.408747855529786,14.053049999999999,11.171321855529785,14.053049999999999,10.878442855529785C14.053049999999999,10.585562855529785,13.81562,10.348137855529785,13.522739999999999,10.348137855529785Z" fill-rule="evenodd" fill="#242424" fill-opacity="1"/></g><g><path d="M13.522739999999999,12.469231605529785L9.280305,12.469231605529785C8.987425,12.469231605529785,8.75,12.706656605529785,8.75,12.999536605529785C8.75,13.292415605529785,8.987425,13.529841605529786,9.280305,13.529841605529786L13.522739999999999,13.529841605529786C13.81562,13.529841605529786,14.053049999999999,13.292415605529785,14.053049999999999,12.999536605529785C14.053049999999999,12.706656605529785,13.81562,12.469231605529785,13.522739999999999,12.469231605529785Z" fill-rule="evenodd" fill="#242424" fill-opacity="1"/></g><g><path d="M13.522739999999999,14.590325355529785L9.280305,14.590325355529785C8.987425,14.590325355529785,8.75,14.827750355529785,8.75,15.120630355529785C8.75,15.413509355529785,8.987425,15.650935355529786,9.280305,15.650935355529786L13.522739999999999,15.650935355529786C13.81562,15.650935355529786,14.053049999999999,15.413509355529785,14.053049999999999,15.120630355529785C14.053049999999999,14.827750355529785,13.81562,14.590325355529785,13.522739999999999,14.590325355529785Z" fill-rule="evenodd" fill="#242424" fill-opacity="1"/></g></g></g></svg>