<svg xmlns="http://www.w3.org/2000/svg" xmlns:xlink="http://www.w3.org/1999/xlink" fill="none" version="1.1" width="177" height="156" viewBox="0 0 177 156"><g><g><path d="M0,12.1875L0,7.3125L1,7.3125L1,12.1875L0,12.1875ZM0,21.9375L0,17.0625L1,17.0625L1,21.9375L0,21.9375ZM0,31.6875L0,26.8125L1,26.8125L1,31.6875L0,31.6875ZM0,41.4375L0,36.5625L1,36.5625L1,41.4375L0,41.4375ZM0,51.1875L0,46.3125L1,46.3125L1,51.1875L0,51.1875ZM0,60.9375L0,56.0625L1,56.0625L1,60.9375L0,60.9375ZM0,70.6875L0,65.8125L1,65.8125L1,70.6875L0,70.6875ZM0,80.4375L0,75.5625L1,75.5625L1,80.4375L0,80.4375ZM0,90.1875L0,85.3125L1,85.3125L1,90.1875L0,90.1875ZM0,99.9375L0,95.0625L1,95.0625L1,99.9375L0,99.9375ZM0,109.688L0,104.812L1,104.812L1,109.688L0,109.688ZM0,119.438L0,114.562L1,114.562L1,119.438L0,119.438ZM0,129.188L0,124.312L1,124.312L1,129.188L0,129.188ZM0,138.938L0,134.062L1,134.062L1,138.938L0,138.938ZM0,148.688L0,143.812L1,143.812L1,148.688L0,148.688ZM12.2916,156L7.37497,156L7.37497,155L12.2916,155L12.2916,156ZM22.125,156L17.2083,156L17.2083,155L22.125,155L22.125,156ZM31.9583,156L27.0417,156L27.0417,155L31.9583,155L31.9583,156ZM41.7917,156L36.875,156L36.875,155L41.7917,155L41.7917,156ZM51.625,156L46.7083,156L46.7083,155L51.625,155L51.625,156ZM61.4583,156L56.5417,156L56.5417,155L61.4583,155L61.4583,156ZM71.2917,156L66.375,156L66.375,155L71.2917,155L71.2917,156ZM81.125,156L76.2083,156L76.2083,155L81.125,155L81.125,156ZM90.9583,156L86.0417,156L86.0417,155L90.9583,155L90.9583,156ZM100.792,156L95.875,156L95.875,155L100.792,155L100.792,156ZM110.625,156L105.708,156L105.708,155L110.625,155L110.625,156ZM120.458,156L115.542,156L115.542,155L120.458,155L120.458,156ZM130.292,156L125.375,156L125.375,155L130.292,155L130.292,156ZM140.125,156L135.208,156L135.208,155L140.125,155L140.125,156ZM149.958,156L145.042,156L145.042,155L149.958,155L149.958,156ZM159.792,156L154.875,156L154.875,155L159.792,155L159.792,156ZM169.625,156L164.708,156L164.708,155L169.625,155L169.625,156ZM177,143.812L177,148.688L176,148.688L176,143.812L177,143.812ZM177,134.062L177,138.938L176,138.938L176,134.062L177,134.062ZM177,124.312L177,129.188L176,129.188L176,124.312L177,124.312ZM177,114.562L177,119.438L176,119.438L176,114.562L177,114.562ZM177,104.812L177,109.688L176,109.688L176,104.812L177,104.812ZM177,95.0625L177,99.9375L176,99.9375L176,95.0625L177,95.0625ZM177,85.3125L177,90.1875L176,90.1875L176,85.3125L177,85.3125ZM177,75.5625L177,80.4375L176,80.4375L176,75.5625L177,75.5625ZM177,65.8125L177,70.6875L176,70.6875L176,65.8125L177,65.8125ZM177,56.0625L177,60.9375L176,60.9375L176,56.0625L177,56.0625ZM177,46.3125L177,51.1875L176,51.1875L176,46.3125L177,46.3125ZM177,36.5625L177,41.4375L176,41.4375L176,36.5625L177,36.5625ZM177,26.8125L177,31.6875L176,31.6875L176,26.8125L177,26.8125ZM177,17.0625L177,21.9375L176,21.9375L176,17.0625L177,17.0625ZM177,7.3125L177,12.1875L176,12.1875L176,7.3125L177,7.3125ZM164.708,0L169.625,0L169.625,1L164.708,1L164.708,0ZM154.875,0L159.792,0L159.792,1L154.875,1L154.875,0ZM145.042,0L149.958,0L149.958,1L145.042,1L145.042,0ZM135.208,0L140.125,0L140.125,1L135.208,1L135.208,0ZM125.375,0L130.292,0L130.292,1L125.375,1L125.375,0ZM115.542,0L120.458,0L120.458,1L115.542,1L115.542,0ZM105.708,0L110.625,0L110.625,1L105.708,1L105.708,0ZM95.875,0L100.792,0L100.792,1L95.875,1L95.875,0ZM86.0417,0L90.9583,0L90.9583,1L86.0417,1L86.0417,0ZM76.2083,0L81.125,0L81.125,1L76.2083,1L76.2083,0ZM66.375,0L71.2917,0L71.2917,1L66.375,1L66.375,0ZM56.5417,0L61.4583,0L61.4583,1L56.5417,1L56.5417,0ZM46.7083,0L51.625,0L51.625,1L46.7083,1L46.7083,0ZM36.875,0L41.7917,0L41.7917,1L36.875,1L36.875,0ZM27.0417,0L31.9583,0L31.9583,1L27.0417,1L27.0417,0ZM17.2083,0L22.125,0L22.125,1L17.2083,1L17.2083,0ZM7.375,0L12.2917,0L12.2917,1L7.375,1L7.375,0ZM2.45833,0L2.45833,1L1,1L1,2.4375L0,2.4375L0,0L2.45833,0ZM174.542,0L177,0L177,2.4375L176,2.4375L176,1L174.542,1L174.542,0ZM177,153.562L177,156L174.542,156L174.542,155L176,155L176,153.562L177,153.562ZM2.4583,156L0,156L0,153.562L1,153.562L1,155L2.4583,155L2.4583,156Z" fill-rule="evenodd" fill="#282828" fill-opacity="1"/></g><g><g><rect x="28.500000027939677" y="20.906494986265898" width="121.20494079589844" height="113.93647766113281" rx="0" fill="#BCBCBC" fill-opacity="1"/></g><g transform="matrix(0.7268121242523193,0.686836302280426,-0.686836302280426,0.7268121242523193,22.610711333121102,-13.661739651960772)"><line x1="28.47921371459961" y1="21.092532873153687" x2="194.7976188659668" y2="21.092532873153687" fill-opacity="0" stroke-opacity="1" stroke="#707070" fill="none" stroke-width="1"/></g><g transform="matrix(-0.7268121242523193,0.686836302280426,-0.686836302280426,-0.7268121242523193,272.25050416403144,-66.55568920499695)"><line x1="149.36145401000977" y1="20.365720748901367" x2="315.67985916137695" y2="20.365720748901367" fill-opacity="0" stroke-opacity="1" stroke="#707070" fill="none" stroke-width="1"/></g></g></g></svg>