<svg xmlns="http://www.w3.org/2000/svg" xmlns:xlink="http://www.w3.org/1999/xlink" fill="none" version="1.1" width="162.14794921875" height="162.15673828125" viewBox="0 0 162.14794921875 162.15673828125"><defs><mask id="master_svg0_0_1193" style="mask-type:alpha" maskUnits="objectBoundingBox"><g><rect x="0" y="0" width="162.14794921875" height="162.15682983398438" rx="0" fill="#FFFFFF" fill-opacity="1"/></g></mask></defs><g><g mask="url(#master_svg0_0_1193)"><g><path d="M0.18000909978586807,58.5117C0.26785609978586805,57.6864,0.3584900997858681,56.8328,0.46187009978586807,55.9624C1.683440099785868,45.6572,5.257920099785868,36.1568,11.086510099785867,27.7252C20.018610099785867,14.8045,32.21851009978587,6.18531,47.34781009978587,2.10709C52.53471009978587,0.708983,57.89981009978587,0,63.29431009978587,0C65.34081009978587,0,67.42701009978587,0.102517,69.49431009978586,0.304528C96.94331009978586,2.98658,119.39801009978586,22.7047,125.37001009978587,49.37C127.50501009978586,58.9058,127.58401009978587,68.2596,125.60601009978586,77.1717C124.23901009978587,83.3285,121.88101009978587,89.3105,118.56901009978587,95.038C123.13501009978587,99.6021,127.70101009978586,104.167,132.26601009978586,108.731C140.49301009978586,116.956,148.72001009978587,125.181,156.95001009978586,133.403C161.57101009978587,138.019,163.21501009978587,144.126,161.46201009978586,150.159C159.86801009978586,155.645,155.78801009978588,159.755,150.25901009978585,161.452C150.25901009978585,161.452,150.01001009978586,161.54,149.90701009978588,161.576C149.90701009978588,161.576,148.20901009978587,162.157,148.20901009978587,162.157C148.20901009978587,162.157,143.52001009978588,162.157,143.52001009978588,162.157C143.52001009978588,162.157,142.43501009978587,161.932,142.43501009978587,161.932C137.27801009978586,160.861,134.10501009978586,157.682,132.58201009978586,156.154C122.42801009978587,145.978,112.09101009978586,135.641,102.09501009978587,125.644C99.74841009978587,123.297,97.40261009978587,120.951,95.05661009978587,118.605C87.42011009978587,123.018,79.11791009978587,125.722,70.32871009978587,126.652C68.07961009978587,126.89,65.79791009978587,127.011,63.54691009978587,127.011C56.60811009978587,127.011,49.76631009978587,125.889,43.21111009978587,123.675C36.79011009978587,121.507,30.78471009978587,118.341,25.361710099785867,114.266C14.196510099785868,105.876,6.256110099785868,94.3094,2.398470099785868,80.8169C1.2198600997858682,76.6943,0.47417609978586805,72.4594,0.1793600997858681,68.218C0.17806409978586807,68.2115,0.00001009978586807847,67.2364,0.00001009978586807847,67.2364C0.00001009978586807847,67.2364,0.00001009978586807847,60.1818,0.00001009978586807847,60.1818C0.00001009978586807847,60.1818,0.14138209978586808,58.8743,0.18000909978586807,58.5117Z" fill="#FFEBE6" fill-opacity="1" style="mix-blend-mode:passthrough"/></g><g><path d="M144.62922161865234,151.36607666015624C142.79622161865234,150.98507666015624,141.49722161865233,149.81207666015624,140.22022161865235,148.53207666015626C125.82522161865235,134.10607666015625,111.40922161865234,119.70107666015625,97.00182161865234,105.28727666015625C96.80882161865235,105.09417666015625,96.65732161865235,104.85937666015624,96.51122161865234,104.67527666015626C94.96742161865234,105.75937666015625,93.55962161865234,106.81277666015625,92.08882161865235,107.76927666015625C85.10882161865234,112.30807666015625,77.46602161865235,115.04507666015625,69.19282161865235,115.92107666015625C43.55872161865234,118.63407666015625,19.857361618652345,102.62487666015625,12.773991618652344,77.85047666015625C11.753154618652344,74.28027666015625,11.126399618652343,70.63737666015625,10.909927618652343,66.92667666015625C10.896755618652344,66.70247666015625,10.832012218652343,66.48127666015625,10.791221618652344,66.25847666015625C10.791221618652344,66.25847666015625,10.791221618652344,60.76767666015625,10.791221618652344,60.76767666015625C10.919639618652344,59.58927666015625,11.038345618652343,58.40957666015625,11.177760618652345,57.23277666015625C12.186961618652344,48.72127666015625,15.093901618652342,40.90537666015625,19.96311161865234,33.861576660156246C27.415921618652344,23.08027666015625,37.49302161865234,15.94014666015625,50.15632161865234,12.52644666015625C56.149321618652344,10.91099866015625,62.25882161865234,10.43985666015625,68.44482161865234,11.04437966015625C91.14542161865235,13.26262666015625,109.87182161865235,29.54827666015625,114.83922161865235,51.72817666015625C118.44622161865234,67.83617666015624,115.07522161865235,82.55387666015625,105.16662161865234,95.76447666015625C105.01602161865235,95.96517666015625,104.86152161865235,96.16317666015625,104.59402161865235,96.51187666015625C104.82892161865234,96.68327666015625,105.09632161865234,96.82977666015626,105.30322161865234,97.03677666015625C119.97822161865234,111.70207666015625,134.64622161865236,126.37407666015625,149.32322161865235,141.03707666015626C151.05022161865233,142.76207666015625,151.79322161865235,144.76007666015624,151.09922161865234,147.14707666015624C150.49922161865234,149.21107666015624,149.10322161865236,150.53407666015624,147.04222161865235,151.15107666015626C146.83022161865233,151.21507666015626,146.62322161865234,151.29407666015624,146.41322161865236,151.36607666015624C146.41322161865236,151.36607666015624,144.62922161865234,151.36607666015624,144.62922161865234,151.36607666015624C144.62922161865234,151.36607666015624,144.62922161865234,151.36607666015624,144.62922161865234,151.36607666015624ZM104.50942161865234,63.48237666015625C104.47642161865234,40.885376660156254,86.05802161865235,22.48517666015625,63.489421618652344,22.50417666015625C40.899121618652345,22.523176660156253,22.501421618652344,40.92457666015625,22.495121618652345,63.50657666015625C22.48892161865234,86.10397666015625,40.99452161865234,104.59237666015625,63.54862161865234,104.52197666015626C86.17262161865234,104.45147666015625,104.54232161865234,86.04637666015626,104.50942161865234,63.48237666015625Z" fill="#5C2D25" fill-opacity="1" style="mix-blend-mode:passthrough"/></g></g></g></svg>