<svg xmlns="http://www.w3.org/2000/svg" xmlns:xlink="http://www.w3.org/1999/xlink" fill="none" version="1.1" width="194.1558837890625" height="194.16650390625" viewBox="0 0 194.1558837890625 194.16650390625"><defs><mask id="master_svg0_0_1203" style="mask-type:alpha" maskUnits="objectBoundingBox"><g><rect x="0" y="0" width="194.1558837890625" height="194.16651916503906" rx="0" fill="#FFFFFF" fill-opacity="1"/></g></mask></defs><g><g mask="url(#master_svg0_0_1203)"><g><path d="M0.21554209347101394,70.0619C0.3207310934710139,69.0737,0.42925609347101396,68.0516,0.5530440934710139,67.0093C2.015752093471014,54.6699,6.295832093471014,43.2942,13.274912093471015,33.1982C23.970212093471012,17.7269,38.578412093471016,7.40629,56.694212093471016,2.52303C62.905012093471015,0.848936,69.32921209347101,0,75.78861209347102,0C78.23911209347101,0,80.73701209347101,0.122753,83.21251209347102,0.364642C116.08001209347101,3.57613,142.96701209347103,27.1866,150.117012093471,59.1157C152.67401209347102,70.5338,152.76901209347102,81.734,150.40001209347102,92.4053C148.76401209347102,99.7775,145.940012093471,106.94,141.974012093471,113.799C147.44201209347102,119.263,152.909012093471,124.729,158.37601209347102,130.195C168.22701209347102,140.043,178.07801209347102,149.892,187.932012093471,159.737C193.46501209347102,165.264,195.434012093471,172.577,193.33501209347102,179.8C191.42501209347103,186.37,186.540012093471,191.291,179.920012093471,193.323C179.920012093471,193.323,179.62201209347103,193.428,179.499012093471,193.471C179.499012093471,193.471,177.46501209347102,194.167,177.46501209347102,194.167C177.46501209347102,194.167,171.851012093471,194.167,171.851012093471,194.167C171.851012093471,194.167,170.552012093471,193.897,170.552012093471,193.897C164.37601209347102,192.614,160.57801209347102,188.808,158.753012093471,186.979C146.595012093471,174.795,134.218012093471,162.417,122.24801209347102,150.446C119.439012093471,147.636,116.63001209347101,144.827,113.82101209347101,142.018C104.67701209347102,147.302,94.73581209347101,150.539,84.21161209347102,151.653C81.51851209347102,151.938,78.78641209347101,152.083,76.09101209347101,152.083C67.78251209347101,152.083,59.590112093471014,150.739,51.74091209347102,148.089C44.05241209347101,145.493,36.86161209347102,141.702,30.368112093471012,136.822C16.998912093471013,126.776,7.491062093471014,112.926,2.8719320934710137,96.7702C1.4606520934710139,91.8337,0.5677780934710139,86.7628,0.21476609347101394,81.6842C0.21321309347101394,81.6764,0.00001209347101394087,80.5089,0.00001209347101394087,80.5089C0.00001209347101394087,80.5089,0.00001209347101394087,72.0616,0.00001209347101394087,72.0616C0.00001209347101394087,72.0616,0.16929109347101395,70.4961,0.21554209347101394,70.0619Z" fill="#FFEBE6" fill-opacity="1" style="mix-blend-mode:passthrough"/></g><g><path d="M173.17840197753907,181.24523031616212C170.98340197753907,180.7892303161621,169.42940197753907,179.3852303161621,167.89940197753907,177.85223031616212C150.66340197753905,160.57823031616212,133.40140197753908,143.3302303161621,116.15040197753906,126.07123031616212C115.91840197753906,125.83923031616212,115.73740197753907,125.55823031616211,115.56240197753907,125.33823031616211C113.71440197753907,126.63623031616211,112.02830197753906,127.89723031616211,110.26710197753906,129.04323031616212C101.90930197753906,134.4772303161621,92.75780197753906,137.7552303161621,82.85150197753906,138.80323031616211C52.15720197753906,142.0522303161621,23.777201977539065,122.88323031616211,15.295571977539062,93.21803031616211C14.073221977539063,88.94313031616211,13.322745977539062,84.5811303161621,13.063540977539063,80.13803031616212C13.047767977539063,79.86953031616211,12.970245377539063,79.60463031616212,12.921401977539062,79.33793031616212C12.921401977539062,79.33793031616212,12.921401977539062,72.76323031616211,12.921401977539062,72.76323031616211C13.075168977539063,71.3522303161621,13.217307977539063,69.93963031616211,13.384242977539062,68.53043031616211C14.592661977539063,58.33883031616211,18.073431977539062,48.98013031616211,23.90380197753906,40.54583031616211C32.82780197753907,27.63633031616211,44.894101977539066,19.086720316162108,60.05710197753906,14.99916031616211C67.23310197753906,13.06482631616211,74.54870197753905,12.500678316162109,81.95580197753907,13.224536316162109C109.13750197753906,15.880660316162109,131.56040197753907,35.381130316162114,137.50840197753905,61.93923031616211C141.82740197753907,81.22703031616211,137.79140197753907,98.8500303161621,125.92640197753906,114.66823031616211C125.74640197753907,114.9082303161621,125.56140197753906,115.14523031616211,125.24040197753907,115.5632303161621C125.52240197753906,115.7682303161621,125.84240197753907,115.9442303161621,126.09040197753906,116.19223031616211C143.66240197753908,133.75223031616213,161.22540197753906,151.3202303161621,178.79940197753905,168.8782303161621C180.86740197753906,170.9432303161621,181.75740197753908,173.3352303161621,180.92640197753906,176.1932303161621C180.20840197753907,178.6662303161621,178.53640197753907,180.2492303161621,176.06840197753905,180.98923031616212C175.81440197753906,181.06523031616211,175.56640197753907,181.1592303161621,175.31540197753907,181.24523031616212C175.31540197753907,181.24523031616212,173.17840197753907,181.24523031616212,173.17840197753907,181.24523031616212C173.17840197753907,181.24523031616212,173.17840197753907,181.24523031616212,173.17840197753907,181.24523031616212ZM125.13940197753907,76.01373031616211C125.10040197753906,48.95613031616211,103.04580197753906,26.92383031616211,76.02230197753906,26.94653031616211C48.972601977539064,26.96923031616211,26.94320197753906,49.00313031616211,26.93570197753906,76.0427303161621C26.92820197753906,103.1009303161621,49.086901977539064,125.23923031616211,76.09310197753906,125.15423031616211C103.18310197753907,125.07023031616211,125.17840197753907,103.0319303161621,125.13940197753907,76.01373031616211Z" fill="#5C2D25" fill-opacity="1" style="mix-blend-mode:passthrough"/></g></g></g></svg>