<svg xmlns="http://www.w3.org/2000/svg" width="325" height="1155.5" viewBox="0 0 325 1155.5">
  <g id="_img_Tabela_5-mob_" data-name="&lt;img Tabela_5-mob&gt;" transform="translate(-18 -9843)">
    <rect id="Retângulo_92784" data-name="Retângulo 92784" width="49.106" height="87" transform="translate(18 9843)" fill="#0024a9"/>
    <rect id="Retângulo_124897" data-name="Retângulo 124897" width="91.958" height="87" transform="translate(67.106 9843)" fill="#0024a9"/>
    <rect id="Retângulo_125077" data-name="Retângulo 125077" width="91.958" height="87" transform="translate(159.065 9843)" fill="#0024a9"/>
    <rect id="Retângulo_125078" data-name="Retângulo 125078" width="91.958" height="87" transform="translate(251.023 9843)" fill="#0024a9"/>
    <path id="Caminho_772660" data-name="Caminho 772660" d="M3.392,16l.352-6.336,2.624,4.672h1.5l2.64-4.672L10.864,16h2.224L12.464,4.8H10.64L7.12,11.312,3.616,4.8H1.792L1.168,16ZM20.816,7.168l.848-1.3L18.8,3.808,15.92,5.872l.848,1.3L18.8,5.92Zm-1.584,7.3A2.069,2.069,0,0,1,17.1,12.928l4.8-.56a4.134,4.134,0,0,0,.208-1.312,3.068,3.068,0,0,0-3.36-3.136,3.821,3.821,0,0,0-3.92,4.128,3.96,3.96,0,0,0,4.24,4.192,4.826,4.826,0,0,0,2.848-.88L21.088,13.9A3.591,3.591,0,0,1,19.232,14.464ZM18.88,9.648c.7,0,1.216.368,1.216,1.056a1.236,1.236,0,0,1-.048.4l-3.04.368A1.919,1.919,0,0,1,18.88,9.648Zm7.664,6.592c1.936,0,3.344-.832,3.344-2.64,0-2.784-4.048-1.968-4.048-3.2,0-.512.64-.656,1.232-.656a4.183,4.183,0,0,1,1.952.48l.768-1.568a6.219,6.219,0,0,0-2.944-.736c-1.616,0-3.264.672-3.264,2.464,0,2.928,4.064,2.08,4.064,3.376,0,.432-.432.672-1.216.672A4.9,4.9,0,0,1,24,13.744l-.816,1.632A6.847,6.847,0,0,0,26.544,16.24Z" transform="translate(27 9876)" fill="#fff"/>
    <path id="Caminho_772661" data-name="Caminho 772661" d="M6.48,14.24c-2.08,0-3.328-1.648-3.328-3.84S4.4,6.56,6.48,6.56a3.82,3.82,0,0,1,2.224.7l1.04-1.632A5.791,5.791,0,0,0,6.3,4.56C2.8,4.56.7,7.04.7,10.4c0,3.376,2.1,5.84,5.6,5.84a5.754,5.754,0,0,0,3.44-1.072L8.7,13.536A3.929,3.929,0,0,1,6.48,14.24Zm9.056-6.32c-3.168,0-4.528,2.3-4.528,4.672,0,2.144,1.1,3.648,2.928,3.648,1.472,0,2.384-1.04,2.944-2.464L16.64,16H18.9V8.944A5.882,5.882,0,0,0,15.536,7.92Zm-.912,6.512c-.72,0-1.28-.464-1.28-1.92,0-1.1.384-2.88,2.16-2.88a2.626,2.626,0,0,1,1.12.272C16.5,12,16.032,14.432,14.624,14.432ZM31.088,7.92a2.878,2.878,0,0,0-2.7,1.968A2.329,2.329,0,0,0,25.968,7.92a2.958,2.958,0,0,0-2.784,2.144l.192-1.9h-2.24V16h2.24c0-2.528.112-6.144,1.888-6.144.88,0,.976.96.976,1.712V16H28.5c0-2.512.1-6.144,1.872-6.144.9,0,.992.96.992,1.712V16H33.6V10.944C33.6,9.04,32.688,7.92,31.088,7.92Zm5.744-.864a1.466,1.466,0,0,0,1.5-1.52,1.512,1.512,0,1,0-3.024,0A1.47,1.47,0,0,0,36.832,7.056ZM37.952,16V8.16h-2.24V16Zm4.9.24c1.936,0,3.344-.832,3.344-2.64,0-2.784-4.048-1.968-4.048-3.2,0-.512.64-.656,1.232-.656a4.183,4.183,0,0,1,1.952.48L46.1,8.656a6.219,6.219,0,0,0-2.944-.736c-1.616,0-3.264.672-3.264,2.464,0,2.928,4.064,2.08,4.064,3.376,0,.432-.432.672-1.216.672a4.9,4.9,0,0,1-2.432-.688l-.816,1.632A6.847,6.847,0,0,0,42.848,16.24ZM52,14.464a2.069,2.069,0,0,1-2.128-1.536l4.8-.56a4.134,4.134,0,0,0,.208-1.312A3.068,3.068,0,0,0,51.52,7.92a3.821,3.821,0,0,0-3.92,4.128,3.96,3.96,0,0,0,4.24,4.192,4.826,4.826,0,0,0,2.848-.88L53.856,13.9A3.591,3.591,0,0,1,52,14.464Zm-.352-4.816c.7,0,1.216.368,1.216,1.056a1.236,1.236,0,0,1-.048.4l-3.04.368A1.919,1.919,0,0,1,51.648,9.648Zm8.7,6.592a5.152,5.152,0,0,0,1.792-.336l-.464-1.76a2.287,2.287,0,0,1-.8.16c-.832,0-1.232-.5-1.232-1.488V9.936H61.84V8.16H59.648V5.712H58.16L58,6.576c-.24,1.264-.368,1.584-1.808,1.584h-.24V9.936h1.456V13.2A2.714,2.714,0,0,0,60.352,16.24Zm7.424-8.32c-3.168,0-4.528,2.3-4.528,4.672,0,2.144,1.1,3.648,2.928,3.648,1.472,0,2.384-1.04,2.944-2.464L68.88,16h2.256V8.944A5.882,5.882,0,0,0,67.776,7.92Zm-.912,6.512c-.72,0-1.28-.464-1.28-1.92,0-1.1.384-2.88,2.16-2.88a2.626,2.626,0,0,1,1.12.272C68.736,12,68.272,14.432,66.864,14.432Zm9.168,1.808c1.936,0,3.344-.832,3.344-2.64,0-2.784-4.048-1.968-4.048-3.2,0-.512.64-.656,1.232-.656a4.183,4.183,0,0,1,1.952.48l.768-1.568a6.219,6.219,0,0,0-2.944-.736c-1.616,0-3.264.672-3.264,2.464,0,2.928,4.064,2.08,4.064,3.376,0,.432-.432.672-1.216.672a4.9,4.9,0,0,1-2.432-.688l-.816,1.632A6.847,6.847,0,0,0,76.032,16.24ZM4.944,34.3A2.021,2.021,0,0,1,2.912,32.08a2.021,2.021,0,0,1,2.032-2.224,2.392,2.392,0,0,1,1.36.416l1.008-1.6a4.508,4.508,0,0,0-2.544-.752A3.926,3.926,0,0,0,.592,32.08a3.926,3.926,0,0,0,4.176,4.16,4.359,4.359,0,0,0,2.544-.768L6.3,33.888A2.392,2.392,0,0,1,4.944,34.3Zm7.568,1.936a3.957,3.957,0,0,0,4.1-4.16,3.948,3.948,0,0,0-4.1-4.16A3.952,3.952,0,0,0,8.4,32.08,3.961,3.961,0,0,0,12.512,36.24Zm0-1.824c-1.184,0-1.792-1.088-1.792-2.336s.608-2.336,1.792-2.336c1.168,0,1.776,1.088,1.776,2.336S13.68,34.416,12.512,34.416Zm15.744-6.5a2.878,2.878,0,0,0-2.7,1.968,2.329,2.329,0,0,0-2.416-1.968,2.958,2.958,0,0,0-2.784,2.144l.192-1.9H18.3V36h2.24c0-2.528.112-6.144,1.888-6.144.88,0,.976.96.976,1.712V36h2.256c0-2.512.1-6.144,1.872-6.144.9,0,.992.96.992,1.712V36h2.24V30.944C30.768,29.04,29.856,27.92,28.256,27.92Zm11.824-.144c0-1.2.624-1.664,1.456-1.664a1.9,1.9,0,0,1,.9.224l.72-1.728a4.235,4.235,0,0,0-1.9-.432A3.089,3.089,0,0,0,37.84,27.52v.64H36.384v1.776H37.84V36h2.24V29.936h2.384V28.16H40.08Zm8.912.144c-1.728,0-2.592,1.28-3.04,2.992l.272-2.752h-2.24V36h2.24c0-2.592.16-5.76,2.288-5.76a2.539,2.539,0,0,1,.8.144l.592-2.336A3.3,3.3,0,0,0,48.992,27.92Zm6,0c-3.168,0-4.528,2.3-4.528,4.672,0,2.144,1.1,3.648,2.928,3.648,1.472,0,2.384-1.04,2.944-2.464L56.1,36h2.256V28.944A5.882,5.882,0,0,0,54.992,27.92Zm-.912,6.512c-.72,0-1.28-.464-1.28-1.92,0-1.1.384-2.88,2.16-2.88a2.626,2.626,0,0,1,1.12.272C55.952,32,55.488,34.432,54.08,34.432Zm9.168,1.808c1.936,0,3.344-.832,3.344-2.64,0-2.784-4.048-1.968-4.048-3.2,0-.512.64-.656,1.232-.656a4.183,4.183,0,0,1,1.952.48l.768-1.568a6.219,6.219,0,0,0-2.944-.736c-1.616,0-3.264.672-3.264,2.464,0,2.928,4.064,2.08,4.064,3.376,0,.432-.432.672-1.216.672a4.9,4.9,0,0,1-2.432-.688l-.816,1.632A6.847,6.847,0,0,0,63.248,36.24ZM72.4,34.464a2.069,2.069,0,0,1-2.128-1.536l4.8-.56a4.134,4.134,0,0,0,.208-1.312,3.068,3.068,0,0,0-3.36-3.136A3.821,3.821,0,0,0,68,32.048a3.96,3.96,0,0,0,4.24,4.192,4.826,4.826,0,0,0,2.848-.88L74.256,33.9A3.591,3.591,0,0,1,72.4,34.464Zm-.352-4.816c.7,0,1.216.368,1.216,1.056a1.236,1.236,0,0,1-.048.4l-3.04.368A1.919,1.919,0,0,1,72.048,29.648Zm7.664,6.592c1.936,0,3.344-.832,3.344-2.64,0-2.784-4.048-1.968-4.048-3.2,0-.512.64-.656,1.232-.656a4.183,4.183,0,0,1,1.952.48l.768-1.568a6.219,6.219,0,0,0-2.944-.736c-1.616,0-3.264.672-3.264,2.464,0,2.928,4.064,2.08,4.064,3.376,0,.432-.432.672-1.216.672a4.9,4.9,0,0,1-2.432-.688l-.816,1.632A6.847,6.847,0,0,0,79.712,36.24ZM6.368,48.016a6.163,6.163,0,0,0-1.1-.1c-3.168,0-4.528,2.3-4.528,4.672,0,2.144,1.1,3.648,2.928,3.648,1.472,0,2.384-1.056,2.944-2.48L6.368,56H8.624V44.416H6.368ZM4.352,54.432c-.72,0-1.28-.464-1.28-1.92,0-1.1.384-2.88,2.16-2.88a2.626,2.626,0,0,1,1.12.272C6.224,52,5.76,54.432,4.352,54.432ZM14.384,56.24a4.161,4.161,0,0,0,0-8.32,4.16,4.16,0,0,0,0,8.32Zm0-1.824c-1.184,0-1.792-1.088-1.792-2.336s.608-2.336,1.792-2.336c1.168,0,1.776,1.088,1.776,2.336S15.552,54.416,14.384,54.416Zm8.448,1.824c1.936,0,3.344-.832,3.344-2.64,0-2.784-4.048-1.968-4.048-3.2,0-.512.64-.656,1.232-.656a4.183,4.183,0,0,1,1.952.48l.768-1.568a6.219,6.219,0,0,0-2.944-.736c-1.616,0-3.264.672-3.264,2.464,0,2.928,4.064,2.08,4.064,3.376,0,.432-.432.672-1.216.672a4.9,4.9,0,0,1-2.432-.688l-.816,1.632A6.847,6.847,0,0,0,22.832,56.24Zm13.536-8.32c-3.168,0-4.528,2.3-4.528,4.672,0,2.144,1.1,3.648,2.928,3.648,1.472,0,2.384-1.04,2.944-2.464L37.472,56h2.256V48.944A5.882,5.882,0,0,0,36.368,47.92Zm-.912,6.512c-.72,0-1.28-.464-1.28-1.92,0-1.1.384-2.88,2.16-2.88a2.626,2.626,0,0,1,1.12.272C37.328,52,36.864,54.432,35.456,54.432ZM46.992,47.92a3.121,3.121,0,0,0-2.976,2.288l.192-2.048h-2.24V56h2.24c0-2.544.144-6.144,2.1-6.144.992,0,1.088,1.056,1.088,1.712V56h2.256V50.944C49.648,49.056,48.672,47.92,46.992,47.92Zm8.352,8.32a4.16,4.16,0,1,0-4.112-4.16A3.957,3.957,0,0,0,55.344,56.24Zm0-1.824c-1.184,0-1.792-1.088-1.792-2.336s.608-2.336,1.792-2.336c1.168,0,1.776,1.088,1.776,2.336S56.512,54.416,55.344,54.416Zm8.448,1.824c1.936,0,3.344-.832,3.344-2.64,0-2.784-4.048-1.968-4.048-3.2,0-.512.64-.656,1.232-.656a4.183,4.183,0,0,1,1.952.48l.768-1.568A6.219,6.219,0,0,0,64.1,47.92c-1.616,0-3.264.672-3.264,2.464,0,2.928,4.064,2.08,4.064,3.376,0,.432-.432.672-1.216.672a4.9,4.9,0,0,1-2.432-.688l-.816,1.632A6.847,6.847,0,0,0,63.792,56.24ZM5.424,76.224c2.224,0,4.128-1.376,4.128-3.808a3.52,3.52,0,0,0-3.7-3.664,2.848,2.848,0,0,0-2.672,1.472c0-2,.832-3.728,2.832-3.728a3.375,3.375,0,0,1,2.016.672l.992-1.6a4.772,4.772,0,0,0-3.072-.992c-3.68,0-5.136,3.04-5.136,6.336C.816,74.528,2.832,76.224,5.424,76.224Zm-.016-1.888A1.752,1.752,0,0,1,3.632,72.48a1.731,1.731,0,0,1,1.776-1.84A1.743,1.743,0,0,1,7.2,72.48,1.765,1.765,0,0,1,5.408,74.336Zm10.7,1.9c3.136,0,4.976-2.544,4.976-5.84s-1.84-5.84-4.976-5.84c-3.152,0-4.992,2.544-4.992,5.84S12.96,76.24,16.112,76.24Zm0-2c-1.808,0-2.544-1.952-2.544-3.84s.736-3.84,2.544-3.84,2.544,1.952,2.544,3.84S17.92,74.24,16.112,74.24Z" transform="translate(71.106 9847)" fill="#fff"/>
    <path id="Caminho_772662" data-name="Caminho 772662" d="M6.48,14.24c-2.08,0-3.328-1.648-3.328-3.84S4.4,6.56,6.48,6.56a3.82,3.82,0,0,1,2.224.7l1.04-1.632A5.791,5.791,0,0,0,6.3,4.56C2.8,4.56.7,7.04.7,10.4c0,3.376,2.1,5.84,5.6,5.84a5.754,5.754,0,0,0,3.44-1.072L8.7,13.536A3.929,3.929,0,0,1,6.48,14.24Zm9.056-6.32c-3.168,0-4.528,2.3-4.528,4.672,0,2.144,1.1,3.648,2.928,3.648,1.472,0,2.384-1.04,2.944-2.464L16.64,16H18.9V8.944A5.882,5.882,0,0,0,15.536,7.92Zm-.912,6.512c-.72,0-1.28-.464-1.28-1.92,0-1.1.384-2.88,2.16-2.88a2.626,2.626,0,0,1,1.12.272C16.5,12,16.032,14.432,14.624,14.432ZM31.088,7.92a2.878,2.878,0,0,0-2.7,1.968A2.329,2.329,0,0,0,25.968,7.92a2.958,2.958,0,0,0-2.784,2.144l.192-1.9h-2.24V16h2.24c0-2.528.112-6.144,1.888-6.144.88,0,.976.96.976,1.712V16H28.5c0-2.512.1-6.144,1.872-6.144.9,0,.992.96.992,1.712V16H33.6V10.944C33.6,9.04,32.688,7.92,31.088,7.92Zm5.744-.864a1.466,1.466,0,0,0,1.5-1.52,1.512,1.512,0,1,0-3.024,0A1.47,1.47,0,0,0,36.832,7.056ZM37.952,16V8.16h-2.24V16Zm4.9.24c1.936,0,3.344-.832,3.344-2.64,0-2.784-4.048-1.968-4.048-3.2,0-.512.64-.656,1.232-.656a4.183,4.183,0,0,1,1.952.48L46.1,8.656a6.219,6.219,0,0,0-2.944-.736c-1.616,0-3.264.672-3.264,2.464,0,2.928,4.064,2.08,4.064,3.376,0,.432-.432.672-1.216.672a4.9,4.9,0,0,1-2.432-.688l-.816,1.632A6.847,6.847,0,0,0,42.848,16.24ZM52,14.464a2.069,2.069,0,0,1-2.128-1.536l4.8-.56a4.134,4.134,0,0,0,.208-1.312A3.068,3.068,0,0,0,51.52,7.92a3.821,3.821,0,0,0-3.92,4.128,3.96,3.96,0,0,0,4.24,4.192,4.826,4.826,0,0,0,2.848-.88L53.856,13.9A3.591,3.591,0,0,1,52,14.464Zm-.352-4.816c.7,0,1.216.368,1.216,1.056a1.236,1.236,0,0,1-.048.4l-3.04.368A1.919,1.919,0,0,1,51.648,9.648Zm8.7,6.592a5.152,5.152,0,0,0,1.792-.336l-.464-1.76a2.287,2.287,0,0,1-.8.16c-.832,0-1.232-.5-1.232-1.488V9.936H61.84V8.16H59.648V5.712H58.16L58,6.576c-.24,1.264-.368,1.584-1.808,1.584h-.24V9.936h1.456V13.2A2.714,2.714,0,0,0,60.352,16.24Zm7.424-8.32c-3.168,0-4.528,2.3-4.528,4.672,0,2.144,1.1,3.648,2.928,3.648,1.472,0,2.384-1.04,2.944-2.464L68.88,16h2.256V8.944A5.882,5.882,0,0,0,67.776,7.92Zm-.912,6.512c-.72,0-1.28-.464-1.28-1.92,0-1.1.384-2.88,2.16-2.88a2.626,2.626,0,0,1,1.12.272C68.736,12,68.272,14.432,66.864,14.432Zm9.168,1.808c1.936,0,3.344-.832,3.344-2.64,0-2.784-4.048-1.968-4.048-3.2,0-.512.64-.656,1.232-.656a4.183,4.183,0,0,1,1.952.48l.768-1.568a6.219,6.219,0,0,0-2.944-.736c-1.616,0-3.264.672-3.264,2.464,0,2.928,4.064,2.08,4.064,3.376,0,.432-.432.672-1.216.672a4.9,4.9,0,0,1-2.432-.688l-.816,1.632A6.847,6.847,0,0,0,76.032,16.24ZM4.944,34.3A2.021,2.021,0,0,1,2.912,32.08a2.021,2.021,0,0,1,2.032-2.224,2.392,2.392,0,0,1,1.36.416l1.008-1.6a4.508,4.508,0,0,0-2.544-.752A3.926,3.926,0,0,0,.592,32.08a3.926,3.926,0,0,0,4.176,4.16,4.359,4.359,0,0,0,2.544-.768L6.3,33.888A2.392,2.392,0,0,1,4.944,34.3Zm7.568,1.936a3.957,3.957,0,0,0,4.1-4.16,3.948,3.948,0,0,0-4.1-4.16A3.952,3.952,0,0,0,8.4,32.08,3.961,3.961,0,0,0,12.512,36.24Zm0-1.824c-1.184,0-1.792-1.088-1.792-2.336s.608-2.336,1.792-2.336c1.168,0,1.776,1.088,1.776,2.336S13.68,34.416,12.512,34.416Zm15.744-6.5a2.878,2.878,0,0,0-2.7,1.968,2.329,2.329,0,0,0-2.416-1.968,2.958,2.958,0,0,0-2.784,2.144l.192-1.9H18.3V36h2.24c0-2.528.112-6.144,1.888-6.144.88,0,.976.96.976,1.712V36h2.256c0-2.512.1-6.144,1.872-6.144.9,0,.992.96.992,1.712V36h2.24V30.944C30.768,29.04,29.856,27.92,28.256,27.92Zm11.824-.144c0-1.2.624-1.664,1.456-1.664a1.9,1.9,0,0,1,.9.224l.72-1.728a4.235,4.235,0,0,0-1.9-.432A3.089,3.089,0,0,0,37.84,27.52v.64H36.384v1.776H37.84V36h2.24V29.936h2.384V28.16H40.08Zm8.912.144c-1.728,0-2.592,1.28-3.04,2.992l.272-2.752h-2.24V36h2.24c0-2.592.16-5.76,2.288-5.76a2.539,2.539,0,0,1,.8.144l.592-2.336A3.3,3.3,0,0,0,48.992,27.92Zm6,0c-3.168,0-4.528,2.3-4.528,4.672,0,2.144,1.1,3.648,2.928,3.648,1.472,0,2.384-1.04,2.944-2.464L56.1,36h2.256V28.944A5.882,5.882,0,0,0,54.992,27.92Zm-.912,6.512c-.72,0-1.28-.464-1.28-1.92,0-1.1.384-2.88,2.16-2.88a2.626,2.626,0,0,1,1.12.272C55.952,32,55.488,34.432,54.08,34.432Zm9.168,1.808c1.936,0,3.344-.832,3.344-2.64,0-2.784-4.048-1.968-4.048-3.2,0-.512.64-.656,1.232-.656a4.183,4.183,0,0,1,1.952.48l.768-1.568a6.219,6.219,0,0,0-2.944-.736c-1.616,0-3.264.672-3.264,2.464,0,2.928,4.064,2.08,4.064,3.376,0,.432-.432.672-1.216.672a4.9,4.9,0,0,1-2.432-.688l-.816,1.632A6.847,6.847,0,0,0,63.248,36.24ZM72.4,34.464a2.069,2.069,0,0,1-2.128-1.536l4.8-.56a4.134,4.134,0,0,0,.208-1.312,3.068,3.068,0,0,0-3.36-3.136A3.821,3.821,0,0,0,68,32.048a3.96,3.96,0,0,0,4.24,4.192,4.826,4.826,0,0,0,2.848-.88L74.256,33.9A3.591,3.591,0,0,1,72.4,34.464Zm-.352-4.816c.7,0,1.216.368,1.216,1.056a1.236,1.236,0,0,1-.048.4l-3.04.368A1.919,1.919,0,0,1,72.048,29.648Zm7.664,6.592c1.936,0,3.344-.832,3.344-2.64,0-2.784-4.048-1.968-4.048-3.2,0-.512.64-.656,1.232-.656a4.183,4.183,0,0,1,1.952.48l.768-1.568a6.219,6.219,0,0,0-2.944-.736c-1.616,0-3.264.672-3.264,2.464,0,2.928,4.064,2.08,4.064,3.376,0,.432-.432.672-1.216.672a4.9,4.9,0,0,1-2.432-.688l-.816,1.632A6.847,6.847,0,0,0,79.712,36.24ZM6.368,48.016a6.163,6.163,0,0,0-1.1-.1c-3.168,0-4.528,2.3-4.528,4.672,0,2.144,1.1,3.648,2.928,3.648,1.472,0,2.384-1.056,2.944-2.48L6.368,56H8.624V44.416H6.368ZM4.352,54.432c-.72,0-1.28-.464-1.28-1.92,0-1.1.384-2.88,2.16-2.88a2.626,2.626,0,0,1,1.12.272C6.224,52,5.76,54.432,4.352,54.432ZM14.384,56.24a4.161,4.161,0,0,0,0-8.32,4.16,4.16,0,0,0,0,8.32Zm0-1.824c-1.184,0-1.792-1.088-1.792-2.336s.608-2.336,1.792-2.336c1.168,0,1.776,1.088,1.776,2.336S15.552,54.416,14.384,54.416Zm8.448,1.824c1.936,0,3.344-.832,3.344-2.64,0-2.784-4.048-1.968-4.048-3.2,0-.512.64-.656,1.232-.656a4.183,4.183,0,0,1,1.952.48l.768-1.568a6.219,6.219,0,0,0-2.944-.736c-1.616,0-3.264.672-3.264,2.464,0,2.928,4.064,2.08,4.064,3.376,0,.432-.432.672-1.216.672a4.9,4.9,0,0,1-2.432-.688l-.816,1.632A6.847,6.847,0,0,0,22.832,56.24Zm13.536-8.32c-3.168,0-4.528,2.3-4.528,4.672,0,2.144,1.1,3.648,2.928,3.648,1.472,0,2.384-1.04,2.944-2.464L37.472,56h2.256V48.944A5.882,5.882,0,0,0,36.368,47.92Zm-.912,6.512c-.72,0-1.28-.464-1.28-1.92,0-1.1.384-2.88,2.16-2.88a2.626,2.626,0,0,1,1.12.272C37.328,52,36.864,54.432,35.456,54.432ZM46.992,47.92a3.121,3.121,0,0,0-2.976,2.288l.192-2.048h-2.24V56h2.24c0-2.544.144-6.144,2.1-6.144.992,0,1.088,1.056,1.088,1.712V56h2.256V50.944C49.648,49.056,48.672,47.92,46.992,47.92Zm8.352,8.32a4.16,4.16,0,1,0-4.112-4.16A3.957,3.957,0,0,0,55.344,56.24Zm0-1.824c-1.184,0-1.792-1.088-1.792-2.336s.608-2.336,1.792-2.336c1.168,0,1.776,1.088,1.776,2.336S56.512,54.416,55.344,54.416Zm8.448,1.824c1.936,0,3.344-.832,3.344-2.64,0-2.784-4.048-1.968-4.048-3.2,0-.512.64-.656,1.232-.656a4.183,4.183,0,0,1,1.952.48l.768-1.568A6.219,6.219,0,0,0,64.1,47.92c-1.616,0-3.264.672-3.264,2.464,0,2.928,4.064,2.08,4.064,3.376,0,.432-.432.672-1.216.672a4.9,4.9,0,0,1-2.432-.688l-.816,1.632A6.847,6.847,0,0,0,63.792,56.24ZM8.464,64.8H.4v1.92H5.616A21.93,21.93,0,0,0,2.48,76H4.832a19.809,19.809,0,0,1,3.632-9.52Zm6.208,11.44c3.136,0,4.976-2.544,4.976-5.84s-1.84-5.84-4.976-5.84C11.52,64.56,9.68,67.1,9.68,70.4S11.52,76.24,14.672,76.24Zm0-2c-1.808,0-2.544-1.952-2.544-3.84s.736-3.84,2.544-3.84,2.544,1.952,2.544,3.84S16.48,74.24,14.672,74.24Z" transform="translate(163.065 9847)" fill="#fff"/>
    <path id="Caminho_772663" data-name="Caminho 772663" d="M6.48,14.24c-2.08,0-3.328-1.648-3.328-3.84S4.4,6.56,6.48,6.56a3.82,3.82,0,0,1,2.224.7l1.04-1.632A5.791,5.791,0,0,0,6.3,4.56C2.8,4.56.7,7.04.7,10.4c0,3.376,2.1,5.84,5.6,5.84a5.754,5.754,0,0,0,3.44-1.072L8.7,13.536A3.929,3.929,0,0,1,6.48,14.24Zm9.056-6.32c-3.168,0-4.528,2.3-4.528,4.672,0,2.144,1.1,3.648,2.928,3.648,1.472,0,2.384-1.04,2.944-2.464L16.64,16H18.9V8.944A5.882,5.882,0,0,0,15.536,7.92Zm-.912,6.512c-.72,0-1.28-.464-1.28-1.92,0-1.1.384-2.88,2.16-2.88a2.626,2.626,0,0,1,1.12.272C16.5,12,16.032,14.432,14.624,14.432ZM31.088,7.92a2.878,2.878,0,0,0-2.7,1.968A2.329,2.329,0,0,0,25.968,7.92a2.958,2.958,0,0,0-2.784,2.144l.192-1.9h-2.24V16h2.24c0-2.528.112-6.144,1.888-6.144.88,0,.976.96.976,1.712V16H28.5c0-2.512.1-6.144,1.872-6.144.9,0,.992.96.992,1.712V16H33.6V10.944C33.6,9.04,32.688,7.92,31.088,7.92Zm5.744-.864a1.466,1.466,0,0,0,1.5-1.52,1.512,1.512,0,1,0-3.024,0A1.47,1.47,0,0,0,36.832,7.056ZM37.952,16V8.16h-2.24V16Zm4.9.24c1.936,0,3.344-.832,3.344-2.64,0-2.784-4.048-1.968-4.048-3.2,0-.512.64-.656,1.232-.656a4.183,4.183,0,0,1,1.952.48L46.1,8.656a6.219,6.219,0,0,0-2.944-.736c-1.616,0-3.264.672-3.264,2.464,0,2.928,4.064,2.08,4.064,3.376,0,.432-.432.672-1.216.672a4.9,4.9,0,0,1-2.432-.688l-.816,1.632A6.847,6.847,0,0,0,42.848,16.24ZM52,14.464a2.069,2.069,0,0,1-2.128-1.536l4.8-.56a4.134,4.134,0,0,0,.208-1.312A3.068,3.068,0,0,0,51.52,7.92a3.821,3.821,0,0,0-3.92,4.128,3.96,3.96,0,0,0,4.24,4.192,4.826,4.826,0,0,0,2.848-.88L53.856,13.9A3.591,3.591,0,0,1,52,14.464Zm-.352-4.816c.7,0,1.216.368,1.216,1.056a1.236,1.236,0,0,1-.048.4l-3.04.368A1.919,1.919,0,0,1,51.648,9.648Zm8.7,6.592a5.152,5.152,0,0,0,1.792-.336l-.464-1.76a2.287,2.287,0,0,1-.8.16c-.832,0-1.232-.5-1.232-1.488V9.936H61.84V8.16H59.648V5.712H58.16L58,6.576c-.24,1.264-.368,1.584-1.808,1.584h-.24V9.936h1.456V13.2A2.714,2.714,0,0,0,60.352,16.24Zm7.424-8.32c-3.168,0-4.528,2.3-4.528,4.672,0,2.144,1.1,3.648,2.928,3.648,1.472,0,2.384-1.04,2.944-2.464L68.88,16h2.256V8.944A5.882,5.882,0,0,0,67.776,7.92Zm-.912,6.512c-.72,0-1.28-.464-1.28-1.92,0-1.1.384-2.88,2.16-2.88a2.626,2.626,0,0,1,1.12.272C68.736,12,68.272,14.432,66.864,14.432Zm9.168,1.808c1.936,0,3.344-.832,3.344-2.64,0-2.784-4.048-1.968-4.048-3.2,0-.512.64-.656,1.232-.656a4.183,4.183,0,0,1,1.952.48l.768-1.568a6.219,6.219,0,0,0-2.944-.736c-1.616,0-3.264.672-3.264,2.464,0,2.928,4.064,2.08,4.064,3.376,0,.432-.432.672-1.216.672a4.9,4.9,0,0,1-2.432-.688l-.816,1.632A6.847,6.847,0,0,0,76.032,16.24ZM4.944,34.3A2.021,2.021,0,0,1,2.912,32.08a2.021,2.021,0,0,1,2.032-2.224,2.392,2.392,0,0,1,1.36.416l1.008-1.6a4.508,4.508,0,0,0-2.544-.752A3.926,3.926,0,0,0,.592,32.08a3.926,3.926,0,0,0,4.176,4.16,4.359,4.359,0,0,0,2.544-.768L6.3,33.888A2.392,2.392,0,0,1,4.944,34.3Zm7.568,1.936a3.957,3.957,0,0,0,4.1-4.16,3.948,3.948,0,0,0-4.1-4.16A3.952,3.952,0,0,0,8.4,32.08,3.961,3.961,0,0,0,12.512,36.24Zm0-1.824c-1.184,0-1.792-1.088-1.792-2.336s.608-2.336,1.792-2.336c1.168,0,1.776,1.088,1.776,2.336S13.68,34.416,12.512,34.416Zm15.744-6.5a2.878,2.878,0,0,0-2.7,1.968,2.329,2.329,0,0,0-2.416-1.968,2.958,2.958,0,0,0-2.784,2.144l.192-1.9H18.3V36h2.24c0-2.528.112-6.144,1.888-6.144.88,0,.976.96.976,1.712V36h2.256c0-2.512.1-6.144,1.872-6.144.9,0,.992.96.992,1.712V36h2.24V30.944C30.768,29.04,29.856,27.92,28.256,27.92Zm11.824-.144c0-1.2.624-1.664,1.456-1.664a1.9,1.9,0,0,1,.9.224l.72-1.728a4.235,4.235,0,0,0-1.9-.432A3.089,3.089,0,0,0,37.84,27.52v.64H36.384v1.776H37.84V36h2.24V29.936h2.384V28.16H40.08Zm8.912.144c-1.728,0-2.592,1.28-3.04,2.992l.272-2.752h-2.24V36h2.24c0-2.592.16-5.76,2.288-5.76a2.539,2.539,0,0,1,.8.144l.592-2.336A3.3,3.3,0,0,0,48.992,27.92Zm6,0c-3.168,0-4.528,2.3-4.528,4.672,0,2.144,1.1,3.648,2.928,3.648,1.472,0,2.384-1.04,2.944-2.464L56.1,36h2.256V28.944A5.882,5.882,0,0,0,54.992,27.92Zm-.912,6.512c-.72,0-1.28-.464-1.28-1.92,0-1.1.384-2.88,2.16-2.88a2.626,2.626,0,0,1,1.12.272C55.952,32,55.488,34.432,54.08,34.432Zm9.168,1.808c1.936,0,3.344-.832,3.344-2.64,0-2.784-4.048-1.968-4.048-3.2,0-.512.64-.656,1.232-.656a4.183,4.183,0,0,1,1.952.48l.768-1.568a6.219,6.219,0,0,0-2.944-.736c-1.616,0-3.264.672-3.264,2.464,0,2.928,4.064,2.08,4.064,3.376,0,.432-.432.672-1.216.672a4.9,4.9,0,0,1-2.432-.688l-.816,1.632A6.847,6.847,0,0,0,63.248,36.24ZM72.4,34.464a2.069,2.069,0,0,1-2.128-1.536l4.8-.56a4.134,4.134,0,0,0,.208-1.312,3.068,3.068,0,0,0-3.36-3.136A3.821,3.821,0,0,0,68,32.048a3.96,3.96,0,0,0,4.24,4.192,4.826,4.826,0,0,0,2.848-.88L74.256,33.9A3.591,3.591,0,0,1,72.4,34.464Zm-.352-4.816c.7,0,1.216.368,1.216,1.056a1.236,1.236,0,0,1-.048.4l-3.04.368A1.919,1.919,0,0,1,72.048,29.648Zm7.664,6.592c1.936,0,3.344-.832,3.344-2.64,0-2.784-4.048-1.968-4.048-3.2,0-.512.64-.656,1.232-.656a4.183,4.183,0,0,1,1.952.48l.768-1.568a6.219,6.219,0,0,0-2.944-.736c-1.616,0-3.264.672-3.264,2.464,0,2.928,4.064,2.08,4.064,3.376,0,.432-.432.672-1.216.672a4.9,4.9,0,0,1-2.432-.688l-.816,1.632A6.847,6.847,0,0,0,79.712,36.24ZM6.368,48.016a6.163,6.163,0,0,0-1.1-.1c-3.168,0-4.528,2.3-4.528,4.672,0,2.144,1.1,3.648,2.928,3.648,1.472,0,2.384-1.056,2.944-2.48L6.368,56H8.624V44.416H6.368ZM4.352,54.432c-.72,0-1.28-.464-1.28-1.92,0-1.1.384-2.88,2.16-2.88a2.626,2.626,0,0,1,1.12.272C6.224,52,5.76,54.432,4.352,54.432ZM14.384,56.24a4.161,4.161,0,0,0,0-8.32,4.16,4.16,0,0,0,0,8.32Zm0-1.824c-1.184,0-1.792-1.088-1.792-2.336s.608-2.336,1.792-2.336c1.168,0,1.776,1.088,1.776,2.336S15.552,54.416,14.384,54.416Zm8.448,1.824c1.936,0,3.344-.832,3.344-2.64,0-2.784-4.048-1.968-4.048-3.2,0-.512.64-.656,1.232-.656a4.183,4.183,0,0,1,1.952.48l.768-1.568a6.219,6.219,0,0,0-2.944-.736c-1.616,0-3.264.672-3.264,2.464,0,2.928,4.064,2.08,4.064,3.376,0,.432-.432.672-1.216.672a4.9,4.9,0,0,1-2.432-.688l-.816,1.632A6.847,6.847,0,0,0,22.832,56.24Zm13.536-8.32c-3.168,0-4.528,2.3-4.528,4.672,0,2.144,1.1,3.648,2.928,3.648,1.472,0,2.384-1.04,2.944-2.464L37.472,56h2.256V48.944A5.882,5.882,0,0,0,36.368,47.92Zm-.912,6.512c-.72,0-1.28-.464-1.28-1.92,0-1.1.384-2.88,2.16-2.88a2.626,2.626,0,0,1,1.12.272C37.328,52,36.864,54.432,35.456,54.432ZM46.992,47.92a3.121,3.121,0,0,0-2.976,2.288l.192-2.048h-2.24V56h2.24c0-2.544.144-6.144,2.1-6.144.992,0,1.088,1.056,1.088,1.712V56h2.256V50.944C49.648,49.056,48.672,47.92,46.992,47.92Zm8.352,8.32a4.16,4.16,0,1,0-4.112-4.16A3.957,3.957,0,0,0,55.344,56.24Zm0-1.824c-1.184,0-1.792-1.088-1.792-2.336s.608-2.336,1.792-2.336c1.168,0,1.776,1.088,1.776,2.336S56.512,54.416,55.344,54.416Zm8.448,1.824c1.936,0,3.344-.832,3.344-2.64,0-2.784-4.048-1.968-4.048-3.2,0-.512.64-.656,1.232-.656a4.183,4.183,0,0,1,1.952.48l.768-1.568A6.219,6.219,0,0,0,64.1,47.92c-1.616,0-3.264.672-3.264,2.464,0,2.928,4.064,2.08,4.064,3.376,0,.432-.432.672-1.216.672a4.9,4.9,0,0,1-2.432-.688l-.816,1.632A6.847,6.847,0,0,0,63.792,56.24ZM7.6,70.048a2.849,2.849,0,0,0,1.28-2.416c0-1.84-1.584-3.056-3.776-3.056-2.208,0-3.776,1.216-3.776,3.056a2.849,2.849,0,0,0,1.28,2.416A3,3,0,0,0,.9,72.816c0,2.16,1.872,3.408,4.208,3.408S9.3,74.976,9.3,72.816A3.011,3.011,0,0,0,7.6,70.048Zm-2.5-3.7A1.407,1.407,0,0,1,6.64,67.76,1.43,1.43,0,0,1,5.1,69.2a1.435,1.435,0,0,1-1.552-1.44A1.412,1.412,0,0,1,5.1,66.352Zm0,7.9a1.646,1.646,0,1,1,0-3.28,1.645,1.645,0,1,1,0,3.28ZM15.968,76.24c3.136,0,4.976-2.544,4.976-5.84s-1.84-5.84-4.976-5.84c-3.152,0-4.992,2.544-4.992,5.84S12.816,76.24,15.968,76.24Zm0-2c-1.808,0-2.544-1.952-2.544-3.84s.736-3.84,2.544-3.84,2.544,1.952,2.544,3.84S17.776,74.24,15.968,74.24Z" transform="translate(255.023 9847)" fill="#fff"/>
    <g id="Retângulo_125067" data-name="Retângulo 125067" transform="translate(18 9930)" fill="none" stroke="#0023a2" stroke-width="1">
      <rect width="49" height="90" stroke="none"/>
      <rect x="0.5" y="0.5" width="48" height="89" fill="none"/>
    </g>
    <g id="Retângulo_125119" data-name="Retângulo 125119" transform="translate(18 10463.5)" fill="none" stroke="#0023a2" stroke-width="1">
      <rect width="49" height="90" stroke="none"/>
      <rect x="0.5" y="0.5" width="48" height="89" fill="none"/>
    </g>
    <g id="Retângulo_125098" data-name="Retângulo 125098" transform="translate(18 10197)" fill="none" stroke="#0023a2" stroke-width="1">
      <rect width="49" height="90" stroke="none"/>
      <rect x="0.5" y="0.5" width="48" height="89" fill="none"/>
    </g>
    <g id="Retângulo_125120" data-name="Retângulo 125120" transform="translate(18 10730.5)" fill="none" stroke="#0023a2" stroke-width="1">
      <rect width="49" height="90" stroke="none"/>
      <rect x="0.5" y="0.5" width="48" height="89" fill="none"/>
    </g>
    <g id="Retângulo_125084" data-name="Retângulo 125084" transform="translate(18 10019)" fill="none" stroke="#0023a2" stroke-width="1">
      <rect width="49" height="90" stroke="none"/>
      <rect x="0.5" y="0.5" width="48" height="89" fill="none"/>
    </g>
    <g id="Retângulo_125121" data-name="Retângulo 125121" transform="translate(18 10552.5)" fill="none" stroke="#0023a2" stroke-width="1">
      <rect width="49" height="90" stroke="none"/>
      <rect x="0.5" y="0.5" width="48" height="89" fill="none"/>
    </g>
    <g id="Retângulo_125099" data-name="Retângulo 125099" transform="translate(18 10286)" fill="none" stroke="#0023a2" stroke-width="1">
      <rect width="49" height="90" stroke="none"/>
      <rect x="0.5" y="0.5" width="48" height="89" fill="none"/>
    </g>
    <g id="Retângulo_125122" data-name="Retângulo 125122" transform="translate(18 10819.5)" fill="none" stroke="#0023a2" stroke-width="1">
      <rect width="49" height="90" stroke="none"/>
      <rect x="0.5" y="0.5" width="48" height="89" fill="none"/>
    </g>
    <g id="Retângulo_125088" data-name="Retângulo 125088" transform="translate(18 10108)" fill="none" stroke="#0023a2" stroke-width="1">
      <rect width="49" height="90" stroke="none"/>
      <rect x="0.5" y="0.5" width="48" height="89" fill="none"/>
    </g>
    <g id="Retângulo_125123" data-name="Retângulo 125123" transform="translate(18 10641.5)" fill="none" stroke="#0023a2" stroke-width="1">
      <rect width="49" height="90" stroke="none"/>
      <rect x="0.5" y="0.5" width="48" height="89" fill="none"/>
    </g>
    <g id="Retângulo_125100" data-name="Retângulo 125100" transform="translate(18 10375)" fill="none" stroke="#0023a2" stroke-width="1">
      <rect width="49" height="90" stroke="none"/>
      <rect x="0.5" y="0.5" width="48" height="89" fill="none"/>
    </g>
    <g id="Retângulo_125124" data-name="Retângulo 125124" transform="translate(18 10908.5)" fill="none" stroke="#0023a2" stroke-width="1">
      <rect width="49" height="90" stroke="none"/>
      <rect x="0.5" y="0.5" width="48" height="89" fill="none"/>
    </g>
    <g id="Retângulo_125068" data-name="Retângulo 125068" transform="translate(66 9930)" fill="none" stroke="#0023a2" stroke-width="1">
      <rect width="93" height="90" stroke="none"/>
      <rect x="0.5" y="0.5" width="92" height="89" fill="none"/>
    </g>
    <g id="Retângulo_125113" data-name="Retângulo 125113" transform="translate(66 10463.5)" fill="none" stroke="#0023a2" stroke-width="1">
      <rect width="93" height="90" stroke="none"/>
      <rect x="0.5" y="0.5" width="92" height="89" fill="none"/>
    </g>
    <g id="Retângulo_125095" data-name="Retângulo 125095" transform="translate(66 10197)" fill="none" stroke="#0023a2" stroke-width="1">
      <rect width="93" height="90" stroke="none"/>
      <rect x="0.5" y="0.5" width="92" height="89" fill="none"/>
    </g>
    <g id="Retângulo_125114" data-name="Retângulo 125114" transform="translate(66 10730.5)" fill="none" stroke="#0023a2" stroke-width="1">
      <rect width="93" height="90" stroke="none"/>
      <rect x="0.5" y="0.5" width="92" height="89" fill="none"/>
    </g>
    <g id="Retângulo_125082" data-name="Retângulo 125082" transform="translate(66 10019)" fill="none" stroke="#0023a2" stroke-width="1">
      <rect width="93" height="90" stroke="none"/>
      <rect x="0.5" y="0.5" width="92" height="89" fill="none"/>
    </g>
    <g id="Retângulo_125115" data-name="Retângulo 125115" transform="translate(66 10552.5)" fill="none" stroke="#0023a2" stroke-width="1">
      <rect width="93" height="90" stroke="none"/>
      <rect x="0.5" y="0.5" width="92" height="89" fill="none"/>
    </g>
    <g id="Retângulo_125093" data-name="Retângulo 125093" transform="translate(66 10286)" fill="none" stroke="#0023a2" stroke-width="1">
      <rect width="93" height="90" stroke="none"/>
      <rect x="0.5" y="0.5" width="92" height="89" fill="none"/>
    </g>
    <g id="Retângulo_125116" data-name="Retângulo 125116" transform="translate(66 10819.5)" fill="none" stroke="#0023a2" stroke-width="1">
      <rect width="93" height="90" stroke="none"/>
      <rect x="0.5" y="0.5" width="92" height="89" fill="none"/>
    </g>
    <g id="Retângulo_125087" data-name="Retângulo 125087" transform="translate(66 10108)" fill="none" stroke="#0023a2" stroke-width="1">
      <rect width="93" height="90" stroke="none"/>
      <rect x="0.5" y="0.5" width="92" height="89" fill="none"/>
    </g>
    <g id="Retângulo_125117" data-name="Retângulo 125117" transform="translate(66 10641.5)" fill="none" stroke="#0023a2" stroke-width="1">
      <rect width="93" height="90" stroke="none"/>
      <rect x="0.5" y="0.5" width="92" height="89" fill="none"/>
    </g>
    <g id="Retângulo_125094" data-name="Retângulo 125094" transform="translate(66 10375)" fill="none" stroke="#0023a2" stroke-width="1">
      <rect width="93" height="90" stroke="none"/>
      <rect x="0.5" y="0.5" width="92" height="89" fill="none"/>
    </g>
    <g id="Retângulo_125118" data-name="Retângulo 125118" transform="translate(66 10908.5)" fill="none" stroke="#0023a2" stroke-width="1">
      <rect width="93" height="90" stroke="none"/>
      <rect x="0.5" y="0.5" width="92" height="89" fill="none"/>
    </g>
    <g id="Retângulo_125079" data-name="Retângulo 125079" transform="translate(158 9930)" fill="none" stroke="#0023a2" stroke-width="1">
      <rect width="93" height="90" stroke="none"/>
      <rect x="0.5" y="0.5" width="92" height="89" fill="none"/>
    </g>
    <g id="Retângulo_125111" data-name="Retângulo 125111" transform="translate(158 10463.5)" fill="none" stroke="#0023a2" stroke-width="1">
      <rect width="93" height="90" stroke="none"/>
      <rect x="0.5" y="0.5" width="92" height="89" fill="none"/>
    </g>
    <g id="Retângulo_125096" data-name="Retângulo 125096" transform="translate(158 10197)" fill="none" stroke="#0023a2" stroke-width="1">
      <rect width="93" height="90" stroke="none"/>
      <rect x="0.5" y="0.5" width="92" height="89" fill="none"/>
    </g>
    <g id="Retângulo_125106" data-name="Retângulo 125106" transform="translate(158 10730.5)" fill="none" stroke="#0023a2" stroke-width="1">
      <rect width="93" height="90" stroke="none"/>
      <rect x="0.5" y="0.5" width="92" height="89" fill="none"/>
    </g>
    <g id="Retângulo_125083" data-name="Retângulo 125083" transform="translate(158 10019)" fill="none" stroke="#0023a2" stroke-width="1">
      <rect width="93" height="90" stroke="none"/>
      <rect x="0.5" y="0.5" width="92" height="89" fill="none"/>
    </g>
    <g id="Retângulo_125107" data-name="Retângulo 125107" transform="translate(158 10552.5)" fill="none" stroke="#0023a2" stroke-width="1">
      <rect width="93" height="90" stroke="none"/>
      <rect x="0.5" y="0.5" width="92" height="89" fill="none"/>
    </g>
    <g id="Retângulo_125090" data-name="Retângulo 125090" transform="translate(158 10286)" fill="none" stroke="#0023a2" stroke-width="1">
      <rect width="93" height="90" stroke="none"/>
      <rect x="0.5" y="0.5" width="92" height="89" fill="none"/>
    </g>
    <g id="Retângulo_125108" data-name="Retângulo 125108" transform="translate(158 10819.5)" fill="none" stroke="#0023a2" stroke-width="1">
      <rect width="93" height="90" stroke="none"/>
      <rect x="0.5" y="0.5" width="92" height="89" fill="none"/>
    </g>
    <g id="Retângulo_125085" data-name="Retângulo 125085" transform="translate(158 10108)" fill="none" stroke="#0023a2" stroke-width="1">
      <rect width="93" height="90" stroke="none"/>
      <rect x="0.5" y="0.5" width="92" height="89" fill="none"/>
    </g>
    <g id="Retângulo_125109" data-name="Retângulo 125109" transform="translate(158 10641.5)" fill="none" stroke="#0023a2" stroke-width="1">
      <rect width="93" height="90" stroke="none"/>
      <rect x="0.5" y="0.5" width="92" height="89" fill="none"/>
    </g>
    <g id="Retângulo_125091" data-name="Retângulo 125091" transform="translate(158 10375)" fill="none" stroke="#0023a2" stroke-width="1">
      <rect width="93" height="90" stroke="none"/>
      <rect x="0.5" y="0.5" width="92" height="89" fill="none"/>
    </g>
    <g id="Retângulo_125110" data-name="Retângulo 125110" transform="translate(158 10908.5)" fill="none" stroke="#0023a2" stroke-width="1">
      <rect width="93" height="90" stroke="none"/>
      <rect x="0.5" y="0.5" width="92" height="89" fill="none"/>
    </g>
    <g id="Retângulo_125080" data-name="Retângulo 125080" transform="translate(250 9930)" fill="none" stroke="#0023a2" stroke-width="1">
      <rect width="93" height="90" stroke="none"/>
      <rect x="0.5" y="0.5" width="92" height="89" fill="none"/>
    </g>
    <g id="Retângulo_125112" data-name="Retângulo 125112" transform="translate(250 10463.5)" fill="none" stroke="#0023a2" stroke-width="1">
      <rect width="93" height="90" stroke="none"/>
      <rect x="0.5" y="0.5" width="92" height="89" fill="none"/>
    </g>
    <g id="Retângulo_125097" data-name="Retângulo 125097" transform="translate(250 10197)" fill="none" stroke="#0023a2" stroke-width="1">
      <rect width="93" height="90" stroke="none"/>
      <rect x="0.5" y="0.5" width="92" height="89" fill="none"/>
    </g>
    <g id="Retângulo_125103" data-name="Retângulo 125103" transform="translate(250 10730.5)" fill="none" stroke="#0023a2" stroke-width="1">
      <rect width="93" height="90" stroke="none"/>
      <rect x="0.5" y="0.5" width="92" height="89" fill="none"/>
    </g>
    <g id="Retângulo_125081" data-name="Retângulo 125081" transform="translate(250 10019)" fill="none" stroke="#0023a2" stroke-width="1">
      <rect width="93" height="90" stroke="none"/>
      <rect x="0.5" y="0.5" width="92" height="89" fill="none"/>
    </g>
    <g id="Retângulo_125104" data-name="Retângulo 125104" transform="translate(250 10552.5)" fill="none" stroke="#0023a2" stroke-width="1">
      <rect width="93" height="90" stroke="none"/>
      <rect x="0.5" y="0.5" width="92" height="89" fill="none"/>
    </g>
    <g id="Retângulo_125092" data-name="Retângulo 125092" transform="translate(250 10286)" fill="none" stroke="#0023a2" stroke-width="1">
      <rect width="93" height="90" stroke="none"/>
      <rect x="0.5" y="0.5" width="92" height="89" fill="none"/>
    </g>
    <g id="Retângulo_125102" data-name="Retângulo 125102" transform="translate(250 10819.5)" fill="none" stroke="#0023a2" stroke-width="1">
      <rect width="93" height="90" stroke="none"/>
      <rect x="0.5" y="0.5" width="92" height="89" fill="none"/>
    </g>
    <g id="Retângulo_125086" data-name="Retângulo 125086" transform="translate(250 10108)" fill="none" stroke="#0023a2" stroke-width="1">
      <rect width="93" height="90" stroke="none"/>
      <rect x="0.5" y="0.5" width="92" height="89" fill="none"/>
    </g>
    <g id="Retângulo_125105" data-name="Retângulo 125105" transform="translate(250 10641.5)" fill="none" stroke="#0023a2" stroke-width="1">
      <rect width="93" height="90" stroke="none"/>
      <rect x="0.5" y="0.5" width="92" height="89" fill="none"/>
    </g>
    <g id="Retângulo_125089" data-name="Retângulo 125089" transform="translate(250 10375)" fill="none" stroke="#0023a2" stroke-width="1">
      <rect width="93" height="90" stroke="none"/>
      <rect x="0.5" y="0.5" width="92" height="89" fill="none"/>
    </g>
    <g id="Retângulo_125101" data-name="Retângulo 125101" transform="translate(250 10908.5)" fill="none" stroke="#0023a2" stroke-width="1">
      <rect width="93" height="90" stroke="none"/>
      <rect x="0.5" y="0.5" width="92" height="89" fill="none"/>
    </g>
    <path id="Caminho_772664" data-name="Caminho 772664" d="M4.122,12.184l.108-7.74H.216L.108,5.758.27,5.9l2.106-.018.072,6.48v1.494c0,1.3-.63,1.98-2.2,2.79v.2L.9,17.872c2.412-1.062,3.258-2.142,3.258-4.014ZM9.7,7.54a5.768,5.768,0,0,0-3.24,1.08L6.7,9.9l.144.09A4.1,4.1,0,0,1,9.414,8.836a1.185,1.185,0,0,1,1.3,1.35l-.018.972-2.844.63a1.918,1.918,0,0,0-1.746,2c0,1.44.99,2.34,2.664,2.358a5.271,5.271,0,0,0,1.872-1.35h.126a1.4,1.4,0,0,0,1.314,1.332,2.933,2.933,0,0,0,1.134-.4l.18-1.008L13.23,14.6a2.753,2.753,0,0,1-.54.072c-.378,0-.522-.144-.522-.612,0-.612.216-3.636.216-4.266C12.384,8.368,11.34,7.54,9.7,7.54Zm.99,4.68-.054,1.386a2.542,2.542,0,0,1-1.8,1.1,1.037,1.037,0,0,1-1.1-1.152.664.664,0,0,1,.612-.774ZM20.232,16h1.854L22,12.364l.054-2.34c.018-1.548-.936-2.43-2.79-2.43a6.121,6.121,0,0,0-2.214,1.278H16.92l.018-1.206-1.746.162.09,4.7L15.174,16H17.01L16.9,12.364l.018-2.2a3.229,3.229,0,0,1,2.16-1.08c.864,0,1.3.558,1.278,1.458Zm10.314-4.068.306-.288a7.013,7.013,0,0,0,.072-.9A2.847,2.847,0,0,0,27.9,7.558c-2.412,0-3.978,1.638-3.978,4.338,0,2.628,1.44,4.266,3.924,4.266a5.842,5.842,0,0,0,2.52-.612l.216-1.458-.162-.108a4.941,4.941,0,0,1-2.43.756c-1.584,0-2.34-1.026-2.376-2.808Zm-1.3-1.206-3.546.09a2.11,2.11,0,0,1,2.088-2c.9,0,1.494.522,1.494,1.692ZM33.8,3.832A.973.973,0,0,0,32.76,4.876a.914.914,0,0,0,.99,1.008.97.97,0,0,0,1.008-1.062A.89.89,0,0,0,33.8,3.832Zm.72,8.532.144-4.7-1.836.162.09,4.7L32.814,16H34.65Zm6.84-4.68A2.655,2.655,0,0,0,39.1,9.322H38.97l.018-1.656-1.746.162.108,4.7L37.224,16H39.06l-.126-3.636.018-1.188c.63-1.242,1.26-1.746,2-1.746a2.519,2.519,0,0,1,.666.09l.2-.054V7.72A3.506,3.506,0,0,0,41.364,7.684Zm4.95-.144c-2.484,0-3.87,1.6-3.87,4.446,0,2.664,1.314,4.176,3.636,4.176,2.484,0,3.87-1.6,3.87-4.446C49.95,9.052,48.636,7.54,46.314,7.54Zm-.108,1.278c1.35,0,2.034,1.044,2.034,3.312,0,1.89-.684,2.772-2.034,2.772-1.368,0-2.052-1.026-2.052-3.312C44.154,9.736,44.838,8.818,46.206,8.818Z" transform="translate(29.25 10001.5) rotate(-90)"/>
    <path id="Caminho_772688" data-name="Caminho 772688" d="M4.122,12.184l.108-7.74H.216L.108,5.758.27,5.9l2.106-.018.072,6.48v1.494c0,1.3-.63,1.98-2.2,2.79v.2L.9,17.872c2.412-1.062,3.258-2.142,3.258-4.014Zm9.342-4.518-1.746.162v5.85a2.951,2.951,0,0,1-1.962.918c-.846,0-1.26-.54-1.242-1.422L8.6,7.666l-1.818.162.072,3.6-.036,2.25c-.018,1.548.954,2.43,2.772,2.43a5.411,5.411,0,0,0,2.16-1.26H11.9a1.441,1.441,0,0,0,1.332,1.278,2.832,2.832,0,0,0,1.134-.4l.18-1.008-.162-.126a2.6,2.6,0,0,1-.558.072c-.36,0-.486-.144-.486-.594Zm4.482,4.68.144-8.982-1.836.144.108,9L16.236,16h1.836ZM25.866,16H27.72l-.09-3.636.054-2.34c.018-1.548-.936-2.43-2.79-2.43A6.121,6.121,0,0,0,22.68,8.872h-.108l.09-5.508-1.836.144.09,9L20.808,16h1.836l-.126-3.654.036-2.178a3.229,3.229,0,0,1,2.16-1.08c.864,0,1.3.558,1.278,1.458Zm7.542-8.46c-2.484,0-3.87,1.6-3.87,4.446,0,2.664,1.314,4.176,3.636,4.176,2.484,0,3.87-1.6,3.87-4.446C37.044,9.052,35.73,7.54,33.408,7.54ZM33.3,8.818c1.35,0,2.034,1.044,2.034,3.312,0,1.89-.684,2.772-2.034,2.772-1.368,0-2.052-1.026-2.052-3.312C31.248,9.736,31.932,8.818,33.3,8.818Z" transform="translate(29.25 10527.681) rotate(-90)"/>
    <path id="Caminho_772679" data-name="Caminho 772679" d="M10.224,16,6.5,4.444H4.32L.2,16H2.052l.288-1.386L2.88,13.1l2.214-.054,2.448.054.5,1.6.27,1.3Zm-3.15-4.41-1.854.036L3.4,11.59l1.89-5.328h.126Zm8.6-3.978a5.892,5.892,0,0,0-2.16,1.242H13.41l.072-5.49-1.836.144.108,9.036-.126,3.492.288.18,1.134-.468a4.466,4.466,0,0,0,1.836.414c2.484,0,4.014-1.62,4.014-4.572C18.9,9.106,17.8,7.612,15.678,7.612Zm-.72,7.29a3.037,3.037,0,0,1-1.548-.486l-.054-2.088.036-2.16a2.8,2.8,0,0,1,1.98-1.08c1.17,0,1.782,1.008,1.818,2.754C17.208,13.948,16.308,14.9,14.958,14.9ZM24.984,7.684a2.655,2.655,0,0,0-2.268,1.638H22.59l.018-1.656-1.746.162.108,4.7L20.844,16H22.68l-.126-3.636.018-1.188c.63-1.242,1.26-1.746,2-1.746a2.519,2.519,0,0,1,.666.09l.2-.054V7.72A3.506,3.506,0,0,0,24.984,7.684ZM27.81,3.832a.973.973,0,0,0-1.044,1.044.914.914,0,0,0,.99,1.008.97.97,0,0,0,1.008-1.062A.89.89,0,0,0,27.81,3.832Zm.72,8.532.144-4.7-1.836.162.09,4.7L26.82,16h1.836Zm4.5-.018.144-8.982-1.836.144.108,9L31.32,16h1.836Z" transform="translate(29.25 10259.363) rotate(-90)"/>
    <path id="Caminho_772703" data-name="Caminho 772703" d="M5.922,4.3c-3.4,0-5.31,2.16-5.31,6.03,0,3.708,1.782,5.832,4.968,5.832,3.384,0,5.31-2.232,5.31-6.174C10.89,6.352,9.108,4.3,5.922,4.3ZM5.76,5.83c2.178,0,3.2,1.368,3.2,4.5,0,2.988-1.062,4.338-3.24,4.338s-3.2-1.4-3.2-4.572C2.52,7.162,3.564,5.83,5.76,5.83ZM19.368,7.666l-1.746.162v5.85a2.951,2.951,0,0,1-1.962.918c-.846,0-1.26-.54-1.242-1.422l.09-5.508-1.818.162.072,3.6-.036,2.25c-.018,1.548.954,2.43,2.772,2.43a5.411,5.411,0,0,0,2.16-1.26H17.8a1.441,1.441,0,0,0,1.332,1.278,2.832,2.832,0,0,0,1.134-.4l.18-1.008-.162-.126a2.6,2.6,0,0,1-.558.072c-.36,0-.486-.144-.486-.594Zm5.616,6.948c-.738,0-1.062-.288-1.044-1.188l.09-4.518h2.322l.09-1.044-.072-.126h-2.3L24.1,5.956l-.162-.144-1.62.612V7.738h-1.1L21.132,8.8l.072.108h1.134l.018,3.51-.072,1.3a2.148,2.148,0,0,0,2.124,2.394,5.2,5.2,0,0,0,1.836-.54l.18-1.152-.18-.126A2.838,2.838,0,0,1,24.984,14.614Zm9.54-6.948-1.746.162v5.85a2.951,2.951,0,0,1-1.962.918c-.846,0-1.26-.54-1.242-1.422l.09-5.508-1.818.162.072,3.6-.036,2.25c-.018,1.548.954,2.43,2.772,2.43a5.411,5.411,0,0,0,2.16-1.26h.144a1.441,1.441,0,0,0,1.332,1.278,2.832,2.832,0,0,0,1.134-.4l.18-1.008-.162-.126a2.6,2.6,0,0,1-.558.072c-.36,0-.486-.144-.486-.594Zm6.8-.054a5.892,5.892,0,0,0-2.16,1.242H39.06l.072-5.49L37.3,3.508l.108,9.036-.126,3.492.288.18,1.134-.468a4.466,4.466,0,0,0,1.836.414c2.484,0,4.014-1.62,4.014-4.572C44.55,9.106,43.452,7.612,41.328,7.612Zm-.72,7.29a3.037,3.037,0,0,1-1.548-.486l-.054-2.088.036-2.16a2.8,2.8,0,0,1,1.98-1.08c1.17,0,1.782,1.008,1.818,2.754C42.858,13.948,41.958,14.9,40.608,14.9ZM50.634,7.684a2.655,2.655,0,0,0-2.268,1.638H48.24l.018-1.656-1.746.162.108,4.7L46.494,16H48.33L48.2,12.364l.018-1.188c.63-1.242,1.26-1.746,2-1.746a2.519,2.519,0,0,1,.666.09l.2-.054V7.72A3.506,3.506,0,0,0,50.634,7.684Zm4.95-.144c-2.484,0-3.87,1.6-3.87,4.446,0,2.664,1.314,4.176,3.636,4.176,2.484,0,3.87-1.6,3.87-4.446C59.22,9.052,57.906,7.54,55.584,7.54Zm-.108,1.278c1.35,0,2.034,1.044,2.034,3.312,0,1.89-.684,2.772-2.034,2.772-1.368,0-2.052-1.026-2.052-3.312C53.424,9.736,54.108,8.818,55.476,8.818Z" transform="translate(29.25 10806.682) rotate(-90)"/>
    <path id="Caminho_772671" data-name="Caminho 772671" d="M3.438,5.974l1.854-.018,2.7.108.144-1.458L8.01,4.444H1.548l.126,8.082L1.548,16h1.89l-.09-3.636.018-1.242L5.04,11.1l2.052.054.144-1.4L7.11,9.592,5.2,9.646,3.384,9.61Zm11.25,5.958.306-.288a7.013,7.013,0,0,0,.072-.9,2.847,2.847,0,0,0-3.024-3.186C9.63,7.558,8.064,9.2,8.064,11.9c0,2.628,1.44,4.266,3.924,4.266a5.842,5.842,0,0,0,2.52-.612l.216-1.458-.162-.108a4.941,4.941,0,0,1-2.43.756c-1.584,0-2.34-1.026-2.376-2.808Zm-1.3-1.206-3.546.09a2.11,2.11,0,0,1,2.088-2c.9,0,1.494.522,1.494,1.692Zm4.482-1.854L17.64,7.648l-1.692.09L18.414,16h1.98l2.934-8.3h-1.62L21.4,8.962l-1.836,5.274H19.44Zm12.564,3.06.306-.288a7.013,7.013,0,0,0,.072-.9,2.847,2.847,0,0,0-3.024-3.186c-2.412,0-3.978,1.638-3.978,4.338,0,2.628,1.44,4.266,3.924,4.266a5.842,5.842,0,0,0,2.52-.612l.216-1.458-.162-.108a4.941,4.941,0,0,1-2.43.756c-1.584,0-2.34-1.026-2.376-2.808Zm-1.3-1.206-3.546.09a2.11,2.11,0,0,1,2.088-2c.9,0,1.494.522,1.494,1.692Zm7.7-3.042a2.655,2.655,0,0,0-2.268,1.638h-.126l.018-1.656-1.746.162.108,4.7L32.706,16h1.836l-.126-3.636.018-1.188c.63-1.242,1.26-1.746,2-1.746a2.519,2.519,0,0,1,.666.09l.2-.054V7.72A3.506,3.506,0,0,0,36.846,7.684Zm7.7,4.248.306-.288a7.013,7.013,0,0,0,.072-.9A2.847,2.847,0,0,0,41.9,7.558c-2.412,0-3.978,1.638-3.978,4.338,0,2.628,1.44,4.266,3.924,4.266a5.842,5.842,0,0,0,2.52-.612l.216-1.458-.162-.108a4.941,4.941,0,0,1-2.43.756c-1.584,0-2.34-1.026-2.376-2.808Zm-1.3-1.206-3.546.09a2.11,2.11,0,0,1,2.088-2c.9,0,1.494.522,1.494,1.692Zm4.554-6.894a.973.973,0,0,0-1.044,1.044.914.914,0,0,0,.99,1.008.97.97,0,0,0,1.008-1.062A.89.89,0,0,0,47.808,3.832Zm.72,8.532.144-4.7-1.836.162.09,4.7L46.818,16h1.836Zm6.84-4.68A2.655,2.655,0,0,0,53.1,9.322h-.126l.018-1.656-1.746.162.108,4.7L51.228,16h1.836l-.126-3.636.018-1.188c.63-1.242,1.26-1.746,2-1.746a2.519,2.519,0,0,1,.666.09l.2-.054V7.72A3.506,3.506,0,0,0,55.368,7.684Zm4.95-.144c-2.484,0-3.87,1.6-3.87,4.446,0,2.664,1.314,4.176,3.636,4.176,2.484,0,3.87-1.6,3.87-4.446C63.954,9.052,62.64,7.54,60.318,7.54ZM60.21,8.818c1.35,0,2.034,1.044,2.034,3.312,0,1.89-.684,2.772-2.034,2.772-1.368,0-2.052-1.026-2.052-3.312C58.158,9.736,58.842,8.818,60.21,8.818Z" transform="translate(29.25 10098.5) rotate(-90)"/>
    <path id="Caminho_772695" data-name="Caminho 772695" d="M10.224,16,6.5,4.444H4.32L.2,16H2.052l.288-1.386L2.88,13.1l2.214-.054,2.448.054.5,1.6.27,1.3Zm-3.15-4.41-1.854.036L3.4,11.59l1.89-5.328h.126Zm12.4-4.212-.162-.108a19.107,19.107,0,0,1-2.664.63,4.183,4.183,0,0,0-1.656-.306c-2.034,0-3.366,1.08-3.366,2.934a2.479,2.479,0,0,0,1.242,2.3v.09a3.967,3.967,0,0,0-1.152,1.1c0,.846.558,1.26,1.314,1.512v.09a4.619,4.619,0,0,0-1.548,1.458c0,1.386,1.1,2.412,3.186,2.412,2.268,0,3.978-1.224,3.978-2.826,0-2.754-5.292-1.62-5.292-2.9,0-.2.09-.36.378-.594a5.283,5.283,0,0,0,1.1.108c2.106,0,3.4-1.134,3.4-2.9A2.685,2.685,0,0,0,17.892,9l.036-.072a10.235,10.235,0,0,0,1.548-.342ZM14.9,12.112a1.5,1.5,0,0,1-1.656-1.674,1.521,1.521,0,0,1,1.728-1.656,1.447,1.447,0,0,1,1.638,1.6A1.56,1.56,0,0,1,14.9,12.112Zm2.16,4.9c0,.774-.918,1.3-2.178,1.3-1.224,0-1.836-.486-1.836-1.116,0-.5.414-.936,1.152-1.4C15.606,16,17.064,16.054,17.064,17.008ZM23.9,7.54c-2.484,0-3.87,1.6-3.87,4.446,0,2.664,1.314,4.176,3.636,4.176,2.484,0,3.87-1.6,3.87-4.446C27.54,9.052,26.226,7.54,23.9,7.54ZM23.8,8.818c1.35,0,2.034,1.044,2.034,3.312,0,1.89-.684,2.772-2.034,2.772-1.368,0-2.052-1.026-2.052-3.312C21.744,9.736,22.428,8.818,23.8,8.818ZM32,7.558c-1.908,0-3.024,1.08-3.024,2.5,0,2.61,3.726,2.268,3.726,3.8a1.151,1.151,0,0,1-1.278,1.062,3.8,3.8,0,0,1-2.3-.972l-.2.126L28.71,15.6a6.518,6.518,0,0,0,2.52.558c2.07,0,3.114-1.278,3.114-2.61,0-2.538-3.726-2.214-3.726-3.726a1.051,1.051,0,0,1,1.17-.99,3.357,3.357,0,0,1,1.836.63l.234-.054.252-1.44A5.7,5.7,0,0,0,32,7.558Zm7.2,7.056c-.738,0-1.062-.288-1.044-1.188l.09-4.518h2.322l.09-1.044-.072-.126h-2.3l.036-1.782-.162-.144-1.62.612V7.738h-1.1L35.352,8.8l.072.108h1.134l.018,3.51-.072,1.3a2.148,2.148,0,0,0,2.124,2.394,5.2,5.2,0,0,0,1.836-.54l.18-1.152-.18-.126A2.838,2.838,0,0,1,39.2,14.614ZM45.162,7.54c-2.484,0-3.87,1.6-3.87,4.446,0,2.664,1.314,4.176,3.636,4.176,2.484,0,3.87-1.6,3.87-4.446C48.8,9.052,47.484,7.54,45.162,7.54Zm-.108,1.278c1.35,0,2.034,1.044,2.034,3.312,0,1.89-.684,2.772-2.034,2.772C43.686,14.9,43,13.876,43,11.59,43,9.736,43.686,8.818,45.054,8.818Z" transform="translate(29.25 10622.607) rotate(-90)"/>
    <path id="Caminho_772680" data-name="Caminho 772680" d="M13.266,16l-1.1-11.556H10.062l-.54,1.674L7.182,12.31H7.038L4.824,6.172l-.54-1.728H2.16L.954,16H2.52l.288-3.672.54-5.058H3.51l2.754,7.452H7.74L10.71,7.27h.126l.54,5.22L11.61,16Zm5.076-8.46A5.768,5.768,0,0,0,15.1,8.62L15.336,9.9l.144.09a4.1,4.1,0,0,1,2.574-1.152,1.185,1.185,0,0,1,1.3,1.35l-.018.972-2.844.63a1.918,1.918,0,0,0-1.746,2c0,1.44.99,2.34,2.664,2.358a5.271,5.271,0,0,0,1.872-1.35H19.4a1.4,1.4,0,0,0,1.314,1.332,2.933,2.933,0,0,0,1.134-.4l.18-1.008L21.87,14.6a2.753,2.753,0,0,1-.54.072c-.378,0-.522-.144-.522-.612,0-.612.216-3.636.216-4.266C21.024,8.368,19.98,7.54,18.342,7.54Zm.99,4.68-.054,1.386a2.542,2.542,0,0,1-1.8,1.1,1.037,1.037,0,0,1-1.1-1.152.664.664,0,0,1,.612-.774ZM24.8,3.832A.973.973,0,0,0,23.76,4.876a.914.914,0,0,0,.99,1.008.97.97,0,0,0,1.008-1.062A.89.89,0,0,0,24.8,3.832Zm.72,8.532.144-4.7-1.836.162.09,4.7L23.814,16H25.65ZM31.482,7.54c-2.484,0-3.87,1.6-3.87,4.446,0,2.664,1.314,4.176,3.636,4.176,2.484,0,3.87-1.6,3.87-4.446C35.118,9.052,33.8,7.54,31.482,7.54Zm-.108,1.278c1.35,0,2.034,1.044,2.034,3.312,0,1.89-.684,2.772-2.034,2.772-1.368,0-2.052-1.026-2.052-3.312C29.322,9.736,30.006,8.818,31.374,8.818Z" transform="translate(29.25 10349.118) rotate(-90)"/>
    <path id="Caminho_772704" data-name="Caminho 772704" d="M10.71,12.544l.126-8.136L9.09,4.534,9.144,13.1H9L3.564,4.444H1.584l.09,8.136L1.548,16H3.294L3.2,12.13l.018-4.788h.144L8.784,16h2Zm6.12-5c-2.484,0-3.87,1.6-3.87,4.446,0,2.664,1.314,4.176,3.636,4.176,2.484,0,3.87-1.6,3.87-4.446C20.466,9.052,19.152,7.54,16.83,7.54Zm-.108,1.278c1.35,0,2.034,1.044,2.034,3.312,0,1.89-.684,2.772-2.034,2.772-1.368,0-2.052-1.026-2.052-3.312C14.67,9.736,15.354,8.818,16.722,8.818Zm6.408.054L22.9,7.648l-1.692.09L23.67,16h1.98l2.934-8.3h-1.62l-.306,1.26-1.836,5.274H24.7Zm12.564,3.06L36,11.644a7.013,7.013,0,0,0,.072-.9,2.847,2.847,0,0,0-3.024-3.186c-2.412,0-3.978,1.638-3.978,4.338,0,2.628,1.44,4.266,3.924,4.266a5.842,5.842,0,0,0,2.52-.612l.216-1.458-.162-.108a4.941,4.941,0,0,1-2.43.756c-1.584,0-2.34-1.026-2.376-2.808Zm-1.3-1.206-3.546.09a2.11,2.11,0,0,1,2.088-2c.9,0,1.494.522,1.494,1.692ZM48.1,16H49.95l-.09-3.636.054-2.34c.018-1.548-.936-2.43-2.79-2.43a6.528,6.528,0,0,0-2.376,1.35H44.64a2.527,2.527,0,0,0-2.592-1.35,5.977,5.977,0,0,0-2.214,1.278h-.126l.018-1.206-1.746.162.09,4.7L37.962,16H39.78l-.09-3.636.018-2.2a3.229,3.229,0,0,1,2.16-1.08c.864,0,1.3.558,1.278,1.458L43.02,16h1.836l-.072-3.636.036-2.232a3.174,3.174,0,0,1,2.124-1.044c.864,0,1.3.558,1.278,1.458Zm8.37-8.388a5.892,5.892,0,0,0-2.16,1.242H54.2l.072-5.49-1.836.144.108,9.036-.126,3.492.288.18,1.134-.468a4.466,4.466,0,0,0,1.836.414c2.484,0,4.014-1.62,4.014-4.572C59.688,9.106,58.59,7.612,56.466,7.612Zm-.72,7.29a3.037,3.037,0,0,1-1.548-.486l-.054-2.088.036-2.16a2.8,2.8,0,0,1,1.98-1.08c1.17,0,1.782,1.008,1.818,2.754C58,13.948,57.1,14.9,55.746,14.9ZM65.772,7.684A2.655,2.655,0,0,0,63.5,9.322h-.126L63.4,7.666l-1.746.162.108,4.7L61.632,16h1.836l-.126-3.636.018-1.188c.63-1.242,1.26-1.746,2-1.746a2.519,2.519,0,0,1,.666.09l.2-.054V7.72A3.507,3.507,0,0,0,65.772,7.684Zm4.95-.144c-2.484,0-3.87,1.6-3.87,4.446,0,2.664,1.314,4.176,3.636,4.176,2.484,0,3.87-1.6,3.87-4.446C74.358,9.052,73.044,7.54,70.722,7.54Zm-.108,1.278c1.35,0,2.034,1.044,2.034,3.312,0,1.89-.684,2.772-2.034,2.772-1.368,0-2.052-1.026-2.052-3.312C68.562,9.736,69.246,8.818,70.614,8.818Z" transform="translate(29.25 10902.76) rotate(-90)"/>
    <path id="Caminho_772672" data-name="Caminho 772672" d="M13.266,16l-1.1-11.556H10.062l-.54,1.674L7.182,12.31H7.038L4.824,6.172l-.54-1.728H2.16L.954,16H2.52l.288-3.672.54-5.058H3.51l2.754,7.452H7.74L10.71,7.27h.126l.54,5.22L11.61,16Zm5.076-8.46A5.768,5.768,0,0,0,15.1,8.62L15.336,9.9l.144.09a4.1,4.1,0,0,1,2.574-1.152,1.185,1.185,0,0,1,1.3,1.35l-.018.972-2.844.63a1.918,1.918,0,0,0-1.746,2c0,1.44.99,2.34,2.664,2.358a5.271,5.271,0,0,0,1.872-1.35H19.4a1.4,1.4,0,0,0,1.314,1.332,2.933,2.933,0,0,0,1.134-.4l.18-1.008L21.87,14.6a2.753,2.753,0,0,1-.54.072c-.378,0-.522-.144-.522-.612,0-.612.216-3.636.216-4.266C21.024,8.368,19.98,7.54,18.342,7.54Zm.99,4.68-.054,1.386a2.542,2.542,0,0,1-1.8,1.1,1.037,1.037,0,0,1-1.1-1.152.664.664,0,0,1,.612-.774Zm8.622-4.536a2.655,2.655,0,0,0-2.268,1.638H25.56l.018-1.656-1.746.162.108,4.7L23.814,16H25.65l-.126-3.636.018-1.188c.63-1.242,1.26-1.746,2-1.746a2.519,2.519,0,0,1,.666.09l.2-.054V7.72A3.506,3.506,0,0,0,27.954,7.684ZM32.9,14.7c-1.368,0-2.142-1.08-2.142-2.916,0-1.746.756-2.736,2.034-2.736a3.513,3.513,0,0,1,1.764.558l.18-.072.306-1.53a5.4,5.4,0,0,0-2.214-.468c-2.376,0-3.8,1.674-3.8,4.392,0,2.358,1.062,3.888,2.916,4.176l-.306,1.206.882.522c.2.09.342.2.342.4,0,.288-.216.45-.522.45a1.416,1.416,0,0,1-1.026-.558l-.09.036-.162.846a2.035,2.035,0,0,0,1.386.54c.936,0,1.566-.522,1.566-1.26a1.1,1.1,0,0,0-.72-1.026l-.612-.36.216-.738a6.681,6.681,0,0,0,1.908-.414l.2-1.476-.18-.108A4.329,4.329,0,0,1,32.9,14.7ZM39.816,7.54c-2.484,0-3.87,1.6-3.87,4.446,0,2.664,1.314,4.176,3.636,4.176,2.484,0,3.87-1.6,3.87-4.446C43.452,9.052,42.138,7.54,39.816,7.54Zm-.108,1.278c1.35,0,2.034,1.044,2.034,3.312,0,1.89-.684,2.772-2.034,2.772-1.368,0-2.052-1.026-2.052-3.312C37.656,9.736,38.34,8.818,39.708,8.818Z" transform="translate(29.25 10177.25) rotate(-90)"/>
    <path id="Caminho_772696" data-name="Caminho 772696" d="M4.932,4.318c-2.358,0-3.96,1.476-3.96,3.366,0,3.384,5.184,3.078,5.184,5.328A1.831,1.831,0,0,1,4.1,14.686a4.53,4.53,0,0,1-2.952-1.26l-.234.108L.684,15.37a7.571,7.571,0,0,0,3.24.774c2.448,0,4.068-1.548,4.068-3.42,0-3.366-5.2-3.168-5.2-5.292a1.748,1.748,0,0,1,1.926-1.62,4.173,4.173,0,0,1,2.358.882l.288-.108.306-1.692A7.1,7.1,0,0,0,4.932,4.318Zm10.71,7.614.306-.288a7.013,7.013,0,0,0,.072-.9A2.847,2.847,0,0,0,13,7.558c-2.412,0-3.978,1.638-3.978,4.338,0,2.628,1.44,4.266,3.924,4.266a5.842,5.842,0,0,0,2.52-.612l.216-1.458-.162-.108a4.941,4.941,0,0,1-2.43.756c-1.584,0-2.34-1.026-2.376-2.808Zm-1.3-1.206-3.546.09a2.11,2.11,0,0,1,2.088-2c.9,0,1.494.522,1.494,1.692Zm6.5,3.888c-.738,0-1.062-.288-1.044-1.188l.09-4.518h2.322l.09-1.044-.072-.126h-2.3l.036-1.782L19.8,5.812l-1.62.612V7.738h-1.1L16.992,8.8l.072.108H18.2l.018,3.51-.072,1.3a2.148,2.148,0,0,0,2.124,2.394,5.2,5.2,0,0,0,1.836-.54l.18-1.152-.18-.126A2.838,2.838,0,0,1,20.844,14.614Zm8.712-2.682.306-.288a7.013,7.013,0,0,0,.072-.9A2.847,2.847,0,0,0,26.91,7.558c-2.412,0-3.978,1.638-3.978,4.338,0,2.628,1.44,4.266,3.924,4.266a5.842,5.842,0,0,0,2.52-.612l.216-1.458-.162-.108A4.941,4.941,0,0,1,27,14.74c-1.584,0-2.34-1.026-2.376-2.808Zm-1.3-1.206-3.546.09a2.11,2.11,0,0,1,2.088-2c.9,0,1.494.522,1.494,1.692ZM41.958,16h1.854l-.09-3.636.054-2.34c.018-1.548-.936-2.43-2.79-2.43a6.528,6.528,0,0,0-2.376,1.35H38.5a2.527,2.527,0,0,0-2.592-1.35A5.977,5.977,0,0,0,33.7,8.872H33.57l.018-1.206-1.746.162.09,4.7L31.824,16h1.818l-.09-3.636.018-2.2a3.229,3.229,0,0,1,2.16-1.08c.864,0,1.3.558,1.278,1.458L36.882,16h1.836l-.072-3.636.036-2.232a3.174,3.174,0,0,1,2.124-1.044c.864,0,1.3.558,1.278,1.458Zm8.37-8.388a5.892,5.892,0,0,0-2.16,1.242H48.06l.072-5.49L46.3,3.508l.108,9.036-.126,3.492.288.18,1.134-.468a4.466,4.466,0,0,0,1.836.414c2.484,0,4.014-1.62,4.014-4.572C53.55,9.106,52.452,7.612,50.328,7.612Zm-.72,7.29a3.037,3.037,0,0,1-1.548-.486l-.054-2.088.036-2.16a2.8,2.8,0,0,1,1.98-1.08c1.17,0,1.782,1.008,1.818,2.754C51.858,13.948,50.958,14.9,49.608,14.9ZM59.634,7.684a2.655,2.655,0,0,0-2.268,1.638H57.24l.018-1.656-1.746.162.108,4.7L55.494,16H57.33L57.2,12.364l.018-1.188c.63-1.242,1.26-1.746,2-1.746a2.519,2.519,0,0,1,.666.09l.2-.054V7.72A3.506,3.506,0,0,0,59.634,7.684Zm4.95-.144c-2.484,0-3.87,1.6-3.87,4.446,0,2.664,1.314,4.176,3.636,4.176,2.484,0,3.87-1.6,3.87-4.446C68.22,9.052,66.906,7.54,64.584,7.54Zm-.108,1.278c1.35,0,2.034,1.044,2.034,3.312,0,1.89-.684,2.772-2.034,2.772-1.368,0-2.052-1.026-2.052-3.312C62.424,9.736,63.108,8.818,64.476,8.818Z" transform="translate(29.25 10721.189) rotate(-90)"/>
    <path id="Caminho_772687" data-name="Caminho 772687" d="M4.122,12.184l.108-7.74H.216L.108,5.758.27,5.9l2.106-.018.072,6.48v1.494c0,1.3-.63,1.98-2.2,2.79v.2L.9,17.872c2.412-1.062,3.258-2.142,3.258-4.014Zm9.342-4.518-1.746.162v5.85a2.951,2.951,0,0,1-1.962.918c-.846,0-1.26-.54-1.242-1.422L8.6,7.666l-1.818.162.072,3.6-.036,2.25c-.018,1.548.954,2.43,2.772,2.43a5.411,5.411,0,0,0,2.16-1.26H11.9a1.441,1.441,0,0,0,1.332,1.278,2.832,2.832,0,0,0,1.134-.4l.18-1.008-.162-.126a2.6,2.6,0,0,1-.558.072c-.36,0-.486-.144-.486-.594ZM21.2,16h1.854l-.09-3.636.054-2.34c.018-1.548-.936-2.43-2.79-2.43a6.121,6.121,0,0,0-2.214,1.278h-.126l.018-1.206-1.746.162.09,4.7L16.146,16h1.836l-.108-3.636.018-2.2a3.229,3.229,0,0,1,2.16-1.08c.864,0,1.3.558,1.278,1.458Zm9.45,0h1.854l-.09-3.636.054-2.34c.018-1.548-.936-2.43-2.79-2.43a6.121,6.121,0,0,0-2.214,1.278H27.36l.09-5.508-1.836.144.09,9L25.6,16h1.836l-.126-3.654.036-2.178a3.229,3.229,0,0,1,2.16-1.08c.864,0,1.3.558,1.278,1.458ZM38.2,7.54c-2.484,0-3.87,1.6-3.87,4.446,0,2.664,1.314,4.176,3.636,4.176,2.484,0,3.87-1.6,3.87-4.446C41.832,9.052,40.518,7.54,38.2,7.54Zm-.108,1.278c1.35,0,2.034,1.044,2.034,3.312,0,1.89-.684,2.772-2.034,2.772-1.368,0-2.052-1.026-2.052-3.312C36.036,9.736,36.72,8.818,38.088,8.818Z" transform="translate(29.25 10441.65) rotate(-90)"/>
    <path id="Caminho_772711" data-name="Caminho 772711" d="M1.566,4.444H1.548l.126,8.082L1.548,16h.018c1.062.054,3.1.108,3.87.108,3.636,0,5.652-2.232,5.652-6.3,0-3.51-1.836-5.436-5.148-5.436ZM5.76,14.632c-.378,0-1.548-.054-2.358-.126l-.054-2.142.09-6.408c.684-.036,1.98-.072,2.358-.072,2.25,0,3.366,1.35,3.366,4.338C9.162,13.228,7.92,14.632,5.76,14.632Zm13.176-2.7.306-.288a7.013,7.013,0,0,0,.072-.9A2.847,2.847,0,0,0,16.29,7.558c-2.412,0-3.978,1.638-3.978,4.338,0,2.628,1.44,4.266,3.924,4.266a5.842,5.842,0,0,0,2.52-.612l.216-1.458-.162-.108a4.941,4.941,0,0,1-2.43.756c-1.584,0-2.34-1.026-2.376-2.808Zm-1.3-1.206-3.546.09a2.11,2.11,0,0,1,2.088-2c.9,0,1.494.522,1.494,1.692Zm4.7-3.024L20.7,7.666l-.126,1.26.108.144,1.386-.144h2.808l-4.41,6.03.018,1.08L21.456,16h3.456l1.854.036.144-1.26-.108-.144-1.44.144H22.41L26.8,8.782l-.036-1.1-.792.018Zm12.186,4.23.306-.288a7.013,7.013,0,0,0,.072-.9,2.847,2.847,0,0,0-3.024-3.186C29.466,7.558,27.9,9.2,27.9,11.9c0,2.628,1.44,4.266,3.924,4.266a5.842,5.842,0,0,0,2.52-.612l.216-1.458-.162-.108a4.941,4.941,0,0,1-2.43.756c-1.584,0-2.34-1.026-2.376-2.808Zm-1.3-1.206-3.546.09a2.11,2.11,0,0,1,2.088-2c.9,0,1.494.522,1.494,1.692ZM46.926,16H48.78l-.09-3.636.054-2.34c.018-1.548-.936-2.43-2.79-2.43a6.528,6.528,0,0,0-2.376,1.35H43.47a2.527,2.527,0,0,0-2.592-1.35,5.977,5.977,0,0,0-2.214,1.278h-.126l.018-1.206-1.746.162.09,4.7L36.792,16H38.61l-.09-3.636.018-2.2a3.229,3.229,0,0,1,2.16-1.08c.864,0,1.3.558,1.278,1.458L41.85,16h1.836l-.072-3.636.036-2.232a3.174,3.174,0,0,1,2.124-1.044c.864,0,1.3.558,1.278,1.458ZM55.3,7.612a5.892,5.892,0,0,0-2.16,1.242h-.108l.072-5.49-1.836.144.108,9.036-.126,3.492.288.18,1.134-.468a4.466,4.466,0,0,0,1.836.414c2.484,0,4.014-1.62,4.014-4.572C58.518,9.106,57.42,7.612,55.3,7.612Zm-.72,7.29a3.037,3.037,0,0,1-1.548-.486l-.054-2.088.036-2.16a2.8,2.8,0,0,1,1.98-1.08c1.17,0,1.782,1.008,1.818,2.754C56.826,13.948,55.926,14.9,54.576,14.9ZM64.6,7.684a2.655,2.655,0,0,0-2.268,1.638h-.126l.018-1.656-1.746.162.108,4.7L60.462,16H62.3l-.126-3.636.018-1.188c.63-1.242,1.26-1.746,2-1.746a2.519,2.519,0,0,1,.666.09l.2-.054V7.72A3.506,3.506,0,0,0,64.6,7.684Zm4.95-.144c-2.484,0-3.87,1.6-3.87,4.446,0,2.664,1.314,4.176,3.636,4.176,2.484,0,3.87-1.6,3.87-4.446C73.188,9.052,71.874,7.54,69.552,7.54Zm-.108,1.278c1.35,0,2.034,1.044,2.034,3.312,0,1.89-.684,2.772-2.034,2.772-1.368,0-2.052-1.026-2.052-3.312C67.392,9.736,68.076,8.818,69.444,8.818Z" transform="translate(29.25 10991.342) rotate(-90)"/>
    <path id="Caminho_772665" data-name="Caminho 772665" d="M3.528,6.874A4.854,4.854,0,0,0,.5,7.972l.27,1.386h.2a3.494,3.494,0,0,1,2.2-.99A1.249,1.249,0,0,1,4.59,9.628a1.982,1.982,0,0,1-2,1.818l-.792.018-.054,1.26.108.126H2.988c1.332.054,2.034.63,2.034,1.62,0,1.152-.954,1.854-2.43,1.854a4.835,4.835,0,0,1-1.908-.4l-.126.126.09,1.512a12.458,12.458,0,0,0,1.854.162c2.556,0,4.266-1.368,4.266-3.4A2.394,2.394,0,0,0,4.68,11.95v-.072A3.028,3.028,0,0,0,6.444,9.232C6.444,7.828,5.274,6.874,3.528,6.874Zm8.892-.018c-2.592,0-4.086,1.746-4.086,4.788,0,2.862,1.4,4.5,3.852,4.5,2.592,0,4.05-1.728,4.05-4.752C16.236,8.494,14.85,6.856,12.42,6.856Zm-.144,1.692c1.656,0,2.538,1.008,2.538,3.06,0,1.944-.864,2.916-2.52,2.916-1.692,0-2.52-1.008-2.52-3.006S10.6,8.548,12.276,8.548Z" transform="translate(74.106 9963.75)"/>
    <path id="Caminho_772689" data-name="Caminho 772689" d="M4.23,6.892A5.487,5.487,0,0,0,.9,8.188L1.206,9.61h.2a3.579,3.579,0,0,1,2.43-1.152c.792,0,1.224.414,1.224.972,0,.7-.63,1.548-1.8,2.808L.792,14.83v1.134l.09.072L1.548,16H5.616l1.98.09.234-1.512L7.7,14.452,6.138,14.6H3.2l-.036-.09,1.6-1.818c1.44-1.62,2.088-2.736,2.088-3.708C6.858,7.7,5.742,6.892,4.23,6.892Zm8.946-.036c-2.592,0-4.086,1.746-4.086,4.788,0,2.862,1.4,4.5,3.852,4.5,2.592,0,4.05-1.728,4.05-4.752C16.992,8.494,15.606,6.856,13.176,6.856Zm-.144,1.692c1.656,0,2.538,1.008,2.538,3.06,0,1.944-.864,2.916-2.52,2.916-1.692,0-2.52-1.008-2.52-3.006S11.358,8.548,13.032,8.548Z" transform="translate(74.106 10497.25)"/>
    <path id="Caminho_772678" data-name="Caminho 772678" d="M8.19,14.812l.09-1.3-.108-.162H6.552l.054-6.372H4.914L.432,13.462V14.65l.126.162,1.35-.036H5.076L5.022,17.62l.108.126,1.4-.108.108-.144L6.57,14.776ZM2.034,13.354,4.95,9.124h.144v4.23ZM15.768,7.018l-.108-.126-1.764.09h-2.5l-.99-.054-.252.252-.09,4.86.144.162,1.6.306c1.512.27,2.106.828,2.106,1.782,0,1.206-.936,2.034-2.43,2.034a4.99,4.99,0,0,1-2.052-.45l-.144.144.126,1.548a10.218,10.218,0,0,0,1.818.2c2.592,0,4.41-1.53,4.41-3.762,0-1.422-.756-2.376-3.024-2.844L11.5,10.924l.054-2.466h2.412l1.476.126.126-.126Z" transform="translate(74.106 10230.75)"/>
    <path id="Caminho_772702" data-name="Caminho 772702" d="M8.19,14.812l.09-1.3-.108-.162H6.552l.054-6.372H4.914L.432,13.462V14.65l.126.162,1.35-.036H5.076L5.022,17.62l.108.126,1.4-.108.108-.144L6.57,14.776ZM2.034,13.354,4.95,9.124h.144v4.23Zm11.646-6.5c-2.592,0-4.086,1.746-4.086,4.788,0,2.862,1.4,4.5,3.852,4.5,2.592,0,4.05-1.728,4.05-4.752C17.5,8.494,16.11,6.856,13.68,6.856Zm-.144,1.692c1.656,0,2.538,1.008,2.538,3.06,0,1.944-.864,2.916-2.52,2.916-1.692,0-2.52-1.008-2.52-3.006S11.862,8.548,13.536,8.548Z" transform="translate(74.106 10764.25)"/>
    <path id="Caminho_772670" data-name="Caminho 772670" d="M8.19,14.812l.09-1.3-.108-.162H6.552l.054-6.372H4.914L.432,13.462V14.65l.126.162,1.35-.036H5.076L5.022,17.62l.108.126,1.4-.108.108-.144L6.57,14.776ZM2.034,13.354,4.95,9.124h.144v4.23Zm11.646-6.5c-2.592,0-4.086,1.746-4.086,4.788,0,2.862,1.4,4.5,3.852,4.5,2.592,0,4.05-1.728,4.05-4.752C17.5,8.494,16.11,6.856,13.68,6.856Zm-.144,1.692c1.656,0,2.538,1.008,2.538,3.06,0,1.944-.864,2.916-2.52,2.916-1.692,0-2.52-1.008-2.52-3.006S11.862,8.548,13.536,8.548Z" transform="translate(74.106 10052.75)"/>
    <path id="Caminho_772694" data-name="Caminho 772694" d="M6.948,7.018,6.84,6.892l-1.764.09h-2.5l-.99-.054-.252.252-.09,4.86.144.162,1.6.306c1.512.27,2.106.828,2.106,1.782,0,1.206-.936,2.034-2.43,2.034a4.99,4.99,0,0,1-2.052-.45l-.144.144.126,1.548a10.218,10.218,0,0,0,1.818.2c2.592,0,4.41-1.53,4.41-3.762,0-1.422-.756-2.376-3.024-2.844l-1.116-.234.054-2.466H5.148l1.476.126.126-.126Zm5.526-.162c-2.592,0-4.086,1.746-4.086,4.788,0,2.862,1.4,4.5,3.852,4.5,2.592,0,4.05-1.728,4.05-4.752C16.29,8.494,14.9,6.856,12.474,6.856ZM12.33,8.548c1.656,0,2.538,1.008,2.538,3.06,0,1.944-.864,2.916-2.52,2.916-1.692,0-2.52-1.008-2.52-3.006S10.656,8.548,12.33,8.548Z" transform="translate(74.106 10586.25)"/>
    <path id="Caminho_772681" data-name="Caminho 772681" d="M6.948,7.018,6.84,6.892l-1.764.09h-2.5l-.99-.054-.252.252-.09,4.86.144.162,1.6.306c1.512.27,2.106.828,2.106,1.782,0,1.206-.936,2.034-2.43,2.034a4.99,4.99,0,0,1-2.052-.45l-.144.144.126,1.548a10.218,10.218,0,0,0,1.818.2c2.592,0,4.41-1.53,4.41-3.762,0-1.422-.756-2.376-3.024-2.844l-1.116-.234.054-2.466H5.148l1.476.126.126-.126Zm5.526-.162c-2.592,0-4.086,1.746-4.086,4.788,0,2.862,1.4,4.5,3.852,4.5,2.592,0,4.05-1.728,4.05-4.752C16.29,8.494,14.9,6.856,12.474,6.856ZM12.33,8.548c1.656,0,2.538,1.008,2.538,3.06,0,1.944-.864,2.916-2.52,2.916-1.692,0-2.52-1.008-2.52-3.006S10.656,8.548,12.33,8.548Z" transform="translate(74.106 10319.75)"/>
    <path id="Caminho_772705" data-name="Caminho 772705" d="M3.528,6.874A4.854,4.854,0,0,0,.5,7.972l.27,1.386h.2a3.494,3.494,0,0,1,2.2-.99A1.249,1.249,0,0,1,4.59,9.628a1.982,1.982,0,0,1-2,1.818l-.792.018-.054,1.26.108.126H2.988c1.332.054,2.034.63,2.034,1.62,0,1.152-.954,1.854-2.43,1.854a4.835,4.835,0,0,1-1.908-.4l-.126.126.09,1.512a12.458,12.458,0,0,0,1.854.162c2.556,0,4.266-1.368,4.266-3.4A2.394,2.394,0,0,0,4.68,11.95v-.072A3.028,3.028,0,0,0,6.444,9.232C6.444,7.828,5.274,6.874,3.528,6.874Zm10.98.144L14.4,6.892l-1.764.09h-2.5l-.99-.054-.252.252L8.8,12.04l.144.162,1.6.306c1.512.27,2.106.828,2.106,1.782,0,1.206-.936,2.034-2.43,2.034a4.99,4.99,0,0,1-2.052-.45l-.144.144.126,1.548a10.218,10.218,0,0,0,1.818.2c2.592,0,4.41-1.53,4.41-3.762,0-1.422-.756-2.376-3.024-2.844l-1.116-.234L10.3,8.458h2.412l1.476.126.126-.126Z" transform="translate(74.106 10853.25)"/>
    <path id="Caminho_772673" data-name="Caminho 772673" d="M6.948,7.018,6.84,6.892l-1.764.09h-2.5l-.99-.054-.252.252-.09,4.86.144.162,1.6.306c1.512.27,2.106.828,2.106,1.782,0,1.206-.936,2.034-2.43,2.034a4.99,4.99,0,0,1-2.052-.45l-.144.144.126,1.548a10.218,10.218,0,0,0,1.818.2c2.592,0,4.41-1.53,4.41-3.762,0-1.422-.756-2.376-3.024-2.844l-1.116-.234.054-2.466H5.148l1.476.126.126-.126Zm5.526-.162c-2.592,0-4.086,1.746-4.086,4.788,0,2.862,1.4,4.5,3.852,4.5,2.592,0,4.05-1.728,4.05-4.752C16.29,8.494,14.9,6.856,12.474,6.856ZM12.33,8.548c1.656,0,2.538,1.008,2.538,3.06,0,1.944-.864,2.916-2.52,2.916-1.692,0-2.52-1.008-2.52-3.006S10.656,8.548,12.33,8.548Z" transform="translate(74.106 10141.75)"/>
    <path id="Caminho_772697" data-name="Caminho 772697" d="M8.19,14.812l.09-1.3-.108-.162H6.552l.054-6.372H4.914L.432,13.462V14.65l.126.162,1.35-.036H5.076L5.022,17.62l.108.126,1.4-.108.108-.144L6.57,14.776ZM2.034,13.354,4.95,9.124h.144v4.23ZM15.768,7.018l-.108-.126-1.764.09h-2.5l-.99-.054-.252.252-.09,4.86.144.162,1.6.306c1.512.27,2.106.828,2.106,1.782,0,1.206-.936,2.034-2.43,2.034a4.99,4.99,0,0,1-2.052-.45l-.144.144.126,1.548a10.218,10.218,0,0,0,1.818.2c2.592,0,4.41-1.53,4.41-3.762,0-1.422-.756-2.376-3.024-2.844L11.5,10.924l.054-2.466h2.412l1.476.126.126-.126Z" transform="translate(74.106 10675.25)"/>
    <path id="Caminho_772686" data-name="Caminho 772686" d="M3.528,6.874A4.854,4.854,0,0,0,.5,7.972l.27,1.386h.2a3.494,3.494,0,0,1,2.2-.99A1.249,1.249,0,0,1,4.59,9.628a1.982,1.982,0,0,1-2,1.818l-.792.018-.054,1.26.108.126H2.988c1.332.054,2.034.63,2.034,1.62,0,1.152-.954,1.854-2.43,1.854a4.835,4.835,0,0,1-1.908-.4l-.126.126.09,1.512a12.458,12.458,0,0,0,1.854.162c2.556,0,4.266-1.368,4.266-3.4A2.394,2.394,0,0,0,4.68,11.95v-.072A3.028,3.028,0,0,0,6.444,9.232C6.444,7.828,5.274,6.874,3.528,6.874Z" transform="translate(74.106 10408.75)"/>
    <path id="Caminho_772710" data-name="Caminho 772710" d="M6.948,7.018,6.84,6.892l-1.764.09h-2.5l-.99-.054-.252.252-.09,4.86.144.162,1.6.306c1.512.27,2.106.828,2.106,1.782,0,1.206-.936,2.034-2.43,2.034a4.99,4.99,0,0,1-2.052-.45l-.144.144.126,1.548a10.218,10.218,0,0,0,1.818.2c2.592,0,4.41-1.53,4.41-3.762,0-1.422-.756-2.376-3.024-2.844l-1.116-.234.054-2.466H5.148l1.476.126.126-.126Zm5.526-.162c-2.592,0-4.086,1.746-4.086,4.788,0,2.862,1.4,4.5,3.852,4.5,2.592,0,4.05-1.728,4.05-4.752C16.29,8.494,14.9,6.856,12.474,6.856ZM12.33,8.548c1.656,0,2.538,1.008,2.538,3.06,0,1.944-.864,2.916-2.52,2.916-1.692,0-2.52-1.008-2.52-3.006S10.656,8.548,12.33,8.548Z" transform="translate(74.106 10942.25)"/>
    <path id="Caminho_772666" data-name="Caminho 772666" d="M6.948,7.018,6.84,6.892l-1.764.09h-2.5l-.99-.054-.252.252-.09,4.86.144.162,1.6.306c1.512.27,2.106.828,2.106,1.782,0,1.206-.936,2.034-2.43,2.034a4.99,4.99,0,0,1-2.052-.45l-.144.144.126,1.548a10.218,10.218,0,0,0,1.818.2c2.592,0,4.41-1.53,4.41-3.762,0-1.422-.756-2.376-3.024-2.844l-1.116-.234.054-2.466H5.148l1.476.126.126-.126Zm5.526-.162c-2.592,0-4.086,1.746-4.086,4.788,0,2.862,1.4,4.5,3.852,4.5,2.592,0,4.05-1.728,4.05-4.752C16.29,8.494,14.9,6.856,12.474,6.856ZM12.33,8.548c1.656,0,2.538,1.008,2.538,3.06,0,1.944-.864,2.916-2.52,2.916-1.692,0-2.52-1.008-2.52-3.006S10.656,8.548,12.33,8.548Z" transform="translate(167.106 9963.75)"/>
    <path id="Caminho_772690" data-name="Caminho 772690" d="M4.32,7.09l-.27-.2L.18,8.026V9.484l.162.108,2.2-.612.018,3.492L2.448,16H4.3l-.09-3.726Zm6.858-.234c-2.592,0-4.086,1.746-4.086,4.788,0,2.862,1.4,4.5,3.852,4.5,2.592,0,4.05-1.728,4.05-4.752C14.994,8.494,13.608,6.856,11.178,6.856Zm-.144,1.692c1.656,0,2.538,1.008,2.538,3.06,0,1.944-.864,2.916-2.52,2.916-1.692,0-2.52-1.008-2.52-3.006S9.36,8.548,11.034,8.548Zm9.594-1.692c-2.592,0-4.086,1.746-4.086,4.788,0,2.862,1.4,4.5,3.852,4.5,2.592,0,4.05-1.728,4.05-4.752C24.444,8.494,23.058,6.856,20.628,6.856Zm-.144,1.692c1.656,0,2.538,1.008,2.538,3.06,0,1.944-.864,2.916-2.52,2.916-1.692,0-2.52-1.008-2.52-3.006S18.81,8.548,20.484,8.548Z" transform="translate(167.106 10497.25)"/>
    <path id="Caminho_772677" data-name="Caminho 772677" d="M2.25,6.982.468,6.91.342,8.476l.108.18,1.494-.162H5.4L1.386,17.116l.108.306,1.476.4.882-2.358L7.128,8.3,7.11,6.946l-.81.036Zm10.242-.126C9.9,6.856,8.406,8.6,8.406,11.644c0,2.862,1.4,4.5,3.852,4.5,2.592,0,4.05-1.728,4.05-4.752C16.308,8.494,14.922,6.856,12.492,6.856Zm-.144,1.692c1.656,0,2.538,1.008,2.538,3.06,0,1.944-.864,2.916-2.52,2.916-1.692,0-2.52-1.008-2.52-3.006S10.674,8.548,12.348,8.548Z" transform="translate(167.106 10230.75)"/>
    <path id="Caminho_772701" data-name="Caminho 772701" d="M4.5,5.326c-1.944,0-3.294,1.062-3.294,2.844a2.678,2.678,0,0,0,1.638,2.484v.09A2.983,2.983,0,0,0,.81,13.426C.81,15.01,2,16.144,4.1,16.144c2.2,0,3.654-1.17,3.654-3.042a2.821,2.821,0,0,0-1.98-2.592v-.09A2.937,2.937,0,0,0,7.434,7.882C7.434,6.3,6.336,5.326,4.5,5.326Zm-.09,1.3a1.4,1.4,0,0,1,1.584,1.44c0,1.008-.72,1.494-1.53,1.872-.918-.36-1.746-.792-1.746-1.818C2.718,7.2,3.348,6.622,4.41,6.622Zm-.27,4.662c1.062.432,2.088.828,2.088,1.944,0,.936-.72,1.638-1.962,1.638-1.188,0-1.908-.666-1.908-1.656C2.358,12.094,3.2,11.626,4.14,11.284Zm9.4-4.428c-2.592,0-4.086,1.746-4.086,4.788,0,2.862,1.4,4.5,3.852,4.5,2.592,0,4.05-1.728,4.05-4.752C17.352,8.494,15.966,6.856,13.536,6.856Zm-.144,1.692c1.656,0,2.538,1.008,2.538,3.06,0,1.944-.864,2.916-2.52,2.916-1.692,0-2.52-1.008-2.52-3.006S11.718,8.548,13.392,8.548Z" transform="translate(167.106 10764.25)"/>
    <path id="Caminho_772669" data-name="Caminho 772669" d="M4.932,9.628a3.719,3.719,0,0,0-2.124.666l-.126-.144C3.258,8.44,4.752,7.27,7.488,6.3v-.18L6.12,5.29H6.012C2.664,6.676.738,9.16.738,12.184c0,2.484,1.17,3.978,3.474,3.978a3.347,3.347,0,0,0,3.636-3.456A2.812,2.812,0,0,0,4.932,9.628ZM4.338,14.92c-1.386,0-1.944-.936-1.944-2.772l.018-.432a3.279,3.279,0,0,1,2-.774c1.152,0,1.8.72,1.8,2.016A1.749,1.749,0,0,1,4.338,14.92ZM13.41,6.856c-2.592,0-4.086,1.746-4.086,4.788,0,2.862,1.4,4.5,3.852,4.5,2.592,0,4.05-1.728,4.05-4.752C17.226,8.494,15.84,6.856,13.41,6.856Zm-.144,1.692c1.656,0,2.538,1.008,2.538,3.06,0,1.944-.864,2.916-2.52,2.916-1.692,0-2.52-1.008-2.52-3.006S11.592,8.548,13.266,8.548Z" transform="translate(167.106 10052.75)"/>
    <path id="Caminho_772693" data-name="Caminho 772693" d="M4.32,7.09l-.27-.2L.18,8.026V9.484l.162.108,2.2-.612.018,3.492L2.448,16H4.3l-.09-3.726Zm6.228-.2a5.487,5.487,0,0,0-3.33,1.3L7.524,9.61h.2a3.579,3.579,0,0,1,2.43-1.152c.792,0,1.224.414,1.224.972,0,.7-.63,1.548-1.8,2.808L7.11,14.83v1.134l.09.072L7.866,16h4.068l1.98.09.234-1.512-.126-.126-1.566.144H9.522l-.036-.09,1.6-1.818c1.44-1.62,2.088-2.736,2.088-3.708C13.176,7.7,12.06,6.892,10.548,6.892Zm8.946-.036c-2.592,0-4.086,1.746-4.086,4.788,0,2.862,1.4,4.5,3.852,4.5,2.592,0,4.05-1.728,4.05-4.752C23.31,8.494,21.924,6.856,19.494,6.856ZM19.35,8.548c1.656,0,2.538,1.008,2.538,3.06,0,1.944-.864,2.916-2.52,2.916-1.692,0-2.52-1.008-2.52-3.006S17.676,8.548,19.35,8.548Z" transform="translate(167.106 10586.25)"/>
    <path id="Caminho_772682" data-name="Caminho 772682" d="M4.5,5.326c-1.944,0-3.294,1.062-3.294,2.844a2.678,2.678,0,0,0,1.638,2.484v.09A2.983,2.983,0,0,0,.81,13.426C.81,15.01,2,16.144,4.1,16.144c2.2,0,3.654-1.17,3.654-3.042a2.821,2.821,0,0,0-1.98-2.592v-.09A2.937,2.937,0,0,0,7.434,7.882C7.434,6.3,6.336,5.326,4.5,5.326Zm-.09,1.3a1.4,1.4,0,0,1,1.584,1.44c0,1.008-.72,1.494-1.53,1.872-.918-.36-1.746-.792-1.746-1.818C2.718,7.2,3.348,6.622,4.41,6.622Zm-.27,4.662c1.062.432,2.088.828,2.088,1.944,0,.936-.72,1.638-1.962,1.638-1.188,0-1.908-.666-1.908-1.656C2.358,12.094,3.2,11.626,4.14,11.284Zm9.4-4.428c-2.592,0-4.086,1.746-4.086,4.788,0,2.862,1.4,4.5,3.852,4.5,2.592,0,4.05-1.728,4.05-4.752C17.352,8.494,15.966,6.856,13.536,6.856Zm-.144,1.692c1.656,0,2.538,1.008,2.538,3.06,0,1.944-.864,2.916-2.52,2.916-1.692,0-2.52-1.008-2.52-3.006S11.718,8.548,13.392,8.548Z" transform="translate(167.106 10319.75)"/>
    <path id="Caminho_772706" data-name="Caminho 772706" d="M2.25,6.982.468,6.91.342,8.476l.108.18,1.494-.162H5.4L1.386,17.116l.108.306,1.476.4.882-2.358L7.128,8.3,7.11,6.946l-.81.036Zm10.242-.126C9.9,6.856,8.406,8.6,8.406,11.644c0,2.862,1.4,4.5,3.852,4.5,2.592,0,4.05-1.728,4.05-4.752C16.308,8.494,14.922,6.856,12.492,6.856Zm-.144,1.692c1.656,0,2.538,1.008,2.538,3.06,0,1.944-.864,2.916-2.52,2.916-1.692,0-2.52-1.008-2.52-3.006S10.674,8.548,12.348,8.548Z" transform="translate(167.106 10853.25)"/>
    <path id="Caminho_772674" data-name="Caminho 772674" d="M4.5,5.326c-1.944,0-3.294,1.062-3.294,2.844a2.678,2.678,0,0,0,1.638,2.484v.09A2.983,2.983,0,0,0,.81,13.426C.81,15.01,2,16.144,4.1,16.144c2.2,0,3.654-1.17,3.654-3.042a2.821,2.821,0,0,0-1.98-2.592v-.09A2.937,2.937,0,0,0,7.434,7.882C7.434,6.3,6.336,5.326,4.5,5.326Zm-.09,1.3a1.4,1.4,0,0,1,1.584,1.44c0,1.008-.72,1.494-1.53,1.872-.918-.36-1.746-.792-1.746-1.818C2.718,7.2,3.348,6.622,4.41,6.622Zm-.27,4.662c1.062.432,2.088.828,2.088,1.944,0,.936-.72,1.638-1.962,1.638-1.188,0-1.908-.666-1.908-1.656C2.358,12.094,3.2,11.626,4.14,11.284Zm9.4-4.428c-2.592,0-4.086,1.746-4.086,4.788,0,2.862,1.4,4.5,3.852,4.5,2.592,0,4.05-1.728,4.05-4.752C17.352,8.494,15.966,6.856,13.536,6.856Zm-.144,1.692c1.656,0,2.538,1.008,2.538,3.06,0,1.944-.864,2.916-2.52,2.916-1.692,0-2.52-1.008-2.52-3.006S11.718,8.548,13.392,8.548Z" transform="translate(167.106 10141.75)"/>
    <path id="Caminho_772698" data-name="Caminho 772698" d="M4.338,6.8A3.347,3.347,0,0,0,.7,10.258a2.812,2.812,0,0,0,2.916,3.078,3.719,3.719,0,0,0,2.124-.666l.126.144c-.576,1.71-2.07,2.88-4.806,3.852v.18l1.368.828h.108c3.348-1.386,5.274-3.87,5.274-6.894C7.812,8.3,6.642,6.8,4.338,6.8Zm-.2,5.22c-1.152,0-1.8-.72-1.8-2.016A1.749,1.749,0,0,1,4.212,8.044c1.386,0,1.944.936,1.944,2.772l-.018.432A3.279,3.279,0,0,1,4.14,12.022Zm9.27-5.166c-2.592,0-4.086,1.746-4.086,4.788,0,2.862,1.4,4.5,3.852,4.5,2.592,0,4.05-1.728,4.05-4.752C17.226,8.494,15.84,6.856,13.41,6.856Zm-.144,1.692c1.656,0,2.538,1.008,2.538,3.06,0,1.944-.864,2.916-2.52,2.916-1.692,0-2.52-1.008-2.52-3.006S11.592,8.548,13.266,8.548Z" transform="translate(167.106 10675.25)"/>
    <path id="Caminho_772685" data-name="Caminho 772685" d="M4.338,6.8A3.347,3.347,0,0,0,.7,10.258a2.812,2.812,0,0,0,2.916,3.078,3.719,3.719,0,0,0,2.124-.666l.126.144c-.576,1.71-2.07,2.88-4.806,3.852v.18l1.368.828h.108c3.348-1.386,5.274-3.87,5.274-6.894C7.812,8.3,6.642,6.8,4.338,6.8Zm-.2,5.22c-1.152,0-1.8-.72-1.8-2.016A1.749,1.749,0,0,1,4.212,8.044c1.386,0,1.944.936,1.944,2.772l-.018.432A3.279,3.279,0,0,1,4.14,12.022Zm9.27-5.166c-2.592,0-4.086,1.746-4.086,4.788,0,2.862,1.4,4.5,3.852,4.5,2.592,0,4.05-1.728,4.05-4.752C17.226,8.494,15.84,6.856,13.41,6.856Zm-.144,1.692c1.656,0,2.538,1.008,2.538,3.06,0,1.944-.864,2.916-2.52,2.916-1.692,0-2.52-1.008-2.52-3.006S11.592,8.548,13.266,8.548Z" transform="translate(167.106 10408.75)"/>
    <path id="Caminho_772709" data-name="Caminho 772709" d="M4.32,7.09l-.27-.2L.18,8.026V9.484l.162.108,2.2-.612.018,3.492L2.448,16H4.3l-.09-3.726Zm6.858-.234c-2.592,0-4.086,1.746-4.086,4.788,0,2.862,1.4,4.5,3.852,4.5,2.592,0,4.05-1.728,4.05-4.752C14.994,8.494,13.608,6.856,11.178,6.856Zm-.144,1.692c1.656,0,2.538,1.008,2.538,3.06,0,1.944-.864,2.916-2.52,2.916-1.692,0-2.52-1.008-2.52-3.006S9.36,8.548,11.034,8.548Zm9.594-1.692c-2.592,0-4.086,1.746-4.086,4.788,0,2.862,1.4,4.5,3.852,4.5,2.592,0,4.05-1.728,4.05-4.752C24.444,8.494,23.058,6.856,20.628,6.856Zm-.144,1.692c1.656,0,2.538,1.008,2.538,3.06,0,1.944-.864,2.916-2.52,2.916-1.692,0-2.52-1.008-2.52-3.006S18.81,8.548,20.484,8.548Z" transform="translate(167.106 10942.25)"/>
    <path id="Caminho_772667" data-name="Caminho 772667" d="M3.528,6.874A4.854,4.854,0,0,0,.5,7.972l.27,1.386h.2a3.494,3.494,0,0,1,2.2-.99A1.249,1.249,0,0,1,4.59,9.628a1.982,1.982,0,0,1-2,1.818l-.792.018-.054,1.26.108.126H2.988c1.332.054,2.034.63,2.034,1.62,0,1.152-.954,1.854-2.43,1.854a4.835,4.835,0,0,1-1.908-.4l-.126.126.09,1.512a12.458,12.458,0,0,0,1.854.162c2.556,0,4.266-1.368,4.266-3.4A2.394,2.394,0,0,0,4.68,11.95v-.072A3.028,3.028,0,0,0,6.444,9.232C6.444,7.828,5.274,6.874,3.528,6.874Zm8.892-.018c-2.592,0-4.086,1.746-4.086,4.788,0,2.862,1.4,4.5,3.852,4.5,2.592,0,4.05-1.728,4.05-4.752C16.236,8.494,14.85,6.856,12.42,6.856Zm-.144,1.692c1.656,0,2.538,1.008,2.538,3.06,0,1.944-.864,2.916-2.52,2.916-1.692,0-2.52-1.008-2.52-3.006S10.6,8.548,12.276,8.548Z" transform="translate(258.106 9963.75)"/>
    <path id="Caminho_772691" data-name="Caminho 772691" d="M4.32,7.09l-.27-.2L.18,8.026V9.484l.162.108,2.2-.612.018,3.492L2.448,16H4.3l-.09-3.726Zm6.318,0-.27-.2L6.5,8.026V9.484l.162.108,2.2-.612.018,3.492L8.766,16H10.62l-.09-3.726ZM17.5,6.856c-2.592,0-4.086,1.746-4.086,4.788,0,2.862,1.4,4.5,3.852,4.5,2.592,0,4.05-1.728,4.05-4.752C21.312,8.494,19.926,6.856,17.5,6.856Zm-.144,1.692c1.656,0,2.538,1.008,2.538,3.06,0,1.944-.864,2.916-2.52,2.916-1.692,0-2.52-1.008-2.52-3.006S15.678,8.548,17.352,8.548Z" transform="translate(258.106 10497.25)"/>
    <path id="Caminho_772676" data-name="Caminho 772676" d="M4.338,6.8A3.347,3.347,0,0,0,.7,10.258a2.812,2.812,0,0,0,2.916,3.078,3.719,3.719,0,0,0,2.124-.666l.126.144c-.576,1.71-2.07,2.88-4.806,3.852v.18l1.368.828h.108c3.348-1.386,5.274-3.87,5.274-6.894C7.812,8.3,6.642,6.8,4.338,6.8Zm-.2,5.22c-1.152,0-1.8-.72-1.8-2.016A1.749,1.749,0,0,1,4.212,8.044c1.386,0,1.944.936,1.944,2.772l-.018.432A3.279,3.279,0,0,1,4.14,12.022Zm9.27-5.166c-2.592,0-4.086,1.746-4.086,4.788,0,2.862,1.4,4.5,3.852,4.5,2.592,0,4.05-1.728,4.05-4.752C17.226,8.494,15.84,6.856,13.41,6.856Zm-.144,1.692c1.656,0,2.538,1.008,2.538,3.06,0,1.944-.864,2.916-2.52,2.916-1.692,0-2.52-1.008-2.52-3.006S11.592,8.548,13.266,8.548Z" transform="translate(258.106 10230.75)"/>
    <path id="Caminho_772700" data-name="Caminho 772700" d="M2.25,6.982.468,6.91.342,8.476l.108.18,1.494-.162H5.4L1.386,17.116l.108.306,1.476.4.882-2.358L7.128,8.3,7.11,6.946l-.81.036Zm10.242-.126C9.9,6.856,8.406,8.6,8.406,11.644c0,2.862,1.4,4.5,3.852,4.5,2.592,0,4.05-1.728,4.05-4.752C16.308,8.494,14.922,6.856,12.492,6.856Zm-.144,1.692c1.656,0,2.538,1.008,2.538,3.06,0,1.944-.864,2.916-2.52,2.916-1.692,0-2.52-1.008-2.52-3.006S10.674,8.548,12.348,8.548Z" transform="translate(258.106 10764.25)"/>
    <path id="Caminho_772668" data-name="Caminho 772668" d="M6.948,7.018,6.84,6.892l-1.764.09h-2.5l-.99-.054-.252.252-.09,4.86.144.162,1.6.306c1.512.27,2.106.828,2.106,1.782,0,1.206-.936,2.034-2.43,2.034a4.99,4.99,0,0,1-2.052-.45l-.144.144.126,1.548a10.218,10.218,0,0,0,1.818.2c2.592,0,4.41-1.53,4.41-3.762,0-1.422-.756-2.376-3.024-2.844l-1.116-.234.054-2.466H5.148l1.476.126.126-.126Zm5.526-.162c-2.592,0-4.086,1.746-4.086,4.788,0,2.862,1.4,4.5,3.852,4.5,2.592,0,4.05-1.728,4.05-4.752C16.29,8.494,14.9,6.856,12.474,6.856ZM12.33,8.548c1.656,0,2.538,1.008,2.538,3.06,0,1.944-.864,2.916-2.52,2.916-1.692,0-2.52-1.008-2.52-3.006S10.656,8.548,12.33,8.548Z" transform="translate(258.106 10052.75)"/>
    <path id="Caminho_772692" data-name="Caminho 772692" d="M4.32,7.09l-.27-.2L.18,8.026V9.484l.162.108,2.2-.612.018,3.492L2.448,16H4.3l-.09-3.726Zm6.858-.234c-2.592,0-4.086,1.746-4.086,4.788,0,2.862,1.4,4.5,3.852,4.5,2.592,0,4.05-1.728,4.05-4.752C14.994,8.494,13.608,6.856,11.178,6.856Zm-.144,1.692c1.656,0,2.538,1.008,2.538,3.06,0,1.944-.864,2.916-2.52,2.916-1.692,0-2.52-1.008-2.52-3.006S9.36,8.548,11.034,8.548Zm9.594-1.692c-2.592,0-4.086,1.746-4.086,4.788,0,2.862,1.4,4.5,3.852,4.5,2.592,0,4.05-1.728,4.05-4.752C24.444,8.494,23.058,6.856,20.628,6.856Zm-.144,1.692c1.656,0,2.538,1.008,2.538,3.06,0,1.944-.864,2.916-2.52,2.916-1.692,0-2.52-1.008-2.52-3.006S18.81,8.548,20.484,8.548Z" transform="translate(258.106 10586.25)"/>
    <path id="Caminho_772683" data-name="Caminho 772683" d="M4.5,5.326c-1.944,0-3.294,1.062-3.294,2.844a2.678,2.678,0,0,0,1.638,2.484v.09A2.983,2.983,0,0,0,.81,13.426C.81,15.01,2,16.144,4.1,16.144c2.2,0,3.654-1.17,3.654-3.042a2.821,2.821,0,0,0-1.98-2.592v-.09A2.937,2.937,0,0,0,7.434,7.882C7.434,6.3,6.336,5.326,4.5,5.326Zm-.09,1.3a1.4,1.4,0,0,1,1.584,1.44c0,1.008-.72,1.494-1.53,1.872-.918-.36-1.746-.792-1.746-1.818C2.718,7.2,3.348,6.622,4.41,6.622Zm-.27,4.662c1.062.432,2.088.828,2.088,1.944,0,.936-.72,1.638-1.962,1.638-1.188,0-1.908-.666-1.908-1.656C2.358,12.094,3.2,11.626,4.14,11.284ZM15.624,7.018l-.108-.126-1.764.09h-2.5l-.99-.054-.252.252-.09,4.86.144.162,1.6.306c1.512.27,2.106.828,2.106,1.782,0,1.206-.936,2.034-2.43,2.034a4.99,4.99,0,0,1-2.052-.45l-.144.144.126,1.548a10.218,10.218,0,0,0,1.818.2c2.592,0,4.41-1.53,4.41-3.762,0-1.422-.756-2.376-3.024-2.844l-1.116-.234.054-2.466h2.412l1.476.126.126-.126Z" transform="translate(258.106 10319.75)"/>
    <path id="Caminho_772707" data-name="Caminho 772707" d="M4.338,6.8A3.347,3.347,0,0,0,.7,10.258a2.812,2.812,0,0,0,2.916,3.078,3.719,3.719,0,0,0,2.124-.666l.126.144c-.576,1.71-2.07,2.88-4.806,3.852v.18l1.368.828h.108c3.348-1.386,5.274-3.87,5.274-6.894C7.812,8.3,6.642,6.8,4.338,6.8Zm-.2,5.22c-1.152,0-1.8-.72-1.8-2.016A1.749,1.749,0,0,1,4.212,8.044c1.386,0,1.944.936,1.944,2.772l-.018.432A3.279,3.279,0,0,1,4.14,12.022Zm9.27-5.166c-2.592,0-4.086,1.746-4.086,4.788,0,2.862,1.4,4.5,3.852,4.5,2.592,0,4.05-1.728,4.05-4.752C17.226,8.494,15.84,6.856,13.41,6.856Zm-.144,1.692c1.656,0,2.538,1.008,2.538,3.06,0,1.944-.864,2.916-2.52,2.916-1.692,0-2.52-1.008-2.52-3.006S11.592,8.548,13.266,8.548Z" transform="translate(258.106 10853.25)"/>
    <path id="Caminho_772675" data-name="Caminho 772675" d="M2.25,6.982.468,6.91.342,8.476l.108.18,1.494-.162H5.4L1.386,17.116l.108.306,1.476.4.882-2.358L7.128,8.3,7.11,6.946l-.81.036Zm10.242-.126C9.9,6.856,8.406,8.6,8.406,11.644c0,2.862,1.4,4.5,3.852,4.5,2.592,0,4.05-1.728,4.05-4.752C16.308,8.494,14.922,6.856,12.492,6.856Zm-.144,1.692c1.656,0,2.538,1.008,2.538,3.06,0,1.944-.864,2.916-2.52,2.916-1.692,0-2.52-1.008-2.52-3.006S10.674,8.548,12.348,8.548Z" transform="translate(258.106 10141.75)"/>
    <path id="Caminho_772699" data-name="Caminho 772699" d="M4.338,6.8A3.347,3.347,0,0,0,.7,10.258a2.812,2.812,0,0,0,2.916,3.078,3.719,3.719,0,0,0,2.124-.666l.126.144c-.576,1.71-2.07,2.88-4.806,3.852v.18l1.368.828h.108c3.348-1.386,5.274-3.87,5.274-6.894C7.812,8.3,6.642,6.8,4.338,6.8Zm-.2,5.22c-1.152,0-1.8-.72-1.8-2.016A1.749,1.749,0,0,1,4.212,8.044c1.386,0,1.944.936,1.944,2.772l-.018.432A3.279,3.279,0,0,1,4.14,12.022Zm11.358-5-.108-.126-1.764.09h-2.5l-.99-.054-.252.252-.09,4.86.144.162,1.6.306c1.512.27,2.106.828,2.106,1.782,0,1.206-.936,2.034-2.43,2.034a4.99,4.99,0,0,1-2.052-.45l-.144.144.126,1.548a10.218,10.218,0,0,0,1.818.2c2.592,0,4.41-1.53,4.41-3.762,0-1.422-.756-2.376-3.024-2.844l-1.116-.234.054-2.466H13.7l1.476.126.126-.126Z" transform="translate(258.106 10675.25)"/>
    <path id="Caminho_772684" data-name="Caminho 772684" d="M4.338,6.8A3.347,3.347,0,0,0,.7,10.258a2.812,2.812,0,0,0,2.916,3.078,3.719,3.719,0,0,0,2.124-.666l.126.144c-.576,1.71-2.07,2.88-4.806,3.852v.18l1.368.828h.108c3.348-1.386,5.274-3.87,5.274-6.894C7.812,8.3,6.642,6.8,4.338,6.8Zm-.2,5.22c-1.152,0-1.8-.72-1.8-2.016A1.749,1.749,0,0,1,4.212,8.044c1.386,0,1.944.936,1.944,2.772l-.018.432A3.279,3.279,0,0,1,4.14,12.022Zm9.27-5.166c-2.592,0-4.086,1.746-4.086,4.788,0,2.862,1.4,4.5,3.852,4.5,2.592,0,4.05-1.728,4.05-4.752C17.226,8.494,15.84,6.856,13.41,6.856Zm-.144,1.692c1.656,0,2.538,1.008,2.538,3.06,0,1.944-.864,2.916-2.52,2.916-1.692,0-2.52-1.008-2.52-3.006S11.592,8.548,13.266,8.548Z" transform="translate(258.106 10408.75)"/>
    <path id="Caminho_772708" data-name="Caminho 772708" d="M4.32,7.09l-.27-.2L.18,8.026V9.484l.162.108,2.2-.612.018,3.492L2.448,16H4.3l-.09-3.726Zm6.228-.2a5.487,5.487,0,0,0-3.33,1.3L7.524,9.61h.2a3.579,3.579,0,0,1,2.43-1.152c.792,0,1.224.414,1.224.972,0,.7-.63,1.548-1.8,2.808L7.11,14.83v1.134l.09.072L7.866,16h4.068l1.98.09.234-1.512-.126-.126-1.566.144H9.522l-.036-.09,1.6-1.818c1.44-1.62,2.088-2.736,2.088-3.708C13.176,7.7,12.06,6.892,10.548,6.892Zm8.946-.036c-2.592,0-4.086,1.746-4.086,4.788,0,2.862,1.4,4.5,3.852,4.5,2.592,0,4.05-1.728,4.05-4.752C23.31,8.494,21.924,6.856,19.494,6.856ZM19.35,8.548c1.656,0,2.538,1.008,2.538,3.06,0,1.944-.864,2.916-2.52,2.916-1.692,0-2.52-1.008-2.52-3.006S17.676,8.548,19.35,8.548Z" transform="translate(258.106 10942.25)"/>
  </g>
</svg>
