<svg xmlns="http://www.w3.org/2000/svg" xmlns:xlink="http://www.w3.org/1999/xlink" width="543.443" height="388.065" viewBox="0 0 543.443 388.065">
  <defs>
    <linearGradient id="linear-gradient" x1="0.015" y1="0.269" x2="0.003" y2="1" gradientUnits="objectBoundingBox">
      <stop offset="0" stop-color="#64dadb"/>
      <stop offset="1" stop-color="#4dc5f2"/>
    </linearGradient>
    <clipPath id="clip-path">
      <path id="Caminho_770335" data-name="Caminho 770335" d="M224.491,0,171.916,83.351,125.823.153C64.235,16.153,16.018,61.164,0,118.008H350.89C334.836,60.985,286.358,15.864,224.491,0Z" fill="url(#linear-gradient)"/>
    </clipPath>
    <clipPath id="clip-path-2">
      <rect id="Retângulo_124925" data-name="Retângulo 124925" width="89.278" height="109.865" fill="none"/>
    </clipPath>
  </defs>
  <g id="_img_joaomaria_3_" data-name="&lt;img joaomaria_3&gt;" transform="translate(-739.583 -3894.437)">
    <path id="GettyImages-1412762526" d="M-111.213.131,194.568,0,142.753,225.391l-306.063-.173Z" transform="translate(1088.459 3982)" fill="#0041d9"/>
    <path id="Caminho_773378" data-name="Caminho 773378" d="M3.654,6.988l2.352-.042,3.087.1L9.24,5.707l-.126-.168H1.953l.105,9.408L1.953,19h1.7L3.57,14.8l.021-1.743,2.121-.021,2.331.063.147-1.281-.126-.168-2.184.063-2.268-.042Zm9.975,2.226c-2.793,0-4.389,1.869-4.389,5.1,0,3.087,1.512,4.851,4.137,4.851,2.793,0,4.368-1.869,4.368-5.1C17.745,10.978,16.233,9.214,13.629,9.214Zm-.1,1.176c1.722,0,2.667,1.386,2.667,4.053,0,2.352-.945,3.528-2.709,3.528-1.722,0-2.667-1.323-2.667-4.032C10.815,11.629,11.76,10.39,13.524,10.39Zm7.707-5.313a.926.926,0,0,0-.987.987.863.863,0,0,0,.924.966A.938.938,0,0,0,22.155,6,.86.86,0,0,0,21.231,5.077Zm.651,9.7.126-5.439-1.659.147.084,5.439L20.328,19h1.659Zm7.707-.672,5.859-.021.357-.273c.021-.252.042-.735.042-.966,0-2.268-1.218-3.612-3.318-3.612-2.751,0-4.515,1.911-4.515,5.019,0,3.024,1.617,4.914,4.368,4.914a6.585,6.585,0,0,0,2.919-.777l.168-1.407-.189-.1a5.13,5.13,0,0,1-2.814.945c-1.932,0-2.877-1.386-2.877-3.654Zm2.793-3.7c1.155,0,1.974.693,1.974,2.2l-.042.252-4.62.126C29.988,11.335,30.954,10.411,32.382,10.411ZM44.247,19h1.68l-.084-4.179.042-2.73c.021-1.806-1.071-2.835-3.213-2.835a6.611,6.611,0,0,0-2.667,1.491h-.126L39.9,9.34l-1.6.147.084,5.439L38.283,19h1.659l-.084-4.221.021-2.646a4.164,4.164,0,0,1,2.835-1.491c1.113,0,1.659.714,1.638,1.827Zm7.9-1.281c-.924,0-1.344-.378-1.323-1.512l.1-5.691H53.76l.1-.987L53.781,9.4H50.925l.042-2.037L50.8,7.219l-1.449.63V9.4H48.069l-.1.987.084.126h1.323l.021,4.347-.063,1.491a2.426,2.426,0,0,0,2.247,2.772,6.053,6.053,0,0,0,2.1-.609l.168-1.092-.189-.126A3.181,3.181,0,0,1,52.143,17.719Zm9.975-12.2-.5-.525h-.168c-.546.525-.882.966-1.2.966-.525,0-2.373-.651-3.255-.756l-.21.063L55.5,6.715v.147l.5.546H56.2c.525-.525.861-.987,1.176-.987.546,0,2.394.693,3.255.777l.21-.063,1.281-1.449Zm-3.129,3.7a6.1,6.1,0,0,0-3.612,1.3l.231,1.2.168.084a4.533,4.533,0,0,1,2.961-1.386,1.517,1.517,0,0,1,1.659,1.7l-.021,1.365-3.4.8a2.163,2.163,0,0,0-1.953,2.247c0,1.617,1.092,2.625,2.982,2.625a6.193,6.193,0,0,0,2.247-1.575h.126a1.521,1.521,0,0,0,1.47,1.554,3.143,3.143,0,0,0,1.2-.42l.147-.945-.168-.147a2.1,2.1,0,0,1-.693.126c-.5,0-.672-.21-.672-.819,0-.735.273-4.452.273-5.187C61.929,10.159,60.774,9.214,58.989,9.214Zm1.365,5.334-.063,1.722a3.256,3.256,0,0,1-2.373,1.491,1.341,1.341,0,0,1-1.407-1.47.9.9,0,0,1,.8-1.008Zm8.757-5.334c-2.793,0-4.389,1.869-4.389,5.1,0,3.087,1.512,4.851,4.137,4.851,2.793,0,4.368-1.869,4.368-5.1C73.227,10.978,71.715,9.214,69.111,9.214Zm-.105,1.176c1.722,0,2.667,1.386,2.667,4.053,0,2.352-.945,3.528-2.709,3.528-1.722,0-2.667-1.323-2.667-4.032C66.3,11.629,67.242,10.39,69.006,10.39Zm17.43-1.134-.819.336a9.39,9.39,0,0,0-2.52-.378c-2.877,0-4.62,1.764-4.62,5.061,0,3.024,1.47,4.83,4.2,4.83a6.74,6.74,0,0,0,2.163-1.239h.168v.4l-.063,4.62h1.638l-.105-8.064.126-5.46Zm-3.528,1.155a4.565,4.565,0,0,1,2.079.567l.042,4.011-.021,1.428A3.217,3.217,0,0,1,82.593,17.7c-1.554,0-2.52-1.3-2.562-3.57C79.989,11.608,81.165,10.411,82.908,10.411ZM97.146,9.34l-1.6.147v6.951a3.884,3.884,0,0,1-2.6,1.281c-1.092,0-1.638-.693-1.617-1.827l.126-6.552-1.68.147.063,4.137-.021,2.667c-.021,1.806,1.071,2.835,3.15,2.835a6.1,6.1,0,0,0,2.6-1.47h.168a1.529,1.529,0,0,0,1.449,1.47,3.024,3.024,0,0,0,1.2-.42l.147-.945-.147-.147a2.309,2.309,0,0,1-.735.126c-.441,0-.63-.21-.63-.8Zm4.284,4.767,5.859-.021.357-.273c.021-.252.042-.735.042-.966,0-2.268-1.218-3.612-3.318-3.612-2.751,0-4.515,1.911-4.515,5.019,0,3.024,1.617,4.914,4.368,4.914a6.585,6.585,0,0,0,2.919-.777l.168-1.407-.189-.1a5.13,5.13,0,0,1-2.814.945c-1.932,0-2.877-1.386-2.877-3.654Zm2.793-3.7c1.155,0,1.974.693,1.974,2.2l-.042.252-4.62.126C101.829,11.335,102.795,10.411,104.223,10.411Zm10.164,3.7,5.859-.021.357-.273c.021-.252.042-.735.042-.966,0-2.268-1.218-3.612-3.318-3.612-2.751,0-4.515,1.911-4.515,5.019,0,3.024,1.617,4.914,4.368,4.914a6.585,6.585,0,0,0,2.919-.777l.168-1.407-.189-.1a5.13,5.13,0,0,1-2.814.945c-1.932,0-2.877-1.386-2.877-3.654Zm2.793-3.7c1.155,0,1.974.693,1.974,2.2l-.042.252-4.62.126C114.786,11.335,115.752,10.411,117.18,10.411ZM129.045,19h1.68l-.084-4.179.042-2.73c.021-1.806-1.071-2.835-3.213-2.835a6.611,6.611,0,0,0-2.667,1.491h-.126L124.7,9.34l-1.6.147.084,5.439L123.081,19h1.659l-.084-4.221.021-2.646a4.164,4.164,0,0,1,2.835-1.491c1.113,0,1.659.714,1.638,1.827Zm7.9-1.281c-.924,0-1.344-.378-1.323-1.512l.105-5.691h2.835l.1-.987-.084-.126h-2.856l.042-2.037-.168-.147-1.449.63V9.4h-1.281l-.105.987.084.126h1.323l.021,4.347-.063,1.491a2.426,2.426,0,0,0,2.247,2.772,6.053,6.053,0,0,0,2.1-.609l.168-1.092-.189-.126A3.181,3.181,0,0,1,136.941,17.719Zm4.116-3.612,5.859-.021.357-.273c.021-.252.042-.735.042-.966,0-2.268-1.218-3.612-3.318-3.612-2.751,0-4.515,1.911-4.515,5.019,0,3.024,1.617,4.914,4.368,4.914a6.585,6.585,0,0,0,2.919-.777l.168-1.407-.189-.1a5.13,5.13,0,0,1-2.814.945c-1.932,0-2.877-1.386-2.877-3.654Zm2.793-3.7c1.155,0,1.974.693,1.974,2.2l-.042.252-4.62.126C141.456,11.335,142.422,10.411,143.85,10.411ZM155.715,19h1.68l-.084-4.179.042-2.73c.021-1.806-1.071-2.835-3.213-2.835a6.611,6.611,0,0,0-2.667,1.491h-.126l.021-1.407-1.6.147.084,5.439L149.751,19h1.659l-.084-4.221.021-2.646a4.164,4.164,0,0,1,2.835-1.491c1.113,0,1.659.714,1.638,1.827Zm12.054-4.221L167.9,4.258l-1.659.147.042,5.019a8.181,8.181,0,0,0-1.848-.21c-2.919,0-4.662,1.806-4.662,5,0,3.108,1.491,4.893,4.284,4.893a6.983,6.983,0,0,0,2.289-1.449h.147a1.548,1.548,0,0,0,1.47,1.47,3.024,3.024,0,0,0,1.2-.42l.147-.945-.168-.147a2.119,2.119,0,0,1-.714.126c-.441,0-.588-.21-.609-.8ZM164.22,10.39a4.9,4.9,0,0,1,2.058.525l.042,3.99-.042,1.512a2.982,2.982,0,0,1-2.31,1.281c-1.6,0-2.6-1.3-2.646-3.633C161.28,11.629,162.456,10.39,164.22,10.39ZM172.3,5.077a.926.926,0,0,0-.987.987.863.863,0,0,0,.924.966A.938.938,0,0,0,173.229,6,.86.86,0,0,0,172.3,5.077Zm.651,9.7.126-5.439-1.659.147.084,5.439L171.4,19h1.659Zm10.1-5.565a6.045,6.045,0,0,0-3.591,1.3l.21,1.2.168.084a4.576,4.576,0,0,1,2.961-1.386,1.517,1.517,0,0,1,1.659,1.7l-.021,1.365-3.4.8a2.163,2.163,0,0,0-1.953,2.247c0,1.617,1.092,2.625,2.982,2.625a6.193,6.193,0,0,0,2.247-1.575h.147a1.5,1.5,0,0,0,1.449,1.554,3.024,3.024,0,0,0,1.2-.42l.168-.945-.168-.147a2.291,2.291,0,0,1-.714.126c-.483,0-.651-.21-.651-.819,0-.735.252-4.452.252-5.187C186,10.159,184.863,9.214,183.057,9.214Zm1.365,5.334-.063,1.722a3.222,3.222,0,0,1-2.352,1.491,1.346,1.346,0,0,1-1.428-1.47.92.92,0,0,1,.8-1.008ZM7.623,48H9.3l-.084-4.179.042-2.73c.021-1.806-1.071-2.835-3.213-2.835a6.611,6.611,0,0,0-2.667,1.491H3.255l.021-1.407-1.6.147.084,5.439L1.659,48H3.318l-.084-4.221.021-2.646A4.164,4.164,0,0,1,6.09,39.642c1.113,0,1.659.714,1.638,1.827Zm5.649-4.893,5.859-.021.357-.273c.021-.252.042-.735.042-.966,0-2.268-1.218-3.612-3.318-3.612-2.751,0-4.515,1.911-4.515,5.019,0,3.024,1.617,4.914,4.368,4.914a6.585,6.585,0,0,0,2.919-.777l.168-1.407-.189-.1a5.13,5.13,0,0,1-2.814.945c-1.932,0-2.877-1.386-2.877-3.654Zm2.793-3.7c1.155,0,1.974.693,1.974,2.205L18,41.868l-4.62.126C13.671,40.335,14.637,39.411,16.065,39.411Zm9.387-1.2c-2.646,0-4.263,1.953-4.263,5.04,0,3.045,1.554,4.914,4.1,4.914a6.813,6.813,0,0,0,2.562-.546l.189-1.407-.189-.1a4.717,4.717,0,0,1-2.352.714c-1.722,0-2.73-1.407-2.73-3.654,0-2.268.987-3.591,2.625-3.591a4.088,4.088,0,0,1,2.163.714l.189-.063.294-1.449A6.385,6.385,0,0,0,25.452,38.214Zm5.376,4.893,5.859-.021.357-.273c.021-.252.042-.735.042-.966,0-2.268-1.218-3.612-3.318-3.612-2.751,0-4.515,1.911-4.515,5.019,0,3.024,1.617,4.914,4.368,4.914a6.585,6.585,0,0,0,2.919-.777l.168-1.407-.189-.1a5.13,5.13,0,0,1-2.814.945c-1.932,0-2.877-1.386-2.877-3.654Zm2.793-3.7c1.155,0,1.974.693,1.974,2.205l-.042.252-4.62.126C31.227,40.335,32.193,39.411,33.621,39.411Zm8.547-1.176c-2.079,0-3.318,1.176-3.318,2.772,0,2.982,4.389,2.583,4.389,4.515A1.578,1.578,0,0,1,41.5,46.971a4.132,4.132,0,0,1-2.562-1.05l-.189.126-.21,1.428a6.169,6.169,0,0,0,2.793.693c2.226,0,3.423-1.407,3.423-2.94,0-2.9-4.368-2.5-4.368-4.431a1.455,1.455,0,0,1,1.6-1.365,3.643,3.643,0,0,1,2.016.693l.252-.063.231-1.365A6.123,6.123,0,0,0,42.168,38.235Zm7.77,0c-2.079,0-3.318,1.176-3.318,2.772,0,2.982,4.389,2.583,4.389,4.515a1.578,1.578,0,0,1-1.743,1.449,4.132,4.132,0,0,1-2.562-1.05l-.189.126-.21,1.428a6.169,6.169,0,0,0,2.793.693c2.226,0,3.423-1.407,3.423-2.94,0-2.9-4.368-2.5-4.368-4.431a1.455,1.455,0,0,1,1.6-1.365,3.643,3.643,0,0,1,2.016.693l.252-.063.231-1.365A6.123,6.123,0,0,0,49.938,38.235Zm6.027-4.158a.926.926,0,0,0-.987.987.863.863,0,0,0,.924.966A.938.938,0,0,0,56.889,35,.86.86,0,0,0,55.965,34.077Zm.651,9.7.126-5.439-1.659.147.084,5.439L55.062,48h1.659Zm10.647,0,.126-10.521L65.73,33.4l.042,5.019a8.181,8.181,0,0,0-1.848-.21c-2.919,0-4.662,1.806-4.662,5,0,3.108,1.491,4.893,4.284,4.893a6.983,6.983,0,0,0,2.289-1.449h.147a1.548,1.548,0,0,0,1.47,1.47,3.024,3.024,0,0,0,1.2-.42l.147-.945-.168-.147a2.119,2.119,0,0,1-.714.126c-.441,0-.588-.21-.609-.8ZM63.714,39.39a4.9,4.9,0,0,1,2.058.525l.042,3.99-.042,1.512a2.982,2.982,0,0,1-2.31,1.281c-1.6,0-2.6-1.3-2.646-3.633C60.774,40.629,61.95,39.39,63.714,39.39Zm10.374-1.176a6.045,6.045,0,0,0-3.591,1.3l.21,1.2.168.084a4.576,4.576,0,0,1,2.961-1.386,1.517,1.517,0,0,1,1.659,1.7l-.021,1.365-3.4.8a2.163,2.163,0,0,0-1.953,2.247c0,1.617,1.092,2.625,2.982,2.625a6.193,6.193,0,0,0,2.247-1.575H75.5a1.5,1.5,0,0,0,1.449,1.554,3.024,3.024,0,0,0,1.2-.42l.168-.945-.168-.147a2.291,2.291,0,0,1-.714.126c-.483,0-.651-.21-.651-.819,0-.735.252-4.452.252-5.187C77.028,39.159,75.894,38.214,74.088,38.214Zm1.365,5.334L75.39,45.27a3.222,3.222,0,0,1-2.352,1.491,1.346,1.346,0,0,1-1.428-1.47.92.92,0,0,1,.8-1.008Zm12.348.231.126-10.521-1.659.147.042,5.019a8.181,8.181,0,0,0-1.848-.21c-2.919,0-4.662,1.806-4.662,5,0,3.108,1.491,4.893,4.284,4.893a6.983,6.983,0,0,0,2.289-1.449h.147a1.548,1.548,0,0,0,1.47,1.47,3.024,3.024,0,0,0,1.2-.42l.147-.945-.168-.147a2.119,2.119,0,0,1-.714.126c-.441,0-.588-.21-.609-.8ZM84.252,39.39a4.9,4.9,0,0,1,2.058.525l.042,3.99-.042,1.512A2.982,2.982,0,0,1,84,46.7c-1.6,0-2.6-1.3-2.646-3.633C81.312,40.629,82.488,39.39,84.252,39.39Zm7.98,3.717,5.859-.021.357-.273c.021-.252.042-.735.042-.966,0-2.268-1.218-3.612-3.318-3.612-2.751,0-4.515,1.911-4.515,5.019,0,3.024,1.617,4.914,4.368,4.914a6.585,6.585,0,0,0,2.919-.777l.168-1.407-.189-.1a5.13,5.13,0,0,1-2.814.945c-1.932,0-2.877-1.386-2.877-3.654Zm2.793-3.7c1.155,0,1.974.693,1.974,2.205l-.042.252-4.62.126C92.631,40.335,93.6,39.411,95.025,39.411Zm16.569,4.368.126-10.521-1.659.147.042,5.019a8.181,8.181,0,0,0-1.848-.21c-2.919,0-4.662,1.806-4.662,5,0,3.108,1.491,4.893,4.284,4.893a6.983,6.983,0,0,0,2.289-1.449h.147a1.548,1.548,0,0,0,1.47,1.47,3.024,3.024,0,0,0,1.2-.42l.147-.945-.168-.147a2.119,2.119,0,0,1-.714.126c-.441,0-.588-.21-.609-.8Zm-3.549-4.389a4.9,4.9,0,0,1,2.058.525l.042,3.99-.042,1.512a2.982,2.982,0,0,1-2.31,1.281c-1.6,0-2.6-1.3-2.646-3.633C105.1,40.629,106.281,39.39,108.045,39.39Zm7.98,3.717,5.859-.021.357-.273c.021-.252.042-.735.042-.966,0-2.268-1.218-3.612-3.318-3.612-2.751,0-4.515,1.911-4.515,5.019,0,3.024,1.617,4.914,4.368,4.914a6.585,6.585,0,0,0,2.919-.777l.168-1.407-.189-.1a5.13,5.13,0,0,1-2.814.945c-1.932,0-2.877-1.386-2.877-3.654Zm2.793-3.7c1.155,0,1.974.693,1.974,2.205l-.042.252-4.62.126C116.424,40.335,117.39,39.411,118.818,39.411Zm16.611-1.071-1.6.147v6.951a3.884,3.884,0,0,1-2.6,1.281c-1.092,0-1.638-.693-1.617-1.827l.126-6.552-1.68.147.063,4.137-.021,2.667c-.021,1.806,1.071,2.835,3.15,2.835a6.1,6.1,0,0,0,2.6-1.47h.168a1.529,1.529,0,0,0,1.449,1.47,3.024,3.024,0,0,0,1.2-.42l.147-.945-.147-.147a2.309,2.309,0,0,1-.735.126c-.441,0-.63-.21-.63-.8Zm6.132-.1c-2.079,0-3.318,1.176-3.318,2.772,0,2.982,4.389,2.583,4.389,4.515a1.578,1.578,0,0,1-1.743,1.449,4.132,4.132,0,0,1-2.562-1.05l-.189.126-.21,1.428a6.169,6.169,0,0,0,2.793.693c2.226,0,3.423-1.407,3.423-2.94,0-2.9-4.368-2.5-4.368-4.431a1.455,1.455,0,0,1,1.6-1.365,3.643,3.643,0,0,1,2.016.693l.252-.063.231-1.365A6.123,6.123,0,0,0,141.561,38.235Zm8.316-.021a6.045,6.045,0,0,0-3.591,1.3l.21,1.2.168.084a4.576,4.576,0,0,1,2.961-1.386,1.517,1.517,0,0,1,1.659,1.7l-.021,1.365-3.4.8a2.163,2.163,0,0,0-1.953,2.247c0,1.617,1.092,2.625,2.982,2.625a6.193,6.193,0,0,0,2.247-1.575h.147a1.5,1.5,0,0,0,1.449,1.554,3.024,3.024,0,0,0,1.2-.42l.168-.945-.168-.147a2.291,2.291,0,0,1-.714.126c-.483,0-.651-.21-.651-.819,0-.735.252-4.452.252-5.187C152.817,39.159,151.683,38.214,149.877,38.214Zm1.365,5.334-.063,1.722a3.222,3.222,0,0,1-2.352,1.491,1.346,1.346,0,0,1-1.428-1.47.92.92,0,0,1,.8-1.008Zm9.555-5.187c-.819,0-1.827.441-2.688,1.953h-.126L158,38.34l-1.6.147.105,5.439L156.387,48h1.659l-.1-4.221.021-1.47c.756-1.659,1.533-2.331,2.436-2.331a2.908,2.908,0,0,1,.756.1l.189-.063V38.4A4.13,4.13,0,0,0,160.8,38.361Zm13.041,5.418.126-10.521L172.3,33.4l.042,5.019a8.182,8.182,0,0,0-1.848-.21c-2.919,0-4.662,1.806-4.662,5,0,3.108,1.491,4.893,4.284,4.893a6.983,6.983,0,0,0,2.289-1.449h.147a1.548,1.548,0,0,0,1.47,1.47,3.024,3.024,0,0,0,1.2-.42l.147-.945-.168-.147a2.119,2.119,0,0,1-.714.126c-.441,0-.588-.21-.609-.8Zm-3.549-4.389a4.9,4.9,0,0,1,2.058.525l.042,3.99-.042,1.512a2.982,2.982,0,0,1-2.31,1.281c-1.6,0-2.6-1.3-2.646-3.633C167.349,40.629,168.525,39.39,170.289,39.39Zm10.374-1.176a6.045,6.045,0,0,0-3.591,1.3l.21,1.2.168.084a4.576,4.576,0,0,1,2.961-1.386,1.517,1.517,0,0,1,1.659,1.7l-.021,1.365-3.4.8a2.163,2.163,0,0,0-1.953,2.247c0,1.617,1.092,2.625,2.982,2.625a6.193,6.193,0,0,0,2.247-1.575h.147a1.5,1.5,0,0,0,1.449,1.554,3.024,3.024,0,0,0,1.2-.42l.168-.945-.168-.147a2.291,2.291,0,0,1-.714.126c-.483,0-.651-.21-.651-.819,0-.735.252-4.452.252-5.187C183.6,39.159,182.469,38.214,180.663,38.214Zm1.365,5.334-.063,1.722a3.222,3.222,0,0,1-2.352,1.491,1.346,1.346,0,0,1-1.428-1.47.92.92,0,0,1,.8-1.008Zm12.348.231.126-10.521-1.659.147.042,5.019a8.182,8.182,0,0,0-1.848-.21c-2.919,0-4.662,1.806-4.662,5,0,3.108,1.491,4.893,4.284,4.893a6.983,6.983,0,0,0,2.289-1.449h.147a1.548,1.548,0,0,0,1.47,1.47,3.024,3.024,0,0,0,1.2-.42l.147-.945-.168-.147a2.119,2.119,0,0,1-.714.126c-.441,0-.588-.21-.609-.8Zm-3.549-4.389a4.9,4.9,0,0,1,2.058.525l.042,3.99-.042,1.512a2.982,2.982,0,0,1-2.31,1.281c-1.6,0-2.6-1.3-2.646-3.633C187.887,40.629,189.063,39.39,190.827,39.39Zm10.794-1.176c-2.793,0-4.389,1.869-4.389,5.1,0,3.087,1.512,4.851,4.137,4.851,2.793,0,4.368-1.869,4.368-5.1C205.737,39.978,204.225,38.214,201.621,38.214Zm-.1,1.176c1.722,0,2.667,1.386,2.667,4.053,0,2.352-.945,3.528-2.709,3.528-1.722,0-2.667-1.323-2.667-4.032C198.807,40.629,199.752,39.39,201.516,39.39Zm9.45-1.155c-2.079,0-3.318,1.176-3.318,2.772,0,2.982,4.389,2.583,4.389,4.515a1.578,1.578,0,0,1-1.743,1.449,4.132,4.132,0,0,1-2.562-1.05l-.189.126-.21,1.428a6.169,6.169,0,0,0,2.793.693c2.226,0,3.423-1.407,3.423-2.94,0-2.9-4.368-2.5-4.368-4.431a1.455,1.455,0,0,1,1.6-1.365,3.643,3.643,0,0,1,2.016.693l.252-.063.231-1.365A6.123,6.123,0,0,0,210.966,38.235ZM6.027,67.277a6.215,6.215,0,0,0-2.646,1.428H3.255l.021-1.365-1.617.147.126,5.439-.126,7.959H3.3l-.042-3.906a9.151,9.151,0,0,0,1.827.189c2.961,0,4.683-1.89,4.683-5.271C9.765,69,8.505,67.277,6.027,67.277ZM5.292,75.95A4.319,4.319,0,0,1,3.234,75.4l-.021-2.625.021-2.646A3.651,3.651,0,0,1,5.88,68.642c1.47,0,2.268,1.26,2.31,3.444C8.232,74.69,7.056,75.95,5.292,75.95Zm10.185-8.736a6.045,6.045,0,0,0-3.591,1.3l.21,1.2.168.084a4.576,4.576,0,0,1,2.961-1.386,1.517,1.517,0,0,1,1.659,1.7l-.021,1.365-3.4.8a2.163,2.163,0,0,0-1.953,2.247c0,1.617,1.092,2.625,2.982,2.625a6.193,6.193,0,0,0,2.247-1.575h.147a1.5,1.5,0,0,0,1.449,1.554,3.024,3.024,0,0,0,1.2-.42l.168-.945-.168-.147a2.291,2.291,0,0,1-.714.126c-.483,0-.651-.21-.651-.819,0-.735.252-4.452.252-5.187C18.417,68.159,17.283,67.214,15.477,67.214Zm1.365,5.334-.063,1.722a3.222,3.222,0,0,1-2.352,1.491A1.346,1.346,0,0,1,13,74.291a.92.92,0,0,1,.8-1.008ZM26.4,67.361c-.819,0-1.827.441-2.688,1.953h-.126L23.6,67.34l-1.6.147.1,5.439L21.987,77h1.659l-.1-4.221.021-1.47c.756-1.659,1.533-2.331,2.436-2.331a2.908,2.908,0,0,1,.756.105l.189-.063V67.4A4.129,4.129,0,0,0,26.4,67.361Zm5.355-.147a6.045,6.045,0,0,0-3.591,1.3l.21,1.2.168.084A4.576,4.576,0,0,1,31.5,68.411a1.517,1.517,0,0,1,1.659,1.7l-.021,1.365-3.4.8a2.163,2.163,0,0,0-1.953,2.247c0,1.617,1.092,2.625,2.982,2.625a6.193,6.193,0,0,0,2.247-1.575h.147a1.5,1.5,0,0,0,1.449,1.554,3.024,3.024,0,0,0,1.2-.42l.168-.945-.168-.147a2.291,2.291,0,0,1-.714.126c-.483,0-.651-.21-.651-.819,0-.735.252-4.452.252-5.187C34.692,68.159,33.558,67.214,31.752,67.214Zm1.365,5.334-.063,1.722A3.222,3.222,0,0,1,30.7,75.761a1.346,1.346,0,0,1-1.428-1.47.92.92,0,0,1,.8-1.008Zm12.222-5.334c-2.793,0-4.389,1.869-4.389,5.1,0,3.087,1.512,4.851,4.137,4.851,2.793,0,4.368-1.869,4.368-5.1C49.455,68.978,47.943,67.214,45.339,67.214Zm-.1,1.176c1.722,0,2.667,1.386,2.667,4.053,0,2.352-.945,3.528-2.709,3.528-1.722,0-2.667-1.323-2.667-4.032C42.525,69.629,43.47,68.39,45.234,68.39Zm11.214-1.029c-.819,0-1.827.441-2.688,1.953h-.126l.021-1.974-1.6.147.1,5.439L52.038,77H53.7l-.1-4.221.021-1.47c.756-1.659,1.533-2.331,2.436-2.331a2.908,2.908,0,0,1,.756.105l.189-.063V67.4A4.129,4.129,0,0,0,56.448,67.361Zm3.276-4.284a.926.926,0,0,0-.987.987.863.863,0,0,0,.924.966A.938.938,0,0,0,60.648,64,.86.86,0,0,0,59.724,63.077Zm.651,9.7L60.5,67.34l-1.659.147.084,5.439L58.821,77H60.48Zm4.242-.672,5.859-.021.357-.273c.021-.252.042-.735.042-.966,0-2.268-1.218-3.612-3.318-3.612-2.751,0-4.515,1.911-4.515,5.019,0,3.024,1.617,4.914,4.368,4.914a6.585,6.585,0,0,0,2.919-.777l.168-1.407-.189-.105a5.13,5.13,0,0,1-2.814.945c-1.932,0-2.877-1.386-2.877-3.654Zm2.793-3.7c1.155,0,1.974.693,1.974,2.2l-.042.252-4.62.126C65.016,69.335,65.982,68.411,67.41,68.411ZM79.275,77h1.68l-.084-4.179.042-2.73c.021-1.806-1.071-2.835-3.213-2.835a6.611,6.611,0,0,0-2.667,1.491h-.126l.021-1.407-1.6.147.084,5.439L73.311,77H74.97l-.084-4.221.021-2.646a4.164,4.164,0,0,1,2.835-1.491c1.113,0,1.659.714,1.638,1.827Zm7.9-1.281c-.924,0-1.344-.378-1.323-1.512l.105-5.691h2.835l.105-.987-.084-.126H85.953L86,65.366l-.168-.147-1.449.63V67.4H83.1l-.1.987.084.126H84.4l.021,4.347-.063,1.491A2.426,2.426,0,0,0,86.6,77.126a6.053,6.053,0,0,0,2.1-.609l.168-1.092-.189-.126A3.181,3.181,0,0,1,87.171,75.719Zm6.846-8.505a6.045,6.045,0,0,0-3.591,1.3l.21,1.2.168.084a4.576,4.576,0,0,1,2.961-1.386,1.517,1.517,0,0,1,1.659,1.7L95.4,71.477l-3.4.8a2.163,2.163,0,0,0-1.953,2.247c0,1.617,1.092,2.625,2.982,2.625a6.193,6.193,0,0,0,2.247-1.575h.147a1.5,1.5,0,0,0,1.449,1.554,3.024,3.024,0,0,0,1.2-.42l.168-.945-.168-.147a2.291,2.291,0,0,1-.714.126c-.483,0-.651-.21-.651-.819,0-.735.252-4.452.252-5.187C96.957,68.159,95.823,67.214,94.017,67.214Zm1.365,5.334-.063,1.722a3.222,3.222,0,0,1-2.352,1.491,1.346,1.346,0,0,1-1.428-1.47.92.92,0,0,1,.8-1.008Zm9.555-5.187c-.819,0-1.827.441-2.688,1.953h-.126l.021-1.974-1.6.147.105,5.439L100.527,77h1.659l-.105-4.221.021-1.47c.756-1.659,1.533-2.331,2.436-2.331a2.908,2.908,0,0,1,.756.105l.189-.063V67.4A4.129,4.129,0,0,0,104.937,67.361ZM122.7,77h1.68l-.063-4.179.021-2.73c.021-1.806-1.071-2.835-3.192-2.835a6.906,6.906,0,0,0-2.856,1.6h-.126c-.4-1.029-1.407-1.6-3-1.6a6.415,6.415,0,0,0-2.646,1.491h-.147l.021-1.407-1.6.147.084,5.439L110.775,77h1.659l-.084-4.221.021-2.625a4.2,4.2,0,0,1,2.835-1.512c1.113,0,1.659.714,1.638,1.827L116.739,77h1.68l-.084-4.179.042-2.73a4.144,4.144,0,0,1,2.793-1.449,1.576,1.576,0,0,1,1.659,1.827Zm5.691-13.923a.926.926,0,0,0-.987.987.863.863,0,0,0,.924.966A.938.938,0,0,0,129.318,64,.86.86,0,0,0,128.394,63.077Zm.651,9.7.126-5.439-1.659.147.084,5.439L127.491,77h1.659ZM138.453,77h1.68l-.084-4.179.042-2.73c.021-1.806-1.071-2.835-3.213-2.835a6.611,6.611,0,0,0-2.667,1.491h-.126l.021-1.407-1.6.147.084,5.439L132.489,77h1.659l-.084-4.221.021-2.646a4.164,4.164,0,0,1,2.835-1.491c1.113,0,1.659.714,1.638,1.827Zm10.9,0h1.68l-.063-4.179.042-2.73c.021-1.806-1.092-2.835-3.213-2.835a6.611,6.611,0,0,0-2.667,1.491H145l.084-6.489-1.659.147.084,10.5-.1,4.1h1.659l-.105-4.221L145,70.133a4.084,4.084,0,0,1,2.835-1.491,1.571,1.571,0,0,1,1.638,1.827Zm8.064-9.786a6.045,6.045,0,0,0-3.591,1.3l.21,1.2.168.084a4.576,4.576,0,0,1,2.961-1.386,1.517,1.517,0,0,1,1.659,1.7l-.021,1.365-3.4.8a2.163,2.163,0,0,0-1.953,2.247c0,1.617,1.092,2.625,2.982,2.625a6.193,6.193,0,0,0,2.247-1.575h.147a1.5,1.5,0,0,0,1.449,1.554,3.024,3.024,0,0,0,1.2-.42l.168-.945-.168-.147a2.291,2.291,0,0,1-.714.126c-.483,0-.651-.21-.651-.819,0-.735.252-4.452.252-5.187C160.356,68.159,159.222,67.214,157.416,67.214Zm1.365,5.334-.063,1.722a3.222,3.222,0,0,1-2.352,1.491,1.346,1.346,0,0,1-1.428-1.47.92.92,0,0,1,.8-1.008Zm7.791-5.313c-2.079,0-3.318,1.176-3.318,2.772,0,2.982,4.389,2.583,4.389,4.515a1.578,1.578,0,0,1-1.743,1.449,4.132,4.132,0,0,1-2.562-1.05l-.189.126-.21,1.428a6.169,6.169,0,0,0,2.793.693c2.226,0,3.423-1.407,3.423-2.94,0-2.9-4.368-2.5-4.368-4.431a1.455,1.455,0,0,1,1.6-1.365,3.643,3.643,0,0,1,2.016.693l.252-.063.231-1.365A6.123,6.123,0,0,0,166.572,67.235ZM8.862,101.779l.126-10.521L7.329,91.4l.042,5.019a8.182,8.182,0,0,0-1.848-.21c-2.919,0-4.662,1.806-4.662,5,0,3.108,1.491,4.893,4.284,4.893a6.983,6.983,0,0,0,2.289-1.449h.147a1.548,1.548,0,0,0,1.47,1.47,3.024,3.024,0,0,0,1.2-.42l.147-.945-.168-.147a2.119,2.119,0,0,1-.714.126c-.441,0-.588-.21-.609-.8ZM5.313,97.39a4.9,4.9,0,0,1,2.058.525l.042,3.99-.042,1.512a2.982,2.982,0,0,1-2.31,1.281c-1.6,0-2.6-1.3-2.646-3.633C2.373,98.629,3.549,97.39,5.313,97.39Zm7.98,3.717,5.859-.021.357-.273c.021-.252.042-.735.042-.966,0-2.268-1.218-3.612-3.318-3.612-2.751,0-4.515,1.911-4.515,5.019,0,3.024,1.617,4.914,4.368,4.914a6.585,6.585,0,0,0,2.919-.777l.168-1.407-.189-.105a5.13,5.13,0,0,1-2.814.945c-1.932,0-2.877-1.386-2.877-3.654Zm2.793-3.7c1.155,0,1.974.693,1.974,2.2l-.042.252-4.62.126C13.692,98.335,14.658,97.411,16.086,97.411Zm9.387-1.2c-2.646,0-4.263,1.953-4.263,5.04,0,3.045,1.554,4.914,4.1,4.914a6.813,6.813,0,0,0,2.562-.546l.189-1.407-.189-.1a4.717,4.717,0,0,1-2.352.714c-1.722,0-2.73-1.407-2.73-3.654,0-2.268.987-3.591,2.625-3.591a4.088,4.088,0,0,1,2.163.714l.189-.063.294-1.449A6.385,6.385,0,0,0,25.473,96.214Zm5.5-4.137a.926.926,0,0,0-.987.987.863.863,0,0,0,.924.966A.938.938,0,0,0,31.9,93,.86.86,0,0,0,30.975,92.077Zm.651,9.7.126-5.439-1.659.147.084,5.439-.1,4.074h1.659Zm6.09-5.544c-2.079,0-3.318,1.176-3.318,2.772,0,2.982,4.389,2.583,4.389,4.515a1.578,1.578,0,0,1-1.743,1.449,4.132,4.132,0,0,1-2.562-1.05l-.189.126-.21,1.428a6.169,6.169,0,0,0,2.793.693c2.226,0,3.423-1.407,3.423-2.94,0-2.9-4.368-2.5-4.368-4.431a1.455,1.455,0,0,1,1.6-1.365,3.643,3.643,0,0,1,2.016.693l.252-.063.231-1.365A6.123,6.123,0,0,0,37.716,96.235Zm11.928-3.717-.5-.525h-.168c-.546.525-.882.966-1.2.966-.525,0-2.373-.651-3.255-.756l-.21.063-1.281,1.449v.147l.5.546h.189c.525-.525.861-.987,1.176-.987.546,0,2.394.693,3.255.777l.21-.063,1.281-1.449Zm-3.213,3.7c-2.772,0-4.368,1.869-4.368,5.1,0,3.087,1.512,4.851,4.137,4.851,2.772,0,4.368-1.869,4.368-5.1C50.568,97.978,49.056,96.214,46.431,96.214Zm-.084,1.176c1.722,0,2.667,1.386,2.667,4.053,0,2.352-.945,3.528-2.709,3.528-1.722,0-2.667-1.323-2.667-4.032C43.638,98.629,44.583,97.39,46.347,97.39Zm7.6,3.717,5.859-.021.357-.273c.021-.252.042-.735.042-.966,0-2.268-1.218-3.612-3.318-3.612-2.751,0-4.515,1.911-4.515,5.019,0,3.024,1.617,4.914,4.368,4.914a6.585,6.585,0,0,0,2.919-.777l.168-1.407-.189-.105a5.13,5.13,0,0,1-2.814.945c-1.932,0-2.877-1.386-2.877-3.654Zm2.793-3.7c1.155,0,1.974.693,1.974,2.2l-.042.252-4.62.126C54.348,98.335,55.314,97.411,56.742,97.411Zm8.547-1.176c-2.079,0-3.318,1.176-3.318,2.772,0,2.982,4.389,2.583,4.389,4.515a1.578,1.578,0,0,1-1.743,1.449,4.132,4.132,0,0,1-2.562-1.05l-.189.126-.21,1.428a6.169,6.169,0,0,0,2.793.693c2.226,0,3.423-1.407,3.423-2.94,0-2.9-4.368-2.5-4.368-4.431a1.455,1.455,0,0,1,1.6-1.365,3.643,3.643,0,0,1,2.016.693l.252-.063L67.6,96.7A6.123,6.123,0,0,0,65.289,96.235Zm15.792,5.544.126-10.521-1.659.147.042,5.019a8.182,8.182,0,0,0-1.848-.21c-2.919,0-4.662,1.806-4.662,5,0,3.108,1.491,4.893,4.284,4.893a6.983,6.983,0,0,0,2.289-1.449H79.8a1.548,1.548,0,0,0,1.47,1.47,3.024,3.024,0,0,0,1.2-.42l.147-.945-.168-.147a2.119,2.119,0,0,1-.714.126c-.441,0-.588-.21-.609-.8ZM77.532,97.39a4.9,4.9,0,0,1,2.058.525l.042,3.99-.042,1.512a2.982,2.982,0,0,1-2.31,1.281c-1.6,0-2.6-1.3-2.646-3.633C74.592,98.629,75.768,97.39,77.532,97.39Zm7.98,3.717,5.859-.021.357-.273c.021-.252.042-.735.042-.966,0-2.268-1.218-3.612-3.318-3.612-2.751,0-4.515,1.911-4.515,5.019,0,3.024,1.617,4.914,4.368,4.914a6.585,6.585,0,0,0,2.919-.777l.168-1.407-.189-.105a5.13,5.13,0,0,1-2.814.945c-1.932,0-2.877-1.386-2.877-3.654Zm2.793-3.7c1.155,0,1.974.693,1.974,2.2l-.042.252-4.62.126C85.911,98.335,86.877,97.411,88.3,97.411ZM103.635,106h1.68l-.084-4.179.042-2.73c.021-1.806-1.071-2.835-3.213-2.835a6.611,6.611,0,0,0-2.667,1.491h-.126l.021-1.407-1.6.147.084,5.439L97.671,106H99.33l-.084-4.221.021-2.646a4.164,4.164,0,0,1,2.835-1.491c1.113,0,1.659.714,1.638,1.827Zm5.649-4.893,5.859-.021.357-.273c.021-.252.042-.735.042-.966,0-2.268-1.218-3.612-3.318-3.612-2.751,0-4.515,1.911-4.515,5.019,0,3.024,1.617,4.914,4.368,4.914a6.585,6.585,0,0,0,2.919-.777l.168-1.407-.189-.105a5.13,5.13,0,0,1-2.814.945c-1.932,0-2.877-1.386-2.877-3.654Zm2.793-3.7c1.155,0,1.974.693,1.974,2.2l-.042.252-4.62.126C109.683,98.335,110.649,97.411,112.077,97.411Zm14.217-1.344-.168-.126c-.987.273-2.037.525-3.045.714a4.334,4.334,0,0,0-1.89-.378c-2.247,0-3.738,1.239-3.738,3.36a2.976,2.976,0,0,0,1.365,2.688v.084a4.138,4.138,0,0,0-1.281,1.281c0,.945.672,1.407,1.575,1.68v.1a4.555,4.555,0,0,0-1.848,1.827c0,1.575,1.239,2.751,3.549,2.751,2.52,0,4.515-1.407,4.515-3.192,0-3.087-6.237-1.806-6.237-3.36,0-.273.147-.462.609-.819a4.895,4.895,0,0,0,1.3.168c2.352,0,3.78-1.323,3.78-3.339a3.277,3.277,0,0,0-.462-1.785l.042-.084a17.36,17.36,0,0,0,1.932-.441Zm-5.208,5.649a1.956,1.956,0,0,1-2.142-2.142,2,2,0,0,1,2.226-2.184,1.909,1.909,0,0,1,2.121,2.1A2.027,2.027,0,0,1,121.086,101.716Zm2.772,5.46c0,.966-1.239,1.7-2.856,1.7-1.491,0-2.268-.63-2.268-1.407,0-.672.609-1.239,1.617-1.848C122.031,105.895,123.858,105.979,123.858,107.176Zm9.7-15.792-.189-.021c-1.176,1.155-2.289,2.1-3.444,3.045l.462.672.189.021c1.2-.84,2.331-1.7,3.57-2.667l.042-.168Zm-1.995,4.83c-2.772,0-4.368,1.869-4.368,5.1,0,3.087,1.512,4.851,4.137,4.851,2.772,0,4.368-1.869,4.368-5.1C135.7,97.978,134.19,96.214,131.565,96.214Zm-.084,1.176c1.722,0,2.667,1.386,2.667,4.053,0,2.352-.945,3.528-2.709,3.528-1.722,0-2.667-1.323-2.667-4.032C128.772,98.629,129.717,97.39,131.481,97.39Zm10.29-1.176c-2.646,0-4.263,1.953-4.263,5.04,0,3.045,1.554,4.914,4.1,4.914a6.813,6.813,0,0,0,2.562-.546l.189-1.407-.189-.1a4.717,4.717,0,0,1-2.352.714c-1.722,0-2.73-1.407-2.73-3.654,0-2.268.987-3.591,2.625-3.591a4.088,4.088,0,0,1,2.163.714l.189-.063.294-1.449A6.385,6.385,0,0,0,141.771,96.214Zm5.5-4.137a.926.926,0,0,0-.987.987.863.863,0,0,0,.924.966A.938.938,0,0,0,148.2,93,.86.86,0,0,0,147.273,92.077Zm.651,9.7.126-5.439-1.659.147.084,5.439L146.37,106h1.659Zm7.056-5.565c-2.793,0-4.389,1.869-4.389,5.1,0,3.087,1.512,4.851,4.137,4.851,2.793,0,4.368-1.869,4.368-5.1C159.1,97.978,157.584,96.214,154.98,96.214Zm-.1,1.176c1.722,0,2.667,1.386,2.667,4.053,0,2.352-.945,3.528-2.709,3.528-1.722,0-2.667-1.323-2.667-4.032C152.166,98.629,153.111,97.39,154.875,97.39Zm9.45-1.155c-2.079,0-3.318,1.176-3.318,2.772,0,2.982,4.389,2.583,4.389,4.515a1.578,1.578,0,0,1-1.743,1.449,4.132,4.132,0,0,1-2.562-1.05l-.189.126-.21,1.428a6.169,6.169,0,0,0,2.793.693c2.226,0,3.423-1.407,3.423-2.94,0-2.9-4.368-2.5-4.368-4.431a1.455,1.455,0,0,1,1.6-1.365,3.643,3.643,0,0,1,2.016.693l.252-.063.231-1.365A6.123,6.123,0,0,0,164.325,96.235Zm5.544,7.917a.926.926,0,0,0-.987.987.863.863,0,0,0,.924.966.932.932,0,0,0,.987-1.008A.866.866,0,0,0,169.869,104.152Z" transform="translate(1007.662 4035.196)" fill="#fff"/>
    <g id="Grupo_233479" data-name="Grupo 233479" transform="translate(-25.858 -343)">
      <path id="Caminho_770289" data-name="Caminho 770289" d="M293.756,374.317c-8.887-13.656-13.643-31.666-12.653-47.122a52.306,52.306,0,0,1,1.62-10.211c.221-.836-.782-1.714-1.4-.895-6.523,8.668-16.1,8.388-25.844,6.518-9.6-1.837-19.89-2.979-29.163-6.2.079-1.387.165-2.773.27-4.164.082-1.064-1.565-1.357-1.649-.284-.1,1.374-.187,2.752-.264,4.131a.8.8,0,0,0-.078,1.48c-.1,2-.182,4-.249,6.009-.006.084,0,.169-.012.262-.177,5.3-.262,10.607-.432,15.908a46.419,46.419,0,0,1-1.527,10.558,36.67,36.67,0,0,1-5.906,12.518c-4.958,6.689-12.348,10.9-18.154,16.742a.847.847,0,0,0,.285,1.3c7.192,4.358,15.015,7.271,23.028,9.725,8.7,2.666,16.824,5.394,25.943,3.371,4.228-.941,8.348-2.284,12.658-2.812,4.2-.5,8.354-.8,12.511-1.717a70.61,70.61,0,0,0,12.575-4.1q2.585-.151,5.12-.5c2.062-.289,5.841-.79,6.671-3.091.9-2.467-2.092-5.48-3.352-7.421" transform="translate(686.998 4151.219)" fill="#ffa694"/>
      <path id="Caminho_770290" data-name="Caminho 770290" d="M288.205,94.9c-.418,1-1.932.277-1.515-.712.438-1.062.884-2.122,1.315-3.193-2.748,2.054-7.922,2.128-10.672,3.554-3.115,1.618-4.135,4.574-6.482,6.909a34.849,34.849,0,0,1-7.3,4.995,72.918,72.918,0,0,1-59.159,5.735c-4.093-1.412-8.361-3.287-11.2-6.681a12.006,12.006,0,0,1-2.6-5.949,51.337,51.337,0,0,1-.477-5.982,10.816,10.816,0,0,0-3.884-8.421c-1.2-1.089-2.311-1.952-2.875-3.5a13.482,13.482,0,0,1-.253-6.987,23.373,23.373,0,0,1-2.647-2.808c-3.022-3.782-4.221-8.19-2.594-14.216,1.031-3.8,2.26-7.775,4.5-11.055,1.451-2.109,3.574-3.44,4.346-5.844.9-2.772.1-6.12-.022-9.01-.386-8.622,1.821-16.237,9.748-20.656A26,26,0,0,1,209,7.976c3.015-3.3,29.42-8.332,67.97,14.648,4.835.216,6.171-.808,11.663,2.2,4.42,2.315,6.373,8.8,6.354,11.369,1.441,13.822.047,28.33,0,33.856-.242,16.869-3.5,16.957-6.781,24.852" transform="translate(698.708 4325)" fill="#9b9b9b"/>
      <path id="Caminho_770291" data-name="Caminho 770291" d="M217.5,151.865c-1.347.769-2.74,1.564-4.177,2.266-.371.182-.75.363-1.136.534-.186.095-.378.172-.569.25-.385.163-.768.317-1.166.46-.2.076-.39.145-.587.2-.5.167-1.014.317-1.535.439a4.511,4.511,0,0,1-.442.1c-.449.092-.9.176-1.354.224l-.442.051-.462.022c-.283.019-.555.023-.834.017-.338-.008-.675-.023-1.017-.057a6.968,6.968,0,0,1-.824-.142,1.422,1.422,0,0,1-.251-.069.464.464,0,0,1-.145-.042,1.01,1.01,0,0,1-.154-.043c-1.785-.572-3.448-1.759-5.19-2.382a5.911,5.911,0,0,0-2.539-.388c-2.873.267-4.289,3.308-7.26,3.6a6.135,6.135,0,0,1-2.751-.34,23.407,23.407,0,0,0,2.647,2.809,13.493,13.493,0,0,0,.253,6.987c.565,1.549,1.68,2.412,2.875,3.5a10.451,10.451,0,0,1,3.751,6.98c.064.461.11.936.133,1.44a51.228,51.228,0,0,0,.478,5.981c.374-.054.743-.126,1.123-.213a20.849,20.849,0,0,0,4.238-1.44,16.093,16.093,0,0,0,1.608-.86c.153-.1.3-.193.449-.287a15.52,15.52,0,0,0,4.717-4.948,23.021,23.021,0,0,0,1.991-4.206c.292-.807.567-1.608.845-2.384.582-1.648,1.164-3.245,1.872-4.794a22.906,22.906,0,0,1,2.815-4.7c1.939-2.475,3.8-4.573,4.352-7.745a.852.852,0,0,0-1.308-.829" transform="translate(694.509 4240.285)" fill="#9b9b9b"/>
      <path id="Caminho_770292" data-name="Caminho 770292" d="M262.4,219.49c14.491,3.569,27.431-4.667,35.082-17.351,3.479-5.768,8.35-14.411,9.949-20.955,2.9-11.881,4.328-24.067,5.712-36.218q1.219-10.695,2.4-21.394c.369-3.333.721-6.8-.408-9.96-1.277-3.574-4.257-6.224-7.122-8.712-3.617-3.141-7.281-6.314-11.543-8.5-8.414-4.317-18.329-4.4-27.76-3.7-10.773.795-21.805,2.589-31.029,8.213-4.84,2.951-9.175,7.073-11.269,12.341-1.59,4-1.8,8.4-1.963,12.7-.614,16.354-.762,32.932,3.076,48.841,4.021,16.667,13.561,35.8,30.051,43.048a29.019,29.019,0,0,0,4.821,1.646" transform="translate(672.479 4273.43)" fill="#ffa694"/>
      <path id="Caminho_770293" data-name="Caminho 770293" d="M420.116,206.7c-.9-1.743-2.524-4.274-4.591-4.878a2.921,2.921,0,0,0-.534-.115c-.1-.012-.209-.017-.309-.021a3.533,3.533,0,0,0-.922.1,2.658,2.658,0,0,0-.339.085,7.218,7.218,0,0,0-1.857.929,31.417,31.417,0,0,0-5.59,5.6c-.7.807.68,1.759,1.376.95.069-.084.148-.176.225-.259a55.777,55.777,0,0,0-2.463,6.079c-.182.526-.348,1.062-.5,1.6a50.757,50.757,0,0,0-2.213,16.271c.153,5.351,4.234,3.933,7.915,1.429a34.475,34.475,0,0,0,5.287-4.5c4.938-5.367,8.019-16.487,4.518-23.271" transform="translate(572.963 4212.405)" fill="#ffa694"/>
      <path id="Caminho_770294" data-name="Caminho 770294" d="M217.527,221.675a53.38,53.38,0,0,0-1.34-16.656c.05.1.117.207.169.3.508.937,2.062.3,1.545-.641-.472-.854-1.1-2.075-1.846-3.315a16.164,16.164,0,0,0-3.129-3.945,5.192,5.192,0,0,0-1.7-1,3.1,3.1,0,0,0-.769-.167,2.84,2.84,0,0,0-.6.006c-2.122.193-4.211,2.311-5.438,3.813a11.489,11.489,0,0,0-1.111,1.616c-3.586,6.213-2.706,16.347.7,22.088,1.577,2.666,7.326,10.263,10.523,8.609.753-.379,1.366-1.275,1.751-2.864a50.345,50.345,0,0,0,1.246-7.848" transform="translate(685.383 4215.443)" fill="#ffa694"/>
      <path id="Caminho_770295" data-name="Caminho 770295" d="M373.425,214.283a16.116,16.116,0,0,0,.466-5.029,4.572,4.572,0,0,0-.856-2.26c-1.492-1.822-3.555-.294-4.131,1.37-.747,2.162-1.057,6.981.92,8.265,2.047,1.33,3.036-.191,3.6-2.346" transform="translate(590.325 4209.901)"/>
      <path id="Caminho_770296" data-name="Caminho 770296" d="M274.607,212.228a15.735,15.735,0,0,0,.071-4.935,4.468,4.468,0,0,0-1.006-2.137c-1.593-1.662-3.487-.016-3.92,1.649-.563,2.163-.5,6.882,1.526,7.982,2.1,1.14,2.943-.417,3.329-2.559" transform="translate(648.818 4210.853)"/>
      <path id="Caminho_770300" data-name="Caminho 770300" d="M259.563,173.386a21.548,21.548,0,0,0-10,1.041,25.948,25.948,0,0,0-5.007,2.3c-.093.059-.21.122-.345.205-1.17.683-3.588,2.1-3.319,3.347.078.339.438.53.766.647.291.111.586.2.882.281a14.374,14.374,0,0,0,5.309.289c4.159-.462,8.07-1.542,12.274-1.209,2.015.166,6.487.652,6.73-2.326.27-3.269-4.95-4.247-7.285-4.574" transform="translate(666.351 4228.823)" fill="#9b9b9b"/>
      <path id="Caminho_770301" data-name="Caminho 770301" d="M362.47,173.1a19.076,19.076,0,0,0-8.861-.8c-2.055.314-6.657,1.238-6.386,4.122.319,3.307,6.629,1.714,8.457,1.783,2.825.107,5.58.857,8.382,1.134,1.605.157,4.672.566,5.879-.837,1.55-1.806-6.256-5-7.471-5.4" transform="translate(605.194 4229.922)" fill="#9b9b9b"/>
      <path id="Caminho_770302" data-name="Caminho 770302" d="M311.327,115.567c.237-6.579-.583-12.935-3.628-18.842a47.66,47.66,0,0,0-19.15-19.3c-.814-.446-1.632-.868-2.465-1.258a37.8,37.8,0,0,0-10.341-3.179,28.808,28.808,0,0,0-7.367-.1c-1.022.12-2.05.273-3.059.464a81.149,81.149,0,0,0-10.586,3.009,172.115,172.115,0,0,0-22.366,9.334c-3.142,1.579-6.646,3.1-9.224,5.536-2.549,2.42-4.226,5.839-5.93,8.872-1.621,2.895-3.735,6.094-4.352,9.468a12.093,12.093,0,0,0-.153,1.23c-.284,4.144,4.215,7.68,3.338,11.578a.7.7,0,0,0-.515.819,17.348,17.348,0,0,0,.854,4.094,2.516,2.516,0,0,0,1.364,1.535.03.03,0,0,0,.023.012,1.556,1.556,0,0,0,1.68-.389,6.579,6.579,0,0,0,1.374-2.6c1.353-3.95,1.512-8.261,1.837-12.4.007-.041.006-.084.013-.125,2.147-.291,11.017-18.48,12.091-19.44.333-.307,31.443-6.043,38.434-7.555,4.908,1.069,10.072,3.947,14.5,5.867a143.883,143.883,0,0,1,15.331,7.7.735.735,0,0,0,.354.112l-.1,25.829c-.007,1.17-.2,5.287.879,7.341a2.35,2.35,0,0,0,.774.923c.458.3,4.556-5.095,4.874-6.542a67.1,67.1,0,0,0,1.512-12" transform="translate(678.857 4284.414)" fill="#9b9b9b"/>
      <path id="Caminho_770320" data-name="Caminho 770320" d="M302.628,351.153c-1.181-.289-3.631.862-4.808,1.287-2.453.883-4.371,1.766-7.045,1.966-4.361.333-9.14.874-13.471.151-8.826-1.482-15.609-7.764-21.571-14.083-.244-.254-.489-.509-.724-.77-.178,5.3-.263,10.607-.432,15.908a46.421,46.421,0,0,1-1.527,10.559c.51-.005,1.022-.019,1.511,0,22.2,3.047,39.513-5.741,46.459-12.547a.161.161,0,0,0,.026-.055c.321-.531,2.216-2.253,1.582-2.413" transform="translate(656.327 4135.352)"/>
      <path id="Caminho_770321" data-name="Caminho 770321" d="M320.311,305.318a34.144,34.144,0,0,0-4.335.1c-2.959.088-5.919.177-8.879.245-2.435.057-4.87.1-7.307.113-2.155.01-7.08-.383-7.218-.339-.6.189,1.184,2.247,1.478,2.534a23.319,23.319,0,0,0,3.891,3.14c5.332,3.328,11.929,2.544,17.343-.058a13.345,13.345,0,0,0,3.813-2.643c.28-.289,2.38-2.975,1.214-3.093" transform="translate(634.331 4154.577)" fill="#fff" stroke="#000" stroke-width="1"/>
      <path id="Caminho_770322" data-name="Caminho 770322" d="M222.881,403.156s8.356-13.562,9.955-14.028,33.889,32.243,33.889,32.243,32.869-33.633,35.952-31.911,10.1,19.6,10.1,19.6-45.355,64.832-46.047,64.712-32.746-30.368-33.889-32.348-13.188-32.364-13.188-32.364" transform="translate(673.479 4107.765)" fill="#fff"/>
      <path id="Caminho_770330" data-name="Caminho 770330" d="M296.517,401.359c3.083,1.721,16.17,9.878,16.17,9.878L277.32,461.071l-10.68-29.852c-.26-.045-10.967,30.11-10.706,29.852-9.441-13.51-36.766-51.972-36.766-51.972l17.655-7.74" transform="translate(673.564 4097.875)" fill="none" stroke="#000" stroke-width="1"/>
      <rect id="Retângulo_124886" data-name="Retângulo 124886" width="293.526" height="274.73" transform="translate(797.599 4325)" fill="none"/>
      <path id="Caminho_770329" data-name="Caminho 770329" d="M7.6,10.321a8.414,8.414,0,0,1-3.474.567C2.322,10.812,1.948,9.223,1.82,7.713A59.832,59.832,0,0,1,1.7.8C1.738-.268.075-.267.041.8c-.068,2.169-.061,4.34.087,6.5A8.225,8.225,0,0,0,.875,10.9c1.37,2.381,5.02,1.864,7.17,1.026.986-.384.558-1.993-.442-1.6" transform="translate(940.662 4429.221) rotate(19)"/>
      <g id="Grupo_233478" data-name="Grupo 233478" transform="translate(765.441 4507.494)">
        <g id="Grupo_233477" data-name="Grupo 233477" clip-path="url(#clip-path)">
          <rect id="Retângulo_124887" data-name="Retângulo 124887" width="350.89" height="118.008" transform="translate(0 0)" fill="url(#linear-gradient)"/>
        </g>
      </g>
      <path id="Caminho_770334" data-name="Caminho 770334" d="M335.182,206.2a204.949,204.949,0,0,1,18.954,39.626,264.7,264.7,0,0,1,7.2,26.122c.5,2.092,1,4.192,1.514,6.284a.426.426,0,0,0,.416.323.408.408,0,0,0,.1-.009.435.435,0,0,0,.314-.519c-.519-2.092-1.02-4.184-1.522-6.284a265.913,265.913,0,0,0-7.22-26.2,206.788,206.788,0,0,0-19.2-40.051c-.2.229-.383.468-.561.706" transform="translate(478.335 4344.71)"/>
      <path id="Caminho_770333" data-name="Caminho 770333" d="M363.752,206.206a205.346,205.346,0,0,0-18.991,39.7,265.226,265.226,0,0,0-7.216,26.173c-.5,2.1-1.005,4.2-1.517,6.3a.427.427,0,0,1-.417.324.408.408,0,0,1-.1-.009.436.436,0,0,1-.315-.52c.52-2.1,1.022-4.192,1.525-6.3a266.439,266.439,0,0,1,7.234-26.25A207.194,207.194,0,0,1,363.19,205.5c.2.23.383.468.562.707" transform="translate(700.007 4346.799)"/>
      <g id="Grupo_233995" data-name="Grupo 233995" transform="translate(770.277 4283.418) rotate(-31)">
        <g id="Grupo_233994" data-name="Grupo 233994" clip-path="url(#clip-path-2)">
          <path id="Caminho_770518" data-name="Caminho 770518" d="M118.562,265.666a13.147,13.147,0,1,1-13.147-13.147,13.147,13.147,0,0,1,13.147,13.147" transform="translate(-61.732 -168.948)" fill="#0e1126"/>
          <path id="Caminho_770519" data-name="Caminho 770519" d="M103,81.043A28.429,28.429,0,1,1,74.575,52.614,28.429,28.429,0,0,1,103,81.043" transform="translate(-30.874 -35.201)" fill="#f5c750"/>
          <path id="Caminho_770520" data-name="Caminho 770520" d="M65.819,193.226c4.67,6,8.753,11.809,8.753,21.288H87.737V193.226Z" transform="translate(-44.036 -129.278)" fill="#f5c750"/>
          <path id="Caminho_770521" data-name="Caminho 770521" d="M153.966,193.226c-4.67,6-8.753,11.809-8.753,21.288H132.048V193.226Z" transform="translate(-88.347 -129.278)" fill="#f5c750"/>
          <rect id="Retângulo_124924" data-name="Retângulo 124924" width="26.294" height="11.482" transform="translate(30.536 85.236)" fill="#0e1126"/>
          <path id="Caminho_770522" data-name="Caminho 770522" d="M101.352,167.637c-.068-5.72-.046-11.442-.032-17.163q.01-4.343.022-8.685c0-2.442-.048-4.891.1-7.33a19.447,19.447,0,0,1,1.783-7.767,7.784,7.784,0,0,1,5.834-4.4,4.8,4.8,0,0,1,5.1,2.737,5.527,5.527,0,0,1,.017,3.556,12.216,12.216,0,0,1-1.622,3.514c-2.947,4.384-8.446,6.273-13.536,6.337a30.065,30.065,0,0,1-9.281-1.493,16.9,16.9,0,0,1-7.985-5.026c-1.893-2.222-3.461-5.16-3.423-8.148a5.939,5.939,0,0,1,3.43-5.54,6.473,6.473,0,0,1,6.3,1.085,12.081,12.081,0,0,1,4.152,7.354,36.926,36.926,0,0,1,.327,8.7c-.117,2.772-.142,5.54-.148,8.314-.013,6.194.006,12.388.015,18.582q0,1.924,0,3.847a.5.5,0,0,0,.993,0c0-6.317-.023-12.635-.021-18.952,0-2.942-.037-5.89.039-8.831a90.268,90.268,0,0,0,.115-9.17,15.937,15.937,0,0,0-2.83-8.517,8.774,8.774,0,0,0-6.732-3.811,6.393,6.393,0,0,0-5.729,3.344c-1.438,2.683-.967,5.812.249,8.479a16.5,16.5,0,0,0,6.22,7.125,26.824,26.824,0,0,0,10.1,3.322c5.523.851,11.571.018,16-3.633a13.263,13.263,0,0,0,4.351-6.728,6.474,6.474,0,0,0,0-3.849,5.28,5.28,0,0,0-2.053-2.639,6.822,6.822,0,0,0-7.025-.009,10.64,10.64,0,0,0-4.745,6.55,31.134,31.134,0,0,0-.982,8.344c-.032,2.637-.012,5.275-.019,7.912-.017,6.264-.043,12.528-.013,18.792q.009,1.9.03,3.794a.5.5,0,0,0,.993,0" transform="translate(-51.755 -78.166)" fill="#0e1126"/>
          <path id="Caminho_770523" data-name="Caminho 770523" d="M232.918,102.07l11.457-4.844a.5.5,0,0,0,.178-.679.509.509,0,0,0-.679-.178l-11.457,4.844a.5.5,0,0,0-.178.679.509.509,0,0,0,.679.178" transform="translate(-155.338 -64.437)" fill="#0e1126"/>
          <path id="Caminho_770524" data-name="Caminho 770524" d="M195.719,32.013l6.633-11.274a.5.5,0,0,0-.857-.5l-6.633,11.274a.5.5,0,0,0,.857.5" transform="translate(-130.324 -13.38)" fill="#0e1126"/>
          <path id="Caminho_770525" data-name="Caminho 770525" d="M59.508,31.512,52.875,20.238a.5.5,0,0,0-.857.5l6.633,11.274a.5.5,0,0,0,.857-.5" transform="translate(-34.754 -13.38)" fill="#0e1126"/>
          <path id="Caminho_770526" data-name="Caminho 770526" d="M12.2,101.215.743,96.37a.515.515,0,0,0-.679.178.5.5,0,0,0,.178.68L11.7,102.072a.514.514,0,0,0,.679-.178.5.5,0,0,0-.178-.679" transform="translate(0 -64.439)" fill="#0e1126"/>
          <path id="Caminho_770527" data-name="Caminho 770527" d="M133.384.48V12.005a.5.5,0,0,0,.993,0V.48a.5.5,0,0,0-.993,0" transform="translate(-89.241 0)" fill="#0e1126"/>
          <path id="Caminho_770528" data-name="Caminho 770528" d="M98.088,297.955l18.326-4.966,5.259-1.425a.5.5,0,0,0-.264-.957l-18.326,4.966L97.824,297a.5.5,0,0,0,.264.957" transform="translate(-65.214 -194.418)" fill="#e5e3f2"/>
          <path id="Caminho_770529" data-name="Caminho 770529" d="M93,273.259l19.706-5.339,5.562-1.507a.5.5,0,0,0-.264-.957L98.3,270.794,92.738,272.3a.5.5,0,0,0,.264.957" transform="translate(-61.811 -177.59)" fill="#e5e3f2"/>
        </g>
      </g>
    </g>
  </g>
</svg>
