<svg xmlns="http://www.w3.org/2000/svg" width="792.078" height="534.131" viewBox="0 0 792.078 534.131">
  <g id="_img_Grafico_6_" data-name="&lt;img Grafico_6&gt;" transform="translate(-529.279 -8410)">
    <path id="Caminho_758824" data-name="Caminho 758824" d="M225.323.02V226.93H0C1.642,102.885,101.479,2.5,225.323.02" transform="translate(861.224 8484.017)" fill="#40bbff"/>
    <path id="Caminho_758825" data-name="Caminho 758825" d="M460.086,128.5c-2.335,125.066-104.434,225.724-230.047,225.724C104.444,354.224,2.345,253.566.01,128.5Z" transform="translate(861.271 8589.906)" fill="#0024a9"/>
    <path id="Caminho_758826" data-name="Caminho 758826" d="M354.947,226.946H127.6V0C252.392,1.441,353.306,102.227,354.947,226.946" transform="translate(966.39 8484)" fill="#3b4aff"/>
    <rect id="Retângulo_124651" data-name="Retângulo 124651" width="460.113" height="460.131" transform="translate(718.943 8484)" fill="none"/>
    <path id="Caminho_771843" data-name="Caminho 771843" d="M11.84-7.136,5.568-22.4H.576L9.92,0h3.84L23.1-22.4H18.112Zm19.3,4.064A4.137,4.137,0,0,1,26.88-6.144l9.6-1.12A8.269,8.269,0,0,0,36.9-9.888c0-3.968-2.88-6.272-6.72-6.272-4.544,0-7.84,3.2-7.84,8.256,0,5.024,3.3,8.384,8.48,8.384a9.652,9.652,0,0,0,5.7-1.76L34.848-4.192A7.183,7.183,0,0,1,31.136-3.072Zm-.7-9.632c1.408,0,2.432.736,2.432,2.112a2.472,2.472,0,0,1-.1.8l-6.08.736C27.008-11.1,28.288-12.7,30.432-12.7ZM50.5-16.16c-3.04,0-4.864,1.856-5.952,4.576l.384-4.1h-4.48V0h4.48c0-5.088.288-12.288,4.192-12.288,1.984,0,2.176,2.112,2.176,3.424V0h4.512V-10.112C55.808-13.888,53.856-16.16,50.5-16.16Zm20.032.192a12.326,12.326,0,0,0-2.208-.192c-6.336,0-9.056,4.608-9.056,9.344,0,4.288,2.208,7.3,5.856,7.3,2.944,0,4.768-2.112,5.888-4.96L70.528,0H75.04V-23.168H70.528ZM66.5-3.136c-1.44,0-2.56-.928-2.56-3.84,0-2.208.768-5.76,4.32-5.76a5.251,5.251,0,0,1,2.24.544C70.24-8,69.312-3.136,66.5-3.136ZM87.68-16.16c-6.336,0-9.056,4.608-9.056,9.344,0,4.288,2.208,7.3,5.856,7.3,2.944,0,4.768-2.08,5.888-4.928L89.888,0H94.4V-14.112A11.764,11.764,0,0,0,87.68-16.16ZM85.856-3.136c-1.44,0-2.56-.928-2.56-3.84,0-2.208.768-5.76,4.32-5.76a5.251,5.251,0,0,1,2.24.544C89.6-8,88.672-3.136,85.856-3.136ZM104.192.48c3.872,0,6.688-1.664,6.688-5.28,0-5.568-8.1-3.936-8.1-6.4,0-1.024,1.28-1.312,2.464-1.312a8.366,8.366,0,0,1,3.9.96l1.536-3.136A12.438,12.438,0,0,0,104.8-16.16c-3.232,0-6.528,1.344-6.528,4.928,0,5.856,8.128,4.16,8.128,6.752,0,.864-.864,1.344-2.432,1.344A9.8,9.8,0,0,1,99.1-4.512L97.472-1.248A13.694,13.694,0,0,0,104.192.48Zm28.7-16.64c-2.976,0-4.832,2.144-5.92,5.024l.48-4.544h-4.48V6.848h4.48V.288A12.689,12.689,0,0,0,129.7.48c6.336,0,9.056-4.608,9.056-9.344C138.752-13.152,136.544-16.16,132.9-16.16ZM129.76-2.944a5.282,5.282,0,0,1-2.272-.544c.256-4.192,1.184-9.088,4.032-9.088,1.408,0,2.56.96,2.56,3.84C134.08-6.5,133.28-2.944,129.76-2.944ZM149.632.48a7.914,7.914,0,0,0,8.192-8.32,7.9,7.9,0,0,0-8.192-8.32,7.9,7.9,0,0,0-8.224,8.32A7.922,7.922,0,0,0,149.632.48Zm0-3.648c-2.368,0-3.584-2.176-3.584-4.672s1.216-4.672,3.584-4.672c2.336,0,3.552,2.176,3.552,4.672S151.968-3.168,149.632-3.168Zm21.6-12.992c-3.456,0-5.184,2.56-6.08,5.984l.544-5.5h-4.48V0h4.48c0-5.184.32-11.52,4.576-11.52a5.077,5.077,0,0,1,1.6.288l1.184-4.672A6.609,6.609,0,0,0,171.232-16.16Zm23.9,12.64c-4.16,0-6.656-3.3-6.656-7.68s2.5-7.68,6.656-7.68a7.639,7.639,0,0,1,4.448,1.408l2.08-3.264a11.582,11.582,0,0,0-6.88-2.144c-7.008,0-11.2,4.96-11.2,11.68,0,6.752,4.192,11.68,11.2,11.68a11.509,11.509,0,0,0,6.88-2.144l-2.08-3.264A7.858,7.858,0,0,1,195.136-3.52Zm18.112-12.64c-6.336,0-9.056,4.608-9.056,9.344,0,4.288,2.208,7.3,5.856,7.3,2.944,0,4.768-2.08,5.888-4.928L215.456,0h4.512V-14.112A11.764,11.764,0,0,0,213.248-16.16ZM211.424-3.136c-1.44,0-2.56-.928-2.56-3.84,0-2.208.768-5.76,4.32-5.76a5.251,5.251,0,0,1,2.24.544C215.168-8,214.24-3.136,211.424-3.136ZM231.808.48a10.3,10.3,0,0,0,3.584-.672l-.928-3.52a4.575,4.575,0,0,1-1.6.32c-1.664,0-2.464-.992-2.464-2.976v-5.76h4.384V-15.68H230.4v-4.9h-2.976l-.32,1.728c-.48,2.528-.736,3.168-3.616,3.168h-.48v3.552h2.912V-5.6C225.92-1.856,227.9.48,231.808.48Zm14.3-3.552a4.137,4.137,0,0,1-4.256-3.072l9.6-1.12a8.269,8.269,0,0,0,.416-2.624c0-3.968-2.88-6.272-6.72-6.272-4.544,0-7.84,3.2-7.84,8.256,0,5.024,3.3,8.384,8.48,8.384a9.652,9.652,0,0,0,5.7-1.76l-1.664-2.912A7.183,7.183,0,0,1,246.112-3.072Zm-.7-9.632c1.408,0,2.432.736,2.432,2.112a2.472,2.472,0,0,1-.1.8l-6.08.736C241.984-11.1,243.264-12.7,245.408-12.7Zm18.336-3.456c-6.336,0-9.056,4.608-9.056,9.344,0,4.288,2.208,7.3,5.856,7.3,2.88,0,4.7-2.016,5.824-4.8v2.976c0,3.36-1.792,4.96-4.576,4.96A7.945,7.945,0,0,1,257.5,2.3L255.52,5.5a11.57,11.57,0,0,0,6.368,1.824c4.928,0,8.576-3.072,8.576-8.672V-14.112A11.764,11.764,0,0,0,263.744-16.16ZM261.92-3.136c-1.44,0-2.56-.928-2.56-3.84,0-2.208.768-5.76,4.32-5.76a4.824,4.824,0,0,1,2.24.544C265.664-8,264.768-3.136,261.92-3.136ZM282.112.48A7.914,7.914,0,0,0,290.3-7.84a7.9,7.9,0,0,0-8.192-8.32,7.9,7.9,0,0,0-8.224,8.32A7.922,7.922,0,0,0,282.112.48Zm0-3.648c-2.368,0-3.584-2.176-3.584-4.672s1.216-4.672,3.584-4.672c2.336,0,3.552,2.176,3.552,4.672S284.448-3.168,282.112-3.168Zm21.6-12.992c-3.456,0-5.184,2.56-6.08,5.984l.544-5.5H293.7V0h4.48c0-5.184.32-11.52,4.576-11.52a5.077,5.077,0,0,1,1.6.288l1.184-4.672A6.609,6.609,0,0,0,303.712-16.16Zm6.784-1.728a2.933,2.933,0,0,0,3.008-3.04A2.941,2.941,0,0,0,310.5-24a2.948,2.948,0,0,0-3.04,3.072A2.94,2.94,0,0,0,310.5-17.888ZM312.736,0V-15.68h-4.48V0ZM325.5-16.16c-6.336,0-9.056,4.608-9.056,9.344,0,4.288,2.208,7.3,5.856,7.3,2.944,0,4.768-2.08,5.888-4.928L327.712,0h4.512V-14.112A11.764,11.764,0,0,0,325.5-16.16ZM323.68-3.136c-1.44,0-2.56-.928-2.56-3.84,0-2.208.768-5.76,4.32-5.76a5.251,5.251,0,0,1,2.24.544C327.424-8,326.5-3.136,323.68-3.136Z" transform="translate(528.703 8434)"/>
    <path id="Caminho_771844" data-name="Caminho 771844" d="M6.867-13.629c-3.906,0-6.153,2.52-6.153,7.014,0,4.347,2.121,6.783,5.9,6.783a7.806,7.806,0,0,0,3.57-.882l.168-1.974-.21-.126a5.655,5.655,0,0,1-3.36,1.155c-2.415,0-3.8-1.764-3.8-5.187,0-3.318,1.344-4.977,3.8-4.977a4.991,4.991,0,0,1,3.108,1.092l.21-.063.4-1.911A7.12,7.12,0,0,0,6.867-13.629ZM15.876-9.87A6.729,6.729,0,0,0,12.1-8.61l.273,1.491.168.105a4.783,4.783,0,0,1,3-1.344,1.382,1.382,0,0,1,1.512,1.575l-.021,1.134-3.318.735a2.237,2.237,0,0,0-2.037,2.331c0,1.68,1.155,2.73,3.108,2.751a6.149,6.149,0,0,0,2.184-1.575h.147A1.635,1.635,0,0,0,18.648.147a3.422,3.422,0,0,0,1.323-.462l.21-1.176-.189-.147a3.212,3.212,0,0,1-.63.084c-.441,0-.609-.168-.609-.714,0-.714.252-4.242.252-4.977C19.005-8.9,17.787-9.87,15.876-9.87Zm1.155,5.46-.063,1.617a2.965,2.965,0,0,1-2.1,1.281,1.21,1.21,0,0,1-1.281-1.344.775.775,0,0,1,.714-.9ZM34.083,0h2.163l-.1-4.242.063-2.73c.021-1.806-1.092-2.835-3.255-2.835a7.616,7.616,0,0,0-2.772,1.575h-.126c-.42-1.008-1.449-1.575-3.024-1.575a6.974,6.974,0,0,0-2.583,1.491H24.3l.021-1.407-2.037.189.1,5.481L22.26,0h2.121l-.1-4.242L24.3-6.8a3.767,3.767,0,0,1,2.52-1.26c1.008,0,1.512.651,1.491,1.7L28.161,0H30.3l-.084-4.242.042-2.6a3.7,3.7,0,0,1,2.478-1.218c1.008,0,1.512.651,1.491,1.7Zm6.111-14.2a1.136,1.136,0,0,0-1.218,1.218A1.066,1.066,0,0,0,40.131-11.8a1.131,1.131,0,0,0,1.176-1.239A1.039,1.039,0,0,0,40.194-14.2Zm.84,9.954L41.2-9.723l-2.142.189.1,5.481L39.039,0h2.142ZM47.1-9.849c-2.226,0-3.528,1.26-3.528,2.919,0,3.045,4.347,2.646,4.347,4.431A1.342,1.342,0,0,1,46.431-1.26a4.437,4.437,0,0,1-2.688-1.134l-.231.147L43.26-.462A7.6,7.6,0,0,0,46.2.189c2.415,0,3.633-1.491,3.633-3.045,0-2.961-4.347-2.583-4.347-4.347a1.226,1.226,0,0,1,1.365-1.155,3.917,3.917,0,0,1,2.142.735l.273-.063.294-1.68A6.649,6.649,0,0,0,47.1-9.849Zm11.991,5.1.357-.336a8.182,8.182,0,0,0,.084-1.05c0-2.31-1.281-3.717-3.528-3.717-2.814,0-4.641,1.911-4.641,5.061,0,3.066,1.68,4.977,4.578,4.977a6.816,6.816,0,0,0,2.94-.714l.252-1.7-.189-.126a5.765,5.765,0,0,1-2.835.882c-1.848,0-2.73-1.2-2.772-3.276ZM57.582-6.153l-4.137.105a2.461,2.461,0,0,1,2.436-2.331c1.05,0,1.743.609,1.743,1.974Zm7.581,4.536c-.861,0-1.239-.336-1.218-1.386l.105-5.271h2.709l.1-1.218-.084-.147H64.092l.042-2.079-.189-.168-1.89.714v1.533H60.774L60.669-8.4l.084.126h1.323L62.1-4.179l-.084,1.512A2.506,2.506,0,0,0,64.491.126,6.063,6.063,0,0,0,66.633-.5l.21-1.344L66.633-2A3.311,3.311,0,0,1,65.163-1.617Zm6.93-8.253a6.729,6.729,0,0,0-3.78,1.26l.273,1.491.168.105a4.783,4.783,0,0,1,3-1.344,1.382,1.382,0,0,1,1.512,1.575l-.021,1.134-3.318.735a2.237,2.237,0,0,0-2.037,2.331C67.893-.9,69.048.147,71,.168a6.149,6.149,0,0,0,2.184-1.575h.147A1.635,1.635,0,0,0,74.865.147a3.422,3.422,0,0,0,1.323-.462l.21-1.176-.189-.147a3.212,3.212,0,0,1-.63.084c-.441,0-.609-.168-.609-.714,0-.714.252-4.242.252-4.977C75.222-8.9,74-9.87,72.093-9.87Zm1.155,5.46-.063,1.617a2.965,2.965,0,0,1-2.1,1.281A1.21,1.21,0,0,1,69.8-2.856a.775.775,0,0,1,.714-.9ZM81.4-9.849c-2.226,0-3.528,1.26-3.528,2.919,0,3.045,4.347,2.646,4.347,4.431A1.342,1.342,0,0,1,80.724-1.26a4.437,4.437,0,0,1-2.688-1.134l-.231.147L77.553-.462a7.6,7.6,0,0,0,2.94.651c2.415,0,3.633-1.491,3.633-3.045,0-2.961-4.347-2.583-4.347-4.347a1.226,1.226,0,0,1,1.365-1.155,3.917,3.917,0,0,1,2.142.735l.273-.063.294-1.68A6.649,6.649,0,0,0,81.4-9.849ZM93.45-9.87c-2.772,0-4.431,1.953-4.431,5.124C89.019-1.68,90.573.189,93.2.189A7.5,7.5,0,0,0,95.76-.294l.21-1.722-.189-.126a5.051,5.051,0,0,1-2.247.63c-1.6,0-2.5-1.26-2.5-3.4,0-2.037.882-3.192,2.373-3.192a4.163,4.163,0,0,1,2.058.651l.21-.084.357-1.785A6.3,6.3,0,0,0,93.45-9.87Zm8.148,0c-2.9,0-4.515,1.869-4.515,5.187,0,3.108,1.533,4.872,4.242,4.872,2.9,0,4.515-1.869,4.515-5.187C105.84-8.106,104.307-9.87,101.6-9.87Zm-.126,1.491c1.575,0,2.373,1.218,2.373,3.864,0,2.2-.8,3.234-2.373,3.234-1.6,0-2.394-1.2-2.394-3.864C99.078-7.308,99.876-8.379,101.472-8.379ZM119.952,0h2.163l-.1-4.242.063-2.73c.021-1.806-1.092-2.835-3.255-2.835a7.616,7.616,0,0,0-2.772,1.575h-.126c-.42-1.008-1.449-1.575-3.024-1.575a6.974,6.974,0,0,0-2.583,1.491h-.147l.021-1.407-2.037.189.1,5.481L108.129,0h2.121l-.1-4.242.021-2.562a3.767,3.767,0,0,1,2.52-1.26c1.008,0,1.512.651,1.491,1.7L114.03,0h2.142l-.084-4.242.042-2.6a3.7,3.7,0,0,1,2.478-1.218c1.008,0,1.512.651,1.491,1.7Zm12.81-14.784c-2.415,0-3.822,1.3-3.8,3.7l.021,1.449h-1.428L127.449-8.4l.084.126h1.449l.042,4.2L128.9,0h2.142l-.147-4.263.063-4.011h2.436l.126-1.218-.063-.147h-2.478L131-11.445c.021-1.218.588-1.806,1.575-1.806a3.846,3.846,0,0,1,1.617.4l.147-.126.126-1.617A8.114,8.114,0,0,0,132.762-14.784Zm6.93,5.082a3.1,3.1,0,0,0-2.646,1.911H136.9l.021-1.932-2.037.189.126,5.481L134.862,0H137l-.147-4.242.021-1.386c.735-1.449,1.47-2.037,2.331-2.037a2.939,2.939,0,0,1,.777.1l.231-.063V-9.66A4.091,4.091,0,0,0,139.692-9.7Zm5.418-.168a6.729,6.729,0,0,0-3.78,1.26l.273,1.491.168.105a4.783,4.783,0,0,1,3-1.344,1.382,1.382,0,0,1,1.512,1.575l-.021,1.134-3.318.735a2.237,2.237,0,0,0-2.037,2.331c0,1.68,1.155,2.73,3.108,2.751A6.149,6.149,0,0,0,146.2-1.407h.147A1.635,1.635,0,0,0,147.882.147a3.422,3.422,0,0,0,1.323-.462l.21-1.176-.189-.147a3.212,3.212,0,0,1-.63.084c-.441,0-.609-.168-.609-.714,0-.714.252-4.242.252-4.977C148.239-8.9,147.021-9.87,145.11-9.87Zm1.155,5.46L146.2-2.793a2.965,2.965,0,0,1-2.1,1.281,1.21,1.21,0,0,1-1.281-1.344.775.775,0,0,1,.714-.9Zm8.148-5.439c-2.226,0-3.528,1.26-3.528,2.919,0,3.045,4.347,2.646,4.347,4.431a1.342,1.342,0,0,1-1.491,1.239,4.437,4.437,0,0,1-2.688-1.134l-.231.147L150.57-.462a7.6,7.6,0,0,0,2.94.651c2.415,0,3.633-1.491,3.633-3.045,0-2.961-4.347-2.583-4.347-4.347a1.226,1.226,0,0,1,1.365-1.155,3.917,3.917,0,0,1,2.142.735l.273-.063.294-1.68A6.649,6.649,0,0,0,154.413-9.849Zm11.991,5.1.357-.336a8.181,8.181,0,0,0,.084-1.05c0-2.31-1.281-3.717-3.528-3.717-2.814,0-4.641,1.911-4.641,5.061,0,3.066,1.68,4.977,4.578,4.977a6.816,6.816,0,0,0,2.94-.714l.252-1.7-.189-.126a5.765,5.765,0,0,1-2.835.882c-1.848,0-2.73-1.2-2.772-3.276Zm-1.512-1.407-4.137.105a2.461,2.461,0,0,1,2.436-2.331c1.05,0,1.743.609,1.743,1.974Zm7.077-3.7c-2.226,0-3.528,1.26-3.528,2.919,0,3.045,4.347,2.646,4.347,4.431A1.342,1.342,0,0,1,171.3-1.26a4.437,4.437,0,0,1-2.688-1.134l-.231.147-.252,1.785a7.6,7.6,0,0,0,2.94.651c2.415,0,3.633-1.491,3.633-3.045,0-2.961-4.347-2.583-4.347-4.347a1.226,1.226,0,0,1,1.365-1.155,3.917,3.917,0,0,1,2.142.735l.273-.063.294-1.68A6.649,6.649,0,0,0,171.969-9.849Zm15.918,5.586.168-10.479-2.142.168.042,4.893a8.851,8.851,0,0,0-1.638-.168c-2.961,0-4.767,1.806-4.767,5.04,0,3.108,1.533,4.935,4.347,4.935a8.577,8.577,0,0,0,2.184-1.449h.168A1.663,1.663,0,0,0,187.8.147a3.4,3.4,0,0,0,1.344-.462l.189-1.176-.189-.147a3.036,3.036,0,0,1-.651.084c-.4,0-.525-.168-.546-.693Zm-3.78-4.116a4.337,4.337,0,0,1,1.869.483l.063,3.822L186-2.709a2.684,2.684,0,0,1-2.058,1.092c-1.47,0-2.352-1.2-2.373-3.444C181.524-7.308,182.532-8.379,184.107-8.379Zm10.92-1.491c-2.9,0-4.515,1.869-4.515,5.187,0,3.108,1.533,4.872,4.242,4.872,2.9,0,4.515-1.869,4.515-5.187C199.269-8.106,197.736-9.87,195.027-9.87ZM194.9-8.379c1.575,0,2.373,1.218,2.373,3.864,0,2.2-.8,3.234-2.373,3.234-1.6,0-2.394-1.2-2.394-3.864C192.507-7.308,193.3-8.379,194.9-8.379Zm9.576-1.47c-2.226,0-3.528,1.26-3.528,2.919,0,3.045,4.347,2.646,4.347,4.431A1.342,1.342,0,0,1,203.8-1.26a4.437,4.437,0,0,1-2.688-1.134l-.231.147-.252,1.785a7.6,7.6,0,0,0,2.94.651c2.415,0,3.633-1.491,3.633-3.045,0-2.961-4.347-2.583-4.347-4.347a1.226,1.226,0,0,1,1.365-1.155,3.917,3.917,0,0,1,2.142.735l.273-.063.294-1.68A6.649,6.649,0,0,0,204.477-9.849ZM216.3-9.87a6.729,6.729,0,0,0-3.78,1.26l.273,1.491.168.105a4.783,4.783,0,0,1,3-1.344,1.382,1.382,0,0,1,1.512,1.575l-.021,1.134-3.318.735A2.237,2.237,0,0,0,212.1-2.583c0,1.68,1.155,2.73,3.108,2.751a6.149,6.149,0,0,0,2.184-1.575h.147A1.635,1.635,0,0,0,219.072.147a3.422,3.422,0,0,0,1.323-.462l.21-1.176-.189-.147a3.212,3.212,0,0,1-.63.084c-.441,0-.609-.168-.609-.714,0-.714.252-4.242.252-4.977C219.429-8.9,218.211-9.87,216.3-9.87Zm1.155,5.46-.063,1.617a2.965,2.965,0,0,1-2.1,1.281,1.21,1.21,0,0,1-1.281-1.344.775.775,0,0,1,.714-.9ZM228.585,0h2.163l-.105-4.242.063-2.73c.021-1.806-1.092-2.835-3.255-2.835a7.141,7.141,0,0,0-2.583,1.491h-.147l.021-1.407-2.037.189.105,5.481L222.684,0h2.142L224.7-4.242l.021-2.562a3.767,3.767,0,0,1,2.52-1.26c1.008,0,1.512.651,1.491,1.7Zm8.82-9.87c-2.9,0-4.515,1.869-4.515,5.187,0,3.108,1.533,4.872,4.242,4.872,2.9,0,4.515-1.869,4.515-5.187C241.647-8.106,240.114-9.87,237.4-9.87Zm-.126,1.491c1.575,0,2.373,1.218,2.373,3.864,0,2.2-.8,3.234-2.373,3.234-1.6,0-2.394-1.2-2.394-3.864C234.885-7.308,235.683-8.379,237.279-8.379Zm9.576-1.47c-2.226,0-3.528,1.26-3.528,2.919,0,3.045,4.347,2.646,4.347,4.431a1.342,1.342,0,0,1-1.491,1.239,4.437,4.437,0,0,1-2.688-1.134l-.231.147-.252,1.785a7.6,7.6,0,0,0,2.94.651c2.415,0,3.633-1.491,3.633-3.045,0-2.961-4.347-2.583-4.347-4.347A1.226,1.226,0,0,1,246.6-8.358a3.917,3.917,0,0,1,2.142.735l.273-.063.294-1.68A6.649,6.649,0,0,0,246.855-9.849Zm12.6,2.415a4.339,4.339,0,0,0-2.478.777l-.147-.168c.672-2,2.415-3.36,5.607-4.494v-.21l-1.6-.966h-.126c-3.906,1.617-6.153,4.515-6.153,8.043,0,2.9,1.365,4.641,4.053,4.641a3.9,3.9,0,0,0,4.242-4.032A3.281,3.281,0,0,0,259.455-7.434Zm-.693,6.174c-1.617,0-2.268-1.092-2.268-3.234l.021-.5a3.826,3.826,0,0,1,2.331-.9c1.344,0,2.1.84,2.1,2.352A2.041,2.041,0,0,1,258.762-1.26Zm10.584-9.408c-3.024,0-4.767,2.037-4.767,5.586,0,3.339,1.638,5.25,4.494,5.25,3.024,0,4.725-2.016,4.725-5.544C273.8-8.757,272.181-10.668,269.346-10.668Zm-.168,1.974c1.932,0,2.961,1.176,2.961,3.57,0,2.268-1.008,3.4-2.94,3.4-1.974,0-2.94-1.176-2.94-3.507S267.225-8.694,269.178-8.694Z" transform="translate(555.426 8681.541)"/>
    <path id="Caminho_771845" data-name="Caminho 771845" d="M6.867-13.629c-3.906,0-6.153,2.52-6.153,7.014,0,4.347,2.121,6.783,5.9,6.783a7.806,7.806,0,0,0,3.57-.882l.168-1.974-.21-.126a5.655,5.655,0,0,1-3.36,1.155c-2.415,0-3.8-1.764-3.8-5.187,0-3.318,1.344-4.977,3.8-4.977a4.991,4.991,0,0,1,3.108,1.092l.21-.063.4-1.911A7.12,7.12,0,0,0,6.867-13.629ZM15.876-9.87A6.729,6.729,0,0,0,12.1-8.61l.273,1.491.168.105a4.783,4.783,0,0,1,3-1.344,1.382,1.382,0,0,1,1.512,1.575l-.021,1.134-3.318.735a2.237,2.237,0,0,0-2.037,2.331c0,1.68,1.155,2.73,3.108,2.751a6.149,6.149,0,0,0,2.184-1.575h.147A1.635,1.635,0,0,0,18.648.147a3.422,3.422,0,0,0,1.323-.462l.21-1.176-.189-.147a3.212,3.212,0,0,1-.63.084c-.441,0-.609-.168-.609-.714,0-.714.252-4.242.252-4.977C19.005-8.9,17.787-9.87,15.876-9.87Zm1.155,5.46-.063,1.617a2.965,2.965,0,0,1-2.1,1.281,1.21,1.21,0,0,1-1.281-1.344.775.775,0,0,1,.714-.9ZM34.083,0h2.163l-.1-4.242.063-2.73c.021-1.806-1.092-2.835-3.255-2.835a7.616,7.616,0,0,0-2.772,1.575h-.126c-.42-1.008-1.449-1.575-3.024-1.575a6.974,6.974,0,0,0-2.583,1.491H24.3l.021-1.407-2.037.189.1,5.481L22.26,0h2.121l-.1-4.242L24.3-6.8a3.767,3.767,0,0,1,2.52-1.26c1.008,0,1.512.651,1.491,1.7L28.161,0H30.3l-.084-4.242.042-2.6a3.7,3.7,0,0,1,2.478-1.218c1.008,0,1.512.651,1.491,1.7Zm6.111-14.2a1.136,1.136,0,0,0-1.218,1.218A1.066,1.066,0,0,0,40.131-11.8a1.131,1.131,0,0,0,1.176-1.239A1.039,1.039,0,0,0,40.194-14.2Zm.84,9.954L41.2-9.723l-2.142.189.1,5.481L39.039,0h2.142ZM47.1-9.849c-2.226,0-3.528,1.26-3.528,2.919,0,3.045,4.347,2.646,4.347,4.431A1.342,1.342,0,0,1,46.431-1.26a4.437,4.437,0,0,1-2.688-1.134l-.231.147L43.26-.462A7.6,7.6,0,0,0,46.2.189c2.415,0,3.633-1.491,3.633-3.045,0-2.961-4.347-2.583-4.347-4.347a1.226,1.226,0,0,1,1.365-1.155,3.917,3.917,0,0,1,2.142.735l.273-.063.294-1.68A6.649,6.649,0,0,0,47.1-9.849Zm11.991,5.1.357-.336a8.182,8.182,0,0,0,.084-1.05c0-2.31-1.281-3.717-3.528-3.717-2.814,0-4.641,1.911-4.641,5.061,0,3.066,1.68,4.977,4.578,4.977a6.816,6.816,0,0,0,2.94-.714l.252-1.7-.189-.126a5.765,5.765,0,0,1-2.835.882c-1.848,0-2.73-1.2-2.772-3.276ZM57.582-6.153l-4.137.105a2.461,2.461,0,0,1,2.436-2.331c1.05,0,1.743.609,1.743,1.974Zm7.581,4.536c-.861,0-1.239-.336-1.218-1.386l.105-5.271h2.709l.1-1.218-.084-.147H64.092l.042-2.079-.189-.168-1.89.714v1.533H60.774L60.669-8.4l.084.126h1.323L62.1-4.179l-.084,1.512A2.506,2.506,0,0,0,64.491.126,6.063,6.063,0,0,0,66.633-.5l.21-1.344L66.633-2A3.311,3.311,0,0,1,65.163-1.617Zm6.93-8.253a6.729,6.729,0,0,0-3.78,1.26l.273,1.491.168.105a4.783,4.783,0,0,1,3-1.344,1.382,1.382,0,0,1,1.512,1.575l-.021,1.134-3.318.735a2.237,2.237,0,0,0-2.037,2.331C67.893-.9,69.048.147,71,.168a6.149,6.149,0,0,0,2.184-1.575h.147A1.635,1.635,0,0,0,74.865.147a3.422,3.422,0,0,0,1.323-.462l.21-1.176-.189-.147a3.212,3.212,0,0,1-.63.084c-.441,0-.609-.168-.609-.714,0-.714.252-4.242.252-4.977C75.222-8.9,74-9.87,72.093-9.87Zm1.155,5.46-.063,1.617a2.965,2.965,0,0,1-2.1,1.281A1.21,1.21,0,0,1,69.8-2.856a.775.775,0,0,1,.714-.9ZM81.4-9.849c-2.226,0-3.528,1.26-3.528,2.919,0,3.045,4.347,2.646,4.347,4.431A1.342,1.342,0,0,1,80.724-1.26a4.437,4.437,0,0,1-2.688-1.134l-.231.147L77.553-.462a7.6,7.6,0,0,0,2.94.651c2.415,0,3.633-1.491,3.633-3.045,0-2.961-4.347-2.583-4.347-4.347a1.226,1.226,0,0,1,1.365-1.155,3.917,3.917,0,0,1,2.142.735l.273-.063.294-1.68A6.649,6.649,0,0,0,81.4-9.849ZM93.45-9.87c-2.772,0-4.431,1.953-4.431,5.124C89.019-1.68,90.573.189,93.2.189A7.5,7.5,0,0,0,95.76-.294l.21-1.722-.189-.126a5.051,5.051,0,0,1-2.247.63c-1.6,0-2.5-1.26-2.5-3.4,0-2.037.882-3.192,2.373-3.192a4.163,4.163,0,0,1,2.058.651l.21-.084.357-1.785A6.3,6.3,0,0,0,93.45-9.87Zm8.148,0c-2.9,0-4.515,1.869-4.515,5.187,0,3.108,1.533,4.872,4.242,4.872,2.9,0,4.515-1.869,4.515-5.187C105.84-8.106,104.307-9.87,101.6-9.87Zm-.126,1.491c1.575,0,2.373,1.218,2.373,3.864,0,2.2-.8,3.234-2.373,3.234-1.6,0-2.394-1.2-2.394-3.864C99.078-7.308,99.876-8.379,101.472-8.379ZM119.952,0h2.163l-.1-4.242.063-2.73c.021-1.806-1.092-2.835-3.255-2.835a7.616,7.616,0,0,0-2.772,1.575h-.126c-.42-1.008-1.449-1.575-3.024-1.575a6.974,6.974,0,0,0-2.583,1.491h-.147l.021-1.407-2.037.189.1,5.481L108.129,0h2.121l-.1-4.242.021-2.562a3.767,3.767,0,0,1,2.52-1.26c1.008,0,1.512.651,1.491,1.7L114.03,0h2.142l-.084-4.242.042-2.6a3.7,3.7,0,0,1,2.478-1.218c1.008,0,1.512.651,1.491,1.7Zm12.81-14.784c-2.415,0-3.822,1.3-3.8,3.7l.021,1.449h-1.428L127.449-8.4l.084.126h1.449l.042,4.2L128.9,0h2.142l-.147-4.263.063-4.011h2.436l.126-1.218-.063-.147h-2.478L131-11.445c.021-1.218.588-1.806,1.575-1.806a3.846,3.846,0,0,1,1.617.4l.147-.126.126-1.617A8.114,8.114,0,0,0,132.762-14.784Zm6.93,5.082a3.1,3.1,0,0,0-2.646,1.911H136.9l.021-1.932-2.037.189.126,5.481L134.862,0H137l-.147-4.242.021-1.386c.735-1.449,1.47-2.037,2.331-2.037a2.939,2.939,0,0,1,.777.1l.231-.063V-9.66A4.091,4.091,0,0,0,139.692-9.7Zm5.418-.168a6.729,6.729,0,0,0-3.78,1.26l.273,1.491.168.105a4.783,4.783,0,0,1,3-1.344,1.382,1.382,0,0,1,1.512,1.575l-.021,1.134-3.318.735a2.237,2.237,0,0,0-2.037,2.331c0,1.68,1.155,2.73,3.108,2.751A6.149,6.149,0,0,0,146.2-1.407h.147A1.635,1.635,0,0,0,147.882.147a3.422,3.422,0,0,0,1.323-.462l.21-1.176-.189-.147a3.212,3.212,0,0,1-.63.084c-.441,0-.609-.168-.609-.714,0-.714.252-4.242.252-4.977C148.239-8.9,147.021-9.87,145.11-9.87Zm1.155,5.46L146.2-2.793a2.965,2.965,0,0,1-2.1,1.281,1.21,1.21,0,0,1-1.281-1.344.775.775,0,0,1,.714-.9Zm8.148-5.439c-2.226,0-3.528,1.26-3.528,2.919,0,3.045,4.347,2.646,4.347,4.431a1.342,1.342,0,0,1-1.491,1.239,4.437,4.437,0,0,1-2.688-1.134l-.231.147L150.57-.462a7.6,7.6,0,0,0,2.94.651c2.415,0,3.633-1.491,3.633-3.045,0-2.961-4.347-2.583-4.347-4.347a1.226,1.226,0,0,1,1.365-1.155,3.917,3.917,0,0,1,2.142.735l.273-.063.294-1.68A6.649,6.649,0,0,0,154.413-9.849Zm11.991,5.1.357-.336a8.181,8.181,0,0,0,.084-1.05c0-2.31-1.281-3.717-3.528-3.717-2.814,0-4.641,1.911-4.641,5.061,0,3.066,1.68,4.977,4.578,4.977a6.816,6.816,0,0,0,2.94-.714l.252-1.7-.189-.126a5.765,5.765,0,0,1-2.835.882c-1.848,0-2.73-1.2-2.772-3.276Zm-1.512-1.407-4.137.105a2.461,2.461,0,0,1,2.436-2.331c1.05,0,1.743.609,1.743,1.974Zm7.077-3.7c-2.226,0-3.528,1.26-3.528,2.919,0,3.045,4.347,2.646,4.347,4.431A1.342,1.342,0,0,1,171.3-1.26a4.437,4.437,0,0,1-2.688-1.134l-.231.147-.252,1.785a7.6,7.6,0,0,0,2.94.651c2.415,0,3.633-1.491,3.633-3.045,0-2.961-4.347-2.583-4.347-4.347a1.226,1.226,0,0,1,1.365-1.155,3.917,3.917,0,0,1,2.142.735l.273-.063.294-1.68A6.649,6.649,0,0,0,171.969-9.849Zm15.918,5.586.168-10.479-2.142.168.042,4.893a8.851,8.851,0,0,0-1.638-.168c-2.961,0-4.767,1.806-4.767,5.04,0,3.108,1.533,4.935,4.347,4.935a8.577,8.577,0,0,0,2.184-1.449h.168A1.663,1.663,0,0,0,187.8.147a3.4,3.4,0,0,0,1.344-.462l.189-1.176-.189-.147a3.036,3.036,0,0,1-.651.084c-.4,0-.525-.168-.546-.693Zm-3.78-4.116a4.337,4.337,0,0,1,1.869.483l.063,3.822L186-2.709a2.684,2.684,0,0,1-2.058,1.092c-1.47,0-2.352-1.2-2.373-3.444C181.524-7.308,182.532-8.379,184.107-8.379Zm10.92-1.491c-2.9,0-4.515,1.869-4.515,5.187,0,3.108,1.533,4.872,4.242,4.872,2.9,0,4.515-1.869,4.515-5.187C199.269-8.106,197.736-9.87,195.027-9.87ZM194.9-8.379c1.575,0,2.373,1.218,2.373,3.864,0,2.2-.8,3.234-2.373,3.234-1.6,0-2.394-1.2-2.394-3.864C192.507-7.308,193.3-8.379,194.9-8.379Zm9.576-1.47c-2.226,0-3.528,1.26-3.528,2.919,0,3.045,4.347,2.646,4.347,4.431A1.342,1.342,0,0,1,203.8-1.26a4.437,4.437,0,0,1-2.688-1.134l-.231.147-.252,1.785a7.6,7.6,0,0,0,2.94.651c2.415,0,3.633-1.491,3.633-3.045,0-2.961-4.347-2.583-4.347-4.347a1.226,1.226,0,0,1,1.365-1.155,3.917,3.917,0,0,1,2.142.735l.273-.063.294-1.68A6.649,6.649,0,0,0,204.477-9.849ZM216.3-9.87a6.729,6.729,0,0,0-3.78,1.26l.273,1.491.168.105a4.783,4.783,0,0,1,3-1.344,1.382,1.382,0,0,1,1.512,1.575l-.021,1.134-3.318.735A2.237,2.237,0,0,0,212.1-2.583c0,1.68,1.155,2.73,3.108,2.751a6.149,6.149,0,0,0,2.184-1.575h.147A1.635,1.635,0,0,0,219.072.147a3.422,3.422,0,0,0,1.323-.462l.21-1.176-.189-.147a3.212,3.212,0,0,1-.63.084c-.441,0-.609-.168-.609-.714,0-.714.252-4.242.252-4.977C219.429-8.9,218.211-9.87,216.3-9.87Zm1.155,5.46-.063,1.617a2.965,2.965,0,0,1-2.1,1.281,1.21,1.21,0,0,1-1.281-1.344.775.775,0,0,1,.714-.9ZM228.585,0h2.163l-.105-4.242.063-2.73c.021-1.806-1.092-2.835-3.255-2.835a7.141,7.141,0,0,0-2.583,1.491h-.147l.021-1.407-2.037.189.105,5.481L222.684,0h2.142L224.7-4.242l.021-2.562a3.767,3.767,0,0,1,2.52-1.26c1.008,0,1.512.651,1.491,1.7Zm8.82-9.87c-2.9,0-4.515,1.869-4.515,5.187,0,3.108,1.533,4.872,4.242,4.872,2.9,0,4.515-1.869,4.515-5.187C241.647-8.106,240.114-9.87,237.4-9.87Zm-.126,1.491c1.575,0,2.373,1.218,2.373,3.864,0,2.2-.8,3.234-2.373,3.234-1.6,0-2.394-1.2-2.394-3.864C234.885-7.308,235.683-8.379,237.279-8.379Zm9.576-1.47c-2.226,0-3.528,1.26-3.528,2.919,0,3.045,4.347,2.646,4.347,4.431a1.342,1.342,0,0,1-1.491,1.239,4.437,4.437,0,0,1-2.688-1.134l-.231.147-.252,1.785a7.6,7.6,0,0,0,2.94.651c2.415,0,3.633-1.491,3.633-3.045,0-2.961-4.347-2.583-4.347-4.347A1.226,1.226,0,0,1,246.6-8.358a3.917,3.917,0,0,1,2.142.735l.273-.063.294-1.68A6.649,6.649,0,0,0,246.855-9.849Zm12.1-2.6c-2.268,0-3.843,1.239-3.843,3.318a3.124,3.124,0,0,0,1.911,2.9v.105c-1.218.588-2.373,1.47-2.373,3.129,0,1.848,1.386,3.171,3.843,3.171,2.562,0,4.263-1.365,4.263-3.549,0-1.743-1.2-2.478-2.31-3.024V-6.51a3.426,3.426,0,0,0,1.932-2.961C262.374-11.319,261.093-12.453,258.951-12.453Zm-.105,1.512a1.638,1.638,0,0,1,1.848,1.68c0,1.176-.84,1.743-1.785,2.184C257.838-7.5,256.872-8,256.872-9.2,256.872-10.269,257.607-10.941,258.846-10.941ZM258.531-5.5c1.239.5,2.436.966,2.436,2.268,0,1.092-.84,1.911-2.289,1.911-1.386,0-2.226-.777-2.226-1.932C256.452-4.557,257.439-5.1,258.531-5.5Zm10.962-5.166c-3.024,0-4.767,2.037-4.767,5.586,0,3.339,1.638,5.25,4.494,5.25,3.024,0,4.725-2.016,4.725-5.544C273.945-8.757,272.328-10.668,269.493-10.668Zm-.168,1.974c1.932,0,2.961,1.176,2.961,3.57,0,2.268-1.008,3.4-2.94,3.4-1.974,0-2.94-1.176-2.94-3.507S267.372-8.694,269.325-8.694Z" transform="translate(555.279 8718.352)"/>
    <path id="Caminho_771846" data-name="Caminho 771846" d="M6.867-13.629c-3.906,0-6.153,2.52-6.153,7.014,0,4.347,2.121,6.783,5.9,6.783a7.806,7.806,0,0,0,3.57-.882l.168-1.974-.21-.126a5.655,5.655,0,0,1-3.36,1.155c-2.415,0-3.8-1.764-3.8-5.187,0-3.318,1.344-4.977,3.8-4.977a4.991,4.991,0,0,1,3.108,1.092l.21-.063.4-1.911A7.12,7.12,0,0,0,6.867-13.629ZM15.876-9.87A6.729,6.729,0,0,0,12.1-8.61l.273,1.491.168.105a4.783,4.783,0,0,1,3-1.344,1.382,1.382,0,0,1,1.512,1.575l-.021,1.134-3.318.735a2.237,2.237,0,0,0-2.037,2.331c0,1.68,1.155,2.73,3.108,2.751a6.149,6.149,0,0,0,2.184-1.575h.147A1.635,1.635,0,0,0,18.648.147a3.422,3.422,0,0,0,1.323-.462l.21-1.176-.189-.147a3.212,3.212,0,0,1-.63.084c-.441,0-.609-.168-.609-.714,0-.714.252-4.242.252-4.977C19.005-8.9,17.787-9.87,15.876-9.87Zm1.155,5.46-.063,1.617a2.965,2.965,0,0,1-2.1,1.281,1.21,1.21,0,0,1-1.281-1.344.775.775,0,0,1,.714-.9ZM34.083,0h2.163l-.1-4.242.063-2.73c.021-1.806-1.092-2.835-3.255-2.835a7.616,7.616,0,0,0-2.772,1.575h-.126c-.42-1.008-1.449-1.575-3.024-1.575a6.974,6.974,0,0,0-2.583,1.491H24.3l.021-1.407-2.037.189.1,5.481L22.26,0h2.121l-.1-4.242L24.3-6.8a3.767,3.767,0,0,1,2.52-1.26c1.008,0,1.512.651,1.491,1.7L28.161,0H30.3l-.084-4.242.042-2.6a3.7,3.7,0,0,1,2.478-1.218c1.008,0,1.512.651,1.491,1.7Zm6.111-14.2a1.136,1.136,0,0,0-1.218,1.218A1.066,1.066,0,0,0,40.131-11.8a1.131,1.131,0,0,0,1.176-1.239A1.039,1.039,0,0,0,40.194-14.2Zm.84,9.954L41.2-9.723l-2.142.189.1,5.481L39.039,0h2.142ZM47.1-9.849c-2.226,0-3.528,1.26-3.528,2.919,0,3.045,4.347,2.646,4.347,4.431A1.342,1.342,0,0,1,46.431-1.26a4.437,4.437,0,0,1-2.688-1.134l-.231.147L43.26-.462A7.6,7.6,0,0,0,46.2.189c2.415,0,3.633-1.491,3.633-3.045,0-2.961-4.347-2.583-4.347-4.347a1.226,1.226,0,0,1,1.365-1.155,3.917,3.917,0,0,1,2.142.735l.273-.063.294-1.68A6.649,6.649,0,0,0,47.1-9.849Zm11.991,5.1.357-.336a8.182,8.182,0,0,0,.084-1.05c0-2.31-1.281-3.717-3.528-3.717-2.814,0-4.641,1.911-4.641,5.061,0,3.066,1.68,4.977,4.578,4.977a6.816,6.816,0,0,0,2.94-.714l.252-1.7-.189-.126a5.765,5.765,0,0,1-2.835.882c-1.848,0-2.73-1.2-2.772-3.276ZM57.582-6.153l-4.137.105a2.461,2.461,0,0,1,2.436-2.331c1.05,0,1.743.609,1.743,1.974Zm7.581,4.536c-.861,0-1.239-.336-1.218-1.386l.105-5.271h2.709l.1-1.218-.084-.147H64.092l.042-2.079-.189-.168-1.89.714v1.533H60.774L60.669-8.4l.084.126h1.323L62.1-4.179l-.084,1.512A2.506,2.506,0,0,0,64.491.126,6.063,6.063,0,0,0,66.633-.5l.21-1.344L66.633-2A3.311,3.311,0,0,1,65.163-1.617Zm6.93-8.253a6.729,6.729,0,0,0-3.78,1.26l.273,1.491.168.105a4.783,4.783,0,0,1,3-1.344,1.382,1.382,0,0,1,1.512,1.575l-.021,1.134-3.318.735a2.237,2.237,0,0,0-2.037,2.331C67.893-.9,69.048.147,71,.168a6.149,6.149,0,0,0,2.184-1.575h.147A1.635,1.635,0,0,0,74.865.147a3.422,3.422,0,0,0,1.323-.462l.21-1.176-.189-.147a3.212,3.212,0,0,1-.63.084c-.441,0-.609-.168-.609-.714,0-.714.252-4.242.252-4.977C75.222-8.9,74-9.87,72.093-9.87Zm1.155,5.46-.063,1.617a2.965,2.965,0,0,1-2.1,1.281A1.21,1.21,0,0,1,69.8-2.856a.775.775,0,0,1,.714-.9ZM81.4-9.849c-2.226,0-3.528,1.26-3.528,2.919,0,3.045,4.347,2.646,4.347,4.431A1.342,1.342,0,0,1,80.724-1.26a4.437,4.437,0,0,1-2.688-1.134l-.231.147L77.553-.462a7.6,7.6,0,0,0,2.94.651c2.415,0,3.633-1.491,3.633-3.045,0-2.961-4.347-2.583-4.347-4.347a1.226,1.226,0,0,1,1.365-1.155,3.917,3.917,0,0,1,2.142.735l.273-.063.294-1.68A6.649,6.649,0,0,0,81.4-9.849ZM93.45-9.87c-2.772,0-4.431,1.953-4.431,5.124C89.019-1.68,90.573.189,93.2.189A7.5,7.5,0,0,0,95.76-.294l.21-1.722-.189-.126a5.051,5.051,0,0,1-2.247.63c-1.6,0-2.5-1.26-2.5-3.4,0-2.037.882-3.192,2.373-3.192a4.163,4.163,0,0,1,2.058.651l.21-.084.357-1.785A6.3,6.3,0,0,0,93.45-9.87Zm8.148,0c-2.9,0-4.515,1.869-4.515,5.187,0,3.108,1.533,4.872,4.242,4.872,2.9,0,4.515-1.869,4.515-5.187C105.84-8.106,104.307-9.87,101.6-9.87Zm-.126,1.491c1.575,0,2.373,1.218,2.373,3.864,0,2.2-.8,3.234-2.373,3.234-1.6,0-2.394-1.2-2.394-3.864C99.078-7.308,99.876-8.379,101.472-8.379ZM119.952,0h2.163l-.1-4.242.063-2.73c.021-1.806-1.092-2.835-3.255-2.835a7.616,7.616,0,0,0-2.772,1.575h-.126c-.42-1.008-1.449-1.575-3.024-1.575a6.974,6.974,0,0,0-2.583,1.491h-.147l.021-1.407-2.037.189.1,5.481L108.129,0h2.121l-.1-4.242.021-2.562a3.767,3.767,0,0,1,2.52-1.26c1.008,0,1.512.651,1.491,1.7L114.03,0h2.142l-.084-4.242.042-2.6a3.7,3.7,0,0,1,2.478-1.218c1.008,0,1.512.651,1.491,1.7Zm12.81-14.784c-2.415,0-3.822,1.3-3.8,3.7l.021,1.449h-1.428L127.449-8.4l.084.126h1.449l.042,4.2L128.9,0h2.142l-.147-4.263.063-4.011h2.436l.126-1.218-.063-.147h-2.478L131-11.445c.021-1.218.588-1.806,1.575-1.806a3.846,3.846,0,0,1,1.617.4l.147-.126.126-1.617A8.114,8.114,0,0,0,132.762-14.784Zm6.93,5.082a3.1,3.1,0,0,0-2.646,1.911H136.9l.021-1.932-2.037.189.126,5.481L134.862,0H137l-.147-4.242.021-1.386c.735-1.449,1.47-2.037,2.331-2.037a2.939,2.939,0,0,1,.777.1l.231-.063V-9.66A4.091,4.091,0,0,0,139.692-9.7Zm5.418-.168a6.729,6.729,0,0,0-3.78,1.26l.273,1.491.168.105a4.783,4.783,0,0,1,3-1.344,1.382,1.382,0,0,1,1.512,1.575l-.021,1.134-3.318.735a2.237,2.237,0,0,0-2.037,2.331c0,1.68,1.155,2.73,3.108,2.751A6.149,6.149,0,0,0,146.2-1.407h.147A1.635,1.635,0,0,0,147.882.147a3.422,3.422,0,0,0,1.323-.462l.21-1.176-.189-.147a3.212,3.212,0,0,1-.63.084c-.441,0-.609-.168-.609-.714,0-.714.252-4.242.252-4.977C148.239-8.9,147.021-9.87,145.11-9.87Zm1.155,5.46L146.2-2.793a2.965,2.965,0,0,1-2.1,1.281,1.21,1.21,0,0,1-1.281-1.344.775.775,0,0,1,.714-.9Zm8.148-5.439c-2.226,0-3.528,1.26-3.528,2.919,0,3.045,4.347,2.646,4.347,4.431a1.342,1.342,0,0,1-1.491,1.239,4.437,4.437,0,0,1-2.688-1.134l-.231.147L150.57-.462a7.6,7.6,0,0,0,2.94.651c2.415,0,3.633-1.491,3.633-3.045,0-2.961-4.347-2.583-4.347-4.347a1.226,1.226,0,0,1,1.365-1.155,3.917,3.917,0,0,1,2.142.735l.273-.063.294-1.68A6.649,6.649,0,0,0,154.413-9.849Zm11.991,5.1.357-.336a8.181,8.181,0,0,0,.084-1.05c0-2.31-1.281-3.717-3.528-3.717-2.814,0-4.641,1.911-4.641,5.061,0,3.066,1.68,4.977,4.578,4.977a6.816,6.816,0,0,0,2.94-.714l.252-1.7-.189-.126a5.765,5.765,0,0,1-2.835.882c-1.848,0-2.73-1.2-2.772-3.276Zm-1.512-1.407-4.137.105a2.461,2.461,0,0,1,2.436-2.331c1.05,0,1.743.609,1.743,1.974Zm7.077-3.7c-2.226,0-3.528,1.26-3.528,2.919,0,3.045,4.347,2.646,4.347,4.431A1.342,1.342,0,0,1,171.3-1.26a4.437,4.437,0,0,1-2.688-1.134l-.231.147-.252,1.785a7.6,7.6,0,0,0,2.94.651c2.415,0,3.633-1.491,3.633-3.045,0-2.961-4.347-2.583-4.347-4.347a1.226,1.226,0,0,1,1.365-1.155,3.917,3.917,0,0,1,2.142.735l.273-.063.294-1.68A6.649,6.649,0,0,0,171.969-9.849Zm15.918,5.586.168-10.479-2.142.168.042,4.893a8.851,8.851,0,0,0-1.638-.168c-2.961,0-4.767,1.806-4.767,5.04,0,3.108,1.533,4.935,4.347,4.935a8.577,8.577,0,0,0,2.184-1.449h.168A1.663,1.663,0,0,0,187.8.147a3.4,3.4,0,0,0,1.344-.462l.189-1.176-.189-.147a3.036,3.036,0,0,1-.651.084c-.4,0-.525-.168-.546-.693Zm-3.78-4.116a4.337,4.337,0,0,1,1.869.483l.063,3.822L186-2.709a2.684,2.684,0,0,1-2.058,1.092c-1.47,0-2.352-1.2-2.373-3.444C181.524-7.308,182.532-8.379,184.107-8.379Zm10.92-1.491c-2.9,0-4.515,1.869-4.515,5.187,0,3.108,1.533,4.872,4.242,4.872,2.9,0,4.515-1.869,4.515-5.187C199.269-8.106,197.736-9.87,195.027-9.87ZM194.9-8.379c1.575,0,2.373,1.218,2.373,3.864,0,2.2-.8,3.234-2.373,3.234-1.6,0-2.394-1.2-2.394-3.864C192.507-7.308,193.3-8.379,194.9-8.379Zm9.576-1.47c-2.226,0-3.528,1.26-3.528,2.919,0,3.045,4.347,2.646,4.347,4.431A1.342,1.342,0,0,1,203.8-1.26a4.437,4.437,0,0,1-2.688-1.134l-.231.147-.252,1.785a7.6,7.6,0,0,0,2.94.651c2.415,0,3.633-1.491,3.633-3.045,0-2.961-4.347-2.583-4.347-4.347a1.226,1.226,0,0,1,1.365-1.155,3.917,3.917,0,0,1,2.142.735l.273-.063.294-1.68A6.649,6.649,0,0,0,204.477-9.849ZM216.3-9.87a6.729,6.729,0,0,0-3.78,1.26l.273,1.491.168.105a4.783,4.783,0,0,1,3-1.344,1.382,1.382,0,0,1,1.512,1.575l-.021,1.134-3.318.735A2.237,2.237,0,0,0,212.1-2.583c0,1.68,1.155,2.73,3.108,2.751a6.149,6.149,0,0,0,2.184-1.575h.147A1.635,1.635,0,0,0,219.072.147a3.422,3.422,0,0,0,1.323-.462l.21-1.176-.189-.147a3.212,3.212,0,0,1-.63.084c-.441,0-.609-.168-.609-.714,0-.714.252-4.242.252-4.977C219.429-8.9,218.211-9.87,216.3-9.87Zm1.155,5.46-.063,1.617a2.965,2.965,0,0,1-2.1,1.281,1.21,1.21,0,0,1-1.281-1.344.775.775,0,0,1,.714-.9ZM228.585,0h2.163l-.105-4.242.063-2.73c.021-1.806-1.092-2.835-3.255-2.835a7.141,7.141,0,0,0-2.583,1.491h-.147l.021-1.407-2.037.189.105,5.481L222.684,0h2.142L224.7-4.242l.021-2.562a3.767,3.767,0,0,1,2.52-1.26c1.008,0,1.512.651,1.491,1.7Zm8.82-9.87c-2.9,0-4.515,1.869-4.515,5.187,0,3.108,1.533,4.872,4.242,4.872,2.9,0,4.515-1.869,4.515-5.187C241.647-8.106,240.114-9.87,237.4-9.87Zm-.126,1.491c1.575,0,2.373,1.218,2.373,3.864,0,2.2-.8,3.234-2.373,3.234-1.6,0-2.394-1.2-2.394-3.864C234.885-7.308,235.683-8.379,237.279-8.379Zm9.576-1.47c-2.226,0-3.528,1.26-3.528,2.919,0,3.045,4.347,2.646,4.347,4.431a1.342,1.342,0,0,1-1.491,1.239,4.437,4.437,0,0,1-2.688-1.134l-.231.147-.252,1.785a7.6,7.6,0,0,0,2.94.651c2.415,0,3.633-1.491,3.633-3.045,0-2.961-4.347-2.583-4.347-4.347A1.226,1.226,0,0,1,246.6-8.358a3.917,3.917,0,0,1,2.142.735l.273-.063.294-1.68A6.649,6.649,0,0,0,246.855-9.849Zm9.471-.672-2.079-.084L254.1-8.778l.126.21,1.743-.189H260L255.318,1.3l.126.357,1.722.462L258.195-.63l3.822-8.358L262-10.563l-.945.042Zm11.949-.147c-3.024,0-4.767,2.037-4.767,5.586,0,3.339,1.638,5.25,4.494,5.25,3.024,0,4.725-2.016,4.725-5.544C272.727-8.757,271.11-10.668,268.275-10.668Zm-.168,1.974c1.932,0,2.961,1.176,2.961,3.57,0,2.268-1.008,3.4-2.94,3.4-1.974,0-2.94-1.176-2.94-3.507S266.154-8.694,268.107-8.694Z" transform="translate(555.279 8752.352)"/>
    <rect id="Retângulo_124652" data-name="Retângulo 124652" width="18" height="18" transform="translate(529.426 8666.541)" fill="#3b4aff"/>
    <rect id="Retângulo_124955" data-name="Retângulo 124955" width="18" height="18" transform="translate(529.279 8703.352)" fill="#40bbff"/>
    <rect id="Retângulo_124653" data-name="Retângulo 124653" width="18" height="18" transform="translate(529.279 8737.352)" fill="#0024a9"/>
  </g>
</svg>
