<svg xmlns="http://www.w3.org/2000/svg" width="903.596" height="539.133" viewBox="0 0 903.596 539.133">
  <g id="_img_Grafico_5_" data-name="&lt;img Grafico_5&gt;" transform="translate(-508.202 -5570.329)">
    <path id="Caminho_773179" data-name="Caminho 773179" d="M7.008,0V-13.792L17.312,0h3.776V-22.4H16.544V-8.64L6.24-22.4H2.5V0ZM36.192-24.992,28.7-20.128l1.664,2.688,7.968-3.936Zm4.7,9.312H36.384c0,5.088-.16,12.288-4,12.288-1.984,0-2.368-2.08-2.368-3.424V-15.68h-4.48V-5.344c0,3.808,2.432,5.824,5.7,5.824,2.752,0,4.448-1.632,5.5-4.064L36.384,0H40.9Zm24.384-.48c-2.656,0-4.352,1.568-5.408,3.936A4.659,4.659,0,0,0,55.04-16.16c-2.784,0-4.512,1.728-5.568,4.288l.384-3.808h-4.48V0h4.48c0-5.056.224-12.288,3.776-12.288,1.76,0,1.952,1.92,1.952,3.424V0H60.1c0-5.024.192-12.288,3.744-12.288,1.792,0,1.984,1.92,1.984,3.424V0H70.3V-10.112C70.3-13.92,68.48-16.16,65.28-16.16ZM82.272-3.072a4.137,4.137,0,0,1-4.256-3.072l9.6-1.12a8.269,8.269,0,0,0,.416-2.624c0-3.968-2.88-6.272-6.72-6.272-4.544,0-7.84,3.2-7.84,8.256,0,5.024,3.3,8.384,8.48,8.384a9.652,9.652,0,0,0,5.7-1.76L85.984-4.192A7.183,7.183,0,0,1,82.272-3.072Zm-.7-9.632c1.408,0,2.432.736,2.432,2.112a2.472,2.472,0,0,1-.1.8l-6.08.736C78.144-11.1,79.424-12.7,81.568-12.7ZM101.6-16.16c-3.456,0-5.184,2.56-6.08,5.984l.544-5.5h-4.48V0h4.48c0-5.184.32-11.52,4.576-11.52a5.077,5.077,0,0,1,1.6.288l1.184-4.672A6.609,6.609,0,0,0,101.6-16.16ZM112.96.48a7.914,7.914,0,0,0,8.192-8.32,7.9,7.9,0,0,0-8.192-8.32,7.9,7.9,0,0,0-8.224,8.32A7.922,7.922,0,0,0,112.96.48Zm0-3.648c-2.368,0-3.584-2.176-3.584-4.672s1.216-4.672,3.584-4.672c2.336,0,3.552,2.176,3.552,4.672S115.3-3.168,112.96-3.168Zm30.72-12.8a12.327,12.327,0,0,0-2.208-.192c-6.336,0-9.056,4.608-9.056,9.344,0,4.288,2.208,7.3,5.856,7.3,2.944,0,4.768-2.112,5.888-4.96L143.68,0h4.512V-23.168H143.68ZM139.648-3.136c-1.44,0-2.56-.928-2.56-3.84,0-2.208.768-5.76,4.32-5.76a5.251,5.251,0,0,1,2.24.544C143.392-8,142.464-3.136,139.648-3.136Zm20.64.064a4.137,4.137,0,0,1-4.256-3.072l9.6-1.12a8.269,8.269,0,0,0,.416-2.624c0-3.968-2.88-6.272-6.72-6.272-4.544,0-7.84,3.2-7.84,8.256,0,5.024,3.3,8.384,8.48,8.384a9.652,9.652,0,0,0,5.7-1.76L164-4.192A7.183,7.183,0,0,1,160.288-3.072Zm-.7-9.632c1.408,0,2.432.736,2.432,2.112a2.472,2.472,0,0,1-.1.8l-6.08.736C156.16-11.1,157.44-12.7,159.584-12.7Zm27.488-2.208a15.174,15.174,0,0,1,1.568,6.368c0,2.624-.992,5.28-3.616,5.28-1.7,0-2.56-1.088-2.56-3.168V-15.68h-4.48v9.728c0,3.776,2.72,6.4,7.008,6.4,5.5,0,8.224-4.256,8.224-8.992a20.517,20.517,0,0,0-1.76-7.584Zm17.7,11.84a4.137,4.137,0,0,1-4.256-3.072l9.6-1.12a8.269,8.269,0,0,0,.416-2.624c0-3.968-2.88-6.272-6.72-6.272-4.544,0-7.84,3.2-7.84,8.256,0,5.024,3.3,8.384,8.48,8.384a9.652,9.652,0,0,0,5.7-1.76L208.48-4.192A7.183,7.183,0,0,1,204.768-3.072Zm-.7-9.632c1.408,0,2.432.736,2.432,2.112a2.472,2.472,0,0,1-.1.8l-6.08.736C200.64-11.1,201.92-12.7,204.064-12.7Zm20.064-3.456c-3.04,0-4.864,1.856-5.952,4.576l.384-4.1h-4.48V0h4.48c0-5.088.288-12.288,4.192-12.288,1.984,0,2.176,2.112,2.176,3.424V0h4.512V-10.112C229.44-13.888,227.488-16.16,224.128-16.16Zm20.032.192a12.326,12.326,0,0,0-2.208-.192c-6.336,0-9.056,4.608-9.056,9.344,0,4.288,2.208,7.3,5.856,7.3,2.944,0,4.768-2.112,5.888-4.96L244.16,0h4.512V-23.168H244.16ZM240.128-3.136c-1.44,0-2.56-.928-2.56-3.84,0-2.208.768-5.76,4.32-5.76a5.251,5.251,0,0,1,2.24.544C243.872-8,242.944-3.136,240.128-3.136ZM261.312-16.16c-6.336,0-9.056,4.608-9.056,9.344,0,4.288,2.208,7.3,5.856,7.3,2.944,0,4.768-2.08,5.888-4.928L263.52,0h4.512V-14.112A11.764,11.764,0,0,0,261.312-16.16ZM259.488-3.136c-1.44,0-2.56-.928-2.56-3.84,0-2.208.768-5.76,4.32-5.76a5.251,5.251,0,0,1,2.24.544C263.232-8,262.3-3.136,259.488-3.136ZM277.824.48c3.872,0,6.688-1.664,6.688-5.28,0-5.568-8.1-3.936-8.1-6.4,0-1.024,1.28-1.312,2.464-1.312a8.366,8.366,0,0,1,3.9.96l1.536-3.136a12.438,12.438,0,0,0-5.888-1.472c-3.232,0-6.528,1.344-6.528,4.928,0,5.856,8.128,4.16,8.128,6.752,0,.864-.864,1.344-2.432,1.344a9.8,9.8,0,0,1-4.864-1.376L271.1-1.248A13.694,13.694,0,0,0,277.824.48Zm28.7-16.64c-2.976,0-4.832,2.144-5.92,5.024l.48-4.544h-4.48V6.848h4.48V.288a12.689,12.689,0,0,0,2.24.192c6.336,0,9.056-4.608,9.056-9.344C312.384-13.152,310.176-16.16,306.528-16.16ZM303.392-2.944a5.282,5.282,0,0,1-2.272-.544c.256-4.192,1.184-9.088,4.032-9.088,1.408,0,2.56.96,2.56,3.84C307.712-6.5,306.912-2.944,303.392-2.944ZM323.264.48a7.914,7.914,0,0,0,8.192-8.32,7.9,7.9,0,0,0-8.192-8.32,7.9,7.9,0,0,0-8.224,8.32A7.922,7.922,0,0,0,323.264.48Zm0-3.648c-2.368,0-3.584-2.176-3.584-4.672s1.216-4.672,3.584-4.672c2.336,0,3.552,2.176,3.552,4.672S325.6-3.168,323.264-3.168Zm21.6-12.992c-3.456,0-5.184,2.56-6.08,5.984l.544-5.5h-4.48V0h4.48c0-5.184.32-11.52,4.576-11.52a5.077,5.077,0,0,1,1.6.288l1.184-4.672A6.609,6.609,0,0,0,344.864-16.16Zm33.088,0c-2.656,0-4.352,1.568-5.408,3.936a4.659,4.659,0,0,0-4.832-3.936c-2.784,0-4.512,1.728-5.568,4.288l.384-3.808h-4.48V0h4.48c0-5.056.224-12.288,3.776-12.288,1.76,0,1.952,1.92,1.952,3.424V0h4.512c0-5.024.192-12.288,3.744-12.288,1.792,0,1.984,1.92,1.984,3.424V0h4.48V-10.112C382.976-13.92,381.152-16.16,377.952-16.16Zm20.16-1.5,1.7-2.592-5.728-4.128-5.76,4.128,1.7,2.592,4.064-2.5ZM394.944-3.072a4.137,4.137,0,0,1-4.256-3.072l9.6-1.12a8.269,8.269,0,0,0,.416-2.624c0-3.968-2.88-6.272-6.72-6.272-4.544,0-7.84,3.2-7.84,8.256,0,5.024,3.3,8.384,8.48,8.384a9.652,9.652,0,0,0,5.7-1.76l-1.664-2.912A7.183,7.183,0,0,1,394.944-3.072Zm-.7-9.632c1.408,0,2.432.736,2.432,2.112a2.472,2.472,0,0,1-.1.8l-6.08.736C390.816-11.1,392.1-12.7,394.24-12.7ZM409.568.48c3.872,0,6.688-1.664,6.688-5.28,0-5.568-8.1-3.936-8.1-6.4,0-1.024,1.28-1.312,2.464-1.312a8.366,8.366,0,0,1,3.9.96l1.536-3.136a12.438,12.438,0,0,0-5.888-1.472c-3.232,0-6.528,1.344-6.528,4.928,0,5.856,8.128,4.16,8.128,6.752,0,.864-.864,1.344-2.432,1.344a9.8,9.8,0,0,1-4.864-1.376l-1.632,3.264A13.694,13.694,0,0,0,409.568.48Z" transform="translate(508.202 5595.321)"/>
    <path id="Caminho_773180" data-name="Caminho 773180" d="M9.786-1.848l-3.255.105L3.969-1.764,3.906-4.242l.021-1.743,2.289-.042,2.373.063.168-1.659L8.61-7.791l-2.226.063L3.948-7.77,4.011-11.7l2.562-.021,3.192.084.168-1.659-.126-.189h-8l.147,9.429L1.806,0H9.765l.147-1.659ZM23.457,0H25.62l-.105-4.242.063-2.73c.021-1.806-1.092-2.835-3.255-2.835a7.616,7.616,0,0,0-2.772,1.575h-.126c-.42-1.008-1.449-1.575-3.024-1.575a6.974,6.974,0,0,0-2.583,1.491h-.147l.021-1.407-2.037.189.105,5.481L11.634,0h2.121L13.65-4.242,13.671-6.8a3.767,3.767,0,0,1,2.52-1.26c1.008,0,1.512.651,1.491,1.7L17.535,0h2.142l-.084-4.242.042-2.6a3.7,3.7,0,0,1,2.478-1.218c1.008,0,1.512.651,1.491,1.7ZM42.546,0,38.409-13.524H35.028L30.45,0h2.814l.357-1.911.357-1.113,2.331-.063,2.646.063.357,1.26L39.648,0Zm-4.2-5.229-1.827.042-1.806-.042,1.848-5.628h.189Zm15.2-4.956-.21-.189a19.131,19.131,0,0,1-3.087.84,5.454,5.454,0,0,0-2.058-.378c-2.583,0-4.221,1.3-4.221,3.486a2.914,2.914,0,0,0,1.533,2.709v.1a6.989,6.989,0,0,0-1.428,1.281A1.923,1.923,0,0,0,45.591-.42v.105A5.7,5.7,0,0,0,43.848,1.26c0,1.659,1.365,2.835,3.969,2.835,2.814,0,4.809-1.449,4.809-3.444,0-3.423-6.195-2-6.195-3.4,0-.189.084-.315.315-.546a7.311,7.311,0,0,0,1.218.105c2.625,0,4.242-1.344,4.242-3.444a3.081,3.081,0,0,0-.315-1.407l.042-.084a14.64,14.64,0,0,0,1.617-.315Zm-5.5,5.313a1.5,1.5,0,0,1-1.659-1.7c0-1.071.588-1.617,1.764-1.617,1.113,0,1.638.525,1.638,1.6A1.549,1.549,0,0,1,48.048-4.872Zm2.226,6.027c0,.84-.9,1.3-2.184,1.3-1.323,0-1.974-.5-1.974-1.218,0-.483.357-.882,1.008-1.323C48.678.147,50.274.168,50.274,1.155ZM58.611-9.954c-3.066,0-4.725,1.869-4.725,5.271C53.886-1.533,55.44.21,58.3.21c3.066,0,4.725-1.869,4.725-5.271C63.021-8.232,61.467-9.954,58.611-9.954Zm-.189,1.89c1.365,0,1.974,1.008,1.974,3.57,0,2.037-.588,2.835-1.911,2.835-1.386,0-1.974-.966-1.974-3.57C56.511-7.224,57.078-8.064,58.422-8.064Zm9.786-1.869c-2.415,0-3.822,1.344-3.822,3.108,0,3.108,4.347,2.73,4.347,4.284,0,.5-.42.966-1.2.966a5,5,0,0,1-2.856-1.2l-.273.168L64.092-.42a8.83,8.83,0,0,0,3.129.63c2.688,0,3.906-1.575,3.906-3.192,0-3.045-4.326-2.667-4.326-4.221a.967.967,0,0,1,1.092-.9,4.531,4.531,0,0,1,2.289.819l.336-.105L70.9-9.45A7.626,7.626,0,0,0,68.208-9.933Zm8.736,7.875c-.756,0-1.092-.315-1.092-1.239L75.978-8h2.5L78.6-9.534l-.084-.147h-2.5l.063-2.268-.189-.168-2.541.819v1.617H72.114l-.147,1.533L72.072-8h1.3L73.4-4.389,73.29-2.646q0,2.489,2.835,2.772a6.28,6.28,0,0,0,2.184-.672l.273-1.659-.231-.21A3.234,3.234,0,0,1,76.944-2.058Zm6.993-7.9c-3.066,0-4.725,1.869-4.725,5.271,0,3.15,1.554,4.893,4.41,4.893,3.066,0,4.725-1.869,4.725-5.271C88.347-8.232,86.793-9.954,83.937-9.954Zm-.189,1.89c1.365,0,1.974,1.008,1.974,3.57,0,2.037-.588,2.835-1.911,2.835-1.386,0-1.974-.966-1.974-3.57C81.837-7.224,82.4-8.064,83.748-8.064Zm7.9,6.237a3.659,3.659,0,0,0-1.155.546v.168a1.209,1.209,0,0,1,.651.987,2.477,2.477,0,0,1-1.155,1.848v.147l.567.525C91.875,1.428,92.526.483,92.526-.42A1.634,1.634,0,0,0,91.644-1.827ZM102.123-9.87c-2.9,0-4.515,1.869-4.515,5.187,0,3.108,1.533,4.872,4.242,4.872,2.9,0,4.515-1.869,4.515-5.187C106.365-8.106,104.832-9.87,102.123-9.87ZM102-8.379c1.575,0,2.373,1.218,2.373,3.864,0,2.2-.8,3.234-2.373,3.234-1.6,0-2.394-1.2-2.394-3.864C99.6-7.308,100.4-8.379,102-8.379ZM117.915,0h2.163l-.105-4.242.063-2.73c.021-1.806-1.092-2.835-3.255-2.835A7.141,7.141,0,0,0,114.2-8.316h-.147l.021-1.407-2.037.189.1,5.481L112.014,0h2.142l-.126-4.242.021-2.562a3.767,3.767,0,0,1,2.52-1.26c1.008,0,1.512.651,1.491,1.7ZM128.9-14.847l-.21-.021c-1.218,1.155-2.352,2.1-3.591,3.108l.546.84.21.021c1.26-.819,2.478-1.638,3.8-2.6l.042-.21Zm1.722,5.124-2.037.189v6.825a3.443,3.443,0,0,1-2.289,1.071c-.987,0-1.47-.63-1.449-1.659l.105-6.426-2.121.189.084,4.2-.042,2.625C122.85-.9,123.984.126,126.1.126a6.313,6.313,0,0,0,2.52-1.47h.168A1.682,1.682,0,0,0,130.347.147a3.3,3.3,0,0,0,1.323-.462l.21-1.176-.189-.147a3.036,3.036,0,0,1-.651.084c-.42,0-.567-.168-.567-.693ZM145.572,0h2.163l-.105-4.242.063-2.73c.021-1.806-1.092-2.835-3.255-2.835a7.615,7.615,0,0,0-2.772,1.575h-.126c-.42-1.008-1.449-1.575-3.024-1.575a6.974,6.974,0,0,0-2.583,1.491h-.147l.021-1.407-2.037.189.105,5.481L133.749,0h2.121l-.1-4.242.021-2.562a3.767,3.767,0,0,1,2.52-1.26c1.008,0,1.512.651,1.491,1.7L139.65,0h2.142l-.084-4.242.042-2.6a3.7,3.7,0,0,1,2.478-1.218c1.008,0,1.512.651,1.491,1.7Zm11.97-4.746.357-.336a8.181,8.181,0,0,0,.084-1.05c0-2.31-1.281-3.717-3.528-3.717-2.814,0-4.641,1.911-4.641,5.061,0,3.066,1.68,4.977,4.578,4.977a6.816,6.816,0,0,0,2.94-.714l.252-1.7-.189-.126a5.765,5.765,0,0,1-2.835.882c-1.848,0-2.73-1.2-2.772-3.276ZM156.03-6.153l-4.137.105a2.461,2.461,0,0,1,2.436-2.331c1.05,0,1.743.609,1.743,1.974ZM165.018-9.7a3.1,3.1,0,0,0-2.646,1.911h-.147l.021-1.932-2.037.189.126,5.481L160.188,0h2.142l-.147-4.242.021-1.386c.735-1.449,1.47-2.037,2.331-2.037a2.939,2.939,0,0,1,.777.1l.231-.063V-9.66A4.091,4.091,0,0,0,165.018-9.7Zm5.775-.168c-2.9,0-4.515,1.869-4.515,5.187,0,3.108,1.533,4.872,4.242,4.872,2.9,0,4.515-1.869,4.515-5.187C175.035-8.106,173.5-9.87,170.793-9.87Zm-.126,1.491c1.575,0,2.373,1.218,2.373,3.864,0,2.2-.8,3.234-2.373,3.234-1.6,0-2.394-1.2-2.394-3.864C168.273-7.308,169.071-8.379,170.667-8.379Zm17.6,4.116.168-10.479-2.142.168.042,4.893a8.851,8.851,0,0,0-1.638-.168c-2.961,0-4.767,1.806-4.767,5.04,0,3.108,1.533,4.935,4.347,4.935a8.577,8.577,0,0,0,2.184-1.449h.168a1.663,1.663,0,0,0,1.554,1.47,3.4,3.4,0,0,0,1.344-.462l.189-1.176-.189-.147a3.036,3.036,0,0,1-.651.084c-.4,0-.525-.168-.546-.693Zm-3.78-4.116a4.337,4.337,0,0,1,1.869.483l.063,3.822-.042,1.365a2.684,2.684,0,0,1-2.058,1.092c-1.47,0-2.352-1.2-2.373-3.444C181.9-7.308,182.91-8.379,184.485-8.379Zm14.133,3.633.357-.336a8.181,8.181,0,0,0,.084-1.05c0-2.31-1.281-3.717-3.528-3.717-2.814,0-4.641,1.911-4.641,5.061,0,3.066,1.68,4.977,4.578,4.977a6.816,6.816,0,0,0,2.94-.714l.252-1.7-.189-.126a5.765,5.765,0,0,1-2.835.882c-1.848,0-2.73-1.2-2.772-3.276Zm-1.512-1.407-4.137.105A2.461,2.461,0,0,1,195.4-8.379c1.05,0,1.743.609,1.743,1.974Zm8.652-2.163-.273-1.428-1.974.1L206.388,0h2.31l3.423-9.681h-1.89l-.357,1.47-2.142,6.153h-.147Zm14.658,3.57.357-.336a8.181,8.181,0,0,0,.084-1.05c0-2.31-1.281-3.717-3.528-3.717-2.814,0-4.641,1.911-4.641,5.061,0,3.066,1.68,4.977,4.578,4.977a6.816,6.816,0,0,0,2.94-.714l.252-1.7-.189-.126a5.765,5.765,0,0,1-2.835.882c-1.848,0-2.73-1.2-2.772-3.276ZM218.9-6.153l-4.137.105A2.461,2.461,0,0,1,217.2-8.379c1.05,0,1.743.609,1.743,1.974ZM228.963,0h2.163l-.105-4.242.063-2.73c.021-1.806-1.092-2.835-3.255-2.835a7.141,7.141,0,0,0-2.583,1.491H225.1l.021-1.407-2.037.189.105,5.481L223.062,0H225.2l-.126-4.242L225.1-6.8a3.767,3.767,0,0,1,2.52-1.26c1.008,0,1.512.651,1.491,1.7Zm12.6-4.263.168-10.479-2.142.168.042,4.893a8.851,8.851,0,0,0-1.638-.168c-2.961,0-4.767,1.806-4.767,5.04,0,3.108,1.533,4.935,4.347,4.935a8.577,8.577,0,0,0,2.184-1.449h.168a1.663,1.663,0,0,0,1.554,1.47,3.4,3.4,0,0,0,1.344-.462l.189-1.176-.189-.147a3.036,3.036,0,0,1-.651.084c-.4,0-.525-.168-.546-.693Zm-3.78-4.116a4.337,4.337,0,0,1,1.869.483l.063,3.822-.042,1.365a2.684,2.684,0,0,1-2.058,1.092c-1.47,0-2.352-1.2-2.373-3.444C235.2-7.308,236.208-8.379,237.783-8.379Zm10.6-1.491a6.729,6.729,0,0,0-3.78,1.26l.273,1.491.168.105a4.783,4.783,0,0,1,3-1.344,1.382,1.382,0,0,1,1.512,1.575l-.021,1.134-3.318.735a2.237,2.237,0,0,0-2.037,2.331c0,1.68,1.155,2.73,3.108,2.751a6.149,6.149,0,0,0,2.184-1.575h.147A1.635,1.635,0,0,0,251.16.147a3.422,3.422,0,0,0,1.323-.462l.21-1.176-.189-.147a3.212,3.212,0,0,1-.63.084c-.441,0-.609-.168-.609-.714,0-.714.252-4.242.252-4.977C251.517-8.9,250.3-9.87,248.388-9.87Zm1.155,5.46-.063,1.617a2.965,2.965,0,0,1-2.1,1.281A1.21,1.21,0,0,1,246.1-2.856a.775.775,0,0,1,.714-.9Zm8.148-5.439c-2.226,0-3.528,1.26-3.528,2.919,0,3.045,4.347,2.646,4.347,4.431a1.342,1.342,0,0,1-1.491,1.239,4.437,4.437,0,0,1-2.688-1.134l-.231.147-.252,1.785a7.6,7.6,0,0,0,2.94.651c2.415,0,3.633-1.491,3.633-3.045,0-2.961-4.347-2.583-4.347-4.347a1.226,1.226,0,0,1,1.365-1.155,3.917,3.917,0,0,1,2.142.735l.273-.063.294-1.68A6.648,6.648,0,0,0,257.691-9.849Zm11.823-.021a6.73,6.73,0,0,0-3.78,1.26l.273,1.491.168.105a4.783,4.783,0,0,1,3-1.344,1.382,1.382,0,0,1,1.512,1.575l-.021,1.134-3.318.735a2.237,2.237,0,0,0-2.037,2.331c0,1.68,1.155,2.73,3.108,2.751a6.149,6.149,0,0,0,2.184-1.575h.147A1.635,1.635,0,0,0,272.286.147a3.422,3.422,0,0,0,1.323-.462l.21-1.176-.189-.147a3.211,3.211,0,0,1-.63.084c-.441,0-.609-.168-.609-.714,0-.714.252-4.242.252-4.977C272.643-8.9,271.425-9.87,269.514-9.87Zm1.155,5.46-.063,1.617a2.965,2.965,0,0,1-2.1,1.281,1.21,1.21,0,0,1-1.281-1.344.775.775,0,0,1,.714-.9ZM278-4.263l.168-10.479-2.142.168.126,10.5L276,0h2.142Zm6.951-5.607c-2.772,0-4.431,1.953-4.431,5.124,0,3.066,1.554,4.935,4.179,4.935a7.5,7.5,0,0,0,2.562-.483l.21-1.722-.189-.126a5.051,5.051,0,0,1-2.247.63c-1.6,0-2.5-1.26-2.5-3.4,0-2.037.882-3.192,2.373-3.192a4.163,4.163,0,0,1,2.058.651l.21-.084.357-1.785A6.3,6.3,0,0,0,284.949-9.87Zm7.644,0a6.73,6.73,0,0,0-3.78,1.26l.273,1.491.168.105a4.783,4.783,0,0,1,3-1.344,1.382,1.382,0,0,1,1.512,1.575l-.021,1.134-3.318.735a2.237,2.237,0,0,0-2.037,2.331c0,1.68,1.155,2.73,3.108,2.751a6.149,6.149,0,0,0,2.184-1.575h.147A1.635,1.635,0,0,0,295.365.147a3.422,3.422,0,0,0,1.323-.462l.21-1.176-.189-.147a3.211,3.211,0,0,1-.63.084c-.441,0-.609-.168-.609-.714,0-.714.252-4.242.252-4.977C295.722-8.9,294.5-9.87,292.593-9.87Zm1.155,5.46-.063,1.617a2.965,2.965,0,0,1-2.1,1.281A1.21,1.21,0,0,1,290.3-2.856a.775.775,0,0,1,.714-.9ZM304.878,0h2.163l-.1-4.242L307-6.972c.021-1.806-1.092-2.835-3.255-2.835a7.141,7.141,0,0,0-2.583,1.491h-.147l.021-1.407L299-9.534l.105,5.481L298.977,0h2.142l-.126-4.242.021-2.562a3.767,3.767,0,0,1,2.52-1.26c1.008,0,1.512.651,1.491,1.7Zm8.82-1.512c-1.6,0-2.5-1.26-2.5-3.4,0-2.037.882-3.192,2.373-3.192a4.1,4.1,0,0,1,2.058.651l.21-.084.357-1.785a6.3,6.3,0,0,0-2.583-.546c-2.772,0-4.431,1.953-4.431,5.124,0,2.751,1.239,4.536,3.4,4.872l-.357,1.407,1.029.609c.231.105.4.231.4.462,0,.336-.252.525-.609.525a1.651,1.651,0,0,1-1.2-.651l-.105.042-.189.987a2.374,2.374,0,0,0,1.617.63c1.092,0,1.827-.609,1.827-1.47a1.285,1.285,0,0,0-.84-1.2l-.714-.42L313.7.189a7.8,7.8,0,0,0,2.226-.483l.231-1.722-.21-.126A5.051,5.051,0,0,1,313.7-1.512Zm8.064-8.358c-2.9,0-4.515,1.869-4.515,5.187,0,3.108,1.533,4.872,4.242,4.872C324.387.189,326-1.68,326-5,326-8.106,324.471-9.87,321.762-9.87Zm-.126,1.491c1.575,0,2.373,1.218,2.373,3.864,0,2.2-.8,3.234-2.373,3.234-1.6,0-2.394-1.2-2.394-3.864C319.242-7.308,320.04-8.379,321.636-8.379Zm14.343-1.344-2.037.189v6.825a3.443,3.443,0,0,1-2.289,1.071c-.987,0-1.47-.63-1.449-1.659l.1-6.426-2.121.189.084,4.2-.042,2.625C328.209-.9,329.343.126,331.464.126a6.313,6.313,0,0,0,2.52-1.47h.168A1.682,1.682,0,0,0,335.706.147a3.3,3.3,0,0,0,1.323-.462l.21-1.176-.189-.147a3.035,3.035,0,0,1-.651.084c-.42,0-.567-.168-.567-.693Zm9.408-.126c-2.226,0-3.528,1.26-3.528,2.919,0,3.045,4.347,2.646,4.347,4.431a1.342,1.342,0,0,1-1.491,1.239,4.437,4.437,0,0,1-2.688-1.134l-.231.147-.252,1.785a7.6,7.6,0,0,0,2.94.651c2.415,0,3.633-1.491,3.633-3.045,0-2.961-4.347-2.583-4.347-4.347a1.226,1.226,0,0,1,1.365-1.155,3.917,3.917,0,0,1,2.142.735l.273-.063.294-1.68A6.649,6.649,0,0,0,345.387-9.849Zm12.663.126-2.037.189v6.825a3.443,3.443,0,0,1-2.289,1.071c-.987,0-1.47-.63-1.449-1.659l.1-6.426-2.121.189.084,4.2L350.3-2.709C350.28-.9,351.414.126,353.535.126a6.313,6.313,0,0,0,2.52-1.47h.168A1.682,1.682,0,0,0,357.777.147,3.3,3.3,0,0,0,359.1-.315l.21-1.176-.189-.147a3.035,3.035,0,0,1-.651.084c-.42,0-.567-.168-.567-.693Zm6.615-.147a6.73,6.73,0,0,0-3.78,1.26l.273,1.491.168.105a4.783,4.783,0,0,1,3-1.344,1.382,1.382,0,0,1,1.512,1.575l-.021,1.134-3.318.735a2.237,2.237,0,0,0-2.037,2.331c0,1.68,1.155,2.73,3.108,2.751a6.149,6.149,0,0,0,2.184-1.575h.147A1.635,1.635,0,0,0,367.437.147a3.422,3.422,0,0,0,1.323-.462l.21-1.176-.189-.147a3.211,3.211,0,0,1-.63.084c-.441,0-.609-.168-.609-.714,0-.714.252-4.242.252-4.977C367.794-8.9,366.576-9.87,364.665-9.87Zm1.155,5.46-.063,1.617a2.965,2.965,0,0,1-2.1,1.281,1.21,1.21,0,0,1-1.281-1.344.775.775,0,0,1,.714-.9ZM385.98,0h2.772l-.105-4.284.063-2.793c.021-1.806-1.092-2.814-3.234-2.814a7.392,7.392,0,0,0-2.73,1.575h-.1c-.42-1.029-1.428-1.575-3.024-1.575a7.1,7.1,0,0,0-2.541,1.512h-.126V-9.807l-2.646.231.126,5.544L374.283,0h2.772l-.126-4.305V-6.762a3.281,3.281,0,0,1,2.016-.882c.9,0,1.344.546,1.344,1.554L380.121,0h2.772l-.1-4.284.042-2.5a3.217,3.217,0,0,1,1.995-.861c.882,0,1.323.546,1.3,1.554Zm10.878-15.183-.273-.021c-1.239,1.155-2.457,2.142-3.8,3.213l.672,1.05.273.021c1.344-.777,2.625-1.575,4.1-2.478l.042-.273Zm-1.827,5.229a7.584,7.584,0,0,0-3.99,1.176l.315,1.848.21.126a5.327,5.327,0,0,1,3-1.218,1.189,1.189,0,0,1,1.344,1.365V-5.8l-3.213.609a2.316,2.316,0,0,0-2.163,2.457c0,1.785,1.239,2.9,3.255,2.919a6.208,6.208,0,0,0,2.142-1.554h.147A1.762,1.762,0,0,0,397.7.168a3.5,3.5,0,0,0,1.554-.525l.231-1.47L399.294-2a2.29,2.29,0,0,1-.546.084c-.378,0-.5-.168-.5-.63,0-.672.231-3.948.231-4.662C398.475-8.946,397.173-9.954,395.031-9.954Zm.861,5.565-.042,1.554a2.477,2.477,0,0,1-1.722.966,1.039,1.039,0,0,1-1.113-1.155.764.764,0,0,1,.672-.882ZM403.7-8.673l-.441-1.155-2.982.147,2.856,4.788L400.3,0h2.457l.462-.987L404.67-3.36l1.386,2.247.483,1.239,2.94-.21-2.94-4.872,2.814-4.788H406.9l-.525.987-1.323,2.268Zm8.757-5.88a1.433,1.433,0,0,0-1.533,1.533,1.3,1.3,0,0,0,1.428,1.449,1.418,1.418,0,0,0,1.491-1.554A1.283,1.283,0,0,0,412.461-14.553Zm1.134,10.248.168-5.5-2.793.231.126,5.544L410.949,0h2.793ZM427.98,0h2.772l-.105-4.284.063-2.793c.021-1.806-1.092-2.814-3.234-2.814a7.392,7.392,0,0,0-2.73,1.575h-.1c-.42-1.029-1.428-1.575-3.024-1.575a7.1,7.1,0,0,0-2.541,1.512h-.126V-9.807l-2.646.231.126,5.544L416.283,0h2.772l-.126-4.305V-6.762a3.281,3.281,0,0,1,2.016-.882c.9,0,1.344.546,1.344,1.554L422.121,0h2.772l-.1-4.284.042-2.5a3.217,3.217,0,0,1,1.995-.861c.882,0,1.323.546,1.3,1.554Zm9.051-9.954a7.53,7.53,0,0,0-3.99,1.176l.315,1.848.21.126a5.327,5.327,0,0,1,3-1.218,1.189,1.189,0,0,1,1.344,1.365V-5.8l-3.213.609a2.3,2.3,0,0,0-2.163,2.457c0,1.785,1.218,2.9,3.234,2.919a6.089,6.089,0,0,0,2.163-1.554h.147A1.762,1.762,0,0,0,439.7.168a3.32,3.32,0,0,0,1.533-.525l.252-1.47L441.273-2a2.154,2.154,0,0,1-.546.084c-.357,0-.483-.168-.483-.63,0-.672.231-3.948.231-4.662C440.475-8.946,439.173-9.954,437.031-9.954Zm.861,5.565-.042,1.554a2.477,2.477,0,0,1-1.722.966,1.039,1.039,0,0,1-1.113-1.155.763.763,0,0,1,.651-.882ZM452.382,0H455.2l-.126-4.284.063-2.793c.042-1.806-1.092-2.814-3.234-2.814a7.021,7.021,0,0,0-2.52,1.512h-.126l.1-6.363-2.793.21.126,10.479L446.544,0h2.793l-.147-4.305.042-2.457a3.184,3.184,0,0,1,1.995-.882c.882,0,1.344.567,1.323,1.554Zm6.72-14.553a1.433,1.433,0,0,0-1.533,1.533A1.3,1.3,0,0,0,459-11.571a1.418,1.418,0,0,0,1.491-1.554A1.283,1.283,0,0,0,459.1-14.553Zm1.134,10.248.168-5.5-2.793.231.126,5.544L457.59,0h2.793Zm5.985-5.628c-2.415,0-3.822,1.344-3.822,3.108,0,3.108,4.347,2.73,4.347,4.284,0,.5-.42.966-1.2.966a5,5,0,0,1-2.856-1.2l-.273.168L462.105-.42a8.83,8.83,0,0,0,3.129.63c2.688,0,3.906-1.575,3.906-3.192,0-3.045-4.326-2.667-4.326-4.221a.967.967,0,0,1,1.092-.9,4.531,4.531,0,0,1,2.289.819l.336-.105.378-2.058A7.626,7.626,0,0,0,466.221-9.933Zm8.736,7.875c-.756,0-1.092-.315-1.092-1.239l.126-4.7h2.5l.126-1.533-.084-.147h-2.5l.063-2.268-.189-.168-2.541.819v1.617h-1.239l-.147,1.533.1.147h1.3l.021,3.612-.1,1.743q0,2.489,2.835,2.772a6.28,6.28,0,0,0,2.184-.672l.273-1.659-.231-.21A3.234,3.234,0,0,1,474.957-2.058Zm8.9-13.125-.273-.021c-1.239,1.155-2.457,2.142-3.8,3.213l.672,1.05.273.021c1.344-.777,2.625-1.575,4.1-2.478l.042-.273Zm-1.932,5.229c-3.045,0-4.7,1.869-4.7,5.271,0,3.15,1.554,4.893,4.41,4.893,3.045,0,4.7-1.869,4.7-5.271C486.339-8.232,484.785-9.954,481.929-9.954Zm-.168,1.89c1.386,0,1.974,1.008,1.974,3.57,0,2.037-.567,2.835-1.89,2.835-1.386,0-1.995-.966-1.995-3.57C479.85-7.224,480.438-8.064,481.761-8.064Zm11.886-1.722a3.024,3.024,0,0,0-2.583,1.89h-.147l.021-1.911-2.667.231.126,5.544L488.25,0h2.793L490.9-4.305V-5.649A2.727,2.727,0,0,1,493.1-7.2a2.2,2.2,0,0,1,.777.147l.273-.1V-9.744A4.444,4.444,0,0,0,493.647-9.786Zm3.381-4.767a1.433,1.433,0,0,0-1.533,1.533,1.3,1.3,0,0,0,1.428,1.449,1.418,1.418,0,0,0,1.491-1.554A1.283,1.283,0,0,0,497.028-14.553Zm1.134,10.248.168-5.5-2.793.231.126,5.544L495.516,0h2.793Zm6.72-5.649c-2.94,0-4.683,1.953-4.683,5.187,0,3.129,1.6,4.977,4.284,4.977a8.851,8.851,0,0,0,2.583-.4l.273-2.163-.21-.168a5.152,5.152,0,0,1-2.1.525c-1.407,0-2.184-1.071-2.184-3.024,0-1.722.735-2.667,2.016-2.667a4.032,4.032,0,0,1,1.911.588L507-7.2l.462-2.226A6.373,6.373,0,0,0,504.882-9.954Zm7.707,0a7.53,7.53,0,0,0-3.99,1.176l.315,1.848.21.126a5.327,5.327,0,0,1,3-1.218,1.189,1.189,0,0,1,1.344,1.365V-5.8l-3.213.609A2.3,2.3,0,0,0,508.1-2.73c0,1.785,1.218,2.9,3.234,2.919a6.089,6.089,0,0,0,2.163-1.554h.147A1.762,1.762,0,0,0,515.256.168a3.32,3.32,0,0,0,1.533-.525l.252-1.47L516.831-2a2.154,2.154,0,0,1-.546.084c-.357,0-.483-.168-.483-.63,0-.672.231-3.948.231-4.662C516.033-8.946,514.731-9.954,512.589-9.954Zm.861,5.565-.042,1.554a2.477,2.477,0,0,1-1.722.966,1.039,1.039,0,0,1-1.113-1.155.763.763,0,0,1,.651-.882ZM520-1.848a.926.926,0,0,0-.987.987.863.863,0,0,0,.924.966A.932.932,0,0,0,520.926-.9.866.866,0,0,0,520-1.848Z" transform="translate(512.202 5635.321)"/>
    <path id="Caminho_758828" data-name="Caminho 758828" d="M24.809,294.734,403.658,148.328l76.253-86.292L553.3,2.75,626,30.773l78.539,61,74.728,27.832L856.664.272" transform="translate(520.36 5725.745)" fill="none" stroke="#40bbff" stroke-miterlimit="10" stroke-width="2"/>
    <line id="Linha_48" data-name="Linha 48" x2="903.596" transform="translate(508.202 6078.813)" fill="none" stroke="#40bbff" stroke-miterlimit="10" stroke-width="1"/>
    <line id="Linha_49" data-name="Linha 49" y2="309.586" transform="translate(1073.157 5752.451)" fill="none" stroke="#0024a9" stroke-linecap="round" stroke-miterlimit="10" stroke-width="3" stroke-dasharray="5"/>
    <ellipse id="Elipse_12987" data-name="Elipse 12987" cx="7.466" cy="7.466" rx="7.466" ry="7.466" transform="translate(538.815 6012.321)" fill="#3b4aff"/>
    <ellipse id="Elipse_12976" data-name="Elipse 12976" cx="7.466" cy="7.466" rx="7.466" ry="7.466" transform="translate(689.636 5954.083)" fill="#3b4aff"/>
    <ellipse id="Elipse_12977" data-name="Elipse 12977" cx="7.466" cy="7.466" rx="7.466" ry="7.466" transform="translate(840.458 5895.845)" fill="#3b4aff"/>
    <ellipse id="Elipse_12986" data-name="Elipse 12986" cx="7.466" cy="7.466" rx="7.466" ry="7.466" transform="translate(613.479 5982.456)" fill="#3b4aff"/>
    <ellipse id="Elipse_12978" data-name="Elipse 12978" cx="7.466" cy="7.466" rx="7.466" ry="7.466" transform="translate(764.3 5924.218)" fill="#3b4aff"/>
    <ellipse id="Elipse_12979" data-name="Elipse 12979" cx="7.466" cy="7.466" rx="7.466" ry="7.466" transform="translate(915.122 5865.979)" fill="#3b4aff"/>
    <ellipse id="Elipse_12980" data-name="Elipse 12980" cx="7.466" cy="7.466" rx="7.466" ry="7.466" transform="translate(992.772 5780.862)" fill="#3b4aff"/>
    <ellipse id="Elipse_12981" data-name="Elipse 12981" cx="7.466" cy="7.466" rx="7.466" ry="7.466" transform="translate(1215.272 5809.234)" fill="#3b4aff"/>
    <ellipse id="Elipse_12982" data-name="Elipse 12982" cx="7.466" cy="7.466" rx="7.466" ry="7.466" transform="translate(1289.937 5837.607)" fill="#3b4aff"/>
    <ellipse id="Elipse_12983" data-name="Elipse 12983" cx="7.466" cy="7.466" rx="7.466" ry="7.466" transform="translate(1367.589 5721.131)" fill="#3b4aff"/>
    <ellipse id="Elipse_12984" data-name="Elipse 12984" cx="7.466" cy="7.466" rx="7.466" ry="7.466" transform="translate(1139.114 5749.503)" fill="#3b4aff"/>
    <ellipse id="Elipse_12985" data-name="Elipse 12985" cx="8.96" cy="8.96" rx="8.96" ry="8.96" transform="translate(1064.45 5721.131)" fill="#3b4aff"/>
    <path id="Caminho_773193" data-name="Caminho 773193" d="M4.809-4.452l.126-9.03H.252L.126-11.949l.189.168L2.772-11.8l.084,7.56V-2.5C2.856-.987,2.121-.189.294.756V.987l.756,1.2c2.814-1.239,3.8-2.5,3.8-4.683Zm6.51-5.418a6.729,6.729,0,0,0-3.78,1.26l.273,1.491.168.105a4.783,4.783,0,0,1,3-1.344A1.382,1.382,0,0,1,12.5-6.783l-.021,1.134-3.318.735A2.237,2.237,0,0,0,7.119-2.583C7.119-.9,8.274.147,10.227.168a6.149,6.149,0,0,0,2.184-1.575h.147A1.635,1.635,0,0,0,14.091.147a3.422,3.422,0,0,0,1.323-.462l.21-1.176-.189-.147a3.212,3.212,0,0,1-.63.084c-.441,0-.609-.168-.609-.714,0-.714.252-4.242.252-4.977C14.448-8.9,13.23-9.87,11.319-9.87Zm1.155,5.46-.063,1.617a2.965,2.965,0,0,1-2.1,1.281A1.21,1.21,0,0,1,9.03-2.856a.775.775,0,0,1,.714-.9ZM23.6,0h2.163l-.1-4.242.063-2.73c.021-1.806-1.092-2.835-3.255-2.835a7.141,7.141,0,0,0-2.583,1.491H19.74l.021-1.407-2.037.189.105,5.481L17.7,0h2.142l-.126-4.242L19.74-6.8a3.767,3.767,0,0,1,2.52-1.26c1.008,0,1.512.651,1.491,1.7Z" transform="translate(531.136 6105.389)" fill="#2f2e33"/>
    <path id="Caminho_773194" data-name="Caminho 773194" d="M4.011-11.7l2.163-.021,3.15.126.168-1.7-.147-.189H1.806l.147,9.429L1.806,0H4.011L3.906-4.242l.021-1.449L5.88-5.712l2.394.063.168-1.638L8.3-7.476l-2.226.063L3.948-7.455ZM17.136-4.746l.357-.336a8.182,8.182,0,0,0,.084-1.05c0-2.31-1.281-3.717-3.528-3.717-2.814,0-4.641,1.911-4.641,5.061,0,3.066,1.68,4.977,4.578,4.977a6.816,6.816,0,0,0,2.94-.714l.252-1.7-.189-.126a5.765,5.765,0,0,1-2.835.882c-1.848,0-2.73-1.2-2.772-3.276ZM15.624-6.153l-4.137.105a2.461,2.461,0,0,1,2.436-2.331c1.05,0,1.743.609,1.743,1.974Zm5.229-2.163L20.58-9.744l-1.974.1L21.483,0h2.31l3.423-9.681h-1.89l-.357,1.47L22.827-2.058H22.68Z" transform="translate(603.136 6105.389)" fill="#2f2e33"/>
    <path id="Caminho_773195" data-name="Caminho 773195" d="M15.477,0,14.2-13.482H11.739l-.63,1.953L8.379-4.305H8.211L5.628-11.466,5-13.482H2.52L1.113,0H2.94l.336-4.284.63-5.9H4.1L7.308-1.491H9.03L12.5-10.185h.147l.63,6.09L13.545,0ZM21.4-9.87a6.729,6.729,0,0,0-3.78,1.26l.273,1.491.168.105a4.783,4.783,0,0,1,3-1.344,1.382,1.382,0,0,1,1.512,1.575l-.021,1.134-3.318.735A2.237,2.237,0,0,0,17.2-2.583C17.2-.9,18.354.147,20.307.168a6.149,6.149,0,0,0,2.184-1.575h.147A1.635,1.635,0,0,0,24.171.147a3.422,3.422,0,0,0,1.323-.462l.21-1.176-.189-.147a3.212,3.212,0,0,1-.63.084c-.441,0-.609-.168-.609-.714,0-.714.252-4.242.252-4.977C24.528-8.9,23.31-9.87,21.4-9.87Zm1.155,5.46-.063,1.617a2.965,2.965,0,0,1-2.1,1.281A1.21,1.21,0,0,1,19.11-2.856a.775.775,0,0,1,.714-.9ZM32.613-9.7a3.1,3.1,0,0,0-2.646,1.911H29.82l.021-1.932L27.8-9.534l.126,5.481L27.783,0h2.142l-.147-4.242L29.8-5.628c.735-1.449,1.47-2.037,2.331-2.037a2.939,2.939,0,0,1,.777.1l.231-.063V-9.66A4.091,4.091,0,0,0,32.613-9.7Z" transform="translate(674.136 6105.389)" fill="#2f2e33"/>
    <path id="Caminho_773196" data-name="Caminho 773196" d="M11.928,0,7.581-13.482H5.04L.231,0H2.394L2.73-1.617l.63-1.764,2.583-.063L8.8-3.381l.588,1.869L9.7,0ZM8.253-5.145,6.09-5.1,3.969-5.145l2.2-6.216h.147ZM18.291-9.786a6.874,6.874,0,0,0-2.52,1.449h-.126l.084-6.405-2.142.168.126,10.542L13.566.042l.336.21,1.323-.546a5.21,5.21,0,0,0,2.142.483c2.9,0,4.683-1.89,4.683-5.334C22.05-8.043,20.769-9.786,18.291-9.786Zm-.84,8.505a3.543,3.543,0,0,1-1.806-.567l-.063-2.436.042-2.52a3.261,3.261,0,0,1,2.31-1.26c1.365,0,2.079,1.176,2.121,3.213C20.076-2.394,19.026-1.281,17.451-1.281ZM29.148-9.7A3.1,3.1,0,0,0,26.5-7.791h-.147l.021-1.932-2.037.189.126,5.481L24.318,0H26.46l-.147-4.242.021-1.386c.735-1.449,1.47-2.037,2.331-2.037a2.939,2.939,0,0,1,.777.1l.231-.063V-9.66A4.091,4.091,0,0,0,29.148-9.7Z" transform="translate(755.136 6105.389)" fill="#2f2e33"/>
    <path id="Caminho_773197" data-name="Caminho 773197" d="M15.477,0,14.2-13.482H11.739l-.63,1.953L8.379-4.305H8.211L5.628-11.466,5-13.482H2.52L1.113,0H2.94l.336-4.284.63-5.9H4.1L7.308-1.491H9.03L12.5-10.185h.147l.63,6.09L13.545,0ZM21.4-9.87a6.729,6.729,0,0,0-3.78,1.26l.273,1.491.168.105a4.783,4.783,0,0,1,3-1.344,1.382,1.382,0,0,1,1.512,1.575l-.021,1.134-3.318.735A2.237,2.237,0,0,0,17.2-2.583C17.2-.9,18.354.147,20.307.168a6.149,6.149,0,0,0,2.184-1.575h.147A1.635,1.635,0,0,0,24.171.147a3.422,3.422,0,0,0,1.323-.462l.21-1.176-.189-.147a3.212,3.212,0,0,1-.63.084c-.441,0-.609-.168-.609-.714,0-.714.252-4.242.252-4.977C24.528-8.9,23.31-9.87,21.4-9.87Zm1.155,5.46-.063,1.617a2.965,2.965,0,0,1-2.1,1.281A1.21,1.21,0,0,1,19.11-2.856a.775.775,0,0,1,.714-.9ZM28.938-14.2a1.136,1.136,0,0,0-1.218,1.218A1.066,1.066,0,0,0,28.875-11.8a1.131,1.131,0,0,0,1.176-1.239A1.039,1.039,0,0,0,28.938-14.2Zm.84,9.954.168-5.481L27.8-9.534l.1,5.481L27.783,0h2.142Z" transform="translate(831.136 6105.389)" fill="#2f2e33"/>
    <path id="Caminho_773198" data-name="Caminho 773198" d="M4.809-4.452l.126-9.03H.252L.126-11.949l.189.168L2.772-11.8l.084,7.56V-2.5C2.856-.987,2.121-.189.294.756V.987l.756,1.2c2.814-1.239,3.8-2.5,3.8-4.683Zm10.9-5.271-2.037.189v6.825a3.443,3.443,0,0,1-2.289,1.071c-.987,0-1.47-.63-1.449-1.659l.1-6.426-2.121.189L8-5.334,7.959-2.709C7.938-.9,9.072.126,11.193.126a6.313,6.313,0,0,0,2.52-1.47h.168A1.682,1.682,0,0,0,15.435.147a3.3,3.3,0,0,0,1.323-.462l.21-1.176-.189-.147a3.036,3.036,0,0,1-.651.084c-.42,0-.567-.168-.567-.693ZM24.738,0H26.9l-.1-4.242.063-2.73c.021-1.806-1.092-2.835-3.255-2.835a7.141,7.141,0,0,0-2.583,1.491h-.147L20.9-9.723l-2.037.189.1,5.481L18.837,0h2.142l-.126-4.242L20.874-6.8a3.767,3.767,0,0,1,2.52-1.26c1.008,0,1.512.651,1.491,1.7Z" transform="translate(908.136 6105.389)" fill="#2f2e33"/>
    <path id="Caminho_773199" data-name="Caminho 773199" d="M4.809-4.452l.126-9.03H.252L.126-11.949l.189.168L2.772-11.8l.084,7.56V-2.5C2.856-.987,2.121-.189.294.756V.987l.756,1.2c2.814-1.239,3.8-2.5,3.8-4.683Zm10.9-5.271-2.037.189v6.825a3.443,3.443,0,0,1-2.289,1.071c-.987,0-1.47-.63-1.449-1.659l.1-6.426-2.121.189L8-5.334,7.959-2.709C7.938-.9,9.072.126,11.193.126a6.313,6.313,0,0,0,2.52-1.47h.168A1.682,1.682,0,0,0,15.435.147a3.3,3.3,0,0,0,1.323-.462l.21-1.176-.189-.147a3.036,3.036,0,0,1-.651.084c-.42,0-.567-.168-.567-.693Zm5.229,5.46.168-10.479-2.142.168.126,10.5L18.942,0h2.142Z" transform="translate(982.136 6105.389)" fill="#2f2e33"/>
    <path id="Caminho_773200" data-name="Caminho 773200" d="M11.928,0,7.581-13.482H5.04L.231,0H2.394L2.73-1.617l.63-1.764,2.583-.063L8.8-3.381l.588,1.869L9.7,0ZM8.253-5.145,6.09-5.1,3.969-5.145l2.2-6.216h.147Zm14.469-4.914-.189-.126a22.291,22.291,0,0,1-3.108.735,4.881,4.881,0,0,0-1.932-.357c-2.373,0-3.927,1.26-3.927,3.423A2.892,2.892,0,0,0,15.015-3.7v.105A4.628,4.628,0,0,0,13.671-2.31c0,.987.651,1.47,1.533,1.764v.1A5.389,5.389,0,0,0,13.4,1.26c0,1.617,1.281,2.814,3.717,2.814,2.646,0,4.641-1.428,4.641-3.3,0-3.213-6.174-1.89-6.174-3.381,0-.231.105-.42.441-.693a6.163,6.163,0,0,0,1.281.126c2.457,0,3.969-1.323,3.969-3.381a3.132,3.132,0,0,0-.4-1.617l.042-.084a11.94,11.94,0,0,0,1.806-.4ZM17.388-4.536a1.755,1.755,0,0,1-1.932-1.953,1.775,1.775,0,0,1,2.016-1.932,1.688,1.688,0,0,1,1.911,1.869A1.82,1.82,0,0,1,17.388-4.536Zm2.52,5.712c0,.9-1.071,1.512-2.541,1.512-1.428,0-2.142-.567-2.142-1.3,0-.588.483-1.092,1.344-1.638C18.207,0,19.908.063,19.908,1.176ZM27.888-9.87c-2.9,0-4.515,1.869-4.515,5.187,0,3.108,1.533,4.872,4.242,4.872C30.513.189,32.13-1.68,32.13-5,32.13-8.106,30.6-9.87,27.888-9.87Zm-.126,1.491c1.575,0,2.373,1.218,2.373,3.864,0,2.2-.8,3.234-2.373,3.234-1.6,0-2.394-1.2-2.394-3.864C25.368-7.308,26.166-8.379,27.762-8.379Z" transform="translate(1047.136 6105.389)" fill="#2f2e33"/>
    <path id="Caminho_773201" data-name="Caminho 773201" d="M5.754-13.629c-2.751,0-4.62,1.722-4.62,3.927,0,3.948,6.048,3.591,6.048,6.216A2.136,2.136,0,0,1,4.788-1.533,5.285,5.285,0,0,1,1.344-3l-.273.126L.8-.735a8.833,8.833,0,0,0,3.78.9c2.856,0,4.746-1.806,4.746-3.99,0-3.927-6.069-3.7-6.069-6.174A2.039,2.039,0,0,1,5.5-11.886a4.868,4.868,0,0,1,2.751,1.029l.336-.126.357-1.974A8.289,8.289,0,0,0,5.754-13.629Zm12.5,8.883.357-.336a8.182,8.182,0,0,0,.084-1.05c0-2.31-1.281-3.717-3.528-3.717-2.814,0-4.641,1.911-4.641,5.061C10.521-1.722,12.2.189,15.1.189a6.816,6.816,0,0,0,2.94-.714l.252-1.7L18.1-2.352a5.765,5.765,0,0,1-2.835.882c-1.848,0-2.73-1.2-2.772-3.276ZM16.737-6.153,12.6-6.048a2.461,2.461,0,0,1,2.436-2.331c1.05,0,1.743.609,1.743,1.974Zm7.581,4.536c-.861,0-1.239-.336-1.218-1.386l.1-5.271h2.709l.105-1.218-.084-.147H23.247l.042-2.079-.189-.168-1.89.714v1.533H19.929l-.1,1.239.084.126h1.323l.021,4.095-.084,1.512A2.506,2.506,0,0,0,23.646.126,6.062,6.062,0,0,0,25.788-.5L26-1.848,25.788-2A3.311,3.311,0,0,1,24.318-1.617Z" transform="translate(1128.136 6105.389)" fill="#2f2e33"/>
    <path id="Caminho_773202" data-name="Caminho 773202" d="M6.909-13.65c-3.969,0-6.2,2.52-6.2,7.035,0,4.326,2.079,6.8,5.8,6.8,3.948,0,6.195-2.6,6.195-7.2C12.7-11.256,10.626-13.65,6.909-13.65ZM6.72-11.865c2.541,0,3.738,1.6,3.738,5.25,0,3.486-1.239,5.061-3.78,5.061S2.94-3.192,2.94-6.888C2.94-10.311,4.158-11.865,6.72-11.865ZM22.6-9.723l-2.037.189v6.825A3.443,3.443,0,0,1,18.27-1.638c-.987,0-1.47-.63-1.449-1.659l.105-6.426L14.8-9.534l.084,4.2-.042,2.625C14.826-.9,15.96.126,18.081.126a6.313,6.313,0,0,0,2.52-1.47h.168A1.682,1.682,0,0,0,22.323.147a3.3,3.3,0,0,0,1.323-.462l.21-1.176-.189-.147a3.036,3.036,0,0,1-.651.084c-.42,0-.567-.168-.567-.693Zm6.552,8.106c-.861,0-1.239-.336-1.218-1.386l.1-5.271h2.709l.1-1.218-.084-.147H28.077l.042-2.079-.189-.168-1.89.714v1.533H24.759l-.1,1.239.084.126h1.323l.021,4.095L26-2.667A2.506,2.506,0,0,0,28.476.126,6.063,6.063,0,0,0,30.618-.5l.21-1.344L30.618-2A3.311,3.311,0,0,1,29.148-1.617Z" transform="translate(1198.136 6105.389)" fill="#2f2e33"/>
    <path id="Caminho_773203" data-name="Caminho 773203" d="M12.5-4.032l.147-9.492-2.037.147.063,10H10.5l-6.342-10.1H1.848l.1,9.492L1.806,0H3.843L3.738-4.515,3.759-10.1h.168L10.248,0h2.331Zm7.14-5.838c-2.9,0-4.515,1.869-4.515,5.187,0,3.108,1.533,4.872,4.242,4.872,2.9,0,4.515-1.869,4.515-5.187C23.877-8.106,22.344-9.87,19.635-9.87Zm-.126,1.491c1.575,0,2.373,1.218,2.373,3.864,0,2.2-.8,3.234-2.373,3.234-1.6,0-2.394-1.2-2.394-3.864C17.115-7.308,17.913-8.379,19.509-8.379Zm7.476.063-.273-1.428-1.974.1L27.615,0h2.31l3.423-9.681h-1.89L31.1-8.211,28.959-2.058h-.147Z" transform="translate(1276.136 6105.389)" fill="#2f2e33"/>
    <path id="Caminho_773204" data-name="Caminho 773204" d="M1.827-13.482H1.806l.147,9.429L1.806,0h.021C3.066.063,5.439.126,6.342.126c4.242,0,6.594-2.6,6.594-7.35,0-4.095-2.142-6.342-6.006-6.342ZM6.72-1.6c-.441,0-1.806-.063-2.751-.147l-.063-2.5.105-7.476c.8-.042,2.31-.084,2.751-.084,2.625,0,3.927,1.575,3.927,5.061C10.689-3.234,9.24-1.6,6.72-1.6Zm15.372-3.15.357-.336a8.182,8.182,0,0,0,.084-1.05c0-2.31-1.281-3.717-3.528-3.717-2.814,0-4.641,1.911-4.641,5.061,0,3.066,1.68,4.977,4.578,4.977a6.816,6.816,0,0,0,2.94-.714l.252-1.7-.189-.126a5.765,5.765,0,0,1-2.835.882c-1.848,0-2.73-1.2-2.772-3.276ZM20.58-6.153l-4.137.105a2.461,2.461,0,0,1,2.436-2.331c1.05,0,1.743.609,1.743,1.974Zm5.481-3.528L24.15-9.723,24-8.253l.126.168,1.617-.168h3.276L23.877-1.218,23.9.042,25.032,0h4.032l2.163.042.168-1.47L31.269-1.6l-1.68.168H26.145l5.124-6.993L31.227-9.7l-.924.021Z" transform="translate(1357.136 6105.389)" fill="#2f2e33"/>
    <path id="Caminho_773181" data-name="Caminho 773181" d="M5.04-10.4l-.315-.231L.21-9.3v1.7L.4-7.476,2.961-8.19l.021,4.074L2.856,0H5.019L4.914-4.347Zm8-.273c-3.024,0-4.767,2.037-4.767,5.586,0,3.339,1.638,5.25,4.494,5.25,3.024,0,4.725-2.016,4.725-5.544C17.493-8.757,15.876-10.668,13.041-10.668Zm-.168,1.974c1.932,0,2.961,1.176,2.961,3.57,0,2.268-1.008,3.4-2.94,3.4-1.974,0-2.94-1.176-2.94-3.507S10.92-8.694,12.873-8.694Zm11.193-1.974c-3.024,0-4.767,2.037-4.767,5.586,0,3.339,1.638,5.25,4.494,5.25,3.024,0,4.725-2.016,4.725-5.544C28.518-8.757,26.9-10.668,24.066-10.668ZM23.9-8.694c1.932,0,2.961,1.176,2.961,3.57,0,2.268-1.008,3.4-2.94,3.4-1.974,0-2.94-1.176-2.94-3.507S21.945-8.694,23.9-8.694Z" transform="translate(525.374 5992.537)" fill="#2f2e33"/>
    <path id="Caminho_773182" data-name="Caminho 773182" d="M5.04-10.4l-.315-.231L.21-9.3v1.7L.4-7.476,2.961-8.19l.021,4.074L2.856,0H5.019L4.914-4.347Zm10.437-.084-.126-.147-2.058.105H10.374l-1.155-.063-.294.294L8.82-4.62l.168.189,1.869.357c1.764.315,2.457.966,2.457,2.079,0,1.407-1.092,2.373-2.835,2.373A5.822,5.822,0,0,1,8.085-.147L7.917.021l.147,1.806a11.921,11.921,0,0,0,2.121.231c3.024,0,5.145-1.785,5.145-4.389,0-1.659-.882-2.772-3.528-3.318l-1.3-.273L10.563-8.8h2.814l1.722.147.147-.147Zm6.447-.189c-3.024,0-4.767,2.037-4.767,5.586,0,3.339,1.638,5.25,4.494,5.25,3.024,0,4.725-2.016,4.725-5.544C26.376-8.757,24.759-10.668,21.924-10.668Zm-.168,1.974c1.932,0,2.961,1.176,2.961,3.57,0,2.268-1.008,3.4-2.94,3.4-1.974,0-2.94-1.176-2.94-3.507S19.8-8.694,21.756-8.694Z" transform="translate(598.546 5965.657)" fill="#2f2e33"/>
    <path id="Caminho_773183" data-name="Caminho 773183" d="M4.935-10.626A6.4,6.4,0,0,0,1.05-9.114l.357,1.659h.231A4.175,4.175,0,0,1,4.473-8.8C5.4-8.8,5.9-8.316,5.9-7.665c0,.819-.735,1.806-2.1,3.276L.924-1.365V-.042l.1.084L1.806,0H6.552l2.31.105.273-1.764-.147-.147-1.827.168H3.738L3.7-1.743,5.565-3.864C7.245-5.754,8-7.056,8-8.19,8-9.681,6.7-10.626,4.935-10.626Zm10.437-.042c-3.024,0-4.767,2.037-4.767,5.586,0,3.339,1.638,5.25,4.494,5.25,3.024,0,4.725-2.016,4.725-5.544C19.824-8.757,18.207-10.668,15.372-10.668ZM15.2-8.694c1.932,0,2.961,1.176,2.961,3.57,0,2.268-1.008,3.4-2.94,3.4-1.974,0-2.94-1.176-2.94-3.507S13.251-8.694,15.2-8.694ZM26.4-10.668c-3.024,0-4.767,2.037-4.767,5.586,0,3.339,1.638,5.25,4.494,5.25,3.024,0,4.725-2.016,4.725-5.544C30.849-8.757,29.232-10.668,26.4-10.668Zm-.168,1.974c1.932,0,2.961,1.176,2.961,3.57,0,2.268-1.008,3.4-2.94,3.4-1.974,0-2.94-1.176-2.94-3.507S24.276-8.694,26.229-8.694Z" transform="translate(671.718 5937.778)" fill="#2f2e33"/>
    <path id="Caminho_773184" data-name="Caminho 773184" d="M4.935-10.626A6.4,6.4,0,0,0,1.05-9.114l.357,1.659h.231A4.175,4.175,0,0,1,4.473-8.8C5.4-8.8,5.9-8.316,5.9-7.665c0,.819-.735,1.806-2.1,3.276L.924-1.365V-.042l.1.084L1.806,0H6.552l2.31.105.273-1.764-.147-.147-1.827.168H3.738L3.7-1.743,5.565-3.864C7.245-5.754,8-7.056,8-8.19,8-9.681,6.7-10.626,4.935-10.626Zm12.873.147-.126-.147-2.058.105H12.7l-1.155-.063-.294.294-.1,5.67.168.189,1.869.357c1.764.315,2.457.966,2.457,2.079,0,1.407-1.092,2.373-2.835,2.373a5.822,5.822,0,0,1-2.394-.525l-.168.168.147,1.806a11.921,11.921,0,0,0,2.121.231c3.024,0,5.145-1.785,5.145-4.389,0-1.659-.882-2.772-3.528-3.318l-1.3-.273L12.894-8.8h2.814l1.722.147.147-.147Zm6.447-.189c-3.024,0-4.767,2.037-4.767,5.586,0,3.339,1.638,5.25,4.494,5.25,3.024,0,4.725-2.016,4.725-5.544C28.707-8.757,27.09-10.668,24.255-10.668Zm-.168,1.974c1.932,0,2.961,1.176,2.961,3.57,0,2.268-1.008,3.4-2.94,3.4-1.974,0-2.94-1.176-2.94-3.507S22.134-8.694,24.087-8.694Z" transform="translate(749.366 5909.406)" fill="#2f2e33"/>
    <path id="Caminho_773185" data-name="Caminho 773185" d="M4.116-10.647A5.663,5.663,0,0,0,.588-9.366L.9-7.749h.231A4.077,4.077,0,0,1,3.7-8.9a1.457,1.457,0,0,1,1.659,1.47A2.313,2.313,0,0,1,3.024-5.313L2.1-5.292l-.063,1.47.126.147H3.486c1.554.063,2.373.735,2.373,1.89C5.859-.441,4.746.378,3.024.378A5.641,5.641,0,0,1,.8-.084L.651.063.756,1.827a14.534,14.534,0,0,0,2.163.189C5.9,2.016,7.9.42,7.9-1.953A2.793,2.793,0,0,0,5.46-4.725v-.084A3.532,3.532,0,0,0,7.518-7.9C7.518-9.534,6.153-10.647,4.116-10.647Zm10.374-.021c-3.024,0-4.767,2.037-4.767,5.586,0,3.339,1.638,5.25,4.494,5.25,3.024,0,4.725-2.016,4.725-5.544C18.942-8.757,17.325-10.668,14.49-10.668Zm-.168,1.974c1.932,0,2.961,1.176,2.961,3.57,0,2.268-1.008,3.4-2.94,3.4-1.974,0-2.94-1.176-2.94-3.507S12.369-8.694,14.322-8.694Zm11.193-1.974c-3.024,0-4.767,2.037-4.767,5.586,0,3.339,1.638,5.25,4.494,5.25,3.024,0,4.725-2.016,4.725-5.544C29.967-8.757,28.35-10.668,25.515-10.668Zm-.168,1.974c1.932,0,2.961,1.176,2.961,3.57,0,2.268-1.008,3.4-2.94,3.4-1.974,0-2.94-1.176-2.94-3.507S23.394-8.694,25.347-8.694Z" transform="translate(825.526 5884.02)" fill="#2f2e33"/>
    <path id="Caminho_773186" data-name="Caminho 773186" d="M4.116-10.647A5.663,5.663,0,0,0,.588-9.366L.9-7.749h.231A4.077,4.077,0,0,1,3.7-8.9a1.457,1.457,0,0,1,1.659,1.47A2.313,2.313,0,0,1,3.024-5.313L2.1-5.292l-.063,1.47.126.147H3.486c1.554.063,2.373.735,2.373,1.89C5.859-.441,4.746.378,3.024.378A5.641,5.641,0,0,1,.8-.084L.651.063.756,1.827a14.534,14.534,0,0,0,2.163.189C5.9,2.016,7.9.42,7.9-1.953A2.793,2.793,0,0,0,5.46-4.725v-.084A3.532,3.532,0,0,0,7.518-7.9C7.518-9.534,6.153-10.647,4.116-10.647Zm12.81.168-.126-.147-2.058.105H11.823l-1.155-.063-.294.294-.1,5.67.168.189,1.869.357c1.764.315,2.457.966,2.457,2.079,0,1.407-1.092,2.373-2.835,2.373A5.822,5.822,0,0,1,9.534-.147L9.366.021l.147,1.806a11.921,11.921,0,0,0,2.121.231c3.024,0,5.145-1.785,5.145-4.389,0-1.659-.882-2.772-3.528-3.318l-1.3-.273L12.012-8.8h2.814l1.722.147.147-.147Zm6.447-.189c-3.024,0-4.767,2.037-4.767,5.586,0,3.339,1.638,5.25,4.494,5.25,3.024,0,4.725-2.016,4.725-5.544C27.825-8.757,26.208-10.668,23.373-10.668ZM23.2-8.694c1.932,0,2.961,1.176,2.961,3.57,0,2.268-1.008,3.4-2.94,3.4-1.974,0-2.94-1.176-2.94-3.507S21.252-8.694,23.2-8.694Z" transform="translate(898.694 5843.208)" fill="#2f2e33"/>
    <path id="Caminho_773187" data-name="Caminho 773187" d="M8.106-10.479l-.126-.147-2.058.105H3l-1.155-.063-.294.294-.1,5.67.168.189,1.869.357C5.25-3.759,5.943-3.108,5.943-2,5.943-.588,4.851.378,3.108.378A5.822,5.822,0,0,1,.714-.147L.546.021.693,1.827a11.921,11.921,0,0,0,2.121.231c3.024,0,5.145-1.785,5.145-4.389,0-1.659-.882-2.772-3.528-3.318l-1.3-.273L3.192-8.8H6.006l1.722.147L7.875-8.8Zm6.447-.189c-3.024,0-4.767,2.037-4.767,5.586,0,3.339,1.638,5.25,4.494,5.25,3.024,0,4.725-2.016,4.725-5.544C19.005-8.757,17.388-10.668,14.553-10.668Zm-.168,1.974c1.932,0,2.961,1.176,2.961,3.57,0,2.268-1.008,3.4-2.94,3.4-1.974,0-2.94-1.176-2.94-3.507S12.432-8.694,14.385-8.694Zm11.193-1.974c-3.024,0-4.767,2.037-4.767,5.586,0,3.339,1.638,5.25,4.494,5.25,3.024,0,4.725-2.016,4.725-5.544C30.03-8.757,28.413-10.668,25.578-10.668ZM25.41-8.694c1.932,0,2.961,1.176,2.961,3.57,0,2.268-1.008,3.4-2.94,3.4-1.974,0-2.94-1.176-2.94-3.507S23.457-8.694,25.41-8.694Z" transform="translate(977.839 5758.584)" fill="#2f2e33"/>
    <path id="Caminho_773189" data-name="Caminho 773189" d="M8.106-10.479l-.126-.147-2.058.105H3l-1.155-.063-.294.294-.1,5.67.168.189,1.869.357C5.25-3.759,5.943-3.108,5.943-2,5.943-.588,4.851.378,3.108.378A5.822,5.822,0,0,1,.714-.147L.546.021.693,1.827a11.921,11.921,0,0,0,2.121.231c3.024,0,5.145-1.785,5.145-4.389,0-1.659-.882-2.772-3.528-3.318l-1.3-.273L3.192-8.8H6.006l1.722.147L7.875-8.8Zm8.883,0-.126-.147-2.058.105H11.886l-1.155-.063-.294.294-.1,5.67.168.189,1.869.357c1.764.315,2.457.966,2.457,2.079,0,1.407-1.092,2.373-2.835,2.373A5.822,5.822,0,0,1,9.6-.147L9.429.021l.147,1.806a11.921,11.921,0,0,0,2.121.231c3.024,0,5.145-1.785,5.145-4.389,0-1.659-.882-2.772-3.528-3.318l-1.3-.273L12.075-8.8h2.814l1.722.147.147-.147Zm6.447-.189c-3.024,0-4.767,2.037-4.767,5.586,0,3.339,1.638,5.25,4.494,5.25,3.024,0,4.725-2.016,4.725-5.544C27.888-8.757,26.271-10.668,23.436-10.668Zm-.168,1.974c1.932,0,2.961,1.176,2.961,3.57,0,2.268-1.008,3.4-2.94,3.4-1.974,0-2.94-1.176-2.94-3.507S21.315-8.694,23.268-8.694Z" transform="translate(1130.155 5730.212)" fill="#2f2e33"/>
    <path id="Caminho_773192" data-name="Caminho 773192" d="M5.754-7.434a4.339,4.339,0,0,0-2.478.777l-.147-.168c.672-2,2.415-3.36,5.607-4.494v-.21L7.14-12.5H7.014C3.108-10.878.861-7.98.861-4.452c0,2.9,1.365,4.641,4.053,4.641A3.9,3.9,0,0,0,9.156-3.843,3.281,3.281,0,0,0,5.754-7.434ZM5.061-1.26c-1.617,0-2.268-1.092-2.268-3.234L2.814-5a3.826,3.826,0,0,1,2.331-.9c1.344,0,2.1.84,2.1,2.352A2.041,2.041,0,0,1,5.061-1.26Zm10.584-9.408c-3.024,0-4.767,2.037-4.767,5.586,0,3.339,1.638,5.25,4.494,5.25C18.4.168,20.1-1.848,20.1-5.376,20.1-8.757,18.48-10.668,15.645-10.668Zm-.168,1.974c1.932,0,2.961,1.176,2.961,3.57,0,2.268-1.008,3.4-2.94,3.4-1.974,0-2.94-1.176-2.94-3.507S13.524-8.694,15.477-8.694ZM26.67-10.668c-3.024,0-4.767,2.037-4.767,5.586,0,3.339,1.638,5.25,4.494,5.25,3.024,0,4.725-2.016,4.725-5.544C31.122-8.757,29.505-10.668,26.67-10.668ZM26.5-8.694c1.932,0,2.961,1.176,2.961,3.57,0,2.268-1.008,3.4-2.94,3.4-1.974,0-2.94-1.176-2.94-3.507S24.549-8.694,26.5-8.694Z" transform="translate(1352.655 5704.333)" fill="#2f2e33"/>
    <path id="Caminho_773190" data-name="Caminho 773190" d="M9.555-1.386,9.66-2.9l-.126-.189H7.644l.063-7.434H5.733L.5-2.961v1.386l.147.189,1.575-.042h3.7L5.859,1.89l.126.147,1.638-.126.126-.168L7.665-1.428Zm-7.182-1.7,3.4-4.935h.168v4.935ZM18.4-10.479l-.126-.147-2.058.105H13.293l-1.155-.063-.294.294-.1,5.67.168.189,1.869.357c1.764.315,2.457.966,2.457,2.079C16.233-.588,15.141.378,13.4.378A5.822,5.822,0,0,1,11-.147l-.168.168.147,1.806a11.921,11.921,0,0,0,2.121.231c3.024,0,5.145-1.785,5.145-4.389,0-1.659-.882-2.772-3.528-3.318l-1.3-.273L13.482-8.8H16.3l1.722.147.147-.147Zm6.447-.189c-3.024,0-4.767,2.037-4.767,5.586,0,3.339,1.638,5.25,4.494,5.25,3.024,0,4.725-2.016,4.725-5.544C29.3-8.757,27.678-10.668,24.843-10.668Zm-.168,1.974c1.932,0,2.961,1.176,2.961,3.57,0,2.268-1.008,3.4-2.94,3.4-1.974,0-2.94-1.176-2.94-3.507S22.722-8.694,24.675-8.694Z" transform="translate(1204.819 5789.943)" fill="#2f2e33"/>
    <path id="Caminho_773191" data-name="Caminho 773191" d="M9.555-1.386,9.66-2.9l-.126-.189H7.644l.063-7.434H5.733L.5-2.961v1.386l.147.189,1.575-.042h3.7L5.859,1.89l.126.147,1.638-.126.126-.168L7.665-1.428Zm-7.182-1.7,3.4-4.935h.168v4.935ZM15.96-10.668c-3.024,0-4.767,2.037-4.767,5.586,0,3.339,1.638,5.25,4.494,5.25,3.024,0,4.725-2.016,4.725-5.544C20.412-8.757,18.8-10.668,15.96-10.668Zm-.168,1.974c1.932,0,2.961,1.176,2.961,3.57,0,2.268-1.008,3.4-2.94,3.4-1.974,0-2.94-1.176-2.94-3.507S13.839-8.694,15.792-8.694Zm11.193-1.974c-3.024,0-4.767,2.037-4.767,5.586,0,3.339,1.638,5.25,4.494,5.25,3.024,0,4.725-2.016,4.725-5.544C31.437-8.757,29.82-10.668,26.985-10.668Zm-.168,1.974c1.932,0,2.961,1.176,2.961,3.57,0,2.268-1.008,3.4-2.94,3.4-1.974,0-2.94-1.176-2.94-3.507S24.864-8.694,26.817-8.694Z" transform="translate(1277.991 5875.06)" fill="#2f2e33"/>
    <path id="Caminho_773188" data-name="Caminho 773188" d="M8.8-11.191a5.937,5.937,0,0,0-3.131.868L5.425-10.6c1.054-2.418,3.379-4.03,7.657-5.642v-.4l-2.821-1.829h-.217c-5.7,2.511-9.021,6.758-9.021,11.811C1.023-2.325,3.255.31,7.378.31c4.34,0,6.572-2.852,6.572-6.107C13.95-8.773,12.09-11.191,8.8-11.191Zm-1.24,8.8c-2.108,0-2.79-1.519-2.79-4.34v-.651A5.351,5.351,0,0,1,7.6-8.308c1.736,0,2.635,1.054,2.635,3.007C10.23-3.41,9.238-2.387,7.564-2.387ZM23.343-15.9c-4.557,0-7.161,3.069-7.161,8.4,0,4.929,2.418,7.781,6.634,7.781,4.526,0,7.13-3.038,7.13-8.339C29.946-13.082,27.528-15.9,23.343-15.9Zm-.31,3.813c2.48,0,3.72,1.426,3.72,4.495,0,2.883-1.209,4.247-3.689,4.247-2.511,0-3.689-1.426-3.689-4.433C19.375-10.757,20.553-12.09,23.033-12.09ZM39.494-15.9c-4.557,0-7.161,3.069-7.161,8.4,0,4.929,2.418,7.781,6.634,7.781,4.526,0,7.13-3.038,7.13-8.339C46.1-13.082,43.679-15.9,39.494-15.9Zm-.31,3.813c2.48,0,3.72,1.426,3.72,4.495,0,2.883-1.209,4.247-3.689,4.247-2.511,0-3.689-1.426-3.689-4.433C35.526-10.757,36.7-12.09,39.184-12.09Z" transform="translate(1049.91 5704.333)" fill="#2f2e33"/>
  </g>
</svg>
