<svg xmlns="http://www.w3.org/2000/svg" width="624.512" height="550.852" viewBox="0 0 624.512 550.852">
  <g id="_img_Grafico_8-mob_" data-name="&lt;img Grafico_8-mob&gt;" transform="translate(137.256 -11055.385)">
    <path id="Caminho_773671" data-name="Caminho 773671" d="M4.818,23V13.518L11.9,23h2.6V7.6H11.374v9.46L4.29,7.6H1.716V23ZM24.882,5.818,19.734,9.162l1.144,1.848L26.356,8.3Zm3.234,6.4h-3.1c0,3.5-.11,8.448-2.75,8.448-1.364,0-1.628-1.43-1.628-2.354V12.22h-3.08v7.106a3.685,3.685,0,0,0,3.916,4,4,4,0,0,0,3.784-2.794L25.014,23h3.1Zm16.764-.33A3.957,3.957,0,0,0,41.162,14.6,3.2,3.2,0,0,0,37.84,11.89c-1.914,0-3.1,1.188-3.828,2.948l.264-2.618H31.2V23h3.08c0-3.476.154-8.448,2.6-8.448,1.21,0,1.342,1.32,1.342,2.354V23h3.1c0-3.454.132-8.448,2.574-8.448,1.232,0,1.364,1.32,1.364,2.354V23h3.08V16.048C48.334,13.43,47.08,11.89,44.88,11.89Zm11.682,9a2.844,2.844,0,0,1-2.926-2.112l6.6-.77a5.685,5.685,0,0,0,.286-1.8c0-2.728-1.98-4.312-4.62-4.312-3.124,0-5.39,2.2-5.39,5.676a5.445,5.445,0,0,0,5.83,5.764,6.636,6.636,0,0,0,3.916-1.21l-1.144-2A4.938,4.938,0,0,1,56.562,20.888Zm-.484-6.622c.968,0,1.672.506,1.672,1.452a1.7,1.7,0,0,1-.066.55l-4.18.506A2.638,2.638,0,0,1,56.078,14.266ZM69.85,11.89c-2.376,0-3.564,1.76-4.18,4.114l.374-3.784h-3.08V23h3.08c0-3.564.22-7.92,3.146-7.92a3.491,3.491,0,0,1,1.1.2l.814-3.212A4.544,4.544,0,0,0,69.85,11.89Zm7.81,11.44a5.441,5.441,0,0,0,5.632-5.72,5.644,5.644,0,1,0-11.286,0A5.446,5.446,0,0,0,77.66,23.33Zm0-2.508c-1.628,0-2.464-1.5-2.464-3.212S76.032,14.4,77.66,14.4c1.606,0,2.442,1.5,2.442,3.212S79.266,20.822,77.66,20.822Zm21.12-8.8a8.474,8.474,0,0,0-1.518-.132c-4.356,0-6.226,3.168-6.226,6.424,0,2.948,1.518,5.016,4.026,5.016,2.024,0,3.278-1.452,4.048-3.41L98.78,23h3.1V7.072h-3.1Zm-2.772,8.822c-.99,0-1.76-.638-1.76-2.64,0-1.518.528-3.96,2.97-3.96a3.61,3.61,0,0,1,1.54.374C98.582,17.5,97.944,20.844,96.008,20.844Zm14.19.044a2.844,2.844,0,0,1-2.926-2.112l6.6-.77a5.685,5.685,0,0,0,.286-1.8c0-2.728-1.98-4.312-4.62-4.312-3.124,0-5.39,2.2-5.39,5.676a5.445,5.445,0,0,0,5.83,5.764,6.636,6.636,0,0,0,3.916-1.21l-1.144-2A4.938,4.938,0,0,1,110.2,20.888Zm-.484-6.622c.968,0,1.672.506,1.672,1.452a1.7,1.7,0,0,1-.066.55l-4.18.506A2.638,2.638,0,0,1,109.714,14.266Zm18.9-1.518a10.432,10.432,0,0,1,1.078,4.378c0,1.8-.682,3.63-2.486,3.63-1.166,0-1.76-.748-1.76-2.178V12.22h-3.08v6.688c0,2.6,1.87,4.4,4.818,4.4,3.784,0,5.654-2.926,5.654-6.182a14.106,14.106,0,0,0-1.21-5.214Zm12.166,8.14a2.844,2.844,0,0,1-2.926-2.112l6.6-.77a5.685,5.685,0,0,0,.286-1.8c0-2.728-1.98-4.312-4.62-4.312-3.124,0-5.39,2.2-5.39,5.676a5.445,5.445,0,0,0,5.83,5.764,6.636,6.636,0,0,0,3.916-1.21l-1.144-2A4.938,4.938,0,0,1,140.778,20.888Zm-.484-6.622c.968,0,1.672.506,1.672,1.452a1.7,1.7,0,0,1-.066.55l-4.18.506A2.638,2.638,0,0,1,140.294,14.266Zm13.794-2.376c-2.09,0-3.344,1.276-4.092,3.146l.264-2.816h-3.08V23h3.08c0-3.5.2-8.448,2.882-8.448,1.364,0,1.5,1.452,1.5,2.354V23h3.1V16.048C157.74,13.452,156.4,11.89,154.088,11.89Zm13.772.132a8.474,8.474,0,0,0-1.518-.132c-4.356,0-6.226,3.168-6.226,6.424,0,2.948,1.518,5.016,4.026,5.016,2.024,0,3.278-1.452,4.048-3.41L167.86,23h3.1V7.072h-3.1Zm-2.772,8.822c-.99,0-1.76-.638-1.76-2.64,0-1.518.528-3.96,2.97-3.96a3.61,3.61,0,0,1,1.54.374C167.662,17.5,167.024,20.844,165.088,20.844Zm14.564-8.954c-4.356,0-6.226,3.168-6.226,6.424,0,2.948,1.518,5.016,4.026,5.016,2.024,0,3.278-1.43,4.048-3.388L181.17,23h3.1V13.3A8.088,8.088,0,0,0,179.652,11.89ZM178.4,20.844c-.99,0-1.76-.638-1.76-2.64,0-1.518.528-3.96,2.97-3.96a3.61,3.61,0,0,1,1.54.374C180.972,17.5,180.334,20.844,178.4,20.844ZM191,23.33c2.662,0,4.6-1.144,4.6-3.63,0-3.828-5.566-2.706-5.566-4.4,0-.7.88-.9,1.694-.9a5.752,5.752,0,0,1,2.684.66L195.47,12.9a8.551,8.551,0,0,0-4.048-1.012c-2.222,0-4.488.924-4.488,3.388,0,4.026,5.588,2.86,5.588,4.642,0,.594-.594.924-1.672.924a6.735,6.735,0,0,1-3.344-.946l-1.122,2.244A9.414,9.414,0,0,0,191,23.33Zm20.13-11.308a8.474,8.474,0,0,0-1.518-.132c-4.356,0-6.226,3.168-6.226,6.424,0,2.948,1.518,5.016,4.026,5.016,2.024,0,3.278-1.452,4.048-3.41l-.33,3.08h3.1V7.072h-3.1Zm-2.772,8.822c-.99,0-1.76-.638-1.76-2.64,0-1.518.528-3.96,2.97-3.96a3.61,3.61,0,0,1,1.54.374C210.936,17.5,210.3,20.844,208.362,20.844Zm13.794,2.486a5.441,5.441,0,0,0,5.632-5.72,5.644,5.644,0,1,0-11.286,0A5.446,5.446,0,0,0,222.156,23.33Zm0-2.508c-1.628,0-2.464-1.5-2.464-3.212s.836-3.212,2.464-3.212c1.606,0,2.442,1.5,2.442,3.212S223.762,20.822,222.156,20.822Zm11.616,2.508c2.662,0,4.6-1.144,4.6-3.63,0-3.828-5.566-2.706-5.566-4.4,0-.7.88-.9,1.694-.9a5.752,5.752,0,0,1,2.684.66l1.056-2.156a8.551,8.551,0,0,0-4.048-1.012c-2.222,0-4.488.924-4.488,3.388,0,4.026,5.588,2.86,5.588,4.642,0,.594-.594.924-1.672.924a6.735,6.735,0,0,1-3.344-.946l-1.122,2.244A9.414,9.414,0,0,0,233.772,23.33Zm17.974,0a7.084,7.084,0,0,0,2.464-.462l-.638-2.42a3.145,3.145,0,0,1-1.1.22c-1.144,0-1.694-.682-1.694-2.046v-3.96h3.014V12.22h-3.014V8.854h-2.046l-.22,1.188c-.33,1.738-.506,2.178-2.486,2.178h-.33v2.442h2V19.15C247.7,21.724,249.062,23.33,251.746,23.33Zm6.27-12.628a2.016,2.016,0,0,0,2.068-2.09,2.079,2.079,0,1,0-4.158,0A2.021,2.021,0,0,0,258.016,10.7Zm1.54,12.3V12.22h-3.08V23Zm9.9-11.11c-2.046,0-3.322,1.474-4.07,3.454l.33-3.124h-3.08V27.708h3.08V23.2a8.724,8.724,0,0,0,1.54.132c4.356,0,6.226-3.168,6.226-6.424C273.482,13.958,271.964,11.89,269.456,11.89ZM267.3,20.976a3.631,3.631,0,0,1-1.562-.374c.176-2.882.814-6.248,2.772-6.248.968,0,1.76.66,1.76,2.64C270.27,18.534,269.72,20.976,267.3,20.976Zm13.662,2.354a5.441,5.441,0,0,0,5.632-5.72,5.644,5.644,0,1,0-11.286,0A5.446,5.446,0,0,0,280.962,23.33Zm0-2.508c-1.628,0-2.464-1.5-2.464-3.212s.836-3.212,2.464-3.212c1.606,0,2.442,1.5,2.442,3.212S282.568,20.822,280.962,20.822Zm11.616,2.508c2.662,0,4.6-1.144,4.6-3.63,0-3.828-5.566-2.706-5.566-4.4,0-.7.88-.9,1.694-.9a5.752,5.752,0,0,1,2.684.66l1.056-2.156A8.551,8.551,0,0,0,293,11.89c-2.222,0-4.488.924-4.488,3.388,0,4.026,5.588,2.86,5.588,4.642,0,.594-.594.924-1.672.924a6.735,6.735,0,0,1-3.344-.946l-1.122,2.244A9.414,9.414,0,0,0,292.578,23.33ZM8.756,40.022a8.474,8.474,0,0,0-1.518-.132c-4.356,0-6.226,3.168-6.226,6.424,0,2.948,1.518,5.016,4.026,5.016,2.024,0,3.278-1.452,4.048-3.41L8.756,51h3.1V35.072h-3.1ZM5.984,48.844c-.99,0-1.76-.638-1.76-2.64,0-1.518.528-3.96,2.97-3.96a3.61,3.61,0,0,1,1.54.374C8.558,45.5,7.92,48.844,5.984,48.844Zm14.19.044a2.844,2.844,0,0,1-2.926-2.112l6.6-.77a5.685,5.685,0,0,0,.286-1.8c0-2.728-1.98-4.312-4.62-4.312-3.124,0-5.39,2.2-5.39,5.676a5.445,5.445,0,0,0,5.83,5.764,6.636,6.636,0,0,0,3.916-1.21l-1.144-2A4.938,4.938,0,0,1,20.174,48.888Zm-.484-6.622c.968,0,1.672.506,1.672,1.452a1.7,1.7,0,0,1-.066.55l-4.18.506A2.638,2.638,0,0,1,19.69,42.266Zm18.084,6.4A2.779,2.779,0,0,1,34.98,45.61a2.779,2.779,0,0,1,2.794-3.058,3.288,3.288,0,0,1,1.87.572l1.386-2.2a6.2,6.2,0,0,0-3.5-1.034,5.4,5.4,0,0,0-5.742,5.72,5.4,5.4,0,0,0,5.742,5.72,5.993,5.993,0,0,0,3.5-1.056L39.644,48.1A3.288,3.288,0,0,1,37.774,48.668ZM48.862,39.89c-4.356,0-6.226,3.168-6.226,6.424,0,2.948,1.518,5.016,4.026,5.016,2.024,0,3.278-1.43,4.048-3.388L50.38,51h3.1V41.3A8.088,8.088,0,0,0,48.862,39.89Zm-1.254,8.954c-.99,0-1.76-.638-1.76-2.64,0-1.518.528-3.96,2.97-3.96a3.61,3.61,0,0,1,1.54.374C50.182,45.5,49.544,48.844,47.608,48.844ZM70.246,39.89A3.957,3.957,0,0,0,66.528,42.6a3.2,3.2,0,0,0-3.322-2.706c-1.914,0-3.1,1.188-3.828,2.948l.264-2.618h-3.08V51h3.08c0-3.476.154-8.448,2.6-8.448,1.21,0,1.342,1.32,1.342,2.354V51h3.1c0-3.454.132-8.448,2.574-8.448,1.232,0,1.364,1.32,1.364,2.354V51H73.7V44.048C73.7,41.43,72.446,39.89,70.246,39.89Zm7.9-1.188a2.1,2.1,0,1,0-2.09-2.09A2.016,2.016,0,0,0,78.144,38.7ZM79.684,51V40.22H76.6V51Zm6.732.33c2.662,0,4.6-1.144,4.6-3.63,0-3.828-5.566-2.706-5.566-4.4,0-.7.88-.9,1.694-.9a5.752,5.752,0,0,1,2.684.66L90.882,40.9a8.551,8.551,0,0,0-4.048-1.012c-2.222,0-4.488.924-4.488,3.388,0,4.026,5.588,2.86,5.588,4.642,0,.594-.594.924-1.672.924a6.735,6.735,0,0,1-3.344-.946L81.8,50.142A9.414,9.414,0,0,0,86.416,51.33ZM99,48.888a2.844,2.844,0,0,1-2.926-2.112l6.6-.77a5.685,5.685,0,0,0,.286-1.8c0-2.728-1.98-4.312-4.62-4.312-3.124,0-5.39,2.2-5.39,5.676a5.445,5.445,0,0,0,5.83,5.764,6.636,6.636,0,0,0,3.916-1.21l-1.144-2A4.938,4.938,0,0,1,99,48.888Zm-.484-6.622c.968,0,1.672.506,1.672,1.452a1.7,1.7,0,0,1-.066.55l-4.18.506A2.638,2.638,0,0,1,98.516,42.266Zm11.968,9.064a7.084,7.084,0,0,0,2.464-.462l-.638-2.42a3.145,3.145,0,0,1-1.1.22c-1.144,0-1.694-.682-1.694-2.046v-3.96h3.014V40.22h-3.014V36.854H107.47l-.22,1.188c-.33,1.738-.506,2.178-2.486,2.178h-.33v2.442h2V47.15C106.436,49.724,107.8,51.33,110.484,51.33Zm10.208-11.44c-4.356,0-6.226,3.168-6.226,6.424,0,2.948,1.518,5.016,4.026,5.016,2.024,0,3.278-1.43,4.048-3.388L122.21,51h3.1V41.3A8.088,8.088,0,0,0,120.692,39.89Zm-1.254,8.954c-.99,0-1.76-.638-1.76-2.64,0-1.518.528-3.96,2.97-3.96a3.61,3.61,0,0,1,1.54.374C122.012,45.5,121.374,48.844,119.438,48.844Zm12.606,2.486c2.662,0,4.6-1.144,4.6-3.63,0-3.828-5.566-2.706-5.566-4.4,0-.7.88-.9,1.694-.9a5.752,5.752,0,0,1,2.684.66L136.51,40.9a8.551,8.551,0,0,0-4.048-1.012c-2.222,0-4.488.924-4.488,3.388,0,4.026,5.588,2.86,5.588,4.642,0,.594-.594.924-1.672.924a6.735,6.735,0,0,1-3.344-.946l-1.122,2.244A9.414,9.414,0,0,0,132.044,51.33Zm19.734-11.44c-2.046,0-3.322,1.474-4.07,3.454l.33-3.124h-3.08V55.708h3.08V51.2a8.724,8.724,0,0,0,1.54.132c4.356,0,6.226-3.168,6.226-6.424C155.8,41.958,154.286,39.89,151.778,39.89Zm-2.156,9.086a3.631,3.631,0,0,1-1.562-.374c.176-2.882.814-6.248,2.772-6.248.968,0,1.76.66,1.76,2.64C152.592,46.534,152.042,48.976,149.622,48.976Zm13.662,2.354a5.441,5.441,0,0,0,5.632-5.72,5.644,5.644,0,1,0-11.286,0A5.446,5.446,0,0,0,163.284,51.33Zm0-2.508c-1.628,0-2.464-1.5-2.464-3.212s.836-3.212,2.464-3.212c1.606,0,2.442,1.5,2.442,3.212S164.89,48.822,163.284,48.822Zm14.85-8.932c-2.376,0-3.564,1.76-4.18,4.114l.374-3.784h-3.08V51h3.08c0-3.564.22-7.92,3.146-7.92a3.491,3.491,0,0,1,1.1.2l.814-3.212A4.544,4.544,0,0,0,178.134,39.89Zm22.748,0a3.957,3.957,0,0,0-3.718,2.706,3.2,3.2,0,0,0-3.322-2.706c-1.914,0-3.1,1.188-3.828,2.948l.264-2.618H187.2V51h3.08c0-3.476.154-8.448,2.6-8.448,1.21,0,1.342,1.32,1.342,2.354V51h3.1c0-3.454.132-8.448,2.574-8.448,1.232,0,1.364,1.32,1.364,2.354V51h3.08V44.048C204.336,41.43,203.082,39.89,200.882,39.89Zm13.86-1.034,1.166-1.782-3.938-2.838-3.96,2.838,1.166,1.782,2.794-1.716Zm-2.178,10.032a2.844,2.844,0,0,1-2.926-2.112l6.6-.77a5.685,5.685,0,0,0,.286-1.8c0-2.728-1.98-4.312-4.62-4.312-3.124,0-5.39,2.2-5.39,5.676a5.445,5.445,0,0,0,5.83,5.764,6.636,6.636,0,0,0,3.916-1.21l-1.144-2A4.938,4.938,0,0,1,212.564,48.888Zm-.484-6.622c.968,0,1.672.506,1.672,1.452a1.7,1.7,0,0,1-.066.55l-4.18.506A2.638,2.638,0,0,1,212.08,42.266Zm10.538,9.064c2.662,0,4.6-1.144,4.6-3.63,0-3.828-5.566-2.706-5.566-4.4,0-.7.88-.9,1.694-.9a5.752,5.752,0,0,1,2.684.66l1.056-2.156a8.551,8.551,0,0,0-4.048-1.012c-2.222,0-4.488.924-4.488,3.388,0,4.026,5.588,2.86,5.588,4.642,0,.594-.594.924-1.672.924a6.735,6.735,0,0,1-3.344-.946L218,50.142A9.414,9.414,0,0,0,222.618,51.33Z" transform="translate(-136.454 11049.566)"/>
    <path id="Caminho_773672" data-name="Caminho 773672" d="M10.224,16,6.5,4.444H4.32L.2,16H2.052l.288-1.386L2.88,13.1l2.214-.054,2.448.054.5,1.6.27,1.3Zm-3.15-4.41-1.854.036L3.4,11.59l1.89-5.328h.126Zm7.344,3.024c-.738,0-1.062-.288-1.044-1.188l.09-4.518h2.322l.09-1.044L15.8,7.738H13.5l.036-1.782-.162-.144-1.62.612V7.738h-1.1L10.566,8.8l.072.108h1.134l.018,3.51-.072,1.3a2.148,2.148,0,0,0,2.124,2.394,5.2,5.2,0,0,0,1.836-.54l.18-1.152-.18-.126A2.838,2.838,0,0,1,14.418,14.614Zm4.86-7.974.18.018c1.08-.7,2.124-1.4,3.258-2.232l.036-.18-.684-.972-.18-.018c-1.044.99-2.016,1.8-3.078,2.664Zm3.852,5.292.306-.288a4.8,4.8,0,0,0,.072-.9c0-1.98-1.1-3.186-3.006-3.186-2.43,0-4,1.638-4,4.338,0,2.628,1.44,4.266,3.924,4.266a5.842,5.842,0,0,0,2.52-.612l.234-1.458L23,13.984a4.887,4.887,0,0,1-2.43.756c-1.584,0-2.34-1.026-2.376-2.808Zm-1.3-1.206-3.546.09a2.11,2.11,0,0,1,2.088-2c.9,0,1.494.522,1.494,1.692Zm9.7-3.186c-2.484,0-3.87,1.6-3.87,4.446,0,2.664,1.314,4.176,3.636,4.176,2.484,0,3.87-1.6,3.87-4.446C35.172,9.052,33.858,7.54,31.536,7.54Zm-.108,1.278c1.35,0,2.034,1.044,2.034,3.312,0,1.89-.684,2.772-2.034,2.772-1.368,0-2.052-1.026-2.052-3.312C29.376,9.736,30.06,8.818,31.428,8.818ZM50.148,16H52l-.09-3.636.054-2.34c.018-1.548-.936-2.43-2.79-2.43A6.528,6.528,0,0,0,46.8,8.944h-.108A2.527,2.527,0,0,0,44.1,7.594a5.977,5.977,0,0,0-2.214,1.278H41.76l.018-1.206-1.746.162.09,4.7L40.014,16h1.818l-.09-3.636.018-2.2a3.229,3.229,0,0,1,2.16-1.08c.864,0,1.3.558,1.278,1.458L45.072,16h1.836l-.072-3.636.036-2.232A3.174,3.174,0,0,1,49,9.088c.864,0,1.3.558,1.278,1.458Zm5.364-9.432h.2c.7-.63,1.332-1.206,1.89-1.8a23.126,23.126,0,0,0,1.89,1.8h.18l.486-.72c-.792-.756-1.584-1.62-2.322-2.466h-.468c-.81.918-1.6,1.764-2.34,2.466Zm4.9,5.364.306-.288a4.8,4.8,0,0,0,.072-.9c0-1.98-1.1-3.186-3.006-3.186-2.43,0-4,1.638-4,4.338,0,2.628,1.44,4.266,3.924,4.266a5.842,5.842,0,0,0,2.52-.612l.234-1.458-.18-.108a4.887,4.887,0,0,1-2.43.756c-1.584,0-2.34-1.026-2.376-2.808Zm-1.3-1.206-3.546.09a2.11,2.11,0,0,1,2.088-2c.9,0,1.494.522,1.494,1.692Zm6.066-3.168c-1.908,0-3.024,1.08-3.024,2.5,0,2.61,3.726,2.268,3.726,3.8A1.151,1.151,0,0,1,64.6,14.92a3.8,3.8,0,0,1-2.3-.972l-.2.126-.216,1.53a6.518,6.518,0,0,0,2.52.558c2.07,0,3.114-1.278,3.114-2.61,0-2.538-3.726-2.214-3.726-3.726a1.051,1.051,0,0,1,1.17-.99,3.357,3.357,0,0,1,1.836.63l.234-.054.252-1.44A5.7,5.7,0,0,0,65.178,7.558Zm13.644,4.788.144-8.982-1.836.144L77.166,7.7a7.587,7.587,0,0,0-1.4-.144c-2.538,0-4.086,1.548-4.086,4.32,0,2.664,1.314,4.23,3.726,4.23a7.351,7.351,0,0,0,1.872-1.242h.144a1.425,1.425,0,0,0,1.332,1.26,2.917,2.917,0,0,0,1.152-.4l.162-1.008L79.9,14.6a2.6,2.6,0,0,1-.558.072c-.342,0-.45-.144-.468-.594Zm-3.24-3.528a3.717,3.717,0,0,1,1.6.414l.054,3.276-.036,1.17a2.3,2.3,0,0,1-1.764.936c-1.26,0-2.016-1.026-2.034-2.952C73.368,9.736,74.232,8.818,75.582,8.818ZM87.7,11.932,88,11.644a7.013,7.013,0,0,0,.072-.9A2.847,2.847,0,0,0,85.05,7.558c-2.412,0-3.978,1.638-3.978,4.338,0,2.628,1.44,4.266,3.924,4.266a5.842,5.842,0,0,0,2.52-.612l.216-1.458-.162-.108a4.941,4.941,0,0,1-2.43.756c-1.584,0-2.34-1.026-2.376-2.808Zm-1.3-1.206-3.546.09a2.11,2.11,0,0,1,2.088-2c.9,0,1.494.522,1.494,1.692ZM96.1,7.54c-2.484,0-3.87,1.6-3.87,4.446,0,2.664,1.314,4.176,3.636,4.176,2.484,0,3.87-1.6,3.87-4.446C99.738,9.052,98.424,7.54,96.1,7.54Zm-.108,1.278c1.35,0,2.034,1.044,2.034,3.312,0,1.89-.684,2.772-2.034,2.772-1.368,0-2.052-1.026-2.052-3.312C93.942,9.736,94.626,8.818,95.994,8.818Zm12.294-1.152-1.746.162v5.85a2.951,2.951,0,0,1-1.962.918c-.846,0-1.26-.54-1.242-1.422l.09-5.508-1.818.162.072,3.6-.036,2.25c-.018,1.548.954,2.43,2.772,2.43a5.411,5.411,0,0,0,2.16-1.26h.144a1.441,1.441,0,0,0,1.332,1.278,2.832,2.832,0,0,0,1.134-.4l.18-1.008-.162-.126a2.6,2.6,0,0,1-.558.072c-.36,0-.486-.144-.486-.594Zm5.616,6.948c-.738,0-1.062-.288-1.044-1.188l.09-4.518h2.322l.09-1.044-.072-.126h-2.3l.036-1.782-.162-.144-1.62.612V7.738h-1.1l-.09,1.062.072.108h1.134l.018,3.51-.072,1.3a2.148,2.148,0,0,0,2.124,2.394,5.2,5.2,0,0,0,1.836-.54l.18-1.152-.18-.126A2.838,2.838,0,0,1,113.9,14.614Zm9.54-6.948-1.746.162v5.85a2.951,2.951,0,0,1-1.962.918c-.846,0-1.26-.54-1.242-1.422l.09-5.508-1.818.162.072,3.6-.036,2.25c-.018,1.548.954,2.43,2.772,2.43a5.411,5.411,0,0,0,2.16-1.26h.144a1.441,1.441,0,0,0,1.332,1.278,2.832,2.832,0,0,0,1.134-.4l.18-1.008-.162-.126a2.6,2.6,0,0,1-.558.072c-.36,0-.486-.144-.486-.594Zm6.8-.054a5.892,5.892,0,0,0-2.16,1.242h-.108l.072-5.49-1.836.144.108,9.036-.126,3.492.288.18,1.134-.468a4.466,4.466,0,0,0,1.836.414c2.484,0,4.014-1.62,4.014-4.572C133.47,9.106,132.372,7.612,130.248,7.612Zm-.72,7.29a3.037,3.037,0,0,1-1.548-.486l-.054-2.088.036-2.16a2.8,2.8,0,0,1,1.98-1.08c1.17,0,1.782,1.008,1.818,2.754C131.778,13.948,130.878,14.9,129.528,14.9Zm10.026-7.218a2.655,2.655,0,0,0-2.268,1.638h-.126l.018-1.656-1.746.162.108,4.7L135.414,16h1.836l-.126-3.636.018-1.188c.63-1.242,1.26-1.746,2-1.746a2.519,2.519,0,0,1,.666.09l.2-.054V7.72A3.506,3.506,0,0,0,139.554,7.684Zm4.95-.144c-2.484,0-3.87,1.6-3.87,4.446,0,2.664,1.314,4.176,3.636,4.176,2.484,0,3.87-1.6,3.87-4.446C148.14,9.052,146.826,7.54,144.5,7.54ZM144.4,8.818c1.35,0,2.034,1.044,2.034,3.312,0,1.89-.684,2.772-2.034,2.772-1.368,0-2.052-1.026-2.052-3.312C142.344,9.736,143.028,8.818,144.4,8.818Zm6.084,5.274a4.591,4.591,0,0,0-1.314.594v.162a1.137,1.137,0,0,1,.558.954,2.186,2.186,0,0,1-.99,1.656l.018.144.594.54c1.278-.918,1.908-1.8,1.908-2.7A1.628,1.628,0,0,0,150.48,14.092Zm8.5-6.552a5.768,5.768,0,0,0-3.24,1.08L155.97,9.9l.144.09a4.1,4.1,0,0,1,2.574-1.152,1.185,1.185,0,0,1,1.3,1.35l-.018.972-2.844.63a1.918,1.918,0,0,0-1.746,2c0,1.44.99,2.34,2.664,2.358a5.271,5.271,0,0,0,1.872-1.35h.126a1.4,1.4,0,0,0,1.314,1.332,2.933,2.933,0,0,0,1.134-.4l.18-1.008L162.5,14.6a2.753,2.753,0,0,1-.54.072c-.378,0-.522-.144-.522-.612,0-.612.216-3.636.216-4.266C161.658,8.368,160.614,7.54,158.976,7.54Zm.99,4.68-.054,1.386a2.542,2.542,0,0,1-1.8,1.1,1.037,1.037,0,0,1-1.1-1.152.664.664,0,0,1,.612-.774Zm13.842-4.644-.936.324a7.852,7.852,0,0,0-2.16-.342c-2.466,0-4.032,1.512-4.032,4.374,0,2.592,1.278,4.176,3.654,4.176a6.7,6.7,0,0,0,1.728-1.044h.162v.378l-.09,3.888h1.818l-.126-6.966.144-4.68Zm-3.24,1.26a3.4,3.4,0,0,1,1.62.45l.054,3.258-.018,1.116a2.5,2.5,0,0,1-1.854.954c-1.206,0-1.944-1.044-1.962-2.88C168.372,9.736,169.236,8.836,170.568,8.836ZM183.1,7.666l-1.746.162v5.85a2.951,2.951,0,0,1-1.962.918c-.846,0-1.26-.54-1.242-1.422l.09-5.508-1.818.162.072,3.6-.036,2.25c-.018,1.548.954,2.43,2.772,2.43a5.411,5.411,0,0,0,2.16-1.26h.144a1.441,1.441,0,0,0,1.332,1.278,2.832,2.832,0,0,0,1.134-.4l.18-1.008-.162-.126a2.6,2.6,0,0,1-.558.072c-.36,0-.486-.144-.486-.594Zm5.67-.126a5.768,5.768,0,0,0-3.24,1.08L185.76,9.9l.144.09a4.1,4.1,0,0,1,2.574-1.152,1.185,1.185,0,0,1,1.3,1.35l-.018.972-2.844.63a1.918,1.918,0,0,0-1.746,2c0,1.44.99,2.34,2.664,2.358a5.271,5.271,0,0,0,1.872-1.35h.126a1.4,1.4,0,0,0,1.314,1.332,2.933,2.933,0,0,0,1.134-.4l.18-1.008-.162-.126a2.753,2.753,0,0,1-.54.072c-.378,0-.522-.144-.522-.612,0-.612.216-3.636.216-4.266C191.448,8.368,190.4,7.54,188.766,7.54Zm.99,4.68-.054,1.386a2.542,2.542,0,0,1-1.8,1.1,1.037,1.037,0,0,1-1.1-1.152.664.664,0,0,1,.612-.774ZM199.3,16h1.854l-.09-3.636.054-2.34c.018-1.548-.936-2.43-2.79-2.43a6.121,6.121,0,0,0-2.214,1.278h-.126L196,7.666l-1.746.162.09,4.7L194.238,16h1.836l-.108-3.636.018-2.2a3.229,3.229,0,0,1,2.16-1.08c.864,0,1.3.558,1.278,1.458Zm7.236-1.386c-.738,0-1.062-.288-1.044-1.188l.09-4.518H207.9l.09-1.044-.072-.126h-2.3l.036-1.782-.162-.144-1.62.612V7.738h-1.1L202.68,8.8l.072.108h1.134l.018,3.51-.072,1.3a2.148,2.148,0,0,0,2.124,2.394,5.2,5.2,0,0,0,1.836-.54l.18-1.152-.18-.126A2.838,2.838,0,0,1,206.532,14.614Zm3.942-10.782a.973.973,0,0,0-1.044,1.044.914.914,0,0,0,.99,1.008.97.97,0,0,0,1.008-1.062A.89.89,0,0,0,210.474,3.832Zm.72,8.532.144-4.7-1.836.162.09,4.7L209.484,16h1.836Zm9.2-.018.144-8.982-1.836.144.036,4.194a7.586,7.586,0,0,0-1.4-.144c-2.538,0-4.086,1.548-4.086,4.32,0,2.664,1.314,4.23,3.726,4.23a7.351,7.351,0,0,0,1.872-1.242h.144a1.425,1.425,0,0,0,1.332,1.26,2.917,2.917,0,0,0,1.152-.4l.162-1.008-.162-.126a2.6,2.6,0,0,1-.558.072c-.342,0-.45-.144-.468-.594Zm-3.24-3.528a3.717,3.717,0,0,1,1.6.414l.054,3.276-.036,1.17a2.3,2.3,0,0,1-1.764.936c-1.26,0-2.016-1.026-2.034-2.952C214.938,9.736,215.8,8.818,217.152,8.818Zm9.09-1.278A5.768,5.768,0,0,0,223,8.62l.234,1.278.144.09a4.1,4.1,0,0,1,2.574-1.152,1.185,1.185,0,0,1,1.3,1.35l-.018.972-2.844.63a1.918,1.918,0,0,0-1.746,2c0,1.44.99,2.34,2.664,2.358a5.271,5.271,0,0,0,1.872-1.35h.126a1.4,1.4,0,0,0,1.314,1.332,2.933,2.933,0,0,0,1.134-.4l.18-1.008-.162-.126a2.753,2.753,0,0,1-.54.072c-.378,0-.522-.144-.522-.612,0-.612.216-3.636.216-4.266C228.924,8.368,227.88,7.54,226.242,7.54Zm.99,4.68-.054,1.386a2.542,2.542,0,0,1-1.8,1.1,1.037,1.037,0,0,1-1.1-1.152.664.664,0,0,1,.612-.774Zm10.98.126.144-8.982-1.836.144.036,4.194a7.586,7.586,0,0,0-1.4-.144c-2.538,0-4.086,1.548-4.086,4.32,0,2.664,1.314,4.23,3.726,4.23a7.351,7.351,0,0,0,1.872-1.242h.144a1.425,1.425,0,0,0,1.332,1.26,2.917,2.917,0,0,0,1.152-.4l.162-1.008-.162-.126a2.6,2.6,0,0,1-.558.072c-.342,0-.45-.144-.468-.594Zm-3.24-3.528a3.717,3.717,0,0,1,1.6.414l.054,3.276-.036,1.17a2.3,2.3,0,0,1-1.764.936c-1.26,0-2.016-1.026-2.034-2.952C232.758,9.736,233.622,8.818,234.972,8.818Zm12.114,3.114.306-.288a7.011,7.011,0,0,0,.072-.9,2.847,2.847,0,0,0-3.024-3.186c-2.412,0-3.978,1.638-3.978,4.338,0,2.628,1.44,4.266,3.924,4.266a5.842,5.842,0,0,0,2.52-.612l.216-1.458-.162-.108a4.941,4.941,0,0,1-2.43.756c-1.584,0-2.34-1.026-2.376-2.808Zm-1.3-1.206-3.546.09a2.11,2.11,0,0,1,2.088-2c.9,0,1.494.522,1.494,1.692Zm12.942,1.62.144-8.982-1.836.144.036,4.194a7.586,7.586,0,0,0-1.4-.144c-2.538,0-4.086,1.548-4.086,4.32,0,2.664,1.314,4.23,3.726,4.23a7.351,7.351,0,0,0,1.872-1.242h.144a1.425,1.425,0,0,0,1.332,1.26,2.916,2.916,0,0,0,1.152-.4l.162-1.008-.162-.126a2.6,2.6,0,0,1-.558.072c-.342,0-.45-.144-.468-.594Zm-3.24-3.528a3.717,3.717,0,0,1,1.6.414l.054,3.276-.036,1.17a2.3,2.3,0,0,1-1.764.936c-1.26,0-2.016-1.026-2.034-2.952C253.278,9.736,254.142,8.818,255.492,8.818Zm12.114,3.114.306-.288a7.017,7.017,0,0,0,.072-.9,2.847,2.847,0,0,0-3.024-3.186c-2.412,0-3.978,1.638-3.978,4.338,0,2.628,1.44,4.266,3.924,4.266a5.842,5.842,0,0,0,2.52-.612l.216-1.458-.162-.108a4.941,4.941,0,0,1-2.43.756c-1.584,0-2.34-1.026-2.376-2.808Zm-1.3-1.206-3.546.09a2.11,2.11,0,0,1,2.088-2c.9,0,1.494.522,1.494,1.692Zm7.416-1.854-.234-1.224-1.692.09L274.266,16h1.98l2.934-8.3h-1.62l-.306,1.26-1.836,5.274h-.126Zm12.564,3.06.306-.288a7.017,7.017,0,0,0,.072-.9,2.847,2.847,0,0,0-3.024-3.186c-2.412,0-3.978,1.638-3.978,4.338,0,2.628,1.44,4.266,3.924,4.266a5.842,5.842,0,0,0,2.52-.612l.216-1.458-.162-.108a4.941,4.941,0,0,1-2.43.756c-1.584,0-2.34-1.026-2.376-2.808Zm-1.3-1.206-3.546.09a2.11,2.11,0,0,1,2.088-2c.9,0,1.494.522,1.494,1.692ZM293.616,16h1.854l-.09-3.636.054-2.34c.018-1.548-.936-2.43-2.79-2.43a6.121,6.121,0,0,0-2.214,1.278H290.3l.018-1.206-1.746.162.09,4.7L288.558,16h1.836l-.108-3.636.018-2.2a3.229,3.229,0,0,1,2.16-1.08c.864,0,1.3.558,1.278,1.458Zm10.8-3.654.144-8.982-1.836.144L302.76,7.7a7.586,7.586,0,0,0-1.4-.144c-2.538,0-4.086,1.548-4.086,4.32,0,2.664,1.314,4.23,3.726,4.23a7.351,7.351,0,0,0,1.872-1.242h.144a1.425,1.425,0,0,0,1.332,1.26,2.916,2.916,0,0,0,1.152-.4l.162-1.008L305.5,14.6a2.6,2.6,0,0,1-.558.072c-.342,0-.45-.144-.468-.594Zm-3.24-3.528a3.717,3.717,0,0,1,1.6.414l.054,3.276-.036,1.17a2.3,2.3,0,0,1-1.764.936c-1.26,0-2.016-1.026-2.034-2.952C298.962,9.736,299.826,8.818,301.176,8.818Zm9.09-1.278a5.768,5.768,0,0,0-3.24,1.08L307.26,9.9l.144.09a4.1,4.1,0,0,1,2.574-1.152,1.185,1.185,0,0,1,1.3,1.35l-.018.972-2.844.63a1.918,1.918,0,0,0-1.746,2c0,1.44.99,2.34,2.664,2.358a5.271,5.271,0,0,0,1.872-1.35h.126a1.4,1.4,0,0,0,1.314,1.332,2.933,2.933,0,0,0,1.134-.4l.18-1.008-.162-.126a2.753,2.753,0,0,1-.54.072c-.378,0-.522-.144-.522-.612,0-.612.216-3.636.216-4.266C312.948,8.368,311.9,7.54,310.266,7.54Zm.99,4.68-.054,1.386a2.542,2.542,0,0,1-1.8,1.1,1.037,1.037,0,0,1-1.1-1.152.664.664,0,0,1,.612-.774Zm6.984-4.662c-1.908,0-3.024,1.08-3.024,2.5,0,2.61,3.726,2.268,3.726,3.8a1.151,1.151,0,0,1-1.278,1.062,3.8,3.8,0,0,1-2.3-.972l-.2.126-.216,1.53a6.518,6.518,0,0,0,2.52.558c2.07,0,3.114-1.278,3.114-2.61,0-2.538-3.726-2.214-3.726-3.726a1.051,1.051,0,0,1,1.17-.99,3.357,3.357,0,0,1,1.836.63l.234-.054.252-1.44A5.7,5.7,0,0,0,318.24,7.558ZM7.776,38.346l.144-8.982-1.836.144L6.12,33.7a7.586,7.586,0,0,0-1.4-.144c-2.538,0-4.086,1.548-4.086,4.32,0,2.664,1.314,4.23,3.726,4.23a7.351,7.351,0,0,0,1.872-1.242h.144A1.425,1.425,0,0,0,7.7,42.126a2.917,2.917,0,0,0,1.152-.4l.162-1.008L8.856,40.6a2.6,2.6,0,0,1-.558.072c-.342,0-.45-.144-.468-.594Zm-3.24-3.528a3.717,3.717,0,0,1,1.6.414l.054,3.276-.036,1.17a2.3,2.3,0,0,1-1.764.936c-1.26,0-2.016-1.026-2.034-2.952C2.322,35.736,3.186,34.818,4.536,34.818ZM16.65,37.932l.306-.288a7.013,7.013,0,0,0,.072-.9A2.847,2.847,0,0,0,14,33.558c-2.412,0-3.978,1.638-3.978,4.338,0,2.628,1.44,4.266,3.924,4.266a5.842,5.842,0,0,0,2.52-.612l.216-1.458-.162-.108a4.941,4.941,0,0,1-2.43.756c-1.584,0-2.34-1.026-2.376-2.808Zm-1.3-1.206-3.546.09a2.11,2.11,0,0,1,2.088-2c.9,0,1.494.522,1.494,1.692Zm9.63-3.186c-2.376,0-3.8,1.674-3.8,4.392,0,2.628,1.332,4.23,3.582,4.23a6.427,6.427,0,0,0,2.2-.414l.18-1.476-.162-.108a4.329,4.329,0,0,1-1.926.54c-1.368,0-2.142-1.08-2.142-2.916,0-1.746.756-2.736,2.034-2.736a3.568,3.568,0,0,1,1.764.558l.18-.072.306-1.53A5.4,5.4,0,0,0,24.984,33.54Zm6.552,0a5.768,5.768,0,0,0-3.24,1.08L28.53,35.9l.144.09a4.1,4.1,0,0,1,2.574-1.152,1.185,1.185,0,0,1,1.3,1.35l-.018.972-2.844.63a1.918,1.918,0,0,0-1.746,2c0,1.44.99,2.34,2.664,2.358a5.271,5.271,0,0,0,1.872-1.35H32.6a1.4,1.4,0,0,0,1.314,1.332,2.933,2.933,0,0,0,1.134-.4l.18-1.008-.162-.126a2.753,2.753,0,0,1-.54.072c-.378,0-.522-.144-.522-.612,0-.612.216-3.636.216-4.266C34.218,34.368,33.174,33.54,31.536,33.54Zm.99,4.68-.054,1.386a2.542,2.542,0,0,1-1.8,1.1,1.037,1.037,0,0,1-1.1-1.152.664.664,0,0,1,.612-.774ZM47.142,42H49l-.09-3.636.054-2.34c.018-1.548-.936-2.43-2.79-2.43a6.528,6.528,0,0,0-2.376,1.35h-.108a2.527,2.527,0,0,0-2.592-1.35,5.977,5.977,0,0,0-2.214,1.278h-.126l.018-1.206-1.746.162.09,4.7L37.008,42h1.818l-.09-3.636.018-2.2a3.229,3.229,0,0,1,2.16-1.08c.864,0,1.3.558,1.278,1.458L42.066,42H43.9l-.072-3.636.036-2.232a3.174,3.174,0,0,1,2.124-1.044c.864,0,1.3.558,1.278,1.458ZM52.38,29.832a.973.973,0,0,0-1.044,1.044.914.914,0,0,0,.99,1.008.97.97,0,0,0,1.008-1.062A.89.89,0,0,0,52.38,29.832Zm.72,8.532.144-4.7-1.836.162.09,4.7L51.39,42h1.836Zm5.2-4.806c-1.908,0-3.024,1.08-3.024,2.5,0,2.61,3.726,2.268,3.726,3.8a1.151,1.151,0,0,1-1.278,1.062,3.8,3.8,0,0,1-2.3-.972l-.2.126-.216,1.53a6.518,6.518,0,0,0,2.52.558c2.07,0,3.114-1.278,3.114-2.61,0-2.538-3.726-2.214-3.726-3.726a1.051,1.051,0,0,1,1.17-.99,3.357,3.357,0,0,1,1.836.63l.234-.054.252-1.44A5.7,5.7,0,0,0,58.3,33.558ZM68.58,37.932l.306-.288a7.013,7.013,0,0,0,.072-.9,2.847,2.847,0,0,0-3.024-3.186c-2.412,0-3.978,1.638-3.978,4.338,0,2.628,1.44,4.266,3.924,4.266a5.842,5.842,0,0,0,2.52-.612l.216-1.458-.162-.108a4.941,4.941,0,0,1-2.43.756c-1.584,0-2.34-1.026-2.376-2.808Zm-1.3-1.206-3.546.09a2.11,2.11,0,0,1,2.088-2c.9,0,1.494.522,1.494,1.692Zm6.5,3.888c-.738,0-1.062-.288-1.044-1.188l.09-4.518H75.15l.09-1.044-.072-.126h-2.3l.036-1.782-.162-.144-1.62.612v1.314h-1.1L69.93,34.8l.072.108h1.134l.018,3.51-.072,1.3a2.148,2.148,0,0,0,2.124,2.394,5.2,5.2,0,0,0,1.836-.54l.18-1.152-.18-.126A2.838,2.838,0,0,1,73.782,40.614Zm5.94-7.074a5.768,5.768,0,0,0-3.24,1.08l.234,1.278.144.09a4.1,4.1,0,0,1,2.574-1.152,1.185,1.185,0,0,1,1.3,1.35l-.018.972-2.844.63a1.918,1.918,0,0,0-1.746,2c0,1.44.99,2.34,2.664,2.358a5.271,5.271,0,0,0,1.872-1.35h.126A1.4,1.4,0,0,0,82.1,42.126a2.933,2.933,0,0,0,1.134-.4l.18-1.008L83.25,40.6a2.753,2.753,0,0,1-.54.072c-.378,0-.522-.144-.522-.612,0-.612.216-3.636.216-4.266C82.4,34.368,81.36,33.54,79.722,33.54Zm.99,4.68-.054,1.386a2.542,2.542,0,0,1-1.8,1.1,1.037,1.037,0,0,1-1.1-1.152.664.664,0,0,1,.612-.774ZM87.7,33.558c-1.908,0-3.024,1.08-3.024,2.5,0,2.61,3.726,2.268,3.726,3.8A1.151,1.151,0,0,1,87.12,40.92a3.8,3.8,0,0,1-2.3-.972l-.2.126L84.4,41.6a6.518,6.518,0,0,0,2.52.558c2.07,0,3.114-1.278,3.114-2.61,0-2.538-3.726-2.214-3.726-3.726a1.051,1.051,0,0,1,1.17-.99,3.357,3.357,0,0,1,1.836.63l.234-.054.252-1.44A5.7,5.7,0,0,0,87.7,33.558Zm13.644,4.788.144-8.982-1.836.144.036,4.194a7.587,7.587,0,0,0-1.4-.144c-2.538,0-4.086,1.548-4.086,4.32,0,2.664,1.314,4.23,3.726,4.23a7.351,7.351,0,0,0,1.872-1.242h.144a1.425,1.425,0,0,0,1.332,1.26,2.917,2.917,0,0,0,1.152-.4l.162-1.008-.162-.126a2.6,2.6,0,0,1-.558.072c-.342,0-.45-.144-.468-.594ZM98.1,34.818a3.717,3.717,0,0,1,1.6.414l.054,3.276-.036,1.17a2.3,2.3,0,0,1-1.764.936c-1.26,0-2.016-1.026-2.034-2.952C95.886,35.736,96.75,34.818,98.1,34.818Zm9.36-1.278c-2.484,0-3.87,1.6-3.87,4.446,0,2.664,1.314,4.176,3.636,4.176,2.484,0,3.87-1.6,3.87-4.446C111.1,35.052,109.782,33.54,107.46,33.54Zm-.108,1.278c1.35,0,2.034,1.044,2.034,3.312,0,1.89-.684,2.772-2.034,2.772-1.368,0-2.052-1.026-2.052-3.312C105.3,35.736,105.984,34.818,107.352,34.818Zm8.208-1.26c-1.908,0-3.024,1.08-3.024,2.5,0,2.61,3.726,2.268,3.726,3.8a1.151,1.151,0,0,1-1.278,1.062,3.8,3.8,0,0,1-2.3-.972l-.2.126-.216,1.53a6.518,6.518,0,0,0,2.52.558c2.07,0,3.114-1.278,3.114-2.61,0-2.538-3.726-2.214-3.726-3.726a1.051,1.051,0,0,1,1.17-.99,3.357,3.357,0,0,1,1.836.63l.234-.054.252-1.44A5.7,5.7,0,0,0,115.56,33.558Zm10.134-.018a5.768,5.768,0,0,0-3.24,1.08l.234,1.278.144.09a4.1,4.1,0,0,1,2.574-1.152,1.185,1.185,0,0,1,1.3,1.35l-.018.972-2.844.63a1.918,1.918,0,0,0-1.746,2c0,1.44.99,2.34,2.664,2.358a5.271,5.271,0,0,0,1.872-1.35h.126a1.4,1.4,0,0,0,1.314,1.332,2.933,2.933,0,0,0,1.134-.4l.18-1.008-.162-.126a2.753,2.753,0,0,1-.54.072c-.378,0-.522-.144-.522-.612,0-.612.216-3.636.216-4.266C128.376,34.368,127.332,33.54,125.694,33.54Zm.99,4.68-.054,1.386a2.542,2.542,0,0,1-1.8,1.1,1.037,1.037,0,0,1-1.1-1.152.664.664,0,0,1,.612-.774Zm9.54,3.78h1.854l-.09-3.636.054-2.34c.018-1.548-.936-2.43-2.79-2.43a6.121,6.121,0,0,0-2.214,1.278h-.126l.018-1.206-1.746.162.09,4.7L131.166,42H133l-.108-3.636.018-2.2a3.229,3.229,0,0,1,2.16-1.08c.864,0,1.3.558,1.278,1.458Zm7.56-8.46c-2.484,0-3.87,1.6-3.87,4.446,0,2.664,1.314,4.176,3.636,4.176,2.484,0,3.87-1.6,3.87-4.446C147.42,35.052,146.106,33.54,143.784,33.54Zm-.108,1.278c1.35,0,2.034,1.044,2.034,3.312,0,1.89-.684,2.772-2.034,2.772-1.368,0-2.052-1.026-2.052-3.312C141.624,35.736,142.308,34.818,143.676,34.818Zm8.208-1.26c-1.908,0-3.024,1.08-3.024,2.5,0,2.61,3.726,2.268,3.726,3.8a1.151,1.151,0,0,1-1.278,1.062,3.8,3.8,0,0,1-2.3-.972l-.2.126-.216,1.53a6.518,6.518,0,0,0,2.52.558c2.07,0,3.114-1.278,3.114-2.61,0-2.538-3.726-2.214-3.726-3.726a1.051,1.051,0,0,1,1.17-.99,3.357,3.357,0,0,1,1.836.63l.234-.054.252-1.44A5.7,5.7,0,0,0,151.884,33.558Zm10.188-.468-.27-.2-3.87,1.134v1.458l.162.108,2.2-.612.018,3.492L160.2,42h1.854l-.09-3.726Zm6.336-.288a3.347,3.347,0,0,0-3.636,3.456,2.812,2.812,0,0,0,2.916,3.078,3.719,3.719,0,0,0,2.124-.666l.126.144c-.576,1.71-2.07,2.88-4.806,3.852v.18l1.368.828h.108c3.348-1.386,5.274-3.87,5.274-6.894C171.882,34.3,170.712,32.8,168.408,32.8Zm-.2,5.22c-1.152,0-1.8-.72-1.8-2.016a1.749,1.749,0,0,1,1.872-1.962c1.386,0,1.944.936,1.944,2.772l-.018.432A3.279,3.279,0,0,1,168.21,38.022Zm6.66-5.04-1.782-.072-.126,1.566.108.18,1.494-.162h3.456l-4.014,8.622.108.306,1.476.4.882-2.358,3.276-7.164-.018-1.35-.81.036Zm10.242-.126c-2.592,0-4.086,1.746-4.086,4.788,0,2.862,1.4,4.5,3.852,4.5,2.592,0,4.05-1.728,4.05-4.752C188.928,34.494,187.542,32.856,185.112,32.856Zm-.144,1.692c1.656,0,2.538,1.008,2.538,3.06,0,1.944-.864,2.916-2.52,2.916-1.692,0-2.52-1.008-2.52-3.006S183.294,34.548,184.968,34.548Zm14.9,3.384.306-.288a7.011,7.011,0,0,0,.072-.9,2.847,2.847,0,0,0-3.024-3.186c-2.412,0-3.978,1.638-3.978,4.338,0,2.628,1.44,4.266,3.924,4.266a5.842,5.842,0,0,0,2.52-.612l.216-1.458-.162-.108a4.941,4.941,0,0,1-2.43.756c-1.584,0-2.34-1.026-2.376-2.808Zm-1.3-1.206-3.546.09a2.11,2.11,0,0,1,2.088-2c.9,0,1.494.522,1.494,1.692Zm7.7-3.042a2.655,2.655,0,0,0-2.268,1.638h-.126l.018-1.656-1.746.162.108,4.7L202.14,42h1.836l-.126-3.636.018-1.188c.63-1.242,1.26-1.746,2-1.746a2.519,2.519,0,0,1,.666.09l.2-.054V33.72A3.506,3.506,0,0,0,206.28,33.684Zm4.644-.144a5.768,5.768,0,0,0-3.24,1.08l.234,1.278.144.09a4.1,4.1,0,0,1,2.574-1.152,1.185,1.185,0,0,1,1.3,1.35l-.018.972-2.844.63a1.918,1.918,0,0,0-1.746,2c0,1.44.99,2.34,2.664,2.358a5.271,5.271,0,0,0,1.872-1.35h.126a1.4,1.4,0,0,0,1.314,1.332,2.933,2.933,0,0,0,1.134-.4l.18-1.008-.162-.126a2.753,2.753,0,0,1-.54.072c-.378,0-.522-.144-.522-.612,0-.612.216-3.636.216-4.266C213.606,34.368,212.562,33.54,210.924,33.54Zm.99,4.68-.054,1.386a2.542,2.542,0,0,1-1.8,1.1,1.037,1.037,0,0,1-1.1-1.152.664.664,0,0,1,.612-.774Zm9.864-4.662c-1.908,0-3.024,1.08-3.024,2.5,0,2.61,3.726,2.268,3.726,3.8A1.151,1.151,0,0,1,221.2,40.92a3.8,3.8,0,0,1-2.3-.972l-.2.126-.216,1.53a6.518,6.518,0,0,0,2.52.558c2.07,0,3.114-1.278,3.114-2.61,0-2.538-3.726-2.214-3.726-3.726a1.051,1.051,0,0,1,1.17-.99,3.357,3.357,0,0,1,1.836.63l.234-.054.252-1.44A5.7,5.7,0,0,0,221.778,33.558Zm10.854.108-1.746.162v5.85a2.951,2.951,0,0,1-1.962.918c-.846,0-1.26-.54-1.242-1.422l.09-5.508-1.818.162.072,3.6-.036,2.25c-.018,1.548.954,2.43,2.772,2.43a5.411,5.411,0,0,0,2.16-1.26h.144a1.441,1.441,0,0,0,1.332,1.278,2.832,2.832,0,0,0,1.134-.4l.18-1.008-.162-.126a2.6,2.6,0,0,1-.558.072c-.36,0-.486-.144-.486-.594Zm6.714-.054a5.424,5.424,0,0,0-2.16,1.242h-.126l.018-1.188-1.764.162.108,4.7-.108,6.8h1.818l-.054-3.312a7.745,7.745,0,0,0,1.4.144c2.574,0,4.086-1.62,4.086-4.554C242.568,35.106,241.47,33.612,239.346,33.612Zm-.72,7.29a3.479,3.479,0,0,1-1.566-.4l-.036-2.142.018-2.2a2.859,2.859,0,0,1,2-1.08c1.152,0,1.782,1.008,1.8,2.754C240.876,39.948,239.976,40.9,238.626,40.9Zm11.88-2.97.306-.288a7.011,7.011,0,0,0,.072-.9,2.847,2.847,0,0,0-3.024-3.186c-2.412,0-3.978,1.638-3.978,4.338,0,2.628,1.44,4.266,3.924,4.266a5.842,5.842,0,0,0,2.52-.612l.216-1.458-.162-.108a4.941,4.941,0,0,1-2.43.756c-1.584,0-2.34-1.026-2.376-2.808Zm-1.3-1.206-3.546.09a2.11,2.11,0,0,1,2.088-2c.9,0,1.494.522,1.494,1.692Zm7.7-3.042a2.655,2.655,0,0,0-2.268,1.638h-.126l.018-1.656-1.746.162.108,4.7L252.774,42h1.836l-.126-3.636.018-1.188c.63-1.242,1.26-1.746,2-1.746a2.52,2.52,0,0,1,.666.09l.2-.054V33.72A3.506,3.506,0,0,0,256.914,33.684Zm2.826-3.852a.973.973,0,0,0-1.044,1.044.914.914,0,0,0,.99,1.008.97.97,0,0,0,1.008-1.062A.89.89,0,0,0,259.74,29.832Zm.72,8.532.144-4.7-1.836.162.09,4.7L258.75,42h1.836Zm5.958-4.824c-2.484,0-3.87,1.6-3.87,4.446,0,2.664,1.314,4.176,3.636,4.176,2.484,0,3.87-1.6,3.87-4.446C270.054,35.052,268.74,33.54,266.418,33.54Zm-.108,1.278c1.35,0,2.034,1.044,2.034,3.312,0,1.89-.684,2.772-2.034,2.772-1.368,0-2.052-1.026-2.052-3.312C264.258,35.736,264.942,34.818,266.31,34.818Zm9.846-1.134a2.655,2.655,0,0,0-2.268,1.638h-.126l.018-1.656-1.746.162.108,4.7L272.016,42h1.836l-.126-3.636.018-1.188c.63-1.242,1.26-1.746,2-1.746a2.52,2.52,0,0,1,.666.09l.2-.054V33.72A3.506,3.506,0,0,0,276.156,33.684Zm1.548,6.408a4.591,4.591,0,0,0-1.314.594v.162a1.136,1.136,0,0,1,.558.954,2.186,2.186,0,0,1-.99,1.656l.018.144.594.54c1.278-.918,1.908-1.8,1.908-2.7A1.628,1.628,0,0,0,277.7,40.092ZM293.346,42H295.2l-.09-3.636.054-2.34c.018-1.548-.936-2.43-2.79-2.43A6.528,6.528,0,0,0,290,34.944h-.108a2.527,2.527,0,0,0-2.592-1.35,5.977,5.977,0,0,0-2.214,1.278h-.126l.018-1.206-1.746.162.09,4.7L283.212,42h1.818l-.09-3.636.018-2.2a3.229,3.229,0,0,1,2.16-1.08c.864,0,1.3.558,1.278,1.458L288.27,42h1.836l-.072-3.636.036-2.232a3.174,3.174,0,0,1,2.124-1.044c.864,0,1.3.558,1.278,1.458Zm7.236-8.46a5.768,5.768,0,0,0-3.24,1.08l.234,1.278.144.09a4.1,4.1,0,0,1,2.574-1.152,1.185,1.185,0,0,1,1.3,1.35l-.018.972-2.844.63a1.918,1.918,0,0,0-1.746,2c0,1.44.99,2.34,2.664,2.358a5.271,5.271,0,0,0,1.872-1.35h.126a1.4,1.4,0,0,0,1.314,1.332,2.933,2.933,0,0,0,1.134-.4l.18-1.008-.162-.126a2.753,2.753,0,0,1-.54.072c-.378,0-.522-.144-.522-.612,0-.612.216-3.636.216-4.266C303.264,34.368,302.22,33.54,300.582,33.54Zm.99,4.68-.054,1.386a2.542,2.542,0,0,1-1.8,1.1,1.037,1.037,0,0,1-1.1-1.152.664.664,0,0,1,.612-.774Zm6.984-4.662c-1.908,0-3.024,1.08-3.024,2.5,0,2.61,3.726,2.268,3.726,3.8a1.151,1.151,0,0,1-1.278,1.062,3.8,3.8,0,0,1-2.3-.972l-.2.126-.216,1.53a6.518,6.518,0,0,0,2.52.558c2.07,0,3.114-1.278,3.114-2.61,0-2.538-3.726-2.214-3.726-3.726a1.051,1.051,0,0,1,1.17-.99,3.357,3.357,0,0,1,1.836.63l.234-.054.252-1.44A5.7,5.7,0,0,0,308.556,33.558ZM4.266,59.54a5.768,5.768,0,0,0-3.24,1.08L1.26,61.9l.144.09a4.1,4.1,0,0,1,2.574-1.152,1.185,1.185,0,0,1,1.3,1.35l-.018.972-2.844.63a1.918,1.918,0,0,0-1.746,2c0,1.44.99,2.34,2.664,2.358A5.271,5.271,0,0,0,5.2,66.794h.126a1.4,1.4,0,0,0,1.314,1.332,2.933,2.933,0,0,0,1.134-.4l.18-1.008L7.794,66.6a2.753,2.753,0,0,1-.54.072c-.378,0-.522-.144-.522-.612,0-.612.216-3.636.216-4.266C6.948,60.368,5.9,59.54,4.266,59.54Zm.99,4.68L5.2,65.606a2.542,2.542,0,0,1-1.8,1.1,1.037,1.037,0,0,1-1.1-1.152.664.664,0,0,1,.612-.774ZM13,59.54c-2.484,0-3.87,1.6-3.87,4.446,0,2.664,1.314,4.176,3.636,4.176,2.484,0,3.87-1.6,3.87-4.446C16.632,61.052,15.318,59.54,13,59.54Zm-.108,1.278c1.35,0,2.034,1.044,2.034,3.312,0,1.89-.684,2.772-2.034,2.772-1.368,0-2.052-1.026-2.052-3.312C10.836,61.736,11.52,60.818,12.888,60.818ZM25.7,55.328c-2.484,0-3.636,1.1-3.636,3.492l.018.918H20.862l-.09,1.062.072.108h1.242l.036,3.6L22.014,68H23.85l-.126-3.654.054-3.438h3.744l.072,3.618L27.468,68H29.3L29.2,64.364l.126-4.7-.144-.072-1.026.144H23.8l.018-1.278c0-1.26.54-1.818,1.692-1.818a5.035,5.035,0,0,1,2.142.576l.2-.072.216-1.476A8.49,8.49,0,0,0,25.7,55.328ZM36.81,68h1.854l-.09-3.636.054-2.34c.018-1.548-.936-2.43-2.79-2.43a6.121,6.121,0,0,0-2.214,1.278H33.5l.018-1.206-1.746.162.09,4.7L31.752,68h1.836l-.108-3.636.018-2.2a3.229,3.229,0,0,1,2.16-1.08c.864,0,1.3.558,1.278,1.458Zm7.29-8.46a5.768,5.768,0,0,0-3.24,1.08l.234,1.278.144.09a4.1,4.1,0,0,1,2.574-1.152,1.185,1.185,0,0,1,1.3,1.35l-.018.972-2.844.63a1.918,1.918,0,0,0-1.746,2c0,1.44.99,2.34,2.664,2.358a5.271,5.271,0,0,0,1.872-1.35h.126a1.4,1.4,0,0,0,1.314,1.332,2.933,2.933,0,0,0,1.134-.4l.18-1.008-.162-.126a2.753,2.753,0,0,1-.54.072c-.378,0-.522-.144-.522-.612,0-.612.216-3.636.216-4.266C46.782,60.368,45.738,59.54,44.1,59.54Zm.99,4.68-.054,1.386a2.542,2.542,0,0,1-1.8,1.1,1.037,1.037,0,0,1-1.1-1.152.664.664,0,0,1,.612-.774Zm6.282.126.144-8.982-1.836.144.108,9L49.662,68H51.5Zm12.15,0,.144-8.982-1.836.144.036,4.194a7.586,7.586,0,0,0-1.4-.144c-2.538,0-4.086,1.548-4.086,4.32,0,2.664,1.314,4.23,3.726,4.23a7.351,7.351,0,0,0,1.872-1.242h.144a1.425,1.425,0,0,0,1.332,1.26,2.917,2.917,0,0,0,1.152-.4l.162-1.008L64.6,66.6a2.6,2.6,0,0,1-.558.072c-.342,0-.45-.144-.468-.594Zm-3.24-3.528a3.717,3.717,0,0,1,1.6.414l.054,3.276-.036,1.17a2.3,2.3,0,0,1-1.764.936c-1.26,0-2.016-1.026-2.034-2.952C58.068,61.736,58.932,60.818,60.282,60.818Zm9.36-1.278c-2.484,0-3.87,1.6-3.87,4.446,0,2.664,1.314,4.176,3.636,4.176,2.484,0,3.87-1.6,3.87-4.446C73.278,61.052,71.964,59.54,69.642,59.54Zm-.108,1.278c1.35,0,2.034,1.044,2.034,3.312,0,1.89-.684,2.772-2.034,2.772-1.368,0-2.052-1.026-2.052-3.312C67.482,61.736,68.166,60.818,69.534,60.818ZM81.108,59.54a5.768,5.768,0,0,0-3.24,1.08L78.1,61.9l.144.09a4.1,4.1,0,0,1,2.574-1.152,1.185,1.185,0,0,1,1.3,1.35l-.018.972-2.844.63a1.918,1.918,0,0,0-1.746,2c0,1.44.99,2.34,2.664,2.358a5.271,5.271,0,0,0,1.872-1.35h.126a1.4,1.4,0,0,0,1.314,1.332,2.933,2.933,0,0,0,1.134-.4l.18-1.008-.162-.126a2.753,2.753,0,0,1-.54.072c-.378,0-.522-.144-.522-.612,0-.612.216-3.636.216-4.266C83.79,60.368,82.746,59.54,81.108,59.54Zm.99,4.68-.054,1.386a2.542,2.542,0,0,1-1.8,1.1,1.037,1.037,0,0,1-1.1-1.152.664.664,0,0,1,.612-.774ZM91.638,68h1.854l-.09-3.636.054-2.34c.018-1.548-.936-2.43-2.79-2.43a6.121,6.121,0,0,0-2.214,1.278h-.126l.018-1.206-1.746.162.09,4.7L86.58,68h1.836l-.108-3.636.018-2.2a3.229,3.229,0,0,1,2.16-1.08c.864,0,1.3.558,1.278,1.458Zm7.56-8.46c-2.484,0-3.87,1.6-3.87,4.446,0,2.664,1.314,4.176,3.636,4.176,2.484,0,3.87-1.6,3.87-4.446C102.834,61.052,101.52,59.54,99.2,59.54Zm-.108,1.278c1.35,0,2.034,1.044,2.034,3.312,0,1.89-.684,2.772-2.034,2.772-1.368,0-2.052-1.026-2.052-3.312C97.038,61.736,97.722,60.818,99.09,60.818Zm6.084,5.274a4.591,4.591,0,0,0-1.314.594v.162a1.136,1.136,0,0,1,.558.954,2.186,2.186,0,0,1-.99,1.656l.018.144.594.54c1.278-.918,1.908-1.8,1.908-2.7A1.628,1.628,0,0,0,105.174,66.092Zm8.5-6.552a5.768,5.768,0,0,0-3.24,1.08l.234,1.278.144.09a4.1,4.1,0,0,1,2.574-1.152,1.185,1.185,0,0,1,1.3,1.35l-.018.972-2.844.63a1.918,1.918,0,0,0-1.746,2c0,1.44.99,2.34,2.664,2.358a5.271,5.271,0,0,0,1.872-1.35h.126a1.4,1.4,0,0,0,1.314,1.332,2.933,2.933,0,0,0,1.134-.4l.18-1.008L117.2,66.6a2.753,2.753,0,0,1-.54.072c-.378,0-.522-.144-.522-.612,0-.612.216-3.636.216-4.266C116.352,60.368,115.308,59.54,113.67,59.54Zm.99,4.68-.054,1.386a2.542,2.542,0,0,1-1.8,1.1,1.037,1.037,0,0,1-1.1-1.152.664.664,0,0,1,.612-.774Zm6.984-4.662c-1.908,0-3.024,1.08-3.024,2.5,0,2.61,3.726,2.268,3.726,3.8a1.151,1.151,0,0,1-1.278,1.062,3.8,3.8,0,0,1-2.3-.972l-.2.126-.216,1.53a6.518,6.518,0,0,0,2.52.558c2.07,0,3.114-1.278,3.114-2.61,0-2.538-3.726-2.214-3.726-3.726a1.051,1.051,0,0,1,1.17-.99,3.357,3.357,0,0,1,1.836.63l.234-.054.252-1.44A5.7,5.7,0,0,0,121.644,59.558Zm10.332-.018c-2.376,0-3.8,1.674-3.8,4.392,0,2.628,1.332,4.23,3.582,4.23a6.427,6.427,0,0,0,2.2-.414l.18-1.476-.162-.108a4.329,4.329,0,0,1-1.926.54c-1.368,0-2.142-1.08-2.142-2.916,0-1.746.756-2.736,2.034-2.736a3.568,3.568,0,0,1,1.764.558l.18-.072.306-1.53A5.4,5.4,0,0,0,131.976,59.54Zm6.552,0a5.768,5.768,0,0,0-3.24,1.08l.234,1.278.144.09a4.1,4.1,0,0,1,2.574-1.152,1.185,1.185,0,0,1,1.3,1.35l-.018.972-2.844.63a1.918,1.918,0,0,0-1.746,2c0,1.44.99,2.34,2.664,2.358a5.271,5.271,0,0,0,1.872-1.35h.126a1.4,1.4,0,0,0,1.314,1.332,2.933,2.933,0,0,0,1.134-.4l.18-1.008-.162-.126a2.753,2.753,0,0,1-.54.072c-.378,0-.522-.144-.522-.612,0-.612.216-3.636.216-4.266C141.21,60.368,140.166,59.54,138.528,59.54Zm.99,4.68-.054,1.386a2.542,2.542,0,0,1-1.8,1.1,1.037,1.037,0,0,1-1.1-1.152.664.664,0,0,1,.612-.774ZM154.134,68h1.854l-.09-3.636.054-2.34c.018-1.548-.936-2.43-2.79-2.43a6.528,6.528,0,0,0-2.376,1.35h-.108a2.527,2.527,0,0,0-2.592-1.35,5.977,5.977,0,0,0-2.214,1.278h-.126l.018-1.206-1.746.162.09,4.7L144,68h1.818l-.09-3.636.018-2.2a3.229,3.229,0,0,1,2.16-1.08c.864,0,1.3.558,1.278,1.458L149.058,68h1.836l-.072-3.636.036-2.232a3.174,3.174,0,0,1,2.124-1.044c.864,0,1.3.558,1.278,1.458Zm5.238-12.168a.973.973,0,0,0-1.044,1.044.914.914,0,0,0,.99,1.008.97.97,0,0,0,1.008-1.062A.89.89,0,0,0,159.372,55.832Zm.72,8.532.144-4.7-1.836.162.09,4.7L158.382,68h1.836Zm5.2-4.806c-1.908,0-3.024,1.08-3.024,2.5,0,2.61,3.726,2.268,3.726,3.8a1.151,1.151,0,0,1-1.278,1.062,3.8,3.8,0,0,1-2.3-.972l-.2.126L162,67.6a6.518,6.518,0,0,0,2.52.558c2.07,0,3.114-1.278,3.114-2.61,0-2.538-3.726-2.214-3.726-3.726a1.051,1.051,0,0,1,1.17-.99,3.357,3.357,0,0,1,1.836.63l.234-.054.252-1.44A5.7,5.7,0,0,0,165.294,59.558Zm10.278,4.374.306-.288a7.011,7.011,0,0,0,.072-.9,2.847,2.847,0,0,0-3.024-3.186c-2.412,0-3.978,1.638-3.978,4.338,0,2.628,1.44,4.266,3.924,4.266a5.842,5.842,0,0,0,2.52-.612l.216-1.458-.162-.108a4.941,4.941,0,0,1-2.43.756c-1.584,0-2.34-1.026-2.376-2.808Zm-1.3-1.206-3.546.09a2.11,2.11,0,0,1,2.088-2c.9,0,1.494.522,1.494,1.692Zm6.5,3.888c-.738,0-1.062-.288-1.044-1.188l.09-4.518h2.322l.09-1.044-.072-.126h-2.3l.036-1.782-.162-.144-1.62.612v1.314h-1.1l-.09,1.062.072.108h1.134l.018,3.51-.072,1.3a2.148,2.148,0,0,0,2.124,2.394,5.2,5.2,0,0,0,1.836-.54l.18-1.152-.18-.126A2.838,2.838,0,0,1,180.774,66.614Zm5.94-7.074a5.768,5.768,0,0,0-3.24,1.08l.234,1.278.144.09a4.1,4.1,0,0,1,2.574-1.152,1.185,1.185,0,0,1,1.3,1.35l-.018.972-2.844.63a1.918,1.918,0,0,0-1.746,2c0,1.44.99,2.34,2.664,2.358a5.271,5.271,0,0,0,1.872-1.35h.126a1.4,1.4,0,0,0,1.314,1.332,2.933,2.933,0,0,0,1.134-.4l.18-1.008-.162-.126a2.753,2.753,0,0,1-.54.072c-.378,0-.522-.144-.522-.612,0-.612.216-3.636.216-4.266C189.4,60.368,188.352,59.54,186.714,59.54Zm.99,4.68-.054,1.386a2.542,2.542,0,0,1-1.8,1.1,1.037,1.037,0,0,1-1.1-1.152.664.664,0,0,1,.612-.774Zm6.984-4.662c-1.908,0-3.024,1.08-3.024,2.5,0,2.61,3.726,2.268,3.726,3.8a1.151,1.151,0,0,1-1.278,1.062,3.8,3.8,0,0,1-2.3-.972l-.2.126-.216,1.53a6.518,6.518,0,0,0,2.52.558c2.07,0,3.114-1.278,3.114-2.61,0-2.538-3.726-2.214-3.726-3.726a1.051,1.051,0,0,1,1.17-.99,3.357,3.357,0,0,1,1.836.63l.234-.054.252-1.44A5.7,5.7,0,0,0,194.688,59.558Zm13.644,4.788.144-8.982-1.836.144.036,4.194a7.586,7.586,0,0,0-1.4-.144c-2.538,0-4.086,1.548-4.086,4.32,0,2.664,1.314,4.23,3.726,4.23a7.351,7.351,0,0,0,1.872-1.242h.144a1.425,1.425,0,0,0,1.332,1.26,2.917,2.917,0,0,0,1.152-.4l.162-1.008-.162-.126a2.6,2.6,0,0,1-.558.072c-.342,0-.45-.144-.468-.594Zm-3.24-3.528a3.717,3.717,0,0,1,1.6.414l.054,3.276-.036,1.17a2.3,2.3,0,0,1-1.764.936c-1.26,0-2.016-1.026-2.034-2.952C202.878,61.736,203.742,60.818,205.092,60.818Zm9.36-1.278c-2.484,0-3.87,1.6-3.87,4.446,0,2.664,1.314,4.176,3.636,4.176,2.484,0,3.87-1.6,3.87-4.446C218.088,61.052,216.774,59.54,214.452,59.54Zm-.108,1.278c1.35,0,2.034,1.044,2.034,3.312,0,1.89-.684,2.772-2.034,2.772-1.368,0-2.052-1.026-2.052-3.312C212.292,61.736,212.976,60.818,214.344,60.818Zm8.208-1.26c-1.908,0-3.024,1.08-3.024,2.5,0,2.61,3.726,2.268,3.726,3.8a1.151,1.151,0,0,1-1.278,1.062,3.8,3.8,0,0,1-2.3-.972l-.2.126-.216,1.53a6.518,6.518,0,0,0,2.52.558c2.07,0,3.114-1.278,3.114-2.61,0-2.538-3.726-2.214-3.726-3.726a1.051,1.051,0,0,1,1.17-.99,3.357,3.357,0,0,1,1.836.63l.234-.054.252-1.44A5.7,5.7,0,0,0,222.552,59.558Zm10.134-.018a5.768,5.768,0,0,0-3.24,1.08l.234,1.278.144.09a4.1,4.1,0,0,1,2.574-1.152,1.185,1.185,0,0,1,1.3,1.35l-.018.972-2.844.63a1.918,1.918,0,0,0-1.746,2c0,1.44.99,2.34,2.664,2.358a5.271,5.271,0,0,0,1.872-1.35h.126a1.4,1.4,0,0,0,1.314,1.332,2.933,2.933,0,0,0,1.134-.4l.18-1.008-.162-.126a2.753,2.753,0,0,1-.54.072c-.378,0-.522-.144-.522-.612,0-.612.216-3.636.216-4.266C235.368,60.368,234.324,59.54,232.686,59.54Zm.99,4.68-.054,1.386a2.542,2.542,0,0,1-1.8,1.1,1.037,1.037,0,0,1-1.1-1.152.664.664,0,0,1,.612-.774Zm9.54,3.78h1.854l-.09-3.636.054-2.34c.018-1.548-.936-2.43-2.79-2.43a6.121,6.121,0,0,0-2.214,1.278H239.9l.018-1.206-1.746.162.09,4.7L238.158,68h1.836l-.108-3.636.018-2.2a3.229,3.229,0,0,1,2.16-1.08c.864,0,1.3.558,1.278,1.458Zm7.56-8.46c-2.484,0-3.87,1.6-3.87,4.446,0,2.664,1.314,4.176,3.636,4.176,2.484,0,3.87-1.6,3.87-4.446C254.412,61.052,253.1,59.54,250.776,59.54Zm-.108,1.278c1.35,0,2.034,1.044,2.034,3.312,0,1.89-.684,2.772-2.034,2.772-1.368,0-2.052-1.026-2.052-3.312C248.616,61.736,249.3,60.818,250.668,60.818Zm8.208-1.26c-1.908,0-3.024,1.08-3.024,2.5,0,2.61,3.726,2.268,3.726,3.8A1.151,1.151,0,0,1,258.3,66.92a3.8,3.8,0,0,1-2.3-.972l-.2.126-.216,1.53a6.518,6.518,0,0,0,2.52.558c2.07,0,3.114-1.278,3.114-2.61,0-2.538-3.726-2.214-3.726-3.726a1.051,1.051,0,0,1,1.17-.99,3.357,3.357,0,0,1,1.836.63l.234-.054.252-1.44A5.7,5.7,0,0,0,258.876,59.558Zm10.188-.468-.27-.2-3.87,1.134v1.458l.162.108,2.2-.612.018,3.492L267.192,68h1.854l-.09-3.726ZM275.4,58.8a3.347,3.347,0,0,0-3.636,3.456,2.812,2.812,0,0,0,2.916,3.078,3.719,3.719,0,0,0,2.124-.666l.126.144c-.576,1.71-2.07,2.88-4.806,3.852v.18l1.368.828h.108c3.348-1.386,5.274-3.87,5.274-6.894C278.874,60.3,277.7,58.8,275.4,58.8Zm-.2,5.22c-1.152,0-1.8-.72-1.8-2.016a1.749,1.749,0,0,1,1.872-1.962c1.386,0,1.944.936,1.944,2.772l-.018.432A3.279,3.279,0,0,1,275.2,64.022Zm8.91-6.7c-1.944,0-3.294,1.062-3.294,2.844a2.678,2.678,0,0,0,1.638,2.484v.09a2.983,2.983,0,0,0-2.034,2.682c0,1.584,1.188,2.718,3.294,2.718,2.2,0,3.654-1.17,3.654-3.042a2.821,2.821,0,0,0-1.98-2.592v-.09a2.937,2.937,0,0,0,1.656-2.538C287.046,58.3,285.948,57.326,284.112,57.326Zm-.09,1.3a1.4,1.4,0,0,1,1.584,1.44c0,1.008-.72,1.494-1.53,1.872-.918-.36-1.746-.792-1.746-1.818C282.33,59.2,282.96,58.622,284.022,58.622Zm-.27,4.662c1.062.432,2.088.828,2.088,1.944,0,.936-.72,1.638-1.962,1.638-1.188,0-1.908-.666-1.908-1.656C281.97,64.094,282.816,63.626,283.752,63.284Zm9.4-4.428c-2.592,0-4.086,1.746-4.086,4.788,0,2.862,1.4,4.5,3.852,4.5,2.592,0,4.05-1.728,4.05-4.752C296.964,60.494,295.578,58.856,293.148,58.856ZM293,60.548c1.656,0,2.538,1.008,2.538,3.06,0,1.944-.864,2.916-2.52,2.916-1.692,0-2.52-1.008-2.52-3.006S291.33,60.548,293,60.548ZM5.13,81.328c-2.07,0-3.276,1.116-3.258,3.168l.018,1.242H.666L.576,86.8l.072.108H1.89l.036,3.6L1.818,94H3.654l-.126-3.654.054-3.438H5.67l.108-1.044-.054-.126H3.6l.018-1.548c.018-1.044.5-1.548,1.35-1.548a3.3,3.3,0,0,1,1.386.342l.126-.108.108-1.386A6.956,6.956,0,0,0,5.13,81.328ZM9.936,85.54c-2.484,0-3.87,1.6-3.87,4.446,0,2.664,1.314,4.176,3.636,4.176,2.484,0,3.87-1.6,3.87-4.446C13.572,87.052,12.258,85.54,9.936,85.54Zm-.108,1.278c1.35,0,2.034,1.044,2.034,3.312,0,1.89-.684,2.772-2.034,2.772-1.368,0-2.052-1.026-2.052-3.312C7.776,87.736,8.46,86.818,9.828,86.818Zm9.846-1.134a2.655,2.655,0,0,0-2.268,1.638H17.28l.018-1.656-1.746.162.108,4.7L15.534,94H17.37l-.126-3.636.018-1.188c.63-1.242,1.26-1.746,2-1.746a2.519,2.519,0,0,1,.666.09l.2-.054V85.72A3.506,3.506,0,0,0,19.674,85.684Zm4.644-.144a5.768,5.768,0,0,0-3.24,1.08l.234,1.278.144.09a4.1,4.1,0,0,1,2.574-1.152,1.185,1.185,0,0,1,1.3,1.35l-.018.972-2.844.63a1.918,1.918,0,0,0-1.746,2c0,1.44.99,2.34,2.664,2.358a5.271,5.271,0,0,0,1.872-1.35h.126a1.4,1.4,0,0,0,1.314,1.332,2.933,2.933,0,0,0,1.134-.4l.18-1.008-.162-.126a2.753,2.753,0,0,1-.54.072c-.378,0-.522-.144-.522-.612,0-.612.216-3.636.216-4.266C27,86.368,25.956,85.54,24.318,85.54Zm.99,4.68-.054,1.386a2.542,2.542,0,0,1-1.8,1.1,1.037,1.037,0,0,1-1.1-1.152.664.664,0,0,1,.612-.774ZM39.924,94h1.854l-.09-3.636.054-2.34c.018-1.548-.936-2.43-2.79-2.43a6.528,6.528,0,0,0-2.376,1.35h-.108a2.527,2.527,0,0,0-2.592-1.35,5.977,5.977,0,0,0-2.214,1.278h-.126l.018-1.206-1.746.162.09,4.7L29.79,94h1.818l-.09-3.636.018-2.2a3.229,3.229,0,0,1,2.16-1.08c.864,0,1.3.558,1.278,1.458L34.848,94h1.836l-.072-3.636.036-2.232a3.174,3.174,0,0,1,2.124-1.044c.864,0,1.3.558,1.278,1.458ZM50.04,85.54a5.768,5.768,0,0,0-3.24,1.08l.234,1.278.144.09a4.1,4.1,0,0,1,2.574-1.152,1.185,1.185,0,0,1,1.3,1.35l-.018.972-2.844.63a1.918,1.918,0,0,0-1.746,2c0,1.44.99,2.34,2.664,2.358a5.271,5.271,0,0,0,1.872-1.35H51.1a1.4,1.4,0,0,0,1.314,1.332,2.933,2.933,0,0,0,1.134-.4l.18-1.008-.162-.126a2.753,2.753,0,0,1-.54.072c-.378,0-.522-.144-.522-.612,0-.612.216-3.636.216-4.266C52.722,86.368,51.678,85.54,50.04,85.54Zm.99,4.68-.054,1.386a2.542,2.542,0,0,1-1.8,1.1,1.037,1.037,0,0,1-1.1-1.152.664.664,0,0,1,.612-.774Zm6.984-4.662c-1.908,0-3.024,1.08-3.024,2.5,0,2.61,3.726,2.268,3.726,3.8a1.151,1.151,0,0,1-1.278,1.062,3.8,3.8,0,0,1-2.3-.972l-.2.126L54.72,93.6a6.518,6.518,0,0,0,2.52.558c2.07,0,3.114-1.278,3.114-2.61,0-2.538-3.726-2.214-3.726-3.726a1.051,1.051,0,0,1,1.17-.99,3.357,3.357,0,0,1,1.836.63l.234-.054.252-1.44A5.7,5.7,0,0,0,58.014,85.558Zm10.332-.018c-2.376,0-3.8,1.674-3.8,4.392,0,2.628,1.332,4.23,3.582,4.23a6.427,6.427,0,0,0,2.2-.414l.18-1.476-.162-.108a4.329,4.329,0,0,1-1.926.54c-1.368,0-2.142-1.08-2.142-2.916,0-1.746.756-2.736,2.034-2.736a3.568,3.568,0,0,1,1.764.558l.18-.072.306-1.53A5.4,5.4,0,0,0,68.346,85.54Zm6.552,0a5.768,5.768,0,0,0-3.24,1.08l.234,1.278.144.09a4.1,4.1,0,0,1,2.574-1.152,1.185,1.185,0,0,1,1.3,1.35l-.018.972-2.844.63a1.918,1.918,0,0,0-1.746,2c0,1.44.99,2.34,2.664,2.358a5.271,5.271,0,0,0,1.872-1.35h.126a1.4,1.4,0,0,0,1.314,1.332,2.933,2.933,0,0,0,1.134-.4l.18-1.008-.162-.126a2.753,2.753,0,0,1-.54.072c-.378,0-.522-.144-.522-.612,0-.612.216-3.636.216-4.266C77.58,86.368,76.536,85.54,74.9,85.54Zm.99,4.68-.054,1.386a2.542,2.542,0,0,1-1.8,1.1,1.037,1.037,0,0,1-1.1-1.152.664.664,0,0,1,.612-.774ZM90.5,94h1.854l-.09-3.636.054-2.34c.018-1.548-.936-2.43-2.79-2.43a6.528,6.528,0,0,0-2.376,1.35h-.108a2.527,2.527,0,0,0-2.592-1.35,5.977,5.977,0,0,0-2.214,1.278h-.126l.018-1.206-1.746.162.09,4.7L80.37,94h1.818l-.09-3.636.018-2.2a3.229,3.229,0,0,1,2.16-1.08c.864,0,1.3.558,1.278,1.458L85.428,94h1.836l-.072-3.636.036-2.232a3.174,3.174,0,0,1,2.124-1.044c.864,0,1.3.558,1.278,1.458Zm8.28-8.388a5.424,5.424,0,0,0-2.16,1.242H96.5l.018-1.188-1.764.162.108,4.7-.108,6.8H96.57l-.054-3.312a7.745,7.745,0,0,0,1.4.144c2.574,0,4.086-1.62,4.086-4.554C102.006,87.106,100.908,85.612,98.784,85.612Zm-.72,7.29a3.479,3.479,0,0,1-1.566-.4l-.036-2.142.018-2.2a2.859,2.859,0,0,1,2-1.08c1.152,0,1.782,1.008,1.8,2.754C100.314,91.948,99.414,92.9,98.064,92.9Zm11.88-2.97.306-.288a7.013,7.013,0,0,0,.072-.9,2.847,2.847,0,0,0-3.024-3.186c-2.412,0-3.978,1.638-3.978,4.338,0,2.628,1.44,4.266,3.924,4.266a5.842,5.842,0,0,0,2.52-.612l.216-1.458-.162-.108a4.941,4.941,0,0,1-2.43.756c-1.584,0-2.34-1.026-2.376-2.808Zm-1.3-1.206-3.546.09a2.11,2.11,0,0,1,2.088-2c.9,0,1.494.522,1.494,1.692Zm9.324-6.426-.54-.576h-.18c-.45.486-.756.882-1.062.882-.45,0-2-.54-2.79-.648l-.2.072-1.17,1.386v.162l.558.576h.18c.45-.468.738-.882,1.062-.882.468,0,2,.558,2.79.666l.18-.09,1.17-1.386ZM115.2,85.54a5.768,5.768,0,0,0-3.24,1.08l.234,1.278.144.09a4.1,4.1,0,0,1,2.574-1.152,1.185,1.185,0,0,1,1.3,1.35l-.018.972-2.844.63a1.918,1.918,0,0,0-1.746,2c0,1.44.99,2.34,2.664,2.358a5.433,5.433,0,0,0,1.872-1.35h.126a1.4,1.4,0,0,0,1.314,1.332,2.933,2.933,0,0,0,1.134-.4l.18-1.008-.162-.126a2.739,2.739,0,0,1-.558.072c-.378,0-.5-.144-.5-.612,0-.612.216-3.636.216-4.266C117.882,86.368,116.838,85.54,115.2,85.54Zm.99,4.68-.054,1.386a2.542,2.542,0,0,1-1.8,1.1,1.037,1.037,0,0,1-1.1-1.152.675.675,0,0,1,.612-.774Zm6.984-4.662c-1.908,0-3.024,1.08-3.024,2.5,0,2.61,3.726,2.268,3.726,3.8A1.151,1.151,0,0,1,122.6,92.92a3.8,3.8,0,0,1-2.3-.972l-.2.126-.216,1.53a6.518,6.518,0,0,0,2.52.558c2.07,0,3.114-1.278,3.114-2.61,0-2.538-3.726-2.214-3.726-3.726a1.051,1.051,0,0,1,1.17-.99,3.357,3.357,0,0,1,1.836.63l.234-.054.252-1.44A5.7,5.7,0,0,0,123.174,85.558Zm13.644,4.788.144-8.982-1.836.144.036,4.194a7.587,7.587,0,0,0-1.4-.144c-2.538,0-4.086,1.548-4.086,4.32,0,2.664,1.314,4.23,3.726,4.23a7.351,7.351,0,0,0,1.872-1.242h.144a1.425,1.425,0,0,0,1.332,1.26,2.917,2.917,0,0,0,1.152-.4l.162-1.008L137.9,92.6a2.6,2.6,0,0,1-.558.072c-.342,0-.45-.144-.468-.594Zm-3.24-3.528a3.717,3.717,0,0,1,1.6.414l.054,3.276-.036,1.17a2.3,2.3,0,0,1-1.764.936c-1.26,0-2.016-1.026-2.034-2.952C131.364,87.736,132.228,86.818,133.578,86.818Zm12.114,3.114.306-.288a7.011,7.011,0,0,0,.072-.9,2.847,2.847,0,0,0-3.024-3.186c-2.412,0-3.978,1.638-3.978,4.338,0,2.628,1.44,4.266,3.924,4.266a5.842,5.842,0,0,0,2.52-.612l.216-1.458-.162-.108a4.941,4.941,0,0,1-2.43.756c-1.584,0-2.34-1.026-2.376-2.808Zm-1.3-1.206-3.546.09a2.11,2.11,0,0,1,2.088-2c.9,0,1.494.522,1.494,1.692Zm7.416-1.854-.234-1.224-1.692.09L152.352,94h1.98l2.934-8.3h-1.62l-.306,1.26L153.5,92.236h-.126Zm12.564,3.06.306-.288a7.011,7.011,0,0,0,.072-.9,2.847,2.847,0,0,0-3.024-3.186c-2.412,0-3.978,1.638-3.978,4.338,0,2.628,1.44,4.266,3.924,4.266a5.842,5.842,0,0,0,2.52-.612l.216-1.458-.162-.108a4.941,4.941,0,0,1-2.43.756c-1.584,0-2.34-1.026-2.376-2.808Zm-1.3-1.206-3.546.09a2.11,2.11,0,0,1,2.088-2c.9,0,1.494.522,1.494,1.692ZM171.7,94h1.854l-.09-3.636.054-2.34c.018-1.548-.936-2.43-2.79-2.43a6.121,6.121,0,0,0-2.214,1.278h-.126l.018-1.206-1.746.162.09,4.7L166.644,94h1.836l-.108-3.636.018-2.2a3.229,3.229,0,0,1,2.16-1.08c.864,0,1.3.558,1.278,1.458Zm10.8-3.654.144-8.982-1.836.144.036,4.194a7.587,7.587,0,0,0-1.4-.144c-2.538,0-4.086,1.548-4.086,4.32,0,2.664,1.314,4.23,3.726,4.23a7.351,7.351,0,0,0,1.872-1.242h.144a1.425,1.425,0,0,0,1.332,1.26,2.917,2.917,0,0,0,1.152-.4l.162-1.008-.162-.126a2.6,2.6,0,0,1-.558.072c-.342,0-.45-.144-.468-.594Zm-3.24-3.528a3.717,3.717,0,0,1,1.6.414l.054,3.276-.036,1.17a2.3,2.3,0,0,1-1.764.936c-1.26,0-2.016-1.026-2.034-2.952C177.048,87.736,177.912,86.818,179.262,86.818Zm9.09-1.278a5.768,5.768,0,0,0-3.24,1.08l.234,1.278.144.09a4.1,4.1,0,0,1,2.574-1.152,1.185,1.185,0,0,1,1.3,1.35l-.018.972-2.844.63a1.918,1.918,0,0,0-1.746,2c0,1.44.99,2.34,2.664,2.358a5.271,5.271,0,0,0,1.872-1.35h.126a1.4,1.4,0,0,0,1.314,1.332,2.933,2.933,0,0,0,1.134-.4l.18-1.008-.162-.126a2.753,2.753,0,0,1-.54.072c-.378,0-.522-.144-.522-.612,0-.612.216-3.636.216-4.266C191.034,86.368,189.99,85.54,188.352,85.54Zm.99,4.68-.054,1.386a2.542,2.542,0,0,1-1.8,1.1,1.037,1.037,0,0,1-1.1-1.152.664.664,0,0,1,.612-.774Zm6.984-4.662c-1.908,0-3.024,1.08-3.024,2.5,0,2.61,3.726,2.268,3.726,3.8a1.151,1.151,0,0,1-1.278,1.062,3.8,3.8,0,0,1-2.3-.972l-.2.126-.216,1.53a6.518,6.518,0,0,0,2.52.558c2.07,0,3.114-1.278,3.114-2.61,0-2.538-3.726-2.214-3.726-3.726a1.051,1.051,0,0,1,1.17-.99,3.357,3.357,0,0,1,1.836.63l.234-.054.252-1.44A5.7,5.7,0,0,0,196.326,85.558Zm4.788,6.5A.973.973,0,0,0,200.07,93.1a.914.914,0,0,0,.99,1.008.97.97,0,0,0,1.008-1.062A.89.89,0,0,0,201.114,92.056Z" transform="translate(-137.454 11117.566)"/>
    <path id="Caminho_773673" data-name="Caminho 773673" d="M10.224,16,6.5,4.444H4.32L.2,16H2.052l.288-1.386L2.88,13.1l2.214-.054,2.448.054.5,1.6.27,1.3Zm-3.15-4.41-1.854.036L3.4,11.59l1.89-5.328h.126ZM16.9,16h1.854l-.09-3.636.054-2.34c.018-1.548-.936-2.43-2.79-2.43a6.121,6.121,0,0,0-2.214,1.278H13.59l.018-1.206-1.746.162.09,4.7L11.844,16H13.68l-.108-3.636.018-2.2a3.229,3.229,0,0,1,2.16-1.08c.864,0,1.3.558,1.278,1.458Zm7.56-8.46c-2.484,0-3.87,1.6-3.87,4.446,0,2.664,1.314,4.176,3.636,4.176,2.484,0,3.87-1.6,3.87-4.446C28.1,9.052,26.784,7.54,24.462,7.54Zm-.108,1.278c1.35,0,2.034,1.044,2.034,3.312,0,1.89-.684,2.772-2.034,2.772-1.368,0-2.052-1.026-2.052-3.312C22.3,9.736,22.986,8.818,24.354,8.818Zm8.208-1.26c-1.908,0-3.024,1.08-3.024,2.5,0,2.61,3.726,2.268,3.726,3.8a1.151,1.151,0,0,1-1.278,1.062,3.8,3.8,0,0,1-2.3-.972l-.2.126-.216,1.53a6.518,6.518,0,0,0,2.52.558c2.07,0,3.114-1.278,3.114-2.61,0-2.538-3.726-2.214-3.726-3.726a1.051,1.051,0,0,1,1.17-.99,3.357,3.357,0,0,1,1.836.63l.234-.054.252-1.44A5.7,5.7,0,0,0,32.562,7.558Zm10.8,2.07a3.719,3.719,0,0,0-2.124.666l-.126-.144c.576-1.71,2.07-2.88,4.806-3.852v-.18L44.55,5.29h-.108c-3.348,1.386-5.274,3.87-5.274,6.894,0,2.484,1.17,3.978,3.474,3.978a3.347,3.347,0,0,0,3.636-3.456A2.812,2.812,0,0,0,43.362,9.628Zm-.594,5.292c-1.386,0-1.944-.936-1.944-2.772l.018-.432a3.279,3.279,0,0,1,2-.774c1.152,0,1.8.72,1.8,2.016A1.749,1.749,0,0,1,42.768,14.92ZM51.84,6.856c-2.592,0-4.086,1.746-4.086,4.788,0,2.862,1.4,4.5,3.852,4.5,2.592,0,4.05-1.728,4.05-4.752C55.656,8.494,54.27,6.856,51.84,6.856ZM51.7,8.548c1.656,0,2.538,1.008,2.538,3.06,0,1.944-.864,2.916-2.52,2.916-1.692,0-2.52-1.008-2.52-3.006S50.022,8.548,51.7,8.548Z" transform="translate(-92.454 11225.566)"/>
    <path id="Caminho_773674" data-name="Caminho 773674" d="M10.224,16,6.5,4.444H4.32L.2,16H2.052l.288-1.386L2.88,13.1l2.214-.054,2.448.054.5,1.6.27,1.3Zm-3.15-4.41-1.854.036L3.4,11.59l1.89-5.328h.126ZM16.9,16h1.854l-.09-3.636.054-2.34c.018-1.548-.936-2.43-2.79-2.43a6.121,6.121,0,0,0-2.214,1.278H13.59l.018-1.206-1.746.162.09,4.7L11.844,16H13.68l-.108-3.636.018-2.2a3.229,3.229,0,0,1,2.16-1.08c.864,0,1.3.558,1.278,1.458Zm7.56-8.46c-2.484,0-3.87,1.6-3.87,4.446,0,2.664,1.314,4.176,3.636,4.176,2.484,0,3.87-1.6,3.87-4.446C28.1,9.052,26.784,7.54,24.462,7.54Zm-.108,1.278c1.35,0,2.034,1.044,2.034,3.312,0,1.89-.684,2.772-2.034,2.772-1.368,0-2.052-1.026-2.052-3.312C22.3,9.736,22.986,8.818,24.354,8.818Zm8.208-1.26c-1.908,0-3.024,1.08-3.024,2.5,0,2.61,3.726,2.268,3.726,3.8a1.151,1.151,0,0,1-1.278,1.062,3.8,3.8,0,0,1-2.3-.972l-.2.126-.216,1.53a6.518,6.518,0,0,0,2.52.558c2.07,0,3.114-1.278,3.114-2.61,0-2.538-3.726-2.214-3.726-3.726a1.051,1.051,0,0,1,1.17-.99,3.357,3.357,0,0,1,1.836.63l.234-.054.252-1.44A5.7,5.7,0,0,0,32.562,7.558Zm8.118-.576L38.9,6.91l-.126,1.566.108.18,1.494-.162H43.83l-4.014,8.622.108.306,1.476.4.882-2.358L45.558,8.3l-.018-1.35-.81.036Zm10.242-.126c-2.592,0-4.086,1.746-4.086,4.788,0,2.862,1.4,4.5,3.852,4.5,2.592,0,4.05-1.728,4.05-4.752C54.738,8.494,53.352,6.856,50.922,6.856Zm-.144,1.692c1.656,0,2.538,1.008,2.538,3.06,0,1.944-.864,2.916-2.52,2.916-1.692,0-2.52-1.008-2.52-3.006S49.1,8.548,50.778,8.548Z" transform="translate(-92.454 11252.566)"/>
    <path id="Caminho_773675" data-name="Caminho 773675" d="M10.224,16,6.5,4.444H4.32L.2,16H2.052l.288-1.386L2.88,13.1l2.214-.054,2.448.054.5,1.6.27,1.3Zm-3.15-4.41-1.854.036L3.4,11.59l1.89-5.328h.126ZM16.9,16h1.854l-.09-3.636.054-2.34c.018-1.548-.936-2.43-2.79-2.43a6.121,6.121,0,0,0-2.214,1.278H13.59l.018-1.206-1.746.162.09,4.7L11.844,16H13.68l-.108-3.636.018-2.2a3.229,3.229,0,0,1,2.16-1.08c.864,0,1.3.558,1.278,1.458Zm7.56-8.46c-2.484,0-3.87,1.6-3.87,4.446,0,2.664,1.314,4.176,3.636,4.176,2.484,0,3.87-1.6,3.87-4.446C28.1,9.052,26.784,7.54,24.462,7.54Zm-.108,1.278c1.35,0,2.034,1.044,2.034,3.312,0,1.89-.684,2.772-2.034,2.772-1.368,0-2.052-1.026-2.052-3.312C22.3,9.736,22.986,8.818,24.354,8.818Zm8.208-1.26c-1.908,0-3.024,1.08-3.024,2.5,0,2.61,3.726,2.268,3.726,3.8a1.151,1.151,0,0,1-1.278,1.062,3.8,3.8,0,0,1-2.3-.972l-.2.126-.216,1.53a6.518,6.518,0,0,0,2.52.558c2.07,0,3.114-1.278,3.114-2.61,0-2.538-3.726-2.214-3.726-3.726a1.051,1.051,0,0,1,1.17-.99,3.357,3.357,0,0,1,1.836.63l.234-.054.252-1.44A5.7,5.7,0,0,0,32.562,7.558ZM42.93,5.326c-1.944,0-3.294,1.062-3.294,2.844a2.678,2.678,0,0,0,1.638,2.484v.09a2.983,2.983,0,0,0-2.034,2.682c0,1.584,1.188,2.718,3.294,2.718,2.2,0,3.654-1.17,3.654-3.042a2.821,2.821,0,0,0-1.98-2.592v-.09a2.937,2.937,0,0,0,1.656-2.538C45.864,6.3,44.766,5.326,42.93,5.326Zm-.09,1.3a1.4,1.4,0,0,1,1.584,1.44c0,1.008-.72,1.494-1.53,1.872-.918-.36-1.746-.792-1.746-1.818C41.148,7.2,41.778,6.622,42.84,6.622Zm-.27,4.662c1.062.432,2.088.828,2.088,1.944,0,.936-.72,1.638-1.962,1.638-1.188,0-1.908-.666-1.908-1.656C40.788,12.094,41.634,11.626,42.57,11.284Zm9.4-4.428c-2.592,0-4.086,1.746-4.086,4.788,0,2.862,1.4,4.5,3.852,4.5,2.592,0,4.05-1.728,4.05-4.752C55.782,8.494,54.4,6.856,51.966,6.856Zm-.144,1.692c1.656,0,2.538,1.008,2.538,3.06,0,1.944-.864,2.916-2.52,2.916-1.692,0-2.52-1.008-2.52-3.006S50.148,8.548,51.822,8.548Z" transform="translate(-92.454 11275.566)"/>
    <path id="Caminho_770841" data-name="Caminho 770841" d="M16466.678,10080.209l152.488-132.831s10.291-13.562,51.916,5.146c0-.936,49.113,9.821,74.834-27.127-.936,1.4,21.516-43.966,60.8-9.822,2.338.468,13.094,13.1,35.076,9.822.936.935,33.209-2.339,48.643,29.933.936-.468,17.773,31.806,34.609,28.063" transform="translate(-16584 1442.643)" fill="none" stroke="#0041d9" stroke-linecap="round" stroke-width="3" stroke-dasharray="0 8"/>
    <path id="Caminho_770842" data-name="Caminho 770842" d="M16486.207,10018.324s44-15.5,47.047-19.372c.277.276,12.748-8.77,18.314-16.3,0,.163,29.15-40.938,53.553-16.7-.166,0,26.76,23.337,55.287,2.049.215-.213,97.924-42.792,112.613-46.411,0-.426,21.205-11.69,34.557-33.483-.125,0,19.271-27.085,37.664,6.676-.123-.252,20.9,39.558,39.564,48.237.166-.164,17.193,8.68,36.354,13.1" transform="translate(-16588.336 1448.193)" fill="none" stroke="#0024a9" stroke-linecap="round" stroke-width="3" stroke-dasharray="0 8"/>
    <path id="Caminho_770846" data-name="Caminho 770846" d="M16472.316,9881.17H16507" transform="translate(-16607.453 1383.396)" fill="none" stroke="#0024a9" stroke-linecap="round" stroke-width="4"/>
    <path id="Caminho_770845" data-name="Caminho 770845" d="M16472.316,9881.17H16507" transform="translate(-16607.453 1406.396)" fill="none" stroke="#0041d9" stroke-linecap="round" stroke-width="4"/>
    <line id="Linha_1909" data-name="Linha 1909" x2="624.512" transform="translate(-137.256 11580.646)" fill="none" stroke="#40bbff" stroke-miterlimit="10" stroke-width="1"/>
    <path id="Caminho_773687" data-name="Caminho 773687" d="M10.224,0,6.5-11.556H4.32L.2,0H2.052L2.34-1.386,2.88-2.9l2.214-.054L7.542-2.9l.5,1.6L8.316,0ZM7.074-4.41,5.22-4.374,3.4-4.41l1.89-5.328h.126Zm8.6-3.978a5.892,5.892,0,0,0-2.16,1.242H13.41l.072-5.49-1.836.144.108,9.036L11.628.036l.288.18L13.05-.252a4.466,4.466,0,0,0,1.836.414C17.37.162,18.9-1.458,18.9-4.41,18.9-6.894,17.8-8.388,15.678-8.388Zm-.72,7.29a3.037,3.037,0,0,1-1.548-.486l-.054-2.088.036-2.16a2.8,2.8,0,0,1,1.98-1.08c1.17,0,1.782,1.008,1.818,2.754C17.208-2.052,16.308-1.1,14.958-1.1ZM24.984-8.316a2.655,2.655,0,0,0-2.268,1.638H22.59l.018-1.656-1.746.162.108,4.7L20.844,0H22.68l-.126-3.636.018-1.188c.63-1.242,1.26-1.746,2-1.746a2.519,2.519,0,0,1,.666.09l.2-.054V-8.28A3.506,3.506,0,0,0,24.984-8.316Z" transform="translate(28.39 11602.744)" fill="#2f2e33"/>
    <path id="Caminho_773686" data-name="Caminho 773686" d="M13.266,0l-1.1-11.556H10.062l-.54,1.674L7.182-3.69H7.038L4.824-9.828l-.54-1.728H2.16L.954,0H2.52l.288-3.672.54-5.058H3.51L6.264-1.278H7.74L10.71-8.73h.126l.54,5.22L11.61,0Zm5.076-8.46A5.768,5.768,0,0,0,15.1-7.38L15.336-6.1l.144.09a4.1,4.1,0,0,1,2.574-1.152,1.185,1.185,0,0,1,1.3,1.35l-.018.972-2.844.63a1.918,1.918,0,0,0-1.746,2c0,1.44.99,2.34,2.664,2.358a5.271,5.271,0,0,0,1.872-1.35H19.4A1.4,1.4,0,0,0,20.718.126a2.933,2.933,0,0,0,1.134-.4l.18-1.008L21.87-1.4a2.753,2.753,0,0,1-.54.072c-.378,0-.522-.144-.522-.612,0-.612.216-3.636.216-4.266C21.024-7.632,19.98-8.46,18.342-8.46Zm.99,4.68-.054,1.386a2.542,2.542,0,0,1-1.8,1.1,1.037,1.037,0,0,1-1.1-1.152.664.664,0,0,1,.612-.774ZM24.8-12.168a.973.973,0,0,0-1.044,1.044.914.914,0,0,0,.99,1.008.97.97,0,0,0,1.008-1.062A.89.89,0,0,0,24.8-12.168Zm.72,8.532.144-4.7-1.836.162.09,4.7L23.814,0H25.65Z" transform="translate(81.025 11602.744)" fill="#2f2e33"/>
    <path id="Caminho_773685" data-name="Caminho 773685" d="M4.122-3.816l.108-7.74H.216L.108-10.242.27-10.1l2.106-.018.072,6.48v1.494c0,1.3-.63,1.98-2.2,2.79v.2L.9,1.872C3.312.81,4.158-.27,4.158-2.142Zm9.342-4.518-1.746.162v5.85A2.951,2.951,0,0,1,9.756-1.4c-.846,0-1.26-.54-1.242-1.422L8.6-8.334l-1.818.162.072,3.6-.036,2.25C6.8-.774,7.776.108,9.594.108a5.411,5.411,0,0,0,2.16-1.26H11.9A1.441,1.441,0,0,0,13.23.126a2.832,2.832,0,0,0,1.134-.4l.18-1.008L14.382-1.4a2.6,2.6,0,0,1-.558.072c-.36,0-.486-.144-.486-.594ZM21.2,0h1.854l-.09-3.636.054-2.34c.018-1.548-.936-2.43-2.79-2.43a6.121,6.121,0,0,0-2.214,1.278h-.126l.018-1.206-1.746.162.09,4.7L16.146,0h1.836l-.108-3.636.018-2.2a3.229,3.229,0,0,1,2.16-1.08c.864,0,1.3.558,1.278,1.458Z" transform="translate(134.693 11602.744)" fill="#2f2e33"/>
    <path id="Caminho_773684" data-name="Caminho 773684" d="M4.122-3.816l.108-7.74H.216L.108-10.242.27-10.1l2.106-.018.072,6.48v1.494c0,1.3-.63,1.98-2.2,2.79v.2L.9,1.872C3.312.81,4.158-.27,4.158-2.142Zm9.342-4.518-1.746.162v5.85A2.951,2.951,0,0,1,9.756-1.4c-.846,0-1.26-.54-1.242-1.422L8.6-8.334l-1.818.162.072,3.6-.036,2.25C6.8-.774,7.776.108,9.594.108a5.411,5.411,0,0,0,2.16-1.26H11.9A1.441,1.441,0,0,0,13.23.126a2.832,2.832,0,0,0,1.134-.4l.18-1.008L14.382-1.4a2.6,2.6,0,0,1-.558.072c-.36,0-.486-.144-.486-.594Zm4.482,4.68.144-8.982-1.836.144.108,9L16.236,0h1.836Z" transform="translate(185.265 11602.744)" fill="#2f2e33"/>
    <path id="Caminho_773683" data-name="Caminho 773683" d="M10.224,0,6.5-11.556H4.32L.2,0H2.052L2.34-1.386,2.88-2.9l2.214-.054L7.542-2.9l.5,1.6L8.316,0ZM7.074-4.41,5.22-4.374,3.4-4.41l1.89-5.328h.126Zm12.4-4.212-.162-.108a19.107,19.107,0,0,1-2.664.63,4.183,4.183,0,0,0-1.656-.306c-2.034,0-3.366,1.08-3.366,2.934a2.479,2.479,0,0,0,1.242,2.3v.09a3.967,3.967,0,0,0-1.152,1.1c0,.846.558,1.26,1.314,1.512v.09A4.619,4.619,0,0,0,11.484,1.08c0,1.386,1.1,2.412,3.186,2.412,2.268,0,3.978-1.224,3.978-2.826,0-2.754-5.292-1.62-5.292-2.9,0-.2.09-.36.378-.594a5.283,5.283,0,0,0,1.1.108c2.106,0,3.4-1.134,3.4-2.9A2.685,2.685,0,0,0,17.892-7l.036-.072a10.235,10.235,0,0,0,1.548-.342ZM14.9-3.888a1.5,1.5,0,0,1-1.656-1.674,1.521,1.521,0,0,1,1.728-1.656,1.447,1.447,0,0,1,1.638,1.6A1.56,1.56,0,0,1,14.9-3.888Zm2.16,4.9c0,.774-.918,1.3-2.178,1.3-1.224,0-1.836-.486-1.836-1.116,0-.5.414-.936,1.152-1.4C15.606,0,17.064.054,17.064,1.008ZM23.9-8.46c-2.484,0-3.87,1.6-3.87,4.446,0,2.664,1.314,4.176,3.636,4.176,2.484,0,3.87-1.6,3.87-4.446C27.54-6.948,26.226-8.46,23.9-8.46ZM23.8-7.182c1.35,0,2.034,1.044,2.034,3.312,0,1.89-.684,2.772-2.034,2.772-1.368,0-2.052-1.026-2.052-3.312C21.744-6.264,22.428-7.182,23.8-7.182Z" transform="translate(230.676 11602.744)" fill="#2f2e33"/>
    <path id="Caminho_773682" data-name="Caminho 773682" d="M4.932-11.682c-2.358,0-3.96,1.476-3.96,3.366,0,3.384,5.184,3.078,5.184,5.328A1.831,1.831,0,0,1,4.1-1.314a4.53,4.53,0,0,1-2.952-1.26l-.234.108L.684-.63a7.571,7.571,0,0,0,3.24.774c2.448,0,4.068-1.548,4.068-3.42,0-3.366-5.2-3.168-5.2-5.292a1.748,1.748,0,0,1,1.926-1.62,4.173,4.173,0,0,1,2.358.882l.288-.108.306-1.692A7.1,7.1,0,0,0,4.932-11.682Zm10.71,7.614.306-.288a7.013,7.013,0,0,0,.072-.9A2.847,2.847,0,0,0,13-8.442C10.584-8.442,9.018-6.8,9.018-4.1c0,2.628,1.44,4.266,3.924,4.266a5.842,5.842,0,0,0,2.52-.612l.216-1.458-.162-.108a4.941,4.941,0,0,1-2.43.756c-1.584,0-2.34-1.026-2.376-2.808Zm-1.3-1.206-3.546.09a2.11,2.11,0,0,1,2.088-2c.9,0,1.494.522,1.494,1.692Zm6.5,3.888c-.738,0-1.062-.288-1.044-1.188l.09-4.518h2.322l.09-1.044-.072-.126h-2.3l.036-1.782-.162-.144-1.62.612v1.314h-1.1L16.992-7.2l.072.108H18.2l.018,3.51-.072,1.3A2.148,2.148,0,0,0,20.268.108,5.2,5.2,0,0,0,22.1-.432l.18-1.152L22.1-1.71A2.838,2.838,0,0,1,20.844-1.386Z" transform="translate(286.407 11602.744)" fill="#2f2e33"/>
    <path id="Caminho_770843" data-name="Caminho 770843" d="M17142.119,9877.179s-65.91,89.2-77.129,96.225c-.4,0-8.1,6.334-15.02,5.464" transform="translate(-16707.688 1448.336)" fill="none" stroke="#0041d9" stroke-linecap="round" stroke-width="3"/>
    <path id="Caminho_770844" data-name="Caminho 770844" d="M17051.545,9969.248s28.855,23.63,44.5,21.288c.221.213,15.859-.639,39.428-38.745.223.426,15.861-23.2,15.861-23.2" transform="translate(-16717.158 1436.926)" fill="none" stroke="#0024a9" stroke-linecap="round" stroke-width="3"/>
    <path id="Caminho_773681" data-name="Caminho 773681" d="M5.922-11.7c-3.4,0-5.31,2.16-5.31,6.03C.612-1.962,2.394.162,5.58.162c3.384,0,5.31-2.232,5.31-6.174C10.89-9.648,9.108-11.7,5.922-11.7ZM5.76-10.17c2.178,0,3.2,1.368,3.2,4.5,0,2.988-1.062,4.338-3.24,4.338s-3.2-1.4-3.2-4.572C2.52-8.838,3.564-10.17,5.76-10.17ZM19.368-8.334l-1.746.162v5.85A2.951,2.951,0,0,1,15.66-1.4c-.846,0-1.26-.54-1.242-1.422l.09-5.508-1.818.162.072,3.6-.036,2.25C12.708-.774,13.68.108,15.5.108a5.411,5.411,0,0,0,2.16-1.26H17.8A1.441,1.441,0,0,0,19.134.126a2.832,2.832,0,0,0,1.134-.4l.18-1.008L20.286-1.4a2.6,2.6,0,0,1-.558.072c-.36,0-.486-.144-.486-.594Zm5.616,6.948c-.738,0-1.062-.288-1.044-1.188l.09-4.518h2.322l.09-1.044-.072-.126h-2.3l.036-1.782-.162-.144-1.62.612v1.314h-1.1L21.132-7.2l.072.108h1.134l.018,3.51-.072,1.3A2.148,2.148,0,0,0,24.408.108a5.2,5.2,0,0,0,1.836-.54l.18-1.152-.18-.126A2.838,2.838,0,0,1,24.984-1.386Z" transform="translate(334.915 11602.744)" fill="#2f2e33"/>
    <path id="Caminho_770847" data-name="Caminho 770847" d="M16472.316,9881.17H16507" transform="translate(-16607.453 1356.396)" fill="none" stroke="#3b4aff" stroke-linecap="round" stroke-width="4"/>
    <path id="Caminho_773677" data-name="Caminho 773677" d="M4.338-9.2A3.347,3.347,0,0,0,.7-5.742,2.812,2.812,0,0,0,3.618-2.664,3.719,3.719,0,0,0,5.742-3.33l.126.144C5.292-1.476,3.8-.306,1.062.666v.18l1.368.828h.108C5.886.288,7.812-2.2,7.812-5.22,7.812-7.7,6.642-9.2,4.338-9.2Zm-.2,5.22c-1.152,0-1.8-.72-1.8-2.016A1.749,1.749,0,0,1,4.212-7.956c1.386,0,1.944.936,1.944,2.772l-.018.432A3.279,3.279,0,0,1,4.14-3.978ZM12.888-9.2A3.347,3.347,0,0,0,9.252-5.742a2.812,2.812,0,0,0,2.916,3.078,3.719,3.719,0,0,0,2.124-.666l.126.144c-.576,1.71-2.07,2.88-4.806,3.852v.18l1.368.828h.108C14.436.288,16.362-2.2,16.362-5.22,16.362-7.7,15.192-9.2,12.888-9.2Zm-.2,5.22c-1.152,0-1.8-.72-1.8-2.016a1.749,1.749,0,0,1,1.872-1.962c1.386,0,1.944.936,1.944,2.772l-.018.432A3.279,3.279,0,0,1,12.69-3.978Zm9.27-5.166c-2.592,0-4.086,1.746-4.086,4.788,0,2.862,1.4,4.5,3.852,4.5,2.592,0,4.05-1.728,4.05-4.752C25.776-7.506,24.39-9.144,21.96-9.144Zm-.144,1.692c1.656,0,2.538,1.008,2.538,3.06,0,1.944-.864,2.916-2.52,2.916-1.692,0-2.52-1.008-2.52-3.006S20.142-7.452,21.816-7.452Z" transform="translate(445.314 11364.515)" fill="#0024a9"/>
    <path id="Caminho_773676" data-name="Caminho 773676" d="M4.32-8.91l-.27-.2L.18-7.974v1.458l.162.108,2.2-.612.018,3.492L2.448,0H4.3l-.09-3.726Zm6.858-.234c-2.592,0-4.086,1.746-4.086,4.788,0,2.862,1.4,4.5,3.852,4.5,2.592,0,4.05-1.728,4.05-4.752C14.994-7.506,13.608-9.144,11.178-9.144Zm-.144,1.692c1.656,0,2.538,1.008,2.538,3.06,0,1.944-.864,2.916-2.52,2.916-1.692,0-2.52-1.008-2.52-3.006S9.36-7.452,11.034-7.452Zm9.594-1.692c-2.592,0-4.086,1.746-4.086,4.788,0,2.862,1.4,4.5,3.852,4.5,2.592,0,4.05-1.728,4.05-4.752C24.444-7.506,23.058-9.144,20.628-9.144Zm-.144,1.692c1.656,0,2.538,1.008,2.538,3.06,0,1.944-.864,2.916-2.52,2.916-1.692,0-2.52-1.008-2.52-3.006S18.81-7.452,20.484-7.452Zm9.594-1.692c-2.592,0-4.086,1.746-4.086,4.788,0,2.862,1.4,4.5,3.852,4.5,2.592,0,4.05-1.728,4.05-4.752C33.894-7.506,32.508-9.144,30.078-9.144Zm-.144,1.692c1.656,0,2.538,1.008,2.538,3.06,0,1.944-.864,2.916-2.52,2.916-1.692,0-2.52-1.008-2.52-3.006S28.26-7.452,29.934-7.452Z" transform="translate(445.314 11320.515)" fill="#0041d9"/>
    <path id="Caminho_773678" data-name="Caminho 773678" d="M8.19-1.188l.09-1.3-.108-.162H6.552l.054-6.372H4.914L.432-2.538V-1.35l.126.162,1.35-.036H5.076L5.022,1.62l.108.126,1.4-.108.108-.144L6.57-1.224ZM2.034-2.646,4.95-6.876h.144v4.23ZM13.32-10.674c-1.944,0-3.294,1.062-3.294,2.844a2.678,2.678,0,0,0,1.638,2.484v.09A2.983,2.983,0,0,0,9.63-2.574C9.63-.99,10.818.144,12.924.144c2.2,0,3.654-1.17,3.654-3.042A2.821,2.821,0,0,0,14.6-5.49v-.09a2.937,2.937,0,0,0,1.656-2.538C16.254-9.7,15.156-10.674,13.32-10.674Zm-.09,1.3a1.4,1.4,0,0,1,1.584,1.44c0,1.008-.72,1.494-1.53,1.872-.918-.36-1.746-.792-1.746-1.818C11.538-8.8,12.168-9.378,13.23-9.378Zm-.27,4.662c1.062.432,2.088.828,2.088,1.944,0,.936-.72,1.638-1.962,1.638-1.188,0-1.908-.666-1.908-1.656C11.178-3.906,12.024-4.374,12.96-4.716ZM24.444-8.982l-.108-.126-1.764.09h-2.5l-.99-.054-.252.252-.09,4.86.144.162,1.6.306c1.512.27,2.106.828,2.106,1.782C22.59-.5,21.654.324,20.16.324a4.99,4.99,0,0,1-2.052-.45l-.144.144.126,1.548a10.218,10.218,0,0,0,1.818.2c2.592,0,4.41-1.53,4.41-3.762,0-1.422-.756-2.376-3.024-2.844l-1.116-.234.054-2.466h2.412l1.476.126.126-.126Z" transform="translate(445.314 11469.564)" fill="#3b4aff"/>
    <path id="Caminho_773690" data-name="Caminho 773690" d="M4.122-3.816l.108-7.74H.216L.108-10.242.27-10.1l2.106-.018.072,6.48v1.494c0,1.3-.63,1.98-2.2,2.79v.2L.9,1.872C3.312.81,4.158-.27,4.158-2.142ZM9.7-8.46a5.768,5.768,0,0,0-3.24,1.08L6.7-6.1l.144.09A4.1,4.1,0,0,1,9.414-7.164a1.185,1.185,0,0,1,1.3,1.35l-.018.972-2.844.63a1.918,1.918,0,0,0-1.746,2c0,1.44.99,2.34,2.664,2.358a5.271,5.271,0,0,0,1.872-1.35h.126A1.4,1.4,0,0,0,12.078.126a2.933,2.933,0,0,0,1.134-.4l.18-1.008L13.23-1.4a2.753,2.753,0,0,1-.54.072c-.378,0-.522-.144-.522-.612,0-.612.216-3.636.216-4.266C12.384-7.632,11.34-8.46,9.7-8.46Zm.99,4.68-.054,1.386a2.542,2.542,0,0,1-1.8,1.1,1.037,1.037,0,0,1-1.1-1.152.664.664,0,0,1,.612-.774ZM20.232,0h1.854L22-3.636l.054-2.34c.018-1.548-.936-2.43-2.79-2.43a6.121,6.121,0,0,0-2.214,1.278H16.92l.018-1.206-1.746.162.09,4.7L15.174,0H17.01L16.9-3.636l.018-2.2a3.229,3.229,0,0,1,2.16-1.08c.864,0,1.3.558,1.278,1.458Z" transform="translate(-128.612 11602.744)" fill="#2f2e33"/>
    <path id="Caminho_773680" data-name="Caminho 773680" d="M10.115-3.264l.119-7.684-1.649.119.051,8.092H8.5L3.366-10.914H1.5L1.581-3.23,1.462,0H3.111L3.026-3.655l.017-4.522h.136L8.3,0h1.887ZM15.9-7.99c-2.346,0-3.655,1.513-3.655,4.2,0,2.516,1.241,3.944,3.434,3.944,2.346,0,3.655-1.513,3.655-4.2C19.329-6.562,18.088-7.99,15.9-7.99Zm-.1,1.207c1.275,0,1.921.986,1.921,3.128,0,1.785-.646,2.618-1.921,2.618-1.292,0-1.938-.969-1.938-3.128C13.855-5.916,14.5-6.783,15.793-6.783Zm6.052.051-.221-1.156-1.6.085L22.355,0h1.87L27-7.837h-1.53l-.289,1.19L23.443-1.666h-.119Z" transform="translate(388.583 11601.744)" fill="#2f2e33"/>
    <path id="Caminho_773679" data-name="Caminho 773679" d="M1.566-11.556H1.548l.126,8.082L1.548,0h.018c1.062.054,3.1.108,3.87.108,3.636,0,5.652-2.232,5.652-6.3,0-3.51-1.836-5.436-5.148-5.436ZM5.76-1.368c-.378,0-1.548-.054-2.358-.126L3.348-3.636l.09-6.408c.684-.036,1.98-.072,2.358-.072,2.25,0,3.366,1.35,3.366,4.338C9.162-2.772,7.92-1.368,5.76-1.368Zm13.176-2.7.306-.288a7.013,7.013,0,0,0,.072-.9A2.847,2.847,0,0,0,16.29-8.442c-2.412,0-3.978,1.638-3.978,4.338,0,2.628,1.44,4.266,3.924,4.266a5.842,5.842,0,0,0,2.52-.612l.216-1.458-.162-.108a4.941,4.941,0,0,1-2.43.756C14.8-1.26,14.04-2.286,14-4.068Zm-1.3-1.206-3.546.09a2.11,2.11,0,0,1,2.088-2c.9,0,1.494.522,1.494,1.692Zm4.7-3.024L20.7-8.334l-.126,1.26.108.144,1.386-.144h2.808l-4.41,6.03.018,1.08L21.456,0h3.456l1.854.036.144-1.26L26.8-1.368l-1.44.144H22.41L26.8-7.218l-.036-1.1-.792.018Z" transform="translate(444.314 11602.744)" fill="#2f2e33"/>
    <path id="Caminho_773688" data-name="Caminho 773688" d="M12.529,0,11.492-10.914H9.5l-.51,1.581L6.783-3.485H6.647l-2.091-5.8-.51-1.632H2.04L.9,0H2.38l.272-3.468.51-4.777h.153l2.6,7.038H7.31l2.805-7.038h.119l.51,4.93L10.965,0Zm4.794-7.99a5.448,5.448,0,0,0-3.06,1.02l.221,1.207.136.085a3.872,3.872,0,0,1,2.431-1.088,1.119,1.119,0,0,1,1.224,1.275l-.017.918-2.686.6a1.811,1.811,0,0,0-1.649,1.887c0,1.36.935,2.21,2.516,2.227a4.978,4.978,0,0,0,1.768-1.275h.119A1.324,1.324,0,0,0,19.567.119a2.77,2.77,0,0,0,1.071-.374l.17-.952-.153-.119a2.6,2.6,0,0,1-.51.068c-.357,0-.493-.136-.493-.578,0-.578.2-3.434.2-4.029C19.856-7.208,18.87-7.99,17.323-7.99Zm.935,4.42-.051,1.309a2.4,2.4,0,0,1-1.7,1.037A.979.979,0,0,1,15.47-2.312a.628.628,0,0,1,.578-.731ZM26.4-7.854a2.507,2.507,0,0,0-2.142,1.547H24.14l.017-1.564-1.649.153.1,4.437L22.491,0h1.734l-.119-3.434.017-1.122C24.718-5.729,25.313-6.2,26.01-6.2a2.379,2.379,0,0,1,.629.085l.187-.051V-7.82A3.312,3.312,0,0,0,26.4-7.854Z" transform="translate(-27.342 11601.744)" fill="#2f2e33"/>
    <path id="Caminho_773689" data-name="Caminho 773689" d="M3.438-10.026l1.854-.018,2.7.108.144-1.458-.126-.162H1.548l.126,8.082L1.548,0h1.89l-.09-3.636.018-1.242L5.04-4.9l2.052.054.144-1.4L7.11-6.408,5.2-6.354,3.384-6.39Zm11.25,5.958.306-.288a7.013,7.013,0,0,0,.072-.9,2.847,2.847,0,0,0-3.024-3.186C9.63-8.442,8.064-6.8,8.064-4.1,8.064-1.476,9.5.162,11.988.162a5.842,5.842,0,0,0,2.52-.612l.216-1.458-.162-.108a4.941,4.941,0,0,1-2.43.756c-1.584,0-2.34-1.026-2.376-2.808Zm-1.3-1.206-3.546.09a2.11,2.11,0,0,1,2.088-2c.9,0,1.494.522,1.494,1.692Zm4.482-1.854L17.64-8.352l-1.692.09L18.414,0h1.98l2.934-8.3h-1.62L21.4-7.038,19.566-1.764H19.44Z" transform="translate(-76.881 11602.744)" fill="#2f2e33"/>
    <path id="Caminho_773653" data-name="Caminho 773653" d="M16466.678,10103.618l87.211-37.668,17.627-8.025s15.2-4.323,35.857,4.938c1.826,1.853,21.854,9.307,48.016-4.938,2.434-.617,26.135-9.88,47.41,20.992,2.152,2.595,35.252,30.257,48.623,37.05,0-.617,20.662,12.967,34.035-8.645.369-.592,27.6-39.545,30.391-44.459.658-.666,7.9-16.055,33.43-4.938,2.051.893,26.135,14.818,51.051,15.436,3.453.086,27.354,5.559,57.135,16.056,1.469.518,14.986,4.013,35.859-12.968-2.947,2.148,26.135-18.523,26.135-18.523" transform="translate(-16583.789 1409.418)" fill="none" stroke="#3b4aff" stroke-linecap="round" stroke-width="3"/>
  </g>
</svg>
