<svg xmlns="http://www.w3.org/2000/svg" width="624.512" height="399.466" viewBox="0 0 624.512 399.466">
  <g id="_img_Grafico_5-mob_" data-name="&lt;img Grafico_5-mob&gt;" transform="translate(132.256 -5481.818)">
    <path id="Caminho_773211" data-name="Caminho 773211" d="M4.818,0V-9.482L11.9,0h2.6V-15.4H11.374v9.46L4.29-15.4H1.716V0ZM24.882-17.182l-5.148,3.344,1.144,1.848L26.356-14.7Zm3.234,6.4h-3.1c0,3.5-.11,8.448-2.75,8.448-1.364,0-1.628-1.43-1.628-2.354V-10.78h-3.08v7.106a3.685,3.685,0,0,0,3.916,4,4,4,0,0,0,3.784-2.794L25.014,0h3.1Zm16.764-.33A3.957,3.957,0,0,0,41.162-8.4,3.2,3.2,0,0,0,37.84-11.11c-1.914,0-3.1,1.188-3.828,2.948l.264-2.618H31.2V0h3.08c0-3.476.154-8.448,2.6-8.448,1.21,0,1.342,1.32,1.342,2.354V0h3.1c0-3.454.132-8.448,2.574-8.448,1.232,0,1.364,1.32,1.364,2.354V0h3.08V-6.952C48.334-9.57,47.08-11.11,44.88-11.11Zm11.682,9a2.844,2.844,0,0,1-2.926-2.112l6.6-.77a5.685,5.685,0,0,0,.286-1.8c0-2.728-1.98-4.312-4.62-4.312-3.124,0-5.39,2.2-5.39,5.676A5.445,5.445,0,0,0,56.342.33,6.636,6.636,0,0,0,60.258-.88l-1.144-2A4.938,4.938,0,0,1,56.562-2.112Zm-.484-6.622c.968,0,1.672.506,1.672,1.452a1.7,1.7,0,0,1-.066.55l-4.18.506A2.638,2.638,0,0,1,56.078-8.734ZM69.85-11.11c-2.376,0-3.564,1.76-4.18,4.114l.374-3.784h-3.08V0h3.08c0-3.564.22-7.92,3.146-7.92a3.491,3.491,0,0,1,1.1.2l.814-3.212A4.544,4.544,0,0,0,69.85-11.11ZM77.66.33a5.441,5.441,0,0,0,5.632-5.72,5.429,5.429,0,0,0-5.632-5.72,5.434,5.434,0,0,0-5.654,5.72A5.446,5.446,0,0,0,77.66.33Zm0-2.508c-1.628,0-2.464-1.5-2.464-3.212S76.032-8.6,77.66-8.6c1.606,0,2.442,1.5,2.442,3.212S79.266-2.178,77.66-2.178Zm21.12-8.8a8.474,8.474,0,0,0-1.518-.132c-4.356,0-6.226,3.168-6.226,6.424,0,2.948,1.518,5.016,4.026,5.016,2.024,0,3.278-1.452,4.048-3.41L98.78,0h3.1V-15.928h-3.1ZM96.008-2.156c-.99,0-1.76-.638-1.76-2.64,0-1.518.528-3.96,2.97-3.96a3.61,3.61,0,0,1,1.54.374C98.582-5.5,97.944-2.156,96.008-2.156Zm14.19.044a2.844,2.844,0,0,1-2.926-2.112l6.6-.77a5.685,5.685,0,0,0,.286-1.8c0-2.728-1.98-4.312-4.62-4.312-3.124,0-5.39,2.2-5.39,5.676A5.445,5.445,0,0,0,109.978.33a6.636,6.636,0,0,0,3.916-1.21l-1.144-2A4.938,4.938,0,0,1,110.2-2.112Zm-.484-6.622c.968,0,1.672.506,1.672,1.452a1.7,1.7,0,0,1-.066.55l-4.18.506A2.638,2.638,0,0,1,109.714-8.734Zm18.9-1.518a10.432,10.432,0,0,1,1.078,4.378c0,1.8-.682,3.63-2.486,3.63-1.166,0-1.76-.748-1.76-2.178V-10.78h-3.08v6.688c0,2.6,1.87,4.4,4.818,4.4,3.784,0,5.654-2.926,5.654-6.182a14.106,14.106,0,0,0-1.21-5.214Zm12.166,8.14a2.844,2.844,0,0,1-2.926-2.112l6.6-.77a5.685,5.685,0,0,0,.286-1.8c0-2.728-1.98-4.312-4.62-4.312-3.124,0-5.39,2.2-5.39,5.676A5.445,5.445,0,0,0,140.558.33a6.636,6.636,0,0,0,3.916-1.21l-1.144-2A4.938,4.938,0,0,1,140.778-2.112Zm-.484-6.622c.968,0,1.672.506,1.672,1.452a1.7,1.7,0,0,1-.066.55l-4.18.506A2.638,2.638,0,0,1,140.294-8.734Zm13.794-2.376c-2.09,0-3.344,1.276-4.092,3.146l.264-2.816h-3.08V0h3.08c0-3.5.2-8.448,2.882-8.448,1.364,0,1.5,1.452,1.5,2.354V0h3.1V-6.952C157.74-9.548,156.4-11.11,154.088-11.11Zm13.772.132a8.474,8.474,0,0,0-1.518-.132c-4.356,0-6.226,3.168-6.226,6.424,0,2.948,1.518,5.016,4.026,5.016,2.024,0,3.278-1.452,4.048-3.41L167.86,0h3.1V-15.928h-3.1Zm-2.772,8.822c-.99,0-1.76-.638-1.76-2.64,0-1.518.528-3.96,2.97-3.96a3.61,3.61,0,0,1,1.54.374C167.662-5.5,167.024-2.156,165.088-2.156Zm14.564-8.954c-4.356,0-6.226,3.168-6.226,6.424,0,2.948,1.518,5.016,4.026,5.016,2.024,0,3.278-1.43,4.048-3.388L181.17,0h3.1V-9.7A8.088,8.088,0,0,0,179.652-11.11ZM178.4-2.156c-.99,0-1.76-.638-1.76-2.64,0-1.518.528-3.96,2.97-3.96a3.61,3.61,0,0,1,1.54.374C180.972-5.5,180.334-2.156,178.4-2.156ZM191,.33c2.662,0,4.6-1.144,4.6-3.63,0-3.828-5.566-2.706-5.566-4.4,0-.7.88-.9,1.694-.9a5.752,5.752,0,0,1,2.684.66L195.47-10.1a8.551,8.551,0,0,0-4.048-1.012c-2.222,0-4.488.924-4.488,3.388,0,4.026,5.588,2.86,5.588,4.642,0,.594-.594.924-1.672.924a6.735,6.735,0,0,1-3.344-.946L186.384-.858A9.414,9.414,0,0,0,191,.33Zm19.734-11.44c-2.046,0-3.322,1.474-4.07,3.454L207-10.78h-3.08V4.708H207V.2a8.724,8.724,0,0,0,1.54.132c4.356,0,6.226-3.168,6.226-6.424C214.764-9.042,213.246-11.11,210.738-11.11Zm-2.156,9.086A3.631,3.631,0,0,1,207.02-2.4c.176-2.882.814-6.248,2.772-6.248.968,0,1.76.66,1.76,2.64C211.552-4.466,211-2.024,208.582-2.024ZM222.244.33a5.441,5.441,0,0,0,5.632-5.72,5.429,5.429,0,0,0-5.632-5.72,5.434,5.434,0,0,0-5.654,5.72A5.446,5.446,0,0,0,222.244.33Zm0-2.508c-1.628,0-2.464-1.5-2.464-3.212s.836-3.212,2.464-3.212c1.606,0,2.442,1.5,2.442,3.212S223.85-2.178,222.244-2.178Zm14.85-8.932c-2.376,0-3.564,1.76-4.18,4.114l.374-3.784h-3.08V0h3.08c0-3.564.22-7.92,3.146-7.92a3.491,3.491,0,0,1,1.1.2l.814-3.212A4.544,4.544,0,0,0,237.094-11.11Zm22.748,0A3.957,3.957,0,0,0,256.124-8.4,3.2,3.2,0,0,0,252.8-11.11c-1.914,0-3.1,1.188-3.828,2.948l.264-2.618h-3.08V0h3.08c0-3.476.154-8.448,2.6-8.448,1.21,0,1.342,1.32,1.342,2.354V0h3.1c0-3.454.132-8.448,2.574-8.448,1.232,0,1.364,1.32,1.364,2.354V0h3.08V-6.952C263.3-9.57,262.042-11.11,259.842-11.11Zm13.86-1.034,1.166-1.782-3.938-2.838-3.96,2.838,1.166,1.782,2.794-1.716ZM271.524-2.112A2.844,2.844,0,0,1,268.6-4.224l6.6-.77a5.684,5.684,0,0,0,.286-1.8c0-2.728-1.98-4.312-4.62-4.312-3.124,0-5.39,2.2-5.39,5.676A5.445,5.445,0,0,0,271.3.33,6.636,6.636,0,0,0,275.22-.88l-1.144-2A4.938,4.938,0,0,1,271.524-2.112Zm-.484-6.622c.968,0,1.672.506,1.672,1.452a1.7,1.7,0,0,1-.066.55l-4.18.506A2.638,2.638,0,0,1,271.04-8.734ZM281.578.33c2.662,0,4.6-1.144,4.6-3.63,0-3.828-5.566-2.706-5.566-4.4,0-.7.88-.9,1.694-.9a5.752,5.752,0,0,1,2.684.66l1.056-2.156A8.551,8.551,0,0,0,282-11.11c-2.222,0-4.488.924-4.488,3.388,0,4.026,5.588,2.86,5.588,4.642,0,.594-.594.924-1.672.924A6.735,6.735,0,0,1,278.08-3.1L276.958-.858A9.414,9.414,0,0,0,281.578.33Z" transform="translate(-133.972 5499)"/>
    <path id="Caminho_773212" data-name="Caminho 773212" d="M8.388,14.416l-2.79.09-2.2-.018-.054-2.124.018-1.494,1.962-.036,2.034.054.144-1.422L7.38,9.322l-1.908.054L3.384,9.34l.054-3.366,2.2-.018,2.736.072.144-1.422-.108-.162H1.548l.126,8.082L1.548,16H8.37L8.5,14.578ZM20.106,16H21.96l-.09-3.636.054-2.34c.018-1.548-.936-2.43-2.79-2.43a6.528,6.528,0,0,0-2.376,1.35H16.65a2.527,2.527,0,0,0-2.592-1.35,5.977,5.977,0,0,0-2.214,1.278h-.126l.018-1.206L9.99,7.828l.09,4.7L9.972,16H11.79l-.09-3.636.018-2.2a3.229,3.229,0,0,1,2.16-1.08c.864,0,1.3.558,1.278,1.458L15.03,16h1.836l-.072-3.636.036-2.232a3.174,3.174,0,0,1,2.124-1.044c.864,0,1.3.558,1.278,1.458Zm16.362,0L32.922,4.408h-2.9L26.1,16h2.412l.306-1.638.306-.954,2-.054,2.268.054.306,1.08L33.984,16Zm-3.6-4.482-1.566.036-1.548-.036,1.584-4.824H31.5ZM45.9,7.27l-.18-.162a16.4,16.4,0,0,1-2.646.72A4.675,4.675,0,0,0,41.31,7.5c-2.214,0-3.618,1.116-3.618,2.988a2.5,2.5,0,0,0,1.314,2.322v.09A5.99,5.99,0,0,0,37.782,14a1.648,1.648,0,0,0,1.3,1.638v.09a4.885,4.885,0,0,0-1.494,1.35c0,1.422,1.17,2.43,3.4,2.43,2.412,0,4.122-1.242,4.122-2.952,0-2.934-5.31-1.71-5.31-2.916,0-.162.072-.27.27-.468a6.266,6.266,0,0,0,1.044.09c2.25,0,3.636-1.152,3.636-2.952a2.641,2.641,0,0,0-.27-1.206l.036-.072a12.549,12.549,0,0,0,1.386-.27Zm-4.716,4.554a1.285,1.285,0,0,1-1.422-1.458c0-.918.5-1.386,1.512-1.386.954,0,1.4.45,1.4,1.368A1.327,1.327,0,0,1,41.184,11.824Zm1.908,5.166c0,.72-.774,1.116-1.872,1.116-1.134,0-1.692-.432-1.692-1.044,0-.414.306-.756.864-1.134C41.724,16.126,43.092,16.144,43.092,16.99Zm7.146-9.522c-2.628,0-4.05,1.6-4.05,4.518,0,2.7,1.332,4.194,3.78,4.194,2.628,0,4.05-1.6,4.05-4.518C54.018,8.944,52.686,7.468,50.238,7.468Zm-.162,1.62c1.17,0,1.692.864,1.692,3.06,0,1.746-.5,2.43-1.638,2.43-1.188,0-1.692-.828-1.692-3.06C48.438,9.808,48.924,9.088,50.076,9.088Zm8.388-1.6c-2.07,0-3.276,1.152-3.276,2.664,0,2.664,3.726,2.34,3.726,3.672,0,.432-.36.828-1.026.828a4.29,4.29,0,0,1-2.448-1.026l-.234.144-.27,1.872a7.569,7.569,0,0,0,2.682.54c2.3,0,3.348-1.35,3.348-2.736,0-2.61-3.708-2.286-3.708-3.618a.829.829,0,0,1,.936-.774,3.884,3.884,0,0,1,1.962.7l.288-.09L60.768,7.9A6.537,6.537,0,0,0,58.464,7.486Zm7.488,6.75c-.648,0-.936-.27-.936-1.062l.108-4.032h2.142l.108-1.314L67.3,7.7H65.16l.054-1.944-.162-.144-2.178.7V7.7H61.812l-.126,1.314.09.126h1.116l.018,3.1-.09,1.494q0,2.133,2.43,2.376a5.383,5.383,0,0,0,1.872-.576l.234-1.422-.2-.18A2.772,2.772,0,0,1,65.952,14.236Zm5.994-6.768c-2.628,0-4.05,1.6-4.05,4.518,0,2.7,1.332,4.194,3.78,4.194,2.628,0,4.05-1.6,4.05-4.518C75.726,8.944,74.394,7.468,71.946,7.468Zm-.162,1.62c1.17,0,1.692.864,1.692,3.06,0,1.746-.5,2.43-1.638,2.43-1.188,0-1.692-.828-1.692-3.06C70.146,9.808,70.632,9.088,71.784,9.088Zm6.768,5.346a3.136,3.136,0,0,0-.99.468v.144a1.037,1.037,0,0,1,.558.846,2.123,2.123,0,0,1-.99,1.584V17.6l.486.45c1.134-.828,1.692-1.638,1.692-2.412A1.4,1.4,0,0,0,78.552,14.434ZM87.8,7.54c-2.484,0-3.87,1.6-3.87,4.446,0,2.664,1.314,4.176,3.636,4.176,2.484,0,3.87-1.6,3.87-4.446C91.44,9.052,90.126,7.54,87.8,7.54ZM87.7,8.818c1.35,0,2.034,1.044,2.034,3.312,0,1.89-.684,2.772-2.034,2.772-1.368,0-2.052-1.026-2.052-3.312C85.644,9.736,86.328,8.818,87.7,8.818ZM101.34,16h1.854l-.09-3.636.054-2.34c.018-1.548-.936-2.43-2.79-2.43a6.121,6.121,0,0,0-2.214,1.278h-.126l.018-1.206L96.3,7.828l.09,4.7L96.282,16h1.836l-.108-3.636.018-2.2a3.229,3.229,0,0,1,2.16-1.08c.864,0,1.3.558,1.278,1.458Zm9.414-12.726-.18-.018c-1.044.99-2.016,1.8-3.078,2.664l.468.72.18.018c1.08-.7,2.124-1.4,3.258-2.232l.036-.18Zm1.476,4.392-1.746.162v5.85a2.951,2.951,0,0,1-1.962.918c-.846,0-1.26-.54-1.242-1.422l.09-5.508-1.818.162.072,3.6-.036,2.25c-.018,1.548.954,2.43,2.772,2.43a5.411,5.411,0,0,0,2.16-1.26h.144A1.441,1.441,0,0,0,112,16.126a2.832,2.832,0,0,0,1.134-.4l.18-1.008-.162-.126a2.6,2.6,0,0,1-.558.072c-.36,0-.486-.144-.486-.594ZM125.046,16H126.9l-.09-3.636.054-2.34c.018-1.548-.936-2.43-2.79-2.43a6.528,6.528,0,0,0-2.376,1.35h-.108A2.527,2.527,0,0,0,119,7.594a5.977,5.977,0,0,0-2.214,1.278h-.126l.018-1.206-1.746.162.09,4.7L114.912,16h1.818l-.09-3.636.018-2.2a3.229,3.229,0,0,1,2.16-1.08c.864,0,1.3.558,1.278,1.458L119.97,16h1.836l-.072-3.636.036-2.232a3.174,3.174,0,0,1,2.124-1.044c.864,0,1.3.558,1.278,1.458Zm10.26-4.068.306-.288a7.011,7.011,0,0,0,.072-.9,2.847,2.847,0,0,0-3.024-3.186c-2.412,0-3.978,1.638-3.978,4.338,0,2.628,1.44,4.266,3.924,4.266a5.842,5.842,0,0,0,2.52-.612l.216-1.458-.162-.108a4.941,4.941,0,0,1-2.43.756c-1.584,0-2.34-1.026-2.376-2.808Zm-1.3-1.206-3.546.09a2.11,2.11,0,0,1,2.088-2c.9,0,1.494.522,1.494,1.692Zm7.7-3.042a2.655,2.655,0,0,0-2.268,1.638h-.126l.018-1.656-1.746.162.108,4.7L137.574,16h1.836l-.126-3.636.018-1.188c.63-1.242,1.26-1.746,2-1.746a2.519,2.519,0,0,1,.666.09l.2-.054V7.72A3.506,3.506,0,0,0,141.714,7.684Zm4.95-.144c-2.484,0-3.87,1.6-3.87,4.446,0,2.664,1.314,4.176,3.636,4.176,2.484,0,3.87-1.6,3.87-4.446C150.3,9.052,148.986,7.54,146.664,7.54Zm-.108,1.278c1.35,0,2.034,1.044,2.034,3.312,0,1.89-.684,2.772-2.034,2.772-1.368,0-2.052-1.026-2.052-3.312C144.5,9.736,145.188,8.818,146.556,8.818Zm15.084,3.528.144-8.982-1.836.144.036,4.194a7.586,7.586,0,0,0-1.4-.144c-2.538,0-4.086,1.548-4.086,4.32,0,2.664,1.314,4.23,3.726,4.23a7.351,7.351,0,0,0,1.872-1.242h.144a1.425,1.425,0,0,0,1.332,1.26,2.917,2.917,0,0,0,1.152-.4l.162-1.008-.162-.126a2.6,2.6,0,0,1-.558.072c-.342,0-.45-.144-.468-.594ZM158.4,8.818a3.717,3.717,0,0,1,1.6.414l.054,3.276-.036,1.17a2.3,2.3,0,0,1-1.764.936c-1.26,0-2.016-1.026-2.034-2.952C156.186,9.736,157.05,8.818,158.4,8.818Zm12.114,3.114.306-.288a7.011,7.011,0,0,0,.072-.9,2.847,2.847,0,0,0-3.024-3.186c-2.412,0-3.978,1.638-3.978,4.338,0,2.628,1.44,4.266,3.924,4.266a5.842,5.842,0,0,0,2.52-.612l.216-1.458-.162-.108a4.941,4.941,0,0,1-2.43.756c-1.584,0-2.34-1.026-2.376-2.808Zm-1.3-1.206-3.546.09a2.11,2.11,0,0,1,2.088-2c.9,0,1.494.522,1.494,1.692Zm7.416-1.854L176.4,7.648l-1.692.09L177.174,16h1.98l2.934-8.3h-1.62l-.306,1.26-1.836,5.274H178.2Zm12.564,3.06.306-.288a7.011,7.011,0,0,0,.072-.9,2.847,2.847,0,0,0-3.024-3.186c-2.412,0-3.978,1.638-3.978,4.338,0,2.628,1.44,4.266,3.924,4.266a5.842,5.842,0,0,0,2.52-.612l.216-1.458-.162-.108a4.941,4.941,0,0,1-2.43.756c-1.584,0-2.34-1.026-2.376-2.808Zm-1.3-1.206-3.546.09a2.11,2.11,0,0,1,2.088-2c.9,0,1.494.522,1.494,1.692ZM196.524,16h1.854l-.09-3.636.054-2.34c.018-1.548-.936-2.43-2.79-2.43a6.121,6.121,0,0,0-2.214,1.278h-.126l.018-1.206-1.746.162.09,4.7L191.466,16H193.3l-.108-3.636.018-2.2a3.229,3.229,0,0,1,2.16-1.08c.864,0,1.3.558,1.278,1.458Zm10.8-3.654.144-8.982-1.836.144.036,4.194a7.586,7.586,0,0,0-1.4-.144c-2.538,0-4.086,1.548-4.086,4.32,0,2.664,1.314,4.23,3.726,4.23a7.351,7.351,0,0,0,1.872-1.242h.144a1.425,1.425,0,0,0,1.332,1.26,2.917,2.917,0,0,0,1.152-.4l.162-1.008L208.4,14.6a2.6,2.6,0,0,1-.558.072c-.342,0-.45-.144-.468-.594Zm-3.24-3.528a3.717,3.717,0,0,1,1.6.414l.054,3.276-.036,1.17a2.3,2.3,0,0,1-1.764.936c-1.26,0-2.016-1.026-2.034-2.952C201.87,9.736,202.734,8.818,204.084,8.818Zm9.09-1.278a5.768,5.768,0,0,0-3.24,1.08l.234,1.278.144.09a4.1,4.1,0,0,1,2.574-1.152,1.185,1.185,0,0,1,1.3,1.35l-.018.972-2.844.63a1.918,1.918,0,0,0-1.746,2c0,1.44.99,2.34,2.664,2.358a5.271,5.271,0,0,0,1.872-1.35h.126a1.4,1.4,0,0,0,1.314,1.332,2.933,2.933,0,0,0,1.134-.4l.18-1.008L216.7,14.6a2.753,2.753,0,0,1-.54.072c-.378,0-.522-.144-.522-.612,0-.612.216-3.636.216-4.266C215.856,8.368,214.812,7.54,213.174,7.54Zm.99,4.68-.054,1.386a2.542,2.542,0,0,1-1.8,1.1,1.037,1.037,0,0,1-1.1-1.152.664.664,0,0,1,.612-.774Zm6.984-4.662c-1.908,0-3.024,1.08-3.024,2.5,0,2.61,3.726,2.268,3.726,3.8a1.151,1.151,0,0,1-1.278,1.062,3.8,3.8,0,0,1-2.3-.972l-.2.126-.216,1.53a6.518,6.518,0,0,0,2.52.558c2.07,0,3.114-1.278,3.114-2.61,0-2.538-3.726-2.214-3.726-3.726a1.051,1.051,0,0,1,1.17-.99,3.357,3.357,0,0,1,1.836.63L223,9.412l.252-1.44A5.7,5.7,0,0,0,221.148,7.558Zm10.134-.018a5.768,5.768,0,0,0-3.24,1.08l.234,1.278.144.09a4.1,4.1,0,0,1,2.574-1.152,1.185,1.185,0,0,1,1.3,1.35l-.018.972-2.844.63a1.918,1.918,0,0,0-1.746,2c0,1.44.99,2.34,2.664,2.358a5.271,5.271,0,0,0,1.872-1.35h.126a1.4,1.4,0,0,0,1.314,1.332,2.933,2.933,0,0,0,1.134-.4l.18-1.008-.162-.126a2.753,2.753,0,0,1-.54.072c-.378,0-.522-.144-.522-.612,0-.612.216-3.636.216-4.266C233.964,8.368,232.92,7.54,231.282,7.54Zm.99,4.68-.054,1.386a2.542,2.542,0,0,1-1.8,1.1,1.037,1.037,0,0,1-1.1-1.152.664.664,0,0,1,.612-.774Zm6.282.126.144-8.982-1.836.144.108,9L236.844,16h1.836Zm5.958-4.806c-2.376,0-3.8,1.674-3.8,4.392,0,2.628,1.332,4.23,3.582,4.23a6.427,6.427,0,0,0,2.2-.414l.18-1.476-.162-.108a4.329,4.329,0,0,1-1.926.54c-1.368,0-2.142-1.08-2.142-2.916,0-1.746.756-2.736,2.034-2.736a3.568,3.568,0,0,1,1.764.558l.18-.072.306-1.53A5.4,5.4,0,0,0,244.512,7.54Zm6.552,0a5.768,5.768,0,0,0-3.24,1.08l.234,1.278.144.09a4.1,4.1,0,0,1,2.574-1.152,1.185,1.185,0,0,1,1.3,1.35l-.018.972-2.844.63a1.918,1.918,0,0,0-1.746,2c0,1.44.99,2.34,2.664,2.358A5.271,5.271,0,0,0,252,14.794h.126a1.4,1.4,0,0,0,1.314,1.332,2.933,2.933,0,0,0,1.134-.4l.18-1.008-.162-.126a2.753,2.753,0,0,1-.54.072c-.378,0-.522-.144-.522-.612,0-.612.216-3.636.216-4.266C253.746,8.368,252.7,7.54,251.064,7.54Zm.99,4.68L252,13.606a2.542,2.542,0,0,1-1.8,1.1,1.037,1.037,0,0,1-1.1-1.152.664.664,0,0,1,.612-.774Zm9.54,3.78h1.854l-.09-3.636.054-2.34c.018-1.548-.936-2.43-2.79-2.43a6.121,6.121,0,0,0-2.214,1.278h-.126l.018-1.206-1.746.162.09,4.7L256.536,16h1.836l-.108-3.636.018-2.2a3.229,3.229,0,0,1,2.16-1.08c.864,0,1.3.558,1.278,1.458Zm7.56-1.3c-1.368,0-2.142-1.08-2.142-2.916,0-1.746.756-2.736,2.034-2.736a3.512,3.512,0,0,1,1.764.558l.18-.072.306-1.53a5.4,5.4,0,0,0-2.214-.468c-2.376,0-3.8,1.674-3.8,4.392,0,2.358,1.062,3.888,2.916,4.176l-.306,1.206.882.522c.2.09.342.2.342.4,0,.288-.216.45-.522.45a1.416,1.416,0,0,1-1.026-.558l-.09.036-.162.846a2.035,2.035,0,0,0,1.386.54c.936,0,1.566-.522,1.566-1.26a1.1,1.1,0,0,0-.72-1.026l-.612-.36.216-.738a6.681,6.681,0,0,0,1.908-.414l.2-1.476-.18-.108A4.329,4.329,0,0,1,269.154,14.7Zm6.912-7.164c-2.484,0-3.87,1.6-3.87,4.446,0,2.664,1.314,4.176,3.636,4.176,2.484,0,3.87-1.6,3.87-4.446C279.7,9.052,278.388,7.54,276.066,7.54Zm-.108,1.278c1.35,0,2.034,1.044,2.034,3.312,0,1.89-.684,2.772-2.034,2.772-1.368,0-2.052-1.026-2.052-3.312C273.906,9.736,274.59,8.818,275.958,8.818Zm12.294-1.152-1.746.162v5.85a2.951,2.951,0,0,1-1.962.918c-.846,0-1.26-.54-1.242-1.422l.09-5.508-1.818.162.072,3.6-.036,2.25c-.018,1.548.954,2.43,2.772,2.43a5.411,5.411,0,0,0,2.16-1.26h.144a1.442,1.442,0,0,0,1.332,1.278,2.832,2.832,0,0,0,1.134-.4l.18-1.008-.162-.126a2.6,2.6,0,0,1-.558.072c-.36,0-.486-.144-.486-.594ZM3.78,33.558c-1.908,0-3.024,1.08-3.024,2.5,0,2.61,3.726,2.268,3.726,3.8A1.151,1.151,0,0,1,3.2,40.92a3.8,3.8,0,0,1-2.3-.972l-.2.126L.486,41.6a6.518,6.518,0,0,0,2.52.558c2.07,0,3.114-1.278,3.114-2.61,0-2.538-3.726-2.214-3.726-3.726a1.051,1.051,0,0,1,1.17-.99,3.357,3.357,0,0,1,1.836.63l.234-.054.252-1.44A5.7,5.7,0,0,0,3.78,33.558Zm10.854.108-1.746.162v5.85a2.951,2.951,0,0,1-1.962.918c-.846,0-1.26-.54-1.242-1.422l.09-5.508-1.818.162.072,3.6-.036,2.25c-.018,1.548.954,2.43,2.772,2.43a5.411,5.411,0,0,0,2.16-1.26h.144A1.441,1.441,0,0,0,14.4,42.126a2.832,2.832,0,0,0,1.134-.4l.18-1.008-.162-.126a2.6,2.6,0,0,1-.558.072c-.36,0-.486-.144-.486-.594Zm5.67-.126a5.768,5.768,0,0,0-3.24,1.08L17.3,35.9l.144.09a4.1,4.1,0,0,1,2.574-1.152,1.185,1.185,0,0,1,1.3,1.35l-.018.972-2.844.63a1.918,1.918,0,0,0-1.746,2c0,1.44.99,2.34,2.664,2.358a5.271,5.271,0,0,0,1.872-1.35h.126a1.4,1.4,0,0,0,1.314,1.332,2.933,2.933,0,0,0,1.134-.4l.18-1.008-.162-.126a2.753,2.753,0,0,1-.54.072c-.378,0-.522-.144-.522-.612,0-.612.216-3.636.216-4.266C22.986,34.368,21.942,33.54,20.3,33.54Zm.99,4.68-.054,1.386a2.542,2.542,0,0,1-1.8,1.1,1.037,1.037,0,0,1-1.1-1.152.664.664,0,0,1,.612-.774ZM38.484,42H40.86l-.09-3.672.054-2.394c.018-1.548-.936-2.412-2.772-2.412a6.336,6.336,0,0,0-2.34,1.35h-.09c-.36-.882-1.224-1.35-2.592-1.35a6.085,6.085,0,0,0-2.178,1.3h-.108V33.594l-2.268.2.108,4.752L28.458,42h2.376l-.108-3.69V36.2a2.812,2.812,0,0,1,1.728-.756c.774,0,1.152.468,1.152,1.332L33.462,42h2.376l-.09-3.672.036-2.142a2.757,2.757,0,0,1,1.71-.738c.756,0,1.134.468,1.116,1.332Zm9.324-13.014-.234-.018c-1.062.99-2.106,1.836-3.258,2.754l.576.9.234.018c1.152-.666,2.25-1.35,3.51-2.124l.036-.234Zm-1.566,4.482a6.5,6.5,0,0,0-3.42,1.008l.27,1.584.18.108a4.566,4.566,0,0,1,2.574-1.044A1.019,1.019,0,0,1,47,36.294v.738l-2.754.522A1.986,1.986,0,0,0,42.39,39.66c0,1.53,1.062,2.484,2.79,2.5a5.321,5.321,0,0,0,1.836-1.332h.126a1.51,1.51,0,0,0,1.386,1.314,3,3,0,0,0,1.332-.45l.2-1.26L49.9,40.29a1.963,1.963,0,0,1-.468.072c-.324,0-.432-.144-.432-.54,0-.576.2-3.384.2-4C49.194,34.332,48.078,33.468,46.242,33.468Zm.738,4.77-.036,1.332a2.123,2.123,0,0,1-1.476.828.89.89,0,0,1-.954-.99.655.655,0,0,1,.576-.756Zm6.7-3.672-.378-.99-2.556.126,2.448,4.1L50.76,42h2.106l.4-.846L54.5,39.12l1.188,1.926.414,1.062,2.52-.18-2.52-4.176,2.412-4.1H56.412l-.45.846-1.134,1.944Zm7.506-5.04a1.229,1.229,0,0,0-1.314,1.314,1.115,1.115,0,0,0,1.224,1.242A1.215,1.215,0,0,0,62.37,30.75,1.1,1.1,0,0,0,61.182,29.526Zm.972,8.784.144-4.716-2.394.2.108,4.752L59.886,42H62.28ZM74.484,42H76.86l-.09-3.672.054-2.394c.018-1.548-.936-2.412-2.772-2.412a6.336,6.336,0,0,0-2.34,1.35h-.09c-.36-.882-1.224-1.35-2.592-1.35a6.085,6.085,0,0,0-2.178,1.3h-.108V33.594l-2.268.2.108,4.752L64.458,42h2.376l-.108-3.69V36.2a2.812,2.812,0,0,1,1.728-.756c.774,0,1.152.468,1.152,1.332L69.462,42h2.376l-.09-3.672.036-2.142a2.757,2.757,0,0,1,1.71-.738c.756,0,1.134.468,1.116,1.332Zm7.758-8.532a6.454,6.454,0,0,0-3.42,1.008l.27,1.584.18.108a4.566,4.566,0,0,1,2.574-1.044A1.019,1.019,0,0,1,83,36.294v.738l-2.754.522A1.973,1.973,0,0,0,78.39,39.66c0,1.53,1.044,2.484,2.772,2.5a5.219,5.219,0,0,0,1.854-1.332h.126a1.51,1.51,0,0,0,1.386,1.314,2.846,2.846,0,0,0,1.314-.45l.216-1.26-.18-.144a1.846,1.846,0,0,1-.468.072c-.306,0-.414-.144-.414-.54,0-.576.2-3.384.2-4C85.194,34.332,84.078,33.468,82.242,33.468Zm.738,4.77-.036,1.332a2.123,2.123,0,0,1-1.476.828.89.89,0,0,1-.954-.99.654.654,0,0,1,.558-.756ZM95.4,42h2.412L97.7,38.328l.054-2.394c.036-1.548-.936-2.412-2.772-2.412a6.018,6.018,0,0,0-2.16,1.3h-.108l.09-5.454-2.394.18.108,8.982L90.4,42H92.79l-.126-3.69L92.7,36.2a2.729,2.729,0,0,1,1.71-.756c.756,0,1.152.486,1.134,1.332Zm5.76-12.474a1.229,1.229,0,0,0-1.314,1.314,1.115,1.115,0,0,0,1.224,1.242,1.215,1.215,0,0,0,1.278-1.332A1.1,1.1,0,0,0,101.16,29.526Zm.972,8.784.144-4.716-2.394.2.108,4.752L99.864,42h2.394Zm5.13-4.824c-2.07,0-3.276,1.152-3.276,2.664,0,2.664,3.726,2.34,3.726,3.672,0,.432-.36.828-1.026.828a4.29,4.29,0,0,1-2.448-1.026l-.234.144-.27,1.872a7.569,7.569,0,0,0,2.682.54c2.3,0,3.348-1.35,3.348-2.736,0-2.61-3.708-2.286-3.708-3.618a.829.829,0,0,1,.936-.774,3.884,3.884,0,0,1,1.962.7l.288-.09.324-1.764A6.537,6.537,0,0,0,107.262,33.486Zm7.488,6.75c-.648,0-.936-.27-.936-1.062l.108-4.032h2.142l.108-1.314L116.1,33.7h-2.142l.054-1.944-.162-.144-2.178.7V33.7H110.61l-.126,1.314.09.126h1.116l.018,3.1-.09,1.494q0,2.133,2.43,2.376a5.383,5.383,0,0,0,1.872-.576l.234-1.422-.2-.18A2.772,2.772,0,0,1,114.75,40.236Zm7.632-11.25-.234-.018c-1.062.99-2.106,1.836-3.258,2.754l.576.9.234.018c1.152-.666,2.25-1.35,3.51-2.124l.036-.234Zm-1.656,4.482c-2.61,0-4.032,1.6-4.032,4.518,0,2.7,1.332,4.194,3.78,4.194,2.61,0,4.032-1.6,4.032-4.518C124.506,34.944,123.174,33.468,120.726,33.468Zm-.144,1.62c1.188,0,1.692.864,1.692,3.06,0,1.746-.486,2.43-1.62,2.43-1.188,0-1.71-.828-1.71-3.06C118.944,35.808,119.448,35.088,120.582,35.088Zm10.188-1.476a2.592,2.592,0,0,0-2.214,1.62h-.126l.018-1.638-2.286.2.108,4.752L126.144,42h2.394l-.126-3.69V37.158a2.337,2.337,0,0,1,1.89-1.332,1.883,1.883,0,0,1,.666.126l.234-.09V33.648A3.808,3.808,0,0,0,130.77,33.612Zm2.9-4.086a1.229,1.229,0,0,0-1.314,1.314,1.115,1.115,0,0,0,1.224,1.242,1.215,1.215,0,0,0,1.278-1.332A1.1,1.1,0,0,0,133.668,29.526Zm.972,8.784.144-4.716-2.394.2.108,4.752L132.372,42h2.394Zm5.76-4.842c-2.52,0-4.014,1.674-4.014,4.446,0,2.682,1.368,4.266,3.672,4.266a7.587,7.587,0,0,0,2.214-.342l.234-1.854-.18-.144a4.416,4.416,0,0,1-1.8.45c-1.206,0-1.872-.918-1.872-2.592,0-1.476.63-2.286,1.728-2.286a3.456,3.456,0,0,1,1.638.5l.2-.09.4-1.908A5.463,5.463,0,0,0,140.4,33.468Zm6.606,0a6.454,6.454,0,0,0-3.42,1.008l.27,1.584.18.108a4.566,4.566,0,0,1,2.574-1.044,1.019,1.019,0,0,1,1.152,1.17v.738l-2.754.522a1.973,1.973,0,0,0-1.854,2.106c0,1.53,1.044,2.484,2.772,2.5a5.219,5.219,0,0,0,1.854-1.332h.126a1.51,1.51,0,0,0,1.386,1.314,2.846,2.846,0,0,0,1.314-.45l.216-1.26-.18-.144a1.846,1.846,0,0,1-.468.072c-.306,0-.414-.144-.414-.54,0-.576.2-3.384.2-4C149.958,34.332,148.842,33.468,147.006,33.468Zm.738,4.77-.036,1.332a2.123,2.123,0,0,1-1.476.828.89.89,0,0,1-.954-.99.654.654,0,0,1,.558-.756Zm5.616,2.178a.794.794,0,0,0-.846.846.739.739,0,0,0,.792.828.8.8,0,0,0,.846-.864A.742.742,0,0,0,153.36,40.416Z" transform="translate(-131.207 5511.322)"/>
    <path id="Caminho_770839" data-name="Caminho 770839" d="M24.809,203.787,286.647,102.6l52.7-59.64L390.074,1.984l50.242,19.368L494.6,63.513l51.648,19.236L599.738.272" transform="translate(-131.516 5612.039)" fill="none" stroke="#40bbff" stroke-miterlimit="10" stroke-width="2"/>
    <line id="Linha_1909" data-name="Linha 1909" x2="624.512" transform="translate(-132.256 5856.143)" fill="none" stroke="#40bbff" stroke-miterlimit="10" stroke-width="1"/>
    <ellipse id="Elipse_13066" data-name="Elipse 13066" cx="5.16" cy="5.16" rx="5.16" ry="5.16" transform="translate(-6.859 5769.938)" fill="#3b4aff"/>
    <ellipse id="Elipse_13067" data-name="Elipse 13067" cx="5.16" cy="5.16" rx="5.16" ry="5.16" transform="translate(97.38 5729.688)" fill="#3b4aff"/>
    <ellipse id="Elipse_13068" data-name="Elipse 13068" cx="5.16" cy="5.16" rx="5.16" ry="5.16" transform="translate(44.743 5749.297)" fill="#3b4aff"/>
    <path id="Caminho_773215" data-name="Caminho 773215" d="M12.529,0,11.492-10.914H9.5l-.51,1.581L6.783-3.485H6.647l-2.091-5.8-.51-1.632H2.04L.9,0H2.38l.272-3.468.51-4.777h.153l2.6,7.038H7.31l2.805-7.038h.119l.51,4.93L10.965,0Zm4.794-7.99a5.448,5.448,0,0,0-3.06,1.02l.221,1.207.136.085a3.872,3.872,0,0,1,2.431-1.088,1.119,1.119,0,0,1,1.224,1.275l-.017.918-2.686.6a1.811,1.811,0,0,0-1.649,1.887c0,1.36.935,2.21,2.516,2.227a4.978,4.978,0,0,0,1.768-1.275h.119A1.324,1.324,0,0,0,19.567.119a2.77,2.77,0,0,0,1.071-.374l.17-.952-.153-.119a2.6,2.6,0,0,1-.51.068c-.357,0-.493-.136-.493-.578,0-.578.2-3.434.2-4.029C19.856-7.208,18.87-7.99,17.323-7.99Zm.935,4.42-.051,1.309a2.4,2.4,0,0,1-1.7,1.037A.979.979,0,0,1,15.47-2.312a.628.628,0,0,1,.578-.731ZM26.4-7.854a2.507,2.507,0,0,0-2.142,1.547H24.14l.017-1.564-1.649.153.1,4.437L22.491,0h1.734l-.119-3.434.017-1.122C24.718-5.729,25.313-6.2,26.01-6.2a2.379,2.379,0,0,1,.629.085l.187-.051V-7.82A3.312,3.312,0,0,0,26.4-7.854Z" transform="translate(-22.342 5876.792)" fill="#2f2e33"/>
    <path id="Caminho_773216" data-name="Caminho 773216" d="M10.224,0,6.5-11.556H4.32L.2,0H2.052L2.34-1.386,2.88-2.9l2.214-.054L7.542-2.9l.5,1.6L8.316,0ZM7.074-4.41,5.22-4.374,3.4-4.41l1.89-5.328h.126Zm8.6-3.978a5.892,5.892,0,0,0-2.16,1.242H13.41l.072-5.49-1.836.144.108,9.036L11.628.036l.288.18L13.05-.252a4.466,4.466,0,0,0,1.836.414C17.37.162,18.9-1.458,18.9-4.41,18.9-6.894,17.8-8.388,15.678-8.388Zm-.72,7.29a3.037,3.037,0,0,1-1.548-.486l-.054-2.088.036-2.16a2.8,2.8,0,0,1,1.98-1.08c1.17,0,1.782,1.008,1.818,2.754C17.208-2.052,16.308-1.1,14.958-1.1ZM24.984-8.316a2.655,2.655,0,0,0-2.268,1.638H22.59l.018-1.656-1.746.162.108,4.7L20.844,0H22.68l-.126-3.636.018-1.188c.63-1.242,1.26-1.746,2-1.746a2.519,2.519,0,0,1,.666.09l.2-.054V-8.28A3.506,3.506,0,0,0,24.984-8.316Z" transform="translate(33.39 5877.792)" fill="#2f2e33"/>
    <path id="Caminho_773217" data-name="Caminho 773217" d="M13.266,0l-1.1-11.556H10.062l-.54,1.674L7.182-3.69H7.038L4.824-9.828l-.54-1.728H2.16L.954,0H2.52l.288-3.672.54-5.058H3.51L6.264-1.278H7.74L10.71-8.73h.126l.54,5.22L11.61,0Zm5.076-8.46A5.768,5.768,0,0,0,15.1-7.38L15.336-6.1l.144.09a4.1,4.1,0,0,1,2.574-1.152,1.185,1.185,0,0,1,1.3,1.35l-.018.972-2.844.63a1.918,1.918,0,0,0-1.746,2c0,1.44.99,2.34,2.664,2.358a5.271,5.271,0,0,0,1.872-1.35H19.4A1.4,1.4,0,0,0,20.718.126a2.933,2.933,0,0,0,1.134-.4l.18-1.008L21.87-1.4a2.753,2.753,0,0,1-.54.072c-.378,0-.522-.144-.522-.612,0-.612.216-3.636.216-4.266C21.024-7.632,19.98-8.46,18.342-8.46Zm.99,4.68-.054,1.386a2.542,2.542,0,0,1-1.8,1.1,1.037,1.037,0,0,1-1.1-1.152.664.664,0,0,1,.612-.774ZM24.8-12.168a.973.973,0,0,0-1.044,1.044.914.914,0,0,0,.99,1.008.97.97,0,0,0,1.008-1.062A.89.89,0,0,0,24.8-12.168Zm.72,8.532.144-4.7-1.836.162.09,4.7L23.814,0H25.65Z" transform="translate(86.025 5877.792)" fill="#2f2e33"/>
    <path id="Caminho_773218" data-name="Caminho 773218" d="M4.122-3.816l.108-7.74H.216L.108-10.242.27-10.1l2.106-.018.072,6.48v1.494c0,1.3-.63,1.98-2.2,2.79v.2L.9,1.872C3.312.81,4.158-.27,4.158-2.142Zm9.342-4.518-1.746.162v5.85A2.951,2.951,0,0,1,9.756-1.4c-.846,0-1.26-.54-1.242-1.422L8.6-8.334l-1.818.162.072,3.6-.036,2.25C6.8-.774,7.776.108,9.594.108a5.411,5.411,0,0,0,2.16-1.26H11.9A1.441,1.441,0,0,0,13.23.126a2.832,2.832,0,0,0,1.134-.4l.18-1.008L14.382-1.4a2.6,2.6,0,0,1-.558.072c-.36,0-.486-.144-.486-.594ZM21.2,0h1.854l-.09-3.636.054-2.34c.018-1.548-.936-2.43-2.79-2.43a6.121,6.121,0,0,0-2.214,1.278h-.126l.018-1.206-1.746.162.09,4.7L16.146,0h1.836l-.108-3.636.018-2.2a3.229,3.229,0,0,1,2.16-1.08c.864,0,1.3.558,1.278,1.458Z" transform="translate(139.693 5877.792)" fill="#2f2e33"/>
    <path id="Caminho_773219" data-name="Caminho 773219" d="M4.122-3.816l.108-7.74H.216L.108-10.242.27-10.1l2.106-.018.072,6.48v1.494c0,1.3-.63,1.98-2.2,2.79v.2L.9,1.872C3.312.81,4.158-.27,4.158-2.142Zm9.342-4.518-1.746.162v5.85A2.951,2.951,0,0,1,9.756-1.4c-.846,0-1.26-.54-1.242-1.422L8.6-8.334l-1.818.162.072,3.6-.036,2.25C6.8-.774,7.776.108,9.594.108a5.411,5.411,0,0,0,2.16-1.26H11.9A1.441,1.441,0,0,0,13.23.126a2.832,2.832,0,0,0,1.134-.4l.18-1.008L14.382-1.4a2.6,2.6,0,0,1-.558.072c-.36,0-.486-.144-.486-.594Zm4.482,4.68.144-8.982-1.836.144.108,9L16.236,0h1.836Z" transform="translate(190.265 5877.792)" fill="#2f2e33"/>
    <path id="Caminho_773220" data-name="Caminho 773220" d="M10.224,0,6.5-11.556H4.32L.2,0H2.052L2.34-1.386,2.88-2.9l2.214-.054L7.542-2.9l.5,1.6L8.316,0ZM7.074-4.41,5.22-4.374,3.4-4.41l1.89-5.328h.126Zm12.4-4.212-.162-.108a19.107,19.107,0,0,1-2.664.63,4.183,4.183,0,0,0-1.656-.306c-2.034,0-3.366,1.08-3.366,2.934a2.479,2.479,0,0,0,1.242,2.3v.09a3.967,3.967,0,0,0-1.152,1.1c0,.846.558,1.26,1.314,1.512v.09A4.619,4.619,0,0,0,11.484,1.08c0,1.386,1.1,2.412,3.186,2.412,2.268,0,3.978-1.224,3.978-2.826,0-2.754-5.292-1.62-5.292-2.9,0-.2.09-.36.378-.594a5.283,5.283,0,0,0,1.1.108c2.106,0,3.4-1.134,3.4-2.9A2.685,2.685,0,0,0,17.892-7l.036-.072a10.235,10.235,0,0,0,1.548-.342ZM14.9-3.888a1.5,1.5,0,0,1-1.656-1.674,1.521,1.521,0,0,1,1.728-1.656,1.447,1.447,0,0,1,1.638,1.6A1.56,1.56,0,0,1,14.9-3.888Zm2.16,4.9c0,.774-.918,1.3-2.178,1.3-1.224,0-1.836-.486-1.836-1.116,0-.5.414-.936,1.152-1.4C15.606,0,17.064.054,17.064,1.008ZM23.9-8.46c-2.484,0-3.87,1.6-3.87,4.446,0,2.664,1.314,4.176,3.636,4.176,2.484,0,3.87-1.6,3.87-4.446C27.54-6.948,26.226-8.46,23.9-8.46ZM23.8-7.182c1.35,0,2.034,1.044,2.034,3.312,0,1.89-.684,2.772-2.034,2.772-1.368,0-2.052-1.026-2.052-3.312C21.744-6.264,22.428-7.182,23.8-7.182Z" transform="translate(235.676 5877.792)" fill="#2f2e33"/>
    <path id="Caminho_773221" data-name="Caminho 773221" d="M4.932-11.682c-2.358,0-3.96,1.476-3.96,3.366,0,3.384,5.184,3.078,5.184,5.328A1.831,1.831,0,0,1,4.1-1.314a4.53,4.53,0,0,1-2.952-1.26l-.234.108L.684-.63a7.571,7.571,0,0,0,3.24.774c2.448,0,4.068-1.548,4.068-3.42,0-3.366-5.2-3.168-5.2-5.292a1.748,1.748,0,0,1,1.926-1.62,4.173,4.173,0,0,1,2.358.882l.288-.108.306-1.692A7.1,7.1,0,0,0,4.932-11.682Zm10.71,7.614.306-.288a7.013,7.013,0,0,0,.072-.9A2.847,2.847,0,0,0,13-8.442C10.584-8.442,9.018-6.8,9.018-4.1c0,2.628,1.44,4.266,3.924,4.266a5.842,5.842,0,0,0,2.52-.612l.216-1.458-.162-.108a4.941,4.941,0,0,1-2.43.756c-1.584,0-2.34-1.026-2.376-2.808Zm-1.3-1.206-3.546.09a2.11,2.11,0,0,1,2.088-2c.9,0,1.494.522,1.494,1.692Zm6.5,3.888c-.738,0-1.062-.288-1.044-1.188l.09-4.518h2.322l.09-1.044-.072-.126h-2.3l.036-1.782-.162-.144-1.62.612v1.314h-1.1L16.992-7.2l.072.108H18.2l.018,3.51-.072,1.3A2.148,2.148,0,0,0,20.268.108,5.2,5.2,0,0,0,22.1-.432l.18-1.152L22.1-1.71A2.838,2.838,0,0,1,20.844-1.386Z" transform="translate(291.407 5877.792)" fill="#2f2e33"/>
    <path id="Caminho_773222" data-name="Caminho 773222" d="M5.922-11.7c-3.4,0-5.31,2.16-5.31,6.03C.612-1.962,2.394.162,5.58.162c3.384,0,5.31-2.232,5.31-6.174C10.89-9.648,9.108-11.7,5.922-11.7ZM5.76-10.17c2.178,0,3.2,1.368,3.2,4.5,0,2.988-1.062,4.338-3.24,4.338s-3.2-1.4-3.2-4.572C2.52-8.838,3.564-10.17,5.76-10.17ZM19.368-8.334l-1.746.162v5.85A2.951,2.951,0,0,1,15.66-1.4c-.846,0-1.26-.54-1.242-1.422l.09-5.508-1.818.162.072,3.6-.036,2.25C12.708-.774,13.68.108,15.5.108a5.411,5.411,0,0,0,2.16-1.26H17.8A1.441,1.441,0,0,0,19.134.126a2.832,2.832,0,0,0,1.134-.4l.18-1.008L20.286-1.4a2.6,2.6,0,0,1-.558.072c-.36,0-.486-.144-.486-.594Zm5.616,6.948c-.738,0-1.062-.288-1.044-1.188l.09-4.518h2.322l.09-1.044-.072-.126h-2.3l.036-1.782-.162-.144-1.62.612v1.314h-1.1L21.132-7.2l.072.108h1.134l.018,3.51-.072,1.3A2.148,2.148,0,0,0,24.408.108a5.2,5.2,0,0,0,1.836-.54l.18-1.152-.18-.126A2.838,2.838,0,0,1,24.984-1.386Z" transform="translate(339.915 5877.792)" fill="#2f2e33"/>
    <path id="Caminho_773226" data-name="Caminho 773226" d="M4.23-9.108A5.487,5.487,0,0,0,.9-7.812L1.206-6.39h.2a3.579,3.579,0,0,1,2.43-1.152c.792,0,1.224.414,1.224.972,0,.7-.63,1.548-1.8,2.808L.792-1.17V-.036l.09.072L1.548,0H5.616L7.6.09,7.83-1.422,7.7-1.548,6.138-1.4H3.2l-.036-.09,1.6-1.818C6.21-4.932,6.858-6.048,6.858-7.02,6.858-8.3,5.742-9.108,4.23-9.108Zm8.946-.036C10.584-9.144,9.09-7.4,9.09-4.356c0,2.862,1.4,4.5,3.852,4.5,2.592,0,4.05-1.728,4.05-4.752C16.992-7.506,15.606-9.144,13.176-9.144Zm-.144,1.692c1.656,0,2.538,1.008,2.538,3.06,0,1.944-.864,2.916-2.52,2.916-1.692,0-2.52-1.008-2.52-3.006S11.358-7.452,13.032-7.452Zm9.594-1.692c-2.592,0-4.086,1.746-4.086,4.788,0,2.862,1.4,4.5,3.852,4.5,2.592,0,4.05-1.728,4.05-4.752C26.442-7.506,25.056-9.144,22.626-9.144Zm-.144,1.692c1.656,0,2.538,1.008,2.538,3.06,0,1.944-.864,2.916-2.52,2.916-1.692,0-2.52-1.008-2.52-3.006S20.808-7.452,22.482-7.452Z" transform="translate(-19.244 5756.008)" fill="#2f2e33"/>
    <path id="Caminho_773227" data-name="Caminho 773227" d="M4.23-9.108A5.487,5.487,0,0,0,.9-7.812L1.206-6.39h.2a3.579,3.579,0,0,1,2.43-1.152c.792,0,1.224.414,1.224.972,0,.7-.63,1.548-1.8,2.808L.792-1.17V-.036l.09.072L1.548,0H5.616L7.6.09,7.83-1.422,7.7-1.548,6.138-1.4H3.2l-.036-.09,1.6-1.818C6.21-4.932,6.858-6.048,6.858-7.02,6.858-8.3,5.742-9.108,4.23-9.108Zm11.034.126-.108-.126-1.764.09h-2.5L9.9-9.072l-.252.252-.09,4.86L9.7-3.8l1.6.306c1.512.27,2.106.828,2.106,1.782C13.41-.5,12.474.324,10.98.324a4.99,4.99,0,0,1-2.052-.45L8.784.018,8.91,1.566a10.218,10.218,0,0,0,1.818.2c2.592,0,4.41-1.53,4.41-3.762,0-1.422-.756-2.376-3.024-2.844L11-5.076l.054-2.466h2.412l1.476.126.126-.126Zm5.526-.162C18.2-9.144,16.7-7.4,16.7-4.356c0,2.862,1.4,4.5,3.852,4.5,2.592,0,4.05-1.728,4.05-4.752C24.606-7.506,23.22-9.144,20.79-9.144Zm-.144,1.692c1.656,0,2.538,1.008,2.538,3.06,0,1.944-.864,2.916-2.52,2.916-1.692,0-2.52-1.008-2.52-3.006S18.972-7.452,20.646-7.452Z" transform="translate(34.423 5736.398)" fill="#2f2e33"/>
    <path id="Caminho_773228" data-name="Caminho 773228" d="M3.528-9.126A4.854,4.854,0,0,0,.5-8.028l.27,1.386h.2a3.494,3.494,0,0,1,2.2-.99A1.249,1.249,0,0,1,4.59-6.372a1.982,1.982,0,0,1-2,1.818L1.8-4.536l-.054,1.26.108.126H2.988c1.332.054,2.034.63,2.034,1.62,0,1.152-.954,1.854-2.43,1.854a4.835,4.835,0,0,1-1.908-.4L.558.054l.09,1.512A12.458,12.458,0,0,0,2.5,1.728c2.556,0,4.266-1.368,4.266-3.4A2.394,2.394,0,0,0,4.68-4.05v-.072A3.028,3.028,0,0,0,6.444-6.768C6.444-8.172,5.274-9.126,3.528-9.126Zm8.892-.018c-2.592,0-4.086,1.746-4.086,4.788,0,2.862,1.4,4.5,3.852,4.5,2.592,0,4.05-1.728,4.05-4.752C16.236-7.506,14.85-9.144,12.42-9.144Zm-.144,1.692c1.656,0,2.538,1.008,2.538,3.06,0,1.944-.864,2.916-2.52,2.916-1.692,0-2.52-1.008-2.52-3.006S10.6-7.452,12.276-7.452ZM21.87-9.144c-2.592,0-4.086,1.746-4.086,4.788,0,2.862,1.4,4.5,3.852,4.5,2.592,0,4.05-1.728,4.05-4.752C25.686-7.506,24.3-9.144,21.87-9.144Zm-.144,1.692c1.656,0,2.538,1.008,2.538,3.06,0,1.944-.864,2.916-2.52,2.916-1.692,0-2.52-1.008-2.52-3.006S20.052-7.452,21.726-7.452Z" transform="translate(87.06 5718.854)" fill="#2f2e33"/>
    <line id="Linha_1908" data-name="Linha 1908" y2="213.968" transform="translate(258.208 5630.581)" fill="none" stroke="#0024a9" stroke-linecap="round" stroke-miterlimit="10" stroke-width="3" stroke-dasharray="5"/>
    <ellipse id="Elipse_13069" data-name="Elipse 13069" cx="5.16" cy="5.16" rx="5.16" ry="5.16" transform="translate(148.983 5709.045)" fill="#3b4aff"/>
    <ellipse id="Elipse_13070" data-name="Elipse 13070" cx="5.16" cy="5.16" rx="5.16" ry="5.16" transform="translate(202.65 5650.218)" fill="#3b4aff"/>
    <ellipse id="Elipse_13071" data-name="Elipse 13071" cx="5.16" cy="5.16" rx="5.16" ry="5.16" transform="translate(356.43 5669.826)" fill="#3b4aff"/>
    <ellipse id="Elipse_13073" data-name="Elipse 13073" cx="5.16" cy="5.16" rx="5.16" ry="5.16" transform="translate(303.793 5628.544)" fill="#3b4aff"/>
    <ellipse id="Elipse_13074" data-name="Elipse 13074" cx="6.192" cy="6.192" rx="6.192" ry="6.192" transform="translate(252.189 5608.935)" fill="#3b4aff"/>
    <path id="Caminho_773229" data-name="Caminho 773229" d="M3.528-9.126A4.854,4.854,0,0,0,.5-8.028l.27,1.386h.2a3.494,3.494,0,0,1,2.2-.99A1.249,1.249,0,0,1,4.59-6.372a1.982,1.982,0,0,1-2,1.818L1.8-4.536l-.054,1.26.108.126H2.988c1.332.054,2.034.63,2.034,1.62,0,1.152-.954,1.854-2.43,1.854a4.835,4.835,0,0,1-1.908-.4L.558.054l.09,1.512A12.458,12.458,0,0,0,2.5,1.728c2.556,0,4.266-1.368,4.266-3.4A2.394,2.394,0,0,0,4.68-4.05v-.072A3.028,3.028,0,0,0,6.444-6.768C6.444-8.172,5.274-9.126,3.528-9.126Zm10.98.144L14.4-9.108l-1.764.09h-2.5l-.99-.054-.252.252L8.8-3.96l.144.162,1.6.306c1.512.27,2.106.828,2.106,1.782,0,1.206-.936,2.034-2.43,2.034a4.99,4.99,0,0,1-2.052-.45L8.028.018l.126,1.548a10.218,10.218,0,0,0,1.818.2c2.592,0,4.41-1.53,4.41-3.762,0-1.422-.756-2.376-3.024-2.844l-1.116-.234L10.3-7.542h2.412l1.476.126.126-.126Zm5.526-.162c-2.592,0-4.086,1.746-4.086,4.788,0,2.862,1.4,4.5,3.852,4.5,2.592,0,4.05-1.728,4.05-4.752C23.85-7.506,22.464-9.144,20.034-9.144ZM19.89-7.452c1.656,0,2.538,1.008,2.538,3.06,0,1.944-.864,2.916-2.52,2.916-1.692,0-2.52-1.008-2.52-3.006S18.216-7.452,19.89-7.452Z" transform="translate(137.629 5689.955)" fill="#2f2e33"/>
    <path id="Caminho_773230" data-name="Caminho 773230" d="M6.948-8.982,6.84-9.108l-1.764.09h-2.5l-.99-.054-.252.252-.09,4.86.144.162,1.6.306c1.512.27,2.106.828,2.106,1.782C5.094-.5,4.158.324,2.664.324A4.99,4.99,0,0,1,.612-.126L.468.018.594,1.566a10.218,10.218,0,0,0,1.818.2C5,1.764,6.822.234,6.822-2c0-1.422-.756-2.376-3.024-2.844L2.682-5.076l.054-2.466H5.148l1.476.126.126-.126Zm5.526-.162c-2.592,0-4.086,1.746-4.086,4.788,0,2.862,1.4,4.5,3.852,4.5,2.592,0,4.05-1.728,4.05-4.752C16.29-7.506,14.9-9.144,12.474-9.144ZM12.33-7.452c1.656,0,2.538,1.008,2.538,3.06,0,1.944-.864,2.916-2.52,2.916-1.692,0-2.52-1.008-2.52-3.006S10.656-7.452,12.33-7.452Zm9.594-1.692c-2.592,0-4.086,1.746-4.086,4.788,0,2.862,1.4,4.5,3.852,4.5,2.592,0,4.05-1.728,4.05-4.752C25.74-7.506,24.354-9.144,21.924-9.144ZM21.78-7.452c1.656,0,2.538,1.008,2.538,3.06,0,1.944-.864,2.916-2.52,2.916-1.692,0-2.52-1.008-2.52-3.006S20.106-7.452,21.78-7.452Z" transform="translate(192.329 5632.159)" fill="#2f2e33"/>
    <path id="Caminho_773232" data-name="Caminho 773232" d="M6.948-8.982,6.84-9.108l-1.764.09h-2.5l-.99-.054-.252.252-.09,4.86.144.162,1.6.306c1.512.27,2.106.828,2.106,1.782C5.094-.5,4.158.324,2.664.324A4.99,4.99,0,0,1,.612-.126L.468.018.594,1.566a10.218,10.218,0,0,0,1.818.2C5,1.764,6.822.234,6.822-2c0-1.422-.756-2.376-3.024-2.844L2.682-5.076l.054-2.466H5.148l1.476.126.126-.126Zm7.614,0-.108-.126-1.764.09h-2.5L9.2-9.072l-.252.252-.09,4.86L9-3.8l1.6.306c1.512.27,2.106.828,2.106,1.782,0,1.206-.936,2.034-2.43,2.034a4.99,4.99,0,0,1-2.052-.45L8.082.018l.126,1.548a10.218,10.218,0,0,0,1.818.2c2.592,0,4.41-1.53,4.41-3.762,0-1.422-.756-2.376-3.024-2.844L10.3-5.076l.054-2.466h2.412l1.476.126.126-.126Zm5.526-.162C17.5-9.144,16-7.4,16-4.356c0,2.862,1.4,4.5,3.852,4.5,2.592,0,4.05-1.728,4.05-4.752C23.9-7.506,22.518-9.144,20.088-9.144Zm-.144,1.692c1.656,0,2.538,1.008,2.538,3.06,0,1.944-.864,2.916-2.52,2.916-1.692,0-2.52-1.008-2.52-3.006S18.27-7.452,19.944-7.452Z" transform="translate(297.602 5612.55)" fill="#2f2e33"/>
    <path id="Caminho_773233" data-name="Caminho 773233" d="M8.19-1.188l.09-1.3-.108-.162H6.552l.054-6.372H4.914L.432-2.538V-1.35l.126.162,1.35-.036H5.076L5.022,1.62l.108.126,1.4-.108.108-.144L6.57-1.224ZM2.034-2.646,4.95-6.876h.144v4.23ZM15.768-8.982l-.108-.126-1.764.09h-2.5l-.99-.054-.252.252-.09,4.86.144.162,1.6.306c1.512.27,2.106.828,2.106,1.782,0,1.206-.936,2.034-2.43,2.034a4.99,4.99,0,0,1-2.052-.45L9.288.018l.126,1.548a10.218,10.218,0,0,0,1.818.2c2.592,0,4.41-1.53,4.41-3.762,0-1.422-.756-2.376-3.024-2.844L11.5-5.076l.054-2.466h2.412l1.476.126.126-.126Zm5.526-.162c-2.592,0-4.086,1.746-4.086,4.788,0,2.862,1.4,4.5,3.852,4.5,2.592,0,4.05-1.728,4.05-4.752C25.11-7.506,23.724-9.144,21.294-9.144ZM21.15-7.452c1.656,0,2.538,1.008,2.538,3.06,0,1.944-.864,2.916-2.52,2.916-1.692,0-2.52-1.008-2.52-3.006S19.476-7.452,21.15-7.452Z" transform="translate(351.205 5653.832)" fill="#2f2e33"/>
    <path id="Caminho_773231" data-name="Caminho 773231" d="M7.458.308c3.058,0,5.676-1.892,5.676-5.236A4.839,4.839,0,0,0,8.052-9.966,3.916,3.916,0,0,0,4.378-7.942c0-2.75,1.144-5.126,3.894-5.126a4.641,4.641,0,0,1,2.772.924l1.364-2.2a6.561,6.561,0,0,0-4.224-1.364c-5.06,0-7.062,4.18-7.062,8.712C1.122-2.024,3.894.308,7.458.308Zm-.022-2.6A2.41,2.41,0,0,1,4.994-4.84,2.38,2.38,0,0,1,7.436-7.37,2.4,2.4,0,0,1,9.9-4.84,2.427,2.427,0,0,1,7.436-2.288ZM22.154.33C26.466.33,29-3.168,29-7.7s-2.53-8.03-6.842-8.03c-4.334,0-6.864,3.5-6.864,8.03S17.82.33,22.154.33Zm0-2.75c-2.486,0-3.5-2.684-3.5-5.28s1.012-5.28,3.5-5.28,3.5,2.684,3.5,5.28S24.64-2.42,22.154-2.42ZM38.038.33c4.312,0,6.842-3.5,6.842-8.03s-2.53-8.03-6.842-8.03c-4.334,0-6.864,3.5-6.864,8.03S33.7.33,38.038.33Zm0-2.75c-2.486,0-3.5-2.684-3.5-5.28s1.012-5.28,3.5-5.28,3.5,2.684,3.5,5.28S40.524-2.42,38.038-2.42Z" transform="translate(235.208 5590.341)"/>
    <ellipse id="Elipse_13075" data-name="Elipse 13075" cx="5.16" cy="5.16" rx="5.16" ry="5.16" transform="translate(-59.494 5789.547)" fill="#3b4aff"/>
    <path id="Caminho_773214" data-name="Caminho 773214" d="M3.438-10.026l1.854-.018,2.7.108.144-1.458-.126-.162H1.548l.126,8.082L1.548,0h1.89l-.09-3.636.018-1.242L5.04-4.9l2.052.054.144-1.4L7.11-6.408,5.2-6.354,3.384-6.39Zm11.25,5.958.306-.288a7.013,7.013,0,0,0,.072-.9,2.847,2.847,0,0,0-3.024-3.186C9.63-8.442,8.064-6.8,8.064-4.1,8.064-1.476,9.5.162,11.988.162a5.842,5.842,0,0,0,2.52-.612l.216-1.458-.162-.108a4.941,4.941,0,0,1-2.43.756c-1.584,0-2.34-1.026-2.376-2.808Zm-1.3-1.206-3.546.09a2.11,2.11,0,0,1,2.088-2c.9,0,1.494.522,1.494,1.692Zm4.482-1.854L17.64-8.352l-1.692.09L18.414,0h1.98l2.934-8.3h-1.62L21.4-7.038,19.566-1.764H19.44Z" transform="translate(-71.881 5877.792)" fill="#2f2e33"/>
    <path id="Caminho_773213" data-name="Caminho 773213" d="M4.122-3.816l.108-7.74H.216L.108-10.242.27-10.1l2.106-.018.072,6.48v1.494c0,1.3-.63,1.98-2.2,2.79v.2L.9,1.872C3.312.81,4.158-.27,4.158-2.142ZM9.7-8.46a5.768,5.768,0,0,0-3.24,1.08L6.7-6.1l.144.09A4.1,4.1,0,0,1,9.414-7.164a1.185,1.185,0,0,1,1.3,1.35l-.018.972-2.844.63a1.918,1.918,0,0,0-1.746,2c0,1.44.99,2.34,2.664,2.358a5.271,5.271,0,0,0,1.872-1.35h.126A1.4,1.4,0,0,0,12.078.126a2.933,2.933,0,0,0,1.134-.4l.18-1.008L13.23-1.4a2.753,2.753,0,0,1-.54.072c-.378,0-.522-.144-.522-.612,0-.612.216-3.636.216-4.266C12.384-7.632,11.34-8.46,9.7-8.46Zm.99,4.68-.054,1.386a2.542,2.542,0,0,1-1.8,1.1,1.037,1.037,0,0,1-1.1-1.152.664.664,0,0,1,.612-.774ZM20.232,0h1.854L22-3.636l.054-2.34c.018-1.548-.936-2.43-2.79-2.43a6.121,6.121,0,0,0-2.214,1.278H16.92l.018-1.206-1.746.162.09,4.7L15.174,0H17.01L16.9-3.636l.018-2.2a3.229,3.229,0,0,1,2.16-1.08c.864,0,1.3.558,1.278,1.458Z" transform="translate(-121.549 5877.792)" fill="#2f2e33"/>
    <path id="Caminho_773223" data-name="Caminho 773223" d="M10.115-3.264l.119-7.684-1.649.119.051,8.092H8.5L3.366-10.914H1.5L1.581-3.23,1.462,0H3.111L3.026-3.655l.017-4.522h.136L8.3,0h1.887ZM15.9-7.99c-2.346,0-3.655,1.513-3.655,4.2,0,2.516,1.241,3.944,3.434,3.944,2.346,0,3.655-1.513,3.655-4.2C19.329-6.562,18.088-7.99,15.9-7.99Zm-.1,1.207c1.275,0,1.921.986,1.921,3.128,0,1.785-.646,2.618-1.921,2.618-1.292,0-1.938-.969-1.938-3.128C13.855-5.916,14.5-6.783,15.793-6.783Zm6.052.051-.221-1.156-1.6.085L22.355,0h1.87L27-7.837h-1.53l-.289,1.19L23.443-1.666h-.119Z" transform="translate(393.583 5876.792)" fill="#2f2e33"/>
    <path id="Caminho_773224" data-name="Caminho 773224" d="M1.566-11.556H1.548l.126,8.082L1.548,0h.018c1.062.054,3.1.108,3.87.108,3.636,0,5.652-2.232,5.652-6.3,0-3.51-1.836-5.436-5.148-5.436ZM5.76-1.368c-.378,0-1.548-.054-2.358-.126L3.348-3.636l.09-6.408c.684-.036,1.98-.072,2.358-.072,2.25,0,3.366,1.35,3.366,4.338C9.162-2.772,7.92-1.368,5.76-1.368Zm13.176-2.7.306-.288a7.013,7.013,0,0,0,.072-.9A2.847,2.847,0,0,0,16.29-8.442c-2.412,0-3.978,1.638-3.978,4.338,0,2.628,1.44,4.266,3.924,4.266a5.842,5.842,0,0,0,2.52-.612l.216-1.458-.162-.108a4.941,4.941,0,0,1-2.43.756C14.8-1.26,14.04-2.286,14-4.068Zm-1.3-1.206-3.546.09a2.11,2.11,0,0,1,2.088-2c.9,0,1.494.522,1.494,1.692Zm4.7-3.024L20.7-8.334l-.126,1.26.108.144,1.386-.144h2.808l-4.41,6.03.018,1.08L21.456,0h3.456l1.854.036.144-1.26L26.8-1.368l-1.44.144H22.41L26.8-7.218l-.036-1.1-.792.018Z" transform="translate(449.314 5877.792)" fill="#2f2e33"/>
    <path id="Caminho_773225" data-name="Caminho 773225" d="M4.32-8.91l-.27-.2L.18-7.974v1.458l.162.108,2.2-.612.018,3.492L2.448,0H4.3l-.09-3.726Zm8.946-.072-.108-.126-1.764.09h-2.5L7.9-9.072,7.65-8.82,7.56-3.96,7.7-3.8l1.6.306c1.512.27,2.106.828,2.106,1.782,0,1.206-.936,2.034-2.43,2.034A4.99,4.99,0,0,1,6.93-.126L6.786.018l.126,1.548a10.218,10.218,0,0,0,1.818.2c2.592,0,4.41-1.53,4.41-3.762,0-1.422-.756-2.376-3.024-2.844L9-5.076l.054-2.466h2.412l1.476.126.126-.126Zm5.526-.162c-2.592,0-4.086,1.746-4.086,4.788,0,2.862,1.4,4.5,3.852,4.5,2.592,0,4.05-1.728,4.05-4.752C22.608-7.506,21.222-9.144,18.792-9.144Zm-.144,1.692c1.656,0,2.538,1.008,2.538,3.06,0,1.944-.864,2.916-2.52,2.916-1.692,0-2.52-1.008-2.52-3.006S16.974-7.452,18.648-7.452Z" transform="translate(-69.815 5774.585)" fill="#2f2e33"/>
    <ellipse id="Elipse_13072" data-name="Elipse 13072" cx="5.16" cy="5.16" rx="5.16" ry="5.16" transform="translate(408.033 5689.437)" fill="#3b4aff"/>
    <ellipse id="Elipse_13076" data-name="Elipse 13076" cx="5.16" cy="5.16" rx="5.16" ry="5.16" transform="translate(461.701 5608.935)" fill="#3b4aff"/>
    <path id="Caminho_773235" data-name="Caminho 773235" d="M4.932-6.372a3.719,3.719,0,0,0-2.124.666L2.682-5.85C3.258-7.56,4.752-8.73,7.488-9.7v-.18L6.12-10.71H6.012C2.664-9.324.738-6.84.738-3.816.738-1.332,1.908.162,4.212.162A3.347,3.347,0,0,0,7.848-3.294,2.812,2.812,0,0,0,4.932-6.372ZM4.338-1.08c-1.386,0-1.944-.936-1.944-2.772l.018-.432a3.279,3.279,0,0,1,2-.774c1.152,0,1.8.72,1.8,2.016A1.749,1.749,0,0,1,4.338-1.08ZM13.41-9.144c-2.592,0-4.086,1.746-4.086,4.788,0,2.862,1.4,4.5,3.852,4.5,2.592,0,4.05-1.728,4.05-4.752C17.226-7.506,15.84-9.144,13.41-9.144Zm-.144,1.692c1.656,0,2.538,1.008,2.538,3.06,0,1.944-.864,2.916-2.52,2.916-1.692,0-2.52-1.008-2.52-3.006S11.592-7.452,13.266-7.452ZM22.86-9.144c-2.592,0-4.086,1.746-4.086,4.788,0,2.862,1.4,4.5,3.852,4.5,2.592,0,4.05-1.728,4.05-4.752C26.676-7.506,25.29-9.144,22.86-9.144Zm-.144,1.692c1.656,0,2.538,1.008,2.538,3.06,0,1.944-.864,2.916-2.52,2.916-1.692,0-2.52-1.008-2.52-3.006S21.042-7.452,22.716-7.452Z" transform="translate(451.38 5593.973)" fill="#2f2e33"/>
    <path id="Caminho_773234" data-name="Caminho 773234" d="M8.19-1.188l.09-1.3-.108-.162H6.552l.054-6.372H4.914L.432-2.538V-1.35l.126.162,1.35-.036H5.076L5.022,1.62l.108.126,1.4-.108.108-.144L6.57-1.224ZM2.034-2.646,4.95-6.876h.144v4.23Zm11.646-6.5c-2.592,0-4.086,1.746-4.086,4.788,0,2.862,1.4,4.5,3.852,4.5,2.592,0,4.05-1.728,4.05-4.752C17.5-7.506,16.11-9.144,13.68-9.144Zm-.144,1.692c1.656,0,2.538,1.008,2.538,3.06,0,1.944-.864,2.916-2.52,2.916-1.692,0-2.52-1.008-2.52-3.006S11.862-7.452,13.536-7.452ZM23.13-9.144c-2.592,0-4.086,1.746-4.086,4.788,0,2.862,1.4,4.5,3.852,4.5,2.592,0,4.05-1.728,4.05-4.752C26.946-7.506,25.56-9.144,23.13-9.144Zm-.144,1.692c1.656,0,2.538,1.008,2.538,3.06,0,1.944-.864,2.916-2.52,2.916-1.692,0-2.52-1.008-2.52-3.006S21.312-7.452,22.986-7.452Z" transform="translate(399.776 5715.66)" fill="#2f2e33"/>
  </g>
</svg>
