<svg xmlns="http://www.w3.org/2000/svg" width="1024" height="194" viewBox="0 0 1024 194">
  <g id="_img_Tabela_4_" data-name="&lt;img Tabela_4&gt;" transform="translate(-473 -9129.005)">
    <rect id="Retângulo_124926" data-name="Retângulo 124926" width="422.531" height="49" transform="translate(473 9129.005)" fill="#0024a9"/>
    <g id="Retângulo_124927" data-name="Retângulo 124927" transform="translate(473 9178.005)" fill="none" stroke="#0023a2" stroke-width="1">
      <rect width="422.531" height="49" stroke="none"/>
      <rect x="0.5" y="0.5" width="421.531" height="48" fill="none"/>
    </g>
    <g id="Retângulo_124928" data-name="Retângulo 124928" transform="translate(473 9226.005)" fill="none" stroke="#0023a2" stroke-width="1">
      <rect width="422.531" height="49" stroke="none"/>
      <rect x="0.5" y="0.5" width="421.531" height="48" fill="none"/>
    </g>
    <g id="Retângulo_124929" data-name="Retângulo 124929" transform="translate(473 9274.005)" fill="none" stroke="#0023a2" stroke-width="1">
      <rect width="422.531" height="49" stroke="none"/>
      <rect x="0.5" y="0.5" width="421.531" height="48" fill="none"/>
    </g>
    <path id="Caminho_770543" data-name="Caminho 770543" d="M0,0H397.888V49H0Z" transform="translate(895.531 9129.005)" fill="#0024a9"/>
    <path id="Caminho_770559" data-name="Caminho 770559" d="M0,0H203.581V49H0Z" transform="translate(1293.419 9129.005)" fill="#0024a9"/>
    <g id="Caminho_770544" data-name="Caminho 770544" transform="translate(895.531 9178.005)" fill="none">
      <path d="M0,0H397.888V49H0Z" stroke="none"/>
      <path d="M 1 0.9999961853027344 L 1 48 L 396.88818359375 48 L 396.88818359375 0.9999961853027344 L 1 0.9999961853027344 M 0 -3.814697265625e-06 L 397.88818359375 -3.814697265625e-06 L 397.88818359375 49 L 0 49 L 0 -3.814697265625e-06 Z" stroke="none" fill="#0024a9"/>
    </g>
    <g id="Caminho_770558" data-name="Caminho 770558" transform="translate(1293.419 9178.005)" fill="none">
      <path d="M0,0H203.581V49H0Z" stroke="none"/>
      <path d="M 1 0.9999961853027344 L 1 48 L 202.5805816650391 48 L 202.5805816650391 0.9999961853027344 L 1 0.9999961853027344 M 0 -3.814697265625e-06 L 203.5805816650391 -3.814697265625e-06 L 203.5805816650391 49 L 0 49 L 0 -3.814697265625e-06 Z" stroke="none" fill="#0024a9"/>
    </g>
    <g id="Caminho_770545" data-name="Caminho 770545" transform="translate(895.531 9226.005)" fill="none">
      <path d="M0,0H397.888V49H0Z" stroke="none"/>
      <path d="M 1 0.9999961853027344 L 1 48 L 396.88818359375 48 L 396.88818359375 0.9999961853027344 L 1 0.9999961853027344 M 0 -3.814697265625e-06 L 397.88818359375 -3.814697265625e-06 L 397.88818359375 49 L 0 49 L 0 -3.814697265625e-06 Z" stroke="none" fill="#0024a9"/>
    </g>
    <g id="Caminho_770557" data-name="Caminho 770557" transform="translate(1293.419 9226.005)" fill="none">
      <path d="M0,0H203.581V49H0Z" stroke="none"/>
      <path d="M 1 0.9999961853027344 L 1 48 L 202.5805816650391 48 L 202.5805816650391 0.9999961853027344 L 1 0.9999961853027344 M 0 -3.814697265625e-06 L 203.5805816650391 -3.814697265625e-06 L 203.5805816650391 49 L 0 49 L 0 -3.814697265625e-06 Z" stroke="none" fill="#0024a9"/>
    </g>
    <g id="Caminho_770546" data-name="Caminho 770546" transform="translate(895.531 9274.005)" fill="none">
      <path d="M0,0H397.888V49H0Z" stroke="none"/>
      <path d="M 1 0.9999961853027344 L 1 48 L 396.88818359375 48 L 396.88818359375 0.9999961853027344 L 1 0.9999961853027344 M 0 -3.814697265625e-06 L 397.88818359375 -3.814697265625e-06 L 397.88818359375 49 L 0 49 L 0 -3.814697265625e-06 Z" stroke="none" fill="#0024a9"/>
    </g>
    <g id="Caminho_770556" data-name="Caminho 770556" transform="translate(1293.419 9274.005)" fill="none">
      <path d="M0,0H203.581V49H0Z" stroke="none"/>
      <path d="M 1 0.9999961853027344 L 1 48 L 202.5805816650391 48 L 202.5805816650391 0.9999961853027344 L 1 0.9999961853027344 M 0 -3.814697265625e-06 L 203.5805816650391 -3.814697265625e-06 L 203.5805816650391 49 L 0 49 L 0 -3.814697265625e-06 Z" stroke="none" fill="#0024a9"/>
    </g>
    <path id="Caminho_772003" data-name="Caminho 772003" d="M9.72,22.36c-3.12,0-4.992-2.472-4.992-5.76S6.6,10.84,9.72,10.84A5.73,5.73,0,0,1,13.056,11.9l1.56-2.448A8.687,8.687,0,0,0,9.456,7.84c-5.256,0-8.4,3.72-8.4,8.76,0,5.064,3.144,8.76,8.4,8.76a8.632,8.632,0,0,0,5.16-1.608L13.056,21.3A5.893,5.893,0,0,1,9.72,22.36ZM23.3,12.88c-4.752,0-6.792,3.456-6.792,7.008,0,3.216,1.656,5.472,4.392,5.472,2.208,0,3.576-1.56,4.416-3.7L24.96,25h3.384V14.416A8.823,8.823,0,0,0,23.3,12.88Zm-1.368,9.768c-1.08,0-1.92-.7-1.92-2.88,0-1.656.576-4.32,3.24-4.32a3.938,3.938,0,0,1,1.68.408C24.744,19,24.048,22.648,21.936,22.648ZM37.224,25.36a7.728,7.728,0,0,0,2.688-.5l-.7-2.64a3.431,3.431,0,0,1-1.2.24c-1.248,0-1.848-.744-1.848-2.232V15.9h3.288V13.24H36.168V9.568H33.936l-.24,1.3c-.36,1.9-.552,2.376-2.712,2.376h-.36V15.9h2.184v4.9C32.808,23.608,34.3,25.36,37.224,25.36ZM47.952,22.7a3.1,3.1,0,0,1-3.192-2.3l7.2-.84a6.2,6.2,0,0,0,.312-1.968c0-2.976-2.16-4.7-5.04-4.7-3.408,0-5.88,2.4-5.88,6.192,0,3.768,2.472,6.288,6.36,6.288a7.239,7.239,0,0,0,4.272-1.32l-1.248-2.184A5.387,5.387,0,0,1,47.952,22.7Zm-.528-7.224c1.056,0,1.824.552,1.824,1.584a1.854,1.854,0,0,1-.072.6l-4.56.552A2.878,2.878,0,0,1,47.424,15.472ZM61.176,12.88c-4.752,0-6.792,3.456-6.792,7.008,0,3.216,1.656,5.472,4.392,5.472,2.16,0,3.528-1.512,4.368-3.6v2.232c0,2.52-1.344,3.72-3.432,3.72a5.959,5.959,0,0,1-3.216-.984l-1.488,2.4A8.677,8.677,0,0,0,59.784,30.5c3.7,0,6.432-2.3,6.432-6.5V14.416A8.823,8.823,0,0,0,61.176,12.88Zm-1.368,9.768c-1.08,0-1.92-.7-1.92-2.88,0-1.656.576-4.32,3.24-4.32a3.618,3.618,0,0,1,1.68.408C62.616,19,61.944,22.648,59.808,22.648ZM74.952,25.36A5.935,5.935,0,0,0,81.1,19.12a6.157,6.157,0,1,0-12.312,0A5.941,5.941,0,0,0,74.952,25.36Zm0-2.736c-1.776,0-2.688-1.632-2.688-3.5s.912-3.5,2.688-3.5c1.752,0,2.664,1.632,2.664,3.5S76.7,22.624,74.952,22.624Zm16.2-9.744c-2.592,0-3.888,1.92-4.56,4.488L87,13.24H83.64V25H87c0-3.888.24-8.64,3.432-8.64a3.808,3.808,0,0,1,1.2.216l.888-3.5A4.957,4.957,0,0,0,91.152,12.88Zm5.088-1.3A2.2,2.2,0,0,0,98.5,9.3a2.268,2.268,0,1,0-4.536,0A2.205,2.205,0,0,0,96.24,11.584ZM97.92,25V13.24H94.56V25ZM107.5,12.88c-4.752,0-6.792,3.456-6.792,7.008,0,3.216,1.656,5.472,4.392,5.472,2.208,0,3.576-1.56,4.416-3.7L109.152,25h3.384V14.416A8.823,8.823,0,0,0,107.5,12.88Zm-1.368,9.768c-1.08,0-1.92-.7-1.92-2.88,0-1.656.576-4.32,3.24-4.32a3.938,3.938,0,0,1,1.68.408C108.936,19,108.24,22.648,106.128,22.648Zm24.12-9.624a9.245,9.245,0,0,0-1.656-.144c-4.752,0-6.792,3.456-6.792,7.008,0,3.216,1.656,5.472,4.392,5.472,2.208,0,3.576-1.584,4.416-3.72l-.36,3.36h3.384V7.624h-3.384Zm-3.024,9.624c-1.08,0-1.92-.7-1.92-2.88,0-1.656.576-4.32,3.24-4.32a3.938,3.938,0,0,1,1.68.408C130.032,19,129.336,22.648,127.224,22.648Zm15.48.048a3.1,3.1,0,0,1-3.192-2.3l7.2-.84a6.2,6.2,0,0,0,.312-1.968c0-2.976-2.16-4.7-5.04-4.7-3.408,0-5.88,2.4-5.88,6.192,0,3.768,2.472,6.288,6.36,6.288a7.239,7.239,0,0,0,4.272-1.32l-1.248-2.184A5.387,5.387,0,0,1,142.7,22.7Zm-.528-7.224c1.056,0,1.824.552,1.824,1.584a1.855,1.855,0,0,1-.072.6l-4.56.552A2.878,2.878,0,0,1,142.176,15.472ZM161.184,7.84a29.324,29.324,0,0,0-4.824.456V25h3.528V19.6c.48.024.96.048,1.368.048,5.16,0,7.68-2.4,7.68-5.9C168.936,10.264,166.416,7.84,161.184,7.84Zm.072,8.856q-.612,0-1.368-.072v-5.76q.756-.072,1.368-.072c2.664,0,4.008,1.056,4.008,2.952C165.264,15.664,163.92,16.7,161.256,16.7Zm17.616-3.816c-2.592,0-3.888,1.92-4.56,4.488l.408-4.128h-3.36V25h3.36c0-3.888.24-8.64,3.432-8.64a3.808,3.808,0,0,1,1.2.216l.888-3.5A4.957,4.957,0,0,0,178.872,12.88Zm8.52,12.48a5.935,5.935,0,0,0,6.144-6.24,6.157,6.157,0,1,0-12.312,0A5.941,5.941,0,0,0,187.392,25.36Zm0-2.736c-1.776,0-2.688-1.632-2.688-3.5s.912-3.5,2.688-3.5c1.752,0,2.664,1.632,2.664,3.5S189.144,22.624,187.392,22.624Zm16.56-9.6a9.245,9.245,0,0,0-1.656-.144c-4.752,0-6.792,3.456-6.792,7.008,0,3.216,1.656,5.472,4.392,5.472,2.208,0,3.576-1.584,4.416-3.72l-.36,3.36h3.384V7.624h-3.384Zm-3.024,9.624c-1.08,0-1.92-.7-1.92-2.88,0-1.656.576-4.32,3.24-4.32a3.938,3.938,0,0,1,1.68.408C203.736,19,203.04,22.648,200.928,22.648Zm21-9.408h-3.384c0,3.816-.12,9.216-3,9.216-1.488,0-1.776-1.56-1.776-2.568V13.24h-3.36v7.752a4.02,4.02,0,0,0,4.272,4.368c2.064,0,3.336-1.224,4.128-3.048L218.544,25h3.384Zm8.88,12.12a7.728,7.728,0,0,0,2.688-.5l-.7-2.64a3.431,3.431,0,0,1-1.2.24c-1.248,0-1.848-.744-1.848-2.232V15.9h3.288V13.24h-3.288V9.568H227.52l-.24,1.3c-.36,1.9-.552,2.376-2.712,2.376h-.36V15.9h2.184v4.9C226.392,23.608,227.88,25.36,230.808,25.36Zm10.3,0a5.935,5.935,0,0,0,6.144-6.24,6.157,6.157,0,1,0-12.312,0A5.941,5.941,0,0,0,241.1,25.36Zm0-2.736c-1.776,0-2.688-1.632-2.688-3.5s.912-3.5,2.688-3.5c1.752,0,2.664,1.632,2.664,3.5S242.856,22.624,241.1,22.624Z" transform="translate(481 9137.005)" fill="#fff"/>
    <path id="Caminho_772004" data-name="Caminho 772004" d="M17.064,25,10.152,8.2H7.368L.432,25H4.008l1.368-3.456h6.768L13.512,25ZM8.76,13.024l2.28,5.736H6.48Zm16.344.792a11.381,11.381,0,0,1,1.176,4.776c0,1.968-.744,3.96-2.712,3.96-1.272,0-1.92-.816-1.92-2.376V13.24h-3.36v7.3c0,2.832,2.04,4.8,5.256,4.8,4.128,0,6.168-3.192,6.168-6.744a15.388,15.388,0,0,0-1.32-5.688Zm13.68-.936c-4.752,0-6.792,3.456-6.792,7.008,0,3.216,1.656,5.472,4.392,5.472,2.208,0,3.576-1.56,4.416-3.7L40.44,25h3.384V14.416A8.823,8.823,0,0,0,38.784,12.88Zm-1.368,9.768c-1.08,0-1.92-.7-1.92-2.88,0-1.656.576-4.32,3.24-4.32a3.938,3.938,0,0,1,1.68.408C40.224,19,39.528,22.648,37.416,22.648Zm13.752,2.688a6.693,6.693,0,0,0,2.352-.48l-.7-2.664a1.594,1.594,0,0,1-.864.24c-1.128,0-1.416-.864-1.416-2.184V7.624h-3.36v13.2C47.184,23.584,48.48,25.336,51.168,25.336Zm6.5-13.752A2.2,2.2,0,0,0,59.928,9.3a2.268,2.268,0,1,0-4.536,0A2.205,2.205,0,0,0,57.672,11.584ZM59.352,25V13.24h-3.36V25Zm9.576-12.12c-4.752,0-6.792,3.456-6.792,7.008,0,3.216,1.656,5.472,4.392,5.472,2.208,0,3.576-1.56,4.416-3.7L70.584,25h3.384V14.416A8.823,8.823,0,0,0,68.928,12.88ZM67.56,22.648c-1.08,0-1.92-.7-1.92-2.88,0-1.656.576-4.32,3.24-4.32a3.938,3.938,0,0,1,1.68.408C70.368,19,69.672,22.648,67.56,22.648ZM85.1,21.832a3.587,3.587,0,0,1-2.04.624,3.031,3.031,0,0,1-3.048-3.336,3.031,3.031,0,0,1,3.048-3.336,3.587,3.587,0,0,1,2.04.624l1.512-2.4A6.761,6.761,0,0,0,82.8,12.88a5.889,5.889,0,0,0-6.264,6.24,5.8,5.8,0,0,0,4.44,6.024l-.7,2.352c1.416,0,1.9.264,1.9.744,0,.552-.672.7-1.248.7a3.945,3.945,0,0,1-1.1-.168L79.2,30.616a6.424,6.424,0,0,0,2.232.36c2.088,0,3.768-.84,3.768-2.568,0-1.464-1.152-2.016-2.3-2.208l.216-.84a6.623,6.623,0,0,0,3.5-1.152ZM93.84,10.264c.84,0,1.536,1.032,3,1.032,1.416,0,2.4-1.056,3-2.9L97.416,7.5c-.336.648-.576,1.008-1.056,1.008-.816,0-1.584-1.032-3.024-1.032s-2.424,1.056-3.024,2.9l2.472.888C93.1,10.6,93.36,10.264,93.84,10.264Zm1.32,2.616c-4.752,0-6.792,3.456-6.792,7.008,0,3.216,1.656,5.472,4.392,5.472,2.208,0,3.576-1.56,4.416-3.7L96.816,25H100.2V14.416A8.823,8.823,0,0,0,95.16,12.88Zm-1.368,9.768c-1.08,0-1.92-.7-1.92-2.88,0-1.656.576-4.32,3.24-4.32a3.938,3.938,0,0,1,1.68.408C96.6,19,95.9,22.648,93.792,22.648Zm15.144,2.712a5.935,5.935,0,0,0,6.144-6.24,6.157,6.157,0,1,0-12.312,0A5.941,5.941,0,0,0,108.936,25.36Zm0-2.736c-1.776,0-2.688-1.632-2.688-3.5s.912-3.5,2.688-3.5c1.752,0,2.664,1.632,2.664,3.5S110.688,22.624,108.936,22.624ZM127.512,25l.528-9.5,3.936,7.008h2.256l3.96-7.008.528,9.5h3.336L141.12,8.2h-2.736l-5.28,9.768L127.848,8.2h-2.736L124.176,25Zm24.7-18.72-5.592,3.648,1.248,2.016,5.952-2.952ZM151.272,22.7a3.1,3.1,0,0,1-3.192-2.3l7.2-.84a6.2,6.2,0,0,0,.312-1.968c0-2.976-2.16-4.7-5.04-4.7-3.408,0-5.88,2.4-5.88,6.192,0,3.768,2.472,6.288,6.36,6.288a7.239,7.239,0,0,0,4.272-1.32l-1.248-2.184A5.387,5.387,0,0,1,151.272,22.7Zm-.528-7.224c1.056,0,1.824.552,1.824,1.584a1.855,1.855,0,0,1-.072.6l-4.56.552A2.878,2.878,0,0,1,150.744,15.472Zm15.408-2.448a9.245,9.245,0,0,0-1.656-.144c-4.752,0-6.792,3.456-6.792,7.008,0,3.216,1.656,5.472,4.392,5.472,2.208,0,3.576-1.584,4.416-3.72l-.36,3.36h3.384V7.624h-3.384Zm-3.024,9.624c-1.08,0-1.92-.7-1.92-2.88,0-1.656.576-4.32,3.24-4.32a3.938,3.938,0,0,1,1.68.408C165.936,19,165.24,22.648,163.128,22.648ZM174.48,11.584a2.2,2.2,0,0,0,2.256-2.28,2.268,2.268,0,1,0-4.536,0A2.205,2.205,0,0,0,174.48,11.584ZM176.16,25V13.24H172.8V25Zm9.576-12.12c-4.752,0-6.792,3.456-6.792,7.008,0,3.216,1.656,5.472,4.392,5.472,2.208,0,3.576-1.56,4.416-3.7L187.392,25h3.384V14.416A8.823,8.823,0,0,0,185.736,12.88Zm-1.368,9.768c-1.08,0-1.92-.7-1.92-2.88,0-1.656.576-4.32,3.24-4.32a3.938,3.938,0,0,1,1.68.408C187.176,19,186.48,22.648,184.368,22.648Zm24.12-9.624a9.245,9.245,0,0,0-1.656-.144c-4.752,0-6.792,3.456-6.792,7.008,0,3.216,1.656,5.472,4.392,5.472,2.208,0,3.576-1.584,4.416-3.72l-.36,3.36h3.384V7.624h-3.384Zm-3.024,9.624c-1.08,0-1.92-.7-1.92-2.88,0-1.656.576-4.32,3.24-4.32a3.938,3.938,0,0,1,1.68.408C208.272,19,207.576,22.648,205.464,22.648Zm15.048,2.712a5.935,5.935,0,0,0,6.144-6.24,6.157,6.157,0,1,0-12.312,0A5.941,5.941,0,0,0,220.512,25.36Zm0-2.736c-1.776,0-2.688-1.632-2.688-3.5s.912-3.5,2.688-3.5c1.752,0,2.664,1.632,2.664,3.5S222.264,22.624,220.512,22.624Zm12.672,2.736c2.9,0,5.016-1.248,5.016-3.96,0-4.176-6.072-2.952-6.072-4.8,0-.768.96-.984,1.848-.984a6.275,6.275,0,0,1,2.928.72l1.152-2.352a9.328,9.328,0,0,0-4.416-1.1c-2.424,0-4.9,1.008-4.9,3.7,0,4.392,6.1,3.12,6.1,5.064,0,.648-.648,1.008-1.824,1.008a7.347,7.347,0,0,1-3.648-1.032l-1.224,2.448A10.27,10.27,0,0,0,233.184,25.36Zm22.128-3c-3.12,0-4.992-2.472-4.992-5.76s1.872-5.76,4.992-5.76a5.73,5.73,0,0,1,3.336,1.056l1.56-2.448a8.687,8.687,0,0,0-5.16-1.608c-5.256,0-8.4,3.72-8.4,8.76,0,5.064,3.144,8.76,8.4,8.76a8.632,8.632,0,0,0,5.16-1.608l-1.56-2.448A5.893,5.893,0,0,1,255.312,22.36Zm12.072,2.976a6.693,6.693,0,0,0,2.352-.48l-.7-2.664a1.6,1.6,0,0,1-.864.24c-1.128,0-1.416-.864-1.416-2.184V7.624H263.4v13.2C263.4,23.584,264.7,25.336,267.384,25.336Zm6.5-13.752a2.2,2.2,0,0,0,2.256-2.28,2.268,2.268,0,1,0-4.536,0A2.205,2.205,0,0,0,273.888,11.584ZM275.568,25V13.24h-3.36V25Zm9.168-2.3a3.1,3.1,0,0,1-3.192-2.3l7.2-.84a6.2,6.2,0,0,0,.312-1.968c0-2.976-2.16-4.7-5.04-4.7-3.408,0-5.88,2.4-5.88,6.192,0,3.768,2.472,6.288,6.36,6.288a7.239,7.239,0,0,0,4.272-1.32l-1.248-2.184A5.387,5.387,0,0,1,284.736,22.7Zm-.528-7.224c1.056,0,1.824.552,1.824,1.584a1.855,1.855,0,0,1-.072.6l-4.56.552A2.878,2.878,0,0,1,284.208,15.472Zm15.048-2.592c-2.28,0-3.648,1.392-4.464,3.432l.288-3.072h-3.36V25h3.36c0-3.816.216-9.216,3.144-9.216,1.488,0,1.632,1.584,1.632,2.568V25h3.384V17.416C303.24,14.584,301.776,12.88,299.256,12.88Zm12.672,12.48a7.728,7.728,0,0,0,2.688-.5l-.7-2.64a3.431,3.431,0,0,1-1.2.24c-1.248,0-1.848-.744-1.848-2.232V15.9h3.288V13.24h-3.288V9.568H308.64l-.24,1.3c-.36,1.9-.552,2.376-2.712,2.376h-.36V15.9h2.184v4.9C307.512,23.608,309,25.36,311.928,25.36ZM322.656,22.7a3.1,3.1,0,0,1-3.192-2.3l7.2-.84a6.2,6.2,0,0,0,.312-1.968c0-2.976-2.16-4.7-5.04-4.7-3.408,0-5.88,2.4-5.88,6.192,0,3.768,2.472,6.288,6.36,6.288a7.239,7.239,0,0,0,4.272-1.32l-1.248-2.184A5.387,5.387,0,0,1,322.656,22.7Zm-.528-7.224c1.056,0,1.824.552,1.824,1.584a1.855,1.855,0,0,1-.072.6l-4.56.552A2.878,2.878,0,0,1,322.128,15.472Zm11.5,9.888c2.9,0,5.016-1.248,5.016-3.96,0-4.176-6.072-2.952-6.072-4.8,0-.768.96-.984,1.848-.984a6.275,6.275,0,0,1,2.928.72l1.152-2.352a9.328,9.328,0,0,0-4.416-1.1c-2.424,0-4.9,1.008-4.9,3.7,0,4.392,6.1,3.12,6.1,5.064,0,.648-.648,1.008-1.824,1.008a7.347,7.347,0,0,1-3.648-1.032l-1.224,2.448A10.27,10.27,0,0,0,333.624,25.36Z" transform="translate(904.739 9137.005)" fill="#fff"/>
    <path id="Caminho_772005" data-name="Caminho 772005" d="M6.7,7.84A29.324,29.324,0,0,0,1.872,8.3V25H5.4V19.6c.48.024.96.048,1.368.048,5.16,0,7.68-2.4,7.68-5.9C14.448,10.264,11.928,7.84,6.7,7.84ZM6.768,16.7q-.612,0-1.368-.072v-5.76q.756-.072,1.368-.072c2.664,0,4.008,1.056,4.008,2.952C10.776,15.664,9.432,16.7,6.768,16.7ZM24.384,12.88c-2.592,0-3.888,1.92-4.56,4.488l.408-4.128h-3.36V25h3.36c0-3.888.24-8.64,3.432-8.64a3.808,3.808,0,0,1,1.2.216l.888-3.5A4.957,4.957,0,0,0,24.384,12.88ZM32.9,25.36a5.935,5.935,0,0,0,6.144-6.24A5.922,5.922,0,0,0,32.9,12.88a5.928,5.928,0,0,0-6.168,6.24A5.941,5.941,0,0,0,32.9,25.36Zm0-2.736c-1.776,0-2.688-1.632-2.688-3.5s.912-3.5,2.688-3.5c1.752,0,2.664,1.632,2.664,3.5S34.656,22.624,32.9,22.624Zm16.56-9.6a9.245,9.245,0,0,0-1.656-.144c-4.752,0-6.792,3.456-6.792,7.008,0,3.216,1.656,5.472,4.392,5.472,2.208,0,3.576-1.584,4.416-3.72L49.464,25h3.384V7.624H49.464ZM46.44,22.648c-1.08,0-1.92-.7-1.92-2.88,0-1.656.576-4.32,3.24-4.32a3.938,3.938,0,0,1,1.68.408C49.248,19,48.552,22.648,46.44,22.648Zm21-9.408H64.056c0,3.816-.12,9.216-3,9.216-1.488,0-1.776-1.56-1.776-2.568V13.24H55.92v7.752a4.02,4.02,0,0,0,4.272,4.368c2.064,0,3.336-1.224,4.128-3.048L64.056,25H67.44Zm8.88,12.12a7.728,7.728,0,0,0,2.688-.5l-.7-2.64a3.431,3.431,0,0,1-1.2.24c-1.248,0-1.848-.744-1.848-2.232V15.9h3.288V13.24H75.264V9.568H73.032l-.24,1.3c-.36,1.9-.552,2.376-2.712,2.376h-.36V15.9H71.9v4.9C71.9,23.608,73.392,25.36,76.32,25.36Zm10.3,0a5.935,5.935,0,0,0,6.144-6.24,6.157,6.157,0,1,0-12.312,0A5.941,5.941,0,0,0,86.616,25.36Zm0-2.736c-1.776,0-2.688-1.632-2.688-3.5s.912-3.5,2.688-3.5c1.752,0,2.664,1.632,2.664,3.5S88.368,22.624,86.616,22.624Z" transform="translate(1301.71 9137.005)" fill="#fff"/>
    <path id="Caminho_772012" data-name="Caminho 772012" d="M6.867,5.371c-3.906,0-6.153,2.52-6.153,7.014,0,4.347,2.121,6.783,5.9,6.783a7.806,7.806,0,0,0,3.57-.882l.168-1.974-.21-.126a5.655,5.655,0,0,1-3.36,1.155c-2.415,0-3.8-1.764-3.8-5.187,0-3.318,1.344-4.977,3.8-4.977A4.991,4.991,0,0,1,9.891,8.269l.21-.063L10.5,6.3A7.12,7.12,0,0,0,6.867,5.371ZM15.876,9.13a6.729,6.729,0,0,0-3.78,1.26l.273,1.491.168.105a4.783,4.783,0,0,1,3-1.344,1.382,1.382,0,0,1,1.512,1.575l-.021,1.134-3.318.735a2.237,2.237,0,0,0-2.037,2.331c0,1.68,1.155,2.73,3.108,2.751a6.149,6.149,0,0,0,2.184-1.575h.147a1.635,1.635,0,0,0,1.533,1.554,3.422,3.422,0,0,0,1.323-.462l.21-1.176-.189-.147a3.212,3.212,0,0,1-.63.084c-.441,0-.609-.168-.609-.714,0-.714.252-4.242.252-4.977C19.005,10.1,17.787,9.13,15.876,9.13Zm1.155,5.46-.063,1.617a2.965,2.965,0,0,1-2.1,1.281,1.21,1.21,0,0,1-1.281-1.344.775.775,0,0,1,.714-.9ZM34.083,19h2.163l-.1-4.242.063-2.73c.021-1.806-1.092-2.835-3.255-2.835a7.616,7.616,0,0,0-2.772,1.575h-.126c-.42-1.008-1.449-1.575-3.024-1.575a6.974,6.974,0,0,0-2.583,1.491H24.3l.021-1.407-2.037.189.1,5.481L22.26,19h2.121l-.1-4.242L24.3,12.2a3.767,3.767,0,0,1,2.52-1.26c1.008,0,1.512.651,1.491,1.7L28.161,19H30.3l-.084-4.242.042-2.6a3.7,3.7,0,0,1,2.478-1.218c1.008,0,1.512.651,1.491,1.7ZM40.194,4.8a1.136,1.136,0,0,0-1.218,1.218A1.066,1.066,0,0,0,40.131,7.2a1.131,1.131,0,0,0,1.176-1.239A1.039,1.039,0,0,0,40.194,4.8Zm.84,9.954L41.2,9.277l-2.142.189.1,5.481L39.039,19h2.142ZM47.1,9.151c-2.226,0-3.528,1.26-3.528,2.919,0,3.045,4.347,2.646,4.347,4.431a1.342,1.342,0,0,1-1.491,1.239,4.437,4.437,0,0,1-2.688-1.134l-.231.147-.252,1.785a7.6,7.6,0,0,0,2.94.651c2.415,0,3.633-1.491,3.633-3.045,0-2.961-4.347-2.583-4.347-4.347a1.226,1.226,0,0,1,1.365-1.155,3.917,3.917,0,0,1,2.142.735l.273-.063.294-1.68A6.649,6.649,0,0,0,47.1,9.151Zm11.991,5.1.357-.336a8.182,8.182,0,0,0,.084-1.05c0-2.31-1.281-3.717-3.528-3.717-2.814,0-4.641,1.911-4.641,5.061,0,3.066,1.68,4.977,4.578,4.977a6.816,6.816,0,0,0,2.94-.714l.252-1.7-.189-.126a5.765,5.765,0,0,1-2.835.882c-1.848,0-2.73-1.2-2.772-3.276Zm-1.512-1.407-4.137.1a2.461,2.461,0,0,1,2.436-2.331c1.05,0,1.743.609,1.743,1.974Zm7.581,4.536c-.861,0-1.239-.336-1.218-1.386l.105-5.271h2.709l.1-1.218-.084-.147H64.092l.042-2.079-.189-.168-1.89.714V9.361H60.774L60.669,10.6l.084.126h1.323l.021,4.095-.084,1.512a2.506,2.506,0,0,0,2.478,2.793,6.063,6.063,0,0,0,2.142-.63l.21-1.344L66.633,17A3.311,3.311,0,0,1,65.163,17.383Zm6.93-8.253a6.729,6.729,0,0,0-3.78,1.26l.273,1.491.168.105a4.783,4.783,0,0,1,3-1.344,1.382,1.382,0,0,1,1.512,1.575l-.021,1.134-3.318.735a2.237,2.237,0,0,0-2.037,2.331c0,1.68,1.155,2.73,3.108,2.751a6.149,6.149,0,0,0,2.184-1.575h.147a1.635,1.635,0,0,0,1.533,1.554,3.422,3.422,0,0,0,1.323-.462l.21-1.176-.189-.147a3.212,3.212,0,0,1-.63.084c-.441,0-.609-.168-.609-.714,0-.714.252-4.242.252-4.977C75.222,10.1,74,9.13,72.093,9.13Zm1.155,5.46-.063,1.617a2.965,2.965,0,0,1-2.1,1.281A1.21,1.21,0,0,1,69.8,16.144a.775.775,0,0,1,.714-.9ZM81.4,9.151c-2.226,0-3.528,1.26-3.528,2.919,0,3.045,4.347,2.646,4.347,4.431a1.342,1.342,0,0,1-1.491,1.239,4.437,4.437,0,0,1-2.688-1.134l-.231.147-.252,1.785a7.6,7.6,0,0,0,2.94.651c2.415,0,3.633-1.491,3.633-3.045,0-2.961-4.347-2.583-4.347-4.347a1.226,1.226,0,0,1,1.365-1.155,3.917,3.917,0,0,1,2.142.735l.273-.063.294-1.68A6.649,6.649,0,0,0,81.4,9.151ZM93.45,9.13c-2.772,0-4.431,1.953-4.431,5.124,0,3.066,1.554,4.935,4.179,4.935a7.5,7.5,0,0,0,2.562-.483l.21-1.722-.189-.126a5.051,5.051,0,0,1-2.247.63c-1.6,0-2.5-1.26-2.5-3.4,0-2.037.882-3.192,2.373-3.192a4.163,4.163,0,0,1,2.058.651l.21-.084.357-1.785A6.3,6.3,0,0,0,93.45,9.13Zm8.148,0c-2.9,0-4.515,1.869-4.515,5.187,0,3.108,1.533,4.872,4.242,4.872,2.9,0,4.515-1.869,4.515-5.187C105.84,10.894,104.307,9.13,101.6,9.13Zm-.126,1.491c1.575,0,2.373,1.218,2.373,3.864,0,2.2-.8,3.234-2.373,3.234-1.6,0-2.394-1.2-2.394-3.864C99.078,11.692,99.876,10.621,101.472,10.621ZM119.952,19h2.163l-.1-4.242.063-2.73c.021-1.806-1.092-2.835-3.255-2.835a7.616,7.616,0,0,0-2.772,1.575h-.126c-.42-1.008-1.449-1.575-3.024-1.575a6.974,6.974,0,0,0-2.583,1.491h-.147l.021-1.407-2.037.189.1,5.481L108.129,19h2.121l-.1-4.242.021-2.562a3.767,3.767,0,0,1,2.52-1.26c1.008,0,1.512.651,1.491,1.7L114.03,19h2.142l-.084-4.242.042-2.6a3.7,3.7,0,0,1,2.478-1.218c1.008,0,1.512.651,1.491,1.7Zm12.81-14.784c-2.415,0-3.822,1.3-3.8,3.7l.021,1.449h-1.428l-.105,1.239.084.126h1.449l.042,4.2L128.9,19h2.142l-.147-4.263.063-4.011h2.436l.126-1.218-.063-.147h-2.478L131,7.555c.021-1.218.588-1.806,1.575-1.806a3.846,3.846,0,0,1,1.617.4l.147-.126.126-1.617A8.114,8.114,0,0,0,132.762,4.216Zm6.93,5.082a3.1,3.1,0,0,0-2.646,1.911H136.9l.021-1.932-2.037.189.126,5.481L134.862,19H137l-.147-4.242.021-1.386c.735-1.449,1.47-2.037,2.331-2.037a2.939,2.939,0,0,1,.777.1l.231-.063V9.34A4.091,4.091,0,0,0,139.692,9.3Zm5.418-.168a6.729,6.729,0,0,0-3.78,1.26l.273,1.491.168.105a4.783,4.783,0,0,1,3-1.344,1.382,1.382,0,0,1,1.512,1.575l-.021,1.134-3.318.735a2.237,2.237,0,0,0-2.037,2.331c0,1.68,1.155,2.73,3.108,2.751a6.149,6.149,0,0,0,2.184-1.575h.147a1.635,1.635,0,0,0,1.533,1.554,3.422,3.422,0,0,0,1.323-.462l.21-1.176-.189-.147a3.212,3.212,0,0,1-.63.084c-.441,0-.609-.168-.609-.714,0-.714.252-4.242.252-4.977C148.239,10.1,147.021,9.13,145.11,9.13Zm1.155,5.46-.063,1.617a2.965,2.965,0,0,1-2.1,1.281,1.21,1.21,0,0,1-1.281-1.344.775.775,0,0,1,.714-.9Zm8.148-5.439c-2.226,0-3.528,1.26-3.528,2.919,0,3.045,4.347,2.646,4.347,4.431a1.342,1.342,0,0,1-1.491,1.239,4.437,4.437,0,0,1-2.688-1.134l-.231.147-.252,1.785a7.6,7.6,0,0,0,2.94.651c2.415,0,3.633-1.491,3.633-3.045,0-2.961-4.347-2.583-4.347-4.347a1.226,1.226,0,0,1,1.365-1.155,3.917,3.917,0,0,1,2.142.735l.273-.063.294-1.68A6.649,6.649,0,0,0,154.413,9.151Zm11.991,5.1.357-.336a8.181,8.181,0,0,0,.084-1.05c0-2.31-1.281-3.717-3.528-3.717-2.814,0-4.641,1.911-4.641,5.061,0,3.066,1.68,4.977,4.578,4.977a6.816,6.816,0,0,0,2.94-.714l.252-1.7-.189-.126a5.765,5.765,0,0,1-2.835.882c-1.848,0-2.73-1.2-2.772-3.276Zm-1.512-1.407-4.137.1a2.461,2.461,0,0,1,2.436-2.331c1.05,0,1.743.609,1.743,1.974Zm7.077-3.7c-2.226,0-3.528,1.26-3.528,2.919,0,3.045,4.347,2.646,4.347,4.431A1.342,1.342,0,0,1,171.3,17.74a4.437,4.437,0,0,1-2.688-1.134l-.231.147-.252,1.785a7.6,7.6,0,0,0,2.94.651c2.415,0,3.633-1.491,3.633-3.045,0-2.961-4.347-2.583-4.347-4.347a1.226,1.226,0,0,1,1.365-1.155,3.917,3.917,0,0,1,2.142.735l.273-.063.294-1.68A6.649,6.649,0,0,0,171.969,9.151Zm15.918,5.586.168-10.479-2.142.168.042,4.893a8.851,8.851,0,0,0-1.638-.168c-2.961,0-4.767,1.806-4.767,5.04,0,3.108,1.533,4.935,4.347,4.935a8.577,8.577,0,0,0,2.184-1.449h.168a1.663,1.663,0,0,0,1.554,1.47,3.4,3.4,0,0,0,1.344-.462l.189-1.176-.189-.147a3.036,3.036,0,0,1-.651.084c-.4,0-.525-.168-.546-.693Zm-3.78-4.116a4.337,4.337,0,0,1,1.869.483l.063,3.822L186,16.291a2.684,2.684,0,0,1-2.058,1.092c-1.47,0-2.352-1.2-2.373-3.444C181.524,11.692,182.532,10.621,184.107,10.621Zm10.92-1.491c-2.9,0-4.515,1.869-4.515,5.187,0,3.108,1.533,4.872,4.242,4.872,2.9,0,4.515-1.869,4.515-5.187C199.269,10.894,197.736,9.13,195.027,9.13Zm-.126,1.491c1.575,0,2.373,1.218,2.373,3.864,0,2.2-.8,3.234-2.373,3.234-1.6,0-2.394-1.2-2.394-3.864C192.507,11.692,193.3,10.621,194.9,10.621Zm9.576-1.47c-2.226,0-3.528,1.26-3.528,2.919,0,3.045,4.347,2.646,4.347,4.431A1.342,1.342,0,0,1,203.8,17.74a4.437,4.437,0,0,1-2.688-1.134l-.231.147-.252,1.785a7.6,7.6,0,0,0,2.94.651c2.415,0,3.633-1.491,3.633-3.045,0-2.961-4.347-2.583-4.347-4.347a1.226,1.226,0,0,1,1.365-1.155,3.917,3.917,0,0,1,2.142.735l.273-.063.294-1.68A6.649,6.649,0,0,0,204.477,9.151ZM216.3,9.13a6.729,6.729,0,0,0-3.78,1.26l.273,1.491.168.105a4.783,4.783,0,0,1,3-1.344,1.382,1.382,0,0,1,1.512,1.575l-.021,1.134-3.318.735a2.237,2.237,0,0,0-2.037,2.331c0,1.68,1.155,2.73,3.108,2.751a6.149,6.149,0,0,0,2.184-1.575h.147a1.635,1.635,0,0,0,1.533,1.554,3.422,3.422,0,0,0,1.323-.462l.21-1.176-.189-.147a3.212,3.212,0,0,1-.63.084c-.441,0-.609-.168-.609-.714,0-.714.252-4.242.252-4.977C219.429,10.1,218.211,9.13,216.3,9.13Zm1.155,5.46-.063,1.617a2.965,2.965,0,0,1-2.1,1.281,1.21,1.21,0,0,1-1.281-1.344.775.775,0,0,1,.714-.9ZM228.585,19h2.163l-.105-4.242.063-2.73c.021-1.806-1.092-2.835-3.255-2.835a7.141,7.141,0,0,0-2.583,1.491h-.147l.021-1.407-2.037.189.105,5.481L222.684,19h2.142l-.126-4.242.021-2.562a3.767,3.767,0,0,1,2.52-1.26c1.008,0,1.512.651,1.491,1.7Zm8.82-9.87c-2.9,0-4.515,1.869-4.515,5.187,0,3.108,1.533,4.872,4.242,4.872,2.9,0,4.515-1.869,4.515-5.187C241.647,10.894,240.114,9.13,237.4,9.13Zm-.126,1.491c1.575,0,2.373,1.218,2.373,3.864,0,2.2-.8,3.234-2.373,3.234-1.6,0-2.394-1.2-2.394-3.864C234.885,11.692,235.683,10.621,237.279,10.621Zm9.576-1.47c-2.226,0-3.528,1.26-3.528,2.919,0,3.045,4.347,2.646,4.347,4.431a1.342,1.342,0,0,1-1.491,1.239,4.437,4.437,0,0,1-2.688-1.134l-.231.147-.252,1.785a7.6,7.6,0,0,0,2.94.651c2.415,0,3.633-1.491,3.633-3.045,0-2.961-4.347-2.583-4.347-4.347a1.226,1.226,0,0,1,1.365-1.155,3.917,3.917,0,0,1,2.142.735l.273-.063.294-1.68A6.649,6.649,0,0,0,246.855,9.151Zm12.6,2.415a4.339,4.339,0,0,0-2.478.777l-.147-.168c.672-1.995,2.415-3.36,5.607-4.494v-.21l-1.6-.966h-.126c-3.906,1.617-6.153,4.515-6.153,8.043,0,2.9,1.365,4.641,4.053,4.641a3.9,3.9,0,0,0,4.242-4.032A3.281,3.281,0,0,0,259.455,11.566Zm-.693,6.174c-1.617,0-2.268-1.092-2.268-3.234l.021-.5a3.826,3.826,0,0,1,2.331-.9c1.344,0,2.1.84,2.1,2.352A2.041,2.041,0,0,1,258.762,17.74Zm10.584-9.408c-3.024,0-4.767,2.037-4.767,5.586,0,3.339,1.638,5.25,4.494,5.25,3.024,0,4.725-2.016,4.725-5.544C273.8,10.243,272.181,8.332,269.346,8.332Zm-.168,1.974c1.932,0,2.961,1.176,2.961,3.57,0,2.268-1.008,3.4-2.94,3.4-1.974,0-2.94-1.176-2.94-3.507S267.225,10.306,269.178,10.306Z" transform="translate(481 9190.005)"/>
    <path id="Caminho_772011" data-name="Caminho 772011" d="M4.116,8.353A5.663,5.663,0,0,0,.588,9.634L.9,11.251h.231A4.077,4.077,0,0,1,3.7,10.1a1.457,1.457,0,0,1,1.659,1.47,2.313,2.313,0,0,1-2.331,2.121l-.924.021-.063,1.47.126.147H3.486c1.554.063,2.373.735,2.373,1.89,0,1.344-1.113,2.163-2.835,2.163A5.641,5.641,0,0,1,.8,18.916l-.147.147.105,1.764a14.534,14.534,0,0,0,2.163.189c2.982,0,4.977-1.6,4.977-3.969A2.793,2.793,0,0,0,5.46,14.275v-.084A3.532,3.532,0,0,0,7.518,11.1C7.518,9.466,6.153,8.353,4.116,8.353Z" transform="translate(904.739 9190.005)"/>
    <path id="Caminho_772006" data-name="Caminho 772006" d="M5.04,8.6l-.315-.231L.21,9.7v1.7l.189.126,2.562-.714.021,4.074L2.856,19H5.019l-.105-4.347Zm10.437-.084-.126-.147-2.058.105H10.374L9.219,8.416l-.294.294L8.82,14.38l.168.189,1.869.357c1.764.315,2.457.966,2.457,2.079,0,1.407-1.092,2.373-2.835,2.373a5.822,5.822,0,0,1-2.394-.525l-.168.168.147,1.806a11.921,11.921,0,0,0,2.121.231c3.024,0,5.145-1.785,5.145-4.389,0-1.659-.882-2.772-3.528-3.318l-1.3-.273.063-2.877h2.814l1.722.147.147-.147Zm6.447-.189c-3.024,0-4.767,2.037-4.767,5.586,0,3.339,1.638,5.25,4.494,5.25,3.024,0,4.725-2.016,4.725-5.544C26.376,10.243,24.759,8.332,21.924,8.332Zm-.168,1.974c1.932,0,2.961,1.176,2.961,3.57,0,2.268-1.008,3.4-2.94,3.4-1.974,0-2.94-1.176-2.94-3.507S19.8,10.306,21.756,10.306Z" transform="translate(1301.71 9190.005)"/>
    <path id="Caminho_772010" data-name="Caminho 772010" d="M9.555,17.614l.1-1.512-.126-.189H7.644l.063-7.434H5.733L.5,16.039v1.386l.147.189,1.575-.042h3.7L5.859,20.89l.126.147,1.638-.126.126-.168-.084-3.171Zm-7.182-1.7,3.4-4.935h.168v4.935Zm10.731.861a5.356,5.356,0,0,0-1.533.693v.189a1.326,1.326,0,0,1,.651,1.113A2.55,2.55,0,0,1,11.067,20.7l.021.168.693.63c1.491-1.071,2.226-2.1,2.226-3.15A1.9,1.9,0,0,0,13.1,16.774ZM23.2,8.521l-.126-.147-2.058.105H18.1l-1.155-.063-.294.294-.1,5.67.168.189,1.869.357c1.764.315,2.457.966,2.457,2.079,0,1.407-1.092,2.373-2.835,2.373a5.822,5.822,0,0,1-2.394-.525l-.168.168.147,1.806a11.921,11.921,0,0,0,2.121.231c3.024,0,5.145-1.785,5.145-4.389,0-1.659-.882-2.772-3.528-3.318l-1.3-.273.063-2.877H21.1l1.722.147.147-.147Z" transform="translate(904.739 9238.005)"/>
    <path id="Caminho_772007" data-name="Caminho 772007" d="M4.116,8.353A5.663,5.663,0,0,0,.588,9.634L.9,11.251h.231A4.077,4.077,0,0,1,3.7,10.1a1.457,1.457,0,0,1,1.659,1.47,2.313,2.313,0,0,1-2.331,2.121l-.924.021-.063,1.47.126.147H3.486c1.554.063,2.373.735,2.373,1.89,0,1.344-1.113,2.163-2.835,2.163A5.641,5.641,0,0,1,.8,18.916l-.147.147.105,1.764a14.534,14.534,0,0,0,2.163.189c2.982,0,4.977-1.6,4.977-3.969A2.793,2.793,0,0,0,5.46,14.275v-.084A3.532,3.532,0,0,0,7.518,11.1C7.518,9.466,6.153,8.353,4.116,8.353Zm12.81.168L16.8,8.374l-2.058.105H11.823l-1.155-.063-.294.294-.1,5.67.168.189,1.869.357c1.764.315,2.457.966,2.457,2.079,0,1.407-1.092,2.373-2.835,2.373a5.822,5.822,0,0,1-2.394-.525l-.168.168.147,1.806a11.921,11.921,0,0,0,2.121.231c3.024,0,5.145-1.785,5.145-4.389,0-1.659-.882-2.772-3.528-3.318l-1.3-.273.063-2.877h2.814l1.722.147.147-.147Zm6.447-.189c-3.024,0-4.767,2.037-4.767,5.586,0,3.339,1.638,5.25,4.494,5.25,3.024,0,4.725-2.016,4.725-5.544C27.825,10.243,26.208,8.332,23.373,8.332ZM23.2,10.306c1.932,0,2.961,1.176,2.961,3.57,0,2.268-1.008,3.4-2.94,3.4-1.974,0-2.94-1.176-2.94-3.507S21.252,10.306,23.2,10.306Z" transform="translate(1301.71 9238.005)"/>
    <path id="Caminho_772009" data-name="Caminho 772009" d="M9.555,17.614l.1-1.512-.126-.189H7.644l.063-7.434H5.733L.5,16.039v1.386l.147.189,1.575-.042h3.7L5.859,20.89l.126.147,1.638-.126.126-.168-.084-3.171Zm-7.182-1.7,3.4-4.935h.168v4.935Z" transform="translate(904.739 9286.005)"/>
    <path id="Caminho_772008" data-name="Caminho 772008" d="M4.935,8.374A6.4,6.4,0,0,0,1.05,9.886l.357,1.659h.231A4.175,4.175,0,0,1,4.473,10.2c.924,0,1.428.483,1.428,1.134,0,.819-.735,1.806-2.1,3.276L.924,17.635v1.323l.1.084L1.806,19H6.552l2.31.1.273-1.764-.147-.147-1.827.168H3.738l-.042-.1,1.869-2.121C7.245,13.246,8,11.944,8,10.81,8,9.319,6.7,8.374,4.935,8.374Zm12.873.147-.126-.147-2.058.105H12.7L11.55,8.416l-.294.294-.1,5.67.168.189,1.869.357c1.764.315,2.457.966,2.457,2.079,0,1.407-1.092,2.373-2.835,2.373a5.822,5.822,0,0,1-2.394-.525l-.168.168.147,1.806a11.921,11.921,0,0,0,2.121.231c3.024,0,5.145-1.785,5.145-4.389,0-1.659-.882-2.772-3.528-3.318l-1.3-.273.063-2.877h2.814l1.722.147.147-.147Zm6.447-.189c-3.024,0-4.767,2.037-4.767,5.586,0,3.339,1.638,5.25,4.494,5.25,3.024,0,4.725-2.016,4.725-5.544C28.707,10.243,27.09,8.332,24.255,8.332Zm-.168,1.974c1.932,0,2.961,1.176,2.961,3.57,0,2.268-1.008,3.4-2.94,3.4-1.974,0-2.94-1.176-2.94-3.507S22.134,10.306,24.087,10.306Z" transform="translate(1301.71 9286.005)"/>
    <path id="Caminho_772013" data-name="Caminho 772013" d="M6.867,5.371c-3.906,0-6.153,2.52-6.153,7.014,0,4.347,2.121,6.783,5.9,6.783a7.806,7.806,0,0,0,3.57-.882l.168-1.974-.21-.126a5.655,5.655,0,0,1-3.36,1.155c-2.415,0-3.8-1.764-3.8-5.187,0-3.318,1.344-4.977,3.8-4.977A4.991,4.991,0,0,1,9.891,8.269l.21-.063L10.5,6.3A7.12,7.12,0,0,0,6.867,5.371ZM15.876,9.13a6.729,6.729,0,0,0-3.78,1.26l.273,1.491.168.105a4.783,4.783,0,0,1,3-1.344,1.382,1.382,0,0,1,1.512,1.575l-.021,1.134-3.318.735a2.237,2.237,0,0,0-2.037,2.331c0,1.68,1.155,2.73,3.108,2.751a6.149,6.149,0,0,0,2.184-1.575h.147a1.635,1.635,0,0,0,1.533,1.554,3.422,3.422,0,0,0,1.323-.462l.21-1.176-.189-.147a3.212,3.212,0,0,1-.63.084c-.441,0-.609-.168-.609-.714,0-.714.252-4.242.252-4.977C19.005,10.1,17.787,9.13,15.876,9.13Zm1.155,5.46-.063,1.617a2.965,2.965,0,0,1-2.1,1.281,1.21,1.21,0,0,1-1.281-1.344.775.775,0,0,1,.714-.9ZM34.083,19h2.163l-.1-4.242.063-2.73c.021-1.806-1.092-2.835-3.255-2.835a7.616,7.616,0,0,0-2.772,1.575h-.126c-.42-1.008-1.449-1.575-3.024-1.575a6.974,6.974,0,0,0-2.583,1.491H24.3l.021-1.407-2.037.189.1,5.481L22.26,19h2.121l-.1-4.242L24.3,12.2a3.767,3.767,0,0,1,2.52-1.26c1.008,0,1.512.651,1.491,1.7L28.161,19H30.3l-.084-4.242.042-2.6a3.7,3.7,0,0,1,2.478-1.218c1.008,0,1.512.651,1.491,1.7ZM40.194,4.8a1.136,1.136,0,0,0-1.218,1.218A1.066,1.066,0,0,0,40.131,7.2a1.131,1.131,0,0,0,1.176-1.239A1.039,1.039,0,0,0,40.194,4.8Zm.84,9.954L41.2,9.277l-2.142.189.1,5.481L39.039,19h2.142ZM47.1,9.151c-2.226,0-3.528,1.26-3.528,2.919,0,3.045,4.347,2.646,4.347,4.431a1.342,1.342,0,0,1-1.491,1.239,4.437,4.437,0,0,1-2.688-1.134l-.231.147-.252,1.785a7.6,7.6,0,0,0,2.94.651c2.415,0,3.633-1.491,3.633-3.045,0-2.961-4.347-2.583-4.347-4.347a1.226,1.226,0,0,1,1.365-1.155,3.917,3.917,0,0,1,2.142.735l.273-.063.294-1.68A6.649,6.649,0,0,0,47.1,9.151Zm11.991,5.1.357-.336a8.182,8.182,0,0,0,.084-1.05c0-2.31-1.281-3.717-3.528-3.717-2.814,0-4.641,1.911-4.641,5.061,0,3.066,1.68,4.977,4.578,4.977a6.816,6.816,0,0,0,2.94-.714l.252-1.7-.189-.126a5.765,5.765,0,0,1-2.835.882c-1.848,0-2.73-1.2-2.772-3.276Zm-1.512-1.407-4.137.1a2.461,2.461,0,0,1,2.436-2.331c1.05,0,1.743.609,1.743,1.974Zm7.581,4.536c-.861,0-1.239-.336-1.218-1.386l.105-5.271h2.709l.1-1.218-.084-.147H64.092l.042-2.079-.189-.168-1.89.714V9.361H60.774L60.669,10.6l.084.126h1.323l.021,4.095-.084,1.512a2.506,2.506,0,0,0,2.478,2.793,6.063,6.063,0,0,0,2.142-.63l.21-1.344L66.633,17A3.311,3.311,0,0,1,65.163,17.383Zm6.93-8.253a6.729,6.729,0,0,0-3.78,1.26l.273,1.491.168.105a4.783,4.783,0,0,1,3-1.344,1.382,1.382,0,0,1,1.512,1.575l-.021,1.134-3.318.735a2.237,2.237,0,0,0-2.037,2.331c0,1.68,1.155,2.73,3.108,2.751a6.149,6.149,0,0,0,2.184-1.575h.147a1.635,1.635,0,0,0,1.533,1.554,3.422,3.422,0,0,0,1.323-.462l.21-1.176-.189-.147a3.212,3.212,0,0,1-.63.084c-.441,0-.609-.168-.609-.714,0-.714.252-4.242.252-4.977C75.222,10.1,74,9.13,72.093,9.13Zm1.155,5.46-.063,1.617a2.965,2.965,0,0,1-2.1,1.281A1.21,1.21,0,0,1,69.8,16.144a.775.775,0,0,1,.714-.9ZM81.4,9.151c-2.226,0-3.528,1.26-3.528,2.919,0,3.045,4.347,2.646,4.347,4.431a1.342,1.342,0,0,1-1.491,1.239,4.437,4.437,0,0,1-2.688-1.134l-.231.147-.252,1.785a7.6,7.6,0,0,0,2.94.651c2.415,0,3.633-1.491,3.633-3.045,0-2.961-4.347-2.583-4.347-4.347a1.226,1.226,0,0,1,1.365-1.155,3.917,3.917,0,0,1,2.142.735l.273-.063.294-1.68A6.649,6.649,0,0,0,81.4,9.151ZM93.45,9.13c-2.772,0-4.431,1.953-4.431,5.124,0,3.066,1.554,4.935,4.179,4.935a7.5,7.5,0,0,0,2.562-.483l.21-1.722-.189-.126a5.051,5.051,0,0,1-2.247.63c-1.6,0-2.5-1.26-2.5-3.4,0-2.037.882-3.192,2.373-3.192a4.163,4.163,0,0,1,2.058.651l.21-.084.357-1.785A6.3,6.3,0,0,0,93.45,9.13Zm8.148,0c-2.9,0-4.515,1.869-4.515,5.187,0,3.108,1.533,4.872,4.242,4.872,2.9,0,4.515-1.869,4.515-5.187C105.84,10.894,104.307,9.13,101.6,9.13Zm-.126,1.491c1.575,0,2.373,1.218,2.373,3.864,0,2.2-.8,3.234-2.373,3.234-1.6,0-2.394-1.2-2.394-3.864C99.078,11.692,99.876,10.621,101.472,10.621ZM119.952,19h2.163l-.1-4.242.063-2.73c.021-1.806-1.092-2.835-3.255-2.835a7.616,7.616,0,0,0-2.772,1.575h-.126c-.42-1.008-1.449-1.575-3.024-1.575a6.974,6.974,0,0,0-2.583,1.491h-.147l.021-1.407-2.037.189.1,5.481L108.129,19h2.121l-.1-4.242.021-2.562a3.767,3.767,0,0,1,2.52-1.26c1.008,0,1.512.651,1.491,1.7L114.03,19h2.142l-.084-4.242.042-2.6a3.7,3.7,0,0,1,2.478-1.218c1.008,0,1.512.651,1.491,1.7Zm12.81-14.784c-2.415,0-3.822,1.3-3.8,3.7l.021,1.449h-1.428l-.105,1.239.084.126h1.449l.042,4.2L128.9,19h2.142l-.147-4.263.063-4.011h2.436l.126-1.218-.063-.147h-2.478L131,7.555c.021-1.218.588-1.806,1.575-1.806a3.846,3.846,0,0,1,1.617.4l.147-.126.126-1.617A8.114,8.114,0,0,0,132.762,4.216Zm6.93,5.082a3.1,3.1,0,0,0-2.646,1.911H136.9l.021-1.932-2.037.189.126,5.481L134.862,19H137l-.147-4.242.021-1.386c.735-1.449,1.47-2.037,2.331-2.037a2.939,2.939,0,0,1,.777.1l.231-.063V9.34A4.091,4.091,0,0,0,139.692,9.3Zm5.418-.168a6.729,6.729,0,0,0-3.78,1.26l.273,1.491.168.105a4.783,4.783,0,0,1,3-1.344,1.382,1.382,0,0,1,1.512,1.575l-.021,1.134-3.318.735a2.237,2.237,0,0,0-2.037,2.331c0,1.68,1.155,2.73,3.108,2.751a6.149,6.149,0,0,0,2.184-1.575h.147a1.635,1.635,0,0,0,1.533,1.554,3.422,3.422,0,0,0,1.323-.462l.21-1.176-.189-.147a3.212,3.212,0,0,1-.63.084c-.441,0-.609-.168-.609-.714,0-.714.252-4.242.252-4.977C148.239,10.1,147.021,9.13,145.11,9.13Zm1.155,5.46-.063,1.617a2.965,2.965,0,0,1-2.1,1.281,1.21,1.21,0,0,1-1.281-1.344.775.775,0,0,1,.714-.9Zm8.148-5.439c-2.226,0-3.528,1.26-3.528,2.919,0,3.045,4.347,2.646,4.347,4.431a1.342,1.342,0,0,1-1.491,1.239,4.437,4.437,0,0,1-2.688-1.134l-.231.147-.252,1.785a7.6,7.6,0,0,0,2.94.651c2.415,0,3.633-1.491,3.633-3.045,0-2.961-4.347-2.583-4.347-4.347a1.226,1.226,0,0,1,1.365-1.155,3.917,3.917,0,0,1,2.142.735l.273-.063.294-1.68A6.649,6.649,0,0,0,154.413,9.151Zm11.991,5.1.357-.336a8.181,8.181,0,0,0,.084-1.05c0-2.31-1.281-3.717-3.528-3.717-2.814,0-4.641,1.911-4.641,5.061,0,3.066,1.68,4.977,4.578,4.977a6.816,6.816,0,0,0,2.94-.714l.252-1.7-.189-.126a5.765,5.765,0,0,1-2.835.882c-1.848,0-2.73-1.2-2.772-3.276Zm-1.512-1.407-4.137.1a2.461,2.461,0,0,1,2.436-2.331c1.05,0,1.743.609,1.743,1.974Zm7.077-3.7c-2.226,0-3.528,1.26-3.528,2.919,0,3.045,4.347,2.646,4.347,4.431A1.342,1.342,0,0,1,171.3,17.74a4.437,4.437,0,0,1-2.688-1.134l-.231.147-.252,1.785a7.6,7.6,0,0,0,2.94.651c2.415,0,3.633-1.491,3.633-3.045,0-2.961-4.347-2.583-4.347-4.347a1.226,1.226,0,0,1,1.365-1.155,3.917,3.917,0,0,1,2.142.735l.273-.063.294-1.68A6.649,6.649,0,0,0,171.969,9.151Zm15.918,5.586.168-10.479-2.142.168.042,4.893a8.851,8.851,0,0,0-1.638-.168c-2.961,0-4.767,1.806-4.767,5.04,0,3.108,1.533,4.935,4.347,4.935a8.577,8.577,0,0,0,2.184-1.449h.168a1.663,1.663,0,0,0,1.554,1.47,3.4,3.4,0,0,0,1.344-.462l.189-1.176-.189-.147a3.036,3.036,0,0,1-.651.084c-.4,0-.525-.168-.546-.693Zm-3.78-4.116a4.337,4.337,0,0,1,1.869.483l.063,3.822L186,16.291a2.684,2.684,0,0,1-2.058,1.092c-1.47,0-2.352-1.2-2.373-3.444C181.524,11.692,182.532,10.621,184.107,10.621Zm10.92-1.491c-2.9,0-4.515,1.869-4.515,5.187,0,3.108,1.533,4.872,4.242,4.872,2.9,0,4.515-1.869,4.515-5.187C199.269,10.894,197.736,9.13,195.027,9.13Zm-.126,1.491c1.575,0,2.373,1.218,2.373,3.864,0,2.2-.8,3.234-2.373,3.234-1.6,0-2.394-1.2-2.394-3.864C192.507,11.692,193.3,10.621,194.9,10.621Zm9.576-1.47c-2.226,0-3.528,1.26-3.528,2.919,0,3.045,4.347,2.646,4.347,4.431A1.342,1.342,0,0,1,203.8,17.74a4.437,4.437,0,0,1-2.688-1.134l-.231.147-.252,1.785a7.6,7.6,0,0,0,2.94.651c2.415,0,3.633-1.491,3.633-3.045,0-2.961-4.347-2.583-4.347-4.347a1.226,1.226,0,0,1,1.365-1.155,3.917,3.917,0,0,1,2.142.735l.273-.063.294-1.68A6.649,6.649,0,0,0,204.477,9.151ZM216.3,9.13a6.729,6.729,0,0,0-3.78,1.26l.273,1.491.168.105a4.783,4.783,0,0,1,3-1.344,1.382,1.382,0,0,1,1.512,1.575l-.021,1.134-3.318.735a2.237,2.237,0,0,0-2.037,2.331c0,1.68,1.155,2.73,3.108,2.751a6.149,6.149,0,0,0,2.184-1.575h.147a1.635,1.635,0,0,0,1.533,1.554,3.422,3.422,0,0,0,1.323-.462l.21-1.176-.189-.147a3.212,3.212,0,0,1-.63.084c-.441,0-.609-.168-.609-.714,0-.714.252-4.242.252-4.977C219.429,10.1,218.211,9.13,216.3,9.13Zm1.155,5.46-.063,1.617a2.965,2.965,0,0,1-2.1,1.281,1.21,1.21,0,0,1-1.281-1.344.775.775,0,0,1,.714-.9ZM228.585,19h2.163l-.105-4.242.063-2.73c.021-1.806-1.092-2.835-3.255-2.835a7.141,7.141,0,0,0-2.583,1.491h-.147l.021-1.407-2.037.189.105,5.481L222.684,19h2.142l-.126-4.242.021-2.562a3.767,3.767,0,0,1,2.52-1.26c1.008,0,1.512.651,1.491,1.7Zm8.82-9.87c-2.9,0-4.515,1.869-4.515,5.187,0,3.108,1.533,4.872,4.242,4.872,2.9,0,4.515-1.869,4.515-5.187C241.647,10.894,240.114,9.13,237.4,9.13Zm-.126,1.491c1.575,0,2.373,1.218,2.373,3.864,0,2.2-.8,3.234-2.373,3.234-1.6,0-2.394-1.2-2.394-3.864C234.885,11.692,235.683,10.621,237.279,10.621Zm9.576-1.47c-2.226,0-3.528,1.26-3.528,2.919,0,3.045,4.347,2.646,4.347,4.431a1.342,1.342,0,0,1-1.491,1.239,4.437,4.437,0,0,1-2.688-1.134l-.231.147-.252,1.785a7.6,7.6,0,0,0,2.94.651c2.415,0,3.633-1.491,3.633-3.045,0-2.961-4.347-2.583-4.347-4.347a1.226,1.226,0,0,1,1.365-1.155,3.917,3.917,0,0,1,2.142.735l.273-.063.294-1.68A6.649,6.649,0,0,0,246.855,9.151Zm9.471-.672L254.247,8.4l-.147,1.827.126.21,1.743-.189H260L255.318,20.3l.126.357,1.722.462,1.029-2.751,3.822-8.358L262,8.437l-.945.042Zm11.949-.147c-3.024,0-4.767,2.037-4.767,5.586,0,3.339,1.638,5.25,4.494,5.25,3.024,0,4.725-2.016,4.725-5.544C272.727,10.243,271.11,8.332,268.275,8.332Zm-.168,1.974c1.932,0,2.961,1.176,2.961,3.57,0,2.268-1.008,3.4-2.94,3.4-1.974,0-2.94-1.176-2.94-3.507S266.154,10.306,268.107,10.306Z" transform="translate(481 9238.005)"/>
    <path id="Caminho_772014" data-name="Caminho 772014" d="M6.867,5.371c-3.906,0-6.153,2.52-6.153,7.014,0,4.347,2.121,6.783,5.9,6.783a7.806,7.806,0,0,0,3.57-.882l.168-1.974-.21-.126a5.655,5.655,0,0,1-3.36,1.155c-2.415,0-3.8-1.764-3.8-5.187,0-3.318,1.344-4.977,3.8-4.977A4.991,4.991,0,0,1,9.891,8.269l.21-.063L10.5,6.3A7.12,7.12,0,0,0,6.867,5.371ZM15.876,9.13a6.729,6.729,0,0,0-3.78,1.26l.273,1.491.168.105a4.783,4.783,0,0,1,3-1.344,1.382,1.382,0,0,1,1.512,1.575l-.021,1.134-3.318.735a2.237,2.237,0,0,0-2.037,2.331c0,1.68,1.155,2.73,3.108,2.751a6.149,6.149,0,0,0,2.184-1.575h.147a1.635,1.635,0,0,0,1.533,1.554,3.422,3.422,0,0,0,1.323-.462l.21-1.176-.189-.147a3.212,3.212,0,0,1-.63.084c-.441,0-.609-.168-.609-.714,0-.714.252-4.242.252-4.977C19.005,10.1,17.787,9.13,15.876,9.13Zm1.155,5.46-.063,1.617a2.965,2.965,0,0,1-2.1,1.281,1.21,1.21,0,0,1-1.281-1.344.775.775,0,0,1,.714-.9ZM34.083,19h2.163l-.1-4.242.063-2.73c.021-1.806-1.092-2.835-3.255-2.835a7.616,7.616,0,0,0-2.772,1.575h-.126c-.42-1.008-1.449-1.575-3.024-1.575a6.974,6.974,0,0,0-2.583,1.491H24.3l.021-1.407-2.037.189.1,5.481L22.26,19h2.121l-.1-4.242L24.3,12.2a3.767,3.767,0,0,1,2.52-1.26c1.008,0,1.512.651,1.491,1.7L28.161,19H30.3l-.084-4.242.042-2.6a3.7,3.7,0,0,1,2.478-1.218c1.008,0,1.512.651,1.491,1.7ZM40.194,4.8a1.136,1.136,0,0,0-1.218,1.218A1.066,1.066,0,0,0,40.131,7.2a1.131,1.131,0,0,0,1.176-1.239A1.039,1.039,0,0,0,40.194,4.8Zm.84,9.954L41.2,9.277l-2.142.189.1,5.481L39.039,19h2.142ZM47.1,9.151c-2.226,0-3.528,1.26-3.528,2.919,0,3.045,4.347,2.646,4.347,4.431a1.342,1.342,0,0,1-1.491,1.239,4.437,4.437,0,0,1-2.688-1.134l-.231.147-.252,1.785a7.6,7.6,0,0,0,2.94.651c2.415,0,3.633-1.491,3.633-3.045,0-2.961-4.347-2.583-4.347-4.347a1.226,1.226,0,0,1,1.365-1.155,3.917,3.917,0,0,1,2.142.735l.273-.063.294-1.68A6.649,6.649,0,0,0,47.1,9.151Zm11.991,5.1.357-.336a8.182,8.182,0,0,0,.084-1.05c0-2.31-1.281-3.717-3.528-3.717-2.814,0-4.641,1.911-4.641,5.061,0,3.066,1.68,4.977,4.578,4.977a6.816,6.816,0,0,0,2.94-.714l.252-1.7-.189-.126a5.765,5.765,0,0,1-2.835.882c-1.848,0-2.73-1.2-2.772-3.276Zm-1.512-1.407-4.137.1a2.461,2.461,0,0,1,2.436-2.331c1.05,0,1.743.609,1.743,1.974Zm7.581,4.536c-.861,0-1.239-.336-1.218-1.386l.105-5.271h2.709l.1-1.218-.084-.147H64.092l.042-2.079-.189-.168-1.89.714V9.361H60.774L60.669,10.6l.084.126h1.323l.021,4.095-.084,1.512a2.506,2.506,0,0,0,2.478,2.793,6.063,6.063,0,0,0,2.142-.63l.21-1.344L66.633,17A3.311,3.311,0,0,1,65.163,17.383Zm6.93-8.253a6.729,6.729,0,0,0-3.78,1.26l.273,1.491.168.105a4.783,4.783,0,0,1,3-1.344,1.382,1.382,0,0,1,1.512,1.575l-.021,1.134-3.318.735a2.237,2.237,0,0,0-2.037,2.331c0,1.68,1.155,2.73,3.108,2.751a6.149,6.149,0,0,0,2.184-1.575h.147a1.635,1.635,0,0,0,1.533,1.554,3.422,3.422,0,0,0,1.323-.462l.21-1.176-.189-.147a3.212,3.212,0,0,1-.63.084c-.441,0-.609-.168-.609-.714,0-.714.252-4.242.252-4.977C75.222,10.1,74,9.13,72.093,9.13Zm1.155,5.46-.063,1.617a2.965,2.965,0,0,1-2.1,1.281A1.21,1.21,0,0,1,69.8,16.144a.775.775,0,0,1,.714-.9ZM81.4,9.151c-2.226,0-3.528,1.26-3.528,2.919,0,3.045,4.347,2.646,4.347,4.431a1.342,1.342,0,0,1-1.491,1.239,4.437,4.437,0,0,1-2.688-1.134l-.231.147-.252,1.785a7.6,7.6,0,0,0,2.94.651c2.415,0,3.633-1.491,3.633-3.045,0-2.961-4.347-2.583-4.347-4.347a1.226,1.226,0,0,1,1.365-1.155,3.917,3.917,0,0,1,2.142.735l.273-.063.294-1.68A6.649,6.649,0,0,0,81.4,9.151ZM93.45,9.13c-2.772,0-4.431,1.953-4.431,5.124,0,3.066,1.554,4.935,4.179,4.935a7.5,7.5,0,0,0,2.562-.483l.21-1.722-.189-.126a5.051,5.051,0,0,1-2.247.63c-1.6,0-2.5-1.26-2.5-3.4,0-2.037.882-3.192,2.373-3.192a4.163,4.163,0,0,1,2.058.651l.21-.084.357-1.785A6.3,6.3,0,0,0,93.45,9.13Zm8.148,0c-2.9,0-4.515,1.869-4.515,5.187,0,3.108,1.533,4.872,4.242,4.872,2.9,0,4.515-1.869,4.515-5.187C105.84,10.894,104.307,9.13,101.6,9.13Zm-.126,1.491c1.575,0,2.373,1.218,2.373,3.864,0,2.2-.8,3.234-2.373,3.234-1.6,0-2.394-1.2-2.394-3.864C99.078,11.692,99.876,10.621,101.472,10.621ZM119.952,19h2.163l-.1-4.242.063-2.73c.021-1.806-1.092-2.835-3.255-2.835a7.616,7.616,0,0,0-2.772,1.575h-.126c-.42-1.008-1.449-1.575-3.024-1.575a6.974,6.974,0,0,0-2.583,1.491h-.147l.021-1.407-2.037.189.1,5.481L108.129,19h2.121l-.1-4.242.021-2.562a3.767,3.767,0,0,1,2.52-1.26c1.008,0,1.512.651,1.491,1.7L114.03,19h2.142l-.084-4.242.042-2.6a3.7,3.7,0,0,1,2.478-1.218c1.008,0,1.512.651,1.491,1.7Zm12.81-14.784c-2.415,0-3.822,1.3-3.8,3.7l.021,1.449h-1.428l-.105,1.239.084.126h1.449l.042,4.2L128.9,19h2.142l-.147-4.263.063-4.011h2.436l.126-1.218-.063-.147h-2.478L131,7.555c.021-1.218.588-1.806,1.575-1.806a3.846,3.846,0,0,1,1.617.4l.147-.126.126-1.617A8.114,8.114,0,0,0,132.762,4.216Zm6.93,5.082a3.1,3.1,0,0,0-2.646,1.911H136.9l.021-1.932-2.037.189.126,5.481L134.862,19H137l-.147-4.242.021-1.386c.735-1.449,1.47-2.037,2.331-2.037a2.939,2.939,0,0,1,.777.1l.231-.063V9.34A4.091,4.091,0,0,0,139.692,9.3Zm5.418-.168a6.729,6.729,0,0,0-3.78,1.26l.273,1.491.168.105a4.783,4.783,0,0,1,3-1.344,1.382,1.382,0,0,1,1.512,1.575l-.021,1.134-3.318.735a2.237,2.237,0,0,0-2.037,2.331c0,1.68,1.155,2.73,3.108,2.751a6.149,6.149,0,0,0,2.184-1.575h.147a1.635,1.635,0,0,0,1.533,1.554,3.422,3.422,0,0,0,1.323-.462l.21-1.176-.189-.147a3.212,3.212,0,0,1-.63.084c-.441,0-.609-.168-.609-.714,0-.714.252-4.242.252-4.977C148.239,10.1,147.021,9.13,145.11,9.13Zm1.155,5.46-.063,1.617a2.965,2.965,0,0,1-2.1,1.281,1.21,1.21,0,0,1-1.281-1.344.775.775,0,0,1,.714-.9Zm8.148-5.439c-2.226,0-3.528,1.26-3.528,2.919,0,3.045,4.347,2.646,4.347,4.431a1.342,1.342,0,0,1-1.491,1.239,4.437,4.437,0,0,1-2.688-1.134l-.231.147-.252,1.785a7.6,7.6,0,0,0,2.94.651c2.415,0,3.633-1.491,3.633-3.045,0-2.961-4.347-2.583-4.347-4.347a1.226,1.226,0,0,1,1.365-1.155,3.917,3.917,0,0,1,2.142.735l.273-.063.294-1.68A6.649,6.649,0,0,0,154.413,9.151Zm11.991,5.1.357-.336a8.181,8.181,0,0,0,.084-1.05c0-2.31-1.281-3.717-3.528-3.717-2.814,0-4.641,1.911-4.641,5.061,0,3.066,1.68,4.977,4.578,4.977a6.816,6.816,0,0,0,2.94-.714l.252-1.7-.189-.126a5.765,5.765,0,0,1-2.835.882c-1.848,0-2.73-1.2-2.772-3.276Zm-1.512-1.407-4.137.1a2.461,2.461,0,0,1,2.436-2.331c1.05,0,1.743.609,1.743,1.974Zm7.077-3.7c-2.226,0-3.528,1.26-3.528,2.919,0,3.045,4.347,2.646,4.347,4.431A1.342,1.342,0,0,1,171.3,17.74a4.437,4.437,0,0,1-2.688-1.134l-.231.147-.252,1.785a7.6,7.6,0,0,0,2.94.651c2.415,0,3.633-1.491,3.633-3.045,0-2.961-4.347-2.583-4.347-4.347a1.226,1.226,0,0,1,1.365-1.155,3.917,3.917,0,0,1,2.142.735l.273-.063.294-1.68A6.649,6.649,0,0,0,171.969,9.151Zm15.918,5.586.168-10.479-2.142.168.042,4.893a8.851,8.851,0,0,0-1.638-.168c-2.961,0-4.767,1.806-4.767,5.04,0,3.108,1.533,4.935,4.347,4.935a8.577,8.577,0,0,0,2.184-1.449h.168a1.663,1.663,0,0,0,1.554,1.47,3.4,3.4,0,0,0,1.344-.462l.189-1.176-.189-.147a3.036,3.036,0,0,1-.651.084c-.4,0-.525-.168-.546-.693Zm-3.78-4.116a4.337,4.337,0,0,1,1.869.483l.063,3.822L186,16.291a2.684,2.684,0,0,1-2.058,1.092c-1.47,0-2.352-1.2-2.373-3.444C181.524,11.692,182.532,10.621,184.107,10.621Zm10.92-1.491c-2.9,0-4.515,1.869-4.515,5.187,0,3.108,1.533,4.872,4.242,4.872,2.9,0,4.515-1.869,4.515-5.187C199.269,10.894,197.736,9.13,195.027,9.13Zm-.126,1.491c1.575,0,2.373,1.218,2.373,3.864,0,2.2-.8,3.234-2.373,3.234-1.6,0-2.394-1.2-2.394-3.864C192.507,11.692,193.3,10.621,194.9,10.621Zm9.576-1.47c-2.226,0-3.528,1.26-3.528,2.919,0,3.045,4.347,2.646,4.347,4.431A1.342,1.342,0,0,1,203.8,17.74a4.437,4.437,0,0,1-2.688-1.134l-.231.147-.252,1.785a7.6,7.6,0,0,0,2.94.651c2.415,0,3.633-1.491,3.633-3.045,0-2.961-4.347-2.583-4.347-4.347a1.226,1.226,0,0,1,1.365-1.155,3.917,3.917,0,0,1,2.142.735l.273-.063.294-1.68A6.649,6.649,0,0,0,204.477,9.151ZM216.3,9.13a6.729,6.729,0,0,0-3.78,1.26l.273,1.491.168.105a4.783,4.783,0,0,1,3-1.344,1.382,1.382,0,0,1,1.512,1.575l-.021,1.134-3.318.735a2.237,2.237,0,0,0-2.037,2.331c0,1.68,1.155,2.73,3.108,2.751a6.149,6.149,0,0,0,2.184-1.575h.147a1.635,1.635,0,0,0,1.533,1.554,3.422,3.422,0,0,0,1.323-.462l.21-1.176-.189-.147a3.212,3.212,0,0,1-.63.084c-.441,0-.609-.168-.609-.714,0-.714.252-4.242.252-4.977C219.429,10.1,218.211,9.13,216.3,9.13Zm1.155,5.46-.063,1.617a2.965,2.965,0,0,1-2.1,1.281,1.21,1.21,0,0,1-1.281-1.344.775.775,0,0,1,.714-.9ZM228.585,19h2.163l-.105-4.242.063-2.73c.021-1.806-1.092-2.835-3.255-2.835a7.141,7.141,0,0,0-2.583,1.491h-.147l.021-1.407-2.037.189.105,5.481L222.684,19h2.142l-.126-4.242.021-2.562a3.767,3.767,0,0,1,2.52-1.26c1.008,0,1.512.651,1.491,1.7Zm8.82-9.87c-2.9,0-4.515,1.869-4.515,5.187,0,3.108,1.533,4.872,4.242,4.872,2.9,0,4.515-1.869,4.515-5.187C241.647,10.894,240.114,9.13,237.4,9.13Zm-.126,1.491c1.575,0,2.373,1.218,2.373,3.864,0,2.2-.8,3.234-2.373,3.234-1.6,0-2.394-1.2-2.394-3.864C234.885,11.692,235.683,10.621,237.279,10.621Zm9.576-1.47c-2.226,0-3.528,1.26-3.528,2.919,0,3.045,4.347,2.646,4.347,4.431a1.342,1.342,0,0,1-1.491,1.239,4.437,4.437,0,0,1-2.688-1.134l-.231.147-.252,1.785a7.6,7.6,0,0,0,2.94.651c2.415,0,3.633-1.491,3.633-3.045,0-2.961-4.347-2.583-4.347-4.347a1.226,1.226,0,0,1,1.365-1.155,3.917,3.917,0,0,1,2.142.735l.273-.063.294-1.68A6.649,6.649,0,0,0,246.855,9.151Zm12.1-2.6c-2.268,0-3.843,1.239-3.843,3.318a3.124,3.124,0,0,0,1.911,2.9v.105c-1.218.588-2.373,1.47-2.373,3.129,0,1.848,1.386,3.171,3.843,3.171,2.562,0,4.263-1.365,4.263-3.549,0-1.743-1.2-2.478-2.31-3.024v-.1a3.426,3.426,0,0,0,1.932-2.961C262.374,7.681,261.093,6.547,258.951,6.547Zm-.105,1.512a1.638,1.638,0,0,1,1.848,1.68c0,1.176-.84,1.743-1.785,2.184-1.071-.42-2.037-.924-2.037-2.121C256.872,8.731,257.607,8.059,258.846,8.059Zm-.315,5.439c1.239.5,2.436.966,2.436,2.268,0,1.092-.84,1.911-2.289,1.911-1.386,0-2.226-.777-2.226-1.932C256.452,14.443,257.439,13.9,258.531,13.5Zm10.962-5.166c-3.024,0-4.767,2.037-4.767,5.586,0,3.339,1.638,5.25,4.494,5.25,3.024,0,4.725-2.016,4.725-5.544C273.945,10.243,272.328,8.332,269.493,8.332Zm-.168,1.974c1.932,0,2.961,1.176,2.961,3.57,0,2.268-1.008,3.4-2.94,3.4-1.974,0-2.94-1.176-2.94-3.507S267.372,10.306,269.325,10.306Z" transform="translate(481 9286.005)"/>
  </g>
</svg>
