<svg xmlns="http://www.w3.org/2000/svg" width="328" height="258" viewBox="0 0 328 258">
  <g id="_img_Tabela_1-mob_" data-name="&lt;img Tabela_1-mob&gt;" transform="translate(-16 -3569)">
    <rect id="Retângulo_124926" data-name="Retângulo 124926" width="184" height="68" transform="translate(16 3569)" fill="#0024a9"/>
    <rect id="Retângulo_125035" data-name="Retângulo 125035" width="144" height="68" transform="translate(200 3569)" fill="#0024a9"/>
    <path id="Caminho_771979" data-name="Caminho 771979" d="M7.29,17.02c-2.34,0-3.744-1.854-3.744-4.32S4.95,8.38,7.29,8.38a4.3,4.3,0,0,1,2.5.792l1.17-1.836A6.515,6.515,0,0,0,7.092,6.13c-3.942,0-6.3,2.79-6.3,6.57,0,3.8,2.358,6.57,6.3,6.57a6.474,6.474,0,0,0,3.87-1.206l-1.17-1.836A4.42,4.42,0,0,1,7.29,17.02ZM17.478,9.91c-3.564,0-5.094,2.592-5.094,5.256,0,2.412,1.242,4.1,3.294,4.1,1.656,0,2.682-1.17,3.312-2.772L18.72,19h2.538V11.062A6.617,6.617,0,0,0,17.478,9.91Zm-1.026,7.326c-.81,0-1.44-.522-1.44-2.16,0-1.242.432-3.24,2.43-3.24a2.954,2.954,0,0,1,1.26.306C18.558,14.5,18.036,17.236,16.452,17.236ZM27.918,19.27a5.8,5.8,0,0,0,2.016-.378l-.522-1.98a2.573,2.573,0,0,1-.9.18c-.936,0-1.386-.558-1.386-1.674v-3.24h2.466v-2H27.126V7.426H25.452l-.18.972C25,9.82,24.858,10.18,23.238,10.18h-.27v2h1.638V15.85C24.606,17.956,25.722,19.27,27.918,19.27Zm8.046-2a2.327,2.327,0,0,1-2.394-1.728l5.4-.63a4.651,4.651,0,0,0,.234-1.476,3.452,3.452,0,0,0-3.78-3.528,4.3,4.3,0,0,0-4.41,4.644,4.455,4.455,0,0,0,4.77,4.716,5.429,5.429,0,0,0,3.2-.99l-.936-1.638A4.04,4.04,0,0,1,35.964,17.272Zm-.4-5.418c.792,0,1.368.414,1.368,1.188a1.391,1.391,0,0,1-.054.45l-3.42.414A2.159,2.159,0,0,1,35.568,11.854ZM45.882,9.91c-3.564,0-5.094,2.592-5.094,5.256,0,2.412,1.242,4.1,3.294,4.1,1.62,0,2.646-1.134,3.276-2.7v1.674c0,1.89-1.008,2.79-2.574,2.79a4.469,4.469,0,0,1-2.412-.738l-1.116,1.8a6.508,6.508,0,0,0,3.582,1.026,4.53,4.53,0,0,0,4.824-4.878V11.062A6.617,6.617,0,0,0,45.882,9.91Zm-1.026,7.326c-.81,0-1.44-.522-1.44-2.16,0-1.242.432-3.24,2.43-3.24a2.714,2.714,0,0,1,1.26.306C46.962,14.5,46.458,17.236,44.856,17.236ZM56.214,19.27a4.452,4.452,0,0,0,4.608-4.68,4.617,4.617,0,1,0-9.234,0A4.456,4.456,0,0,0,56.214,19.27Zm0-2.052c-1.332,0-2.016-1.224-2.016-2.628s.684-2.628,2.016-2.628c1.314,0,2,1.224,2,2.628S57.528,17.218,56.214,17.218ZM68.364,9.91c-1.944,0-2.916,1.44-3.42,3.366l.306-3.1H62.73V19h2.52c0-2.916.18-6.48,2.574-6.48a2.856,2.856,0,0,1,.9.162l.666-2.628A3.718,3.718,0,0,0,68.364,9.91Zm3.816-.972a1.65,1.65,0,0,0,1.692-1.71,1.7,1.7,0,1,0-3.4,0A1.654,1.654,0,0,0,72.18,8.938ZM73.44,19V10.18H70.92V19Zm7.182-9.09c-3.564,0-5.094,2.592-5.094,5.256,0,2.412,1.242,4.1,3.294,4.1,1.656,0,2.682-1.17,3.312-2.772l-.27,2.5H84.4V11.062A6.617,6.617,0,0,0,80.622,9.91ZM79.6,17.236c-.81,0-1.44-.522-1.44-2.16,0-1.242.432-3.24,2.43-3.24a2.954,2.954,0,0,1,1.26.306C81.7,14.5,81.18,17.236,79.6,17.236ZM7.164,36.018a6.934,6.934,0,0,0-1.242-.108C2.358,35.91.828,38.5.828,41.166c0,2.412,1.242,4.1,3.294,4.1,1.656,0,2.682-1.188,3.312-2.79L7.164,45H9.7V31.968H7.164ZM4.9,43.236c-.81,0-1.44-.522-1.44-2.16,0-1.242.432-3.24,2.43-3.24a2.954,2.954,0,0,1,1.26.306C7,40.5,6.48,43.236,4.9,43.236Zm11.61.036a2.327,2.327,0,0,1-2.394-1.728l5.4-.63a4.651,4.651,0,0,0,.234-1.476,3.452,3.452,0,0,0-3.78-3.528,4.3,4.3,0,0,0-4.41,4.644,4.455,4.455,0,0,0,4.77,4.716,5.429,5.429,0,0,0,3.2-.99l-.936-1.638A4.04,4.04,0,0,1,16.506,43.272Zm-.4-5.418c.792,0,1.368.414,1.368,1.188a1.391,1.391,0,0,1-.054.45L14,39.906A2.159,2.159,0,0,1,16.11,37.854ZM30.366,32.13a21.993,21.993,0,0,0-3.618.342V45h2.646V40.95c.36.018.72.036,1.026.036,3.87,0,5.76-1.8,5.76-4.428C36.18,33.948,34.29,32.13,30.366,32.13Zm.054,6.642q-.459,0-1.026-.054V34.4q.567-.054,1.026-.054c2,0,3.006.792,3.006,2.214C33.426,38,32.418,38.772,30.42,38.772ZM43.632,35.91c-1.944,0-2.916,1.44-3.42,3.366l.306-3.1H38V45h2.52c0-2.916.18-6.48,2.574-6.48a2.856,2.856,0,0,1,.9.162l.666-2.628A3.718,3.718,0,0,0,43.632,35.91Zm6.39,9.36a4.452,4.452,0,0,0,4.608-4.68,4.617,4.617,0,1,0-9.234,0A4.456,4.456,0,0,0,50.022,45.27Zm0-2.052c-1.332,0-2.016-1.224-2.016-2.628s.684-2.628,2.016-2.628c1.314,0,2,1.224,2,2.628S51.336,43.218,50.022,43.218Zm12.42-7.2A6.934,6.934,0,0,0,61.2,35.91c-3.564,0-5.094,2.592-5.094,5.256,0,2.412,1.242,4.1,3.294,4.1,1.656,0,2.682-1.188,3.312-2.79L62.442,45H64.98V31.968H62.442Zm-2.268,7.218c-.81,0-1.44-.522-1.44-2.16,0-1.242.432-3.24,2.43-3.24a2.954,2.954,0,0,1,1.26.306C62.28,40.5,61.758,43.236,60.174,43.236Zm15.75-7.056H73.386c0,2.862-.09,6.912-2.25,6.912-1.116,0-1.332-1.17-1.332-1.926V36.18h-2.52v5.814a3.015,3.015,0,0,0,3.2,3.276,3.274,3.274,0,0,0,3.1-2.286L73.386,45h2.538Zm6.66,9.09a5.8,5.8,0,0,0,2.016-.378l-.522-1.98a2.573,2.573,0,0,1-.9.18c-.936,0-1.386-.558-1.386-1.674v-3.24h2.466v-2H81.792V33.426H80.118l-.18.972c-.27,1.422-.414,1.782-2.034,1.782h-.27v2h1.638V41.85C79.272,43.956,80.388,45.27,82.584,45.27Zm7.722,0a4.452,4.452,0,0,0,4.608-4.68,4.617,4.617,0,1,0-9.234,0A4.456,4.456,0,0,0,90.306,45.27Zm0-2.052c-1.332,0-2.016-1.224-2.016-2.628s.684-2.628,2.016-2.628c1.314,0,2,1.224,2,2.628S91.62,43.218,90.306,43.218Z" transform="translate(25 3577)" fill="#fff"/>
    <path id="Caminho_771980" data-name="Caminho 771980" d="M3.942,19V11.242L9.738,19h2.124V6.4H9.306v7.74L3.51,6.4H1.4V19ZM20.358,4.942,16.146,7.678l.936,1.512,4.482-2.214ZM23,10.18H20.466c0,2.862-.09,6.912-2.25,6.912-1.116,0-1.332-1.17-1.332-1.926V10.18h-2.52v5.814a3.015,3.015,0,0,0,3.2,3.276,3.274,3.274,0,0,0,3.1-2.286L20.466,19H23ZM36.72,9.91a3.238,3.238,0,0,0-3.042,2.214A2.62,2.62,0,0,0,30.96,9.91a3.328,3.328,0,0,0-3.132,2.412l.216-2.142h-2.52V19h2.52c0-2.844.126-6.912,2.124-6.912.99,0,1.1,1.08,1.1,1.926V19H33.8c0-2.826.108-6.912,2.106-6.912,1.008,0,1.116,1.08,1.116,1.926V19h2.52V13.312C39.546,11.17,38.52,9.91,36.72,9.91Zm9.558,7.362a2.327,2.327,0,0,1-2.394-1.728l5.4-.63a4.651,4.651,0,0,0,.234-1.476,3.452,3.452,0,0,0-3.78-3.528,4.3,4.3,0,0,0-4.41,4.644A4.455,4.455,0,0,0,46.1,19.27a5.429,5.429,0,0,0,3.2-.99l-.936-1.638A4.04,4.04,0,0,1,46.278,17.272Zm-.4-5.418c.792,0,1.368.414,1.368,1.188a1.391,1.391,0,0,1-.054.45l-3.42.414A2.159,2.159,0,0,1,45.882,11.854ZM57.15,9.91c-1.944,0-2.916,1.44-3.42,3.366l.306-3.1h-2.52V19h2.52c0-2.916.18-6.48,2.574-6.48a2.856,2.856,0,0,1,.9.162l.666-2.628A3.718,3.718,0,0,0,57.15,9.91Zm6.39,9.36a4.452,4.452,0,0,0,4.608-4.68,4.617,4.617,0,1,0-9.234,0A4.456,4.456,0,0,0,63.54,19.27Zm0-2.052c-1.332,0-2.016-1.224-2.016-2.628s.684-2.628,2.016-2.628c1.314,0,2,1.224,2,2.628S64.854,17.218,63.54,17.218ZM7.164,36.018a6.934,6.934,0,0,0-1.242-.108C2.358,35.91.828,38.5.828,41.166c0,2.412,1.242,4.1,3.294,4.1,1.656,0,2.682-1.188,3.312-2.79L7.164,45H9.7V31.968H7.164ZM4.9,43.236c-.81,0-1.44-.522-1.44-2.16,0-1.242.432-3.24,2.43-3.24a2.954,2.954,0,0,1,1.26.306C7,40.5,6.48,43.236,4.9,43.236Zm11.61.036a2.327,2.327,0,0,1-2.394-1.728l5.4-.63a4.651,4.651,0,0,0,.234-1.476,3.452,3.452,0,0,0-3.78-3.528,4.3,4.3,0,0,0-4.41,4.644,4.455,4.455,0,0,0,4.77,4.716,5.429,5.429,0,0,0,3.2-.99l-.936-1.638A4.04,4.04,0,0,1,16.506,43.272Zm-.4-5.418c.792,0,1.368.414,1.368,1.188a1.391,1.391,0,0,1-.054.45L14,39.906A2.159,2.159,0,0,1,16.11,37.854ZM32,40.986,28.476,32.4H25.668L30.924,45h2.16L38.34,32.4H35.532Zm10.854,2.286a2.327,2.327,0,0,1-2.394-1.728l5.4-.63a4.651,4.651,0,0,0,.234-1.476,3.452,3.452,0,0,0-3.78-3.528,4.3,4.3,0,0,0-4.41,4.644,4.455,4.455,0,0,0,4.77,4.716,5.429,5.429,0,0,0,3.2-.99l-.936-1.638A4.04,4.04,0,0,1,42.858,43.272Zm-.4-5.418c.792,0,1.368.414,1.368,1.188a1.391,1.391,0,0,1-.054.45l-3.42.414A2.159,2.159,0,0,1,42.462,37.854ZM53.748,35.91A3.511,3.511,0,0,0,50.4,38.484l.216-2.3H48.1V45h2.52c0-2.862.162-6.912,2.358-6.912,1.116,0,1.224,1.188,1.224,1.926V45h2.538V39.312C56.736,37.188,55.638,35.91,53.748,35.91Zm11.268.108a6.934,6.934,0,0,0-1.242-.108c-3.564,0-5.094,2.592-5.094,5.256,0,2.412,1.242,4.1,3.294,4.1,1.656,0,2.682-1.188,3.312-2.79L65.016,45h2.538V31.968H65.016Zm-2.268,7.218c-.81,0-1.44-.522-1.44-2.16,0-1.242.432-3.24,2.43-3.24a2.954,2.954,0,0,1,1.26.306C64.854,40.5,64.332,43.236,62.748,43.236ZM74.664,35.91c-3.564,0-5.094,2.592-5.094,5.256,0,2.412,1.242,4.1,3.294,4.1,1.656,0,2.682-1.17,3.312-2.772l-.27,2.5h2.538V37.062A6.617,6.617,0,0,0,74.664,35.91Zm-1.026,7.326c-.81,0-1.44-.522-1.44-2.16,0-1.242.432-3.24,2.43-3.24a2.954,2.954,0,0,1,1.26.306C75.744,40.5,75.222,43.236,73.638,43.236ZM83.952,45.27c2.178,0,3.762-.936,3.762-2.97,0-3.132-4.554-2.214-4.554-3.6,0-.576.72-.738,1.386-.738a4.706,4.706,0,0,1,2.2.54l.864-1.764a7,7,0,0,0-3.312-.828c-1.818,0-3.672.756-3.672,2.772,0,3.294,4.572,2.34,4.572,3.8,0,.486-.486.756-1.368.756a5.51,5.51,0,0,1-2.736-.774L80.172,44.3A7.7,7.7,0,0,0,83.952,45.27Z" transform="translate(208 3578)" fill="#fff"/>
    <g id="Retângulo_124927" data-name="Retângulo 124927" transform="translate(16 3637)" fill="none" stroke="#0023a2" stroke-width="1">
      <rect width="184" height="64" stroke="none"/>
      <rect x="0.5" y="0.5" width="183" height="63" fill="none"/>
    </g>
    <g id="Retângulo_125037" data-name="Retângulo 125037" transform="translate(16 3700)" fill="none" stroke="#0023a2" stroke-width="1">
      <rect width="184" height="64" stroke="none"/>
      <rect x="0.5" y="0.5" width="183" height="63" fill="none"/>
    </g>
    <g id="Retângulo_125039" data-name="Retângulo 125039" transform="translate(16 3763)" fill="none" stroke="#0023a2" stroke-width="1">
      <rect width="184" height="64" stroke="none"/>
      <rect x="0.5" y="0.5" width="183" height="63" fill="none"/>
    </g>
    <g id="Retângulo_125036" data-name="Retângulo 125036" transform="translate(199 3637)" fill="none" stroke="#0023a2" stroke-width="1">
      <rect width="145" height="64" stroke="none"/>
      <rect x="0.5" y="0.5" width="144" height="63" fill="none"/>
    </g>
    <g id="Retângulo_125038" data-name="Retângulo 125038" transform="translate(199 3700)" fill="none" stroke="#0023a2" stroke-width="1">
      <rect width="145" height="64" stroke="none"/>
      <rect x="0.5" y="0.5" width="144" height="63" fill="none"/>
    </g>
    <g id="Retângulo_125040" data-name="Retângulo 125040" transform="translate(199 3763)" fill="none" stroke="#0023a2" stroke-width="1">
      <rect width="145" height="64" stroke="none"/>
      <rect x="0.5" y="0.5" width="144" height="63" fill="none"/>
    </g>
    <path id="Caminho_771982" data-name="Caminho 771982" d="M5.886,4.318C2.538,4.318.612,6.478.612,10.33c0,3.726,1.818,5.814,5.058,5.814a6.691,6.691,0,0,0,3.06-.756L8.874,13.7l-.18-.108a4.847,4.847,0,0,1-2.88.99c-2.07,0-3.258-1.512-3.258-4.446,0-2.844,1.152-4.266,3.258-4.266A4.278,4.278,0,0,1,8.478,6.8l.18-.054L9,5.11A6.1,6.1,0,0,0,5.886,4.318ZM13.608,7.54a5.768,5.768,0,0,0-3.24,1.08L10.6,9.9l.144.09A4.1,4.1,0,0,1,13.32,8.836a1.185,1.185,0,0,1,1.3,1.35l-.018.972-2.844.63a1.918,1.918,0,0,0-1.746,2c0,1.44.99,2.34,2.664,2.358a5.271,5.271,0,0,0,1.872-1.35h.126a1.4,1.4,0,0,0,1.314,1.332,2.933,2.933,0,0,0,1.134-.4l.18-1.008-.162-.126a2.753,2.753,0,0,1-.54.072c-.378,0-.522-.144-.522-.612,0-.612.216-3.636.216-4.266C16.29,8.368,15.246,7.54,13.608,7.54Zm.99,4.68-.054,1.386a2.542,2.542,0,0,1-1.8,1.1,1.037,1.037,0,0,1-1.1-1.152.664.664,0,0,1,.612-.774ZM29.214,16h1.854l-.09-3.636.054-2.34c.018-1.548-.936-2.43-2.79-2.43a6.528,6.528,0,0,0-2.376,1.35h-.108a2.527,2.527,0,0,0-2.592-1.35,5.977,5.977,0,0,0-2.214,1.278h-.126l.018-1.206L19.1,7.828l.09,4.7L19.08,16H20.9l-.09-3.636.018-2.2a3.229,3.229,0,0,1,2.16-1.08c.864,0,1.3.558,1.278,1.458L24.138,16h1.836L25.9,12.364l.036-2.232a3.174,3.174,0,0,1,2.124-1.044c.864,0,1.3.558,1.278,1.458ZM34.452,3.832a.973.973,0,0,0-1.044,1.044.914.914,0,0,0,.99,1.008.97.97,0,0,0,1.008-1.062A.89.89,0,0,0,34.452,3.832Zm.72,8.532.144-4.7-1.836.162.09,4.7L33.462,16H35.3Zm5.2-4.806c-1.908,0-3.024,1.08-3.024,2.5,0,2.61,3.726,2.268,3.726,3.8A1.151,1.151,0,0,1,39.8,14.92a3.8,3.8,0,0,1-2.3-.972l-.2.126L37.08,15.6a6.518,6.518,0,0,0,2.52.558c2.07,0,3.114-1.278,3.114-2.61,0-2.538-3.726-2.214-3.726-3.726a1.051,1.051,0,0,1,1.17-.99,3.357,3.357,0,0,1,1.836.63l.234-.054.252-1.44A5.7,5.7,0,0,0,40.374,7.558Zm10.278,4.374.306-.288a7.013,7.013,0,0,0,.072-.9,2.847,2.847,0,0,0-3.024-3.186c-2.412,0-3.978,1.638-3.978,4.338,0,2.628,1.44,4.266,3.924,4.266a5.842,5.842,0,0,0,2.52-.612l.216-1.458-.162-.108a4.941,4.941,0,0,1-2.43.756c-1.584,0-2.34-1.026-2.376-2.808Zm-1.3-1.206-3.546.09a2.11,2.11,0,0,1,2.088-2c.9,0,1.494.522,1.494,1.692Zm6.5,3.888c-.738,0-1.062-.288-1.044-1.188l.09-4.518h2.322l.09-1.044-.072-.126h-2.3l.036-1.782-.162-.144-1.62.612V7.738h-1.1L52,8.8l.072.108h1.134l.018,3.51-.072,1.3a2.148,2.148,0,0,0,2.124,2.394,5.2,5.2,0,0,0,1.836-.54l.18-1.152-.18-.126A2.838,2.838,0,0,1,55.854,14.614Zm5.94-7.074a5.768,5.768,0,0,0-3.24,1.08L58.788,9.9l.144.09a4.1,4.1,0,0,1,2.574-1.152,1.185,1.185,0,0,1,1.3,1.35l-.018.972-2.844.63a1.918,1.918,0,0,0-1.746,2c0,1.44.99,2.34,2.664,2.358a5.271,5.271,0,0,0,1.872-1.35h.126a1.4,1.4,0,0,0,1.314,1.332,2.933,2.933,0,0,0,1.134-.4l.18-1.008-.162-.126a2.753,2.753,0,0,1-.54.072c-.378,0-.522-.144-.522-.612,0-.612.216-3.636.216-4.266C64.476,8.368,63.432,7.54,61.794,7.54Zm.99,4.68-.054,1.386a2.542,2.542,0,0,1-1.8,1.1,1.037,1.037,0,0,1-1.1-1.152.664.664,0,0,1,.612-.774Zm6.984-4.662c-1.908,0-3.024,1.08-3.024,2.5,0,2.61,3.726,2.268,3.726,3.8a1.151,1.151,0,0,1-1.278,1.062,3.8,3.8,0,0,1-2.3-.972l-.2.126-.216,1.53a6.518,6.518,0,0,0,2.52.558c2.07,0,3.114-1.278,3.114-2.61,0-2.538-3.726-2.214-3.726-3.726a1.051,1.051,0,0,1,1.17-.99,3.357,3.357,0,0,1,1.836.63l.234-.054.252-1.44A5.7,5.7,0,0,0,69.768,7.558ZM80.1,7.54c-2.376,0-3.8,1.674-3.8,4.392,0,2.628,1.332,4.23,3.582,4.23a6.427,6.427,0,0,0,2.2-.414l.18-1.476-.162-.108a4.329,4.329,0,0,1-1.926.54c-1.368,0-2.142-1.08-2.142-2.916,0-1.746.756-2.736,2.034-2.736a3.568,3.568,0,0,1,1.764.558l.18-.072.306-1.53A5.4,5.4,0,0,0,80.1,7.54Zm6.984,0c-2.484,0-3.87,1.6-3.87,4.446,0,2.664,1.314,4.176,3.636,4.176,2.484,0,3.87-1.6,3.87-4.446C90.72,9.052,89.406,7.54,87.084,7.54Zm-.108,1.278c1.35,0,2.034,1.044,2.034,3.312,0,1.89-.684,2.772-2.034,2.772-1.368,0-2.052-1.026-2.052-3.312C84.924,9.736,85.608,8.818,86.976,8.818ZM102.816,16h1.854l-.09-3.636.054-2.34c.018-1.548-.936-2.43-2.79-2.43a6.528,6.528,0,0,0-2.376,1.35H99.36a2.527,2.527,0,0,0-2.592-1.35,5.977,5.977,0,0,0-2.214,1.278h-.126l.018-1.206L92.7,7.828l.09,4.7L92.682,16H94.5l-.09-3.636.018-2.2a3.229,3.229,0,0,1,2.16-1.08c.864,0,1.3.558,1.278,1.458L97.74,16h1.836L99.5,12.364l.036-2.232a3.174,3.174,0,0,1,2.124-1.044c.864,0,1.3.558,1.278,1.458ZM113.8,3.328c-2.07,0-3.276,1.116-3.258,3.168l.018,1.242h-1.224l-.09,1.062.072.108h1.242l.036,3.6L110.484,16h1.836l-.126-3.654.054-3.438h2.088l.108-1.044-.054-.126h-2.124l.018-1.548c.018-1.044.5-1.548,1.35-1.548a3.3,3.3,0,0,1,1.386.342l.126-.108.108-1.386A6.955,6.955,0,0,0,113.8,3.328Zm5.94,4.356a2.655,2.655,0,0,0-2.268,1.638h-.126l.018-1.656-1.746.162.108,4.7L115.6,16h1.836l-.126-3.636.018-1.188c.63-1.242,1.26-1.746,2-1.746a2.519,2.519,0,0,1,.666.09l.2-.054V7.72A3.506,3.506,0,0,0,119.736,7.684Zm4.644-.144a5.768,5.768,0,0,0-3.24,1.08l.234,1.278.144.09a4.1,4.1,0,0,1,2.574-1.152,1.185,1.185,0,0,1,1.3,1.35l-.018.972-2.844.63a1.918,1.918,0,0,0-1.746,2c0,1.44.99,2.34,2.664,2.358a5.271,5.271,0,0,0,1.872-1.35h.126a1.4,1.4,0,0,0,1.314,1.332,2.933,2.933,0,0,0,1.134-.4l.18-1.008-.162-.126a2.753,2.753,0,0,1-.54.072c-.378,0-.522-.144-.522-.612,0-.612.216-3.636.216-4.266C127.062,8.368,126.018,7.54,124.38,7.54Zm.99,4.68-.054,1.386a2.542,2.542,0,0,1-1.8,1.1,1.037,1.037,0,0,1-1.1-1.152.664.664,0,0,1,.612-.774Zm6.984-4.662c-1.908,0-3.024,1.08-3.024,2.5,0,2.61,3.726,2.268,3.726,3.8a1.151,1.151,0,0,1-1.278,1.062,3.8,3.8,0,0,1-2.3-.972l-.2.126-.216,1.53a6.518,6.518,0,0,0,2.52.558c2.07,0,3.114-1.278,3.114-2.61,0-2.538-3.726-2.214-3.726-3.726a1.051,1.051,0,0,1,1.17-.99,3.357,3.357,0,0,1,1.836.63l.234-.054.252-1.44A5.7,5.7,0,0,0,132.354,7.558Zm10.278,4.374.306-.288a7.011,7.011,0,0,0,.072-.9,2.847,2.847,0,0,0-3.024-3.186c-2.412,0-3.978,1.638-3.978,4.338,0,2.628,1.44,4.266,3.924,4.266a5.842,5.842,0,0,0,2.52-.612l.216-1.458-.162-.108a4.941,4.941,0,0,1-2.43.756c-1.584,0-2.34-1.026-2.376-2.808Zm-1.3-1.206-3.546.09a2.11,2.11,0,0,1,2.088-2c.9,0,1.494.522,1.494,1.692ZM147.4,7.558c-1.908,0-3.024,1.08-3.024,2.5,0,2.61,3.726,2.268,3.726,3.8a1.151,1.151,0,0,1-1.278,1.062,3.8,3.8,0,0,1-2.3-.972l-.2.126-.216,1.53a6.518,6.518,0,0,0,2.52.558c2.07,0,3.114-1.278,3.114-2.61,0-2.538-3.726-2.214-3.726-3.726a1.051,1.051,0,0,1,1.17-.99,3.357,3.357,0,0,1,1.836.63l.234-.054.252-1.44A5.7,5.7,0,0,0,147.4,7.558ZM7.776,38.346l.144-8.982-1.836.144L6.12,33.7a7.586,7.586,0,0,0-1.4-.144c-2.538,0-4.086,1.548-4.086,4.32,0,2.664,1.314,4.23,3.726,4.23a7.351,7.351,0,0,0,1.872-1.242h.144A1.425,1.425,0,0,0,7.7,42.126a2.917,2.917,0,0,0,1.152-.4l.162-1.008L8.856,40.6a2.6,2.6,0,0,1-.558.072c-.342,0-.45-.144-.468-.594Zm-3.24-3.528a3.717,3.717,0,0,1,1.6.414l.054,3.276-.036,1.17a2.3,2.3,0,0,1-1.764.936c-1.26,0-2.016-1.026-2.034-2.952C2.322,35.736,3.186,34.818,4.536,34.818ZM13.9,33.54c-2.484,0-3.87,1.6-3.87,4.446,0,2.664,1.314,4.176,3.636,4.176,2.484,0,3.87-1.6,3.87-4.446C17.532,35.052,16.218,33.54,13.9,33.54Zm-.108,1.278c1.35,0,2.034,1.044,2.034,3.312,0,1.89-.684,2.772-2.034,2.772-1.368,0-2.052-1.026-2.052-3.312C11.736,35.736,12.42,34.818,13.788,34.818ZM22,33.558c-1.908,0-3.024,1.08-3.024,2.5,0,2.61,3.726,2.268,3.726,3.8A1.151,1.151,0,0,1,21.42,40.92a3.8,3.8,0,0,1-2.3-.972l-.2.126L18.7,41.6a6.518,6.518,0,0,0,2.52.558c2.07,0,3.114-1.278,3.114-2.61,0-2.538-3.726-2.214-3.726-3.726a1.051,1.051,0,0,1,1.17-.99,3.357,3.357,0,0,1,1.836.63l.234-.054.252-1.44A5.7,5.7,0,0,0,22,33.558ZM32.13,33.54a5.768,5.768,0,0,0-3.24,1.08l.234,1.278.144.09a4.1,4.1,0,0,1,2.574-1.152,1.185,1.185,0,0,1,1.3,1.35l-.018.972-2.844.63a1.918,1.918,0,0,0-1.746,2c0,1.44.99,2.34,2.664,2.358a5.271,5.271,0,0,0,1.872-1.35h.126a1.4,1.4,0,0,0,1.314,1.332,2.933,2.933,0,0,0,1.134-.4l.18-1.008-.162-.126a2.753,2.753,0,0,1-.54.072c-.378,0-.522-.144-.522-.612,0-.612.216-3.636.216-4.266C34.812,34.368,33.768,33.54,32.13,33.54Zm.99,4.68-.054,1.386a2.542,2.542,0,0,1-1.8,1.1,1.037,1.037,0,0,1-1.1-1.152.664.664,0,0,1,.612-.774ZM42.66,42h1.854l-.09-3.636.054-2.34c.018-1.548-.936-2.43-2.79-2.43a6.121,6.121,0,0,0-2.214,1.278h-.126l.018-1.206-1.746.162.09,4.7L37.6,42h1.836l-.108-3.636.018-2.2a3.229,3.229,0,0,1,2.16-1.08c.864,0,1.3.558,1.278,1.458Zm7.56-8.46c-2.484,0-3.87,1.6-3.87,4.446,0,2.664,1.314,4.176,3.636,4.176,2.484,0,3.87-1.6,3.87-4.446C53.856,35.052,52.542,33.54,50.22,33.54Zm-.108,1.278c1.35,0,2.034,1.044,2.034,3.312,0,1.89-.684,2.772-2.034,2.772-1.368,0-2.052-1.026-2.052-3.312C48.06,35.736,48.744,34.818,50.112,34.818Zm8.208-1.26c-1.908,0-3.024,1.08-3.024,2.5,0,2.61,3.726,2.268,3.726,3.8a1.151,1.151,0,0,1-1.278,1.062,3.8,3.8,0,0,1-2.3-.972l-.2.126-.216,1.53a6.518,6.518,0,0,0,2.52.558c2.07,0,3.114-1.278,3.114-2.61,0-2.538-3.726-2.214-3.726-3.726a1.051,1.051,0,0,1,1.17-.99,3.357,3.357,0,0,1,1.836.63l.234-.054.252-1.44A5.7,5.7,0,0,0,58.32,33.558Zm10.188-.468-.27-.2-3.87,1.134v1.458l.162.108,2.2-.612.018,3.492L66.636,42H68.49l-.09-3.726Zm6.336-.288a3.347,3.347,0,0,0-3.636,3.456,2.812,2.812,0,0,0,2.916,3.078,3.719,3.719,0,0,0,2.124-.666l.126.144c-.576,1.71-2.07,2.88-4.806,3.852v.18l1.368.828h.108c3.348-1.386,5.274-3.87,5.274-6.894C78.318,34.3,77.148,32.8,74.844,32.8Zm-.2,5.22c-1.152,0-1.8-.72-1.8-2.016a1.749,1.749,0,0,1,1.872-1.962c1.386,0,1.944.936,1.944,2.772l-.018.432A3.279,3.279,0,0,1,74.646,38.022Zm9.342-2.394a3.719,3.719,0,0,0-2.124.666l-.126-.144c.576-1.71,2.07-2.88,4.806-3.852v-.18l-1.368-.828h-.108c-3.348,1.386-5.274,3.87-5.274,6.894,0,2.484,1.17,3.978,3.474,3.978A3.347,3.347,0,0,0,86.9,38.706,2.812,2.812,0,0,0,83.988,35.628Zm-.594,5.292c-1.386,0-1.944-.936-1.944-2.772l.018-.432a3.279,3.279,0,0,1,2-.774c1.152,0,1.8.72,1.8,2.016A1.749,1.749,0,0,1,83.394,40.92Zm9.072-8.064c-2.592,0-4.086,1.746-4.086,4.788,0,2.862,1.4,4.5,3.852,4.5,2.592,0,4.05-1.728,4.05-4.752C96.282,34.494,94.9,32.856,92.466,32.856Zm-.144,1.692c1.656,0,2.538,1.008,2.538,3.06,0,1.944-.864,2.916-2.52,2.916-1.692,0-2.52-1.008-2.52-3.006S90.648,34.548,92.322,34.548Z" transform="translate(24 3646)"/>
    <path id="Caminho_771983" data-name="Caminho 771983" d="M5.886,4.318C2.538,4.318.612,6.478.612,10.33c0,3.726,1.818,5.814,5.058,5.814a6.691,6.691,0,0,0,3.06-.756L8.874,13.7l-.18-.108a4.847,4.847,0,0,1-2.88.99c-2.07,0-3.258-1.512-3.258-4.446,0-2.844,1.152-4.266,3.258-4.266A4.278,4.278,0,0,1,8.478,6.8l.18-.054L9,5.11A6.1,6.1,0,0,0,5.886,4.318ZM13.608,7.54a5.768,5.768,0,0,0-3.24,1.08L10.6,9.9l.144.09A4.1,4.1,0,0,1,13.32,8.836a1.185,1.185,0,0,1,1.3,1.35l-.018.972-2.844.63a1.918,1.918,0,0,0-1.746,2c0,1.44.99,2.34,2.664,2.358a5.271,5.271,0,0,0,1.872-1.35h.126a1.4,1.4,0,0,0,1.314,1.332,2.933,2.933,0,0,0,1.134-.4l.18-1.008-.162-.126a2.753,2.753,0,0,1-.54.072c-.378,0-.522-.144-.522-.612,0-.612.216-3.636.216-4.266C16.29,8.368,15.246,7.54,13.608,7.54Zm.99,4.68-.054,1.386a2.542,2.542,0,0,1-1.8,1.1,1.037,1.037,0,0,1-1.1-1.152.664.664,0,0,1,.612-.774ZM29.214,16h1.854l-.09-3.636.054-2.34c.018-1.548-.936-2.43-2.79-2.43a6.528,6.528,0,0,0-2.376,1.35h-.108a2.527,2.527,0,0,0-2.592-1.35,5.977,5.977,0,0,0-2.214,1.278h-.126l.018-1.206L19.1,7.828l.09,4.7L19.08,16H20.9l-.09-3.636.018-2.2a3.229,3.229,0,0,1,2.16-1.08c.864,0,1.3.558,1.278,1.458L24.138,16h1.836L25.9,12.364l.036-2.232a3.174,3.174,0,0,1,2.124-1.044c.864,0,1.3.558,1.278,1.458ZM34.452,3.832a.973.973,0,0,0-1.044,1.044.914.914,0,0,0,.99,1.008.97.97,0,0,0,1.008-1.062A.89.89,0,0,0,34.452,3.832Zm.72,8.532.144-4.7-1.836.162.09,4.7L33.462,16H35.3Zm5.2-4.806c-1.908,0-3.024,1.08-3.024,2.5,0,2.61,3.726,2.268,3.726,3.8A1.151,1.151,0,0,1,39.8,14.92a3.8,3.8,0,0,1-2.3-.972l-.2.126L37.08,15.6a6.518,6.518,0,0,0,2.52.558c2.07,0,3.114-1.278,3.114-2.61,0-2.538-3.726-2.214-3.726-3.726a1.051,1.051,0,0,1,1.17-.99,3.357,3.357,0,0,1,1.836.63l.234-.054.252-1.44A5.7,5.7,0,0,0,40.374,7.558Zm10.278,4.374.306-.288a7.013,7.013,0,0,0,.072-.9,2.847,2.847,0,0,0-3.024-3.186c-2.412,0-3.978,1.638-3.978,4.338,0,2.628,1.44,4.266,3.924,4.266a5.842,5.842,0,0,0,2.52-.612l.216-1.458-.162-.108a4.941,4.941,0,0,1-2.43.756c-1.584,0-2.34-1.026-2.376-2.808Zm-1.3-1.206-3.546.09a2.11,2.11,0,0,1,2.088-2c.9,0,1.494.522,1.494,1.692Zm6.5,3.888c-.738,0-1.062-.288-1.044-1.188l.09-4.518h2.322l.09-1.044-.072-.126h-2.3l.036-1.782-.162-.144-1.62.612V7.738h-1.1L52,8.8l.072.108h1.134l.018,3.51-.072,1.3a2.148,2.148,0,0,0,2.124,2.394,5.2,5.2,0,0,0,1.836-.54l.18-1.152-.18-.126A2.838,2.838,0,0,1,55.854,14.614Zm5.94-7.074a5.768,5.768,0,0,0-3.24,1.08L58.788,9.9l.144.09a4.1,4.1,0,0,1,2.574-1.152,1.185,1.185,0,0,1,1.3,1.35l-.018.972-2.844.63a1.918,1.918,0,0,0-1.746,2c0,1.44.99,2.34,2.664,2.358a5.271,5.271,0,0,0,1.872-1.35h.126a1.4,1.4,0,0,0,1.314,1.332,2.933,2.933,0,0,0,1.134-.4l.18-1.008-.162-.126a2.753,2.753,0,0,1-.54.072c-.378,0-.522-.144-.522-.612,0-.612.216-3.636.216-4.266C64.476,8.368,63.432,7.54,61.794,7.54Zm.99,4.68-.054,1.386a2.542,2.542,0,0,1-1.8,1.1,1.037,1.037,0,0,1-1.1-1.152.664.664,0,0,1,.612-.774Zm6.984-4.662c-1.908,0-3.024,1.08-3.024,2.5,0,2.61,3.726,2.268,3.726,3.8a1.151,1.151,0,0,1-1.278,1.062,3.8,3.8,0,0,1-2.3-.972l-.2.126-.216,1.53a6.518,6.518,0,0,0,2.52.558c2.07,0,3.114-1.278,3.114-2.61,0-2.538-3.726-2.214-3.726-3.726a1.051,1.051,0,0,1,1.17-.99,3.357,3.357,0,0,1,1.836.63l.234-.054.252-1.44A5.7,5.7,0,0,0,69.768,7.558ZM80.1,7.54c-2.376,0-3.8,1.674-3.8,4.392,0,2.628,1.332,4.23,3.582,4.23a6.427,6.427,0,0,0,2.2-.414l.18-1.476-.162-.108a4.329,4.329,0,0,1-1.926.54c-1.368,0-2.142-1.08-2.142-2.916,0-1.746.756-2.736,2.034-2.736a3.568,3.568,0,0,1,1.764.558l.18-.072.306-1.53A5.4,5.4,0,0,0,80.1,7.54Zm6.984,0c-2.484,0-3.87,1.6-3.87,4.446,0,2.664,1.314,4.176,3.636,4.176,2.484,0,3.87-1.6,3.87-4.446C90.72,9.052,89.406,7.54,87.084,7.54Zm-.108,1.278c1.35,0,2.034,1.044,2.034,3.312,0,1.89-.684,2.772-2.034,2.772-1.368,0-2.052-1.026-2.052-3.312C84.924,9.736,85.608,8.818,86.976,8.818ZM102.816,16h1.854l-.09-3.636.054-2.34c.018-1.548-.936-2.43-2.79-2.43a6.528,6.528,0,0,0-2.376,1.35H99.36a2.527,2.527,0,0,0-2.592-1.35,5.977,5.977,0,0,0-2.214,1.278h-.126l.018-1.206L92.7,7.828l.09,4.7L92.682,16H94.5l-.09-3.636.018-2.2a3.229,3.229,0,0,1,2.16-1.08c.864,0,1.3.558,1.278,1.458L97.74,16h1.836L99.5,12.364l.036-2.232a3.174,3.174,0,0,1,2.124-1.044c.864,0,1.3.558,1.278,1.458ZM113.8,3.328c-2.07,0-3.276,1.116-3.258,3.168l.018,1.242h-1.224l-.09,1.062.072.108h1.242l.036,3.6L110.484,16h1.836l-.126-3.654.054-3.438h2.088l.108-1.044-.054-.126h-2.124l.018-1.548c.018-1.044.5-1.548,1.35-1.548a3.3,3.3,0,0,1,1.386.342l.126-.108.108-1.386A6.955,6.955,0,0,0,113.8,3.328Zm5.94,4.356a2.655,2.655,0,0,0-2.268,1.638h-.126l.018-1.656-1.746.162.108,4.7L115.6,16h1.836l-.126-3.636.018-1.188c.63-1.242,1.26-1.746,2-1.746a2.519,2.519,0,0,1,.666.09l.2-.054V7.72A3.506,3.506,0,0,0,119.736,7.684Zm4.644-.144a5.768,5.768,0,0,0-3.24,1.08l.234,1.278.144.09a4.1,4.1,0,0,1,2.574-1.152,1.185,1.185,0,0,1,1.3,1.35l-.018.972-2.844.63a1.918,1.918,0,0,0-1.746,2c0,1.44.99,2.34,2.664,2.358a5.271,5.271,0,0,0,1.872-1.35h.126a1.4,1.4,0,0,0,1.314,1.332,2.933,2.933,0,0,0,1.134-.4l.18-1.008-.162-.126a2.753,2.753,0,0,1-.54.072c-.378,0-.522-.144-.522-.612,0-.612.216-3.636.216-4.266C127.062,8.368,126.018,7.54,124.38,7.54Zm.99,4.68-.054,1.386a2.542,2.542,0,0,1-1.8,1.1,1.037,1.037,0,0,1-1.1-1.152.664.664,0,0,1,.612-.774Zm6.984-4.662c-1.908,0-3.024,1.08-3.024,2.5,0,2.61,3.726,2.268,3.726,3.8a1.151,1.151,0,0,1-1.278,1.062,3.8,3.8,0,0,1-2.3-.972l-.2.126-.216,1.53a6.518,6.518,0,0,0,2.52.558c2.07,0,3.114-1.278,3.114-2.61,0-2.538-3.726-2.214-3.726-3.726a1.051,1.051,0,0,1,1.17-.99,3.357,3.357,0,0,1,1.836.63l.234-.054.252-1.44A5.7,5.7,0,0,0,132.354,7.558Zm10.278,4.374.306-.288a7.011,7.011,0,0,0,.072-.9,2.847,2.847,0,0,0-3.024-3.186c-2.412,0-3.978,1.638-3.978,4.338,0,2.628,1.44,4.266,3.924,4.266a5.842,5.842,0,0,0,2.52-.612l.216-1.458-.162-.108a4.941,4.941,0,0,1-2.43.756c-1.584,0-2.34-1.026-2.376-2.808Zm-1.3-1.206-3.546.09a2.11,2.11,0,0,1,2.088-2c.9,0,1.494.522,1.494,1.692ZM147.4,7.558c-1.908,0-3.024,1.08-3.024,2.5,0,2.61,3.726,2.268,3.726,3.8a1.151,1.151,0,0,1-1.278,1.062,3.8,3.8,0,0,1-2.3-.972l-.2.126-.216,1.53a6.518,6.518,0,0,0,2.52.558c2.07,0,3.114-1.278,3.114-2.61,0-2.538-3.726-2.214-3.726-3.726a1.051,1.051,0,0,1,1.17-.99,3.357,3.357,0,0,1,1.836.63l.234-.054.252-1.44A5.7,5.7,0,0,0,147.4,7.558ZM7.776,38.346l.144-8.982-1.836.144L6.12,33.7a7.586,7.586,0,0,0-1.4-.144c-2.538,0-4.086,1.548-4.086,4.32,0,2.664,1.314,4.23,3.726,4.23a7.351,7.351,0,0,0,1.872-1.242h.144A1.425,1.425,0,0,0,7.7,42.126a2.917,2.917,0,0,0,1.152-.4l.162-1.008L8.856,40.6a2.6,2.6,0,0,1-.558.072c-.342,0-.45-.144-.468-.594Zm-3.24-3.528a3.717,3.717,0,0,1,1.6.414l.054,3.276-.036,1.17a2.3,2.3,0,0,1-1.764.936c-1.26,0-2.016-1.026-2.034-2.952C2.322,35.736,3.186,34.818,4.536,34.818ZM13.9,33.54c-2.484,0-3.87,1.6-3.87,4.446,0,2.664,1.314,4.176,3.636,4.176,2.484,0,3.87-1.6,3.87-4.446C17.532,35.052,16.218,33.54,13.9,33.54Zm-.108,1.278c1.35,0,2.034,1.044,2.034,3.312,0,1.89-.684,2.772-2.034,2.772-1.368,0-2.052-1.026-2.052-3.312C11.736,35.736,12.42,34.818,13.788,34.818ZM22,33.558c-1.908,0-3.024,1.08-3.024,2.5,0,2.61,3.726,2.268,3.726,3.8A1.151,1.151,0,0,1,21.42,40.92a3.8,3.8,0,0,1-2.3-.972l-.2.126L18.7,41.6a6.518,6.518,0,0,0,2.52.558c2.07,0,3.114-1.278,3.114-2.61,0-2.538-3.726-2.214-3.726-3.726a1.051,1.051,0,0,1,1.17-.99,3.357,3.357,0,0,1,1.836.63l.234-.054.252-1.44A5.7,5.7,0,0,0,22,33.558ZM32.13,33.54a5.768,5.768,0,0,0-3.24,1.08l.234,1.278.144.09a4.1,4.1,0,0,1,2.574-1.152,1.185,1.185,0,0,1,1.3,1.35l-.018.972-2.844.63a1.918,1.918,0,0,0-1.746,2c0,1.44.99,2.34,2.664,2.358a5.271,5.271,0,0,0,1.872-1.35h.126a1.4,1.4,0,0,0,1.314,1.332,2.933,2.933,0,0,0,1.134-.4l.18-1.008-.162-.126a2.753,2.753,0,0,1-.54.072c-.378,0-.522-.144-.522-.612,0-.612.216-3.636.216-4.266C34.812,34.368,33.768,33.54,32.13,33.54Zm.99,4.68-.054,1.386a2.542,2.542,0,0,1-1.8,1.1,1.037,1.037,0,0,1-1.1-1.152.664.664,0,0,1,.612-.774ZM42.66,42h1.854l-.09-3.636.054-2.34c.018-1.548-.936-2.43-2.79-2.43a6.121,6.121,0,0,0-2.214,1.278h-.126l.018-1.206-1.746.162.09,4.7L37.6,42h1.836l-.108-3.636.018-2.2a3.229,3.229,0,0,1,2.16-1.08c.864,0,1.3.558,1.278,1.458Zm7.56-8.46c-2.484,0-3.87,1.6-3.87,4.446,0,2.664,1.314,4.176,3.636,4.176,2.484,0,3.87-1.6,3.87-4.446C53.856,35.052,52.542,33.54,50.22,33.54Zm-.108,1.278c1.35,0,2.034,1.044,2.034,3.312,0,1.89-.684,2.772-2.034,2.772-1.368,0-2.052-1.026-2.052-3.312C48.06,35.736,48.744,34.818,50.112,34.818Zm8.208-1.26c-1.908,0-3.024,1.08-3.024,2.5,0,2.61,3.726,2.268,3.726,3.8a1.151,1.151,0,0,1-1.278,1.062,3.8,3.8,0,0,1-2.3-.972l-.2.126-.216,1.53a6.518,6.518,0,0,0,2.52.558c2.07,0,3.114-1.278,3.114-2.61,0-2.538-3.726-2.214-3.726-3.726a1.051,1.051,0,0,1,1.17-.99,3.357,3.357,0,0,1,1.836.63l.234-.054.252-1.44A5.7,5.7,0,0,0,58.32,33.558Zm10.188-.468-.27-.2-3.87,1.134v1.458l.162.108,2.2-.612.018,3.492L66.636,42H68.49l-.09-3.726Zm6.336-.288a3.347,3.347,0,0,0-3.636,3.456,2.812,2.812,0,0,0,2.916,3.078,3.719,3.719,0,0,0,2.124-.666l.126.144c-.576,1.71-2.07,2.88-4.806,3.852v.18l1.368.828h.108c3.348-1.386,5.274-3.87,5.274-6.894C78.318,34.3,77.148,32.8,74.844,32.8Zm-.2,5.22c-1.152,0-1.8-.72-1.8-2.016a1.749,1.749,0,0,1,1.872-1.962c1.386,0,1.944.936,1.944,2.772l-.018.432A3.279,3.279,0,0,1,74.646,38.022Zm6.66-5.04-1.782-.072L79.4,34.476l.108.18L81,34.494h3.456l-4.014,8.622.108.306,1.476.4.882-2.358L86.184,34.3l-.018-1.35-.81.036Zm10.242-.126c-2.592,0-4.086,1.746-4.086,4.788,0,2.862,1.4,4.5,3.852,4.5,2.592,0,4.05-1.728,4.05-4.752C95.364,34.494,93.978,32.856,91.548,32.856ZM91.4,34.548c1.656,0,2.538,1.008,2.538,3.06,0,1.944-.864,2.916-2.52,2.916-1.692,0-2.52-1.008-2.52-3.006S89.73,34.548,91.4,34.548Z" transform="translate(24 3709)"/>
    <path id="Caminho_771984" data-name="Caminho 771984" d="M5.886,4.318C2.538,4.318.612,6.478.612,10.33c0,3.726,1.818,5.814,5.058,5.814a6.691,6.691,0,0,0,3.06-.756L8.874,13.7l-.18-.108a4.847,4.847,0,0,1-2.88.99c-2.07,0-3.258-1.512-3.258-4.446,0-2.844,1.152-4.266,3.258-4.266A4.278,4.278,0,0,1,8.478,6.8l.18-.054L9,5.11A6.1,6.1,0,0,0,5.886,4.318ZM13.608,7.54a5.768,5.768,0,0,0-3.24,1.08L10.6,9.9l.144.09A4.1,4.1,0,0,1,13.32,8.836a1.185,1.185,0,0,1,1.3,1.35l-.018.972-2.844.63a1.918,1.918,0,0,0-1.746,2c0,1.44.99,2.34,2.664,2.358a5.271,5.271,0,0,0,1.872-1.35h.126a1.4,1.4,0,0,0,1.314,1.332,2.933,2.933,0,0,0,1.134-.4l.18-1.008-.162-.126a2.753,2.753,0,0,1-.54.072c-.378,0-.522-.144-.522-.612,0-.612.216-3.636.216-4.266C16.29,8.368,15.246,7.54,13.608,7.54Zm.99,4.68-.054,1.386a2.542,2.542,0,0,1-1.8,1.1,1.037,1.037,0,0,1-1.1-1.152.664.664,0,0,1,.612-.774ZM29.214,16h1.854l-.09-3.636.054-2.34c.018-1.548-.936-2.43-2.79-2.43a6.528,6.528,0,0,0-2.376,1.35h-.108a2.527,2.527,0,0,0-2.592-1.35,5.977,5.977,0,0,0-2.214,1.278h-.126l.018-1.206L19.1,7.828l.09,4.7L19.08,16H20.9l-.09-3.636.018-2.2a3.229,3.229,0,0,1,2.16-1.08c.864,0,1.3.558,1.278,1.458L24.138,16h1.836L25.9,12.364l.036-2.232a3.174,3.174,0,0,1,2.124-1.044c.864,0,1.3.558,1.278,1.458ZM34.452,3.832a.973.973,0,0,0-1.044,1.044.914.914,0,0,0,.99,1.008.97.97,0,0,0,1.008-1.062A.89.89,0,0,0,34.452,3.832Zm.72,8.532.144-4.7-1.836.162.09,4.7L33.462,16H35.3Zm5.2-4.806c-1.908,0-3.024,1.08-3.024,2.5,0,2.61,3.726,2.268,3.726,3.8A1.151,1.151,0,0,1,39.8,14.92a3.8,3.8,0,0,1-2.3-.972l-.2.126L37.08,15.6a6.518,6.518,0,0,0,2.52.558c2.07,0,3.114-1.278,3.114-2.61,0-2.538-3.726-2.214-3.726-3.726a1.051,1.051,0,0,1,1.17-.99,3.357,3.357,0,0,1,1.836.63l.234-.054.252-1.44A5.7,5.7,0,0,0,40.374,7.558Zm10.278,4.374.306-.288a7.013,7.013,0,0,0,.072-.9,2.847,2.847,0,0,0-3.024-3.186c-2.412,0-3.978,1.638-3.978,4.338,0,2.628,1.44,4.266,3.924,4.266a5.842,5.842,0,0,0,2.52-.612l.216-1.458-.162-.108a4.941,4.941,0,0,1-2.43.756c-1.584,0-2.34-1.026-2.376-2.808Zm-1.3-1.206-3.546.09a2.11,2.11,0,0,1,2.088-2c.9,0,1.494.522,1.494,1.692Zm6.5,3.888c-.738,0-1.062-.288-1.044-1.188l.09-4.518h2.322l.09-1.044-.072-.126h-2.3l.036-1.782-.162-.144-1.62.612V7.738h-1.1L52,8.8l.072.108h1.134l.018,3.51-.072,1.3a2.148,2.148,0,0,0,2.124,2.394,5.2,5.2,0,0,0,1.836-.54l.18-1.152-.18-.126A2.838,2.838,0,0,1,55.854,14.614Zm5.94-7.074a5.768,5.768,0,0,0-3.24,1.08L58.788,9.9l.144.09a4.1,4.1,0,0,1,2.574-1.152,1.185,1.185,0,0,1,1.3,1.35l-.018.972-2.844.63a1.918,1.918,0,0,0-1.746,2c0,1.44.99,2.34,2.664,2.358a5.271,5.271,0,0,0,1.872-1.35h.126a1.4,1.4,0,0,0,1.314,1.332,2.933,2.933,0,0,0,1.134-.4l.18-1.008-.162-.126a2.753,2.753,0,0,1-.54.072c-.378,0-.522-.144-.522-.612,0-.612.216-3.636.216-4.266C64.476,8.368,63.432,7.54,61.794,7.54Zm.99,4.68-.054,1.386a2.542,2.542,0,0,1-1.8,1.1,1.037,1.037,0,0,1-1.1-1.152.664.664,0,0,1,.612-.774Zm6.984-4.662c-1.908,0-3.024,1.08-3.024,2.5,0,2.61,3.726,2.268,3.726,3.8a1.151,1.151,0,0,1-1.278,1.062,3.8,3.8,0,0,1-2.3-.972l-.2.126-.216,1.53a6.518,6.518,0,0,0,2.52.558c2.07,0,3.114-1.278,3.114-2.61,0-2.538-3.726-2.214-3.726-3.726a1.051,1.051,0,0,1,1.17-.99,3.357,3.357,0,0,1,1.836.63l.234-.054.252-1.44A5.7,5.7,0,0,0,69.768,7.558ZM80.1,7.54c-2.376,0-3.8,1.674-3.8,4.392,0,2.628,1.332,4.23,3.582,4.23a6.427,6.427,0,0,0,2.2-.414l.18-1.476-.162-.108a4.329,4.329,0,0,1-1.926.54c-1.368,0-2.142-1.08-2.142-2.916,0-1.746.756-2.736,2.034-2.736a3.568,3.568,0,0,1,1.764.558l.18-.072.306-1.53A5.4,5.4,0,0,0,80.1,7.54Zm6.984,0c-2.484,0-3.87,1.6-3.87,4.446,0,2.664,1.314,4.176,3.636,4.176,2.484,0,3.87-1.6,3.87-4.446C90.72,9.052,89.406,7.54,87.084,7.54Zm-.108,1.278c1.35,0,2.034,1.044,2.034,3.312,0,1.89-.684,2.772-2.034,2.772-1.368,0-2.052-1.026-2.052-3.312C84.924,9.736,85.608,8.818,86.976,8.818ZM102.816,16h1.854l-.09-3.636.054-2.34c.018-1.548-.936-2.43-2.79-2.43a6.528,6.528,0,0,0-2.376,1.35H99.36a2.527,2.527,0,0,0-2.592-1.35,5.977,5.977,0,0,0-2.214,1.278h-.126l.018-1.206L92.7,7.828l.09,4.7L92.682,16H94.5l-.09-3.636.018-2.2a3.229,3.229,0,0,1,2.16-1.08c.864,0,1.3.558,1.278,1.458L97.74,16h1.836L99.5,12.364l.036-2.232a3.174,3.174,0,0,1,2.124-1.044c.864,0,1.3.558,1.278,1.458ZM113.8,3.328c-2.07,0-3.276,1.116-3.258,3.168l.018,1.242h-1.224l-.09,1.062.072.108h1.242l.036,3.6L110.484,16h1.836l-.126-3.654.054-3.438h2.088l.108-1.044-.054-.126h-2.124l.018-1.548c.018-1.044.5-1.548,1.35-1.548a3.3,3.3,0,0,1,1.386.342l.126-.108.108-1.386A6.955,6.955,0,0,0,113.8,3.328Zm5.94,4.356a2.655,2.655,0,0,0-2.268,1.638h-.126l.018-1.656-1.746.162.108,4.7L115.6,16h1.836l-.126-3.636.018-1.188c.63-1.242,1.26-1.746,2-1.746a2.519,2.519,0,0,1,.666.09l.2-.054V7.72A3.506,3.506,0,0,0,119.736,7.684Zm4.644-.144a5.768,5.768,0,0,0-3.24,1.08l.234,1.278.144.09a4.1,4.1,0,0,1,2.574-1.152,1.185,1.185,0,0,1,1.3,1.35l-.018.972-2.844.63a1.918,1.918,0,0,0-1.746,2c0,1.44.99,2.34,2.664,2.358a5.271,5.271,0,0,0,1.872-1.35h.126a1.4,1.4,0,0,0,1.314,1.332,2.933,2.933,0,0,0,1.134-.4l.18-1.008-.162-.126a2.753,2.753,0,0,1-.54.072c-.378,0-.522-.144-.522-.612,0-.612.216-3.636.216-4.266C127.062,8.368,126.018,7.54,124.38,7.54Zm.99,4.68-.054,1.386a2.542,2.542,0,0,1-1.8,1.1,1.037,1.037,0,0,1-1.1-1.152.664.664,0,0,1,.612-.774Zm6.984-4.662c-1.908,0-3.024,1.08-3.024,2.5,0,2.61,3.726,2.268,3.726,3.8a1.151,1.151,0,0,1-1.278,1.062,3.8,3.8,0,0,1-2.3-.972l-.2.126-.216,1.53a6.518,6.518,0,0,0,2.52.558c2.07,0,3.114-1.278,3.114-2.61,0-2.538-3.726-2.214-3.726-3.726a1.051,1.051,0,0,1,1.17-.99,3.357,3.357,0,0,1,1.836.63l.234-.054.252-1.44A5.7,5.7,0,0,0,132.354,7.558Zm10.278,4.374.306-.288a7.011,7.011,0,0,0,.072-.9,2.847,2.847,0,0,0-3.024-3.186c-2.412,0-3.978,1.638-3.978,4.338,0,2.628,1.44,4.266,3.924,4.266a5.842,5.842,0,0,0,2.52-.612l.216-1.458-.162-.108a4.941,4.941,0,0,1-2.43.756c-1.584,0-2.34-1.026-2.376-2.808Zm-1.3-1.206-3.546.09a2.11,2.11,0,0,1,2.088-2c.9,0,1.494.522,1.494,1.692ZM147.4,7.558c-1.908,0-3.024,1.08-3.024,2.5,0,2.61,3.726,2.268,3.726,3.8a1.151,1.151,0,0,1-1.278,1.062,3.8,3.8,0,0,1-2.3-.972l-.2.126-.216,1.53a6.518,6.518,0,0,0,2.52.558c2.07,0,3.114-1.278,3.114-2.61,0-2.538-3.726-2.214-3.726-3.726a1.051,1.051,0,0,1,1.17-.99,3.357,3.357,0,0,1,1.836.63l.234-.054.252-1.44A5.7,5.7,0,0,0,147.4,7.558ZM7.776,38.346l.144-8.982-1.836.144L6.12,33.7a7.586,7.586,0,0,0-1.4-.144c-2.538,0-4.086,1.548-4.086,4.32,0,2.664,1.314,4.23,3.726,4.23a7.351,7.351,0,0,0,1.872-1.242h.144A1.425,1.425,0,0,0,7.7,42.126a2.917,2.917,0,0,0,1.152-.4l.162-1.008L8.856,40.6a2.6,2.6,0,0,1-.558.072c-.342,0-.45-.144-.468-.594Zm-3.24-3.528a3.717,3.717,0,0,1,1.6.414l.054,3.276-.036,1.17a2.3,2.3,0,0,1-1.764.936c-1.26,0-2.016-1.026-2.034-2.952C2.322,35.736,3.186,34.818,4.536,34.818ZM13.9,33.54c-2.484,0-3.87,1.6-3.87,4.446,0,2.664,1.314,4.176,3.636,4.176,2.484,0,3.87-1.6,3.87-4.446C17.532,35.052,16.218,33.54,13.9,33.54Zm-.108,1.278c1.35,0,2.034,1.044,2.034,3.312,0,1.89-.684,2.772-2.034,2.772-1.368,0-2.052-1.026-2.052-3.312C11.736,35.736,12.42,34.818,13.788,34.818ZM22,33.558c-1.908,0-3.024,1.08-3.024,2.5,0,2.61,3.726,2.268,3.726,3.8A1.151,1.151,0,0,1,21.42,40.92a3.8,3.8,0,0,1-2.3-.972l-.2.126L18.7,41.6a6.518,6.518,0,0,0,2.52.558c2.07,0,3.114-1.278,3.114-2.61,0-2.538-3.726-2.214-3.726-3.726a1.051,1.051,0,0,1,1.17-.99,3.357,3.357,0,0,1,1.836.63l.234-.054.252-1.44A5.7,5.7,0,0,0,22,33.558ZM32.13,33.54a5.768,5.768,0,0,0-3.24,1.08l.234,1.278.144.09a4.1,4.1,0,0,1,2.574-1.152,1.185,1.185,0,0,1,1.3,1.35l-.018.972-2.844.63a1.918,1.918,0,0,0-1.746,2c0,1.44.99,2.34,2.664,2.358a5.271,5.271,0,0,0,1.872-1.35h.126a1.4,1.4,0,0,0,1.314,1.332,2.933,2.933,0,0,0,1.134-.4l.18-1.008-.162-.126a2.753,2.753,0,0,1-.54.072c-.378,0-.522-.144-.522-.612,0-.612.216-3.636.216-4.266C34.812,34.368,33.768,33.54,32.13,33.54Zm.99,4.68-.054,1.386a2.542,2.542,0,0,1-1.8,1.1,1.037,1.037,0,0,1-1.1-1.152.664.664,0,0,1,.612-.774ZM42.66,42h1.854l-.09-3.636.054-2.34c.018-1.548-.936-2.43-2.79-2.43a6.121,6.121,0,0,0-2.214,1.278h-.126l.018-1.206-1.746.162.09,4.7L37.6,42h1.836l-.108-3.636.018-2.2a3.229,3.229,0,0,1,2.16-1.08c.864,0,1.3.558,1.278,1.458Zm7.56-8.46c-2.484,0-3.87,1.6-3.87,4.446,0,2.664,1.314,4.176,3.636,4.176,2.484,0,3.87-1.6,3.87-4.446C53.856,35.052,52.542,33.54,50.22,33.54Zm-.108,1.278c1.35,0,2.034,1.044,2.034,3.312,0,1.89-.684,2.772-2.034,2.772-1.368,0-2.052-1.026-2.052-3.312C48.06,35.736,48.744,34.818,50.112,34.818Zm8.208-1.26c-1.908,0-3.024,1.08-3.024,2.5,0,2.61,3.726,2.268,3.726,3.8a1.151,1.151,0,0,1-1.278,1.062,3.8,3.8,0,0,1-2.3-.972l-.2.126-.216,1.53a6.518,6.518,0,0,0,2.52.558c2.07,0,3.114-1.278,3.114-2.61,0-2.538-3.726-2.214-3.726-3.726a1.051,1.051,0,0,1,1.17-.99,3.357,3.357,0,0,1,1.836.63l.234-.054.252-1.44A5.7,5.7,0,0,0,58.32,33.558Zm10.188-.468-.27-.2-3.87,1.134v1.458l.162.108,2.2-.612.018,3.492L66.636,42H68.49l-.09-3.726Zm6.336-.288a3.347,3.347,0,0,0-3.636,3.456,2.812,2.812,0,0,0,2.916,3.078,3.719,3.719,0,0,0,2.124-.666l.126.144c-.576,1.71-2.07,2.88-4.806,3.852v.18l1.368.828h.108c3.348-1.386,5.274-3.87,5.274-6.894C78.318,34.3,77.148,32.8,74.844,32.8Zm-.2,5.22c-1.152,0-1.8-.72-1.8-2.016a1.749,1.749,0,0,1,1.872-1.962c1.386,0,1.944.936,1.944,2.772l-.018.432A3.279,3.279,0,0,1,74.646,38.022Zm8.91-6.7c-1.944,0-3.294,1.062-3.294,2.844A2.678,2.678,0,0,0,81.9,36.654v.09a2.983,2.983,0,0,0-2.034,2.682c0,1.584,1.188,2.718,3.294,2.718,2.2,0,3.654-1.17,3.654-3.042a2.821,2.821,0,0,0-1.98-2.592v-.09a2.937,2.937,0,0,0,1.656-2.538C86.49,32.3,85.392,31.326,83.556,31.326Zm-.09,1.3a1.4,1.4,0,0,1,1.584,1.44c0,1.008-.72,1.494-1.53,1.872-.918-.36-1.746-.792-1.746-1.818C81.774,33.2,82.4,32.622,83.466,32.622Zm-.27,4.662c1.062.432,2.088.828,2.088,1.944,0,.936-.72,1.638-1.962,1.638-1.188,0-1.908-.666-1.908-1.656C81.414,38.094,82.26,37.626,83.2,37.284Zm9.4-4.428c-2.592,0-4.086,1.746-4.086,4.788,0,2.862,1.4,4.5,3.852,4.5,2.592,0,4.05-1.728,4.05-4.752C96.408,34.494,95.022,32.856,92.592,32.856Zm-.144,1.692c1.656,0,2.538,1.008,2.538,3.06,0,1.944-.864,2.916-2.52,2.916-1.692,0-2.52-1.008-2.52-3.006S90.774,34.548,92.448,34.548Z" transform="translate(24 3772)"/>
    <path id="Caminho_771981" data-name="Caminho 771981" d="M4.32,7.09l-.27-.2L.18,8.026V9.484l.162.108,2.2-.612.018,3.492L2.448,16H4.3l-.09-3.726Zm8.946-.072-.108-.126-1.764.09h-2.5L7.9,6.928,7.65,7.18l-.09,4.86L7.7,12.2l1.6.306c1.512.27,2.106.828,2.106,1.782,0,1.206-.936,2.034-2.43,2.034a4.99,4.99,0,0,1-2.052-.45l-.144.144.126,1.548a10.218,10.218,0,0,0,1.818.2c2.592,0,4.41-1.53,4.41-3.762,0-1.422-.756-2.376-3.024-2.844L9,10.924l.054-2.466h2.412l1.476.126.126-.126Zm5.526-.162c-2.592,0-4.086,1.746-4.086,4.788,0,2.862,1.4,4.5,3.852,4.5,2.592,0,4.05-1.728,4.05-4.752C22.608,8.494,21.222,6.856,18.792,6.856Zm-.144,1.692c1.656,0,2.538,1.008,2.538,3.06,0,1.944-.864,2.916-2.52,2.916-1.692,0-2.52-1.008-2.52-3.006S16.974,8.548,18.648,8.548Z" transform="translate(207 3657)"/>
    <path id="Caminho_771986" data-name="Caminho 771986" d="M3.528,6.874A4.854,4.854,0,0,0,.5,7.972l.27,1.386h.2a3.494,3.494,0,0,1,2.2-.99A1.249,1.249,0,0,1,4.59,9.628a1.982,1.982,0,0,1-2,1.818l-.792.018-.054,1.26.108.126H2.988c1.332.054,2.034.63,2.034,1.62,0,1.152-.954,1.854-2.43,1.854a4.835,4.835,0,0,1-1.908-.4l-.126.126.09,1.512a12.458,12.458,0,0,0,1.854.162c2.556,0,4.266-1.368,4.266-3.4A2.394,2.394,0,0,0,4.68,11.95v-.072A3.028,3.028,0,0,0,6.444,9.232C6.444,7.828,5.274,6.874,3.528,6.874Zm8.892-.018c-2.592,0-4.086,1.746-4.086,4.788,0,2.862,1.4,4.5,3.852,4.5,2.592,0,4.05-1.728,4.05-4.752C16.236,8.494,14.85,6.856,12.42,6.856Zm-.144,1.692c1.656,0,2.538,1.008,2.538,3.06,0,1.944-.864,2.916-2.52,2.916-1.692,0-2.52-1.008-2.52-3.006S10.6,8.548,12.276,8.548ZM21.87,6.856c-2.592,0-4.086,1.746-4.086,4.788,0,2.862,1.4,4.5,3.852,4.5,2.592,0,4.05-1.728,4.05-4.752C25.686,8.494,24.3,6.856,21.87,6.856Zm-.144,1.692c1.656,0,2.538,1.008,2.538,3.06,0,1.944-.864,2.916-2.52,2.916-1.692,0-2.52-1.008-2.52-3.006S20.052,8.548,21.726,8.548Z" transform="translate(207 3720)"/>
    <path id="Caminho_771985" data-name="Caminho 771985" d="M4.32,7.09l-.27-.2L.18,8.026V9.484l.162.108,2.2-.612.018,3.492L2.448,16H4.3l-.09-3.726Zm6.858-.234c-2.592,0-4.086,1.746-4.086,4.788,0,2.862,1.4,4.5,3.852,4.5,2.592,0,4.05-1.728,4.05-4.752C14.994,8.494,13.608,6.856,11.178,6.856Zm-.144,1.692c1.656,0,2.538,1.008,2.538,3.06,0,1.944-.864,2.916-2.52,2.916-1.692,0-2.52-1.008-2.52-3.006S9.36,8.548,11.034,8.548Zm9.594-1.692c-2.592,0-4.086,1.746-4.086,4.788,0,2.862,1.4,4.5,3.852,4.5,2.592,0,4.05-1.728,4.05-4.752C24.444,8.494,23.058,6.856,20.628,6.856Zm-.144,1.692c1.656,0,2.538,1.008,2.538,3.06,0,1.944-.864,2.916-2.52,2.916-1.692,0-2.52-1.008-2.52-3.006S18.81,8.548,20.484,8.548Z" transform="translate(207 3783)"/>
  </g>
</svg>
