<svg xmlns="http://www.w3.org/2000/svg" width="328" height="258" viewBox="0 0 328 258">
  <g id="_img_Tabela_3-mob_" data-name="&lt;img Tabela_3-mob&gt;" transform="translate(-16 -3569)">
    <rect id="Retângulo_124926" data-name="Retângulo 124926" width="184" height="68" transform="translate(16 3569)" fill="#0024a9"/>
    <rect id="Retângulo_125035" data-name="Retângulo 125035" width="144" height="68" transform="translate(200 3569)" fill="#0024a9"/>
    <path id="Caminho_771995" data-name="Caminho 771995" d="M7.29,17.02c-2.34,0-3.744-1.854-3.744-4.32S4.95,8.38,7.29,8.38a4.3,4.3,0,0,1,2.5.792l1.17-1.836A6.515,6.515,0,0,0,7.092,6.13c-3.942,0-6.3,2.79-6.3,6.57,0,3.8,2.358,6.57,6.3,6.57a6.474,6.474,0,0,0,3.87-1.206l-1.17-1.836A4.42,4.42,0,0,1,7.29,17.02ZM17.478,9.91c-3.564,0-5.094,2.592-5.094,5.256,0,2.412,1.242,4.1,3.294,4.1,1.656,0,2.682-1.17,3.312-2.772L18.72,19h2.538V11.062A6.617,6.617,0,0,0,17.478,9.91Zm-1.026,7.326c-.81,0-1.44-.522-1.44-2.16,0-1.242.432-3.24,2.43-3.24a2.954,2.954,0,0,1,1.26.306C18.558,14.5,18.036,17.236,16.452,17.236ZM27.918,19.27a5.8,5.8,0,0,0,2.016-.378l-.522-1.98a2.573,2.573,0,0,1-.9.18c-.936,0-1.386-.558-1.386-1.674v-3.24h2.466v-2H27.126V7.426H25.452l-.18.972C25,9.82,24.858,10.18,23.238,10.18h-.27v2h1.638V15.85C24.606,17.956,25.722,19.27,27.918,19.27Zm8.046-2a2.327,2.327,0,0,1-2.394-1.728l5.4-.63a4.651,4.651,0,0,0,.234-1.476,3.452,3.452,0,0,0-3.78-3.528,4.3,4.3,0,0,0-4.41,4.644,4.455,4.455,0,0,0,4.77,4.716,5.429,5.429,0,0,0,3.2-.99l-.936-1.638A4.04,4.04,0,0,1,35.964,17.272Zm-.4-5.418c.792,0,1.368.414,1.368,1.188a1.391,1.391,0,0,1-.054.45l-3.42.414A2.159,2.159,0,0,1,35.568,11.854ZM45.882,9.91c-3.564,0-5.094,2.592-5.094,5.256,0,2.412,1.242,4.1,3.294,4.1,1.62,0,2.646-1.134,3.276-2.7v1.674c0,1.89-1.008,2.79-2.574,2.79a4.469,4.469,0,0,1-2.412-.738l-1.116,1.8a6.508,6.508,0,0,0,3.582,1.026,4.53,4.53,0,0,0,4.824-4.878V11.062A6.617,6.617,0,0,0,45.882,9.91Zm-1.026,7.326c-.81,0-1.44-.522-1.44-2.16,0-1.242.432-3.24,2.43-3.24a2.714,2.714,0,0,1,1.26.306C46.962,14.5,46.458,17.236,44.856,17.236ZM56.214,19.27a4.452,4.452,0,0,0,4.608-4.68,4.617,4.617,0,1,0-9.234,0A4.456,4.456,0,0,0,56.214,19.27Zm0-2.052c-1.332,0-2.016-1.224-2.016-2.628s.684-2.628,2.016-2.628c1.314,0,2,1.224,2,2.628S57.528,17.218,56.214,17.218ZM68.364,9.91c-1.944,0-2.916,1.44-3.42,3.366l.306-3.1H62.73V19h2.52c0-2.916.18-6.48,2.574-6.48a2.856,2.856,0,0,1,.9.162l.666-2.628A3.718,3.718,0,0,0,68.364,9.91Zm3.816-.972a1.65,1.65,0,0,0,1.692-1.71,1.7,1.7,0,1,0-3.4,0A1.654,1.654,0,0,0,72.18,8.938ZM73.44,19V10.18H70.92V19Zm7.182-9.09c-3.564,0-5.094,2.592-5.094,5.256,0,2.412,1.242,4.1,3.294,4.1,1.656,0,2.682-1.17,3.312-2.772l-.27,2.5H84.4V11.062A6.617,6.617,0,0,0,80.622,9.91ZM79.6,17.236c-.81,0-1.44-.522-1.44-2.16,0-1.242.432-3.24,2.43-3.24a2.954,2.954,0,0,1,1.26.306C81.7,14.5,81.18,17.236,79.6,17.236ZM7.164,36.018a6.934,6.934,0,0,0-1.242-.108C2.358,35.91.828,38.5.828,41.166c0,2.412,1.242,4.1,3.294,4.1,1.656,0,2.682-1.188,3.312-2.79L7.164,45H9.7V31.968H7.164ZM4.9,43.236c-.81,0-1.44-.522-1.44-2.16,0-1.242.432-3.24,2.43-3.24a2.954,2.954,0,0,1,1.26.306C7,40.5,6.48,43.236,4.9,43.236Zm11.61.036a2.327,2.327,0,0,1-2.394-1.728l5.4-.63a4.651,4.651,0,0,0,.234-1.476,3.452,3.452,0,0,0-3.78-3.528,4.3,4.3,0,0,0-4.41,4.644,4.455,4.455,0,0,0,4.77,4.716,5.429,5.429,0,0,0,3.2-.99l-.936-1.638A4.04,4.04,0,0,1,16.506,43.272Zm-.4-5.418c.792,0,1.368.414,1.368,1.188a1.391,1.391,0,0,1-.054.45L14,39.906A2.159,2.159,0,0,1,16.11,37.854ZM30.366,32.13a21.993,21.993,0,0,0-3.618.342V45h2.646V40.95c.36.018.72.036,1.026.036,3.87,0,5.76-1.8,5.76-4.428C36.18,33.948,34.29,32.13,30.366,32.13Zm.054,6.642q-.459,0-1.026-.054V34.4q.567-.054,1.026-.054c2,0,3.006.792,3.006,2.214C33.426,38,32.418,38.772,30.42,38.772ZM43.632,35.91c-1.944,0-2.916,1.44-3.42,3.366l.306-3.1H38V45h2.52c0-2.916.18-6.48,2.574-6.48a2.856,2.856,0,0,1,.9.162l.666-2.628A3.718,3.718,0,0,0,43.632,35.91Zm6.39,9.36a4.452,4.452,0,0,0,4.608-4.68,4.617,4.617,0,1,0-9.234,0A4.456,4.456,0,0,0,50.022,45.27Zm0-2.052c-1.332,0-2.016-1.224-2.016-2.628s.684-2.628,2.016-2.628c1.314,0,2,1.224,2,2.628S51.336,43.218,50.022,43.218Zm12.42-7.2A6.934,6.934,0,0,0,61.2,35.91c-3.564,0-5.094,2.592-5.094,5.256,0,2.412,1.242,4.1,3.294,4.1,1.656,0,2.682-1.188,3.312-2.79L62.442,45H64.98V31.968H62.442Zm-2.268,7.218c-.81,0-1.44-.522-1.44-2.16,0-1.242.432-3.24,2.43-3.24a2.954,2.954,0,0,1,1.26.306C62.28,40.5,61.758,43.236,60.174,43.236Zm15.75-7.056H73.386c0,2.862-.09,6.912-2.25,6.912-1.116,0-1.332-1.17-1.332-1.926V36.18h-2.52v5.814a3.015,3.015,0,0,0,3.2,3.276,3.274,3.274,0,0,0,3.1-2.286L73.386,45h2.538Zm6.66,9.09a5.8,5.8,0,0,0,2.016-.378l-.522-1.98a2.573,2.573,0,0,1-.9.18c-.936,0-1.386-.558-1.386-1.674v-3.24h2.466v-2H81.792V33.426H80.118l-.18.972c-.27,1.422-.414,1.782-2.034,1.782h-.27v2h1.638V41.85C79.272,43.956,80.388,45.27,82.584,45.27Zm7.722,0a4.452,4.452,0,0,0,4.608-4.68,4.617,4.617,0,1,0-9.234,0A4.456,4.456,0,0,0,90.306,45.27Zm0-2.052c-1.332,0-2.016-1.224-2.016-2.628s.684-2.628,2.016-2.628c1.314,0,2,1.224,2,2.628S91.62,43.218,90.306,43.218Z" transform="translate(25 3577)" fill="#fff"/>
    <path id="Caminho_771996" data-name="Caminho 771996" d="M5.022,6.13A21.993,21.993,0,0,0,1.4,6.472V19H4.05V14.95c.36.018.72.036,1.026.036,3.87,0,5.76-1.8,5.76-4.428C10.836,7.948,8.946,6.13,5.022,6.13Zm.054,6.642q-.459,0-1.026-.054V8.4q.567-.054,1.026-.054c2,0,3.006.792,3.006,2.214C8.082,12,7.074,12.772,5.076,12.772ZM18.288,9.91c-1.944,0-2.916,1.44-3.42,3.366l.306-3.1h-2.52V19h2.52c0-2.916.18-6.48,2.574-6.48a2.856,2.856,0,0,1,.9.162l.666-2.628A3.718,3.718,0,0,0,18.288,9.91Zm6.39,9.36a4.452,4.452,0,0,0,4.608-4.68,4.442,4.442,0,0,0-4.608-4.68,4.446,4.446,0,0,0-4.626,4.68A4.456,4.456,0,0,0,24.678,19.27Zm0-2.052c-1.332,0-2.016-1.224-2.016-2.628s.684-2.628,2.016-2.628c1.314,0,2,1.224,2,2.628S25.992,17.218,24.678,17.218Zm12.1-7.308c-1.674,0-2.718,1.206-3.33,2.826l.27-2.556h-2.52V22.852h2.52v-3.69a7.138,7.138,0,0,0,1.26.108c3.564,0,5.094-2.592,5.094-5.256C40.068,11.6,38.826,9.91,36.774,9.91ZM35.01,17.344a2.971,2.971,0,0,1-1.278-.306c.144-2.358.666-5.112,2.268-5.112.792,0,1.44.54,1.44,2.16C37.44,15.346,36.99,17.344,35.01,17.344ZM46.188,19.27A4.452,4.452,0,0,0,50.8,14.59a4.617,4.617,0,1,0-9.234,0A4.456,4.456,0,0,0,46.188,19.27Zm0-2.052c-1.332,0-2.016-1.224-2.016-2.628s.684-2.628,2.016-2.628c1.314,0,2,1.224,2,2.628S47.5,17.218,46.188,17.218ZM58.338,9.91c-1.944,0-2.916,1.44-3.42,3.366l.306-3.1H52.7V19h2.52c0-2.916.18-6.48,2.574-6.48a2.856,2.856,0,0,1,.9.162l.666-2.628A3.718,3.718,0,0,0,58.338,9.91Zm8.19,6.714a2.69,2.69,0,0,1-1.53.468,2.274,2.274,0,0,1-2.286-2.5A2.274,2.274,0,0,1,65,12.088a2.69,2.69,0,0,1,1.53.468l1.134-1.8A5.071,5.071,0,0,0,64.8,9.91a4.417,4.417,0,0,0-4.7,4.68,4.346,4.346,0,0,0,3.33,4.518l-.522,1.764c1.062,0,1.422.2,1.422.558,0,.414-.5.522-.936.522a2.959,2.959,0,0,1-.828-.126L62.1,23.212a4.818,4.818,0,0,0,1.674.27c1.566,0,2.826-.63,2.826-1.926,0-1.1-.864-1.512-1.728-1.656l.162-.63a4.967,4.967,0,0,0,2.628-.864ZM73.08,7.948c.63,0,1.152.774,2.25.774,1.062,0,1.8-.792,2.25-2.178l-1.818-.666c-.252.486-.432.756-.792.756-.612,0-1.188-.774-2.268-.774s-1.818.792-2.268,2.178l1.854.666C72.522,8.2,72.72,7.948,73.08,7.948Zm.99,1.962c-3.564,0-5.094,2.592-5.094,5.256,0,2.412,1.242,4.1,3.294,4.1,1.656,0,2.682-1.17,3.312-2.772l-.27,2.5H77.85V11.062A6.617,6.617,0,0,0,74.07,9.91Zm-1.026,7.326c-.81,0-1.44-.522-1.44-2.16,0-1.242.432-3.24,2.43-3.24a2.954,2.954,0,0,1,1.26.306C75.15,14.5,74.628,17.236,73.044,17.236ZM84.4,19.27a4.452,4.452,0,0,0,4.608-4.68,4.617,4.617,0,1,0-9.234,0A4.456,4.456,0,0,0,84.4,19.27Zm0-2.052c-1.332,0-2.016-1.224-2.016-2.628s.684-2.628,2.016-2.628c1.314,0,2,1.224,2,2.628S85.716,17.218,84.4,17.218ZM97.866,5.968A15.541,15.541,0,0,0,95.31,14.41a15.541,15.541,0,0,0,2.556,8.442h2.628A16.9,16.9,0,0,1,97.92,14.41a16.9,16.9,0,0,1,2.574-8.442Zm5.922,7.542c1.962,0,3.132-1.548,3.132-3.654,0-2.088-1.17-3.654-3.132-3.654-1.944,0-3.114,1.566-3.114,3.654C100.674,11.962,101.844,13.51,103.788,13.51ZM105.12,19,113.9,6.4h-2.3L102.816,19Zm-1.332-7.038c-.918,0-1.26-1.1-1.26-2.106s.342-2.106,1.26-2.106c.936,0,1.26,1.1,1.26,2.106S104.724,11.962,103.788,11.962Zm9.144,7.236c1.962,0,3.132-1.548,3.132-3.654,0-2.088-1.17-3.654-3.132-3.654-1.944,0-3.114,1.566-3.114,3.654C109.818,17.65,110.988,19.2,112.932,19.2Zm0-1.548c-.918,0-1.26-1.1-1.26-2.106s.342-2.106,1.26-2.106c.936,0,1.26,1.1,1.26,2.106S113.868,17.65,112.932,17.65Zm3.294-11.682A16.9,16.9,0,0,1,118.8,14.41a16.9,16.9,0,0,1-2.574,8.442h2.628a15.552,15.552,0,0,0,2.574-8.442,15.552,15.552,0,0,0-2.574-8.442Z" transform="translate(208 3589)" fill="#fff"/>
    <g id="Retângulo_124927" data-name="Retângulo 124927" transform="translate(16 3637)" fill="none" stroke="#0023a2" stroke-width="1">
      <rect width="184" height="64" stroke="none"/>
      <rect x="0.5" y="0.5" width="183" height="63" fill="none"/>
    </g>
    <g id="Retângulo_125037" data-name="Retângulo 125037" transform="translate(16 3700)" fill="none" stroke="#0023a2" stroke-width="1">
      <rect width="184" height="64" stroke="none"/>
      <rect x="0.5" y="0.5" width="183" height="63" fill="none"/>
    </g>
    <g id="Retângulo_125039" data-name="Retângulo 125039" transform="translate(16 3763)" fill="none" stroke="#0023a2" stroke-width="1">
      <rect width="184" height="64" stroke="none"/>
      <rect x="0.5" y="0.5" width="183" height="63" fill="none"/>
    </g>
    <g id="Retângulo_125036" data-name="Retângulo 125036" transform="translate(199 3637)" fill="none" stroke="#0023a2" stroke-width="1">
      <rect width="145" height="64" stroke="none"/>
      <rect x="0.5" y="0.5" width="144" height="63" fill="none"/>
    </g>
    <g id="Retângulo_125038" data-name="Retângulo 125038" transform="translate(199 3700)" fill="none" stroke="#0023a2" stroke-width="1">
      <rect width="145" height="64" stroke="none"/>
      <rect x="0.5" y="0.5" width="144" height="63" fill="none"/>
    </g>
    <g id="Retângulo_125040" data-name="Retângulo 125040" transform="translate(199 3763)" fill="none" stroke="#0023a2" stroke-width="1">
      <rect width="145" height="64" stroke="none"/>
      <rect x="0.5" y="0.5" width="144" height="63" fill="none"/>
    </g>
    <path id="Caminho_771998" data-name="Caminho 771998" d="M5.886,4.318C2.538,4.318.612,6.478.612,10.33c0,3.726,1.818,5.814,5.058,5.814a6.691,6.691,0,0,0,3.06-.756L8.874,13.7l-.18-.108a4.847,4.847,0,0,1-2.88.99c-2.07,0-3.258-1.512-3.258-4.446,0-2.844,1.152-4.266,3.258-4.266A4.278,4.278,0,0,1,8.478,6.8l.18-.054L9,5.11A6.1,6.1,0,0,0,5.886,4.318ZM13.608,7.54a5.768,5.768,0,0,0-3.24,1.08L10.6,9.9l.144.09A4.1,4.1,0,0,1,13.32,8.836a1.185,1.185,0,0,1,1.3,1.35l-.018.972-2.844.63a1.918,1.918,0,0,0-1.746,2c0,1.44.99,2.34,2.664,2.358a5.271,5.271,0,0,0,1.872-1.35h.126a1.4,1.4,0,0,0,1.314,1.332,2.933,2.933,0,0,0,1.134-.4l.18-1.008-.162-.126a2.753,2.753,0,0,1-.54.072c-.378,0-.522-.144-.522-.612,0-.612.216-3.636.216-4.266C16.29,8.368,15.246,7.54,13.608,7.54Zm.99,4.68-.054,1.386a2.542,2.542,0,0,1-1.8,1.1,1.037,1.037,0,0,1-1.1-1.152.664.664,0,0,1,.612-.774ZM29.214,16h1.854l-.09-3.636.054-2.34c.018-1.548-.936-2.43-2.79-2.43a6.528,6.528,0,0,0-2.376,1.35h-.108a2.527,2.527,0,0,0-2.592-1.35,5.977,5.977,0,0,0-2.214,1.278h-.126l.018-1.206L19.1,7.828l.09,4.7L19.08,16H20.9l-.09-3.636.018-2.2a3.229,3.229,0,0,1,2.16-1.08c.864,0,1.3.558,1.278,1.458L24.138,16h1.836L25.9,12.364l.036-2.232a3.174,3.174,0,0,1,2.124-1.044c.864,0,1.3.558,1.278,1.458ZM34.452,3.832a.973.973,0,0,0-1.044,1.044.914.914,0,0,0,.99,1.008.97.97,0,0,0,1.008-1.062A.89.89,0,0,0,34.452,3.832Zm.72,8.532.144-4.7-1.836.162.09,4.7L33.462,16H35.3Zm5.2-4.806c-1.908,0-3.024,1.08-3.024,2.5,0,2.61,3.726,2.268,3.726,3.8A1.151,1.151,0,0,1,39.8,14.92a3.8,3.8,0,0,1-2.3-.972l-.2.126L37.08,15.6a6.518,6.518,0,0,0,2.52.558c2.07,0,3.114-1.278,3.114-2.61,0-2.538-3.726-2.214-3.726-3.726a1.051,1.051,0,0,1,1.17-.99,3.357,3.357,0,0,1,1.836.63l.234-.054.252-1.44A5.7,5.7,0,0,0,40.374,7.558Zm10.278,4.374.306-.288a7.013,7.013,0,0,0,.072-.9,2.847,2.847,0,0,0-3.024-3.186c-2.412,0-3.978,1.638-3.978,4.338,0,2.628,1.44,4.266,3.924,4.266a5.842,5.842,0,0,0,2.52-.612l.216-1.458-.162-.108a4.941,4.941,0,0,1-2.43.756c-1.584,0-2.34-1.026-2.376-2.808Zm-1.3-1.206-3.546.09a2.11,2.11,0,0,1,2.088-2c.9,0,1.494.522,1.494,1.692Zm6.5,3.888c-.738,0-1.062-.288-1.044-1.188l.09-4.518h2.322l.09-1.044-.072-.126h-2.3l.036-1.782-.162-.144-1.62.612V7.738h-1.1L52,8.8l.072.108h1.134l.018,3.51-.072,1.3a2.148,2.148,0,0,0,2.124,2.394,5.2,5.2,0,0,0,1.836-.54l.18-1.152-.18-.126A2.838,2.838,0,0,1,55.854,14.614Zm5.94-7.074a5.768,5.768,0,0,0-3.24,1.08L58.788,9.9l.144.09a4.1,4.1,0,0,1,2.574-1.152,1.185,1.185,0,0,1,1.3,1.35l-.018.972-2.844.63a1.918,1.918,0,0,0-1.746,2c0,1.44.99,2.34,2.664,2.358a5.271,5.271,0,0,0,1.872-1.35h.126a1.4,1.4,0,0,0,1.314,1.332,2.933,2.933,0,0,0,1.134-.4l.18-1.008-.162-.126a2.753,2.753,0,0,1-.54.072c-.378,0-.522-.144-.522-.612,0-.612.216-3.636.216-4.266C64.476,8.368,63.432,7.54,61.794,7.54Zm.99,4.68-.054,1.386a2.542,2.542,0,0,1-1.8,1.1,1.037,1.037,0,0,1-1.1-1.152.664.664,0,0,1,.612-.774Zm6.984-4.662c-1.908,0-3.024,1.08-3.024,2.5,0,2.61,3.726,2.268,3.726,3.8a1.151,1.151,0,0,1-1.278,1.062,3.8,3.8,0,0,1-2.3-.972l-.2.126-.216,1.53a6.518,6.518,0,0,0,2.52.558c2.07,0,3.114-1.278,3.114-2.61,0-2.538-3.726-2.214-3.726-3.726a1.051,1.051,0,0,1,1.17-.99,3.357,3.357,0,0,1,1.836.63l.234-.054.252-1.44A5.7,5.7,0,0,0,69.768,7.558ZM80.1,7.54c-2.376,0-3.8,1.674-3.8,4.392,0,2.628,1.332,4.23,3.582,4.23a6.427,6.427,0,0,0,2.2-.414l.18-1.476-.162-.108a4.329,4.329,0,0,1-1.926.54c-1.368,0-2.142-1.08-2.142-2.916,0-1.746.756-2.736,2.034-2.736a3.568,3.568,0,0,1,1.764.558l.18-.072.306-1.53A5.4,5.4,0,0,0,80.1,7.54Zm6.984,0c-2.484,0-3.87,1.6-3.87,4.446,0,2.664,1.314,4.176,3.636,4.176,2.484,0,3.87-1.6,3.87-4.446C90.72,9.052,89.406,7.54,87.084,7.54Zm-.108,1.278c1.35,0,2.034,1.044,2.034,3.312,0,1.89-.684,2.772-2.034,2.772-1.368,0-2.052-1.026-2.052-3.312C84.924,9.736,85.608,8.818,86.976,8.818ZM102.816,16h1.854l-.09-3.636.054-2.34c.018-1.548-.936-2.43-2.79-2.43a6.528,6.528,0,0,0-2.376,1.35H99.36a2.527,2.527,0,0,0-2.592-1.35,5.977,5.977,0,0,0-2.214,1.278h-.126l.018-1.206L92.7,7.828l.09,4.7L92.682,16H94.5l-.09-3.636.018-2.2a3.229,3.229,0,0,1,2.16-1.08c.864,0,1.3.558,1.278,1.458L97.74,16h1.836L99.5,12.364l.036-2.232a3.174,3.174,0,0,1,2.124-1.044c.864,0,1.3.558,1.278,1.458ZM113.8,3.328c-2.07,0-3.276,1.116-3.258,3.168l.018,1.242h-1.224l-.09,1.062.072.108h1.242l.036,3.6L110.484,16h1.836l-.126-3.654.054-3.438h2.088l.108-1.044-.054-.126h-2.124l.018-1.548c.018-1.044.5-1.548,1.35-1.548a3.3,3.3,0,0,1,1.386.342l.126-.108.108-1.386A6.955,6.955,0,0,0,113.8,3.328Zm5.94,4.356a2.655,2.655,0,0,0-2.268,1.638h-.126l.018-1.656-1.746.162.108,4.7L115.6,16h1.836l-.126-3.636.018-1.188c.63-1.242,1.26-1.746,2-1.746a2.519,2.519,0,0,1,.666.09l.2-.054V7.72A3.506,3.506,0,0,0,119.736,7.684Zm4.644-.144a5.768,5.768,0,0,0-3.24,1.08l.234,1.278.144.09a4.1,4.1,0,0,1,2.574-1.152,1.185,1.185,0,0,1,1.3,1.35l-.018.972-2.844.63a1.918,1.918,0,0,0-1.746,2c0,1.44.99,2.34,2.664,2.358a5.271,5.271,0,0,0,1.872-1.35h.126a1.4,1.4,0,0,0,1.314,1.332,2.933,2.933,0,0,0,1.134-.4l.18-1.008-.162-.126a2.753,2.753,0,0,1-.54.072c-.378,0-.522-.144-.522-.612,0-.612.216-3.636.216-4.266C127.062,8.368,126.018,7.54,124.38,7.54Zm.99,4.68-.054,1.386a2.542,2.542,0,0,1-1.8,1.1,1.037,1.037,0,0,1-1.1-1.152.664.664,0,0,1,.612-.774Zm6.984-4.662c-1.908,0-3.024,1.08-3.024,2.5,0,2.61,3.726,2.268,3.726,3.8a1.151,1.151,0,0,1-1.278,1.062,3.8,3.8,0,0,1-2.3-.972l-.2.126-.216,1.53a6.518,6.518,0,0,0,2.52.558c2.07,0,3.114-1.278,3.114-2.61,0-2.538-3.726-2.214-3.726-3.726a1.051,1.051,0,0,1,1.17-.99,3.357,3.357,0,0,1,1.836.63l.234-.054.252-1.44A5.7,5.7,0,0,0,132.354,7.558Zm10.278,4.374.306-.288a7.011,7.011,0,0,0,.072-.9,2.847,2.847,0,0,0-3.024-3.186c-2.412,0-3.978,1.638-3.978,4.338,0,2.628,1.44,4.266,3.924,4.266a5.842,5.842,0,0,0,2.52-.612l.216-1.458-.162-.108a4.941,4.941,0,0,1-2.43.756c-1.584,0-2.34-1.026-2.376-2.808Zm-1.3-1.206-3.546.09a2.11,2.11,0,0,1,2.088-2c.9,0,1.494.522,1.494,1.692ZM147.4,7.558c-1.908,0-3.024,1.08-3.024,2.5,0,2.61,3.726,2.268,3.726,3.8a1.151,1.151,0,0,1-1.278,1.062,3.8,3.8,0,0,1-2.3-.972l-.2.126-.216,1.53a6.518,6.518,0,0,0,2.52.558c2.07,0,3.114-1.278,3.114-2.61,0-2.538-3.726-2.214-3.726-3.726a1.051,1.051,0,0,1,1.17-.99,3.357,3.357,0,0,1,1.836.63l.234-.054.252-1.44A5.7,5.7,0,0,0,147.4,7.558ZM7.776,38.346l.144-8.982-1.836.144L6.12,33.7a7.586,7.586,0,0,0-1.4-.144c-2.538,0-4.086,1.548-4.086,4.32,0,2.664,1.314,4.23,3.726,4.23a7.351,7.351,0,0,0,1.872-1.242h.144A1.425,1.425,0,0,0,7.7,42.126a2.917,2.917,0,0,0,1.152-.4l.162-1.008L8.856,40.6a2.6,2.6,0,0,1-.558.072c-.342,0-.45-.144-.468-.594Zm-3.24-3.528a3.717,3.717,0,0,1,1.6.414l.054,3.276-.036,1.17a2.3,2.3,0,0,1-1.764.936c-1.26,0-2.016-1.026-2.034-2.952C2.322,35.736,3.186,34.818,4.536,34.818ZM13.9,33.54c-2.484,0-3.87,1.6-3.87,4.446,0,2.664,1.314,4.176,3.636,4.176,2.484,0,3.87-1.6,3.87-4.446C17.532,35.052,16.218,33.54,13.9,33.54Zm-.108,1.278c1.35,0,2.034,1.044,2.034,3.312,0,1.89-.684,2.772-2.034,2.772-1.368,0-2.052-1.026-2.052-3.312C11.736,35.736,12.42,34.818,13.788,34.818ZM22,33.558c-1.908,0-3.024,1.08-3.024,2.5,0,2.61,3.726,2.268,3.726,3.8A1.151,1.151,0,0,1,21.42,40.92a3.8,3.8,0,0,1-2.3-.972l-.2.126L18.7,41.6a6.518,6.518,0,0,0,2.52.558c2.07,0,3.114-1.278,3.114-2.61,0-2.538-3.726-2.214-3.726-3.726a1.051,1.051,0,0,1,1.17-.99,3.357,3.357,0,0,1,1.836.63l.234-.054.252-1.44A5.7,5.7,0,0,0,22,33.558ZM32.13,33.54a5.768,5.768,0,0,0-3.24,1.08l.234,1.278.144.09a4.1,4.1,0,0,1,2.574-1.152,1.185,1.185,0,0,1,1.3,1.35l-.018.972-2.844.63a1.918,1.918,0,0,0-1.746,2c0,1.44.99,2.34,2.664,2.358a5.271,5.271,0,0,0,1.872-1.35h.126a1.4,1.4,0,0,0,1.314,1.332,2.933,2.933,0,0,0,1.134-.4l.18-1.008-.162-.126a2.753,2.753,0,0,1-.54.072c-.378,0-.522-.144-.522-.612,0-.612.216-3.636.216-4.266C34.812,34.368,33.768,33.54,32.13,33.54Zm.99,4.68-.054,1.386a2.542,2.542,0,0,1-1.8,1.1,1.037,1.037,0,0,1-1.1-1.152.664.664,0,0,1,.612-.774ZM42.66,42h1.854l-.09-3.636.054-2.34c.018-1.548-.936-2.43-2.79-2.43a6.121,6.121,0,0,0-2.214,1.278h-.126l.018-1.206-1.746.162.09,4.7L37.6,42h1.836l-.108-3.636.018-2.2a3.229,3.229,0,0,1,2.16-1.08c.864,0,1.3.558,1.278,1.458Zm7.56-8.46c-2.484,0-3.87,1.6-3.87,4.446,0,2.664,1.314,4.176,3.636,4.176,2.484,0,3.87-1.6,3.87-4.446C53.856,35.052,52.542,33.54,50.22,33.54Zm-.108,1.278c1.35,0,2.034,1.044,2.034,3.312,0,1.89-.684,2.772-2.034,2.772-1.368,0-2.052-1.026-2.052-3.312C48.06,35.736,48.744,34.818,50.112,34.818Zm8.208-1.26c-1.908,0-3.024,1.08-3.024,2.5,0,2.61,3.726,2.268,3.726,3.8a1.151,1.151,0,0,1-1.278,1.062,3.8,3.8,0,0,1-2.3-.972l-.2.126-.216,1.53a6.518,6.518,0,0,0,2.52.558c2.07,0,3.114-1.278,3.114-2.61,0-2.538-3.726-2.214-3.726-3.726a1.051,1.051,0,0,1,1.17-.99,3.357,3.357,0,0,1,1.836.63l.234-.054.252-1.44A5.7,5.7,0,0,0,58.32,33.558Zm10.8,2.07A3.719,3.719,0,0,0,67,36.294l-.126-.144c.576-1.71,2.07-2.88,4.806-3.852v-.18l-1.368-.828H70.2c-3.348,1.386-5.274,3.87-5.274,6.894,0,2.484,1.17,3.978,3.474,3.978a3.347,3.347,0,0,0,3.636-3.456A2.812,2.812,0,0,0,69.12,35.628Zm-.594,5.292c-1.386,0-1.944-.936-1.944-2.772l.018-.432a3.279,3.279,0,0,1,2-.774c1.152,0,1.8.72,1.8,2.016A1.749,1.749,0,0,1,68.526,40.92ZM77.6,32.856c-2.592,0-4.086,1.746-4.086,4.788,0,2.862,1.4,4.5,3.852,4.5,2.592,0,4.05-1.728,4.05-4.752C81.414,34.494,80.028,32.856,77.6,32.856Zm-.144,1.692c1.656,0,2.538,1.008,2.538,3.06,0,1.944-.864,2.916-2.52,2.916-1.692,0-2.52-1.008-2.52-3.006S75.78,34.548,77.454,34.548Z" transform="translate(24 3646)"/>
    <path id="Caminho_771999" data-name="Caminho 771999" d="M5.886,4.318C2.538,4.318.612,6.478.612,10.33c0,3.726,1.818,5.814,5.058,5.814a6.691,6.691,0,0,0,3.06-.756L8.874,13.7l-.18-.108a4.847,4.847,0,0,1-2.88.99c-2.07,0-3.258-1.512-3.258-4.446,0-2.844,1.152-4.266,3.258-4.266A4.278,4.278,0,0,1,8.478,6.8l.18-.054L9,5.11A6.1,6.1,0,0,0,5.886,4.318ZM13.608,7.54a5.768,5.768,0,0,0-3.24,1.08L10.6,9.9l.144.09A4.1,4.1,0,0,1,13.32,8.836a1.185,1.185,0,0,1,1.3,1.35l-.018.972-2.844.63a1.918,1.918,0,0,0-1.746,2c0,1.44.99,2.34,2.664,2.358a5.271,5.271,0,0,0,1.872-1.35h.126a1.4,1.4,0,0,0,1.314,1.332,2.933,2.933,0,0,0,1.134-.4l.18-1.008-.162-.126a2.753,2.753,0,0,1-.54.072c-.378,0-.522-.144-.522-.612,0-.612.216-3.636.216-4.266C16.29,8.368,15.246,7.54,13.608,7.54Zm.99,4.68-.054,1.386a2.542,2.542,0,0,1-1.8,1.1,1.037,1.037,0,0,1-1.1-1.152.664.664,0,0,1,.612-.774ZM29.214,16h1.854l-.09-3.636.054-2.34c.018-1.548-.936-2.43-2.79-2.43a6.528,6.528,0,0,0-2.376,1.35h-.108a2.527,2.527,0,0,0-2.592-1.35,5.977,5.977,0,0,0-2.214,1.278h-.126l.018-1.206L19.1,7.828l.09,4.7L19.08,16H20.9l-.09-3.636.018-2.2a3.229,3.229,0,0,1,2.16-1.08c.864,0,1.3.558,1.278,1.458L24.138,16h1.836L25.9,12.364l.036-2.232a3.174,3.174,0,0,1,2.124-1.044c.864,0,1.3.558,1.278,1.458ZM34.452,3.832a.973.973,0,0,0-1.044,1.044.914.914,0,0,0,.99,1.008.97.97,0,0,0,1.008-1.062A.89.89,0,0,0,34.452,3.832Zm.72,8.532.144-4.7-1.836.162.09,4.7L33.462,16H35.3Zm5.2-4.806c-1.908,0-3.024,1.08-3.024,2.5,0,2.61,3.726,2.268,3.726,3.8A1.151,1.151,0,0,1,39.8,14.92a3.8,3.8,0,0,1-2.3-.972l-.2.126L37.08,15.6a6.518,6.518,0,0,0,2.52.558c2.07,0,3.114-1.278,3.114-2.61,0-2.538-3.726-2.214-3.726-3.726a1.051,1.051,0,0,1,1.17-.99,3.357,3.357,0,0,1,1.836.63l.234-.054.252-1.44A5.7,5.7,0,0,0,40.374,7.558Zm10.278,4.374.306-.288a7.013,7.013,0,0,0,.072-.9,2.847,2.847,0,0,0-3.024-3.186c-2.412,0-3.978,1.638-3.978,4.338,0,2.628,1.44,4.266,3.924,4.266a5.842,5.842,0,0,0,2.52-.612l.216-1.458-.162-.108a4.941,4.941,0,0,1-2.43.756c-1.584,0-2.34-1.026-2.376-2.808Zm-1.3-1.206-3.546.09a2.11,2.11,0,0,1,2.088-2c.9,0,1.494.522,1.494,1.692Zm6.5,3.888c-.738,0-1.062-.288-1.044-1.188l.09-4.518h2.322l.09-1.044-.072-.126h-2.3l.036-1.782-.162-.144-1.62.612V7.738h-1.1L52,8.8l.072.108h1.134l.018,3.51-.072,1.3a2.148,2.148,0,0,0,2.124,2.394,5.2,5.2,0,0,0,1.836-.54l.18-1.152-.18-.126A2.838,2.838,0,0,1,55.854,14.614Zm5.94-7.074a5.768,5.768,0,0,0-3.24,1.08L58.788,9.9l.144.09a4.1,4.1,0,0,1,2.574-1.152,1.185,1.185,0,0,1,1.3,1.35l-.018.972-2.844.63a1.918,1.918,0,0,0-1.746,2c0,1.44.99,2.34,2.664,2.358a5.271,5.271,0,0,0,1.872-1.35h.126a1.4,1.4,0,0,0,1.314,1.332,2.933,2.933,0,0,0,1.134-.4l.18-1.008-.162-.126a2.753,2.753,0,0,1-.54.072c-.378,0-.522-.144-.522-.612,0-.612.216-3.636.216-4.266C64.476,8.368,63.432,7.54,61.794,7.54Zm.99,4.68-.054,1.386a2.542,2.542,0,0,1-1.8,1.1,1.037,1.037,0,0,1-1.1-1.152.664.664,0,0,1,.612-.774Zm6.984-4.662c-1.908,0-3.024,1.08-3.024,2.5,0,2.61,3.726,2.268,3.726,3.8a1.151,1.151,0,0,1-1.278,1.062,3.8,3.8,0,0,1-2.3-.972l-.2.126-.216,1.53a6.518,6.518,0,0,0,2.52.558c2.07,0,3.114-1.278,3.114-2.61,0-2.538-3.726-2.214-3.726-3.726a1.051,1.051,0,0,1,1.17-.99,3.357,3.357,0,0,1,1.836.63l.234-.054.252-1.44A5.7,5.7,0,0,0,69.768,7.558ZM80.1,7.54c-2.376,0-3.8,1.674-3.8,4.392,0,2.628,1.332,4.23,3.582,4.23a6.427,6.427,0,0,0,2.2-.414l.18-1.476-.162-.108a4.329,4.329,0,0,1-1.926.54c-1.368,0-2.142-1.08-2.142-2.916,0-1.746.756-2.736,2.034-2.736a3.568,3.568,0,0,1,1.764.558l.18-.072.306-1.53A5.4,5.4,0,0,0,80.1,7.54Zm6.984,0c-2.484,0-3.87,1.6-3.87,4.446,0,2.664,1.314,4.176,3.636,4.176,2.484,0,3.87-1.6,3.87-4.446C90.72,9.052,89.406,7.54,87.084,7.54Zm-.108,1.278c1.35,0,2.034,1.044,2.034,3.312,0,1.89-.684,2.772-2.034,2.772-1.368,0-2.052-1.026-2.052-3.312C84.924,9.736,85.608,8.818,86.976,8.818ZM102.816,16h1.854l-.09-3.636.054-2.34c.018-1.548-.936-2.43-2.79-2.43a6.528,6.528,0,0,0-2.376,1.35H99.36a2.527,2.527,0,0,0-2.592-1.35,5.977,5.977,0,0,0-2.214,1.278h-.126l.018-1.206L92.7,7.828l.09,4.7L92.682,16H94.5l-.09-3.636.018-2.2a3.229,3.229,0,0,1,2.16-1.08c.864,0,1.3.558,1.278,1.458L97.74,16h1.836L99.5,12.364l.036-2.232a3.174,3.174,0,0,1,2.124-1.044c.864,0,1.3.558,1.278,1.458ZM113.8,3.328c-2.07,0-3.276,1.116-3.258,3.168l.018,1.242h-1.224l-.09,1.062.072.108h1.242l.036,3.6L110.484,16h1.836l-.126-3.654.054-3.438h2.088l.108-1.044-.054-.126h-2.124l.018-1.548c.018-1.044.5-1.548,1.35-1.548a3.3,3.3,0,0,1,1.386.342l.126-.108.108-1.386A6.955,6.955,0,0,0,113.8,3.328Zm5.94,4.356a2.655,2.655,0,0,0-2.268,1.638h-.126l.018-1.656-1.746.162.108,4.7L115.6,16h1.836l-.126-3.636.018-1.188c.63-1.242,1.26-1.746,2-1.746a2.519,2.519,0,0,1,.666.09l.2-.054V7.72A3.506,3.506,0,0,0,119.736,7.684Zm4.644-.144a5.768,5.768,0,0,0-3.24,1.08l.234,1.278.144.09a4.1,4.1,0,0,1,2.574-1.152,1.185,1.185,0,0,1,1.3,1.35l-.018.972-2.844.63a1.918,1.918,0,0,0-1.746,2c0,1.44.99,2.34,2.664,2.358a5.271,5.271,0,0,0,1.872-1.35h.126a1.4,1.4,0,0,0,1.314,1.332,2.933,2.933,0,0,0,1.134-.4l.18-1.008-.162-.126a2.753,2.753,0,0,1-.54.072c-.378,0-.522-.144-.522-.612,0-.612.216-3.636.216-4.266C127.062,8.368,126.018,7.54,124.38,7.54Zm.99,4.68-.054,1.386a2.542,2.542,0,0,1-1.8,1.1,1.037,1.037,0,0,1-1.1-1.152.664.664,0,0,1,.612-.774Zm6.984-4.662c-1.908,0-3.024,1.08-3.024,2.5,0,2.61,3.726,2.268,3.726,3.8a1.151,1.151,0,0,1-1.278,1.062,3.8,3.8,0,0,1-2.3-.972l-.2.126-.216,1.53a6.518,6.518,0,0,0,2.52.558c2.07,0,3.114-1.278,3.114-2.61,0-2.538-3.726-2.214-3.726-3.726a1.051,1.051,0,0,1,1.17-.99,3.357,3.357,0,0,1,1.836.63l.234-.054.252-1.44A5.7,5.7,0,0,0,132.354,7.558Zm10.278,4.374.306-.288a7.011,7.011,0,0,0,.072-.9,2.847,2.847,0,0,0-3.024-3.186c-2.412,0-3.978,1.638-3.978,4.338,0,2.628,1.44,4.266,3.924,4.266a5.842,5.842,0,0,0,2.52-.612l.216-1.458-.162-.108a4.941,4.941,0,0,1-2.43.756c-1.584,0-2.34-1.026-2.376-2.808Zm-1.3-1.206-3.546.09a2.11,2.11,0,0,1,2.088-2c.9,0,1.494.522,1.494,1.692ZM147.4,7.558c-1.908,0-3.024,1.08-3.024,2.5,0,2.61,3.726,2.268,3.726,3.8a1.151,1.151,0,0,1-1.278,1.062,3.8,3.8,0,0,1-2.3-.972l-.2.126-.216,1.53a6.518,6.518,0,0,0,2.52.558c2.07,0,3.114-1.278,3.114-2.61,0-2.538-3.726-2.214-3.726-3.726a1.051,1.051,0,0,1,1.17-.99,3.357,3.357,0,0,1,1.836.63l.234-.054.252-1.44A5.7,5.7,0,0,0,147.4,7.558ZM7.776,38.346l.144-8.982-1.836.144L6.12,33.7a7.586,7.586,0,0,0-1.4-.144c-2.538,0-4.086,1.548-4.086,4.32,0,2.664,1.314,4.23,3.726,4.23a7.351,7.351,0,0,0,1.872-1.242h.144A1.425,1.425,0,0,0,7.7,42.126a2.917,2.917,0,0,0,1.152-.4l.162-1.008L8.856,40.6a2.6,2.6,0,0,1-.558.072c-.342,0-.45-.144-.468-.594Zm-3.24-3.528a3.717,3.717,0,0,1,1.6.414l.054,3.276-.036,1.17a2.3,2.3,0,0,1-1.764.936c-1.26,0-2.016-1.026-2.034-2.952C2.322,35.736,3.186,34.818,4.536,34.818ZM13.9,33.54c-2.484,0-3.87,1.6-3.87,4.446,0,2.664,1.314,4.176,3.636,4.176,2.484,0,3.87-1.6,3.87-4.446C17.532,35.052,16.218,33.54,13.9,33.54Zm-.108,1.278c1.35,0,2.034,1.044,2.034,3.312,0,1.89-.684,2.772-2.034,2.772-1.368,0-2.052-1.026-2.052-3.312C11.736,35.736,12.42,34.818,13.788,34.818ZM22,33.558c-1.908,0-3.024,1.08-3.024,2.5,0,2.61,3.726,2.268,3.726,3.8A1.151,1.151,0,0,1,21.42,40.92a3.8,3.8,0,0,1-2.3-.972l-.2.126L18.7,41.6a6.518,6.518,0,0,0,2.52.558c2.07,0,3.114-1.278,3.114-2.61,0-2.538-3.726-2.214-3.726-3.726a1.051,1.051,0,0,1,1.17-.99,3.357,3.357,0,0,1,1.836.63l.234-.054.252-1.44A5.7,5.7,0,0,0,22,33.558ZM32.13,33.54a5.768,5.768,0,0,0-3.24,1.08l.234,1.278.144.09a4.1,4.1,0,0,1,2.574-1.152,1.185,1.185,0,0,1,1.3,1.35l-.018.972-2.844.63a1.918,1.918,0,0,0-1.746,2c0,1.44.99,2.34,2.664,2.358a5.271,5.271,0,0,0,1.872-1.35h.126a1.4,1.4,0,0,0,1.314,1.332,2.933,2.933,0,0,0,1.134-.4l.18-1.008-.162-.126a2.753,2.753,0,0,1-.54.072c-.378,0-.522-.144-.522-.612,0-.612.216-3.636.216-4.266C34.812,34.368,33.768,33.54,32.13,33.54Zm.99,4.68-.054,1.386a2.542,2.542,0,0,1-1.8,1.1,1.037,1.037,0,0,1-1.1-1.152.664.664,0,0,1,.612-.774ZM42.66,42h1.854l-.09-3.636.054-2.34c.018-1.548-.936-2.43-2.79-2.43a6.121,6.121,0,0,0-2.214,1.278h-.126l.018-1.206-1.746.162.09,4.7L37.6,42h1.836l-.108-3.636.018-2.2a3.229,3.229,0,0,1,2.16-1.08c.864,0,1.3.558,1.278,1.458Zm7.56-8.46c-2.484,0-3.87,1.6-3.87,4.446,0,2.664,1.314,4.176,3.636,4.176,2.484,0,3.87-1.6,3.87-4.446C53.856,35.052,52.542,33.54,50.22,33.54Zm-.108,1.278c1.35,0,2.034,1.044,2.034,3.312,0,1.89-.684,2.772-2.034,2.772-1.368,0-2.052-1.026-2.052-3.312C48.06,35.736,48.744,34.818,50.112,34.818Zm8.208-1.26c-1.908,0-3.024,1.08-3.024,2.5,0,2.61,3.726,2.268,3.726,3.8a1.151,1.151,0,0,1-1.278,1.062,3.8,3.8,0,0,1-2.3-.972l-.2.126-.216,1.53a6.518,6.518,0,0,0,2.52.558c2.07,0,3.114-1.278,3.114-2.61,0-2.538-3.726-2.214-3.726-3.726a1.051,1.051,0,0,1,1.17-.99,3.357,3.357,0,0,1,1.836.63l.234-.054.252-1.44A5.7,5.7,0,0,0,58.32,33.558Zm8.118-.576-1.782-.072-.126,1.566.108.18,1.494-.162h3.456l-4.014,8.622.108.306,1.476.4.882-2.358L71.316,34.3l-.018-1.35-.81.036Zm10.242-.126c-2.592,0-4.086,1.746-4.086,4.788,0,2.862,1.4,4.5,3.852,4.5,2.592,0,4.05-1.728,4.05-4.752C80.5,34.494,79.11,32.856,76.68,32.856Zm-.144,1.692c1.656,0,2.538,1.008,2.538,3.06,0,1.944-.864,2.916-2.52,2.916-1.692,0-2.52-1.008-2.52-3.006S74.862,34.548,76.536,34.548Z" transform="translate(24 3709)"/>
    <path id="Caminho_772000" data-name="Caminho 772000" d="M5.886,4.318C2.538,4.318.612,6.478.612,10.33c0,3.726,1.818,5.814,5.058,5.814a6.691,6.691,0,0,0,3.06-.756L8.874,13.7l-.18-.108a4.847,4.847,0,0,1-2.88.99c-2.07,0-3.258-1.512-3.258-4.446,0-2.844,1.152-4.266,3.258-4.266A4.278,4.278,0,0,1,8.478,6.8l.18-.054L9,5.11A6.1,6.1,0,0,0,5.886,4.318ZM13.608,7.54a5.768,5.768,0,0,0-3.24,1.08L10.6,9.9l.144.09A4.1,4.1,0,0,1,13.32,8.836a1.185,1.185,0,0,1,1.3,1.35l-.018.972-2.844.63a1.918,1.918,0,0,0-1.746,2c0,1.44.99,2.34,2.664,2.358a5.271,5.271,0,0,0,1.872-1.35h.126a1.4,1.4,0,0,0,1.314,1.332,2.933,2.933,0,0,0,1.134-.4l.18-1.008-.162-.126a2.753,2.753,0,0,1-.54.072c-.378,0-.522-.144-.522-.612,0-.612.216-3.636.216-4.266C16.29,8.368,15.246,7.54,13.608,7.54Zm.99,4.68-.054,1.386a2.542,2.542,0,0,1-1.8,1.1,1.037,1.037,0,0,1-1.1-1.152.664.664,0,0,1,.612-.774ZM29.214,16h1.854l-.09-3.636.054-2.34c.018-1.548-.936-2.43-2.79-2.43a6.528,6.528,0,0,0-2.376,1.35h-.108a2.527,2.527,0,0,0-2.592-1.35,5.977,5.977,0,0,0-2.214,1.278h-.126l.018-1.206L19.1,7.828l.09,4.7L19.08,16H20.9l-.09-3.636.018-2.2a3.229,3.229,0,0,1,2.16-1.08c.864,0,1.3.558,1.278,1.458L24.138,16h1.836L25.9,12.364l.036-2.232a3.174,3.174,0,0,1,2.124-1.044c.864,0,1.3.558,1.278,1.458ZM34.452,3.832a.973.973,0,0,0-1.044,1.044.914.914,0,0,0,.99,1.008.97.97,0,0,0,1.008-1.062A.89.89,0,0,0,34.452,3.832Zm.72,8.532.144-4.7-1.836.162.09,4.7L33.462,16H35.3Zm5.2-4.806c-1.908,0-3.024,1.08-3.024,2.5,0,2.61,3.726,2.268,3.726,3.8A1.151,1.151,0,0,1,39.8,14.92a3.8,3.8,0,0,1-2.3-.972l-.2.126L37.08,15.6a6.518,6.518,0,0,0,2.52.558c2.07,0,3.114-1.278,3.114-2.61,0-2.538-3.726-2.214-3.726-3.726a1.051,1.051,0,0,1,1.17-.99,3.357,3.357,0,0,1,1.836.63l.234-.054.252-1.44A5.7,5.7,0,0,0,40.374,7.558Zm10.278,4.374.306-.288a7.013,7.013,0,0,0,.072-.9,2.847,2.847,0,0,0-3.024-3.186c-2.412,0-3.978,1.638-3.978,4.338,0,2.628,1.44,4.266,3.924,4.266a5.842,5.842,0,0,0,2.52-.612l.216-1.458-.162-.108a4.941,4.941,0,0,1-2.43.756c-1.584,0-2.34-1.026-2.376-2.808Zm-1.3-1.206-3.546.09a2.11,2.11,0,0,1,2.088-2c.9,0,1.494.522,1.494,1.692Zm6.5,3.888c-.738,0-1.062-.288-1.044-1.188l.09-4.518h2.322l.09-1.044-.072-.126h-2.3l.036-1.782-.162-.144-1.62.612V7.738h-1.1L52,8.8l.072.108h1.134l.018,3.51-.072,1.3a2.148,2.148,0,0,0,2.124,2.394,5.2,5.2,0,0,0,1.836-.54l.18-1.152-.18-.126A2.838,2.838,0,0,1,55.854,14.614Zm5.94-7.074a5.768,5.768,0,0,0-3.24,1.08L58.788,9.9l.144.09a4.1,4.1,0,0,1,2.574-1.152,1.185,1.185,0,0,1,1.3,1.35l-.018.972-2.844.63a1.918,1.918,0,0,0-1.746,2c0,1.44.99,2.34,2.664,2.358a5.271,5.271,0,0,0,1.872-1.35h.126a1.4,1.4,0,0,0,1.314,1.332,2.933,2.933,0,0,0,1.134-.4l.18-1.008-.162-.126a2.753,2.753,0,0,1-.54.072c-.378,0-.522-.144-.522-.612,0-.612.216-3.636.216-4.266C64.476,8.368,63.432,7.54,61.794,7.54Zm.99,4.68-.054,1.386a2.542,2.542,0,0,1-1.8,1.1,1.037,1.037,0,0,1-1.1-1.152.664.664,0,0,1,.612-.774Zm6.984-4.662c-1.908,0-3.024,1.08-3.024,2.5,0,2.61,3.726,2.268,3.726,3.8a1.151,1.151,0,0,1-1.278,1.062,3.8,3.8,0,0,1-2.3-.972l-.2.126-.216,1.53a6.518,6.518,0,0,0,2.52.558c2.07,0,3.114-1.278,3.114-2.61,0-2.538-3.726-2.214-3.726-3.726a1.051,1.051,0,0,1,1.17-.99,3.357,3.357,0,0,1,1.836.63l.234-.054.252-1.44A5.7,5.7,0,0,0,69.768,7.558ZM80.1,7.54c-2.376,0-3.8,1.674-3.8,4.392,0,2.628,1.332,4.23,3.582,4.23a6.427,6.427,0,0,0,2.2-.414l.18-1.476-.162-.108a4.329,4.329,0,0,1-1.926.54c-1.368,0-2.142-1.08-2.142-2.916,0-1.746.756-2.736,2.034-2.736a3.568,3.568,0,0,1,1.764.558l.18-.072.306-1.53A5.4,5.4,0,0,0,80.1,7.54Zm6.984,0c-2.484,0-3.87,1.6-3.87,4.446,0,2.664,1.314,4.176,3.636,4.176,2.484,0,3.87-1.6,3.87-4.446C90.72,9.052,89.406,7.54,87.084,7.54Zm-.108,1.278c1.35,0,2.034,1.044,2.034,3.312,0,1.89-.684,2.772-2.034,2.772-1.368,0-2.052-1.026-2.052-3.312C84.924,9.736,85.608,8.818,86.976,8.818ZM102.816,16h1.854l-.09-3.636.054-2.34c.018-1.548-.936-2.43-2.79-2.43a6.528,6.528,0,0,0-2.376,1.35H99.36a2.527,2.527,0,0,0-2.592-1.35,5.977,5.977,0,0,0-2.214,1.278h-.126l.018-1.206L92.7,7.828l.09,4.7L92.682,16H94.5l-.09-3.636.018-2.2a3.229,3.229,0,0,1,2.16-1.08c.864,0,1.3.558,1.278,1.458L97.74,16h1.836L99.5,12.364l.036-2.232a3.174,3.174,0,0,1,2.124-1.044c.864,0,1.3.558,1.278,1.458ZM113.8,3.328c-2.07,0-3.276,1.116-3.258,3.168l.018,1.242h-1.224l-.09,1.062.072.108h1.242l.036,3.6L110.484,16h1.836l-.126-3.654.054-3.438h2.088l.108-1.044-.054-.126h-2.124l.018-1.548c.018-1.044.5-1.548,1.35-1.548a3.3,3.3,0,0,1,1.386.342l.126-.108.108-1.386A6.955,6.955,0,0,0,113.8,3.328Zm5.94,4.356a2.655,2.655,0,0,0-2.268,1.638h-.126l.018-1.656-1.746.162.108,4.7L115.6,16h1.836l-.126-3.636.018-1.188c.63-1.242,1.26-1.746,2-1.746a2.519,2.519,0,0,1,.666.09l.2-.054V7.72A3.506,3.506,0,0,0,119.736,7.684Zm4.644-.144a5.768,5.768,0,0,0-3.24,1.08l.234,1.278.144.09a4.1,4.1,0,0,1,2.574-1.152,1.185,1.185,0,0,1,1.3,1.35l-.018.972-2.844.63a1.918,1.918,0,0,0-1.746,2c0,1.44.99,2.34,2.664,2.358a5.271,5.271,0,0,0,1.872-1.35h.126a1.4,1.4,0,0,0,1.314,1.332,2.933,2.933,0,0,0,1.134-.4l.18-1.008-.162-.126a2.753,2.753,0,0,1-.54.072c-.378,0-.522-.144-.522-.612,0-.612.216-3.636.216-4.266C127.062,8.368,126.018,7.54,124.38,7.54Zm.99,4.68-.054,1.386a2.542,2.542,0,0,1-1.8,1.1,1.037,1.037,0,0,1-1.1-1.152.664.664,0,0,1,.612-.774Zm6.984-4.662c-1.908,0-3.024,1.08-3.024,2.5,0,2.61,3.726,2.268,3.726,3.8a1.151,1.151,0,0,1-1.278,1.062,3.8,3.8,0,0,1-2.3-.972l-.2.126-.216,1.53a6.518,6.518,0,0,0,2.52.558c2.07,0,3.114-1.278,3.114-2.61,0-2.538-3.726-2.214-3.726-3.726a1.051,1.051,0,0,1,1.17-.99,3.357,3.357,0,0,1,1.836.63l.234-.054.252-1.44A5.7,5.7,0,0,0,132.354,7.558Zm10.278,4.374.306-.288a7.011,7.011,0,0,0,.072-.9,2.847,2.847,0,0,0-3.024-3.186c-2.412,0-3.978,1.638-3.978,4.338,0,2.628,1.44,4.266,3.924,4.266a5.842,5.842,0,0,0,2.52-.612l.216-1.458-.162-.108a4.941,4.941,0,0,1-2.43.756c-1.584,0-2.34-1.026-2.376-2.808Zm-1.3-1.206-3.546.09a2.11,2.11,0,0,1,2.088-2c.9,0,1.494.522,1.494,1.692ZM147.4,7.558c-1.908,0-3.024,1.08-3.024,2.5,0,2.61,3.726,2.268,3.726,3.8a1.151,1.151,0,0,1-1.278,1.062,3.8,3.8,0,0,1-2.3-.972l-.2.126-.216,1.53a6.518,6.518,0,0,0,2.52.558c2.07,0,3.114-1.278,3.114-2.61,0-2.538-3.726-2.214-3.726-3.726a1.051,1.051,0,0,1,1.17-.99,3.357,3.357,0,0,1,1.836.63l.234-.054.252-1.44A5.7,5.7,0,0,0,147.4,7.558ZM7.776,38.346l.144-8.982-1.836.144L6.12,33.7a7.586,7.586,0,0,0-1.4-.144c-2.538,0-4.086,1.548-4.086,4.32,0,2.664,1.314,4.23,3.726,4.23a7.351,7.351,0,0,0,1.872-1.242h.144A1.425,1.425,0,0,0,7.7,42.126a2.917,2.917,0,0,0,1.152-.4l.162-1.008L8.856,40.6a2.6,2.6,0,0,1-.558.072c-.342,0-.45-.144-.468-.594Zm-3.24-3.528a3.717,3.717,0,0,1,1.6.414l.054,3.276-.036,1.17a2.3,2.3,0,0,1-1.764.936c-1.26,0-2.016-1.026-2.034-2.952C2.322,35.736,3.186,34.818,4.536,34.818ZM13.9,33.54c-2.484,0-3.87,1.6-3.87,4.446,0,2.664,1.314,4.176,3.636,4.176,2.484,0,3.87-1.6,3.87-4.446C17.532,35.052,16.218,33.54,13.9,33.54Zm-.108,1.278c1.35,0,2.034,1.044,2.034,3.312,0,1.89-.684,2.772-2.034,2.772-1.368,0-2.052-1.026-2.052-3.312C11.736,35.736,12.42,34.818,13.788,34.818ZM22,33.558c-1.908,0-3.024,1.08-3.024,2.5,0,2.61,3.726,2.268,3.726,3.8A1.151,1.151,0,0,1,21.42,40.92a3.8,3.8,0,0,1-2.3-.972l-.2.126L18.7,41.6a6.518,6.518,0,0,0,2.52.558c2.07,0,3.114-1.278,3.114-2.61,0-2.538-3.726-2.214-3.726-3.726a1.051,1.051,0,0,1,1.17-.99,3.357,3.357,0,0,1,1.836.63l.234-.054.252-1.44A5.7,5.7,0,0,0,22,33.558ZM32.13,33.54a5.768,5.768,0,0,0-3.24,1.08l.234,1.278.144.09a4.1,4.1,0,0,1,2.574-1.152,1.185,1.185,0,0,1,1.3,1.35l-.018.972-2.844.63a1.918,1.918,0,0,0-1.746,2c0,1.44.99,2.34,2.664,2.358a5.271,5.271,0,0,0,1.872-1.35h.126a1.4,1.4,0,0,0,1.314,1.332,2.933,2.933,0,0,0,1.134-.4l.18-1.008-.162-.126a2.753,2.753,0,0,1-.54.072c-.378,0-.522-.144-.522-.612,0-.612.216-3.636.216-4.266C34.812,34.368,33.768,33.54,32.13,33.54Zm.99,4.68-.054,1.386a2.542,2.542,0,0,1-1.8,1.1,1.037,1.037,0,0,1-1.1-1.152.664.664,0,0,1,.612-.774ZM42.66,42h1.854l-.09-3.636.054-2.34c.018-1.548-.936-2.43-2.79-2.43a6.121,6.121,0,0,0-2.214,1.278h-.126l.018-1.206-1.746.162.09,4.7L37.6,42h1.836l-.108-3.636.018-2.2a3.229,3.229,0,0,1,2.16-1.08c.864,0,1.3.558,1.278,1.458Zm7.56-8.46c-2.484,0-3.87,1.6-3.87,4.446,0,2.664,1.314,4.176,3.636,4.176,2.484,0,3.87-1.6,3.87-4.446C53.856,35.052,52.542,33.54,50.22,33.54Zm-.108,1.278c1.35,0,2.034,1.044,2.034,3.312,0,1.89-.684,2.772-2.034,2.772-1.368,0-2.052-1.026-2.052-3.312C48.06,35.736,48.744,34.818,50.112,34.818Zm8.208-1.26c-1.908,0-3.024,1.08-3.024,2.5,0,2.61,3.726,2.268,3.726,3.8a1.151,1.151,0,0,1-1.278,1.062,3.8,3.8,0,0,1-2.3-.972l-.2.126-.216,1.53a6.518,6.518,0,0,0,2.52.558c2.07,0,3.114-1.278,3.114-2.61,0-2.538-3.726-2.214-3.726-3.726a1.051,1.051,0,0,1,1.17-.99,3.357,3.357,0,0,1,1.836.63l.234-.054.252-1.44A5.7,5.7,0,0,0,58.32,33.558Zm10.368-2.232c-1.944,0-3.294,1.062-3.294,2.844a2.678,2.678,0,0,0,1.638,2.484v.09A2.983,2.983,0,0,0,65,39.426c0,1.584,1.188,2.718,3.294,2.718,2.2,0,3.654-1.17,3.654-3.042a2.821,2.821,0,0,0-1.98-2.592v-.09a2.937,2.937,0,0,0,1.656-2.538C71.622,32.3,70.524,31.326,68.688,31.326Zm-.09,1.3a1.4,1.4,0,0,1,1.584,1.44c0,1.008-.72,1.494-1.53,1.872-.918-.36-1.746-.792-1.746-1.818C66.906,33.2,67.536,32.622,68.6,32.622Zm-.27,4.662c1.062.432,2.088.828,2.088,1.944,0,.936-.72,1.638-1.962,1.638-1.188,0-1.908-.666-1.908-1.656C66.546,38.094,67.392,37.626,68.328,37.284Zm9.4-4.428c-2.592,0-4.086,1.746-4.086,4.788,0,2.862,1.4,4.5,3.852,4.5,2.592,0,4.05-1.728,4.05-4.752C81.54,34.494,80.154,32.856,77.724,32.856Zm-.144,1.692c1.656,0,2.538,1.008,2.538,3.06,0,1.944-.864,2.916-2.52,2.916-1.692,0-2.52-1.008-2.52-3.006S75.906,34.548,77.58,34.548Z" transform="translate(24 3772)"/>
    <path id="Caminho_771997" data-name="Caminho 771997" d="M4.23,6.892A5.487,5.487,0,0,0,.9,8.188L1.206,9.61h.2a3.579,3.579,0,0,1,2.43-1.152c.792,0,1.224.414,1.224.972,0,.7-.63,1.548-1.8,2.808L.792,14.83v1.134l.09.072L1.548,16H5.616l1.98.09.234-1.512L7.7,14.452,6.138,14.6H3.2l-.036-.09,1.6-1.818c1.44-1.62,2.088-2.736,2.088-3.708C6.858,7.7,5.742,6.892,4.23,6.892Zm11.034.126-.108-.126-1.764.09h-2.5L9.9,6.928l-.252.252-.09,4.86L9.7,12.2l1.6.306c1.512.27,2.106.828,2.106,1.782,0,1.206-.936,2.034-2.43,2.034a4.99,4.99,0,0,1-2.052-.45l-.144.144.126,1.548a10.218,10.218,0,0,0,1.818.2c2.592,0,4.41-1.53,4.41-3.762,0-1.422-.756-2.376-3.024-2.844L11,10.924l.054-2.466h2.412l1.476.126.126-.126ZM27.684,4.21l-.774-.468L18.468,16.936l.09.234.81.468L27.81,4.48Zm-8.28.126c-1.818,0-2.826,1.17-2.826,3.33,0,2,.936,3.114,2.628,3.114,1.818,0,2.79-1.152,2.79-3.33C22,5.452,21.078,4.336,19.4,4.336Zm-.126,1.278c1.008,0,1.512.666,1.512,2.016,0,1.3-.486,1.962-1.494,1.962S17.8,8.926,17.8,7.54C17.8,6.244,18.288,5.614,19.278,5.614ZM27.72,9.646c-1.818,0-2.826,1.17-2.826,3.312,0,2.016.936,3.132,2.628,3.132,1.818,0,2.79-1.17,2.79-3.33C30.312,10.762,29.394,9.646,27.72,9.646Zm-.126,1.278c1.008,0,1.512.648,1.512,2.016,0,1.3-.486,1.962-1.494,1.962s-1.476-.666-1.476-2.052C26.136,11.554,26.6,10.924,27.594,10.924Z" transform="translate(207 3657)"/>
    <path id="Caminho_772002" data-name="Caminho 772002" d="M6.948,7.018,6.84,6.892l-1.764.09h-2.5l-.99-.054-.252.252-.09,4.86.144.162,1.6.306c1.512.27,2.106.828,2.106,1.782,0,1.206-.936,2.034-2.43,2.034a4.99,4.99,0,0,1-2.052-.45l-.144.144.126,1.548a10.218,10.218,0,0,0,1.818.2c2.592,0,4.41-1.53,4.41-3.762,0-1.422-.756-2.376-3.024-2.844l-1.116-.234.054-2.466H5.148l1.476.126.126-.126Zm5.526-.162c-2.592,0-4.086,1.746-4.086,4.788,0,2.862,1.4,4.5,3.852,4.5,2.592,0,4.05-1.728,4.05-4.752C16.29,8.494,14.9,6.856,12.474,6.856ZM12.33,8.548c1.656,0,2.538,1.008,2.538,3.06,0,1.944-.864,2.916-2.52,2.916-1.692,0-2.52-1.008-2.52-3.006S10.656,8.548,12.33,8.548ZM28.818,4.21l-.774-.468L19.6,16.936l.09.234.81.468L28.944,4.48Zm-8.28.126c-1.818,0-2.826,1.17-2.826,3.33,0,2,.936,3.114,2.628,3.114,1.818,0,2.79-1.152,2.79-3.33C23.13,5.452,22.212,4.336,20.538,4.336Zm-.126,1.278c1.008,0,1.512.666,1.512,2.016,0,1.3-.486,1.962-1.494,1.962s-1.494-.666-1.494-2.052C18.936,6.244,19.422,5.614,20.412,5.614Zm8.442,4.032c-1.818,0-2.826,1.17-2.826,3.312,0,2.016.936,3.132,2.628,3.132,1.818,0,2.79-1.17,2.79-3.33C31.446,10.762,30.528,9.646,28.854,9.646Zm-.126,1.278c1.008,0,1.512.648,1.512,2.016,0,1.3-.486,1.962-1.494,1.962s-1.476-.666-1.476-2.052C27.27,11.554,27.738,10.924,28.728,10.924Z" transform="translate(207 3720)"/>
    <path id="Caminho_772001" data-name="Caminho 772001" d="M4.23,6.892A5.487,5.487,0,0,0,.9,8.188L1.206,9.61h.2a3.579,3.579,0,0,1,2.43-1.152c.792,0,1.224.414,1.224.972,0,.7-.63,1.548-1.8,2.808L.792,14.83v1.134l.09.072L1.548,16H5.616l1.98.09.234-1.512L7.7,14.452,6.138,14.6H3.2l-.036-.09,1.6-1.818c1.44-1.62,2.088-2.736,2.088-3.708C6.858,7.7,5.742,6.892,4.23,6.892Zm11.034.126-.108-.126-1.764.09h-2.5L9.9,6.928l-.252.252-.09,4.86L9.7,12.2l1.6.306c1.512.27,2.106.828,2.106,1.782,0,1.206-.936,2.034-2.43,2.034a4.99,4.99,0,0,1-2.052-.45l-.144.144.126,1.548a10.218,10.218,0,0,0,1.818.2c2.592,0,4.41-1.53,4.41-3.762,0-1.422-.756-2.376-3.024-2.844L11,10.924l.054-2.466h2.412l1.476.126.126-.126ZM27.684,4.21l-.774-.468L18.468,16.936l.09.234.81.468L27.81,4.48Zm-8.28.126c-1.818,0-2.826,1.17-2.826,3.33,0,2,.936,3.114,2.628,3.114,1.818,0,2.79-1.152,2.79-3.33C22,5.452,21.078,4.336,19.4,4.336Zm-.126,1.278c1.008,0,1.512.666,1.512,2.016,0,1.3-.486,1.962-1.494,1.962S17.8,8.926,17.8,7.54C17.8,6.244,18.288,5.614,19.278,5.614ZM27.72,9.646c-1.818,0-2.826,1.17-2.826,3.312,0,2.016.936,3.132,2.628,3.132,1.818,0,2.79-1.17,2.79-3.33C30.312,10.762,29.394,9.646,27.72,9.646Zm-.126,1.278c1.008,0,1.512.648,1.512,2.016,0,1.3-.486,1.962-1.494,1.962s-1.476-.666-1.476-2.052C26.136,11.554,26.6,10.924,27.594,10.924Z" transform="translate(207 3783)"/>
  </g>
</svg>
