<svg xmlns="http://www.w3.org/2000/svg" width="622.934" height="362.763" viewBox="0 0 622.934 362.763">
  <g id="_img_Grafico_7-mob_" data-name="&lt;img Grafico_7-mob&gt;" transform="translate(4722 8856.888)">
    <line id="Linha_1897" data-name="Linha 1897" y2="10.17" transform="translate(-4720.5 -8581.436)" fill="none" stroke="#40bbff" stroke-miterlimit="10" stroke-width="2"/>
    <g id="Grupo_234099" data-name="Grupo 234099" transform="translate(-65.5 -236.504)">
      <path id="Caminho_773639" data-name="Caminho 773639" d="M4.664,0l.484-8.712L8.756-2.288h2.068l3.63-6.424L14.938,0H18l-.858-15.4H14.63L9.79-6.446,4.972-15.4H2.464L1.606,0Zm21.78-2.112a2.844,2.844,0,0,1-2.926-2.112l6.6-.77A5.685,5.685,0,0,0,30.4-6.8c0-2.728-1.98-4.312-4.62-4.312-3.124,0-5.39,2.2-5.39,5.676A5.445,5.445,0,0,0,26.224.33,6.636,6.636,0,0,0,30.14-.88L29-2.882A4.938,4.938,0,0,1,26.444-2.112ZM25.96-8.734c.968,0,1.672.506,1.672,1.452a1.7,1.7,0,0,1-.066.55l-4.18.506A2.638,2.638,0,0,1,25.96-8.734ZM36.5.308a6.135,6.135,0,0,0,2.156-.44l-.638-2.442a1.462,1.462,0,0,1-.792.22c-1.034,0-1.3-.792-1.3-2V-15.928h-3.08v12.1C32.846-1.3,34.034.308,36.5.308ZM47.828-11.11c-2.178,0-3.476,1.408-4.224,3.432l.4-3.1v-5.148H40.92V0H44c0-3.5.2-8.448,2.882-8.448,1.364,0,1.5,1.43,1.5,2.354V0h3.1V-6.952C51.48-9.548,50.138-11.11,47.828-11.11ZM59.312.33a5.441,5.441,0,0,0,5.632-5.72,5.429,5.429,0,0,0-5.632-5.72,5.434,5.434,0,0,0-5.654,5.72A5.446,5.446,0,0,0,59.312.33Zm0-2.508c-1.628,0-2.464-1.5-2.464-3.212S57.684-8.6,59.312-8.6c1.606,0,2.442,1.5,2.442,3.212S60.918-2.178,59.312-2.178Zm14.85-8.932c-2.376,0-3.564,1.76-4.18,4.114l.374-3.784h-3.08V0h3.08c0-3.564.22-7.92,3.146-7.92a3.491,3.491,0,0,1,1.1.2l.814-3.212A4.544,4.544,0,0,0,74.162-11.11Zm8.206,9a2.844,2.844,0,0,1-2.926-2.112l6.6-.77a5.685,5.685,0,0,0,.286-1.8c0-2.728-1.98-4.312-4.62-4.312-3.124,0-5.39,2.2-5.39,5.676A5.445,5.445,0,0,0,82.148.33,6.636,6.636,0,0,0,86.064-.88l-1.144-2A4.938,4.938,0,0,1,82.368-2.112Zm-.484-6.622c.968,0,1.672.506,1.672,1.452a1.7,1.7,0,0,1-.066.55l-4.18.506A2.638,2.638,0,0,1,81.884-8.734ZM92.422.33c2.662,0,4.6-1.144,4.6-3.63,0-3.828-5.566-2.706-5.566-4.4,0-.7.88-.9,1.694-.9a5.752,5.752,0,0,1,2.684.66L96.888-10.1A8.551,8.551,0,0,0,92.84-11.11c-2.222,0-4.488.924-4.488,3.388,0,4.026,5.588,2.86,5.588,4.642,0,.594-.594.924-1.672.924A6.735,6.735,0,0,1,88.924-3.1L87.8-.858A9.414,9.414,0,0,0,92.422.33Zm19.734-11.44c-2.046,0-3.322,1.474-4.07,3.454l.33-3.124h-3.08V4.708h3.08V.2a8.724,8.724,0,0,0,1.54.132c4.356,0,6.226-3.168,6.226-6.424C116.182-9.042,114.664-11.11,112.156-11.11ZM110-2.024a3.631,3.631,0,0,1-1.562-.374c.176-2.882.814-6.248,2.772-6.248.968,0,1.76.66,1.76,2.64C112.97-4.466,112.42-2.024,110-2.024Zm15.62-9.086c-2.376,0-3.564,1.76-4.18,4.114l.374-3.784h-3.08V0h3.08c0-3.564.22-7.92,3.146-7.92a3.491,3.491,0,0,1,1.1.2l.814-3.212A4.544,4.544,0,0,0,125.62-11.11ZM133.43.33a5.441,5.441,0,0,0,5.632-5.72,5.429,5.429,0,0,0-5.632-5.72,5.434,5.434,0,0,0-5.654,5.72A5.446,5.446,0,0,0,133.43.33Zm0-2.508c-1.628,0-2.464-1.5-2.464-3.212S131.8-8.6,133.43-8.6c1.606,0,2.442,1.5,2.442,3.212S135.036-2.178,133.43-2.178Zm15.18-8.8a8.474,8.474,0,0,0-1.518-.132c-4.356,0-6.226,3.168-6.226,6.424,0,2.948,1.518,5.016,4.026,5.016,2.024,0,3.278-1.452,4.048-3.41L148.61,0h3.1V-15.928h-3.1Zm-2.772,8.822c-.99,0-1.76-.638-1.76-2.64,0-1.518.528-3.96,2.97-3.96a3.61,3.61,0,0,1,1.54.374C148.412-5.5,147.774-2.156,145.838-2.156Zm19.25-8.624h-3.1c0,3.5-.11,8.448-2.75,8.448-1.364,0-1.628-1.43-1.628-2.354V-10.78h-3.08v7.106a3.685,3.685,0,0,0,3.916,4,4,4,0,0,0,3.784-2.794L161.986,0h3.1ZM173.228.33a7.084,7.084,0,0,0,2.464-.462l-.638-2.42a3.145,3.145,0,0,1-1.1.22c-1.144,0-1.694-.682-1.694-2.046v-3.96h3.014V-10.78H172.26v-3.366h-2.046l-.22,1.188c-.33,1.738-.506,2.178-2.486,2.178h-.33v2.442h2V-3.85C169.18-1.276,170.544.33,173.228.33Zm9.438,0A5.441,5.441,0,0,0,188.3-5.39a5.429,5.429,0,0,0-5.632-5.72,5.434,5.434,0,0,0-5.654,5.72A5.446,5.446,0,0,0,182.666.33Zm0-2.508c-1.628,0-2.464-1.5-2.464-3.212s.836-3.212,2.464-3.212c1.606,0,2.442,1.5,2.442,3.212S184.272-2.178,182.666-2.178ZM194.282.33c2.662,0,4.6-1.144,4.6-3.63,0-3.828-5.566-2.706-5.566-4.4,0-.7.88-.9,1.694-.9a5.752,5.752,0,0,1,2.684.66l1.056-2.156A8.551,8.551,0,0,0,194.7-11.11c-2.222,0-4.488.924-4.488,3.388,0,4.026,5.588,2.86,5.588,4.642,0,.594-.594.924-1.672.924a6.735,6.735,0,0,1-3.344-.946L189.662-.858A9.414,9.414,0,0,0,194.282.33Z" transform="translate(-4658.106 -8604.456)"/>
      <path id="Caminho_773652" data-name="Caminho 773652" d="M13.14,2.052A15.133,15.133,0,0,1,7.7-.2C9.756-.972,10.89-3.006,10.89-5.976c0-3.69-1.782-5.724-4.968-5.724-3.4,0-5.31,2.16-5.31,6.03,0,3.708,1.764,5.832,5,5.832l.4-.018A17.527,17.527,0,0,0,12.2,3.528l.162-.072a3.871,3.871,0,0,0,.846-1.188ZM2.52-5.85c0-2.988,1.026-4.32,3.222-4.32,2.178,0,3.222,1.368,3.222,4.446,0,3.024-1.1,4.392-3.2,4.392C3.564-1.332,2.52-2.736,2.52-5.85ZM19.44-8.334l-1.746.162v5.85a2.951,2.951,0,0,1-1.962.918c-.846,0-1.26-.54-1.242-1.422l.09-5.508-1.818.162.072,3.6L12.8-2.322C12.78-.774,13.752.108,15.57.108a5.411,5.411,0,0,0,2.16-1.26h.144A1.441,1.441,0,0,0,19.206.126a2.832,2.832,0,0,0,1.134-.4l.18-1.008L20.358-1.4a2.6,2.6,0,0,1-.558.072c-.36,0-.486-.144-.486-.594Zm5.67-.126a5.768,5.768,0,0,0-3.24,1.08L22.1-6.1l.144.09a4.1,4.1,0,0,1,2.574-1.152,1.185,1.185,0,0,1,1.3,1.35l-.018.972-2.844.63a1.918,1.918,0,0,0-1.746,2c0,1.44.99,2.34,2.664,2.358a5.271,5.271,0,0,0,1.872-1.35h.126A1.4,1.4,0,0,0,27.486.126a2.933,2.933,0,0,0,1.134-.4l.18-1.008L28.638-1.4a2.753,2.753,0,0,1-.54.072c-.378,0-.522-.144-.522-.612,0-.612.216-3.636.216-4.266C27.792-7.632,26.748-8.46,25.11-8.46Zm.99,4.68-.054,1.386a2.542,2.542,0,0,1-1.8,1.1,1.037,1.037,0,0,1-1.1-1.152.664.664,0,0,1,.612-.774ZM35.64,0h1.854L37.4-3.636l.054-2.34c.018-1.548-.936-2.43-2.79-2.43a6.121,6.121,0,0,0-2.214,1.278h-.126l.018-1.206L30.6-8.172l.09,4.7L30.582,0h1.836L32.31-3.636l.018-2.2a3.229,3.229,0,0,1,2.16-1.08c.864,0,1.3.558,1.278,1.458Zm7.236-1.386c-.738,0-1.062-.288-1.044-1.188l.09-4.518h2.322l.09-1.044-.072-.126h-2.3l.036-1.782-.162-.144-1.62.612v1.314h-1.1L39.024-7.2l.072.108H40.23l.018,3.51-.072,1.3A2.148,2.148,0,0,0,42.3.108a5.2,5.2,0,0,0,1.836-.54l.18-1.152-.18-.126A2.838,2.838,0,0,1,42.876-1.386Zm3.942-10.782a.973.973,0,0,0-1.044,1.044.914.914,0,0,0,.99,1.008.97.97,0,0,0,1.008-1.062A.89.89,0,0,0,46.818-12.168Zm.72,8.532.144-4.7-1.836.162.09,4.7L45.828,0h1.836Zm9.2-.018.144-8.982-1.836.144L55.08-8.3a7.586,7.586,0,0,0-1.4-.144c-2.538,0-4.086,1.548-4.086,4.32,0,2.664,1.314,4.23,3.726,4.23a7.351,7.351,0,0,0,1.872-1.242h.144A1.425,1.425,0,0,0,56.664.126a2.917,2.917,0,0,0,1.152-.4l.162-1.008L57.816-1.4a2.6,2.6,0,0,1-.558.072c-.342,0-.45-.144-.468-.594ZM53.5-7.182a3.717,3.717,0,0,1,1.6.414l.054,3.276-.036,1.17a2.3,2.3,0,0,1-1.764.936c-1.26,0-2.016-1.026-2.034-2.952C51.282-6.264,52.146-7.182,53.5-7.182Zm9.09-1.278a5.768,5.768,0,0,0-3.24,1.08L59.58-6.1l.144.09A4.1,4.1,0,0,1,62.3-7.164a1.185,1.185,0,0,1,1.3,1.35l-.018.972-2.844.63a1.918,1.918,0,0,0-1.746,2c0,1.44.99,2.34,2.664,2.358a5.271,5.271,0,0,0,1.872-1.35h.126A1.4,1.4,0,0,0,64.962.126,2.933,2.933,0,0,0,66.1-.27l.18-1.008L66.114-1.4a2.753,2.753,0,0,1-.54.072c-.378,0-.522-.144-.522-.612,0-.612.216-3.636.216-4.266C65.268-7.632,64.224-8.46,62.586-8.46Zm.99,4.68-.054,1.386a2.542,2.542,0,0,1-1.8,1.1,1.037,1.037,0,0,1-1.1-1.152.664.664,0,0,1,.612-.774Zm10.98.126.144-8.982-1.836.144L72.9-8.3a7.587,7.587,0,0,0-1.4-.144c-2.538,0-4.086,1.548-4.086,4.32,0,2.664,1.314,4.23,3.726,4.23a7.351,7.351,0,0,0,1.872-1.242h.144A1.425,1.425,0,0,0,74.484.126a2.917,2.917,0,0,0,1.152-.4L75.8-1.278,75.636-1.4a2.6,2.6,0,0,1-.558.072c-.342,0-.45-.144-.468-.594Zm-3.24-3.528a3.717,3.717,0,0,1,1.6.414l.054,3.276-.036,1.17a2.3,2.3,0,0,1-1.764.936c-1.26,0-2.016-1.026-2.034-2.952C69.1-6.264,69.966-7.182,71.316-7.182ZM83.43-4.068l.306-.288a7.013,7.013,0,0,0,.072-.9,2.847,2.847,0,0,0-3.024-3.186c-2.412,0-3.978,1.638-3.978,4.338,0,2.628,1.44,4.266,3.924,4.266A5.842,5.842,0,0,0,83.25-.45l.216-1.458L83.3-2.016a4.941,4.941,0,0,1-2.43.756c-1.584,0-2.34-1.026-2.376-2.808Zm-1.3-1.206-3.546.09a2.11,2.11,0,0,1,2.088-2c.9,0,1.494.522,1.494,1.692Zm12.942,1.62.144-8.982-1.836.144L93.42-8.3a7.587,7.587,0,0,0-1.4-.144c-2.538,0-4.086,1.548-4.086,4.32,0,2.664,1.314,4.23,3.726,4.23a7.351,7.351,0,0,0,1.872-1.242h.144A1.425,1.425,0,0,0,95,.126a2.917,2.917,0,0,0,1.152-.4l.162-1.008L96.156-1.4a2.6,2.6,0,0,1-.558.072c-.342,0-.45-.144-.468-.594Zm-3.24-3.528a3.717,3.717,0,0,1,1.6.414l.054,3.276-.036,1.17a2.3,2.3,0,0,1-1.764.936c-1.26,0-2.016-1.026-2.034-2.952C89.622-6.264,90.486-7.182,91.836-7.182ZM103.95-4.068l.306-.288a7.013,7.013,0,0,0,.072-.9A2.847,2.847,0,0,0,101.3-8.442c-2.412,0-3.978,1.638-3.978,4.338,0,2.628,1.44,4.266,3.924,4.266a5.842,5.842,0,0,0,2.52-.612l.216-1.458-.162-.108a4.941,4.941,0,0,1-2.43.756c-1.584,0-2.34-1.026-2.376-2.808Zm-1.3-1.206-3.546.09a2.11,2.11,0,0,1,2.088-2c.9,0,1.494.522,1.494,1.692Zm7.416-1.854-.234-1.224-1.692.09L110.61,0h1.98l2.934-8.3H113.9l-.306,1.26-1.836,5.274h-.126Zm12.564,3.06.306-.288a7.013,7.013,0,0,0,.072-.9,2.847,2.847,0,0,0-3.024-3.186c-2.412,0-3.978,1.638-3.978,4.338,0,2.628,1.44,4.266,3.924,4.266a5.842,5.842,0,0,0,2.52-.612l.216-1.458-.162-.108a4.941,4.941,0,0,1-2.43.756c-1.584,0-2.34-1.026-2.376-2.808Zm-1.3-1.206-3.546.09a2.11,2.11,0,0,1,2.088-2c.9,0,1.494.522,1.494,1.692ZM129.96,0h1.854l-.09-3.636.054-2.34c.018-1.548-.936-2.43-2.79-2.43a6.121,6.121,0,0,0-2.214,1.278h-.126l.018-1.206-1.746.162.09,4.7L124.9,0h1.836l-.108-3.636.018-2.2a3.229,3.229,0,0,1,2.16-1.08c.864,0,1.3.558,1.278,1.458Zm10.8-3.654.144-8.982-1.836.144L139.1-8.3a7.586,7.586,0,0,0-1.4-.144c-2.538,0-4.086,1.548-4.086,4.32,0,2.664,1.314,4.23,3.726,4.23a7.351,7.351,0,0,0,1.872-1.242h.144a1.425,1.425,0,0,0,1.332,1.26,2.917,2.917,0,0,0,1.152-.4L142-1.278,141.84-1.4a2.6,2.6,0,0,1-.558.072c-.342,0-.45-.144-.468-.594Zm-3.24-3.528a3.717,3.717,0,0,1,1.6.414l.054,3.276-.036,1.17a2.3,2.3,0,0,1-1.764.936c-1.26,0-2.016-1.026-2.034-2.952C135.306-6.264,136.17-7.182,137.52-7.182Zm9.09-1.278a5.768,5.768,0,0,0-3.24,1.08L143.6-6.1l.144.09a4.1,4.1,0,0,1,2.574-1.152,1.185,1.185,0,0,1,1.3,1.35l-.018.972-2.844.63a1.918,1.918,0,0,0-1.746,2c0,1.44.99,2.34,2.664,2.358a5.271,5.271,0,0,0,1.872-1.35h.126A1.4,1.4,0,0,0,148.986.126a2.933,2.933,0,0,0,1.134-.4l.18-1.008-.162-.126a2.753,2.753,0,0,1-.54.072c-.378,0-.522-.144-.522-.612,0-.612.216-3.636.216-4.266C149.292-7.632,148.248-8.46,146.61-8.46Zm.99,4.68-.054,1.386a2.542,2.542,0,0,1-1.8,1.1,1.037,1.037,0,0,1-1.1-1.152.664.664,0,0,1,.612-.774Zm6.984-4.662c-1.908,0-3.024,1.08-3.024,2.5,0,2.61,3.726,2.268,3.726,3.8a1.151,1.151,0,0,1-1.278,1.062,3.8,3.8,0,0,1-2.3-.972l-.2.126L151.29-.4a6.518,6.518,0,0,0,2.52.558c2.07,0,3.114-1.278,3.114-2.61,0-2.538-3.726-2.214-3.726-3.726a1.051,1.051,0,0,1,1.17-.99,3.357,3.357,0,0,1,1.836.63l.234-.054.252-1.44A5.7,5.7,0,0,0,154.584-8.442Z" transform="translate(-4432.5 -8261.149)"/>
      <line id="Linha_1896" data-name="Linha 1896" x2="611.23" transform="translate(-4656.5 -8344.774)" fill="none" stroke="#40bbff" stroke-miterlimit="10" stroke-width="2"/>
      <line id="Linha_1900" data-name="Linha 1900" y2="10.17" transform="translate(-4501.5 -8345.436)" fill="none" stroke="#40bbff" stroke-miterlimit="10" stroke-width="2"/>
      <line id="Linha_1902" data-name="Linha 1902" y2="10.17" transform="translate(-4350.5 -8345.436)" fill="none" stroke="#40bbff" stroke-miterlimit="10" stroke-width="2"/>
      <line id="Linha_1904" data-name="Linha 1904" y2="10.17" transform="translate(-4198.5 -8345.436)" fill="none" stroke="#40bbff" stroke-miterlimit="10" stroke-width="2"/>
      <line id="Linha_1898" data-name="Linha 1898" y2="10.17" transform="translate(-4577.5 -8345.436)" fill="none" stroke="#40bbff" stroke-miterlimit="10" stroke-width="2"/>
      <line id="Linha_1899" data-name="Linha 1899" y2="10.17" transform="translate(-4426.5 -8345.436)" fill="none" stroke="#40bbff" stroke-miterlimit="10" stroke-width="2"/>
      <line id="Linha_1901" data-name="Linha 1901" y2="10.17" transform="translate(-4274.5 -8345.436)" fill="none" stroke="#40bbff" stroke-miterlimit="10" stroke-width="2"/>
      <line id="Linha_1903" data-name="Linha 1903" y2="10.17" transform="translate(-4122.5 -8345.436)" fill="none" stroke="#40bbff" stroke-miterlimit="10" stroke-width="2"/>
      <line id="Linha_1905" data-name="Linha 1905" y2="10.17" transform="translate(-4046.5 -8345.436)" fill="none" stroke="#40bbff" stroke-miterlimit="10" stroke-width="2"/>
      <ellipse id="Elipse_13063" data-name="Elipse 13063" cx="7" cy="7" rx="7" ry="7" transform="translate(-4432.919 -8484.456)" fill="#3b4aff"/>
      <ellipse id="Elipse_13064" data-name="Elipse 13064" cx="7" cy="7" rx="7" ry="7" transform="translate(-4282 -8529.456)" fill="#0041d9"/>
      <ellipse id="Elipse_13065" data-name="Elipse 13065" cx="7" cy="7" rx="7" ry="7" transform="translate(-4136.5 -8552.456)" fill="#0024a9"/>
      <path id="Caminho_773651" data-name="Caminho 773651" d="M4.86-9.144C2.268-9.144.774-7.4.774-4.356c0,2.862,1.4,4.5,3.852,4.5,2.592,0,4.05-1.728,4.05-4.752C8.676-7.506,7.29-9.144,4.86-9.144ZM4.716-7.452c1.656,0,2.538,1.008,2.538,3.06,0,1.944-.864,2.916-2.52,2.916-1.692,0-2.52-1.008-2.52-3.006S3.042-7.452,4.716-7.452Z" transform="translate(-4656.149 -8302.962)"/>
      <path id="Caminho_773650" data-name="Caminho 773650" d="M6.948-8.982,6.84-9.108l-1.764.09h-2.5l-.99-.054-.252.252-.09,4.86.144.162,1.6.306c1.512.27,2.106.828,2.106,1.782C5.094-.5,4.158.324,2.664.324A4.99,4.99,0,0,1,.612-.126L.468.018.594,1.566a10.218,10.218,0,0,0,1.818.2C5,1.764,6.822.234,6.822-2c0-1.422-.756-2.376-3.024-2.844L2.682-5.076l.054-2.466H5.148l1.476.126.126-.126Zm5.526-.162c-2.592,0-4.086,1.746-4.086,4.788,0,2.862,1.4,4.5,3.852,4.5,2.592,0,4.05-1.728,4.05-4.752C16.29-7.506,14.9-9.144,12.474-9.144ZM12.33-7.452c1.656,0,2.538,1.008,2.538,3.06,0,1.944-.864,2.916-2.52,2.916-1.692,0-2.52-1.008-2.52-3.006S10.656-7.452,12.33-7.452Z" transform="translate(-4586 -8302.962)"/>
      <path id="Caminho_773649" data-name="Caminho 773649" d="M4.32-8.91l-.27-.2L.18-7.974v1.458l.162.108,2.2-.612.018,3.492L2.448,0H4.3l-.09-3.726Zm6.858-.234c-2.592,0-4.086,1.746-4.086,4.788,0,2.862,1.4,4.5,3.852,4.5,2.592,0,4.05-1.728,4.05-4.752C14.994-7.506,13.608-9.144,11.178-9.144Zm-.144,1.692c1.656,0,2.538,1.008,2.538,3.06,0,1.944-.864,2.916-2.52,2.916-1.692,0-2.52-1.008-2.52-3.006S9.36-7.452,11.034-7.452Zm9.594-1.692c-2.592,0-4.086,1.746-4.086,4.788,0,2.862,1.4,4.5,3.852,4.5,2.592,0,4.05-1.728,4.05-4.752C24.444-7.506,23.058-9.144,20.628-9.144Zm-.144,1.692c1.656,0,2.538,1.008,2.538,3.06,0,1.944-.864,2.916-2.52,2.916-1.692,0-2.52-1.008-2.52-3.006S18.81-7.452,20.484-7.452Z" transform="translate(-4514 -8302.962)"/>
      <path id="Caminho_773648" data-name="Caminho 773648" d="M4.32-8.91l-.27-.2L.18-7.974v1.458l.162.108,2.2-.612.018,3.492L2.448,0H4.3l-.09-3.726Zm8.946-.072-.108-.126-1.764.09h-2.5L7.9-9.072,7.65-8.82,7.56-3.96,7.7-3.8l1.6.306c1.512.27,2.106.828,2.106,1.782,0,1.206-.936,2.034-2.43,2.034A4.99,4.99,0,0,1,6.93-.126L6.786.018l.126,1.548a10.218,10.218,0,0,0,1.818.2c2.592,0,4.41-1.53,4.41-3.762,0-1.422-.756-2.376-3.024-2.844L9-5.076l.054-2.466h2.412l1.476.126.126-.126Zm5.526-.162c-2.592,0-4.086,1.746-4.086,4.788,0,2.862,1.4,4.5,3.852,4.5,2.592,0,4.05-1.728,4.05-4.752C22.608-7.506,21.222-9.144,18.792-9.144Zm-.144,1.692c1.656,0,2.538,1.008,2.538,3.06,0,1.944-.864,2.916-2.52,2.916-1.692,0-2.52-1.008-2.52-3.006S16.974-7.452,18.648-7.452Z" transform="translate(-4438 -8302.962)"/>
      <path id="Caminho_773647" data-name="Caminho 773647" d="M4.23-9.108A5.487,5.487,0,0,0,.9-7.812L1.206-6.39h.2a3.579,3.579,0,0,1,2.43-1.152c.792,0,1.224.414,1.224.972,0,.7-.63,1.548-1.8,2.808L.792-1.17V-.036l.09.072L1.548,0H5.616L7.6.09,7.83-1.422,7.7-1.548,6.138-1.4H3.2l-.036-.09,1.6-1.818C6.21-4.932,6.858-6.048,6.858-7.02,6.858-8.3,5.742-9.108,4.23-9.108Zm8.946-.036C10.584-9.144,9.09-7.4,9.09-4.356c0,2.862,1.4,4.5,3.852,4.5,2.592,0,4.05-1.728,4.05-4.752C16.992-7.506,15.606-9.144,13.176-9.144Zm-.144,1.692c1.656,0,2.538,1.008,2.538,3.06,0,1.944-.864,2.916-2.52,2.916-1.692,0-2.52-1.008-2.52-3.006S11.358-7.452,13.032-7.452Zm9.594-1.692c-2.592,0-4.086,1.746-4.086,4.788,0,2.862,1.4,4.5,3.852,4.5,2.592,0,4.05-1.728,4.05-4.752C26.442-7.506,25.056-9.144,22.626-9.144Zm-.144,1.692c1.656,0,2.538,1.008,2.538,3.06,0,1.944-.864,2.916-2.52,2.916-1.692,0-2.52-1.008-2.52-3.006S20.808-7.452,22.482-7.452Z" transform="translate(-4364 -8302.962)"/>
      <path id="Caminho_773646" data-name="Caminho 773646" d="M4.23-9.108A5.487,5.487,0,0,0,.9-7.812L1.206-6.39h.2a3.579,3.579,0,0,1,2.43-1.152c.792,0,1.224.414,1.224.972,0,.7-.63,1.548-1.8,2.808L.792-1.17V-.036l.09.072L1.548,0H5.616L7.6.09,7.83-1.422,7.7-1.548,6.138-1.4H3.2l-.036-.09,1.6-1.818C6.21-4.932,6.858-6.048,6.858-7.02,6.858-8.3,5.742-9.108,4.23-9.108Zm11.034.126-.108-.126-1.764.09h-2.5L9.9-9.072l-.252.252-.09,4.86L9.7-3.8l1.6.306c1.512.27,2.106.828,2.106,1.782C13.41-.5,12.474.324,10.98.324a4.99,4.99,0,0,1-2.052-.45L8.784.018,8.91,1.566a10.218,10.218,0,0,0,1.818.2c2.592,0,4.41-1.53,4.41-3.762,0-1.422-.756-2.376-3.024-2.844L11-5.076l.054-2.466h2.412l1.476.126.126-.126Zm5.526-.162C18.2-9.144,16.7-7.4,16.7-4.356c0,2.862,1.4,4.5,3.852,4.5,2.592,0,4.05-1.728,4.05-4.752C24.606-7.506,23.22-9.144,20.79-9.144Zm-.144,1.692c1.656,0,2.538,1.008,2.538,3.06,0,1.944-.864,2.916-2.52,2.916-1.692,0-2.52-1.008-2.52-3.006S18.972-7.452,20.646-7.452Z" transform="translate(-4282 -8302.962)"/>
      <path id="Caminho_773645" data-name="Caminho 773645" d="M3.528-9.126A4.854,4.854,0,0,0,.5-8.028l.27,1.386h.2a3.494,3.494,0,0,1,2.2-.99A1.249,1.249,0,0,1,4.59-6.372a1.982,1.982,0,0,1-2,1.818L1.8-4.536l-.054,1.26.108.126H2.988c1.332.054,2.034.63,2.034,1.62,0,1.152-.954,1.854-2.43,1.854a4.835,4.835,0,0,1-1.908-.4L.558.054l.09,1.512A12.458,12.458,0,0,0,2.5,1.728c2.556,0,4.266-1.368,4.266-3.4A2.394,2.394,0,0,0,4.68-4.05v-.072A3.028,3.028,0,0,0,6.444-6.768C6.444-8.172,5.274-9.126,3.528-9.126Zm8.892-.018c-2.592,0-4.086,1.746-4.086,4.788,0,2.862,1.4,4.5,3.852,4.5,2.592,0,4.05-1.728,4.05-4.752C16.236-7.506,14.85-9.144,12.42-9.144Zm-.144,1.692c1.656,0,2.538,1.008,2.538,3.06,0,1.944-.864,2.916-2.52,2.916-1.692,0-2.52-1.008-2.52-3.006S10.6-7.452,12.276-7.452ZM21.87-9.144c-2.592,0-4.086,1.746-4.086,4.788,0,2.862,1.4,4.5,3.852,4.5,2.592,0,4.05-1.728,4.05-4.752C25.686-7.506,24.3-9.144,21.87-9.144Zm-.144,1.692c1.656,0,2.538,1.008,2.538,3.06,0,1.944-.864,2.916-2.52,2.916-1.692,0-2.52-1.008-2.52-3.006S20.052-7.452,21.726-7.452Z" transform="translate(-4211.5 -8302.962)"/>
      <path id="Caminho_773644" data-name="Caminho 773644" d="M3.528-9.126A4.854,4.854,0,0,0,.5-8.028l.27,1.386h.2a3.494,3.494,0,0,1,2.2-.99A1.249,1.249,0,0,1,4.59-6.372a1.982,1.982,0,0,1-2,1.818L1.8-4.536l-.054,1.26.108.126H2.988c1.332.054,2.034.63,2.034,1.62,0,1.152-.954,1.854-2.43,1.854a4.835,4.835,0,0,1-1.908-.4L.558.054l.09,1.512A12.458,12.458,0,0,0,2.5,1.728c2.556,0,4.266-1.368,4.266-3.4A2.394,2.394,0,0,0,4.68-4.05v-.072A3.028,3.028,0,0,0,6.444-6.768C6.444-8.172,5.274-9.126,3.528-9.126Zm10.98.144L14.4-9.108l-1.764.09h-2.5l-.99-.054-.252.252L8.8-3.96l.144.162,1.6.306c1.512.27,2.106.828,2.106,1.782,0,1.206-.936,2.034-2.43,2.034a4.99,4.99,0,0,1-2.052-.45L8.028.018l.126,1.548a10.218,10.218,0,0,0,1.818.2c2.592,0,4.41-1.53,4.41-3.762,0-1.422-.756-2.376-3.024-2.844l-1.116-.234L10.3-7.542h2.412l1.476.126.126-.126Zm5.526-.162c-2.592,0-4.086,1.746-4.086,4.788,0,2.862,1.4,4.5,3.852,4.5,2.592,0,4.05-1.728,4.05-4.752C23.85-7.506,22.464-9.144,20.034-9.144ZM19.89-7.452c1.656,0,2.538,1.008,2.538,3.06,0,1.944-.864,2.916-2.52,2.916-1.692,0-2.52-1.008-2.52-3.006S18.216-7.452,19.89-7.452Z" transform="translate(-4134.5 -8302.962)"/>
      <path id="Caminho_773643" data-name="Caminho 773643" d="M10.01-1.452l.11-1.584-.132-.2H8.008l.066-7.788H6.006L.528-3.1V-1.65l.154.2L2.332-1.5H6.2L6.138,1.98l.132.154L7.986,2l.132-.176L8.03-1.5ZM2.486-3.234,6.05-8.4h.176v5.17ZM16.72-11.176c-3.168,0-4.994,2.134-4.994,5.852,0,3.5,1.716,5.5,4.708,5.5,3.168,0,4.95-2.112,4.95-5.808C21.384-9.174,19.69-11.176,16.72-11.176Zm-.176,2.068c2.024,0,3.1,1.232,3.1,3.74,0,2.376-1.056,3.564-3.08,3.564-2.068,0-3.08-1.232-3.08-3.674S14.5-9.108,16.544-9.108ZM28.27-11.176c-3.168,0-4.994,2.134-4.994,5.852,0,3.5,1.716,5.5,4.708,5.5,3.168,0,4.95-2.112,4.95-5.808C32.934-9.174,31.24-11.176,28.27-11.176Zm-.176,2.068c2.024,0,3.1,1.232,3.1,3.74,0,2.376-1.056,3.564-3.08,3.564-2.068,0-3.08-1.232-3.08-3.674S26.048-9.108,28.094-9.108Z" transform="translate(-4066.5 -8302.962)" fill="#2f2e33"/>
      <path id="Caminho_773640" data-name="Caminho 773640" d="M3.528-9.126A4.854,4.854,0,0,0,.5-8.028l.27,1.386h.2a3.494,3.494,0,0,1,2.2-.99A1.249,1.249,0,0,1,4.59-6.372a1.982,1.982,0,0,1-2,1.818L1.8-4.536l-.054,1.26.108.126H2.988c1.332.054,2.034.63,2.034,1.62,0,1.152-.954,1.854-2.43,1.854a4.835,4.835,0,0,1-1.908-.4L.558.054l.09,1.512A12.458,12.458,0,0,0,2.5,1.728c2.556,0,4.266-1.368,4.266-3.4A2.394,2.394,0,0,0,4.68-4.05v-.072A3.028,3.028,0,0,0,6.444-6.768C6.444-8.172,5.274-9.126,3.528-9.126Z" transform="translate(-4429.919 -8497.456)"/>
      <path id="Caminho_773641" data-name="Caminho 773641" d="M8.19-1.188l.09-1.3-.108-.162H6.552l.054-6.372H4.914L.432-2.538V-1.35l.126.162,1.35-.036H5.076L5.022,1.62l.108.126,1.4-.108.108-.144L6.57-1.224ZM2.034-2.646,4.95-6.876h.144v4.23Z" transform="translate(-4279.5 -8542.456)"/>
      <path id="Caminho_773642" data-name="Caminho 773642" d="M8.19-1.188l.09-1.3-.108-.162H6.552l.054-6.372H4.914L.432-2.538V-1.35l.126.162,1.35-.036H5.076L5.022,1.62l.108.126,1.4-.108.108-.144L6.57-1.224ZM2.034-2.646,4.95-6.876h.144v4.23Zm9.2.738a4.591,4.591,0,0,0-1.314.594v.162a1.136,1.136,0,0,1,.558.954,2.186,2.186,0,0,1-.99,1.656L9.5,1.6l.594.54c1.278-.918,1.908-1.8,1.908-2.7A1.628,1.628,0,0,0,11.232-1.908ZM19.89-8.982l-.108-.126-1.764.09h-2.5l-.99-.054-.252.252-.09,4.86.144.162,1.6.306c1.512.27,2.106.828,2.106,1.782C18.036-.5,17.1.324,15.606.324a4.99,4.99,0,0,1-2.052-.45L13.41.018l.126,1.548a10.218,10.218,0,0,0,1.818.2c2.592,0,4.41-1.53,4.41-3.762,0-1.422-.756-2.376-3.024-2.844l-1.116-.234.054-2.466H18.09l1.476.126.126-.126Z" transform="translate(-4140 -8565.456)"/>
    </g>
  </g>
</svg>
