<svg xmlns="http://www.w3.org/2000/svg" width="570.334" height="302.426" viewBox="0 0 570.334 302.426">
  <g id="_img_Grafico_4-mob_" data-name="&lt;img Grafico_4-mob&gt;" transform="translate(4405.888 10839.676)">
    <path id="Caminho_773532" data-name="Caminho 773532" d="M5.922,4.3c-3.4,0-5.31,2.16-5.31,6.03,0,3.708,1.782,5.832,4.968,5.832,3.384,0,5.31-2.232,5.31-6.174C10.89,6.352,9.108,4.3,5.922,4.3ZM5.76,5.83c2.178,0,3.2,1.368,3.2,4.5,0,2.988-1.062,4.338-3.24,4.338s-3.2-1.4-3.2-4.572C2.52,7.162,3.564,5.83,5.76,5.83Zm9.522,1.728c-1.908,0-3.024,1.08-3.024,2.5,0,2.61,3.726,2.268,3.726,3.8a1.151,1.151,0,0,1-1.278,1.062,3.8,3.8,0,0,1-2.3-.972l-.2.126-.216,1.53a6.518,6.518,0,0,0,2.52.558c2.07,0,3.114-1.278,3.114-2.61,0-2.538-3.726-2.214-3.726-3.726a1.051,1.051,0,0,1,1.17-.99,3.357,3.357,0,0,1,1.836.63l.234-.054.252-1.44A5.7,5.7,0,0,0,15.282,7.558ZM25.416,7.54a5.768,5.768,0,0,0-3.24,1.08L22.41,9.9l.144.09a4.1,4.1,0,0,1,2.574-1.152,1.185,1.185,0,0,1,1.3,1.35l-.018.972-2.844.63a1.918,1.918,0,0,0-1.746,2c0,1.44.99,2.34,2.664,2.358a5.271,5.271,0,0,0,1.872-1.35h.126a1.4,1.4,0,0,0,1.314,1.332,2.933,2.933,0,0,0,1.134-.4l.18-1.008-.162-.126a2.753,2.753,0,0,1-.54.072c-.378,0-.522-.144-.522-.612,0-.612.216-3.636.216-4.266C28.1,8.368,27.054,7.54,25.416,7.54Zm.99,4.68-.054,1.386a2.542,2.542,0,0,1-1.8,1.1,1.037,1.037,0,0,1-1.1-1.152.664.664,0,0,1,.612-.774ZM35.946,16H37.8l-.09-3.636.054-2.34c.018-1.548-.936-2.43-2.79-2.43A6.121,6.121,0,0,0,32.76,8.872h-.126l.018-1.206-1.746.162.09,4.7L30.888,16h1.836l-.108-3.636.018-2.2a3.229,3.229,0,0,1,2.16-1.08c.864,0,1.3.558,1.278,1.458Zm7.56-8.46c-2.484,0-3.87,1.6-3.87,4.446,0,2.664,1.314,4.176,3.636,4.176,2.484,0,3.87-1.6,3.87-4.446C47.142,9.052,45.828,7.54,43.506,7.54ZM43.4,8.818c1.35,0,2.034,1.044,2.034,3.312,0,1.89-.684,2.772-2.034,2.772-1.368,0-2.052-1.026-2.052-3.312C41.346,9.736,42.03,8.818,43.4,8.818Zm8.208-1.26c-1.908,0-3.024,1.08-3.024,2.5,0,2.61,3.726,2.268,3.726,3.8A1.151,1.151,0,0,1,51.03,14.92a3.8,3.8,0,0,1-2.3-.972l-.2.126-.216,1.53a6.518,6.518,0,0,0,2.52.558c2.07,0,3.114-1.278,3.114-2.61,0-2.538-3.726-2.214-3.726-3.726a1.051,1.051,0,0,1,1.17-.99,3.357,3.357,0,0,1,1.836.63l.234-.054.252-1.44A5.7,5.7,0,0,0,51.606,7.558Zm8.118-.576L57.942,6.91l-.126,1.566.108.18,1.494-.162h3.456L58.86,17.116l.108.306,1.476.4.882-2.358L64.6,8.3l-.018-1.35-.81.036Zm10.242-.126c-2.592,0-4.086,1.746-4.086,4.788,0,2.862,1.4,4.5,3.852,4.5,2.592,0,4.05-1.728,4.05-4.752C73.782,8.494,72.4,6.856,69.966,6.856Zm-.144,1.692c1.656,0,2.538,1.008,2.538,3.06,0,1.944-.864,2.916-2.52,2.916-1.692,0-2.52-1.008-2.52-3.006S68.148,8.548,69.822,8.548ZM81.7,7.54a5.768,5.768,0,0,0-3.24,1.08L78.7,9.9l.144.09a4.1,4.1,0,0,1,2.574-1.152,1.185,1.185,0,0,1,1.3,1.35l-.018.972-2.844.63a1.918,1.918,0,0,0-1.746,2c0,1.44.99,2.34,2.664,2.358a5.271,5.271,0,0,0,1.872-1.35h.126a1.4,1.4,0,0,0,1.314,1.332,2.933,2.933,0,0,0,1.134-.4l.18-1.008L85.23,14.6a2.753,2.753,0,0,1-.54.072c-.378,0-.522-.144-.522-.612,0-.612.216-3.636.216-4.266C84.384,8.368,83.34,7.54,81.7,7.54Zm.99,4.68-.054,1.386a2.542,2.542,0,0,1-1.8,1.1,1.037,1.037,0,0,1-1.1-1.152.664.664,0,0,1,.612-.774Zm8.514-4.608a5.424,5.424,0,0,0-2.16,1.242H88.92l.018-1.188-1.764.162.108,4.7-.108,6.8h1.818l-.054-3.312a7.745,7.745,0,0,0,1.4.144c2.574,0,4.086-1.62,4.086-4.554C94.428,9.106,93.33,7.612,91.206,7.612Zm-.72,7.29a3.479,3.479,0,0,1-1.566-.4l-.036-2.142.018-2.2a2.859,2.859,0,0,1,2-1.08c1.152,0,1.782,1.008,1.8,2.754C92.736,13.948,91.836,14.9,90.486,14.9Zm10.008-7.218a2.655,2.655,0,0,0-2.268,1.638H98.1l.018-1.656-1.746.162.108,4.7L96.354,16H98.19l-.126-3.636.018-1.188c.63-1.242,1.26-1.746,2-1.746a2.519,2.519,0,0,1,.666.09l.2-.054V7.72A3.507,3.507,0,0,0,100.494,7.684Zm7.7,4.248.306-.288a7.013,7.013,0,0,0,.072-.9,2.847,2.847,0,0,0-3.024-3.186c-2.412,0-3.978,1.638-3.978,4.338,0,2.628,1.44,4.266,3.924,4.266a5.842,5.842,0,0,0,2.52-.612l.216-1.458-.162-.108a4.941,4.941,0,0,1-2.43.756c-1.584,0-2.34-1.026-2.376-2.808Zm-1.3-1.206-3.546.09a2.11,2.11,0,0,1,2.088-2c.9,0,1.494.522,1.494,1.692Zm6.066-3.168c-1.908,0-3.024,1.08-3.024,2.5,0,2.61,3.726,2.268,3.726,3.8a1.151,1.151,0,0,1-1.278,1.062,3.8,3.8,0,0,1-2.3-.972l-.2.126-.216,1.53a6.518,6.518,0,0,0,2.52.558c2.07,0,3.114-1.278,3.114-2.61,0-2.538-3.726-2.214-3.726-3.726a1.051,1.051,0,0,1,1.17-.99,3.357,3.357,0,0,1,1.836.63l.234-.054.252-1.44A5.7,5.7,0,0,0,112.968,7.558Zm10.278,4.374.306-.288a7.013,7.013,0,0,0,.072-.9A2.847,2.847,0,0,0,120.6,7.558c-2.412,0-3.978,1.638-3.978,4.338,0,2.628,1.44,4.266,3.924,4.266a5.842,5.842,0,0,0,2.52-.612l.216-1.458-.162-.108a4.941,4.941,0,0,1-2.43.756c-1.584,0-2.34-1.026-2.376-2.808Zm-1.3-1.206-3.546.09a2.11,2.11,0,0,1,2.088-2c.9,0,1.494.522,1.494,1.692ZM130.572,16h1.854l-.09-3.636.054-2.34c.018-1.548-.936-2.43-2.79-2.43a6.121,6.121,0,0,0-2.214,1.278h-.126l.018-1.206-1.746.162.09,4.7L125.514,16h1.836l-.108-3.636.018-2.2a3.229,3.229,0,0,1,2.16-1.08c.864,0,1.3.558,1.278,1.458Zm7.236-1.386c-.738,0-1.062-.288-1.044-1.188l.09-4.518h2.322l.09-1.044-.072-.126h-2.3l.036-1.782-.162-.144-1.62.612V7.738h-1.1l-.09,1.062.072.108h1.134l.018,3.51-.072,1.3a2.148,2.148,0,0,0,2.124,2.394,5.2,5.2,0,0,0,1.836-.54l.18-1.152-.18-.126A2.838,2.838,0,0,1,137.808,14.614Zm5.94-7.074a5.768,5.768,0,0,0-3.24,1.08l.234,1.278.144.09a4.1,4.1,0,0,1,2.574-1.152,1.185,1.185,0,0,1,1.3,1.35l-.018.972-2.844.63a1.918,1.918,0,0,0-1.746,2c0,1.44.99,2.34,2.664,2.358a5.271,5.271,0,0,0,1.872-1.35h.126a1.4,1.4,0,0,0,1.314,1.332,2.933,2.933,0,0,0,1.134-.4l.18-1.008-.162-.126a2.753,2.753,0,0,1-.54.072c-.378,0-.522-.144-.522-.612,0-.612.216-3.636.216-4.266C146.43,8.368,145.386,7.54,143.748,7.54Zm.99,4.68-.054,1.386a2.542,2.542,0,0,1-1.8,1.1,1.037,1.037,0,0,1-1.1-1.152.664.664,0,0,1,.612-.774ZM159.354,16h1.854l-.09-3.636.054-2.34c.018-1.548-.936-2.43-2.79-2.43a6.528,6.528,0,0,0-2.376,1.35H155.9a2.527,2.527,0,0,0-2.592-1.35,5.977,5.977,0,0,0-2.214,1.278h-.126l.018-1.206-1.746.162.09,4.7L149.22,16h1.818l-.09-3.636.018-2.2a3.229,3.229,0,0,1,2.16-1.08c.864,0,1.3.558,1.278,1.458L154.278,16h1.836l-.072-3.636.036-2.232A3.174,3.174,0,0,1,158.2,9.088c.864,0,1.3.558,1.278,1.458ZM169.74,7.54c-2.484,0-3.87,1.6-3.87,4.446,0,2.664,1.314,4.176,3.636,4.176,2.484,0,3.87-1.6,3.87-4.446C173.376,9.052,172.062,7.54,169.74,7.54Zm-.108,1.278c1.35,0,2.034,1.044,2.034,3.312,0,1.89-.684,2.772-2.034,2.772-1.368,0-2.052-1.026-2.052-3.312C167.58,9.736,168.264,8.818,169.632,8.818ZM188.352,16h1.854l-.09-3.636.054-2.34c.018-1.548-.936-2.43-2.79-2.43A6.528,6.528,0,0,0,185,8.944H184.9a2.527,2.527,0,0,0-2.592-1.35,5.977,5.977,0,0,0-2.214,1.278h-.126l.018-1.206-1.746.162.09,4.7L178.218,16h1.818l-.09-3.636.018-2.2a3.229,3.229,0,0,1,2.16-1.08c.864,0,1.3.558,1.278,1.458L183.276,16h1.836l-.072-3.636.036-2.232A3.174,3.174,0,0,1,187.2,9.088c.864,0,1.3.558,1.278,1.458Zm7.236-8.46a5.768,5.768,0,0,0-3.24,1.08l.234,1.278.144.09A4.1,4.1,0,0,1,195.3,8.836a1.185,1.185,0,0,1,1.3,1.35l-.018.972-2.844.63a1.918,1.918,0,0,0-1.746,2c0,1.44.99,2.34,2.664,2.358a5.271,5.271,0,0,0,1.872-1.35h.126a1.4,1.4,0,0,0,1.314,1.332,2.933,2.933,0,0,0,1.134-.4l.18-1.008-.162-.126a2.753,2.753,0,0,1-.54.072c-.378,0-.522-.144-.522-.612,0-.612.216-3.636.216-4.266C198.27,8.368,197.226,7.54,195.588,7.54Zm.99,4.68-.054,1.386a2.542,2.542,0,0,1-1.8,1.1,1.037,1.037,0,0,1-1.1-1.152.664.664,0,0,1,.612-.774Zm5.472-8.388a.973.973,0,0,0-1.044,1.044A.914.914,0,0,0,202,5.884.97.97,0,0,0,203,4.822.89.89,0,0,0,202.05,3.832Zm.72,8.532.144-4.7-1.836.162.09,4.7L201.06,16H202.9Zm5.958-4.824c-2.484,0-3.87,1.6-3.87,4.446,0,2.664,1.314,4.176,3.636,4.176,2.484,0,3.87-1.6,3.87-4.446C212.364,9.052,211.05,7.54,208.728,7.54Zm-.108,1.278c1.35,0,2.034,1.044,2.034,3.312,0,1.89-.684,2.772-2.034,2.772-1.368,0-2.052-1.026-2.052-3.312C206.568,9.736,207.252,8.818,208.62,8.818Zm9.846-1.134A2.655,2.655,0,0,0,216.2,9.322h-.126l.018-1.656-1.746.162.108,4.7L214.326,16h1.836l-.126-3.636.018-1.188c.63-1.242,1.26-1.746,2-1.746a2.519,2.519,0,0,1,.666.09l.2-.054V7.72A3.506,3.506,0,0,0,218.466,7.684Zm5.688,1.188-.234-1.224-1.692.09L224.694,16h1.98l2.934-8.3h-1.62l-.306,1.26-1.836,5.274h-.126Zm9.81-1.332c-2.484,0-3.87,1.6-3.87,4.446,0,2.664,1.314,4.176,3.636,4.176,2.484,0,3.87-1.6,3.87-4.446C237.6,9.052,236.286,7.54,233.964,7.54Zm-.108,1.278c1.35,0,2.034,1.044,2.034,3.312,0,1.89-.684,2.772-2.034,2.772-1.368,0-2.052-1.026-2.052-3.312C231.8,9.736,232.488,8.818,233.856,8.818Zm7.506,3.528.144-8.982-1.836.144.108,9L239.652,16h1.836Zm9.36-4.68-1.746.162v5.85a2.951,2.951,0,0,1-1.962.918c-.846,0-1.26-.54-1.242-1.422l.09-5.508-1.818.162.072,3.6-.036,2.25c-.018,1.548.954,2.43,2.772,2.43a5.411,5.411,0,0,0,2.16-1.26h.144a1.441,1.441,0,0,0,1.332,1.278,2.832,2.832,0,0,0,1.134-.4l.18-1.008-.162-.126a2.6,2.6,0,0,1-.558.072c-.36,0-.486-.144-.486-.594ZM263.538,16h1.854l-.09-3.636.054-2.34c.018-1.548-.936-2.43-2.79-2.43a6.527,6.527,0,0,0-2.376,1.35h-.108a2.527,2.527,0,0,0-2.592-1.35,5.977,5.977,0,0,0-2.214,1.278h-.126l.018-1.206-1.746.162.09,4.7L253.4,16h1.818l-.09-3.636.018-2.2a3.229,3.229,0,0,1,2.16-1.08c.864,0,1.3.558,1.278,1.458L258.462,16H260.3l-.072-3.636.036-2.232a3.174,3.174,0,0,1,2.124-1.044c.864,0,1.3.558,1.278,1.458Zm10.26-4.068.306-.288a7.017,7.017,0,0,0,.072-.9,2.847,2.847,0,0,0-3.024-3.186c-2.412,0-3.978,1.638-3.978,4.338,0,2.628,1.44,4.266,3.924,4.266a5.842,5.842,0,0,0,2.52-.612l.216-1.458-.162-.108a4.941,4.941,0,0,1-2.43.756c-1.584,0-2.34-1.026-2.376-2.808Zm-1.3-1.206-3.546.09a2.11,2.11,0,0,1,2.088-2c.9,0,1.494.522,1.494,1.692ZM7.776,38.346l.144-8.982-1.836.144L6.12,33.7a7.586,7.586,0,0,0-1.4-.144c-2.538,0-4.086,1.548-4.086,4.32,0,2.664,1.314,4.23,3.726,4.23a7.351,7.351,0,0,0,1.872-1.242h.144A1.425,1.425,0,0,0,7.7,42.126a2.917,2.917,0,0,0,1.152-.4l.162-1.008L8.856,40.6a2.6,2.6,0,0,1-.558.072c-.342,0-.45-.144-.468-.594Zm-3.24-3.528a3.717,3.717,0,0,1,1.6.414l.054,3.276-.036,1.17a2.3,2.3,0,0,1-1.764.936c-1.26,0-2.016-1.026-2.034-2.952C2.322,35.736,3.186,34.818,4.536,34.818ZM16.65,37.932l.306-.288a7.013,7.013,0,0,0,.072-.9A2.847,2.847,0,0,0,14,33.558c-2.412,0-3.978,1.638-3.978,4.338,0,2.628,1.44,4.266,3.924,4.266a5.842,5.842,0,0,0,2.52-.612l.216-1.458-.162-.108a4.941,4.941,0,0,1-2.43.756c-1.584,0-2.34-1.026-2.376-2.808Zm-1.3-1.206-3.546.09a2.11,2.11,0,0,1,2.088-2c.9,0,1.494.522,1.494,1.692Zm7.416-1.854-.234-1.224-1.692.09L23.31,42h1.98l2.934-8.3H26.6l-.306,1.26-1.836,5.274h-.126Zm12.564,3.06.306-.288a7.013,7.013,0,0,0,.072-.9,2.847,2.847,0,0,0-3.024-3.186c-2.412,0-3.978,1.638-3.978,4.338,0,2.628,1.44,4.266,3.924,4.266a5.842,5.842,0,0,0,2.52-.612l.216-1.458-.162-.108a4.941,4.941,0,0,1-2.43.756c-1.584,0-2.34-1.026-2.376-2.808Zm-1.3-1.206-3.546.09a2.11,2.11,0,0,1,2.088-2c.9,0,1.494.522,1.494,1.692ZM42.66,42h1.854l-.09-3.636.054-2.34c.018-1.548-.936-2.43-2.79-2.43a6.121,6.121,0,0,0-2.214,1.278h-.126l.018-1.206-1.746.162.09,4.7L37.6,42h1.836l-.108-3.636.018-2.2a3.229,3.229,0,0,1,2.16-1.08c.864,0,1.3.558,1.278,1.458Zm10.8-3.654.144-8.982-1.836.144L51.8,33.7a7.586,7.586,0,0,0-1.4-.144c-2.538,0-4.086,1.548-4.086,4.32,0,2.664,1.314,4.23,3.726,4.23a7.351,7.351,0,0,0,1.872-1.242h.144a1.425,1.425,0,0,0,1.332,1.26,2.917,2.917,0,0,0,1.152-.4l.162-1.008L54.54,40.6a2.6,2.6,0,0,1-.558.072c-.342,0-.45-.144-.468-.594Zm-3.24-3.528a3.717,3.717,0,0,1,1.6.414l.054,3.276-.036,1.17a2.3,2.3,0,0,1-1.764.936c-1.26,0-2.016-1.026-2.034-2.952C48.006,35.736,48.87,34.818,50.22,34.818Zm9.09-1.278a5.768,5.768,0,0,0-3.24,1.08L56.3,35.9l.144.09a4.1,4.1,0,0,1,2.574-1.152,1.185,1.185,0,0,1,1.3,1.35l-.018.972-2.844.63a1.918,1.918,0,0,0-1.746,2c0,1.44.99,2.34,2.664,2.358a5.271,5.271,0,0,0,1.872-1.35h.126a1.4,1.4,0,0,0,1.314,1.332,2.933,2.933,0,0,0,1.134-.4L63,40.722l-.162-.126a2.753,2.753,0,0,1-.54.072c-.378,0-.522-.144-.522-.612,0-.612.216-3.636.216-4.266C61.992,34.368,60.948,33.54,59.31,33.54Zm.99,4.68-.054,1.386a2.542,2.542,0,0,1-1.8,1.1,1.037,1.037,0,0,1-1.1-1.152.664.664,0,0,1,.612-.774Zm6.984-4.662c-1.908,0-3.024,1.08-3.024,2.5,0,2.61,3.726,2.268,3.726,3.8a1.151,1.151,0,0,1-1.278,1.062,3.8,3.8,0,0,1-2.3-.972l-.2.126L63.99,41.6a6.518,6.518,0,0,0,2.52.558c2.07,0,3.114-1.278,3.114-2.61,0-2.538-3.726-2.214-3.726-3.726a1.051,1.051,0,0,1,1.17-.99,3.357,3.357,0,0,1,1.836.63l.234-.054.252-1.44A5.7,5.7,0,0,0,67.284,33.558Zm13.644,4.788.144-8.982-1.836.144.036,4.194a7.587,7.587,0,0,0-1.4-.144c-2.538,0-4.086,1.548-4.086,4.32,0,2.664,1.314,4.23,3.726,4.23a7.351,7.351,0,0,0,1.872-1.242h.144a1.425,1.425,0,0,0,1.332,1.26,2.917,2.917,0,0,0,1.152-.4l.162-1.008-.162-.126a2.6,2.6,0,0,1-.558.072c-.342,0-.45-.144-.468-.594Zm-3.24-3.528a3.717,3.717,0,0,1,1.6.414l.054,3.276-.036,1.17a2.3,2.3,0,0,1-1.764.936c-1.26,0-2.016-1.026-2.034-2.952C75.474,35.736,76.338,34.818,77.688,34.818ZM89.8,37.932l.306-.288a7.013,7.013,0,0,0,.072-.9,2.847,2.847,0,0,0-3.024-3.186c-2.412,0-3.978,1.638-3.978,4.338,0,2.628,1.44,4.266,3.924,4.266a5.842,5.842,0,0,0,2.52-.612l.216-1.458-.162-.108a4.941,4.941,0,0,1-2.43.756c-1.584,0-2.34-1.026-2.376-2.808Zm-1.3-1.206-3.546.09a2.11,2.11,0,0,1,2.088-2c.9,0,1.494.522,1.494,1.692Zm6.066-3.168c-1.908,0-3.024,1.08-3.024,2.5,0,2.61,3.726,2.268,3.726,3.8A1.151,1.151,0,0,1,94,40.92a3.8,3.8,0,0,1-2.3-.972l-.2.126-.216,1.53a6.518,6.518,0,0,0,2.52.558c2.07,0,3.114-1.278,3.114-2.61,0-2.538-3.726-2.214-3.726-3.726a1.051,1.051,0,0,1,1.17-.99,3.357,3.357,0,0,1,1.836.63l.234-.054.252-1.44A5.7,5.7,0,0,0,94.572,33.558Zm10.764,4.788.144-8.982-1.836.144.036,4.194a7.587,7.587,0,0,0-1.4-.144c-2.538,0-4.086,1.548-4.086,4.32,0,2.664,1.314,4.23,3.726,4.23a7.351,7.351,0,0,0,1.872-1.242h.144a1.425,1.425,0,0,0,1.332,1.26,2.917,2.917,0,0,0,1.152-.4l.162-1.008-.162-.126a2.6,2.6,0,0,1-.558.072c-.342,0-.45-.144-.468-.594Zm-3.24-3.528a3.717,3.717,0,0,1,1.6.414l.054,3.276-.036,1.17a2.3,2.3,0,0,1-1.764.936c-1.26,0-2.016-1.026-2.034-2.952C99.882,35.736,100.746,34.818,102.1,34.818Zm12.114,3.114.306-.288a7.013,7.013,0,0,0,.072-.9,2.847,2.847,0,0,0-3.024-3.186c-2.412,0-3.978,1.638-3.978,4.338,0,2.628,1.44,4.266,3.924,4.266a5.842,5.842,0,0,0,2.52-.612l.216-1.458-.162-.108a4.941,4.941,0,0,1-2.43.756c-1.584,0-2.34-1.026-2.376-2.808Zm-1.3-1.206-3.546.09a2.11,2.11,0,0,1,2.088-2c.9,0,1.494.522,1.494,1.692Zm9.7-3.186c-2.484,0-3.87,1.6-3.87,4.446,0,2.664,1.314,4.176,3.636,4.176,2.484,0,3.87-1.6,3.87-4.446C126.252,35.052,124.938,33.54,122.616,33.54Zm-.108,1.278c1.35,0,2.034,1.044,2.034,3.312,0,1.89-.684,2.772-2.034,2.772-1.368,0-2.052-1.026-2.052-3.312C120.456,35.736,121.14,34.818,122.508,34.818Zm9.576-4.986a.973.973,0,0,0-1.044,1.044.914.914,0,0,0,.99,1.008.97.97,0,0,0,1.008-1.062A.89.89,0,0,0,132.084,29.832Zm.72,8.532.144-4.7-1.836.162.09,4.7L131.094,42h1.836ZM140.562,42h1.854l-.09-3.636.054-2.34c.018-1.548-.936-2.43-2.79-2.43a6.121,6.121,0,0,0-2.214,1.278h-.126l.018-1.206-1.746.162.09,4.7L135.5,42h1.836l-.108-3.636.018-2.2a3.229,3.229,0,0,1,2.16-1.08c.864,0,1.3.558,1.278,1.458Zm7.02-12.726-.18-.018c-1.044.99-2.016,1.8-3.078,2.664l.468.72.18.018c1.08-.7,2.124-1.4,3.258-2.232l.036-.18Zm-1.008,9.09.144-4.7-1.836.162.09,4.7L144.864,42H146.7Zm5.886-4.824c-2.376,0-3.8,1.674-3.8,4.392,0,2.628,1.332,4.23,3.582,4.23a6.427,6.427,0,0,0,2.2-.414l.18-1.476-.162-.108a4.329,4.329,0,0,1-1.926.54c-1.368,0-2.142-1.08-2.142-2.916,0-1.746.756-2.736,2.034-2.736a3.568,3.568,0,0,1,1.764.558l.18-.072.306-1.53A5.4,5.4,0,0,0,152.46,33.54Zm4.734-3.708a.973.973,0,0,0-1.044,1.044.914.914,0,0,0,.99,1.008.97.97,0,0,0,1.008-1.062A.89.89,0,0,0,157.194,29.832Zm.72,8.532.144-4.7-1.836.162.09,4.7L156.2,42h1.836Zm5.958-4.824c-2.484,0-3.87,1.6-3.87,4.446,0,2.664,1.314,4.176,3.636,4.176,2.484,0,3.87-1.6,3.87-4.446C167.508,35.052,166.194,33.54,163.872,33.54Zm-.108,1.278c1.35,0,2.034,1.044,2.034,3.312,0,1.89-.684,2.772-2.034,2.772-1.368,0-2.052-1.026-2.052-3.312C161.712,35.736,162.4,34.818,163.764,34.818Zm15.084,3.528.144-8.982-1.836.144.036,4.194a7.586,7.586,0,0,0-1.4-.144c-2.538,0-4.086,1.548-4.086,4.32,0,2.664,1.314,4.23,3.726,4.23a7.351,7.351,0,0,0,1.872-1.242h.144a1.425,1.425,0,0,0,1.332,1.26,2.917,2.917,0,0,0,1.152-.4l.162-1.008-.162-.126a2.6,2.6,0,0,1-.558.072c-.342,0-.45-.144-.468-.594Zm-3.24-3.528a3.717,3.717,0,0,1,1.6.414l.054,3.276-.036,1.17a2.3,2.3,0,0,1-1.764.936c-1.26,0-2.016-1.026-2.034-2.952C173.394,35.736,174.258,34.818,175.608,34.818Zm9.09-1.278a5.768,5.768,0,0,0-3.24,1.08l.234,1.278.144.09a4.1,4.1,0,0,1,2.574-1.152,1.185,1.185,0,0,1,1.3,1.35l-.018.972-2.844.63a1.918,1.918,0,0,0-1.746,2c0,1.44.99,2.34,2.664,2.358a5.271,5.271,0,0,0,1.872-1.35h.126a1.4,1.4,0,0,0,1.314,1.332,2.933,2.933,0,0,0,1.134-.4l.18-1.008-.162-.126a2.753,2.753,0,0,1-.54.072c-.378,0-.522-.144-.522-.612,0-.612.216-3.636.216-4.266C187.38,34.368,186.336,33.54,184.7,33.54Zm.99,4.68-.054,1.386a2.542,2.542,0,0,1-1.8,1.1,1.037,1.037,0,0,1-1.1-1.152.664.664,0,0,1,.612-.774Zm13.374-.288.306-.288a7.011,7.011,0,0,0,.072-.9,2.847,2.847,0,0,0-3.024-3.186c-2.412,0-3.978,1.638-3.978,4.338,0,2.628,1.44,4.266,3.924,4.266a5.842,5.842,0,0,0,2.52-.612l.216-1.458-.162-.108a4.941,4.941,0,0,1-2.43.756c-1.584,0-2.34-1.026-2.376-2.808Zm-1.3-1.206-3.546.09a2.11,2.11,0,0,1,2.088-2c.9,0,1.494.522,1.494,1.692ZM211.464,42h1.854l-.09-3.636.054-2.34c.018-1.548-.936-2.43-2.79-2.43a6.528,6.528,0,0,0-2.376,1.35h-.108a2.527,2.527,0,0,0-2.592-1.35,5.977,5.977,0,0,0-2.214,1.278h-.126l.018-1.206-1.746.162.09,4.7L201.33,42h1.818l-.09-3.636.018-2.2a3.229,3.229,0,0,1,2.16-1.08c.864,0,1.3.558,1.278,1.458L206.388,42h1.836l-.072-3.636.036-2.232a3.174,3.174,0,0,1,2.124-1.044c.864,0,1.3.558,1.278,1.458Zm8.28-8.388a5.424,5.424,0,0,0-2.16,1.242h-.126l.018-1.188-1.764.162.108,4.7-.108,6.8h1.818l-.054-3.312a7.745,7.745,0,0,0,1.4.144c2.574,0,4.086-1.62,4.086-4.554C222.966,35.106,221.868,33.612,219.744,33.612Zm-.72,7.29a3.479,3.479,0,0,1-1.566-.4l-.036-2.142.018-2.2a2.859,2.859,0,0,1,2-1.08c1.152,0,1.782,1.008,1.8,2.754C221.274,39.948,220.374,40.9,219.024,40.9Zm10.008-7.218a2.655,2.655,0,0,0-2.268,1.638h-.126l.018-1.656-1.746.162.108,4.7L224.892,42h1.836l-.126-3.636.018-1.188c.63-1.242,1.26-1.746,2-1.746a2.519,2.519,0,0,1,.666.09l.2-.054V33.72A3.506,3.506,0,0,0,229.032,33.684Zm7.7,4.248.306-.288a7.011,7.011,0,0,0,.072-.9,2.847,2.847,0,0,0-3.024-3.186c-2.412,0-3.978,1.638-3.978,4.338,0,2.628,1.44,4.266,3.924,4.266a5.842,5.842,0,0,0,2.52-.612l.216-1.458-.162-.108a4.941,4.941,0,0,1-2.43.756c-1.584,0-2.34-1.026-2.376-2.808Zm-1.3-1.206-3.546.09a2.11,2.11,0,0,1,2.088-2c.9,0,1.494.522,1.494,1.692Zm6.066-3.168c-1.908,0-3.024,1.08-3.024,2.5,0,2.61,3.726,2.268,3.726,3.8a1.151,1.151,0,0,1-1.278,1.062,3.8,3.8,0,0,1-2.3-.972l-.2.126-.216,1.53a6.518,6.518,0,0,0,2.52.558c2.07,0,3.114-1.278,3.114-2.61,0-2.538-3.726-2.214-3.726-3.726a1.051,1.051,0,0,1,1.17-.99,3.357,3.357,0,0,1,1.836.63l.234-.054.252-1.44A5.7,5.7,0,0,0,241.506,33.558Zm7.254-.018a5.768,5.768,0,0,0-3.24,1.08l.234,1.278.144.09a4.1,4.1,0,0,1,2.574-1.152,1.185,1.185,0,0,1,1.3,1.35l-.018.972-2.844.63a1.918,1.918,0,0,0-1.746,2c0,1.44.99,2.34,2.664,2.358a5.271,5.271,0,0,0,1.872-1.35h.126a1.4,1.4,0,0,0,1.314,1.332,2.933,2.933,0,0,0,1.134-.4l.18-1.008-.162-.126a2.753,2.753,0,0,1-.54.072c-.378,0-.522-.144-.522-.612,0-.612.216-3.636.216-4.266C251.442,34.368,250.4,33.54,248.76,33.54Zm.99,4.68-.054,1.386a2.542,2.542,0,0,1-1.8,1.1,1.037,1.037,0,0,1-1.1-1.152.664.664,0,0,1,.612-.774Z" transform="translate(-4406.5 -10807.494)"/>
    <rect id="Retângulo_124930" data-name="Retângulo 124930" width="27" height="65.309" transform="translate(-4095 -10705.496) rotate(90)" fill="#40bbff"/>
    <rect id="Retângulo_124931" data-name="Retângulo 124931" width="27" height="236.809" transform="translate(-3923.5 -10651.496) rotate(90)" fill="#0024a9"/>
    <rect id="Retângulo_124932" data-name="Retângulo 124932" width="27" height="106.309" transform="translate(-4054 -10597.496) rotate(90)" fill="#40bbff"/>
    <line id="Linha_1894" data-name="Linha 1894" y2="162.851" transform="translate(-4160.309 -10720.496)" fill="none" stroke="#40bbff" stroke-miterlimit="10" stroke-width="2" opacity="0.5"/>
    <path id="Caminho_773536" data-name="Caminho 773536" d="M4.32-8.91l-.27-.2L.18-7.974v1.458l.162.108,2.2-.612.018,3.492L2.448,0H4.3l-.09-3.726Zm6.858-.234c-2.592,0-4.086,1.746-4.086,4.788,0,2.862,1.4,4.5,3.852,4.5,2.592,0,4.05-1.728,4.05-4.752C14.994-7.506,13.608-9.144,11.178-9.144Zm-.144,1.692c1.656,0,2.538,1.008,2.538,3.06,0,1.944-.864,2.916-2.52,2.916-1.692,0-2.52-1.008-2.52-3.006S9.36-7.452,11.034-7.452Zm9.594-1.692c-2.592,0-4.086,1.746-4.086,4.788,0,2.862,1.4,4.5,3.852,4.5,2.592,0,4.05-1.728,4.05-4.752C24.444-7.506,23.058-9.144,20.628-9.144Zm-.144,1.692c1.656,0,2.538,1.008,2.538,3.06,0,1.944-.864,2.916-2.52,2.916-1.692,0-2.52-1.008-2.52-3.006S18.81-7.452,20.484-7.452Z" transform="translate(-4086.5 -10684.996)"/>
    <path id="Caminho_773533" data-name="Caminho 773533" d="M5.886-11.682C2.538-11.682.612-9.522.612-5.67.612-1.944,2.43.144,5.67.144A6.691,6.691,0,0,0,8.73-.612L8.874-2.3l-.18-.108a4.847,4.847,0,0,1-2.88.99c-2.07,0-3.258-1.512-3.258-4.446,0-2.844,1.152-4.266,3.258-4.266A4.278,4.278,0,0,1,8.478-9.2l.18-.054L9-10.89A6.1,6.1,0,0,0,5.886-11.682ZM13.608-8.46a5.768,5.768,0,0,0-3.24,1.08L10.6-6.1l.144.09A4.1,4.1,0,0,1,13.32-7.164a1.185,1.185,0,0,1,1.3,1.35l-.018.972-2.844.63a1.918,1.918,0,0,0-1.746,2c0,1.44.99,2.34,2.664,2.358a5.271,5.271,0,0,0,1.872-1.35h.126A1.4,1.4,0,0,0,15.984.126a2.933,2.933,0,0,0,1.134-.4l.18-1.008L17.136-1.4a2.753,2.753,0,0,1-.54.072c-.378,0-.522-.144-.522-.612,0-.612.216-3.636.216-4.266C16.29-7.632,15.246-8.46,13.608-8.46Zm.99,4.68-.054,1.386a2.542,2.542,0,0,1-1.8,1.1,1.037,1.037,0,0,1-1.1-1.152.664.664,0,0,1,.612-.774ZM29.214,0h1.854l-.09-3.636.054-2.34c.018-1.548-.936-2.43-2.79-2.43a6.528,6.528,0,0,0-2.376,1.35h-.108a2.527,2.527,0,0,0-2.592-1.35,5.977,5.977,0,0,0-2.214,1.278h-.126l.018-1.206L19.1-8.172l.09,4.7L19.08,0H20.9l-.09-3.636.018-2.2a3.229,3.229,0,0,1,2.16-1.08c.864,0,1.3.558,1.278,1.458L24.138,0h1.836L25.9-3.636l.036-2.232a3.174,3.174,0,0,1,2.124-1.044c.864,0,1.3.558,1.278,1.458Zm5.238-12.168a.973.973,0,0,0-1.044,1.044.914.914,0,0,0,.99,1.008.97.97,0,0,0,1.008-1.062A.89.89,0,0,0,34.452-12.168Zm.72,8.532.144-4.7-1.836.162.09,4.7L33.462,0H35.3Zm5.2-4.806c-1.908,0-3.024,1.08-3.024,2.5,0,2.61,3.726,2.268,3.726,3.8A1.151,1.151,0,0,1,39.8-1.08a3.8,3.8,0,0,1-2.3-.972l-.2.126L37.08-.4A6.518,6.518,0,0,0,39.6.162c2.07,0,3.114-1.278,3.114-2.61,0-2.538-3.726-2.214-3.726-3.726a1.051,1.051,0,0,1,1.17-.99,3.357,3.357,0,0,1,1.836.63l.234-.054.252-1.44A5.7,5.7,0,0,0,40.374-8.442ZM50.652-4.068l.306-.288a7.013,7.013,0,0,0,.072-.9,2.847,2.847,0,0,0-3.024-3.186c-2.412,0-3.978,1.638-3.978,4.338,0,2.628,1.44,4.266,3.924,4.266a5.842,5.842,0,0,0,2.52-.612l.216-1.458-.162-.108a4.941,4.941,0,0,1-2.43.756c-1.584,0-2.34-1.026-2.376-2.808Zm-1.3-1.206-3.546.09a2.11,2.11,0,0,1,2.088-2c.9,0,1.494.522,1.494,1.692Zm6.5,3.888c-.738,0-1.062-.288-1.044-1.188l.09-4.518h2.322l.09-1.044-.072-.126h-2.3l.036-1.782-.162-.144-1.62.612v1.314h-1.1L52-7.2l.072.108h1.134l.018,3.51-.072,1.3A2.148,2.148,0,0,0,55.278.108a5.2,5.2,0,0,0,1.836-.54l.18-1.152-.18-.126A2.838,2.838,0,0,1,55.854-1.386Zm5.94-7.074a5.768,5.768,0,0,0-3.24,1.08L58.788-6.1l.144.09a4.1,4.1,0,0,1,2.574-1.152,1.185,1.185,0,0,1,1.3,1.35l-.018.972-2.844.63a1.918,1.918,0,0,0-1.746,2c0,1.44.99,2.34,2.664,2.358a5.271,5.271,0,0,0,1.872-1.35h.126A1.4,1.4,0,0,0,64.17.126,2.933,2.933,0,0,0,65.3-.27l.18-1.008L65.322-1.4a2.753,2.753,0,0,1-.54.072c-.378,0-.522-.144-.522-.612,0-.612.216-3.636.216-4.266C64.476-7.632,63.432-8.46,61.794-8.46Zm.99,4.68L62.73-2.394a2.542,2.542,0,0,1-1.8,1.1,1.037,1.037,0,0,1-1.1-1.152.664.664,0,0,1,.612-.774Zm6.984-4.662c-1.908,0-3.024,1.08-3.024,2.5,0,2.61,3.726,2.268,3.726,3.8A1.151,1.151,0,0,1,69.192-1.08a3.8,3.8,0,0,1-2.3-.972l-.2.126L66.474-.4a6.518,6.518,0,0,0,2.52.558c2.07,0,3.114-1.278,3.114-2.61,0-2.538-3.726-2.214-3.726-3.726a1.051,1.051,0,0,1,1.17-.99,3.357,3.357,0,0,1,1.836.63l.234-.054.252-1.44A5.7,5.7,0,0,0,69.768-8.442ZM80.1-8.46c-2.376,0-3.8,1.674-3.8,4.392,0,2.628,1.332,4.23,3.582,4.23a6.427,6.427,0,0,0,2.2-.414l.18-1.476L82.1-1.836a4.329,4.329,0,0,1-1.926.54c-1.368,0-2.142-1.08-2.142-2.916,0-1.746.756-2.736,2.034-2.736a3.568,3.568,0,0,1,1.764.558l.18-.072.306-1.53A5.4,5.4,0,0,0,80.1-8.46Zm6.984,0c-2.484,0-3.87,1.6-3.87,4.446,0,2.664,1.314,4.176,3.636,4.176,2.484,0,3.87-1.6,3.87-4.446C90.72-6.948,89.406-8.46,87.084-8.46Zm-.108,1.278c1.35,0,2.034,1.044,2.034,3.312,0,1.89-.684,2.772-2.034,2.772-1.368,0-2.052-1.026-2.052-3.312C84.924-6.264,85.608-7.182,86.976-7.182ZM102.816,0h1.854l-.09-3.636.054-2.34c.018-1.548-.936-2.43-2.79-2.43a6.528,6.528,0,0,0-2.376,1.35H99.36a2.527,2.527,0,0,0-2.592-1.35,5.977,5.977,0,0,0-2.214,1.278h-.126l.018-1.206L92.7-8.172l.09,4.7L92.682,0H94.5l-.09-3.636.018-2.2a3.229,3.229,0,0,1,2.16-1.08c.864,0,1.3.558,1.278,1.458L97.74,0h1.836L99.5-3.636l.036-2.232a3.174,3.174,0,0,1,2.124-1.044c.864,0,1.3.558,1.278,1.458ZM113.8-12.672c-2.07,0-3.276,1.116-3.258,3.168l.018,1.242h-1.224l-.09,1.062.072.108h1.242l.036,3.6L110.484,0h1.836l-.126-3.654.054-3.438h2.088l.108-1.044-.054-.126h-2.124l.018-1.548c.018-1.044.5-1.548,1.35-1.548a3.3,3.3,0,0,1,1.386.342l.126-.108.108-1.386A6.955,6.955,0,0,0,113.8-12.672Zm5.94,4.356a2.655,2.655,0,0,0-2.268,1.638h-.126l.018-1.656-1.746.162.108,4.7L115.6,0h1.836l-.126-3.636.018-1.188c.63-1.242,1.26-1.746,2-1.746a2.519,2.519,0,0,1,.666.09l.2-.054V-8.28A3.506,3.506,0,0,0,119.736-8.316Zm4.644-.144a5.768,5.768,0,0,0-3.24,1.08l.234,1.278.144.09a4.1,4.1,0,0,1,2.574-1.152,1.185,1.185,0,0,1,1.3,1.35l-.018.972-2.844.63a1.918,1.918,0,0,0-1.746,2c0,1.44.99,2.34,2.664,2.358a5.271,5.271,0,0,0,1.872-1.35h.126A1.4,1.4,0,0,0,126.756.126a2.933,2.933,0,0,0,1.134-.4l.18-1.008-.162-.126a2.753,2.753,0,0,1-.54.072c-.378,0-.522-.144-.522-.612,0-.612.216-3.636.216-4.266C127.062-7.632,126.018-8.46,124.38-8.46Zm.99,4.68-.054,1.386a2.542,2.542,0,0,1-1.8,1.1,1.037,1.037,0,0,1-1.1-1.152.664.664,0,0,1,.612-.774Zm6.984-4.662c-1.908,0-3.024,1.08-3.024,2.5,0,2.61,3.726,2.268,3.726,3.8a1.151,1.151,0,0,1-1.278,1.062,3.8,3.8,0,0,1-2.3-.972l-.2.126L129.06-.4a6.518,6.518,0,0,0,2.52.558c2.07,0,3.114-1.278,3.114-2.61,0-2.538-3.726-2.214-3.726-3.726a1.051,1.051,0,0,1,1.17-.99,3.357,3.357,0,0,1,1.836.63l.234-.054.252-1.44A5.7,5.7,0,0,0,132.354-8.442Zm10.278,4.374.306-.288a7.011,7.011,0,0,0,.072-.9,2.847,2.847,0,0,0-3.024-3.186c-2.412,0-3.978,1.638-3.978,4.338,0,2.628,1.44,4.266,3.924,4.266a5.842,5.842,0,0,0,2.52-.612l.216-1.458-.162-.108a4.941,4.941,0,0,1-2.43.756c-1.584,0-2.34-1.026-2.376-2.808Zm-1.3-1.206-3.546.09a2.11,2.11,0,0,1,2.088-2c.9,0,1.494.522,1.494,1.692ZM147.4-8.442c-1.908,0-3.024,1.08-3.024,2.5,0,2.61,3.726,2.268,3.726,3.8a1.151,1.151,0,0,1-1.278,1.062,3.8,3.8,0,0,1-2.3-.972l-.2.126L144.108-.4a6.518,6.518,0,0,0,2.52.558c2.07,0,3.114-1.278,3.114-2.61,0-2.538-3.726-2.214-3.726-3.726a1.051,1.051,0,0,1,1.17-.99,3.357,3.357,0,0,1,1.836.63l.234-.054.252-1.44A5.7,5.7,0,0,0,147.4-8.442Zm13.644,4.788.144-8.982-1.836.144L159.39-8.3a7.586,7.586,0,0,0-1.4-.144c-2.538,0-4.086,1.548-4.086,4.32,0,2.664,1.314,4.23,3.726,4.23A7.351,7.351,0,0,0,159.5-1.134h.144a1.425,1.425,0,0,0,1.332,1.26,2.917,2.917,0,0,0,1.152-.4l.162-1.008-.162-.126a2.6,2.6,0,0,1-.558.072c-.342,0-.45-.144-.468-.594Zm-3.24-3.528a3.717,3.717,0,0,1,1.6.414l.054,3.276-.036,1.17a2.3,2.3,0,0,1-1.764.936c-1.26,0-2.016-1.026-2.034-2.952C155.592-6.264,156.456-7.182,157.806-7.182Zm9.36-1.278c-2.484,0-3.87,1.6-3.87,4.446,0,2.664,1.314,4.176,3.636,4.176,2.484,0,3.87-1.6,3.87-4.446C170.8-6.948,169.488-8.46,167.166-8.46Zm-.108,1.278c1.35,0,2.034,1.044,2.034,3.312,0,1.89-.684,2.772-2.034,2.772-1.368,0-2.052-1.026-2.052-3.312C165.006-6.264,165.69-7.182,167.058-7.182Zm8.208-1.26c-1.908,0-3.024,1.08-3.024,2.5,0,2.61,3.726,2.268,3.726,3.8A1.151,1.151,0,0,1,174.69-1.08a3.8,3.8,0,0,1-2.3-.972l-.2.126L171.972-.4a6.518,6.518,0,0,0,2.52.558c2.07,0,3.114-1.278,3.114-2.61,0-2.538-3.726-2.214-3.726-3.726a1.051,1.051,0,0,1,1.17-.99,3.357,3.357,0,0,1,1.836.63l.234-.054.252-1.44A5.7,5.7,0,0,0,175.266-8.442ZM185.4-8.46a5.768,5.768,0,0,0-3.24,1.08l.234,1.278.144.09a4.1,4.1,0,0,1,2.574-1.152,1.185,1.185,0,0,1,1.3,1.35l-.018.972-2.844.63a1.918,1.918,0,0,0-1.746,2c0,1.44.99,2.34,2.664,2.358a5.271,5.271,0,0,0,1.872-1.35h.126A1.4,1.4,0,0,0,187.776.126a2.933,2.933,0,0,0,1.134-.4l.18-1.008-.162-.126a2.753,2.753,0,0,1-.54.072c-.378,0-.522-.144-.522-.612,0-.612.216-3.636.216-4.266C188.082-7.632,187.038-8.46,185.4-8.46Zm.99,4.68-.054,1.386a2.542,2.542,0,0,1-1.8,1.1,1.037,1.037,0,0,1-1.1-1.152.664.664,0,0,1,.612-.774ZM195.93,0h1.854l-.09-3.636.054-2.34c.018-1.548-.936-2.43-2.79-2.43a6.121,6.121,0,0,0-2.214,1.278h-.126l.018-1.206-1.746.162.09,4.7L190.872,0h1.836L192.6-3.636l.018-2.2a3.229,3.229,0,0,1,2.16-1.08c.864,0,1.3.558,1.278,1.458Zm7.56-8.46c-2.484,0-3.87,1.6-3.87,4.446,0,2.664,1.314,4.176,3.636,4.176,2.484,0,3.87-1.6,3.87-4.446C207.126-6.948,205.812-8.46,203.49-8.46Zm-.108,1.278c1.35,0,2.034,1.044,2.034,3.312,0,1.89-.684,2.772-2.034,2.772-1.368,0-2.052-1.026-2.052-3.312C201.33-6.264,202.014-7.182,203.382-7.182Zm8.208-1.26c-1.908,0-3.024,1.08-3.024,2.5,0,2.61,3.726,2.268,3.726,3.8a1.151,1.151,0,0,1-1.278,1.062,3.8,3.8,0,0,1-2.3-.972l-.2.126L208.3-.4a6.518,6.518,0,0,0,2.52.558c2.07,0,3.114-1.278,3.114-2.61,0-2.538-3.726-2.214-3.726-3.726a1.051,1.051,0,0,1,1.17-.99,3.357,3.357,0,0,1,1.836.63l.234-.054.252-1.44A5.7,5.7,0,0,0,211.59-8.442Zm10.368-2.232c-1.944,0-3.294,1.062-3.294,2.844A2.678,2.678,0,0,0,220.3-5.346v.09a2.983,2.983,0,0,0-2.034,2.682c0,1.584,1.188,2.718,3.294,2.718,2.2,0,3.654-1.17,3.654-3.042a2.821,2.821,0,0,0-1.98-2.592v-.09a2.937,2.937,0,0,0,1.656-2.538C224.892-9.7,223.794-10.674,221.958-10.674Zm-.09,1.3a1.4,1.4,0,0,1,1.584,1.44c0,1.008-.72,1.494-1.53,1.872-.918-.36-1.746-.792-1.746-1.818C220.176-8.8,220.806-9.378,221.868-9.378Zm-.27,4.662c1.062.432,2.088.828,2.088,1.944,0,.936-.72,1.638-1.962,1.638-1.188,0-1.908-.666-1.908-1.656C219.816-3.906,220.662-4.374,221.6-4.716Zm9.4-4.428c-2.592,0-4.086,1.746-4.086,4.788,0,2.862,1.4,4.5,3.852,4.5,2.592,0,4.05-1.728,4.05-4.752C234.81-7.506,233.424-9.144,230.994-9.144Zm-.144,1.692c1.656,0,2.538,1.008,2.538,3.06,0,1.944-.864,2.916-2.52,2.916-1.692,0-2.52-1.008-2.52-3.006S229.176-7.452,230.85-7.452Z" transform="translate(-4406.5 -10688.996)"/>
    <path id="Caminho_773534" data-name="Caminho 773534" d="M5.886-11.682C2.538-11.682.612-9.522.612-5.67.612-1.944,2.43.144,5.67.144A6.691,6.691,0,0,0,8.73-.612L8.874-2.3l-.18-.108a4.847,4.847,0,0,1-2.88.99c-2.07,0-3.258-1.512-3.258-4.446,0-2.844,1.152-4.266,3.258-4.266A4.278,4.278,0,0,1,8.478-9.2l.18-.054L9-10.89A6.1,6.1,0,0,0,5.886-11.682ZM13.608-8.46a5.768,5.768,0,0,0-3.24,1.08L10.6-6.1l.144.09A4.1,4.1,0,0,1,13.32-7.164a1.185,1.185,0,0,1,1.3,1.35l-.018.972-2.844.63a1.918,1.918,0,0,0-1.746,2c0,1.44.99,2.34,2.664,2.358a5.271,5.271,0,0,0,1.872-1.35h.126A1.4,1.4,0,0,0,15.984.126a2.933,2.933,0,0,0,1.134-.4l.18-1.008L17.136-1.4a2.753,2.753,0,0,1-.54.072c-.378,0-.522-.144-.522-.612,0-.612.216-3.636.216-4.266C16.29-7.632,15.246-8.46,13.608-8.46Zm.99,4.68-.054,1.386a2.542,2.542,0,0,1-1.8,1.1,1.037,1.037,0,0,1-1.1-1.152.664.664,0,0,1,.612-.774ZM29.214,0h1.854l-.09-3.636.054-2.34c.018-1.548-.936-2.43-2.79-2.43a6.528,6.528,0,0,0-2.376,1.35h-.108a2.527,2.527,0,0,0-2.592-1.35,5.977,5.977,0,0,0-2.214,1.278h-.126l.018-1.206L19.1-8.172l.09,4.7L19.08,0H20.9l-.09-3.636.018-2.2a3.229,3.229,0,0,1,2.16-1.08c.864,0,1.3.558,1.278,1.458L24.138,0h1.836L25.9-3.636l.036-2.232a3.174,3.174,0,0,1,2.124-1.044c.864,0,1.3.558,1.278,1.458Zm5.238-12.168a.973.973,0,0,0-1.044,1.044.914.914,0,0,0,.99,1.008.97.97,0,0,0,1.008-1.062A.89.89,0,0,0,34.452-12.168Zm.72,8.532.144-4.7-1.836.162.09,4.7L33.462,0H35.3Zm5.2-4.806c-1.908,0-3.024,1.08-3.024,2.5,0,2.61,3.726,2.268,3.726,3.8A1.151,1.151,0,0,1,39.8-1.08a3.8,3.8,0,0,1-2.3-.972l-.2.126L37.08-.4A6.518,6.518,0,0,0,39.6.162c2.07,0,3.114-1.278,3.114-2.61,0-2.538-3.726-2.214-3.726-3.726a1.051,1.051,0,0,1,1.17-.99,3.357,3.357,0,0,1,1.836.63l.234-.054.252-1.44A5.7,5.7,0,0,0,40.374-8.442ZM50.652-4.068l.306-.288a7.013,7.013,0,0,0,.072-.9,2.847,2.847,0,0,0-3.024-3.186c-2.412,0-3.978,1.638-3.978,4.338,0,2.628,1.44,4.266,3.924,4.266a5.842,5.842,0,0,0,2.52-.612l.216-1.458-.162-.108a4.941,4.941,0,0,1-2.43.756c-1.584,0-2.34-1.026-2.376-2.808Zm-1.3-1.206-3.546.09a2.11,2.11,0,0,1,2.088-2c.9,0,1.494.522,1.494,1.692Zm6.5,3.888c-.738,0-1.062-.288-1.044-1.188l.09-4.518h2.322l.09-1.044-.072-.126h-2.3l.036-1.782-.162-.144-1.62.612v1.314h-1.1L52-7.2l.072.108h1.134l.018,3.51-.072,1.3A2.148,2.148,0,0,0,55.278.108a5.2,5.2,0,0,0,1.836-.54l.18-1.152-.18-.126A2.838,2.838,0,0,1,55.854-1.386Zm5.94-7.074a5.768,5.768,0,0,0-3.24,1.08L58.788-6.1l.144.09a4.1,4.1,0,0,1,2.574-1.152,1.185,1.185,0,0,1,1.3,1.35l-.018.972-2.844.63a1.918,1.918,0,0,0-1.746,2c0,1.44.99,2.34,2.664,2.358a5.271,5.271,0,0,0,1.872-1.35h.126A1.4,1.4,0,0,0,64.17.126,2.933,2.933,0,0,0,65.3-.27l.18-1.008L65.322-1.4a2.753,2.753,0,0,1-.54.072c-.378,0-.522-.144-.522-.612,0-.612.216-3.636.216-4.266C64.476-7.632,63.432-8.46,61.794-8.46Zm.99,4.68L62.73-2.394a2.542,2.542,0,0,1-1.8,1.1,1.037,1.037,0,0,1-1.1-1.152.664.664,0,0,1,.612-.774Zm6.984-4.662c-1.908,0-3.024,1.08-3.024,2.5,0,2.61,3.726,2.268,3.726,3.8A1.151,1.151,0,0,1,69.192-1.08a3.8,3.8,0,0,1-2.3-.972l-.2.126L66.474-.4a6.518,6.518,0,0,0,2.52.558c2.07,0,3.114-1.278,3.114-2.61,0-2.538-3.726-2.214-3.726-3.726a1.051,1.051,0,0,1,1.17-.99,3.357,3.357,0,0,1,1.836.63l.234-.054.252-1.44A5.7,5.7,0,0,0,69.768-8.442ZM80.1-8.46c-2.376,0-3.8,1.674-3.8,4.392,0,2.628,1.332,4.23,3.582,4.23a6.427,6.427,0,0,0,2.2-.414l.18-1.476L82.1-1.836a4.329,4.329,0,0,1-1.926.54c-1.368,0-2.142-1.08-2.142-2.916,0-1.746.756-2.736,2.034-2.736a3.568,3.568,0,0,1,1.764.558l.18-.072.306-1.53A5.4,5.4,0,0,0,80.1-8.46Zm6.984,0c-2.484,0-3.87,1.6-3.87,4.446,0,2.664,1.314,4.176,3.636,4.176,2.484,0,3.87-1.6,3.87-4.446C90.72-6.948,89.406-8.46,87.084-8.46Zm-.108,1.278c1.35,0,2.034,1.044,2.034,3.312,0,1.89-.684,2.772-2.034,2.772-1.368,0-2.052-1.026-2.052-3.312C84.924-6.264,85.608-7.182,86.976-7.182ZM102.816,0h1.854l-.09-3.636.054-2.34c.018-1.548-.936-2.43-2.79-2.43a6.528,6.528,0,0,0-2.376,1.35H99.36a2.527,2.527,0,0,0-2.592-1.35,5.977,5.977,0,0,0-2.214,1.278h-.126l.018-1.206L92.7-8.172l.09,4.7L92.682,0H94.5l-.09-3.636.018-2.2a3.229,3.229,0,0,1,2.16-1.08c.864,0,1.3.558,1.278,1.458L97.74,0h1.836L99.5-3.636l.036-2.232a3.174,3.174,0,0,1,2.124-1.044c.864,0,1.3.558,1.278,1.458ZM113.8-12.672c-2.07,0-3.276,1.116-3.258,3.168l.018,1.242h-1.224l-.09,1.062.072.108h1.242l.036,3.6L110.484,0h1.836l-.126-3.654.054-3.438h2.088l.108-1.044-.054-.126h-2.124l.018-1.548c.018-1.044.5-1.548,1.35-1.548a3.3,3.3,0,0,1,1.386.342l.126-.108.108-1.386A6.955,6.955,0,0,0,113.8-12.672Zm5.94,4.356a2.655,2.655,0,0,0-2.268,1.638h-.126l.018-1.656-1.746.162.108,4.7L115.6,0h1.836l-.126-3.636.018-1.188c.63-1.242,1.26-1.746,2-1.746a2.519,2.519,0,0,1,.666.09l.2-.054V-8.28A3.506,3.506,0,0,0,119.736-8.316Zm4.644-.144a5.768,5.768,0,0,0-3.24,1.08l.234,1.278.144.09a4.1,4.1,0,0,1,2.574-1.152,1.185,1.185,0,0,1,1.3,1.35l-.018.972-2.844.63a1.918,1.918,0,0,0-1.746,2c0,1.44.99,2.34,2.664,2.358a5.271,5.271,0,0,0,1.872-1.35h.126A1.4,1.4,0,0,0,126.756.126a2.933,2.933,0,0,0,1.134-.4l.18-1.008-.162-.126a2.753,2.753,0,0,1-.54.072c-.378,0-.522-.144-.522-.612,0-.612.216-3.636.216-4.266C127.062-7.632,126.018-8.46,124.38-8.46Zm.99,4.68-.054,1.386a2.542,2.542,0,0,1-1.8,1.1,1.037,1.037,0,0,1-1.1-1.152.664.664,0,0,1,.612-.774Zm6.984-4.662c-1.908,0-3.024,1.08-3.024,2.5,0,2.61,3.726,2.268,3.726,3.8a1.151,1.151,0,0,1-1.278,1.062,3.8,3.8,0,0,1-2.3-.972l-.2.126L129.06-.4a6.518,6.518,0,0,0,2.52.558c2.07,0,3.114-1.278,3.114-2.61,0-2.538-3.726-2.214-3.726-3.726a1.051,1.051,0,0,1,1.17-.99,3.357,3.357,0,0,1,1.836.63l.234-.054.252-1.44A5.7,5.7,0,0,0,132.354-8.442Zm10.278,4.374.306-.288a7.011,7.011,0,0,0,.072-.9,2.847,2.847,0,0,0-3.024-3.186c-2.412,0-3.978,1.638-3.978,4.338,0,2.628,1.44,4.266,3.924,4.266a5.842,5.842,0,0,0,2.52-.612l.216-1.458-.162-.108a4.941,4.941,0,0,1-2.43.756c-1.584,0-2.34-1.026-2.376-2.808Zm-1.3-1.206-3.546.09a2.11,2.11,0,0,1,2.088-2c.9,0,1.494.522,1.494,1.692ZM147.4-8.442c-1.908,0-3.024,1.08-3.024,2.5,0,2.61,3.726,2.268,3.726,3.8a1.151,1.151,0,0,1-1.278,1.062,3.8,3.8,0,0,1-2.3-.972l-.2.126L144.108-.4a6.518,6.518,0,0,0,2.52.558c2.07,0,3.114-1.278,3.114-2.61,0-2.538-3.726-2.214-3.726-3.726a1.051,1.051,0,0,1,1.17-.99,3.357,3.357,0,0,1,1.836.63l.234-.054.252-1.44A5.7,5.7,0,0,0,147.4-8.442Zm13.644,4.788.144-8.982-1.836.144L159.39-8.3a7.586,7.586,0,0,0-1.4-.144c-2.538,0-4.086,1.548-4.086,4.32,0,2.664,1.314,4.23,3.726,4.23A7.351,7.351,0,0,0,159.5-1.134h.144a1.425,1.425,0,0,0,1.332,1.26,2.917,2.917,0,0,0,1.152-.4l.162-1.008-.162-.126a2.6,2.6,0,0,1-.558.072c-.342,0-.45-.144-.468-.594Zm-3.24-3.528a3.717,3.717,0,0,1,1.6.414l.054,3.276-.036,1.17a2.3,2.3,0,0,1-1.764.936c-1.26,0-2.016-1.026-2.034-2.952C155.592-6.264,156.456-7.182,157.806-7.182Zm9.36-1.278c-2.484,0-3.87,1.6-3.87,4.446,0,2.664,1.314,4.176,3.636,4.176,2.484,0,3.87-1.6,3.87-4.446C170.8-6.948,169.488-8.46,167.166-8.46Zm-.108,1.278c1.35,0,2.034,1.044,2.034,3.312,0,1.89-.684,2.772-2.034,2.772-1.368,0-2.052-1.026-2.052-3.312C165.006-6.264,165.69-7.182,167.058-7.182Zm8.208-1.26c-1.908,0-3.024,1.08-3.024,2.5,0,2.61,3.726,2.268,3.726,3.8A1.151,1.151,0,0,1,174.69-1.08a3.8,3.8,0,0,1-2.3-.972l-.2.126L171.972-.4a6.518,6.518,0,0,0,2.52.558c2.07,0,3.114-1.278,3.114-2.61,0-2.538-3.726-2.214-3.726-3.726a1.051,1.051,0,0,1,1.17-.99,3.357,3.357,0,0,1,1.836.63l.234-.054.252-1.44A5.7,5.7,0,0,0,175.266-8.442ZM185.4-8.46a5.768,5.768,0,0,0-3.24,1.08l.234,1.278.144.09a4.1,4.1,0,0,1,2.574-1.152,1.185,1.185,0,0,1,1.3,1.35l-.018.972-2.844.63a1.918,1.918,0,0,0-1.746,2c0,1.44.99,2.34,2.664,2.358a5.271,5.271,0,0,0,1.872-1.35h.126A1.4,1.4,0,0,0,187.776.126a2.933,2.933,0,0,0,1.134-.4l.18-1.008-.162-.126a2.753,2.753,0,0,1-.54.072c-.378,0-.522-.144-.522-.612,0-.612.216-3.636.216-4.266C188.082-7.632,187.038-8.46,185.4-8.46Zm.99,4.68-.054,1.386a2.542,2.542,0,0,1-1.8,1.1,1.037,1.037,0,0,1-1.1-1.152.664.664,0,0,1,.612-.774ZM195.93,0h1.854l-.09-3.636.054-2.34c.018-1.548-.936-2.43-2.79-2.43a6.121,6.121,0,0,0-2.214,1.278h-.126l.018-1.206-1.746.162.09,4.7L190.872,0h1.836L192.6-3.636l.018-2.2a3.229,3.229,0,0,1,2.16-1.08c.864,0,1.3.558,1.278,1.458Zm7.56-8.46c-2.484,0-3.87,1.6-3.87,4.446,0,2.664,1.314,4.176,3.636,4.176,2.484,0,3.87-1.6,3.87-4.446C207.126-6.948,205.812-8.46,203.49-8.46Zm-.108,1.278c1.35,0,2.034,1.044,2.034,3.312,0,1.89-.684,2.772-2.034,2.772-1.368,0-2.052-1.026-2.052-3.312C201.33-6.264,202.014-7.182,203.382-7.182Zm8.208-1.26c-1.908,0-3.024,1.08-3.024,2.5,0,2.61,3.726,2.268,3.726,3.8a1.151,1.151,0,0,1-1.278,1.062,3.8,3.8,0,0,1-2.3-.972l-.2.126L208.3-.4a6.518,6.518,0,0,0,2.52.558c2.07,0,3.114-1.278,3.114-2.61,0-2.538-3.726-2.214-3.726-3.726a1.051,1.051,0,0,1,1.17-.99,3.357,3.357,0,0,1,1.836.63l.234-.054.252-1.44A5.7,5.7,0,0,0,211.59-8.442Zm8.118-.576-1.782-.072L217.8-7.524l.108.18,1.494-.162h3.456l-4.014,8.622.108.306,1.476.4L221.31-.54,224.586-7.7l-.018-1.35-.81.036Zm10.242-.126c-2.592,0-4.086,1.746-4.086,4.788,0,2.862,1.4,4.5,3.852,4.5,2.592,0,4.05-1.728,4.05-4.752C233.766-7.506,232.38-9.144,229.95-9.144Zm-.144,1.692c1.656,0,2.538,1.008,2.538,3.06,0,1.944-.864,2.916-2.52,2.916-1.692,0-2.52-1.008-2.52-3.006S228.132-7.452,229.806-7.452Z" transform="translate(-4406.5 -10632.996)"/>
    <path id="Caminho_773535" data-name="Caminho 773535" d="M5.886-11.682C2.538-11.682.612-9.522.612-5.67.612-1.944,2.43.144,5.67.144A6.691,6.691,0,0,0,8.73-.612L8.874-2.3l-.18-.108a4.847,4.847,0,0,1-2.88.99c-2.07,0-3.258-1.512-3.258-4.446,0-2.844,1.152-4.266,3.258-4.266A4.278,4.278,0,0,1,8.478-9.2l.18-.054L9-10.89A6.1,6.1,0,0,0,5.886-11.682ZM13.608-8.46a5.768,5.768,0,0,0-3.24,1.08L10.6-6.1l.144.09A4.1,4.1,0,0,1,13.32-7.164a1.185,1.185,0,0,1,1.3,1.35l-.018.972-2.844.63a1.918,1.918,0,0,0-1.746,2c0,1.44.99,2.34,2.664,2.358a5.271,5.271,0,0,0,1.872-1.35h.126A1.4,1.4,0,0,0,15.984.126a2.933,2.933,0,0,0,1.134-.4l.18-1.008L17.136-1.4a2.753,2.753,0,0,1-.54.072c-.378,0-.522-.144-.522-.612,0-.612.216-3.636.216-4.266C16.29-7.632,15.246-8.46,13.608-8.46Zm.99,4.68-.054,1.386a2.542,2.542,0,0,1-1.8,1.1,1.037,1.037,0,0,1-1.1-1.152.664.664,0,0,1,.612-.774ZM29.214,0h1.854l-.09-3.636.054-2.34c.018-1.548-.936-2.43-2.79-2.43a6.528,6.528,0,0,0-2.376,1.35h-.108a2.527,2.527,0,0,0-2.592-1.35,5.977,5.977,0,0,0-2.214,1.278h-.126l.018-1.206L19.1-8.172l.09,4.7L19.08,0H20.9l-.09-3.636.018-2.2a3.229,3.229,0,0,1,2.16-1.08c.864,0,1.3.558,1.278,1.458L24.138,0h1.836L25.9-3.636l.036-2.232a3.174,3.174,0,0,1,2.124-1.044c.864,0,1.3.558,1.278,1.458Zm5.238-12.168a.973.973,0,0,0-1.044,1.044.914.914,0,0,0,.99,1.008.97.97,0,0,0,1.008-1.062A.89.89,0,0,0,34.452-12.168Zm.72,8.532.144-4.7-1.836.162.09,4.7L33.462,0H35.3Zm5.2-4.806c-1.908,0-3.024,1.08-3.024,2.5,0,2.61,3.726,2.268,3.726,3.8A1.151,1.151,0,0,1,39.8-1.08a3.8,3.8,0,0,1-2.3-.972l-.2.126L37.08-.4A6.518,6.518,0,0,0,39.6.162c2.07,0,3.114-1.278,3.114-2.61,0-2.538-3.726-2.214-3.726-3.726a1.051,1.051,0,0,1,1.17-.99,3.357,3.357,0,0,1,1.836.63l.234-.054.252-1.44A5.7,5.7,0,0,0,40.374-8.442ZM50.652-4.068l.306-.288a7.013,7.013,0,0,0,.072-.9,2.847,2.847,0,0,0-3.024-3.186c-2.412,0-3.978,1.638-3.978,4.338,0,2.628,1.44,4.266,3.924,4.266a5.842,5.842,0,0,0,2.52-.612l.216-1.458-.162-.108a4.941,4.941,0,0,1-2.43.756c-1.584,0-2.34-1.026-2.376-2.808Zm-1.3-1.206-3.546.09a2.11,2.11,0,0,1,2.088-2c.9,0,1.494.522,1.494,1.692Zm6.5,3.888c-.738,0-1.062-.288-1.044-1.188l.09-4.518h2.322l.09-1.044-.072-.126h-2.3l.036-1.782-.162-.144-1.62.612v1.314h-1.1L52-7.2l.072.108h1.134l.018,3.51-.072,1.3A2.148,2.148,0,0,0,55.278.108a5.2,5.2,0,0,0,1.836-.54l.18-1.152-.18-.126A2.838,2.838,0,0,1,55.854-1.386Zm5.94-7.074a5.768,5.768,0,0,0-3.24,1.08L58.788-6.1l.144.09a4.1,4.1,0,0,1,2.574-1.152,1.185,1.185,0,0,1,1.3,1.35l-.018.972-2.844.63a1.918,1.918,0,0,0-1.746,2c0,1.44.99,2.34,2.664,2.358a5.271,5.271,0,0,0,1.872-1.35h.126A1.4,1.4,0,0,0,64.17.126,2.933,2.933,0,0,0,65.3-.27l.18-1.008L65.322-1.4a2.753,2.753,0,0,1-.54.072c-.378,0-.522-.144-.522-.612,0-.612.216-3.636.216-4.266C64.476-7.632,63.432-8.46,61.794-8.46Zm.99,4.68L62.73-2.394a2.542,2.542,0,0,1-1.8,1.1,1.037,1.037,0,0,1-1.1-1.152.664.664,0,0,1,.612-.774Zm6.984-4.662c-1.908,0-3.024,1.08-3.024,2.5,0,2.61,3.726,2.268,3.726,3.8A1.151,1.151,0,0,1,69.192-1.08a3.8,3.8,0,0,1-2.3-.972l-.2.126L66.474-.4a6.518,6.518,0,0,0,2.52.558c2.07,0,3.114-1.278,3.114-2.61,0-2.538-3.726-2.214-3.726-3.726a1.051,1.051,0,0,1,1.17-.99,3.357,3.357,0,0,1,1.836.63l.234-.054.252-1.44A5.7,5.7,0,0,0,69.768-8.442ZM80.1-8.46c-2.376,0-3.8,1.674-3.8,4.392,0,2.628,1.332,4.23,3.582,4.23a6.427,6.427,0,0,0,2.2-.414l.18-1.476L82.1-1.836a4.329,4.329,0,0,1-1.926.54c-1.368,0-2.142-1.08-2.142-2.916,0-1.746.756-2.736,2.034-2.736a3.568,3.568,0,0,1,1.764.558l.18-.072.306-1.53A5.4,5.4,0,0,0,80.1-8.46Zm6.984,0c-2.484,0-3.87,1.6-3.87,4.446,0,2.664,1.314,4.176,3.636,4.176,2.484,0,3.87-1.6,3.87-4.446C90.72-6.948,89.406-8.46,87.084-8.46Zm-.108,1.278c1.35,0,2.034,1.044,2.034,3.312,0,1.89-.684,2.772-2.034,2.772-1.368,0-2.052-1.026-2.052-3.312C84.924-6.264,85.608-7.182,86.976-7.182ZM102.816,0h1.854l-.09-3.636.054-2.34c.018-1.548-.936-2.43-2.79-2.43a6.528,6.528,0,0,0-2.376,1.35H99.36a2.527,2.527,0,0,0-2.592-1.35,5.977,5.977,0,0,0-2.214,1.278h-.126l.018-1.206L92.7-8.172l.09,4.7L92.682,0H94.5l-.09-3.636.018-2.2a3.229,3.229,0,0,1,2.16-1.08c.864,0,1.3.558,1.278,1.458L97.74,0h1.836L99.5-3.636l.036-2.232a3.174,3.174,0,0,1,2.124-1.044c.864,0,1.3.558,1.278,1.458ZM113.8-12.672c-2.07,0-3.276,1.116-3.258,3.168l.018,1.242h-1.224l-.09,1.062.072.108h1.242l.036,3.6L110.484,0h1.836l-.126-3.654.054-3.438h2.088l.108-1.044-.054-.126h-2.124l.018-1.548c.018-1.044.5-1.548,1.35-1.548a3.3,3.3,0,0,1,1.386.342l.126-.108.108-1.386A6.955,6.955,0,0,0,113.8-12.672Zm5.94,4.356a2.655,2.655,0,0,0-2.268,1.638h-.126l.018-1.656-1.746.162.108,4.7L115.6,0h1.836l-.126-3.636.018-1.188c.63-1.242,1.26-1.746,2-1.746a2.519,2.519,0,0,1,.666.09l.2-.054V-8.28A3.506,3.506,0,0,0,119.736-8.316Zm4.644-.144a5.768,5.768,0,0,0-3.24,1.08l.234,1.278.144.09a4.1,4.1,0,0,1,2.574-1.152,1.185,1.185,0,0,1,1.3,1.35l-.018.972-2.844.63a1.918,1.918,0,0,0-1.746,2c0,1.44.99,2.34,2.664,2.358a5.271,5.271,0,0,0,1.872-1.35h.126A1.4,1.4,0,0,0,126.756.126a2.933,2.933,0,0,0,1.134-.4l.18-1.008-.162-.126a2.753,2.753,0,0,1-.54.072c-.378,0-.522-.144-.522-.612,0-.612.216-3.636.216-4.266C127.062-7.632,126.018-8.46,124.38-8.46Zm.99,4.68-.054,1.386a2.542,2.542,0,0,1-1.8,1.1,1.037,1.037,0,0,1-1.1-1.152.664.664,0,0,1,.612-.774Zm6.984-4.662c-1.908,0-3.024,1.08-3.024,2.5,0,2.61,3.726,2.268,3.726,3.8a1.151,1.151,0,0,1-1.278,1.062,3.8,3.8,0,0,1-2.3-.972l-.2.126L129.06-.4a6.518,6.518,0,0,0,2.52.558c2.07,0,3.114-1.278,3.114-2.61,0-2.538-3.726-2.214-3.726-3.726a1.051,1.051,0,0,1,1.17-.99,3.357,3.357,0,0,1,1.836.63l.234-.054.252-1.44A5.7,5.7,0,0,0,132.354-8.442Zm10.278,4.374.306-.288a7.011,7.011,0,0,0,.072-.9,2.847,2.847,0,0,0-3.024-3.186c-2.412,0-3.978,1.638-3.978,4.338,0,2.628,1.44,4.266,3.924,4.266a5.842,5.842,0,0,0,2.52-.612l.216-1.458-.162-.108a4.941,4.941,0,0,1-2.43.756c-1.584,0-2.34-1.026-2.376-2.808Zm-1.3-1.206-3.546.09a2.11,2.11,0,0,1,2.088-2c.9,0,1.494.522,1.494,1.692ZM147.4-8.442c-1.908,0-3.024,1.08-3.024,2.5,0,2.61,3.726,2.268,3.726,3.8a1.151,1.151,0,0,1-1.278,1.062,3.8,3.8,0,0,1-2.3-.972l-.2.126L144.108-.4a6.518,6.518,0,0,0,2.52.558c2.07,0,3.114-1.278,3.114-2.61,0-2.538-3.726-2.214-3.726-3.726a1.051,1.051,0,0,1,1.17-.99,3.357,3.357,0,0,1,1.836.63l.234-.054.252-1.44A5.7,5.7,0,0,0,147.4-8.442Zm13.644,4.788.144-8.982-1.836.144L159.39-8.3a7.586,7.586,0,0,0-1.4-.144c-2.538,0-4.086,1.548-4.086,4.32,0,2.664,1.314,4.23,3.726,4.23A7.351,7.351,0,0,0,159.5-1.134h.144a1.425,1.425,0,0,0,1.332,1.26,2.917,2.917,0,0,0,1.152-.4l.162-1.008-.162-.126a2.6,2.6,0,0,1-.558.072c-.342,0-.45-.144-.468-.594Zm-3.24-3.528a3.717,3.717,0,0,1,1.6.414l.054,3.276-.036,1.17a2.3,2.3,0,0,1-1.764.936c-1.26,0-2.016-1.026-2.034-2.952C155.592-6.264,156.456-7.182,157.806-7.182Zm9.36-1.278c-2.484,0-3.87,1.6-3.87,4.446,0,2.664,1.314,4.176,3.636,4.176,2.484,0,3.87-1.6,3.87-4.446C170.8-6.948,169.488-8.46,167.166-8.46Zm-.108,1.278c1.35,0,2.034,1.044,2.034,3.312,0,1.89-.684,2.772-2.034,2.772-1.368,0-2.052-1.026-2.052-3.312C165.006-6.264,165.69-7.182,167.058-7.182Zm8.208-1.26c-1.908,0-3.024,1.08-3.024,2.5,0,2.61,3.726,2.268,3.726,3.8A1.151,1.151,0,0,1,174.69-1.08a3.8,3.8,0,0,1-2.3-.972l-.2.126L171.972-.4a6.518,6.518,0,0,0,2.52.558c2.07,0,3.114-1.278,3.114-2.61,0-2.538-3.726-2.214-3.726-3.726a1.051,1.051,0,0,1,1.17-.99,3.357,3.357,0,0,1,1.836.63l.234-.054.252-1.44A5.7,5.7,0,0,0,175.266-8.442ZM185.4-8.46a5.768,5.768,0,0,0-3.24,1.08l.234,1.278.144.09a4.1,4.1,0,0,1,2.574-1.152,1.185,1.185,0,0,1,1.3,1.35l-.018.972-2.844.63a1.918,1.918,0,0,0-1.746,2c0,1.44.99,2.34,2.664,2.358a5.271,5.271,0,0,0,1.872-1.35h.126A1.4,1.4,0,0,0,187.776.126a2.933,2.933,0,0,0,1.134-.4l.18-1.008-.162-.126a2.753,2.753,0,0,1-.54.072c-.378,0-.522-.144-.522-.612,0-.612.216-3.636.216-4.266C188.082-7.632,187.038-8.46,185.4-8.46Zm.99,4.68-.054,1.386a2.542,2.542,0,0,1-1.8,1.1,1.037,1.037,0,0,1-1.1-1.152.664.664,0,0,1,.612-.774ZM195.93,0h1.854l-.09-3.636.054-2.34c.018-1.548-.936-2.43-2.79-2.43a6.121,6.121,0,0,0-2.214,1.278h-.126l.018-1.206-1.746.162.09,4.7L190.872,0h1.836L192.6-3.636l.018-2.2a3.229,3.229,0,0,1,2.16-1.08c.864,0,1.3.558,1.278,1.458Zm7.56-8.46c-2.484,0-3.87,1.6-3.87,4.446,0,2.664,1.314,4.176,3.636,4.176,2.484,0,3.87-1.6,3.87-4.446C207.126-6.948,205.812-8.46,203.49-8.46Zm-.108,1.278c1.35,0,2.034,1.044,2.034,3.312,0,1.89-.684,2.772-2.034,2.772-1.368,0-2.052-1.026-2.052-3.312C201.33-6.264,202.014-7.182,203.382-7.182Zm8.208-1.26c-1.908,0-3.024,1.08-3.024,2.5,0,2.61,3.726,2.268,3.726,3.8a1.151,1.151,0,0,1-1.278,1.062,3.8,3.8,0,0,1-2.3-.972l-.2.126L208.3-.4a6.518,6.518,0,0,0,2.52.558c2.07,0,3.114-1.278,3.114-2.61,0-2.538-3.726-2.214-3.726-3.726a1.051,1.051,0,0,1,1.17-.99,3.357,3.357,0,0,1,1.836.63l.234-.054.252-1.44A5.7,5.7,0,0,0,211.59-8.442Zm10.8,2.07a3.719,3.719,0,0,0-2.124.666l-.126-.144c.576-1.71,2.07-2.88,4.806-3.852v-.18l-1.368-.828h-.108c-3.348,1.386-5.274,3.87-5.274,6.894,0,2.484,1.17,3.978,3.474,3.978a3.347,3.347,0,0,0,3.636-3.456A2.812,2.812,0,0,0,222.39-6.372ZM221.8-1.08c-1.386,0-1.944-.936-1.944-2.772l.018-.432a3.279,3.279,0,0,1,2-.774c1.152,0,1.8.72,1.8,2.016A1.749,1.749,0,0,1,221.8-1.08Zm9.072-8.064c-2.592,0-4.086,1.746-4.086,4.788,0,2.862,1.4,4.5,3.852,4.5,2.592,0,4.05-1.728,4.05-4.752C234.684-7.506,233.3-9.144,230.868-9.144Zm-.144,1.692c1.656,0,2.538,1.008,2.538,3.06,0,1.944-.864,2.916-2.52,2.916-1.692,0-2.52-1.008-2.52-3.006S229.05-7.452,230.724-7.452Z" transform="translate(-4406.5 -10579.996)"/>
    <path id="Caminho_773538" data-name="Caminho 773538" d="M4.32-8.91l-.27-.2L.18-7.974v1.458l.162.108,2.2-.612.018,3.492L2.448,0H4.3l-.09-3.726Zm8.946-.072-.108-.126-1.764.09h-2.5L7.9-9.072,7.65-8.82,7.56-3.96,7.7-3.8l1.6.306c1.512.27,2.106.828,2.106,1.782,0,1.206-.936,2.034-2.43,2.034A4.99,4.99,0,0,1,6.93-.126L6.786.018l.126,1.548a10.218,10.218,0,0,0,1.818.2c2.592,0,4.41-1.53,4.41-3.762,0-1.422-.756-2.376-3.024-2.844L9-5.076l.054-2.466h2.412l1.476.126.126-.126Zm5.526-.162c-2.592,0-4.086,1.746-4.086,4.788,0,2.862,1.4,4.5,3.852,4.5,2.592,0,4.05-1.728,4.05-4.752C22.608-7.506,21.222-9.144,18.792-9.144Zm-.144,1.692c1.656,0,2.538,1.008,2.538,3.06,0,1.944-.864,2.916-2.52,2.916-1.692,0-2.52-1.008-2.52-3.006S16.974-7.452,18.648-7.452Z" transform="translate(-4048.5 -10576.996)"/>
    <path id="Caminho_773539" data-name="Caminho 773539" d="M4.86-9.144C2.268-9.144.774-7.4.774-4.356c0,2.862,1.4,4.5,3.852,4.5,2.592,0,4.05-1.728,4.05-4.752C8.676-7.506,7.29-9.144,4.86-9.144ZM4.716-7.452c1.656,0,2.538,1.008,2.538,3.06,0,1.944-.864,2.916-2.52,2.916-1.692,0-2.52-1.008-2.52-3.006S3.042-7.452,4.716-7.452Z" transform="translate(-4165.5 -10538.996)"/>
    <path id="Caminho_773540" data-name="Caminho 773540" d="M4.32-8.91l-.27-.2L.18-7.974v1.458l.162.108,2.2-.612.018,3.492L2.448,0H4.3l-.09-3.726Zm6.858-.234c-2.592,0-4.086,1.746-4.086,4.788,0,2.862,1.4,4.5,3.852,4.5,2.592,0,4.05-1.728,4.05-4.752C14.994-7.506,13.608-9.144,11.178-9.144Zm-.144,1.692c1.656,0,2.538,1.008,2.538,3.06,0,1.944-.864,2.916-2.52,2.916-1.692,0-2.52-1.008-2.52-3.006S9.36-7.452,11.034-7.452Zm9.594-1.692c-2.592,0-4.086,1.746-4.086,4.788,0,2.862,1.4,4.5,3.852,4.5,2.592,0,4.05-1.728,4.05-4.752C24.444-7.506,23.058-9.144,20.628-9.144Zm-.144,1.692c1.656,0,2.538,1.008,2.538,3.06,0,1.944-.864,2.916-2.52,2.916-1.692,0-2.52-1.008-2.52-3.006S18.81-7.452,20.484-7.452Z" transform="translate(-4107.5 -10538.996)"/>
    <path id="Caminho_773541" data-name="Caminho 773541" d="M4.23-9.108A5.487,5.487,0,0,0,.9-7.812L1.206-6.39h.2a3.579,3.579,0,0,1,2.43-1.152c.792,0,1.224.414,1.224.972,0,.7-.63,1.548-1.8,2.808L.792-1.17V-.036l.09.072L1.548,0H5.616L7.6.09,7.83-1.422,7.7-1.548,6.138-1.4H3.2l-.036-.09,1.6-1.818C6.21-4.932,6.858-6.048,6.858-7.02,6.858-8.3,5.742-9.108,4.23-9.108Zm8.946-.036C10.584-9.144,9.09-7.4,9.09-4.356c0,2.862,1.4,4.5,3.852,4.5,2.592,0,4.05-1.728,4.05-4.752C16.992-7.506,15.606-9.144,13.176-9.144Zm-.144,1.692c1.656,0,2.538,1.008,2.538,3.06,0,1.944-.864,2.916-2.52,2.916-1.692,0-2.52-1.008-2.52-3.006S11.358-7.452,13.032-7.452Zm9.594-1.692c-2.592,0-4.086,1.746-4.086,4.788,0,2.862,1.4,4.5,3.852,4.5,2.592,0,4.05-1.728,4.05-4.752C26.442-7.506,25.056-9.144,22.626-9.144Zm-.144,1.692c1.656,0,2.538,1.008,2.538,3.06,0,1.944-.864,2.916-2.52,2.916-1.692,0-2.52-1.008-2.52-3.006S20.808-7.452,22.482-7.452Z" transform="translate(-4025.5 -10538.996)"/>
    <path id="Caminho_773542" data-name="Caminho 773542" d="M3.528-9.126A4.854,4.854,0,0,0,.5-8.028l.27,1.386h.2a3.494,3.494,0,0,1,2.2-.99A1.249,1.249,0,0,1,4.59-6.372a1.982,1.982,0,0,1-2,1.818L1.8-4.536l-.054,1.26.108.126H2.988c1.332.054,2.034.63,2.034,1.62,0,1.152-.954,1.854-2.43,1.854a4.835,4.835,0,0,1-1.908-.4L.558.054l.09,1.512A12.458,12.458,0,0,0,2.5,1.728c2.556,0,4.266-1.368,4.266-3.4A2.394,2.394,0,0,0,4.68-4.05v-.072A3.028,3.028,0,0,0,6.444-6.768C6.444-8.172,5.274-9.126,3.528-9.126Zm8.892-.018c-2.592,0-4.086,1.746-4.086,4.788,0,2.862,1.4,4.5,3.852,4.5,2.592,0,4.05-1.728,4.05-4.752C16.236-7.506,14.85-9.144,12.42-9.144Zm-.144,1.692c1.656,0,2.538,1.008,2.538,3.06,0,1.944-.864,2.916-2.52,2.916-1.692,0-2.52-1.008-2.52-3.006S10.6-7.452,12.276-7.452ZM21.87-9.144c-2.592,0-4.086,1.746-4.086,4.788,0,2.862,1.4,4.5,3.852,4.5,2.592,0,4.05-1.728,4.05-4.752C25.686-7.506,24.3-9.144,21.87-9.144Zm-.144,1.692c1.656,0,2.538,1.008,2.538,3.06,0,1.944-.864,2.916-2.52,2.916-1.692,0-2.52-1.008-2.52-3.006S20.052-7.452,21.726-7.452Z" transform="translate(-3936.5 -10538.996)"/>
    <path id="Caminho_773543" data-name="Caminho 773543" d="M8.19-1.188l.09-1.3-.108-.162H6.552l.054-6.372H4.914L.432-2.538V-1.35l.126.162,1.35-.036H5.076L5.022,1.62l.108.126,1.4-.108.108-.144L6.57-1.224ZM2.034-2.646,4.95-6.876h.144v4.23Zm11.646-6.5c-2.592,0-4.086,1.746-4.086,4.788,0,2.862,1.4,4.5,3.852,4.5,2.592,0,4.05-1.728,4.05-4.752C17.5-7.506,16.11-9.144,13.68-9.144Zm-.144,1.692c1.656,0,2.538,1.008,2.538,3.06,0,1.944-.864,2.916-2.52,2.916-1.692,0-2.52-1.008-2.52-3.006S11.862-7.452,13.536-7.452ZM23.13-9.144c-2.592,0-4.086,1.746-4.086,4.788,0,2.862,1.4,4.5,3.852,4.5,2.592,0,4.05-1.728,4.05-4.752C26.946-7.506,25.56-9.144,23.13-9.144Zm-.144,1.692c1.656,0,2.538,1.008,2.538,3.06,0,1.944-.864,2.916-2.52,2.916-1.692,0-2.52-1.008-2.52-3.006S21.312-7.452,22.986-7.452Z" transform="translate(-3862.5 -10538.996)"/>
    <path id="Caminho_773531" data-name="Caminho 773531" d="M-93.4,0V-9.482L-86.317,0h2.6V-15.4h-3.124v9.46l-7.084-9.46H-96.5V0Zm20.064-17.182-5.148,3.344,1.144,1.848,5.478-2.706Zm3.234,6.4h-3.1c0,3.5-.11,8.448-2.75,8.448-1.364,0-1.628-1.43-1.628-2.354V-10.78h-3.08v7.106a3.685,3.685,0,0,0,3.916,4,4,4,0,0,0,3.784-2.794L-73.2,0h3.1Zm16.764-.33A3.957,3.957,0,0,0-57.057-8.4a3.2,3.2,0,0,0-3.322-2.706c-1.914,0-3.1,1.188-3.828,2.948l.264-2.618h-3.08V0h3.08c0-3.476.154-8.448,2.6-8.448,1.21,0,1.342,1.32,1.342,2.354V0h3.1c0-3.454.132-8.448,2.574-8.448,1.232,0,1.364,1.32,1.364,2.354V0h3.08V-6.952C-49.885-9.57-51.139-11.11-53.339-11.11Zm11.682,9a2.844,2.844,0,0,1-2.926-2.112l6.6-.77A5.685,5.685,0,0,0-37.7-6.8c0-2.728-1.98-4.312-4.62-4.312-3.124,0-5.39,2.2-5.39,5.676A5.445,5.445,0,0,0-41.877.33,6.636,6.636,0,0,0-37.961-.88l-1.144-2A4.938,4.938,0,0,1-41.657-2.112Zm-.484-6.622c.968,0,1.672.506,1.672,1.452a1.7,1.7,0,0,1-.066.55l-4.18.506A2.638,2.638,0,0,1-42.141-8.734Zm13.772-2.376c-2.376,0-3.564,1.76-4.18,4.114l.374-3.784h-3.08V0h3.08c0-3.564.22-7.92,3.146-7.92a3.491,3.491,0,0,1,1.1.2l.814-3.212A4.544,4.544,0,0,0-28.369-11.11ZM-20.559.33a5.441,5.441,0,0,0,5.632-5.72,5.429,5.429,0,0,0-5.632-5.72,5.434,5.434,0,0,0-5.654,5.72A5.446,5.446,0,0,0-20.559.33Zm0-2.508c-1.628,0-2.464-1.5-2.464-3.212S-22.187-8.6-20.559-8.6c1.606,0,2.442,1.5,2.442,3.212S-18.953-2.178-20.559-2.178Zm21.12-8.8A8.474,8.474,0,0,0-.957-11.11c-4.356,0-6.226,3.168-6.226,6.424C-7.183-1.738-5.665.33-3.157.33-1.133.33.121-1.122.891-3.08L.561,0h3.1V-15.928H.561ZM-2.211-2.156c-.99,0-1.76-.638-1.76-2.64,0-1.518.528-3.96,2.97-3.96a3.61,3.61,0,0,1,1.54.374C.363-5.5-.275-2.156-2.211-2.156Zm14.19.044A2.844,2.844,0,0,1,9.053-4.224l6.6-.77a5.685,5.685,0,0,0,.286-1.8c0-2.728-1.98-4.312-4.62-4.312-3.124,0-5.39,2.2-5.39,5.676A5.445,5.445,0,0,0,11.759.33,6.636,6.636,0,0,0,15.675-.88l-1.144-2A4.938,4.938,0,0,1,11.979-2.112Zm-.484-6.622c.968,0,1.672.506,1.672,1.452a1.7,1.7,0,0,1-.066.55l-4.18.506A2.638,2.638,0,0,1,11.495-8.734Zm18.9-1.518a10.432,10.432,0,0,1,1.078,4.378c0,1.8-.682,3.63-2.486,3.63-1.166,0-1.76-.748-1.76-2.178V-10.78h-3.08v6.688c0,2.6,1.87,4.4,4.818,4.4,3.784,0,5.654-2.926,5.654-6.182a14.105,14.105,0,0,0-1.21-5.214Zm12.166,8.14a2.844,2.844,0,0,1-2.926-2.112l6.6-.77a5.685,5.685,0,0,0,.286-1.8c0-2.728-1.98-4.312-4.62-4.312-3.124,0-5.39,2.2-5.39,5.676A5.445,5.445,0,0,0,42.339.33,6.636,6.636,0,0,0,46.255-.88l-1.144-2A4.938,4.938,0,0,1,42.559-2.112Zm-.484-6.622c.968,0,1.672.506,1.672,1.452a1.7,1.7,0,0,1-.066.55l-4.18.506A2.638,2.638,0,0,1,42.075-8.734ZM55.869-11.11c-2.09,0-3.344,1.276-4.092,3.146l.264-2.816h-3.08V0h3.08c0-3.5.2-8.448,2.882-8.448,1.364,0,1.5,1.452,1.5,2.354V0h3.1V-6.952C59.521-9.548,58.179-11.11,55.869-11.11Zm13.772.132a8.474,8.474,0,0,0-1.518-.132c-4.356,0-6.226,3.168-6.226,6.424C61.9-1.738,63.415.33,65.923.33c2.024,0,3.278-1.452,4.048-3.41L69.641,0h3.1V-15.928h-3.1ZM66.869-2.156c-.99,0-1.76-.638-1.76-2.64,0-1.518.528-3.96,2.97-3.96a3.61,3.61,0,0,1,1.54.374C69.443-5.5,68.8-2.156,66.869-2.156ZM81.433-11.11c-4.356,0-6.226,3.168-6.226,6.424,0,2.948,1.518,5.016,4.026,5.016,2.024,0,3.278-1.43,4.048-3.388L82.951,0h3.1V-9.7A8.088,8.088,0,0,0,81.433-11.11ZM80.179-2.156c-.99,0-1.76-.638-1.76-2.64,0-1.518.528-3.96,2.97-3.96a3.61,3.61,0,0,1,1.54.374C82.753-5.5,82.115-2.156,80.179-2.156ZM92.785.33c2.662,0,4.6-1.144,4.6-3.63,0-3.828-5.566-2.706-5.566-4.4,0-.7.88-.9,1.694-.9a5.752,5.752,0,0,1,2.684.66L97.251-10.1A8.551,8.551,0,0,0,93.2-11.11c-2.222,0-4.488.924-4.488,3.388,0,4.026,5.588,2.86,5.588,4.642,0,.594-.594.924-1.672.924A6.735,6.735,0,0,1,89.287-3.1L88.165-.858A9.414,9.414,0,0,0,92.785.33Z" transform="translate(-4308.5 -10822.494)"/>
    <path id="Caminho_773537" data-name="Caminho 773537" d="M8.58-7.81a3.813,3.813,0,0,0,2.42-3.7c0-3.08-2.75-4.224-5.478-4.224A9.718,9.718,0,0,0,.836-14.542l1.21,2.376a5.5,5.5,0,0,1,2.926-.858c1.43,0,2.662.484,2.662,1.826S6.38-9.02,3.872-9.02h-.66v2.442h.44c2.508,0,4.378.484,4.378,2.112,0,1.408-1.3,2-3.08,2a7.794,7.794,0,0,1-3.674-.924L.2-.968A10.077,10.077,0,0,0,5.258.33c3.278,0,6.116-1.562,6.116-4.554A3.591,3.591,0,0,0,8.58-7.81ZM20.614.33c4.312,0,6.842-3.5,6.842-8.03s-2.53-8.03-6.842-8.03c-4.334,0-6.864,3.5-6.864,8.03S16.28.33,20.614.33Zm0-2.75c-2.486,0-3.5-2.684-3.5-5.28s1.012-5.28,3.5-5.28,3.5,2.684,3.5,5.28S23.1-2.42,20.614-2.42ZM36.5.33c4.312,0,6.842-3.5,6.842-8.03s-2.53-8.03-6.842-8.03c-4.334,0-6.864,3.5-6.864,8.03S32.164.33,36.5.33Zm0-2.75C34.012-2.42,33-5.1,33-7.7s1.012-5.28,3.5-5.28S40-10.3,40-7.7,38.984-2.42,36.5-2.42Z" transform="translate(-3909.309 -10631.496)"/>
  </g>
</svg>
