<svg xmlns="http://www.w3.org/2000/svg" width="330" height="355" viewBox="0 0 330 355">
  <g id="_img_Tabela_4-mob_" data-name="&lt;img Tabela_4-mob&gt;" transform="translate(4716 9233)">
    <rect id="Retângulo_92784" data-name="Retângulo 92784" width="109.958" height="87" transform="translate(-4716 -9233)" fill="#0024a9"/>
    <rect id="Retângulo_124897" data-name="Retângulo 124897" width="109.958" height="87" transform="translate(-4606 -9233)" fill="#0024a9"/>
    <rect id="Retângulo_124898" data-name="Retângulo 124898" width="109.958" height="87" transform="translate(-4496 -9233)" fill="#0024a9"/>
    <path id="Caminho_772648" data-name="Caminho 772648" d="M6.48,14.24c-2.08,0-3.328-1.648-3.328-3.84S4.4,6.56,6.48,6.56a3.82,3.82,0,0,1,2.224.7l1.04-1.632A5.791,5.791,0,0,0,6.3,4.56C2.8,4.56.7,7.04.7,10.4c0,3.376,2.1,5.84,5.6,5.84a5.754,5.754,0,0,0,3.44-1.072L8.7,13.536A3.929,3.929,0,0,1,6.48,14.24Zm9.056-6.32c-3.168,0-4.528,2.3-4.528,4.672,0,2.144,1.1,3.648,2.928,3.648,1.472,0,2.384-1.04,2.944-2.464L16.64,16H18.9V8.944A5.882,5.882,0,0,0,15.536,7.92Zm-.912,6.512c-.72,0-1.28-.464-1.28-1.92,0-1.1.384-2.88,2.16-2.88a2.626,2.626,0,0,1,1.12.272C16.5,12,16.032,14.432,14.624,14.432ZM24.816,16.24a5.152,5.152,0,0,0,1.792-.336l-.464-1.76a2.287,2.287,0,0,1-.8.16c-.832,0-1.232-.5-1.232-1.488V9.936H26.3V8.16H24.112V5.712H22.624l-.16.864C22.224,7.84,22.1,8.16,20.656,8.16h-.24V9.936h1.456V13.2A2.714,2.714,0,0,0,24.816,16.24Zm7.152-1.776a2.069,2.069,0,0,1-2.128-1.536l4.8-.56a4.134,4.134,0,0,0,.208-1.312,3.068,3.068,0,0,0-3.36-3.136,3.821,3.821,0,0,0-3.92,4.128,3.96,3.96,0,0,0,4.24,4.192,4.826,4.826,0,0,0,2.848-.88L33.824,13.9A3.591,3.591,0,0,1,31.968,14.464Zm-.352-4.816c.7,0,1.216.368,1.216,1.056a1.236,1.236,0,0,1-.048.4l-3.04.368A1.919,1.919,0,0,1,31.616,9.648ZM40.784,7.92c-3.168,0-4.528,2.3-4.528,4.672,0,2.144,1.1,3.648,2.928,3.648,1.44,0,2.352-1.008,2.912-2.4v1.488c0,1.68-.9,2.48-2.288,2.48a3.972,3.972,0,0,1-2.144-.656l-.992,1.6a5.785,5.785,0,0,0,3.184.912,4.027,4.027,0,0,0,4.288-4.336V8.944A5.882,5.882,0,0,0,40.784,7.92Zm-.912,6.512c-.72,0-1.28-.464-1.28-1.92,0-1.1.384-2.88,2.16-2.88a2.412,2.412,0,0,1,1.12.272C41.744,12,41.3,14.432,39.872,14.432Zm10.1,1.808a3.957,3.957,0,0,0,4.1-4.16,4.1,4.1,0,1,0-8.208,0A3.961,3.961,0,0,0,49.968,16.24Zm0-1.824c-1.184,0-1.792-1.088-1.792-2.336s.608-2.336,1.792-2.336c1.168,0,1.776,1.088,1.776,2.336S51.136,14.416,49.968,14.416Zm10.8-6.5c-1.728,0-2.592,1.28-3.04,2.992L58,8.16H55.76V16H58c0-2.592.16-5.76,2.288-5.76a2.539,2.539,0,0,1,.8.144l.592-2.336A3.3,3.3,0,0,0,60.768,7.92Zm3.392-.864a1.466,1.466,0,0,0,1.5-1.52,1.512,1.512,0,1,0-3.024,0A1.47,1.47,0,0,0,64.16,7.056ZM65.28,16V8.16H63.04V16Zm6.384-8.08c-3.168,0-4.528,2.3-4.528,4.672,0,2.144,1.1,3.648,2.928,3.648,1.472,0,2.384-1.04,2.944-2.464L72.768,16h2.256V8.944A5.882,5.882,0,0,0,71.664,7.92Zm-.912,6.512c-.72,0-1.28-.464-1.28-1.92,0-1.1.384-2.88,2.16-2.88a2.626,2.626,0,0,1,1.12.272C72.624,12,72.16,14.432,70.752,14.432ZM6.368,32.016a6.163,6.163,0,0,0-1.1-.1c-3.168,0-4.528,2.3-4.528,4.672,0,2.144,1.1,3.648,2.928,3.648,1.472,0,2.384-1.056,2.944-2.48L6.368,40H8.624V28.416H6.368ZM4.352,38.432c-.72,0-1.28-.464-1.28-1.92,0-1.1.384-2.88,2.16-2.88a2.626,2.626,0,0,1,1.12.272C6.224,36,5.76,38.432,4.352,38.432Zm10.32.032a2.069,2.069,0,0,1-2.128-1.536l4.8-.56a4.134,4.134,0,0,0,.208-1.312,3.068,3.068,0,0,0-3.36-3.136,3.821,3.821,0,0,0-3.92,4.128,3.96,3.96,0,0,0,4.24,4.192,4.826,4.826,0,0,0,2.848-.88L16.528,37.9A3.591,3.591,0,0,1,14.672,38.464Zm-.352-4.816c.7,0,1.216.368,1.216,1.056a1.236,1.236,0,0,1-.048.4l-3.04.368A1.919,1.919,0,0,1,14.32,33.648ZM26.992,28.56a19.549,19.549,0,0,0-3.216.3V40h2.352V36.4c.32.016.64.032.912.032,3.44,0,5.12-1.6,5.12-3.936C32.16,30.176,30.48,28.56,26.992,28.56Zm.048,5.9q-.408,0-.912-.048v-3.84q.5-.048.912-.048c1.776,0,2.672.7,2.672,1.968C29.712,33.776,28.816,34.464,27.04,34.464ZM38.784,31.92c-1.728,0-2.592,1.28-3.04,2.992l.272-2.752h-2.24V40h2.24c0-2.592.16-5.76,2.288-5.76a2.539,2.539,0,0,1,.8.144l.592-2.336A3.3,3.3,0,0,0,38.784,31.92Zm5.68,8.32a3.957,3.957,0,0,0,4.1-4.16,4.1,4.1,0,1,0-8.208,0A3.961,3.961,0,0,0,44.464,40.24Zm0-1.824c-1.184,0-1.792-1.088-1.792-2.336s.608-2.336,1.792-2.336c1.168,0,1.776,1.088,1.776,2.336S45.632,38.416,44.464,38.416Zm11.04-6.4a6.163,6.163,0,0,0-1.1-.1c-3.168,0-4.528,2.3-4.528,4.672,0,2.144,1.1,3.648,2.928,3.648,1.472,0,2.384-1.056,2.944-2.48L55.5,40H57.76V28.416H55.5Zm-2.016,6.416c-.72,0-1.28-.464-1.28-1.92,0-1.1.384-2.88,2.16-2.88a2.626,2.626,0,0,1,1.12.272C55.36,36,54.9,38.432,53.488,38.432Zm14-6.272H65.232c0,2.544-.08,6.144-2,6.144-.992,0-1.184-1.04-1.184-1.712V32.16h-2.24v5.168a2.68,2.68,0,0,0,2.848,2.912,2.91,2.91,0,0,0,2.752-2.032L65.232,40h2.256Zm5.92,8.08A5.152,5.152,0,0,0,75.2,39.9l-.464-1.76a2.287,2.287,0,0,1-.8.16c-.832,0-1.232-.5-1.232-1.488v-2.88H74.9V32.16H72.7V29.712H71.216l-.16.864c-.24,1.264-.368,1.584-1.808,1.584h-.24v1.776h1.456V37.2A2.714,2.714,0,0,0,73.408,40.24Zm6.864,0a3.957,3.957,0,0,0,4.1-4.16,4.1,4.1,0,1,0-8.208,0A3.961,3.961,0,0,0,80.272,40.24Zm0-1.824c-1.184,0-1.792-1.088-1.792-2.336s.608-2.336,1.792-2.336c1.168,0,1.776,1.088,1.776,2.336S81.44,38.416,80.272,38.416Z" transform="translate(-4708 -9212)" fill="#fff"/>
    <path id="Caminho_772649" data-name="Caminho 772649" d="M11.376,16,6.768,4.8H4.912L.288,16H2.672l.912-2.3H8.1L9.008,16ZM5.84,8.016,7.36,11.84H4.32Zm10.9.528a7.587,7.587,0,0,1,.784,3.184c0,1.312-.5,2.64-1.808,2.64-.848,0-1.28-.544-1.28-1.584V8.16h-2.24v4.864a3.171,3.171,0,0,0,3.5,3.2c2.752,0,4.112-2.128,4.112-4.5a10.259,10.259,0,0,0-.88-3.792Zm9.12-.624c-3.168,0-4.528,2.3-4.528,4.672,0,2.144,1.1,3.648,2.928,3.648,1.472,0,2.384-1.04,2.944-2.464L26.96,16h2.256V8.944A5.882,5.882,0,0,0,25.856,7.92Zm-.912,6.512c-.72,0-1.28-.464-1.28-1.92,0-1.1.384-2.88,2.16-2.88a2.626,2.626,0,0,1,1.12.272C26.816,12,26.352,14.432,24.944,14.432Zm9.168,1.792a4.462,4.462,0,0,0,1.568-.32l-.464-1.776a1.063,1.063,0,0,1-.576.16c-.752,0-.944-.576-.944-1.456V4.416h-2.24v8.8C31.456,15.056,32.32,16.224,34.112,16.224Zm4.336-9.168a1.466,1.466,0,0,0,1.5-1.52,1.512,1.512,0,1,0-3.024,0A1.47,1.47,0,0,0,38.448,7.056ZM39.568,16V8.16h-2.24V16Zm6.384-8.08c-3.168,0-4.528,2.3-4.528,4.672,0,2.144,1.1,3.648,2.928,3.648,1.472,0,2.384-1.04,2.944-2.464L47.056,16h2.256V8.944A5.882,5.882,0,0,0,45.952,7.92Zm-.912,6.512c-.72,0-1.28-.464-1.28-1.92,0-1.1.384-2.88,2.16-2.88a2.626,2.626,0,0,1,1.12.272C46.912,12,46.448,14.432,45.04,14.432Zm11.7-.544a2.392,2.392,0,0,1-1.36.416,2.021,2.021,0,0,1-2.032-2.224,2.021,2.021,0,0,1,2.032-2.224,2.392,2.392,0,0,1,1.36.416l1.008-1.6A4.508,4.508,0,0,0,55.2,7.92a3.926,3.926,0,0,0-4.176,4.16,3.863,3.863,0,0,0,2.96,4.016l-.464,1.568c.944,0,1.264.176,1.264.5,0,.368-.448.464-.832.464a2.63,2.63,0,0,1-.736-.112L52.8,19.744a4.283,4.283,0,0,0,1.488.24c1.392,0,2.512-.56,2.512-1.712,0-.976-.768-1.344-1.536-1.472l.144-.56a4.415,4.415,0,0,0,2.336-.768ZM62.56,6.176c.56,0,1.024.688,2,.688.944,0,1.6-.7,2-1.936l-1.616-.592c-.224.432-.384.672-.7.672-.544,0-1.056-.688-2.016-.688s-1.616.7-2.016,1.936l1.648.592C62.064,6.4,62.24,6.176,62.56,6.176Zm.88,1.744c-3.168,0-4.528,2.3-4.528,4.672,0,2.144,1.1,3.648,2.928,3.648,1.472,0,2.384-1.04,2.944-2.464L64.544,16H66.8V8.944A5.882,5.882,0,0,0,63.44,7.92Zm-.912,6.512c-.72,0-1.28-.464-1.28-1.92,0-1.1.384-2.88,2.16-2.88a2.626,2.626,0,0,1,1.12.272C64.4,12,63.936,14.432,62.528,14.432Zm10.1,1.808a3.957,3.957,0,0,0,4.1-4.16,4.1,4.1,0,1,0-8.208,0A3.961,3.961,0,0,0,72.624,16.24Zm0-1.824c-1.184,0-1.792-1.088-1.792-2.336s.608-2.336,1.792-2.336c1.168,0,1.776,1.088,1.776,2.336S73.792,14.416,72.624,14.416ZM3.392,40l.352-6.336,2.624,4.672h1.5l2.64-4.672L10.864,40h2.224l-.624-11.2H10.64L7.12,35.312,3.616,28.8H1.792L1.168,40ZM19.856,27.52l-3.728,2.432L16.96,31.3l3.968-1.968Zm-.624,10.944A2.069,2.069,0,0,1,17.1,36.928l4.8-.56a4.134,4.134,0,0,0,.208-1.312,3.068,3.068,0,0,0-3.36-3.136,3.821,3.821,0,0,0-3.92,4.128,3.96,3.96,0,0,0,4.24,4.192,4.826,4.826,0,0,0,2.848-.88L21.088,37.9A3.591,3.591,0,0,1,19.232,38.464Zm-.352-4.816c.7,0,1.216.368,1.216,1.056a1.236,1.236,0,0,1-.048.4l-3.04.368A1.919,1.919,0,0,1,18.88,33.648Zm10.272-1.632a6.163,6.163,0,0,0-1.1-.1c-3.168,0-4.528,2.3-4.528,4.672,0,2.144,1.1,3.648,2.928,3.648,1.472,0,2.384-1.056,2.944-2.48L29.152,40h2.256V28.416H29.152Zm-2.016,6.416c-.72,0-1.28-.464-1.28-1.92,0-1.1.384-2.88,2.16-2.88a2.626,2.626,0,0,1,1.12.272C29.008,36,28.544,38.432,27.136,38.432ZM34.7,31.056a1.528,1.528,0,1,0-1.52-1.52A1.466,1.466,0,0,0,34.7,31.056ZM35.824,40V32.16h-2.24V40Zm6.384-8.08c-3.168,0-4.528,2.3-4.528,4.672,0,2.144,1.1,3.648,2.928,3.648,1.472,0,2.384-1.04,2.944-2.464L43.312,40h2.256V32.944A5.882,5.882,0,0,0,42.208,31.92ZM41.3,38.432c-.72,0-1.28-.464-1.28-1.92,0-1.1.384-2.88,2.16-2.88a2.626,2.626,0,0,1,1.12.272C43.168,36,42.7,38.432,41.3,38.432Zm16.08-6.416a6.163,6.163,0,0,0-1.1-.1c-3.168,0-4.528,2.3-4.528,4.672,0,2.144,1.1,3.648,2.928,3.648,1.472,0,2.384-1.056,2.944-2.48L57.376,40h2.256V28.416H57.376ZM55.36,38.432c-.72,0-1.28-.464-1.28-1.92,0-1.1.384-2.88,2.16-2.88a2.626,2.626,0,0,1,1.12.272C57.232,36,56.768,38.432,55.36,38.432ZM65.392,40.24a3.957,3.957,0,0,0,4.1-4.16,4.1,4.1,0,1,0-8.208,0A3.961,3.961,0,0,0,65.392,40.24Zm0-1.824c-1.184,0-1.792-1.088-1.792-2.336s.608-2.336,1.792-2.336c1.168,0,1.776,1.088,1.776,2.336S66.56,38.416,65.392,38.416ZM73.84,40.24c1.936,0,3.344-.832,3.344-2.64,0-2.784-4.048-1.968-4.048-3.2,0-.512.64-.656,1.232-.656a4.183,4.183,0,0,1,1.952.48l.768-1.568a6.219,6.219,0,0,0-2.944-.736c-1.616,0-3.264.672-3.264,2.464,0,2.928,4.064,2.08,4.064,3.376,0,.432-.432.672-1.216.672a4.9,4.9,0,0,1-2.432-.688l-.816,1.632A6.847,6.847,0,0,0,73.84,40.24Zm-67.36,22c-2.08,0-3.328-1.648-3.328-3.84S4.4,54.56,6.48,54.56a3.82,3.82,0,0,1,2.224.7l1.04-1.632A5.791,5.791,0,0,0,6.3,52.56C2.8,52.56.7,55.04.7,58.4c0,3.376,2.1,5.84,5.6,5.84a5.754,5.754,0,0,0,3.44-1.072L8.7,61.536A3.929,3.929,0,0,1,6.48,62.24Zm8.048,1.984A4.462,4.462,0,0,0,16.1,63.9l-.464-1.776a1.063,1.063,0,0,1-.576.16c-.752,0-.944-.576-.944-1.456V52.416h-2.24v8.8C11.872,63.056,12.736,64.224,14.528,64.224Zm4.336-9.168a1.528,1.528,0,1,0-1.52-1.52A1.466,1.466,0,0,0,18.864,55.056ZM19.984,64V56.16h-2.24V64ZM26.1,62.464a2.069,2.069,0,0,1-2.128-1.536l4.8-.56a4.134,4.134,0,0,0,.208-1.312,3.068,3.068,0,0,0-3.36-3.136,3.821,3.821,0,0,0-3.92,4.128,3.96,3.96,0,0,0,4.24,4.192,4.826,4.826,0,0,0,2.848-.88L27.952,61.9A3.591,3.591,0,0,1,26.1,62.464Zm-.352-4.816c.7,0,1.216.368,1.216,1.056a1.236,1.236,0,0,1-.048.4l-3.04.368A1.919,1.919,0,0,1,25.744,57.648ZM35.776,55.92A3.121,3.121,0,0,0,32.8,58.208l.192-2.048h-2.24V64h2.24c0-2.544.144-6.144,2.1-6.144.992,0,1.088,1.056,1.088,1.712V64h2.256V58.944C38.432,57.056,37.456,55.92,35.776,55.92Zm8.448,8.32a5.152,5.152,0,0,0,1.792-.336l-.464-1.76a2.287,2.287,0,0,1-.8.16c-.832,0-1.232-.5-1.232-1.488v-2.88h2.192V56.16H43.52V53.712H42.032l-.16.864c-.24,1.264-.368,1.584-1.808,1.584h-.24v1.776H41.28V61.2A2.714,2.714,0,0,0,44.224,64.24Zm7.152-1.776a2.069,2.069,0,0,1-2.128-1.536l4.8-.56a4.134,4.134,0,0,0,.208-1.312A3.068,3.068,0,0,0,50.9,55.92a3.821,3.821,0,0,0-3.92,4.128,3.96,3.96,0,0,0,4.24,4.192,4.826,4.826,0,0,0,2.848-.88L53.232,61.9A3.591,3.591,0,0,1,51.376,62.464Zm-.352-4.816c.7,0,1.216.368,1.216,1.056a1.236,1.236,0,0,1-.048.4l-3.04.368A1.919,1.919,0,0,1,51.024,57.648Zm7.664,6.592c1.936,0,3.344-.832,3.344-2.64,0-2.784-4.048-1.968-4.048-3.2,0-.512.64-.656,1.232-.656a4.183,4.183,0,0,1,1.952.48l.768-1.568a6.219,6.219,0,0,0-2.944-.736c-1.616,0-3.264.672-3.264,2.464,0,2.928,4.064,2.08,4.064,3.376,0,.432-.432.672-1.216.672a4.9,4.9,0,0,1-2.432-.688l-.816,1.632A6.847,6.847,0,0,0,58.688,64.24Z" transform="translate(-4598 -9224)" fill="#fff"/>
    <path id="Caminho_772650" data-name="Caminho 772650" d="M4.464,4.56a19.549,19.549,0,0,0-3.216.3V16H3.6V12.4c.32.016.64.032.912.032,3.44,0,5.12-1.6,5.12-3.936C9.632,6.176,7.952,4.56,4.464,4.56Zm.048,5.9q-.408,0-.912-.048V6.576q.5-.048.912-.048c1.776,0,2.672.7,2.672,1.968C7.184,9.776,6.288,10.464,4.512,10.464ZM16.256,7.92c-1.728,0-2.592,1.28-3.04,2.992l.272-2.752h-2.24V16h2.24c0-2.592.16-5.76,2.288-5.76a2.539,2.539,0,0,1,.8.144l.592-2.336A3.3,3.3,0,0,0,16.256,7.92Zm5.68,8.32a3.957,3.957,0,0,0,4.1-4.16,3.948,3.948,0,0,0-4.1-4.16,3.952,3.952,0,0,0-4.112,4.16A3.961,3.961,0,0,0,21.936,16.24Zm0-1.824c-1.184,0-1.792-1.088-1.792-2.336s.608-2.336,1.792-2.336c1.168,0,1.776,1.088,1.776,2.336S23.1,14.416,21.936,14.416Zm11.04-6.4a6.163,6.163,0,0,0-1.1-.1c-3.168,0-4.528,2.3-4.528,4.672,0,2.144,1.1,3.648,2.928,3.648,1.472,0,2.384-1.056,2.944-2.48L32.976,16h2.256V4.416H32.976ZM30.96,14.432c-.72,0-1.28-.464-1.28-1.92,0-1.1.384-2.88,2.16-2.88a2.626,2.626,0,0,1,1.12.272C32.832,12,32.368,14.432,30.96,14.432Zm14-6.272H42.7c0,2.544-.08,6.144-2,6.144-.992,0-1.184-1.04-1.184-1.712V8.16H37.28v5.168a2.68,2.68,0,0,0,2.848,2.912,2.91,2.91,0,0,0,2.752-2.032L42.7,16H44.96Zm5.92,8.08a5.152,5.152,0,0,0,1.792-.336l-.464-1.76a2.287,2.287,0,0,1-.8.16c-.832,0-1.232-.5-1.232-1.488V9.936h2.192V8.16H50.176V5.712H48.688l-.16.864C48.288,7.84,48.16,8.16,46.72,8.16h-.24V9.936h1.456V13.2A2.714,2.714,0,0,0,50.88,16.24Zm6.864,0a3.957,3.957,0,0,0,4.1-4.16,4.1,4.1,0,1,0-8.208,0A3.961,3.961,0,0,0,57.744,16.24Zm0-1.824c-1.184,0-1.792-1.088-1.792-2.336s.608-2.336,1.792-2.336c1.168,0,1.776,1.088,1.776,2.336S58.912,14.416,57.744,14.416Z" transform="translate(-4488 -9199)" fill="#fff"/>
    <g id="Retângulo_125067" data-name="Retângulo 125067" transform="translate(-4716 -9146)" fill="none" stroke="#0023a2" stroke-width="1">
      <rect width="110" height="90" stroke="none"/>
      <rect x="0.5" y="0.5" width="109" height="89" fill="none"/>
    </g>
    <g id="Retângulo_125072" data-name="Retângulo 125072" transform="translate(-4716 -9057)" fill="none" stroke="#0023a2" stroke-width="1">
      <rect width="110" height="90" stroke="none"/>
      <rect x="0.5" y="0.5" width="109" height="89" fill="none"/>
    </g>
    <g id="Retângulo_125075" data-name="Retângulo 125075" transform="translate(-4716 -8968)" fill="none" stroke="#0023a2" stroke-width="1">
      <rect width="110" height="90" stroke="none"/>
      <rect x="0.5" y="0.5" width="109" height="89" fill="none"/>
    </g>
    <g id="Retângulo_125068" data-name="Retângulo 125068" transform="translate(-4607 -9146)" fill="none" stroke="#0023a2" stroke-width="1">
      <rect width="112" height="90" stroke="none"/>
      <rect x="0.5" y="0.5" width="111" height="89" fill="none"/>
    </g>
    <g id="Retângulo_125071" data-name="Retângulo 125071" transform="translate(-4607 -9057)" fill="none" stroke="#0023a2" stroke-width="1">
      <rect width="112" height="90" stroke="none"/>
      <rect x="0.5" y="0.5" width="111" height="89" fill="none"/>
    </g>
    <g id="Retângulo_125074" data-name="Retângulo 125074" transform="translate(-4607 -8968)" fill="none" stroke="#0023a2" stroke-width="1">
      <rect width="112" height="90" stroke="none"/>
      <rect x="0.5" y="0.5" width="111" height="89" fill="none"/>
    </g>
    <g id="Retângulo_125069" data-name="Retângulo 125069" transform="translate(-4496 -9146)" fill="none" stroke="#0023a2" stroke-width="1">
      <rect width="110" height="90" stroke="none"/>
      <rect x="0.5" y="0.5" width="109" height="89" fill="none"/>
    </g>
    <g id="Retângulo_125070" data-name="Retângulo 125070" transform="translate(-4496 -9057)" fill="none" stroke="#0023a2" stroke-width="1">
      <rect width="110" height="90" stroke="none"/>
      <rect x="0.5" y="0.5" width="109" height="89" fill="none"/>
    </g>
    <g id="Retângulo_125073" data-name="Retângulo 125073" transform="translate(-4496 -8968)" fill="none" stroke="#0023a2" stroke-width="1">
      <rect width="110" height="90" stroke="none"/>
      <rect x="0.5" y="0.5" width="109" height="89" fill="none"/>
    </g>
    <path id="Caminho_772651" data-name="Caminho 772651" d="M5.886,4.318C2.538,4.318.612,6.478.612,10.33c0,3.726,1.818,5.814,5.058,5.814a6.691,6.691,0,0,0,3.06-.756L8.874,13.7l-.18-.108a4.847,4.847,0,0,1-2.88.99c-2.07,0-3.258-1.512-3.258-4.446,0-2.844,1.152-4.266,3.258-4.266A4.278,4.278,0,0,1,8.478,6.8l.18-.054L9,5.11A6.1,6.1,0,0,0,5.886,4.318ZM13.608,7.54a5.768,5.768,0,0,0-3.24,1.08L10.6,9.9l.144.09A4.1,4.1,0,0,1,13.32,8.836a1.185,1.185,0,0,1,1.3,1.35l-.018.972-2.844.63a1.918,1.918,0,0,0-1.746,2c0,1.44.99,2.34,2.664,2.358a5.271,5.271,0,0,0,1.872-1.35h.126a1.4,1.4,0,0,0,1.314,1.332,2.933,2.933,0,0,0,1.134-.4l.18-1.008-.162-.126a2.753,2.753,0,0,1-.54.072c-.378,0-.522-.144-.522-.612,0-.612.216-3.636.216-4.266C16.29,8.368,15.246,7.54,13.608,7.54Zm.99,4.68-.054,1.386a2.542,2.542,0,0,1-1.8,1.1,1.037,1.037,0,0,1-1.1-1.152.664.664,0,0,1,.612-.774ZM29.214,16h1.854l-.09-3.636.054-2.34c.018-1.548-.936-2.43-2.79-2.43a6.528,6.528,0,0,0-2.376,1.35h-.108a2.527,2.527,0,0,0-2.592-1.35,5.977,5.977,0,0,0-2.214,1.278h-.126l.018-1.206L19.1,7.828l.09,4.7L19.08,16H20.9l-.09-3.636.018-2.2a3.229,3.229,0,0,1,2.16-1.08c.864,0,1.3.558,1.278,1.458L24.138,16h1.836L25.9,12.364l.036-2.232a3.174,3.174,0,0,1,2.124-1.044c.864,0,1.3.558,1.278,1.458ZM34.452,3.832a.973.973,0,0,0-1.044,1.044.914.914,0,0,0,.99,1.008.97.97,0,0,0,1.008-1.062A.89.89,0,0,0,34.452,3.832Zm.72,8.532.144-4.7-1.836.162.09,4.7L33.462,16H35.3Zm5.2-4.806c-1.908,0-3.024,1.08-3.024,2.5,0,2.61,3.726,2.268,3.726,3.8A1.151,1.151,0,0,1,39.8,14.92a3.8,3.8,0,0,1-2.3-.972l-.2.126L37.08,15.6a6.518,6.518,0,0,0,2.52.558c2.07,0,3.114-1.278,3.114-2.61,0-2.538-3.726-2.214-3.726-3.726a1.051,1.051,0,0,1,1.17-.99,3.357,3.357,0,0,1,1.836.63l.234-.054.252-1.44A5.7,5.7,0,0,0,40.374,7.558Zm10.278,4.374.306-.288a7.013,7.013,0,0,0,.072-.9,2.847,2.847,0,0,0-3.024-3.186c-2.412,0-3.978,1.638-3.978,4.338,0,2.628,1.44,4.266,3.924,4.266a5.842,5.842,0,0,0,2.52-.612l.216-1.458-.162-.108a4.941,4.941,0,0,1-2.43.756c-1.584,0-2.34-1.026-2.376-2.808Zm-1.3-1.206-3.546.09a2.11,2.11,0,0,1,2.088-2c.9,0,1.494.522,1.494,1.692Zm6.5,3.888c-.738,0-1.062-.288-1.044-1.188l.09-4.518h2.322l.09-1.044-.072-.126h-2.3l.036-1.782-.162-.144-1.62.612V7.738h-1.1L52,8.8l.072.108h1.134l.018,3.51-.072,1.3a2.148,2.148,0,0,0,2.124,2.394,5.2,5.2,0,0,0,1.836-.54l.18-1.152-.18-.126A2.838,2.838,0,0,1,55.854,14.614Zm5.94-7.074a5.768,5.768,0,0,0-3.24,1.08L58.788,9.9l.144.09a4.1,4.1,0,0,1,2.574-1.152,1.185,1.185,0,0,1,1.3,1.35l-.018.972-2.844.63a1.918,1.918,0,0,0-1.746,2c0,1.44.99,2.34,2.664,2.358a5.271,5.271,0,0,0,1.872-1.35h.126a1.4,1.4,0,0,0,1.314,1.332,2.933,2.933,0,0,0,1.134-.4l.18-1.008-.162-.126a2.753,2.753,0,0,1-.54.072c-.378,0-.522-.144-.522-.612,0-.612.216-3.636.216-4.266C64.476,8.368,63.432,7.54,61.794,7.54Zm.99,4.68-.054,1.386a2.542,2.542,0,0,1-1.8,1.1,1.037,1.037,0,0,1-1.1-1.152.664.664,0,0,1,.612-.774Zm6.984-4.662c-1.908,0-3.024,1.08-3.024,2.5,0,2.61,3.726,2.268,3.726,3.8a1.151,1.151,0,0,1-1.278,1.062,3.8,3.8,0,0,1-2.3-.972l-.2.126-.216,1.53a6.518,6.518,0,0,0,2.52.558c2.07,0,3.114-1.278,3.114-2.61,0-2.538-3.726-2.214-3.726-3.726a1.051,1.051,0,0,1,1.17-.99,3.357,3.357,0,0,1,1.836.63l.234-.054.252-1.44A5.7,5.7,0,0,0,69.768,7.558ZM4.464,33.54c-2.376,0-3.8,1.674-3.8,4.392,0,2.628,1.332,4.23,3.582,4.23a6.427,6.427,0,0,0,2.2-.414l.18-1.476-.162-.108a4.329,4.329,0,0,1-1.926.54c-1.368,0-2.142-1.08-2.142-2.916,0-1.746.756-2.736,2.034-2.736a3.568,3.568,0,0,1,1.764.558l.18-.072.306-1.53A5.4,5.4,0,0,0,4.464,33.54Zm6.984,0c-2.484,0-3.87,1.6-3.87,4.446,0,2.664,1.314,4.176,3.636,4.176,2.484,0,3.87-1.6,3.87-4.446C15.084,35.052,13.77,33.54,11.448,33.54Zm-.108,1.278c1.35,0,2.034,1.044,2.034,3.312,0,1.89-.684,2.772-2.034,2.772-1.368,0-2.052-1.026-2.052-3.312C9.288,35.736,9.972,34.818,11.34,34.818ZM27.18,42h1.854l-.09-3.636L29,36.024c.018-1.548-.936-2.43-2.79-2.43a6.528,6.528,0,0,0-2.376,1.35h-.108a2.527,2.527,0,0,0-2.592-1.35,5.977,5.977,0,0,0-2.214,1.278h-.126l.018-1.206-1.746.162.09,4.7L17.046,42h1.818l-.09-3.636.018-2.2a3.229,3.229,0,0,1,2.16-1.08c.864,0,1.3.558,1.278,1.458L22.1,42H23.94l-.072-3.636.036-2.232a3.174,3.174,0,0,1,2.124-1.044c.864,0,1.3.558,1.278,1.458ZM38.16,29.328c-2.07,0-3.276,1.116-3.258,3.168l.018,1.242H33.7l-.09,1.062.072.108H34.92l.036,3.6L34.848,42h1.836l-.126-3.654.054-3.438H38.7l.108-1.044-.054-.126H36.63l.018-1.548c.018-1.044.5-1.548,1.35-1.548a3.3,3.3,0,0,1,1.386.342l.126-.108.108-1.386A6.955,6.955,0,0,0,38.16,29.328Zm5.94,4.356a2.655,2.655,0,0,0-2.268,1.638h-.126l.018-1.656-1.746.162.108,4.7L39.96,42H41.8l-.126-3.636.018-1.188c.63-1.242,1.26-1.746,2-1.746a2.519,2.519,0,0,1,.666.09l.2-.054V33.72A3.506,3.506,0,0,0,44.1,33.684Zm4.644-.144a5.768,5.768,0,0,0-3.24,1.08l.234,1.278.144.09a4.1,4.1,0,0,1,2.574-1.152,1.185,1.185,0,0,1,1.3,1.35l-.018.972-2.844.63a1.918,1.918,0,0,0-1.746,2c0,1.44.99,2.34,2.664,2.358a5.271,5.271,0,0,0,1.872-1.35h.126a1.4,1.4,0,0,0,1.314,1.332,2.933,2.933,0,0,0,1.134-.4l.18-1.008-.162-.126a2.753,2.753,0,0,1-.54.072c-.378,0-.522-.144-.522-.612,0-.612.216-3.636.216-4.266C51.426,34.368,50.382,33.54,48.744,33.54Zm.99,4.68-.054,1.386a2.542,2.542,0,0,1-1.8,1.1,1.037,1.037,0,0,1-1.1-1.152.664.664,0,0,1,.612-.774Zm6.984-4.662c-1.908,0-3.024,1.08-3.024,2.5,0,2.61,3.726,2.268,3.726,3.8a1.151,1.151,0,0,1-1.278,1.062,3.8,3.8,0,0,1-2.3-.972l-.2.126-.216,1.53a6.518,6.518,0,0,0,2.52.558c2.07,0,3.114-1.278,3.114-2.61,0-2.538-3.726-2.214-3.726-3.726a1.051,1.051,0,0,1,1.17-.99,3.357,3.357,0,0,1,1.836.63l.234-.054.252-1.44A5.7,5.7,0,0,0,56.718,33.558ZM67,37.932l.306-.288a7.013,7.013,0,0,0,.072-.9,2.847,2.847,0,0,0-3.024-3.186c-2.412,0-3.978,1.638-3.978,4.338,0,2.628,1.44,4.266,3.924,4.266a5.842,5.842,0,0,0,2.52-.612l.216-1.458-.162-.108a4.941,4.941,0,0,1-2.43.756c-1.584,0-2.34-1.026-2.376-2.808Zm-1.3-1.206-3.546.09a2.11,2.11,0,0,1,2.088-2c.9,0,1.494.522,1.494,1.692Zm6.066-3.168c-1.908,0-3.024,1.08-3.024,2.5,0,2.61,3.726,2.268,3.726,3.8A1.151,1.151,0,0,1,71.19,40.92a3.8,3.8,0,0,1-2.3-.972l-.2.126-.216,1.53a6.518,6.518,0,0,0,2.52.558c2.07,0,3.114-1.278,3.114-2.61,0-2.538-3.726-2.214-3.726-3.726a1.051,1.051,0,0,1,1.17-.99,3.357,3.357,0,0,1,1.836.63l.234-.054.252-1.44A5.7,5.7,0,0,0,71.766,33.558ZM7.776,64.346l.144-8.982-1.836.144L6.12,59.7a7.586,7.586,0,0,0-1.4-.144c-2.538,0-4.086,1.548-4.086,4.32,0,2.664,1.314,4.23,3.726,4.23a7.351,7.351,0,0,0,1.872-1.242h.144A1.425,1.425,0,0,0,7.7,68.126a2.917,2.917,0,0,0,1.152-.4l.162-1.008L8.856,66.6a2.6,2.6,0,0,1-.558.072c-.342,0-.45-.144-.468-.594Zm-3.24-3.528a3.717,3.717,0,0,1,1.6.414l.054,3.276-.036,1.17a2.3,2.3,0,0,1-1.764.936c-1.26,0-2.016-1.026-2.034-2.952C2.322,61.736,3.186,60.818,4.536,60.818ZM13.9,59.54c-2.484,0-3.87,1.6-3.87,4.446,0,2.664,1.314,4.176,3.636,4.176,2.484,0,3.87-1.6,3.87-4.446C17.532,61.052,16.218,59.54,13.9,59.54Zm-.108,1.278c1.35,0,2.034,1.044,2.034,3.312,0,1.89-.684,2.772-2.034,2.772-1.368,0-2.052-1.026-2.052-3.312C11.736,61.736,12.42,60.818,13.788,60.818ZM22,59.558c-1.908,0-3.024,1.08-3.024,2.5,0,2.61,3.726,2.268,3.726,3.8A1.151,1.151,0,0,1,21.42,66.92a3.8,3.8,0,0,1-2.3-.972l-.2.126L18.7,67.6a6.518,6.518,0,0,0,2.52.558c2.07,0,3.114-1.278,3.114-2.61,0-2.538-3.726-2.214-3.726-3.726a1.051,1.051,0,0,1,1.17-.99,3.357,3.357,0,0,1,1.836.63l.234-.054.252-1.44A5.7,5.7,0,0,0,22,59.558ZM32.13,59.54a5.768,5.768,0,0,0-3.24,1.08l.234,1.278.144.09a4.1,4.1,0,0,1,2.574-1.152,1.185,1.185,0,0,1,1.3,1.35l-.018.972-2.844.63a1.918,1.918,0,0,0-1.746,2c0,1.44.99,2.34,2.664,2.358a5.271,5.271,0,0,0,1.872-1.35h.126a1.4,1.4,0,0,0,1.314,1.332,2.933,2.933,0,0,0,1.134-.4l.18-1.008-.162-.126a2.753,2.753,0,0,1-.54.072c-.378,0-.522-.144-.522-.612,0-.612.216-3.636.216-4.266C34.812,60.368,33.768,59.54,32.13,59.54Zm.99,4.68-.054,1.386a2.542,2.542,0,0,1-1.8,1.1,1.037,1.037,0,0,1-1.1-1.152.664.664,0,0,1,.612-.774ZM42.66,68h1.854l-.09-3.636.054-2.34c.018-1.548-.936-2.43-2.79-2.43a6.121,6.121,0,0,0-2.214,1.278h-.126l.018-1.206-1.746.162.09,4.7L37.6,68h1.836l-.108-3.636.018-2.2a3.229,3.229,0,0,1,2.16-1.08c.864,0,1.3.558,1.278,1.458Zm7.56-8.46c-2.484,0-3.87,1.6-3.87,4.446,0,2.664,1.314,4.176,3.636,4.176,2.484,0,3.87-1.6,3.87-4.446C53.856,61.052,52.542,59.54,50.22,59.54Zm-.108,1.278c1.35,0,2.034,1.044,2.034,3.312,0,1.89-.684,2.772-2.034,2.772-1.368,0-2.052-1.026-2.052-3.312C48.06,61.736,48.744,60.818,50.112,60.818Zm8.208-1.26c-1.908,0-3.024,1.08-3.024,2.5,0,2.61,3.726,2.268,3.726,3.8a1.151,1.151,0,0,1-1.278,1.062,3.8,3.8,0,0,1-2.3-.972l-.2.126-.216,1.53a6.518,6.518,0,0,0,2.52.558c2.07,0,3.114-1.278,3.114-2.61,0-2.538-3.726-2.214-3.726-3.726a1.051,1.051,0,0,1,1.17-.99,3.357,3.357,0,0,1,1.836.63l.234-.054.252-1.44A5.7,5.7,0,0,0,58.32,59.558Zm10.8,2.07A3.719,3.719,0,0,0,67,62.294l-.126-.144c.576-1.71,2.07-2.88,4.806-3.852v-.18l-1.368-.828H70.2c-3.348,1.386-5.274,3.87-5.274,6.894,0,2.484,1.17,3.978,3.474,3.978a3.347,3.347,0,0,0,3.636-3.456A2.812,2.812,0,0,0,69.12,61.628Zm-.594,5.292c-1.386,0-1.944-.936-1.944-2.772l.018-.432a3.279,3.279,0,0,1,2-.774c1.152,0,1.8.72,1.8,2.016A1.749,1.749,0,0,1,68.526,66.92ZM77.6,58.856c-2.592,0-4.086,1.746-4.086,4.788,0,2.862,1.4,4.5,3.852,4.5,2.592,0,4.05-1.728,4.05-4.752C81.414,60.494,80.028,58.856,77.6,58.856Zm-.144,1.692c1.656,0,2.538,1.008,2.538,3.06,0,1.944-.864,2.916-2.52,2.916-1.692,0-2.52-1.008-2.52-3.006S75.78,60.548,77.454,60.548Z" transform="translate(-4708 -9138)"/>
    <path id="Caminho_772656" data-name="Caminho 772656" d="M5.886,4.318C2.538,4.318.612,6.478.612,10.33c0,3.726,1.818,5.814,5.058,5.814a6.691,6.691,0,0,0,3.06-.756L8.874,13.7l-.18-.108a4.847,4.847,0,0,1-2.88.99c-2.07,0-3.258-1.512-3.258-4.446,0-2.844,1.152-4.266,3.258-4.266A4.278,4.278,0,0,1,8.478,6.8l.18-.054L9,5.11A6.1,6.1,0,0,0,5.886,4.318ZM13.608,7.54a5.768,5.768,0,0,0-3.24,1.08L10.6,9.9l.144.09A4.1,4.1,0,0,1,13.32,8.836a1.185,1.185,0,0,1,1.3,1.35l-.018.972-2.844.63a1.918,1.918,0,0,0-1.746,2c0,1.44.99,2.34,2.664,2.358a5.271,5.271,0,0,0,1.872-1.35h.126a1.4,1.4,0,0,0,1.314,1.332,2.933,2.933,0,0,0,1.134-.4l.18-1.008-.162-.126a2.753,2.753,0,0,1-.54.072c-.378,0-.522-.144-.522-.612,0-.612.216-3.636.216-4.266C16.29,8.368,15.246,7.54,13.608,7.54Zm.99,4.68-.054,1.386a2.542,2.542,0,0,1-1.8,1.1,1.037,1.037,0,0,1-1.1-1.152.664.664,0,0,1,.612-.774ZM29.214,16h1.854l-.09-3.636.054-2.34c.018-1.548-.936-2.43-2.79-2.43a6.528,6.528,0,0,0-2.376,1.35h-.108a2.527,2.527,0,0,0-2.592-1.35,5.977,5.977,0,0,0-2.214,1.278h-.126l.018-1.206L19.1,7.828l.09,4.7L19.08,16H20.9l-.09-3.636.018-2.2a3.229,3.229,0,0,1,2.16-1.08c.864,0,1.3.558,1.278,1.458L24.138,16h1.836L25.9,12.364l.036-2.232a3.174,3.174,0,0,1,2.124-1.044c.864,0,1.3.558,1.278,1.458ZM34.452,3.832a.973.973,0,0,0-1.044,1.044.914.914,0,0,0,.99,1.008.97.97,0,0,0,1.008-1.062A.89.89,0,0,0,34.452,3.832Zm.72,8.532.144-4.7-1.836.162.09,4.7L33.462,16H35.3Zm5.2-4.806c-1.908,0-3.024,1.08-3.024,2.5,0,2.61,3.726,2.268,3.726,3.8A1.151,1.151,0,0,1,39.8,14.92a3.8,3.8,0,0,1-2.3-.972l-.2.126L37.08,15.6a6.518,6.518,0,0,0,2.52.558c2.07,0,3.114-1.278,3.114-2.61,0-2.538-3.726-2.214-3.726-3.726a1.051,1.051,0,0,1,1.17-.99,3.357,3.357,0,0,1,1.836.63l.234-.054.252-1.44A5.7,5.7,0,0,0,40.374,7.558Zm10.278,4.374.306-.288a7.013,7.013,0,0,0,.072-.9,2.847,2.847,0,0,0-3.024-3.186c-2.412,0-3.978,1.638-3.978,4.338,0,2.628,1.44,4.266,3.924,4.266a5.842,5.842,0,0,0,2.52-.612l.216-1.458-.162-.108a4.941,4.941,0,0,1-2.43.756c-1.584,0-2.34-1.026-2.376-2.808Zm-1.3-1.206-3.546.09a2.11,2.11,0,0,1,2.088-2c.9,0,1.494.522,1.494,1.692Zm6.5,3.888c-.738,0-1.062-.288-1.044-1.188l.09-4.518h2.322l.09-1.044-.072-.126h-2.3l.036-1.782-.162-.144-1.62.612V7.738h-1.1L52,8.8l.072.108h1.134l.018,3.51-.072,1.3a2.148,2.148,0,0,0,2.124,2.394,5.2,5.2,0,0,0,1.836-.54l.18-1.152-.18-.126A2.838,2.838,0,0,1,55.854,14.614Zm5.94-7.074a5.768,5.768,0,0,0-3.24,1.08L58.788,9.9l.144.09a4.1,4.1,0,0,1,2.574-1.152,1.185,1.185,0,0,1,1.3,1.35l-.018.972-2.844.63a1.918,1.918,0,0,0-1.746,2c0,1.44.99,2.34,2.664,2.358a5.271,5.271,0,0,0,1.872-1.35h.126a1.4,1.4,0,0,0,1.314,1.332,2.933,2.933,0,0,0,1.134-.4l.18-1.008-.162-.126a2.753,2.753,0,0,1-.54.072c-.378,0-.522-.144-.522-.612,0-.612.216-3.636.216-4.266C64.476,8.368,63.432,7.54,61.794,7.54Zm.99,4.68-.054,1.386a2.542,2.542,0,0,1-1.8,1.1,1.037,1.037,0,0,1-1.1-1.152.664.664,0,0,1,.612-.774Zm6.984-4.662c-1.908,0-3.024,1.08-3.024,2.5,0,2.61,3.726,2.268,3.726,3.8a1.151,1.151,0,0,1-1.278,1.062,3.8,3.8,0,0,1-2.3-.972l-.2.126-.216,1.53a6.518,6.518,0,0,0,2.52.558c2.07,0,3.114-1.278,3.114-2.61,0-2.538-3.726-2.214-3.726-3.726a1.051,1.051,0,0,1,1.17-.99,3.357,3.357,0,0,1,1.836.63l.234-.054.252-1.44A5.7,5.7,0,0,0,69.768,7.558ZM4.464,33.54c-2.376,0-3.8,1.674-3.8,4.392,0,2.628,1.332,4.23,3.582,4.23a6.427,6.427,0,0,0,2.2-.414l.18-1.476-.162-.108a4.329,4.329,0,0,1-1.926.54c-1.368,0-2.142-1.08-2.142-2.916,0-1.746.756-2.736,2.034-2.736a3.568,3.568,0,0,1,1.764.558l.18-.072.306-1.53A5.4,5.4,0,0,0,4.464,33.54Zm6.984,0c-2.484,0-3.87,1.6-3.87,4.446,0,2.664,1.314,4.176,3.636,4.176,2.484,0,3.87-1.6,3.87-4.446C15.084,35.052,13.77,33.54,11.448,33.54Zm-.108,1.278c1.35,0,2.034,1.044,2.034,3.312,0,1.89-.684,2.772-2.034,2.772-1.368,0-2.052-1.026-2.052-3.312C9.288,35.736,9.972,34.818,11.34,34.818ZM27.18,42h1.854l-.09-3.636L29,36.024c.018-1.548-.936-2.43-2.79-2.43a6.528,6.528,0,0,0-2.376,1.35h-.108a2.527,2.527,0,0,0-2.592-1.35,5.977,5.977,0,0,0-2.214,1.278h-.126l.018-1.206-1.746.162.09,4.7L17.046,42h1.818l-.09-3.636.018-2.2a3.229,3.229,0,0,1,2.16-1.08c.864,0,1.3.558,1.278,1.458L22.1,42H23.94l-.072-3.636.036-2.232a3.174,3.174,0,0,1,2.124-1.044c.864,0,1.3.558,1.278,1.458ZM38.16,29.328c-2.07,0-3.276,1.116-3.258,3.168l.018,1.242H33.7l-.09,1.062.072.108H34.92l.036,3.6L34.848,42h1.836l-.126-3.654.054-3.438H38.7l.108-1.044-.054-.126H36.63l.018-1.548c.018-1.044.5-1.548,1.35-1.548a3.3,3.3,0,0,1,1.386.342l.126-.108.108-1.386A6.955,6.955,0,0,0,38.16,29.328Zm5.94,4.356a2.655,2.655,0,0,0-2.268,1.638h-.126l.018-1.656-1.746.162.108,4.7L39.96,42H41.8l-.126-3.636.018-1.188c.63-1.242,1.26-1.746,2-1.746a2.519,2.519,0,0,1,.666.09l.2-.054V33.72A3.506,3.506,0,0,0,44.1,33.684Zm4.644-.144a5.768,5.768,0,0,0-3.24,1.08l.234,1.278.144.09a4.1,4.1,0,0,1,2.574-1.152,1.185,1.185,0,0,1,1.3,1.35l-.018.972-2.844.63a1.918,1.918,0,0,0-1.746,2c0,1.44.99,2.34,2.664,2.358a5.271,5.271,0,0,0,1.872-1.35h.126a1.4,1.4,0,0,0,1.314,1.332,2.933,2.933,0,0,0,1.134-.4l.18-1.008-.162-.126a2.753,2.753,0,0,1-.54.072c-.378,0-.522-.144-.522-.612,0-.612.216-3.636.216-4.266C51.426,34.368,50.382,33.54,48.744,33.54Zm.99,4.68-.054,1.386a2.542,2.542,0,0,1-1.8,1.1,1.037,1.037,0,0,1-1.1-1.152.664.664,0,0,1,.612-.774Zm6.984-4.662c-1.908,0-3.024,1.08-3.024,2.5,0,2.61,3.726,2.268,3.726,3.8a1.151,1.151,0,0,1-1.278,1.062,3.8,3.8,0,0,1-2.3-.972l-.2.126-.216,1.53a6.518,6.518,0,0,0,2.52.558c2.07,0,3.114-1.278,3.114-2.61,0-2.538-3.726-2.214-3.726-3.726a1.051,1.051,0,0,1,1.17-.99,3.357,3.357,0,0,1,1.836.63l.234-.054.252-1.44A5.7,5.7,0,0,0,56.718,33.558ZM67,37.932l.306-.288a7.013,7.013,0,0,0,.072-.9,2.847,2.847,0,0,0-3.024-3.186c-2.412,0-3.978,1.638-3.978,4.338,0,2.628,1.44,4.266,3.924,4.266a5.842,5.842,0,0,0,2.52-.612l.216-1.458-.162-.108a4.941,4.941,0,0,1-2.43.756c-1.584,0-2.34-1.026-2.376-2.808Zm-1.3-1.206-3.546.09a2.11,2.11,0,0,1,2.088-2c.9,0,1.494.522,1.494,1.692Zm6.066-3.168c-1.908,0-3.024,1.08-3.024,2.5,0,2.61,3.726,2.268,3.726,3.8A1.151,1.151,0,0,1,71.19,40.92a3.8,3.8,0,0,1-2.3-.972l-.2.126-.216,1.53a6.518,6.518,0,0,0,2.52.558c2.07,0,3.114-1.278,3.114-2.61,0-2.538-3.726-2.214-3.726-3.726a1.051,1.051,0,0,1,1.17-.99,3.357,3.357,0,0,1,1.836.63l.234-.054.252-1.44A5.7,5.7,0,0,0,71.766,33.558ZM7.776,64.346l.144-8.982-1.836.144L6.12,59.7a7.586,7.586,0,0,0-1.4-.144c-2.538,0-4.086,1.548-4.086,4.32,0,2.664,1.314,4.23,3.726,4.23a7.351,7.351,0,0,0,1.872-1.242h.144A1.425,1.425,0,0,0,7.7,68.126a2.917,2.917,0,0,0,1.152-.4l.162-1.008L8.856,66.6a2.6,2.6,0,0,1-.558.072c-.342,0-.45-.144-.468-.594Zm-3.24-3.528a3.717,3.717,0,0,1,1.6.414l.054,3.276-.036,1.17a2.3,2.3,0,0,1-1.764.936c-1.26,0-2.016-1.026-2.034-2.952C2.322,61.736,3.186,60.818,4.536,60.818ZM13.9,59.54c-2.484,0-3.87,1.6-3.87,4.446,0,2.664,1.314,4.176,3.636,4.176,2.484,0,3.87-1.6,3.87-4.446C17.532,61.052,16.218,59.54,13.9,59.54Zm-.108,1.278c1.35,0,2.034,1.044,2.034,3.312,0,1.89-.684,2.772-2.034,2.772-1.368,0-2.052-1.026-2.052-3.312C11.736,61.736,12.42,60.818,13.788,60.818ZM22,59.558c-1.908,0-3.024,1.08-3.024,2.5,0,2.61,3.726,2.268,3.726,3.8A1.151,1.151,0,0,1,21.42,66.92a3.8,3.8,0,0,1-2.3-.972l-.2.126L18.7,67.6a6.518,6.518,0,0,0,2.52.558c2.07,0,3.114-1.278,3.114-2.61,0-2.538-3.726-2.214-3.726-3.726a1.051,1.051,0,0,1,1.17-.99,3.357,3.357,0,0,1,1.836.63l.234-.054.252-1.44A5.7,5.7,0,0,0,22,59.558ZM32.13,59.54a5.768,5.768,0,0,0-3.24,1.08l.234,1.278.144.09a4.1,4.1,0,0,1,2.574-1.152,1.185,1.185,0,0,1,1.3,1.35l-.018.972-2.844.63a1.918,1.918,0,0,0-1.746,2c0,1.44.99,2.34,2.664,2.358a5.271,5.271,0,0,0,1.872-1.35h.126a1.4,1.4,0,0,0,1.314,1.332,2.933,2.933,0,0,0,1.134-.4l.18-1.008-.162-.126a2.753,2.753,0,0,1-.54.072c-.378,0-.522-.144-.522-.612,0-.612.216-3.636.216-4.266C34.812,60.368,33.768,59.54,32.13,59.54Zm.99,4.68-.054,1.386a2.542,2.542,0,0,1-1.8,1.1,1.037,1.037,0,0,1-1.1-1.152.664.664,0,0,1,.612-.774ZM42.66,68h1.854l-.09-3.636.054-2.34c.018-1.548-.936-2.43-2.79-2.43a6.121,6.121,0,0,0-2.214,1.278h-.126l.018-1.206-1.746.162.09,4.7L37.6,68h1.836l-.108-3.636.018-2.2a3.229,3.229,0,0,1,2.16-1.08c.864,0,1.3.558,1.278,1.458Zm7.56-8.46c-2.484,0-3.87,1.6-3.87,4.446,0,2.664,1.314,4.176,3.636,4.176,2.484,0,3.87-1.6,3.87-4.446C53.856,61.052,52.542,59.54,50.22,59.54Zm-.108,1.278c1.35,0,2.034,1.044,2.034,3.312,0,1.89-.684,2.772-2.034,2.772-1.368,0-2.052-1.026-2.052-3.312C48.06,61.736,48.744,60.818,50.112,60.818Zm8.208-1.26c-1.908,0-3.024,1.08-3.024,2.5,0,2.61,3.726,2.268,3.726,3.8a1.151,1.151,0,0,1-1.278,1.062,3.8,3.8,0,0,1-2.3-.972l-.2.126-.216,1.53a6.518,6.518,0,0,0,2.52.558c2.07,0,3.114-1.278,3.114-2.61,0-2.538-3.726-2.214-3.726-3.726a1.051,1.051,0,0,1,1.17-.99,3.357,3.357,0,0,1,1.836.63l.234-.054.252-1.44A5.7,5.7,0,0,0,58.32,59.558Zm8.118-.576-1.782-.072-.126,1.566.108.18,1.494-.162h3.456l-4.014,8.622.108.306,1.476.4.882-2.358L71.316,60.3l-.018-1.35-.81.036Zm10.242-.126c-2.592,0-4.086,1.746-4.086,4.788,0,2.862,1.4,4.5,3.852,4.5,2.592,0,4.05-1.728,4.05-4.752C80.5,60.494,79.11,58.856,76.68,58.856Zm-.144,1.692c1.656,0,2.538,1.008,2.538,3.06,0,1.944-.864,2.916-2.52,2.916-1.692,0-2.52-1.008-2.52-3.006S74.862,60.548,76.536,60.548Z" transform="translate(-4708 -9049)"/>
    <path id="Caminho_772657" data-name="Caminho 772657" d="M5.886,4.318C2.538,4.318.612,6.478.612,10.33c0,3.726,1.818,5.814,5.058,5.814a6.691,6.691,0,0,0,3.06-.756L8.874,13.7l-.18-.108a4.847,4.847,0,0,1-2.88.99c-2.07,0-3.258-1.512-3.258-4.446,0-2.844,1.152-4.266,3.258-4.266A4.278,4.278,0,0,1,8.478,6.8l.18-.054L9,5.11A6.1,6.1,0,0,0,5.886,4.318ZM13.608,7.54a5.768,5.768,0,0,0-3.24,1.08L10.6,9.9l.144.09A4.1,4.1,0,0,1,13.32,8.836a1.185,1.185,0,0,1,1.3,1.35l-.018.972-2.844.63a1.918,1.918,0,0,0-1.746,2c0,1.44.99,2.34,2.664,2.358a5.271,5.271,0,0,0,1.872-1.35h.126a1.4,1.4,0,0,0,1.314,1.332,2.933,2.933,0,0,0,1.134-.4l.18-1.008-.162-.126a2.753,2.753,0,0,1-.54.072c-.378,0-.522-.144-.522-.612,0-.612.216-3.636.216-4.266C16.29,8.368,15.246,7.54,13.608,7.54Zm.99,4.68-.054,1.386a2.542,2.542,0,0,1-1.8,1.1,1.037,1.037,0,0,1-1.1-1.152.664.664,0,0,1,.612-.774ZM29.214,16h1.854l-.09-3.636.054-2.34c.018-1.548-.936-2.43-2.79-2.43a6.528,6.528,0,0,0-2.376,1.35h-.108a2.527,2.527,0,0,0-2.592-1.35,5.977,5.977,0,0,0-2.214,1.278h-.126l.018-1.206L19.1,7.828l.09,4.7L19.08,16H20.9l-.09-3.636.018-2.2a3.229,3.229,0,0,1,2.16-1.08c.864,0,1.3.558,1.278,1.458L24.138,16h1.836L25.9,12.364l.036-2.232a3.174,3.174,0,0,1,2.124-1.044c.864,0,1.3.558,1.278,1.458ZM34.452,3.832a.973.973,0,0,0-1.044,1.044.914.914,0,0,0,.99,1.008.97.97,0,0,0,1.008-1.062A.89.89,0,0,0,34.452,3.832Zm.72,8.532.144-4.7-1.836.162.09,4.7L33.462,16H35.3Zm5.2-4.806c-1.908,0-3.024,1.08-3.024,2.5,0,2.61,3.726,2.268,3.726,3.8A1.151,1.151,0,0,1,39.8,14.92a3.8,3.8,0,0,1-2.3-.972l-.2.126L37.08,15.6a6.518,6.518,0,0,0,2.52.558c2.07,0,3.114-1.278,3.114-2.61,0-2.538-3.726-2.214-3.726-3.726a1.051,1.051,0,0,1,1.17-.99,3.357,3.357,0,0,1,1.836.63l.234-.054.252-1.44A5.7,5.7,0,0,0,40.374,7.558Zm10.278,4.374.306-.288a7.013,7.013,0,0,0,.072-.9,2.847,2.847,0,0,0-3.024-3.186c-2.412,0-3.978,1.638-3.978,4.338,0,2.628,1.44,4.266,3.924,4.266a5.842,5.842,0,0,0,2.52-.612l.216-1.458-.162-.108a4.941,4.941,0,0,1-2.43.756c-1.584,0-2.34-1.026-2.376-2.808Zm-1.3-1.206-3.546.09a2.11,2.11,0,0,1,2.088-2c.9,0,1.494.522,1.494,1.692Zm6.5,3.888c-.738,0-1.062-.288-1.044-1.188l.09-4.518h2.322l.09-1.044-.072-.126h-2.3l.036-1.782-.162-.144-1.62.612V7.738h-1.1L52,8.8l.072.108h1.134l.018,3.51-.072,1.3a2.148,2.148,0,0,0,2.124,2.394,5.2,5.2,0,0,0,1.836-.54l.18-1.152-.18-.126A2.838,2.838,0,0,1,55.854,14.614Zm5.94-7.074a5.768,5.768,0,0,0-3.24,1.08L58.788,9.9l.144.09a4.1,4.1,0,0,1,2.574-1.152,1.185,1.185,0,0,1,1.3,1.35l-.018.972-2.844.63a1.918,1.918,0,0,0-1.746,2c0,1.44.99,2.34,2.664,2.358a5.271,5.271,0,0,0,1.872-1.35h.126a1.4,1.4,0,0,0,1.314,1.332,2.933,2.933,0,0,0,1.134-.4l.18-1.008-.162-.126a2.753,2.753,0,0,1-.54.072c-.378,0-.522-.144-.522-.612,0-.612.216-3.636.216-4.266C64.476,8.368,63.432,7.54,61.794,7.54Zm.99,4.68-.054,1.386a2.542,2.542,0,0,1-1.8,1.1,1.037,1.037,0,0,1-1.1-1.152.664.664,0,0,1,.612-.774Zm6.984-4.662c-1.908,0-3.024,1.08-3.024,2.5,0,2.61,3.726,2.268,3.726,3.8a1.151,1.151,0,0,1-1.278,1.062,3.8,3.8,0,0,1-2.3-.972l-.2.126-.216,1.53a6.518,6.518,0,0,0,2.52.558c2.07,0,3.114-1.278,3.114-2.61,0-2.538-3.726-2.214-3.726-3.726a1.051,1.051,0,0,1,1.17-.99,3.357,3.357,0,0,1,1.836.63l.234-.054.252-1.44A5.7,5.7,0,0,0,69.768,7.558ZM4.464,33.54c-2.376,0-3.8,1.674-3.8,4.392,0,2.628,1.332,4.23,3.582,4.23a6.427,6.427,0,0,0,2.2-.414l.18-1.476-.162-.108a4.329,4.329,0,0,1-1.926.54c-1.368,0-2.142-1.08-2.142-2.916,0-1.746.756-2.736,2.034-2.736a3.568,3.568,0,0,1,1.764.558l.18-.072.306-1.53A5.4,5.4,0,0,0,4.464,33.54Zm6.984,0c-2.484,0-3.87,1.6-3.87,4.446,0,2.664,1.314,4.176,3.636,4.176,2.484,0,3.87-1.6,3.87-4.446C15.084,35.052,13.77,33.54,11.448,33.54Zm-.108,1.278c1.35,0,2.034,1.044,2.034,3.312,0,1.89-.684,2.772-2.034,2.772-1.368,0-2.052-1.026-2.052-3.312C9.288,35.736,9.972,34.818,11.34,34.818ZM27.18,42h1.854l-.09-3.636L29,36.024c.018-1.548-.936-2.43-2.79-2.43a6.528,6.528,0,0,0-2.376,1.35h-.108a2.527,2.527,0,0,0-2.592-1.35,5.977,5.977,0,0,0-2.214,1.278h-.126l.018-1.206-1.746.162.09,4.7L17.046,42h1.818l-.09-3.636.018-2.2a3.229,3.229,0,0,1,2.16-1.08c.864,0,1.3.558,1.278,1.458L22.1,42H23.94l-.072-3.636.036-2.232a3.174,3.174,0,0,1,2.124-1.044c.864,0,1.3.558,1.278,1.458ZM38.16,29.328c-2.07,0-3.276,1.116-3.258,3.168l.018,1.242H33.7l-.09,1.062.072.108H34.92l.036,3.6L34.848,42h1.836l-.126-3.654.054-3.438H38.7l.108-1.044-.054-.126H36.63l.018-1.548c.018-1.044.5-1.548,1.35-1.548a3.3,3.3,0,0,1,1.386.342l.126-.108.108-1.386A6.955,6.955,0,0,0,38.16,29.328Zm5.94,4.356a2.655,2.655,0,0,0-2.268,1.638h-.126l.018-1.656-1.746.162.108,4.7L39.96,42H41.8l-.126-3.636.018-1.188c.63-1.242,1.26-1.746,2-1.746a2.519,2.519,0,0,1,.666.09l.2-.054V33.72A3.506,3.506,0,0,0,44.1,33.684Zm4.644-.144a5.768,5.768,0,0,0-3.24,1.08l.234,1.278.144.09a4.1,4.1,0,0,1,2.574-1.152,1.185,1.185,0,0,1,1.3,1.35l-.018.972-2.844.63a1.918,1.918,0,0,0-1.746,2c0,1.44.99,2.34,2.664,2.358a5.271,5.271,0,0,0,1.872-1.35h.126a1.4,1.4,0,0,0,1.314,1.332,2.933,2.933,0,0,0,1.134-.4l.18-1.008-.162-.126a2.753,2.753,0,0,1-.54.072c-.378,0-.522-.144-.522-.612,0-.612.216-3.636.216-4.266C51.426,34.368,50.382,33.54,48.744,33.54Zm.99,4.68-.054,1.386a2.542,2.542,0,0,1-1.8,1.1,1.037,1.037,0,0,1-1.1-1.152.664.664,0,0,1,.612-.774Zm6.984-4.662c-1.908,0-3.024,1.08-3.024,2.5,0,2.61,3.726,2.268,3.726,3.8a1.151,1.151,0,0,1-1.278,1.062,3.8,3.8,0,0,1-2.3-.972l-.2.126-.216,1.53a6.518,6.518,0,0,0,2.52.558c2.07,0,3.114-1.278,3.114-2.61,0-2.538-3.726-2.214-3.726-3.726a1.051,1.051,0,0,1,1.17-.99,3.357,3.357,0,0,1,1.836.63l.234-.054.252-1.44A5.7,5.7,0,0,0,56.718,33.558ZM67,37.932l.306-.288a7.013,7.013,0,0,0,.072-.9,2.847,2.847,0,0,0-3.024-3.186c-2.412,0-3.978,1.638-3.978,4.338,0,2.628,1.44,4.266,3.924,4.266a5.842,5.842,0,0,0,2.52-.612l.216-1.458-.162-.108a4.941,4.941,0,0,1-2.43.756c-1.584,0-2.34-1.026-2.376-2.808Zm-1.3-1.206-3.546.09a2.11,2.11,0,0,1,2.088-2c.9,0,1.494.522,1.494,1.692Zm6.066-3.168c-1.908,0-3.024,1.08-3.024,2.5,0,2.61,3.726,2.268,3.726,3.8A1.151,1.151,0,0,1,71.19,40.92a3.8,3.8,0,0,1-2.3-.972l-.2.126-.216,1.53a6.518,6.518,0,0,0,2.52.558c2.07,0,3.114-1.278,3.114-2.61,0-2.538-3.726-2.214-3.726-3.726a1.051,1.051,0,0,1,1.17-.99,3.357,3.357,0,0,1,1.836.63l.234-.054.252-1.44A5.7,5.7,0,0,0,71.766,33.558ZM7.776,64.346l.144-8.982-1.836.144L6.12,59.7a7.586,7.586,0,0,0-1.4-.144c-2.538,0-4.086,1.548-4.086,4.32,0,2.664,1.314,4.23,3.726,4.23a7.351,7.351,0,0,0,1.872-1.242h.144A1.425,1.425,0,0,0,7.7,68.126a2.917,2.917,0,0,0,1.152-.4l.162-1.008L8.856,66.6a2.6,2.6,0,0,1-.558.072c-.342,0-.45-.144-.468-.594Zm-3.24-3.528a3.717,3.717,0,0,1,1.6.414l.054,3.276-.036,1.17a2.3,2.3,0,0,1-1.764.936c-1.26,0-2.016-1.026-2.034-2.952C2.322,61.736,3.186,60.818,4.536,60.818ZM13.9,59.54c-2.484,0-3.87,1.6-3.87,4.446,0,2.664,1.314,4.176,3.636,4.176,2.484,0,3.87-1.6,3.87-4.446C17.532,61.052,16.218,59.54,13.9,59.54Zm-.108,1.278c1.35,0,2.034,1.044,2.034,3.312,0,1.89-.684,2.772-2.034,2.772-1.368,0-2.052-1.026-2.052-3.312C11.736,61.736,12.42,60.818,13.788,60.818ZM22,59.558c-1.908,0-3.024,1.08-3.024,2.5,0,2.61,3.726,2.268,3.726,3.8A1.151,1.151,0,0,1,21.42,66.92a3.8,3.8,0,0,1-2.3-.972l-.2.126L18.7,67.6a6.518,6.518,0,0,0,2.52.558c2.07,0,3.114-1.278,3.114-2.61,0-2.538-3.726-2.214-3.726-3.726a1.051,1.051,0,0,1,1.17-.99,3.357,3.357,0,0,1,1.836.63l.234-.054.252-1.44A5.7,5.7,0,0,0,22,59.558ZM32.13,59.54a5.768,5.768,0,0,0-3.24,1.08l.234,1.278.144.09a4.1,4.1,0,0,1,2.574-1.152,1.185,1.185,0,0,1,1.3,1.35l-.018.972-2.844.63a1.918,1.918,0,0,0-1.746,2c0,1.44.99,2.34,2.664,2.358a5.271,5.271,0,0,0,1.872-1.35h.126a1.4,1.4,0,0,0,1.314,1.332,2.933,2.933,0,0,0,1.134-.4l.18-1.008-.162-.126a2.753,2.753,0,0,1-.54.072c-.378,0-.522-.144-.522-.612,0-.612.216-3.636.216-4.266C34.812,60.368,33.768,59.54,32.13,59.54Zm.99,4.68-.054,1.386a2.542,2.542,0,0,1-1.8,1.1,1.037,1.037,0,0,1-1.1-1.152.664.664,0,0,1,.612-.774ZM42.66,68h1.854l-.09-3.636.054-2.34c.018-1.548-.936-2.43-2.79-2.43a6.121,6.121,0,0,0-2.214,1.278h-.126l.018-1.206-1.746.162.09,4.7L37.6,68h1.836l-.108-3.636.018-2.2a3.229,3.229,0,0,1,2.16-1.08c.864,0,1.3.558,1.278,1.458Zm7.56-8.46c-2.484,0-3.87,1.6-3.87,4.446,0,2.664,1.314,4.176,3.636,4.176,2.484,0,3.87-1.6,3.87-4.446C53.856,61.052,52.542,59.54,50.22,59.54Zm-.108,1.278c1.35,0,2.034,1.044,2.034,3.312,0,1.89-.684,2.772-2.034,2.772-1.368,0-2.052-1.026-2.052-3.312C48.06,61.736,48.744,60.818,50.112,60.818Zm8.208-1.26c-1.908,0-3.024,1.08-3.024,2.5,0,2.61,3.726,2.268,3.726,3.8a1.151,1.151,0,0,1-1.278,1.062,3.8,3.8,0,0,1-2.3-.972l-.2.126-.216,1.53a6.518,6.518,0,0,0,2.52.558c2.07,0,3.114-1.278,3.114-2.61,0-2.538-3.726-2.214-3.726-3.726a1.051,1.051,0,0,1,1.17-.99,3.357,3.357,0,0,1,1.836.63l.234-.054.252-1.44A5.7,5.7,0,0,0,58.32,59.558Zm10.368-2.232c-1.944,0-3.294,1.062-3.294,2.844a2.678,2.678,0,0,0,1.638,2.484v.09A2.983,2.983,0,0,0,65,65.426c0,1.584,1.188,2.718,3.294,2.718,2.2,0,3.654-1.17,3.654-3.042a2.821,2.821,0,0,0-1.98-2.592v-.09a2.937,2.937,0,0,0,1.656-2.538C71.622,58.3,70.524,57.326,68.688,57.326Zm-.09,1.3a1.4,1.4,0,0,1,1.584,1.44c0,1.008-.72,1.494-1.53,1.872-.918-.36-1.746-.792-1.746-1.818C66.906,59.2,67.536,58.622,68.6,58.622Zm-.27,4.662c1.062.432,2.088.828,2.088,1.944,0,.936-.72,1.638-1.962,1.638-1.188,0-1.908-.666-1.908-1.656C66.546,64.094,67.392,63.626,68.328,63.284Zm9.4-4.428c-2.592,0-4.086,1.746-4.086,4.788,0,2.862,1.4,4.5,3.852,4.5,2.592,0,4.05-1.728,4.05-4.752C81.54,60.494,80.154,58.856,77.724,58.856Zm-.144,1.692c1.656,0,2.538,1.008,2.538,3.06,0,1.944-.864,2.916-2.52,2.916-1.692,0-2.52-1.008-2.52-3.006S75.906,60.548,77.58,60.548Z" transform="translate(-4708 -8960)"/>
    <path id="Caminho_772652" data-name="Caminho 772652" d="M3.528,6.874A4.854,4.854,0,0,0,.5,7.972l.27,1.386h.2a3.494,3.494,0,0,1,2.2-.99A1.249,1.249,0,0,1,4.59,9.628a1.982,1.982,0,0,1-2,1.818l-.792.018-.054,1.26.108.126H2.988c1.332.054,2.034.63,2.034,1.62,0,1.152-.954,1.854-2.43,1.854a4.835,4.835,0,0,1-1.908-.4l-.126.126.09,1.512a12.458,12.458,0,0,0,1.854.162c2.556,0,4.266-1.368,4.266-3.4A2.394,2.394,0,0,0,4.68,11.95v-.072A3.028,3.028,0,0,0,6.444,9.232C6.444,7.828,5.274,6.874,3.528,6.874Z" transform="translate(-4599 -9112.25)"/>
    <path id="Caminho_772655" data-name="Caminho 772655" d="M8.19,14.812l.09-1.3-.108-.162H6.552l.054-6.372H4.914L.432,13.462V14.65l.126.162,1.35-.036H5.076L5.022,17.62l.108.126,1.4-.108.108-.144L6.57,14.776ZM2.034,13.354,4.95,9.124h.144v4.23Zm9.2.738a4.591,4.591,0,0,0-1.314.594v.162a1.136,1.136,0,0,1,.558.954,2.186,2.186,0,0,1-.99,1.656L9.5,17.6l.594.54c1.278-.918,1.908-1.8,1.908-2.7A1.628,1.628,0,0,0,11.232,14.092ZM19.89,7.018l-.108-.126-1.764.09h-2.5l-.99-.054-.252.252-.09,4.86.144.162,1.6.306c1.512.27,2.106.828,2.106,1.782,0,1.206-.936,2.034-2.43,2.034a4.99,4.99,0,0,1-2.052-.45l-.144.144.126,1.548a10.218,10.218,0,0,0,1.818.2c2.592,0,4.41-1.53,4.41-3.762,0-1.422-.756-2.376-3.024-2.844l-1.116-.234.054-2.466H18.09l1.476.126.126-.126Z" transform="translate(-4599 -9023.25)"/>
    <path id="Caminho_772658" data-name="Caminho 772658" d="M8.19,14.812l.09-1.3-.108-.162H6.552l.054-6.372H4.914L.432,13.462V14.65l.126.162,1.35-.036H5.076L5.022,17.62l.108.126,1.4-.108.108-.144L6.57,14.776ZM2.034,13.354,4.95,9.124h.144v4.23Z" transform="translate(-4599 -8934.25)"/>
    <path id="Caminho_772653" data-name="Caminho 772653" d="M4.32,7.09l-.27-.2L.18,8.026V9.484l.162.108,2.2-.612.018,3.492L2.448,16H4.3l-.09-3.726Zm8.946-.072-.108-.126-1.764.09h-2.5L7.9,6.928,7.65,7.18l-.09,4.86L7.7,12.2l1.6.306c1.512.27,2.106.828,2.106,1.782,0,1.206-.936,2.034-2.43,2.034a4.99,4.99,0,0,1-2.052-.45l-.144.144.126,1.548a10.218,10.218,0,0,0,1.818.2c2.592,0,4.41-1.53,4.41-3.762,0-1.422-.756-2.376-3.024-2.844L9,10.924l.054-2.466h2.412l1.476.126.126-.126Zm5.526-.162c-2.592,0-4.086,1.746-4.086,4.788,0,2.862,1.4,4.5,3.852,4.5,2.592,0,4.05-1.728,4.05-4.752C22.608,8.494,21.222,6.856,18.792,6.856Zm-.144,1.692c1.656,0,2.538,1.008,2.538,3.06,0,1.944-.864,2.916-2.52,2.916-1.692,0-2.52-1.008-2.52-3.006S16.974,8.548,18.648,8.548Z" transform="translate(-4488 -9112.25)"/>
    <path id="Caminho_772654" data-name="Caminho 772654" d="M3.528,6.874A4.854,4.854,0,0,0,.5,7.972l.27,1.386h.2a3.494,3.494,0,0,1,2.2-.99A1.249,1.249,0,0,1,4.59,9.628a1.982,1.982,0,0,1-2,1.818l-.792.018-.054,1.26.108.126H2.988c1.332.054,2.034.63,2.034,1.62,0,1.152-.954,1.854-2.43,1.854a4.835,4.835,0,0,1-1.908-.4l-.126.126.09,1.512a12.458,12.458,0,0,0,1.854.162c2.556,0,4.266-1.368,4.266-3.4A2.394,2.394,0,0,0,4.68,11.95v-.072A3.028,3.028,0,0,0,6.444,9.232C6.444,7.828,5.274,6.874,3.528,6.874Zm10.98.144L14.4,6.892l-1.764.09h-2.5l-.99-.054-.252.252L8.8,12.04l.144.162,1.6.306c1.512.27,2.106.828,2.106,1.782,0,1.206-.936,2.034-2.43,2.034a4.99,4.99,0,0,1-2.052-.45l-.144.144.126,1.548a10.218,10.218,0,0,0,1.818.2c2.592,0,4.41-1.53,4.41-3.762,0-1.422-.756-2.376-3.024-2.844l-1.116-.234L10.3,8.458h2.412l1.476.126.126-.126Zm5.526-.162c-2.592,0-4.086,1.746-4.086,4.788,0,2.862,1.4,4.5,3.852,4.5,2.592,0,4.05-1.728,4.05-4.752C23.85,8.494,22.464,6.856,20.034,6.856ZM19.89,8.548c1.656,0,2.538,1.008,2.538,3.06,0,1.944-.864,2.916-2.52,2.916-1.692,0-2.52-1.008-2.52-3.006S18.216,8.548,19.89,8.548Z" transform="translate(-4488 -9023.25)"/>
    <path id="Caminho_772659" data-name="Caminho 772659" d="M4.23,6.892A5.487,5.487,0,0,0,.9,8.188L1.206,9.61h.2a3.579,3.579,0,0,1,2.43-1.152c.792,0,1.224.414,1.224.972,0,.7-.63,1.548-1.8,2.808L.792,14.83v1.134l.09.072L1.548,16H5.616l1.98.09.234-1.512L7.7,14.452,6.138,14.6H3.2l-.036-.09,1.6-1.818c1.44-1.62,2.088-2.736,2.088-3.708C6.858,7.7,5.742,6.892,4.23,6.892Zm11.034.126-.108-.126-1.764.09h-2.5L9.9,6.928l-.252.252-.09,4.86L9.7,12.2l1.6.306c1.512.27,2.106.828,2.106,1.782,0,1.206-.936,2.034-2.43,2.034a4.99,4.99,0,0,1-2.052-.45l-.144.144.126,1.548a10.218,10.218,0,0,0,1.818.2c2.592,0,4.41-1.53,4.41-3.762,0-1.422-.756-2.376-3.024-2.844L11,10.924l.054-2.466h2.412l1.476.126.126-.126Zm5.526-.162C18.2,6.856,16.7,8.6,16.7,11.644c0,2.862,1.4,4.5,3.852,4.5,2.592,0,4.05-1.728,4.05-4.752C24.606,8.494,23.22,6.856,20.79,6.856Zm-.144,1.692c1.656,0,2.538,1.008,2.538,3.06,0,1.944-.864,2.916-2.52,2.916-1.692,0-2.52-1.008-2.52-3.006S18.972,8.548,20.646,8.548Z" transform="translate(-4488 -8934.25)"/>
  </g>
</svg>
