<svg xmlns="http://www.w3.org/2000/svg" width="537.239" height="231.447" viewBox="0 0 537.239 231.447">
  <g id="_img_Grafico_1-mob_" data-name="&lt;img Grafico_1-mob&gt;" transform="translate(95.889 -3772.82)">
    <g id="Grupo_234073" data-name="Grupo 234073" transform="translate(4553.5 18009.176)">
      <rect id="Retângulo_124930" data-name="Retângulo 124930" width="27" height="65.309" transform="translate(-4338.5 -14173.174) rotate(90)" fill="#40bbff"/>
      <rect id="Retângulo_124931" data-name="Retângulo 124931" width="27" height="236.809" transform="translate(-4167 -14119.174) rotate(90)" fill="#0024a9"/>
      <rect id="Retângulo_124932" data-name="Retângulo 124932" width="27" height="106.309" transform="translate(-4297.5 -14065.174) rotate(90)" fill="#40bbff"/>
      <line id="Linha_1894" data-name="Linha 1894" y2="162.851" transform="translate(-4403.809 -14188.174)" fill="none" stroke="#40bbff" stroke-miterlimit="10" stroke-width="2" opacity="0.5"/>
      <path id="Caminho_773624" data-name="Caminho 773624" d="M4.32-8.91l-.27-.2L.18-7.974v1.458l.162.108,2.2-.612.018,3.492L2.448,0H4.3l-.09-3.726Zm6.858-.234c-2.592,0-4.086,1.746-4.086,4.788,0,2.862,1.4,4.5,3.852,4.5,2.592,0,4.05-1.728,4.05-4.752C14.994-7.506,13.608-9.144,11.178-9.144Zm-.144,1.692c1.656,0,2.538,1.008,2.538,3.06,0,1.944-.864,2.916-2.52,2.916-1.692,0-2.52-1.008-2.52-3.006S9.36-7.452,11.034-7.452Zm9.594-1.692c-2.592,0-4.086,1.746-4.086,4.788,0,2.862,1.4,4.5,3.852,4.5,2.592,0,4.05-1.728,4.05-4.752C24.444-7.506,23.058-9.144,20.628-9.144Zm-.144,1.692c1.656,0,2.538,1.008,2.538,3.06,0,1.944-.864,2.916-2.52,2.916-1.692,0-2.52-1.008-2.52-3.006S18.81-7.452,20.484-7.452Z" transform="translate(-4330 -14152.674)"/>
      <path id="Caminho_773612" data-name="Caminho 773612" d="M5.886-11.682C2.538-11.682.612-9.522.612-5.67.612-1.944,2.43.144,5.67.144A6.691,6.691,0,0,0,8.73-.612L8.874-2.3l-.18-.108a4.847,4.847,0,0,1-2.88.99c-2.07,0-3.258-1.512-3.258-4.446,0-2.844,1.152-4.266,3.258-4.266A4.278,4.278,0,0,1,8.478-9.2l.18-.054L9-10.89A6.1,6.1,0,0,0,5.886-11.682ZM13.608-8.46a5.768,5.768,0,0,0-3.24,1.08L10.6-6.1l.144.09A4.1,4.1,0,0,1,13.32-7.164a1.185,1.185,0,0,1,1.3,1.35l-.018.972-2.844.63a1.918,1.918,0,0,0-1.746,2c0,1.44.99,2.34,2.664,2.358a5.271,5.271,0,0,0,1.872-1.35h.126A1.4,1.4,0,0,0,15.984.126a2.933,2.933,0,0,0,1.134-.4l.18-1.008L17.136-1.4a2.753,2.753,0,0,1-.54.072c-.378,0-.522-.144-.522-.612,0-.612.216-3.636.216-4.266C16.29-7.632,15.246-8.46,13.608-8.46Zm.99,4.68-.054,1.386a2.542,2.542,0,0,1-1.8,1.1,1.037,1.037,0,0,1-1.1-1.152.664.664,0,0,1,.612-.774ZM29.214,0h1.854l-.09-3.636.054-2.34c.018-1.548-.936-2.43-2.79-2.43a6.528,6.528,0,0,0-2.376,1.35h-.108a2.527,2.527,0,0,0-2.592-1.35,5.977,5.977,0,0,0-2.214,1.278h-.126l.018-1.206L19.1-8.172l.09,4.7L19.08,0H20.9l-.09-3.636.018-2.2a3.229,3.229,0,0,1,2.16-1.08c.864,0,1.3.558,1.278,1.458L24.138,0h1.836L25.9-3.636l.036-2.232a3.174,3.174,0,0,1,2.124-1.044c.864,0,1.3.558,1.278,1.458Zm5.238-12.168a.973.973,0,0,0-1.044,1.044.914.914,0,0,0,.99,1.008.97.97,0,0,0,1.008-1.062A.89.89,0,0,0,34.452-12.168Zm.72,8.532.144-4.7-1.836.162.09,4.7L33.462,0H35.3Zm5.2-4.806c-1.908,0-3.024,1.08-3.024,2.5,0,2.61,3.726,2.268,3.726,3.8A1.151,1.151,0,0,1,39.8-1.08a3.8,3.8,0,0,1-2.3-.972l-.2.126L37.08-.4A6.518,6.518,0,0,0,39.6.162c2.07,0,3.114-1.278,3.114-2.61,0-2.538-3.726-2.214-3.726-3.726a1.051,1.051,0,0,1,1.17-.99,3.357,3.357,0,0,1,1.836.63l.234-.054.252-1.44A5.7,5.7,0,0,0,40.374-8.442ZM50.652-4.068l.306-.288a7.013,7.013,0,0,0,.072-.9,2.847,2.847,0,0,0-3.024-3.186c-2.412,0-3.978,1.638-3.978,4.338,0,2.628,1.44,4.266,3.924,4.266a5.842,5.842,0,0,0,2.52-.612l.216-1.458-.162-.108a4.941,4.941,0,0,1-2.43.756c-1.584,0-2.34-1.026-2.376-2.808Zm-1.3-1.206-3.546.09a2.11,2.11,0,0,1,2.088-2c.9,0,1.494.522,1.494,1.692Zm6.5,3.888c-.738,0-1.062-.288-1.044-1.188l.09-4.518h2.322l.09-1.044-.072-.126h-2.3l.036-1.782-.162-.144-1.62.612v1.314h-1.1L52-7.2l.072.108h1.134l.018,3.51-.072,1.3A2.148,2.148,0,0,0,55.278.108a5.2,5.2,0,0,0,1.836-.54l.18-1.152-.18-.126A2.838,2.838,0,0,1,55.854-1.386Zm5.94-7.074a5.768,5.768,0,0,0-3.24,1.08L58.788-6.1l.144.09a4.1,4.1,0,0,1,2.574-1.152,1.185,1.185,0,0,1,1.3,1.35l-.018.972-2.844.63a1.918,1.918,0,0,0-1.746,2c0,1.44.99,2.34,2.664,2.358a5.271,5.271,0,0,0,1.872-1.35h.126A1.4,1.4,0,0,0,64.17.126,2.933,2.933,0,0,0,65.3-.27l.18-1.008L65.322-1.4a2.753,2.753,0,0,1-.54.072c-.378,0-.522-.144-.522-.612,0-.612.216-3.636.216-4.266C64.476-7.632,63.432-8.46,61.794-8.46Zm.99,4.68L62.73-2.394a2.542,2.542,0,0,1-1.8,1.1,1.037,1.037,0,0,1-1.1-1.152.664.664,0,0,1,.612-.774Zm6.984-4.662c-1.908,0-3.024,1.08-3.024,2.5,0,2.61,3.726,2.268,3.726,3.8A1.151,1.151,0,0,1,69.192-1.08a3.8,3.8,0,0,1-2.3-.972l-.2.126L66.474-.4a6.518,6.518,0,0,0,2.52.558c2.07,0,3.114-1.278,3.114-2.61,0-2.538-3.726-2.214-3.726-3.726a1.051,1.051,0,0,1,1.17-.99,3.357,3.357,0,0,1,1.836.63l.234-.054.252-1.44A5.7,5.7,0,0,0,69.768-8.442ZM80.1-8.46c-2.376,0-3.8,1.674-3.8,4.392,0,2.628,1.332,4.23,3.582,4.23a6.427,6.427,0,0,0,2.2-.414l.18-1.476L82.1-1.836a4.329,4.329,0,0,1-1.926.54c-1.368,0-2.142-1.08-2.142-2.916,0-1.746.756-2.736,2.034-2.736a3.568,3.568,0,0,1,1.764.558l.18-.072.306-1.53A5.4,5.4,0,0,0,80.1-8.46Zm6.984,0c-2.484,0-3.87,1.6-3.87,4.446,0,2.664,1.314,4.176,3.636,4.176,2.484,0,3.87-1.6,3.87-4.446C90.72-6.948,89.406-8.46,87.084-8.46Zm-.108,1.278c1.35,0,2.034,1.044,2.034,3.312,0,1.89-.684,2.772-2.034,2.772-1.368,0-2.052-1.026-2.052-3.312C84.924-6.264,85.608-7.182,86.976-7.182ZM102.816,0h1.854l-.09-3.636.054-2.34c.018-1.548-.936-2.43-2.79-2.43a6.528,6.528,0,0,0-2.376,1.35H99.36a2.527,2.527,0,0,0-2.592-1.35,5.977,5.977,0,0,0-2.214,1.278h-.126l.018-1.206L92.7-8.172l.09,4.7L92.682,0H94.5l-.09-3.636.018-2.2a3.229,3.229,0,0,1,2.16-1.08c.864,0,1.3.558,1.278,1.458L97.74,0h1.836L99.5-3.636l.036-2.232a3.174,3.174,0,0,1,2.124-1.044c.864,0,1.3.558,1.278,1.458ZM113.8-12.672c-2.07,0-3.276,1.116-3.258,3.168l.018,1.242h-1.224l-.09,1.062.072.108h1.242l.036,3.6L110.484,0h1.836l-.126-3.654.054-3.438h2.088l.108-1.044-.054-.126h-2.124l.018-1.548c.018-1.044.5-1.548,1.35-1.548a3.3,3.3,0,0,1,1.386.342l.126-.108.108-1.386A6.955,6.955,0,0,0,113.8-12.672Zm5.94,4.356a2.655,2.655,0,0,0-2.268,1.638h-.126l.018-1.656-1.746.162.108,4.7L115.6,0h1.836l-.126-3.636.018-1.188c.63-1.242,1.26-1.746,2-1.746a2.519,2.519,0,0,1,.666.09l.2-.054V-8.28A3.506,3.506,0,0,0,119.736-8.316Zm4.644-.144a5.768,5.768,0,0,0-3.24,1.08l.234,1.278.144.09a4.1,4.1,0,0,1,2.574-1.152,1.185,1.185,0,0,1,1.3,1.35l-.018.972-2.844.63a1.918,1.918,0,0,0-1.746,2c0,1.44.99,2.34,2.664,2.358a5.271,5.271,0,0,0,1.872-1.35h.126A1.4,1.4,0,0,0,126.756.126a2.933,2.933,0,0,0,1.134-.4l.18-1.008-.162-.126a2.753,2.753,0,0,1-.54.072c-.378,0-.522-.144-.522-.612,0-.612.216-3.636.216-4.266C127.062-7.632,126.018-8.46,124.38-8.46Zm.99,4.68-.054,1.386a2.542,2.542,0,0,1-1.8,1.1,1.037,1.037,0,0,1-1.1-1.152.664.664,0,0,1,.612-.774Zm6.984-4.662c-1.908,0-3.024,1.08-3.024,2.5,0,2.61,3.726,2.268,3.726,3.8a1.151,1.151,0,0,1-1.278,1.062,3.8,3.8,0,0,1-2.3-.972l-.2.126L129.06-.4a6.518,6.518,0,0,0,2.52.558c2.07,0,3.114-1.278,3.114-2.61,0-2.538-3.726-2.214-3.726-3.726a1.051,1.051,0,0,1,1.17-.99,3.357,3.357,0,0,1,1.836.63l.234-.054.252-1.44A5.7,5.7,0,0,0,132.354-8.442Zm10.278,4.374.306-.288a7.011,7.011,0,0,0,.072-.9,2.847,2.847,0,0,0-3.024-3.186c-2.412,0-3.978,1.638-3.978,4.338,0,2.628,1.44,4.266,3.924,4.266a5.842,5.842,0,0,0,2.52-.612l.216-1.458-.162-.108a4.941,4.941,0,0,1-2.43.756c-1.584,0-2.34-1.026-2.376-2.808Zm-1.3-1.206-3.546.09a2.11,2.11,0,0,1,2.088-2c.9,0,1.494.522,1.494,1.692ZM147.4-8.442c-1.908,0-3.024,1.08-3.024,2.5,0,2.61,3.726,2.268,3.726,3.8a1.151,1.151,0,0,1-1.278,1.062,3.8,3.8,0,0,1-2.3-.972l-.2.126L144.108-.4a6.518,6.518,0,0,0,2.52.558c2.07,0,3.114-1.278,3.114-2.61,0-2.538-3.726-2.214-3.726-3.726a1.051,1.051,0,0,1,1.17-.99,3.357,3.357,0,0,1,1.836.63l.234-.054.252-1.44A5.7,5.7,0,0,0,147.4-8.442Zm13.644,4.788.144-8.982-1.836.144L159.39-8.3a7.586,7.586,0,0,0-1.4-.144c-2.538,0-4.086,1.548-4.086,4.32,0,2.664,1.314,4.23,3.726,4.23A7.351,7.351,0,0,0,159.5-1.134h.144a1.425,1.425,0,0,0,1.332,1.26,2.917,2.917,0,0,0,1.152-.4l.162-1.008-.162-.126a2.6,2.6,0,0,1-.558.072c-.342,0-.45-.144-.468-.594Zm-3.24-3.528a3.717,3.717,0,0,1,1.6.414l.054,3.276-.036,1.17a2.3,2.3,0,0,1-1.764.936c-1.26,0-2.016-1.026-2.034-2.952C155.592-6.264,156.456-7.182,157.806-7.182Zm9.36-1.278c-2.484,0-3.87,1.6-3.87,4.446,0,2.664,1.314,4.176,3.636,4.176,2.484,0,3.87-1.6,3.87-4.446C170.8-6.948,169.488-8.46,167.166-8.46Zm-.108,1.278c1.35,0,2.034,1.044,2.034,3.312,0,1.89-.684,2.772-2.034,2.772-1.368,0-2.052-1.026-2.052-3.312C165.006-6.264,165.69-7.182,167.058-7.182Zm8.208-1.26c-1.908,0-3.024,1.08-3.024,2.5,0,2.61,3.726,2.268,3.726,3.8A1.151,1.151,0,0,1,174.69-1.08a3.8,3.8,0,0,1-2.3-.972l-.2.126L171.972-.4a6.518,6.518,0,0,0,2.52.558c2.07,0,3.114-1.278,3.114-2.61,0-2.538-3.726-2.214-3.726-3.726a1.051,1.051,0,0,1,1.17-.99,3.357,3.357,0,0,1,1.836.63l.234-.054.252-1.44A5.7,5.7,0,0,0,175.266-8.442ZM185.4-8.46a5.768,5.768,0,0,0-3.24,1.08l.234,1.278.144.09a4.1,4.1,0,0,1,2.574-1.152,1.185,1.185,0,0,1,1.3,1.35l-.018.972-2.844.63a1.918,1.918,0,0,0-1.746,2c0,1.44.99,2.34,2.664,2.358a5.271,5.271,0,0,0,1.872-1.35h.126A1.4,1.4,0,0,0,187.776.126a2.933,2.933,0,0,0,1.134-.4l.18-1.008-.162-.126a2.753,2.753,0,0,1-.54.072c-.378,0-.522-.144-.522-.612,0-.612.216-3.636.216-4.266C188.082-7.632,187.038-8.46,185.4-8.46Zm.99,4.68-.054,1.386a2.542,2.542,0,0,1-1.8,1.1,1.037,1.037,0,0,1-1.1-1.152.664.664,0,0,1,.612-.774ZM195.93,0h1.854l-.09-3.636.054-2.34c.018-1.548-.936-2.43-2.79-2.43a6.121,6.121,0,0,0-2.214,1.278h-.126l.018-1.206-1.746.162.09,4.7L190.872,0h1.836L192.6-3.636l.018-2.2a3.229,3.229,0,0,1,2.16-1.08c.864,0,1.3.558,1.278,1.458Zm7.56-8.46c-2.484,0-3.87,1.6-3.87,4.446,0,2.664,1.314,4.176,3.636,4.176,2.484,0,3.87-1.6,3.87-4.446C207.126-6.948,205.812-8.46,203.49-8.46Zm-.108,1.278c1.35,0,2.034,1.044,2.034,3.312,0,1.89-.684,2.772-2.034,2.772-1.368,0-2.052-1.026-2.052-3.312C201.33-6.264,202.014-7.182,203.382-7.182Zm8.208-1.26c-1.908,0-3.024,1.08-3.024,2.5,0,2.61,3.726,2.268,3.726,3.8a1.151,1.151,0,0,1-1.278,1.062,3.8,3.8,0,0,1-2.3-.972l-.2.126L208.3-.4a6.518,6.518,0,0,0,2.52.558c2.07,0,3.114-1.278,3.114-2.61,0-2.538-3.726-2.214-3.726-3.726a1.051,1.051,0,0,1,1.17-.99,3.357,3.357,0,0,1,1.836.63l.234-.054.252-1.44A5.7,5.7,0,0,0,211.59-8.442Zm10.368-2.232c-1.944,0-3.294,1.062-3.294,2.844A2.678,2.678,0,0,0,220.3-5.346v.09a2.983,2.983,0,0,0-2.034,2.682c0,1.584,1.188,2.718,3.294,2.718,2.2,0,3.654-1.17,3.654-3.042a2.821,2.821,0,0,0-1.98-2.592v-.09a2.937,2.937,0,0,0,1.656-2.538C224.892-9.7,223.794-10.674,221.958-10.674Zm-.09,1.3a1.4,1.4,0,0,1,1.584,1.44c0,1.008-.72,1.494-1.53,1.872-.918-.36-1.746-.792-1.746-1.818C220.176-8.8,220.806-9.378,221.868-9.378Zm-.27,4.662c1.062.432,2.088.828,2.088,1.944,0,.936-.72,1.638-1.962,1.638-1.188,0-1.908-.666-1.908-1.656C219.816-3.906,220.662-4.374,221.6-4.716Zm9.4-4.428c-2.592,0-4.086,1.746-4.086,4.788,0,2.862,1.4,4.5,3.852,4.5,2.592,0,4.05-1.728,4.05-4.752C234.81-7.506,233.424-9.144,230.994-9.144Zm-.144,1.692c1.656,0,2.538,1.008,2.538,3.06,0,1.944-.864,2.916-2.52,2.916-1.692,0-2.52-1.008-2.52-3.006S229.176-7.452,230.85-7.452Z" transform="translate(-4650 -14156.674)"/>
      <path id="Caminho_773613" data-name="Caminho 773613" d="M5.886-11.682C2.538-11.682.612-9.522.612-5.67.612-1.944,2.43.144,5.67.144A6.691,6.691,0,0,0,8.73-.612L8.874-2.3l-.18-.108a4.847,4.847,0,0,1-2.88.99c-2.07,0-3.258-1.512-3.258-4.446,0-2.844,1.152-4.266,3.258-4.266A4.278,4.278,0,0,1,8.478-9.2l.18-.054L9-10.89A6.1,6.1,0,0,0,5.886-11.682ZM13.608-8.46a5.768,5.768,0,0,0-3.24,1.08L10.6-6.1l.144.09A4.1,4.1,0,0,1,13.32-7.164a1.185,1.185,0,0,1,1.3,1.35l-.018.972-2.844.63a1.918,1.918,0,0,0-1.746,2c0,1.44.99,2.34,2.664,2.358a5.271,5.271,0,0,0,1.872-1.35h.126A1.4,1.4,0,0,0,15.984.126a2.933,2.933,0,0,0,1.134-.4l.18-1.008L17.136-1.4a2.753,2.753,0,0,1-.54.072c-.378,0-.522-.144-.522-.612,0-.612.216-3.636.216-4.266C16.29-7.632,15.246-8.46,13.608-8.46Zm.99,4.68-.054,1.386a2.542,2.542,0,0,1-1.8,1.1,1.037,1.037,0,0,1-1.1-1.152.664.664,0,0,1,.612-.774ZM29.214,0h1.854l-.09-3.636.054-2.34c.018-1.548-.936-2.43-2.79-2.43a6.528,6.528,0,0,0-2.376,1.35h-.108a2.527,2.527,0,0,0-2.592-1.35,5.977,5.977,0,0,0-2.214,1.278h-.126l.018-1.206L19.1-8.172l.09,4.7L19.08,0H20.9l-.09-3.636.018-2.2a3.229,3.229,0,0,1,2.16-1.08c.864,0,1.3.558,1.278,1.458L24.138,0h1.836L25.9-3.636l.036-2.232a3.174,3.174,0,0,1,2.124-1.044c.864,0,1.3.558,1.278,1.458Zm5.238-12.168a.973.973,0,0,0-1.044,1.044.914.914,0,0,0,.99,1.008.97.97,0,0,0,1.008-1.062A.89.89,0,0,0,34.452-12.168Zm.72,8.532.144-4.7-1.836.162.09,4.7L33.462,0H35.3Zm5.2-4.806c-1.908,0-3.024,1.08-3.024,2.5,0,2.61,3.726,2.268,3.726,3.8A1.151,1.151,0,0,1,39.8-1.08a3.8,3.8,0,0,1-2.3-.972l-.2.126L37.08-.4A6.518,6.518,0,0,0,39.6.162c2.07,0,3.114-1.278,3.114-2.61,0-2.538-3.726-2.214-3.726-3.726a1.051,1.051,0,0,1,1.17-.99,3.357,3.357,0,0,1,1.836.63l.234-.054.252-1.44A5.7,5.7,0,0,0,40.374-8.442ZM50.652-4.068l.306-.288a7.013,7.013,0,0,0,.072-.9,2.847,2.847,0,0,0-3.024-3.186c-2.412,0-3.978,1.638-3.978,4.338,0,2.628,1.44,4.266,3.924,4.266a5.842,5.842,0,0,0,2.52-.612l.216-1.458-.162-.108a4.941,4.941,0,0,1-2.43.756c-1.584,0-2.34-1.026-2.376-2.808Zm-1.3-1.206-3.546.09a2.11,2.11,0,0,1,2.088-2c.9,0,1.494.522,1.494,1.692Zm6.5,3.888c-.738,0-1.062-.288-1.044-1.188l.09-4.518h2.322l.09-1.044-.072-.126h-2.3l.036-1.782-.162-.144-1.62.612v1.314h-1.1L52-7.2l.072.108h1.134l.018,3.51-.072,1.3A2.148,2.148,0,0,0,55.278.108a5.2,5.2,0,0,0,1.836-.54l.18-1.152-.18-.126A2.838,2.838,0,0,1,55.854-1.386Zm5.94-7.074a5.768,5.768,0,0,0-3.24,1.08L58.788-6.1l.144.09a4.1,4.1,0,0,1,2.574-1.152,1.185,1.185,0,0,1,1.3,1.35l-.018.972-2.844.63a1.918,1.918,0,0,0-1.746,2c0,1.44.99,2.34,2.664,2.358a5.271,5.271,0,0,0,1.872-1.35h.126A1.4,1.4,0,0,0,64.17.126,2.933,2.933,0,0,0,65.3-.27l.18-1.008L65.322-1.4a2.753,2.753,0,0,1-.54.072c-.378,0-.522-.144-.522-.612,0-.612.216-3.636.216-4.266C64.476-7.632,63.432-8.46,61.794-8.46Zm.99,4.68L62.73-2.394a2.542,2.542,0,0,1-1.8,1.1,1.037,1.037,0,0,1-1.1-1.152.664.664,0,0,1,.612-.774Zm6.984-4.662c-1.908,0-3.024,1.08-3.024,2.5,0,2.61,3.726,2.268,3.726,3.8A1.151,1.151,0,0,1,69.192-1.08a3.8,3.8,0,0,1-2.3-.972l-.2.126L66.474-.4a6.518,6.518,0,0,0,2.52.558c2.07,0,3.114-1.278,3.114-2.61,0-2.538-3.726-2.214-3.726-3.726a1.051,1.051,0,0,1,1.17-.99,3.357,3.357,0,0,1,1.836.63l.234-.054.252-1.44A5.7,5.7,0,0,0,69.768-8.442ZM80.1-8.46c-2.376,0-3.8,1.674-3.8,4.392,0,2.628,1.332,4.23,3.582,4.23a6.427,6.427,0,0,0,2.2-.414l.18-1.476L82.1-1.836a4.329,4.329,0,0,1-1.926.54c-1.368,0-2.142-1.08-2.142-2.916,0-1.746.756-2.736,2.034-2.736a3.568,3.568,0,0,1,1.764.558l.18-.072.306-1.53A5.4,5.4,0,0,0,80.1-8.46Zm6.984,0c-2.484,0-3.87,1.6-3.87,4.446,0,2.664,1.314,4.176,3.636,4.176,2.484,0,3.87-1.6,3.87-4.446C90.72-6.948,89.406-8.46,87.084-8.46Zm-.108,1.278c1.35,0,2.034,1.044,2.034,3.312,0,1.89-.684,2.772-2.034,2.772-1.368,0-2.052-1.026-2.052-3.312C84.924-6.264,85.608-7.182,86.976-7.182ZM102.816,0h1.854l-.09-3.636.054-2.34c.018-1.548-.936-2.43-2.79-2.43a6.528,6.528,0,0,0-2.376,1.35H99.36a2.527,2.527,0,0,0-2.592-1.35,5.977,5.977,0,0,0-2.214,1.278h-.126l.018-1.206L92.7-8.172l.09,4.7L92.682,0H94.5l-.09-3.636.018-2.2a3.229,3.229,0,0,1,2.16-1.08c.864,0,1.3.558,1.278,1.458L97.74,0h1.836L99.5-3.636l.036-2.232a3.174,3.174,0,0,1,2.124-1.044c.864,0,1.3.558,1.278,1.458ZM113.8-12.672c-2.07,0-3.276,1.116-3.258,3.168l.018,1.242h-1.224l-.09,1.062.072.108h1.242l.036,3.6L110.484,0h1.836l-.126-3.654.054-3.438h2.088l.108-1.044-.054-.126h-2.124l.018-1.548c.018-1.044.5-1.548,1.35-1.548a3.3,3.3,0,0,1,1.386.342l.126-.108.108-1.386A6.955,6.955,0,0,0,113.8-12.672Zm5.94,4.356a2.655,2.655,0,0,0-2.268,1.638h-.126l.018-1.656-1.746.162.108,4.7L115.6,0h1.836l-.126-3.636.018-1.188c.63-1.242,1.26-1.746,2-1.746a2.519,2.519,0,0,1,.666.09l.2-.054V-8.28A3.506,3.506,0,0,0,119.736-8.316Zm4.644-.144a5.768,5.768,0,0,0-3.24,1.08l.234,1.278.144.09a4.1,4.1,0,0,1,2.574-1.152,1.185,1.185,0,0,1,1.3,1.35l-.018.972-2.844.63a1.918,1.918,0,0,0-1.746,2c0,1.44.99,2.34,2.664,2.358a5.271,5.271,0,0,0,1.872-1.35h.126A1.4,1.4,0,0,0,126.756.126a2.933,2.933,0,0,0,1.134-.4l.18-1.008-.162-.126a2.753,2.753,0,0,1-.54.072c-.378,0-.522-.144-.522-.612,0-.612.216-3.636.216-4.266C127.062-7.632,126.018-8.46,124.38-8.46Zm.99,4.68-.054,1.386a2.542,2.542,0,0,1-1.8,1.1,1.037,1.037,0,0,1-1.1-1.152.664.664,0,0,1,.612-.774Zm6.984-4.662c-1.908,0-3.024,1.08-3.024,2.5,0,2.61,3.726,2.268,3.726,3.8a1.151,1.151,0,0,1-1.278,1.062,3.8,3.8,0,0,1-2.3-.972l-.2.126L129.06-.4a6.518,6.518,0,0,0,2.52.558c2.07,0,3.114-1.278,3.114-2.61,0-2.538-3.726-2.214-3.726-3.726a1.051,1.051,0,0,1,1.17-.99,3.357,3.357,0,0,1,1.836.63l.234-.054.252-1.44A5.7,5.7,0,0,0,132.354-8.442Zm10.278,4.374.306-.288a7.011,7.011,0,0,0,.072-.9,2.847,2.847,0,0,0-3.024-3.186c-2.412,0-3.978,1.638-3.978,4.338,0,2.628,1.44,4.266,3.924,4.266a5.842,5.842,0,0,0,2.52-.612l.216-1.458-.162-.108a4.941,4.941,0,0,1-2.43.756c-1.584,0-2.34-1.026-2.376-2.808Zm-1.3-1.206-3.546.09a2.11,2.11,0,0,1,2.088-2c.9,0,1.494.522,1.494,1.692ZM147.4-8.442c-1.908,0-3.024,1.08-3.024,2.5,0,2.61,3.726,2.268,3.726,3.8a1.151,1.151,0,0,1-1.278,1.062,3.8,3.8,0,0,1-2.3-.972l-.2.126L144.108-.4a6.518,6.518,0,0,0,2.52.558c2.07,0,3.114-1.278,3.114-2.61,0-2.538-3.726-2.214-3.726-3.726a1.051,1.051,0,0,1,1.17-.99,3.357,3.357,0,0,1,1.836.63l.234-.054.252-1.44A5.7,5.7,0,0,0,147.4-8.442Zm13.644,4.788.144-8.982-1.836.144L159.39-8.3a7.586,7.586,0,0,0-1.4-.144c-2.538,0-4.086,1.548-4.086,4.32,0,2.664,1.314,4.23,3.726,4.23A7.351,7.351,0,0,0,159.5-1.134h.144a1.425,1.425,0,0,0,1.332,1.26,2.917,2.917,0,0,0,1.152-.4l.162-1.008-.162-.126a2.6,2.6,0,0,1-.558.072c-.342,0-.45-.144-.468-.594Zm-3.24-3.528a3.717,3.717,0,0,1,1.6.414l.054,3.276-.036,1.17a2.3,2.3,0,0,1-1.764.936c-1.26,0-2.016-1.026-2.034-2.952C155.592-6.264,156.456-7.182,157.806-7.182Zm9.36-1.278c-2.484,0-3.87,1.6-3.87,4.446,0,2.664,1.314,4.176,3.636,4.176,2.484,0,3.87-1.6,3.87-4.446C170.8-6.948,169.488-8.46,167.166-8.46Zm-.108,1.278c1.35,0,2.034,1.044,2.034,3.312,0,1.89-.684,2.772-2.034,2.772-1.368,0-2.052-1.026-2.052-3.312C165.006-6.264,165.69-7.182,167.058-7.182Zm8.208-1.26c-1.908,0-3.024,1.08-3.024,2.5,0,2.61,3.726,2.268,3.726,3.8A1.151,1.151,0,0,1,174.69-1.08a3.8,3.8,0,0,1-2.3-.972l-.2.126L171.972-.4a6.518,6.518,0,0,0,2.52.558c2.07,0,3.114-1.278,3.114-2.61,0-2.538-3.726-2.214-3.726-3.726a1.051,1.051,0,0,1,1.17-.99,3.357,3.357,0,0,1,1.836.63l.234-.054.252-1.44A5.7,5.7,0,0,0,175.266-8.442ZM185.4-8.46a5.768,5.768,0,0,0-3.24,1.08l.234,1.278.144.09a4.1,4.1,0,0,1,2.574-1.152,1.185,1.185,0,0,1,1.3,1.35l-.018.972-2.844.63a1.918,1.918,0,0,0-1.746,2c0,1.44.99,2.34,2.664,2.358a5.271,5.271,0,0,0,1.872-1.35h.126A1.4,1.4,0,0,0,187.776.126a2.933,2.933,0,0,0,1.134-.4l.18-1.008-.162-.126a2.753,2.753,0,0,1-.54.072c-.378,0-.522-.144-.522-.612,0-.612.216-3.636.216-4.266C188.082-7.632,187.038-8.46,185.4-8.46Zm.99,4.68-.054,1.386a2.542,2.542,0,0,1-1.8,1.1,1.037,1.037,0,0,1-1.1-1.152.664.664,0,0,1,.612-.774ZM195.93,0h1.854l-.09-3.636.054-2.34c.018-1.548-.936-2.43-2.79-2.43a6.121,6.121,0,0,0-2.214,1.278h-.126l.018-1.206-1.746.162.09,4.7L190.872,0h1.836L192.6-3.636l.018-2.2a3.229,3.229,0,0,1,2.16-1.08c.864,0,1.3.558,1.278,1.458Zm7.56-8.46c-2.484,0-3.87,1.6-3.87,4.446,0,2.664,1.314,4.176,3.636,4.176,2.484,0,3.87-1.6,3.87-4.446C207.126-6.948,205.812-8.46,203.49-8.46Zm-.108,1.278c1.35,0,2.034,1.044,2.034,3.312,0,1.89-.684,2.772-2.034,2.772-1.368,0-2.052-1.026-2.052-3.312C201.33-6.264,202.014-7.182,203.382-7.182Zm8.208-1.26c-1.908,0-3.024,1.08-3.024,2.5,0,2.61,3.726,2.268,3.726,3.8a1.151,1.151,0,0,1-1.278,1.062,3.8,3.8,0,0,1-2.3-.972l-.2.126L208.3-.4a6.518,6.518,0,0,0,2.52.558c2.07,0,3.114-1.278,3.114-2.61,0-2.538-3.726-2.214-3.726-3.726a1.051,1.051,0,0,1,1.17-.99,3.357,3.357,0,0,1,1.836.63l.234-.054.252-1.44A5.7,5.7,0,0,0,211.59-8.442Zm8.118-.576-1.782-.072L217.8-7.524l.108.18,1.494-.162h3.456l-4.014,8.622.108.306,1.476.4L221.31-.54,224.586-7.7l-.018-1.35-.81.036Zm10.242-.126c-2.592,0-4.086,1.746-4.086,4.788,0,2.862,1.4,4.5,3.852,4.5,2.592,0,4.05-1.728,4.05-4.752C233.766-7.506,232.38-9.144,229.95-9.144Zm-.144,1.692c1.656,0,2.538,1.008,2.538,3.06,0,1.944-.864,2.916-2.52,2.916-1.692,0-2.52-1.008-2.52-3.006S228.132-7.452,229.806-7.452Z" transform="translate(-4650 -14100.674)"/>
      <path id="Caminho_773614" data-name="Caminho 773614" d="M5.886-11.682C2.538-11.682.612-9.522.612-5.67.612-1.944,2.43.144,5.67.144A6.691,6.691,0,0,0,8.73-.612L8.874-2.3l-.18-.108a4.847,4.847,0,0,1-2.88.99c-2.07,0-3.258-1.512-3.258-4.446,0-2.844,1.152-4.266,3.258-4.266A4.278,4.278,0,0,1,8.478-9.2l.18-.054L9-10.89A6.1,6.1,0,0,0,5.886-11.682ZM13.608-8.46a5.768,5.768,0,0,0-3.24,1.08L10.6-6.1l.144.09A4.1,4.1,0,0,1,13.32-7.164a1.185,1.185,0,0,1,1.3,1.35l-.018.972-2.844.63a1.918,1.918,0,0,0-1.746,2c0,1.44.99,2.34,2.664,2.358a5.271,5.271,0,0,0,1.872-1.35h.126A1.4,1.4,0,0,0,15.984.126a2.933,2.933,0,0,0,1.134-.4l.18-1.008L17.136-1.4a2.753,2.753,0,0,1-.54.072c-.378,0-.522-.144-.522-.612,0-.612.216-3.636.216-4.266C16.29-7.632,15.246-8.46,13.608-8.46Zm.99,4.68-.054,1.386a2.542,2.542,0,0,1-1.8,1.1,1.037,1.037,0,0,1-1.1-1.152.664.664,0,0,1,.612-.774ZM29.214,0h1.854l-.09-3.636.054-2.34c.018-1.548-.936-2.43-2.79-2.43a6.528,6.528,0,0,0-2.376,1.35h-.108a2.527,2.527,0,0,0-2.592-1.35,5.977,5.977,0,0,0-2.214,1.278h-.126l.018-1.206L19.1-8.172l.09,4.7L19.08,0H20.9l-.09-3.636.018-2.2a3.229,3.229,0,0,1,2.16-1.08c.864,0,1.3.558,1.278,1.458L24.138,0h1.836L25.9-3.636l.036-2.232a3.174,3.174,0,0,1,2.124-1.044c.864,0,1.3.558,1.278,1.458Zm5.238-12.168a.973.973,0,0,0-1.044,1.044.914.914,0,0,0,.99,1.008.97.97,0,0,0,1.008-1.062A.89.89,0,0,0,34.452-12.168Zm.72,8.532.144-4.7-1.836.162.09,4.7L33.462,0H35.3Zm5.2-4.806c-1.908,0-3.024,1.08-3.024,2.5,0,2.61,3.726,2.268,3.726,3.8A1.151,1.151,0,0,1,39.8-1.08a3.8,3.8,0,0,1-2.3-.972l-.2.126L37.08-.4A6.518,6.518,0,0,0,39.6.162c2.07,0,3.114-1.278,3.114-2.61,0-2.538-3.726-2.214-3.726-3.726a1.051,1.051,0,0,1,1.17-.99,3.357,3.357,0,0,1,1.836.63l.234-.054.252-1.44A5.7,5.7,0,0,0,40.374-8.442ZM50.652-4.068l.306-.288a7.013,7.013,0,0,0,.072-.9,2.847,2.847,0,0,0-3.024-3.186c-2.412,0-3.978,1.638-3.978,4.338,0,2.628,1.44,4.266,3.924,4.266a5.842,5.842,0,0,0,2.52-.612l.216-1.458-.162-.108a4.941,4.941,0,0,1-2.43.756c-1.584,0-2.34-1.026-2.376-2.808Zm-1.3-1.206-3.546.09a2.11,2.11,0,0,1,2.088-2c.9,0,1.494.522,1.494,1.692Zm6.5,3.888c-.738,0-1.062-.288-1.044-1.188l.09-4.518h2.322l.09-1.044-.072-.126h-2.3l.036-1.782-.162-.144-1.62.612v1.314h-1.1L52-7.2l.072.108h1.134l.018,3.51-.072,1.3A2.148,2.148,0,0,0,55.278.108a5.2,5.2,0,0,0,1.836-.54l.18-1.152-.18-.126A2.838,2.838,0,0,1,55.854-1.386Zm5.94-7.074a5.768,5.768,0,0,0-3.24,1.08L58.788-6.1l.144.09a4.1,4.1,0,0,1,2.574-1.152,1.185,1.185,0,0,1,1.3,1.35l-.018.972-2.844.63a1.918,1.918,0,0,0-1.746,2c0,1.44.99,2.34,2.664,2.358a5.271,5.271,0,0,0,1.872-1.35h.126A1.4,1.4,0,0,0,64.17.126,2.933,2.933,0,0,0,65.3-.27l.18-1.008L65.322-1.4a2.753,2.753,0,0,1-.54.072c-.378,0-.522-.144-.522-.612,0-.612.216-3.636.216-4.266C64.476-7.632,63.432-8.46,61.794-8.46Zm.99,4.68L62.73-2.394a2.542,2.542,0,0,1-1.8,1.1,1.037,1.037,0,0,1-1.1-1.152.664.664,0,0,1,.612-.774Zm6.984-4.662c-1.908,0-3.024,1.08-3.024,2.5,0,2.61,3.726,2.268,3.726,3.8A1.151,1.151,0,0,1,69.192-1.08a3.8,3.8,0,0,1-2.3-.972l-.2.126L66.474-.4a6.518,6.518,0,0,0,2.52.558c2.07,0,3.114-1.278,3.114-2.61,0-2.538-3.726-2.214-3.726-3.726a1.051,1.051,0,0,1,1.17-.99,3.357,3.357,0,0,1,1.836.63l.234-.054.252-1.44A5.7,5.7,0,0,0,69.768-8.442ZM80.1-8.46c-2.376,0-3.8,1.674-3.8,4.392,0,2.628,1.332,4.23,3.582,4.23a6.427,6.427,0,0,0,2.2-.414l.18-1.476L82.1-1.836a4.329,4.329,0,0,1-1.926.54c-1.368,0-2.142-1.08-2.142-2.916,0-1.746.756-2.736,2.034-2.736a3.568,3.568,0,0,1,1.764.558l.18-.072.306-1.53A5.4,5.4,0,0,0,80.1-8.46Zm6.984,0c-2.484,0-3.87,1.6-3.87,4.446,0,2.664,1.314,4.176,3.636,4.176,2.484,0,3.87-1.6,3.87-4.446C90.72-6.948,89.406-8.46,87.084-8.46Zm-.108,1.278c1.35,0,2.034,1.044,2.034,3.312,0,1.89-.684,2.772-2.034,2.772-1.368,0-2.052-1.026-2.052-3.312C84.924-6.264,85.608-7.182,86.976-7.182ZM102.816,0h1.854l-.09-3.636.054-2.34c.018-1.548-.936-2.43-2.79-2.43a6.528,6.528,0,0,0-2.376,1.35H99.36a2.527,2.527,0,0,0-2.592-1.35,5.977,5.977,0,0,0-2.214,1.278h-.126l.018-1.206L92.7-8.172l.09,4.7L92.682,0H94.5l-.09-3.636.018-2.2a3.229,3.229,0,0,1,2.16-1.08c.864,0,1.3.558,1.278,1.458L97.74,0h1.836L99.5-3.636l.036-2.232a3.174,3.174,0,0,1,2.124-1.044c.864,0,1.3.558,1.278,1.458ZM113.8-12.672c-2.07,0-3.276,1.116-3.258,3.168l.018,1.242h-1.224l-.09,1.062.072.108h1.242l.036,3.6L110.484,0h1.836l-.126-3.654.054-3.438h2.088l.108-1.044-.054-.126h-2.124l.018-1.548c.018-1.044.5-1.548,1.35-1.548a3.3,3.3,0,0,1,1.386.342l.126-.108.108-1.386A6.955,6.955,0,0,0,113.8-12.672Zm5.94,4.356a2.655,2.655,0,0,0-2.268,1.638h-.126l.018-1.656-1.746.162.108,4.7L115.6,0h1.836l-.126-3.636.018-1.188c.63-1.242,1.26-1.746,2-1.746a2.519,2.519,0,0,1,.666.09l.2-.054V-8.28A3.506,3.506,0,0,0,119.736-8.316Zm4.644-.144a5.768,5.768,0,0,0-3.24,1.08l.234,1.278.144.09a4.1,4.1,0,0,1,2.574-1.152,1.185,1.185,0,0,1,1.3,1.35l-.018.972-2.844.63a1.918,1.918,0,0,0-1.746,2c0,1.44.99,2.34,2.664,2.358a5.271,5.271,0,0,0,1.872-1.35h.126A1.4,1.4,0,0,0,126.756.126a2.933,2.933,0,0,0,1.134-.4l.18-1.008-.162-.126a2.753,2.753,0,0,1-.54.072c-.378,0-.522-.144-.522-.612,0-.612.216-3.636.216-4.266C127.062-7.632,126.018-8.46,124.38-8.46Zm.99,4.68-.054,1.386a2.542,2.542,0,0,1-1.8,1.1,1.037,1.037,0,0,1-1.1-1.152.664.664,0,0,1,.612-.774Zm6.984-4.662c-1.908,0-3.024,1.08-3.024,2.5,0,2.61,3.726,2.268,3.726,3.8a1.151,1.151,0,0,1-1.278,1.062,3.8,3.8,0,0,1-2.3-.972l-.2.126L129.06-.4a6.518,6.518,0,0,0,2.52.558c2.07,0,3.114-1.278,3.114-2.61,0-2.538-3.726-2.214-3.726-3.726a1.051,1.051,0,0,1,1.17-.99,3.357,3.357,0,0,1,1.836.63l.234-.054.252-1.44A5.7,5.7,0,0,0,132.354-8.442Zm10.278,4.374.306-.288a7.011,7.011,0,0,0,.072-.9,2.847,2.847,0,0,0-3.024-3.186c-2.412,0-3.978,1.638-3.978,4.338,0,2.628,1.44,4.266,3.924,4.266a5.842,5.842,0,0,0,2.52-.612l.216-1.458-.162-.108a4.941,4.941,0,0,1-2.43.756c-1.584,0-2.34-1.026-2.376-2.808Zm-1.3-1.206-3.546.09a2.11,2.11,0,0,1,2.088-2c.9,0,1.494.522,1.494,1.692ZM147.4-8.442c-1.908,0-3.024,1.08-3.024,2.5,0,2.61,3.726,2.268,3.726,3.8a1.151,1.151,0,0,1-1.278,1.062,3.8,3.8,0,0,1-2.3-.972l-.2.126L144.108-.4a6.518,6.518,0,0,0,2.52.558c2.07,0,3.114-1.278,3.114-2.61,0-2.538-3.726-2.214-3.726-3.726a1.051,1.051,0,0,1,1.17-.99,3.357,3.357,0,0,1,1.836.63l.234-.054.252-1.44A5.7,5.7,0,0,0,147.4-8.442Zm13.644,4.788.144-8.982-1.836.144L159.39-8.3a7.586,7.586,0,0,0-1.4-.144c-2.538,0-4.086,1.548-4.086,4.32,0,2.664,1.314,4.23,3.726,4.23A7.351,7.351,0,0,0,159.5-1.134h.144a1.425,1.425,0,0,0,1.332,1.26,2.917,2.917,0,0,0,1.152-.4l.162-1.008-.162-.126a2.6,2.6,0,0,1-.558.072c-.342,0-.45-.144-.468-.594Zm-3.24-3.528a3.717,3.717,0,0,1,1.6.414l.054,3.276-.036,1.17a2.3,2.3,0,0,1-1.764.936c-1.26,0-2.016-1.026-2.034-2.952C155.592-6.264,156.456-7.182,157.806-7.182Zm9.36-1.278c-2.484,0-3.87,1.6-3.87,4.446,0,2.664,1.314,4.176,3.636,4.176,2.484,0,3.87-1.6,3.87-4.446C170.8-6.948,169.488-8.46,167.166-8.46Zm-.108,1.278c1.35,0,2.034,1.044,2.034,3.312,0,1.89-.684,2.772-2.034,2.772-1.368,0-2.052-1.026-2.052-3.312C165.006-6.264,165.69-7.182,167.058-7.182Zm8.208-1.26c-1.908,0-3.024,1.08-3.024,2.5,0,2.61,3.726,2.268,3.726,3.8A1.151,1.151,0,0,1,174.69-1.08a3.8,3.8,0,0,1-2.3-.972l-.2.126L171.972-.4a6.518,6.518,0,0,0,2.52.558c2.07,0,3.114-1.278,3.114-2.61,0-2.538-3.726-2.214-3.726-3.726a1.051,1.051,0,0,1,1.17-.99,3.357,3.357,0,0,1,1.836.63l.234-.054.252-1.44A5.7,5.7,0,0,0,175.266-8.442ZM185.4-8.46a5.768,5.768,0,0,0-3.24,1.08l.234,1.278.144.09a4.1,4.1,0,0,1,2.574-1.152,1.185,1.185,0,0,1,1.3,1.35l-.018.972-2.844.63a1.918,1.918,0,0,0-1.746,2c0,1.44.99,2.34,2.664,2.358a5.271,5.271,0,0,0,1.872-1.35h.126A1.4,1.4,0,0,0,187.776.126a2.933,2.933,0,0,0,1.134-.4l.18-1.008-.162-.126a2.753,2.753,0,0,1-.54.072c-.378,0-.522-.144-.522-.612,0-.612.216-3.636.216-4.266C188.082-7.632,187.038-8.46,185.4-8.46Zm.99,4.68-.054,1.386a2.542,2.542,0,0,1-1.8,1.1,1.037,1.037,0,0,1-1.1-1.152.664.664,0,0,1,.612-.774ZM195.93,0h1.854l-.09-3.636.054-2.34c.018-1.548-.936-2.43-2.79-2.43a6.121,6.121,0,0,0-2.214,1.278h-.126l.018-1.206-1.746.162.09,4.7L190.872,0h1.836L192.6-3.636l.018-2.2a3.229,3.229,0,0,1,2.16-1.08c.864,0,1.3.558,1.278,1.458Zm7.56-8.46c-2.484,0-3.87,1.6-3.87,4.446,0,2.664,1.314,4.176,3.636,4.176,2.484,0,3.87-1.6,3.87-4.446C207.126-6.948,205.812-8.46,203.49-8.46Zm-.108,1.278c1.35,0,2.034,1.044,2.034,3.312,0,1.89-.684,2.772-2.034,2.772-1.368,0-2.052-1.026-2.052-3.312C201.33-6.264,202.014-7.182,203.382-7.182Zm8.208-1.26c-1.908,0-3.024,1.08-3.024,2.5,0,2.61,3.726,2.268,3.726,3.8a1.151,1.151,0,0,1-1.278,1.062,3.8,3.8,0,0,1-2.3-.972l-.2.126L208.3-.4a6.518,6.518,0,0,0,2.52.558c2.07,0,3.114-1.278,3.114-2.61,0-2.538-3.726-2.214-3.726-3.726a1.051,1.051,0,0,1,1.17-.99,3.357,3.357,0,0,1,1.836.63l.234-.054.252-1.44A5.7,5.7,0,0,0,211.59-8.442Zm10.8,2.07a3.719,3.719,0,0,0-2.124.666l-.126-.144c.576-1.71,2.07-2.88,4.806-3.852v-.18l-1.368-.828h-.108c-3.348,1.386-5.274,3.87-5.274,6.894,0,2.484,1.17,3.978,3.474,3.978a3.347,3.347,0,0,0,3.636-3.456A2.812,2.812,0,0,0,222.39-6.372ZM221.8-1.08c-1.386,0-1.944-.936-1.944-2.772l.018-.432a3.279,3.279,0,0,1,2-.774c1.152,0,1.8.72,1.8,2.016A1.749,1.749,0,0,1,221.8-1.08Zm9.072-8.064c-2.592,0-4.086,1.746-4.086,4.788,0,2.862,1.4,4.5,3.852,4.5,2.592,0,4.05-1.728,4.05-4.752C234.684-7.506,233.3-9.144,230.868-9.144Zm-.144,1.692c1.656,0,2.538,1.008,2.538,3.06,0,1.944-.864,2.916-2.52,2.916-1.692,0-2.52-1.008-2.52-3.006S229.05-7.452,230.724-7.452Z" transform="translate(-4650 -14047.674)"/>
      <path id="Caminho_773625" data-name="Caminho 773625" d="M4.32-8.91l-.27-.2L.18-7.974v1.458l.162.108,2.2-.612.018,3.492L2.448,0H4.3l-.09-3.726Zm8.946-.072-.108-.126-1.764.09h-2.5L7.9-9.072,7.65-8.82,7.56-3.96,7.7-3.8l1.6.306c1.512.27,2.106.828,2.106,1.782,0,1.206-.936,2.034-2.43,2.034A4.99,4.99,0,0,1,6.93-.126L6.786.018l.126,1.548a10.218,10.218,0,0,0,1.818.2c2.592,0,4.41-1.53,4.41-3.762,0-1.422-.756-2.376-3.024-2.844L9-5.076l.054-2.466h2.412l1.476.126.126-.126Zm5.526-.162c-2.592,0-4.086,1.746-4.086,4.788,0,2.862,1.4,4.5,3.852,4.5,2.592,0,4.05-1.728,4.05-4.752C22.608-7.506,21.222-9.144,18.792-9.144Zm-.144,1.692c1.656,0,2.538,1.008,2.538,3.06,0,1.944-.864,2.916-2.52,2.916-1.692,0-2.52-1.008-2.52-3.006S16.974-7.452,18.648-7.452Z" transform="translate(-4292 -14044.674)"/>
      <path id="Caminho_773615" data-name="Caminho 773615" d="M4.86-9.144C2.268-9.144.774-7.4.774-4.356c0,2.862,1.4,4.5,3.852,4.5,2.592,0,4.05-1.728,4.05-4.752C8.676-7.506,7.29-9.144,4.86-9.144ZM4.716-7.452c1.656,0,2.538,1.008,2.538,3.06,0,1.944-.864,2.916-2.52,2.916-1.692,0-2.52-1.008-2.52-3.006S3.042-7.452,4.716-7.452Z" transform="translate(-4409 -14006.674)"/>
      <path id="Caminho_773616" data-name="Caminho 773616" d="M6.948-8.982,6.84-9.108l-1.764.09h-2.5l-.99-.054-.252.252-.09,4.86.144.162,1.6.306c1.512.27,2.106.828,2.106,1.782C5.094-.5,4.158.324,2.664.324A4.99,4.99,0,0,1,.612-.126L.468.018.594,1.566a10.218,10.218,0,0,0,1.818.2C5,1.764,6.822.234,6.822-2c0-1.422-.756-2.376-3.024-2.844L2.682-5.076l.054-2.466H5.148l1.476.126.126-.126Zm5.526-.162c-2.592,0-4.086,1.746-4.086,4.788,0,2.862,1.4,4.5,3.852,4.5,2.592,0,4.05-1.728,4.05-4.752C16.29-7.506,14.9-9.144,12.474-9.144ZM12.33-7.452c1.656,0,2.538,1.008,2.538,3.06,0,1.944-.864,2.916-2.52,2.916-1.692,0-2.52-1.008-2.52-3.006S10.656-7.452,12.33-7.452Z" transform="translate(-4385 -14006.674)"/>
      <path id="Caminho_773617" data-name="Caminho 773617" d="M4.32-8.91l-.27-.2L.18-7.974v1.458l.162.108,2.2-.612.018,3.492L2.448,0H4.3l-.09-3.726Zm6.858-.234c-2.592,0-4.086,1.746-4.086,4.788,0,2.862,1.4,4.5,3.852,4.5,2.592,0,4.05-1.728,4.05-4.752C14.994-7.506,13.608-9.144,11.178-9.144Zm-.144,1.692c1.656,0,2.538,1.008,2.538,3.06,0,1.944-.864,2.916-2.52,2.916-1.692,0-2.52-1.008-2.52-3.006S9.36-7.452,11.034-7.452Zm9.594-1.692c-2.592,0-4.086,1.746-4.086,4.788,0,2.862,1.4,4.5,3.852,4.5,2.592,0,4.05-1.728,4.05-4.752C24.444-7.506,23.058-9.144,20.628-9.144Zm-.144,1.692c1.656,0,2.538,1.008,2.538,3.06,0,1.944-.864,2.916-2.52,2.916-1.692,0-2.52-1.008-2.52-3.006S18.81-7.452,20.484-7.452Z" transform="translate(-4351 -14006.674)"/>
      <path id="Caminho_773618" data-name="Caminho 773618" d="M4.32-8.91l-.27-.2L.18-7.974v1.458l.162.108,2.2-.612.018,3.492L2.448,0H4.3l-.09-3.726Zm8.946-.072-.108-.126-1.764.09h-2.5L7.9-9.072,7.65-8.82,7.56-3.96,7.7-3.8l1.6.306c1.512.27,2.106.828,2.106,1.782,0,1.206-.936,2.034-2.43,2.034A4.99,4.99,0,0,1,6.93-.126L6.786.018l.126,1.548a10.218,10.218,0,0,0,1.818.2c2.592,0,4.41-1.53,4.41-3.762,0-1.422-.756-2.376-3.024-2.844L9-5.076l.054-2.466h2.412l1.476.126.126-.126Zm5.526-.162c-2.592,0-4.086,1.746-4.086,4.788,0,2.862,1.4,4.5,3.852,4.5,2.592,0,4.05-1.728,4.05-4.752C22.608-7.506,21.222-9.144,18.792-9.144Zm-.144,1.692c1.656,0,2.538,1.008,2.538,3.06,0,1.944-.864,2.916-2.52,2.916-1.692,0-2.52-1.008-2.52-3.006S16.974-7.452,18.648-7.452Z" transform="translate(-4309 -14006.674)"/>
      <path id="Caminho_773619" data-name="Caminho 773619" d="M4.23-9.108A5.487,5.487,0,0,0,.9-7.812L1.206-6.39h.2a3.579,3.579,0,0,1,2.43-1.152c.792,0,1.224.414,1.224.972,0,.7-.63,1.548-1.8,2.808L.792-1.17V-.036l.09.072L1.548,0H5.616L7.6.09,7.83-1.422,7.7-1.548,6.138-1.4H3.2l-.036-.09,1.6-1.818C6.21-4.932,6.858-6.048,6.858-7.02,6.858-8.3,5.742-9.108,4.23-9.108Zm8.946-.036C10.584-9.144,9.09-7.4,9.09-4.356c0,2.862,1.4,4.5,3.852,4.5,2.592,0,4.05-1.728,4.05-4.752C16.992-7.506,15.606-9.144,13.176-9.144Zm-.144,1.692c1.656,0,2.538,1.008,2.538,3.06,0,1.944-.864,2.916-2.52,2.916-1.692,0-2.52-1.008-2.52-3.006S11.358-7.452,13.032-7.452Zm9.594-1.692c-2.592,0-4.086,1.746-4.086,4.788,0,2.862,1.4,4.5,3.852,4.5,2.592,0,4.05-1.728,4.05-4.752C26.442-7.506,25.056-9.144,22.626-9.144Zm-.144,1.692c1.656,0,2.538,1.008,2.538,3.06,0,1.944-.864,2.916-2.52,2.916-1.692,0-2.52-1.008-2.52-3.006S20.808-7.452,22.482-7.452Z" transform="translate(-4269 -14006.674)"/>
      <path id="Caminho_773620" data-name="Caminho 773620" d="M4.23-9.108A5.487,5.487,0,0,0,.9-7.812L1.206-6.39h.2a3.579,3.579,0,0,1,2.43-1.152c.792,0,1.224.414,1.224.972,0,.7-.63,1.548-1.8,2.808L.792-1.17V-.036l.09.072L1.548,0H5.616L7.6.09,7.83-1.422,7.7-1.548,6.138-1.4H3.2l-.036-.09,1.6-1.818C6.21-4.932,6.858-6.048,6.858-7.02,6.858-8.3,5.742-9.108,4.23-9.108Zm11.034.126-.108-.126-1.764.09h-2.5L9.9-9.072l-.252.252-.09,4.86L9.7-3.8l1.6.306c1.512.27,2.106.828,2.106,1.782C13.41-.5,12.474.324,10.98.324a4.99,4.99,0,0,1-2.052-.45L8.784.018,8.91,1.566a10.218,10.218,0,0,0,1.818.2c2.592,0,4.41-1.53,4.41-3.762,0-1.422-.756-2.376-3.024-2.844L11-5.076l.054-2.466h2.412l1.476.126.126-.126Zm5.526-.162C18.2-9.144,16.7-7.4,16.7-4.356c0,2.862,1.4,4.5,3.852,4.5,2.592,0,4.05-1.728,4.05-4.752C24.606-7.506,23.22-9.144,20.79-9.144Zm-.144,1.692c1.656,0,2.538,1.008,2.538,3.06,0,1.944-.864,2.916-2.52,2.916-1.692,0-2.52-1.008-2.52-3.006S18.972-7.452,20.646-7.452Z" transform="translate(-4224 -14006.674)"/>
      <path id="Caminho_773621" data-name="Caminho 773621" d="M3.528-9.126A4.854,4.854,0,0,0,.5-8.028l.27,1.386h.2a3.494,3.494,0,0,1,2.2-.99A1.249,1.249,0,0,1,4.59-6.372a1.982,1.982,0,0,1-2,1.818L1.8-4.536l-.054,1.26.108.126H2.988c1.332.054,2.034.63,2.034,1.62,0,1.152-.954,1.854-2.43,1.854a4.835,4.835,0,0,1-1.908-.4L.558.054l.09,1.512A12.458,12.458,0,0,0,2.5,1.728c2.556,0,4.266-1.368,4.266-3.4A2.394,2.394,0,0,0,4.68-4.05v-.072A3.028,3.028,0,0,0,6.444-6.768C6.444-8.172,5.274-9.126,3.528-9.126Zm8.892-.018c-2.592,0-4.086,1.746-4.086,4.788,0,2.862,1.4,4.5,3.852,4.5,2.592,0,4.05-1.728,4.05-4.752C16.236-7.506,14.85-9.144,12.42-9.144Zm-.144,1.692c1.656,0,2.538,1.008,2.538,3.06,0,1.944-.864,2.916-2.52,2.916-1.692,0-2.52-1.008-2.52-3.006S10.6-7.452,12.276-7.452ZM21.87-9.144c-2.592,0-4.086,1.746-4.086,4.788,0,2.862,1.4,4.5,3.852,4.5,2.592,0,4.05-1.728,4.05-4.752C25.686-7.506,24.3-9.144,21.87-9.144Zm-.144,1.692c1.656,0,2.538,1.008,2.538,3.06,0,1.944-.864,2.916-2.52,2.916-1.692,0-2.52-1.008-2.52-3.006S20.052-7.452,21.726-7.452Z" transform="translate(-4180 -14006.674)"/>
      <path id="Caminho_773622" data-name="Caminho 773622" d="M3.528-9.126A4.854,4.854,0,0,0,.5-8.028l.27,1.386h.2a3.494,3.494,0,0,1,2.2-.99A1.249,1.249,0,0,1,4.59-6.372a1.982,1.982,0,0,1-2,1.818L1.8-4.536l-.054,1.26.108.126H2.988c1.332.054,2.034.63,2.034,1.62,0,1.152-.954,1.854-2.43,1.854a4.835,4.835,0,0,1-1.908-.4L.558.054l.09,1.512A12.458,12.458,0,0,0,2.5,1.728c2.556,0,4.266-1.368,4.266-3.4A2.394,2.394,0,0,0,4.68-4.05v-.072A3.028,3.028,0,0,0,6.444-6.768C6.444-8.172,5.274-9.126,3.528-9.126Zm10.98.144L14.4-9.108l-1.764.09h-2.5l-.99-.054-.252.252L8.8-3.96l.144.162,1.6.306c1.512.27,2.106.828,2.106,1.782,0,1.206-.936,2.034-2.43,2.034a4.99,4.99,0,0,1-2.052-.45L8.028.018l.126,1.548a10.218,10.218,0,0,0,1.818.2c2.592,0,4.41-1.53,4.41-3.762,0-1.422-.756-2.376-3.024-2.844l-1.116-.234L10.3-7.542h2.412l1.476.126.126-.126Zm5.526-.162c-2.592,0-4.086,1.746-4.086,4.788,0,2.862,1.4,4.5,3.852,4.5,2.592,0,4.05-1.728,4.05-4.752C23.85-7.506,22.464-9.144,20.034-9.144ZM19.89-7.452c1.656,0,2.538,1.008,2.538,3.06,0,1.944-.864,2.916-2.52,2.916-1.692,0-2.52-1.008-2.52-3.006S18.216-7.452,19.89-7.452Z" transform="translate(-4136 -14006.674)"/>
      <path id="Caminho_773623" data-name="Caminho 773623" d="M8.58-7.81a3.813,3.813,0,0,0,2.42-3.7c0-3.08-2.75-4.224-5.478-4.224A9.718,9.718,0,0,0,.836-14.542l1.21,2.376a5.5,5.5,0,0,1,2.926-.858c1.43,0,2.662.484,2.662,1.826S6.38-9.02,3.872-9.02h-.66v2.442h.44c2.508,0,4.378.484,4.378,2.112,0,1.408-1.3,2-3.08,2a7.794,7.794,0,0,1-3.674-.924L.2-.968A10.077,10.077,0,0,0,5.258.33c3.278,0,6.116-1.562,6.116-4.554A3.591,3.591,0,0,0,8.58-7.81ZM20.614.33c4.312,0,6.842-3.5,6.842-8.03s-2.53-8.03-6.842-8.03c-4.334,0-6.864,3.5-6.864,8.03S16.28.33,20.614.33Zm0-2.75c-2.486,0-3.5-2.684-3.5-5.28s1.012-5.28,3.5-5.28,3.5,2.684,3.5,5.28S23.1-2.42,20.614-2.42ZM36.5.33c4.312,0,6.842-3.5,6.842-8.03s-2.53-8.03-6.842-8.03c-4.334,0-6.864,3.5-6.864,8.03S32.164.33,36.5.33Zm0-2.75C34.012-2.42,33-5.1,33-7.7s1.012-5.28,3.5-5.28S40-10.3,40-7.7,38.984-2.42,36.5-2.42Z" transform="translate(-4159 -14099.174)"/>
    </g>
    <path id="Caminho_773611" data-name="Caminho 773611" d="M-93.4,0V-9.482L-86.317,0h2.6V-15.4h-3.124v9.46l-7.084-9.46H-96.5V0Zm20.064-17.182-5.148,3.344,1.144,1.848,5.478-2.706Zm3.234,6.4h-3.1c0,3.5-.11,8.448-2.75,8.448-1.364,0-1.628-1.43-1.628-2.354V-10.78h-3.08v7.106a3.685,3.685,0,0,0,3.916,4,4,4,0,0,0,3.784-2.794L-73.2,0h3.1Zm16.764-.33A3.957,3.957,0,0,0-57.057-8.4a3.2,3.2,0,0,0-3.322-2.706c-1.914,0-3.1,1.188-3.828,2.948l.264-2.618h-3.08V0h3.08c0-3.476.154-8.448,2.6-8.448,1.21,0,1.342,1.32,1.342,2.354V0h3.1c0-3.454.132-8.448,2.574-8.448,1.232,0,1.364,1.32,1.364,2.354V0h3.08V-6.952C-49.885-9.57-51.139-11.11-53.339-11.11Zm11.682,9a2.844,2.844,0,0,1-2.926-2.112l6.6-.77A5.685,5.685,0,0,0-37.7-6.8c0-2.728-1.98-4.312-4.62-4.312-3.124,0-5.39,2.2-5.39,5.676A5.445,5.445,0,0,0-41.877.33,6.636,6.636,0,0,0-37.961-.88l-1.144-2A4.938,4.938,0,0,1-41.657-2.112Zm-.484-6.622c.968,0,1.672.506,1.672,1.452a1.7,1.7,0,0,1-.066.55l-4.18.506A2.638,2.638,0,0,1-42.141-8.734Zm13.772-2.376c-2.376,0-3.564,1.76-4.18,4.114l.374-3.784h-3.08V0h3.08c0-3.564.22-7.92,3.146-7.92a3.491,3.491,0,0,1,1.1.2l.814-3.212A4.544,4.544,0,0,0-28.369-11.11ZM-20.559.33a5.441,5.441,0,0,0,5.632-5.72,5.429,5.429,0,0,0-5.632-5.72,5.434,5.434,0,0,0-5.654,5.72A5.446,5.446,0,0,0-20.559.33Zm0-2.508c-1.628,0-2.464-1.5-2.464-3.212S-22.187-8.6-20.559-8.6c1.606,0,2.442,1.5,2.442,3.212S-18.953-2.178-20.559-2.178Zm21.12-8.8A8.474,8.474,0,0,0-.957-11.11c-4.356,0-6.226,3.168-6.226,6.424C-7.183-1.738-5.665.33-3.157.33-1.133.33.121-1.122.891-3.08L.561,0h3.1V-15.928H.561ZM-2.211-2.156c-.99,0-1.76-.638-1.76-2.64,0-1.518.528-3.96,2.97-3.96a3.61,3.61,0,0,1,1.54.374C.363-5.5-.275-2.156-2.211-2.156Zm14.19.044A2.844,2.844,0,0,1,9.053-4.224l6.6-.77a5.685,5.685,0,0,0,.286-1.8c0-2.728-1.98-4.312-4.62-4.312-3.124,0-5.39,2.2-5.39,5.676A5.445,5.445,0,0,0,11.759.33,6.636,6.636,0,0,0,15.675-.88l-1.144-2A4.938,4.938,0,0,1,11.979-2.112Zm-.484-6.622c.968,0,1.672.506,1.672,1.452a1.7,1.7,0,0,1-.066.55l-4.18.506A2.638,2.638,0,0,1,11.495-8.734Zm18.9-1.518a10.432,10.432,0,0,1,1.078,4.378c0,1.8-.682,3.63-2.486,3.63-1.166,0-1.76-.748-1.76-2.178V-10.78h-3.08v6.688c0,2.6,1.87,4.4,4.818,4.4,3.784,0,5.654-2.926,5.654-6.182a14.105,14.105,0,0,0-1.21-5.214Zm12.166,8.14a2.844,2.844,0,0,1-2.926-2.112l6.6-.77a5.685,5.685,0,0,0,.286-1.8c0-2.728-1.98-4.312-4.62-4.312-3.124,0-5.39,2.2-5.39,5.676A5.445,5.445,0,0,0,42.339.33,6.636,6.636,0,0,0,46.255-.88l-1.144-2A4.938,4.938,0,0,1,42.559-2.112Zm-.484-6.622c.968,0,1.672.506,1.672,1.452a1.7,1.7,0,0,1-.066.55l-4.18.506A2.638,2.638,0,0,1,42.075-8.734ZM55.869-11.11c-2.09,0-3.344,1.276-4.092,3.146l.264-2.816h-3.08V0h3.08c0-3.5.2-8.448,2.882-8.448,1.364,0,1.5,1.452,1.5,2.354V0h3.1V-6.952C59.521-9.548,58.179-11.11,55.869-11.11Zm13.772.132a8.474,8.474,0,0,0-1.518-.132c-4.356,0-6.226,3.168-6.226,6.424C61.9-1.738,63.415.33,65.923.33c2.024,0,3.278-1.452,4.048-3.41L69.641,0h3.1V-15.928h-3.1ZM66.869-2.156c-.99,0-1.76-.638-1.76-2.64,0-1.518.528-3.96,2.97-3.96a3.61,3.61,0,0,1,1.54.374C69.443-5.5,68.8-2.156,66.869-2.156ZM81.433-11.11c-4.356,0-6.226,3.168-6.226,6.424,0,2.948,1.518,5.016,4.026,5.016,2.024,0,3.278-1.43,4.048-3.388L82.951,0h3.1V-9.7A8.088,8.088,0,0,0,81.433-11.11ZM80.179-2.156c-.99,0-1.76-.638-1.76-2.64,0-1.518.528-3.96,2.97-3.96a3.61,3.61,0,0,1,1.54.374C82.753-5.5,82.115-2.156,80.179-2.156ZM92.785.33c2.662,0,4.6-1.144,4.6-3.63,0-3.828-5.566-2.706-5.566-4.4,0-.7.88-.9,1.694-.9a5.752,5.752,0,0,1,2.684.66L97.251-10.1A8.551,8.551,0,0,0,93.2-11.11c-2.222,0-4.488.924-4.488,3.388,0,4.026,5.588,2.86,5.588,4.642,0,.594-.594.924-1.672.924A6.735,6.735,0,0,1,89.287-3.1L88.165-.858A9.414,9.414,0,0,0,92.785.33Z" transform="translate(0.614 3790.002)"/>
  </g>
</svg>
