<svg xmlns="http://www.w3.org/2000/svg" xmlns:xlink="http://www.w3.org/1999/xlink" fill="none" version="1.1" width="412.001953125" height="291.447265625" viewBox="0 0 412.001953125 291.447265625"><defs><linearGradient x1="0.20902326703071594" y1="0" x2="0.8787026855729337" y2="0.9538220333851798" id="master_svg0_0_13699"><stop offset="0%" stop-color="#FFFFFF" stop-opacity="1"/><stop offset="24.27770048379898%" stop-color="#95EBFF" stop-opacity="1"/><stop offset="64.44510221481323%" stop-color="#0024A8" stop-opacity="1"/><stop offset="100%" stop-color="#3DB8F9" stop-opacity="1"/></linearGradient><linearGradient x1="0.97254878282547" y1="1" x2="0" y2="1" id="master_svg1_0_13473"><stop offset="0%" stop-color="#FFFFFF" stop-opacity="0"/><stop offset="15.896299481391907%" stop-color="#FFFFFF" stop-opacity="0.40784314274787903"/><stop offset="41.416001319885254%" stop-color="#95EBFF" stop-opacity="1"/><stop offset="59.83930230140686%" stop-color="#3DB8F9" stop-opacity="1"/><stop offset="82.01829791069031%" stop-color="#1B74D8" stop-opacity="1"/><stop offset="100%" stop-color="#0024A8" stop-opacity="1"/></linearGradient><linearGradient x1="0.02745121717453003" y1="0" x2="1" y2="0" id="master_svg2_0_13475"><stop offset="0%" stop-color="#FFFFFF" stop-opacity="0"/><stop offset="15.896299481391907%" stop-color="#FFFFFF" stop-opacity="0.40784314274787903"/><stop offset="41.416001319885254%" stop-color="#95EBFF" stop-opacity="1"/><stop offset="59.83930230140686%" stop-color="#3DB8F9" stop-opacity="1"/><stop offset="82.01829791069031%" stop-color="#1B74D8" stop-opacity="1"/><stop offset="100%" stop-color="#0024A8" stop-opacity="1"/></linearGradient><linearGradient x1="0" y1="-0.07054403424263" x2="0.023762910737180804" y2="0.9995288685926565" id="master_svg3_0_13701"><stop offset="0%" stop-color="#C95EE9" stop-opacity="1"/><stop offset="100%" stop-color="#9D7DF6" stop-opacity="1"/></linearGradient><mask id="master_svg4_0_5335" style="mask-type:alpha" maskUnits="objectBoundingBox"><g><path d="M154.15458593750006,207.88128662109375C154.15458593750006,207.88128662109375,121.32558593750005,259.92838662109375,121.32558593750005,259.92838662109375C121.32558593750005,259.92838662109375,92.54388593750005,207.97686842109374,92.54388593750005,207.97686842109374C54.086185937500055,217.96798662109376,23.97798593750006,246.07408662109376,13.975585937500057,281.56928662109374C13.975585937500057,281.56928662109374,233.08258593750006,281.56928662109374,233.08258593750006,281.56928662109374C223.05758593750005,245.96218662109374,192.78658593750006,217.78749662109374,154.15458593750006,207.88128662109375C154.15458593750006,207.88128662109375,154.15458593750006,207.88128662109375,154.15458593750006,207.88128662109375Z" fill="#FFFFFF" fill-opacity="1"/></g></mask><linearGradient x1="0.015410627238452435" y1="0.2688416540622711" x2="-0.09578050775925478" y2="0.9847243592840408" id="master_svg5_0_13595"><stop offset="0%" stop-color="#64DADB" stop-opacity="1"/><stop offset="100%" stop-color="#4DC5F2" stop-opacity="1"/></linearGradient></defs><g><g><path d="M56.9309,35.0758056640625C56.9309,35.0758056640625,378.202,35.0758056640625,378.202,35.0758056640625C378.202,35.0758056640625,321.382,291.4478056640625,321.382,291.4478056640625C321.382,291.4478056640625,0,291.3578056640625,0,291.3578056640625C0,291.3578056640625,56.9309,35.0758056640625,56.9309,35.0758056640625C56.9309,35.0758056640625,56.9309,35.0758056640625,56.9309,35.0758056640625Z" fill="url(#master_svg0_0_13699)" fill-opacity="1" style="mix-blend-mode:passthrough"/></g><g><path d="M71.083,21.4475099296875C71.083,21.4475099296875,412.002,21.2967529296875,412.002,21.2967529296875C412.002,21.2967529296875,354.233,281.3837529296875,354.233,281.3837529296875C354.233,281.3837529296875,13,281.1847529296875,13,281.1847529296875C13,281.1847529296875,71.083,21.4475099296875,71.083,21.4475099296875C71.083,21.4475099296875,71.083,21.4475099296875,71.083,21.4475099296875Z" fill="#FFFFFF" fill-opacity="1" style="mix-blend-mode:passthrough"/></g><g><g><path d="M278.1080596875,0C278.1080596875,0,412.0024296875,0,412.0024296875,0C412.0024296875,0,406.92742968749997,21.3635,406.92742968749997,21.3635C406.92742968749997,21.3635,273.4404296875,21.3635,273.4404296875,21.3635C273.4404296875,21.3635,278.1080596875,0,278.1080596875,0C278.1080596875,0,278.1080596875,0,278.1080596875,0Z" fill="url(#master_svg1_0_13473)" fill-opacity="1" style="mix-blend-mode:passthrough"/></g><g><path d="M407.3344296875,42.59346520996094C407.3344296875,42.59346520996094,273.4404296875,42.59346520996094,273.4404296875,42.59346520996094C273.4404296875,42.59346520996094,278.5150396875,21.229965209960938,278.5150396875,21.229965209960938C278.5150396875,21.229965209960938,412.0024296875,21.229965209960938,412.0024296875,21.229965209960938C412.0024296875,21.229965209960938,407.3344296875,42.59346520996094,407.3344296875,42.59346520996094C407.3344296875,42.59346520996094,407.3344296875,42.59346520996094,407.3344296875,42.59346520996094Z" fill="url(#master_svg2_0_13475)" fill-opacity="1" style="mix-blend-mode:passthrough"/></g></g><g><g><g><path d="M252.04443359375,227.2651489074707C252.04443359375,227.2651489074707,268.18003359375,230.94144890747071,268.18003359375,230.94144890747071C268.18003359375,230.94144890747071,279.93013359375,227.6462489074707,279.93013359375,227.6462489074707C279.93013359375,227.6462489074707,276.72653359375,214.4905489074707,276.72653359375,214.4905489074707C276.72653359375,214.4905489074707,263.99693359375,199.1850489074707,263.99693359375,199.1850489074707C263.99693359375,199.1850489074707,272.27613359375,196.2813189074707,272.27613359375,196.2813189074707C272.27613359375,196.2813189074707,270.37233359375,188.4693489074707,270.37233359375,188.4693489074707C270.37233359375,188.4693489074707,255.43141359375,204.8546489074707,255.43141359375,204.8546489074707C255.43141359375,204.8546489074707,252.13617709375,208.4519489074707,252.13617709375,208.4519489074707C252.13617709375,208.4519489074707,252.11006929375,214.4779489074707,252.11006929375,214.4779489074707C252.11006929375,214.4779489074707,252.11006929375,214.50394890747071,252.11006929375,214.50394890747071C252.11006929375,214.50394890747071,252.09741209375,216.9461489074707,252.09741209375,216.9461489074707C252.09741209375,216.9461489074707,252.04443359375,227.2651489074707,252.04443359375,227.2651489074707C252.04443359375,227.2651489074707,252.04443359375,227.2651489074707,252.04443359375,227.2651489074707Z" fill="#FFA694" fill-opacity="1" style="mix-blend-mode:passthrough"/></g><g><path d="M233.41407012939453,222.02663173828125C233.41407012939453,222.02663173828125,236.36779012939454,236.69153173828124,239.44011012939453,237.01963173828125C242.49898012939454,237.34773173828125,265.90817012939453,237.78103173828126,268.32347012939454,237.34773173828125C270.72607012939454,236.91453173828126,282.31887012939455,230.02203173828124,282.31887012939455,230.02203173828124C282.31887012939455,230.02203173828124,292.3887701293945,222.02663173828125,292.3887701293945,222.02663173828125C292.3887701293945,222.02663173828125,276.72607012939454,214.49058173828126,276.72607012939454,214.49058173828126C276.72607012939454,214.49058173828126,275.55757012939455,213.92609373828125,275.55757012939455,213.92609373828125C275.55757012939455,213.92609373828125,274.2316701293945,213.28253173828125,274.2316701293945,213.28253173828125C274.2316701293945,213.28253173828125,264.2012701293945,213.68971273828126,264.2012701293945,213.68971273828126C264.2012701293945,213.68971273828126,263.6627701293945,213.71658373828126,263.6627701293945,213.71658373828126C263.6627701293945,213.71658373828126,253.04177012939454,214.14903273828125,253.04177012939454,214.14903273828125C253.04177012939454,214.14903273828125,252.97617012939452,214.14903273828125,252.97617012939452,214.14903273828125C252.97617012939452,214.14903273828125,252.10967012939454,214.50403173828124,252.10967012939454,214.50403173828124C252.10967012939454,214.50403173828124,249.03737012939453,215.73816173828126,249.03737012939453,215.73816173828126C249.03737012939453,215.73816173828126,248.28857012939454,216.04016173828126,248.28857012939454,216.04016173828126C248.28857012939454,216.04016173828126,247.75017012939452,216.26312173828126,247.75017012939452,216.26312173828126C247.75017012939452,216.26312173828126,233.41407012939453,222.02663173828125,233.41407012939453,222.02663173828125C233.41407012939453,222.02663173828125,233.41407012939453,222.02663173828125,233.41407012939453,222.02663173828125Z" fill="#FFA694" fill-opacity="1" style="mix-blend-mode:passthrough"/></g><g><path d="M247.74982452392578,216.26321149902344C247.74982452392578,216.26321149902344,252.09581452392578,216.94551149902344,252.09581452392578,216.94551149902344C256.0211845239258,217.30051149902343,260.2090245239258,216.11851149902344,263.68852452392576,214.00521149902343C263.8593245239258,213.90011149902344,264.02932452392577,213.79491149902344,264.20012452392575,213.68981149902345C266.01212452392576,212.54741149902344,267.6139245239258,211.14321149902344,268.83462452392575,209.60711149902343C270.0426245239258,208.09704149902345,270.9748245239258,206.39014149902343,271.63102452392576,204.59151149902343C271.8152245239258,204.07999149902344,272.30062452392576,201.05987149902344,272.65482452392575,199.62888149902344C271.95912452392577,199.27470149902345,271.32892452392576,198.84143849902344,270.80402452392576,198.23741149902344C265.6445245239258,200.40368149902343,260.5245245239258,202.56993149902343,255.4298445239258,204.85399149902344C255.4298445239258,204.85399149902344,252.13454452392577,208.45121149902343,252.13454452392577,208.45121149902343C252.13454452392577,208.45121149902343,252.1084645239258,214.47721149902344,252.1084645239258,214.47721149902344C252.1084645239258,214.47721149902344,252.1084645239258,214.50411149902345,252.1084645239258,214.50411149902345C252.1084645239258,214.50411149902345,249.03614452392577,215.73821149902344,249.03614452392577,215.73821149902344C249.03614452392577,215.73821149902344,248.28824652392578,216.04021149902343,248.28824652392578,216.04021149902343C248.28824652392578,216.04021149902343,247.74982452392578,216.26321149902344,247.74982452392578,216.26321149902344C247.74982452392578,216.26321149902344,247.74982452392578,216.26321149902344,247.74982452392578,216.26321149902344Z" fill="#000000" fill-opacity="1" style="mix-blend-mode:passthrough"/></g><g><g><path d="M286.767074357605,187.79868959350586C285.28897435760496,186.64774659350587,283.298374357605,185.80584259350587,281.15357435760495,185.96996629350585C277.874674357605,186.22075559350586,275.525474357605,188.58872959350586,273.174474357605,190.11408959350587C267.90487435760497,193.53283959350586,257.143674357605,199.52488959350586,250.590374357605,194.57152959350586C248.37507435760497,192.89696959350587,248.16507435760496,190.41532959350587,245.57107435760497,188.92193959350587C243.734474357605,187.86405959350586,239.534874357605,186.24064159350587,237.171074357605,186.75360059350587C234.93373435760498,187.23956959350585,233.14754435760497,189.86400959350587,232.19301435760497,191.37089959350587C230.83595435760498,193.51435959350587,230.105154357605,195.94058959350585,230.563624357605,198.32418959350585C230.78643435760497,199.48228959350587,231.35860435760497,200.41228959350585,231.955524357605,201.46368959350585C232.860544357605,203.05938959350587,231.81431435760499,203.48568959350587,231.48880435760498,204.86258959350585C231.35860435760497,205.41248959350585,231.51631435760498,205.88988959350587,231.84457435760498,206.26928959350585C229.97770435760498,205.81098959350587,228.54269435760497,204.73538959350586,227.785314357605,203.26478959350587C227.52123535760498,202.75178959350586,226.43741935760497,202.97558959350584,226.70516655760497,203.49498959350586C227.55974635760498,205.15388959350585,229.08094435760498,206.48878959350586,231.31367435760498,207.08778959350587C234.58620435760497,207.96518959350587,237.852374357605,206.52578959350586,241.173474357605,207.46358959350584C243.88207435760498,208.22878959350587,246.211974357605,209.54948959350585,249.16267435760497,209.74908959350586C253.00097435760497,210.00918959350585,256.64947435760496,208.60598959350585,260.479474357605,208.71898959350585C262.138274357605,208.76728959350586,263.74657435760497,209.11538959350585,265.415374357605,209.00318959350585C267.266674357605,208.87878959350587,268.969374357605,208.22018959350586,270.83537435760496,208.15268959350587C272.34917435760497,208.09798959350587,273.84197435760495,208.54628959350586,275.356774357605,208.41698959350586C277.127374357605,208.26568959350587,278.248774357605,207.33778959350587,279.930374357605,206.99038959350585C282.61707435760496,206.43548959350585,284.54167435760496,207.40038959350585,286.63047435760495,205.48418959350585C288.40197435760496,203.85868959350586,289.50317435760496,201.61358959350585,290.121274357605,199.56608959350586C291.32607435760497,195.57683959350587,290.65307435760496,190.82525959350585,286.767074357605,187.79868959350586Z" fill="#FFE3D1" fill-opacity="1" style="mix-blend-mode:passthrough"/></g><g><path d="M279.34805045166013,160.3065544075012C274.13805045166015,153.1013144075012,265.70685045166016,148.16367240750122,256.8648504516602,148.4543384075012C228.69485045166016,149.38043240750122,232.86873045166016,185.10015440750124,242.83672045166014,201.4315544075012C244.42301045166016,204.03105440750122,247.19035045166015,206.25365440750122,249.65775045166015,208.2397544075012C252.15455045166016,210.25055440750123,254.85865045166017,212.1293544075012,257.89825045166015,212.88755440750123C263.84005045166015,214.37115440750122,268.05605045166016,211.4590544075012,272.05205045166014,207.70605440750123C273.87125045166016,205.99785440750122,275.67765045166016,204.55275440750123,277.14375045166014,202.41175440750123C282.62155045166014,194.4152544075012,284.26195045166014,184.88745440750122,283.44495045166013,175.52565440750124C283.1295504516602,171.90015440750122,280.58875045166013,162.02205440750123,279.34805045166013,160.3065544075012Z" fill="#FFA694" fill-opacity="1" style="mix-blend-mode:passthrough"/></g><g><path d="M253.7952386706543,175.3525760430908C253.1221386706543,174.60712804309082,251.7687586706543,174.11381894309082,250.72471867065428,174.16791131309083C249.4250486706543,174.23393224309083,248.1719186706543,174.71165104309082,247.1744386706543,175.38376604309082C246.4225586706543,175.8908260430908,243.3763886706543,178.4481260430908,245.8661716706543,178.59391604309081C246.3888986706543,178.62509604309082,246.9030486706543,178.45821604309083,247.4035786706543,178.31608604309082C248.8249786706543,177.91264604309083,250.3230086706543,177.68799604309083,251.8174486706543,177.6540660430908C252.6273186706543,177.6357260430908,253.6305386706543,177.58622604309082,253.9921586706543,177.01863604309082C254.3788386706543,176.41071604309082,254.2263086706543,175.83030604309081,253.7952386706543,175.3525760430908Z" fill="#FFE3D1" fill-opacity="1" style="mix-blend-mode:passthrough"/></g><g><path d="M265.2261957663574,176.14103128356933C265.6388167663574,176.71778128356934,266.5940617663574,176.62608128356933,267.3631817663574,176.52889128356932C268.78099176635743,176.34826128356934,270.2261717663574,176.37943128356935,271.62071176635743,176.61966128356934C272.11202176635743,176.70402128356935,272.6190817663574,176.81406128356934,273.1096917663574,176.70402128356935C275.44714176635745,176.17954128356934,272.2488717663574,173.78728128356934,271.4742817663574,173.33431928356933C270.4478717663574,172.73373728356933,269.2025117663574,172.38713348356933,267.9646517663574,172.50266918356934C266.9704117663574,172.59527528356932,265.7510377663574,173.33982028356934,265.2063597663574,174.26500128356935C264.8573834663574,174.85642128356935,264.7855297663574,175.52302128356934,265.2261957663574,176.14103128356933Z" fill="#FFE3D1" fill-opacity="1" style="mix-blend-mode:passthrough"/></g><g><path d="M268.5970121459961,197.89037322998047C268.5970121459961,197.89037322998047,254.2140121459961,198.73027022998048,254.2140121459961,198.73027022998048C254.2140121459961,198.73027022998048,256.0139521459961,203.21129322998047,261.4055221459961,202.93163322998046C266.7962121459961,202.65104322998047,268.5970121459961,197.89037322998047,268.5970121459961,197.89037322998047Z" fill="#FFFFFF" fill-opacity="1" style="mix-blend-mode:passthrough"/></g><g><path d="M298.4304939331055,190.5079180949903C298.82479393310547,189.6501180949903,299.18239393310546,188.7840180949903,299.2832939331055,187.8685180949903C299.5674939331055,185.35281809499028,298.36629393310545,183.46391809499028,297.6785939331055,181.12151809499028C296.8808939331055,178.3830180949903,297.65109393310547,175.55391809499028,297.0459939331055,172.7990180949903C296.55079393310547,170.46481809499028,294.9277939331055,168.95541809499028,293.6990939331055,166.95111809499028C292.47039393310547,164.9385180949903,291.9569939331055,162.57951809499028,290.82909393310547,160.5175180949903C289.80219393310546,158.61211809499028,288.5459939331055,156.81401809499027,287.10639393310544,155.1314180949903C284.71319393310546,152.3352780949903,281.3846939331055,149.11848809499028,277.5977939331055,147.5678280949903C274.68189393310547,145.5057780949903,271.1700939331055,144.13657809499028,267.46569393310546,143.4107340949903C262.75259393310546,142.4869359949903,256.04069393310544,141.56313809499028,251.47429393310546,143.8066480949903C244.09299393310548,143.98810809499028,236.84009393310546,148.7225680949903,231.68689393310547,153.0199180949903C228.93609393310547,155.3046180949903,227.18479393310548,157.9440180949903,227.02889393310548,161.34231809499028C226.90049393310548,164.1879180949903,227.16639393310547,166.6046180949903,225.38759393310548,169.1451180949903C224.23221393310547,170.7865180949903,222.79263393310546,172.2134180949903,221.93988393310548,174.0115180949903C221.18799393310547,175.57871809499028,220.88540393310547,177.29431809499027,221.06879393310547,179.00171809499028C221.25218393310547,180.6843180949903,222.09576393310547,181.9133180949903,220.74787393310547,183.69491809499027C220.22521393310547,184.3877180949903,219.30828393310546,184.9404180949903,218.68476393310547,185.5755180949903C216.34658393310548,187.9839180949903,214.40268693310546,191.07701809499028,214.82447683310548,194.3763180949903C214.91616993310546,195.0774180949903,215.22792793310546,195.7125180949903,215.36546793310546,196.39711809499028C215.64054793310547,197.7333180949903,215.02620193310545,198.84681809499028,214.98035593310547,200.11701809499027C214.93450893310546,201.21401809499028,215.14540393310546,202.13781809499028,215.88812393310548,203.0534180949903C216.84173393310547,204.2411180949903,218.11627393310548,204.84331809499028,219.52834393310548,205.0989180949903C219.84010393310547,205.1484180949903,220.17020393310546,205.1897180949903,220.50029393310547,205.2144180949903C220.79371393310547,205.2392180949903,221.09630393310547,205.2557180949903,221.39889393310546,205.2557180949903C221.70148393310546,205.4206180949903,222.02240393310547,205.5361180949903,222.33416393310546,205.6103180949903C222.99435393310546,205.78351809499028,223.64537393310547,205.8000180949903,224.30557393310548,205.79181809499028C224.62650393310548,205.79181809499028,224.96579393310546,205.7753180949903,225.28669393310548,205.7753180949903C226.20359393310548,205.7670180949903,227.11139393310546,205.81651809499027,228.04669393310547,206.2289180949903C228.25759393310545,206.32791809499028,228.45929393310547,206.4352180949903,228.68849393310546,206.4846180949903C228.97279393310546,206.5671180949903,229.28449393310547,206.5589180949903,229.58709393310548,206.55061809499028C231.59519393310546,206.4846180949903,234.03419393310548,207.0125180949903,234.81359393310547,204.81851809499028C235.03369393310547,204.1999180949903,235.40959393310547,202.7399180949903,235.02449393310548,202.11311809499028C234.96949393310547,202.0141180949903,234.86869393310548,201.93991809499028,234.81359393310547,201.8327180949903C234.55689393310547,201.2553180949903,235.53799393310547,200.63671809499027,235.89559393310546,200.3315180949903C236.68419393310546,199.6469180949903,237.63779393310546,199.1108180949903,238.32549393310546,198.3437180949903C239.03149393310548,197.54361809499028,239.39829393310546,196.6940180949903,239.43499393310546,195.67131809499028C239.49919393310546,194.3268180949903,238.84809393310547,193.05661809499028,238.51809393310546,191.7699180949903C237.85789393310546,189.16341809499028,238.84809393310547,187.83551809499028,239.70089393310548,185.5012180949903C240.92959393310548,182.13601809499028,239.17819393310546,178.3583180949903,238.86649393310546,174.9518180949903C238.57309393310547,171.76801809499028,238.71059393310546,168.5842180949903,239.19659393310548,165.4334180949903C239.66419393310548,165.5406180949903,240.15019393310547,165.5654180949903,240.70949393310548,165.53241809499028C241.87399393310545,165.4499180949903,248.70789393310548,165.9566180949903,258.3604939331055,164.64981809499028C259.6258939331055,164.6416180949903,262.02999393310546,160.7802180949903,262.6503939331055,159.6805180949903C267.2569939331055,161.82451809499028,267.3844939331055,164.2188180949903,270.93149393310546,165.53241809499028C271.1369939331055,165.53241809499028,277.50239393310545,166.42631809499028,278.1829939331055,166.26811809499029C279.4483939331055,169.7488180949903,279.71589393310546,171.3309180949903,279.6883939331055,175.0260180949903C279.67919393310547,176.9644180949903,279.11989393310546,179.0182180949903,279.5049939331055,180.94001809499028C279.79839393310544,182.4577180949903,280.80699393310545,183.69491809499027,281.3663939331055,185.13011809499028C282.6958939331055,188.5201180949903,280.00009393310546,191.70391809499029,281.4213939331055,195.1846180949903C282.40249393310546,197.6013180949903,282.1915939331055,199.14381809499028,281.8706939331055,201.61821809499028C281.6872939331055,203.06991809499027,281.76979393310546,204.2659180949903,282.58589393310547,205.54431809499027C282.76009393310545,205.80831809499028,283.08099393310545,205.8248180949903,283.31029393310547,205.71761809499029C284.67649393310546,206.4846180949903,286.8129939331055,206.51761809499027,288.4267939331055,206.4846180949903C290.9666939331055,206.4599180949903,296.58749393310546,206.66611809499028,298.11879393310545,204.3401180949903C298.96229393310546,203.06991809499027,297.9811939331055,202.1461180949903,299.12739393310545,200.6614180949903C299.9709939331055,199.5892180949903,300.7044939331055,199.1108180949903,300.95209393310546,197.6921180949903C301.4105939331055,195.0361180949903,299.81509393310546,192.8009180949903,298.4304939331055,190.5079180949903Z" fill="#FFE3D1" fill-opacity="1" style="mix-blend-mode:passthrough"/></g><g transform="matrix(0.9612616896629333,0.27563735842704773,-0.27563735842704773,0.9612616896629333,59.55098997598577,-67.03766670205925)"><path d="M268.4577743596191,181.9830743005371C268.9305543596191,183.6702143005371,270.17101735961916,184.7968243005371,271.22727735961917,184.5011443005371C272.28432735961917,184.2046543005371,272.7571073596191,182.5965643005371,272.28433735961914,180.91021430053712C271.81074735961914,179.22306430053712,270.5710873596191,178.0956603005371,269.51483735961915,178.3921376005371C268.45777935961917,178.68861830053712,267.98498835961914,180.2967043005371,268.4577743596191,181.9830743005371Z" fill="#000000" fill-opacity="1" style="mix-blend-mode:passthrough"/></g><g transform="matrix(0.9612616896629333,0.27563735842704773,-0.27563735842704773,0.9612616896629333,58.81814855032201,-61.82322980591539)"><path d="M249.54003067675782,181.9830743005371C250.01281067675782,183.6702143005371,251.2532736767578,184.7968243005371,252.3095336767578,184.5011443005371C253.3665836767578,184.2046543005371,253.8393636767578,182.5965643005371,253.36659367675782,180.91021430053712C252.89300367675781,179.22306430053712,251.6533436767578,178.0956603005371,250.59709367675782,178.3921376005371C249.5400356767578,178.68861830053712,249.0672446767578,180.2967043005371,249.54003067675782,181.9830743005371Z" fill="#000000" fill-opacity="1" style="mix-blend-mode:passthrough"/></g><g><path d="M258.4482379321289,185.20836227832032C258.96371793212893,184.4462312783203,260.0555579321289,185.37282127832032,259.5431979321289,186.1302102783203C258.9660679321289,186.9832802783203,259.0174679321289,186.8377902783203,258.58182793212893,187.77703027832032C258.0979879321289,188.8222102783203,258.1565279321289,190.6350702783203,259.73771793212893,190.5259702783203C260.6563979321289,190.4619502783203,260.7979079321289,191.88661027832032,259.8784479321289,191.9498502783203C258.3059079321289,192.0589602783203,257.0164489321289,190.92127027832032,256.8511963321289,189.3471802783203C256.67015093212893,187.6244602783203,257.4259639321289,186.7200002783203,258.4482379321289,185.20836227832032Z" fill="#000000" fill-opacity="1" style="mix-blend-mode:passthrough"/></g><g><path d="M262.5728302001953,159.80785595092775C262.6447678001953,160.29405595092774,263.8010602001953,160.08255595092774,263.9156802001953,160.54115595092773C265.9617702001953,157.07745595092774,269.1420702001953,150.94361595092772,271.1890102001953,147.48076595092775C271.5605602001953,146.85065595092775,271.93294020019533,146.20710595092774,272.3053102001953,145.57698795092773C271.9614002001953,145.23386795092773,271.60405020019533,144.90418595092774,271.2174502001953,144.60375595092773C270.7446602001953,145.39119895092773,270.28691020019534,146.19208595092775,269.8149302001953,146.97951595092775" fill="#FFA694" fill-opacity="1" style="mix-blend-mode:passthrough"/></g></g><g><path d="M292.1972761230469,221.66476440429688C292.1972761230469,221.66476440429688,282.29527612304685,227.26519440429686,282.29527612304685,227.26519440429686C282.29527612304685,227.26519440429686,272.06827612304687,230.43064440429688,272.06827612304687,230.43064440429688C272.06827612304687,230.43064440429688,261.67927612304686,231.24232440429688,261.67927612304686,231.24232440429688C261.67927612304686,231.24232440429688,252.34507612304688,230.43064440429688,252.34507612304688,230.43064440429688C252.34507612304688,230.43064440429688,243.82287612304688,228.1579944042969,243.82287612304688,228.1579944042969C243.82287612304688,228.1579944042969,236.84277612304686,224.91141440429686,236.84277612304686,224.91141440429686C236.84277612304686,224.91141440429686,232.62227612304687,221.66476440429688,232.62227612304687,221.66476440429688C200.61877612304687,229.97910440429686,179.73797612304688,252.03126440429688,171.41427612304688,281.5693644042969C171.41427612304688,281.5693644042969,353.7492761230469,281.5693644042969,353.7492761230469,281.5693644042969C345.40727612304687,251.93816440429688,324.3452761230469,229.9084544042969,292.1972761230469,221.66476440429688C292.1972761230469,221.66476440429688,292.1972761230469,221.66476440429688,292.1972761230469,221.66476440429688Z" fill="url(#master_svg3_0_13701)" fill-opacity="1" style="mix-blend-mode:passthrough"/></g><g><path d="M199.94998168945312,242.811249078125C203.84744168945312,249.072660078125,207.30267168945312,256.279480078125,209.79944168945312,263.402480078125C211.35478168945312,267.834280078125,212.4683816894531,272.482880078125,213.54198168945314,276.976580078125C213.80278168945313,278.063580078125,214.06328168945313,279.155080078125,214.32868168945313,280.242080078125C214.35518168945313,280.343780078125,214.44328168945313,280.409980078125,214.54498168945312,280.409980078125C214.56278168945312,280.409980078125,214.58028168945313,280.409980078125,214.59818168945313,280.405480078125C214.71738168945313,280.374580078125,214.78818168945313,280.255380078125,214.76158168945312,280.135880078125C214.49198168945313,279.048980078125,214.23148168945312,277.961980078125,213.97078168945313,276.870680078125C212.89678168945312,272.367880078125,211.77888168945313,267.710780078125,210.21908168945313,263.256680078125C207.68716168945312,256.054080078125,204.18750168945311,248.763200078125,200.24160768945313,242.444580078125C200.13995368945314,242.563782078125,200.0428466894531,242.687530078125,199.94998168945312,242.811249078125Z" fill="#000000" fill-opacity="1" style="mix-blend-mode:passthrough"/></g><g><path d="M329.98482446289063,243.89719378564453C326.0797244628906,250.17081278564453,322.6177844628906,257.3916927856445,320.11619446289063,264.52859278564455C318.5578444628906,268.96899278564456,317.44206446289064,273.62669278564454,316.36628446289063,278.1292927856445C316.1049944628906,279.21839278564454,315.8440084628906,280.3119927856445,315.5782004628906,281.40109278564455C315.55152846289064,281.50299278564455,315.46327146289065,281.56939278564454,315.3614344628906,281.56939278564454C315.3435814628906,281.56939278564454,315.3259724628906,281.56939278564454,315.3081204628906,281.5647927856445C315.1886741628906,281.5338927856445,315.1177513628906,281.4143927856445,315.1444236928906,281.2947927856445C315.4144734628906,280.2055927856445,315.67549046289065,279.11649278564454,315.9367824628906,278.02319278564454C317.0128344628906,273.51159278564455,318.13282446289065,268.84539278564455,319.6957244628906,264.38259278564453C322.2325544628906,257.16589278564453,325.7390244628906,249.86075278564454,329.69262446289065,243.52979278564453C329.7944244628906,243.64925378564453,329.89172446289064,243.77321578564454,329.98482446289063,243.89719378564453Z" fill="#000000" fill-opacity="1" style="mix-blend-mode:passthrough"/></g><g><path d="M231.16852569580078,221.93662975830077C237.30266569580078,226.70911475830079,246.08692569580077,231.06665475830079,258.0308256958008,231.71251475830078C259.1884256958008,231.7734147583008,260.3206256958008,231.8093147583008,261.4279256958008,231.8093147583008C276.1718256958008,231.8093147583008,286.9715256958008,226.46498475830077,293.50352569580076,221.89997075830078C293.01802569580076,221.70497875830077,292.5580256958008,221.5348967583008,292.12262569580076,221.36481475830078C285.1793256958008,226.0515247583008,273.7330256958008,231.34670475830077,258.1057256958008,230.4948547583008C246.90812569580078,229.88636475830077,238.55918569580078,225.94156475830079,232.6243256958008,221.5107037583008C232.15152769580078,221.64411975830077,231.66601569580078,221.77827475830077,231.16852569580078,221.93662975830077Z" fill="#000000" fill-opacity="1" style="mix-blend-mode:passthrough"/></g></g><g><g><path d="M148.42375716552735,219.14727449951172C142.87465716552734,210.61977449951172,139.90445716552733,199.3737744995117,140.52285716552734,189.72277449951173C140.66405716552734,187.4946544995117,140.99705716552734,185.35256449951171,141.53465716552734,183.3464644995117C141.67255716552734,182.8243344995117,141.04645716552733,182.27627449951171,140.66135716552733,182.7876244995117C136.58815716552735,188.2002244995117,130.60795716552735,188.02532449951173,124.52375716552734,186.8574844995117C118.53135716552734,185.71059449951173,112.10355716552735,184.99755449951172,106.31365716552735,182.98458449951173C106.36275716552734,182.1184944995117,106.41675716552734,181.25320449951172,106.48215716552734,180.38461049951172C106.53345716552735,179.7204260995117,105.50485716552734,179.53756449951172,105.45275716552734,180.2069984995117C105.38935716552734,181.06509449951173,105.33605716552734,181.92513449951173,105.28805716552735,182.7862844995117C104.92045716552735,182.95065449951173,104.77865716552733,183.52493449951172,105.23955716552734,183.7105344995117C105.17715716552735,184.9611744995117,105.12585716552735,186.2084644995117,105.08425716552735,187.46264449951173C105.08035716552735,187.51504449951173,105.08175716552734,187.56829449951172,105.07705716552735,187.62594449951172C104.96645716552734,190.9353744995117,104.91325716552734,194.24937449951173,104.80765716552735,197.5595744995117C104.73675716552734,199.7785744995117,104.43165716552734,202.00517449951172,103.85375716552734,204.15247449951173C103.10985716552734,206.95487449951173,101.90645716552734,209.62517449951173,100.16565716552735,211.9688744995117C97.06952716552735,216.14567449951173,92.45492716552734,218.7724744995117,88.82944416552735,222.42297449951172C88.56685516552734,222.68497449951172,88.74393346552735,223.07087449951172,89.00762016552734,223.2330744995117C93.49837716552734,225.9541744995117,98.38356716552734,227.7735744995117,103.38705716552734,229.3059744995117C108.81845716552735,230.9705744995117,113.89285716552735,232.6743744995117,119.58645716552735,231.41087449951172C122.22665716552734,230.82307449951173,124.79905716552734,229.9848744995117,127.49035716552734,229.65497449951172C130.11535716552734,229.33997449951173,132.70705716552735,229.1570744995117,135.30255716552733,228.58277449951171C138.00895716552733,227.97977449951173,140.62385716552734,227.1117744995117,143.15455716552734,226.02257449951173C144.23085716552734,225.95967449951172,145.29775716552734,225.8575744995117,146.35135716552736,225.7111744995117C147.63865716552735,225.53077449951172,149.99845716552733,225.2176744995117,150.51695716552734,223.78087449951173C151.07985716552736,222.24037449951172,149.21085716552733,220.3592744995117,148.42375716552735,219.14727449951172Z" fill="#FFA694" fill-opacity="1" style="mix-blend-mode:passthrough"/></g><g><path d="M152.2696932861328,153.18284290733337C152.00849328613282,153.80564290733338,151.06329328613282,153.35604290733338,151.32359328613282,152.73844290733336C151.5972932861328,152.07534290733338,151.87579328613282,151.41334290733337,152.1450932861328,150.74454290733337C150.42879328613282,152.02734290733338,147.1983932861328,152.07314290733336,145.48109328613282,152.96384290733337C143.5361932861328,153.97394290733337,142.89899328613282,155.81974290733336,141.4335932861328,157.27834290733338C140.15339328613283,158.55184290733337,138.4302932861328,159.50484290733337,136.87689328613283,160.39714290733338C125.80649328613282,166.7367429073334,112.01269328613282,168.1321429073334,99.93579328613282,163.9781429073334C97.37999328613282,163.09664290733338,94.71469328613281,161.92574290733336,92.93969328613281,159.80624290733337C91.98229328613282,158.6604429073334,91.54070328613281,157.41264290733338,91.31838328613281,156.09174290733338C91.11095328613281,154.90044290733337,91.08918328613281,153.64564290733338,91.02050328613281,152.35644290733336C90.90105328613281,150.07284290733338,90.28541328613281,148.63604290733338,88.59515328613281,147.09834290733338C87.84875328613282,146.4181429073334,87.15227328613281,145.87914290733337,86.80006328613281,144.91184290733338C86.32259328613281,143.5945429073334,86.35928328613281,142.06364290733336,86.64228328613281,140.5490429073334C86.02389328613282,139.98634290733338,85.46754328613281,139.4027429073334,84.98951328613282,138.79534290733338C83.10259528613281,136.43404290733338,82.35399928613282,133.68094290733336,83.36985328613281,129.91864290733338C84.01336328613282,127.54404290733338,84.78127328613282,125.06354290733337,86.17916328613282,123.01554290733337C87.08526328613281,121.69874290733338,88.41061328613281,120.86764290733338,88.89277328613281,119.36634290733338C89.45682328613282,117.63524290733338,88.9542832861328,115.54474290733337,88.87923328613282,113.74024290733337C88.63818328613281,108.35614290733338,90.01621328613281,103.60139290733338,94.96649328613282,100.84228290733337C97.44069328613281,99.46756290733337,100.10299328613281,98.93659290733338,102.81129328613281,98.90652290733337C104.69379328613282,96.84664190733338,121.18209328613281,93.70390290733337,145.25409328613281,108.05324290733337C148.2732932861328,108.18814290733337,149.10719328613283,107.54894290733337,152.53669328613282,109.42464290733338C155.2965932861328,110.87044290733337,156.51639328613282,114.91964290733337,156.50419328613282,116.52354290733338C157.4038932861328,125.15424290733337,156.5334932861328,134.21364290733337,156.50419328613282,137.66424290733337C156.3533932861328,148.19764290733337,154.31939328613282,148.25264290733338,152.2696932861328,153.18284290733337Z" fill="#9B9B9B" fill-opacity="1" style="mix-blend-mode:passthrough"/></g><g><path d="M105.49507906494141,135.856704220459C104.65407906494141,136.33692922045898,103.7838790649414,136.83314722045898,102.8865790649414,137.27169722045898C102.65487906494141,137.38534722045898,102.4181790649414,137.49816722045898,102.17707906494141,137.60490722045898C102.06067906494141,137.664217220459,101.9412790649414,137.71249722045897,101.8215790649414,137.76075722045897C101.5813790649414,137.86224722045898,101.3421790649414,137.958797220459,101.0933790649414,138.048157220459C100.96867906494141,138.09559722045898,100.8498790649414,138.13862722045897,100.7268790649414,138.17587722045897C100.41207906494141,138.28040722045898,100.0937790649414,138.373637220459,99.7680790649414,138.450047220459C99.6734790649414,138.47596722045898,99.58467906494141,138.497757220459,99.4919790649414,138.51348722045898C99.2116790649414,138.57113722045898,98.93227906494141,138.62353722045899,98.64627906494141,138.65360722045898C98.5543790649414,138.66436722045898,98.46227906494141,138.67483722045898,98.3704790649414,138.68558722045898C98.2741790649414,138.690017220459,98.17787906494141,138.69469722045898,98.08167906494141,138.699397220459C97.90487906494141,138.710967220459,97.73487906494141,138.713457220459,97.56057906494141,138.709867220459C97.34927906494141,138.70518722045898,97.1391790649414,138.69524722045898,96.92537906494141,138.67428722045898C96.75377906494141,138.655257220459,96.58387906494141,138.62601722045898,96.4106790649414,138.58547722045898C96.35937906494141,138.576647220459,96.30857906494141,138.562577220459,96.25377906494141,138.542447220459C96.22287906494141,138.53692722045898,96.1919790649414,138.531687220459,96.16297906494141,138.51595722045897C96.13207906494141,138.510727220459,96.09707906494141,138.49940722045898,96.0669790649414,138.48893722045898C94.95209906494141,138.13200722045897,93.91414906494141,137.39086722045897,92.8260090649414,137.001407220459C92.3118690649414,136.817137220459,91.78944906494141,136.71095222045898,91.2405490649414,136.759216220459C89.4468490649414,136.92609722045898,88.5622590649414,138.82461722045898,86.7073290649414,139.00748722045898C86.0869790649414,139.069837220459,85.5182270649414,138.987637220459,84.9894790649414,138.795377220459C85.46775006494141,139.402757220459,86.0240890649414,139.98667722045897,86.6422190649414,140.54908722045897C86.3595090649414,142.06394722045897,86.32281906494141,143.59451722045898,86.7999990649414,144.912137220459C87.15249906494141,145.879207220459,87.8489790649414,146.418407220459,88.59537906494141,147.09860722045897C90.05145906494141,148.426207220459,90.71011906494141,149.67400722045898,90.93741906494141,151.457207220459C90.9776990649414,151.74490722045897,91.00609906494141,152.04150722045898,91.0204390649414,152.356707220459C91.0891190649414,153.64590722045898,91.11090906494141,154.900407220459,91.31860906494141,156.091707220459C91.5522490649414,156.058107220459,91.78255906494141,156.01310722045898,92.0200390649414,155.95850722045898C92.99150906494141,155.73420722045898,93.8700190649414,155.435507220459,94.6666190649414,155.059007220459C95.01777906494141,154.897107220459,95.3511790649414,154.71610722045898,95.6708790649414,154.522207220459C95.76657906494141,154.45940722045898,95.86117906494141,154.40170722045897,95.95117906494141,154.343007220459C97.1473790649414,153.55330722045898,98.1144790649414,152.52770722045898,98.8964790649414,151.253107220459C99.37607906494141,150.47200722045898,99.7864790649414,149.59950722045897,100.13987906494141,148.62700722045898C100.3224790649414,148.123307220459,100.4937790649414,147.62270722045898,100.6674790649414,147.138607220459C101.03077906494141,146.10980722045898,101.39407906494141,145.112377220459,101.83677906494141,144.144777220459C102.2979790649414,143.13248722045898,102.8531790649414,142.15798722045898,103.5945790649414,141.210247220459C104.8051790649414,139.66506722045898,105.9644790649414,138.35459722045897,106.3120790649414,136.37416022045898C106.3947790649414,135.895599220459,105.8707790649414,135.64596522045898,105.49507906494141,135.856704220459Z" fill="#9B9B9B" fill-opacity="1" style="mix-blend-mode:passthrough"/></g><g><path d="M119.77596213378906,198.78029850463867C128.82456213378907,201.00899850463867,136.90486213378907,195.86589850463866,141.68256213378908,187.94609850463866C143.85526213378907,184.34459850463867,146.89676213378905,178.94719850463866,147.89526213378906,174.86139850463866C149.70826213378905,167.44239850463867,150.59786213378908,159.83349850463867,151.46226213378907,152.24539850463867C151.96956213378905,147.79329850463867,152.46956213378905,143.34029850463867,152.96256213378905,138.88649850463867C153.19316213378906,136.80539850463867,153.41266213378907,134.63899850463866,152.70796213378907,132.66739850463867C151.91026213378905,130.43599850463866,150.05006213378905,128.78100850463866,148.26046213378908,127.22726850463867C146.00176213378907,125.26585850463867,143.71426213378908,123.28486850463867,141.05256213378905,121.91951850463867C135.79826213378905,119.22412850463867,129.60756213378906,119.17475850463867,123.71816213378906,119.60919150463867C116.99096213378905,120.10539950463867,110.10216213378907,121.22581850463867,104.34262213378906,124.73737850463867C101.32010213378906,126.58018850463867,98.61340213378907,129.15392850463869,97.30597213378907,132.44369850463866C96.31299213378907,134.94219850463867,96.18085013378906,137.68719850463867,96.08017313378906,140.37379850463867C95.69705513378906,150.58599850463867,95.60437313378907,160.93729850463868,98.00107213378907,170.87149850463868C100.51218213378907,181.27909850463868,106.46926213378906,193.2278985046387,116.76566213378906,197.75229850463867C117.73766213378906,198.17959850463868,118.74386213378907,198.52959850463867,119.77596213378906,198.78029850463867Z" fill="#FFA694" fill-opacity="1" style="mix-blend-mode:passthrough"/></g><g><path d="M156.12019382324218,152.68730477172852C155.5574938232422,151.5986147717285,154.5441338232422,150.01865977172852,153.25354382324218,149.64161507172852C153.14706382324218,149.60767947172852,153.0342738232422,149.58340277172852,152.92007382324218,149.56962407172853C152.8580038232422,149.56217780172852,152.7898538232422,149.55912604172852,152.7269938232422,149.5566541217285C152.5386038232422,149.54975714172852,152.3463438232422,149.5737439717285,152.1513438232422,149.6187115717285C152.08154382324219,149.63140697172852,152.0109238232422,149.64906137172852,151.93976382324217,149.67194977172852C151.5516738232422,149.7933177717285,151.16415382324217,149.9935747717285,150.7804638232422,150.25230277172852C149.3778738232422,151.19257477172852,148.0674438232422,152.84922477172853,147.29016382324218,153.74952477172852C146.8504638232422,154.25373477172852,147.7149038232422,154.84757477172852,148.1496038232422,154.3425447717285C148.19293382324219,154.2901447717285,148.2420038232422,154.23277477172851,148.2902838232422,154.1809247717285C147.70358382324218,155.41993477172852,147.18780382324218,156.6832447717285,146.75226382324217,157.9771247717285C146.63891382324218,158.3053747717285,146.53522382324218,158.64021477172852,146.43701382324218,158.97535477172852C145.4412868232422,162.24838477172852,144.95386022324217,165.6666847717285,145.05484282324218,169.1354847717285C145.15027082324218,172.47688477172852,147.69864382324218,171.5911847717285,149.99737382324219,170.02808477172852C151.39087382324217,169.07618477172852,152.68753382324218,167.88098477172852,153.2990438232422,167.21848477172853C156.38249382324219,163.8668847717285,158.3063938232422,156.9237547717285,156.12019382324218,152.68730477172852Z" fill="#FFA694" fill-opacity="1" style="mix-blend-mode:passthrough"/></g><g><path d="M99.81586458740234,163.936374420166C100.09416458740235,160.454574420166,99.79406458740235,156.946874420166,98.97897458740235,153.535704420166C99.01040458740235,153.599704420166,99.05177458740235,153.66505442016603,99.08433458740234,153.723554420166C99.40181458740234,154.30858442016603,100.37186458740234,153.909184420166,100.04916458740234,153.323304420166C99.75436458740235,152.79013442016603,99.36127458740235,152.02774442016602,98.89621458740234,151.25323442016602C98.34373458740234,150.34134442016602,97.68284458740234,149.41098442016602,96.94224458740234,148.79007142016602C96.60464458740235,148.50378542016603,96.24965458740235,148.28891142016602,95.88363458740234,148.167268420166C95.72337458740235,148.112916620166,95.56587458740235,148.07513592016602,95.40341458740234,148.063020400166C95.27818458740235,148.051973030166,95.15103458740235,148.051149060166,95.02662458740234,148.06686562016603C93.70183458740235,148.18768442016602,92.39744458740235,149.51001442016602,91.63119458740235,150.44809442016603C91.37578458740235,150.75921442016602,91.14297458740235,151.09518442016602,90.93721458740234,151.457334420166C88.69804658740235,155.33687442016603,89.24748458740234,161.66487442016603,91.37356458740234,165.24957442016603C92.35800458740235,166.914174420166,95.94789458740235,171.658174420166,97.94433458740234,170.62517442016602C98.41463458740235,170.388474420166,98.79747458740235,169.82917442016603,99.03799458740234,168.83697442016603C99.42967458740235,167.213974420166,99.68596458740234,165.57807442016602,99.81586458740234,163.936374420166Z" fill="#FFA694" fill-opacity="1" style="mix-blend-mode:passthrough"/></g><g><path d="M137.80575357177733,155.8601274145508C138.12048357177736,154.65778741455077,138.17065357177734,153.21438741455077,138.09704357177733,152.7195474145508C138.02227357177733,152.2158774145508,137.88519357177734,151.7025614145508,137.56247357177733,151.3084114145508C136.63073357177734,150.17060941455077,135.34234557177734,151.1249854145508,134.98321557177735,152.1637574145508C134.51678457177735,153.51365741455078,134.32342457177734,156.52293741455077,135.55773857177735,157.3247674145508C136.83621357177734,158.1549974145508,137.45349357177736,157.20561741455077,137.80575357177733,155.8601274145508Z" fill="#000000" fill-opacity="1" style="mix-blend-mode:passthrough"/></g><g><path d="M112.62541600585938,155.1707045324707C112.84059600585937,153.9752545324707,112.77934600585938,152.5652345324707,112.66981600585937,152.0888645324707C112.55866600585938,151.6036845324707,112.38600600585937,151.11410553247072,112.04176600585937,150.7547005324707C111.04713600585937,149.7170265324707,109.86467000585938,150.7447665324707,109.59382600585937,151.7843645324707C109.24214200585938,153.1348145324707,109.28266900585938,156.0814845324707,110.54652600585938,156.7688445324707C111.85529600585937,157.4804845324707,112.38435600585937,156.5081945324707,112.62541600585938,155.1707045324707Z" fill="#000000" fill-opacity="1" style="mix-blend-mode:passthrough"/></g><g><path d="M114.18020515136719,142.1376580895996C112.08564515136719,141.84177508959962,109.92882515136719,142.0978329895996,107.93313515136718,142.7879730895996C106.84748515136718,143.1628030895996,105.7888751513672,143.6274330895996,104.80679515136718,144.22338308959962C104.74848515136719,144.2605030895996,104.6754251513672,144.2998630895996,104.59106515136719,144.3515230895996C103.86031515136719,144.7780130895996,102.35062915136719,145.6656730895996,102.51888755136719,146.44167308959962C102.56731895136718,146.6531930895996,102.79263015136719,146.7724830895996,102.99728115136719,146.8455330895996C103.17927315136718,146.9148830895996,103.36326315136719,146.9702130895996,103.54821515136719,147.0211430895996C104.61861515136718,147.3099030895996,105.77387515136719,147.3253830895996,106.86323515136719,147.2016730895996C109.4605251513672,146.9131730895996,111.90240515136719,146.2387430895996,114.52730515136719,146.4465730895996C115.78560515136719,146.55038308959962,118.57820515136719,146.85338308959962,118.72940515136719,144.99395308959961C118.89790515136718,142.9527520895996,115.63820515136719,142.34229408959962,114.18020515136719,142.1376580895996Z" fill="#9B9B9B" fill-opacity="1" style="mix-blend-mode:passthrough"/></g><g><path d="M140.2499184863281,142.64558950488282C138.47947848632813,142.05962190488282,136.56718848632812,141.85872450488282,134.7171484863281,142.14485750488282C133.43387848632813,142.3409635048828,130.56019548632813,142.9180205048828,130.7293542463281,144.71872750488282C130.92829848632812,146.7836175048828,134.86869848632813,145.78909750488282,136.01014848632812,145.8319275048828C137.77433848632813,145.8984575048828,139.4941884863281,146.3670275048828,141.24399848632814,146.5398775048828C142.24649848632814,146.6379275048828,144.16159848632813,146.89360750488282,144.91479848632812,146.0169575048828C145.88269848632814,144.8889675048828,141.00849848632814,142.8977875048828,140.2499184863281,142.64558950488282Z" fill="#9B9B9B" fill-opacity="1" style="mix-blend-mode:passthrough"/></g><g><path d="M154.3124009399414,140.74666875915528C154.4605009399414,136.63826875915527,153.94830093994142,132.66986875915526,152.0470009399414,128.98096875915527C149.5328009399414,124.11566875915527,145.1612009399414,119.69245875915527,140.0893009399414,116.92922875915528C139.58100093994142,116.65062875915527,139.0701009399414,116.38720875915527,138.55020093994142,116.14392875915527C136.4652009399414,115.17384875915528,134.2892009399414,114.48537775915527,132.0931009399414,114.15880075915527C130.5379009399414,113.92710415915528,129.0052009399414,113.93262785915528,127.4928009399414,114.09536275915528C126.8545009399414,114.17038275915527,126.21270093994141,114.26609375915527,125.58240093994141,114.38526475915528C123.34570093994141,114.81499775915528,121.15010093994141,115.52745875915528,118.9719009399414,116.26392875915528C114.18820093994141,117.87557875915527,109.51570093994141,119.82430875915527,105.0057009399414,122.09243875915527C103.04400093994141,123.07852875915528,100.8555709399414,124.02546875915527,99.24583093994141,125.54936875915527C97.65431093994141,127.06036875915527,96.60699093994141,129.19556875915526,95.5431209399414,131.08936875915526C94.5311109399414,132.89686875915527,93.2107229399414,134.89466875915528,92.8253779399414,137.00116875915526C92.78097483994141,137.25856875915528,92.74758863994141,137.51256875915527,92.7299494899414,137.7690687591553C92.5528709399414,140.35696875915528,95.36218093994141,142.56496875915528,94.8143809399414,144.99856875915526C94.6072409399414,145.06336875915528,94.4508509399414,145.23246875915527,94.49277093994141,145.51026875915528C94.58545093994141,146.10906875915526,94.6714909399414,147.23686875915527,95.02621093994141,148.06686875915528C95.2135109399414,148.51786875915528,95.4832709399414,148.88776875915528,95.87825093994141,149.02506875915526C95.8826609399414,149.03116875915526,95.8876309399414,149.0319687591553,95.8928709399414,149.03276875915526C96.32922093994141,149.17706875915528,96.67401093994141,149.05126875915528,96.94183093994141,148.79006875915528C97.3840009399414,148.37886875915527,97.6391409399414,147.63846875915527,97.79994093994141,147.16796875915526C98.6448009399414,144.70116875915528,98.74438093994141,142.00966875915526,98.94684093994141,139.42656875915526C98.9512509399414,139.4008687591553,98.95070093994141,139.37416875915528,98.9551109399414,139.34846875915528C100.2956409399414,139.16676875915527,105.8345009399414,127.80916875915527,106.5053009399414,127.20956875915527C106.7133009399414,127.01756875915527,126.1394009399414,123.43630875915528,130.50490093994142,122.49183875915527C133.5696009399414,123.15906875915528,136.79430093994142,124.95666875915528,139.5605009399414,126.15536875915527C142.8440009399414,127.58136875915527,146.0433009399414,129.15716875915527,149.13400093994142,130.9633687591553C149.2110009399414,131.00856875915528,149.2865009399414,131.03226875915527,149.35490093994142,131.03336875915528C149.35490093994142,131.03336875915528,149.2923009399414,147.16156875915527,149.2923009399414,147.16156875915527C149.2879009399414,147.8922687591553,149.1671009399414,150.46326875915528,149.84120093994142,151.74556875915528C149.9675009399414,151.99546875915527,150.1295009399414,152.19326875915527,150.3245009399414,152.3220687591553C150.61020093994142,152.50936875915528,153.16930093994142,149.1406687591553,153.36790093994142,148.23706875915528C153.90970093994142,145.7758687591553,154.2208009399414,143.26966875915528,154.3124009399414,140.74666875915528Z" fill="#9B9B9B" fill-opacity="1" style="mix-blend-mode:passthrough"/></g><g><path d="M134.81163088378906,194.77497939941406C134.07433088378906,194.59461939941406,132.54433088378906,195.31339939941407,131.80923088378907,195.57847939941405C130.27753088378907,196.13010939941407,129.07993088378907,196.68122939941406,127.41003088378906,196.80591939941405C124.68713088378907,197.01386939941406,121.70293088378907,197.35151939941406,118.99843088378907,196.89997939941406C113.48711088378906,195.97428939941406,109.25178088378907,192.05173939941406,105.52890088378906,188.10627739941407C105.37639088378906,187.94743339941405,105.22357088378907,187.78855939941405,105.07683088378906,187.62525939941406C104.96594088378906,190.93464939941407,104.91272088378906,194.24872939941406,104.80706788378906,197.55890939941406C104.73646588378907,199.77825939941405,104.43112188378906,202.00445939941406,103.85353088378906,204.15205939941407C104.17211888378907,204.14865939941407,104.49153088378907,204.14015939941407,104.79714988378906,204.15065939941405C118.66163088378906,206.05335939941406,129.47043088378905,200.56565939941407,133.80733088378906,196.31605939941406C133.81423088378907,196.30665939941406,133.82193088378907,196.29203939941405,133.82383088378907,196.28181939941408C134.02413088378907,195.95057939941407,135.20773088378905,194.87513939941405,134.81163088378906,194.77497939941406Z" fill="#000000" fill-opacity="1" style="mix-blend-mode:passthrough"/></g><g><path d="M132.11868813476562,178.15868852988282C131.24458813476562,178.0698823298828,130.28638813476562,178.1956453298828,129.41198813476564,178.2215852298828C127.56418813476563,178.27673062988282,125.71618813476563,178.3319066298828,123.86759813476563,178.3746616298828C122.34720813476562,178.4100006298828,120.82630813476563,178.4389316298828,119.30485813476562,178.44555362988282C117.95936813476563,178.4516266298828,114.88413813476562,178.2066926298828,114.79752953476563,178.23397562988282C114.42460513476563,178.3520476298828,115.53675713476562,179.6371456298828,115.72044213476562,179.8161256298828C116.47016813476563,180.54818562988282,117.27146813476563,181.2283956298828,118.15024813476562,181.7770056298828C121.47971813476562,183.8548256298828,125.59898813476562,183.36578562988282,128.9797881347656,181.74059562988282C129.86818813476563,181.3133556298828,130.70318813476564,180.7688556298828,131.3606881347656,180.0900256298828C131.53558813476562,179.9093556298828,132.84718813476562,178.23260162988282,132.11868813476562,178.15868852988282Z" fill="#FFFFFF" fill-opacity="1" style="mix-blend-mode:passthrough"/><path d="M129.1963881347656,182.1912356298828Q130.74098813476562,181.44841562988282,131.71988813476563,180.4379056298828L131.71998813476563,180.4377956298828Q132.10918813476562,180.0357656298828,132.51218813476564,179.33309562988282Q132.78298813476562,178.8610406298828,132.82758813476562,178.53382062988283Q132.87048813476562,178.21944502988282,132.72568813476562,177.9892506298828Q132.54318813476561,177.6991946298828,132.16918813476562,177.66124262988282Q131.52608813476562,177.5959106298828,130.21588813476563,177.67884762988282Q129.66088813476563,177.71398262988282,129.39718813476563,177.72180562988282L123.85379813476563,177.8748516298828Q121.15929813476562,177.9374776298828,119.30267813476563,177.9455586298828Q118.48029813476562,177.94927062988282,115.94536813476563,177.79195262988281Q114.76845203476563,177.71891362988282,114.64730163476563,177.75707762988282Q114.26726913476563,177.8773996298828,114.22532413476563,178.2762196298828Q114.20552913476563,178.46443162988282,114.29290613476563,178.6879036298828Q114.38964913476562,178.9353306298828,114.64251983476562,179.2916056298828Q115.03905913476562,179.85029562988282,115.37150013476563,180.17423562988282Q116.67058813476562,181.44270562988282,117.88546813476563,182.2011356298828Q120.38168813476562,183.75895562988282,123.56333813476563,183.64711562988282Q126.37328813476563,183.54834562988282,129.1963881347656,182.1912356298828ZM131.64478813476563,178.8355536298828Q131.30388813476563,179.4298256298828,131.00158813476563,179.7421456298828L131.00148813476562,179.7422556298828Q130.14678813476561,180.62456562988282,128.7631881347656,181.28995562988283Q126.12878813476563,182.55632562988282,123.52820813476562,182.64773562988282Q120.65190813476562,182.74883562988282,118.41503813476562,181.3528656298828Q117.29185813476562,180.65168562988282,116.06938813476563,179.45802562988283Q115.81690813476563,179.2120056298828,115.49615613476563,178.76621862988281Q115.66170113476562,178.7762726298828,115.88342813476562,178.7900326298828Q118.45154813476563,178.9494106298828,119.30702813476563,178.9455486298828Q121.17308813476562,178.93742662988282,123.88139813476562,178.8744706298828L129.42678813476562,178.72136562988283Q129.70728813476563,178.7130456298828,130.27908813476563,178.6768496298828Q131.20448813476563,178.6182706298828,131.7511881347656,178.63621962988282Q131.7083881347656,178.72455462988282,131.64478813476563,178.8355536298828Z" fill-rule="evenodd" fill="#000000" fill-opacity="1" style="mix-blend-mode:passthrough"/></g><g><path d="M95.72509926269531,210.0209981933594C95.72509926269531,210.0209981933594,100.94292926269532,201.55252419335937,101.94141926269532,201.26123386335937C102.93992926269532,200.96997419335938,123.10291926269531,221.39494819335937,123.10291926269531,221.39494819335937C123.10291926269531,221.39494819335937,143.6276192626953,200.39349719335937,145.5523192626953,201.46838719335938C147.47731926269532,202.54303819335937,151.85601926269533,213.70994819335937,151.85601926269533,213.70994819335937C151.85601926269533,213.70994819335937,123.53481926269531,254.19284819335937,123.10291926269531,254.1181481933594C122.67061926269531,254.04354819335938,102.65525926269531,235.15554819335938,101.94141926269532,233.91874819335936C101.22730926269531,232.68224819335938,93.70661926269531,213.70994819335937,93.70661926269531,213.70994819335937" fill="#FFFFFF" fill-opacity="1" style="mix-blend-mode:passthrough"/></g><g><path d="M94.22282864355469,207.7676724609375L104.68508464355469,203.1809484609375L104.28358464355469,202.2650964609375L92.69694064355468,207.3447524609375L105.56178464355469,225.4846224609375L115.97608464355469,240.2507224609375Q116.12828464355468,240.5493224609375,116.47708464355469,240.5063224609375Q116.64698464355469,240.4853224609375,116.7691846435547,240.3644224609375L117.06998464355469,240.0667224609375L116.96088464355469,239.9121224609375Q117.01848464355469,239.7307224609375,117.12528464355469,239.4123224609375Q117.37048464355469,238.68142246093748,117.84268464355469,237.3249224609375Q118.79258464355469,234.5961224609375,120.10918464355468,230.9068224609375Q121.50108464355469,227.0064224609375,122.43628464355469,224.4645224609375Q122.81568464355469,223.4333224609375,123.07038464355469,222.7619224609375L129.6242846435547,241.0809224609375L152.57108464355468,208.7473924609375L152.12058464355468,208.4666024609375Q143.9380846435547,203.3668014609375,142.0027846435547,202.2864444609375L141.51538464355468,203.1596004609375Q143.3760846435547,204.1983624609375,151.1409846435547,209.0345424609375L129.91938464355468,238.9372224609375L123.47538464355469,220.9251224609375L123.18768464355469,220.8756224609375Q123.04878464355468,220.8517224609375,122.7049846435547,221.5107224609375L122.63208464355469,221.53682246093751L122.65648464355469,221.6051224609375Q121.67788464355469,223.5357224609375,119.16738464355468,230.5707224609375Q117.84928464355468,234.2641224609375,116.89828464355469,236.9962224609375Q116.4848846435547,238.1838224609375,116.24408464355469,238.8957224609375L106.37748464355468,224.9061224609375L94.22282864355469,207.7676724609375ZM116.78448464355469,239.66182246093751L116.83358464355469,239.7315224609375Q116.81088464355469,239.69342246093748,116.78448464355469,239.66182246093751Z" fill-rule="evenodd" fill="#000000" fill-opacity="1" style="mix-blend-mode:passthrough"/></g><g></g><g transform="matrix(0.9455185532569885,0.32556813955307007,-0.32556813955307007,0.9455185532569885,58.48930194380591,-31.508650256476358)"><path d="M128.13646157470703,165.44932414794923C127.43495157470703,165.7225541479492,126.72343157470704,165.8351041479492,125.96691157470703,165.80320414794923C124.83898157470703,165.7563141479492,124.60516157470703,164.76407414794923,124.52512157470703,163.8212241479492C124.40445157470702,162.38818414794923,124.40758157470704,160.9420141479492,124.45321157470703,159.50586014794922C124.47386157470703,158.8374891479492,123.43533857470703,158.8381081479492,123.41471027470703,159.50586014794922C123.37217687470704,160.86011414794922,123.37656927470704,162.21562414794923,123.46909657470704,163.5673741479492C123.52036757470704,164.3207841479492,123.54850357470703,165.13733414794922,123.93490557470703,165.80946414794923C124.79021157470703,167.29627414794922,127.06981157470703,166.97364414794922,128.41219157470704,166.45032414794923C129.02805157470704,166.21023414794922,128.76044157470704,165.20611414794922,128.13646157470703,165.44932414794923Z" fill="#000000" fill-opacity="1" style="mix-blend-mode:passthrough"/></g><g><g mask="url(#master_svg4_0_5335)"><g><rect x="13.975585937500057" y="207.88129520028724" width="219.1072998046875" height="73.6879653930664" rx="0" fill="url(#master_svg5_0_13595)" fill-opacity="1" style="mix-blend-mode:passthrough"/></g></g></g><g><path d="M43.99542236328125,234.99473566601563C48.67889236328125,242.51888766601562,52.83096236328125,251.17910766601562,55.83122236328125,259.73860766601564C57.70022236328125,265.06420766601565,59.03842236328125,270.65030766601564,60.328622363281255,276.0503076660156C60.64192236328125,277.3565076660156,60.955022363281245,278.6681076660156,61.273822363281255,279.97430766601565C61.30582236328125,280.0965076660156,61.41162236328125,280.17610766601564,61.533822363281246,280.17610766601564C61.555222363281246,280.17610766601564,61.57632236328125,280.17610766601564,61.59772236328125,280.17070766601563C61.741022363281246,280.1336076660156,61.826022363281254,279.9903076660156,61.79402236328125,279.8467076660156C61.47012236328125,278.5406076660156,61.157122363281246,277.23430766601564,60.84382236328125,275.9230076660156C59.55322236328125,270.5121076660156,58.20992236328125,264.9158076660156,56.33552236328125,259.5634076660156C53.293002363281246,250.90830766601562,49.08755236328125,242.1470176660156,44.34588636328125,234.55410766601562C44.22372436328125,234.69735766601562,44.10702536328125,234.84605366601562,43.99542236328125,234.99473566601563Z" fill="#000000" fill-opacity="1" style="mix-blend-mode:passthrough"/></g><g><path d="M200.25470336914063,236.299652296875C195.56210336914063,243.838484296875,191.40197336914062,252.515654296875,188.3958633691406,261.091854296875C186.52324336914063,266.427754296875,185.18245336914063,272.024754296875,183.88970336914062,277.435354296875C183.57570336914063,278.744154296875,183.26210736914064,280.058354296875,182.94267936914062,281.367054296875C182.91063636914063,281.489454296875,182.80458736914062,281.569254296875,182.68218136914064,281.569254296875C182.66075836914064,281.569254296875,182.63960936914063,281.569254296875,182.6181253691406,281.563754296875C182.47460126914063,281.526654296875,182.38936566914063,281.383054296875,182.42143960914063,281.239254296875C182.7459633691406,279.930454296875,183.05959236914063,278.621754296875,183.37355736914063,277.307854296875C184.66665336914062,271.886454296875,186.0125333691406,266.279154296875,187.89061336914062,260.916354296875C190.93901336914064,252.244254296875,195.15270336914062,243.465894296875,199.90360336914063,235.858154296875C200.02590336914062,236.001709296875,200.14290336914064,236.150665296875,200.25470336914063,236.299652296875Z" fill="#000000" fill-opacity="1" style="mix-blend-mode:passthrough"/></g></g></g></g></svg>