<svg xmlns="http://www.w3.org/2000/svg" width="893.142" height="544.504" viewBox="0 0 893.142 544.504">
  <g id="_img_Grafico_8_" data-name="&lt;img Grafico_8&gt;" transform="translate(6372.904 7967.43)">
    <path id="Caminho_773655" data-name="Caminho 773655" d="M7.008,0V-13.792L17.312,0h3.776V-22.4H16.544V-8.64L6.24-22.4H2.5V0ZM36.192-24.992,28.7-20.128l1.664,2.688,7.968-3.936Zm4.7,9.312H36.384c0,5.088-.16,12.288-4,12.288-1.984,0-2.368-2.08-2.368-3.424V-15.68h-4.48V-5.344c0,3.808,2.432,5.824,5.7,5.824,2.752,0,4.448-1.632,5.5-4.064L36.384,0H40.9Zm24.384-.48c-2.656,0-4.352,1.568-5.408,3.936A4.659,4.659,0,0,0,55.04-16.16c-2.784,0-4.512,1.728-5.568,4.288l.384-3.808h-4.48V0h4.48c0-5.056.224-12.288,3.776-12.288,1.76,0,1.952,1.92,1.952,3.424V0H60.1c0-5.024.192-12.288,3.744-12.288,1.792,0,1.984,1.92,1.984,3.424V0H70.3V-10.112C70.3-13.92,68.48-16.16,65.28-16.16ZM82.272-3.072a4.137,4.137,0,0,1-4.256-3.072l9.6-1.12a8.269,8.269,0,0,0,.416-2.624c0-3.968-2.88-6.272-6.72-6.272-4.544,0-7.84,3.2-7.84,8.256,0,5.024,3.3,8.384,8.48,8.384a9.652,9.652,0,0,0,5.7-1.76L85.984-4.192A7.183,7.183,0,0,1,82.272-3.072Zm-.7-9.632c1.408,0,2.432.736,2.432,2.112a2.472,2.472,0,0,1-.1.8l-6.08.736C78.144-11.1,79.424-12.7,81.568-12.7ZM101.6-16.16c-3.456,0-5.184,2.56-6.08,5.984l.544-5.5h-4.48V0h4.48c0-5.184.32-11.52,4.576-11.52a5.077,5.077,0,0,1,1.6.288l1.184-4.672A6.609,6.609,0,0,0,101.6-16.16ZM112.96.48a7.914,7.914,0,0,0,8.192-8.32,7.9,7.9,0,0,0-8.192-8.32,7.9,7.9,0,0,0-8.224,8.32A7.922,7.922,0,0,0,112.96.48Zm0-3.648c-2.368,0-3.584-2.176-3.584-4.672s1.216-4.672,3.584-4.672c2.336,0,3.552,2.176,3.552,4.672S115.3-3.168,112.96-3.168Zm30.72-12.8a12.327,12.327,0,0,0-2.208-.192c-6.336,0-9.056,4.608-9.056,9.344,0,4.288,2.208,7.3,5.856,7.3,2.944,0,4.768-2.112,5.888-4.96L143.68,0h4.512V-23.168H143.68ZM139.648-3.136c-1.44,0-2.56-.928-2.56-3.84,0-2.208.768-5.76,4.32-5.76a5.251,5.251,0,0,1,2.24.544C143.392-8,142.464-3.136,139.648-3.136Zm20.64.064a4.137,4.137,0,0,1-4.256-3.072l9.6-1.12a8.269,8.269,0,0,0,.416-2.624c0-3.968-2.88-6.272-6.72-6.272-4.544,0-7.84,3.2-7.84,8.256,0,5.024,3.3,8.384,8.48,8.384a9.652,9.652,0,0,0,5.7-1.76L164-4.192A7.183,7.183,0,0,1,160.288-3.072Zm-.7-9.632c1.408,0,2.432.736,2.432,2.112a2.472,2.472,0,0,1-.1.8l-6.08.736C156.16-11.1,157.44-12.7,159.584-12.7Zm27.488-2.208a15.174,15.174,0,0,1,1.568,6.368c0,2.624-.992,5.28-3.616,5.28-1.7,0-2.56-1.088-2.56-3.168V-15.68h-4.48v9.728c0,3.776,2.72,6.4,7.008,6.4,5.5,0,8.224-4.256,8.224-8.992a20.517,20.517,0,0,0-1.76-7.584Zm17.7,11.84a4.137,4.137,0,0,1-4.256-3.072l9.6-1.12a8.269,8.269,0,0,0,.416-2.624c0-3.968-2.88-6.272-6.72-6.272-4.544,0-7.84,3.2-7.84,8.256,0,5.024,3.3,8.384,8.48,8.384a9.652,9.652,0,0,0,5.7-1.76L208.48-4.192A7.183,7.183,0,0,1,204.768-3.072Zm-.7-9.632c1.408,0,2.432.736,2.432,2.112a2.472,2.472,0,0,1-.1.8l-6.08.736C200.64-11.1,201.92-12.7,204.064-12.7Zm20.064-3.456c-3.04,0-4.864,1.856-5.952,4.576l.384-4.1h-4.48V0h4.48c0-5.088.288-12.288,4.192-12.288,1.984,0,2.176,2.112,2.176,3.424V0h4.512V-10.112C229.44-13.888,227.488-16.16,224.128-16.16Zm20.032.192a12.326,12.326,0,0,0-2.208-.192c-6.336,0-9.056,4.608-9.056,9.344,0,4.288,2.208,7.3,5.856,7.3,2.944,0,4.768-2.112,5.888-4.96L244.16,0h4.512V-23.168H244.16ZM240.128-3.136c-1.44,0-2.56-.928-2.56-3.84,0-2.208.768-5.76,4.32-5.76a5.251,5.251,0,0,1,2.24.544C243.872-8,242.944-3.136,240.128-3.136ZM261.312-16.16c-6.336,0-9.056,4.608-9.056,9.344,0,4.288,2.208,7.3,5.856,7.3,2.944,0,4.768-2.08,5.888-4.928L263.52,0h4.512V-14.112A11.764,11.764,0,0,0,261.312-16.16ZM259.488-3.136c-1.44,0-2.56-.928-2.56-3.84,0-2.208.768-5.76,4.32-5.76a5.251,5.251,0,0,1,2.24.544C263.232-8,262.3-3.136,259.488-3.136ZM277.824.48c3.872,0,6.688-1.664,6.688-5.28,0-5.568-8.1-3.936-8.1-6.4,0-1.024,1.28-1.312,2.464-1.312a8.366,8.366,0,0,1,3.9.96l1.536-3.136a12.438,12.438,0,0,0-5.888-1.472c-3.232,0-6.528,1.344-6.528,4.928,0,5.856,8.128,4.16,8.128,6.752,0,.864-.864,1.344-2.432,1.344a9.8,9.8,0,0,1-4.864-1.376L271.1-1.248A13.694,13.694,0,0,0,277.824.48ZM307.1-15.968a12.326,12.326,0,0,0-2.208-.192c-6.336,0-9.056,4.608-9.056,9.344,0,4.288,2.208,7.3,5.856,7.3,2.944,0,4.768-2.112,5.888-4.96L307.1,0h4.512V-23.168H307.1ZM303.072-3.136c-1.44,0-2.56-.928-2.56-3.84,0-2.208.768-5.76,4.32-5.76a5.251,5.251,0,0,1,2.24.544C306.816-8,305.888-3.136,303.072-3.136ZM323.136.48a7.914,7.914,0,0,0,8.192-8.32,7.9,7.9,0,0,0-8.192-8.32,7.9,7.9,0,0,0-8.224,8.32A7.922,7.922,0,0,0,323.136.48Zm0-3.648c-2.368,0-3.584-2.176-3.584-4.672s1.216-4.672,3.584-4.672c2.336,0,3.552,2.176,3.552,4.672S325.472-3.168,323.136-3.168ZM340.032.48c3.872,0,6.688-1.664,6.688-5.28,0-5.568-8.1-3.936-8.1-6.4,0-1.024,1.28-1.312,2.464-1.312a8.366,8.366,0,0,1,3.9.96l1.536-3.136a12.438,12.438,0,0,0-5.888-1.472c-3.232,0-6.528,1.344-6.528,4.928,0,5.856,8.128,4.16,8.128,6.752,0,.864-.864,1.344-2.432,1.344a9.8,9.8,0,0,1-4.864-1.376l-1.632,3.264A13.694,13.694,0,0,0,340.032.48Zm26.144,0a10.3,10.3,0,0,0,3.584-.672l-.928-3.52a4.575,4.575,0,0,1-1.6.32c-1.664,0-2.464-.992-2.464-2.976v-5.76h4.384V-15.68h-4.384v-4.9h-2.976l-.32,1.728c-.48,2.528-.736,3.168-3.616,3.168h-.48v3.552h2.912V-5.6C360.288-1.856,362.272.48,366.176.48Zm9.12-18.368a2.933,2.933,0,0,0,3.008-3.04A2.941,2.941,0,0,0,375.3-24a2.948,2.948,0,0,0-3.04,3.072A2.94,2.94,0,0,0,375.3-17.888ZM377.536,0V-15.68h-4.48V0Zm14.4-16.16c-2.976,0-4.832,2.144-5.92,5.024l.48-4.544h-4.48V6.848h4.48V.288a12.689,12.689,0,0,0,2.24.192c6.336,0,9.056-4.608,9.056-9.344C397.792-13.152,395.584-16.16,391.936-16.16ZM388.8-2.944a5.282,5.282,0,0,1-2.272-.544c.256-4.192,1.184-9.088,4.032-9.088,1.408,0,2.56.96,2.56,3.84C393.12-6.5,392.32-2.944,388.8-2.944ZM408.672.48a7.914,7.914,0,0,0,8.192-8.32,7.9,7.9,0,0,0-8.192-8.32,7.9,7.9,0,0,0-8.224,8.32A7.922,7.922,0,0,0,408.672.48Zm0-3.648c-2.368,0-3.584-2.176-3.584-4.672s1.216-4.672,3.584-4.672c2.336,0,3.552,2.176,3.552,4.672S411.008-3.168,408.672-3.168ZM425.568.48c3.872,0,6.688-1.664,6.688-5.28,0-5.568-8.1-3.936-8.1-6.4,0-1.024,1.28-1.312,2.464-1.312a8.366,8.366,0,0,1,3.9.96l1.536-3.136a12.438,12.438,0,0,0-5.888-1.472c-3.232,0-6.528,1.344-6.528,4.928,0,5.856,8.128,4.16,8.128,6.752,0,.864-.864,1.344-2.432,1.344a9.8,9.8,0,0,1-4.864-1.376l-1.632,3.264A13.694,13.694,0,0,0,425.568.48Zm29.28-16.448a12.326,12.326,0,0,0-2.208-.192c-6.336,0-9.056,4.608-9.056,9.344,0,4.288,2.208,7.3,5.856,7.3,2.944,0,4.768-2.112,5.888-4.96L454.848,0h4.512V-23.168h-4.512ZM450.816-3.136c-1.44,0-2.56-.928-2.56-3.84,0-2.208.768-5.76,4.32-5.76a5.251,5.251,0,0,1,2.24.544C454.56-8,453.632-3.136,450.816-3.136Zm20.64.064A4.137,4.137,0,0,1,467.2-6.144l9.6-1.12a8.269,8.269,0,0,0,.416-2.624c0-3.968-2.88-6.272-6.72-6.272-4.544,0-7.84,3.2-7.84,8.256,0,5.024,3.3,8.384,8.48,8.384a9.652,9.652,0,0,0,5.7-1.76l-1.664-2.912A7.183,7.183,0,0,1,471.456-3.072Zm-.7-9.632c1.408,0,2.432.736,2.432,2.112a2.472,2.472,0,0,1-.1.8l-6.08.736C467.328-11.1,468.608-12.7,470.752-12.7Zm26.3,9.312c-2.464,0-4.064-1.824-4.064-4.448s1.6-4.448,4.064-4.448a4.783,4.783,0,0,1,2.72.832l2.016-3.2a9.015,9.015,0,0,0-5.088-1.5c-5.184,0-8.352,3.456-8.352,8.32S491.52.48,496.7.48a8.718,8.718,0,0,0,5.088-1.536l-2.016-3.168A4.783,4.783,0,0,1,497.056-3.392ZM513.184-16.16c-6.336,0-9.056,4.608-9.056,9.344,0,4.288,2.208,7.3,5.856,7.3,2.944,0,4.768-2.08,5.888-4.928L515.392,0H519.9V-14.112A11.764,11.764,0,0,0,513.184-16.16ZM511.36-3.136c-1.44,0-2.56-.928-2.56-3.84,0-2.208.768-5.76,4.32-5.76a5.251,5.251,0,0,1,2.24.544C515.1-8,514.176-3.136,511.36-3.136ZM544.288-16.16c-2.656,0-4.352,1.568-5.408,3.936a4.659,4.659,0,0,0-4.832-3.936c-2.784,0-4.512,1.728-5.568,4.288l.384-3.808h-4.48V0h4.48c0-5.056.224-12.288,3.776-12.288,1.76,0,1.952,1.92,1.952,3.424V0H539.1c0-5.024.192-12.288,3.744-12.288,1.792,0,1.984,1.92,1.984,3.424V0h4.48V-10.112C549.312-13.92,547.488-16.16,544.288-16.16Zm11.488-1.728a2.933,2.933,0,0,0,3.008-3.04A2.941,2.941,0,0,0,555.776-24a2.948,2.948,0,0,0-3.04,3.072A2.94,2.94,0,0,0,555.776-17.888ZM558.016,0V-15.68h-4.48V0Zm9.792.48c3.872,0,6.688-1.664,6.688-5.28,0-5.568-8.1-3.936-8.1-6.4,0-1.024,1.28-1.312,2.464-1.312a8.366,8.366,0,0,1,3.9.96l1.536-3.136a12.438,12.438,0,0,0-5.888-1.472c-3.232,0-6.528,1.344-6.528,4.928,0,5.856,8.128,4.16,8.128,6.752,0,.864-.864,1.344-2.432,1.344a9.8,9.8,0,0,1-4.864-1.376l-1.632,3.264A13.694,13.694,0,0,0,567.808.48Zm18.3-3.552a4.137,4.137,0,0,1-4.256-3.072l9.6-1.12a8.268,8.268,0,0,0,.416-2.624c0-3.968-2.88-6.272-6.72-6.272-4.544,0-7.84,3.2-7.84,8.256,0,5.024,3.3,8.384,8.48,8.384a9.652,9.652,0,0,0,5.7-1.76l-1.664-2.912A7.182,7.182,0,0,1,586.112-3.072Zm-.7-9.632c1.408,0,2.432.736,2.432,2.112a2.474,2.474,0,0,1-.1.8l-6.08.736C581.984-11.1,583.264-12.7,585.408-12.7ZM602.816.48A10.3,10.3,0,0,0,606.4-.192l-.928-3.52a4.575,4.575,0,0,1-1.6.32c-1.664,0-2.464-.992-2.464-2.976v-5.76h4.384V-15.68h-4.384v-4.9h-2.976l-.32,1.728c-.48,2.528-.736,3.168-3.616,3.168h-.48v3.552h2.912V-5.6C596.928-1.856,598.912.48,602.816.48Zm14.848-16.64c-6.336,0-9.056,4.608-9.056,9.344,0,4.288,2.208,7.3,5.856,7.3,2.944,0,4.768-2.08,5.888-4.928L619.872,0h4.512V-14.112A11.764,11.764,0,0,0,617.664-16.16ZM615.84-3.136c-1.44,0-2.56-.928-2.56-3.84,0-2.208.768-5.76,4.32-5.76a5.251,5.251,0,0,1,2.24.544C619.584-8,618.656-3.136,615.84-3.136ZM634.176.48c3.872,0,6.688-1.664,6.688-5.28,0-5.568-8.1-3.936-8.1-6.4,0-1.024,1.28-1.312,2.464-1.312a8.366,8.366,0,0,1,3.9.96l1.536-3.136a12.438,12.438,0,0,0-5.888-1.472c-3.232,0-6.528,1.344-6.528,4.928,0,5.856,8.128,4.16,8.128,6.752,0,.864-.864,1.344-2.432,1.344a9.8,9.8,0,0,1-4.864-1.376l-1.632,3.264A13.694,13.694,0,0,0,634.176.48Zm28.7-16.64c-2.976,0-4.832,2.144-5.92,5.024l.48-4.544h-4.48V6.848h4.48V.288a12.69,12.69,0,0,0,2.24.192c6.336,0,9.056-4.608,9.056-9.344C668.736-13.152,666.528-16.16,662.88-16.16ZM659.744-2.944a5.282,5.282,0,0,1-2.272-.544c.256-4.192,1.184-9.088,4.032-9.088,1.408,0,2.56.96,2.56,3.84C664.064-6.5,663.264-2.944,659.744-2.944ZM679.616.48a7.914,7.914,0,0,0,8.192-8.32,7.9,7.9,0,0,0-8.192-8.32,7.9,7.9,0,0,0-8.224,8.32A7.922,7.922,0,0,0,679.616.48Zm0-3.648c-2.368,0-3.584-2.176-3.584-4.672s1.216-4.672,3.584-4.672c2.336,0,3.552,2.176,3.552,4.672S681.952-3.168,679.616-3.168Zm21.6-12.992c-3.456,0-5.184,2.56-6.08,5.984l.544-5.5H691.2V0h4.48c0-5.184.32-11.52,4.576-11.52a5.077,5.077,0,0,1,1.6.288L703.04-15.9A6.609,6.609,0,0,0,701.216-16.16Zm33.088,0c-2.656,0-4.352,1.568-5.408,3.936a4.659,4.659,0,0,0-4.832-3.936c-2.784,0-4.512,1.728-5.568,4.288l.384-3.808H714.4V0h4.48c0-5.056.224-12.288,3.776-12.288,1.76,0,1.952,1.92,1.952,3.424V0h4.512c0-5.024.192-12.288,3.744-12.288,1.792,0,1.984,1.92,1.984,3.424V0h4.48V-10.112C739.328-13.92,737.5-16.16,734.3-16.16Zm20.16-1.5,1.7-2.592-5.728-4.128-5.76,4.128,1.7,2.592,4.064-2.5ZM751.3-3.072a4.137,4.137,0,0,1-4.256-3.072l9.6-1.12a8.268,8.268,0,0,0,.416-2.624c0-3.968-2.88-6.272-6.72-6.272-4.544,0-7.84,3.2-7.84,8.256,0,5.024,3.3,8.384,8.48,8.384a9.652,9.652,0,0,0,5.7-1.76l-1.664-2.912A7.182,7.182,0,0,1,751.3-3.072Zm-.7-9.632c1.408,0,2.432.736,2.432,2.112a2.474,2.474,0,0,1-.1.8l-6.08.736C747.168-11.1,748.448-12.7,750.592-12.7ZM765.92.48c3.872,0,6.688-1.664,6.688-5.28,0-5.568-8.1-3.936-8.1-6.4,0-1.024,1.28-1.312,2.464-1.312a8.366,8.366,0,0,1,3.9.96l1.536-3.136a12.438,12.438,0,0,0-5.888-1.472c-3.232,0-6.528,1.344-6.528,4.928,0,5.856,8.128,4.16,8.128,6.752,0,.864-.864,1.344-2.432,1.344a9.8,9.8,0,0,1-4.864-1.376L759.2-1.248A13.694,13.694,0,0,0,765.92.48Z" transform="translate(-6372.135 -7942.438)"/>
    <path id="Caminho_773654" data-name="Caminho 773654" d="M11.928,19,7.581,5.518H5.04L.231,19H2.394l.336-1.617.63-1.764,2.583-.063,2.856.063.588,1.869L9.7,19ZM8.253,13.855,6.09,13.9l-2.121-.042,2.2-6.216h.147Zm8.568,3.528c-.861,0-1.239-.336-1.218-1.386l.105-5.271h2.709l.1-1.218-.084-.147H15.75l.042-2.079L15.6,7.114l-1.89.714V9.361H12.432l-.1,1.239.084.126h1.323l.021,4.095-.084,1.512a2.506,2.506,0,0,0,2.478,2.793,6.062,6.062,0,0,0,2.142-.63l.21-1.344L18.291,17A3.311,3.311,0,0,1,16.821,17.383Zm5.67-9.3.21.021c1.26-.819,2.478-1.638,3.8-2.6l.042-.21-.8-1.134-.21-.021c-1.218,1.155-2.352,2.1-3.591,3.108Zm4.494,6.174.357-.336a5.6,5.6,0,0,0,.084-1.05c0-2.31-1.281-3.717-3.507-3.717-2.835,0-4.662,1.911-4.662,5.061,0,3.066,1.68,4.977,4.578,4.977a6.816,6.816,0,0,0,2.94-.714l.273-1.7-.21-.126A5.7,5.7,0,0,1,24,17.53c-1.848,0-2.73-1.2-2.772-3.276Zm-1.512-1.407-4.137.1a2.461,2.461,0,0,1,2.436-2.331c1.05,0,1.743.609,1.743,1.974ZM36.792,9.13c-2.9,0-4.515,1.869-4.515,5.187,0,3.108,1.533,4.872,4.242,4.872,2.9,0,4.515-1.869,4.515-5.187C41.034,10.894,39.5,9.13,36.792,9.13Zm-.126,1.491c1.575,0,2.373,1.218,2.373,3.864,0,2.2-.8,3.234-2.373,3.234-1.6,0-2.394-1.2-2.394-3.864C34.272,11.692,35.07,10.621,36.666,10.621ZM58.506,19h2.163l-.1-4.242.063-2.73c.021-1.806-1.092-2.835-3.255-2.835A7.616,7.616,0,0,0,54.6,10.768h-.126c-.42-1.008-1.449-1.575-3.024-1.575a6.974,6.974,0,0,0-2.583,1.491H48.72l.021-1.407L46.7,9.466l.1,5.481L46.683,19H48.8l-.1-4.242L48.72,12.2a3.767,3.767,0,0,1,2.52-1.26c1.008,0,1.512.651,1.491,1.7L52.584,19h2.142l-.084-4.242.042-2.6a3.7,3.7,0,0,1,2.478-1.218c1.008,0,1.512.651,1.491,1.7ZM64.764,8H65c.819-.735,1.554-1.407,2.2-2.1A26.982,26.982,0,0,0,69.4,8h.21l.567-.84c-.924-.882-1.848-1.89-2.709-2.877h-.546c-.945,1.071-1.869,2.058-2.73,2.877Zm5.712,6.258.357-.336a5.6,5.6,0,0,0,.084-1.05c0-2.31-1.281-3.717-3.507-3.717-2.835,0-4.662,1.911-4.662,5.061,0,3.066,1.68,4.977,4.578,4.977a6.816,6.816,0,0,0,2.94-.714l.273-1.7-.21-.126a5.7,5.7,0,0,1-2.835.882c-1.848,0-2.73-1.2-2.772-3.276Zm-1.512-1.407-4.137.1a2.461,2.461,0,0,1,2.436-2.331c1.05,0,1.743.609,1.743,1.974Zm7.077-3.7c-2.226,0-3.528,1.26-3.528,2.919,0,3.045,4.347,2.646,4.347,4.431a1.342,1.342,0,0,1-1.491,1.239,4.437,4.437,0,0,1-2.688-1.134l-.231.147L72.2,18.538a7.6,7.6,0,0,0,2.94.651c2.415,0,3.633-1.491,3.633-3.045,0-2.961-4.347-2.583-4.347-4.347a1.226,1.226,0,0,1,1.365-1.155,3.917,3.917,0,0,1,2.142.735l.273-.063.294-1.68A6.649,6.649,0,0,0,76.041,9.151Zm15.918,5.586.168-10.479-2.142.168.042,4.893a8.851,8.851,0,0,0-1.638-.168c-2.961,0-4.767,1.806-4.767,5.04,0,3.108,1.533,4.935,4.347,4.935a8.577,8.577,0,0,0,2.184-1.449h.168a1.663,1.663,0,0,0,1.554,1.47,3.4,3.4,0,0,0,1.344-.462l.189-1.176-.189-.147a3.036,3.036,0,0,1-.651.084c-.4,0-.525-.168-.546-.693Zm-3.78-4.116a4.337,4.337,0,0,1,1.869.483l.063,3.822-.042,1.365a2.684,2.684,0,0,1-2.058,1.092c-1.47,0-2.352-1.2-2.373-3.444C85.6,11.692,86.6,10.621,88.179,10.621Zm14.133,3.633.357-.336a8.182,8.182,0,0,0,.084-1.05c0-2.31-1.281-3.717-3.528-3.717-2.814,0-4.641,1.911-4.641,5.061,0,3.066,1.68,4.977,4.578,4.977a6.816,6.816,0,0,0,2.94-.714l.252-1.7-.189-.126a5.765,5.765,0,0,1-2.835.882c-1.848,0-2.73-1.2-2.772-3.276ZM100.8,12.847l-4.137.1A2.461,2.461,0,0,1,99.1,10.621c1.05,0,1.743.609,1.743,1.974ZM112.119,9.13c-2.9,0-4.515,1.869-4.515,5.187,0,3.108,1.533,4.872,4.242,4.872,2.9,0,4.515-1.869,4.515-5.187C116.361,10.894,114.828,9.13,112.119,9.13Zm-.126,1.491c1.575,0,2.373,1.218,2.373,3.864,0,2.2-.8,3.234-2.373,3.234-1.6,0-2.394-1.2-2.394-3.864C109.6,11.692,110.4,10.621,111.993,10.621Zm14.343-1.344-2.037.189v6.825a3.443,3.443,0,0,1-2.289,1.071c-.987,0-1.47-.63-1.449-1.659l.105-6.426-2.121.189.084,4.2-.042,2.625c-.021,1.806,1.113,2.835,3.234,2.835a6.313,6.313,0,0,0,2.52-1.47h.168a1.682,1.682,0,0,0,1.554,1.491,3.3,3.3,0,0,0,1.323-.462l.21-1.176-.189-.147a3.036,3.036,0,0,1-.651.084c-.42,0-.567-.168-.567-.693Zm6.552,8.106c-.861,0-1.239-.336-1.218-1.386l.1-5.271h2.709l.105-1.218-.084-.147h-2.688l.042-2.079-.189-.168-1.89.714V9.361H128.5l-.1,1.239.084.126H129.8l.021,4.095-.084,1.512a2.506,2.506,0,0,0,2.478,2.793,6.062,6.062,0,0,0,2.142-.63l.21-1.344-.21-.147A3.311,3.311,0,0,1,132.888,17.383Zm11.13-8.106-2.037.189v6.825a3.443,3.443,0,0,1-2.289,1.071c-.987,0-1.47-.63-1.449-1.659l.105-6.426-2.121.189.084,4.2-.042,2.625c-.021,1.806,1.113,2.835,3.234,2.835a6.313,6.313,0,0,0,2.52-1.47h.168a1.682,1.682,0,0,0,1.554,1.491,3.3,3.3,0,0,0,1.323-.462l.21-1.176-.189-.147a3.036,3.036,0,0,1-.651.084c-.42,0-.567-.168-.567-.693Zm7.938-.063a6.874,6.874,0,0,0-2.52,1.449h-.126l.084-6.405-2.142.168.126,10.542-.147,4.074.336.21,1.323-.546a5.21,5.21,0,0,0,2.142.483c2.9,0,4.683-1.89,4.683-5.334C155.715,10.957,154.434,9.214,151.956,9.214Zm-.84,8.505a3.543,3.543,0,0,1-1.806-.567l-.063-2.436.042-2.52a3.261,3.261,0,0,1,2.31-1.26c1.365,0,2.079,1.176,2.121,3.213C153.741,16.606,152.691,17.719,151.116,17.719Zm11.7-8.421a3.1,3.1,0,0,0-2.646,1.911h-.147l.021-1.932L158,9.466l.126,5.481L157.983,19h2.142l-.147-4.242L160,13.372c.735-1.449,1.47-2.037,2.331-2.037a2.939,2.939,0,0,1,.777.1l.231-.063V9.34A4.091,4.091,0,0,0,162.813,9.3Zm5.775-.168c-2.9,0-4.515,1.869-4.515,5.187,0,3.108,1.533,4.872,4.242,4.872,2.9,0,4.515-1.869,4.515-5.187C172.83,10.894,171.3,9.13,168.588,9.13Zm-.126,1.491c1.575,0,2.373,1.218,2.373,3.864,0,2.2-.8,3.234-2.373,3.234-1.6,0-2.394-1.2-2.394-3.864C166.068,11.692,166.866,10.621,168.462,10.621Zm7.1,6.153a5.356,5.356,0,0,0-1.533.693v.189a1.326,1.326,0,0,1,.651,1.113,2.55,2.55,0,0,1-1.155,1.932l.021.168.693.63c1.491-1.071,2.226-2.1,2.226-3.15A1.9,1.9,0,0,0,175.56,16.774Zm9.912-7.644a6.729,6.729,0,0,0-3.78,1.26l.273,1.491.168.105a4.783,4.783,0,0,1,3-1.344,1.382,1.382,0,0,1,1.512,1.575l-.021,1.134-3.318.735a2.237,2.237,0,0,0-2.037,2.331c0,1.68,1.155,2.73,3.108,2.751a6.149,6.149,0,0,0,2.184-1.575h.147a1.635,1.635,0,0,0,1.533,1.554,3.422,3.422,0,0,0,1.323-.462l.21-1.176-.189-.147a3.212,3.212,0,0,1-.63.084c-.441,0-.609-.168-.609-.714,0-.714.252-4.242.252-4.977C188.6,10.1,187.383,9.13,185.472,9.13Zm1.155,5.46-.063,1.617a2.965,2.965,0,0,1-2.1,1.281,1.21,1.21,0,0,1-1.281-1.344.775.775,0,0,1,.714-.9Zm16.149-5.418-1.092.378a9.161,9.161,0,0,0-2.52-.4c-2.877,0-4.7,1.764-4.7,5.1,0,3.024,1.491,4.872,4.263,4.872a7.821,7.821,0,0,0,2.016-1.218h.189v.441l-.1,4.536h2.121l-.147-8.127.168-5.46ZM199,10.642a3.969,3.969,0,0,1,1.89.525l.063,3.8-.021,1.3a2.92,2.92,0,0,1-2.163,1.113c-1.407,0-2.268-1.218-2.289-3.36C196.434,11.692,197.442,10.642,199,10.642Zm14.616-1.365-2.037.189v6.825a3.443,3.443,0,0,1-2.289,1.071c-.987,0-1.47-.63-1.449-1.659l.105-6.426-2.121.189.084,4.2-.042,2.625c-.021,1.806,1.113,2.835,3.234,2.835a6.313,6.313,0,0,0,2.52-1.47h.168a1.682,1.682,0,0,0,1.554,1.491,3.3,3.3,0,0,0,1.323-.462l.21-1.176-.189-.147a3.036,3.036,0,0,1-.651.084c-.42,0-.567-.168-.567-.693Zm6.615-.147a6.729,6.729,0,0,0-3.78,1.26l.273,1.491.168.105a4.783,4.783,0,0,1,3-1.344,1.382,1.382,0,0,1,1.512,1.575l-.021,1.134-3.318.735a2.237,2.237,0,0,0-2.037,2.331c0,1.68,1.155,2.73,3.108,2.751a6.149,6.149,0,0,0,2.184-1.575h.147A1.635,1.635,0,0,0,223,19.147a3.422,3.422,0,0,0,1.323-.462l.21-1.176-.189-.147a3.212,3.212,0,0,1-.63.084c-.441,0-.609-.168-.609-.714,0-.714.252-4.242.252-4.977C223.356,10.1,222.138,9.13,220.227,9.13Zm1.155,5.46-.063,1.617a2.965,2.965,0,0,1-2.1,1.281,1.21,1.21,0,0,1-1.281-1.344.775.775,0,0,1,.714-.9ZM232.512,19h2.163l-.105-4.242.063-2.73c.021-1.806-1.092-2.835-3.255-2.835a7.141,7.141,0,0,0-2.583,1.491h-.147l.021-1.407-2.037.189.105,5.481L226.611,19h2.142l-.126-4.242.021-2.562a3.767,3.767,0,0,1,2.52-1.26c1.008,0,1.512.651,1.491,1.7Zm8.442-1.617c-.861,0-1.239-.336-1.218-1.386l.1-5.271h2.709l.105-1.218-.084-.147h-2.688l.042-2.079-.189-.168-1.89.714V9.361h-1.281l-.1,1.239.084.126h1.323l.021,4.095-.084,1.512a2.506,2.506,0,0,0,2.478,2.793,6.062,6.062,0,0,0,2.142-.63l.21-1.344-.21-.147A3.311,3.311,0,0,1,240.954,17.383Zm4.6-12.579a1.136,1.136,0,0,0-1.218,1.218A1.066,1.066,0,0,0,245.49,7.2a1.131,1.131,0,0,0,1.176-1.239A1.039,1.039,0,0,0,245.553,4.8Zm.84,9.954.168-5.481-2.142.189.105,5.481L244.4,19h2.142Zm10.731-.021.168-10.479-2.142.168.042,4.893a8.851,8.851,0,0,0-1.638-.168c-2.961,0-4.767,1.806-4.767,5.04,0,3.108,1.533,4.935,4.347,4.935a8.577,8.577,0,0,0,2.184-1.449h.168a1.663,1.663,0,0,0,1.554,1.47,3.4,3.4,0,0,0,1.344-.462l.189-1.176-.189-.147a3.036,3.036,0,0,1-.651.084c-.4,0-.525-.168-.546-.693Zm-3.78-4.116a4.337,4.337,0,0,1,1.869.483l.063,3.822-.042,1.365a2.684,2.684,0,0,1-2.058,1.092c-1.47,0-2.352-1.2-2.373-3.444C250.761,11.692,251.769,10.621,253.344,10.621Zm10.6-1.491a6.73,6.73,0,0,0-3.78,1.26l.273,1.491.168.105a4.783,4.783,0,0,1,3-1.344,1.382,1.382,0,0,1,1.512,1.575l-.021,1.134-3.318.735a2.237,2.237,0,0,0-2.037,2.331c0,1.68,1.155,2.73,3.108,2.751a6.149,6.149,0,0,0,2.184-1.575h.147a1.635,1.635,0,0,0,1.533,1.554,3.422,3.422,0,0,0,1.323-.462l.21-1.176-.189-.147a3.211,3.211,0,0,1-.63.084c-.441,0-.609-.168-.609-.714,0-.714.252-4.242.252-4.977C267.078,10.1,265.86,9.13,263.949,9.13Zm1.155,5.46-.063,1.617a2.965,2.965,0,0,1-2.1,1.281,1.21,1.21,0,0,1-1.281-1.344.775.775,0,0,1,.714-.9Zm12.81.147.168-10.479-2.142.168.042,4.893a8.851,8.851,0,0,0-1.638-.168c-2.961,0-4.767,1.806-4.767,5.04,0,3.108,1.533,4.935,4.347,4.935a8.577,8.577,0,0,0,2.184-1.449h.168a1.663,1.663,0,0,0,1.554,1.47,3.4,3.4,0,0,0,1.344-.462l.189-1.176-.189-.147a3.036,3.036,0,0,1-.651.084c-.4,0-.525-.168-.546-.693Zm-3.78-4.116A4.337,4.337,0,0,1,276,11.1l.063,3.822-.042,1.365a2.684,2.684,0,0,1-2.058,1.092c-1.47,0-2.352-1.2-2.373-3.444C271.551,11.692,272.559,10.621,274.134,10.621Zm14.133,3.633.357-.336a8.183,8.183,0,0,0,.084-1.05c0-2.31-1.281-3.717-3.528-3.717-2.814,0-4.641,1.911-4.641,5.061,0,3.066,1.68,4.977,4.578,4.977a6.816,6.816,0,0,0,2.94-.714l.252-1.7-.189-.126a5.765,5.765,0,0,1-2.835.882c-1.848,0-2.73-1.2-2.772-3.276Zm-1.512-1.407-4.137.1a2.461,2.461,0,0,1,2.436-2.331c1.05,0,1.743.609,1.743,1.974Zm15.1,1.89.168-10.479-2.142.168.042,4.893a8.851,8.851,0,0,0-1.638-.168c-2.961,0-4.767,1.806-4.767,5.04,0,3.108,1.533,4.935,4.347,4.935a8.577,8.577,0,0,0,2.184-1.449h.168a1.663,1.663,0,0,0,1.554,1.47,3.4,3.4,0,0,0,1.344-.462l.189-1.176-.189-.147a3.036,3.036,0,0,1-.651.084c-.4,0-.525-.168-.546-.693Zm-3.78-4.116a4.337,4.337,0,0,1,1.869.483l.063,3.822-.042,1.365a2.684,2.684,0,0,1-2.058,1.092c-1.47,0-2.352-1.2-2.373-3.444C295.491,11.692,296.5,10.621,298.074,10.621Zm14.133,3.633.357-.336a8.183,8.183,0,0,0,.084-1.05c0-2.31-1.281-3.717-3.528-3.717-2.814,0-4.641,1.911-4.641,5.061,0,3.066,1.68,4.977,4.578,4.977a6.816,6.816,0,0,0,2.94-.714l.252-1.7-.189-.126a5.765,5.765,0,0,1-2.835.882c-1.848,0-2.73-1.2-2.772-3.276ZM310.7,12.847l-4.137.1a2.461,2.461,0,0,1,2.436-2.331c1.05,0,1.743.609,1.743,1.974Zm8.652-2.163-.273-1.428-1.974.1L319.977,19h2.31l3.423-9.681h-1.89l-.357,1.47-2.142,6.153h-.147Zm14.658,3.57.357-.336a8.183,8.183,0,0,0,.084-1.05c0-2.31-1.281-3.717-3.528-3.717-2.814,0-4.641,1.911-4.641,5.061,0,3.066,1.68,4.977,4.578,4.977a6.816,6.816,0,0,0,2.94-.714l.252-1.7-.189-.126a5.765,5.765,0,0,1-2.835.882c-1.848,0-2.73-1.2-2.772-3.276Zm-1.512-1.407-4.137.1a2.461,2.461,0,0,1,2.436-2.331c1.05,0,1.743.609,1.743,1.974ZM342.552,19h2.163l-.1-4.242.063-2.73c.021-1.806-1.092-2.835-3.255-2.835a7.141,7.141,0,0,0-2.583,1.491h-.147l.021-1.407-2.037.189.105,5.481L336.651,19h2.142l-.126-4.242.021-2.562a3.767,3.767,0,0,1,2.52-1.26c1.008,0,1.512.651,1.491,1.7Zm12.6-4.263.168-10.479-2.142.168.042,4.893a8.851,8.851,0,0,0-1.638-.168c-2.961,0-4.767,1.806-4.767,5.04,0,3.108,1.533,4.935,4.347,4.935a8.577,8.577,0,0,0,2.184-1.449h.168a1.663,1.663,0,0,0,1.554,1.47,3.4,3.4,0,0,0,1.344-.462l.189-1.176-.189-.147a3.036,3.036,0,0,1-.651.084c-.4,0-.525-.168-.546-.693Zm-3.78-4.116a4.337,4.337,0,0,1,1.869.483l.063,3.822-.042,1.365a2.684,2.684,0,0,1-2.058,1.092c-1.47,0-2.352-1.2-2.373-3.444C348.789,11.692,349.8,10.621,351.372,10.621ZM361.977,9.13a6.73,6.73,0,0,0-3.78,1.26l.273,1.491.168.105a4.783,4.783,0,0,1,3-1.344,1.382,1.382,0,0,1,1.512,1.575l-.021,1.134-3.318.735a2.237,2.237,0,0,0-2.037,2.331c0,1.68,1.155,2.73,3.108,2.751a6.149,6.149,0,0,0,2.184-1.575h.147a1.635,1.635,0,0,0,1.533,1.554,3.422,3.422,0,0,0,1.323-.462l.21-1.176-.189-.147a3.211,3.211,0,0,1-.63.084c-.441,0-.609-.168-.609-.714,0-.714.252-4.242.252-4.977C365.106,10.1,363.888,9.13,361.977,9.13Zm1.155,5.46-.063,1.617a2.965,2.965,0,0,1-2.1,1.281,1.21,1.21,0,0,1-1.281-1.344.775.775,0,0,1,.714-.9Zm8.148-5.439c-2.226,0-3.528,1.26-3.528,2.919,0,3.045,4.347,2.646,4.347,4.431a1.342,1.342,0,0,1-1.491,1.239,4.437,4.437,0,0,1-2.688-1.134l-.231.147-.252,1.785a7.6,7.6,0,0,0,2.94.651c2.415,0,3.633-1.491,3.633-3.045,0-2.961-4.347-2.583-4.347-4.347a1.226,1.226,0,0,1,1.365-1.155,3.917,3.917,0,0,1,2.142.735l.273-.063.294-1.68A6.649,6.649,0,0,0,371.28,9.151ZM387.2,14.737l.168-10.479-2.142.168.042,4.893a8.851,8.851,0,0,0-1.638-.168c-2.961,0-4.767,1.806-4.767,5.04,0,3.108,1.533,4.935,4.347,4.935a8.577,8.577,0,0,0,2.184-1.449h.168a1.663,1.663,0,0,0,1.554,1.47,3.4,3.4,0,0,0,1.344-.462l.189-1.176-.189-.147a3.036,3.036,0,0,1-.651.084c-.4,0-.525-.168-.546-.693Zm-3.78-4.116a4.337,4.337,0,0,1,1.869.483l.063,3.822-.042,1.365a2.684,2.684,0,0,1-2.058,1.092c-1.47,0-2.352-1.2-2.373-3.444C380.835,11.692,381.843,10.621,383.418,10.621Zm14.133,3.633.357-.336a8.183,8.183,0,0,0,.084-1.05c0-2.31-1.281-3.717-3.528-3.717-2.814,0-4.641,1.911-4.641,5.061,0,3.066,1.68,4.977,4.578,4.977a6.816,6.816,0,0,0,2.94-.714l.252-1.7-.189-.126a5.765,5.765,0,0,1-2.835.882c-1.848,0-2.73-1.2-2.772-3.276Zm-1.512-1.407-4.137.1a2.461,2.461,0,0,1,2.436-2.331c1.05,0,1.743.609,1.743,1.974ZM407.274,9.13c-2.772,0-4.431,1.953-4.431,5.124,0,3.066,1.554,4.935,4.179,4.935a7.5,7.5,0,0,0,2.562-.483l.21-1.722-.189-.126a5.051,5.051,0,0,1-2.247.63c-1.6,0-2.5-1.26-2.5-3.4,0-2.037.882-3.192,2.373-3.192a4.163,4.163,0,0,1,2.058.651l.21-.084.357-1.785A6.3,6.3,0,0,0,407.274,9.13Zm7.644,0a6.73,6.73,0,0,0-3.78,1.26l.273,1.491.168.105a4.783,4.783,0,0,1,3-1.344,1.382,1.382,0,0,1,1.512,1.575l-.021,1.134-3.318.735a2.237,2.237,0,0,0-2.037,2.331c0,1.68,1.155,2.73,3.108,2.751a6.149,6.149,0,0,0,2.184-1.575h.147a1.635,1.635,0,0,0,1.533,1.554,3.422,3.422,0,0,0,1.323-.462l.21-1.176-.189-.147a3.211,3.211,0,0,1-.63.084c-.441,0-.609-.168-.609-.714,0-.714.252-4.242.252-4.977C418.047,10.1,416.829,9.13,414.918,9.13Zm1.155,5.46-.063,1.617a2.965,2.965,0,0,1-2.1,1.281,1.21,1.21,0,0,1-1.281-1.344.775.775,0,0,1,.714-.9ZM433.125,19h2.163l-.1-4.242.063-2.73c.021-1.806-1.092-2.835-3.255-2.835a7.616,7.616,0,0,0-2.772,1.575h-.126c-.42-1.008-1.449-1.575-3.024-1.575a6.974,6.974,0,0,0-2.583,1.491h-.147l.021-1.407-2.037.189.105,5.481L421.3,19h2.121l-.105-4.242.021-2.562a3.767,3.767,0,0,1,2.52-1.26c1.008,0,1.512.651,1.491,1.7L427.2,19h2.142l-.084-4.242.042-2.6a3.7,3.7,0,0,1,2.478-1.218c1.008,0,1.512.651,1.491,1.7Zm6.111-14.2a1.136,1.136,0,0,0-1.218,1.218A1.066,1.066,0,0,0,439.173,7.2a1.131,1.131,0,0,0,1.176-1.239A1.039,1.039,0,0,0,439.236,4.8Zm.84,9.954.168-5.481-2.142.189.105,5.481L438.081,19h2.142Zm6.069-5.607c-2.226,0-3.528,1.26-3.528,2.919,0,3.045,4.347,2.646,4.347,4.431a1.342,1.342,0,0,1-1.491,1.239,4.437,4.437,0,0,1-2.688-1.134l-.231.147-.252,1.785a7.6,7.6,0,0,0,2.94.651c2.415,0,3.633-1.491,3.633-3.045,0-2.961-4.347-2.583-4.347-4.347a1.226,1.226,0,0,1,1.365-1.155,3.917,3.917,0,0,1,2.142.735l.273-.063.294-1.68A6.649,6.649,0,0,0,446.145,9.151Zm11.991,5.1.357-.336a8.183,8.183,0,0,0,.084-1.05c0-2.31-1.281-3.717-3.528-3.717-2.814,0-4.641,1.911-4.641,5.061,0,3.066,1.68,4.977,4.578,4.977a6.816,6.816,0,0,0,2.94-.714l.252-1.7-.189-.126a5.765,5.765,0,0,1-2.835.882c-1.848,0-2.73-1.2-2.772-3.276Zm-1.512-1.407-4.137.1a2.461,2.461,0,0,1,2.436-2.331c1.05,0,1.743.609,1.743,1.974Zm7.581,4.536c-.861,0-1.239-.336-1.218-1.386l.1-5.271H465.8l.1-1.218-.084-.147h-2.688l.042-2.079-.189-.168-1.89.714V9.361h-1.281l-.1,1.239.084.126h1.323l.021,4.095-.084,1.512a2.506,2.506,0,0,0,2.478,2.793,6.063,6.063,0,0,0,2.142-.63l.21-1.344-.21-.147A3.311,3.311,0,0,1,464.2,17.383Zm6.93-8.253a6.73,6.73,0,0,0-3.78,1.26l.273,1.491.168.105a4.783,4.783,0,0,1,3-1.344,1.382,1.382,0,0,1,1.512,1.575l-.021,1.134-3.318.735a2.237,2.237,0,0,0-2.037,2.331c0,1.68,1.155,2.73,3.108,2.751a6.149,6.149,0,0,0,2.184-1.575h.147a1.635,1.635,0,0,0,1.533,1.554,3.422,3.422,0,0,0,1.323-.462l.21-1.176-.189-.147a3.211,3.211,0,0,1-.63.084c-.441,0-.609-.168-.609-.714,0-.714.252-4.242.252-4.977C474.264,10.1,473.046,9.13,471.135,9.13Zm1.155,5.46-.063,1.617a2.965,2.965,0,0,1-2.1,1.281,1.21,1.21,0,0,1-1.281-1.344.775.775,0,0,1,.714-.9Zm8.148-5.439c-2.226,0-3.528,1.26-3.528,2.919,0,3.045,4.347,2.646,4.347,4.431a1.342,1.342,0,0,1-1.491,1.239,4.437,4.437,0,0,1-2.688-1.134l-.231.147-.252,1.785a7.6,7.6,0,0,0,2.94.651c2.415,0,3.633-1.491,3.633-3.045,0-2.961-4.347-2.583-4.347-4.347a1.226,1.226,0,0,1,1.365-1.155,3.917,3.917,0,0,1,2.142.735l.273-.063.294-1.68A6.649,6.649,0,0,0,480.438,9.151Zm15.918,5.586.168-10.479-2.142.168.042,4.893a8.851,8.851,0,0,0-1.638-.168c-2.961,0-4.767,1.806-4.767,5.04,0,3.108,1.533,4.935,4.347,4.935a8.577,8.577,0,0,0,2.184-1.449h.168a1.663,1.663,0,0,0,1.554,1.47,3.4,3.4,0,0,0,1.344-.462l.189-1.176-.189-.147a3.036,3.036,0,0,1-.651.084c-.4,0-.525-.168-.546-.693Zm-3.78-4.116a4.337,4.337,0,0,1,1.869.483l.063,3.822-.042,1.365a2.684,2.684,0,0,1-2.058,1.092c-1.47,0-2.352-1.2-2.373-3.444C489.993,11.692,491,10.621,492.576,10.621ZM503.5,9.13c-2.9,0-4.515,1.869-4.515,5.187,0,3.108,1.533,4.872,4.242,4.872,2.9,0,4.515-1.869,4.515-5.187C507.738,10.894,506.2,9.13,503.5,9.13Zm-.126,1.491c1.575,0,2.373,1.218,2.373,3.864,0,2.2-.8,3.234-2.373,3.234-1.6,0-2.394-1.2-2.394-3.864C500.976,11.692,501.774,10.621,503.37,10.621Zm9.576-1.47c-2.226,0-3.528,1.26-3.528,2.919,0,3.045,4.347,2.646,4.347,4.431a1.342,1.342,0,0,1-1.491,1.239,4.437,4.437,0,0,1-2.688-1.134l-.231.147-.252,1.785a7.6,7.6,0,0,0,2.94.651c2.415,0,3.633-1.491,3.633-3.045,0-2.961-4.347-2.583-4.347-4.347a1.226,1.226,0,0,1,1.365-1.155,3.917,3.917,0,0,1,2.142.735l.273-.063.294-1.68A6.648,6.648,0,0,0,512.946,9.151Zm11.823-.021a6.729,6.729,0,0,0-3.78,1.26l.273,1.491.168.105a4.783,4.783,0,0,1,3-1.344,1.382,1.382,0,0,1,1.512,1.575l-.021,1.134-3.318.735a2.237,2.237,0,0,0-2.037,2.331c0,1.68,1.155,2.73,3.108,2.751a6.149,6.149,0,0,0,2.184-1.575h.147a1.635,1.635,0,0,0,1.533,1.554,3.423,3.423,0,0,0,1.323-.462l.21-1.176-.189-.147a3.212,3.212,0,0,1-.63.084c-.441,0-.609-.168-.609-.714,0-.714.252-4.242.252-4.977C527.9,10.1,526.68,9.13,524.769,9.13Zm1.155,5.46-.063,1.617a2.965,2.965,0,0,1-2.1,1.281,1.21,1.21,0,0,1-1.281-1.344.775.775,0,0,1,.714-.9ZM537.054,19h2.163l-.1-4.242.063-2.73c.021-1.806-1.092-2.835-3.255-2.835a7.141,7.141,0,0,0-2.583,1.491h-.147l.021-1.407-2.037.189.1,5.481L531.153,19h2.142l-.126-4.242.021-2.562a3.767,3.767,0,0,1,2.52-1.26c1.008,0,1.512.651,1.491,1.7Zm8.82-9.87c-2.9,0-4.515,1.869-4.515,5.187,0,3.108,1.533,4.872,4.242,4.872,2.9,0,4.515-1.869,4.515-5.187C550.116,10.894,548.583,9.13,545.874,9.13Zm-.126,1.491c1.575,0,2.373,1.218,2.373,3.864,0,2.2-.8,3.234-2.373,3.234-1.6,0-2.394-1.2-2.394-3.864C543.354,11.692,544.152,10.621,545.748,10.621Zm9.576-1.47c-2.226,0-3.528,1.26-3.528,2.919,0,3.045,4.347,2.646,4.347,4.431a1.342,1.342,0,0,1-1.491,1.239,4.437,4.437,0,0,1-2.688-1.134l-.231.147-.252,1.785a7.6,7.6,0,0,0,2.94.651c2.415,0,3.633-1.491,3.633-3.045,0-2.961-4.347-2.583-4.347-4.347a1.226,1.226,0,0,1,1.365-1.155,3.917,3.917,0,0,1,2.142.735l.273-.063.294-1.68A6.649,6.649,0,0,0,555.324,9.151ZM567.21,8.6l-.315-.231L562.38,9.7v1.7l.189.126,2.562-.714.021,4.074L565.026,19h2.163l-.1-4.347Zm7.392-.336A3.9,3.9,0,0,0,570.36,12.3a3.281,3.281,0,0,0,3.4,3.591,4.339,4.339,0,0,0,2.478-.777l.147.168c-.672,1.995-2.415,3.36-5.607,4.494v.21l1.6.966h.126c3.906-1.617,6.153-4.515,6.153-8.043C578.655,10.012,577.29,8.269,574.6,8.269Zm-.231,6.09c-1.344,0-2.1-.84-2.1-2.352a2.041,2.041,0,0,1,2.184-2.289c1.617,0,2.268,1.092,2.268,3.234l-.021.5A3.826,3.826,0,0,1,574.371,14.359Zm7.77-5.88L580.062,8.4l-.147,1.827.126.21,1.743-.189h4.032L581.133,20.3l.126.357,1.722.462,1.029-2.751,3.822-8.358-.021-1.575-.945.042Zm11.949-.147c-3.024,0-4.767,2.037-4.767,5.586,0,3.339,1.638,5.25,4.494,5.25,3.024,0,4.725-2.016,4.725-5.544C598.542,10.243,596.925,8.332,594.09,8.332Zm-.168,1.974c1.932,0,2.961,1.176,2.961,3.57,0,2.268-1.008,3.4-2.94,3.4-1.974,0-2.94-1.176-2.94-3.507S591.969,10.306,593.922,10.306Zm17.388,3.948.357-.336a8.184,8.184,0,0,0,.084-1.05c0-2.31-1.281-3.717-3.528-3.717-2.814,0-4.641,1.911-4.641,5.061,0,3.066,1.68,4.977,4.578,4.977a6.815,6.815,0,0,0,2.94-.714l.252-1.7-.189-.126a5.765,5.765,0,0,1-2.835.882c-1.848,0-2.73-1.2-2.772-3.276ZM609.8,12.847l-4.137.1a2.461,2.461,0,0,1,2.436-2.331c1.05,0,1.743.609,1.743,1.974ZM618.786,9.3a3.1,3.1,0,0,0-2.646,1.911h-.147l.021-1.932-2.037.189.126,5.481L613.956,19H616.1l-.147-4.242.021-1.386c.735-1.449,1.47-2.037,2.331-2.037a2.939,2.939,0,0,1,.777.1l.231-.063V9.34A4.091,4.091,0,0,0,618.786,9.3ZM624.2,9.13a6.729,6.729,0,0,0-3.78,1.26l.273,1.491.168.105a4.783,4.783,0,0,1,3-1.344,1.382,1.382,0,0,1,1.512,1.575l-.021,1.134-3.318.735A2.237,2.237,0,0,0,620,16.417c0,1.68,1.155,2.73,3.108,2.751a6.15,6.15,0,0,0,2.184-1.575h.147a1.635,1.635,0,0,0,1.533,1.554,3.422,3.422,0,0,0,1.323-.462l.21-1.176-.189-.147a3.212,3.212,0,0,1-.63.084c-.441,0-.609-.168-.609-.714,0-.714.252-4.242.252-4.977C627.333,10.1,626.115,9.13,624.2,9.13Zm1.155,5.46-.063,1.617a2.966,2.966,0,0,1-2.1,1.281,1.21,1.21,0,0,1-1.281-1.344.775.775,0,0,1,.714-.9Zm11.508-5.439c-2.226,0-3.528,1.26-3.528,2.919,0,3.045,4.347,2.646,4.347,4.431a1.342,1.342,0,0,1-1.491,1.239,4.437,4.437,0,0,1-2.688-1.134l-.231.147-.252,1.785a7.6,7.6,0,0,0,2.94.651c2.415,0,3.633-1.491,3.633-3.045,0-2.961-4.347-2.583-4.347-4.347a1.226,1.226,0,0,1,1.365-1.155,3.917,3.917,0,0,1,2.142.735l.273-.063.294-1.68A6.649,6.649,0,0,0,636.867,9.151Zm12.663.126-2.037.189v6.825a3.443,3.443,0,0,1-2.289,1.071c-.987,0-1.47-.63-1.449-1.659l.105-6.426-2.121.189.084,4.2-.042,2.625c-.021,1.806,1.113,2.835,3.234,2.835a6.313,6.313,0,0,0,2.52-1.47h.168a1.682,1.682,0,0,0,1.554,1.491,3.3,3.3,0,0,0,1.323-.462l.21-1.176-.189-.147a3.035,3.035,0,0,1-.651.084c-.42,0-.567-.168-.567-.693Zm7.833-.063a6.328,6.328,0,0,0-2.52,1.449H654.7l.021-1.386-2.058.189.126,5.481-.126,7.938h2.121l-.063-3.864a9.036,9.036,0,0,0,1.638.168c3,0,4.767-1.89,4.767-5.313C661.122,10.957,659.841,9.214,657.363,9.214Zm-.84,8.505a4.058,4.058,0,0,1-1.827-.462l-.042-2.5.021-2.562a3.335,3.335,0,0,1,2.331-1.26c1.344,0,2.079,1.176,2.1,3.213C659.148,16.606,658.1,17.719,656.523,17.719Zm13.86-3.465.357-.336a8.184,8.184,0,0,0,.084-1.05c0-2.31-1.281-3.717-3.528-3.717-2.814,0-4.641,1.911-4.641,5.061,0,3.066,1.68,4.977,4.578,4.977a6.815,6.815,0,0,0,2.94-.714l.252-1.7-.189-.126a5.765,5.765,0,0,1-2.835.882c-1.848,0-2.73-1.2-2.772-3.276Zm-1.512-1.407-4.137.1a2.461,2.461,0,0,1,2.436-2.331c1.05,0,1.743.609,1.743,1.974ZM677.859,9.3a3.1,3.1,0,0,0-2.646,1.911h-.147l.021-1.932-2.037.189.126,5.481L673.029,19h2.142l-.147-4.242.021-1.386c.735-1.449,1.47-2.037,2.331-2.037a2.939,2.939,0,0,1,.777.1l.231-.063V9.34A4.091,4.091,0,0,0,677.859,9.3Zm3.3-4.494a1.136,1.136,0,0,0-1.218,1.218A1.066,1.066,0,0,0,681.093,7.2a1.131,1.131,0,0,0,1.176-1.239A1.039,1.039,0,0,0,681.156,4.8Zm.84,9.954.168-5.481-2.142.189.1,5.481L680,19h2.142Zm6.951-5.628c-2.9,0-4.515,1.869-4.515,5.187,0,3.108,1.533,4.872,4.242,4.872,2.9,0,4.515-1.869,4.515-5.187C693.189,10.894,691.656,9.13,688.947,9.13Zm-.126,1.491c1.575,0,2.373,1.218,2.373,3.864,0,2.2-.8,3.234-2.373,3.234-1.6,0-2.394-1.2-2.394-3.864C686.427,11.692,687.225,10.621,688.821,10.621ZM700.308,9.3a3.1,3.1,0,0,0-2.646,1.911h-.147l.021-1.932-2.037.189.126,5.481L695.478,19h2.142l-.147-4.242.021-1.386c.735-1.449,1.47-2.037,2.331-2.037a2.939,2.939,0,0,1,.777.1l.231-.063V9.34A4.091,4.091,0,0,0,700.308,9.3Zm1.806,7.476a5.356,5.356,0,0,0-1.533.693v.189a1.326,1.326,0,0,1,.651,1.113,2.55,2.55,0,0,1-1.155,1.932l.021.168.693.63c1.491-1.071,2.226-2.1,2.226-3.15A1.9,1.9,0,0,0,702.114,16.774ZM720.363,19h2.163l-.1-4.242.063-2.73c.021-1.806-1.092-2.835-3.255-2.835a7.615,7.615,0,0,0-2.772,1.575h-.126c-.42-1.008-1.449-1.575-3.024-1.575a6.974,6.974,0,0,0-2.583,1.491h-.147l.021-1.407-2.037.189.1,5.481L708.54,19h2.121l-.1-4.242.021-2.562a3.767,3.767,0,0,1,2.52-1.26c1.008,0,1.512.651,1.491,1.7L714.441,19h2.142l-.084-4.242.042-2.6a3.7,3.7,0,0,1,2.478-1.218c1.008,0,1.512.651,1.491,1.7ZM728.8,9.13a6.729,6.729,0,0,0-3.78,1.26l.273,1.491.168.105a4.783,4.783,0,0,1,3-1.344,1.382,1.382,0,0,1,1.512,1.575l-.021,1.134-3.318.735a2.237,2.237,0,0,0-2.037,2.331c0,1.68,1.155,2.73,3.108,2.751a6.149,6.149,0,0,0,2.184-1.575h.147a1.635,1.635,0,0,0,1.533,1.554,3.423,3.423,0,0,0,1.323-.462l.21-1.176-.189-.147a3.212,3.212,0,0,1-.63.084c-.441,0-.609-.168-.609-.714,0-.714.252-4.242.252-4.977C731.934,10.1,730.716,9.13,728.8,9.13Zm1.155,5.46-.063,1.617a2.965,2.965,0,0,1-2.1,1.281,1.21,1.21,0,0,1-1.281-1.344.775.775,0,0,1,.714-.9Zm8.148-5.439c-2.226,0-3.528,1.26-3.528,2.919,0,3.045,4.347,2.646,4.347,4.431a1.342,1.342,0,0,1-1.491,1.239,4.437,4.437,0,0,1-2.688-1.134l-.231.147-.252,1.785a7.6,7.6,0,0,0,2.94.651c2.415,0,3.633-1.491,3.633-3.045,0-2.961-4.347-2.583-4.347-4.347a1.226,1.226,0,0,1,1.365-1.155,3.917,3.917,0,0,1,2.142.735l.273-.063.294-1.68A6.649,6.649,0,0,0,738.108,9.151Zm11.823-.021a6.729,6.729,0,0,0-3.78,1.26l.273,1.491.168.105a4.783,4.783,0,0,1,3-1.344,1.382,1.382,0,0,1,1.512,1.575l-.021,1.134-3.318.735a2.237,2.237,0,0,0-2.037,2.331c0,1.68,1.155,2.73,3.108,2.751a6.149,6.149,0,0,0,2.184-1.575h.147a1.635,1.635,0,0,0,1.533,1.554,3.423,3.423,0,0,0,1.323-.462l.21-1.176-.189-.147a3.212,3.212,0,0,1-.63.084c-.441,0-.609-.168-.609-.714,0-.714.252-4.242.252-4.977C753.06,10.1,751.842,9.13,749.931,9.13Zm1.155,5.46-.063,1.617a2.965,2.965,0,0,1-2.1,1.281,1.21,1.21,0,0,1-1.281-1.344.775.775,0,0,1,.714-.9Zm9.03-5.46c-2.9,0-4.515,1.869-4.515,5.187,0,3.108,1.533,4.872,4.242,4.872,2.9,0,4.515-1.869,4.515-5.187C764.358,10.894,762.825,9.13,760.116,9.13Zm-.126,1.491c1.575,0,2.373,1.218,2.373,3.864,0,2.2-.8,3.234-2.373,3.234-1.6,0-2.394-1.2-2.394-3.864C757.6,11.692,758.394,10.621,759.99,10.621ZM6.426,33.216c-2.9,0-4.242,1.281-4.242,4.074l.021,1.071H.777L.672,39.6l.084.126H2.205l.042,4.2L2.121,48H4.263l-.147-4.263.063-4.011H8.547l.084,4.221L8.484,48h2.142L10.5,43.758l.147-5.481-.168-.084-1.2.168H4.2l.021-1.491c0-1.47.63-2.121,1.974-2.121a5.875,5.875,0,0,1,2.5.672l.231-.084.252-1.722A9.9,9.9,0,0,0,6.426,33.216ZM19.383,48h2.163l-.1-4.242.063-2.73c.021-1.806-1.092-2.835-3.255-2.835a7.141,7.141,0,0,0-2.583,1.491h-.147l.021-1.407-2.037.189.1,5.481L13.482,48h2.142L15.5,43.758l.021-2.562a3.767,3.767,0,0,1,2.52-1.26c1.008,0,1.512.651,1.491,1.7Zm8.5-9.87a6.729,6.729,0,0,0-3.78,1.26l.273,1.491.168.1a4.783,4.783,0,0,1,3-1.344,1.382,1.382,0,0,1,1.512,1.575l-.021,1.134-3.318.735a2.237,2.237,0,0,0-2.037,2.331c0,1.68,1.155,2.73,3.108,2.751a6.149,6.149,0,0,0,2.184-1.575h.147a1.635,1.635,0,0,0,1.533,1.554,3.422,3.422,0,0,0,1.323-.462l.21-1.176L32,46.362a3.212,3.212,0,0,1-.63.084c-.441,0-.609-.168-.609-.714,0-.714.252-4.242.252-4.977C31.017,39.1,29.8,38.13,27.888,38.13Zm1.155,5.46-.063,1.617a2.965,2.965,0,0,1-2.1,1.281A1.21,1.21,0,0,1,25.6,45.144a.775.775,0,0,1,.714-.9Zm7.329.147.168-10.479-2.142.168.126,10.5L34.377,48h2.142Zm14.175,0,.168-10.479-2.142.168.042,4.893a8.851,8.851,0,0,0-1.638-.168c-2.961,0-4.767,1.806-4.767,5.04,0,3.108,1.533,4.935,4.347,4.935a8.577,8.577,0,0,0,2.184-1.449h.168a1.663,1.663,0,0,0,1.554,1.47,3.4,3.4,0,0,0,1.344-.462L52,46.509l-.189-.147a3.036,3.036,0,0,1-.651.084c-.4,0-.525-.168-.546-.693Zm-3.78-4.116a4.337,4.337,0,0,1,1.869.483l.063,3.822-.042,1.365A2.684,2.684,0,0,1,46.6,46.383c-1.47,0-2.352-1.2-2.373-3.444C44.184,40.692,45.192,39.621,46.767,39.621Zm10.92-1.491c-2.9,0-4.515,1.869-4.515,5.187,0,3.108,1.533,4.872,4.242,4.872,2.9,0,4.515-1.869,4.515-5.187C61.929,39.894,60.4,38.13,57.687,38.13Zm-.126,1.491c1.575,0,2.373,1.218,2.373,3.864,0,2.2-.8,3.234-2.373,3.234-1.6,0-2.394-1.2-2.394-3.864C55.167,40.692,55.965,39.621,57.561,39.621Zm13.5-1.491a6.729,6.729,0,0,0-3.78,1.26l.273,1.491.168.1a4.783,4.783,0,0,1,3-1.344,1.382,1.382,0,0,1,1.512,1.575l-.021,1.134-3.318.735a2.237,2.237,0,0,0-2.037,2.331c0,1.68,1.155,2.73,3.108,2.751a6.149,6.149,0,0,0,2.184-1.575H72.3a1.635,1.635,0,0,0,1.533,1.554,3.422,3.422,0,0,0,1.323-.462l.21-1.176-.189-.147a3.212,3.212,0,0,1-.63.084c-.441,0-.609-.168-.609-.714,0-.714.252-4.242.252-4.977C74.193,39.1,72.975,38.13,71.064,38.13Zm1.155,5.46-.063,1.617a2.965,2.965,0,0,1-2.1,1.281,1.21,1.21,0,0,1-1.281-1.344.775.775,0,0,1,.714-.9ZM83.349,48h2.163l-.105-4.242.063-2.73c.021-1.806-1.092-2.835-3.255-2.835a7.141,7.141,0,0,0-2.583,1.491h-.147l.021-1.407-2.037.189.1,5.481L77.448,48H79.59l-.126-4.242.021-2.562a3.767,3.767,0,0,1,2.52-1.26c1.008,0,1.512.651,1.491,1.7Zm8.82-9.87c-2.9,0-4.515,1.869-4.515,5.187,0,3.108,1.533,4.872,4.242,4.872,2.9,0,4.515-1.869,4.515-5.187C96.411,39.894,94.878,38.13,92.169,38.13Zm-.126,1.491c1.575,0,2.373,1.218,2.373,3.864,0,2.2-.8,3.234-2.373,3.234-1.6,0-2.394-1.2-2.394-3.864C89.649,40.692,90.447,39.621,92.043,39.621Zm7.1,6.153a5.356,5.356,0,0,0-1.533.693v.189a1.326,1.326,0,0,1,.651,1.113A2.55,2.55,0,0,1,97.1,49.7l.021.168.693.63c1.491-1.071,2.226-2.1,2.226-3.15A1.9,1.9,0,0,0,99.141,45.774Zm9.912-7.644a6.729,6.729,0,0,0-3.78,1.26l.273,1.491.168.1a4.783,4.783,0,0,1,3-1.344,1.382,1.382,0,0,1,1.512,1.575l-.021,1.134-3.318.735a2.237,2.237,0,0,0-2.037,2.331c0,1.68,1.155,2.73,3.108,2.751a6.149,6.149,0,0,0,2.184-1.575h.147a1.635,1.635,0,0,0,1.533,1.554,3.422,3.422,0,0,0,1.323-.462l.21-1.176-.189-.147a3.212,3.212,0,0,1-.63.084c-.441,0-.609-.168-.609-.714,0-.714.252-4.242.252-4.977C112.182,39.1,110.964,38.13,109.053,38.13Zm1.155,5.46-.063,1.617a2.965,2.965,0,0,1-2.1,1.281,1.21,1.21,0,0,1-1.281-1.344.775.775,0,0,1,.714-.9Zm8.148-5.439c-2.226,0-3.528,1.26-3.528,2.919,0,3.045,4.347,2.646,4.347,4.431a1.342,1.342,0,0,1-1.491,1.239A4.437,4.437,0,0,1,115,45.606l-.231.147-.252,1.785a7.6,7.6,0,0,0,2.94.651c2.415,0,3.633-1.491,3.633-3.045,0-2.961-4.347-2.583-4.347-4.347a1.226,1.226,0,0,1,1.365-1.155,3.917,3.917,0,0,1,2.142.735l.273-.063.294-1.68A6.649,6.649,0,0,0,118.356,38.151Zm12.054-.021c-2.772,0-4.431,1.953-4.431,5.124,0,3.066,1.554,4.935,4.179,4.935a7.5,7.5,0,0,0,2.562-.483l.21-1.722-.189-.126a5.051,5.051,0,0,1-2.247.63c-1.6,0-2.5-1.26-2.5-3.4,0-2.037.882-3.192,2.373-3.192a4.163,4.163,0,0,1,2.058.651l.21-.084.357-1.785A6.3,6.3,0,0,0,130.41,38.13Zm7.644,0a6.729,6.729,0,0,0-3.78,1.26l.273,1.491.168.1a4.783,4.783,0,0,1,3-1.344,1.382,1.382,0,0,1,1.512,1.575l-.021,1.134-3.318.735a2.237,2.237,0,0,0-2.037,2.331c0,1.68,1.155,2.73,3.108,2.751a6.149,6.149,0,0,0,2.184-1.575h.147a1.635,1.635,0,0,0,1.533,1.554,3.422,3.422,0,0,0,1.323-.462l.21-1.176-.189-.147a3.212,3.212,0,0,1-.63.084c-.441,0-.609-.168-.609-.714,0-.714.252-4.242.252-4.977C141.183,39.1,139.965,38.13,138.054,38.13Zm1.155,5.46-.063,1.617a2.965,2.965,0,0,1-2.1,1.281,1.21,1.21,0,0,1-1.281-1.344.775.775,0,0,1,.714-.9ZM156.261,48h2.163l-.105-4.242.063-2.73c.021-1.806-1.092-2.835-3.255-2.835a7.615,7.615,0,0,0-2.772,1.575h-.126c-.42-1.008-1.449-1.575-3.024-1.575a6.974,6.974,0,0,0-2.583,1.491h-.147l.021-1.407-2.037.189.105,5.481L144.438,48h2.121l-.1-4.242.021-2.562a3.767,3.767,0,0,1,2.52-1.26c1.008,0,1.512.651,1.491,1.7L150.339,48h2.142l-.084-4.242.042-2.6a3.7,3.7,0,0,1,2.478-1.218c1.008,0,1.512.651,1.491,1.7Zm6.111-14.2a1.136,1.136,0,0,0-1.218,1.218,1.066,1.066,0,0,0,1.155,1.176,1.131,1.131,0,0,0,1.176-1.239A1.039,1.039,0,0,0,162.372,33.8Zm.84,9.954.168-5.481-2.142.189.105,5.481L161.217,48h2.142Zm6.069-5.607c-2.226,0-3.528,1.26-3.528,2.919,0,3.045,4.347,2.646,4.347,4.431a1.342,1.342,0,0,1-1.491,1.239,4.437,4.437,0,0,1-2.688-1.134l-.231.147-.252,1.785a7.6,7.6,0,0,0,2.94.651c2.415,0,3.633-1.491,3.633-3.045,0-2.961-4.347-2.583-4.347-4.347a1.226,1.226,0,0,1,1.365-1.155,3.917,3.917,0,0,1,2.142.735l.273-.063.294-1.68A6.649,6.649,0,0,0,169.281,38.151Zm11.991,5.1.357-.336a8.181,8.181,0,0,0,.084-1.05c0-2.31-1.281-3.717-3.528-3.717-2.814,0-4.641,1.911-4.641,5.061,0,3.066,1.68,4.977,4.578,4.977a6.816,6.816,0,0,0,2.94-.714l.252-1.7-.189-.126a5.765,5.765,0,0,1-2.835.882c-1.848,0-2.73-1.2-2.772-3.276Zm-1.512-1.407-4.137.1a2.461,2.461,0,0,1,2.436-2.331c1.05,0,1.743.609,1.743,1.974Zm7.581,4.536c-.861,0-1.239-.336-1.218-1.386l.1-5.271h2.709l.105-1.218-.084-.147H186.27l.042-2.079-.189-.168-1.89.714v1.533h-1.281l-.1,1.239.084.126h1.323l.021,4.1-.084,1.512a2.506,2.506,0,0,0,2.478,2.793,6.062,6.062,0,0,0,2.142-.63l.21-1.344-.21-.147A3.311,3.311,0,0,1,187.341,46.383Zm6.93-8.253a6.729,6.729,0,0,0-3.78,1.26l.273,1.491.168.1a4.783,4.783,0,0,1,3-1.344,1.382,1.382,0,0,1,1.512,1.575l-.021,1.134-3.318.735a2.237,2.237,0,0,0-2.037,2.331c0,1.68,1.155,2.73,3.108,2.751a6.149,6.149,0,0,0,2.184-1.575h.147a1.635,1.635,0,0,0,1.533,1.554,3.422,3.422,0,0,0,1.323-.462l.21-1.176-.189-.147a3.212,3.212,0,0,1-.63.084c-.441,0-.609-.168-.609-.714,0-.714.252-4.242.252-4.977C197.4,39.1,196.182,38.13,194.271,38.13Zm1.155,5.46-.063,1.617a2.965,2.965,0,0,1-2.1,1.281,1.21,1.21,0,0,1-1.281-1.344.775.775,0,0,1,.714-.9Zm8.148-5.439c-2.226,0-3.528,1.26-3.528,2.919,0,3.045,4.347,2.646,4.347,4.431A1.342,1.342,0,0,1,202.9,46.74a4.437,4.437,0,0,1-2.688-1.134l-.231.147-.252,1.785a7.6,7.6,0,0,0,2.94.651c2.415,0,3.633-1.491,3.633-3.045,0-2.961-4.347-2.583-4.347-4.347a1.226,1.226,0,0,1,1.365-1.155,3.917,3.917,0,0,1,2.142.735l.273-.063.294-1.68A6.649,6.649,0,0,0,203.574,38.151Zm15.918,5.586.168-10.479-2.142.168.042,4.893a8.851,8.851,0,0,0-1.638-.168c-2.961,0-4.767,1.806-4.767,5.04,0,3.108,1.533,4.935,4.347,4.935a8.577,8.577,0,0,0,2.184-1.449h.168a1.663,1.663,0,0,0,1.554,1.47,3.4,3.4,0,0,0,1.344-.462l.189-1.176-.189-.147a3.036,3.036,0,0,1-.651.084c-.4,0-.525-.168-.546-.693Zm-3.78-4.116a4.337,4.337,0,0,1,1.869.483l.063,3.822-.042,1.365a2.684,2.684,0,0,1-2.058,1.092c-1.47,0-2.352-1.2-2.373-3.444C213.129,40.692,214.137,39.621,215.712,39.621Zm10.92-1.491c-2.9,0-4.515,1.869-4.515,5.187,0,3.108,1.533,4.872,4.242,4.872,2.9,0,4.515-1.869,4.515-5.187C230.874,39.894,229.341,38.13,226.632,38.13Zm-.126,1.491c1.575,0,2.373,1.218,2.373,3.864,0,2.2-.8,3.234-2.373,3.234-1.6,0-2.394-1.2-2.394-3.864C224.112,40.692,224.91,39.621,226.506,39.621Zm9.576-1.47c-2.226,0-3.528,1.26-3.528,2.919,0,3.045,4.347,2.646,4.347,4.431a1.342,1.342,0,0,1-1.491,1.239,4.437,4.437,0,0,1-2.688-1.134l-.231.147-.252,1.785a7.6,7.6,0,0,0,2.94.651c2.415,0,3.633-1.491,3.633-3.045,0-2.961-4.347-2.583-4.347-4.347a1.226,1.226,0,0,1,1.365-1.155,3.917,3.917,0,0,1,2.142.735l.273-.063.294-1.68A6.649,6.649,0,0,0,236.082,38.151ZM247.9,38.13a6.729,6.729,0,0,0-3.78,1.26l.273,1.491.168.1a4.783,4.783,0,0,1,3-1.344,1.382,1.382,0,0,1,1.512,1.575l-.021,1.134-3.318.735a2.237,2.237,0,0,0-2.037,2.331c0,1.68,1.155,2.73,3.108,2.751A6.149,6.149,0,0,0,249,46.593h.147a1.635,1.635,0,0,0,1.533,1.554A3.422,3.422,0,0,0,252,47.685l.21-1.176-.189-.147a3.212,3.212,0,0,1-.63.084c-.441,0-.609-.168-.609-.714,0-.714.252-4.242.252-4.977C251.034,39.1,249.816,38.13,247.9,38.13Zm1.155,5.46L249,45.207a2.965,2.965,0,0,1-2.1,1.281,1.21,1.21,0,0,1-1.281-1.344.775.775,0,0,1,.714-.9ZM260.19,48h2.163l-.1-4.242.063-2.73c.021-1.806-1.092-2.835-3.255-2.835a7.141,7.141,0,0,0-2.583,1.491h-.147l.021-1.407-2.037.189.105,5.481L254.289,48h2.142l-.126-4.242.021-2.562a3.767,3.767,0,0,1,2.52-1.26c1.008,0,1.512.651,1.491,1.7Zm8.82-9.87c-2.9,0-4.515,1.869-4.515,5.187,0,3.108,1.533,4.872,4.242,4.872,2.9,0,4.515-1.869,4.515-5.187C273.252,39.894,271.719,38.13,269.01,38.13Zm-.126,1.491c1.575,0,2.373,1.218,2.373,3.864,0,2.2-.8,3.234-2.373,3.234-1.6,0-2.394-1.2-2.394-3.864C266.49,40.692,267.288,39.621,268.884,39.621Zm9.576-1.47c-2.226,0-3.528,1.26-3.528,2.919,0,3.045,4.347,2.646,4.347,4.431a1.342,1.342,0,0,1-1.491,1.239,4.437,4.437,0,0,1-2.688-1.134l-.231.147-.252,1.785a7.6,7.6,0,0,0,2.94.651c2.415,0,3.633-1.491,3.633-3.045,0-2.961-4.347-2.583-4.347-4.347a1.226,1.226,0,0,1,1.365-1.155,3.917,3.917,0,0,1,2.142.735l.273-.063.294-1.68A6.649,6.649,0,0,0,278.46,38.151Zm11.886-.546-.315-.231L285.516,38.7v1.7l.189.126,2.562-.714.021,4.074L288.162,48h2.163l-.105-4.347Zm7.392-.336A3.9,3.9,0,0,0,293.5,41.3a3.281,3.281,0,0,0,3.4,3.591,4.339,4.339,0,0,0,2.478-.777l.147.168c-.672,1.995-2.415,3.36-5.607,4.494v.21l1.6.966h.126c3.906-1.617,6.153-4.515,6.153-8.043C301.791,39.012,300.426,37.269,297.738,37.269Zm-.231,6.09c-1.344,0-2.1-.84-2.1-2.352a2.041,2.041,0,0,1,2.184-2.289c1.617,0,2.268,1.092,2.268,3.234l-.021.5A3.826,3.826,0,0,1,297.507,43.359Zm10.4-7.812c-2.268,0-3.843,1.239-3.843,3.318a3.124,3.124,0,0,0,1.911,2.9v.1c-1.218.588-2.373,1.47-2.373,3.129,0,1.848,1.386,3.171,3.843,3.171,2.562,0,4.263-1.365,4.263-3.549,0-1.743-1.2-2.478-2.31-3.024V41.49a3.426,3.426,0,0,0,1.932-2.961C311.325,36.681,310.044,35.547,307.9,35.547Zm-.105,1.512a1.638,1.638,0,0,1,1.848,1.68c0,1.176-.84,1.743-1.785,2.184-1.071-.42-2.037-.924-2.037-2.121C305.823,37.731,306.558,37.059,307.8,37.059Zm-.315,5.439c1.239.5,2.436.966,2.436,2.268,0,1.092-.84,1.911-2.289,1.911-1.386,0-2.226-.777-2.226-1.932C305.4,43.443,306.39,42.9,307.482,42.5Zm10.962-5.166c-3.024,0-4.767,2.037-4.767,5.586,0,3.339,1.638,5.25,4.494,5.25,3.024,0,4.725-2.016,4.725-5.544C322.9,39.243,321.279,37.332,318.444,37.332Zm-.168,1.974c1.932,0,2.961,1.176,2.961,3.57,0,2.268-1.008,3.4-2.94,3.4-1.974,0-2.94-1.176-2.94-3.507S316.323,39.306,318.276,39.306Zm14.868-6.09c-2.415,0-3.822,1.3-3.8,3.7l.021,1.449h-1.428l-.105,1.239.084.126h1.449l.042,4.2L329.28,48h2.142l-.147-4.263.063-4.011h2.436l.126-1.218-.063-.147h-2.478l.021-1.806c.021-1.218.588-1.806,1.575-1.806a3.846,3.846,0,0,1,1.617.4l.147-.126.126-1.617A8.114,8.114,0,0,0,333.144,33.216Zm5.607,4.914c-2.9,0-4.515,1.869-4.515,5.187,0,3.108,1.533,4.872,4.242,4.872,2.9,0,4.515-1.869,4.515-5.187C342.993,39.894,341.46,38.13,338.751,38.13Zm-.126,1.491c1.575,0,2.373,1.218,2.373,3.864,0,2.2-.8,3.234-2.373,3.234-1.6,0-2.394-1.2-2.394-3.864C336.231,40.692,337.029,39.621,338.625,39.621ZM350.112,38.3a3.1,3.1,0,0,0-2.646,1.911h-.147l.021-1.932-2.037.189.126,5.481L345.282,48h2.142l-.147-4.242.021-1.386c.735-1.449,1.47-2.037,2.331-2.037a2.939,2.939,0,0,1,.777.1l.231-.063V38.34A4.091,4.091,0,0,0,350.112,38.3Zm5.418-.168a6.73,6.73,0,0,0-3.78,1.26l.273,1.491.168.1a4.783,4.783,0,0,1,3-1.344,1.382,1.382,0,0,1,1.512,1.575l-.021,1.134-3.318.735a2.237,2.237,0,0,0-2.037,2.331c0,1.68,1.155,2.73,3.108,2.751a6.149,6.149,0,0,0,2.184-1.575h.147a1.635,1.635,0,0,0,1.533,1.554,3.422,3.422,0,0,0,1.323-.462l.21-1.176-.189-.147a3.211,3.211,0,0,1-.63.084c-.441,0-.609-.168-.609-.714,0-.714.252-4.242.252-4.977C358.659,39.1,357.441,38.13,355.53,38.13Zm1.155,5.46-.063,1.617a2.965,2.965,0,0,1-2.1,1.281,1.21,1.21,0,0,1-1.281-1.344.775.775,0,0,1,.714-.9ZM373.737,48H375.9l-.1-4.242.063-2.73c.021-1.806-1.092-2.835-3.255-2.835a7.616,7.616,0,0,0-2.772,1.575H369.7c-.42-1.008-1.449-1.575-3.024-1.575a6.974,6.974,0,0,0-2.583,1.491h-.147l.021-1.407-2.037.189.105,5.481L361.914,48h2.121l-.105-4.242.021-2.562a3.767,3.767,0,0,1,2.52-1.26c1.008,0,1.512.651,1.491,1.7L367.815,48h2.142l-.084-4.242.042-2.6a3.7,3.7,0,0,1,2.478-1.218c1.008,0,1.512.651,1.491,1.7Zm11.8-9.87a6.73,6.73,0,0,0-3.78,1.26l.273,1.491.168.1a4.783,4.783,0,0,1,3-1.344,1.382,1.382,0,0,1,1.512,1.575l-.021,1.134-3.318.735a2.237,2.237,0,0,0-2.037,2.331c0,1.68,1.155,2.73,3.108,2.751a6.149,6.149,0,0,0,2.184-1.575h.147a1.635,1.635,0,0,0,1.533,1.554,3.422,3.422,0,0,0,1.323-.462l.21-1.176-.189-.147a3.211,3.211,0,0,1-.63.084c-.441,0-.609-.168-.609-.714,0-.714.252-4.242.252-4.977C388.668,39.1,387.45,38.13,385.539,38.13Zm1.155,5.46-.063,1.617a2.965,2.965,0,0,1-2.1,1.281,1.21,1.21,0,0,1-1.281-1.344.775.775,0,0,1,.714-.9Zm8.148-5.439c-2.226,0-3.528,1.26-3.528,2.919,0,3.045,4.347,2.646,4.347,4.431a1.342,1.342,0,0,1-1.491,1.239,4.437,4.437,0,0,1-2.688-1.134l-.231.147L391,47.538a7.6,7.6,0,0,0,2.94.651c2.415,0,3.633-1.491,3.633-3.045,0-2.961-4.347-2.583-4.347-4.347a1.226,1.226,0,0,1,1.365-1.155,3.917,3.917,0,0,1,2.142.735l.273-.063.294-1.68A6.649,6.649,0,0,0,394.842,38.151ZM406.9,38.13c-2.772,0-4.431,1.953-4.431,5.124,0,3.066,1.554,4.935,4.179,4.935a7.5,7.5,0,0,0,2.562-.483l.21-1.722-.189-.126a5.051,5.051,0,0,1-2.247.63c-1.6,0-2.5-1.26-2.5-3.4,0-2.037.882-3.192,2.373-3.192a4.163,4.163,0,0,1,2.058.651l.21-.084.357-1.785A6.3,6.3,0,0,0,406.9,38.13Zm7.644,0a6.73,6.73,0,0,0-3.78,1.26l.273,1.491.168.1a4.783,4.783,0,0,1,3-1.344,1.382,1.382,0,0,1,1.512,1.575l-.021,1.134-3.318.735a2.237,2.237,0,0,0-2.037,2.331c0,1.68,1.155,2.73,3.108,2.751a6.149,6.149,0,0,0,2.184-1.575h.147a1.635,1.635,0,0,0,1.533,1.554,3.422,3.422,0,0,0,1.323-.462l.21-1.176-.189-.147a3.211,3.211,0,0,1-.63.084c-.441,0-.609-.168-.609-.714,0-.714.252-4.242.252-4.977C417.669,39.1,416.451,38.13,414.54,38.13Zm1.155,5.46-.063,1.617a2.965,2.965,0,0,1-2.1,1.281,1.21,1.21,0,0,1-1.281-1.344.775.775,0,0,1,.714-.9ZM432.747,48h2.163l-.1-4.242.063-2.73c.021-1.806-1.092-2.835-3.255-2.835a7.616,7.616,0,0,0-2.772,1.575h-.126c-.42-1.008-1.449-1.575-3.024-1.575a6.974,6.974,0,0,0-2.583,1.491h-.147l.021-1.407-2.037.189.105,5.481L420.924,48h2.121l-.105-4.242.021-2.562a3.767,3.767,0,0,1,2.52-1.26c1.008,0,1.512.651,1.491,1.7L426.825,48h2.142l-.084-4.242.042-2.6a3.7,3.7,0,0,1,2.478-1.218c1.008,0,1.512.651,1.491,1.7Zm9.66-9.786a6.328,6.328,0,0,0-2.52,1.449h-.147l.021-1.386-2.058.189.126,5.481-.126,7.938h2.121l-.063-3.864a9.036,9.036,0,0,0,1.638.168c3,0,4.767-1.89,4.767-5.313C446.166,39.957,444.885,38.214,442.407,38.214Zm-.84,8.505a4.058,4.058,0,0,1-1.827-.462l-.042-2.5.021-2.562a3.335,3.335,0,0,1,2.331-1.26c1.344,0,2.079,1.176,2.1,3.213C444.192,45.606,443.142,46.719,441.567,46.719Zm13.86-3.465.357-.336a8.183,8.183,0,0,0,.084-1.05c0-2.31-1.281-3.717-3.528-3.717-2.814,0-4.641,1.911-4.641,5.061,0,3.066,1.68,4.977,4.578,4.977a6.816,6.816,0,0,0,2.94-.714l.252-1.7-.189-.126a5.765,5.765,0,0,1-2.835.882c-1.848,0-2.73-1.2-2.772-3.276Zm-1.512-1.407-4.137.1a2.461,2.461,0,0,1,2.436-2.331c1.05,0,1.743.609,1.743,1.974Zm10.878-7.5-.63-.672h-.21c-.525.567-.882,1.029-1.239,1.029-.525,0-2.331-.63-3.255-.756l-.231.084-1.365,1.617v.189l.651.672h.21c.525-.546.861-1.029,1.239-1.029.546,0,2.331.651,3.255.777l.21-.105,1.365-1.617Zm-3.234,3.78a6.73,6.73,0,0,0-3.78,1.26l.273,1.491.168.1a4.783,4.783,0,0,1,3-1.344,1.382,1.382,0,0,1,1.512,1.575l-.021,1.134-3.318.735a2.237,2.237,0,0,0-2.037,2.331c0,1.68,1.155,2.73,3.108,2.751a6.338,6.338,0,0,0,2.184-1.575h.147a1.635,1.635,0,0,0,1.533,1.554,3.422,3.422,0,0,0,1.323-.462l.21-1.176-.189-.147a3.2,3.2,0,0,1-.651.084c-.441,0-.588-.168-.588-.714,0-.714.252-4.242.252-4.977C464.688,39.1,463.47,38.13,461.559,38.13Zm1.155,5.46-.063,1.617a2.965,2.965,0,0,1-2.1,1.281,1.21,1.21,0,0,1-1.281-1.344.788.788,0,0,1,.714-.9Zm8.148-5.439c-2.226,0-3.528,1.26-3.528,2.919,0,3.045,4.347,2.646,4.347,4.431a1.342,1.342,0,0,1-1.491,1.239,4.437,4.437,0,0,1-2.688-1.134l-.231.147-.252,1.785a7.6,7.6,0,0,0,2.94.651c2.415,0,3.633-1.491,3.633-3.045,0-2.961-4.347-2.583-4.347-4.347a1.226,1.226,0,0,1,1.365-1.155,3.917,3.917,0,0,1,2.142.735l.273-.063.294-1.68A6.649,6.649,0,0,0,470.862,38.151Zm15.918,5.586.168-10.479-2.142.168.042,4.893a8.851,8.851,0,0,0-1.638-.168c-2.961,0-4.767,1.806-4.767,5.04,0,3.108,1.533,4.935,4.347,4.935a8.577,8.577,0,0,0,2.184-1.449h.168a1.663,1.663,0,0,0,1.554,1.47,3.4,3.4,0,0,0,1.344-.462l.189-1.176-.189-.147a3.036,3.036,0,0,1-.651.084c-.4,0-.525-.168-.546-.693ZM483,39.621a4.337,4.337,0,0,1,1.869.483l.063,3.822-.042,1.365a2.684,2.684,0,0,1-2.058,1.092c-1.47,0-2.352-1.2-2.373-3.444C480.417,40.692,481.425,39.621,483,39.621Zm14.133,3.633.357-.336a8.183,8.183,0,0,0,.084-1.05c0-2.31-1.281-3.717-3.528-3.717-2.814,0-4.641,1.911-4.641,5.061,0,3.066,1.68,4.977,4.578,4.977a6.816,6.816,0,0,0,2.94-.714l.252-1.7-.189-.126a5.765,5.765,0,0,1-2.835.882c-1.848,0-2.73-1.2-2.772-3.276Zm-1.512-1.407-4.137.1a2.461,2.461,0,0,1,2.436-2.331c1.05,0,1.743.609,1.743,1.974Zm8.652-2.163L504,38.256l-1.974.1L504.9,48h2.31l3.423-9.681h-1.89l-.357,1.47-2.142,6.153H506.1Zm14.658,3.57.357-.336a8.184,8.184,0,0,0,.084-1.05c0-2.31-1.281-3.717-3.528-3.717-2.814,0-4.641,1.911-4.641,5.061,0,3.066,1.68,4.977,4.578,4.977a6.815,6.815,0,0,0,2.94-.714l.252-1.7-.189-.126a5.765,5.765,0,0,1-2.835.882c-1.848,0-2.73-1.2-2.772-3.276Zm-1.512-1.407-4.137.1a2.461,2.461,0,0,1,2.436-2.331c1.05,0,1.743.609,1.743,1.974ZM527.478,48h2.163l-.1-4.242.063-2.73c.021-1.806-1.092-2.835-3.255-2.835a7.141,7.141,0,0,0-2.583,1.491h-.147l.021-1.407-2.037.189.1,5.481L521.577,48h2.142l-.126-4.242.021-2.562a3.767,3.767,0,0,1,2.52-1.26c1.008,0,1.512.651,1.491,1.7Zm12.6-4.263.168-10.479-2.142.168.042,4.893a8.851,8.851,0,0,0-1.638-.168c-2.961,0-4.767,1.806-4.767,5.04,0,3.108,1.533,4.935,4.347,4.935a8.576,8.576,0,0,0,2.184-1.449h.168a1.663,1.663,0,0,0,1.554,1.47,3.4,3.4,0,0,0,1.344-.462l.189-1.176-.189-.147a3.035,3.035,0,0,1-.651.084c-.4,0-.525-.168-.546-.693Zm-3.78-4.116a4.337,4.337,0,0,1,1.869.483l.063,3.822-.042,1.365a2.684,2.684,0,0,1-2.058,1.092c-1.47,0-2.352-1.2-2.373-3.444C533.715,40.692,534.723,39.621,536.3,39.621Zm10.6-1.491a6.729,6.729,0,0,0-3.78,1.26l.273,1.491.168.1a4.783,4.783,0,0,1,3-1.344,1.382,1.382,0,0,1,1.512,1.575l-.021,1.134-3.318.735a2.237,2.237,0,0,0-2.037,2.331c0,1.68,1.155,2.73,3.108,2.751a6.149,6.149,0,0,0,2.184-1.575h.147a1.635,1.635,0,0,0,1.533,1.554A3.423,3.423,0,0,0,551,47.685l.21-1.176-.189-.147a3.212,3.212,0,0,1-.63.084c-.441,0-.609-.168-.609-.714,0-.714.252-4.242.252-4.977C550.032,39.1,548.814,38.13,546.9,38.13Zm1.155,5.46-.063,1.617a2.965,2.965,0,0,1-2.1,1.281,1.21,1.21,0,0,1-1.281-1.344.775.775,0,0,1,.714-.9Zm8.148-5.439c-2.226,0-3.528,1.26-3.528,2.919,0,3.045,4.347,2.646,4.347,4.431a1.342,1.342,0,0,1-1.491,1.239,4.437,4.437,0,0,1-2.688-1.134l-.231.147-.252,1.785a7.6,7.6,0,0,0,2.94.651c2.415,0,3.633-1.491,3.633-3.045,0-2.961-4.347-2.583-4.347-4.347a1.226,1.226,0,0,1,1.365-1.155,3.917,3.917,0,0,1,2.142.735l.273-.063.294-1.68A6.649,6.649,0,0,0,556.206,38.151Zm5.586,7.581a1.136,1.136,0,0,0-1.218,1.218,1.066,1.066,0,0,0,1.155,1.176,1.131,1.131,0,0,0,1.176-1.239A1.039,1.039,0,0,0,561.792,45.732Z" transform="translate(-6373.135 -7924.438)"/>
    <path id="Caminho_773656" data-name="Caminho 773656" d="M11.676,19,7.182,5.539H5.229L.294,19h1.68l.336-1.428.819-2.226,2.73-.063,3.024.063.756,2.31L9.954,19ZM8.421,13.918l-2.415.042-2.352-.042L6.09,7.282h.147ZM19.761,19h1.68l-.084-4.179.042-2.73c.021-1.806-1.071-2.835-3.213-2.835a6.611,6.611,0,0,0-2.667,1.491h-.126l.021-1.407-1.6.147.084,5.439L13.8,19h1.659l-.084-4.221.021-2.646a4.164,4.164,0,0,1,2.835-1.491c1.113,0,1.659.714,1.638,1.827Zm8.463-9.786c-2.793,0-4.389,1.869-4.389,5.1,0,3.087,1.512,4.851,4.137,4.851,2.793,0,4.368-1.869,4.368-5.1C32.34,10.978,30.828,9.214,28.224,9.214Zm-.1,1.176c1.722,0,2.667,1.386,2.667,4.053,0,2.352-.945,3.528-2.709,3.528-1.722,0-2.667-1.323-2.667-4.032C25.41,11.629,26.355,10.39,28.119,10.39Zm9.45-1.155c-2.079,0-3.318,1.176-3.318,2.772,0,2.982,4.389,2.583,4.389,4.515A1.578,1.578,0,0,1,36.9,17.971a4.132,4.132,0,0,1-2.562-1.05l-.189.126-.21,1.428a6.169,6.169,0,0,0,2.793.693c2.226,0,3.423-1.407,3.423-2.94,0-2.9-4.368-2.5-4.368-4.431a1.455,1.455,0,0,1,1.6-1.365,3.643,3.643,0,0,1,2.016.693l.252-.063L39.879,9.7A6.123,6.123,0,0,0,37.569,9.235Zm12.537,2.436a4.549,4.549,0,0,0-2.73.924l-.126-.147c.651-2.247,2.478-3.822,5.838-5V7.282l-1.3-.756h-.1C47.733,8.1,45.465,11,45.465,14.569c0,2.9,1.281,4.6,3.906,4.6a3.777,3.777,0,0,0,4.095-3.948A3.217,3.217,0,0,0,50.106,11.671ZM49.5,18.013c-1.743,0-2.52-1.176-2.52-3.444L47,14a3.984,3.984,0,0,1,2.646-1.092c1.491,0,2.331.9,2.331,2.541A2.29,2.29,0,0,1,49.5,18.013Zm10.542-9.6c-3,0-4.683,1.974-4.683,5.5,0,3.339,1.617,5.229,4.473,5.229,2.982,0,4.662-1.974,4.662-5.439C64.491,10.306,62.874,8.416,60.039,8.416Zm-.147,1.533c2.142,0,3.276,1.344,3.276,3.948,0,2.478-1.113,3.78-3.255,3.78s-3.234-1.323-3.234-3.885C56.679,11.251,57.771,9.949,59.892,9.949Z" transform="translate(-6323.954 -7859.438)"/>
    <path id="Caminho_773657" data-name="Caminho 773657" d="M11.676,19,7.182,5.539H5.229L.294,19h1.68l.336-1.428.819-2.226,2.73-.063,3.024.063.756,2.31L9.954,19ZM8.421,13.918l-2.415.042-2.352-.042L6.09,7.282h.147ZM19.761,19h1.68l-.084-4.179.042-2.73c.021-1.806-1.071-2.835-3.213-2.835a6.611,6.611,0,0,0-2.667,1.491h-.126l.021-1.407-1.6.147.084,5.439L13.8,19h1.659l-.084-4.221.021-2.646a4.164,4.164,0,0,1,2.835-1.491c1.113,0,1.659.714,1.638,1.827Zm8.463-9.786c-2.793,0-4.389,1.869-4.389,5.1,0,3.087,1.512,4.851,4.137,4.851,2.793,0,4.368-1.869,4.368-5.1C32.34,10.978,30.828,9.214,28.224,9.214Zm-.1,1.176c1.722,0,2.667,1.386,2.667,4.053,0,2.352-.945,3.528-2.709,3.528-1.722,0-2.667-1.323-2.667-4.032C25.41,11.629,26.355,10.39,28.119,10.39Zm9.45-1.155c-2.079,0-3.318,1.176-3.318,2.772,0,2.982,4.389,2.583,4.389,4.515A1.578,1.578,0,0,1,36.9,17.971a4.132,4.132,0,0,1-2.562-1.05l-.189.126-.21,1.428a6.169,6.169,0,0,0,2.793.693c2.226,0,3.423-1.407,3.423-2.94,0-2.9-4.368-2.5-4.368-4.431a1.455,1.455,0,0,1,1.6-1.365,3.643,3.643,0,0,1,2.016.693l.252-.063L39.879,9.7A6.123,6.123,0,0,0,37.569,9.235Zm9.387-.693-1.89-.063-.1,1.428.1.189,1.6-.168h4.431L46.2,20.491l.1.273,1.344.378.945-2.5,4.074-8.9L52.647,8.5l-.882.042Zm11.97-.126c-3,0-4.683,1.974-4.683,5.5,0,3.339,1.617,5.229,4.473,5.229,2.982,0,4.662-1.974,4.662-5.439C63.378,10.306,61.761,8.416,58.926,8.416Zm-.147,1.533c2.142,0,3.276,1.344,3.276,3.948,0,2.478-1.113,3.78-3.255,3.78s-3.234-1.323-3.234-3.885C55.566,11.251,56.658,9.949,58.779,9.949Z" transform="translate(-6203.954 -7859.438)"/>
    <path id="Caminho_773658" data-name="Caminho 773658" d="M11.676,19,7.182,5.539H5.229L.294,19h1.68l.336-1.428.819-2.226,2.73-.063,3.024.063.756,2.31L9.954,19ZM8.421,13.918l-2.415.042-2.352-.042L6.09,7.282h.147ZM19.761,19h1.68l-.084-4.179.042-2.73c.021-1.806-1.071-2.835-3.213-2.835a6.611,6.611,0,0,0-2.667,1.491h-.126l.021-1.407-1.6.147.084,5.439L13.8,19h1.659l-.084-4.221.021-2.646a4.164,4.164,0,0,1,2.835-1.491c1.113,0,1.659.714,1.638,1.827Zm8.463-9.786c-2.793,0-4.389,1.869-4.389,5.1,0,3.087,1.512,4.851,4.137,4.851,2.793,0,4.368-1.869,4.368-5.1C32.34,10.978,30.828,9.214,28.224,9.214Zm-.1,1.176c1.722,0,2.667,1.386,2.667,4.053,0,2.352-.945,3.528-2.709,3.528-1.722,0-2.667-1.323-2.667-4.032C25.41,11.629,26.355,10.39,28.119,10.39Zm9.45-1.155c-2.079,0-3.318,1.176-3.318,2.772,0,2.982,4.389,2.583,4.389,4.515A1.578,1.578,0,0,1,36.9,17.971a4.132,4.132,0,0,1-2.562-1.05l-.189.126-.21,1.428a6.169,6.169,0,0,0,2.793.693c2.226,0,3.423-1.407,3.423-2.94,0-2.9-4.368-2.5-4.368-4.431a1.455,1.455,0,0,1,1.6-1.365,3.643,3.643,0,0,1,2.016.693l.252-.063L39.879,9.7A6.123,6.123,0,0,0,37.569,9.235ZM49.644,6.568c-2.142,0-3.654,1.2-3.654,3.213a3.151,3.151,0,0,0,1.974,2.9v.105c-1.2.588-2.457,1.47-2.457,3.213,0,1.848,1.386,3.15,3.717,3.15,2.457,0,4.074-1.344,4.074-3.465,0-1.806-1.281-2.52-2.415-3.066v-.1a3.4,3.4,0,0,0,2.037-3C52.92,7.681,51.681,6.568,49.644,6.568ZM49.56,7.786a1.787,1.787,0,0,1,2.016,1.869c0,1.344-.966,1.953-2.016,2.394-1.134-.462-2.163-.987-2.163-2.31A1.925,1.925,0,0,1,49.56,7.786Zm-.294,5.523c1.323.546,2.625,1.029,2.625,2.478a2.218,2.218,0,0,1-2.52,2.163,2.148,2.148,0,0,1-2.436-2.121C46.935,14.338,48.09,13.729,49.266,13.309ZM60.123,8.416c-3,0-4.683,1.974-4.683,5.5,0,3.339,1.617,5.229,4.473,5.229,2.982,0,4.662-1.974,4.662-5.439C64.575,10.306,62.958,8.416,60.123,8.416Zm-.147,1.533c2.142,0,3.276,1.344,3.276,3.948,0,2.478-1.113,3.78-3.255,3.78s-3.234-1.323-3.234-3.885C56.763,11.251,57.855,9.949,59.976,9.949Z" transform="translate(-6083.954 -7859.438)"/>
    <path id="Caminho_770571" data-name="Caminho 770571" d="M16472.316,9881.17H16507" transform="translate(-22841.953 -17727.309)" fill="none" stroke="#3b4aff" stroke-linecap="round" stroke-width="4"/>
    <path id="Caminho_770572" data-name="Caminho 770572" d="M16472.316,9881.17H16507" transform="translate(-22718.266 -17727.309)" fill="none" stroke="#0024a9" stroke-linecap="round" stroke-width="4"/>
    <path id="Caminho_770573" data-name="Caminho 770573" d="M16472.316,9881.17H16507" transform="translate(-22601.953 -17727.309)" fill="none" stroke="#0041d9" stroke-linecap="round" stroke-width="4"/>
    <path id="Caminho_773670" data-name="Caminho 773670" d="M4.809-4.452l.126-9.03H.252L.126-11.949l.189.168L2.772-11.8l.084,7.56V-2.5C2.856-.987,2.121-.189.294.756V.987l.756,1.2c2.814-1.239,3.8-2.5,3.8-4.683Zm6.51-5.418a6.729,6.729,0,0,0-3.78,1.26l.273,1.491.168.105a4.783,4.783,0,0,1,3-1.344A1.382,1.382,0,0,1,12.5-6.783l-.021,1.134-3.318.735A2.237,2.237,0,0,0,7.119-2.583C7.119-.9,8.274.147,10.227.168a6.149,6.149,0,0,0,2.184-1.575h.147A1.635,1.635,0,0,0,14.091.147a3.422,3.422,0,0,0,1.323-.462l.21-1.176-.189-.147a3.212,3.212,0,0,1-.63.084c-.441,0-.609-.168-.609-.714,0-.714.252-4.242.252-4.977C14.448-8.9,13.23-9.87,11.319-9.87Zm1.155,5.46-.063,1.617a2.965,2.965,0,0,1-2.1,1.281A1.21,1.21,0,0,1,9.03-2.856a.775.775,0,0,1,.714-.9ZM23.6,0h2.163l-.1-4.242.063-2.73c.021-1.806-1.092-2.835-3.255-2.835a7.141,7.141,0,0,0-2.583,1.491H19.74l.021-1.407-2.037.189.105,5.481L17.7,0h2.142l-.126-4.242L19.74-6.8a3.767,3.767,0,0,1,2.52-1.26c1.008,0,1.512.651,1.491,1.7Z" transform="translate(-6362.795 -7427)" fill="#2f2e33"/>
    <path id="Caminho_773669" data-name="Caminho 773669" d="M4.011-11.7l2.163-.021,3.15.126.168-1.7-.147-.189H1.806l.147,9.429L1.806,0H4.011L3.906-4.242l.021-1.449L5.88-5.712l2.394.063.168-1.638L8.3-7.476l-2.226.063L3.948-7.455ZM17.136-4.746l.357-.336a8.182,8.182,0,0,0,.084-1.05c0-2.31-1.281-3.717-3.528-3.717-2.814,0-4.641,1.911-4.641,5.061,0,3.066,1.68,4.977,4.578,4.977a6.816,6.816,0,0,0,2.94-.714l.252-1.7-.189-.126a5.765,5.765,0,0,1-2.835.882c-1.848,0-2.73-1.2-2.772-3.276ZM15.624-6.153l-4.137.105a2.461,2.461,0,0,1,2.436-2.331c1.05,0,1.743.609,1.743,1.974Zm5.229-2.163L20.58-9.744l-1.974.1L21.483,0h2.31l3.423-9.681h-1.89l-.357,1.47L22.827-2.058H22.68Z" transform="translate(-6291.475 -7427)" fill="#2f2e33"/>
    <path id="Caminho_773668" data-name="Caminho 773668" d="M15.477,0,14.2-13.482H11.739l-.63,1.953L8.379-4.305H8.211L5.628-11.466,5-13.482H2.52L1.113,0H2.94l.336-4.284.63-5.9H4.1L7.308-1.491H9.03L12.5-10.185h.147l.63,6.09L13.545,0ZM21.4-9.87a6.729,6.729,0,0,0-3.78,1.26l.273,1.491.168.105a4.783,4.783,0,0,1,3-1.344,1.382,1.382,0,0,1,1.512,1.575l-.021,1.134-3.318.735A2.237,2.237,0,0,0,17.2-2.583C17.2-.9,18.354.147,20.307.168a6.149,6.149,0,0,0,2.184-1.575h.147A1.635,1.635,0,0,0,24.171.147a3.422,3.422,0,0,0,1.323-.462l.21-1.176-.189-.147a3.212,3.212,0,0,1-.63.084c-.441,0-.609-.168-.609-.714,0-.714.252-4.242.252-4.977C24.528-8.9,23.31-9.87,21.4-9.87Zm1.155,5.46-.063,1.617a2.965,2.965,0,0,1-2.1,1.281A1.21,1.21,0,0,1,19.11-2.856a.775.775,0,0,1,.714-.9ZM32.613-9.7a3.1,3.1,0,0,0-2.646,1.911H29.82l.021-1.932L27.8-9.534l.126,5.481L27.783,0h2.142l-.147-4.242L29.8-5.628c.735-1.449,1.47-2.037,2.331-2.037a2.939,2.939,0,0,1,.777.1l.231-.063V-9.66A4.091,4.091,0,0,0,32.613-9.7Z" transform="translate(-6219.475 -7427)" fill="#2f2e33"/>
    <path id="Caminho_773667" data-name="Caminho 773667" d="M11.928,0,7.581-13.482H5.04L.231,0H2.394L2.73-1.617l.63-1.764,2.583-.063L8.8-3.381l.588,1.869L9.7,0ZM8.253-5.145,6.09-5.1,3.969-5.145l2.2-6.216h.147ZM18.291-9.786a6.874,6.874,0,0,0-2.52,1.449h-.126l.084-6.405-2.142.168.126,10.542L13.566.042l.336.21,1.323-.546a5.21,5.21,0,0,0,2.142.483c2.9,0,4.683-1.89,4.683-5.334C22.05-8.043,20.769-9.786,18.291-9.786Zm-.84,8.505a3.543,3.543,0,0,1-1.806-.567l-.063-2.436.042-2.52a3.261,3.261,0,0,1,2.31-1.26c1.365,0,2.079,1.176,2.121,3.213C20.076-2.394,19.026-1.281,17.451-1.281ZM29.148-9.7A3.1,3.1,0,0,0,26.5-7.791h-.147l.021-1.932-2.037.189.126,5.481L24.318,0H26.46l-.147-4.242.021-1.386c.735-1.449,1.47-2.037,2.331-2.037a2.939,2.939,0,0,1,.777.1l.231-.063V-9.66A4.091,4.091,0,0,0,29.148-9.7Z" transform="translate(-6138.475 -7427)" fill="#2f2e33"/>
    <path id="Caminho_773666" data-name="Caminho 773666" d="M15.477,0,14.2-13.482H11.739l-.63,1.953L8.379-4.305H8.211L5.628-11.466,5-13.482H2.52L1.113,0H2.94l.336-4.284.63-5.9H4.1L7.308-1.491H9.03L12.5-10.185h.147l.63,6.09L13.545,0ZM21.4-9.87a6.729,6.729,0,0,0-3.78,1.26l.273,1.491.168.105a4.783,4.783,0,0,1,3-1.344,1.382,1.382,0,0,1,1.512,1.575l-.021,1.134-3.318.735A2.237,2.237,0,0,0,17.2-2.583C17.2-.9,18.354.147,20.307.168a6.149,6.149,0,0,0,2.184-1.575h.147A1.635,1.635,0,0,0,24.171.147a3.422,3.422,0,0,0,1.323-.462l.21-1.176-.189-.147a3.212,3.212,0,0,1-.63.084c-.441,0-.609-.168-.609-.714,0-.714.252-4.242.252-4.977C24.528-8.9,23.31-9.87,21.4-9.87Zm1.155,5.46-.063,1.617a2.965,2.965,0,0,1-2.1,1.281A1.21,1.21,0,0,1,19.11-2.856a.775.775,0,0,1,.714-.9ZM28.938-14.2a1.136,1.136,0,0,0-1.218,1.218A1.066,1.066,0,0,0,28.875-11.8a1.131,1.131,0,0,0,1.176-1.239A1.039,1.039,0,0,0,28.938-14.2Zm.84,9.954.168-5.481L27.8-9.534l.1,5.481L27.783,0h2.142Z" transform="translate(-6062.475 -7427)" fill="#2f2e33"/>
    <path id="Caminho_773665" data-name="Caminho 773665" d="M4.809-4.452l.126-9.03H.252L.126-11.949l.189.168L2.772-11.8l.084,7.56V-2.5C2.856-.987,2.121-.189.294.756V.987l.756,1.2c2.814-1.239,3.8-2.5,3.8-4.683Zm10.9-5.271-2.037.189v6.825a3.443,3.443,0,0,1-2.289,1.071c-.987,0-1.47-.63-1.449-1.659l.1-6.426-2.121.189L8-5.334,7.959-2.709C7.938-.9,9.072.126,11.193.126a6.313,6.313,0,0,0,2.52-1.47h.168A1.682,1.682,0,0,0,15.435.147a3.3,3.3,0,0,0,1.323-.462l.21-1.176-.189-.147a3.036,3.036,0,0,1-.651.084c-.42,0-.567-.168-.567-.693ZM24.738,0H26.9l-.1-4.242.063-2.73c.021-1.806-1.092-2.835-3.255-2.835a7.141,7.141,0,0,0-2.583,1.491h-.147L20.9-9.723l-2.037.189.1,5.481L18.837,0h2.142l-.126-4.242L20.874-6.8a3.767,3.767,0,0,1,2.52-1.26c1.008,0,1.512.651,1.491,1.7Z" transform="translate(-5985.475 -7427)" fill="#2f2e33"/>
    <path id="Caminho_773664" data-name="Caminho 773664" d="M4.809-4.452l.126-9.03H.252L.126-11.949l.189.168L2.772-11.8l.084,7.56V-2.5C2.856-.987,2.121-.189.294.756V.987l.756,1.2c2.814-1.239,3.8-2.5,3.8-4.683Zm10.9-5.271-2.037.189v6.825a3.443,3.443,0,0,1-2.289,1.071c-.987,0-1.47-.63-1.449-1.659l.1-6.426-2.121.189L8-5.334,7.959-2.709C7.938-.9,9.072.126,11.193.126a6.313,6.313,0,0,0,2.52-1.47h.168A1.682,1.682,0,0,0,15.435.147a3.3,3.3,0,0,0,1.323-.462l.21-1.176-.189-.147a3.036,3.036,0,0,1-.651.084c-.42,0-.567-.168-.567-.693Zm5.229,5.46.168-10.479-2.142.168.126,10.5L18.942,0h2.142Z" transform="translate(-5911.475 -7427)" fill="#2f2e33"/>
    <path id="Caminho_773663" data-name="Caminho 773663" d="M11.928,0,7.581-13.482H5.04L.231,0H2.394L2.73-1.617l.63-1.764,2.583-.063L8.8-3.381l.588,1.869L9.7,0ZM8.253-5.145,6.09-5.1,3.969-5.145l2.2-6.216h.147Zm14.469-4.914-.189-.126a22.291,22.291,0,0,1-3.108.735,4.881,4.881,0,0,0-1.932-.357c-2.373,0-3.927,1.26-3.927,3.423A2.892,2.892,0,0,0,15.015-3.7v.105A4.628,4.628,0,0,0,13.671-2.31c0,.987.651,1.47,1.533,1.764v.1A5.389,5.389,0,0,0,13.4,1.26c0,1.617,1.281,2.814,3.717,2.814,2.646,0,4.641-1.428,4.641-3.3,0-3.213-6.174-1.89-6.174-3.381,0-.231.105-.42.441-.693a6.163,6.163,0,0,0,1.281.126c2.457,0,3.969-1.323,3.969-3.381a3.132,3.132,0,0,0-.4-1.617l.042-.084a11.94,11.94,0,0,0,1.806-.4ZM17.388-4.536a1.755,1.755,0,0,1-1.932-1.953,1.775,1.775,0,0,1,2.016-1.932,1.688,1.688,0,0,1,1.911,1.869A1.82,1.82,0,0,1,17.388-4.536Zm2.52,5.712c0,.9-1.071,1.512-2.541,1.512-1.428,0-2.142-.567-2.142-1.3,0-.588.483-1.092,1.344-1.638C18.207,0,19.908.063,19.908,1.176ZM27.888-9.87c-2.9,0-4.515,1.869-4.515,5.187,0,3.108,1.533,4.872,4.242,4.872C30.513.189,32.13-1.68,32.13-5,32.13-8.106,30.6-9.87,27.888-9.87Zm-.126,1.491c1.575,0,2.373,1.218,2.373,3.864,0,2.2-.8,3.234-2.373,3.234-1.6,0-2.394-1.2-2.394-3.864C25.368-7.308,26.166-8.379,27.762-8.379Z" transform="translate(-5846.475 -7427)" fill="#2f2e33"/>
    <path id="Caminho_773662" data-name="Caminho 773662" d="M5.754-13.629c-2.751,0-4.62,1.722-4.62,3.927,0,3.948,6.048,3.591,6.048,6.216A2.136,2.136,0,0,1,4.788-1.533,5.285,5.285,0,0,1,1.344-3l-.273.126L.8-.735a8.833,8.833,0,0,0,3.78.9c2.856,0,4.746-1.806,4.746-3.99,0-3.927-6.069-3.7-6.069-6.174A2.039,2.039,0,0,1,5.5-11.886a4.868,4.868,0,0,1,2.751,1.029l.336-.126.357-1.974A8.289,8.289,0,0,0,5.754-13.629Zm12.5,8.883.357-.336a8.182,8.182,0,0,0,.084-1.05c0-2.31-1.281-3.717-3.528-3.717-2.814,0-4.641,1.911-4.641,5.061C10.521-1.722,12.2.189,15.1.189a6.816,6.816,0,0,0,2.94-.714l.252-1.7L18.1-2.352a5.765,5.765,0,0,1-2.835.882c-1.848,0-2.73-1.2-2.772-3.276ZM16.737-6.153,12.6-6.048a2.461,2.461,0,0,1,2.436-2.331c1.05,0,1.743.609,1.743,1.974Zm7.581,4.536c-.861,0-1.239-.336-1.218-1.386l.1-5.271h2.709l.105-1.218-.084-.147H23.247l.042-2.079-.189-.168-1.89.714v1.533H19.929l-.1,1.239.084.126h1.323l.021,4.095-.084,1.512A2.506,2.506,0,0,0,23.646.126,6.062,6.062,0,0,0,25.788-.5L26-1.848,25.788-2A3.311,3.311,0,0,1,24.318-1.617Z" transform="translate(-5765.475 -7427)" fill="#2f2e33"/>
    <path id="Caminho_773661" data-name="Caminho 773661" d="M6.909-13.65c-3.969,0-6.2,2.52-6.2,7.035,0,4.326,2.079,6.8,5.8,6.8,3.948,0,6.195-2.6,6.195-7.2C12.7-11.256,10.626-13.65,6.909-13.65ZM6.72-11.865c2.541,0,3.738,1.6,3.738,5.25,0,3.486-1.239,5.061-3.78,5.061S2.94-3.192,2.94-6.888C2.94-10.311,4.158-11.865,6.72-11.865ZM22.6-9.723l-2.037.189v6.825A3.443,3.443,0,0,1,18.27-1.638c-.987,0-1.47-.63-1.449-1.659l.105-6.426L14.8-9.534l.084,4.2-.042,2.625C14.826-.9,15.96.126,18.081.126a6.313,6.313,0,0,0,2.52-1.47h.168A1.682,1.682,0,0,0,22.323.147a3.3,3.3,0,0,0,1.323-.462l.21-1.176-.189-.147a3.036,3.036,0,0,1-.651.084c-.42,0-.567-.168-.567-.693Zm6.552,8.106c-.861,0-1.239-.336-1.218-1.386l.1-5.271h2.709l.1-1.218-.084-.147H28.077l.042-2.079-.189-.168-1.89.714v1.533H24.759l-.1,1.239.084.126h1.323l.021,4.095L26-2.667A2.506,2.506,0,0,0,28.476.126,6.063,6.063,0,0,0,30.618-.5l.21-1.344L30.618-2A3.311,3.311,0,0,1,29.148-1.617Z" transform="translate(-5695.475 -7427)" fill="#2f2e33"/>
    <path id="Caminho_773660" data-name="Caminho 773660" d="M12.5-4.032l.147-9.492-2.037.147.063,10H10.5l-6.342-10.1H1.848l.1,9.492L1.806,0H3.843L3.738-4.515,3.759-10.1h.168L10.248,0h2.331Zm7.14-5.838c-2.9,0-4.515,1.869-4.515,5.187,0,3.108,1.533,4.872,4.242,4.872,2.9,0,4.515-1.869,4.515-5.187C23.877-8.106,22.344-9.87,19.635-9.87Zm-.126,1.491c1.575,0,2.373,1.218,2.373,3.864,0,2.2-.8,3.234-2.373,3.234-1.6,0-2.394-1.2-2.394-3.864C17.115-7.308,17.913-8.379,19.509-8.379Zm7.476.063-.273-1.428-1.974.1L27.615,0h2.31l3.423-9.681h-1.89L31.1-8.211,28.959-2.058h-.147Z" transform="translate(-5617.475 -7427)" fill="#2f2e33"/>
    <path id="Caminho_773659" data-name="Caminho 773659" d="M1.827-13.482H1.806l.147,9.429L1.806,0h.021C3.066.063,5.439.126,6.342.126c4.242,0,6.594-2.6,6.594-7.35,0-4.095-2.142-6.342-6.006-6.342ZM6.72-1.6c-.441,0-1.806-.063-2.751-.147l-.063-2.5.105-7.476c.8-.042,2.31-.084,2.751-.084,2.625,0,3.927,1.575,3.927,5.061C10.689-3.234,9.24-1.6,6.72-1.6Zm15.372-3.15.357-.336a8.182,8.182,0,0,0,.084-1.05c0-2.31-1.281-3.717-3.528-3.717-2.814,0-4.641,1.911-4.641,5.061,0,3.066,1.68,4.977,4.578,4.977a6.816,6.816,0,0,0,2.94-.714l.252-1.7-.189-.126a5.765,5.765,0,0,1-2.835.882c-1.848,0-2.73-1.2-2.772-3.276ZM20.58-6.153l-4.137.105a2.461,2.461,0,0,1,2.436-2.331c1.05,0,1.743.609,1.743,1.974Zm5.481-3.528L24.15-9.723,24-8.253l.126.168,1.617-.168h3.276L23.877-1.218,23.9.042,25.032,0h4.032l2.163.042.168-1.47L31.269-1.6l-1.68.168H26.145l5.124-6.993L31.227-9.7l-.924.021Z" transform="translate(-5537.475 -7427)" fill="#2f2e33"/>
    <line id="Linha_1907" data-name="Linha 1907" x2="876" transform="translate(-6372.135 -7456.178)" fill="none" stroke="#40bbff" stroke-miterlimit="10" stroke-width="2"/>
    <path id="Caminho_770565" data-name="Caminho 770565" d="M16466.678,10124.591l125.979-53.557,25.461-11.414s21.951-6.146,51.8,7.023c2.635,2.635,31.566,13.23,69.359-7.023,3.514-.878,37.754-14.047,68.484,29.852,3.109,3.688,50.924,43.021,70.238,52.678,0-.878,29.848,18.438,49.166-12.291.531-.844,39.867-56.229,43.9-63.215.947-.947,11.414-22.827,48.287-7.023,2.963,1.271,37.754,21.071,73.75,21.949,4.986.122,39.508,7.9,82.529,22.828,2.121.736,21.65,5.707,51.8-18.437-4.258,3.056,37.752-26.34,37.752-26.34" transform="translate(-22815.135 -17656.408)" fill="none" stroke="#3b4aff" stroke-linecap="round" stroke-width="4"/>
    <path id="Caminho_770566" data-name="Caminho 770566" d="M16466.678,10158.967l220.191-191.806s14.859-19.584,74.965,7.431c0-1.352,70.918,14.182,108.061-39.172-1.352,2.026,31.068-63.486,87.8-14.183,3.377.675,18.908,18.91,50.652,14.183,1.352,1.351,47.953-3.378,70.238,43.223,1.35-.675,25.662,45.927,49.977,40.523" transform="translate(-22815.135 -17675.115)" fill="none" stroke="#0041d9" stroke-linecap="round" stroke-width="4" stroke-dasharray="0 8"/>
    <path id="Caminho_770569" data-name="Caminho 770569" d="M17183.031,9877.179s-95.176,128.8-111.375,138.946c-.578,0-11.693,9.146-21.687,7.89" transform="translate(-22734.762 -17678.281)" fill="none" stroke="#0041d9" stroke-linecap="round" stroke-width="4"/>
    <path id="Caminho_770567" data-name="Caminho 770567" d="M16486.207,10080.706s63.541-22.379,67.936-27.974c.4.4,18.408-12.663,26.445-23.54,0,.235,42.094-59.115,77.328-24.119-.238,0,38.641,33.7,79.836,2.958.309-.307,141.4-61.791,162.611-67.017,0-.615,30.619-16.881,49.9-48.35-.18,0,27.83-39.109,54.389,9.64-.18-.363,30.172,57.121,57.129,69.654.236-.236,24.826,12.532,52.494,18.917" transform="translate(-22812.723 -17678.201)" fill="none" stroke="#0024a9" stroke-linecap="round" stroke-width="4" stroke-dasharray="0 8"/>
    <path id="Caminho_770568" data-name="Caminho 770568" d="M17051.543,9987.3s41.67,34.122,64.254,30.74c.316.308,22.9-.922,56.934-55.947.32.615,22.9-33.506,22.9-33.506" transform="translate(-22747.738 -17671.934)" fill="none" stroke="#0024a9" stroke-linecap="round" stroke-width="4"/>
    <path id="Caminho_772136" data-name="Caminho 772136" d="M7.44-15.345l-.465-.341L.31-13.733v2.511l.279.186L4.371-12.09,4.4-6.076,4.216,0H7.409L7.254-6.417Zm11.811-.4c-4.464,0-7.037,3.007-7.037,8.246,0,4.929,2.418,7.75,6.634,7.75,4.464,0,6.975-2.976,6.975-8.184C25.823-12.927,23.436-15.748,19.251-15.748ZM19-12.834c2.852,0,4.371,1.736,4.371,5.27,0,3.348-1.488,5.022-4.34,5.022-2.914,0-4.34-1.736-4.34-5.177S16.12-12.834,19-12.834Zm16.523-2.914c-4.464,0-7.037,3.007-7.037,8.246,0,4.929,2.418,7.75,6.634,7.75,4.464,0,6.975-2.976,6.975-8.184C42.1-12.927,39.711-15.748,35.526-15.748Zm-.248,2.914c2.852,0,4.371,1.736,4.371,5.27,0,3.348-1.488,5.022-4.34,5.022-2.914,0-4.34-1.736-4.34-5.177S32.395-12.834,35.278-12.834ZM51.8-15.748c-4.464,0-7.037,3.007-7.037,8.246,0,4.929,2.418,7.75,6.634,7.75,4.464,0,6.975-2.976,6.975-8.184C58.373-12.927,55.986-15.748,51.8-15.748Zm-.248,2.914c2.852,0,4.371,1.736,4.371,5.27,0,3.348-1.488,5.022-4.34,5.022-2.914,0-4.34-1.736-4.34-5.177S48.67-12.834,51.553-12.834Z" transform="translate(-5538.135 -7801.938)" fill="#0041d9"/>
    <path id="Caminho_772137" data-name="Caminho 772137" d="M7.471-15.841c-4.03,0-6.262,2.635-6.262,5.952,0,3.069,1.829,5.3,5.022,5.3A6.405,6.405,0,0,0,9.889-5.735l.217.248C9.114-2.542,6.541-.527,1.829,1.147v.31L4.185,2.883h.186C10.137.5,13.454-3.782,13.454-8.99,13.454-13.268,11.439-15.841,7.471-15.841ZM7.13-6.851c-1.984,0-3.1-1.24-3.1-3.472,0-2.2,1.24-3.379,3.224-3.379,2.387,0,3.348,1.612,3.348,4.774l-.031.744A5.647,5.647,0,0,1,7.13-6.851ZM22.2-15.841c-4.03,0-6.262,2.635-6.262,5.952,0,3.069,1.829,5.3,5.022,5.3a6.405,6.405,0,0,0,3.658-1.147l.217.248c-.992,2.945-3.565,4.96-8.277,6.634v.31L18.91,2.883H19.1C24.862.5,28.179-3.782,28.179-8.99,28.179-13.268,26.164-15.841,22.2-15.841Zm-.341,8.99c-1.984,0-3.1-1.24-3.1-3.472,0-2.2,1.24-3.379,3.224-3.379,2.387,0,3.348,1.612,3.348,4.774l-.031.744A5.647,5.647,0,0,1,21.855-6.851Zm15.965-8.9c-4.464,0-7.037,3.007-7.037,8.246,0,4.929,2.418,7.75,6.634,7.75,4.464,0,6.975-2.976,6.975-8.184C44.392-12.927,42.005-15.748,37.82-15.748Zm-.248,2.914c2.852,0,4.371,1.736,4.371,5.27,0,3.348-1.488,5.022-4.34,5.022-2.914,0-4.34-1.736-4.34-5.177S34.689-12.834,37.572-12.834Z" transform="translate(-5538.135 -7742.74)" fill="#0024a9"/>
    <path id="Caminho_772138" data-name="Caminho 772138" d="M14.105-2.046l.155-2.232-.186-.279h-2.79l.093-10.974H8.463L.744-4.371v2.046l.217.279,2.325-.062H8.742l-.093,4.9.186.217,2.418-.186.186-.248-.124-4.681ZM3.5-4.557l5.022-7.285h.248v7.285ZM22.94-18.383c-3.348,0-5.673,1.829-5.673,4.9a4.612,4.612,0,0,0,2.821,4.278v.155c-1.8.868-3.5,2.17-3.5,4.619,0,2.728,2.046,4.681,5.673,4.681,3.782,0,6.293-2.015,6.293-5.239,0-2.573-1.767-3.658-3.41-4.464V-9.61c1.519-.961,2.852-2.2,2.852-4.371C27.993-16.709,26.1-18.383,22.94-18.383Zm-.155,2.232a2.417,2.417,0,0,1,2.728,2.48c0,1.736-1.24,2.573-2.635,3.224-1.581-.62-3.007-1.364-3.007-3.131C19.871-15.159,20.956-16.151,22.785-16.151ZM22.32-8.122c1.829.744,3.6,1.426,3.6,3.348,0,1.612-1.24,2.821-3.379,2.821-2.046,0-3.286-1.147-3.286-2.852C19.251-6.727,20.708-7.533,22.32-8.122ZM42.1-15.469l-.186-.217-3.038.155H34.565l-1.7-.093-.434.434-.155,8.37.248.279,2.759.527c2.6.465,3.627,1.426,3.627,3.069,0,2.077-1.612,3.5-4.185,3.5a8.594,8.594,0,0,1-3.534-.775l-.248.248L31.155,2.7a17.6,17.6,0,0,0,3.131.341c4.464,0,7.6-2.635,7.6-6.479,0-2.449-1.3-4.092-5.208-4.9l-1.922-.4.093-4.247H39l2.542.217.217-.217Z" transform="translate(-5538.135 -7596.145)" fill="#3b4aff"/>
  </g>
</svg>
