<svg xmlns="http://www.w3.org/2000/svg" width="895.402" height="379.007" viewBox="0 0 895.402 379.007">
  <g id="_img_Grafico_7_" data-name="&lt;img Grafico_7&gt;" transform="translate(-547.505 -9330.642)">
    <path id="Caminho_773745" data-name="Caminho 773745" d="M6.784,0l.7-12.672,5.248,9.344h3.008l5.28-9.344L21.728,0h4.448L24.928-22.4H21.28L14.24-9.376,7.232-22.4H3.584L2.336,0Zm31.68-3.072a4.137,4.137,0,0,1-4.256-3.072l9.6-1.12a8.269,8.269,0,0,0,.416-2.624c0-3.968-2.88-6.272-6.72-6.272-4.544,0-7.84,3.2-7.84,8.256,0,5.024,3.3,8.384,8.48,8.384a9.652,9.652,0,0,0,5.7-1.76L42.176-4.192A7.183,7.183,0,0,1,38.464-3.072Zm-.7-9.632c1.408,0,2.432.736,2.432,2.112a2.472,2.472,0,0,1-.1.8l-6.08.736C34.336-11.1,35.616-12.7,37.76-12.7ZM53.088.448a8.924,8.924,0,0,0,3.136-.64L55.3-3.744a2.126,2.126,0,0,1-1.152.32c-1.5,0-1.888-1.152-1.888-2.912V-23.168h-4.48v17.6C47.776-1.888,49.5.448,53.088.448ZM69.568-16.16c-3.168,0-5.056,2.048-6.144,4.992L64-15.68v-7.488H59.52V0H64c0-5.088.288-12.288,4.192-12.288,1.984,0,2.176,2.08,2.176,3.424V0H74.88V-10.112C74.88-13.888,72.928-16.16,69.568-16.16ZM86.272.48a7.914,7.914,0,0,0,8.192-8.32,7.9,7.9,0,0,0-8.192-8.32,7.9,7.9,0,0,0-8.224,8.32A7.922,7.922,0,0,0,86.272.48Zm0-3.648c-2.368,0-3.584-2.176-3.584-4.672s1.216-4.672,3.584-4.672c2.336,0,3.552,2.176,3.552,4.672S88.608-3.168,86.272-3.168Zm21.6-12.992c-3.456,0-5.184,2.56-6.08,5.984l.544-5.5h-4.48V0h4.48c0-5.184.32-11.52,4.576-11.52a5.077,5.077,0,0,1,1.6.288L109.7-15.9A6.609,6.609,0,0,0,107.872-16.16ZM119.808-3.072a4.137,4.137,0,0,1-4.256-3.072l9.6-1.12a8.269,8.269,0,0,0,.416-2.624c0-3.968-2.88-6.272-6.72-6.272-4.544,0-7.84,3.2-7.84,8.256,0,5.024,3.3,8.384,8.48,8.384a9.652,9.652,0,0,0,5.7-1.76L123.52-4.192A7.183,7.183,0,0,1,119.808-3.072Zm-.7-9.632c1.408,0,2.432.736,2.432,2.112a2.472,2.472,0,0,1-.1.8l-6.08.736C115.68-11.1,116.96-12.7,119.1-12.7ZM134.432.48c3.872,0,6.688-1.664,6.688-5.28,0-5.568-8.1-3.936-8.1-6.4,0-1.024,1.28-1.312,2.464-1.312a8.366,8.366,0,0,1,3.9.96l1.536-3.136a12.438,12.438,0,0,0-5.888-1.472c-3.232,0-6.528,1.344-6.528,4.928,0,5.856,8.128,4.16,8.128,6.752,0,.864-.864,1.344-2.432,1.344a9.8,9.8,0,0,1-4.864-1.376l-1.632,3.264A13.694,13.694,0,0,0,134.432.48Zm28.7-16.64c-2.976,0-4.832,2.144-5.92,5.024l.48-4.544h-4.48V6.848h4.48V.288a12.689,12.689,0,0,0,2.24.192c6.336,0,9.056-4.608,9.056-9.344C168.992-13.152,166.784-16.16,163.136-16.16ZM160-2.944a5.282,5.282,0,0,1-2.272-.544c.256-4.192,1.184-9.088,4.032-9.088,1.408,0,2.56.96,2.56,3.84C164.32-6.5,163.52-2.944,160-2.944ZM182.72-16.16c-3.456,0-5.184,2.56-6.08,5.984l.544-5.5H172.7V0h4.48c0-5.184.32-11.52,4.576-11.52a5.077,5.077,0,0,1,1.6.288l1.184-4.672A6.609,6.609,0,0,0,182.72-16.16ZM194.08.48a7.914,7.914,0,0,0,8.192-8.32,7.9,7.9,0,0,0-8.192-8.32,7.9,7.9,0,0,0-8.224,8.32A7.922,7.922,0,0,0,194.08.48Zm0-3.648c-2.368,0-3.584-2.176-3.584-4.672s1.216-4.672,3.584-4.672c2.336,0,3.552,2.176,3.552,4.672S196.416-3.168,194.08-3.168Zm22.08-12.8a12.327,12.327,0,0,0-2.208-.192c-6.336,0-9.056,4.608-9.056,9.344,0,4.288,2.208,7.3,5.856,7.3,2.944,0,4.768-2.112,5.888-4.96L216.16,0h4.512V-23.168H216.16ZM212.128-3.136c-1.44,0-2.56-.928-2.56-3.84,0-2.208.768-5.76,4.32-5.76a5.251,5.251,0,0,1,2.24.544C215.872-8,214.944-3.136,212.128-3.136Zm28-12.544h-4.512c0,5.088-.16,12.288-4,12.288-1.984,0-2.368-2.08-2.368-3.424V-15.68h-4.48V-5.344c0,3.808,2.432,5.824,5.7,5.824,2.752,0,4.448-1.632,5.5-4.064L235.616,0h4.512ZM251.968.48a10.3,10.3,0,0,0,3.584-.672l-.928-3.52a4.575,4.575,0,0,1-1.6.32c-1.664,0-2.464-.992-2.464-2.976v-5.76h4.384V-15.68H250.56v-4.9h-2.976l-.32,1.728c-.48,2.528-.736,3.168-3.616,3.168h-.48v3.552h2.912V-5.6C246.08-1.856,248.064.48,251.968.48ZM265.7.48a7.914,7.914,0,0,0,8.192-8.32,7.9,7.9,0,0,0-8.192-8.32,7.9,7.9,0,0,0-8.224,8.32A7.922,7.922,0,0,0,265.7.48Zm0-3.648c-2.368,0-3.584-2.176-3.584-4.672s1.216-4.672,3.584-4.672c2.336,0,3.552,2.176,3.552,4.672S268.032-3.168,265.7-3.168ZM282.592.48c3.872,0,6.688-1.664,6.688-5.28,0-5.568-8.1-3.936-8.1-6.4,0-1.024,1.28-1.312,2.464-1.312a8.366,8.366,0,0,1,3.9.96l1.536-3.136A12.438,12.438,0,0,0,283.2-16.16c-3.232,0-6.528,1.344-6.528,4.928,0,5.856,8.128,4.16,8.128,6.752,0,.864-.864,1.344-2.432,1.344A9.8,9.8,0,0,1,277.5-4.512l-1.632,3.264A13.694,13.694,0,0,0,282.592.48Z" transform="translate(545.169 9353.81)"/>
    <path id="Caminho_773638" data-name="Caminho 773638" d="M15.33,2.688A17.055,17.055,0,0,1,8.589-.126c2.541-.8,3.969-3.192,3.969-6.8,0-4.305-2.037-6.657-5.712-6.657C2.961-13.587.8-11.109.8-6.615.8-2.289,2.835.168,6.552.168l.5-.021a18.406,18.406,0,0,0,7.413,3.885l.147-.063A3.209,3.209,0,0,0,15.393,2.9ZM2.52-6.762c0-3.675,1.365-5.439,4.158-5.439,2.751,0,4.137,1.764,4.137,5.418,0,3.738-1.47,5.544-4.158,5.544C3.906-1.239,2.52-3.045,2.52-6.762Zm19.8-2.9-1.6.147v6.951a3.884,3.884,0,0,1-2.6,1.281c-1.092,0-1.638-.693-1.617-1.827l.126-6.552-1.68.147.063,4.137-.021,2.667C14.973-.9,16.065.126,18.144.126a6.1,6.1,0,0,0,2.6-1.47h.168A1.529,1.529,0,0,0,22.365.126a3.024,3.024,0,0,0,1.2-.42l.147-.945-.147-.147a2.309,2.309,0,0,1-.735.126c-.441,0-.63-.21-.63-.8ZM29-9.786a6.045,6.045,0,0,0-3.591,1.3l.21,1.2.168.084a4.576,4.576,0,0,1,2.961-1.386,1.517,1.517,0,0,1,1.659,1.7l-.021,1.365-3.4.8a2.163,2.163,0,0,0-1.953,2.247c0,1.617,1.092,2.625,2.982,2.625a6.193,6.193,0,0,0,2.247-1.575h.147A1.5,1.5,0,0,0,31.857.126a3.024,3.024,0,0,0,1.2-.42l.168-.945-.168-.147a2.291,2.291,0,0,1-.714.126c-.483,0-.651-.21-.651-.819,0-.735.252-4.452.252-5.187C31.941-8.841,30.807-9.786,29-9.786Zm1.365,5.334L30.3-2.73a3.222,3.222,0,0,1-2.352,1.491,1.346,1.346,0,0,1-1.428-1.47.92.92,0,0,1,.8-1.008ZM41.475,0h1.68l-.084-4.179.042-2.73c.021-1.806-1.071-2.835-3.213-2.835a6.611,6.611,0,0,0-2.667,1.491h-.126l.021-1.407-1.6.147.084,5.439L35.511,0H37.17l-.084-4.221.021-2.646a4.164,4.164,0,0,1,2.835-1.491c1.113,0,1.659.714,1.638,1.827Zm7.9-1.281c-.924,0-1.344-.378-1.323-1.512l.1-5.691h2.835l.1-.987L51.009-9.6H48.153l.042-2.037-.168-.147-1.449.63V-9.6H45.3l-.1.987.084.126H46.6l.021,4.347-.063,1.491A2.426,2.426,0,0,0,48.8.126a6.053,6.053,0,0,0,2.1-.609l.168-1.092L50.883-1.7A3.181,3.181,0,0,1,49.371-1.281Zm4.557-12.642a.926.926,0,0,0-.987.987.863.863,0,0,0,.924.966A.938.938,0,0,0,54.852-13,.86.86,0,0,0,53.928-13.923Zm.651,9.7L54.7-9.66l-1.659.147.084,5.439L53.025,0h1.659Zm10.647,0,.126-10.521-1.659.147.042,5.019a8.181,8.181,0,0,0-1.848-.21c-2.919,0-4.662,1.806-4.662,5,0,3.108,1.491,4.893,4.284,4.893A6.983,6.983,0,0,0,63.8-1.344h.147a1.548,1.548,0,0,0,1.47,1.47,3.024,3.024,0,0,0,1.2-.42l.147-.945-.168-.147a2.119,2.119,0,0,1-.714.126c-.441,0-.588-.21-.609-.8ZM61.677-8.61a4.9,4.9,0,0,1,2.058.525l.042,3.99-.042,1.512A2.982,2.982,0,0,1,61.425-1.3c-1.6,0-2.6-1.3-2.646-3.633C58.737-7.371,59.913-8.61,61.677-8.61ZM72.051-9.786a6.045,6.045,0,0,0-3.591,1.3l.21,1.2.168.084A4.576,4.576,0,0,1,71.8-8.589a1.517,1.517,0,0,1,1.659,1.7l-.021,1.365-3.4.8a2.163,2.163,0,0,0-1.953,2.247c0,1.617,1.092,2.625,2.982,2.625a6.193,6.193,0,0,0,2.247-1.575h.147A1.5,1.5,0,0,0,74.907.126a3.024,3.024,0,0,0,1.2-.42l.168-.945L76.1-1.386a2.291,2.291,0,0,1-.714.126c-.483,0-.651-.21-.651-.819,0-.735.252-4.452.252-5.187C74.991-8.841,73.857-9.786,72.051-9.786Zm1.365,5.334L73.353-2.73A3.222,3.222,0,0,1,71-1.239a1.346,1.346,0,0,1-1.428-1.47.92.92,0,0,1,.8-1.008Zm12.348.231.126-10.521-1.659.147.042,5.019a8.181,8.181,0,0,0-1.848-.21c-2.919,0-4.662,1.806-4.662,5,0,3.108,1.491,4.893,4.284,4.893a6.983,6.983,0,0,0,2.289-1.449h.147a1.548,1.548,0,0,0,1.47,1.47,3.024,3.024,0,0,0,1.2-.42l.147-.945-.168-.147a2.119,2.119,0,0,1-.714.126c-.441,0-.588-.21-.609-.8ZM82.215-8.61a4.9,4.9,0,0,1,2.058.525l.042,3.99-.042,1.512A2.982,2.982,0,0,1,81.963-1.3c-1.6,0-2.6-1.3-2.646-3.633C79.275-7.371,80.451-8.61,82.215-8.61Zm7.98,3.717,5.859-.021.357-.273c.021-.252.042-.735.042-.966,0-2.268-1.218-3.612-3.318-3.612-2.751,0-4.515,1.911-4.515,5.019,0,3.024,1.617,4.914,4.368,4.914a6.585,6.585,0,0,0,2.919-.777l.168-1.407-.189-.105a5.13,5.13,0,0,1-2.814.945c-1.932,0-2.877-1.386-2.877-3.654Zm2.793-3.7c1.155,0,1.974.693,1.974,2.2l-.042.252-4.62.126C90.594-7.665,91.56-8.589,92.988-8.589Zm16.569,4.368.126-10.521-1.659.147.042,5.019a8.181,8.181,0,0,0-1.848-.21c-2.919,0-4.662,1.806-4.662,5,0,3.108,1.491,4.893,4.284,4.893a6.983,6.983,0,0,0,2.289-1.449h.147a1.548,1.548,0,0,0,1.47,1.47,3.024,3.024,0,0,0,1.2-.42l.147-.945-.168-.147a2.119,2.119,0,0,1-.714.126c-.441,0-.588-.21-.609-.8ZM106.008-8.61a4.9,4.9,0,0,1,2.058.525l.042,3.99-.042,1.512a2.982,2.982,0,0,1-2.31,1.281c-1.6,0-2.6-1.3-2.646-3.633C103.068-7.371,104.244-8.61,106.008-8.61Zm7.98,3.717,5.859-.021.357-.273c.021-.252.042-.735.042-.966,0-2.268-1.218-3.612-3.318-3.612-2.751,0-4.515,1.911-4.515,5.019,0,3.024,1.617,4.914,4.368,4.914A6.585,6.585,0,0,0,119.7-.609l.168-1.407-.189-.105a5.13,5.13,0,0,1-2.814.945c-1.932,0-2.877-1.386-2.877-3.654Zm2.793-3.7c1.155,0,1.974.693,1.974,2.2l-.042.252-4.62.126C114.387-7.665,115.353-8.589,116.781-8.589Zm9.975.189-.273-1.281-1.554.105L127.911,0H129.7l3.528-9.618h-1.491l-.336,1.3L128.94-1.659h-.1Zm8.778,3.507,5.859-.021.357-.273c.021-.252.042-.735.042-.966,0-2.268-1.218-3.612-3.318-3.612-2.751,0-4.515,1.911-4.515,5.019,0,3.024,1.617,4.914,4.368,4.914a6.585,6.585,0,0,0,2.919-.777l.168-1.407-.189-.105a5.13,5.13,0,0,1-2.814.945c-1.932,0-2.877-1.386-2.877-3.654Zm2.793-3.7c1.155,0,1.974.693,1.974,2.2l-.042.252-4.62.126C135.933-7.665,136.9-8.589,138.327-8.589ZM150.192,0h1.68l-.084-4.179.042-2.73c.021-1.806-1.071-2.835-3.213-2.835a6.611,6.611,0,0,0-2.667,1.491h-.126l.021-1.407-1.6.147.084,5.439L144.228,0h1.659L145.8-4.221l.021-2.646a4.164,4.164,0,0,1,2.835-1.491c1.113,0,1.659.714,1.638,1.827Zm12.054-4.221.126-10.521-1.659.147.042,5.019a8.181,8.181,0,0,0-1.848-.21c-2.919,0-4.662,1.806-4.662,5,0,3.108,1.491,4.893,4.284,4.893a6.983,6.983,0,0,0,2.289-1.449h.147a1.548,1.548,0,0,0,1.47,1.47,3.024,3.024,0,0,0,1.2-.42l.147-.945-.168-.147a2.119,2.119,0,0,1-.714.126c-.441,0-.588-.21-.609-.8ZM158.7-8.61a4.9,4.9,0,0,1,2.058.525L160.8-4.1l-.042,1.512a2.982,2.982,0,0,1-2.31,1.281c-1.6,0-2.6-1.3-2.646-3.633C155.757-7.371,156.933-8.61,158.7-8.61Zm10.374-1.176a6.045,6.045,0,0,0-3.591,1.3l.21,1.2.168.084a4.576,4.576,0,0,1,2.961-1.386,1.517,1.517,0,0,1,1.659,1.7l-.021,1.365-3.4.8A2.163,2.163,0,0,0,165.1-2.478c0,1.617,1.092,2.625,2.982,2.625a6.193,6.193,0,0,0,2.247-1.575h.147A1.5,1.5,0,0,0,171.927.126a3.024,3.024,0,0,0,1.2-.42l.168-.945-.168-.147a2.291,2.291,0,0,1-.714.126c-.483,0-.651-.21-.651-.819,0-.735.252-4.452.252-5.187C172.011-8.841,170.877-9.786,169.071-9.786Zm1.365,5.334-.063,1.722a3.222,3.222,0,0,1-2.352,1.491,1.346,1.346,0,0,1-1.428-1.47.92.92,0,0,1,.8-1.008Zm7.791-5.313c-2.079,0-3.318,1.176-3.318,2.772,0,2.982,4.389,2.583,4.389,4.515a1.578,1.578,0,0,1-1.743,1.449,4.132,4.132,0,0,1-2.562-1.05l-.189.126-.21,1.428a6.169,6.169,0,0,0,2.793.693c2.226,0,3.423-1.407,3.423-2.94,0-2.9-4.368-2.5-4.368-4.431a1.455,1.455,0,0,1,1.6-1.365,3.643,3.643,0,0,1,2.016.693l.252-.063.231-1.365A6.123,6.123,0,0,0,178.227-9.765Z" transform="translate(896 9705.616)"/>
    <line id="Linha_1896" data-name="Linha 1896" x2="860.298" transform="translate(557.5 9621.991)" fill="none" stroke="#40bbff" stroke-miterlimit="10" stroke-width="2"/>
    <line id="Linha_1897" data-name="Linha 1897" y2="10.17" transform="translate(559.851 9621.33)" fill="none" stroke="#40bbff" stroke-miterlimit="10" stroke-width="2"/>
    <line id="Linha_1900" data-name="Linha 1900" y2="10.17" transform="translate(774.851 9621.33)" fill="none" stroke="#40bbff" stroke-miterlimit="10" stroke-width="2"/>
    <line id="Linha_1902" data-name="Linha 1902" y2="10.17" transform="translate(988.351 9621.33)" fill="none" stroke="#40bbff" stroke-miterlimit="10" stroke-width="2"/>
    <line id="Linha_1904" data-name="Linha 1904" y2="10.17" transform="translate(1202.351 9621.33)" fill="none" stroke="#40bbff" stroke-miterlimit="10" stroke-width="2"/>
    <line id="Linha_1898" data-name="Linha 1898" y2="10.17" transform="translate(667.851 9621.33)" fill="none" stroke="#40bbff" stroke-miterlimit="10" stroke-width="2"/>
    <line id="Linha_1899" data-name="Linha 1899" y2="10.17" transform="translate(880.851 9621.33)" fill="none" stroke="#40bbff" stroke-miterlimit="10" stroke-width="2"/>
    <line id="Linha_1901" data-name="Linha 1901" y2="10.17" transform="translate(1094.351 9621.33)" fill="none" stroke="#40bbff" stroke-miterlimit="10" stroke-width="2"/>
    <line id="Linha_1903" data-name="Linha 1903" y2="10.17" transform="translate(1308.351 9621.33)" fill="none" stroke="#40bbff" stroke-miterlimit="10" stroke-width="2"/>
    <line id="Linha_1905" data-name="Linha 1905" y2="10.17" transform="translate(1416.351 9621.33)" fill="none" stroke="#40bbff" stroke-miterlimit="10" stroke-width="2"/>
    <ellipse id="Elipse_13063" data-name="Elipse 13063" cx="8.96" cy="8.96" rx="8.96" ry="8.96" transform="translate(871.892 9482.31)" fill="#3b4aff"/>
    <ellipse id="Elipse_13064" data-name="Elipse 13064" cx="8.96" cy="8.96" rx="8.96" ry="8.96" transform="translate(1087.892 9437.31)" fill="#0041d9"/>
    <ellipse id="Elipse_13065" data-name="Elipse 13065" cx="8.96" cy="8.96" rx="8.96" ry="8.96" transform="translate(1299.391 9414.31)" fill="#0024a9"/>
    <path id="Caminho_773637" data-name="Caminho 773637" d="M8.37-15.748c-4.464,0-7.037,3.007-7.037,8.246,0,4.929,2.418,7.75,6.634,7.75,4.464,0,6.975-2.976,6.975-8.184C14.942-12.927,12.555-15.748,8.37-15.748Zm-.248,2.914c2.852,0,4.371,1.736,4.371,5.27,0,3.348-1.488,5.022-4.34,5.022-2.914,0-4.34-1.736-4.34-5.177S5.239-12.834,8.122-12.834Z" transform="translate(551.851 9663.804)" fill="#2f2e33"/>
    <path id="Caminho_773636" data-name="Caminho 773636" d="M11.966-15.469l-.186-.217-3.038.155H4.433l-1.7-.093-.434.434L2.139-6.82l.248.279,2.759.527c2.6.465,3.627,1.426,3.627,3.069,0,2.077-1.612,3.5-4.185,3.5A8.594,8.594,0,0,1,1.054-.217L.806.031,1.023,2.7a17.6,17.6,0,0,0,3.131.341c4.464,0,7.6-2.635,7.6-6.479,0-2.449-1.3-4.092-5.208-4.9l-1.922-.4.093-4.247H8.866l2.542.217.217-.217Zm9.517-.279c-4.464,0-7.037,3.007-7.037,8.246,0,4.929,2.418,7.75,6.634,7.75,4.464,0,6.975-2.976,6.975-8.184C28.055-12.927,25.668-15.748,21.483-15.748Zm-.248,2.914c2.852,0,4.371,1.736,4.371,5.27,0,3.348-1.488,5.022-4.34,5.022-2.914,0-4.34-1.736-4.34-5.177S18.352-12.834,21.235-12.834Z" transform="translate(653.351 9663.804)" fill="#2f2e33"/>
    <path id="Caminho_773635" data-name="Caminho 773635" d="M7.44-15.345l-.465-.341L.31-13.733v2.511l.279.186L4.371-12.09,4.4-6.076,4.216,0H7.409L7.254-6.417Zm11.811-.4c-4.464,0-7.037,3.007-7.037,8.246,0,4.929,2.418,7.75,6.634,7.75,4.464,0,6.975-2.976,6.975-8.184C25.823-12.927,23.436-15.748,19.251-15.748ZM19-12.834c2.852,0,4.371,1.736,4.371,5.27,0,3.348-1.488,5.022-4.34,5.022-2.914,0-4.34-1.736-4.34-5.177S16.12-12.834,19-12.834Zm16.523-2.914c-4.464,0-7.037,3.007-7.037,8.246,0,4.929,2.418,7.75,6.634,7.75,4.464,0,6.975-2.976,6.975-8.184C42.1-12.927,39.711-15.748,35.526-15.748Zm-.248,2.914c2.852,0,4.371,1.736,4.371,5.27,0,3.348-1.488,5.022-4.34,5.022-2.914,0-4.34-1.736-4.34-5.177S32.395-12.834,35.278-12.834Z" transform="translate(753.351 9663.804)" fill="#2f2e33"/>
    <path id="Caminho_773634" data-name="Caminho 773634" d="M7.44-15.345l-.465-.341L.31-13.733v2.511l.279.186L4.371-12.09,4.4-6.076,4.216,0H7.409L7.254-6.417Zm15.407-.124-.186-.217-3.038.155H15.314l-1.7-.093-.434.434L13.02-6.82l.248.279,2.759.527c2.6.465,3.627,1.426,3.627,3.069,0,2.077-1.612,3.5-4.185,3.5a8.594,8.594,0,0,1-3.534-.775l-.248.248L11.9,2.7a17.6,17.6,0,0,0,3.131.341c4.464,0,7.6-2.635,7.6-6.479,0-2.449-1.3-4.092-5.208-4.9l-1.922-.4.093-4.247h4.154l2.542.217.217-.217Zm9.517-.279c-4.464,0-7.037,3.007-7.037,8.246,0,4.929,2.418,7.75,6.634,7.75,4.464,0,6.975-2.976,6.975-8.184C38.936-12.927,36.549-15.748,32.364-15.748Zm-.248,2.914c2.852,0,4.371,1.736,4.371,5.27,0,3.348-1.488,5.022-4.34,5.022-2.914,0-4.34-1.736-4.34-5.177S29.233-12.834,32.116-12.834Z" transform="translate(860.852 9663.804)" fill="#2f2e33"/>
    <path id="Caminho_773633" data-name="Caminho 773633" d="M7.285-15.686A9.449,9.449,0,0,0,1.55-13.454l.527,2.449h.341A6.164,6.164,0,0,1,6.6-12.989c1.364,0,2.108.713,2.108,1.674,0,1.209-1.085,2.666-3.1,4.836L1.364-2.015V-.062l.155.124L2.666,0H9.672l3.41.155.4-2.6-.217-.217-2.7.248H5.518l-.062-.155L8.215-5.7c2.48-2.79,3.6-4.712,3.6-6.386C11.811-14.291,9.889-15.686,7.285-15.686Zm15.407-.062c-4.464,0-7.037,3.007-7.037,8.246,0,4.929,2.418,7.75,6.634,7.75,4.464,0,6.975-2.976,6.975-8.184C29.264-12.927,26.877-15.748,22.692-15.748Zm-.248,2.914c2.852,0,4.371,1.736,4.371,5.27,0,3.348-1.488,5.022-4.34,5.022-2.914,0-4.34-1.736-4.34-5.177S19.561-12.834,22.444-12.834Zm16.523-2.914c-4.464,0-7.037,3.007-7.037,8.246,0,4.929,2.418,7.75,6.634,7.75,4.464,0,6.975-2.976,6.975-8.184C45.539-12.927,43.152-15.748,38.967-15.748Zm-.248,2.914c2.852,0,4.371,1.736,4.371,5.27,0,3.348-1.488,5.022-4.34,5.022-2.914,0-4.34-1.736-4.34-5.177S35.836-12.834,38.719-12.834Z" transform="translate(965.353 9663.804)" fill="#2f2e33"/>
    <path id="Caminho_773632" data-name="Caminho 773632" d="M7.285-15.686A9.449,9.449,0,0,0,1.55-13.454l.527,2.449h.341A6.164,6.164,0,0,1,6.6-12.989c1.364,0,2.108.713,2.108,1.674,0,1.209-1.085,2.666-3.1,4.836L1.364-2.015V-.062l.155.124L2.666,0H9.672l3.41.155.4-2.6-.217-.217-2.7.248H5.518l-.062-.155L8.215-5.7c2.48-2.79,3.6-4.712,3.6-6.386C11.811-14.291,9.889-15.686,7.285-15.686Zm19,.217-.186-.217-3.038.155H18.755l-1.7-.093-.434.434-.155,8.37.248.279,2.759.527c2.6.465,3.627,1.426,3.627,3.069,0,2.077-1.612,3.5-4.185,3.5a8.594,8.594,0,0,1-3.534-.775l-.248.248L15.345,2.7a17.6,17.6,0,0,0,3.131.341c4.464,0,7.595-2.635,7.595-6.479,0-2.449-1.3-4.092-5.208-4.9l-1.922-.4.093-4.247h4.154l2.542.217.217-.217Zm9.517-.279c-4.464,0-7.037,3.007-7.037,8.246,0,4.929,2.418,7.75,6.634,7.75,4.464,0,6.975-2.976,6.975-8.184C42.377-12.927,39.99-15.748,35.805-15.748Zm-.248,2.914c2.852,0,4.371,1.736,4.371,5.27,0,3.348-1.488,5.022-4.34,5.022-2.914,0-4.34-1.736-4.34-5.177S32.674-12.834,35.557-12.834Z" transform="translate(1073.351 9663.804)" fill="#2f2e33"/>
    <path id="Caminho_773631" data-name="Caminho 773631" d="M6.076-15.717A8.36,8.36,0,0,0,.868-13.826l.465,2.387h.341a6.018,6.018,0,0,1,3.782-1.705,2.151,2.151,0,0,1,2.449,2.17A3.414,3.414,0,0,1,4.464-7.843L3.1-7.812l-.093,2.17.186.217H5.146c2.294.093,3.5,1.085,3.5,2.79C8.649-.651,7.006.558,4.464.558A8.328,8.328,0,0,1,1.178-.124L.961.093l.155,2.6a21.455,21.455,0,0,0,3.193.279c4.4,0,7.347-2.356,7.347-5.859,0-2.077-1.24-3.472-3.6-4.092V-7.1A5.214,5.214,0,0,0,11.1-11.656C11.1-14.074,9.083-15.717,6.076-15.717Zm15.314-.031c-4.464,0-7.037,3.007-7.037,8.246,0,4.929,2.418,7.75,6.634,7.75,4.464,0,6.975-2.976,6.975-8.184C27.962-12.927,25.575-15.748,21.39-15.748Zm-.248,2.914c2.852,0,4.371,1.736,4.371,5.27,0,3.348-1.488,5.022-4.34,5.022-2.914,0-4.34-1.736-4.34-5.177S18.259-12.834,21.142-12.834Zm16.523-2.914c-4.464,0-7.037,3.007-7.037,8.246,0,4.929,2.418,7.75,6.634,7.75,4.464,0,6.975-2.976,6.975-8.184C44.237-12.927,41.85-15.748,37.665-15.748Zm-.248,2.914c2.852,0,4.371,1.736,4.371,5.27,0,3.348-1.488,5.022-4.34,5.022-2.914,0-4.34-1.736-4.34-5.177S34.534-12.834,37.417-12.834Z" transform="translate(1181.852 9663.804)" fill="#2f2e33"/>
    <path id="Caminho_773630" data-name="Caminho 773630" d="M6.076-15.717A8.36,8.36,0,0,0,.868-13.826l.465,2.387h.341a6.018,6.018,0,0,1,3.782-1.705,2.151,2.151,0,0,1,2.449,2.17A3.414,3.414,0,0,1,4.464-7.843L3.1-7.812l-.093,2.17.186.217H5.146c2.294.093,3.5,1.085,3.5,2.79C8.649-.651,7.006.558,4.464.558A8.328,8.328,0,0,1,1.178-.124L.961.093l.155,2.6a21.455,21.455,0,0,0,3.193.279c4.4,0,7.347-2.356,7.347-5.859,0-2.077-1.24-3.472-3.6-4.092V-7.1A5.214,5.214,0,0,0,11.1-11.656C11.1-14.074,9.083-15.717,6.076-15.717Zm18.91.248-.186-.217-3.038.155H17.453l-1.7-.093-.434.434-.155,8.37.248.279,2.759.527c2.6.465,3.627,1.426,3.627,3.069,0,2.077-1.612,3.5-4.185,3.5a8.594,8.594,0,0,1-3.534-.775l-.248.248L14.043,2.7a17.6,17.6,0,0,0,3.131.341c4.464,0,7.6-2.635,7.6-6.479,0-2.449-1.3-4.092-5.208-4.9l-1.922-.4.093-4.247h4.154l2.542.217.217-.217Zm9.517-.279c-4.464,0-7.037,3.007-7.037,8.246,0,4.929,2.418,7.75,6.634,7.75,4.464,0,6.975-2.976,6.975-8.184C41.075-12.927,38.688-15.748,34.5-15.748Zm-.248,2.914c2.852,0,4.371,1.736,4.371,5.27,0,3.348-1.488,5.022-4.34,5.022-2.914,0-4.34-1.736-4.34-5.177S31.372-12.834,34.255-12.834Z" transform="translate(1288.851 9663.804)" fill="#2f2e33"/>
    <path id="Caminho_773629" data-name="Caminho 773629" d="M14.105-2.046l.155-2.232-.186-.279h-2.79l.093-10.974H8.463L.744-4.371v2.046l.217.279,2.325-.062H8.742l-.093,4.9.186.217,2.418-.186.186-.248-.124-4.681ZM3.5-4.557l5.022-7.285h.248v7.285ZM23.56-15.748c-4.464,0-7.037,3.007-7.037,8.246,0,4.929,2.418,7.75,6.634,7.75,4.464,0,6.975-2.976,6.975-8.184C30.132-12.927,27.745-15.748,23.56-15.748Zm-.248,2.914c2.852,0,4.371,1.736,4.371,5.27,0,3.348-1.488,5.022-4.34,5.022C20.429-2.542,19-4.278,19-7.719S20.429-12.834,23.312-12.834Zm16.523-2.914c-4.464,0-7.037,3.007-7.037,8.246,0,4.929,2.418,7.75,6.634,7.75,4.464,0,6.975-2.976,6.975-8.184C46.407-12.927,44.02-15.748,39.835-15.748Zm-.248,2.914c2.852,0,4.371,1.736,4.371,5.27,0,3.348-1.488,5.022-4.34,5.022-2.914,0-4.34-1.736-4.34-5.177S36.7-12.834,39.587-12.834Z" transform="translate(1396.5 9663.804)" fill="#2f2e33"/>
    <path id="Caminho_773626" data-name="Caminho 773626" d="M6.076-15.717A8.36,8.36,0,0,0,.868-13.826l.465,2.387h.341a6.018,6.018,0,0,1,3.782-1.705,2.151,2.151,0,0,1,2.449,2.17A3.414,3.414,0,0,1,4.464-7.843L3.1-7.812l-.093,2.17.186.217H5.146c2.294.093,3.5,1.085,3.5,2.79C8.649-.651,7.006.558,4.464.558A8.328,8.328,0,0,1,1.178-.124L.961.093l.155,2.6a21.455,21.455,0,0,0,3.193.279c4.4,0,7.347-2.356,7.347-5.859,0-2.077-1.24-3.472-3.6-4.092V-7.1A5.214,5.214,0,0,0,11.1-11.656C11.1-14.074,9.083-15.717,6.076-15.717Z" transform="translate(876.811 9462.31)" fill="#2f2e33"/>
    <path id="Caminho_773627" data-name="Caminho 773627" d="M14.105-2.046l.155-2.232-.186-.279h-2.79l.093-10.974H8.463L.744-4.371v2.046l.217.279,2.325-.062H8.742l-.093,4.9.186.217,2.418-.186.186-.248-.124-4.681ZM3.5-4.557l5.022-7.285h.248v7.285Z" transform="translate(1089.352 9419.31)" fill="#2f2e33"/>
    <path id="Caminho_773628" data-name="Caminho 773628" d="M14.105-2.046l.155-2.232-.186-.279h-2.79l.093-10.974H8.463L.744-4.371v2.046l.217.279,2.325-.062H8.742l-.093,4.9.186.217,2.418-.186.186-.248-.124-4.681ZM3.5-4.557l5.022-7.285h.248v7.285ZM19.344-3.286a7.907,7.907,0,0,0-2.263,1.023v.279a1.957,1.957,0,0,1,.961,1.643,3.764,3.764,0,0,1-1.7,2.852l.031.248,1.023.93c2.2-1.581,3.286-3.1,3.286-4.65A2.8,2.8,0,0,0,19.344-3.286ZM34.255-15.469l-.186-.217-3.038.155H26.722l-1.7-.093-.434.434-.155,8.37.248.279,2.759.527c2.6.465,3.627,1.426,3.627,3.069,0,2.077-1.612,3.5-4.185,3.5a8.594,8.594,0,0,1-3.534-.775l-.248.248L23.312,2.7a17.6,17.6,0,0,0,3.131.341c4.464,0,7.6-2.635,7.6-6.479,0-2.449-1.3-4.092-5.208-4.9l-1.922-.4L27-12.989h4.154l2.542.217.217-.217Z" transform="translate(1292.351 9397.31)" fill="#2f2e33"/>
  </g>
</svg>
