<svg xmlns="http://www.w3.org/2000/svg" width="1012" height="653" viewBox="0 0 1012 653">
  <g id="_img_Tabela_5_" data-name="&lt;img Tabela_5&gt;" transform="translate(-479 -10407)">
    <g id="Retângulo_124961" data-name="Retângulo 124961" transform="translate(479 10483)" fill="none" stroke="#0023a2" stroke-width="1">
      <rect width="253" height="49" stroke="none"/>
      <rect x="0.5" y="0.5" width="252" height="48" fill="none"/>
    </g>
    <g id="Retângulo_124965" data-name="Retângulo 124965" transform="translate(479 10531)" fill="none" stroke="#0023a2" stroke-width="1">
      <rect width="253" height="49" stroke="none"/>
      <rect x="0.5" y="0.5" width="252" height="48" fill="none"/>
    </g>
    <g id="Retângulo_124969" data-name="Retângulo 124969" transform="translate(479 10579)" fill="none" stroke="#0023a2" stroke-width="1">
      <rect width="253" height="49" stroke="none"/>
      <rect x="0.5" y="0.5" width="252" height="48" fill="none"/>
    </g>
    <g id="Retângulo_124976" data-name="Retângulo 124976" transform="translate(479 10627)" fill="none" stroke="#0023a2" stroke-width="1">
      <rect width="253" height="49" stroke="none"/>
      <rect x="0.5" y="0.5" width="252" height="48" fill="none"/>
    </g>
    <g id="Retângulo_124980" data-name="Retângulo 124980" transform="translate(479 10675)" fill="none" stroke="#0023a2" stroke-width="1">
      <rect width="253" height="49" stroke="none"/>
      <rect x="0.5" y="0.5" width="252" height="48" fill="none"/>
    </g>
    <g id="Retângulo_124984" data-name="Retângulo 124984" transform="translate(479 10723)" fill="none" stroke="#0023a2" stroke-width="1">
      <rect width="253" height="49" stroke="none"/>
      <rect x="0.5" y="0.5" width="252" height="48" fill="none"/>
    </g>
    <g id="Retângulo_124988" data-name="Retângulo 124988" transform="translate(479 10771)" fill="none" stroke="#0023a2" stroke-width="1">
      <rect width="253" height="49" stroke="none"/>
      <rect x="0.5" y="0.5" width="252" height="48" fill="none"/>
    </g>
    <g id="Retângulo_125005" data-name="Retângulo 125005" transform="translate(479 10915)" fill="none" stroke="#0023a2" stroke-width="1">
      <rect width="253" height="49" stroke="none"/>
      <rect x="0.5" y="0.5" width="252" height="48" fill="none"/>
    </g>
    <g id="Retângulo_124992" data-name="Retângulo 124992" transform="translate(479 10819)" fill="none" stroke="#0023a2" stroke-width="1">
      <rect width="253" height="49" stroke="none"/>
      <rect x="0.5" y="0.5" width="252" height="48" fill="none"/>
    </g>
    <g id="Retângulo_125001" data-name="Retângulo 125001" transform="translate(479 10963)" fill="none" stroke="#0023a2" stroke-width="1">
      <rect width="253" height="49" stroke="none"/>
      <rect x="0.5" y="0.5" width="252" height="48" fill="none"/>
    </g>
    <g id="Retângulo_124996" data-name="Retângulo 124996" transform="translate(479 10867)" fill="none" stroke="#0023a2" stroke-width="1">
      <rect width="253" height="49" stroke="none"/>
      <rect x="0.5" y="0.5" width="252" height="48" fill="none"/>
    </g>
    <g id="Retângulo_125000" data-name="Retângulo 125000" transform="translate(479 11011)" fill="none" stroke="#0023a2" stroke-width="1">
      <rect width="253" height="49" stroke="none"/>
      <rect x="0.5" y="0.5" width="252" height="48" fill="none"/>
    </g>
    <g id="Retângulo_124962" data-name="Retângulo 124962" transform="translate(731 10483)" fill="none" stroke="#0023a2" stroke-width="1">
      <rect width="254" height="49" stroke="none"/>
      <rect x="0.5" y="0.5" width="253" height="48" fill="none"/>
    </g>
    <g id="Retângulo_124966" data-name="Retângulo 124966" transform="translate(731 10531)" fill="none" stroke="#0023a2" stroke-width="1">
      <rect width="254" height="49" stroke="none"/>
      <rect x="0.5" y="0.5" width="253" height="48" fill="none"/>
    </g>
    <g id="Retângulo_124970" data-name="Retângulo 124970" transform="translate(731 10579)" fill="none" stroke="#0023a2" stroke-width="1">
      <rect width="254" height="49" stroke="none"/>
      <rect x="0.5" y="0.5" width="253" height="48" fill="none"/>
    </g>
    <g id="Retângulo_124975" data-name="Retângulo 124975" transform="translate(731 10627)" fill="none" stroke="#0023a2" stroke-width="1">
      <rect width="254" height="49" stroke="none"/>
      <rect x="0.5" y="0.5" width="253" height="48" fill="none"/>
    </g>
    <g id="Retângulo_124979" data-name="Retângulo 124979" transform="translate(731 10675)" fill="none" stroke="#0023a2" stroke-width="1">
      <rect width="254" height="49" stroke="none"/>
      <rect x="0.5" y="0.5" width="253" height="48" fill="none"/>
    </g>
    <g id="Retângulo_124983" data-name="Retângulo 124983" transform="translate(731 10723)" fill="none" stroke="#0023a2" stroke-width="1">
      <rect width="254" height="49" stroke="none"/>
      <rect x="0.5" y="0.5" width="253" height="48" fill="none"/>
    </g>
    <g id="Retângulo_124987" data-name="Retângulo 124987" transform="translate(731 10771)" fill="none" stroke="#0023a2" stroke-width="1">
      <rect width="254" height="49" stroke="none"/>
      <rect x="0.5" y="0.5" width="253" height="48" fill="none"/>
    </g>
    <g id="Retângulo_125006" data-name="Retângulo 125006" transform="translate(731 10915)" fill="none" stroke="#0023a2" stroke-width="1">
      <rect width="254" height="49" stroke="none"/>
      <rect x="0.5" y="0.5" width="253" height="48" fill="none"/>
    </g>
    <g id="Retângulo_124991" data-name="Retângulo 124991" transform="translate(731 10819)" fill="none" stroke="#0023a2" stroke-width="1">
      <rect width="254" height="49" stroke="none"/>
      <rect x="0.5" y="0.5" width="253" height="48" fill="none"/>
    </g>
    <g id="Retângulo_125002" data-name="Retângulo 125002" transform="translate(731 10963)" fill="none" stroke="#0023a2" stroke-width="1">
      <rect width="254" height="49" stroke="none"/>
      <rect x="0.5" y="0.5" width="253" height="48" fill="none"/>
    </g>
    <g id="Retângulo_124995" data-name="Retângulo 124995" transform="translate(731 10867)" fill="none" stroke="#0023a2" stroke-width="1">
      <rect width="254" height="49" stroke="none"/>
      <rect x="0.5" y="0.5" width="253" height="48" fill="none"/>
    </g>
    <g id="Retângulo_124999" data-name="Retângulo 124999" transform="translate(731 11011)" fill="none" stroke="#0023a2" stroke-width="1">
      <rect width="254" height="49" stroke="none"/>
      <rect x="0.5" y="0.5" width="253" height="48" fill="none"/>
    </g>
    <g id="Retângulo_124963" data-name="Retângulo 124963" transform="translate(984 10483)" fill="none" stroke="#0023a2" stroke-width="1">
      <rect width="254" height="49" stroke="none"/>
      <rect x="0.5" y="0.5" width="253" height="48" fill="none"/>
    </g>
    <g id="Retângulo_124967" data-name="Retângulo 124967" transform="translate(984 10531)" fill="none" stroke="#0023a2" stroke-width="1">
      <rect width="254" height="49" stroke="none"/>
      <rect x="0.5" y="0.5" width="253" height="48" fill="none"/>
    </g>
    <g id="Retângulo_124971" data-name="Retângulo 124971" transform="translate(984 10579)" fill="none" stroke="#0023a2" stroke-width="1">
      <rect width="254" height="49" stroke="none"/>
      <rect x="0.5" y="0.5" width="253" height="48" fill="none"/>
    </g>
    <g id="Retângulo_124974" data-name="Retângulo 124974" transform="translate(984 10627)" fill="none" stroke="#0023a2" stroke-width="1">
      <rect width="254" height="49" stroke="none"/>
      <rect x="0.5" y="0.5" width="253" height="48" fill="none"/>
    </g>
    <g id="Retângulo_124978" data-name="Retângulo 124978" transform="translate(984 10675)" fill="none" stroke="#0023a2" stroke-width="1">
      <rect width="254" height="49" stroke="none"/>
      <rect x="0.5" y="0.5" width="253" height="48" fill="none"/>
    </g>
    <g id="Retângulo_124982" data-name="Retângulo 124982" transform="translate(984 10723)" fill="none" stroke="#0023a2" stroke-width="1">
      <rect width="254" height="49" stroke="none"/>
      <rect x="0.5" y="0.5" width="253" height="48" fill="none"/>
    </g>
    <g id="Retângulo_124986" data-name="Retângulo 124986" transform="translate(984 10771)" fill="none" stroke="#0023a2" stroke-width="1">
      <rect width="254" height="49" stroke="none"/>
      <rect x="0.5" y="0.5" width="253" height="48" fill="none"/>
    </g>
    <g id="Retângulo_125007" data-name="Retângulo 125007" transform="translate(984 10915)" fill="none" stroke="#0023a2" stroke-width="1">
      <rect width="254" height="49" stroke="none"/>
      <rect x="0.5" y="0.5" width="253" height="48" fill="none"/>
    </g>
    <g id="Retângulo_124990" data-name="Retângulo 124990" transform="translate(984 10819)" fill="none" stroke="#0023a2" stroke-width="1">
      <rect width="254" height="49" stroke="none"/>
      <rect x="0.5" y="0.5" width="253" height="48" fill="none"/>
    </g>
    <g id="Retângulo_125003" data-name="Retângulo 125003" transform="translate(984 10963)" fill="none" stroke="#0023a2" stroke-width="1">
      <rect width="254" height="49" stroke="none"/>
      <rect x="0.5" y="0.5" width="253" height="48" fill="none"/>
    </g>
    <g id="Retângulo_124994" data-name="Retângulo 124994" transform="translate(984 10867)" fill="none" stroke="#0023a2" stroke-width="1">
      <rect width="254" height="49" stroke="none"/>
      <rect x="0.5" y="0.5" width="253" height="48" fill="none"/>
    </g>
    <g id="Retângulo_124998" data-name="Retângulo 124998" transform="translate(984 11011)" fill="none" stroke="#0023a2" stroke-width="1">
      <rect width="254" height="49" stroke="none"/>
      <rect x="0.5" y="0.5" width="253" height="48" fill="none"/>
    </g>
    <g id="Retângulo_124964" data-name="Retângulo 124964" transform="translate(1237 10483)" fill="none" stroke="#0023a2" stroke-width="1">
      <rect width="254" height="49" stroke="none"/>
      <rect x="0.5" y="0.5" width="253" height="48" fill="none"/>
    </g>
    <g id="Retângulo_124968" data-name="Retângulo 124968" transform="translate(1237 10531)" fill="none" stroke="#0023a2" stroke-width="1">
      <rect width="254" height="49" stroke="none"/>
      <rect x="0.5" y="0.5" width="253" height="48" fill="none"/>
    </g>
    <g id="Retângulo_124972" data-name="Retângulo 124972" transform="translate(1237 10579)" fill="none" stroke="#0023a2" stroke-width="1">
      <rect width="254" height="49" stroke="none"/>
      <rect x="0.5" y="0.5" width="253" height="48" fill="none"/>
    </g>
    <g id="Retângulo_124973" data-name="Retângulo 124973" transform="translate(1237 10627)" fill="none" stroke="#0023a2" stroke-width="1">
      <rect width="254" height="49" stroke="none"/>
      <rect x="0.5" y="0.5" width="253" height="48" fill="none"/>
    </g>
    <g id="Retângulo_124977" data-name="Retângulo 124977" transform="translate(1237 10675)" fill="none" stroke="#0023a2" stroke-width="1">
      <rect width="254" height="49" stroke="none"/>
      <rect x="0.5" y="0.5" width="253" height="48" fill="none"/>
    </g>
    <g id="Retângulo_124981" data-name="Retângulo 124981" transform="translate(1237 10723)" fill="none" stroke="#0023a2" stroke-width="1">
      <rect width="254" height="49" stroke="none"/>
      <rect x="0.5" y="0.5" width="253" height="48" fill="none"/>
    </g>
    <g id="Retângulo_124985" data-name="Retângulo 124985" transform="translate(1237 10771)" fill="none" stroke="#0023a2" stroke-width="1">
      <rect width="254" height="49" stroke="none"/>
      <rect x="0.5" y="0.5" width="253" height="48" fill="none"/>
    </g>
    <g id="Retângulo_125008" data-name="Retângulo 125008" transform="translate(1237 10915)" fill="none" stroke="#0023a2" stroke-width="1">
      <rect width="254" height="49" stroke="none"/>
      <rect x="0.5" y="0.5" width="253" height="48" fill="none"/>
    </g>
    <g id="Retângulo_124989" data-name="Retângulo 124989" transform="translate(1237 10819)" fill="none" stroke="#0023a2" stroke-width="1">
      <rect width="254" height="49" stroke="none"/>
      <rect x="0.5" y="0.5" width="253" height="48" fill="none"/>
    </g>
    <g id="Retângulo_125004" data-name="Retângulo 125004" transform="translate(1237 10963)" fill="none" stroke="#0023a2" stroke-width="1">
      <rect width="254" height="49" stroke="none"/>
      <rect x="0.5" y="0.5" width="253" height="48" fill="none"/>
    </g>
    <g id="Retângulo_124993" data-name="Retângulo 124993" transform="translate(1237 10867)" fill="none" stroke="#0023a2" stroke-width="1">
      <rect width="254" height="49" stroke="none"/>
      <rect x="0.5" y="0.5" width="253" height="48" fill="none"/>
    </g>
    <g id="Retângulo_124997" data-name="Retângulo 124997" transform="translate(1237 11011)" fill="none" stroke="#0023a2" stroke-width="1">
      <rect width="254" height="49" stroke="none"/>
      <rect x="0.5" y="0.5" width="253" height="48" fill="none"/>
    </g>
    <path id="Caminho_772078" data-name="Caminho 772078" d="M4.809,14.548l.126-9.03H.252L.126,7.051l.189.168L2.772,7.2l.084,7.56V16.5c0,1.512-.735,2.31-2.562,3.255v.231l.756,1.2c2.814-1.239,3.8-2.5,3.8-4.683Zm6.51-5.418a6.729,6.729,0,0,0-3.78,1.26l.273,1.491.168.105a4.783,4.783,0,0,1,3-1.344A1.382,1.382,0,0,1,12.5,12.217l-.021,1.134-3.318.735a2.237,2.237,0,0,0-2.037,2.331c0,1.68,1.155,2.73,3.108,2.751a6.149,6.149,0,0,0,2.184-1.575h.147a1.635,1.635,0,0,0,1.533,1.554,3.422,3.422,0,0,0,1.323-.462l.21-1.176-.189-.147a3.212,3.212,0,0,1-.63.084c-.441,0-.609-.168-.609-.714,0-.714.252-4.242.252-4.977C14.448,10.1,13.23,9.13,11.319,9.13Zm1.155,5.46-.063,1.617a2.965,2.965,0,0,1-2.1,1.281A1.21,1.21,0,0,1,9.03,16.144a.775.775,0,0,1,.714-.9ZM23.6,19h2.163l-.1-4.242.063-2.73c.021-1.806-1.092-2.835-3.255-2.835a7.141,7.141,0,0,0-2.583,1.491H19.74l.021-1.407-2.037.189.105,5.481L17.7,19h2.142l-.126-4.242L19.74,12.2a3.767,3.767,0,0,1,2.52-1.26c1.008,0,1.512.651,1.491,1.7Zm12.033-4.746.357-.336a8.182,8.182,0,0,0,.084-1.05c0-2.31-1.281-3.717-3.528-3.717-2.814,0-4.641,1.911-4.641,5.061,0,3.066,1.68,4.977,4.578,4.977a6.816,6.816,0,0,0,2.94-.714l.252-1.7-.189-.126a5.765,5.765,0,0,1-2.835.882c-1.848,0-2.73-1.2-2.772-3.276Zm-1.512-1.407-4.137.1a2.461,2.461,0,0,1,2.436-2.331c1.05,0,1.743.609,1.743,1.974ZM39.438,4.8A1.136,1.136,0,0,0,38.22,6.022,1.066,1.066,0,0,0,39.375,7.2a1.131,1.131,0,0,0,1.176-1.239A1.039,1.039,0,0,0,39.438,4.8Zm.84,9.954.168-5.481L38.3,9.466l.1,5.481L38.283,19h2.142Zm7.98-5.46a3.1,3.1,0,0,0-2.646,1.911h-.147l.021-1.932-2.037.189.126,5.481L43.428,19H45.57l-.147-4.242.021-1.386c.735-1.449,1.47-2.037,2.331-2.037a2.939,2.939,0,0,1,.777.1l.231-.063V9.34A4.091,4.091,0,0,0,48.258,9.3Zm5.775-.168c-2.9,0-4.515,1.869-4.515,5.187,0,3.108,1.533,4.872,4.242,4.872,2.9,0,4.515-1.869,4.515-5.187C58.275,10.894,56.742,9.13,54.033,9.13Zm-.126,1.491c1.575,0,2.373,1.218,2.373,3.864,0,2.2-.8,3.234-2.373,3.234-1.6,0-2.394-1.2-2.394-3.864C51.513,11.692,52.311,10.621,53.907,10.621Z" transform="translate(495 10495)"/>
    <path id="Caminho_772077" data-name="Caminho 772077" d="M4.011,7.3l2.163-.021,3.15.126.168-1.7-.147-.189H1.806l.147,9.429L1.806,19H4.011l-.105-4.242.021-1.449,1.953-.021,2.394.063.168-1.638L8.3,11.524l-2.226.063-2.121-.042Zm13.125,6.951.357-.336a8.182,8.182,0,0,0,.084-1.05c0-2.31-1.281-3.717-3.528-3.717-2.814,0-4.641,1.911-4.641,5.061,0,3.066,1.68,4.977,4.578,4.977a6.816,6.816,0,0,0,2.94-.714l.252-1.7-.189-.126a5.765,5.765,0,0,1-2.835.882c-1.848,0-2.73-1.2-2.772-3.276Zm-1.512-1.407-4.137.1a2.461,2.461,0,0,1,2.436-2.331c1.05,0,1.743.609,1.743,1.974Zm5.229-2.163L20.58,9.256l-1.974.1L21.483,19h2.31l3.423-9.681h-1.89l-.357,1.47-2.142,6.153H22.68Zm14.658,3.57.357-.336a8.182,8.182,0,0,0,.084-1.05c0-2.31-1.281-3.717-3.528-3.717-2.814,0-4.641,1.911-4.641,5.061,0,3.066,1.68,4.977,4.578,4.977a6.816,6.816,0,0,0,2.94-.714l.252-1.7-.189-.126a5.765,5.765,0,0,1-2.835.882c-1.848,0-2.73-1.2-2.772-3.276ZM34,12.847l-4.137.1A2.461,2.461,0,0,1,32.3,10.621c1.05,0,1.743.609,1.743,1.974ZM42.987,9.3a3.1,3.1,0,0,0-2.646,1.911h-.147l.021-1.932-2.037.189.126,5.481L38.157,19H40.3l-.147-4.242.021-1.386c.735-1.449,1.47-2.037,2.331-2.037a2.939,2.939,0,0,1,.777.1l.231-.063V9.34A4.091,4.091,0,0,0,42.987,9.3Zm8.988,4.956.357-.336a8.182,8.182,0,0,0,.084-1.05c0-2.31-1.281-3.717-3.528-3.717-2.814,0-4.641,1.911-4.641,5.061,0,3.066,1.68,4.977,4.578,4.977a6.816,6.816,0,0,0,2.94-.714l.252-1.7-.189-.126a5.765,5.765,0,0,1-2.835.882c-1.848,0-2.73-1.2-2.772-3.276Zm-1.512-1.407-4.137.1a2.461,2.461,0,0,1,2.436-2.331c1.05,0,1.743.609,1.743,1.974ZM55.776,4.8a1.136,1.136,0,0,0-1.218,1.218A1.066,1.066,0,0,0,55.713,7.2a1.131,1.131,0,0,0,1.176-1.239A1.039,1.039,0,0,0,55.776,4.8Zm.84,9.954.168-5.481-2.142.189.1,5.481L54.621,19h2.142ZM64.6,9.3a3.1,3.1,0,0,0-2.646,1.911H61.8l.021-1.932-2.037.189.126,5.481L59.766,19h2.142l-.147-4.242.021-1.386c.735-1.449,1.47-2.037,2.331-2.037a2.939,2.939,0,0,1,.777.1l.231-.063V9.34A4.091,4.091,0,0,0,64.6,9.3Zm5.775-.168c-2.9,0-4.515,1.869-4.515,5.187,0,3.108,1.533,4.872,4.242,4.872,2.9,0,4.515-1.869,4.515-5.187C74.613,10.894,73.08,9.13,70.371,9.13Zm-.126,1.491c1.575,0,2.373,1.218,2.373,3.864,0,2.2-.8,3.234-2.373,3.234-1.6,0-2.394-1.2-2.394-3.864C67.851,11.692,68.649,10.621,70.245,10.621Z" transform="translate(495 10543)"/>
    <path id="Caminho_772076" data-name="Caminho 772076" d="M15.477,19,14.2,5.518H11.739l-.63,1.953-2.73,7.224H8.211L5.628,7.534,5,5.518H2.52L1.113,19H2.94l.336-4.284.63-5.9H4.1l3.213,8.694H9.03L12.5,8.815h.147l.63,6.09.273,4.1ZM21.4,9.13a6.729,6.729,0,0,0-3.78,1.26l.273,1.491.168.105a4.783,4.783,0,0,1,3-1.344,1.382,1.382,0,0,1,1.512,1.575l-.021,1.134-3.318.735A2.237,2.237,0,0,0,17.2,16.417c0,1.68,1.155,2.73,3.108,2.751a6.149,6.149,0,0,0,2.184-1.575h.147a1.635,1.635,0,0,0,1.533,1.554,3.422,3.422,0,0,0,1.323-.462l.21-1.176-.189-.147a3.212,3.212,0,0,1-.63.084c-.441,0-.609-.168-.609-.714,0-.714.252-4.242.252-4.977C24.528,10.1,23.31,9.13,21.4,9.13Zm1.155,5.46-.063,1.617a2.965,2.965,0,0,1-2.1,1.281,1.21,1.21,0,0,1-1.281-1.344.775.775,0,0,1,.714-.9ZM32.613,9.3a3.1,3.1,0,0,0-2.646,1.911H29.82l.021-1.932L27.8,9.466l.126,5.481L27.783,19h2.142l-.147-4.242.021-1.386c.735-1.449,1.47-2.037,2.331-2.037a2.939,2.939,0,0,1,.777.1l.231-.063V9.34A4.091,4.091,0,0,0,32.613,9.3Zm5.775,8.19c-1.6,0-2.5-1.26-2.5-3.4,0-2.037.882-3.192,2.373-3.192a4.1,4.1,0,0,1,2.058.651l.21-.084.357-1.785A6.3,6.3,0,0,0,38.3,9.13c-2.772,0-4.431,1.953-4.431,5.124,0,2.751,1.239,4.536,3.4,4.872l-.357,1.407,1.029.609c.231.1.4.231.4.462,0,.336-.252.525-.609.525a1.651,1.651,0,0,1-1.2-.651l-.1.042-.189.987a2.374,2.374,0,0,0,1.617.63c1.092,0,1.827-.609,1.827-1.47a1.285,1.285,0,0,0-.84-1.2l-.714-.42.252-.861a7.8,7.8,0,0,0,2.226-.483l.231-1.722-.21-.126A5.051,5.051,0,0,1,38.388,17.488ZM46.452,9.13c-2.9,0-4.515,1.869-4.515,5.187,0,3.108,1.533,4.872,4.242,4.872,2.9,0,4.515-1.869,4.515-5.187C50.694,10.894,49.161,9.13,46.452,9.13Zm-.126,1.491c1.575,0,2.373,1.218,2.373,3.864,0,2.2-.8,3.234-2.373,3.234-1.6,0-2.394-1.2-2.394-3.864C43.932,11.692,44.73,10.621,46.326,10.621Z" transform="translate(495 10591)"/>
    <path id="Caminho_772075" data-name="Caminho 772075" d="M11.928,19,7.581,5.518H5.04L.231,19H2.394l.336-1.617.63-1.764,2.583-.063,2.856.063.588,1.869L9.7,19ZM8.253,13.855,6.09,13.9l-2.121-.042,2.2-6.216h.147ZM18.291,9.214a6.874,6.874,0,0,0-2.52,1.449h-.126l.084-6.405-2.142.168.126,10.542-.147,4.074.336.21,1.323-.546a5.21,5.21,0,0,0,2.142.483c2.9,0,4.683-1.89,4.683-5.334C22.05,10.957,20.769,9.214,18.291,9.214Zm-.84,8.505a3.543,3.543,0,0,1-1.806-.567l-.063-2.436.042-2.52a3.261,3.261,0,0,1,2.31-1.26c1.365,0,2.079,1.176,2.121,3.213C20.076,16.606,19.026,17.719,17.451,17.719ZM29.148,9.3A3.1,3.1,0,0,0,26.5,11.209h-.147l.021-1.932-2.037.189.126,5.481L24.318,19H26.46l-.147-4.242.021-1.386c.735-1.449,1.47-2.037,2.331-2.037a2.939,2.939,0,0,1,.777.1l.231-.063V9.34A4.091,4.091,0,0,0,29.148,9.3Zm3.3-4.494a1.136,1.136,0,0,0-1.218,1.218A1.066,1.066,0,0,0,32.382,7.2a1.131,1.131,0,0,0,1.176-1.239A1.039,1.039,0,0,0,32.445,4.8Zm.84,9.954.168-5.481-2.142.189.1,5.481L31.29,19h2.142Zm5.25-.021L38.7,4.258l-2.142.168.126,10.5L36.54,19h2.142Z" transform="translate(495 10639)"/>
    <path id="Caminho_772074" data-name="Caminho 772074" d="M15.477,19,14.2,5.518H11.739l-.63,1.953-2.73,7.224H8.211L5.628,7.534,5,5.518H2.52L1.113,19H2.94l.336-4.284.63-5.9H4.1l3.213,8.694H9.03L12.5,8.815h.147l.63,6.09.273,4.1ZM21.4,9.13a6.729,6.729,0,0,0-3.78,1.26l.273,1.491.168.105a4.783,4.783,0,0,1,3-1.344,1.382,1.382,0,0,1,1.512,1.575l-.021,1.134-3.318.735A2.237,2.237,0,0,0,17.2,16.417c0,1.68,1.155,2.73,3.108,2.751a6.149,6.149,0,0,0,2.184-1.575h.147a1.635,1.635,0,0,0,1.533,1.554,3.422,3.422,0,0,0,1.323-.462l.21-1.176-.189-.147a3.212,3.212,0,0,1-.63.084c-.441,0-.609-.168-.609-.714,0-.714.252-4.242.252-4.977C24.528,10.1,23.31,9.13,21.4,9.13Zm1.155,5.46-.063,1.617a2.965,2.965,0,0,1-2.1,1.281,1.21,1.21,0,0,1-1.281-1.344.775.775,0,0,1,.714-.9ZM28.938,4.8A1.136,1.136,0,0,0,27.72,6.022,1.066,1.066,0,0,0,28.875,7.2a1.131,1.131,0,0,0,1.176-1.239A1.039,1.039,0,0,0,28.938,4.8Zm.84,9.954.168-5.481L27.8,9.466l.1,5.481L27.783,19h2.142ZM36.729,9.13c-2.9,0-4.515,1.869-4.515,5.187,0,3.108,1.533,4.872,4.242,4.872,2.9,0,4.515-1.869,4.515-5.187C40.971,10.894,39.438,9.13,36.729,9.13ZM36.6,10.621c1.575,0,2.373,1.218,2.373,3.864,0,2.2-.8,3.234-2.373,3.234-1.6,0-2.394-1.2-2.394-3.864C34.209,11.692,35.007,10.621,36.6,10.621Z" transform="translate(495 10687)"/>
    <path id="Caminho_772073" data-name="Caminho 772073" d="M4.809,14.548l.126-9.03H.252L.126,7.051l.189.168L2.772,7.2l.084,7.56V16.5c0,1.512-.735,2.31-2.562,3.255v.231l.756,1.2c2.814-1.239,3.8-2.5,3.8-4.683Zm10.9-5.271-2.037.189v6.825a3.443,3.443,0,0,1-2.289,1.071c-.987,0-1.47-.63-1.449-1.659l.1-6.426-2.121.189L8,13.666l-.042,2.625c-.021,1.806,1.113,2.835,3.234,2.835a6.313,6.313,0,0,0,2.52-1.47h.168a1.682,1.682,0,0,0,1.554,1.491,3.3,3.3,0,0,0,1.323-.462l.21-1.176-.189-.147a3.036,3.036,0,0,1-.651.084c-.42,0-.567-.168-.567-.693ZM24.738,19H26.9l-.1-4.242.063-2.73c.021-1.806-1.092-2.835-3.255-2.835a7.141,7.141,0,0,0-2.583,1.491h-.147L20.9,9.277l-2.037.189.1,5.481L18.837,19h2.142l-.126-4.242.021-2.562a3.767,3.767,0,0,1,2.52-1.26c1.008,0,1.512.651,1.491,1.7Zm11.025,0h2.163l-.105-4.242.063-2.73c.021-1.806-1.092-2.835-3.255-2.835a7.141,7.141,0,0,0-2.583,1.491H31.92l.1-6.426-2.142.168.1,10.5L29.862,19H32l-.147-4.263L31.9,12.2a3.767,3.767,0,0,1,2.52-1.26c1.008,0,1.512.651,1.491,1.7Zm8.8-9.87c-2.9,0-4.515,1.869-4.515,5.187,0,3.108,1.533,4.872,4.242,4.872,2.9,0,4.515-1.869,4.515-5.187C48.8,10.894,47.271,9.13,44.562,9.13Zm-.126,1.491c1.575,0,2.373,1.218,2.373,3.864,0,2.2-.8,3.234-2.373,3.234-1.6,0-2.394-1.2-2.394-3.864C42.042,11.692,42.84,10.621,44.436,10.621Z" transform="translate(495 10735)"/>
    <path id="Caminho_772072" data-name="Caminho 772072" d="M4.809,14.548l.126-9.03H.252L.126,7.051l.189.168L2.772,7.2l.084,7.56V16.5c0,1.512-.735,2.31-2.562,3.255v.231l.756,1.2c2.814-1.239,3.8-2.5,3.8-4.683Zm10.9-5.271-2.037.189v6.825a3.443,3.443,0,0,1-2.289,1.071c-.987,0-1.47-.63-1.449-1.659l.1-6.426-2.121.189L8,13.666l-.042,2.625c-.021,1.806,1.113,2.835,3.234,2.835a6.313,6.313,0,0,0,2.52-1.47h.168a1.682,1.682,0,0,0,1.554,1.491,3.3,3.3,0,0,0,1.323-.462l.21-1.176-.189-.147a3.036,3.036,0,0,1-.651.084c-.42,0-.567-.168-.567-.693Zm5.229,5.46.168-10.479-2.142.168.126,10.5L18.942,19h2.142ZM30.177,19H32.34l-.1-4.242.063-2.73c.021-1.806-1.092-2.835-3.255-2.835a7.141,7.141,0,0,0-2.583,1.491h-.126l.105-6.426L24.3,4.426l.1,10.5L24.276,19h2.142l-.147-4.263.042-2.541a3.767,3.767,0,0,1,2.52-1.26c1.008,0,1.512.651,1.491,1.7Zm8.8-9.87c-2.9,0-4.515,1.869-4.515,5.187,0,3.108,1.533,4.872,4.242,4.872,2.9,0,4.515-1.869,4.515-5.187C43.218,10.894,41.685,9.13,38.976,9.13Zm-.126,1.491c1.575,0,2.373,1.218,2.373,3.864,0,2.2-.8,3.234-2.373,3.234-1.6,0-2.394-1.2-2.394-3.864C36.456,11.692,37.254,10.621,38.85,10.621Z" transform="translate(495 10783)"/>
    <path id="Caminho_772069" data-name="Caminho 772069" d="M6.909,5.35c-3.969,0-6.2,2.52-6.2,7.035,0,4.326,2.079,6.8,5.8,6.8,3.948,0,6.195-2.6,6.195-7.2C12.7,7.744,10.626,5.35,6.909,5.35ZM6.72,7.135c2.541,0,3.738,1.6,3.738,5.25,0,3.486-1.239,5.061-3.78,5.061S2.94,15.808,2.94,12.112C2.94,8.689,4.158,7.135,6.72,7.135ZM22.6,9.277l-2.037.189v6.825a3.443,3.443,0,0,1-2.289,1.071c-.987,0-1.47-.63-1.449-1.659l.105-6.426L14.8,9.466l.084,4.2-.042,2.625c-.021,1.806,1.113,2.835,3.234,2.835a6.313,6.313,0,0,0,2.52-1.47h.168a1.682,1.682,0,0,0,1.554,1.491,3.3,3.3,0,0,0,1.323-.462l.21-1.176-.189-.147a3.036,3.036,0,0,1-.651.084c-.42,0-.567-.168-.567-.693Zm6.552,8.106c-.861,0-1.239-.336-1.218-1.386l.1-5.271h2.709l.1-1.218-.084-.147H28.077l.042-2.079-.189-.168-1.89.714V9.361H24.759l-.1,1.239.084.126h1.323l.021,4.095L26,16.333a2.506,2.506,0,0,0,2.478,2.793,6.062,6.062,0,0,0,2.142-.63l.21-1.344L30.618,17A3.311,3.311,0,0,1,29.148,17.383Zm11.13-8.106-2.037.189v6.825a3.443,3.443,0,0,1-2.289,1.071c-.987,0-1.47-.63-1.449-1.659l.105-6.426-2.121.189.084,4.2-.042,2.625c-.021,1.806,1.113,2.835,3.234,2.835a6.313,6.313,0,0,0,2.52-1.47h.168a1.682,1.682,0,0,0,1.554,1.491,3.3,3.3,0,0,0,1.323-.462l.21-1.176-.189-.147a3.036,3.036,0,0,1-.651.084c-.42,0-.567-.168-.567-.693Zm7.938-.063a6.874,6.874,0,0,0-2.52,1.449H45.57l.084-6.405-2.142.168.126,10.542-.147,4.074.336.21,1.323-.546a5.21,5.21,0,0,0,2.142.483c2.9,0,4.683-1.89,4.683-5.334C51.975,10.957,50.694,9.214,48.216,9.214Zm-.84,8.505a3.543,3.543,0,0,1-1.806-.567l-.063-2.436.042-2.52a3.261,3.261,0,0,1,2.31-1.26c1.365,0,2.079,1.176,2.121,3.213C50,16.606,48.951,17.719,47.376,17.719ZM59.073,9.3a3.1,3.1,0,0,0-2.646,1.911H56.28L56.3,9.277l-2.037.189.126,5.481L54.243,19h2.142l-.147-4.242.021-1.386c.735-1.449,1.47-2.037,2.331-2.037a2.939,2.939,0,0,1,.777.1l.231-.063V9.34A4.091,4.091,0,0,0,59.073,9.3Zm5.775-.168c-2.9,0-4.515,1.869-4.515,5.187,0,3.108,1.533,4.872,4.242,4.872,2.9,0,4.515-1.869,4.515-5.187C69.09,10.894,67.557,9.13,64.848,9.13Zm-.126,1.491c1.575,0,2.373,1.218,2.373,3.864,0,2.2-.8,3.234-2.373,3.234-1.6,0-2.394-1.2-2.394-3.864C62.328,11.692,63.126,10.621,64.722,10.621Z" transform="translate(495 10927)"/>
    <path id="Caminho_772071" data-name="Caminho 772071" d="M11.928,19,7.581,5.518H5.04L.231,19H2.394l.336-1.617.63-1.764,2.583-.063,2.856.063.588,1.869L9.7,19ZM8.253,13.855,6.09,13.9l-2.121-.042,2.2-6.216h.147ZM22.722,8.941l-.189-.126a22.291,22.291,0,0,1-3.108.735,4.881,4.881,0,0,0-1.932-.357c-2.373,0-3.927,1.26-3.927,3.423A2.892,2.892,0,0,0,15.015,15.3v.105a4.628,4.628,0,0,0-1.344,1.281c0,.987.651,1.47,1.533,1.764v.1a5.389,5.389,0,0,0-1.806,1.7c0,1.617,1.281,2.814,3.717,2.814,2.646,0,4.641-1.428,4.641-3.3,0-3.213-6.174-1.89-6.174-3.381,0-.231.105-.42.441-.693a6.163,6.163,0,0,0,1.281.126c2.457,0,3.969-1.323,3.969-3.381a3.132,3.132,0,0,0-.4-1.617l.042-.084a11.94,11.94,0,0,0,1.806-.4Zm-5.334,5.523a1.755,1.755,0,0,1-1.932-1.953,1.775,1.775,0,0,1,2.016-1.932,1.688,1.688,0,0,1,1.911,1.869A1.82,1.82,0,0,1,17.388,14.464Zm2.52,5.712c0,.9-1.071,1.512-2.541,1.512-1.428,0-2.142-.567-2.142-1.3,0-.588.483-1.092,1.344-1.638C18.207,19,19.908,19.063,19.908,20.176ZM27.888,9.13c-2.9,0-4.515,1.869-4.515,5.187,0,3.108,1.533,4.872,4.242,4.872,2.9,0,4.515-1.869,4.515-5.187C32.13,10.894,30.6,9.13,27.888,9.13Zm-.126,1.491c1.575,0,2.373,1.218,2.373,3.864,0,2.2-.8,3.234-2.373,3.234-1.6,0-2.394-1.2-2.394-3.864C25.368,11.692,26.166,10.621,27.762,10.621Zm9.576-1.47c-2.226,0-3.528,1.26-3.528,2.919,0,3.045,4.347,2.646,4.347,4.431a1.342,1.342,0,0,1-1.491,1.239,4.437,4.437,0,0,1-2.688-1.134l-.231.147L33.5,18.538a7.6,7.6,0,0,0,2.94.651c2.415,0,3.633-1.491,3.633-3.045,0-2.961-4.347-2.583-4.347-4.347a1.226,1.226,0,0,1,1.365-1.155,3.917,3.917,0,0,1,2.142.735l.273-.063.294-1.68A6.649,6.649,0,0,0,37.338,9.151Zm8.4,8.232c-.861,0-1.239-.336-1.218-1.386l.1-5.271h2.709l.105-1.218-.084-.147H44.667l.042-2.079-.189-.168-1.89.714V9.361H41.349L41.244,10.6l.084.126h1.323l.021,4.095-.084,1.512a2.506,2.506,0,0,0,2.478,2.793,6.062,6.062,0,0,0,2.142-.63l.21-1.344L47.208,17A3.311,3.311,0,0,1,45.738,17.383ZM52.689,9.13c-2.9,0-4.515,1.869-4.515,5.187,0,3.108,1.533,4.872,4.242,4.872,2.9,0,4.515-1.869,4.515-5.187C56.931,10.894,55.4,9.13,52.689,9.13Zm-.126,1.491c1.575,0,2.373,1.218,2.373,3.864,0,2.2-.8,3.234-2.373,3.234-1.6,0-2.394-1.2-2.394-3.864C50.169,11.692,50.967,10.621,52.563,10.621Z" transform="translate(495 10831)"/>
    <path id="Caminho_772068" data-name="Caminho 772068" d="M12.5,14.968l.147-9.492L10.6,5.623l.063,10H10.5L4.158,5.518H1.848l.1,9.492L1.806,19H3.843l-.105-4.515L3.759,8.9h.168L10.248,19h2.331Zm7.14-5.838c-2.9,0-4.515,1.869-4.515,5.187,0,3.108,1.533,4.872,4.242,4.872,2.9,0,4.515-1.869,4.515-5.187C23.877,10.894,22.344,9.13,19.635,9.13Zm-.126,1.491c1.575,0,2.373,1.218,2.373,3.864,0,2.2-.8,3.234-2.373,3.234-1.6,0-2.394-1.2-2.394-3.864C17.115,11.692,17.913,10.621,19.509,10.621Zm7.476.063-.273-1.428-1.974.1L27.615,19h2.31l3.423-9.681h-1.89l-.357,1.47-2.142,6.153h-.147Zm14.658,3.57L42,13.918a8.182,8.182,0,0,0,.084-1.05c0-2.31-1.281-3.717-3.528-3.717-2.814,0-4.641,1.911-4.641,5.061,0,3.066,1.68,4.977,4.578,4.977a6.816,6.816,0,0,0,2.94-.714l.252-1.7-.189-.126a5.765,5.765,0,0,1-2.835.882c-1.848,0-2.73-1.2-2.772-3.276Zm-1.512-1.407-4.137.1a2.461,2.461,0,0,1,2.436-2.331c1.05,0,1.743.609,1.743,1.974ZM56.112,19h2.163l-.1-4.242.063-2.73c.021-1.806-1.092-2.835-3.255-2.835a7.616,7.616,0,0,0-2.772,1.575H52.08c-.42-1.008-1.449-1.575-3.024-1.575a6.974,6.974,0,0,0-2.583,1.491h-.147l.021-1.407-2.037.189.1,5.481L44.289,19H46.41l-.1-4.242.021-2.562a3.767,3.767,0,0,1,2.52-1.26c1.008,0,1.512.651,1.491,1.7L50.19,19h2.142l-.084-4.242.042-2.6a3.7,3.7,0,0,1,2.478-1.218c1.008,0,1.512.651,1.491,1.7Zm9.765-9.786a6.874,6.874,0,0,0-2.52,1.449h-.126l.084-6.405-2.142.168L61.3,14.968l-.147,4.074.336.21,1.323-.546a5.21,5.21,0,0,0,2.142.483c2.9,0,4.683-1.89,4.683-5.334C69.636,10.957,68.355,9.214,65.877,9.214Zm-.84,8.505a3.543,3.543,0,0,1-1.806-.567l-.063-2.436.042-2.52a3.261,3.261,0,0,1,2.31-1.26c1.365,0,2.079,1.176,2.121,3.213C67.662,16.606,66.612,17.719,65.037,17.719ZM76.734,9.3a3.1,3.1,0,0,0-2.646,1.911h-.147l.021-1.932-2.037.189.126,5.481L71.9,19h2.142L73.9,14.758l.021-1.386c.735-1.449,1.47-2.037,2.331-2.037a2.939,2.939,0,0,1,.777.1l.231-.063V9.34A4.091,4.091,0,0,0,76.734,9.3Zm5.775-.168c-2.9,0-4.515,1.869-4.515,5.187,0,3.108,1.533,4.872,4.242,4.872,2.9,0,4.515-1.869,4.515-5.187C86.751,10.894,85.218,9.13,82.509,9.13Zm-.126,1.491c1.575,0,2.373,1.218,2.373,3.864,0,2.2-.8,3.234-2.373,3.234-1.6,0-2.394-1.2-2.394-3.864C79.989,11.692,80.787,10.621,82.383,10.621Z" transform="translate(495 10975)"/>
    <path id="Caminho_772070" data-name="Caminho 772070" d="M5.754,5.371C3,5.371,1.134,7.093,1.134,9.3c0,3.948,6.048,3.591,6.048,6.216a2.136,2.136,0,0,1-2.394,1.953A5.285,5.285,0,0,1,1.344,16l-.273.126L.8,18.265a8.833,8.833,0,0,0,3.78.9c2.856,0,4.746-1.806,4.746-3.99,0-3.927-6.069-3.7-6.069-6.174A2.039,2.039,0,0,1,5.5,7.114,4.868,4.868,0,0,1,8.253,8.143l.336-.126.357-1.974A8.289,8.289,0,0,0,5.754,5.371Zm12.5,8.883.357-.336a8.182,8.182,0,0,0,.084-1.05c0-2.31-1.281-3.717-3.528-3.717-2.814,0-4.641,1.911-4.641,5.061,0,3.066,1.68,4.977,4.578,4.977a6.816,6.816,0,0,0,2.94-.714l.252-1.7-.189-.126a5.765,5.765,0,0,1-2.835.882c-1.848,0-2.73-1.2-2.772-3.276Zm-1.512-1.407-4.137.1a2.461,2.461,0,0,1,2.436-2.331c1.05,0,1.743.609,1.743,1.974Zm7.581,4.536c-.861,0-1.239-.336-1.218-1.386l.1-5.271h2.709l.105-1.218-.084-.147H23.247l.042-2.079L23.1,7.114l-1.89.714V9.361H19.929l-.1,1.239.084.126h1.323l.021,4.095-.084,1.512a2.506,2.506,0,0,0,2.478,2.793,6.062,6.062,0,0,0,2.142-.63L26,17.152,25.788,17A3.311,3.311,0,0,1,24.318,17.383Zm10.164-3.129.357-.336a8.182,8.182,0,0,0,.084-1.05c0-2.31-1.281-3.717-3.528-3.717-2.814,0-4.641,1.911-4.641,5.061,0,3.066,1.68,4.977,4.578,4.977a6.816,6.816,0,0,0,2.94-.714l.252-1.7-.189-.126a5.765,5.765,0,0,1-2.835.882c-1.848,0-2.73-1.2-2.772-3.276ZM32.97,12.847l-4.137.1a2.461,2.461,0,0,1,2.436-2.331c1.05,0,1.743.609,1.743,1.974ZM48.951,19h2.163l-.1-4.242.063-2.73c.021-1.806-1.092-2.835-3.255-2.835a7.616,7.616,0,0,0-2.772,1.575h-.126C44.5,9.76,43.47,9.193,41.9,9.193a6.974,6.974,0,0,0-2.583,1.491h-.147l.021-1.407-2.037.189.1,5.481L37.128,19h2.121l-.1-4.242.021-2.562a3.767,3.767,0,0,1,2.52-1.26c1.008,0,1.512.651,1.491,1.7L43.029,19h2.142l-.084-4.242.042-2.6a3.7,3.7,0,0,1,2.478-1.218c1.008,0,1.512.651,1.491,1.7Zm9.765-9.786a6.874,6.874,0,0,0-2.52,1.449H56.07l.084-6.405-2.142.168.126,10.542-.147,4.074.336.21,1.323-.546a5.21,5.21,0,0,0,2.142.483c2.9,0,4.683-1.89,4.683-5.334C62.475,10.957,61.194,9.214,58.716,9.214Zm-.84,8.505a3.543,3.543,0,0,1-1.806-.567l-.063-2.436.042-2.52a3.261,3.261,0,0,1,2.31-1.26c1.365,0,2.079,1.176,2.121,3.213C60.5,16.606,59.451,17.719,57.876,17.719ZM69.573,9.3a3.1,3.1,0,0,0-2.646,1.911H66.78L66.8,9.277l-2.037.189.126,5.481L64.743,19h2.142l-.147-4.242.021-1.386c.735-1.449,1.47-2.037,2.331-2.037a2.939,2.939,0,0,1,.777.1l.231-.063V9.34A4.091,4.091,0,0,0,69.573,9.3Zm5.775-.168c-2.9,0-4.515,1.869-4.515,5.187,0,3.108,1.533,4.872,4.242,4.872,2.9,0,4.515-1.869,4.515-5.187C79.59,10.894,78.057,9.13,75.348,9.13Zm-.126,1.491c1.575,0,2.373,1.218,2.373,3.864,0,2.2-.8,3.234-2.373,3.234-1.6,0-2.394-1.2-2.394-3.864C72.828,11.692,73.626,10.621,75.222,10.621Z" transform="translate(495 10879)"/>
    <path id="Caminho_772067" data-name="Caminho 772067" d="M1.827,5.518H1.806l.147,9.429L1.806,19h.021c1.239.063,3.612.126,4.515.126,4.242,0,6.594-2.6,6.594-7.35,0-4.095-2.142-6.342-6.006-6.342ZM6.72,17.4c-.441,0-1.806-.063-2.751-.147l-.063-2.5.105-7.476c.8-.042,2.31-.084,2.751-.084,2.625,0,3.927,1.575,3.927,5.061C10.689,15.766,9.24,17.4,6.72,17.4Zm15.372-3.15.357-.336a8.182,8.182,0,0,0,.084-1.05c0-2.31-1.281-3.717-3.528-3.717-2.814,0-4.641,1.911-4.641,5.061,0,3.066,1.68,4.977,4.578,4.977a6.816,6.816,0,0,0,2.94-.714l.252-1.7-.189-.126a5.765,5.765,0,0,1-2.835.882c-1.848,0-2.73-1.2-2.772-3.276ZM20.58,12.847l-4.137.1a2.461,2.461,0,0,1,2.436-2.331c1.05,0,1.743.609,1.743,1.974Zm5.481-3.528L24.15,9.277,24,10.747l.126.168,1.617-.168h3.276l-5.145,7.035.021,1.26L25.032,19h4.032l2.163.042.168-1.47-.126-.168-1.68.168H26.145l5.124-6.993L31.227,9.3l-.924.021Zm14.217,4.935.357-.336a8.182,8.182,0,0,0,.084-1.05c0-2.31-1.281-3.717-3.528-3.717-2.814,0-4.641,1.911-4.641,5.061,0,3.066,1.68,4.977,4.578,4.977a6.816,6.816,0,0,0,2.94-.714l.252-1.7-.189-.126a5.765,5.765,0,0,1-2.835.882c-1.848,0-2.73-1.2-2.772-3.276Zm-1.512-1.407-4.137.1a2.461,2.461,0,0,1,2.436-2.331c1.05,0,1.743.609,1.743,1.974ZM54.747,19H56.91l-.1-4.242.063-2.73c.021-1.806-1.092-2.835-3.255-2.835a7.616,7.616,0,0,0-2.772,1.575h-.126c-.42-1.008-1.449-1.575-3.024-1.575a6.974,6.974,0,0,0-2.583,1.491h-.147l.021-1.407-2.037.189.1,5.481L42.924,19h2.121l-.1-4.242.021-2.562a3.767,3.767,0,0,1,2.52-1.26c1.008,0,1.512.651,1.491,1.7L48.825,19h2.142l-.084-4.242.042-2.6A3.7,3.7,0,0,1,53.4,10.936c1.008,0,1.512.651,1.491,1.7Zm9.765-9.786a6.874,6.874,0,0,0-2.52,1.449h-.126l.084-6.405-2.142.168.126,10.542-.147,4.074.336.21,1.323-.546a5.21,5.21,0,0,0,2.142.483c2.9,0,4.683-1.89,4.683-5.334C68.271,10.957,66.99,9.214,64.512,9.214Zm-.84,8.505a3.543,3.543,0,0,1-1.806-.567L61.8,14.716l.042-2.52a3.261,3.261,0,0,1,2.31-1.26c1.365,0,2.079,1.176,2.121,3.213C66.3,16.606,65.247,17.719,63.672,17.719ZM75.369,9.3a3.1,3.1,0,0,0-2.646,1.911h-.147L72.6,9.277l-2.037.189.126,5.481L70.539,19h2.142l-.147-4.242.021-1.386c.735-1.449,1.47-2.037,2.331-2.037a2.939,2.939,0,0,1,.777.1l.231-.063V9.34A4.091,4.091,0,0,0,75.369,9.3Zm5.775-.168c-2.9,0-4.515,1.869-4.515,5.187,0,3.108,1.533,4.872,4.242,4.872,2.9,0,4.515-1.869,4.515-5.187C85.386,10.894,83.853,9.13,81.144,9.13Zm-.126,1.491c1.575,0,2.373,1.218,2.373,3.864,0,2.2-.8,3.234-2.373,3.234-1.6,0-2.394-1.2-2.394-3.864C78.624,11.692,79.422,10.621,81.018,10.621Z" transform="translate(495 11023)"/>
    <path id="Caminho_772055" data-name="Caminho 772055" d="M4.116,8.353A5.663,5.663,0,0,0,.588,9.634L.9,11.251h.231A4.077,4.077,0,0,1,3.7,10.1a1.457,1.457,0,0,1,1.659,1.47,2.313,2.313,0,0,1-2.331,2.121l-.924.021-.063,1.47.126.147H3.486c1.554.063,2.373.735,2.373,1.89,0,1.344-1.113,2.163-2.835,2.163A5.641,5.641,0,0,1,.8,18.916l-.147.147.105,1.764a14.534,14.534,0,0,0,2.163.189c2.982,0,4.977-1.6,4.977-3.969A2.793,2.793,0,0,0,5.46,14.275v-.084A3.532,3.532,0,0,0,7.518,11.1C7.518,9.466,6.153,8.353,4.116,8.353ZM14.49,8.332c-3.024,0-4.767,2.037-4.767,5.586,0,3.339,1.638,5.25,4.494,5.25,3.024,0,4.725-2.016,4.725-5.544C18.942,10.243,17.325,8.332,14.49,8.332Zm-.168,1.974c1.932,0,2.961,1.176,2.961,3.57,0,2.268-1.008,3.4-2.94,3.4-1.974,0-2.94-1.176-2.94-3.507S12.369,10.306,14.322,10.306Z" transform="translate(748 10495)"/>
    <path id="Caminho_772056" data-name="Caminho 772056" d="M9.555,17.614l.1-1.512-.126-.189H7.644l.063-7.434H5.733L.5,16.039v1.386l.147.189,1.575-.042h3.7L5.859,20.89l.126.147,1.638-.126.126-.168-.084-3.171Zm-7.182-1.7,3.4-4.935h.168v4.935ZM15.96,8.332c-3.024,0-4.767,2.037-4.767,5.586,0,3.339,1.638,5.25,4.494,5.25,3.024,0,4.725-2.016,4.725-5.544C20.412,10.243,18.8,8.332,15.96,8.332Zm-.168,1.974c1.932,0,2.961,1.176,2.961,3.57,0,2.268-1.008,3.4-2.94,3.4-1.974,0-2.94-1.176-2.94-3.507S13.839,10.306,15.792,10.306Z" transform="translate(748 10543)"/>
    <path id="Caminho_772057" data-name="Caminho 772057" d="M8.106,8.521,7.98,8.374l-2.058.105H3L1.848,8.416l-.294.294-.1,5.67.168.189,1.869.357c1.764.315,2.457.966,2.457,2.079,0,1.407-1.092,2.373-2.835,2.373a5.822,5.822,0,0,1-2.394-.525l-.168.168.147,1.806a11.921,11.921,0,0,0,2.121.231c3.024,0,5.145-1.785,5.145-4.389,0-1.659-.882-2.772-3.528-3.318l-1.3-.273L3.192,10.2H6.006l1.722.147.147-.147Zm6.447-.189c-3.024,0-4.767,2.037-4.767,5.586,0,3.339,1.638,5.25,4.494,5.25,3.024,0,4.725-2.016,4.725-5.544C19.005,10.243,17.388,8.332,14.553,8.332Zm-.168,1.974c1.932,0,2.961,1.176,2.961,3.57,0,2.268-1.008,3.4-2.94,3.4-1.974,0-2.94-1.176-2.94-3.507S12.432,10.306,14.385,10.306Z" transform="translate(748 10591)"/>
    <path id="Caminho_772058" data-name="Caminho 772058" d="M9.555,17.614l.1-1.512-.126-.189H7.644l.063-7.434H5.733L.5,16.039v1.386l.147.189,1.575-.042h3.7L5.859,20.89l.126.147,1.638-.126.126-.168-.084-3.171Zm-7.182-1.7,3.4-4.935h.168v4.935ZM18.4,8.521l-.126-.147-2.058.105H13.293l-1.155-.063-.294.294-.1,5.67.168.189,1.869.357c1.764.315,2.457.966,2.457,2.079,0,1.407-1.092,2.373-2.835,2.373A5.822,5.822,0,0,1,11,18.853l-.168.168.147,1.806a11.921,11.921,0,0,0,2.121.231c3.024,0,5.145-1.785,5.145-4.389,0-1.659-.882-2.772-3.528-3.318l-1.3-.273.063-2.877H16.3l1.722.147.147-.147Z" transform="translate(748 10639)"/>
    <path id="Caminho_772059" data-name="Caminho 772059" d="M8.106,8.521,7.98,8.374l-2.058.105H3L1.848,8.416l-.294.294-.1,5.67.168.189,1.869.357c1.764.315,2.457.966,2.457,2.079,0,1.407-1.092,2.373-2.835,2.373a5.822,5.822,0,0,1-2.394-.525l-.168.168.147,1.806a11.921,11.921,0,0,0,2.121.231c3.024,0,5.145-1.785,5.145-4.389,0-1.659-.882-2.772-3.528-3.318l-1.3-.273L3.192,10.2H6.006l1.722.147.147-.147Zm6.447-.189c-3.024,0-4.767,2.037-4.767,5.586,0,3.339,1.638,5.25,4.494,5.25,3.024,0,4.725-2.016,4.725-5.544C19.005,10.243,17.388,8.332,14.553,8.332Zm-.168,1.974c1.932,0,2.961,1.176,2.961,3.57,0,2.268-1.008,3.4-2.94,3.4-1.974,0-2.94-1.176-2.94-3.507S12.432,10.306,14.385,10.306Z" transform="translate(748 10687)"/>
    <path id="Caminho_772060" data-name="Caminho 772060" d="M4.116,8.353A5.663,5.663,0,0,0,.588,9.634L.9,11.251h.231A4.077,4.077,0,0,1,3.7,10.1a1.457,1.457,0,0,1,1.659,1.47,2.313,2.313,0,0,1-2.331,2.121l-.924.021-.063,1.47.126.147H3.486c1.554.063,2.373.735,2.373,1.89,0,1.344-1.113,2.163-2.835,2.163A5.641,5.641,0,0,1,.8,18.916l-.147.147.105,1.764a14.534,14.534,0,0,0,2.163.189c2.982,0,4.977-1.6,4.977-3.969A2.793,2.793,0,0,0,5.46,14.275v-.084A3.532,3.532,0,0,0,7.518,11.1C7.518,9.466,6.153,8.353,4.116,8.353ZM14.49,8.332c-3.024,0-4.767,2.037-4.767,5.586,0,3.339,1.638,5.25,4.494,5.25,3.024,0,4.725-2.016,4.725-5.544C18.942,10.243,17.325,8.332,14.49,8.332Zm-.168,1.974c1.932,0,2.961,1.176,2.961,3.57,0,2.268-1.008,3.4-2.94,3.4-1.974,0-2.94-1.176-2.94-3.507S12.369,10.306,14.322,10.306Z" transform="translate(748 10735)"/>
    <path id="Caminho_772061" data-name="Caminho 772061" d="M4.935,8.374A6.4,6.4,0,0,0,1.05,9.886l.357,1.659h.231A4.175,4.175,0,0,1,4.473,10.2c.924,0,1.428.483,1.428,1.134,0,.819-.735,1.806-2.1,3.276L.924,17.635v1.323l.1.084L1.806,19H6.552l2.31.1.273-1.764-.147-.147-1.827.168H3.738l-.042-.1,1.869-2.121C7.245,13.246,8,11.944,8,10.81,8,9.319,6.7,8.374,4.935,8.374Zm10.437-.042c-3.024,0-4.767,2.037-4.767,5.586,0,3.339,1.638,5.25,4.494,5.25,3.024,0,4.725-2.016,4.725-5.544C19.824,10.243,18.207,8.332,15.372,8.332ZM15.2,10.306c1.932,0,2.961,1.176,2.961,3.57,0,2.268-1.008,3.4-2.94,3.4-1.974,0-2.94-1.176-2.94-3.507S13.251,10.306,15.2,10.306Z" transform="translate(748 10783)"/>
    <path id="Caminho_772064" data-name="Caminho 772064" d="M9.555,17.614l.1-1.512-.126-.189H7.644l.063-7.434H5.733L.5,16.039v1.386l.147.189,1.575-.042h3.7L5.859,20.89l.126.147,1.638-.126.126-.168-.084-3.171Zm-7.182-1.7,3.4-4.935h.168v4.935ZM15.96,8.332c-3.024,0-4.767,2.037-4.767,5.586,0,3.339,1.638,5.25,4.494,5.25,3.024,0,4.725-2.016,4.725-5.544C20.412,10.243,18.8,8.332,15.96,8.332Zm-.168,1.974c1.932,0,2.961,1.176,2.961,3.57,0,2.268-1.008,3.4-2.94,3.4-1.974,0-2.94-1.176-2.94-3.507S13.839,10.306,15.792,10.306Z" transform="translate(748 10927)"/>
    <path id="Caminho_772062" data-name="Caminho 772062" d="M8.106,8.521,7.98,8.374l-2.058.105H3L1.848,8.416l-.294.294-.1,5.67.168.189,1.869.357c1.764.315,2.457.966,2.457,2.079,0,1.407-1.092,2.373-2.835,2.373a5.822,5.822,0,0,1-2.394-.525l-.168.168.147,1.806a11.921,11.921,0,0,0,2.121.231c3.024,0,5.145-1.785,5.145-4.389,0-1.659-.882-2.772-3.528-3.318l-1.3-.273L3.192,10.2H6.006l1.722.147.147-.147Zm6.447-.189c-3.024,0-4.767,2.037-4.767,5.586,0,3.339,1.638,5.25,4.494,5.25,3.024,0,4.725-2.016,4.725-5.544C19.005,10.243,17.388,8.332,14.553,8.332Zm-.168,1.974c1.932,0,2.961,1.176,2.961,3.57,0,2.268-1.008,3.4-2.94,3.4-1.974,0-2.94-1.176-2.94-3.507S12.432,10.306,14.385,10.306Z" transform="translate(748 10831)"/>
    <path id="Caminho_772065" data-name="Caminho 772065" d="M4.116,8.353A5.663,5.663,0,0,0,.588,9.634L.9,11.251h.231A4.077,4.077,0,0,1,3.7,10.1a1.457,1.457,0,0,1,1.659,1.47,2.313,2.313,0,0,1-2.331,2.121l-.924.021-.063,1.47.126.147H3.486c1.554.063,2.373.735,2.373,1.89,0,1.344-1.113,2.163-2.835,2.163A5.641,5.641,0,0,1,.8,18.916l-.147.147.105,1.764a14.534,14.534,0,0,0,2.163.189c2.982,0,4.977-1.6,4.977-3.969A2.793,2.793,0,0,0,5.46,14.275v-.084A3.532,3.532,0,0,0,7.518,11.1C7.518,9.466,6.153,8.353,4.116,8.353Zm12.81.168L16.8,8.374l-2.058.105H11.823l-1.155-.063-.294.294-.1,5.67.168.189,1.869.357c1.764.315,2.457.966,2.457,2.079,0,1.407-1.092,2.373-2.835,2.373a5.822,5.822,0,0,1-2.394-.525l-.168.168.147,1.806a11.921,11.921,0,0,0,2.121.231c3.024,0,5.145-1.785,5.145-4.389,0-1.659-.882-2.772-3.528-3.318l-1.3-.273.063-2.877h2.814l1.722.147.147-.147Z" transform="translate(748 10975)"/>
    <path id="Caminho_772063" data-name="Caminho 772063" d="M9.555,17.614l.1-1.512-.126-.189H7.644l.063-7.434H5.733L.5,16.039v1.386l.147.189,1.575-.042h3.7L5.859,20.89l.126.147,1.638-.126.126-.168-.084-3.171Zm-7.182-1.7,3.4-4.935h.168v4.935ZM18.4,8.521l-.126-.147-2.058.105H13.293l-1.155-.063-.294.294-.1,5.67.168.189,1.869.357c1.764.315,2.457.966,2.457,2.079,0,1.407-1.092,2.373-2.835,2.373A5.822,5.822,0,0,1,11,18.853l-.168.168.147,1.806a11.921,11.921,0,0,0,2.121.231c3.024,0,5.145-1.785,5.145-4.389,0-1.659-.882-2.772-3.528-3.318l-1.3-.273.063-2.877H16.3l1.722.147.147-.147Z" transform="translate(748 10879)"/>
    <path id="Caminho_772066" data-name="Caminho 772066" d="M8.106,8.521,7.98,8.374l-2.058.105H3L1.848,8.416l-.294.294-.1,5.67.168.189,1.869.357c1.764.315,2.457.966,2.457,2.079,0,1.407-1.092,2.373-2.835,2.373a5.822,5.822,0,0,1-2.394-.525l-.168.168.147,1.806a11.921,11.921,0,0,0,2.121.231c3.024,0,5.145-1.785,5.145-4.389,0-1.659-.882-2.772-3.528-3.318l-1.3-.273L3.192,10.2H6.006l1.722.147.147-.147Zm6.447-.189c-3.024,0-4.767,2.037-4.767,5.586,0,3.339,1.638,5.25,4.494,5.25,3.024,0,4.725-2.016,4.725-5.544C19.005,10.243,17.388,8.332,14.553,8.332Zm-.168,1.974c1.932,0,2.961,1.176,2.961,3.57,0,2.268-1.008,3.4-2.94,3.4-1.974,0-2.94-1.176-2.94-3.507S12.432,10.306,14.385,10.306Z" transform="translate(748 11023)"/>
    <path id="Caminho_772054" data-name="Caminho 772054" d="M8.106,8.521,7.98,8.374l-2.058.105H3L1.848,8.416l-.294.294-.1,5.67.168.189,1.869.357c1.764.315,2.457.966,2.457,2.079,0,1.407-1.092,2.373-2.835,2.373a5.822,5.822,0,0,1-2.394-.525l-.168.168.147,1.806a11.921,11.921,0,0,0,2.121.231c3.024,0,5.145-1.785,5.145-4.389,0-1.659-.882-2.772-3.528-3.318l-1.3-.273L3.192,10.2H6.006l1.722.147.147-.147Zm6.447-.189c-3.024,0-4.767,2.037-4.767,5.586,0,3.339,1.638,5.25,4.494,5.25,3.024,0,4.725-2.016,4.725-5.544C19.005,10.243,17.388,8.332,14.553,8.332Zm-.168,1.974c1.932,0,2.961,1.176,2.961,3.57,0,2.268-1.008,3.4-2.94,3.4-1.974,0-2.94-1.176-2.94-3.507S12.432,10.306,14.385,10.306Z" transform="translate(1000 10495)"/>
    <path id="Caminho_772053" data-name="Caminho 772053" d="M5.754,11.566a4.339,4.339,0,0,0-2.478.777l-.147-.168C3.8,10.18,5.544,8.815,8.736,7.681v-.21L7.14,6.5H7.014C3.108,8.122.861,11.02.861,14.548c0,2.9,1.365,4.641,4.053,4.641a3.9,3.9,0,0,0,4.242-4.032A3.281,3.281,0,0,0,5.754,11.566ZM5.061,17.74c-1.617,0-2.268-1.092-2.268-3.234l.021-.5a3.826,3.826,0,0,1,2.331-.9c1.344,0,2.1.84,2.1,2.352A2.041,2.041,0,0,1,5.061,17.74ZM15.645,8.332c-3.024,0-4.767,2.037-4.767,5.586,0,3.339,1.638,5.25,4.494,5.25,3.024,0,4.725-2.016,4.725-5.544C20.1,10.243,18.48,8.332,15.645,8.332Zm-.168,1.974c1.932,0,2.961,1.176,2.961,3.57,0,2.268-1.008,3.4-2.94,3.4-1.974,0-2.94-1.176-2.94-3.507S13.524,10.306,15.477,10.306Z" transform="translate(1000 10543)"/>
    <path id="Caminho_772052" data-name="Caminho 772052" d="M5.25,6.547c-2.268,0-3.843,1.239-3.843,3.318a3.124,3.124,0,0,0,1.911,2.9v.105C2.1,13.456.945,14.338.945,16c0,1.848,1.386,3.171,3.843,3.171,2.562,0,4.263-1.365,4.263-3.549,0-1.743-1.2-2.478-2.31-3.024v-.1A3.426,3.426,0,0,0,8.673,9.529C8.673,7.681,7.392,6.547,5.25,6.547ZM5.145,8.059a1.638,1.638,0,0,1,1.848,1.68c0,1.176-.84,1.743-1.785,2.184C4.137,11.5,3.171,11,3.171,9.8,3.171,8.731,3.906,8.059,5.145,8.059ZM4.83,13.5c1.239.5,2.436.966,2.436,2.268,0,1.092-.84,1.911-2.289,1.911-1.386,0-2.226-.777-2.226-1.932C2.751,14.443,3.738,13.9,4.83,13.5ZM15.792,8.332c-3.024,0-4.767,2.037-4.767,5.586,0,3.339,1.638,5.25,4.494,5.25,3.024,0,4.725-2.016,4.725-5.544C20.244,10.243,18.627,8.332,15.792,8.332Zm-.168,1.974c1.932,0,2.961,1.176,2.961,3.57,0,2.268-1.008,3.4-2.94,3.4-1.974,0-2.94-1.176-2.94-3.507S13.671,10.306,15.624,10.306Z" transform="translate(1000 10591)"/>
    <path id="Caminho_772051" data-name="Caminho 772051" d="M2.625,8.479.546,8.4.4,10.222l.126.21,1.743-.189H6.3L1.617,20.3l.126.357,1.722.462L4.494,18.37l3.822-8.358L8.3,8.437l-.945.042Zm11.949-.147c-3.024,0-4.767,2.037-4.767,5.586,0,3.339,1.638,5.25,4.494,5.25,3.024,0,4.725-2.016,4.725-5.544C19.026,10.243,17.409,8.332,14.574,8.332Zm-.168,1.974c1.932,0,2.961,1.176,2.961,3.57,0,2.268-1.008,3.4-2.94,3.4-1.974,0-2.94-1.176-2.94-3.507S12.453,10.306,14.406,10.306Z" transform="translate(1000 10639)"/>
    <path id="Caminho_772050" data-name="Caminho 772050" d="M5.25,6.547c-2.268,0-3.843,1.239-3.843,3.318a3.124,3.124,0,0,0,1.911,2.9v.105C2.1,13.456.945,14.338.945,16c0,1.848,1.386,3.171,3.843,3.171,2.562,0,4.263-1.365,4.263-3.549,0-1.743-1.2-2.478-2.31-3.024v-.1A3.426,3.426,0,0,0,8.673,9.529C8.673,7.681,7.392,6.547,5.25,6.547ZM5.145,8.059a1.638,1.638,0,0,1,1.848,1.68c0,1.176-.84,1.743-1.785,2.184C4.137,11.5,3.171,11,3.171,9.8,3.171,8.731,3.906,8.059,5.145,8.059ZM4.83,13.5c1.239.5,2.436.966,2.436,2.268,0,1.092-.84,1.911-2.289,1.911-1.386,0-2.226-.777-2.226-1.932C2.751,14.443,3.738,13.9,4.83,13.5ZM15.792,8.332c-3.024,0-4.767,2.037-4.767,5.586,0,3.339,1.638,5.25,4.494,5.25,3.024,0,4.725-2.016,4.725-5.544C20.244,10.243,18.627,8.332,15.792,8.332Zm-.168,1.974c1.932,0,2.961,1.176,2.961,3.57,0,2.268-1.008,3.4-2.94,3.4-1.974,0-2.94-1.176-2.94-3.507S13.671,10.306,15.624,10.306Z" transform="translate(1000 10687)"/>
    <path id="Caminho_772049" data-name="Caminho 772049" d="M5.061,8.269A3.9,3.9,0,0,0,.819,12.3a3.281,3.281,0,0,0,3.4,3.591A4.339,4.339,0,0,0,6.7,15.115l.147.168c-.672,1.995-2.415,3.36-5.607,4.494v.21l1.6.966h.126c3.906-1.617,6.153-4.515,6.153-8.043C9.114,10.012,7.749,8.269,5.061,8.269Zm-.231,6.09c-1.344,0-2.1-.84-2.1-2.352A2.041,2.041,0,0,1,4.914,9.718c1.617,0,2.268,1.092,2.268,3.234l-.021.5A3.826,3.826,0,0,1,4.83,14.359ZM15.645,8.332c-3.024,0-4.767,2.037-4.767,5.586,0,3.339,1.638,5.25,4.494,5.25,3.024,0,4.725-2.016,4.725-5.544C20.1,10.243,18.48,8.332,15.645,8.332Zm-.168,1.974c1.932,0,2.961,1.176,2.961,3.57,0,2.268-1.008,3.4-2.94,3.4-1.974,0-2.94-1.176-2.94-3.507S13.524,10.306,15.477,10.306Z" transform="translate(1000 10735)"/>
    <path id="Caminho_772048" data-name="Caminho 772048" d="M5.04,8.6l-.315-.231L.21,9.7v1.7l.189.126,2.562-.714.021,4.074L2.856,19H5.019l-.105-4.347Zm8-.273c-3.024,0-4.767,2.037-4.767,5.586,0,3.339,1.638,5.25,4.494,5.25,3.024,0,4.725-2.016,4.725-5.544C17.493,10.243,15.876,8.332,13.041,8.332Zm-.168,1.974c1.932,0,2.961,1.176,2.961,3.57,0,2.268-1.008,3.4-2.94,3.4-1.974,0-2.94-1.176-2.94-3.507S10.92,10.306,12.873,10.306ZM24.066,8.332c-3.024,0-4.767,2.037-4.767,5.586,0,3.339,1.638,5.25,4.494,5.25,3.024,0,4.725-2.016,4.725-5.544C28.518,10.243,26.9,8.332,24.066,8.332ZM23.9,10.306c1.932,0,2.961,1.176,2.961,3.57,0,2.268-1.008,3.4-2.94,3.4-1.974,0-2.94-1.176-2.94-3.507S21.945,10.306,23.9,10.306Z" transform="translate(1000 10783)"/>
    <path id="Caminho_772045" data-name="Caminho 772045" d="M5.25,6.547c-2.268,0-3.843,1.239-3.843,3.318a3.124,3.124,0,0,0,1.911,2.9v.105C2.1,13.456.945,14.338.945,16c0,1.848,1.386,3.171,3.843,3.171,2.562,0,4.263-1.365,4.263-3.549,0-1.743-1.2-2.478-2.31-3.024v-.1A3.426,3.426,0,0,0,8.673,9.529C8.673,7.681,7.392,6.547,5.25,6.547ZM5.145,8.059a1.638,1.638,0,0,1,1.848,1.68c0,1.176-.84,1.743-1.785,2.184C4.137,11.5,3.171,11,3.171,9.8,3.171,8.731,3.906,8.059,5.145,8.059ZM4.83,13.5c1.239.5,2.436.966,2.436,2.268,0,1.092-.84,1.911-2.289,1.911-1.386,0-2.226-.777-2.226-1.932C2.751,14.443,3.738,13.9,4.83,13.5ZM15.792,8.332c-3.024,0-4.767,2.037-4.767,5.586,0,3.339,1.638,5.25,4.494,5.25,3.024,0,4.725-2.016,4.725-5.544C20.244,10.243,18.627,8.332,15.792,8.332Zm-.168,1.974c1.932,0,2.961,1.176,2.961,3.57,0,2.268-1.008,3.4-2.94,3.4-1.974,0-2.94-1.176-2.94-3.507S13.671,10.306,15.624,10.306Z" transform="translate(1000 10927)"/>
    <path id="Caminho_772047" data-name="Caminho 772047" d="M5.04,8.6l-.315-.231L.21,9.7v1.7l.189.126,2.562-.714.021,4.074L2.856,19H5.019l-.105-4.347Zm7.266-.231A6.4,6.4,0,0,0,8.421,9.886l.357,1.659h.231A4.175,4.175,0,0,1,11.844,10.2c.924,0,1.428.483,1.428,1.134,0,.819-.735,1.806-2.1,3.276L8.3,17.635v1.323l.1.084L9.177,19h4.746l2.31.1.273-1.764-.147-.147-1.827.168H11.109l-.042-.1,1.869-2.121c1.68-1.89,2.436-3.192,2.436-4.326C15.372,9.319,14.07,8.374,12.306,8.374Zm10.437-.042c-3.024,0-4.767,2.037-4.767,5.586,0,3.339,1.638,5.25,4.494,5.25,3.024,0,4.725-2.016,4.725-5.544C27.195,10.243,25.578,8.332,22.743,8.332Zm-.168,1.974c1.932,0,2.961,1.176,2.961,3.57,0,2.268-1.008,3.4-2.94,3.4-1.974,0-2.94-1.176-2.94-3.507S20.622,10.306,22.575,10.306Z" transform="translate(1000 10831)"/>
    <path id="Caminho_772044" data-name="Caminho 772044" d="M2.625,8.479.546,8.4.4,10.222l.126.21,1.743-.189H6.3L1.617,20.3l.126.357,1.722.462L4.494,18.37l3.822-8.358L8.3,8.437l-.945.042Zm11.949-.147c-3.024,0-4.767,2.037-4.767,5.586,0,3.339,1.638,5.25,4.494,5.25,3.024,0,4.725-2.016,4.725-5.544C19.026,10.243,17.409,8.332,14.574,8.332Zm-.168,1.974c1.932,0,2.961,1.176,2.961,3.57,0,2.268-1.008,3.4-2.94,3.4-1.974,0-2.94-1.176-2.94-3.507S12.453,10.306,14.406,10.306Z" transform="translate(1000 10975)"/>
    <path id="Caminho_772046" data-name="Caminho 772046" d="M5.061,8.269A3.9,3.9,0,0,0,.819,12.3a3.281,3.281,0,0,0,3.4,3.591A4.339,4.339,0,0,0,6.7,15.115l.147.168c-.672,1.995-2.415,3.36-5.607,4.494v.21l1.6.966h.126c3.906-1.617,6.153-4.515,6.153-8.043C9.114,10.012,7.749,8.269,5.061,8.269Zm-.231,6.09c-1.344,0-2.1-.84-2.1-2.352A2.041,2.041,0,0,1,4.914,9.718c1.617,0,2.268,1.092,2.268,3.234l-.021.5A3.826,3.826,0,0,1,4.83,14.359ZM15.645,8.332c-3.024,0-4.767,2.037-4.767,5.586,0,3.339,1.638,5.25,4.494,5.25,3.024,0,4.725-2.016,4.725-5.544C20.1,10.243,18.48,8.332,15.645,8.332Zm-.168,1.974c1.932,0,2.961,1.176,2.961,3.57,0,2.268-1.008,3.4-2.94,3.4-1.974,0-2.94-1.176-2.94-3.507S13.524,10.306,15.477,10.306Z" transform="translate(1000 10879)"/>
    <path id="Caminho_772043" data-name="Caminho 772043" d="M5.04,8.6l-.315-.231L.21,9.7v1.7l.189.126,2.562-.714.021,4.074L2.856,19H5.019l-.105-4.347Zm8-.273c-3.024,0-4.767,2.037-4.767,5.586,0,3.339,1.638,5.25,4.494,5.25,3.024,0,4.725-2.016,4.725-5.544C17.493,10.243,15.876,8.332,13.041,8.332Zm-.168,1.974c1.932,0,2.961,1.176,2.961,3.57,0,2.268-1.008,3.4-2.94,3.4-1.974,0-2.94-1.176-2.94-3.507S10.92,10.306,12.873,10.306ZM24.066,8.332c-3.024,0-4.767,2.037-4.767,5.586,0,3.339,1.638,5.25,4.494,5.25,3.024,0,4.725-2.016,4.725-5.544C28.518,10.243,26.9,8.332,24.066,8.332ZM23.9,10.306c1.932,0,2.961,1.176,2.961,3.57,0,2.268-1.008,3.4-2.94,3.4-1.974,0-2.94-1.176-2.94-3.507S21.945,10.306,23.9,10.306Z" transform="translate(1000 11023)"/>
    <path id="Caminho_772031" data-name="Caminho 772031" d="M4.116,8.353A5.663,5.663,0,0,0,.588,9.634L.9,11.251h.231A4.077,4.077,0,0,1,3.7,10.1a1.457,1.457,0,0,1,1.659,1.47,2.313,2.313,0,0,1-2.331,2.121l-.924.021-.063,1.47.126.147H3.486c1.554.063,2.373.735,2.373,1.89,0,1.344-1.113,2.163-2.835,2.163A5.641,5.641,0,0,1,.8,18.916l-.147.147.105,1.764a14.534,14.534,0,0,0,2.163.189c2.982,0,4.977-1.6,4.977-3.969A2.793,2.793,0,0,0,5.46,14.275v-.084A3.532,3.532,0,0,0,7.518,11.1C7.518,9.466,6.153,8.353,4.116,8.353ZM14.49,8.332c-3.024,0-4.767,2.037-4.767,5.586,0,3.339,1.638,5.25,4.494,5.25,3.024,0,4.725-2.016,4.725-5.544C18.942,10.243,17.325,8.332,14.49,8.332Zm-.168,1.974c1.932,0,2.961,1.176,2.961,3.57,0,2.268-1.008,3.4-2.94,3.4-1.974,0-2.94-1.176-2.94-3.507S12.369,10.306,14.322,10.306Z" transform="translate(1256 10495)"/>
    <path id="Caminho_772032" data-name="Caminho 772032" d="M8.106,8.521,7.98,8.374l-2.058.105H3L1.848,8.416l-.294.294-.1,5.67.168.189,1.869.357c1.764.315,2.457.966,2.457,2.079,0,1.407-1.092,2.373-2.835,2.373a5.822,5.822,0,0,1-2.394-.525l-.168.168.147,1.806a11.921,11.921,0,0,0,2.121.231c3.024,0,5.145-1.785,5.145-4.389,0-1.659-.882-2.772-3.528-3.318l-1.3-.273L3.192,10.2H6.006l1.722.147.147-.147Zm6.447-.189c-3.024,0-4.767,2.037-4.767,5.586,0,3.339,1.638,5.25,4.494,5.25,3.024,0,4.725-2.016,4.725-5.544C19.005,10.243,17.388,8.332,14.553,8.332Zm-.168,1.974c1.932,0,2.961,1.176,2.961,3.57,0,2.268-1.008,3.4-2.94,3.4-1.974,0-2.94-1.176-2.94-3.507S12.432,10.306,14.385,10.306Z" transform="translate(1256 10543)"/>
    <path id="Caminho_772033" data-name="Caminho 772033" d="M2.625,8.479.546,8.4.4,10.222l.126.21,1.743-.189H6.3L1.617,20.3l.126.357,1.722.462L4.494,18.37l3.822-8.358L8.3,8.437l-.945.042Zm11.949-.147c-3.024,0-4.767,2.037-4.767,5.586,0,3.339,1.638,5.25,4.494,5.25,3.024,0,4.725-2.016,4.725-5.544C19.026,10.243,17.409,8.332,14.574,8.332Zm-.168,1.974c1.932,0,2.961,1.176,2.961,3.57,0,2.268-1.008,3.4-2.94,3.4-1.974,0-2.94-1.176-2.94-3.507S12.453,10.306,14.406,10.306Z" transform="translate(1256 10591)"/>
    <path id="Caminho_772034" data-name="Caminho 772034" d="M5.061,8.269A3.9,3.9,0,0,0,.819,12.3a3.281,3.281,0,0,0,3.4,3.591A4.339,4.339,0,0,0,6.7,15.115l.147.168c-.672,1.995-2.415,3.36-5.607,4.494v.21l1.6.966h.126c3.906-1.617,6.153-4.515,6.153-8.043C9.114,10.012,7.749,8.269,5.061,8.269Zm-.231,6.09c-1.344,0-2.1-.84-2.1-2.352A2.041,2.041,0,0,1,4.914,9.718c1.617,0,2.268,1.092,2.268,3.234l-.021.5A3.826,3.826,0,0,1,4.83,14.359ZM15.645,8.332c-3.024,0-4.767,2.037-4.767,5.586,0,3.339,1.638,5.25,4.494,5.25,3.024,0,4.725-2.016,4.725-5.544C20.1,10.243,18.48,8.332,15.645,8.332Zm-.168,1.974c1.932,0,2.961,1.176,2.961,3.57,0,2.268-1.008,3.4-2.94,3.4-1.974,0-2.94-1.176-2.94-3.507S13.524,10.306,15.477,10.306Z" transform="translate(1256 10639)"/>
    <path id="Caminho_772035" data-name="Caminho 772035" d="M5.25,6.547c-2.268,0-3.843,1.239-3.843,3.318a3.124,3.124,0,0,0,1.911,2.9v.105C2.1,13.456.945,14.338.945,16c0,1.848,1.386,3.171,3.843,3.171,2.562,0,4.263-1.365,4.263-3.549,0-1.743-1.2-2.478-2.31-3.024v-.1A3.426,3.426,0,0,0,8.673,9.529C8.673,7.681,7.392,6.547,5.25,6.547ZM5.145,8.059a1.638,1.638,0,0,1,1.848,1.68c0,1.176-.84,1.743-1.785,2.184C4.137,11.5,3.171,11,3.171,9.8,3.171,8.731,3.906,8.059,5.145,8.059ZM4.83,13.5c1.239.5,2.436.966,2.436,2.268,0,1.092-.84,1.911-2.289,1.911-1.386,0-2.226-.777-2.226-1.932C2.751,14.443,3.738,13.9,4.83,13.5Zm13.4-4.977L18.1,8.374l-2.058.105H13.125L11.97,8.416l-.294.294-.1,5.67.168.189,1.869.357c1.764.315,2.457.966,2.457,2.079,0,1.407-1.092,2.373-2.835,2.373a5.822,5.822,0,0,1-2.394-.525l-.168.168.147,1.806a11.921,11.921,0,0,0,2.121.231c3.024,0,5.145-1.785,5.145-4.389,0-1.659-.882-2.772-3.528-3.318l-1.3-.273.063-2.877h2.814l1.722.147L18,10.2Z" transform="translate(1256 10687)"/>
    <path id="Caminho_772036" data-name="Caminho 772036" d="M5.061,8.269A3.9,3.9,0,0,0,.819,12.3a3.281,3.281,0,0,0,3.4,3.591A4.339,4.339,0,0,0,6.7,15.115l.147.168c-.672,1.995-2.415,3.36-5.607,4.494v.21l1.6.966h.126c3.906-1.617,6.153-4.515,6.153-8.043C9.114,10.012,7.749,8.269,5.061,8.269Zm-.231,6.09c-1.344,0-2.1-.84-2.1-2.352A2.041,2.041,0,0,1,4.914,9.718c1.617,0,2.268,1.092,2.268,3.234l-.021.5A3.826,3.826,0,0,1,4.83,14.359ZM15.645,8.332c-3.024,0-4.767,2.037-4.767,5.586,0,3.339,1.638,5.25,4.494,5.25,3.024,0,4.725-2.016,4.725-5.544C20.1,10.243,18.48,8.332,15.645,8.332Zm-.168,1.974c1.932,0,2.961,1.176,2.961,3.57,0,2.268-1.008,3.4-2.94,3.4-1.974,0-2.94-1.176-2.94-3.507S13.524,10.306,15.477,10.306Z" transform="translate(1256 10735)"/>
    <path id="Caminho_772037" data-name="Caminho 772037" d="M5.04,8.6l-.315-.231L.21,9.7v1.7l.189.126,2.562-.714.021,4.074L2.856,19H5.019l-.105-4.347Zm7.371,0L12.1,8.374,7.581,9.7v1.7l.189.126,2.562-.714.021,4.074L10.227,19H12.39l-.1-4.347Zm8-.273c-3.024,0-4.767,2.037-4.767,5.586,0,3.339,1.638,5.25,4.494,5.25,3.024,0,4.725-2.016,4.725-5.544C24.864,10.243,23.247,8.332,20.412,8.332Zm-.168,1.974c1.932,0,2.961,1.176,2.961,3.57,0,2.268-1.008,3.4-2.94,3.4-1.974,0-2.94-1.176-2.94-3.507S18.291,10.306,20.244,10.306Z" transform="translate(1254 10783)"/>
    <path id="Caminho_772040" data-name="Caminho 772040" d="M2.625,8.479.546,8.4.4,10.222l.126.21,1.743-.189H6.3L1.617,20.3l.126.357,1.722.462L4.494,18.37l3.822-8.358L8.3,8.437l-.945.042Zm11.949-.147c-3.024,0-4.767,2.037-4.767,5.586,0,3.339,1.638,5.25,4.494,5.25,3.024,0,4.725-2.016,4.725-5.544C19.026,10.243,17.409,8.332,14.574,8.332Zm-.168,1.974c1.932,0,2.961,1.176,2.961,3.57,0,2.268-1.008,3.4-2.94,3.4-1.974,0-2.94-1.176-2.94-3.507S12.453,10.306,14.406,10.306Z" transform="translate(1256 10927)"/>
    <path id="Caminho_772038" data-name="Caminho 772038" d="M5.04,8.6l-.315-.231L.21,9.7v1.7l.189.126,2.562-.714.021,4.074L2.856,19H5.019l-.105-4.347Zm8-.273c-3.024,0-4.767,2.037-4.767,5.586,0,3.339,1.638,5.25,4.494,5.25,3.024,0,4.725-2.016,4.725-5.544C17.493,10.243,15.876,8.332,13.041,8.332Zm-.168,1.974c1.932,0,2.961,1.176,2.961,3.57,0,2.268-1.008,3.4-2.94,3.4-1.974,0-2.94-1.176-2.94-3.507S10.92,10.306,12.873,10.306ZM24.066,8.332c-3.024,0-4.767,2.037-4.767,5.586,0,3.339,1.638,5.25,4.494,5.25,3.024,0,4.725-2.016,4.725-5.544C28.518,10.243,26.9,8.332,24.066,8.332ZM23.9,10.306c1.932,0,2.961,1.176,2.961,3.57,0,2.268-1.008,3.4-2.94,3.4-1.974,0-2.94-1.176-2.94-3.507S21.945,10.306,23.9,10.306Z" transform="translate(1253 10831)"/>
    <path id="Caminho_772041" data-name="Caminho 772041" d="M5.061,8.269A3.9,3.9,0,0,0,.819,12.3a3.281,3.281,0,0,0,3.4,3.591A4.339,4.339,0,0,0,6.7,15.115l.147.168c-.672,1.995-2.415,3.36-5.607,4.494v.21l1.6.966h.126c3.906-1.617,6.153-4.515,6.153-8.043C9.114,10.012,7.749,8.269,5.061,8.269Zm-.231,6.09c-1.344,0-2.1-.84-2.1-2.352A2.041,2.041,0,0,1,4.914,9.718c1.617,0,2.268,1.092,2.268,3.234l-.021.5A3.826,3.826,0,0,1,4.83,14.359ZM15.645,8.332c-3.024,0-4.767,2.037-4.767,5.586,0,3.339,1.638,5.25,4.494,5.25,3.024,0,4.725-2.016,4.725-5.544C20.1,10.243,18.48,8.332,15.645,8.332Zm-.168,1.974c1.932,0,2.961,1.176,2.961,3.57,0,2.268-1.008,3.4-2.94,3.4-1.974,0-2.94-1.176-2.94-3.507S13.524,10.306,15.477,10.306Z" transform="translate(1256 10975)"/>
    <path id="Caminho_772039" data-name="Caminho 772039" d="M5.061,8.269A3.9,3.9,0,0,0,.819,12.3a3.281,3.281,0,0,0,3.4,3.591A4.339,4.339,0,0,0,6.7,15.115l.147.168c-.672,1.995-2.415,3.36-5.607,4.494v.21l1.6.966h.126c3.906-1.617,6.153-4.515,6.153-8.043C9.114,10.012,7.749,8.269,5.061,8.269Zm-.231,6.09c-1.344,0-2.1-.84-2.1-2.352A2.041,2.041,0,0,1,4.914,9.718c1.617,0,2.268,1.092,2.268,3.234l-.021.5A3.826,3.826,0,0,1,4.83,14.359ZM18.081,8.521l-.126-.147L15.9,8.479H12.978l-1.155-.063-.294.294-.1,5.67.168.189,1.869.357c1.764.315,2.457.966,2.457,2.079,0,1.407-1.092,2.373-2.835,2.373a5.822,5.822,0,0,1-2.394-.525l-.168.168.147,1.806a11.921,11.921,0,0,0,2.121.231c3.024,0,5.145-1.785,5.145-4.389,0-1.659-.882-2.772-3.528-3.318l-1.3-.273.063-2.877h2.814l1.722.147.147-.147Z" transform="translate(1256 10879)"/>
    <path id="Caminho_772042" data-name="Caminho 772042" d="M5.04,8.6l-.315-.231L.21,9.7v1.7l.189.126,2.562-.714.021,4.074L2.856,19H5.019l-.105-4.347Zm7.266-.231A6.4,6.4,0,0,0,8.421,9.886l.357,1.659h.231A4.175,4.175,0,0,1,11.844,10.2c.924,0,1.428.483,1.428,1.134,0,.819-.735,1.806-2.1,3.276L8.3,17.635v1.323l.1.084L9.177,19h4.746l2.31.1.273-1.764-.147-.147-1.827.168H11.109l-.042-.1,1.869-2.121c1.68-1.89,2.436-3.192,2.436-4.326C15.372,9.319,14.07,8.374,12.306,8.374Zm10.437-.042c-3.024,0-4.767,2.037-4.767,5.586,0,3.339,1.638,5.25,4.494,5.25,3.024,0,4.725-2.016,4.725-5.544C27.195,10.243,25.578,8.332,22.743,8.332Zm-.168,1.974c1.932,0,2.961,1.176,2.961,3.57,0,2.268-1.008,3.4-2.94,3.4-1.974,0-2.94-1.176-2.94-3.507S20.622,10.306,22.575,10.306Z" transform="translate(1253 11023)"/>
    <rect id="Retângulo_124960" data-name="Retângulo 124960" width="253" height="76" transform="translate(479 10407)" fill="#0024a9"/>
    <rect id="Retângulo_124960-2" data-name="Retângulo 124960" width="253" height="76" transform="translate(732 10407)" fill="#0024a9"/>
    <rect id="Retângulo_124960-3" data-name="Retângulo 124960" width="253" height="76" transform="translate(985 10407)" fill="#0024a9"/>
    <rect id="Retângulo_124960-4" data-name="Retângulo 124960" width="253" height="76" transform="translate(1238 10407)" fill="#0024a9"/>
    <path id="Caminho_772027" data-name="Caminho 772027" d="M5.088,25l.528-9.5L9.552,22.5h2.256l3.96-7.008L16.3,25h3.336L18.7,8.2H15.96l-5.28,9.768L5.424,8.2H2.688L1.752,25ZM31.224,11.752,32.5,9.808l-4.3-3.1-4.32,3.1,1.272,1.944L28.2,9.88ZM28.848,22.7a3.1,3.1,0,0,1-3.192-2.3l7.2-.84a6.2,6.2,0,0,0,.312-1.968c0-2.976-2.16-4.7-5.04-4.7-3.408,0-5.88,2.4-5.88,6.192,0,3.768,2.472,6.288,6.36,6.288a7.239,7.239,0,0,0,4.272-1.32l-1.248-2.184A5.387,5.387,0,0,1,28.848,22.7Zm-.528-7.224c1.056,0,1.824.552,1.824,1.584a1.854,1.854,0,0,1-.072.6l-4.56.552A2.878,2.878,0,0,1,28.32,15.472Zm11.5,9.888c2.9,0,5.016-1.248,5.016-3.96,0-4.176-6.072-2.952-6.072-4.8,0-.768.96-.984,1.848-.984a6.275,6.275,0,0,1,2.928.72l1.152-2.352a9.328,9.328,0,0,0-4.416-1.1c-2.424,0-4.9,1.008-4.9,3.7,0,4.392,6.1,3.12,6.1,5.064,0,.648-.648,1.008-1.824,1.008A7.347,7.347,0,0,1,36,21.616l-1.224,2.448A10.27,10.27,0,0,0,39.816,25.36Z" transform="translate(581 10429)" fill="#fff"/>
    <path id="Caminho_772028" data-name="Caminho 772028" d="M9.72,22.36c-3.12,0-4.992-2.472-4.992-5.76S6.6,10.84,9.72,10.84A5.73,5.73,0,0,1,13.056,11.9l1.56-2.448A8.687,8.687,0,0,0,9.456,7.84c-5.256,0-8.4,3.72-8.4,8.76,0,5.064,3.144,8.76,8.4,8.76a8.632,8.632,0,0,0,5.16-1.608L13.056,21.3A5.893,5.893,0,0,1,9.72,22.36ZM23.3,12.88c-4.752,0-6.792,3.456-6.792,7.008,0,3.216,1.656,5.472,4.392,5.472,2.208,0,3.576-1.56,4.416-3.7L24.96,25h3.384V14.416A8.823,8.823,0,0,0,23.3,12.88Zm-1.368,9.768c-1.08,0-1.92-.7-1.92-2.88,0-1.656.576-4.32,3.24-4.32a3.938,3.938,0,0,1,1.68.408C24.744,19,24.048,22.648,21.936,22.648Zm24.7-9.768a4.317,4.317,0,0,0-4.056,2.952,3.494,3.494,0,0,0-3.624-2.952c-2.088,0-3.384,1.3-4.176,3.216l.288-2.856H31.7V25h3.36c0-3.792.168-9.216,2.832-9.216,1.32,0,1.464,1.44,1.464,2.568V25h3.384c0-3.768.144-9.216,2.808-9.216,1.344,0,1.488,1.44,1.488,2.568V25H50.4V17.416C50.4,14.56,49.032,12.88,46.632,12.88Zm8.616-1.3A2.2,2.2,0,0,0,57.5,9.3a2.268,2.268,0,1,0-4.536,0A2.205,2.205,0,0,0,55.248,11.584ZM56.928,25V13.24h-3.36V25Zm7.344.36c2.9,0,5.016-1.248,5.016-3.96,0-4.176-6.072-2.952-6.072-4.8,0-.768.96-.984,1.848-.984a6.275,6.275,0,0,1,2.928.72l1.152-2.352a9.328,9.328,0,0,0-4.416-1.1c-2.424,0-4.9,1.008-4.9,3.7,0,4.392,6.1,3.12,6.1,5.064,0,.648-.648,1.008-1.824,1.008a7.347,7.347,0,0,1-3.648-1.032l-1.224,2.448A10.27,10.27,0,0,0,64.272,25.36ZM78,22.7a3.1,3.1,0,0,1-3.192-2.3l7.2-.84a6.2,6.2,0,0,0,.312-1.968c0-2.976-2.16-4.7-5.04-4.7-3.408,0-5.88,2.4-5.88,6.192,0,3.768,2.472,6.288,6.36,6.288a7.239,7.239,0,0,0,4.272-1.32l-1.248-2.184A5.387,5.387,0,0,1,78,22.7Zm-.528-7.224c1.056,0,1.824.552,1.824,1.584a1.854,1.854,0,0,1-.072.6l-4.56.552A2.878,2.878,0,0,1,77.472,15.472ZM90.528,25.36a7.728,7.728,0,0,0,2.688-.5l-.7-2.64a3.431,3.431,0,0,1-1.2.24c-1.248,0-1.848-.744-1.848-2.232V15.9H92.76V13.24H89.472V9.568H87.24l-.24,1.3c-.36,1.9-.552,2.376-2.712,2.376h-.36V15.9h2.184v4.9C86.112,23.608,87.6,25.36,90.528,25.36Zm11.136-12.48c-4.752,0-6.792,3.456-6.792,7.008,0,3.216,1.656,5.472,4.392,5.472,2.208,0,3.576-1.56,4.416-3.7L103.32,25H106.7V14.416A8.823,8.823,0,0,0,101.664,12.88ZM100.3,22.648c-1.08,0-1.92-.7-1.92-2.88,0-1.656.576-4.32,3.24-4.32a3.938,3.938,0,0,1,1.68.408C103.1,19,102.408,22.648,100.3,22.648Zm13.752,2.712c2.9,0,5.016-1.248,5.016-3.96,0-4.176-6.072-2.952-6.072-4.8,0-.768.96-.984,1.848-.984a6.275,6.275,0,0,1,2.928.72l1.152-2.352a9.328,9.328,0,0,0-4.416-1.1c-2.424,0-4.9,1.008-4.9,3.7,0,4.392,6.1,3.12,6.1,5.064,0,.648-.648,1.008-1.824,1.008a7.347,7.347,0,0,1-3.648-1.032l-1.224,2.448A10.27,10.27,0,0,0,114.048,25.36Zm19.824-2.9a3.031,3.031,0,0,1-3.048-3.336,3.031,3.031,0,0,1,3.048-3.336,3.587,3.587,0,0,1,2.04.624l1.512-2.4a6.761,6.761,0,0,0-3.816-1.128,5.889,5.889,0,0,0-6.264,6.24,5.889,5.889,0,0,0,6.264,6.24,6.538,6.538,0,0,0,3.816-1.152l-1.512-2.376A3.587,3.587,0,0,1,133.872,22.456Zm11.352,2.9a5.935,5.935,0,0,0,6.144-6.24,6.157,6.157,0,1,0-12.312,0A5.941,5.941,0,0,0,145.224,25.36Zm0-2.736c-1.776,0-2.688-1.632-2.688-3.5s.912-3.5,2.688-3.5c1.752,0,2.664,1.632,2.664,3.5S146.976,22.624,145.224,22.624ZM168.84,12.88a4.317,4.317,0,0,0-4.056,2.952,3.494,3.494,0,0,0-3.624-2.952c-2.088,0-3.384,1.3-4.176,3.216l.288-2.856h-3.36V25h3.36c0-3.792.168-9.216,2.832-9.216,1.32,0,1.464,1.44,1.464,2.568V25h3.384c0-3.768.144-9.216,2.808-9.216,1.344,0,1.488,1.44,1.488,2.568V25h3.36V17.416C172.608,14.56,171.24,12.88,168.84,12.88ZM6,44.664c0-1.8.936-2.5,2.184-2.5a2.85,2.85,0,0,1,1.344.336l1.08-2.592a6.353,6.353,0,0,0-2.856-.648c-3.168,0-5.112,1.8-5.112,5.016v.96H.456V47.9H2.64V57H6V47.9H9.576V45.24H6Zm13.368.216c-2.592,0-3.888,1.92-4.56,4.488l.408-4.128h-3.36V57h3.36c0-3.888.24-8.64,3.432-8.64a3.808,3.808,0,0,1,1.2.216l.888-3.5A4.957,4.957,0,0,0,19.368,44.88Zm9,0c-4.752,0-6.792,3.456-6.792,7.008,0,3.216,1.656,5.472,4.392,5.472,2.208,0,3.576-1.56,4.416-3.7L30.024,57h3.384V46.416A8.823,8.823,0,0,0,28.368,44.88ZM27,54.648c-1.08,0-1.92-.7-1.92-2.88,0-1.656.576-4.32,3.24-4.32a3.938,3.938,0,0,1,1.68.408C29.808,51,29.112,54.648,27,54.648ZM40.752,57.36c2.9,0,5.016-1.248,5.016-3.96,0-4.176-6.072-2.952-6.072-4.8,0-.768.96-.984,1.848-.984a6.275,6.275,0,0,1,2.928.72l1.152-2.352a9.328,9.328,0,0,0-4.416-1.1c-2.424,0-4.9,1.008-4.9,3.7,0,4.392,6.1,3.12,6.1,5.064,0,.648-.648,1.008-1.824,1.008a7.347,7.347,0,0,1-3.648-1.032l-1.224,2.448A10.27,10.27,0,0,0,40.752,57.36ZM54.48,54.7a3.1,3.1,0,0,1-3.192-2.3l7.2-.84a6.2,6.2,0,0,0,.312-1.968c0-2.976-2.16-4.7-5.04-4.7-3.408,0-5.88,2.4-5.88,6.192,0,3.768,2.472,6.288,6.36,6.288a7.239,7.239,0,0,0,4.272-1.32l-1.248-2.184A5.387,5.387,0,0,1,54.48,54.7Zm-.528-7.224c1.056,0,1.824.552,1.824,1.584a1.854,1.854,0,0,1-.072.6l-4.56.552A2.878,2.878,0,0,1,53.952,47.472Zm11.5,9.888c2.9,0,5.016-1.248,5.016-3.96,0-4.176-6.072-2.952-6.072-4.8,0-.768.96-.984,1.848-.984a6.275,6.275,0,0,1,2.928.72l1.152-2.352a9.328,9.328,0,0,0-4.416-1.1c-2.424,0-4.9,1.008-4.9,3.7,0,4.392,6.1,3.12,6.1,5.064,0,.648-.648,1.008-1.824,1.008a7.347,7.347,0,0,1-3.648-1.032l-1.224,2.448A10.27,10.27,0,0,0,65.448,57.36Zm21.96-12.336a9.245,9.245,0,0,0-1.656-.144c-4.752,0-6.792,3.456-6.792,7.008,0,3.216,1.656,5.472,4.392,5.472,2.208,0,3.576-1.584,4.416-3.72L87.408,57h3.384V39.624H87.408Zm-3.024,9.624c-1.08,0-1.92-.7-1.92-2.88,0-1.656.576-4.32,3.24-4.32a3.938,3.938,0,0,1,1.68.408C87.192,51,86.5,54.648,84.384,54.648ZM99.432,57.36a5.935,5.935,0,0,0,6.144-6.24,6.157,6.157,0,1,0-12.312,0A5.941,5.941,0,0,0,99.432,57.36Zm0-2.736c-1.776,0-2.688-1.632-2.688-3.5s.912-3.5,2.688-3.5c1.752,0,2.664,1.632,2.664,3.5S101.184,54.624,99.432,54.624ZM112.1,57.36c2.9,0,5.016-1.248,5.016-3.96,0-4.176-6.072-2.952-6.072-4.8,0-.768.96-.984,1.848-.984a6.275,6.275,0,0,1,2.928.72l1.152-2.352a9.328,9.328,0,0,0-4.416-1.1c-2.424,0-4.9,1.008-4.9,3.7,0,4.392,6.1,3.12,6.1,5.064,0,.648-.648,1.008-1.824,1.008a7.347,7.347,0,0,1-3.648-1.032l-1.224,2.448A10.27,10.27,0,0,0,112.1,57.36Zm20.3-12.48c-4.752,0-6.792,3.456-6.792,7.008,0,3.216,1.656,5.472,4.392,5.472,2.208,0,3.576-1.56,4.416-3.7L134.064,57h3.384V46.416A8.823,8.823,0,0,0,132.408,44.88Zm-1.368,9.768c-1.08,0-1.92-.7-1.92-2.88,0-1.656.576-4.32,3.24-4.32a3.938,3.938,0,0,1,1.68.408C133.848,51,133.152,54.648,131.04,54.648Zm17.3-9.768c-2.28,0-3.648,1.392-4.464,3.432l.288-3.072h-3.36V57h3.36c0-3.816.216-9.216,3.144-9.216,1.488,0,1.632,1.584,1.632,2.568V57h3.384V49.416C152.328,46.584,150.864,44.88,148.344,44.88Zm12.528,12.48a5.935,5.935,0,0,0,6.144-6.24,6.157,6.157,0,1,0-12.312,0A5.941,5.941,0,0,0,160.872,57.36Zm0-2.736c-1.776,0-2.688-1.632-2.688-3.5s.912-3.5,2.688-3.5c1.752,0,2.664,1.632,2.664,3.5S162.624,54.624,160.872,54.624Zm12.672,2.736c2.9,0,5.016-1.248,5.016-3.96,0-4.176-6.072-2.952-6.072-4.8,0-.768.96-.984,1.848-.984a6.275,6.275,0,0,1,2.928.72l1.152-2.352A9.328,9.328,0,0,0,174,44.88c-2.424,0-4.9,1.008-4.9,3.7,0,4.392,6.1,3.12,6.1,5.064,0,.648-.648,1.008-1.824,1.008a7.347,7.347,0,0,1-3.648-1.032L168.5,56.064A10.27,10.27,0,0,0,173.544,57.36Zm20.544-.024c3.336,0,6.192-2.064,6.192-5.712a5.279,5.279,0,0,0-5.544-5.5,4.272,4.272,0,0,0-4.008,2.208c0-3,1.248-5.592,4.248-5.592A5.063,5.063,0,0,1,198,43.752l1.488-2.4a7.158,7.158,0,0,0-4.608-1.488c-5.52,0-7.7,4.56-7.7,9.5C187.176,54.792,190.2,57.336,194.088,57.336Zm-.024-2.832A2.629,2.629,0,0,1,191.4,51.72a2.677,2.677,0,1,1,5.352,0A2.647,2.647,0,0,1,194.064,54.5ZM210.12,57.36c4.7,0,7.464-3.816,7.464-8.76s-2.76-8.76-7.464-8.76c-4.728,0-7.488,3.816-7.488,8.76S205.392,57.36,210.12,57.36Zm0-3c-2.712,0-3.816-2.928-3.816-5.76s1.1-5.76,3.816-5.76,3.816,2.928,3.816,5.76S212.832,54.36,210.12,54.36Z" transform="translate(740 10411)" fill="#fff"/>
    <path id="Caminho_772029" data-name="Caminho 772029" d="M9.72,22.36c-3.12,0-4.992-2.472-4.992-5.76S6.6,10.84,9.72,10.84A5.73,5.73,0,0,1,13.056,11.9l1.56-2.448A8.687,8.687,0,0,0,9.456,7.84c-5.256,0-8.4,3.72-8.4,8.76,0,5.064,3.144,8.76,8.4,8.76a8.632,8.632,0,0,0,5.16-1.608L13.056,21.3A5.893,5.893,0,0,1,9.72,22.36ZM23.3,12.88c-4.752,0-6.792,3.456-6.792,7.008,0,3.216,1.656,5.472,4.392,5.472,2.208,0,3.576-1.56,4.416-3.7L24.96,25h3.384V14.416A8.823,8.823,0,0,0,23.3,12.88Zm-1.368,9.768c-1.08,0-1.92-.7-1.92-2.88,0-1.656.576-4.32,3.24-4.32a3.938,3.938,0,0,1,1.68.408C24.744,19,24.048,22.648,21.936,22.648Zm24.7-9.768a4.317,4.317,0,0,0-4.056,2.952,3.494,3.494,0,0,0-3.624-2.952c-2.088,0-3.384,1.3-4.176,3.216l.288-2.856H31.7V25h3.36c0-3.792.168-9.216,2.832-9.216,1.32,0,1.464,1.44,1.464,2.568V25h3.384c0-3.768.144-9.216,2.808-9.216,1.344,0,1.488,1.44,1.488,2.568V25H50.4V17.416C50.4,14.56,49.032,12.88,46.632,12.88Zm8.616-1.3A2.2,2.2,0,0,0,57.5,9.3a2.268,2.268,0,1,0-4.536,0A2.205,2.205,0,0,0,55.248,11.584ZM56.928,25V13.24h-3.36V25Zm7.344.36c2.9,0,5.016-1.248,5.016-3.96,0-4.176-6.072-2.952-6.072-4.8,0-.768.96-.984,1.848-.984a6.275,6.275,0,0,1,2.928.72l1.152-2.352a9.328,9.328,0,0,0-4.416-1.1c-2.424,0-4.9,1.008-4.9,3.7,0,4.392,6.1,3.12,6.1,5.064,0,.648-.648,1.008-1.824,1.008a7.347,7.347,0,0,1-3.648-1.032l-1.224,2.448A10.27,10.27,0,0,0,64.272,25.36ZM78,22.7a3.1,3.1,0,0,1-3.192-2.3l7.2-.84a6.2,6.2,0,0,0,.312-1.968c0-2.976-2.16-4.7-5.04-4.7-3.408,0-5.88,2.4-5.88,6.192,0,3.768,2.472,6.288,6.36,6.288a7.239,7.239,0,0,0,4.272-1.32l-1.248-2.184A5.387,5.387,0,0,1,78,22.7Zm-.528-7.224c1.056,0,1.824.552,1.824,1.584a1.854,1.854,0,0,1-.072.6l-4.56.552A2.878,2.878,0,0,1,77.472,15.472ZM90.528,25.36a7.728,7.728,0,0,0,2.688-.5l-.7-2.64a3.431,3.431,0,0,1-1.2.24c-1.248,0-1.848-.744-1.848-2.232V15.9H92.76V13.24H89.472V9.568H87.24l-.24,1.3c-.36,1.9-.552,2.376-2.712,2.376h-.36V15.9h2.184v4.9C86.112,23.608,87.6,25.36,90.528,25.36Zm11.136-12.48c-4.752,0-6.792,3.456-6.792,7.008,0,3.216,1.656,5.472,4.392,5.472,2.208,0,3.576-1.56,4.416-3.7L103.32,25H106.7V14.416A8.823,8.823,0,0,0,101.664,12.88ZM100.3,22.648c-1.08,0-1.92-.7-1.92-2.88,0-1.656.576-4.32,3.24-4.32a3.938,3.938,0,0,1,1.68.408C103.1,19,102.408,22.648,100.3,22.648Zm13.752,2.712c2.9,0,5.016-1.248,5.016-3.96,0-4.176-6.072-2.952-6.072-4.8,0-.768.96-.984,1.848-.984a6.275,6.275,0,0,1,2.928.72l1.152-2.352a9.328,9.328,0,0,0-4.416-1.1c-2.424,0-4.9,1.008-4.9,3.7,0,4.392,6.1,3.12,6.1,5.064,0,.648-.648,1.008-1.824,1.008a7.347,7.347,0,0,1-3.648-1.032l-1.224,2.448A10.27,10.27,0,0,0,114.048,25.36Zm19.824-2.9a3.031,3.031,0,0,1-3.048-3.336,3.031,3.031,0,0,1,3.048-3.336,3.587,3.587,0,0,1,2.04.624l1.512-2.4a6.761,6.761,0,0,0-3.816-1.128,5.889,5.889,0,0,0-6.264,6.24,5.889,5.889,0,0,0,6.264,6.24,6.538,6.538,0,0,0,3.816-1.152l-1.512-2.376A3.587,3.587,0,0,1,133.872,22.456Zm11.352,2.9a5.935,5.935,0,0,0,6.144-6.24,6.157,6.157,0,1,0-12.312,0A5.941,5.941,0,0,0,145.224,25.36Zm0-2.736c-1.776,0-2.688-1.632-2.688-3.5s.912-3.5,2.688-3.5c1.752,0,2.664,1.632,2.664,3.5S146.976,22.624,145.224,22.624ZM168.84,12.88a4.317,4.317,0,0,0-4.056,2.952,3.494,3.494,0,0,0-3.624-2.952c-2.088,0-3.384,1.3-4.176,3.216l.288-2.856h-3.36V25h3.36c0-3.792.168-9.216,2.832-9.216,1.32,0,1.464,1.44,1.464,2.568V25h3.384c0-3.768.144-9.216,2.808-9.216,1.344,0,1.488,1.44,1.488,2.568V25h3.36V17.416C172.608,14.56,171.24,12.88,168.84,12.88ZM6,44.664c0-1.8.936-2.5,2.184-2.5a2.85,2.85,0,0,1,1.344.336l1.08-2.592a6.353,6.353,0,0,0-2.856-.648c-3.168,0-5.112,1.8-5.112,5.016v.96H.456V47.9H2.64V57H6V47.9H9.576V45.24H6Zm13.368.216c-2.592,0-3.888,1.92-4.56,4.488l.408-4.128h-3.36V57h3.36c0-3.888.24-8.64,3.432-8.64a3.808,3.808,0,0,1,1.2.216l.888-3.5A4.957,4.957,0,0,0,19.368,44.88Zm9,0c-4.752,0-6.792,3.456-6.792,7.008,0,3.216,1.656,5.472,4.392,5.472,2.208,0,3.576-1.56,4.416-3.7L30.024,57h3.384V46.416A8.823,8.823,0,0,0,28.368,44.88ZM27,54.648c-1.08,0-1.92-.7-1.92-2.88,0-1.656.576-4.32,3.24-4.32a3.938,3.938,0,0,1,1.68.408C29.808,51,29.112,54.648,27,54.648ZM40.752,57.36c2.9,0,5.016-1.248,5.016-3.96,0-4.176-6.072-2.952-6.072-4.8,0-.768.96-.984,1.848-.984a6.275,6.275,0,0,1,2.928.72l1.152-2.352a9.328,9.328,0,0,0-4.416-1.1c-2.424,0-4.9,1.008-4.9,3.7,0,4.392,6.1,3.12,6.1,5.064,0,.648-.648,1.008-1.824,1.008a7.347,7.347,0,0,1-3.648-1.032l-1.224,2.448A10.27,10.27,0,0,0,40.752,57.36ZM54.48,54.7a3.1,3.1,0,0,1-3.192-2.3l7.2-.84a6.2,6.2,0,0,0,.312-1.968c0-2.976-2.16-4.7-5.04-4.7-3.408,0-5.88,2.4-5.88,6.192,0,3.768,2.472,6.288,6.36,6.288a7.239,7.239,0,0,0,4.272-1.32l-1.248-2.184A5.387,5.387,0,0,1,54.48,54.7Zm-.528-7.224c1.056,0,1.824.552,1.824,1.584a1.854,1.854,0,0,1-.072.6l-4.56.552A2.878,2.878,0,0,1,53.952,47.472Zm11.5,9.888c2.9,0,5.016-1.248,5.016-3.96,0-4.176-6.072-2.952-6.072-4.8,0-.768.96-.984,1.848-.984a6.275,6.275,0,0,1,2.928.72l1.152-2.352a9.328,9.328,0,0,0-4.416-1.1c-2.424,0-4.9,1.008-4.9,3.7,0,4.392,6.1,3.12,6.1,5.064,0,.648-.648,1.008-1.824,1.008a7.347,7.347,0,0,1-3.648-1.032l-1.224,2.448A10.27,10.27,0,0,0,65.448,57.36Zm21.96-12.336a9.245,9.245,0,0,0-1.656-.144c-4.752,0-6.792,3.456-6.792,7.008,0,3.216,1.656,5.472,4.392,5.472,2.208,0,3.576-1.584,4.416-3.72L87.408,57h3.384V39.624H87.408Zm-3.024,9.624c-1.08,0-1.92-.7-1.92-2.88,0-1.656.576-4.32,3.24-4.32a3.938,3.938,0,0,1,1.68.408C87.192,51,86.5,54.648,84.384,54.648ZM99.432,57.36a5.935,5.935,0,0,0,6.144-6.24,6.157,6.157,0,1,0-12.312,0A5.941,5.941,0,0,0,99.432,57.36Zm0-2.736c-1.776,0-2.688-1.632-2.688-3.5s.912-3.5,2.688-3.5c1.752,0,2.664,1.632,2.664,3.5S101.184,54.624,99.432,54.624ZM112.1,57.36c2.9,0,5.016-1.248,5.016-3.96,0-4.176-6.072-2.952-6.072-4.8,0-.768.96-.984,1.848-.984a6.275,6.275,0,0,1,2.928.72l1.152-2.352a9.328,9.328,0,0,0-4.416-1.1c-2.424,0-4.9,1.008-4.9,3.7,0,4.392,6.1,3.12,6.1,5.064,0,.648-.648,1.008-1.824,1.008a7.347,7.347,0,0,1-3.648-1.032l-1.224,2.448A10.27,10.27,0,0,0,112.1,57.36Zm20.3-12.48c-4.752,0-6.792,3.456-6.792,7.008,0,3.216,1.656,5.472,4.392,5.472,2.208,0,3.576-1.56,4.416-3.7L134.064,57h3.384V46.416A8.823,8.823,0,0,0,132.408,44.88Zm-1.368,9.768c-1.08,0-1.92-.7-1.92-2.88,0-1.656.576-4.32,3.24-4.32a3.938,3.938,0,0,1,1.68.408C133.848,51,133.152,54.648,131.04,54.648Zm17.3-9.768c-2.28,0-3.648,1.392-4.464,3.432l.288-3.072h-3.36V57h3.36c0-3.816.216-9.216,3.144-9.216,1.488,0,1.632,1.584,1.632,2.568V57h3.384V49.416C152.328,46.584,150.864,44.88,148.344,44.88Zm12.528,12.48a5.935,5.935,0,0,0,6.144-6.24,6.157,6.157,0,1,0-12.312,0A5.941,5.941,0,0,0,160.872,57.36Zm0-2.736c-1.776,0-2.688-1.632-2.688-3.5s.912-3.5,2.688-3.5c1.752,0,2.664,1.632,2.664,3.5S162.624,54.624,160.872,54.624Zm12.672,2.736c2.9,0,5.016-1.248,5.016-3.96,0-4.176-6.072-2.952-6.072-4.8,0-.768.96-.984,1.848-.984a6.275,6.275,0,0,1,2.928.72l1.152-2.352A9.328,9.328,0,0,0,174,44.88c-2.424,0-4.9,1.008-4.9,3.7,0,4.392,6.1,3.12,6.1,5.064,0,.648-.648,1.008-1.824,1.008a7.347,7.347,0,0,1-3.648-1.032L168.5,56.064A10.27,10.27,0,0,0,173.544,57.36Zm25.1-17.16h-12.1v2.88h7.824a32.9,32.9,0,0,0-4.7,13.92H193.2a29.713,29.713,0,0,1,5.448-14.28Zm9.312,17.16c4.7,0,7.464-3.816,7.464-8.76s-2.76-8.76-7.464-8.76c-4.728,0-7.488,3.816-7.488,8.76S203.232,57.36,207.96,57.36Zm0-3c-2.712,0-3.816-2.928-3.816-5.76s1.1-5.76,3.816-5.76,3.816,2.928,3.816,5.76S210.672,54.36,207.96,54.36Z" transform="translate(993 10411)" fill="#fff"/>
    <path id="Caminho_772030" data-name="Caminho 772030" d="M9.72,22.36c-3.12,0-4.992-2.472-4.992-5.76S6.6,10.84,9.72,10.84A5.73,5.73,0,0,1,13.056,11.9l1.56-2.448A8.687,8.687,0,0,0,9.456,7.84c-5.256,0-8.4,3.72-8.4,8.76,0,5.064,3.144,8.76,8.4,8.76a8.632,8.632,0,0,0,5.16-1.608L13.056,21.3A5.893,5.893,0,0,1,9.72,22.36ZM23.3,12.88c-4.752,0-6.792,3.456-6.792,7.008,0,3.216,1.656,5.472,4.392,5.472,2.208,0,3.576-1.56,4.416-3.7L24.96,25h3.384V14.416A8.823,8.823,0,0,0,23.3,12.88Zm-1.368,9.768c-1.08,0-1.92-.7-1.92-2.88,0-1.656.576-4.32,3.24-4.32a3.938,3.938,0,0,1,1.68.408C24.744,19,24.048,22.648,21.936,22.648Zm24.7-9.768a4.317,4.317,0,0,0-4.056,2.952,3.494,3.494,0,0,0-3.624-2.952c-2.088,0-3.384,1.3-4.176,3.216l.288-2.856H31.7V25h3.36c0-3.792.168-9.216,2.832-9.216,1.32,0,1.464,1.44,1.464,2.568V25h3.384c0-3.768.144-9.216,2.808-9.216,1.344,0,1.488,1.44,1.488,2.568V25H50.4V17.416C50.4,14.56,49.032,12.88,46.632,12.88Zm8.616-1.3A2.2,2.2,0,0,0,57.5,9.3a2.268,2.268,0,1,0-4.536,0A2.205,2.205,0,0,0,55.248,11.584ZM56.928,25V13.24h-3.36V25Zm7.344.36c2.9,0,5.016-1.248,5.016-3.96,0-4.176-6.072-2.952-6.072-4.8,0-.768.96-.984,1.848-.984a6.275,6.275,0,0,1,2.928.72l1.152-2.352a9.328,9.328,0,0,0-4.416-1.1c-2.424,0-4.9,1.008-4.9,3.7,0,4.392,6.1,3.12,6.1,5.064,0,.648-.648,1.008-1.824,1.008a7.347,7.347,0,0,1-3.648-1.032l-1.224,2.448A10.27,10.27,0,0,0,64.272,25.36ZM78,22.7a3.1,3.1,0,0,1-3.192-2.3l7.2-.84a6.2,6.2,0,0,0,.312-1.968c0-2.976-2.16-4.7-5.04-4.7-3.408,0-5.88,2.4-5.88,6.192,0,3.768,2.472,6.288,6.36,6.288a7.239,7.239,0,0,0,4.272-1.32l-1.248-2.184A5.387,5.387,0,0,1,78,22.7Zm-.528-7.224c1.056,0,1.824.552,1.824,1.584a1.854,1.854,0,0,1-.072.6l-4.56.552A2.878,2.878,0,0,1,77.472,15.472ZM90.528,25.36a7.728,7.728,0,0,0,2.688-.5l-.7-2.64a3.431,3.431,0,0,1-1.2.24c-1.248,0-1.848-.744-1.848-2.232V15.9H92.76V13.24H89.472V9.568H87.24l-.24,1.3c-.36,1.9-.552,2.376-2.712,2.376h-.36V15.9h2.184v4.9C86.112,23.608,87.6,25.36,90.528,25.36Zm11.136-12.48c-4.752,0-6.792,3.456-6.792,7.008,0,3.216,1.656,5.472,4.392,5.472,2.208,0,3.576-1.56,4.416-3.7L103.32,25H106.7V14.416A8.823,8.823,0,0,0,101.664,12.88ZM100.3,22.648c-1.08,0-1.92-.7-1.92-2.88,0-1.656.576-4.32,3.24-4.32a3.938,3.938,0,0,1,1.68.408C103.1,19,102.408,22.648,100.3,22.648Zm13.752,2.712c2.9,0,5.016-1.248,5.016-3.96,0-4.176-6.072-2.952-6.072-4.8,0-.768.96-.984,1.848-.984a6.275,6.275,0,0,1,2.928.72l1.152-2.352a9.328,9.328,0,0,0-4.416-1.1c-2.424,0-4.9,1.008-4.9,3.7,0,4.392,6.1,3.12,6.1,5.064,0,.648-.648,1.008-1.824,1.008a7.347,7.347,0,0,1-3.648-1.032l-1.224,2.448A10.27,10.27,0,0,0,114.048,25.36Zm19.824-2.9a3.031,3.031,0,0,1-3.048-3.336,3.031,3.031,0,0,1,3.048-3.336,3.587,3.587,0,0,1,2.04.624l1.512-2.4a6.761,6.761,0,0,0-3.816-1.128,5.889,5.889,0,0,0-6.264,6.24,5.889,5.889,0,0,0,6.264,6.24,6.538,6.538,0,0,0,3.816-1.152l-1.512-2.376A3.587,3.587,0,0,1,133.872,22.456Zm11.352,2.9a5.935,5.935,0,0,0,6.144-6.24,6.157,6.157,0,1,0-12.312,0A5.941,5.941,0,0,0,145.224,25.36Zm0-2.736c-1.776,0-2.688-1.632-2.688-3.5s.912-3.5,2.688-3.5c1.752,0,2.664,1.632,2.664,3.5S146.976,22.624,145.224,22.624ZM168.84,12.88a4.317,4.317,0,0,0-4.056,2.952,3.494,3.494,0,0,0-3.624-2.952c-2.088,0-3.384,1.3-4.176,3.216l.288-2.856h-3.36V25h3.36c0-3.792.168-9.216,2.832-9.216,1.32,0,1.464,1.44,1.464,2.568V25h3.384c0-3.768.144-9.216,2.808-9.216,1.344,0,1.488,1.44,1.488,2.568V25h3.36V17.416C172.608,14.56,171.24,12.88,168.84,12.88ZM6,44.664c0-1.8.936-2.5,2.184-2.5a2.85,2.85,0,0,1,1.344.336l1.08-2.592a6.353,6.353,0,0,0-2.856-.648c-3.168,0-5.112,1.8-5.112,5.016v.96H.456V47.9H2.64V57H6V47.9H9.576V45.24H6Zm13.368.216c-2.592,0-3.888,1.92-4.56,4.488l.408-4.128h-3.36V57h3.36c0-3.888.24-8.64,3.432-8.64a3.808,3.808,0,0,1,1.2.216l.888-3.5A4.957,4.957,0,0,0,19.368,44.88Zm9,0c-4.752,0-6.792,3.456-6.792,7.008,0,3.216,1.656,5.472,4.392,5.472,2.208,0,3.576-1.56,4.416-3.7L30.024,57h3.384V46.416A8.823,8.823,0,0,0,28.368,44.88ZM27,54.648c-1.08,0-1.92-.7-1.92-2.88,0-1.656.576-4.32,3.24-4.32a3.938,3.938,0,0,1,1.68.408C29.808,51,29.112,54.648,27,54.648ZM40.752,57.36c2.9,0,5.016-1.248,5.016-3.96,0-4.176-6.072-2.952-6.072-4.8,0-.768.96-.984,1.848-.984a6.275,6.275,0,0,1,2.928.72l1.152-2.352a9.328,9.328,0,0,0-4.416-1.1c-2.424,0-4.9,1.008-4.9,3.7,0,4.392,6.1,3.12,6.1,5.064,0,.648-.648,1.008-1.824,1.008a7.347,7.347,0,0,1-3.648-1.032l-1.224,2.448A10.27,10.27,0,0,0,40.752,57.36ZM54.48,54.7a3.1,3.1,0,0,1-3.192-2.3l7.2-.84a6.2,6.2,0,0,0,.312-1.968c0-2.976-2.16-4.7-5.04-4.7-3.408,0-5.88,2.4-5.88,6.192,0,3.768,2.472,6.288,6.36,6.288a7.239,7.239,0,0,0,4.272-1.32l-1.248-2.184A5.387,5.387,0,0,1,54.48,54.7Zm-.528-7.224c1.056,0,1.824.552,1.824,1.584a1.854,1.854,0,0,1-.072.6l-4.56.552A2.878,2.878,0,0,1,53.952,47.472Zm11.5,9.888c2.9,0,5.016-1.248,5.016-3.96,0-4.176-6.072-2.952-6.072-4.8,0-.768.96-.984,1.848-.984a6.275,6.275,0,0,1,2.928.72l1.152-2.352a9.328,9.328,0,0,0-4.416-1.1c-2.424,0-4.9,1.008-4.9,3.7,0,4.392,6.1,3.12,6.1,5.064,0,.648-.648,1.008-1.824,1.008a7.347,7.347,0,0,1-3.648-1.032l-1.224,2.448A10.27,10.27,0,0,0,65.448,57.36Zm21.96-12.336a9.245,9.245,0,0,0-1.656-.144c-4.752,0-6.792,3.456-6.792,7.008,0,3.216,1.656,5.472,4.392,5.472,2.208,0,3.576-1.584,4.416-3.72L87.408,57h3.384V39.624H87.408Zm-3.024,9.624c-1.08,0-1.92-.7-1.92-2.88,0-1.656.576-4.32,3.24-4.32a3.938,3.938,0,0,1,1.68.408C87.192,51,86.5,54.648,84.384,54.648ZM99.432,57.36a5.935,5.935,0,0,0,6.144-6.24,6.157,6.157,0,1,0-12.312,0A5.941,5.941,0,0,0,99.432,57.36Zm0-2.736c-1.776,0-2.688-1.632-2.688-3.5s.912-3.5,2.688-3.5c1.752,0,2.664,1.632,2.664,3.5S101.184,54.624,99.432,54.624ZM112.1,57.36c2.9,0,5.016-1.248,5.016-3.96,0-4.176-6.072-2.952-6.072-4.8,0-.768.96-.984,1.848-.984a6.275,6.275,0,0,1,2.928.72l1.152-2.352a9.328,9.328,0,0,0-4.416-1.1c-2.424,0-4.9,1.008-4.9,3.7,0,4.392,6.1,3.12,6.1,5.064,0,.648-.648,1.008-1.824,1.008a7.347,7.347,0,0,1-3.648-1.032l-1.224,2.448A10.27,10.27,0,0,0,112.1,57.36Zm20.3-12.48c-4.752,0-6.792,3.456-6.792,7.008,0,3.216,1.656,5.472,4.392,5.472,2.208,0,3.576-1.56,4.416-3.7L134.064,57h3.384V46.416A8.823,8.823,0,0,0,132.408,44.88Zm-1.368,9.768c-1.08,0-1.92-.7-1.92-2.88,0-1.656.576-4.32,3.24-4.32a3.938,3.938,0,0,1,1.68.408C133.848,51,133.152,54.648,131.04,54.648Zm17.3-9.768c-2.28,0-3.648,1.392-4.464,3.432l.288-3.072h-3.36V57h3.36c0-3.816.216-9.216,3.144-9.216,1.488,0,1.632,1.584,1.632,2.568V57h3.384V49.416C152.328,46.584,150.864,44.88,148.344,44.88Zm12.528,12.48a5.935,5.935,0,0,0,6.144-6.24,6.157,6.157,0,1,0-12.312,0A5.941,5.941,0,0,0,160.872,57.36Zm0-2.736c-1.776,0-2.688-1.632-2.688-3.5s.912-3.5,2.688-3.5c1.752,0,2.664,1.632,2.664,3.5S162.624,54.624,160.872,54.624Zm12.672,2.736c2.9,0,5.016-1.248,5.016-3.96,0-4.176-6.072-2.952-6.072-4.8,0-.768.96-.984,1.848-.984a6.275,6.275,0,0,1,2.928.72l1.152-2.352A9.328,9.328,0,0,0,174,44.88c-2.424,0-4.9,1.008-4.9,3.7,0,4.392,6.1,3.12,6.1,5.064,0,.648-.648,1.008-1.824,1.008a7.347,7.347,0,0,1-3.648-1.032L168.5,56.064A10.27,10.27,0,0,0,173.544,57.36Zm23.808-9.288a4.273,4.273,0,0,0,1.92-3.624c0-2.76-2.376-4.584-5.664-4.584-3.312,0-5.664,1.824-5.664,4.584a4.273,4.273,0,0,0,1.92,3.624,4.5,4.5,0,0,0-2.568,4.152c0,3.24,2.808,5.112,6.312,5.112s6.288-1.872,6.288-5.112A4.516,4.516,0,0,0,197.352,48.072Zm-3.744-5.544a2.11,2.11,0,0,1,2.3,2.112,2.322,2.322,0,0,1-4.632,0A2.117,2.117,0,0,1,193.608,42.528Zm0,11.856a2.468,2.468,0,1,1,2.664-2.472A2.431,2.431,0,0,1,193.608,54.384Zm16.3,2.976c4.7,0,7.464-3.816,7.464-8.76s-2.76-8.76-7.464-8.76c-4.728,0-7.488,3.816-7.488,8.76S205.176,57.36,209.9,57.36Zm0-3c-2.712,0-3.816-2.928-3.816-5.76s1.1-5.76,3.816-5.76,3.816,2.928,3.816,5.76S212.616,54.36,209.9,54.36Z" transform="translate(1246 10411)" fill="#fff"/>
  </g>
</svg>
