<svg xmlns="http://www.w3.org/2000/svg" width="758.805" height="280.529" viewBox="0 0 758.805 280.529">
  <g id="grafico_07" transform="translate(-514.632 -6682.008)">
    <g id="Grupo_234036" data-name="Grupo 234036" transform="translate(-16924 303.5)">
      <rect id="Retângulo_124930" data-name="Retângulo 124930" width="27" height="81" transform="translate(17935.191 6490.5) rotate(90)" fill="#40bbff"/>
      <rect id="Retângulo_124931" data-name="Retângulo 124931" width="27" height="244" transform="translate(18098.191 6544.5) rotate(90)" fill="#0024a9"/>
      <rect id="Retângulo_124932" data-name="Retângulo 124932" width="27" height="122" transform="translate(17976.191 6598.5) rotate(90)" fill="#40bbff"/>
      <line id="Linha_1894" data-name="Linha 1894" y2="162.851" transform="translate(17854.191 6475.5)" fill="none" stroke="#40bbff" stroke-miterlimit="10" stroke-width="2" opacity="0.5"/>
      <path id="Caminho_773757" data-name="Caminho 773757" d="M5.04-10.4l-.315-.231L.21-9.3v1.7L.4-7.476,2.961-8.19l.021,4.074L2.856,0H5.019L4.914-4.347Zm8-.273c-3.024,0-4.767,2.037-4.767,5.586,0,3.339,1.638,5.25,4.494,5.25,3.024,0,4.725-2.016,4.725-5.544C17.493-8.757,15.876-10.668,13.041-10.668Zm-.168,1.974c1.932,0,2.961,1.176,2.961,3.57,0,2.268-1.008,3.4-2.94,3.4-1.974,0-2.94-1.176-2.94-3.507S10.92-8.694,12.873-8.694Zm11.193-1.974c-3.024,0-4.767,2.037-4.767,5.586,0,3.339,1.638,5.25,4.494,5.25,3.024,0,4.725-2.016,4.725-5.544C28.518-8.757,26.9-10.668,24.066-10.668ZM23.9-8.694c1.932,0,2.961,1.176,2.961,3.57,0,2.268-1.008,3.4-2.94,3.4-1.974,0-2.94-1.176-2.94-3.507S21.945-8.694,23.9-8.694Z" transform="translate(17941 6510)"/>
      <path id="Caminho_773754" data-name="Caminho 773754" d="M6.867-13.629c-3.906,0-6.153,2.52-6.153,7.014,0,4.347,2.121,6.783,5.9,6.783a7.806,7.806,0,0,0,3.57-.882l.168-1.974-.21-.126a5.655,5.655,0,0,1-3.36,1.155c-2.415,0-3.8-1.764-3.8-5.187,0-3.318,1.344-4.977,3.8-4.977a4.991,4.991,0,0,1,3.108,1.092l.21-.063.4-1.911A7.12,7.12,0,0,0,6.867-13.629ZM15.876-9.87A6.729,6.729,0,0,0,12.1-8.61l.273,1.491.168.105a4.783,4.783,0,0,1,3-1.344,1.382,1.382,0,0,1,1.512,1.575l-.021,1.134-3.318.735a2.237,2.237,0,0,0-2.037,2.331c0,1.68,1.155,2.73,3.108,2.751a6.149,6.149,0,0,0,2.184-1.575h.147A1.635,1.635,0,0,0,18.648.147a3.422,3.422,0,0,0,1.323-.462l.21-1.176-.189-.147a3.212,3.212,0,0,1-.63.084c-.441,0-.609-.168-.609-.714,0-.714.252-4.242.252-4.977C19.005-8.9,17.787-9.87,15.876-9.87Zm1.155,5.46-.063,1.617a2.965,2.965,0,0,1-2.1,1.281,1.21,1.21,0,0,1-1.281-1.344.775.775,0,0,1,.714-.9ZM34.083,0h2.163l-.1-4.242.063-2.73c.021-1.806-1.092-2.835-3.255-2.835a7.616,7.616,0,0,0-2.772,1.575h-.126c-.42-1.008-1.449-1.575-3.024-1.575a6.974,6.974,0,0,0-2.583,1.491H24.3l.021-1.407-2.037.189.1,5.481L22.26,0h2.121l-.1-4.242L24.3-6.8a3.767,3.767,0,0,1,2.52-1.26c1.008,0,1.512.651,1.491,1.7L28.161,0H30.3l-.084-4.242.042-2.6a3.7,3.7,0,0,1,2.478-1.218c1.008,0,1.512.651,1.491,1.7Zm6.111-14.2a1.136,1.136,0,0,0-1.218,1.218A1.066,1.066,0,0,0,40.131-11.8a1.131,1.131,0,0,0,1.176-1.239A1.039,1.039,0,0,0,40.194-14.2Zm.84,9.954L41.2-9.723l-2.142.189.1,5.481L39.039,0h2.142ZM47.1-9.849c-2.226,0-3.528,1.26-3.528,2.919,0,3.045,4.347,2.646,4.347,4.431A1.342,1.342,0,0,1,46.431-1.26a4.437,4.437,0,0,1-2.688-1.134l-.231.147L43.26-.462A7.6,7.6,0,0,0,46.2.189c2.415,0,3.633-1.491,3.633-3.045,0-2.961-4.347-2.583-4.347-4.347a1.226,1.226,0,0,1,1.365-1.155,3.917,3.917,0,0,1,2.142.735l.273-.063.294-1.68A6.649,6.649,0,0,0,47.1-9.849Zm11.991,5.1.357-.336a8.182,8.182,0,0,0,.084-1.05c0-2.31-1.281-3.717-3.528-3.717-2.814,0-4.641,1.911-4.641,5.061,0,3.066,1.68,4.977,4.578,4.977a6.816,6.816,0,0,0,2.94-.714l.252-1.7-.189-.126a5.765,5.765,0,0,1-2.835.882c-1.848,0-2.73-1.2-2.772-3.276ZM57.582-6.153l-4.137.105a2.461,2.461,0,0,1,2.436-2.331c1.05,0,1.743.609,1.743,1.974Zm7.581,4.536c-.861,0-1.239-.336-1.218-1.386l.105-5.271h2.709l.1-1.218-.084-.147H64.092l.042-2.079-.189-.168-1.89.714v1.533H60.774L60.669-8.4l.084.126h1.323L62.1-4.179l-.084,1.512A2.506,2.506,0,0,0,64.491.126,6.063,6.063,0,0,0,66.633-.5l.21-1.344L66.633-2A3.311,3.311,0,0,1,65.163-1.617Zm6.93-8.253a6.729,6.729,0,0,0-3.78,1.26l.273,1.491.168.105a4.783,4.783,0,0,1,3-1.344,1.382,1.382,0,0,1,1.512,1.575l-.021,1.134-3.318.735a2.237,2.237,0,0,0-2.037,2.331C67.893-.9,69.048.147,71,.168a6.149,6.149,0,0,0,2.184-1.575h.147A1.635,1.635,0,0,0,74.865.147a3.422,3.422,0,0,0,1.323-.462l.21-1.176-.189-.147a3.212,3.212,0,0,1-.63.084c-.441,0-.609-.168-.609-.714,0-.714.252-4.242.252-4.977C75.222-8.9,74-9.87,72.093-9.87Zm1.155,5.46-.063,1.617a2.965,2.965,0,0,1-2.1,1.281A1.21,1.21,0,0,1,69.8-2.856a.775.775,0,0,1,.714-.9ZM81.4-9.849c-2.226,0-3.528,1.26-3.528,2.919,0,3.045,4.347,2.646,4.347,4.431A1.342,1.342,0,0,1,80.724-1.26a4.437,4.437,0,0,1-2.688-1.134l-.231.147L77.553-.462a7.6,7.6,0,0,0,2.94.651c2.415,0,3.633-1.491,3.633-3.045,0-2.961-4.347-2.583-4.347-4.347a1.226,1.226,0,0,1,1.365-1.155,3.917,3.917,0,0,1,2.142.735l.273-.063.294-1.68A6.649,6.649,0,0,0,81.4-9.849ZM93.45-9.87c-2.772,0-4.431,1.953-4.431,5.124C89.019-1.68,90.573.189,93.2.189A7.5,7.5,0,0,0,95.76-.294l.21-1.722-.189-.126a5.051,5.051,0,0,1-2.247.63c-1.6,0-2.5-1.26-2.5-3.4,0-2.037.882-3.192,2.373-3.192a4.163,4.163,0,0,1,2.058.651l.21-.084.357-1.785A6.3,6.3,0,0,0,93.45-9.87Zm8.148,0c-2.9,0-4.515,1.869-4.515,5.187,0,3.108,1.533,4.872,4.242,4.872,2.9,0,4.515-1.869,4.515-5.187C105.84-8.106,104.307-9.87,101.6-9.87Zm-.126,1.491c1.575,0,2.373,1.218,2.373,3.864,0,2.2-.8,3.234-2.373,3.234-1.6,0-2.394-1.2-2.394-3.864C99.078-7.308,99.876-8.379,101.472-8.379ZM119.952,0h2.163l-.1-4.242.063-2.73c.021-1.806-1.092-2.835-3.255-2.835a7.616,7.616,0,0,0-2.772,1.575h-.126c-.42-1.008-1.449-1.575-3.024-1.575a6.974,6.974,0,0,0-2.583,1.491h-.147l.021-1.407-2.037.189.1,5.481L108.129,0h2.121l-.1-4.242.021-2.562a3.767,3.767,0,0,1,2.52-1.26c1.008,0,1.512.651,1.491,1.7L114.03,0h2.142l-.084-4.242.042-2.6a3.7,3.7,0,0,1,2.478-1.218c1.008,0,1.512.651,1.491,1.7Zm12.81-14.784c-2.415,0-3.822,1.3-3.8,3.7l.021,1.449h-1.428L127.449-8.4l.084.126h1.449l.042,4.2L128.9,0h2.142l-.147-4.263.063-4.011h2.436l.126-1.218-.063-.147h-2.478L131-11.445c.021-1.218.588-1.806,1.575-1.806a3.846,3.846,0,0,1,1.617.4l.147-.126.126-1.617A8.114,8.114,0,0,0,132.762-14.784Zm6.93,5.082a3.1,3.1,0,0,0-2.646,1.911H136.9l.021-1.932-2.037.189.126,5.481L134.862,0H137l-.147-4.242.021-1.386c.735-1.449,1.47-2.037,2.331-2.037a2.939,2.939,0,0,1,.777.1l.231-.063V-9.66A4.091,4.091,0,0,0,139.692-9.7Zm5.418-.168a6.729,6.729,0,0,0-3.78,1.26l.273,1.491.168.105a4.783,4.783,0,0,1,3-1.344,1.382,1.382,0,0,1,1.512,1.575l-.021,1.134-3.318.735a2.237,2.237,0,0,0-2.037,2.331c0,1.68,1.155,2.73,3.108,2.751A6.149,6.149,0,0,0,146.2-1.407h.147A1.635,1.635,0,0,0,147.882.147a3.422,3.422,0,0,0,1.323-.462l.21-1.176-.189-.147a3.212,3.212,0,0,1-.63.084c-.441,0-.609-.168-.609-.714,0-.714.252-4.242.252-4.977C148.239-8.9,147.021-9.87,145.11-9.87Zm1.155,5.46L146.2-2.793a2.965,2.965,0,0,1-2.1,1.281,1.21,1.21,0,0,1-1.281-1.344.775.775,0,0,1,.714-.9Zm8.148-5.439c-2.226,0-3.528,1.26-3.528,2.919,0,3.045,4.347,2.646,4.347,4.431a1.342,1.342,0,0,1-1.491,1.239,4.437,4.437,0,0,1-2.688-1.134l-.231.147L150.57-.462a7.6,7.6,0,0,0,2.94.651c2.415,0,3.633-1.491,3.633-3.045,0-2.961-4.347-2.583-4.347-4.347a1.226,1.226,0,0,1,1.365-1.155,3.917,3.917,0,0,1,2.142.735l.273-.063.294-1.68A6.649,6.649,0,0,0,154.413-9.849Zm11.991,5.1.357-.336a8.181,8.181,0,0,0,.084-1.05c0-2.31-1.281-3.717-3.528-3.717-2.814,0-4.641,1.911-4.641,5.061,0,3.066,1.68,4.977,4.578,4.977a6.816,6.816,0,0,0,2.94-.714l.252-1.7-.189-.126a5.765,5.765,0,0,1-2.835.882c-1.848,0-2.73-1.2-2.772-3.276Zm-1.512-1.407-4.137.105a2.461,2.461,0,0,1,2.436-2.331c1.05,0,1.743.609,1.743,1.974Zm7.077-3.7c-2.226,0-3.528,1.26-3.528,2.919,0,3.045,4.347,2.646,4.347,4.431A1.342,1.342,0,0,1,171.3-1.26a4.437,4.437,0,0,1-2.688-1.134l-.231.147-.252,1.785a7.6,7.6,0,0,0,2.94.651c2.415,0,3.633-1.491,3.633-3.045,0-2.961-4.347-2.583-4.347-4.347a1.226,1.226,0,0,1,1.365-1.155,3.917,3.917,0,0,1,2.142.735l.273-.063.294-1.68A6.649,6.649,0,0,0,171.969-9.849Zm15.918,5.586.168-10.479-2.142.168.042,4.893a8.851,8.851,0,0,0-1.638-.168c-2.961,0-4.767,1.806-4.767,5.04,0,3.108,1.533,4.935,4.347,4.935a8.577,8.577,0,0,0,2.184-1.449h.168A1.663,1.663,0,0,0,187.8.147a3.4,3.4,0,0,0,1.344-.462l.189-1.176-.189-.147a3.036,3.036,0,0,1-.651.084c-.4,0-.525-.168-.546-.693Zm-3.78-4.116a4.337,4.337,0,0,1,1.869.483l.063,3.822L186-2.709a2.684,2.684,0,0,1-2.058,1.092c-1.47,0-2.352-1.2-2.373-3.444C181.524-7.308,182.532-8.379,184.107-8.379Zm10.92-1.491c-2.9,0-4.515,1.869-4.515,5.187,0,3.108,1.533,4.872,4.242,4.872,2.9,0,4.515-1.869,4.515-5.187C199.269-8.106,197.736-9.87,195.027-9.87ZM194.9-8.379c1.575,0,2.373,1.218,2.373,3.864,0,2.2-.8,3.234-2.373,3.234-1.6,0-2.394-1.2-2.394-3.864C192.507-7.308,193.3-8.379,194.9-8.379Zm9.576-1.47c-2.226,0-3.528,1.26-3.528,2.919,0,3.045,4.347,2.646,4.347,4.431A1.342,1.342,0,0,1,203.8-1.26a4.437,4.437,0,0,1-2.688-1.134l-.231.147-.252,1.785a7.6,7.6,0,0,0,2.94.651c2.415,0,3.633-1.491,3.633-3.045,0-2.961-4.347-2.583-4.347-4.347a1.226,1.226,0,0,1,1.365-1.155,3.917,3.917,0,0,1,2.142.735l.273-.063.294-1.68A6.649,6.649,0,0,0,204.477-9.849ZM216.3-9.87a6.729,6.729,0,0,0-3.78,1.26l.273,1.491.168.105a4.783,4.783,0,0,1,3-1.344,1.382,1.382,0,0,1,1.512,1.575l-.021,1.134-3.318.735A2.237,2.237,0,0,0,212.1-2.583c0,1.68,1.155,2.73,3.108,2.751a6.149,6.149,0,0,0,2.184-1.575h.147A1.635,1.635,0,0,0,219.072.147a3.422,3.422,0,0,0,1.323-.462l.21-1.176-.189-.147a3.212,3.212,0,0,1-.63.084c-.441,0-.609-.168-.609-.714,0-.714.252-4.242.252-4.977C219.429-8.9,218.211-9.87,216.3-9.87Zm1.155,5.46-.063,1.617a2.965,2.965,0,0,1-2.1,1.281,1.21,1.21,0,0,1-1.281-1.344.775.775,0,0,1,.714-.9ZM228.585,0h2.163l-.105-4.242.063-2.73c.021-1.806-1.092-2.835-3.255-2.835a7.141,7.141,0,0,0-2.583,1.491h-.147l.021-1.407-2.037.189.105,5.481L222.684,0h2.142L224.7-4.242l.021-2.562a3.767,3.767,0,0,1,2.52-1.26c1.008,0,1.512.651,1.491,1.7Zm8.82-9.87c-2.9,0-4.515,1.869-4.515,5.187,0,3.108,1.533,4.872,4.242,4.872,2.9,0,4.515-1.869,4.515-5.187C241.647-8.106,240.114-9.87,237.4-9.87Zm-.126,1.491c1.575,0,2.373,1.218,2.373,3.864,0,2.2-.8,3.234-2.373,3.234-1.6,0-2.394-1.2-2.394-3.864C234.885-7.308,235.683-8.379,237.279-8.379Zm9.576-1.47c-2.226,0-3.528,1.26-3.528,2.919,0,3.045,4.347,2.646,4.347,4.431a1.342,1.342,0,0,1-1.491,1.239,4.437,4.437,0,0,1-2.688-1.134l-.231.147-.252,1.785a7.6,7.6,0,0,0,2.94.651c2.415,0,3.633-1.491,3.633-3.045,0-2.961-4.347-2.583-4.347-4.347A1.226,1.226,0,0,1,246.6-8.358a3.917,3.917,0,0,1,2.142.735l.273-.063.294-1.68A6.649,6.649,0,0,0,246.855-9.849Zm12.1-2.6c-2.268,0-3.843,1.239-3.843,3.318a3.124,3.124,0,0,0,1.911,2.9v.105c-1.218.588-2.373,1.47-2.373,3.129,0,1.848,1.386,3.171,3.843,3.171,2.562,0,4.263-1.365,4.263-3.549,0-1.743-1.2-2.478-2.31-3.024V-6.51a3.426,3.426,0,0,0,1.932-2.961C262.374-11.319,261.093-12.453,258.951-12.453Zm-.105,1.512a1.638,1.638,0,0,1,1.848,1.68c0,1.176-.84,1.743-1.785,2.184C257.838-7.5,256.872-8,256.872-9.2,256.872-10.269,257.607-10.941,258.846-10.941ZM258.531-5.5c1.239.5,2.436.966,2.436,2.268,0,1.092-.84,1.911-2.289,1.911-1.386,0-2.226-.777-2.226-1.932C256.452-4.557,257.439-5.1,258.531-5.5Zm10.962-5.166c-3.024,0-4.767,2.037-4.767,5.586,0,3.339,1.638,5.25,4.494,5.25,3.024,0,4.725-2.016,4.725-5.544C273.945-8.757,272.328-10.668,269.493-10.668Zm-.168,1.974c1.932,0,2.961,1.176,2.961,3.57,0,2.268-1.008,3.4-2.94,3.4-1.974,0-2.94-1.176-2.94-3.507S267.372-8.694,269.325-8.694Z" transform="translate(17571 6507)"/>
      <path id="Caminho_773755" data-name="Caminho 773755" d="M6.867-13.629c-3.906,0-6.153,2.52-6.153,7.014,0,4.347,2.121,6.783,5.9,6.783a7.806,7.806,0,0,0,3.57-.882l.168-1.974-.21-.126a5.655,5.655,0,0,1-3.36,1.155c-2.415,0-3.8-1.764-3.8-5.187,0-3.318,1.344-4.977,3.8-4.977a4.991,4.991,0,0,1,3.108,1.092l.21-.063.4-1.911A7.12,7.12,0,0,0,6.867-13.629ZM15.876-9.87A6.729,6.729,0,0,0,12.1-8.61l.273,1.491.168.105a4.783,4.783,0,0,1,3-1.344,1.382,1.382,0,0,1,1.512,1.575l-.021,1.134-3.318.735a2.237,2.237,0,0,0-2.037,2.331c0,1.68,1.155,2.73,3.108,2.751a6.149,6.149,0,0,0,2.184-1.575h.147A1.635,1.635,0,0,0,18.648.147a3.422,3.422,0,0,0,1.323-.462l.21-1.176-.189-.147a3.212,3.212,0,0,1-.63.084c-.441,0-.609-.168-.609-.714,0-.714.252-4.242.252-4.977C19.005-8.9,17.787-9.87,15.876-9.87Zm1.155,5.46-.063,1.617a2.965,2.965,0,0,1-2.1,1.281,1.21,1.21,0,0,1-1.281-1.344.775.775,0,0,1,.714-.9ZM34.083,0h2.163l-.1-4.242.063-2.73c.021-1.806-1.092-2.835-3.255-2.835a7.616,7.616,0,0,0-2.772,1.575h-.126c-.42-1.008-1.449-1.575-3.024-1.575a6.974,6.974,0,0,0-2.583,1.491H24.3l.021-1.407-2.037.189.1,5.481L22.26,0h2.121l-.1-4.242L24.3-6.8a3.767,3.767,0,0,1,2.52-1.26c1.008,0,1.512.651,1.491,1.7L28.161,0H30.3l-.084-4.242.042-2.6a3.7,3.7,0,0,1,2.478-1.218c1.008,0,1.512.651,1.491,1.7Zm6.111-14.2a1.136,1.136,0,0,0-1.218,1.218A1.066,1.066,0,0,0,40.131-11.8a1.131,1.131,0,0,0,1.176-1.239A1.039,1.039,0,0,0,40.194-14.2Zm.84,9.954L41.2-9.723l-2.142.189.1,5.481L39.039,0h2.142ZM47.1-9.849c-2.226,0-3.528,1.26-3.528,2.919,0,3.045,4.347,2.646,4.347,4.431A1.342,1.342,0,0,1,46.431-1.26a4.437,4.437,0,0,1-2.688-1.134l-.231.147L43.26-.462A7.6,7.6,0,0,0,46.2.189c2.415,0,3.633-1.491,3.633-3.045,0-2.961-4.347-2.583-4.347-4.347a1.226,1.226,0,0,1,1.365-1.155,3.917,3.917,0,0,1,2.142.735l.273-.063.294-1.68A6.649,6.649,0,0,0,47.1-9.849Zm11.991,5.1.357-.336a8.182,8.182,0,0,0,.084-1.05c0-2.31-1.281-3.717-3.528-3.717-2.814,0-4.641,1.911-4.641,5.061,0,3.066,1.68,4.977,4.578,4.977a6.816,6.816,0,0,0,2.94-.714l.252-1.7-.189-.126a5.765,5.765,0,0,1-2.835.882c-1.848,0-2.73-1.2-2.772-3.276ZM57.582-6.153l-4.137.105a2.461,2.461,0,0,1,2.436-2.331c1.05,0,1.743.609,1.743,1.974Zm7.581,4.536c-.861,0-1.239-.336-1.218-1.386l.105-5.271h2.709l.1-1.218-.084-.147H64.092l.042-2.079-.189-.168-1.89.714v1.533H60.774L60.669-8.4l.084.126h1.323L62.1-4.179l-.084,1.512A2.506,2.506,0,0,0,64.491.126,6.063,6.063,0,0,0,66.633-.5l.21-1.344L66.633-2A3.311,3.311,0,0,1,65.163-1.617Zm6.93-8.253a6.729,6.729,0,0,0-3.78,1.26l.273,1.491.168.105a4.783,4.783,0,0,1,3-1.344,1.382,1.382,0,0,1,1.512,1.575l-.021,1.134-3.318.735a2.237,2.237,0,0,0-2.037,2.331C67.893-.9,69.048.147,71,.168a6.149,6.149,0,0,0,2.184-1.575h.147A1.635,1.635,0,0,0,74.865.147a3.422,3.422,0,0,0,1.323-.462l.21-1.176-.189-.147a3.212,3.212,0,0,1-.63.084c-.441,0-.609-.168-.609-.714,0-.714.252-4.242.252-4.977C75.222-8.9,74-9.87,72.093-9.87Zm1.155,5.46-.063,1.617a2.965,2.965,0,0,1-2.1,1.281A1.21,1.21,0,0,1,69.8-2.856a.775.775,0,0,1,.714-.9ZM81.4-9.849c-2.226,0-3.528,1.26-3.528,2.919,0,3.045,4.347,2.646,4.347,4.431A1.342,1.342,0,0,1,80.724-1.26a4.437,4.437,0,0,1-2.688-1.134l-.231.147L77.553-.462a7.6,7.6,0,0,0,2.94.651c2.415,0,3.633-1.491,3.633-3.045,0-2.961-4.347-2.583-4.347-4.347a1.226,1.226,0,0,1,1.365-1.155,3.917,3.917,0,0,1,2.142.735l.273-.063.294-1.68A6.649,6.649,0,0,0,81.4-9.849ZM93.45-9.87c-2.772,0-4.431,1.953-4.431,5.124C89.019-1.68,90.573.189,93.2.189A7.5,7.5,0,0,0,95.76-.294l.21-1.722-.189-.126a5.051,5.051,0,0,1-2.247.63c-1.6,0-2.5-1.26-2.5-3.4,0-2.037.882-3.192,2.373-3.192a4.163,4.163,0,0,1,2.058.651l.21-.084.357-1.785A6.3,6.3,0,0,0,93.45-9.87Zm8.148,0c-2.9,0-4.515,1.869-4.515,5.187,0,3.108,1.533,4.872,4.242,4.872,2.9,0,4.515-1.869,4.515-5.187C105.84-8.106,104.307-9.87,101.6-9.87Zm-.126,1.491c1.575,0,2.373,1.218,2.373,3.864,0,2.2-.8,3.234-2.373,3.234-1.6,0-2.394-1.2-2.394-3.864C99.078-7.308,99.876-8.379,101.472-8.379ZM119.952,0h2.163l-.1-4.242.063-2.73c.021-1.806-1.092-2.835-3.255-2.835a7.616,7.616,0,0,0-2.772,1.575h-.126c-.42-1.008-1.449-1.575-3.024-1.575a6.974,6.974,0,0,0-2.583,1.491h-.147l.021-1.407-2.037.189.1,5.481L108.129,0h2.121l-.1-4.242.021-2.562a3.767,3.767,0,0,1,2.52-1.26c1.008,0,1.512.651,1.491,1.7L114.03,0h2.142l-.084-4.242.042-2.6a3.7,3.7,0,0,1,2.478-1.218c1.008,0,1.512.651,1.491,1.7Zm12.81-14.784c-2.415,0-3.822,1.3-3.8,3.7l.021,1.449h-1.428L127.449-8.4l.084.126h1.449l.042,4.2L128.9,0h2.142l-.147-4.263.063-4.011h2.436l.126-1.218-.063-.147h-2.478L131-11.445c.021-1.218.588-1.806,1.575-1.806a3.846,3.846,0,0,1,1.617.4l.147-.126.126-1.617A8.114,8.114,0,0,0,132.762-14.784Zm6.93,5.082a3.1,3.1,0,0,0-2.646,1.911H136.9l.021-1.932-2.037.189.126,5.481L134.862,0H137l-.147-4.242.021-1.386c.735-1.449,1.47-2.037,2.331-2.037a2.939,2.939,0,0,1,.777.1l.231-.063V-9.66A4.091,4.091,0,0,0,139.692-9.7Zm5.418-.168a6.729,6.729,0,0,0-3.78,1.26l.273,1.491.168.105a4.783,4.783,0,0,1,3-1.344,1.382,1.382,0,0,1,1.512,1.575l-.021,1.134-3.318.735a2.237,2.237,0,0,0-2.037,2.331c0,1.68,1.155,2.73,3.108,2.751A6.149,6.149,0,0,0,146.2-1.407h.147A1.635,1.635,0,0,0,147.882.147a3.422,3.422,0,0,0,1.323-.462l.21-1.176-.189-.147a3.212,3.212,0,0,1-.63.084c-.441,0-.609-.168-.609-.714,0-.714.252-4.242.252-4.977C148.239-8.9,147.021-9.87,145.11-9.87Zm1.155,5.46L146.2-2.793a2.965,2.965,0,0,1-2.1,1.281,1.21,1.21,0,0,1-1.281-1.344.775.775,0,0,1,.714-.9Zm8.148-5.439c-2.226,0-3.528,1.26-3.528,2.919,0,3.045,4.347,2.646,4.347,4.431a1.342,1.342,0,0,1-1.491,1.239,4.437,4.437,0,0,1-2.688-1.134l-.231.147L150.57-.462a7.6,7.6,0,0,0,2.94.651c2.415,0,3.633-1.491,3.633-3.045,0-2.961-4.347-2.583-4.347-4.347a1.226,1.226,0,0,1,1.365-1.155,3.917,3.917,0,0,1,2.142.735l.273-.063.294-1.68A6.649,6.649,0,0,0,154.413-9.849Zm11.991,5.1.357-.336a8.181,8.181,0,0,0,.084-1.05c0-2.31-1.281-3.717-3.528-3.717-2.814,0-4.641,1.911-4.641,5.061,0,3.066,1.68,4.977,4.578,4.977a6.816,6.816,0,0,0,2.94-.714l.252-1.7-.189-.126a5.765,5.765,0,0,1-2.835.882c-1.848,0-2.73-1.2-2.772-3.276Zm-1.512-1.407-4.137.105a2.461,2.461,0,0,1,2.436-2.331c1.05,0,1.743.609,1.743,1.974Zm7.077-3.7c-2.226,0-3.528,1.26-3.528,2.919,0,3.045,4.347,2.646,4.347,4.431A1.342,1.342,0,0,1,171.3-1.26a4.437,4.437,0,0,1-2.688-1.134l-.231.147-.252,1.785a7.6,7.6,0,0,0,2.94.651c2.415,0,3.633-1.491,3.633-3.045,0-2.961-4.347-2.583-4.347-4.347a1.226,1.226,0,0,1,1.365-1.155,3.917,3.917,0,0,1,2.142.735l.273-.063.294-1.68A6.649,6.649,0,0,0,171.969-9.849Zm15.918,5.586.168-10.479-2.142.168.042,4.893a8.851,8.851,0,0,0-1.638-.168c-2.961,0-4.767,1.806-4.767,5.04,0,3.108,1.533,4.935,4.347,4.935a8.577,8.577,0,0,0,2.184-1.449h.168A1.663,1.663,0,0,0,187.8.147a3.4,3.4,0,0,0,1.344-.462l.189-1.176-.189-.147a3.036,3.036,0,0,1-.651.084c-.4,0-.525-.168-.546-.693Zm-3.78-4.116a4.337,4.337,0,0,1,1.869.483l.063,3.822L186-2.709a2.684,2.684,0,0,1-2.058,1.092c-1.47,0-2.352-1.2-2.373-3.444C181.524-7.308,182.532-8.379,184.107-8.379Zm10.92-1.491c-2.9,0-4.515,1.869-4.515,5.187,0,3.108,1.533,4.872,4.242,4.872,2.9,0,4.515-1.869,4.515-5.187C199.269-8.106,197.736-9.87,195.027-9.87ZM194.9-8.379c1.575,0,2.373,1.218,2.373,3.864,0,2.2-.8,3.234-2.373,3.234-1.6,0-2.394-1.2-2.394-3.864C192.507-7.308,193.3-8.379,194.9-8.379Zm9.576-1.47c-2.226,0-3.528,1.26-3.528,2.919,0,3.045,4.347,2.646,4.347,4.431A1.342,1.342,0,0,1,203.8-1.26a4.437,4.437,0,0,1-2.688-1.134l-.231.147-.252,1.785a7.6,7.6,0,0,0,2.94.651c2.415,0,3.633-1.491,3.633-3.045,0-2.961-4.347-2.583-4.347-4.347a1.226,1.226,0,0,1,1.365-1.155,3.917,3.917,0,0,1,2.142.735l.273-.063.294-1.68A6.649,6.649,0,0,0,204.477-9.849ZM216.3-9.87a6.729,6.729,0,0,0-3.78,1.26l.273,1.491.168.105a4.783,4.783,0,0,1,3-1.344,1.382,1.382,0,0,1,1.512,1.575l-.021,1.134-3.318.735A2.237,2.237,0,0,0,212.1-2.583c0,1.68,1.155,2.73,3.108,2.751a6.149,6.149,0,0,0,2.184-1.575h.147A1.635,1.635,0,0,0,219.072.147a3.422,3.422,0,0,0,1.323-.462l.21-1.176-.189-.147a3.212,3.212,0,0,1-.63.084c-.441,0-.609-.168-.609-.714,0-.714.252-4.242.252-4.977C219.429-8.9,218.211-9.87,216.3-9.87Zm1.155,5.46-.063,1.617a2.965,2.965,0,0,1-2.1,1.281,1.21,1.21,0,0,1-1.281-1.344.775.775,0,0,1,.714-.9ZM228.585,0h2.163l-.105-4.242.063-2.73c.021-1.806-1.092-2.835-3.255-2.835a7.141,7.141,0,0,0-2.583,1.491h-.147l.021-1.407-2.037.189.105,5.481L222.684,0h2.142L224.7-4.242l.021-2.562a3.767,3.767,0,0,1,2.52-1.26c1.008,0,1.512.651,1.491,1.7Zm8.82-9.87c-2.9,0-4.515,1.869-4.515,5.187,0,3.108,1.533,4.872,4.242,4.872,2.9,0,4.515-1.869,4.515-5.187C241.647-8.106,240.114-9.87,237.4-9.87Zm-.126,1.491c1.575,0,2.373,1.218,2.373,3.864,0,2.2-.8,3.234-2.373,3.234-1.6,0-2.394-1.2-2.394-3.864C234.885-7.308,235.683-8.379,237.279-8.379Zm9.576-1.47c-2.226,0-3.528,1.26-3.528,2.919,0,3.045,4.347,2.646,4.347,4.431a1.342,1.342,0,0,1-1.491,1.239,4.437,4.437,0,0,1-2.688-1.134l-.231.147-.252,1.785a7.6,7.6,0,0,0,2.94.651c2.415,0,3.633-1.491,3.633-3.045,0-2.961-4.347-2.583-4.347-4.347A1.226,1.226,0,0,1,246.6-8.358a3.917,3.917,0,0,1,2.142.735l.273-.063.294-1.68A6.649,6.649,0,0,0,246.855-9.849Zm9.471-.672-2.079-.084L254.1-8.778l.126.21,1.743-.189H260L255.318,1.3l.126.357,1.722.462L258.195-.63l3.822-8.358L262-10.563l-.945.042Zm11.949-.147c-3.024,0-4.767,2.037-4.767,5.586,0,3.339,1.638,5.25,4.494,5.25,3.024,0,4.725-2.016,4.725-5.544C272.727-8.757,271.11-10.668,268.275-10.668Zm-.168,1.974c1.932,0,2.961,1.176,2.961,3.57,0,2.268-1.008,3.4-2.94,3.4-1.974,0-2.94-1.176-2.94-3.507S266.154-8.694,268.107-8.694Z" transform="translate(17571 6563)"/>
      <path id="Caminho_773756" data-name="Caminho 773756" d="M6.867-13.629c-3.906,0-6.153,2.52-6.153,7.014,0,4.347,2.121,6.783,5.9,6.783a7.806,7.806,0,0,0,3.57-.882l.168-1.974-.21-.126a5.655,5.655,0,0,1-3.36,1.155c-2.415,0-3.8-1.764-3.8-5.187,0-3.318,1.344-4.977,3.8-4.977a4.991,4.991,0,0,1,3.108,1.092l.21-.063.4-1.911A7.12,7.12,0,0,0,6.867-13.629ZM15.876-9.87A6.729,6.729,0,0,0,12.1-8.61l.273,1.491.168.105a4.783,4.783,0,0,1,3-1.344,1.382,1.382,0,0,1,1.512,1.575l-.021,1.134-3.318.735a2.237,2.237,0,0,0-2.037,2.331c0,1.68,1.155,2.73,3.108,2.751a6.149,6.149,0,0,0,2.184-1.575h.147A1.635,1.635,0,0,0,18.648.147a3.422,3.422,0,0,0,1.323-.462l.21-1.176-.189-.147a3.212,3.212,0,0,1-.63.084c-.441,0-.609-.168-.609-.714,0-.714.252-4.242.252-4.977C19.005-8.9,17.787-9.87,15.876-9.87Zm1.155,5.46-.063,1.617a2.965,2.965,0,0,1-2.1,1.281,1.21,1.21,0,0,1-1.281-1.344.775.775,0,0,1,.714-.9ZM34.083,0h2.163l-.1-4.242.063-2.73c.021-1.806-1.092-2.835-3.255-2.835a7.616,7.616,0,0,0-2.772,1.575h-.126c-.42-1.008-1.449-1.575-3.024-1.575a6.974,6.974,0,0,0-2.583,1.491H24.3l.021-1.407-2.037.189.1,5.481L22.26,0h2.121l-.1-4.242L24.3-6.8a3.767,3.767,0,0,1,2.52-1.26c1.008,0,1.512.651,1.491,1.7L28.161,0H30.3l-.084-4.242.042-2.6a3.7,3.7,0,0,1,2.478-1.218c1.008,0,1.512.651,1.491,1.7Zm6.111-14.2a1.136,1.136,0,0,0-1.218,1.218A1.066,1.066,0,0,0,40.131-11.8a1.131,1.131,0,0,0,1.176-1.239A1.039,1.039,0,0,0,40.194-14.2Zm.84,9.954L41.2-9.723l-2.142.189.1,5.481L39.039,0h2.142ZM47.1-9.849c-2.226,0-3.528,1.26-3.528,2.919,0,3.045,4.347,2.646,4.347,4.431A1.342,1.342,0,0,1,46.431-1.26a4.437,4.437,0,0,1-2.688-1.134l-.231.147L43.26-.462A7.6,7.6,0,0,0,46.2.189c2.415,0,3.633-1.491,3.633-3.045,0-2.961-4.347-2.583-4.347-4.347a1.226,1.226,0,0,1,1.365-1.155,3.917,3.917,0,0,1,2.142.735l.273-.063.294-1.68A6.649,6.649,0,0,0,47.1-9.849Zm11.991,5.1.357-.336a8.182,8.182,0,0,0,.084-1.05c0-2.31-1.281-3.717-3.528-3.717-2.814,0-4.641,1.911-4.641,5.061,0,3.066,1.68,4.977,4.578,4.977a6.816,6.816,0,0,0,2.94-.714l.252-1.7-.189-.126a5.765,5.765,0,0,1-2.835.882c-1.848,0-2.73-1.2-2.772-3.276ZM57.582-6.153l-4.137.105a2.461,2.461,0,0,1,2.436-2.331c1.05,0,1.743.609,1.743,1.974Zm7.581,4.536c-.861,0-1.239-.336-1.218-1.386l.105-5.271h2.709l.1-1.218-.084-.147H64.092l.042-2.079-.189-.168-1.89.714v1.533H60.774L60.669-8.4l.084.126h1.323L62.1-4.179l-.084,1.512A2.506,2.506,0,0,0,64.491.126,6.063,6.063,0,0,0,66.633-.5l.21-1.344L66.633-2A3.311,3.311,0,0,1,65.163-1.617Zm6.93-8.253a6.729,6.729,0,0,0-3.78,1.26l.273,1.491.168.105a4.783,4.783,0,0,1,3-1.344,1.382,1.382,0,0,1,1.512,1.575l-.021,1.134-3.318.735a2.237,2.237,0,0,0-2.037,2.331C67.893-.9,69.048.147,71,.168a6.149,6.149,0,0,0,2.184-1.575h.147A1.635,1.635,0,0,0,74.865.147a3.422,3.422,0,0,0,1.323-.462l.21-1.176-.189-.147a3.212,3.212,0,0,1-.63.084c-.441,0-.609-.168-.609-.714,0-.714.252-4.242.252-4.977C75.222-8.9,74-9.87,72.093-9.87Zm1.155,5.46-.063,1.617a2.965,2.965,0,0,1-2.1,1.281A1.21,1.21,0,0,1,69.8-2.856a.775.775,0,0,1,.714-.9ZM81.4-9.849c-2.226,0-3.528,1.26-3.528,2.919,0,3.045,4.347,2.646,4.347,4.431A1.342,1.342,0,0,1,80.724-1.26a4.437,4.437,0,0,1-2.688-1.134l-.231.147L77.553-.462a7.6,7.6,0,0,0,2.94.651c2.415,0,3.633-1.491,3.633-3.045,0-2.961-4.347-2.583-4.347-4.347a1.226,1.226,0,0,1,1.365-1.155,3.917,3.917,0,0,1,2.142.735l.273-.063.294-1.68A6.649,6.649,0,0,0,81.4-9.849ZM93.45-9.87c-2.772,0-4.431,1.953-4.431,5.124C89.019-1.68,90.573.189,93.2.189A7.5,7.5,0,0,0,95.76-.294l.21-1.722-.189-.126a5.051,5.051,0,0,1-2.247.63c-1.6,0-2.5-1.26-2.5-3.4,0-2.037.882-3.192,2.373-3.192a4.163,4.163,0,0,1,2.058.651l.21-.084.357-1.785A6.3,6.3,0,0,0,93.45-9.87Zm8.148,0c-2.9,0-4.515,1.869-4.515,5.187,0,3.108,1.533,4.872,4.242,4.872,2.9,0,4.515-1.869,4.515-5.187C105.84-8.106,104.307-9.87,101.6-9.87Zm-.126,1.491c1.575,0,2.373,1.218,2.373,3.864,0,2.2-.8,3.234-2.373,3.234-1.6,0-2.394-1.2-2.394-3.864C99.078-7.308,99.876-8.379,101.472-8.379ZM119.952,0h2.163l-.1-4.242.063-2.73c.021-1.806-1.092-2.835-3.255-2.835a7.616,7.616,0,0,0-2.772,1.575h-.126c-.42-1.008-1.449-1.575-3.024-1.575a6.974,6.974,0,0,0-2.583,1.491h-.147l.021-1.407-2.037.189.1,5.481L108.129,0h2.121l-.1-4.242.021-2.562a3.767,3.767,0,0,1,2.52-1.26c1.008,0,1.512.651,1.491,1.7L114.03,0h2.142l-.084-4.242.042-2.6a3.7,3.7,0,0,1,2.478-1.218c1.008,0,1.512.651,1.491,1.7Zm12.81-14.784c-2.415,0-3.822,1.3-3.8,3.7l.021,1.449h-1.428L127.449-8.4l.084.126h1.449l.042,4.2L128.9,0h2.142l-.147-4.263.063-4.011h2.436l.126-1.218-.063-.147h-2.478L131-11.445c.021-1.218.588-1.806,1.575-1.806a3.846,3.846,0,0,1,1.617.4l.147-.126.126-1.617A8.114,8.114,0,0,0,132.762-14.784Zm6.93,5.082a3.1,3.1,0,0,0-2.646,1.911H136.9l.021-1.932-2.037.189.126,5.481L134.862,0H137l-.147-4.242.021-1.386c.735-1.449,1.47-2.037,2.331-2.037a2.939,2.939,0,0,1,.777.1l.231-.063V-9.66A4.091,4.091,0,0,0,139.692-9.7Zm5.418-.168a6.729,6.729,0,0,0-3.78,1.26l.273,1.491.168.105a4.783,4.783,0,0,1,3-1.344,1.382,1.382,0,0,1,1.512,1.575l-.021,1.134-3.318.735a2.237,2.237,0,0,0-2.037,2.331c0,1.68,1.155,2.73,3.108,2.751A6.149,6.149,0,0,0,146.2-1.407h.147A1.635,1.635,0,0,0,147.882.147a3.422,3.422,0,0,0,1.323-.462l.21-1.176-.189-.147a3.212,3.212,0,0,1-.63.084c-.441,0-.609-.168-.609-.714,0-.714.252-4.242.252-4.977C148.239-8.9,147.021-9.87,145.11-9.87Zm1.155,5.46L146.2-2.793a2.965,2.965,0,0,1-2.1,1.281,1.21,1.21,0,0,1-1.281-1.344.775.775,0,0,1,.714-.9Zm8.148-5.439c-2.226,0-3.528,1.26-3.528,2.919,0,3.045,4.347,2.646,4.347,4.431a1.342,1.342,0,0,1-1.491,1.239,4.437,4.437,0,0,1-2.688-1.134l-.231.147L150.57-.462a7.6,7.6,0,0,0,2.94.651c2.415,0,3.633-1.491,3.633-3.045,0-2.961-4.347-2.583-4.347-4.347a1.226,1.226,0,0,1,1.365-1.155,3.917,3.917,0,0,1,2.142.735l.273-.063.294-1.68A6.649,6.649,0,0,0,154.413-9.849Zm11.991,5.1.357-.336a8.181,8.181,0,0,0,.084-1.05c0-2.31-1.281-3.717-3.528-3.717-2.814,0-4.641,1.911-4.641,5.061,0,3.066,1.68,4.977,4.578,4.977a6.816,6.816,0,0,0,2.94-.714l.252-1.7-.189-.126a5.765,5.765,0,0,1-2.835.882c-1.848,0-2.73-1.2-2.772-3.276Zm-1.512-1.407-4.137.105a2.461,2.461,0,0,1,2.436-2.331c1.05,0,1.743.609,1.743,1.974Zm7.077-3.7c-2.226,0-3.528,1.26-3.528,2.919,0,3.045,4.347,2.646,4.347,4.431A1.342,1.342,0,0,1,171.3-1.26a4.437,4.437,0,0,1-2.688-1.134l-.231.147-.252,1.785a7.6,7.6,0,0,0,2.94.651c2.415,0,3.633-1.491,3.633-3.045,0-2.961-4.347-2.583-4.347-4.347a1.226,1.226,0,0,1,1.365-1.155,3.917,3.917,0,0,1,2.142.735l.273-.063.294-1.68A6.649,6.649,0,0,0,171.969-9.849Zm15.918,5.586.168-10.479-2.142.168.042,4.893a8.851,8.851,0,0,0-1.638-.168c-2.961,0-4.767,1.806-4.767,5.04,0,3.108,1.533,4.935,4.347,4.935a8.577,8.577,0,0,0,2.184-1.449h.168A1.663,1.663,0,0,0,187.8.147a3.4,3.4,0,0,0,1.344-.462l.189-1.176-.189-.147a3.036,3.036,0,0,1-.651.084c-.4,0-.525-.168-.546-.693Zm-3.78-4.116a4.337,4.337,0,0,1,1.869.483l.063,3.822L186-2.709a2.684,2.684,0,0,1-2.058,1.092c-1.47,0-2.352-1.2-2.373-3.444C181.524-7.308,182.532-8.379,184.107-8.379Zm10.92-1.491c-2.9,0-4.515,1.869-4.515,5.187,0,3.108,1.533,4.872,4.242,4.872,2.9,0,4.515-1.869,4.515-5.187C199.269-8.106,197.736-9.87,195.027-9.87ZM194.9-8.379c1.575,0,2.373,1.218,2.373,3.864,0,2.2-.8,3.234-2.373,3.234-1.6,0-2.394-1.2-2.394-3.864C192.507-7.308,193.3-8.379,194.9-8.379Zm9.576-1.47c-2.226,0-3.528,1.26-3.528,2.919,0,3.045,4.347,2.646,4.347,4.431A1.342,1.342,0,0,1,203.8-1.26a4.437,4.437,0,0,1-2.688-1.134l-.231.147-.252,1.785a7.6,7.6,0,0,0,2.94.651c2.415,0,3.633-1.491,3.633-3.045,0-2.961-4.347-2.583-4.347-4.347a1.226,1.226,0,0,1,1.365-1.155,3.917,3.917,0,0,1,2.142.735l.273-.063.294-1.68A6.649,6.649,0,0,0,204.477-9.849ZM216.3-9.87a6.729,6.729,0,0,0-3.78,1.26l.273,1.491.168.105a4.783,4.783,0,0,1,3-1.344,1.382,1.382,0,0,1,1.512,1.575l-.021,1.134-3.318.735A2.237,2.237,0,0,0,212.1-2.583c0,1.68,1.155,2.73,3.108,2.751a6.149,6.149,0,0,0,2.184-1.575h.147A1.635,1.635,0,0,0,219.072.147a3.422,3.422,0,0,0,1.323-.462l.21-1.176-.189-.147a3.212,3.212,0,0,1-.63.084c-.441,0-.609-.168-.609-.714,0-.714.252-4.242.252-4.977C219.429-8.9,218.211-9.87,216.3-9.87Zm1.155,5.46-.063,1.617a2.965,2.965,0,0,1-2.1,1.281,1.21,1.21,0,0,1-1.281-1.344.775.775,0,0,1,.714-.9ZM228.585,0h2.163l-.105-4.242.063-2.73c.021-1.806-1.092-2.835-3.255-2.835a7.141,7.141,0,0,0-2.583,1.491h-.147l.021-1.407-2.037.189.105,5.481L222.684,0h2.142L224.7-4.242l.021-2.562a3.767,3.767,0,0,1,2.52-1.26c1.008,0,1.512.651,1.491,1.7Zm8.82-9.87c-2.9,0-4.515,1.869-4.515,5.187,0,3.108,1.533,4.872,4.242,4.872,2.9,0,4.515-1.869,4.515-5.187C241.647-8.106,240.114-9.87,237.4-9.87Zm-.126,1.491c1.575,0,2.373,1.218,2.373,3.864,0,2.2-.8,3.234-2.373,3.234-1.6,0-2.394-1.2-2.394-3.864C234.885-7.308,235.683-8.379,237.279-8.379Zm9.576-1.47c-2.226,0-3.528,1.26-3.528,2.919,0,3.045,4.347,2.646,4.347,4.431a1.342,1.342,0,0,1-1.491,1.239,4.437,4.437,0,0,1-2.688-1.134l-.231.147-.252,1.785a7.6,7.6,0,0,0,2.94.651c2.415,0,3.633-1.491,3.633-3.045,0-2.961-4.347-2.583-4.347-4.347A1.226,1.226,0,0,1,246.6-8.358a3.917,3.917,0,0,1,2.142.735l.273-.063.294-1.68A6.649,6.649,0,0,0,246.855-9.849Zm12.6,2.415a4.339,4.339,0,0,0-2.478.777l-.147-.168c.672-2,2.415-3.36,5.607-4.494v-.21l-1.6-.966h-.126c-3.906,1.617-6.153,4.515-6.153,8.043,0,2.9,1.365,4.641,4.053,4.641a3.9,3.9,0,0,0,4.242-4.032A3.281,3.281,0,0,0,259.455-7.434Zm-.693,6.174c-1.617,0-2.268-1.092-2.268-3.234l.021-.5a3.826,3.826,0,0,1,2.331-.9c1.344,0,2.1.84,2.1,2.352A2.041,2.041,0,0,1,258.762-1.26Zm10.584-9.408c-3.024,0-4.767,2.037-4.767,5.586,0,3.339,1.638,5.25,4.494,5.25,3.024,0,4.725-2.016,4.725-5.544C273.8-8.757,272.181-10.668,269.346-10.668Zm-.168,1.974c1.932,0,2.961,1.176,2.961,3.57,0,2.268-1.008,3.4-2.94,3.4-1.974,0-2.94-1.176-2.94-3.507S267.225-8.694,269.178-8.694Z" transform="translate(17571 6616)"/>
      <path id="Caminho_773758" data-name="Caminho 773758" d="M5.04-10.4l-.315-.231L.21-9.3v1.7L.4-7.476,2.961-8.19l.021,4.074L2.856,0H5.019L4.914-4.347Zm10.437-.084-.126-.147-2.058.105H10.374l-1.155-.063-.294.294L8.82-4.62l.168.189,1.869.357c1.764.315,2.457.966,2.457,2.079,0,1.407-1.092,2.373-2.835,2.373A5.822,5.822,0,0,1,8.085-.147L7.917.021l.147,1.806a11.921,11.921,0,0,0,2.121.231c3.024,0,5.145-1.785,5.145-4.389,0-1.659-.882-2.772-3.528-3.318l-1.3-.273L10.563-8.8h2.814l1.722.147.147-.147Zm6.447-.189c-3.024,0-4.767,2.037-4.767,5.586,0,3.339,1.638,5.25,4.494,5.25,3.024,0,4.725-2.016,4.725-5.544C26.376-8.757,24.759-10.668,21.924-10.668Zm-.168,1.974c1.932,0,2.961,1.176,2.961,3.57,0,2.268-1.008,3.4-2.94,3.4-1.974,0-2.94-1.176-2.94-3.507S19.8-8.694,21.756-8.694Z" transform="translate(17982 6619)"/>
      <path id="Caminho_773761" data-name="Caminho 773761" d="M5.67-10.668C2.646-10.668.9-8.631.9-5.082.9-1.743,2.541.168,5.4.168c3.024,0,4.725-2.016,4.725-5.544C10.122-8.757,8.505-10.668,5.67-10.668ZM5.5-8.694c1.932,0,2.961,1.176,2.961,3.57,0,2.268-1.008,3.4-2.94,3.4-1.974,0-2.94-1.176-2.94-3.507S3.549-8.694,5.5-8.694Z" transform="translate(17849 6657)"/>
      <path id="Caminho_773760" data-name="Caminho 773760" d="M5.04-10.4l-.315-.231L.21-9.3v1.7L.4-7.476,2.961-8.19l.021,4.074L2.856,0H5.019L4.914-4.347Zm8-.273c-3.024,0-4.767,2.037-4.767,5.586,0,3.339,1.638,5.25,4.494,5.25,3.024,0,4.725-2.016,4.725-5.544C17.493-8.757,15.876-10.668,13.041-10.668Zm-.168,1.974c1.932,0,2.961,1.176,2.961,3.57,0,2.268-1.008,3.4-2.94,3.4-1.974,0-2.94-1.176-2.94-3.507S10.92-8.694,12.873-8.694Zm11.193-1.974c-3.024,0-4.767,2.037-4.767,5.586,0,3.339,1.638,5.25,4.494,5.25,3.024,0,4.725-2.016,4.725-5.544C28.518-8.757,26.9-10.668,24.066-10.668ZM23.9-8.694c1.932,0,2.961,1.176,2.961,3.57,0,2.268-1.008,3.4-2.94,3.4-1.974,0-2.94-1.176-2.94-3.507S21.945-8.694,23.9-8.694Z" transform="translate(17907 6657)"/>
      <path id="Caminho_773759" data-name="Caminho 773759" d="M4.935-10.626A6.4,6.4,0,0,0,1.05-9.114l.357,1.659h.231A4.175,4.175,0,0,1,4.473-8.8C5.4-8.8,5.9-8.316,5.9-7.665c0,.819-.735,1.806-2.1,3.276L.924-1.365V-.042l.1.084L1.806,0H6.552l2.31.105.273-1.764-.147-.147-1.827.168H3.738L3.7-1.743,5.565-3.864C7.245-5.754,8-7.056,8-8.19,8-9.681,6.7-10.626,4.935-10.626Zm10.437-.042c-3.024,0-4.767,2.037-4.767,5.586,0,3.339,1.638,5.25,4.494,5.25,3.024,0,4.725-2.016,4.725-5.544C19.824-8.757,18.207-10.668,15.372-10.668ZM15.2-8.694c1.932,0,2.961,1.176,2.961,3.57,0,2.268-1.008,3.4-2.94,3.4-1.974,0-2.94-1.176-2.94-3.507S13.251-8.694,15.2-8.694ZM26.4-10.668c-3.024,0-4.767,2.037-4.767,5.586,0,3.339,1.638,5.25,4.494,5.25,3.024,0,4.725-2.016,4.725-5.544C30.849-8.757,29.232-10.668,26.4-10.668Zm-.168,1.974c1.932,0,2.961,1.176,2.961,3.57,0,2.268-1.008,3.4-2.94,3.4-1.974,0-2.94-1.176-2.94-3.507S24.276-8.694,26.229-8.694Z" transform="translate(17989 6657)"/>
      <path id="Caminho_773762" data-name="Caminho 773762" d="M4.116-10.647A5.663,5.663,0,0,0,.588-9.366L.9-7.749h.231A4.077,4.077,0,0,1,3.7-8.9a1.457,1.457,0,0,1,1.659,1.47A2.313,2.313,0,0,1,3.024-5.313L2.1-5.292l-.063,1.47.126.147H3.486c1.554.063,2.373.735,2.373,1.89C5.859-.441,4.746.378,3.024.378A5.641,5.641,0,0,1,.8-.084L.651.063.756,1.827a14.534,14.534,0,0,0,2.163.189C5.9,2.016,7.9.42,7.9-1.953A2.793,2.793,0,0,0,5.46-4.725v-.084A3.532,3.532,0,0,0,7.518-7.9C7.518-9.534,6.153-10.647,4.116-10.647Zm10.374-.021c-3.024,0-4.767,2.037-4.767,5.586,0,3.339,1.638,5.25,4.494,5.25,3.024,0,4.725-2.016,4.725-5.544C18.942-8.757,17.325-10.668,14.49-10.668Zm-.168,1.974c1.932,0,2.961,1.176,2.961,3.57,0,2.268-1.008,3.4-2.94,3.4-1.974,0-2.94-1.176-2.94-3.507S12.369-8.694,14.322-8.694Zm11.193-1.974c-3.024,0-4.767,2.037-4.767,5.586,0,3.339,1.638,5.25,4.494,5.25,3.024,0,4.725-2.016,4.725-5.544C29.967-8.757,28.35-10.668,25.515-10.668Zm-.168,1.974c1.932,0,2.961,1.176,2.961,3.57,0,2.268-1.008,3.4-2.94,3.4-1.974,0-2.94-1.176-2.94-3.507S23.394-8.694,25.347-8.694Z" transform="translate(18078 6657)"/>
      <path id="Caminho_773763" data-name="Caminho 773763" d="M9.555-1.386,9.66-2.9l-.126-.189H7.644l.063-7.434H5.733L.5-2.961v1.386l.147.189,1.575-.042h3.7L5.859,1.89l.126.147,1.638-.126.126-.168L7.665-1.428Zm-7.182-1.7,3.4-4.935h.168v4.935ZM15.96-10.668c-3.024,0-4.767,2.037-4.767,5.586,0,3.339,1.638,5.25,4.494,5.25,3.024,0,4.725-2.016,4.725-5.544C20.412-8.757,18.8-10.668,15.96-10.668Zm-.168,1.974c1.932,0,2.961,1.176,2.961,3.57,0,2.268-1.008,3.4-2.94,3.4-1.974,0-2.94-1.176-2.94-3.507S13.839-8.694,15.792-8.694Zm11.193-1.974c-3.024,0-4.767,2.037-4.767,5.586,0,3.339,1.638,5.25,4.494,5.25,3.024,0,4.725-2.016,4.725-5.544C31.437-8.757,29.82-10.668,26.985-10.668Zm-.168,1.974c1.932,0,2.961,1.176,2.961,3.57,0,2.268-1.008,3.4-2.94,3.4-1.974,0-2.94-1.176-2.94-3.507S24.864-8.694,26.817-8.694Z" transform="translate(18166 6657)"/>
      <path id="Caminho_773764" data-name="Caminho 773764" d="M6.324-15.9A9.912,9.912,0,0,0,.713-14.074l.62,3.007h.434a6.345,6.345,0,0,1,3.658-1.457c1.3,0,2.108.62,2.108,1.767A2.889,2.889,0,0,1,4.5-8.153l-1.364.062L3.007-5.27l.217.279h2.17c1.86.062,2.821.837,2.821,2.2,0,1.643-1.395,2.6-3.689,2.6A10.055,10.055,0,0,1,1.085-.837L.806-.558l.217,3.193a19.772,19.772,0,0,0,3.348.31c4.65,0,7.781-2.356,7.781-5.828,0-2.108-1.116-3.472-3.379-4.123v-.155a5.118,5.118,0,0,0,2.945-4.495C11.718-14.167,9.548-15.9,6.324-15.9Zm15.407,0c-4.557,0-7.161,3.069-7.161,8.4C14.57-2.573,16.988.279,21.2.279c4.526,0,7.13-3.038,7.13-8.339C28.334-13.082,25.916-15.9,21.731-15.9Zm-.31,3.813c2.48,0,3.72,1.426,3.72,4.495,0,2.883-1.209,4.247-3.689,4.247-2.511,0-3.689-1.426-3.689-4.433C17.763-10.757,18.941-12.09,21.421-12.09ZM37.882-15.9c-4.557,0-7.161,3.069-7.161,8.4,0,4.929,2.418,7.781,6.634,7.781,4.526,0,7.13-3.038,7.13-8.339C44.485-13.082,42.067-15.9,37.882-15.9Zm-.31,3.813c2.48,0,3.72,1.426,3.72,4.495,0,2.883-1.209,4.247-3.689,4.247-2.511,0-3.689-1.426-3.689-4.433C33.914-10.757,35.092-12.09,37.572-12.09Z" transform="translate(18107 6566)"/>
    </g>
    <path id="Caminho_773752" data-name="Caminho 773752" d="M-135.856,0V-13.792L-125.552,0h3.776V-22.4h-4.544V-8.64l-10.3-13.76h-3.744V0Zm29.184-24.992-7.488,4.864,1.664,2.688,7.968-3.936Zm4.7,9.312h-4.512c0,5.088-.16,12.288-4,12.288-1.984,0-2.368-2.08-2.368-3.424V-15.68h-4.48V-5.344c0,3.808,2.432,5.824,5.7,5.824,2.752,0,4.448-1.632,5.5-4.064L-106.48,0h4.512Zm24.384-.48c-2.656,0-4.352,1.568-5.408,3.936a4.659,4.659,0,0,0-4.832-3.936c-2.784,0-4.512,1.728-5.568,4.288l.384-3.808h-4.48V0h4.48c0-5.056.224-12.288,3.776-12.288,1.76,0,1.952,1.92,1.952,3.424V0h4.512c0-5.024.192-12.288,3.744-12.288,1.792,0,1.984,1.92,1.984,3.424V0h4.48V-10.112C-72.56-13.92-74.384-16.16-77.584-16.16ZM-60.592-3.072a4.137,4.137,0,0,1-4.256-3.072l9.6-1.12a8.269,8.269,0,0,0,.416-2.624c0-3.968-2.88-6.272-6.72-6.272-4.544,0-7.84,3.2-7.84,8.256,0,5.024,3.3,8.384,8.48,8.384a9.652,9.652,0,0,0,5.7-1.76L-56.88-4.192A7.183,7.183,0,0,1-60.592-3.072Zm-.7-9.632c1.408,0,2.432.736,2.432,2.112a2.472,2.472,0,0,1-.1.8l-6.08.736C-64.72-11.1-63.44-12.7-61.3-12.7Zm20.032-3.456c-3.456,0-5.184,2.56-6.08,5.984l.544-5.5h-4.48V0h4.48c0-5.184.32-11.52,4.576-11.52a5.077,5.077,0,0,1,1.6.288L-39.44-15.9A6.609,6.609,0,0,0-41.264-16.16ZM-29.9.48a7.914,7.914,0,0,0,8.192-8.32A7.9,7.9,0,0,0-29.9-16.16a7.9,7.9,0,0,0-8.224,8.32A7.922,7.922,0,0,0-29.9.48Zm0-3.648c-2.368,0-3.584-2.176-3.584-4.672s1.216-4.672,3.584-4.672c2.336,0,3.552,2.176,3.552,4.672S-27.568-3.168-29.9-3.168Zm30.72-12.8a12.326,12.326,0,0,0-2.208-.192c-6.336,0-9.056,4.608-9.056,9.344,0,4.288,2.208,7.3,5.856,7.3C-1.648.48.176-1.632,1.3-4.48L.816,0H5.328V-23.168H.816ZM-3.216-3.136c-1.44,0-2.56-.928-2.56-3.84,0-2.208.768-5.76,4.32-5.76a5.251,5.251,0,0,1,2.24.544C.528-8-.4-3.136-3.216-3.136Zm20.64.064a4.137,4.137,0,0,1-4.256-3.072l9.6-1.12a8.269,8.269,0,0,0,.416-2.624c0-3.968-2.88-6.272-6.72-6.272-4.544,0-7.84,3.2-7.84,8.256C8.624-2.88,11.92.48,17.1.48a9.652,9.652,0,0,0,5.7-1.76L21.136-4.192A7.183,7.183,0,0,1,17.424-3.072Zm-.7-9.632c1.408,0,2.432.736,2.432,2.112a2.472,2.472,0,0,1-.1.8l-6.08.736C13.3-11.1,14.576-12.7,16.72-12.7Zm27.488-2.208a15.174,15.174,0,0,1,1.568,6.368c0,2.624-.992,5.28-3.616,5.28-1.7,0-2.56-1.088-2.56-3.168V-15.68H35.12v9.728c0,3.776,2.72,6.4,7.008,6.4,5.5,0,8.224-4.256,8.224-8.992a20.517,20.517,0,0,0-1.76-7.584ZM61.9-3.072a4.137,4.137,0,0,1-4.256-3.072l9.6-1.12a8.269,8.269,0,0,0,.416-2.624c0-3.968-2.88-6.272-6.72-6.272-4.544,0-7.84,3.2-7.84,8.256C53.1-2.88,56.4.48,61.584.48a9.652,9.652,0,0,0,5.7-1.76L65.616-4.192A7.183,7.183,0,0,1,61.9-3.072ZM61.2-12.7c1.408,0,2.432.736,2.432,2.112a2.472,2.472,0,0,1-.1.8l-6.08.736C57.776-11.1,59.056-12.7,61.2-12.7ZM81.264-16.16c-3.04,0-4.864,1.856-5.952,4.576l.384-4.1h-4.48V0H75.7c0-5.088.288-12.288,4.192-12.288,1.984,0,2.176,2.112,2.176,3.424V0h4.512V-10.112C86.576-13.888,84.624-16.16,81.264-16.16Zm20.032.192a12.326,12.326,0,0,0-2.208-.192c-6.336,0-9.056,4.608-9.056,9.344,0,4.288,2.208,7.3,5.856,7.3,2.944,0,4.768-2.112,5.888-4.96L101.3,0h4.512V-23.168H101.3ZM97.264-3.136c-1.44,0-2.56-.928-2.56-3.84,0-2.208.768-5.76,4.32-5.76a5.251,5.251,0,0,1,2.24.544C101.008-8,100.08-3.136,97.264-3.136ZM118.448-16.16c-6.336,0-9.056,4.608-9.056,9.344,0,4.288,2.208,7.3,5.856,7.3,2.944,0,4.768-2.08,5.888-4.928L120.656,0h4.512V-14.112A11.764,11.764,0,0,0,118.448-16.16ZM116.624-3.136c-1.44,0-2.56-.928-2.56-3.84,0-2.208.768-5.76,4.32-5.76a5.251,5.251,0,0,1,2.24.544C120.368-8,119.44-3.136,116.624-3.136ZM134.96.48c3.872,0,6.688-1.664,6.688-5.28,0-5.568-8.1-3.936-8.1-6.4,0-1.024,1.28-1.312,2.464-1.312a8.366,8.366,0,0,1,3.9.96l1.536-3.136a12.438,12.438,0,0,0-5.888-1.472c-3.232,0-6.528,1.344-6.528,4.928,0,5.856,8.128,4.16,8.128,6.752,0,.864-.864,1.344-2.432,1.344a9.8,9.8,0,0,1-4.864-1.376L128.24-1.248A13.694,13.694,0,0,0,134.96.48Z" transform="translate(655 6707)"/>
    <path id="Caminho_773753" data-name="Caminho 773753" d="M6.909,5.35c-3.969,0-6.2,2.52-6.2,7.035,0,4.326,2.079,6.8,5.8,6.8,3.948,0,6.195-2.6,6.195-7.2C12.7,7.744,10.626,5.35,6.909,5.35ZM6.72,7.135c2.541,0,3.738,1.6,3.738,5.25,0,3.486-1.239,5.061-3.78,5.061S2.94,15.808,2.94,12.112C2.94,8.689,4.158,7.135,6.72,7.135ZM17.829,9.151c-2.226,0-3.528,1.26-3.528,2.919,0,3.045,4.347,2.646,4.347,4.431a1.342,1.342,0,0,1-1.491,1.239,4.437,4.437,0,0,1-2.688-1.134l-.231.147-.252,1.785a7.6,7.6,0,0,0,2.94.651c2.415,0,3.633-1.491,3.633-3.045,0-2.961-4.347-2.583-4.347-4.347a1.226,1.226,0,0,1,1.365-1.155,3.917,3.917,0,0,1,2.142.735l.273-.063.294-1.68A6.649,6.649,0,0,0,17.829,9.151ZM29.652,9.13a6.729,6.729,0,0,0-3.78,1.26l.273,1.491.168.105a4.783,4.783,0,0,1,3-1.344,1.382,1.382,0,0,1,1.512,1.575l-.021,1.134-3.318.735a2.237,2.237,0,0,0-2.037,2.331c0,1.68,1.155,2.73,3.108,2.751a6.149,6.149,0,0,0,2.184-1.575h.147a1.635,1.635,0,0,0,1.533,1.554,3.422,3.422,0,0,0,1.323-.462l.21-1.176-.189-.147a3.212,3.212,0,0,1-.63.084c-.441,0-.609-.168-.609-.714,0-.714.252-4.242.252-4.977C32.781,10.1,31.563,9.13,29.652,9.13Zm1.155,5.46-.063,1.617a2.965,2.965,0,0,1-2.1,1.281,1.21,1.21,0,0,1-1.281-1.344.775.775,0,0,1,.714-.9ZM41.937,19H44.1l-.1-4.242.063-2.73c.021-1.806-1.092-2.835-3.255-2.835a7.141,7.141,0,0,0-2.583,1.491h-.147l.021-1.407-2.037.189.1,5.481L36.036,19h2.142l-.126-4.242.021-2.562a3.767,3.767,0,0,1,2.52-1.26c1.008,0,1.512.651,1.491,1.7Zm8.82-9.87c-2.9,0-4.515,1.869-4.515,5.187,0,3.108,1.533,4.872,4.242,4.872C53.382,19.189,55,17.32,55,14,55,10.894,53.466,9.13,50.757,9.13Zm-.126,1.491c1.575,0,2.373,1.218,2.373,3.864,0,2.2-.8,3.234-2.373,3.234-1.6,0-2.394-1.2-2.394-3.864C48.237,11.692,49.035,10.621,50.631,10.621Zm9.576-1.47c-2.226,0-3.528,1.26-3.528,2.919,0,3.045,4.347,2.646,4.347,4.431a1.342,1.342,0,0,1-1.491,1.239,4.437,4.437,0,0,1-2.688-1.134l-.231.147-.252,1.785a7.6,7.6,0,0,0,2.94.651c2.415,0,3.633-1.491,3.633-3.045,0-2.961-4.347-2.583-4.347-4.347a1.226,1.226,0,0,1,1.365-1.155,3.917,3.917,0,0,1,2.142.735l.273-.063.294-1.68A6.649,6.649,0,0,0,60.207,9.151Zm9.471-.672L67.6,8.4l-.147,1.827.126.21,1.743-.189h4.032L68.67,20.3l.126.357,1.722.462,1.029-2.751,3.822-8.358-.021-1.575-.945.042Zm11.949-.147c-3.024,0-4.767,2.037-4.767,5.586,0,3.339,1.638,5.25,4.494,5.25,3.024,0,4.725-2.016,4.725-5.544C86.079,10.243,84.462,8.332,81.627,8.332Zm-.168,1.974c1.932,0,2.961,1.176,2.961,3.57,0,2.268-1.008,3.4-2.94,3.4-1.974,0-2.94-1.176-2.94-3.507S79.506,10.306,81.459,10.306ZM95.319,9.13a6.729,6.729,0,0,0-3.78,1.26l.273,1.491.168.105a4.783,4.783,0,0,1,3-1.344,1.382,1.382,0,0,1,1.512,1.575l-.021,1.134-3.318.735a2.237,2.237,0,0,0-2.037,2.331c0,1.68,1.155,2.73,3.108,2.751a6.149,6.149,0,0,0,2.184-1.575h.147a1.635,1.635,0,0,0,1.533,1.554,3.422,3.422,0,0,0,1.323-.462l.21-1.176-.189-.147a3.212,3.212,0,0,1-.63.084c-.441,0-.609-.168-.609-.714,0-.714.252-4.242.252-4.977C98.448,10.1,97.23,9.13,95.319,9.13Zm1.155,5.46-.063,1.617a2.965,2.965,0,0,1-2.1,1.281,1.21,1.21,0,0,1-1.281-1.344.775.775,0,0,1,.714-.9Zm9.933-5.376a6.328,6.328,0,0,0-2.52,1.449h-.147l.021-1.386-2.058.189.126,5.481-.126,7.938h2.121l-.063-3.864a9.036,9.036,0,0,0,1.638.168c3,0,4.767-1.89,4.767-5.313C110.166,10.957,108.885,9.214,106.407,9.214Zm-.84,8.505a4.058,4.058,0,0,1-1.827-.462l-.042-2.5.021-2.562a3.335,3.335,0,0,1,2.331-1.26c1.344,0,2.079,1.176,2.1,3.213C108.192,16.606,107.142,17.719,105.567,17.719ZM117.243,9.3a3.1,3.1,0,0,0-2.646,1.911h-.147l.021-1.932-2.037.189.126,5.481L112.413,19h2.142l-.147-4.242.021-1.386c.735-1.449,1.47-2.037,2.331-2.037a2.939,2.939,0,0,1,.777.1l.231-.063V9.34A4.091,4.091,0,0,0,117.243,9.3Zm8.988,4.956.357-.336a8.182,8.182,0,0,0,.084-1.05c0-2.31-1.281-3.717-3.528-3.717-2.814,0-4.641,1.911-4.641,5.061,0,3.066,1.68,4.977,4.578,4.977a6.816,6.816,0,0,0,2.94-.714l.252-1.7-.189-.126a5.765,5.765,0,0,1-2.835.882c-1.848,0-2.73-1.2-2.772-3.276Zm-1.512-1.407-4.137.1a2.461,2.461,0,0,1,2.436-2.331c1.05,0,1.743.609,1.743,1.974Zm7.077-3.7c-2.226,0-3.528,1.26-3.528,2.919,0,3.045,4.347,2.646,4.347,4.431a1.342,1.342,0,0,1-1.491,1.239,4.437,4.437,0,0,1-2.688-1.134l-.231.147-.252,1.785a7.6,7.6,0,0,0,2.94.651c2.415,0,3.633-1.491,3.633-3.045,0-2.961-4.347-2.583-4.347-4.347a1.226,1.226,0,0,1,1.365-1.155,3.917,3.917,0,0,1,2.142.735l.273-.063.294-1.68A6.649,6.649,0,0,0,131.8,9.151Zm11.991,5.1.357-.336a8.181,8.181,0,0,0,.084-1.05c0-2.31-1.281-3.717-3.528-3.717-2.814,0-4.641,1.911-4.641,5.061,0,3.066,1.68,4.977,4.578,4.977a6.816,6.816,0,0,0,2.94-.714l.252-1.7-.189-.126a5.765,5.765,0,0,1-2.835.882c-1.848,0-2.73-1.2-2.772-3.276Zm-1.512-1.407-4.137.1a2.461,2.461,0,0,1,2.436-2.331c1.05,0,1.743.609,1.743,1.974ZM152.334,19H154.5l-.105-4.242.063-2.73c.021-1.806-1.092-2.835-3.255-2.835a7.141,7.141,0,0,0-2.583,1.491h-.147l.021-1.407-2.037.189.105,5.481L146.433,19h2.142l-.126-4.242.021-2.562a3.767,3.767,0,0,1,2.52-1.26c1.008,0,1.512.651,1.491,1.7Zm8.442-1.617c-.861,0-1.239-.336-1.218-1.386l.1-5.271h2.709l.105-1.218-.084-.147h-2.688l.042-2.079-.189-.168-1.89.714V9.361h-1.281l-.1,1.239.084.126h1.323l.021,4.095-.084,1.512a2.506,2.506,0,0,0,2.478,2.793,6.062,6.062,0,0,0,2.142-.63l.21-1.344-.21-.147A3.311,3.311,0,0,1,160.776,17.383Zm6.93-8.253a6.729,6.729,0,0,0-3.78,1.26l.273,1.491.168.105a4.783,4.783,0,0,1,3-1.344,1.382,1.382,0,0,1,1.512,1.575l-.021,1.134-3.318.735a2.237,2.237,0,0,0-2.037,2.331c0,1.68,1.155,2.73,3.108,2.751a6.149,6.149,0,0,0,2.184-1.575h.147a1.635,1.635,0,0,0,1.533,1.554,3.422,3.422,0,0,0,1.323-.462l.21-1.176-.189-.147a3.212,3.212,0,0,1-.63.084c-.441,0-.609-.168-.609-.714,0-.714.252-4.242.252-4.977C170.835,10.1,169.617,9.13,167.706,9.13Zm1.155,5.46-.063,1.617a2.965,2.965,0,0,1-2.1,1.281,1.21,1.21,0,0,1-1.281-1.344.775.775,0,0,1,.714-.9ZM185.913,19h2.163l-.105-4.242.063-2.73c.021-1.806-1.092-2.835-3.255-2.835a7.615,7.615,0,0,0-2.772,1.575h-.126c-.42-1.008-1.449-1.575-3.024-1.575a6.974,6.974,0,0,0-2.583,1.491h-.147l.021-1.407-2.037.189.105,5.481L174.09,19h2.121l-.1-4.242.021-2.562a3.767,3.767,0,0,1,2.52-1.26c1.008,0,1.512.651,1.491,1.7L179.991,19h2.142l-.084-4.242.042-2.6a3.7,3.7,0,0,1,2.478-1.218c1.008,0,1.512.651,1.491,1.7ZM198.03,9.13c-2.9,0-4.515,1.869-4.515,5.187,0,3.108,1.533,4.872,4.242,4.872,2.9,0,4.515-1.869,4.515-5.187C202.272,10.894,200.739,9.13,198.03,9.13Zm-.126,1.491c1.575,0,2.373,1.218,2.373,3.864,0,2.2-.8,3.234-2.373,3.234-1.6,0-2.394-1.2-2.394-3.864C195.51,11.692,196.308,10.621,197.9,10.621ZM219.744,19h2.163l-.105-4.242.063-2.73c.021-1.806-1.092-2.835-3.255-2.835a7.615,7.615,0,0,0-2.772,1.575h-.126c-.42-1.008-1.449-1.575-3.024-1.575a6.974,6.974,0,0,0-2.583,1.491h-.147l.021-1.407-2.037.189.105,5.481L207.921,19h2.121l-.1-4.242.021-2.562a3.767,3.767,0,0,1,2.52-1.26c1.008,0,1.512.651,1.491,1.7L213.822,19h2.142l-.084-4.242.042-2.6a3.7,3.7,0,0,1,2.478-1.218c1.008,0,1.512.651,1.491,1.7Zm8.442-9.87a6.729,6.729,0,0,0-3.78,1.26l.273,1.491.168.105a4.783,4.783,0,0,1,3-1.344,1.382,1.382,0,0,1,1.512,1.575l-.021,1.134-3.318.735a2.237,2.237,0,0,0-2.037,2.331c0,1.68,1.155,2.73,3.108,2.751a6.149,6.149,0,0,0,2.184-1.575h.147a1.635,1.635,0,0,0,1.533,1.554,3.422,3.422,0,0,0,1.323-.462l.21-1.176-.189-.147a3.212,3.212,0,0,1-.63.084c-.441,0-.609-.168-.609-.714,0-.714.252-4.242.252-4.977C231.315,10.1,230.1,9.13,228.186,9.13Zm1.155,5.46-.063,1.617a2.965,2.965,0,0,1-2.1,1.281,1.21,1.21,0,0,1-1.281-1.344.775.775,0,0,1,.714-.9ZM235.725,4.8a1.136,1.136,0,0,0-1.218,1.218A1.066,1.066,0,0,0,235.662,7.2a1.131,1.131,0,0,0,1.176-1.239A1.039,1.039,0,0,0,235.725,4.8Zm.84,9.954.168-5.481-2.142.189.105,5.481L234.57,19h2.142Zm6.951-5.628C240.618,9.13,239,11,239,14.317c0,3.108,1.533,4.872,4.242,4.872,2.9,0,4.515-1.869,4.515-5.187C247.758,10.894,246.225,9.13,243.516,9.13Zm-.126,1.491c1.575,0,2.373,1.218,2.373,3.864,0,2.2-.8,3.234-2.373,3.234-1.6,0-2.394-1.2-2.394-3.864C241,11.692,241.794,10.621,243.39,10.621ZM254.877,9.3a3.1,3.1,0,0,0-2.646,1.911h-.147l.021-1.932-2.037.189.126,5.481L250.047,19h2.142l-.147-4.242.021-1.386c.735-1.449,1.47-2.037,2.331-2.037a2.939,2.939,0,0,1,.777.1l.231-.063V9.34A4.091,4.091,0,0,0,254.877,9.3Zm6.636,1.386-.273-1.428-1.974.1L262.143,19h2.31l3.423-9.681h-1.89l-.357,1.47-2.142,6.153h-.147ZM272.958,9.13c-2.9,0-4.515,1.869-4.515,5.187,0,3.108,1.533,4.872,4.242,4.872,2.9,0,4.515-1.869,4.515-5.187C277.2,10.894,275.667,9.13,272.958,9.13Zm-.126,1.491c1.575,0,2.373,1.218,2.373,3.864,0,2.2-.8,3.234-2.373,3.234-1.6,0-2.394-1.2-2.394-3.864C270.438,11.692,271.236,10.621,272.832,10.621Zm8.757,4.116.168-10.479-2.142.168.126,10.5L279.594,19h2.142Zm10.92-5.46-2.037.189v6.825a3.443,3.443,0,0,1-2.289,1.071c-.987,0-1.47-.63-1.449-1.659l.1-6.426-2.121.189.084,4.2-.042,2.625c-.021,1.806,1.113,2.835,3.234,2.835a6.313,6.313,0,0,0,2.52-1.47h.168a1.682,1.682,0,0,0,1.554,1.491,3.3,3.3,0,0,0,1.323-.462l.21-1.176-.189-.147a3.035,3.035,0,0,1-.651.084c-.42,0-.567-.168-.567-.693ZM307.461,19h2.163l-.1-4.242.063-2.73c.021-1.806-1.092-2.835-3.255-2.835a7.616,7.616,0,0,0-2.772,1.575h-.126c-.42-1.008-1.449-1.575-3.024-1.575a6.974,6.974,0,0,0-2.583,1.491h-.147l.021-1.407-2.037.189.105,5.481L295.638,19h2.121l-.105-4.242.021-2.562a3.767,3.767,0,0,1,2.52-1.26c1.008,0,1.512.651,1.491,1.7L301.539,19h2.142l-.084-4.242.042-2.6a3.7,3.7,0,0,1,2.478-1.218c1.008,0,1.512.651,1.491,1.7Zm11.97-4.746.357-.336a8.183,8.183,0,0,0,.084-1.05c0-2.31-1.281-3.717-3.528-3.717-2.814,0-4.641,1.911-4.641,5.061,0,3.066,1.68,4.977,4.578,4.977a6.816,6.816,0,0,0,2.94-.714l.252-1.7-.189-.126a5.765,5.765,0,0,1-2.835.882c-1.848,0-2.73-1.2-2.772-3.276Zm-1.512-1.407-4.137.1a2.461,2.461,0,0,1,2.436-2.331c1.05,0,1.743.609,1.743,1.974Zm15.1,1.89.168-10.479-2.142.168.042,4.893a8.851,8.851,0,0,0-1.638-.168c-2.961,0-4.767,1.806-4.767,5.04,0,3.108,1.533,4.935,4.347,4.935a8.577,8.577,0,0,0,2.184-1.449h.168a1.663,1.663,0,0,0,1.554,1.47,3.4,3.4,0,0,0,1.344-.462l.189-1.176-.189-.147a3.036,3.036,0,0,1-.651.084c-.4,0-.525-.168-.546-.693Zm-3.78-4.116a4.337,4.337,0,0,1,1.869.483l.063,3.822-.042,1.365a2.684,2.684,0,0,1-2.058,1.092c-1.47,0-2.352-1.2-2.373-3.444C326.655,11.692,327.663,10.621,329.238,10.621Zm14.133,3.633.357-.336a8.183,8.183,0,0,0,.084-1.05c0-2.31-1.281-3.717-3.528-3.717-2.814,0-4.641,1.911-4.641,5.061,0,3.066,1.68,4.977,4.578,4.977a6.816,6.816,0,0,0,2.94-.714l.252-1.7-.189-.126a5.765,5.765,0,0,1-2.835.882c-1.848,0-2.73-1.2-2.772-3.276Zm-1.512-1.407-4.137.1a2.461,2.461,0,0,1,2.436-2.331c1.05,0,1.743.609,1.743,1.974Zm8.652-2.163-.273-1.428-1.974.1L351.141,19h2.31l3.423-9.681h-1.89l-.357,1.47-2.142,6.153h-.147Zm14.658,3.57.357-.336a8.183,8.183,0,0,0,.084-1.05c0-2.31-1.281-3.717-3.528-3.717-2.814,0-4.641,1.911-4.641,5.061,0,3.066,1.68,4.977,4.578,4.977a6.816,6.816,0,0,0,2.94-.714l.252-1.7-.189-.126a5.765,5.765,0,0,1-2.835.882c-1.848,0-2.73-1.2-2.772-3.276Zm-1.512-1.407-4.137.1a2.461,2.461,0,0,1,2.436-2.331c1.05,0,1.743.609,1.743,1.974ZM373.716,19h2.163l-.1-4.242.063-2.73c.021-1.806-1.092-2.835-3.255-2.835A7.141,7.141,0,0,0,370,10.684h-.147l.021-1.407-2.037.189.105,5.481L367.815,19h2.142l-.126-4.242.021-2.562a3.767,3.767,0,0,1,2.52-1.26c1.008,0,1.512.651,1.491,1.7Zm12.6-4.263.168-10.479-2.142.168.042,4.893a8.851,8.851,0,0,0-1.638-.168c-2.961,0-4.767,1.806-4.767,5.04,0,3.108,1.533,4.935,4.347,4.935a8.577,8.577,0,0,0,2.184-1.449h.168a1.663,1.663,0,0,0,1.554,1.47,3.4,3.4,0,0,0,1.344-.462l.189-1.176-.189-.147a3.036,3.036,0,0,1-.651.084c-.4,0-.525-.168-.546-.693Zm-3.78-4.116a4.337,4.337,0,0,1,1.869.483l.063,3.822-.042,1.365a2.684,2.684,0,0,1-2.058,1.092c-1.47,0-2.352-1.2-2.373-3.444C379.953,11.692,380.961,10.621,382.536,10.621ZM393.141,9.13a6.73,6.73,0,0,0-3.78,1.26l.273,1.491.168.105a4.783,4.783,0,0,1,3-1.344,1.382,1.382,0,0,1,1.512,1.575l-.021,1.134-3.318.735a2.237,2.237,0,0,0-2.037,2.331c0,1.68,1.155,2.73,3.108,2.751a6.149,6.149,0,0,0,2.184-1.575h.147a1.635,1.635,0,0,0,1.533,1.554,3.422,3.422,0,0,0,1.323-.462l.21-1.176-.189-.147a3.211,3.211,0,0,1-.63.084c-.441,0-.609-.168-.609-.714,0-.714.252-4.242.252-4.977C396.27,10.1,395.052,9.13,393.141,9.13Zm1.155,5.46-.063,1.617a2.965,2.965,0,0,1-2.1,1.281,1.21,1.21,0,0,1-1.281-1.344.775.775,0,0,1,.714-.9Zm8.148-5.439c-2.226,0-3.528,1.26-3.528,2.919,0,3.045,4.347,2.646,4.347,4.431a1.342,1.342,0,0,1-1.491,1.239,4.437,4.437,0,0,1-2.688-1.134l-.231.147-.252,1.785a7.6,7.6,0,0,0,2.94.651c2.415,0,3.633-1.491,3.633-3.045,0-2.961-4.347-2.583-4.347-4.347a1.226,1.226,0,0,1,1.365-1.155,3.917,3.917,0,0,1,2.142.735l.273-.063.294-1.68A6.649,6.649,0,0,0,402.444,9.151Zm15.918,5.586.168-10.479-2.142.168.042,4.893a8.851,8.851,0,0,0-1.638-.168c-2.961,0-4.767,1.806-4.767,5.04,0,3.108,1.533,4.935,4.347,4.935a8.577,8.577,0,0,0,2.184-1.449h.168a1.663,1.663,0,0,0,1.554,1.47,3.4,3.4,0,0,0,1.344-.462l.189-1.176-.189-.147a3.036,3.036,0,0,1-.651.084c-.4,0-.525-.168-.546-.693Zm-3.78-4.116a4.337,4.337,0,0,1,1.869.483l.063,3.822-.042,1.365a2.684,2.684,0,0,1-2.058,1.092c-1.47,0-2.352-1.2-2.373-3.444C412,11.692,413.007,10.621,414.582,10.621Zm14.133,3.633.357-.336a8.183,8.183,0,0,0,.084-1.05c0-2.31-1.281-3.717-3.528-3.717-2.814,0-4.641,1.911-4.641,5.061,0,3.066,1.68,4.977,4.578,4.977a6.816,6.816,0,0,0,2.94-.714l.252-1.7-.189-.126a5.765,5.765,0,0,1-2.835.882c-1.848,0-2.73-1.2-2.772-3.276ZM427.2,12.847l-4.137.1a2.461,2.461,0,0,1,2.436-2.331c1.05,0,1.743.609,1.743,1.974Zm7.077-3.7c-2.226,0-3.528,1.26-3.528,2.919,0,3.045,4.347,2.646,4.347,4.431a1.342,1.342,0,0,1-1.491,1.239,4.437,4.437,0,0,1-2.688-1.134l-.231.147-.252,1.785a7.6,7.6,0,0,0,2.94.651c2.415,0,3.633-1.491,3.633-3.045,0-2.961-4.347-2.583-4.347-4.347a1.226,1.226,0,0,1,1.365-1.155,3.917,3.917,0,0,1,2.142.735l.273-.063.294-1.68A6.649,6.649,0,0,0,434.28,9.151Zm12.558,5.586.168-10.479-2.142.168.042,4.893a8.851,8.851,0,0,0-1.638-.168c-2.961,0-4.767,1.806-4.767,5.04,0,3.108,1.533,4.935,4.347,4.935a8.577,8.577,0,0,0,2.184-1.449h.168a1.663,1.663,0,0,0,1.554,1.47,3.4,3.4,0,0,0,1.344-.462l.189-1.176-.189-.147a3.036,3.036,0,0,1-.651.084c-.4,0-.525-.168-.546-.693Zm-3.78-4.116a4.337,4.337,0,0,1,1.869.483l.063,3.822-.042,1.365a2.684,2.684,0,0,1-2.058,1.092c-1.47,0-2.352-1.2-2.373-3.444C440.475,11.692,441.483,10.621,443.058,10.621Zm14.133,3.633.357-.336a8.183,8.183,0,0,0,.084-1.05c0-2.31-1.281-3.717-3.528-3.717-2.814,0-4.641,1.911-4.641,5.061,0,3.066,1.68,4.977,4.578,4.977a6.816,6.816,0,0,0,2.94-.714l.252-1.7-.189-.126a5.765,5.765,0,0,1-2.835.882c-1.848,0-2.73-1.2-2.772-3.276Zm-1.512-1.407-4.137.1a2.461,2.461,0,0,1,2.436-2.331c1.05,0,1.743.609,1.743,1.974ZM467,9.13c-2.9,0-4.515,1.869-4.515,5.187,0,3.108,1.533,4.872,4.242,4.872,2.9,0,4.515-1.869,4.515-5.187C471.24,10.894,469.707,9.13,467,9.13Zm-.126,1.491c1.575,0,2.373,1.218,2.373,3.864,0,2.2-.8,3.234-2.373,3.234-1.6,0-2.394-1.2-2.394-3.864C464.478,11.692,465.276,10.621,466.872,10.621ZM478.044,4.8a1.136,1.136,0,0,0-1.218,1.218A1.066,1.066,0,0,0,477.981,7.2a1.131,1.131,0,0,0,1.176-1.239A1.039,1.039,0,0,0,478.044,4.8Zm.84,9.954.168-5.481-2.142.189.105,5.481L476.889,19h2.142ZM487.935,19H490.1l-.1-4.242.063-2.73c.021-1.806-1.092-2.835-3.255-2.835a7.141,7.141,0,0,0-2.583,1.491h-.147l.021-1.407-2.037.189.105,5.481L482.034,19h2.142l-.126-4.242.021-2.562a3.767,3.767,0,0,1,2.52-1.26c1.008,0,1.512.651,1.491,1.7Zm8.19-14.847-.21-.021c-1.218,1.155-2.352,2.1-3.591,3.108l.546.84.21.021c1.26-.819,2.478-1.638,3.8-2.6l.042-.21Zm-1.176,10.6.168-5.481-2.142.189.105,5.481L492.954,19H495.1Zm6.867-5.628c-2.772,0-4.431,1.953-4.431,5.124,0,3.066,1.554,4.935,4.179,4.935a7.5,7.5,0,0,0,2.562-.483l.21-1.722-.189-.126a5.051,5.051,0,0,1-2.247.63c-1.6,0-2.5-1.26-2.5-3.4,0-2.037.882-3.192,2.373-3.192a4.163,4.163,0,0,1,2.058.651l.21-.084.357-1.785A6.3,6.3,0,0,0,501.816,9.13ZM507.339,4.8a1.136,1.136,0,0,0-1.218,1.218A1.066,1.066,0,0,0,507.276,7.2a1.131,1.131,0,0,0,1.176-1.239A1.039,1.039,0,0,0,507.339,4.8Zm.84,9.954.168-5.481-2.142.189.105,5.481L506.184,19h2.142ZM515.13,9.13c-2.9,0-4.515,1.869-4.515,5.187,0,3.108,1.533,4.872,4.242,4.872,2.9,0,4.515-1.869,4.515-5.187C519.372,10.894,517.839,9.13,515.13,9.13ZM515,10.621c1.575,0,2.373,1.218,2.373,3.864,0,2.2-.8,3.234-2.373,3.234-1.6,0-2.394-1.2-2.394-3.864C512.61,11.692,513.408,10.621,515,10.621Zm17.6,4.116.168-10.479-2.142.168.042,4.893a8.851,8.851,0,0,0-1.638-.168c-2.961,0-4.767,1.806-4.767,5.04,0,3.108,1.533,4.935,4.347,4.935a8.576,8.576,0,0,0,2.184-1.449h.168a1.663,1.663,0,0,0,1.554,1.47,3.4,3.4,0,0,0,1.344-.462l.189-1.176-.189-.147a3.036,3.036,0,0,1-.651.084c-.4,0-.525-.168-.546-.693Zm-3.78-4.116a4.337,4.337,0,0,1,1.869.483l.063,3.822-.042,1.365a2.684,2.684,0,0,1-2.058,1.092c-1.47,0-2.352-1.2-2.373-3.444C526.239,11.692,527.247,10.621,528.822,10.621Zm10.6-1.491a6.729,6.729,0,0,0-3.78,1.26l.273,1.491.168.105a4.783,4.783,0,0,1,3-1.344,1.382,1.382,0,0,1,1.512,1.575l-.021,1.134-3.318.735a2.237,2.237,0,0,0-2.037,2.331c0,1.68,1.155,2.73,3.108,2.751a6.15,6.15,0,0,0,2.184-1.575h.147a1.635,1.635,0,0,0,1.533,1.554,3.422,3.422,0,0,0,1.323-.462l.21-1.176-.189-.147a3.212,3.212,0,0,1-.63.084c-.441,0-.609-.168-.609-.714,0-.714.252-4.242.252-4.977C542.556,10.1,541.338,9.13,539.427,9.13Zm1.155,5.46-.063,1.617a2.966,2.966,0,0,1-2.1,1.281,1.21,1.21,0,0,1-1.281-1.344.775.775,0,0,1,.714-.9Zm15.6-.336.357-.336a8.184,8.184,0,0,0,.084-1.05c0-2.31-1.281-3.717-3.528-3.717-2.814,0-4.641,1.911-4.641,5.061,0,3.066,1.68,4.977,4.578,4.977a6.815,6.815,0,0,0,2.94-.714l.252-1.7-.189-.126a5.765,5.765,0,0,1-2.835.882c-1.848,0-2.73-1.2-2.772-3.276Zm-1.512-1.407-4.137.1a2.461,2.461,0,0,1,2.436-2.331c1.05,0,1.743.609,1.743,1.974ZM570.654,19h2.163l-.1-4.242.063-2.73c.021-1.806-1.092-2.835-3.255-2.835a7.615,7.615,0,0,0-2.772,1.575h-.126c-.42-1.008-1.449-1.575-3.024-1.575a6.974,6.974,0,0,0-2.583,1.491h-.147l.021-1.407-2.037.189.1,5.481L558.831,19h2.121l-.1-4.242.021-2.562a3.767,3.767,0,0,1,2.52-1.26c1.008,0,1.512.651,1.491,1.7L564.732,19h2.142l-.084-4.242.042-2.6a3.7,3.7,0,0,1,2.478-1.218c1.008,0,1.512.651,1.491,1.7Zm9.66-9.786a6.328,6.328,0,0,0-2.52,1.449h-.147l.021-1.386-2.058.189.126,5.481-.126,7.938h2.121l-.063-3.864a9.036,9.036,0,0,0,1.638.168c3,0,4.767-1.89,4.767-5.313C584.073,10.957,582.792,9.214,580.314,9.214Zm-.84,8.505a4.058,4.058,0,0,1-1.827-.462l-.042-2.5.021-2.562a3.335,3.335,0,0,1,2.331-1.26c1.344,0,2.079,1.176,2.1,3.213C582.1,16.606,581.049,17.719,579.474,17.719ZM591.15,9.3a3.1,3.1,0,0,0-2.646,1.911h-.147l.021-1.932-2.037.189.126,5.481L586.32,19h2.142l-.147-4.242.021-1.386c.735-1.449,1.47-2.037,2.331-2.037a2.939,2.939,0,0,1,.777.1l.231-.063V9.34A4.091,4.091,0,0,0,591.15,9.3Zm8.988,4.956.357-.336a8.184,8.184,0,0,0,.084-1.05c0-2.31-1.281-3.717-3.528-3.717-2.814,0-4.641,1.911-4.641,5.061,0,3.066,1.68,4.977,4.578,4.977a6.815,6.815,0,0,0,2.94-.714l.252-1.7-.189-.126a5.765,5.765,0,0,1-2.835.882c-1.848,0-2.73-1.2-2.772-3.276Zm-1.512-1.407-4.137.1a2.461,2.461,0,0,1,2.436-2.331c1.05,0,1.743.609,1.743,1.974Zm7.077-3.7c-2.226,0-3.528,1.26-3.528,2.919,0,3.045,4.347,2.646,4.347,4.431a1.342,1.342,0,0,1-1.491,1.239,4.437,4.437,0,0,1-2.688-1.134l-.231.147-.252,1.785a7.6,7.6,0,0,0,2.94.651c2.415,0,3.633-1.491,3.633-3.045,0-2.961-4.347-2.583-4.347-4.347a1.226,1.226,0,0,1,1.365-1.155,3.917,3.917,0,0,1,2.142.735l.273-.063.294-1.68A6.649,6.649,0,0,0,605.7,9.151Zm8.463-.021a6.729,6.729,0,0,0-3.78,1.26l.273,1.491.168.105a4.783,4.783,0,0,1,3-1.344,1.382,1.382,0,0,1,1.512,1.575l-.021,1.134L612,14.086a2.237,2.237,0,0,0-2.037,2.331c0,1.68,1.155,2.73,3.108,2.751a6.149,6.149,0,0,0,2.184-1.575h.147a1.635,1.635,0,0,0,1.533,1.554,3.423,3.423,0,0,0,1.323-.462l.21-1.176-.189-.147a3.212,3.212,0,0,1-.63.084c-.441,0-.609-.168-.609-.714,0-.714.252-4.242.252-4.977C617.295,10.1,616.077,9.13,614.166,9.13Zm1.155,5.46-.063,1.617a2.965,2.965,0,0,1-2.1,1.281,1.21,1.21,0,0,1-1.281-1.344.775.775,0,0,1,.714-.9Z" transform="translate(514 6725)"/>
  </g>
</svg>
