<svg xmlns="http://www.w3.org/2000/svg" xmlns:xlink="http://www.w3.org/1999/xlink" fill="none" version="1.1" width="328" height="232.025390625" viewBox="0 0 328 232.025390625"><defs><linearGradient x1="0.20902326703071594" y1="0" x2="0.8787027099175547" y2="0.9538220019270374" id="master_svg0_0_13699"><stop offset="0%" stop-color="#FFFFFF" stop-opacity="1"/><stop offset="24.27770048379898%" stop-color="#95EBFF" stop-opacity="1"/><stop offset="64.44510221481323%" stop-color="#0024A8" stop-opacity="1"/><stop offset="100%" stop-color="#3DB8F9" stop-opacity="1"/></linearGradient><linearGradient x1="0" y1="-0.07054403424263" x2="0.023762913497163987" y2="0.9995288684766431" id="master_svg1_0_13701"><stop offset="0%" stop-color="#C95EE9" stop-opacity="1"/><stop offset="100%" stop-color="#9D7DF6" stop-opacity="1"/></linearGradient><mask id="master_svg2_0_5383" style="mask-type:alpha" maskUnits="objectBoundingBox"><g><path d="M122.70760937500005,164.73282623291016C122.70760937500005,164.73282623291016,96.39380937500005,206.45022623291015,96.39380937500005,206.45022623291015C96.39380937500005,206.45022623291015,73.32460937500005,164.80943813291015,73.32460937500005,164.80943813291015C42.49960937500005,172.81763623291016,18.36681937500005,195.34562623291015,10.349609375000046,223.79612623291015C10.349609375000046,223.79612623291015,185.97160937500007,223.79612623291015,185.97160937500007,223.79612623291015C177.93560937500007,195.25592623291016,153.67260937500006,172.67297623291014,122.70760937500005,164.73282623291016C122.70760937500005,164.73282623291016,122.70760937500005,164.73282623291016,122.70760937500005,164.73282623291016Z" fill="#FFFFFF" fill-opacity="1"/></g></mask><linearGradient x1="0.015410627238452435" y1="0.2688416540622711" x2="-0.09578051124973654" y2="0.9847243582401073" id="master_svg3_0_13595"><stop offset="0%" stop-color="#64DADB" stop-opacity="1"/><stop offset="100%" stop-color="#4DC5F2" stop-opacity="1"/></linearGradient><linearGradient x1="0.97254878282547" y1="1" x2="0" y2="1" id="master_svg4_0_13473"><stop offset="0%" stop-color="#FFFFFF" stop-opacity="0"/><stop offset="15.896299481391907%" stop-color="#FFFFFF" stop-opacity="0.40784314274787903"/><stop offset="41.416001319885254%" stop-color="#95EBFF" stop-opacity="1"/><stop offset="59.83930230140686%" stop-color="#3DB8F9" stop-opacity="1"/><stop offset="82.01829791069031%" stop-color="#1B74D8" stop-opacity="1"/><stop offset="100%" stop-color="#0024A8" stop-opacity="1"/></linearGradient><linearGradient x1="0.02745121717453003" y1="0" x2="1" y2="0" id="master_svg5_0_13475"><stop offset="0%" stop-color="#FFFFFF" stop-opacity="0"/><stop offset="15.896299481391907%" stop-color="#FFFFFF" stop-opacity="0.40784314274787903"/><stop offset="41.416001319885254%" stop-color="#95EBFF" stop-opacity="1"/><stop offset="59.83930230140686%" stop-color="#3DB8F9" stop-opacity="1"/><stop offset="82.01829791069031%" stop-color="#1B74D8" stop-opacity="1"/><stop offset="100%" stop-color="#0024A8" stop-opacity="1"/></linearGradient></defs><g><g><g><path d="M45.3234,27.92426586151123C45.3234,27.92426586151123,301.091,27.92426586151123,301.091,27.92426586151123C301.091,27.92426586151123,255.856,232.02526586151123,255.856,232.02526586151123C255.856,232.02526586151123,0,231.95426586151123,0,231.95426586151123C0,231.95426586151123,45.3234,27.92426586151123,45.3234,27.92426586151123C45.3234,27.92426586151123,45.3234,27.92426586151123,45.3234,27.92426586151123Z" fill="url(#master_svg0_0_13699)" fill-opacity="1" style="mix-blend-mode:passthrough"/></g><g><path d="M56.59007204589844,17.07460884375C56.59007204589844,17.07460884375,327.9994720458984,16.95458984375,327.9994720458984,16.95458984375C327.9994720458984,16.95458984375,282.00947204589846,224.01358984375,282.00947204589846,224.01358984375C282.00947204589846,224.01358984375,10.349472045898438,223.85458984375,10.349472045898438,223.85458984375C10.349472045898438,223.85458984375,56.59007204589844,17.07460884375,56.59007204589844,17.07460884375C56.59007204589844,17.07460884375,56.59007204589844,17.07460884375,56.59007204589844,17.07460884375Z" fill="#FFFFFF" fill-opacity="1" style="mix-blend-mode:passthrough"/></g><g><g><g><path d="M201.16939544677734,180.26964583740235C201.16939544677734,180.26964583740235,214.10259544677734,183.21624583740234,214.10259544677734,183.21624583740234C214.10259544677734,183.21624583740234,223.52059544677735,180.57504583740234,223.52059544677735,180.57504583740234C223.52059544677735,180.57504583740234,220.95289544677735,170.03034583740234,220.95289544677735,170.03034583740234C220.95289544677735,170.03034583740234,210.74970544677734,157.76253583740234,210.74970544677734,157.76253583740234C210.74970544677734,157.76253583740234,217.38579544677734,155.43508583740234,217.38579544677734,155.43508583740234C217.38579544677734,155.43508583740234,215.85979544677735,149.17354583740234,215.85979544677735,149.17354583740234C215.85979544677735,149.17354583740234,203.88416544677733,162.30684583740234,203.88416544677733,162.30684583740234C203.88416544677733,162.30684583740234,201.24292754677734,165.19024583740236,201.24292754677734,165.19024583740236C201.24292754677734,165.19024583740236,201.22200014677733,170.02024583740234,201.22200014677733,170.02024583740234C201.22200014677733,170.02024583740234,201.22200014677733,170.04114583740235,201.22200014677733,170.04114583740235C201.22200014677733,170.04114583740235,201.21186064677735,171.99864583740234,201.21186064677735,171.99864583740234C201.21186064677735,171.99864583740234,201.16939544677734,180.26964583740235,201.16939544677734,180.26964583740235C201.16939544677734,180.26964583740235,201.16939544677734,180.26964583740235,201.16939544677734,180.26964583740235Z" fill="#FFA694" fill-opacity="1" style="mix-blend-mode:passthrough"/></g><g><path d="M186.23656463623047,176.07077327148437C186.23656463623047,176.07077327148437,188.60406463623048,187.82520327148438,191.06662463623047,188.08820327148436C193.51841463623046,188.35110327148436,212.28156463623048,188.69840327148438,214.21756463623046,188.35110327148436C216.14336463623047,188.00390327148438,225.43526463623047,182.47930327148438,225.43526463623047,182.47930327148438C225.43526463623047,182.47930327148438,233.50666463623048,176.07077327148437,233.50666463623048,176.07077327148437C233.50666463623048,176.07077327148437,220.95246463623047,170.03039527148437,220.95246463623047,170.03039527148437C220.95246463623047,170.03039527148437,220.01586463623048,169.57793427148437,220.01586463623048,169.57793427148437C220.01586463623048,169.57793427148437,218.95316463623047,169.06210327148438,218.95316463623047,169.06210327148438C218.95316463623047,169.06210327148438,210.91346463623046,169.38847327148437,210.91346463623046,169.38847327148437C210.91346463623046,169.38847327148437,210.48186463623045,169.41001127148436,210.48186463623045,169.41001127148436C210.48186463623045,169.41001127148436,201.96876463623047,169.75663027148437,201.96876463623047,169.75663027148437C201.96876463623047,169.75663027148437,201.91616463623046,169.75663027148437,201.91616463623046,169.75663027148437C201.91616463623046,169.75663027148437,201.22166463623046,170.04116827148437,201.22166463623046,170.04116827148437C201.22166463623046,170.04116827148437,198.75906463623048,171.03036327148436,198.75906463623048,171.03036327148436C198.75906463623048,171.03036327148436,198.15896463623048,171.27243327148437,198.15896463623048,171.27243327148437C198.15896463623048,171.27243327148437,197.72746463623048,171.45114327148437,197.72746463623048,171.45114327148437C197.72746463623048,171.45114327148437,186.23656463623047,176.07077327148437,186.23656463623047,176.07077327148437C186.23656463623047,176.07077327148437,186.23656463623047,176.07077327148437,186.23656463623047,176.07077327148437Z" fill="#FFA694" fill-opacity="1" style="mix-blend-mode:passthrough"/></g><g><path d="M197.72713088989258,171.4511602050781C197.72713088989258,171.4511602050781,201.21058088989258,171.99806020507813,201.21058088989258,171.99806020507813C204.35689088989258,172.28266020507812,207.71361088989258,171.33526020507813,210.50253088989257,169.64136020507812C210.6393308898926,169.55706020507813,210.77563088989257,169.47286020507812,210.91253088989257,169.38856020507814C212.36493088989258,168.47286020507812,213.64883088989257,167.34736020507813,214.6272308898926,166.11613020507812C215.5955308898926,164.90578020507812,216.34273088989258,163.53764020507813,216.8686308898926,162.09597020507812C217.01633088989257,161.68598020507812,217.40543088989259,159.26526020507814,217.68933088989257,158.11827020507812C217.13163088989256,157.83438920507814,216.6265308898926,157.48710620507813,216.20583088989258,157.00296020507812C212.07033088989257,158.73930020507814,207.9664308898926,160.47562020507812,203.88291088989257,162.30636020507814C203.88291088989257,162.30636020507814,201.24162088989257,165.18968020507813,201.24162088989257,165.18968020507813C201.24162088989257,165.18968020507813,201.2207208898926,170.01966020507814,201.2207208898926,170.01966020507814C201.2207208898926,170.01966020507814,201.2207208898926,170.04126020507812,201.2207208898926,170.04126020507812C201.2207208898926,170.04126020507812,198.7581508898926,171.03046020507813,198.7581508898926,171.03046020507813C198.7581508898926,171.03046020507813,198.15868788989258,171.27256020507812,198.15868788989258,171.27256020507812C198.15868788989258,171.27256020507812,197.72713088989258,171.4511602050781,197.72713088989258,171.4511602050781C197.72713088989258,171.4511602050781,197.72713088989258,171.4511602050781,197.72713088989258,171.4511602050781Z" fill="#000000" fill-opacity="1" style="mix-blend-mode:passthrough"/></g><g><g><path d="M229.000745993042,148.6359871496582C227.815945993042,147.7134721496582,226.220345993042,147.0386601496582,224.50134599304198,147.1702097496582C221.873145993042,147.37122514965822,219.99024599304198,149.2692271496582,218.10574599304198,150.49185714965822C213.882045993042,153.2320871496582,205.25664599304199,158.0348971496582,200.00394599304198,154.0646371496582C198.22824599304198,152.72242714965822,198.059945993042,150.7333071496582,195.98074599304198,149.5363071496582C194.508645993042,148.6883871496582,191.14264599304198,147.3871671496582,189.247905993042,147.7983191496582C187.454625993042,148.1878371496582,186.02293599304198,150.2914071496582,185.257845993042,151.4992271496582C184.170115993042,153.2172871496582,183.58436599304198,155.1619771496582,183.95183599304198,157.0725171496582C184.130435993042,158.0006971496582,184.589035993042,158.7461971496582,185.067495993042,159.5889971496582C185.79289599304198,160.8679971496582,184.954315993042,161.2095971496582,184.693405993042,162.3131971496582C184.589035993042,162.7539971496582,184.71545599304199,163.1366971496582,184.978565993042,163.4407971496582C183.482205993042,163.0734971496582,182.332005993042,162.2112971496582,181.72493499304198,161.0324971496582C181.513268993042,160.6213971496582,180.644555993042,160.8007971496582,180.859164793042,161.2169971496582C181.544137993042,162.5466971496582,182.763425993042,163.6166971496582,184.55302599304198,164.09679714965822C187.176075993042,164.8000971496582,189.79396599304198,163.6462971496582,192.45594599304198,164.3979971496582C194.627045993042,165.01129714965822,196.49454599304198,166.0699971496582,198.859645993042,166.2299971496582C201.936145993042,166.43839714965821,204.860445993042,165.3136971496582,207.93034599304198,165.4042971496582C209.25994599304198,165.4429971496582,210.549045993042,165.7219971496582,211.88664599304198,165.6320971496582C213.37044599304198,165.5323971496582,214.735345993042,165.0044971496582,216.23094599304198,164.95039714965822C217.444345993042,164.9065971496582,218.64084599304198,165.2658971496582,219.854945993042,165.1621971496582C221.274145993042,165.0408971496582,222.173045993042,164.2971971496582,223.520945993042,164.0187971496582C225.67434599304198,163.5739971496582,227.21694599304197,164.3473971496582,228.891245993042,162.8114971496582C230.31114599304198,161.50859714965821,231.19384599304198,159.7090971496582,231.689145993042,158.0678971496582C232.654845993042,154.8704271496582,232.115445993042,151.0618871496582,229.000745993042,148.6359871496582Z" fill="#FFE3D1" fill-opacity="1" style="mix-blend-mode:passthrough"/></g><g><path d="M223.05411852722168,126.60013602249145C218.8781185272217,120.82493602249146,212.12031852722168,116.86725402249145,205.0331185272217,117.10023183249146C182.45394852722168,117.84252602249146,185.79945852722167,146.47306602249145,193.7891185272217,159.56316602249146C195.06057852722168,161.64676602249145,197.27866852722167,163.42826602249147,199.25641852722168,165.02016602249145C201.25771852722167,166.63186602249147,203.42511852722168,168.13776602249146,205.86141852722167,168.74556602249146C210.6239185272217,169.93466602249146,214.0032185272217,167.60056602249145,217.2061185272217,164.59236602249146C218.66431852722167,163.22316602249145,220.1121185272217,162.06486602249146,221.2873185272217,160.34886602249145C225.67791852722166,153.93936602249147,226.99271852722168,146.30256602249145,226.3379185272217,138.79876602249146C226.08511852722168,135.89276602249146,224.0485185272217,127.97516602249145,223.05411852722168,126.60013602249145Z" fill="#FFA694" fill-opacity="1" style="mix-blend-mode:passthrough"/></g><g><path d="M202.57271600830077,138.66003596569826C202.0332060083008,138.06252896569825,200.94843600830077,137.66712766569825,200.11160600830078,137.71048554569825C199.06987600830078,137.76340306569824,198.06545600830077,138.14630696569824,197.26593600830077,138.68502596569823C196.6632860083008,139.09145296569824,194.2216860083008,141.14121296569823,196.2173210083008,141.25806296569823C196.63630600830078,141.28306296569824,197.0484060083008,141.14929296569824,197.44959600830077,141.03538296569823C198.5888960083008,140.71200296569825,199.78961600830078,140.53194296569825,200.98745600830077,140.50475296569823C201.63659600830078,140.49005296569825,202.44071600830077,140.45037296569825,202.7305560083008,139.99543296569823C203.04049600830078,139.50816296569823,202.9182360083008,139.04294296569824,202.57271600830077,138.66003596569826Z" fill="#FFE3D1" fill-opacity="1" style="mix-blend-mode:passthrough"/></g><g><path d="M211.7349995473633,139.29200604125975C212.06572954736328,139.75427604125977,212.83138854736328,139.68078604125978,213.44785854736327,139.60288604125978C214.58427854736328,139.45809604125978,215.74264854736327,139.48308604125975,216.86040854736328,139.67564604125977C217.25420854736328,139.74325604125977,217.66062854736327,139.83145604125977,218.05387854736327,139.74325604125977C219.9274285473633,139.32286604125977,217.36389854736328,137.40539604125976,216.74303854736328,137.04233604125977C215.9203485473633,136.56094804125976,214.9221385473633,136.28313464125978,213.92995854736327,136.37574024125976C213.13304854736327,136.44996664125978,212.15567654736327,137.04674504125975,211.7191035473633,137.78830604125977C211.43938704736328,138.26234604125978,211.3817925473633,138.79664604125978,211.7349995473633,139.29200604125975Z" fill="#FFE3D1" fill-opacity="1" style="mix-blend-mode:passthrough"/></g><g><path d="M214.4368824157715,156.72480010986328C214.4368824157715,156.72480010986328,202.90838241577148,157.39800610986327,202.90838241577148,157.39800610986327C202.90838241577148,157.39800610986327,204.3510924157715,160.9896901098633,208.67261241577148,160.76553010986328C212.9933824157715,160.5406301098633,214.4368824157715,156.72480010986328,214.4368824157715,156.72480010986328Z" fill="#FFFFFF" fill-opacity="1" style="mix-blend-mode:passthrough"/></g><g><path d="M238.34931626552907,150.80754302882409C238.6653162655291,150.11994302882408,238.9520162655291,149.4257430288241,239.0328162655291,148.69194302882408C239.2606162655291,146.67554302882408,238.2979162655291,145.1615430288241,237.7466162655291,143.28394302882407C237.10721626552908,141.08904302882408,237.7246162655291,138.8214430288241,237.2395162655291,136.6132430288241C236.84271626552908,134.74234302882408,235.5418162655291,133.53244302882408,234.55691626552908,131.9259430288241C233.57211626552908,130.3128430288241,233.16051626552908,128.42204302882408,232.2566162655291,126.76924302882408C231.4334162655291,125.24204302882409,230.42651626552907,123.80084302882409,229.27261626552908,122.45214302882408C227.3544162655291,120.21093302882409,224.6865162655291,117.63257302882408,221.6512162655291,116.38966302882409C219.3141162655291,114.73686302882409,216.4992162655291,113.63941302882408,213.5300162655291,113.05762402882408C209.7523162655291,112.31717072882408,204.3725162655291,111.57671702882408,200.7124162655291,113.37496302882408C194.7961162655291,113.52040302882408,188.9826162655291,117.31523302882408,184.85221626552908,120.75966302882408C182.6473162655291,122.59094302882409,181.2435662655291,124.70654302882409,181.11861626552908,127.43034302882408C181.01572626552908,129.71124302882407,181.2288662655291,131.64824302882408,179.80305626552908,133.6845430288241C178.87701626552908,135.00014302882408,177.7231462655291,136.14394302882408,177.03963626552908,137.5851430288241C176.4369762655291,138.8412430288241,176.19444626552908,140.2163430288241,176.3414362655291,141.58494302882409C176.48842626552909,142.9335430288241,177.1645762655291,143.91864302882408,176.0841962655291,145.34664302882408C175.6652762655291,145.9020430288241,174.9303262655291,146.34494302882408,174.43055626552908,146.8540430288241C172.5564262655291,148.78444302882409,170.99833326552908,151.26374302882408,171.33641126552908,153.9081430288241C171.4099062655291,154.47014302882408,171.6597902655291,154.97914302882407,171.7700332655291,155.5279430288241C171.9905182655291,156.59894302882407,171.4981002655291,157.49144302882408,171.46135326552908,158.50954302882408C171.4246052655291,159.38884302882408,171.5936442655291,160.12934302882408,172.1889552655291,160.86314302882408C172.95330626552908,161.81514302882408,173.97488626552908,162.29774302882407,175.1067162655291,162.50274302882409C175.35659626552908,162.5423430288241,175.6211762655291,162.57544302882408,175.8857662655291,162.5952430288241C176.12094626552908,162.6151430288241,176.3634762655291,162.62834302882408,176.6060162655291,162.62834302882408C176.84854626552908,162.7605430288241,177.1057762655291,162.8531430288241,177.3556662655291,162.91264302882408C177.88482626552909,163.05144302882408,178.40664626552908,163.0646430288241,178.9358162655291,163.05804302882407C179.1930462655291,163.05804302882407,179.4649762655291,163.0448430288241,179.72220626552908,163.0448430288241C180.45716626552908,163.03824302882407,181.18476626552908,163.07794302882408,181.93441626552908,163.40844302882408C182.1034162655291,163.48774302882407,182.2651162655291,163.57374302882408,182.44891626552908,163.6134430288241C182.67671626552908,163.67954302882407,182.92661626552908,163.67284302882408,183.16911626552908,163.66624302882408C184.77871626552908,163.6134430288241,186.7336162655291,164.0365430288241,187.35831626552908,162.2779430288241C187.53471626552908,161.78214302882407,187.83611626552909,160.6119430288241,187.5274162655291,160.10944302882407C187.48331626552908,160.03014302882409,187.4024162655291,159.9706430288241,187.35831626552908,159.8846430288241C187.1526162655291,159.42194302882407,187.9390162655291,158.9260430288241,188.22561626552908,158.68144302882408C188.8576162655291,158.13274302882408,189.62201626552908,157.70294302882408,190.17321626552908,157.08814302882408C190.7391162655291,156.44684302882408,191.0331162655291,155.7659430288241,191.0625162655291,154.94614302882408C191.1139162655291,153.8685430288241,190.59211626552909,152.85034302882408,190.32751626552908,151.81904302882407C189.79841626552908,149.7299430288241,190.59211626552909,148.6654430288241,191.2756162655291,146.79454302882408C192.26051626552908,144.0971430288241,190.8567162655291,141.06924302882408,190.6068162655291,138.33884302882407C190.3716162655291,135.78694302882408,190.4819162655291,133.2349430288241,190.8714162655291,130.70954302882407C191.24621626552909,130.79544302882408,191.6358162655291,130.81524302882409,192.08411626552908,130.7888430288241C193.01751626552908,130.72274302882408,198.4950162655291,131.1288430288241,206.2319162655291,130.08144302882408C207.24611626552908,130.0748430288241,209.17311626552907,126.97984302882408,209.6704162655291,126.09834302882409C213.3628162655291,127.81684302882408,213.4649162655291,129.7359430288241,216.3080162655291,130.7888430288241C216.47271626552907,130.7888430288241,221.57481626552908,131.5053430288241,222.12031626552908,131.37854302882408C223.1345162655291,134.16844302882407,223.34891626552908,135.43654302882408,223.3269162655291,138.3983430288241C223.3195162655291,139.95194302882408,222.87121626552909,141.5981430288241,223.17991626552907,143.13854302882407C223.4151162655291,144.35504302882407,224.2235162655291,145.34664302882408,224.6718162655291,146.49704302882407C225.73751626552908,149.2142430288241,223.5768162655291,151.76614302882408,224.71591626552907,154.5560430288241C225.5023162655291,156.49314302882408,225.3333162655291,157.72944302882408,225.0761162655291,159.7127430288241C224.9291162655291,160.87634302882407,224.99521626552908,161.83494302882409,225.64931626552908,162.85974302882408C225.78901626552909,163.07124302882409,226.0462162655291,163.0845430288241,226.22991626552908,162.9985430288241C227.3250162655291,163.6134430288241,229.0375162655291,163.6398430288241,230.3310162655291,163.6134430288241C232.36681626552908,163.5935430288241,236.8721162655291,163.7588430288241,238.0994162655291,161.89444302882407C238.7756162655291,160.87634302882407,237.98921626552908,160.1359430288241,238.90791626552908,158.94594302882408C239.5840162655291,158.08644302882408,240.1720162655291,157.70294302882408,240.3704162655291,156.56584302882408C240.7379162655291,154.4370430288241,239.45911626552908,152.64544302882408,238.34931626552907,150.80754302882409Z" fill="#FFE3D1" fill-opacity="1" style="mix-blend-mode:passthrough"/></g><g transform="matrix(0.9612616896629333,0.27563735842704773,-0.27563735842704773,0.9612616896629333,47.17786909920244,-53.571155186142505)"><path d="M214.32521365625,143.97458682983398C214.70416165625,145.326886829834,215.69843265625,146.229896829834,216.54506265625,145.992906829834C217.39231265625,145.755256829834,217.77127265625,144.46632682983397,217.39232265625,143.114656829834C217.01273265625,141.762351829834,216.01910265625,140.858701829834,215.17247865625,141.096337929834C214.32521765625,141.33397682983397,213.94626065625,142.622916829834,214.32521365625,143.97458682983398Z" fill="#000000" fill-opacity="1" style="mix-blend-mode:passthrough"/></g><g transform="matrix(0.9612616896629333,0.27563735842704773,-0.27563735842704773,0.9612616896629333,46.59047329777718,-49.39161752311037)"><path d="M199.16203807336427,143.97458682983398C199.54098607336425,145.326886829834,200.53525707336425,146.229896829834,201.38188707336425,145.992906829834C202.22913707336426,145.755256829834,202.60809707336426,144.46632682983397,202.22914707336426,143.114656829834C201.84955707336425,141.762351829834,200.85592707336426,140.858701829834,200.00930307336426,141.096337929834C199.16204207336426,141.33397682983397,198.78308507336425,142.622916829834,199.16203807336427,143.97458682983398Z" fill="#000000" fill-opacity="1" style="mix-blend-mode:passthrough"/></g><g><path d="M206.30225179565429,146.55975804223633C206.7154217956543,145.94888804223632,207.59057179565428,146.69157904223633,207.1798917956543,147.29865004223632C206.7172917956543,147.98241204223632,206.7585117956543,147.86580204223634,206.40934179565429,148.61863204223633C206.0215217956543,149.45637204223632,206.0684317956543,150.90944204223632,207.3358117956543,150.82199204223633C208.0721717956543,150.77067204223633,208.1855817956543,151.91259204223633,207.4486217956543,151.96328204223633C206.1881617956543,152.05073204223632,205.1546267956543,151.13884204223632,205.0221650956543,149.87715204223633C204.8770537956543,148.49634204223634,205.4828587956543,147.77139204223633,206.30225179565429,146.55975804223633Z" fill="#000000" fill-opacity="1" style="mix-blend-mode:passthrough"/></g><g><path d="M209.60824584960938,126.20037023925781C209.66590114960937,126.59017023925782,210.59271284960937,126.42067023925782,210.6845758496094,126.78817023925781C212.32458584960938,124.0119702392578,214.87370584960937,119.0954702392578,216.51438584960937,116.31989023925782C216.81220584960937,115.81483023925782,217.11067584960938,115.29900023925781,217.4091458496094,114.79394523925781C217.13348584960937,114.51892423925781,216.84706584960938,114.25467323925781,216.5371858496094,114.01387023925781C216.15823584960938,114.64503123925782,215.79133584960937,115.28696023925781,215.41302584960937,115.91812023925782" fill="#FFA694" fill-opacity="1" style="mix-blend-mode:passthrough"/></g></g><g><path d="M233.353148046875,175.78073120117188C233.353148046875,175.78073120117188,225.416348046875,180.26965120117188,225.416348046875,180.26965120117188C225.416348046875,180.26965120117188,217.219248046875,182.80686120117187,217.219248046875,182.80686120117187C217.219248046875,182.80686120117187,208.892048046875,183.45745120117186,208.892048046875,183.45745120117186C208.892048046875,183.45745120117186,201.41034804687501,182.80686120117187,201.41034804687501,182.80686120117187C201.41034804687501,182.80686120117187,194.579548046875,180.98526120117188,194.579548046875,180.98526120117188C194.579548046875,180.98526120117188,188.98474804687498,178.38302120117189,188.98474804687498,178.38302120117189C188.98474804687498,178.38302120117189,185.601948046875,175.78073120117188,185.601948046875,175.78073120117188C159.950148046875,182.44494120117187,143.213458046875,200.12043120117187,136.541748046875,223.79623120117188C136.541748046875,223.79623120117188,282.689748046875,223.79623120117188,282.689748046875,223.79623120117188C276.002748046875,200.04583120117186,259.120748046875,182.3883112011719,233.353148046875,175.78073120117188C233.353148046875,175.78073120117188,233.353148046875,175.78073120117188,233.353148046875,175.78073120117188Z" fill="url(#master_svg1_0_13701)" fill-opacity="1" style="mix-blend-mode:passthrough"/></g><g><path d="M159.41403198242188,192.73030062597655C162.53796198242188,197.74903662597657,165.30746198242187,203.52551662597656,167.3086819824219,209.23481662597658C168.55530198242187,212.78701662597655,169.44793198242186,216.51311662597655,170.30853198242187,220.11491662597655C170.51753198242187,220.98621662597657,170.72633198242187,221.86111662597656,170.93903198242188,222.73231662597655C170.96033198242188,222.81381662597656,171.03093198242186,222.86691662597656,171.11233198242186,222.86691662597656C171.12663198242188,222.86691662597656,171.14073198242187,222.86691662597656,171.15503198242186,222.86331662597655C171.25053198242188,222.83851662597655,171.30733198242189,222.74301662597657,171.28593198242189,222.64721662597657C171.06993198242188,221.77601662597655,170.86113198242188,220.90471662597656,170.65213198242188,220.03011662597658C169.79133198242187,216.42091662597656,168.89529198242187,212.68811662597656,167.64502198242187,209.11801662597657C165.6156319824219,203.34491662597657,162.81054198242188,197.50099662597657,159.64776598242187,192.43641662597656C159.5663149824219,192.53196712597656,159.48846438242188,192.63114962597658,159.41403198242188,192.73030062597655Z" fill="#000000" fill-opacity="1" style="mix-blend-mode:passthrough"/></g><g><path d="M263.64106951904296,193.60074652587892C260.51104951904296,198.6292515258789,257.736179519043,204.41705152587892,255.73107951904296,210.1374515258789C254.48201951904298,213.6966515258789,253.58767951904298,217.4299515258789,252.72540151904298,221.0388515258789C252.51599051904296,221.9117515258789,252.30679251904297,222.7883515258789,252.09374951904297,223.6613515258789C252.07235651904296,223.7429515258789,252.00161651904295,223.7961515258789,251.91998151904298,223.7961515258789C251.90566951904296,223.7961515258789,251.89157051904297,223.7961515258789,251.87725751904296,223.7925515258789C251.78152371904298,223.7677515258789,251.72466941904298,223.6720515258789,251.74606226904297,223.5760515258789C251.96249251904297,222.7031515258789,252.17172151904296,221.8301515258789,252.38116351904296,220.9537515258789C253.24364951904298,217.3375515258789,254.14135951904296,213.5974515258789,255.39406951904297,210.0203515258789C257.42742951904296,204.2360515258789,260.237979519043,198.3807115258789,263.40686951904297,193.3062515258789C263.488569519043,193.4020157258789,263.56656951904296,193.5013505258789,263.64106951904296,193.60074652587892Z" fill="#000000" fill-opacity="1" style="mix-blend-mode:passthrough"/></g><g><path d="M184.4366912841797,175.99864172070312C189.35339128417968,179.8239437207031,196.3942912841797,183.31665372070313,205.9676912841797,183.8343337207031C206.8955912841797,183.88310372070313,207.80299128417968,183.91191372070313,208.69059128417967,183.91191372070313C220.5081912841797,183.91191372070313,229.1645912841797,179.62826372070313,234.4001912841797,175.96926072070312C234.01109128417968,175.81296572070312,233.6422912841797,175.6766437207031,233.29339128417968,175.54031372070312C227.7280912841797,179.29686372070313,218.5534912841797,183.54112372070313,206.0276912841797,182.85833372070311C197.0524912841797,182.37061372070312,190.3605312841797,179.20873372070312,185.60356128417968,175.65724972070313C185.2245942841797,175.7641907207031,184.83544928417967,175.8717197207031,184.4366912841797,175.99864172070312Z" fill="#000000" fill-opacity="1" style="mix-blend-mode:passthrough"/></g></g><g><g><path d="M118.11404771118164,173.762911328125C113.66634771118164,166.927811328125,111.28564771118164,157.913711328125,111.78134771118164,150.178191328125C111.89454771118164,148.392301328125,112.16134771118163,146.675351328125,112.59224771118164,145.067381328125C112.70284771118165,144.648891328125,112.20094771118164,144.209591328125,111.89224771118164,144.619471328125C108.62754771118165,148.957821328125,103.83424771118163,148.817661328125,98.95754771118163,147.881591328125C94.15444771118163,146.962341328125,89.00224771118164,146.390811328125,84.36154771118164,144.777341328125C84.40084771118164,144.083131328125,84.44414771118164,143.389591328125,84.49654771118165,142.693390328125C84.53774771118164,142.161010728125,83.71324771118164,142.014434328125,83.67144771118164,142.551025328125C83.62064771118165,143.238801328125,83.57794771118164,143.928161328125,83.53954771118164,144.618411328125C83.24484771118163,144.750151328125,83.13114771118164,145.210451328125,83.50054771118164,145.359221328125C83.45064771118165,146.361631328125,83.40954771118165,147.361391328125,83.37614771118164,148.366641328125C83.37304771118164,148.408661328125,83.37414771118164,148.451321328125,83.37034771118164,148.497531328125C83.28174771118164,151.150111328125,83.23904771118164,153.806411328125,83.15434771118164,156.459611328125C83.09754771118165,158.238311328125,82.85304771118165,160.022911328125,82.38984771118164,161.744011328125C81.79354771118165,163.990311328125,80.82904771118164,166.13061132812498,79.43373771118164,168.00911132812502C76.95205771118164,171.357011328125,73.25331771118164,173.462411328125,70.34736771118165,176.388511328125C70.13690371118165,176.598511328125,70.27884081118164,176.907811328125,70.49019071118164,177.037811328125C74.08967771118164,179.218811328125,78.00530771118164,180.677111328125,82.01574771118165,181.905411328125C86.36914771118164,183.239611328125,90.43644771118164,184.605311328125,95.00014771118164,183.592511328125C97.11634771118165,183.121411328125,99.17814771118164,182.449511328125,101.33534771118164,182.185111328125C103.43934771118164,181.932611328125,105.51664771118163,181.786011328125,107.59704771118163,181.325711328125C109.76634771118164,180.842511328125,111.86224771118164,180.146711328125,113.89074771118163,179.273611328125C114.75334771118165,179.223211328125,115.60854771118164,179.141411328125,116.45304771118164,179.024011328125C117.48484771118164,178.879411328125,119.37624771118163,178.628511328125,119.79194771118165,177.476911328125C120.24314771118165,176.242111328125,118.74504771118164,174.734311328125,118.11404771118164,173.762911328125Z" fill="#FFA694" fill-opacity="1" style="mix-blend-mode:passthrough"/></g><g><path d="M121.19673904418946,120.89024453582763C120.98743904418944,121.38944453582764,120.22973904418944,121.02914453582764,120.43843904418945,120.53404453582763C120.65773904418946,120.00264453582764,120.88103904418945,119.47204453582764,121.09683904418945,118.93584453582764C119.72123904418945,119.96414453582764,117.13193904418945,120.00084453582764,115.75543904418944,120.71474453582763C114.19653904418945,121.52434453582764,113.68583904418945,123.00384453582764,112.51123904418945,124.17294453582764C111.48523904418946,125.19364453582764,110.10403904418945,125.95754453582764,108.85893904418946,126.67274453582763C99.98563904418945,131.75414453582763,88.92943904418945,132.87264453582765,79.24943904418946,129.54304453582765C77.20093904418945,128.83644453582764,75.06454904418945,127.89794453582763,73.64186904418945,126.19914453582763C72.87446904418945,125.28074453582764,72.52052904418946,124.28064453582763,72.34231904418945,123.22184453582764C72.17605904418946,122.26694453582763,72.15861904418945,121.26124453582764,72.10356904418946,120.22784453582764C72.00783904418945,118.39754453582763,71.51436904418945,117.24594453582765,70.15956904418945,116.01334453582763C69.56129904418945,115.46814453582763,69.00305904418946,115.03614453582765,68.72073904418946,114.26084453582763C68.33804904418945,113.20494453582764,68.36745904418946,111.97784453582764,68.59428904418945,110.76394453582763C68.09862904418945,110.31294453582764,67.65268904418946,109.84504453582764,67.26953904418946,109.35824453582764C65.75711804418945,107.46554453582763,65.15708104418945,105.25894453582764,65.97132104418945,102.24334453582763C66.48711404418945,100.33994453582764,67.10261904418945,98.35174453582763,68.22307904418945,96.71024453582764C68.94934904418945,95.65474453582763,70.01164904418945,94.98864453582763,70.39812904418946,93.78524453582764C70.85022904418945,92.39774453582764,70.44742904418945,90.72214453582764,70.38727904418946,89.27574453582764C70.19404904418946,84.96021453582763,71.29860904418945,81.14915453582763,75.26639904418946,78.93764453582763C77.24953904418945,77.83575453582763,79.38343904418946,77.41017453582764,81.55423904418946,77.38607453582763C83.06313904418946,75.73501053582764,96.27903904418946,73.21600453582764,115.57353904418946,84.71746453582763C117.99343904418944,84.82557453582764,118.66183904418946,84.31321453582764,121.41073904418946,85.81667453582764C123.62293904418945,86.97554453582764,124.60063904418945,90.22114453582763,124.59083904418945,91.50674453582764C125.31193904418944,98.42444453582763,124.61433904418945,105.68584453582764,124.59083904418945,108.45154453582764C124.46993904418946,116.89454453582763,122.83963904418945,116.93854453582765,121.19673904418946,120.89024453582763Z" fill="#9B9B9B" fill-opacity="1" style="mix-blend-mode:passthrough"/></g><g><path d="M83.70541599121094,107.00283177128907C83.03131599121093,107.38773507128906,82.33381599121094,107.78547007128907,81.61461599121094,108.13698807128907C81.42891599121094,108.22807807128906,81.23921599121094,108.31850807128906,81.04591599121093,108.40405807128906C80.95271599121094,108.45160807128906,80.85691599121094,108.49030807128906,80.76101599121094,108.52898807128906C80.56841599121094,108.61032807128906,80.37671599121094,108.68771807128907,80.17731599121093,108.75934807128907C80.07741599121094,108.79736807128906,79.98211599121093,108.83185807128906,79.88351599121094,108.86171807128906C79.63121599121094,108.94550807128907,79.37611599121094,109.02022807128907,79.11501599121094,109.08147807128907C79.03921599121094,109.10223807128907,78.96801599121093,109.11971807128906,78.89371599121094,109.13231807128906C78.66911599121093,109.17851807128906,78.44511599121094,109.22052807128907,78.21581599121095,109.24463807128906C78.14221599121093,109.25325807128907,78.06841599121094,109.26164807128906,77.99481599121094,109.27026807128907C77.91761599121094,109.27380807128907,77.84041599121093,109.27756807128907,77.76331599121093,109.28133807128906C77.62161599121094,109.29060807128906,77.48541599121094,109.29259807128906,77.34571599121094,109.28972807128906C77.17631599121094,109.28597807128907,77.00785599121093,109.27800807128907,76.83650599121094,109.26120807128906C76.69900599121094,109.24594807128906,76.56281599121094,109.22252807128906,76.42396599121093,109.19002807128906C76.38284599121094,109.18294807128906,76.34216599121093,109.17166807128906,76.29817599121094,109.15553807128906C76.27340599121094,109.15109807128906,76.24864599121094,109.14691807128906,76.22543599121094,109.13429807128907C76.20066599121094,109.13010807128906,76.17259599121094,109.12102807128906,76.14848599121093,109.11264807128906C75.25486599121093,108.82654807128907,74.42292599121093,108.23250807128906,73.55074599121093,107.92034307128907C73.13864599121094,107.77263807128907,72.71990599121094,107.68753907128907,72.27995599121094,107.72622007128906C70.84223599121094,107.85997907128906,70.13320599121094,109.38170807128907,68.64642599121093,109.52828807128907C68.14919999121093,109.57825807128906,67.69332899121093,109.51236807128906,67.26951599121094,109.35826807128906C67.65286299121094,109.84509807128906,68.09878499121093,110.31313807128906,68.59423599121094,110.76392807128906C68.36762599121094,111.97812807128906,68.33822599121093,113.20491807128906,68.72070599121093,114.26105807128906C69.00324599121093,115.03616807128907,69.56149599121093,115.46838807128907,70.15975599121094,116.01357807128906C71.32685599121093,117.07769807128906,71.85479599121093,118.07789807128907,72.03697599121094,119.50719807128907C72.06925599121094,119.73779807128906,72.09202599121093,119.97539807128906,72.10351599121094,120.22809807128907C72.15856599121093,121.26149807128907,72.17603599121094,122.26699807128907,72.34251599121095,123.22179807128906C72.52978599121094,123.19489807128906,72.71438599121093,123.15879807128906,72.90473599121094,123.11509807128905C73.68339599121094,122.93529807128907,74.38755599121093,122.69589807128907,75.02604599121094,122.39409807128906C75.30747599121094,122.26429807128906,75.57476599121094,122.11929807128907,75.83102599121094,121.96389807128907C75.90772599121094,121.91349807128907,75.98355599121093,121.86729807128906,76.05564599121094,121.82019807128907C77.01447599121094,121.18719807128906,77.78961599121094,120.36519807128906,78.41641599121094,119.34359807128907C78.80081599121094,118.71749807128906,79.12981599121093,118.01819807128906,79.41301599121094,117.23859807128906C79.55941599121094,116.83490807128906,79.69671599121094,116.43364807128907,79.83601599121094,116.04564807128907C80.12711599121094,115.22099807128906,80.41831599121093,114.42154807128907,80.77311599121094,113.64598807128907C81.14281599121094,112.83460807128907,81.58781599121093,112.05350807128906,82.18211599121094,111.29385807128907C83.15241599121094,110.05534807128906,84.08171599121094,109.00496807128906,84.36021599121094,107.41758107128906C84.42661599121094,107.03400547128906,84.00651599121093,106.83391707128906,83.70541599121094,107.00283177128907Z" fill="#9B9B9B" fill-opacity="1" style="mix-blend-mode:passthrough"/></g><g><path d="M95.15206488037109,157.4380561126709C102.40466488037109,159.2244561126709,108.8813648803711,155.1021561126709,112.71086488037109,148.7541561126709C114.4522648803711,145.8674561126709,116.89016488037109,141.5412561126709,117.69056488037108,138.2663561126709C119.14366488037109,132.31975611267092,119.85676488037109,126.2209561126709,120.5495648803711,120.1389561126709C120.95616488037109,116.5703561126709,121.3569648803711,113.0011561126709,121.7520648803711,109.4313561126709C121.9369648803711,107.7632561126709,122.11286488037109,106.0268561126709,121.5479648803711,104.44655611267089C120.90866488037109,102.6579361126709,119.41766488037109,101.3314261126709,117.9832648803711,100.0860561126709C116.17276488037109,98.5139261126709,114.3392648803711,96.9260961126709,112.2058648803711,95.8317161126709C107.9943648803711,93.6712871126709,103.03236488037109,93.6317061126709,98.3117648803711,93.9799271126709C92.91976488037109,94.3776471126709,87.3981648803711,95.2757061126709,82.78169488037109,98.0903261126709C80.3590448803711,99.5673861126709,78.1895348803711,101.6303361126709,77.1415848803711,104.2671561126709C76.3456738803711,106.2697561126709,76.23976188037109,108.4700561126709,76.1590738803711,110.6233561126709C75.85199088037109,118.8088561126709,75.7776958803711,127.10575611267089,77.69873488037109,135.0682561126709C79.7114548803711,143.4102561126709,84.48623488037109,152.9876561126709,92.73916488037109,156.6141561126709C93.51816488037109,156.9565561126709,94.32476488037109,157.2371561126709,95.15206488037109,157.4380561126709Z" fill="#FFA694" fill-opacity="1" style="mix-blend-mode:passthrough"/></g><g><path d="M124.28307845947266,120.49310004760743C123.83205845947265,119.62048004760742,123.01976845947266,118.35409704760742,121.98534845947266,118.05188124760743C121.89998845947265,118.02469004760742,121.80959845947265,118.00521984760742,121.71804845947266,117.99417244760743C121.66829845947265,117.98819101760742,121.61367845947265,117.98574960760742,121.56328845947266,117.98376596660742C121.41228845947266,117.97824228760742,121.25820845947266,117.99746834760742,121.10189845947265,118.03350964760742C121.04595845947266,118.04370244760742,120.98934845947265,118.05783214760743,120.93230845947265,118.07620374760742C120.62124845947265,118.17346304760743,120.31063845947266,118.33398604760743,120.00307845947266,118.54135304760742C118.87886845947266,119.29501004760742,117.82851845947266,120.62287004760742,117.20549845947265,121.34448004760742C116.85305845947266,121.74863004760742,117.54595845947266,122.22461004760743,117.89437845947266,121.81983004760743C117.92910845947266,121.77783004760742,117.96843845947265,121.73184004760742,118.00713845947266,121.69028004760742C117.53685845947265,122.68338004760741,117.12346845947266,123.69595004760743,116.77434845947266,124.73306004760742C116.68349845947266,124.99616004760742,116.60039845947266,125.26453004760742,116.52166845947265,125.53317004760743C115.72356945947266,128.15653004760742,115.33288315947266,130.89653004760743,115.41381575947266,133.6768300476074C115.49032335947265,136.3550300476074,117.53289845947266,135.6451300476074,119.37542845947266,134.39223004760743C120.49233845947266,133.62923004760742,121.53167845947266,132.67133004760743,122.02181845947266,132.14033004760742C124.49334845947266,129.45383004760743,126.03535845947266,123.88873004760742,124.28307845947266,120.49310004760743Z" fill="#FFA694" fill-opacity="1" style="mix-blend-mode:passthrough"/></g><g><path d="M79.15328756713868,129.5095407409668C79.37637756713868,126.7188007409668,79.13583756713868,123.90726074096679,78.48252756713867,121.17311074096679C78.50771756713867,121.2244007409668,78.54087756713866,121.2767807409668,78.56698756713867,121.3236707409668C78.82143756713867,121.7925907409668,79.59899756713867,121.4724607409668,79.34032756713867,121.00285074096679C79.10398756713867,120.5755007409668,78.78895756713867,119.9644207409668,78.41619756713867,119.3436307409668C77.97337756713867,118.6127207409668,77.44364756713867,117.8670007409668,76.85001756713868,117.3693247409668C76.57943756713867,117.13986274096679,76.29488756713867,116.9676367409668,76.00152756713867,116.8701334409668C75.87305756713867,116.8265696409668,75.74682756713867,116.7962809409668,75.61660756713867,116.7865763409668C75.51623756713867,116.7777109809668,75.41430756713868,116.7770548609668,75.31458756713867,116.7896586109668C74.25272756713868,116.88649074096679,73.20722756713867,117.9463807409668,72.59304756713867,118.6982907409668C72.38831756713867,118.9476607409668,72.20171756713867,119.2169507409668,72.03680756713867,119.5072207409668C70.24203456713867,122.61679074096679,70.68243356713867,127.6889407409668,72.38654756713868,130.5621407409668C73.17561756713867,131.8963407409668,76.05302756713867,135.6988407409668,77.65322756713867,134.8708407409668C78.03017756713868,134.68114074096678,78.33704756713867,134.2328407409668,78.52982756713867,133.4375407409668C78.84377756713867,132.1367407409668,79.04916756713867,130.8254407409668,79.15328756713868,129.5095407409668Z" fill="#FFA694" fill-opacity="1" style="mix-blend-mode:passthrough"/></g><g><path d="M109.60348360839843,123.03618814819336C109.85574360839844,122.07249814819336,109.89596360839843,120.91555814819336,109.83694360839844,120.51891814819336C109.77701360839843,120.11521814819336,109.66714360839843,119.70378014819336,109.40848360839844,119.38784714819336C108.66165360839844,118.47586014819336,107.62899960839843,119.24082814819336,107.34109660839843,120.07343814819336C106.96725620839844,121.15542814819337,106.81228760839844,123.56745814819335,107.80160660839844,124.21015814819336C108.82638360839844,124.87560814819336,109.32113360839844,124.11465814819336,109.60348360839843,123.03618814819336Z" fill="#000000" fill-opacity="1" style="mix-blend-mode:passthrough"/></g><g><path d="M89.42057920654297,122.48361564941406C89.59305920654297,121.52541564941406,89.54398920654297,120.39524564941406,89.45618920654297,120.01342564941406C89.36710920654296,119.62454564941406,89.22867920654296,119.23213064941406,88.95279920654296,118.94404464941407C88.15555920654297,118.11231864941406,87.20777720654297,118.93607964941407,86.99067520654297,119.76936564941406C86.70878420654297,120.85178564941407,86.74128540654297,123.21363564941406,87.75431620654297,123.76457564941407C88.80332920654297,124.33497564941406,89.22739920654297,123.55566564941407,89.42057920654297,122.48361564941406Z" fill="#000000" fill-opacity="1" style="mix-blend-mode:passthrough"/></g><g><path d="M90.66680401855469,112.03719963564453C88.98795401855469,111.80004803564454,87.25921401855469,112.00527823564452,85.65959401855469,112.55845503564453C84.78941401855468,112.85890103564454,83.94090401855469,113.23130903564453,83.15373401855469,113.70897903564453C83.10699401855469,113.73873903564453,83.04843401855469,113.77027903564453,82.98081401855468,113.81168903564453C82.39509401855469,114.15352903564452,81.18504201855468,114.86501903564454,81.31989881855469,115.48700903564453C81.3587171185547,115.65654903564453,81.53932001855469,115.75216903564453,81.70335201855468,115.81070903564454C81.84922601855469,115.86629903564453,81.99670201855469,115.91063903564454,82.14494101855469,115.95147903564452C83.00289401855468,116.18291903564453,83.9288740185547,116.19533903564454,84.80203401855469,116.09617903564452C86.88384401855468,115.86492903564454,88.84109401855468,115.32435903564453,90.94500401855468,115.49093903564453C91.95359401855468,115.57413903564454,94.19199401855468,115.81701903564453,94.31319401855468,114.32660903564454C94.44819401855469,112.69053503564453,91.83549401855468,112.20123203564454,90.66680401855469,112.03719963564453Z" fill="#9B9B9B" fill-opacity="1" style="mix-blend-mode:passthrough"/></g><g><path d="M111.56254599121094,112.44435011547851C110.14347599121093,111.97466901547851,108.61073599121093,111.81364311547851,107.12785599121094,112.04299811547851C106.09928599121093,112.20017911547852,103.79591199121094,112.66270311547852,103.93150178121094,114.10603211547851C104.09095599121093,115.76110211547852,107.24931599121093,114.96397211547851,108.16422599121094,114.99830211547851C109.57829599121094,115.05162211547852,110.95679599121094,115.42720211547852,112.35932599121094,115.56575211547852C113.16288599121094,115.64433211547852,114.69786599121093,115.84927211547851,115.30156599121094,115.14660211547852C116.07746599121094,114.24249211547851,112.17060599121093,112.64649811547852,111.56254599121094,112.44435011547851Z" fill="#9B9B9B" fill-opacity="1" style="mix-blend-mode:passthrough"/></g><g><path d="M122.83410422973633,110.92233665771485C122.95280422973633,107.62923665771484,122.54220422973633,104.44843665771484,121.01830422973633,101.49173665771484C119.00310422973632,97.59197665771484,115.49910422973633,94.04665665771485,111.43380422973632,91.83183665771485C111.02630422973633,91.60854665771484,110.61690422973632,91.39739665771485,110.20010422973633,91.20240665771485C108.52900422973633,90.42484965771484,106.78480422973632,89.87302365771484,105.02460422973633,89.61125865771484C103.77810422973633,89.42554405771484,102.54950422973633,89.42997675771484,101.33730422973633,89.56040885771485C100.82570422973633,89.62054365771485,100.31120422973633,89.69725765771484,99.80610422973632,89.79277765771485C98.01330422973632,90.13722165771485,96.25340422973633,90.70828665771484,94.50750422973633,91.29858665771485C90.67330422973633,92.59037665771484,86.92810422973633,94.15234665771484,83.31312422973633,95.97032665771485C81.74080422973633,96.76070665771485,79.98671422973632,97.51968665771484,78.69644422973633,98.74117665771485C77.42079422973633,99.95223665771485,76.58133422973633,101.66373665771485,75.72860422973633,103.18163665771485C74.91745422973632,104.63043665771484,73.85911622973633,106.23173665771485,73.55024802973632,107.92023665771484C73.51466452973632,108.12643665771485,73.48790062973633,108.33003665771484,73.47375569973633,108.53563665771485C73.33181822973633,110.60993665771484,75.58357422973633,112.37963665771484,75.14448422973632,114.33033665771484C74.97847422973632,114.38223665771484,74.85312422973632,114.51783665771484,74.88672422973633,114.74043665771484C74.96100422973633,115.22043665771484,75.02996422973632,116.12443665771485,75.31428422973633,116.78963665771485C75.46441422973633,117.15113665771484,75.68063422973633,117.44763665771484,75.99722422973633,117.55773665771484C76.00076422973633,117.56253665771484,76.00474422973633,117.56323665771484,76.00894422973633,117.56393665771485C76.35868422973633,117.67953665771485,76.63505422973633,117.57873665771484,76.84971422973632,117.36933665771484C77.20413422973633,117.03973665771484,77.40863422973632,116.44633665771485,77.53752422973633,116.06913665771484C78.21470422973633,114.09193665771484,78.29452422973633,111.93463665771485,78.45678422973633,109.86413665771485C78.46032422973633,109.84363665771484,78.45988422973633,109.82213665771485,78.46342422973633,109.80163665771485C79.53790422973633,109.65593665771485,83.97750422973633,100.55253665771484,84.51520422973633,100.07183665771484C84.68190422973633,99.91793665771485,100.25250422973633,97.04747665771484,103.75160422973633,96.29045665771484C106.20800422973633,96.82526665771485,108.79270422973633,98.26606665771484,111.01000422973632,99.22691665771484C113.64180422973632,100.36993665771485,116.20610422973633,101.63293665771485,118.68340422973633,103.08063665771485C118.74510422973633,103.11693665771485,118.80570422973634,103.13593665771484,118.86050422973634,103.13683665771484C118.86050422973634,103.13683665771484,118.81030422973633,116.06403665771484,118.81030422973633,116.06403665771484C118.80680422973633,116.64973665771484,118.70990422973634,118.71043665771484,119.25030422973633,119.73823665771485C119.35150422973632,119.93853665771485,119.48130422973634,120.09713665771484,119.63760422973633,120.20033665771484C119.86660422973632,120.35043665771485,121.91790422973634,117.65033665771485,122.07710422973634,116.92603665771485C122.51130422973633,114.95333665771484,122.76060422973633,112.94453665771485,122.83410422973633,110.92233665771485Z" fill="#9B9B9B" fill-opacity="1" style="mix-blend-mode:passthrough"/></g><g><path d="M107.2035484375,154.22771875976562C106.6125484375,154.08315875976564,105.3862484375,154.65926875976564,104.7970484375,154.87173875976563C103.5693484375,155.31390875976564,102.60944843749999,155.75564875976562,101.2709484375,155.85558875976562C99.0884484375,156.02224875976563,96.6964484375,156.29290875976562,94.5287484375,155.93096875976562C90.1112684375,155.18899875976564,86.7165184375,152.04494875976562,83.7325084375,148.88253775976563C83.6102784375,148.75521875976563,83.4877784375,148.62786875976562,83.3701634375,148.49697875976562C83.2812804375,151.14956875976563,83.2386324375,153.80590875976563,83.1539454375,156.45913875976564C83.0973514375,158.2379787597656,82.8526154375,160.02237875976562,82.3896484375,161.74377875976563C82.6450044375,161.74107875976563,82.9010314375,161.73417875976563,83.1459964375,161.74257875976562C94.2588484375,163.26767875976563,102.9223484375,158.86917875976562,106.3985484375,155.46294875976562C106.4041484375,155.45541875976562,106.4102484375,155.44369875976562,106.4118484375,155.43548875976563C106.5723484375,155.16997875976563,107.5210484375,154.30797875976563,107.2035484375,154.22771875976562Z" fill="#000000" fill-opacity="1" style="mix-blend-mode:passthrough"/></g><g><path d="M105.04517667236328,140.9092244852539C104.34447667236329,140.83802698525392,103.57647667236328,140.9388265852539,102.87557667236328,140.9596395852539C101.39457667236329,141.0038293852539,99.91332667236328,141.0480493852539,98.43160667236329,141.0823203852539C97.21294667236329,141.1106403852539,95.99392667236329,141.1338333852539,94.77440667236328,141.1391443852539C93.69594667236328,141.1440263852539,91.23107567236327,140.9477071852539,91.16164797236328,140.9695577852539C90.86272867236327,141.0641923852539,91.75417767236328,142.0942523852539,91.90139367236328,142.2377123852539C92.50231667236328,142.8244723852539,93.14458667236327,143.3696723852539,93.84896667236328,143.80940238525392C96.51763667236328,145.4748323852539,99.81936667236329,145.0828723852539,102.52917667236328,143.7802223852539C103.24127667236328,143.4377923852539,103.91047667236327,143.0013523852539,104.43757667236328,142.45723238525392C104.57777667236329,142.3124223852539,105.62897667236328,140.96845918525392,105.04517667236328,140.9092244852539Z" fill="#FFFFFF" fill-opacity="1" style="mix-blend-mode:passthrough"/><path d="M102.74587667236328,144.23086238525391Q103.99977667236328,143.62781238525392,104.79677667236328,142.8051123852539L104.79677667236328,142.8050223852539Q105.11737667236328,142.4739223852539,105.44657667236328,141.8999123852539Q105.67327667236329,141.5047643852539,105.71167667236328,141.2233133852539Q105.75087667236328,140.9356012852539,105.61567667236328,140.72057138525392Q105.44357667236328,140.4470813852539,105.09557667236328,140.4117783852539Q104.57197667236328,140.3585693852539,103.51347667236328,140.4255813852539Q103.07037667236328,140.4536343852539,102.86077667236329,140.4598593852539L98.41780667236328,140.5825103852539Q96.25896667236329,140.63267538525392,94.77223667236328,140.63914838525392Q94.11622667236328,140.6421183852539,92.08740267236328,140.5162043852539Q91.12616247236328,140.4565473852539,91.01154347236329,140.4926213852539Q90.64473467236328,140.6087483852539,90.60431567236328,140.9930353852539Q90.58592267236328,141.1679163852539,90.66475467236329,141.3695333852539Q90.74673867236328,141.5792103852539,90.95648267236328,141.8747233852539Q91.27950267236328,142.3298323852539,91.55243467236328,142.5958023852539Q92.60126667236328,143.61992238525391,93.58418667236329,144.2335423852539Q95.61071667236328,145.4982323852539,98.19120667236328,145.40753238525392Q100.46423667236328,145.3276423852539,102.74587667236328,144.23086238525391ZM104.57917667236327,141.40236438525392Q104.31207667236328,141.86797438525392,104.07847667236328,142.1093523852539L104.07837667236328,142.1094323852539Q103.40557667236328,142.8039523852539,102.31257667236328,143.3295923852539Q100.21977667236328,144.3356123852539,98.15608667236329,144.4081523852539Q95.88093667236328,144.48812238525392,94.11374667236328,143.3852623852539Q93.22253667236328,142.8289023852539,92.25035667236328,141.8796263852539Q92.10473667236329,141.7377213852539,91.92842867236328,141.5082763852539Q91.97519967236327,141.51116538525392,92.02545967236328,141.51428438525392Q94.08749667236329,141.6422593852539,94.77658667236328,141.6391393852539Q96.27275667236329,141.6326243852539,98.44540667236328,141.5821293852539L102.89047667236328,141.4594193852539Q103.11687667236328,141.45269638525392,103.57667667236328,141.42358338525392Q104.18617667236327,141.38499538525392,104.58737667236328,141.38800038525392Q104.58337667236329,141.3950773852539,104.57917667236327,141.40236438525392Z" fill-rule="evenodd" fill="#000000" fill-opacity="1" style="mix-blend-mode:passthrough"/></g><g><path d="M75.87446653808594,166.44787381835937C75.87446653808594,166.44787381835937,80.05671653808594,159.66009681835936,80.85703653808594,159.42663719835937C81.65736653808594,159.19317781835937,97.81857653808594,175.56436381835937,97.81857653808594,175.56436381835937C97.81857653808594,175.56436381835937,114.26977653808594,158.73114181835936,115.81257653808593,159.59265281835937C117.35547653808594,160.45404381835937,120.86517653808593,169.40466381835938,120.86517653808593,169.40466381835938C120.86517653808593,169.40466381835938,98.16487653808593,201.85296381835937,97.81857653808594,201.79306381835937C97.47217653808593,201.73336381835938,81.42918653808594,186.59406381835936,80.85703653808594,185.60276381835936C80.28465653808594,184.61156381835937,74.25657653808594,169.40466381835938,74.25657653808594,169.40466381835938" fill="#FFFFFF" fill-opacity="1" style="mix-blend-mode:passthrough"/></g><g><path d="M74.82176663183594,164.68374763671875L83.09600263183594,161.05625363671874L82.69449263183594,160.14040163671876L73.85806463183594,164.01436763671876Q73.81296263183594,164.03413763671875,73.77258463183594,164.06232763671875Q73.73220763183593,164.09051763671874,73.69810563183594,164.12604763671874Q73.66400363183594,164.16157763671876,73.63748863183594,164.20307763671875Q73.61097263183593,164.24456763671876,73.59306263183593,164.29044763671874Q73.57515263183593,164.33631763671875,73.56653563183593,164.38480763671876Q73.55791963183594,164.43328763671875,73.55892763183594,164.48252763671874Q73.55993563183594,164.53175763671874,73.57052963183594,164.57985763671874Q73.58112363183594,164.62794763671874,73.60089663183594,164.67304763671876Q73.62141563183594,164.71984763671875,73.65097763183594,164.76153763671874L83.67789263183593,178.89992763671876L92.02062263183593,190.72872763671876Q92.17312263183594,191.02422763671876,92.52012263183593,190.98132763671876Q92.68982263183594,190.96032763671874,92.81182263183594,190.83962763671875L93.11252263183593,190.54192763671875L93.00522263183593,190.38972763671876Q93.04922263183593,190.25302763671874,93.12152263183594,190.03752763671875Q93.31792263183594,189.45212763671876,93.69612263183593,188.36552763671875Q94.45772263183594,186.17762763671874,95.51252263183594,183.22192763671876Q96.62812263183594,180.09582763671875,97.37742263183594,178.05912763671876Q97.61402263183594,177.41592763671875,97.79012263183594,176.94772763671875L103.01642263183594,191.55612763671874L121.58022263183594,165.39857763671876L121.12972263183593,165.11778763671876Q114.56922263183594,161.02894563671876,113.01592263183593,160.16175263671875L112.52852263183594,161.03490263671875Q114.00732263183593,161.86046763671874,120.15022263183593,165.68573763671876L103.31152263183594,189.41242763671875L98.19112263183594,175.10002763671875L97.90362263183593,175.05052763671875Q97.75502263183594,175.02482763671875,97.40602263183594,175.69082763671875L97.34782263183594,175.71162763671876L97.36722263183594,175.76572763671874Q96.52172263183594,177.41862763671875,94.57072263183593,182.88582763671874Q93.51462263183593,185.84512763671876,92.75172263183595,188.03672763671875Q92.47122263183594,188.84252763671876,92.28982263183593,189.37532763671874L84.49362263183593,178.32142763671874L74.82176663183594,164.68374763671875ZM92.82412263183593,190.13292763671876L92.87952263183594,190.21152763671876Q92.85422263183594,190.16802763671876,92.82412263183593,190.13292763671876Z" fill-rule="evenodd" fill="#000000" fill-opacity="1" style="mix-blend-mode:passthrough"/></g><g></g><g transform="matrix(0.9455185532569885,0.32556813955307007,-0.32556813955307007,0.9455185532569885,46.21907125839675,-25.08072452966394)"><path d="M101.85319815673829,130.7222541394043C101.29091815673829,130.9412541394043,100.72060815673828,131.0314641394043,100.11423815673828,131.0059041394043C99.21015815673829,130.9683141394043,99.02274715673828,130.1730041394043,98.95859615673828,129.4172741394043C98.86187215673829,128.2686541394043,98.86438515673828,127.1095041394043,98.90095915673828,125.9583791394043C98.91750815673828,125.42265813940429,98.08509905673829,125.4231541394043,98.06856475673828,125.9583791394043C98.03447295673828,127.0438541394043,98.03799361673828,128.1303441394043,98.11215715673828,129.2138141394043C98.15325215673828,129.8176941394043,98.17580415673828,130.4721841394043,98.48551815673828,131.0109241394043C99.17107815673828,132.2026441394043,100.99823815673828,131.9440441394043,102.07420815673828,131.5245941394043C102.56783815673828,131.3321441394043,102.35333815673827,130.5273141394043,101.85319815673829,130.7222541394043Z" fill="#000000" fill-opacity="1" style="mix-blend-mode:passthrough"/></g><g><g mask="url(#master_svg2_0_5383)"><g><rect x="10.349609375000046" y="164.73283310940815" width="175.6215057373047" height="59.06325912475586" rx="0" fill="url(#master_svg3_0_13595)" fill-opacity="1" style="mix-blend-mode:passthrough"/></g></g></g><g><path d="M34.411468505859375,186.4651184765625C38.16543850585938,192.4959684765625,41.49343850585937,199.4374384765625,43.898258505859374,206.29813847656249C45.396268505859375,210.5667384765625,46.468868505859376,215.0442384765625,47.503068505859375,219.3724384765625C47.754168505859376,220.4194384765625,48.00516850585937,221.4707384765625,48.26066850585937,222.5177384765625C48.286268505859375,222.6156384765625,48.37116850585937,222.6794384765625,48.469068505859376,222.6794384765625C48.486168505859375,222.6794384765625,48.503068505859375,222.6794384765625,48.52026850585938,222.6750384765625C48.63506850585937,222.6453384765625,48.70326850585938,222.5305384765625,48.67766850585937,222.41543847656249C48.418068505859374,221.3685384765625,48.167068505859376,220.3215384765625,47.915968505859375,219.2704384765625C46.88156850585938,214.93343847656251,45.804868505859375,210.4478384765625,44.302428505859375,206.15773847656249C41.863768505859376,199.2203384765625,38.49297850585938,192.1979084765625,34.69238250585938,186.1119384765625C34.594451505859375,186.2267454765625,34.500915505859375,186.3459474765625,34.411468505859375,186.4651184765625Z" fill="#000000" fill-opacity="1" style="mix-blend-mode:passthrough"/></g><g><path d="M159.65823249511718,187.5110627861328C155.8969324951172,193.5536607861328,152.56251249511718,200.5086807861328,150.1530224951172,207.3827807861328C148.65205249511718,211.6596807861328,147.57737249511717,216.1458807861328,146.5411824951172,220.48268078613282C146.28949949511718,221.53168078613282,146.0381564951172,222.5850807861328,145.7821134951172,223.6339807861328C145.75644849511718,223.7321807861328,145.67142649511717,223.79608078613282,145.5733124951172,223.79608078613282C145.55616149511718,223.79608078613282,145.5391944951172,223.79608078613282,145.5219824951172,223.79168078613282C145.40693079511718,223.76188078613282,145.3386324951172,223.6468807861328,145.3643282951172,223.53158078613282C145.62446049511718,222.48258078613281,145.87583349511718,221.4335807861328,146.1274814951172,220.3804807861328C147.1639524951172,216.03498078613282,148.2427124951172,211.5405807861328,149.74805249511718,207.24208078613282C152.1914424951172,200.29118078613283,155.5688324951172,193.2550207861328,159.37683249511718,187.1571807861328C159.47493249511717,187.2722317861328,159.56863249511719,187.3916477861328,159.65823249511718,187.5110627861328Z" fill="#000000" fill-opacity="1" style="mix-blend-mode:passthrough"/></g></g></g></g><g><g><path d="M221.4052910546875,0C221.4052910546875,0,328.00033105468754,0,328.00033105468754,0C328.00033105468754,0,323.9603310546875,17.0077,323.9603310546875,17.0077C323.9603310546875,17.0077,217.6893310546875,17.0077,217.6893310546875,17.0077C217.6893310546875,17.0077,221.4052910546875,0,221.4052910546875,0C221.4052910546875,0,221.4052910546875,0,221.4052910546875,0Z" fill="url(#master_svg4_0_13473)" fill-opacity="1" style="mix-blend-mode:passthrough"/></g><g><path d="M324.2843310546875,33.90913966674805C324.2843310546875,33.90913966674805,217.6893310546875,33.90913966674805,217.6893310546875,33.90913966674805C217.6893310546875,33.90913966674805,221.7292910546875,16.901439666748047,221.7292910546875,16.901439666748047C221.7292910546875,16.901439666748047,328.00033105468754,16.901439666748047,328.00033105468754,16.901439666748047C328.00033105468754,16.901439666748047,324.2843310546875,33.90913966674805,324.2843310546875,33.90913966674805C324.2843310546875,33.90913966674805,324.2843310546875,33.90913966674805,324.2843310546875,33.90913966674805Z" fill="url(#master_svg5_0_13475)" fill-opacity="1" style="mix-blend-mode:passthrough"/></g></g></g></svg>