<svg xmlns="http://www.w3.org/2000/svg" xmlns:xlink="http://www.w3.org/1999/xlink" width="357.877" height="355.77" viewBox="0 0 357.877 355.77">
  <defs>
    <linearGradient id="linear-gradient" x1="0.015" y1="0.269" x2="0.003" y2="1" gradientUnits="objectBoundingBox">
      <stop offset="0" stop-color="#64dadb"/>
      <stop offset="1" stop-color="#4dc5f2"/>
    </linearGradient>
    <clipPath id="clip-path">
      <path id="Caminho_770335" data-name="Caminho 770335" d="M150.843,0,115.516,56.007,84.545.1C43.162,10.854,10.763,41.1,0,79.294H235.776C224.988,40.978,192.414,10.66,150.843,0Z" fill="url(#linear-gradient)"/>
    </clipPath>
    <clipPath id="clip-path-2">
      <rect id="Retângulo_124925" data-name="Retângulo 124925" width="59.989" height="73.822" fill="none"/>
    </clipPath>
  </defs>
  <g id="_img_joaomaria_3-mob_" data-name="&lt;img joaomaria_3-mob&gt;" transform="translate(0 -1273.336)">
    <path id="GettyImages-1412762526" d="M-111.213.131,194.568,0,142.753,225.391l-306.063-.173Z" transform="translate(163.31 1273.336)" fill="#0041d9"/>
    <path id="Caminho_773379" data-name="Caminho 773379" d="M3.132,5.7l2.016-.036,2.646.09L7.92,4.606l-.108-.144H1.674l.09,8.064L1.674,16H3.132L3.06,12.4l.018-1.494L4.9,10.888l2,.054.126-1.1L6.912,9.7,5.04,9.754,3.1,9.718Zm8.55,1.908c-2.394,0-3.762,1.6-3.762,4.374,0,2.646,1.3,4.158,3.546,4.158,2.394,0,3.744-1.6,3.744-4.374C15.21,9.124,13.914,7.612,11.682,7.612Zm-.09,1.008c1.476,0,2.286,1.188,2.286,3.474,0,2.016-.81,3.024-2.322,3.024-1.476,0-2.286-1.134-2.286-3.456C9.27,9.682,10.08,8.62,11.592,8.62ZM18.2,4.066a.794.794,0,0,0-.846.846.739.739,0,0,0,.792.828.8.8,0,0,0,.846-.882A.737.737,0,0,0,18.2,4.066Zm.558,8.316.108-4.662-1.422.126.072,4.662L17.424,16h1.422Zm6.606-.576,5.022-.018.306-.234c.018-.216.036-.63.036-.828,0-1.944-1.044-3.1-2.844-3.1-2.358,0-3.87,1.638-3.87,4.3,0,2.592,1.386,4.212,3.744,4.212a5.644,5.644,0,0,0,2.5-.666l.144-1.206-.162-.09a4.4,4.4,0,0,1-2.412.81c-1.656,0-2.466-1.188-2.466-3.132Zm2.394-3.168c.99,0,1.692.594,1.692,1.89l-.036.216-3.96.108A2.315,2.315,0,0,1,27.756,8.638ZM37.926,16h1.44l-.072-3.582.036-2.34c.018-1.548-.918-2.43-2.754-2.43A5.666,5.666,0,0,0,34.29,8.926h-.108L34.2,7.72l-1.368.126.072,4.662L32.814,16h1.422l-.072-3.618.018-2.268a3.569,3.569,0,0,1,2.43-1.278c.954,0,1.422.612,1.4,1.566Zm6.768-1.1c-.792,0-1.152-.324-1.134-1.3l.09-4.878h2.43l.09-.846L46.1,7.774H43.65l.036-1.746L43.542,5.9l-1.242.54V7.774H41.2l-.09.846.072.108h1.134l.018,3.726-.054,1.278a2.079,2.079,0,0,0,1.926,2.376,5.189,5.189,0,0,0,1.8-.522l.144-.936-.162-.108A2.726,2.726,0,0,1,44.694,14.9Zm8.55-10.458-.432-.45h-.144c-.468.45-.756.828-1.026.828-.45,0-2.034-.558-2.79-.648l-.18.054-1.1,1.242V5.6l.432.468h.162c.45-.45.738-.846,1.008-.846.468,0,2.052.594,2.79.666l.18-.054,1.1-1.242ZM50.562,7.612a5.231,5.231,0,0,0-3.1,1.116l.2,1.026.144.072a3.885,3.885,0,0,1,2.538-1.188A1.3,1.3,0,0,1,51.768,10.1l-.018,1.17-2.916.684a1.854,1.854,0,0,0-1.674,1.926c0,1.386.936,2.25,2.556,2.25a5.308,5.308,0,0,0,1.926-1.35h.108a1.3,1.3,0,0,0,1.26,1.332,2.694,2.694,0,0,0,1.026-.36l.126-.81-.144-.126a1.8,1.8,0,0,1-.594.108c-.432,0-.576-.18-.576-.7,0-.63.234-3.816.234-4.446C53.082,8.422,52.092,7.612,50.562,7.612Zm1.17,4.572-.054,1.476a2.791,2.791,0,0,1-2.034,1.278,1.149,1.149,0,0,1-1.206-1.26.775.775,0,0,1,.684-.864Zm7.506-4.572c-2.394,0-3.762,1.6-3.762,4.374,0,2.646,1.3,4.158,3.546,4.158,2.394,0,3.744-1.6,3.744-4.374C62.766,9.124,61.47,7.612,59.238,7.612Zm-.09,1.008c1.476,0,2.286,1.188,2.286,3.474,0,2.016-.81,3.024-2.322,3.024-1.476,0-2.286-1.134-2.286-3.456C56.826,9.682,57.636,8.62,59.148,8.62Zm14.94-.972-.7.288a8.049,8.049,0,0,0-2.16-.324c-2.466,0-3.96,1.512-3.96,4.338,0,2.592,1.26,4.14,3.6,4.14a5.778,5.778,0,0,0,1.854-1.062h.144v.342l-.054,3.96h1.4l-.09-6.912.108-4.68Zm-3.024.99a3.913,3.913,0,0,1,1.782.486l.036,3.438-.018,1.224a2.757,2.757,0,0,1-2.07,1.1c-1.332,0-2.16-1.116-2.2-3.06C68.562,9.664,69.57,8.638,71.064,8.638Zm12.2-.918L81.9,7.846V13.8a3.33,3.33,0,0,1-2.232,1.1c-.936,0-1.4-.594-1.386-1.566L78.39,7.72l-1.44.126L77,11.392l-.018,2.286c-.018,1.548.918,2.43,2.7,2.43a5.229,5.229,0,0,0,2.232-1.26h.144a1.31,1.31,0,0,0,1.242,1.26,2.592,2.592,0,0,0,1.026-.36l.126-.81-.126-.126a1.979,1.979,0,0,1-.63.108c-.378,0-.54-.18-.54-.684Zm3.672,4.086,5.022-.018.306-.234c.018-.216.036-.63.036-.828,0-1.944-1.044-3.1-2.844-3.1-2.358,0-3.87,1.638-3.87,4.3,0,2.592,1.386,4.212,3.744,4.212a5.644,5.644,0,0,0,2.5-.666l.144-1.206-.162-.09a4.4,4.4,0,0,1-2.412.81c-1.656,0-2.466-1.188-2.466-3.132Zm2.394-3.168c.99,0,1.692.594,1.692,1.89l-.036.216-3.96.108A2.315,2.315,0,0,1,89.334,8.638Zm8.712,3.168,5.022-.018.306-.234c.018-.216.036-.63.036-.828,0-1.944-1.044-3.1-2.844-3.1-2.358,0-3.87,1.638-3.87,4.3,0,2.592,1.386,4.212,3.744,4.212a5.644,5.644,0,0,0,2.5-.666l.144-1.206-.162-.09a4.4,4.4,0,0,1-2.412.81c-1.656,0-2.466-1.188-2.466-3.132Zm2.394-3.168c.99,0,1.692.594,1.692,1.89l-.036.216-3.96.108A2.315,2.315,0,0,1,100.44,8.638ZM110.61,16h1.44l-.072-3.582.036-2.34c.018-1.548-.918-2.43-2.754-2.43a5.666,5.666,0,0,0-2.286,1.278h-.108l.018-1.206-1.368.126.072,4.662L105.5,16h1.422l-.072-3.618.018-2.268a3.569,3.569,0,0,1,2.43-1.278c.954,0,1.422.612,1.4,1.566Zm6.768-1.1c-.792,0-1.152-.324-1.134-1.3l.09-4.878h2.43l.09-.846-.072-.108h-2.448l.036-1.746-.144-.126-1.242.54V7.774h-1.1l-.09.846.072.108H115l.018,3.726-.054,1.278a2.079,2.079,0,0,0,1.926,2.376,5.189,5.189,0,0,0,1.8-.522l.144-.936-.162-.108A2.726,2.726,0,0,1,117.378,14.9Zm3.528-3.1,5.022-.018.306-.234c.018-.216.036-.63.036-.828,0-1.944-1.044-3.1-2.844-3.1-2.358,0-3.87,1.638-3.87,4.3,0,2.592,1.386,4.212,3.744,4.212a5.644,5.644,0,0,0,2.5-.666l.144-1.206-.162-.09a4.4,4.4,0,0,1-2.412.81c-1.656,0-2.466-1.188-2.466-3.132ZM123.3,8.638c.99,0,1.692.594,1.692,1.89l-.036.216-3.96.108A2.315,2.315,0,0,1,123.3,8.638ZM133.47,16h1.44l-.072-3.582.036-2.34c.018-1.548-.918-2.43-2.754-2.43a5.667,5.667,0,0,0-2.286,1.278h-.108l.018-1.206-1.368.126.072,4.662L128.358,16h1.422l-.072-3.618.018-2.268a3.569,3.569,0,0,1,2.43-1.278c.954,0,1.422.612,1.4,1.566ZM143.8,12.382l.108-9.018-1.422.126.036,4.3a7.012,7.012,0,0,0-1.584-.18c-2.5,0-4,1.548-4,4.284,0,2.664,1.278,4.194,3.672,4.194a5.986,5.986,0,0,0,1.962-1.242h.126a1.327,1.327,0,0,0,1.26,1.26,2.592,2.592,0,0,0,1.026-.36l.126-.81-.144-.126a1.817,1.817,0,0,1-.612.108c-.378,0-.5-.18-.522-.684ZM140.76,8.62a4.2,4.2,0,0,1,1.764.45l.036,3.42-.036,1.3a2.556,2.556,0,0,1-1.98,1.1c-1.368,0-2.232-1.116-2.268-3.114C138.24,9.682,139.248,8.62,140.76,8.62Zm6.93-4.554a.794.794,0,0,0-.846.846.739.739,0,0,0,.792.828.8.8,0,0,0,.846-.882A.737.737,0,0,0,147.69,4.066Zm.558,8.316.108-4.662-1.422.126.072,4.662L146.916,16h1.422Zm8.658-4.77a5.181,5.181,0,0,0-3.078,1.116l.18,1.026.144.072a3.922,3.922,0,0,1,2.538-1.188,1.3,1.3,0,0,1,1.422,1.458l-.018,1.17-2.916.684a1.854,1.854,0,0,0-1.674,1.926c0,1.386.936,2.25,2.556,2.25a5.308,5.308,0,0,0,1.926-1.35h.126a1.289,1.289,0,0,0,1.242,1.332,2.592,2.592,0,0,0,1.026-.36l.144-.81-.144-.126a1.964,1.964,0,0,1-.612.108c-.414,0-.558-.18-.558-.7,0-.63.216-3.816.216-4.446C159.426,8.422,158.454,7.612,156.906,7.612Zm1.17,4.572-.054,1.476a2.761,2.761,0,0,1-2.016,1.278,1.154,1.154,0,0,1-1.224-1.26.788.788,0,0,1,.684-.864ZM6.534,42h1.44L7.9,38.418l.036-2.34c.018-1.548-.918-2.43-2.754-2.43A5.666,5.666,0,0,0,2.9,34.926H2.79l.018-1.206-1.368.126.072,4.662L1.422,42H2.844l-.072-3.618.018-2.268a3.569,3.569,0,0,1,2.43-1.278c.954,0,1.422.612,1.4,1.566Zm4.842-4.194,5.022-.018.306-.234c.018-.216.036-.63.036-.828,0-1.944-1.044-3.1-2.844-3.1-2.358,0-3.87,1.638-3.87,4.3,0,2.592,1.386,4.212,3.744,4.212a5.644,5.644,0,0,0,2.5-.666l.144-1.206-.162-.09a4.4,4.4,0,0,1-2.412.81c-1.656,0-2.466-1.188-2.466-3.132Zm2.394-3.168c.99,0,1.692.594,1.692,1.89l-.036.216-3.96.108A2.315,2.315,0,0,1,13.77,34.638Zm8.046-1.026c-2.268,0-3.654,1.674-3.654,4.32,0,2.61,1.332,4.212,3.51,4.212a5.84,5.84,0,0,0,2.2-.468l.162-1.206-.162-.09a4.043,4.043,0,0,1-2.016.612c-1.476,0-2.34-1.206-2.34-3.132,0-1.944.846-3.078,2.25-3.078a3.5,3.5,0,0,1,1.854.612l.162-.054L24.03,34.1A5.473,5.473,0,0,0,21.816,33.612Zm4.608,4.194,5.022-.018.306-.234c.018-.216.036-.63.036-.828,0-1.944-1.044-3.1-2.844-3.1-2.358,0-3.87,1.638-3.87,4.3,0,2.592,1.386,4.212,3.744,4.212a5.644,5.644,0,0,0,2.5-.666l.144-1.206-.162-.09a4.4,4.4,0,0,1-2.412.81c-1.656,0-2.466-1.188-2.466-3.132Zm2.394-3.168c.99,0,1.692.594,1.692,1.89l-.036.216-3.96.108A2.315,2.315,0,0,1,28.818,34.638Zm7.326-1.008c-1.782,0-2.844,1.008-2.844,2.376,0,2.556,3.762,2.214,3.762,3.87a1.353,1.353,0,0,1-1.494,1.242,3.542,3.542,0,0,1-2.2-.9l-.162.108-.18,1.224a5.288,5.288,0,0,0,2.394.594,2.626,2.626,0,0,0,2.934-2.52c0-2.484-3.744-2.142-3.744-3.8a1.247,1.247,0,0,1,1.368-1.17,3.123,3.123,0,0,1,1.728.594l.216-.054.2-1.17A5.248,5.248,0,0,0,36.144,33.63Zm6.66,0c-1.782,0-2.844,1.008-2.844,2.376,0,2.556,3.762,2.214,3.762,3.87a1.353,1.353,0,0,1-1.494,1.242,3.542,3.542,0,0,1-2.2-.9l-.162.108-.18,1.224a5.288,5.288,0,0,0,2.394.594,2.626,2.626,0,0,0,2.934-2.52c0-2.484-3.744-2.142-3.744-3.8a1.247,1.247,0,0,1,1.368-1.17,3.123,3.123,0,0,1,1.728.594l.216-.054.2-1.17A5.248,5.248,0,0,0,42.8,33.63Zm5.166-3.564a.794.794,0,0,0-.846.846.739.739,0,0,0,.792.828.8.8,0,0,0,.846-.882A.737.737,0,0,0,47.97,30.066Zm.558,8.316.108-4.662-1.422.126.072,4.662L47.2,42h1.422Zm9.126,0,.108-9.018-1.422.126.036,4.3a7.013,7.013,0,0,0-1.584-.18c-2.5,0-4,1.548-4,4.284,0,2.664,1.278,4.194,3.672,4.194a5.986,5.986,0,0,0,1.962-1.242h.126a1.327,1.327,0,0,0,1.26,1.26,2.592,2.592,0,0,0,1.026-.36l.126-.81-.144-.126a1.816,1.816,0,0,1-.612.108c-.378,0-.5-.18-.522-.684ZM54.612,34.62a4.2,4.2,0,0,1,1.764.45l.036,3.42-.036,1.3a2.556,2.556,0,0,1-1.98,1.1c-1.368,0-2.232-1.116-2.268-3.114C52.092,35.682,53.1,34.62,54.612,34.62ZM63.5,33.612a5.181,5.181,0,0,0-3.078,1.116l.18,1.026.144.072a3.922,3.922,0,0,1,2.538-1.188A1.3,1.3,0,0,1,64.71,36.1l-.018,1.17-2.916.684A1.854,1.854,0,0,0,60.1,39.876c0,1.386.936,2.25,2.556,2.25a5.308,5.308,0,0,0,1.926-1.35h.126a1.289,1.289,0,0,0,1.242,1.332,2.592,2.592,0,0,0,1.026-.36l.144-.81-.144-.126a1.964,1.964,0,0,1-.612.108c-.414,0-.558-.18-.558-.7,0-.63.216-3.816.216-4.446C66.024,34.422,65.052,33.612,63.5,33.612Zm1.17,4.572L64.62,39.66A2.761,2.761,0,0,1,62.6,40.938a1.154,1.154,0,0,1-1.224-1.26.788.788,0,0,1,.684-.864Zm10.584.2.108-9.018-1.422.126.036,4.3a7.013,7.013,0,0,0-1.584-.18c-2.5,0-4,1.548-4,4.284,0,2.664,1.278,4.194,3.672,4.194a5.986,5.986,0,0,0,1.962-1.242h.126a1.327,1.327,0,0,0,1.26,1.26,2.592,2.592,0,0,0,1.026-.36l.126-.81-.144-.126a1.816,1.816,0,0,1-.612.108c-.378,0-.5-.18-.522-.684ZM72.216,34.62a4.2,4.2,0,0,1,1.764.45l.036,3.42-.036,1.3a2.556,2.556,0,0,1-1.98,1.1c-1.368,0-2.232-1.116-2.268-3.114C69.7,35.682,70.7,34.62,72.216,34.62Zm6.84,3.186,5.022-.018.306-.234c.018-.216.036-.63.036-.828,0-1.944-1.044-3.1-2.844-3.1-2.358,0-3.87,1.638-3.87,4.3,0,2.592,1.386,4.212,3.744,4.212a5.644,5.644,0,0,0,2.5-.666l.144-1.206-.162-.09a4.4,4.4,0,0,1-2.412.81c-1.656,0-2.466-1.188-2.466-3.132Zm2.394-3.168c.99,0,1.692.594,1.692,1.89l-.036.216-3.96.108A2.315,2.315,0,0,1,81.45,34.638Zm14.2,3.744.108-9.018-1.422.126.036,4.3a7.013,7.013,0,0,0-1.584-.18c-2.5,0-4,1.548-4,4.284,0,2.664,1.278,4.194,3.672,4.194a5.986,5.986,0,0,0,1.962-1.242h.126a1.327,1.327,0,0,0,1.26,1.26,2.592,2.592,0,0,0,1.026-.36l.126-.81-.144-.126a1.816,1.816,0,0,1-.612.108c-.378,0-.5-.18-.522-.684ZM92.61,34.62a4.2,4.2,0,0,1,1.764.45l.036,3.42-.036,1.3a2.556,2.556,0,0,1-1.98,1.1c-1.368,0-2.232-1.116-2.268-3.114C90.09,35.682,91.1,34.62,92.61,34.62Zm6.84,3.186,5.022-.018.306-.234c.018-.216.036-.63.036-.828,0-1.944-1.044-3.1-2.844-3.1-2.358,0-3.87,1.638-3.87,4.3,0,2.592,1.386,4.212,3.744,4.212a5.644,5.644,0,0,0,2.5-.666l.144-1.206-.162-.09a4.4,4.4,0,0,1-2.412.81c-1.656,0-2.466-1.188-2.466-3.132Zm2.394-3.168c.99,0,1.692.594,1.692,1.89l-.036.216-3.96.108A2.315,2.315,0,0,1,101.844,34.638Zm14.238-.918-1.368.126V39.8a3.33,3.33,0,0,1-2.232,1.1c-.936,0-1.4-.594-1.386-1.566l.108-5.616-1.44.126.054,3.546-.018,2.286c-.018,1.548.918,2.43,2.7,2.43a5.229,5.229,0,0,0,2.232-1.26h.144a1.31,1.31,0,0,0,1.242,1.26,2.592,2.592,0,0,0,1.026-.36l.126-.81-.126-.126a1.979,1.979,0,0,1-.63.108c-.378,0-.54-.18-.54-.684Zm5.256-.09c-1.782,0-2.844,1.008-2.844,2.376,0,2.556,3.762,2.214,3.762,3.87a1.353,1.353,0,0,1-1.494,1.242,3.542,3.542,0,0,1-2.2-.9l-.162.108-.18,1.224a5.288,5.288,0,0,0,2.394.594,2.626,2.626,0,0,0,2.934-2.52c0-2.484-3.744-2.142-3.744-3.8a1.247,1.247,0,0,1,1.368-1.17,3.123,3.123,0,0,1,1.728.594l.216-.054.2-1.17A5.248,5.248,0,0,0,121.338,33.63Zm7.128-.018a5.181,5.181,0,0,0-3.078,1.116l.18,1.026.144.072a3.922,3.922,0,0,1,2.538-1.188,1.3,1.3,0,0,1,1.422,1.458l-.018,1.17-2.916.684a1.854,1.854,0,0,0-1.674,1.926c0,1.386.936,2.25,2.556,2.25a5.308,5.308,0,0,0,1.926-1.35h.126a1.289,1.289,0,0,0,1.242,1.332,2.592,2.592,0,0,0,1.026-.36l.144-.81-.144-.126a1.964,1.964,0,0,1-.612.108c-.414,0-.558-.18-.558-.7,0-.63.216-3.816.216-4.446C130.986,34.422,130.014,33.612,128.466,33.612Zm1.17,4.572-.054,1.476a2.761,2.761,0,0,1-2.016,1.278,1.154,1.154,0,0,1-1.224-1.26.788.788,0,0,1,.684-.864Zm8.19-4.446a2.726,2.726,0,0,0-2.3,1.674h-.108l.018-1.692-1.368.126.09,4.662L134.046,42h1.422l-.09-3.618.018-1.26c.648-1.422,1.314-2,2.088-2a2.492,2.492,0,0,1,.648.09l.162-.054V33.774A3.539,3.539,0,0,0,137.826,33.738ZM149,38.382l.108-9.018-1.422.126.036,4.3a7.013,7.013,0,0,0-1.584-.18c-2.5,0-4,1.548-4,4.284,0,2.664,1.278,4.194,3.672,4.194a5.986,5.986,0,0,0,1.962-1.242h.126a1.327,1.327,0,0,0,1.26,1.26,2.592,2.592,0,0,0,1.026-.36l.126-.81-.144-.126a1.817,1.817,0,0,1-.612.108c-.378,0-.5-.18-.522-.684Zm-3.042-3.762a4.2,4.2,0,0,1,1.764.45l.036,3.42-.036,1.3a2.556,2.556,0,0,1-1.98,1.1c-1.368,0-2.232-1.116-2.268-3.114C143.442,35.682,144.45,34.62,145.962,34.62Zm8.892-1.008a5.181,5.181,0,0,0-3.078,1.116l.18,1.026.144.072a3.922,3.922,0,0,1,2.538-1.188A1.3,1.3,0,0,1,156.06,36.1l-.018,1.17-2.916.684a1.854,1.854,0,0,0-1.674,1.926c0,1.386.936,2.25,2.556,2.25a5.308,5.308,0,0,0,1.926-1.35h.126a1.289,1.289,0,0,0,1.242,1.332,2.592,2.592,0,0,0,1.026-.36l.144-.81-.144-.126a1.964,1.964,0,0,1-.612.108c-.414,0-.558-.18-.558-.7,0-.63.216-3.816.216-4.446C157.374,34.422,156.4,33.612,154.854,33.612Zm1.17,4.572-.054,1.476a2.761,2.761,0,0,1-2.016,1.278,1.154,1.154,0,0,1-1.224-1.26.788.788,0,0,1,.684-.864Zm10.584.2.108-9.018-1.422.126.036,4.3a7.013,7.013,0,0,0-1.584-.18c-2.5,0-4,1.548-4,4.284,0,2.664,1.278,4.194,3.672,4.194a5.986,5.986,0,0,0,1.962-1.242h.126a1.327,1.327,0,0,0,1.26,1.26,2.592,2.592,0,0,0,1.026-.36l.126-.81-.144-.126a1.817,1.817,0,0,1-.612.108c-.378,0-.5-.18-.522-.684Zm-3.042-3.762a4.2,4.2,0,0,1,1.764.45l.036,3.42-.036,1.3a2.556,2.556,0,0,1-1.98,1.1c-1.368,0-2.232-1.116-2.268-3.114C161.046,35.682,162.054,34.62,163.566,34.62Zm9.252-1.008c-2.394,0-3.762,1.6-3.762,4.374,0,2.646,1.3,4.158,3.546,4.158,2.394,0,3.744-1.6,3.744-4.374C176.346,35.124,175.05,33.612,172.818,33.612Zm-.09,1.008c1.476,0,2.286,1.188,2.286,3.474,0,2.016-.81,3.024-2.322,3.024-1.476,0-2.286-1.134-2.286-3.456C170.406,35.682,171.216,34.62,172.728,34.62Zm8.1-.99c-1.782,0-2.844,1.008-2.844,2.376,0,2.556,3.762,2.214,3.762,3.87a1.353,1.353,0,0,1-1.494,1.242,3.542,3.542,0,0,1-2.2-.9l-.162.108-.18,1.224a5.288,5.288,0,0,0,2.394.594,2.626,2.626,0,0,0,2.934-2.52c0-2.484-3.744-2.142-3.744-3.8a1.247,1.247,0,0,1,1.368-1.17,3.123,3.123,0,0,1,1.728.594l.216-.054.2-1.17A5.248,5.248,0,0,0,180.828,33.63ZM5.166,59.666A5.327,5.327,0,0,0,2.9,60.89H2.79l.018-1.17-1.386.126.108,4.662L1.422,71.33h1.4L2.79,67.982a7.844,7.844,0,0,0,1.566.162c2.538,0,4.014-1.62,4.014-4.518C8.37,61.142,7.29,59.666,5.166,59.666ZM4.536,67.1a3.7,3.7,0,0,1-1.764-.468l-.018-2.25.018-2.268A3.129,3.129,0,0,1,5.04,60.836c1.26,0,1.944,1.08,1.98,2.952C7.056,66.02,6.048,67.1,4.536,67.1Zm8.73-7.488a5.181,5.181,0,0,0-3.078,1.116l.18,1.026.144.072a3.922,3.922,0,0,1,2.538-1.188A1.3,1.3,0,0,1,14.472,62.1l-.018,1.17-2.916.684a1.854,1.854,0,0,0-1.674,1.926c0,1.386.936,2.25,2.556,2.25a5.308,5.308,0,0,0,1.926-1.35h.126a1.289,1.289,0,0,0,1.242,1.332,2.592,2.592,0,0,0,1.026-.36l.144-.81-.144-.126a1.964,1.964,0,0,1-.612.108c-.414,0-.558-.18-.558-.7,0-.63.216-3.816.216-4.446C15.786,60.422,14.814,59.612,13.266,59.612Zm1.17,4.572-.054,1.476a2.761,2.761,0,0,1-2.016,1.278,1.154,1.154,0,0,1-1.224-1.26.788.788,0,0,1,.684-.864Zm8.19-4.446a2.726,2.726,0,0,0-2.3,1.674h-.108l.018-1.692-1.368.126.09,4.662L18.846,68h1.422l-.09-3.618.018-1.26c.648-1.422,1.314-2,2.088-2a2.492,2.492,0,0,1,.648.09l.162-.054V59.774A3.539,3.539,0,0,0,22.626,59.738Zm4.59-.126a5.181,5.181,0,0,0-3.078,1.116l.18,1.026.144.072A3.922,3.922,0,0,1,27,60.638,1.3,1.3,0,0,1,28.422,62.1l-.018,1.17-2.916.684a1.854,1.854,0,0,0-1.674,1.926c0,1.386.936,2.25,2.556,2.25a5.308,5.308,0,0,0,1.926-1.35h.126a1.289,1.289,0,0,0,1.242,1.332,2.592,2.592,0,0,0,1.026-.36l.144-.81-.144-.126a1.964,1.964,0,0,1-.612.108c-.414,0-.558-.18-.558-.7,0-.63.216-3.816.216-4.446C29.736,60.422,28.764,59.612,27.216,59.612Zm1.17,4.572-.054,1.476a2.761,2.761,0,0,1-2.016,1.278,1.154,1.154,0,0,1-1.224-1.26.788.788,0,0,1,.684-.864Zm10.476-4.572c-2.394,0-3.762,1.6-3.762,4.374,0,2.646,1.3,4.158,3.546,4.158,2.394,0,3.744-1.6,3.744-4.374C42.39,61.124,41.094,59.612,38.862,59.612Zm-.09,1.008c1.476,0,2.286,1.188,2.286,3.474,0,2.016-.81,3.024-2.322,3.024-1.476,0-2.286-1.134-2.286-3.456C36.45,61.682,37.26,60.62,38.772,60.62Zm9.612-.882a2.726,2.726,0,0,0-2.3,1.674h-.108l.018-1.692-1.368.126.09,4.662L44.6,68h1.422l-.09-3.618.018-1.26c.648-1.422,1.314-2,2.088-2a2.492,2.492,0,0,1,.648.09l.162-.054V59.774A3.539,3.539,0,0,0,48.384,59.738Zm2.808-3.672a.794.794,0,0,0-.846.846.739.739,0,0,0,.792.828.8.8,0,0,0,.846-.882A.737.737,0,0,0,51.192,56.066Zm.558,8.316.108-4.662-1.422.126.072,4.662L50.418,68H51.84Zm3.636-.576,5.022-.018.306-.234c.018-.216.036-.63.036-.828,0-1.944-1.044-3.1-2.844-3.1-2.358,0-3.87,1.638-3.87,4.3,0,2.592,1.386,4.212,3.744,4.212a5.644,5.644,0,0,0,2.5-.666l.144-1.206-.162-.09a4.4,4.4,0,0,1-2.412.81c-1.656,0-2.466-1.188-2.466-3.132Zm2.394-3.168c.99,0,1.692.594,1.692,1.89l-.036.216-3.96.108A2.315,2.315,0,0,1,57.78,60.638ZM67.95,68h1.44l-.072-3.582.036-2.34c.018-1.548-.918-2.43-2.754-2.43a5.666,5.666,0,0,0-2.286,1.278h-.108l.018-1.206-1.368.126.072,4.662L62.838,68H64.26l-.072-3.618.018-2.268a3.569,3.569,0,0,1,2.43-1.278c.954,0,1.422.612,1.4,1.566Zm6.768-1.1c-.792,0-1.152-.324-1.134-1.3l.09-4.878H76.1l.09-.846-.072-.108H73.674l.036-1.746-.144-.126-1.242.54v1.332h-1.1l-.09.846.072.108h1.134l.018,3.726-.054,1.278a2.079,2.079,0,0,0,1.926,2.376,5.189,5.189,0,0,0,1.8-.522l.144-.936-.162-.108A2.726,2.726,0,0,1,74.718,66.9Zm5.868-7.29a5.181,5.181,0,0,0-3.078,1.116l.18,1.026.144.072a3.922,3.922,0,0,1,2.538-1.188A1.3,1.3,0,0,1,81.792,62.1l-.018,1.17-2.916.684a1.854,1.854,0,0,0-1.674,1.926c0,1.386.936,2.25,2.556,2.25a5.308,5.308,0,0,0,1.926-1.35h.126a1.289,1.289,0,0,0,1.242,1.332,2.592,2.592,0,0,0,1.026-.36l.144-.81-.144-.126a1.964,1.964,0,0,1-.612.108c-.414,0-.558-.18-.558-.7,0-.63.216-3.816.216-4.446C83.106,60.422,82.134,59.612,80.586,59.612Zm1.17,4.572L81.7,65.66a2.761,2.761,0,0,1-2.016,1.278,1.154,1.154,0,0,1-1.224-1.26.788.788,0,0,1,.684-.864Zm8.19-4.446a2.726,2.726,0,0,0-2.3,1.674h-.108l.018-1.692-1.368.126.09,4.662L86.166,68h1.422l-.09-3.618.018-1.26c.648-1.422,1.314-2,2.088-2a2.493,2.493,0,0,1,.648.09l.162-.054V59.774A3.539,3.539,0,0,0,89.946,59.738ZM105.174,68h1.44l-.054-3.582.018-2.34c.018-1.548-.918-2.43-2.736-2.43a5.92,5.92,0,0,0-2.448,1.368h-.108c-.342-.882-1.206-1.368-2.574-1.368a5.5,5.5,0,0,0-2.268,1.278h-.126l.018-1.206-1.368.126.072,4.662L94.95,68h1.422L96.3,64.382l.018-2.25a3.6,3.6,0,0,1,2.43-1.3c.954,0,1.422.612,1.4,1.566l-.09,5.6h1.44l-.072-3.582.036-2.34a3.552,3.552,0,0,1,2.394-1.242,1.351,1.351,0,0,1,1.422,1.566Zm4.878-11.934a.794.794,0,0,0-.846.846.739.739,0,0,0,.792.828.8.8,0,0,0,.846-.882A.737.737,0,0,0,110.052,56.066Zm.558,8.316.108-4.662-1.422.126.072,4.662L109.278,68H110.7ZM118.674,68h1.44l-.072-3.582.036-2.34c.018-1.548-.918-2.43-2.754-2.43a5.666,5.666,0,0,0-2.286,1.278h-.108l.018-1.206-1.368.126.072,4.662L113.562,68h1.422l-.072-3.618.018-2.268a3.569,3.569,0,0,1,2.43-1.278c.954,0,1.422.612,1.4,1.566Zm9.342,0h1.44l-.054-3.582.036-2.34c.018-1.548-.936-2.43-2.754-2.43a5.666,5.666,0,0,0-2.286,1.278h-.108l.072-5.562-1.422.126.072,9-.09,3.51h1.422l-.09-3.618.036-2.268a3.5,3.5,0,0,1,2.43-1.278,1.347,1.347,0,0,1,1.4,1.566Zm6.912-8.388a5.181,5.181,0,0,0-3.078,1.116l.18,1.026.144.072a3.922,3.922,0,0,1,2.538-1.188,1.3,1.3,0,0,1,1.422,1.458l-.018,1.17-2.916.684a1.854,1.854,0,0,0-1.674,1.926c0,1.386.936,2.25,2.556,2.25a5.308,5.308,0,0,0,1.926-1.35h.126a1.289,1.289,0,0,0,1.242,1.332,2.592,2.592,0,0,0,1.026-.36l.144-.81-.144-.126a1.964,1.964,0,0,1-.612.108c-.414,0-.558-.18-.558-.7,0-.63.216-3.816.216-4.446C137.448,60.422,136.476,59.612,134.928,59.612Zm1.17,4.572-.054,1.476a2.761,2.761,0,0,1-2.016,1.278,1.154,1.154,0,0,1-1.224-1.26.788.788,0,0,1,.684-.864Zm6.678-4.554c-1.782,0-2.844,1.008-2.844,2.376,0,2.556,3.762,2.214,3.762,3.87a1.353,1.353,0,0,1-1.494,1.242,3.542,3.542,0,0,1-2.2-.9l-.162.108-.18,1.224a5.288,5.288,0,0,0,2.394.594,2.626,2.626,0,0,0,2.934-2.52c0-2.484-3.744-2.142-3.744-3.8a1.247,1.247,0,0,1,1.368-1.17,3.123,3.123,0,0,1,1.728.594l.216-.054.2-1.17A5.248,5.248,0,0,0,142.776,59.63Zm13.536,4.752.108-9.018L155,55.49l.036,4.3a7.013,7.013,0,0,0-1.584-.18c-2.5,0-4,1.548-4,4.284,0,2.664,1.278,4.194,3.672,4.194a5.986,5.986,0,0,0,1.962-1.242h.126a1.327,1.327,0,0,0,1.26,1.26,2.592,2.592,0,0,0,1.026-.36l.126-.81-.144-.126a1.816,1.816,0,0,1-.612.108c-.378,0-.5-.18-.522-.684ZM153.27,60.62a4.2,4.2,0,0,1,1.764.45l.036,3.42-.036,1.3a2.556,2.556,0,0,1-1.98,1.1c-1.368,0-2.232-1.116-2.268-3.114C150.75,61.682,151.758,60.62,153.27,60.62Zm6.84,3.186,5.022-.018.306-.234c.018-.216.036-.63.036-.828,0-1.944-1.044-3.1-2.844-3.1-2.358,0-3.87,1.638-3.87,4.3,0,2.592,1.386,4.212,3.744,4.212a5.644,5.644,0,0,0,2.5-.666l.144-1.206-.162-.09a4.4,4.4,0,0,1-2.412.81c-1.656,0-2.466-1.188-2.466-3.132Zm2.394-3.168c.99,0,1.692.594,1.692,1.89l-.036.216-3.96.108A2.315,2.315,0,0,1,162.5,60.638Zm8.046-1.026c-2.268,0-3.654,1.674-3.654,4.32,0,2.61,1.332,4.212,3.51,4.212a5.84,5.84,0,0,0,2.2-.468l.162-1.206-.162-.09a4.043,4.043,0,0,1-2.016.612c-1.476,0-2.34-1.206-2.34-3.132,0-1.944.846-3.078,2.25-3.078a3.5,3.5,0,0,1,1.854.612l.162-.054.252-1.242A5.473,5.473,0,0,0,170.55,59.612Zm4.716-3.546a.794.794,0,0,0-.846.846.739.739,0,0,0,.792.828.8.8,0,0,0,.846-.882A.737.737,0,0,0,175.266,56.066Zm.558,8.316.108-4.662-1.422.126.072,4.662L174.492,68h1.422Zm5.22-4.752c-1.782,0-2.844,1.008-2.844,2.376,0,2.556,3.762,2.214,3.762,3.87a1.353,1.353,0,0,1-1.494,1.242,3.542,3.542,0,0,1-2.2-.9l-.162.108-.18,1.224a5.288,5.288,0,0,0,2.394.594,2.626,2.626,0,0,0,2.934-2.52c0-2.484-3.744-2.142-3.744-3.8a1.247,1.247,0,0,1,1.368-1.17,3.123,3.123,0,0,1,1.728.594l.216-.054.2-1.17A5.248,5.248,0,0,0,181.044,59.63Zm10.224-3.186-.432-.45h-.144c-.468.45-.756.828-1.026.828-.45,0-2.034-.558-2.79-.648l-.18.054-1.1,1.242V57.6l.432.468h.162c.45-.45.738-.846,1.008-.846.468,0,2.052.594,2.79.666l.18-.054,1.1-1.242Zm-2.754,3.168c-2.376,0-3.744,1.6-3.744,4.374,0,2.646,1.3,4.158,3.546,4.158,2.376,0,3.744-1.6,3.744-4.374C192.06,61.124,190.764,59.612,188.514,59.612Zm-.072,1.008c1.476,0,2.286,1.188,2.286,3.474,0,2.016-.81,3.024-2.322,3.024-1.476,0-2.286-1.134-2.286-3.456C186.12,61.682,186.93,60.62,188.442,60.62Zm6.516,3.186,5.022-.018.306-.234c.018-.216.036-.63.036-.828,0-1.944-1.044-3.1-2.844-3.1-2.358,0-3.87,1.638-3.87,4.3,0,2.592,1.386,4.212,3.744,4.212a5.644,5.644,0,0,0,2.5-.666L200,66.272l-.162-.09a4.4,4.4,0,0,1-2.412.81c-1.656,0-2.466-1.188-2.466-3.132Zm2.394-3.168c.99,0,1.692.594,1.692,1.89l-.036.216-3.96.108A2.315,2.315,0,0,1,197.352,60.638Zm7.326-1.008c-1.782,0-2.844,1.008-2.844,2.376,0,2.556,3.762,2.214,3.762,3.87a1.353,1.353,0,0,1-1.494,1.242,3.542,3.542,0,0,1-2.2-.9l-.162.108-.18,1.224a5.288,5.288,0,0,0,2.394.594,2.626,2.626,0,0,0,2.934-2.52c0-2.484-3.744-2.142-3.744-3.8a1.247,1.247,0,0,1,1.368-1.17,3.123,3.123,0,0,1,1.728.594l.216-.054.2-1.17A5.248,5.248,0,0,0,204.678,59.63ZM7.6,90.382,7.7,81.364l-1.422.126.036,4.3a7.013,7.013,0,0,0-1.584-.18c-2.5,0-4,1.548-4,4.284,0,2.664,1.278,4.194,3.672,4.194a5.986,5.986,0,0,0,1.962-1.242H6.5a1.327,1.327,0,0,0,1.26,1.26,2.592,2.592,0,0,0,1.026-.36l.126-.81-.144-.126a1.816,1.816,0,0,1-.612.108c-.378,0-.5-.18-.522-.684ZM4.554,86.62a4.2,4.2,0,0,1,1.764.45l.036,3.42-.036,1.3a2.556,2.556,0,0,1-1.98,1.1c-1.368,0-2.232-1.116-2.268-3.114C2.034,87.682,3.042,86.62,4.554,86.62Zm6.84,3.186,5.022-.018.306-.234c.018-.216.036-.63.036-.828,0-1.944-1.044-3.1-2.844-3.1-2.358,0-3.87,1.638-3.87,4.3,0,2.592,1.386,4.212,3.744,4.212a5.644,5.644,0,0,0,2.5-.666l.144-1.206-.162-.09a4.4,4.4,0,0,1-2.412.81c-1.656,0-2.466-1.188-2.466-3.132Zm2.394-3.168c.99,0,1.692.594,1.692,1.89l-.036.216-3.96.108A2.315,2.315,0,0,1,13.788,86.638ZM26.928,94h1.44L28.3,90.418l.036-2.34c.018-1.548-.918-2.43-2.754-2.43a5.666,5.666,0,0,0-2.286,1.278h-.108L23.2,85.72l-1.368.126.072,4.662L21.816,94h1.422l-.072-3.618.018-2.268a3.569,3.569,0,0,1,2.43-1.278c.954,0,1.422.612,1.4,1.566Zm4.842-4.194,5.022-.018.306-.234c.018-.216.036-.63.036-.828,0-1.944-1.044-3.1-2.844-3.1-2.358,0-3.87,1.638-3.87,4.3,0,2.592,1.386,4.212,3.744,4.212a5.644,5.644,0,0,0,2.5-.666l.144-1.206-.162-.09a4.4,4.4,0,0,1-2.412.81c-1.656,0-2.466-1.188-2.466-3.132Zm2.394-3.168c.99,0,1.692.594,1.692,1.89l-.036.216-3.96.108A2.315,2.315,0,0,1,34.164,86.638ZM46.35,85.486l-.144-.108c-.846.234-1.746.45-2.61.612a3.715,3.715,0,0,0-1.62-.324c-1.926,0-3.2,1.062-3.2,2.88a2.551,2.551,0,0,0,1.17,2.3v.072a3.547,3.547,0,0,0-1.1,1.1c0,.81.576,1.206,1.35,1.44v.09a3.9,3.9,0,0,0-1.584,1.566c0,1.35,1.062,2.358,3.042,2.358,2.16,0,3.87-1.206,3.87-2.736,0-2.646-5.346-1.548-5.346-2.88,0-.234.126-.4.522-.7a4.2,4.2,0,0,0,1.116.144c2.016,0,3.24-1.134,3.24-2.862a2.809,2.809,0,0,0-.4-1.53l.036-.072a14.88,14.88,0,0,0,1.656-.378Zm-4.464,4.842a1.676,1.676,0,0,1-1.836-1.836,1.716,1.716,0,0,1,1.908-1.872,1.637,1.637,0,0,1,1.818,1.8A1.738,1.738,0,0,1,41.886,90.328Zm2.376,4.68c0,.828-1.062,1.458-2.448,1.458-1.278,0-1.944-.54-1.944-1.206,0-.576.522-1.062,1.386-1.584C42.7,93.91,44.262,93.982,44.262,95.008Zm8.316-13.536-.162-.018c-1.008.99-1.962,1.8-2.952,2.61l.4.576.162.018c1.026-.72,2-1.458,3.06-2.286l.036-.144Zm-1.71,4.14c-2.376,0-3.744,1.6-3.744,4.374,0,2.646,1.3,4.158,3.546,4.158,2.376,0,3.744-1.6,3.744-4.374C54.414,87.124,53.118,85.612,50.868,85.612ZM50.8,86.62c1.476,0,2.286,1.188,2.286,3.474,0,2.016-.81,3.024-2.322,3.024-1.476,0-2.286-1.134-2.286-3.456C48.474,87.682,49.284,86.62,50.8,86.62Zm8.82-1.008c-2.268,0-3.654,1.674-3.654,4.32,0,2.61,1.332,4.212,3.51,4.212a5.84,5.84,0,0,0,2.2-.468l.162-1.206-.162-.09a4.043,4.043,0,0,1-2.016.612c-1.476,0-2.34-1.206-2.34-3.132,0-1.944.846-3.078,2.25-3.078a3.5,3.5,0,0,1,1.854.612l.162-.054L61.83,86.1A5.473,5.473,0,0,0,59.616,85.612Zm4.716-3.546a.794.794,0,0,0-.846.846.739.739,0,0,0,.792.828.8.8,0,0,0,.846-.882A.737.737,0,0,0,64.332,82.066Zm.558,8.316L65,85.72l-1.422.126.072,4.662L63.558,94H64.98Zm6.048-4.77c-2.394,0-3.762,1.6-3.762,4.374,0,2.646,1.3,4.158,3.546,4.158,2.394,0,3.744-1.6,3.744-4.374C74.466,87.124,73.17,85.612,70.938,85.612Zm-.09,1.008c1.476,0,2.286,1.188,2.286,3.474,0,2.016-.81,3.024-2.322,3.024-1.476,0-2.286-1.134-2.286-3.456C68.526,87.682,69.336,86.62,70.848,86.62Zm8.1-.99c-1.782,0-2.844,1.008-2.844,2.376,0,2.556,3.762,2.214,3.762,3.87a1.353,1.353,0,0,1-1.494,1.242,3.542,3.542,0,0,1-2.2-.9l-.162.108-.18,1.224a5.288,5.288,0,0,0,2.394.594,2.626,2.626,0,0,0,2.934-2.52c0-2.484-3.744-2.142-3.744-3.8a1.247,1.247,0,0,1,1.368-1.17,3.123,3.123,0,0,1,1.728.594l.216-.054.2-1.17A5.248,5.248,0,0,0,78.948,85.63ZM83.7,92.416a.794.794,0,0,0-.846.846.739.739,0,0,0,.792.828.8.8,0,0,0,.846-.864A.742.742,0,0,0,83.7,92.416Z" transform="translate(97.112 1305.447)" fill="#fff"/>
    <g id="Grupo_234060" data-name="Grupo 234060" transform="translate(-749.441 -2869.086)">
      <path id="Caminho_770289" data-name="Caminho 770289" d="M262.378,353.638a54.542,54.542,0,0,1-8.5-31.663,35.148,35.148,0,0,1,1.089-6.861c.148-.562-.525-1.152-.94-.6-4.383,5.824-10.818,5.636-17.365,4.379-6.448-1.234-13.365-2-19.6-4.168.053-.932.111-1.863.181-2.8.055-.715-1.052-.912-1.108-.191-.068.923-.126,1.849-.177,2.775a.538.538,0,0,0-.052.995c-.067,1.346-.122,2.688-.167,4.038,0,.056,0,.114-.008.176-.119,3.561-.176,7.127-.29,10.689a31.19,31.19,0,0,1-1.026,7.094,24.64,24.64,0,0,1-3.969,8.411c-3.332,4.495-8.3,7.321-12.2,11.249a.569.569,0,0,0,.192.872,67.779,67.779,0,0,0,15.473,6.535c5.844,1.791,11.3,3.625,17.432,2.265,2.841-.633,5.609-1.535,8.505-1.89,2.825-.339,5.614-.536,8.407-1.154a47.441,47.441,0,0,0,8.449-2.755q1.737-.1,3.44-.335c1.385-.194,3.924-.531,4.482-2.077.606-1.658-1.405-3.682-2.253-4.986" transform="translate(647.739 4077.383)" fill="#ffa694"/>
      <path id="Caminho_770290" data-name="Caminho 770290" d="M251.768,65.434c-.281.67-1.3.186-1.018-.478.294-.714.594-1.426.884-2.146-1.847,1.38-5.323,1.43-7.171,2.388-2.093,1.087-2.778,3.073-4.355,4.643a23.415,23.415,0,0,1-4.9,3.356,49,49,0,0,1-39.751,3.853c-2.75-.949-5.618-2.209-7.528-4.489a8.067,8.067,0,0,1-1.745-4,34.5,34.5,0,0,1-.321-4.019,7.268,7.268,0,0,0-2.61-5.658,5.994,5.994,0,0,1-1.932-2.353,9.059,9.059,0,0,1-.17-4.695,15.706,15.706,0,0,1-1.778-1.887c-2.03-2.541-2.836-5.5-1.743-9.552a24.408,24.408,0,0,1,3.023-7.428c.975-1.417,2.4-2.311,2.92-3.927.607-1.863.066-4.112-.015-6.054-.259-5.794,1.223-10.91,6.55-13.879a17.472,17.472,0,0,1,8.442-2.083c2.026-2.217,19.768-5.6,45.672,9.843,3.249.145,4.146-.543,7.837,1.476,2.97,1.556,4.282,5.913,4.269,7.639.968,9.287.031,19.036,0,22.749-.162,11.335-2.351,11.394-4.557,16.7" transform="translate(662.488 4294.604)" fill="#9b9b9b"/>
      <path id="Caminho_770291" data-name="Caminho 770291" d="M206.724,151.826c-.9.517-1.841,1.051-2.807,1.523-.249.122-.5.244-.763.359-.125.064-.254.116-.383.168-.259.109-.516.213-.784.309-.134.051-.262.1-.394.137-.339.113-.681.213-1.032.3a3.035,3.035,0,0,1-.3.068c-.3.062-.6.118-.91.151l-.3.034-.311.015c-.19.012-.373.015-.561.011-.227-.005-.454-.016-.684-.038a4.679,4.679,0,0,1-.554-.1.956.956,0,0,1-.169-.046.312.312,0,0,1-.1-.028.678.678,0,0,1-.1-.029c-1.2-.384-2.317-1.182-3.488-1.6a3.972,3.972,0,0,0-1.706-.261c-1.93.18-2.882,2.223-4.878,2.419a4.123,4.123,0,0,1-1.849-.228,15.728,15.728,0,0,0,1.778,1.887,9.067,9.067,0,0,0,.17,4.695,6,6,0,0,0,1.932,2.353,7.022,7.022,0,0,1,2.52,4.69c.043.31.074.629.089.968a34.423,34.423,0,0,0,.321,4.019c.251-.036.5-.085.755-.143a14.011,14.011,0,0,0,2.848-.968,10.818,10.818,0,0,0,1.081-.578c.1-.068.2-.13.3-.193a10.429,10.429,0,0,0,3.169-3.325,15.471,15.471,0,0,0,1.338-2.826c.2-.542.381-1.081.568-1.6.391-1.107.782-2.18,1.258-3.222a15.392,15.392,0,0,1,1.892-3.158c1.3-1.663,2.55-3.073,2.924-5.2a.572.572,0,0,0-.879-.557" transform="translate(657.2 4189.568)" fill="#9b9b9b"/>
      <path id="Caminho_770292" data-name="Caminho 770292" d="M249.838,177.788c9.737,2.4,18.432-3.136,23.573-11.658,2.338-3.875,5.611-9.683,6.685-14.08a195.381,195.381,0,0,0,3.838-24.336q.819-7.186,1.614-14.375c.248-2.239.484-4.571-.274-6.692-.858-2.4-2.86-4.182-4.786-5.854a40.123,40.123,0,0,0-7.756-5.712c-5.654-2.9-12.316-2.954-18.653-2.486-7.239.534-14.652,1.74-20.849,5.518a17.873,17.873,0,0,0-7.572,8.293,25.547,25.547,0,0,0-1.319,8.533c-.412,10.989-.512,22.128,2.067,32.818,2.7,11.2,9.112,24.057,20.192,28.926a19.5,19.5,0,0,0,3.239,1.106" transform="translate(629.452 4231.316)" fill="#ffa694"/>
      <path id="Caminho_770293" data-name="Caminho 770293" d="M414.3,205.053c-.605-1.171-1.7-2.872-3.085-3.277a1.964,1.964,0,0,0-.359-.077c-.067-.008-.14-.011-.208-.014a2.374,2.374,0,0,0-.619.067,1.786,1.786,0,0,0-.228.057,4.85,4.85,0,0,0-1.247.624,21.112,21.112,0,0,0-3.756,3.763c-.473.543.457,1.182.925.638.047-.056.1-.118.151-.174a37.471,37.471,0,0,0-1.655,4.085c-.122.353-.234.714-.339,1.074a34.1,34.1,0,0,0-1.487,10.933c.1,3.6,2.845,2.642,5.319.96a23.164,23.164,0,0,0,3.553-3.023c3.318-3.607,5.388-11.078,3.036-15.637" transform="translate(504.104 4154.452)" fill="#ffa694"/>
      <path id="Caminho_770294" data-name="Caminho 770294" d="M212.106,213.331a35.868,35.868,0,0,0-.9-11.192c.034.069.078.139.113.2.342.63,1.385.2,1.038-.431-.317-.574-.74-1.394-1.241-2.228a10.862,10.862,0,0,0-2.1-2.651,3.488,3.488,0,0,0-1.139-.67,2.084,2.084,0,0,0-.517-.112,1.908,1.908,0,0,0-.405,0c-1.426.13-2.829,1.553-3.654,2.562a7.72,7.72,0,0,0-.747,1.086c-2.41,4.175-1.818,10.984.47,14.841,1.059,1.791,4.922,6.9,7.071,5.785a2.7,2.7,0,0,0,1.177-1.924,33.831,33.831,0,0,0,.837-5.273" transform="translate(645.706 4158.279)" fill="#ffa694"/>
      <path id="Caminho_770295" data-name="Caminho 770295" d="M371.754,211.621a10.829,10.829,0,0,0,.313-3.379,3.072,3.072,0,0,0-.575-1.519c-1-1.224-2.389-.2-2.776.92-.5,1.453-.71,4.691.618,5.554,1.376.893,2.04-.128,2.419-1.576" transform="translate(526.938 4151.298)"/>
      <path id="Caminho_770296" data-name="Caminho 770296" d="M272.914,209.681a10.574,10.574,0,0,0,.048-3.316,3,3,0,0,0-.676-1.436c-1.07-1.117-2.343-.011-2.634,1.108-.378,1.453-.335,4.624,1.025,5.364,1.408.766,1.978-.28,2.237-1.72" transform="translate(598.681 4152.496)"/>
      <path id="Caminho_770300" data-name="Caminho 770300" d="M253.43,173.322a14.479,14.479,0,0,0-6.722.7,17.434,17.434,0,0,0-3.364,1.545c-.063.04-.141.082-.232.138-.786.459-2.411,1.414-2.23,2.249.052.228.295.356.515.435.2.075.394.134.593.189a9.658,9.658,0,0,0,3.567.194c2.795-.31,5.423-1.036,8.247-.813,1.354.112,4.359.438,4.522-1.563.181-2.2-3.326-2.853-4.9-3.074" transform="translate(619.839 4174.831)" fill="#9b9b9b"/>
      <path id="Caminho_770301" data-name="Caminho 770301" d="M357.465,172.769a12.818,12.818,0,0,0-5.954-.539c-1.381.211-4.473.832-4.291,2.77.214,2.222,4.454,1.152,5.683,1.2,1.9.072,3.749.576,5.632.762,1.079.106,3.14.381,3.95-.563,1.042-1.214-4.2-3.356-5.02-3.628" transform="translate(543.857 4175.931)" fill="#9b9b9b"/>
      <path id="Caminho_770302" data-name="Caminho 770302" d="M278.969,101.5a25.04,25.04,0,0,0-2.438-12.661,32.024,32.024,0,0,0-12.867-12.969c-.547-.3-1.1-.583-1.656-.845a25.4,25.4,0,0,0-6.948-2.136,19.358,19.358,0,0,0-4.95-.068c-.687.081-1.378.184-2.056.312a54.526,54.526,0,0,0-7.113,2.022,115.647,115.647,0,0,0-15.029,6.272c-2.111,1.061-4.466,2.08-6.2,3.72-1.713,1.626-2.84,3.924-3.984,5.961-1.089,1.945-2.51,4.095-2.924,6.362a8.129,8.129,0,0,0-.1.826c-.191,2.785,2.832,5.161,2.243,7.779a.469.469,0,0,0-.346.551,11.656,11.656,0,0,0,.574,2.751,1.691,1.691,0,0,0,.917,1.031.02.02,0,0,0,.016.008,1.046,1.046,0,0,0,1.129-.261,4.421,4.421,0,0,0,.923-1.746,33.8,33.8,0,0,0,1.234-8.33c0-.028,0-.056.009-.084,1.443-.2,7.4-12.417,8.125-13.062.224-.207,21.128-4.06,25.825-5.077,3.3.718,6.768,2.652,9.745,3.942a96.681,96.681,0,0,1,10.3,5.174.494.494,0,0,0,.238.075l-.067,17.355c0,.786-.135,3.553.591,4.933a1.579,1.579,0,0,0,.52.62c.307.2,3.061-3.423,3.275-4.4a45.091,45.091,0,0,0,1.016-8.06" transform="translate(637.485 4245.153)" fill="#9b9b9b"/>
      <path id="Caminho_770320" data-name="Caminho 770320" d="M286.363,347.4c-.793-.194-2.44.579-3.231.865a16.778,16.778,0,0,1-4.734,1.321,38.636,38.636,0,0,1-9.052.1c-5.931-1-10.488-5.217-14.494-9.463-.164-.171-.329-.342-.486-.518-.119,3.561-.177,7.127-.29,10.689a31.194,31.194,0,0,1-1.026,7.095c.343,0,.687-.013,1.015,0,14.919,2.047,26.55-3.858,31.217-8.431a.109.109,0,0,0,.018-.037c.215-.356,1.489-1.514,1.063-1.621" transform="translate(609.107 4057.398)"/>
      <path id="Caminho_770321" data-name="Caminho 770321" d="M311.171,305.3a22.945,22.945,0,0,0-2.913.068c-1.988.059-3.977.119-5.966.165-1.636.038-3.273.069-4.91.076-1.448.007-4.757-.257-4.85-.228-.4.127.8,1.51.993,1.7a15.671,15.671,0,0,0,2.615,2.11c3.583,2.236,8.015,1.71,11.653-.039a8.967,8.967,0,0,0,2.562-1.776c.188-.194,1.6-2,.816-2.078" transform="translate(581.401 4081.613)" fill="#fff" stroke="#000" stroke-width="1"/>
      <path id="Caminho_770322" data-name="Caminho 770322" d="M221.82,398.552s5.615-9.113,6.689-9.426,22.771,21.665,22.771,21.665,22.086-22.6,24.157-21.442,6.783,13.173,6.783,13.173S251.746,446.084,251.281,446s-22-20.405-22.771-21.736-8.861-21.746-8.861-21.746" transform="translate(631.589 4022.648)" fill="#fff"/>
      <path id="Caminho_770330" data-name="Caminho 770330" d="M271.141,401.359c2.071,1.156,10.865,6.637,10.865,6.637l-23.764,33.485-7.176-20.059c-.174-.03-7.369,20.232-7.194,20.059-6.344-9.078-24.7-34.922-24.7-34.922l11.863-5.2" transform="translate(631.804 4011.988)" fill="none" stroke="#000" stroke-width="1"/>
      <rect id="Retângulo_124886" data-name="Retângulo 124886" width="197.23" height="184.601" transform="translate(787.049 4296.273)" fill="none"/>
      <path id="Caminho_770329" data-name="Caminho 770329" d="M5.109,6.935a5.654,5.654,0,0,1-2.335.381C1.56,7.265,1.309,6.2,1.223,5.183A40.2,40.2,0,0,1,1.145.539C1.168-.18.05-.179.028.539-.018,2-.013,3.455.086,4.91a5.527,5.527,0,0,0,.5,2.413c.92,1.6,3.373,1.253,4.818.69.663-.258.375-1.339-.3-1.077" transform="translate(883.178 4366.303) rotate(19)"/>
      <g id="Grupo_233478" data-name="Grupo 233478" transform="translate(765.441 4418.898)">
        <g id="Grupo_233477" data-name="Grupo 233477" clip-path="url(#clip-path)">
          <rect id="Retângulo_124887" data-name="Retângulo 124887" width="235.776" height="79.294" transform="translate(0 0)" fill="url(#linear-gradient)"/>
        </g>
      </g>
      <path id="Caminho_770334" data-name="Caminho 770334" d="M335.182,205.973A137.71,137.71,0,0,1,347.918,232.6a177.866,177.866,0,0,1,4.84,17.553c.337,1.406.674,2.817,1.017,4.223a.287.287,0,0,0,.28.217.274.274,0,0,0,.069-.006.292.292,0,0,0,.211-.349c-.349-1.406-.685-2.811-1.023-4.222a178.687,178.687,0,0,0-4.851-17.6,138.951,138.951,0,0,0-12.9-26.912c-.131.154-.257.314-.377.474" transform="translate(462.563 4242.101)"/>
      <path id="Caminho_770333" data-name="Caminho 770333" d="M354.379,205.974a137.978,137.978,0,0,0-12.761,26.678,178.209,178.209,0,0,0-4.849,17.587c-.338,1.408-.675,2.822-1.019,4.231a.287.287,0,0,1-.28.218.276.276,0,0,1-.069-.006.293.293,0,0,1-.212-.349c.349-1.408.687-2.817,1.025-4.23a179.02,179.02,0,0,1,4.861-17.639A139.221,139.221,0,0,1,354,205.5c.132.154.258.315.378.475" transform="translate(611.512 4243.504)"/>
      <g id="Grupo_233995" data-name="Grupo 233995" transform="translate(768.691 4268.333) rotate(-31)">
        <g id="Grupo_233994" data-name="Grupo 233994" clip-path="url(#clip-path-2)">
          <path id="Caminho_770518" data-name="Caminho 770518" d="M17.668,8.834A8.834,8.834,0,1,1,8.834,0a8.834,8.834,0,0,1,8.834,8.834" transform="translate(20.518 56.154)" fill="#0e1126"/>
          <path id="Caminho_770519" data-name="Caminho 770519" d="M38.2,19.1A19.1,19.1,0,1,1,19.1,0,19.1,19.1,0,0,1,38.2,19.1" transform="translate(10.262 11.7)" fill="#f5c750"/>
          <path id="Caminho_770520" data-name="Caminho 770520" d="M0,0C3.138,4.03,5.881,7.935,5.881,14.3h8.846V0Z" transform="translate(14.637 42.969)" fill="#f5c750"/>
          <path id="Caminho_770521" data-name="Caminho 770521" d="M14.728,0C11.59,4.03,8.846,7.935,8.846,14.3H0V0Z" transform="translate(29.364 42.969)" fill="#f5c750"/>
          <rect id="Retângulo_124924" data-name="Retângulo 124924" width="17.668" height="7.715" transform="translate(20.518 57.273)" fill="#0e1126"/>
          <path id="Caminho_770522" data-name="Caminho 770522" d="M16.124,34.138c-.046-3.844-.031-7.688-.021-11.532q.007-2.918.015-5.836c0-1.641-.032-3.286.069-4.925a13.067,13.067,0,0,1,1.2-5.219A5.231,5.231,0,0,1,21.3,3.672,3.226,3.226,0,0,1,24.731,5.51,3.714,3.714,0,0,1,24.742,7.9a8.208,8.208,0,0,1-1.09,2.361c-1.98,2.946-5.675,4.215-9.1,4.258a20.2,20.2,0,0,1-6.236-1,11.355,11.355,0,0,1-5.366-3.377,8.687,8.687,0,0,1-2.3-5.475A3.991,3.991,0,0,1,2.96.942a4.349,4.349,0,0,1,4.234.729,8.118,8.118,0,0,1,2.79,4.941,24.812,24.812,0,0,1,.219,5.844c-.079,1.863-.1,3.722-.1,5.587-.009,4.162,0,8.324.01,12.486q0,1.293,0,2.585a.334.334,0,0,0,.667,0c0-4.245-.016-8.49-.014-12.735,0-1.977-.025-3.958.026-5.934a60.655,60.655,0,0,0,.077-6.161,10.709,10.709,0,0,0-1.9-5.723A5.9,5.9,0,0,0,4.446,0,4.3,4.3,0,0,0,.6,2.247a6.409,6.409,0,0,0,.167,5.7,11.087,11.087,0,0,0,4.18,4.788,18.024,18.024,0,0,0,6.79,2.232c3.711.572,7.775.012,10.748-2.441A8.912,8.912,0,0,0,25.406,8a4.35,4.35,0,0,0,0-2.586,3.548,3.548,0,0,0-1.379-1.773,4.584,4.584,0,0,0-4.72-.006,7.149,7.149,0,0,0-3.188,4.4,20.92,20.92,0,0,0-.66,5.606c-.021,1.772-.008,3.544-.012,5.316-.011,4.209-.029,8.418-.008,12.627q.006,1.275.02,2.549a.334.334,0,0,0,.667,0" transform="translate(17.202 25.981)" fill="#0e1126"/>
          <path id="Caminho_770523" data-name="Caminho 770523" d="M.5,3.869,8.2.615a.336.336,0,0,0,.12-.456A.342.342,0,0,0,7.86.039L.162,3.294a.336.336,0,0,0-.12.456.342.342,0,0,0,.456.12" transform="translate(51.631 21.417)" fill="#0e1126"/>
          <path id="Caminho_770524" data-name="Caminho 770524" d="M.624,8.073,5.081.5A.334.334,0,0,0,4.505.161L.048,7.736a.334.334,0,0,0,.576.337" transform="translate(43.317 4.447)" fill="#0e1126"/>
          <path id="Caminho_770525" data-name="Caminho 770525" d="M5.081,7.736.624.161A.334.334,0,0,0,.049.5L4.505,8.073a.334.334,0,0,0,.576-.337" transform="translate(11.552 4.447)" fill="#0e1126"/>
          <path id="Caminho_770526" data-name="Caminho 770526" d="M8.2,3.293.5.038a.346.346,0,0,0-.456.12.336.336,0,0,0,.12.457l7.7,3.255a.345.345,0,0,0,.456-.12.336.336,0,0,0-.12-.456" transform="translate(0 21.418)" fill="#0e1126"/>
          <path id="Caminho_770527" data-name="Caminho 770527" d="M0,.322V8.067a.334.334,0,0,0,.667,0V.322A.334.334,0,0,0,0,.322" transform="translate(29.661 0)" fill="#0e1126"/>
          <path id="Caminho_770528" data-name="Caminho 770528" d="M.413,4.95,12.727,1.614,16.261.656a.334.334,0,0,0-.177-.643L3.77,3.35.236,4.307a.334.334,0,0,0,.177.643" transform="translate(21.676 64.62)" fill="#e5e3f2"/>
          <path id="Caminho_770529" data-name="Caminho 770529" d="M.413,5.257,13.655,1.669,17.392.657a.334.334,0,0,0-.177-.643L3.973,3.6.236,4.613a.334.334,0,0,0,.177.643" transform="translate(20.545 59.027)" fill="#e5e3f2"/>
        </g>
      </g>
    </g>
  </g>
</svg>
