<svg xmlns="http://www.w3.org/2000/svg" width="298.79" height="505.5" viewBox="0 0 298.79 505.5">
  <g id="_img_Grafico_6-mob_" data-name="&lt;img Grafico_6-mob&gt;" transform="translate(-30.605 -70.5)">
    <path id="Caminho_770396" data-name="Caminho 770396" d="M146.314.02V147.365H0A149.4,149.4,0,0,1,146.314.02" transform="translate(30.605 136.393)" fill="#40bbff"/>
    <path id="Caminho_770394" data-name="Caminho 770394" d="M298.763,128.5A149.4,149.4,0,0,1,.01,128.5Z" transform="translate(30.632 160.103)" fill="#0024a9"/>
    <path id="Caminho_770395" data-name="Caminho 770395" d="M275.229,147.369H127.6V0A149.4,149.4,0,0,1,275.229,147.369" transform="translate(54.153 136.39)" fill="#3b4aff"/>
    <rect id="Retângulo_124915" data-name="Retângulo 124915" width="298.777" height="298.789" transform="translate(30.605 126)" fill="none"/>
    <path id="Caminho_771847" data-name="Caminho 771847" d="M8.14-4.906,3.828-15.4H.4L6.82,0H9.46l6.424-15.4H12.452ZM21.406-2.112A2.844,2.844,0,0,1,18.48-4.224l6.6-.77a5.685,5.685,0,0,0,.286-1.8c0-2.728-1.98-4.312-4.62-4.312-3.124,0-5.39,2.2-5.39,5.676A5.445,5.445,0,0,0,21.186.33,6.636,6.636,0,0,0,25.1-.88l-1.144-2A4.938,4.938,0,0,1,21.406-2.112Zm-.484-6.622c.968,0,1.672.506,1.672,1.452a1.7,1.7,0,0,1-.066.55l-4.18.506A2.638,2.638,0,0,1,20.922-8.734ZM34.716-11.11c-2.09,0-3.344,1.276-4.092,3.146l.264-2.816h-3.08V0h3.08c0-3.5.2-8.448,2.882-8.448,1.364,0,1.5,1.452,1.5,2.354V0h3.1V-6.952C38.368-9.548,37.026-11.11,34.716-11.11Zm13.772.132a8.474,8.474,0,0,0-1.518-.132c-4.356,0-6.226,3.168-6.226,6.424C40.744-1.738,42.262.33,44.77.33c2.024,0,3.278-1.452,4.048-3.41L48.488,0h3.1V-15.928h-3.1ZM45.716-2.156c-.99,0-1.76-.638-1.76-2.64,0-1.518.528-3.96,2.97-3.96a3.61,3.61,0,0,1,1.54.374C48.29-5.5,47.652-2.156,45.716-2.156ZM60.28-11.11c-4.356,0-6.226,3.168-6.226,6.424C54.054-1.738,55.572.33,58.08.33c2.024,0,3.278-1.43,4.048-3.388L61.8,0h3.1V-9.7A8.088,8.088,0,0,0,60.28-11.11ZM59.026-2.156c-.99,0-1.76-.638-1.76-2.64,0-1.518.528-3.96,2.97-3.96a3.61,3.61,0,0,1,1.54.374C61.6-5.5,60.962-2.156,59.026-2.156ZM71.632.33c2.662,0,4.6-1.144,4.6-3.63,0-3.828-5.566-2.706-5.566-4.4,0-.7.88-.9,1.694-.9a5.752,5.752,0,0,1,2.684.66L76.1-10.1A8.551,8.551,0,0,0,72.05-11.11c-2.222,0-4.488.924-4.488,3.388,0,4.026,5.588,2.86,5.588,4.642,0,.594-.594.924-1.672.924A6.735,6.735,0,0,1,68.134-3.1L67.012-.858A9.414,9.414,0,0,0,71.632.33ZM91.366-11.11c-2.046,0-3.322,1.474-4.07,3.454l.33-3.124h-3.08V4.708h3.08V.2a8.724,8.724,0,0,0,1.54.132c4.356,0,6.226-3.168,6.226-6.424C95.392-9.042,93.874-11.11,91.366-11.11ZM89.21-2.024A3.631,3.631,0,0,1,87.648-2.4c.176-2.882.814-6.248,2.772-6.248.968,0,1.76.66,1.76,2.64C92.18-4.466,91.63-2.024,89.21-2.024ZM102.872.33A5.441,5.441,0,0,0,108.5-5.39a5.429,5.429,0,0,0-5.632-5.72,5.434,5.434,0,0,0-5.654,5.72A5.446,5.446,0,0,0,102.872.33Zm0-2.508c-1.628,0-2.464-1.5-2.464-3.212s.836-3.212,2.464-3.212c1.606,0,2.442,1.5,2.442,3.212S104.478-2.178,102.872-2.178Zm14.85-8.932c-2.376,0-3.564,1.76-4.18,4.114l.374-3.784h-3.08V0h3.08c0-3.564.22-7.92,3.146-7.92a3.491,3.491,0,0,1,1.1.2l.814-3.212A4.544,4.544,0,0,0,117.722-11.11Zm16.434,8.69c-2.86,0-4.576-2.266-4.576-5.28s1.716-5.28,4.576-5.28a5.252,5.252,0,0,1,3.058.968l1.43-2.244a7.963,7.963,0,0,0-4.73-1.474c-4.818,0-7.7,3.41-7.7,8.03,0,4.642,2.882,8.03,7.7,8.03a7.912,7.912,0,0,0,4.73-1.474l-1.43-2.244A5.4,5.4,0,0,1,134.156-2.42Zm12.452-8.69c-4.356,0-6.226,3.168-6.226,6.424,0,2.948,1.518,5.016,4.026,5.016,2.024,0,3.278-1.43,4.048-3.388L148.126,0h3.1V-9.7A8.088,8.088,0,0,0,146.608-11.11Zm-1.254,8.954c-.99,0-1.76-.638-1.76-2.64,0-1.518.528-3.96,2.97-3.96a3.61,3.61,0,0,1,1.54.374C147.928-5.5,147.29-2.156,145.354-2.156ZM159.368.33a7.084,7.084,0,0,0,2.464-.462l-.638-2.42a3.145,3.145,0,0,1-1.1.22c-1.144,0-1.694-.682-1.694-2.046v-3.96h3.014V-10.78H158.4v-3.366h-2.046l-.22,1.188c-.33,1.738-.506,2.178-2.486,2.178h-.33v2.442h2V-3.85C155.32-1.276,156.684.33,159.368.33ZM169.2-2.112a2.844,2.844,0,0,1-2.926-2.112l6.6-.77a5.685,5.685,0,0,0,.286-1.8c0-2.728-1.98-4.312-4.62-4.312-3.124,0-5.39,2.2-5.39,5.676A5.445,5.445,0,0,0,168.982.33,6.636,6.636,0,0,0,172.9-.88l-1.144-2A4.938,4.938,0,0,1,169.2-2.112Zm-.484-6.622c.968,0,1.672.506,1.672,1.452a1.7,1.7,0,0,1-.066.55l-4.18.506A2.638,2.638,0,0,1,168.718-8.734Zm12.606-2.376c-4.356,0-6.226,3.168-6.226,6.424,0,2.948,1.518,5.016,4.026,5.016,1.98,0,3.234-1.386,4-3.3V-.924c0,2.31-1.232,3.41-3.146,3.41a5.462,5.462,0,0,1-2.948-.9l-1.364,2.2a7.954,7.954,0,0,0,4.378,1.254c3.388,0,5.9-2.112,5.9-5.962V-9.7A8.088,8.088,0,0,0,181.324-11.11ZM180.07-2.156c-.99,0-1.76-.638-1.76-2.64,0-1.518.528-3.96,2.97-3.96a3.317,3.317,0,0,1,1.54.374C182.644-5.5,182.028-2.156,180.07-2.156ZM193.952.33a5.441,5.441,0,0,0,5.632-5.72,5.429,5.429,0,0,0-5.632-5.72A5.434,5.434,0,0,0,188.3-5.39,5.446,5.446,0,0,0,193.952.33Zm0-2.508c-1.628,0-2.464-1.5-2.464-3.212s.836-3.212,2.464-3.212c1.606,0,2.442,1.5,2.442,3.212S195.558-2.178,193.952-2.178ZM208.8-11.11c-2.376,0-3.564,1.76-4.18,4.114L205-10.78h-3.08V0H205c0-3.564.22-7.92,3.146-7.92a3.491,3.491,0,0,1,1.1.2l.814-3.212A4.544,4.544,0,0,0,208.8-11.11Zm4.664-1.188a2.016,2.016,0,0,0,2.068-2.09,2.022,2.022,0,0,0-2.068-2.112,2.027,2.027,0,0,0-2.09,2.112A2.021,2.021,0,0,0,213.466-12.3ZM215.006,0V-10.78h-3.08V0Zm8.778-11.11c-4.356,0-6.226,3.168-6.226,6.424,0,2.948,1.518,5.016,4.026,5.016,2.024,0,3.278-1.43,4.048-3.388L225.3,0h3.1V-9.7A8.088,8.088,0,0,0,223.784-11.11ZM222.53-2.156c-.99,0-1.76-.638-1.76-2.64,0-1.518.528-3.96,2.97-3.96a3.61,3.61,0,0,1,1.54.374C225.1-5.5,224.466-2.156,222.53-2.156Z" transform="translate(65 87)"/>
    <path id="Caminho_771848" data-name="Caminho 771848" d="M5.886-11.682C2.538-11.682.612-9.522.612-5.67.612-1.944,2.43.144,5.67.144A6.691,6.691,0,0,0,8.73-.612L8.874-2.3l-.18-.108a4.847,4.847,0,0,1-2.88.99c-2.07,0-3.258-1.512-3.258-4.446,0-2.844,1.152-4.266,3.258-4.266A4.278,4.278,0,0,1,8.478-9.2l.18-.054L9-10.89A6.1,6.1,0,0,0,5.886-11.682ZM13.608-8.46a5.768,5.768,0,0,0-3.24,1.08L10.6-6.1l.144.09A4.1,4.1,0,0,1,13.32-7.164a1.185,1.185,0,0,1,1.3,1.35l-.018.972-2.844.63a1.918,1.918,0,0,0-1.746,2c0,1.44.99,2.34,2.664,2.358a5.271,5.271,0,0,0,1.872-1.35h.126A1.4,1.4,0,0,0,15.984.126a2.933,2.933,0,0,0,1.134-.4l.18-1.008L17.136-1.4a2.753,2.753,0,0,1-.54.072c-.378,0-.522-.144-.522-.612,0-.612.216-3.636.216-4.266C16.29-7.632,15.246-8.46,13.608-8.46Zm.99,4.68-.054,1.386a2.542,2.542,0,0,1-1.8,1.1,1.037,1.037,0,0,1-1.1-1.152.664.664,0,0,1,.612-.774ZM29.214,0h1.854l-.09-3.636.054-2.34c.018-1.548-.936-2.43-2.79-2.43a6.528,6.528,0,0,0-2.376,1.35h-.108a2.527,2.527,0,0,0-2.592-1.35,5.977,5.977,0,0,0-2.214,1.278h-.126l.018-1.206L19.1-8.172l.09,4.7L19.08,0H20.9l-.09-3.636.018-2.2a3.229,3.229,0,0,1,2.16-1.08c.864,0,1.3.558,1.278,1.458L24.138,0h1.836L25.9-3.636l.036-2.232a3.174,3.174,0,0,1,2.124-1.044c.864,0,1.3.558,1.278,1.458Zm5.238-12.168a.973.973,0,0,0-1.044,1.044.914.914,0,0,0,.99,1.008.97.97,0,0,0,1.008-1.062A.89.89,0,0,0,34.452-12.168Zm.72,8.532.144-4.7-1.836.162.09,4.7L33.462,0H35.3Zm5.2-4.806c-1.908,0-3.024,1.08-3.024,2.5,0,2.61,3.726,2.268,3.726,3.8A1.151,1.151,0,0,1,39.8-1.08a3.8,3.8,0,0,1-2.3-.972l-.2.126L37.08-.4A6.518,6.518,0,0,0,39.6.162c2.07,0,3.114-1.278,3.114-2.61,0-2.538-3.726-2.214-3.726-3.726a1.051,1.051,0,0,1,1.17-.99,3.357,3.357,0,0,1,1.836.63l.234-.054.252-1.44A5.7,5.7,0,0,0,40.374-8.442ZM50.652-4.068l.306-.288a7.013,7.013,0,0,0,.072-.9,2.847,2.847,0,0,0-3.024-3.186c-2.412,0-3.978,1.638-3.978,4.338,0,2.628,1.44,4.266,3.924,4.266a5.842,5.842,0,0,0,2.52-.612l.216-1.458-.162-.108a4.941,4.941,0,0,1-2.43.756c-1.584,0-2.34-1.026-2.376-2.808Zm-1.3-1.206-3.546.09a2.11,2.11,0,0,1,2.088-2c.9,0,1.494.522,1.494,1.692Zm6.5,3.888c-.738,0-1.062-.288-1.044-1.188l.09-4.518h2.322l.09-1.044-.072-.126h-2.3l.036-1.782-.162-.144-1.62.612v1.314h-1.1L52-7.2l.072.108h1.134l.018,3.51-.072,1.3A2.148,2.148,0,0,0,55.278.108a5.2,5.2,0,0,0,1.836-.54l.18-1.152-.18-.126A2.838,2.838,0,0,1,55.854-1.386Zm5.94-7.074a5.768,5.768,0,0,0-3.24,1.08L58.788-6.1l.144.09a4.1,4.1,0,0,1,2.574-1.152,1.185,1.185,0,0,1,1.3,1.35l-.018.972-2.844.63a1.918,1.918,0,0,0-1.746,2c0,1.44.99,2.34,2.664,2.358a5.271,5.271,0,0,0,1.872-1.35h.126A1.4,1.4,0,0,0,64.17.126,2.933,2.933,0,0,0,65.3-.27l.18-1.008L65.322-1.4a2.753,2.753,0,0,1-.54.072c-.378,0-.522-.144-.522-.612,0-.612.216-3.636.216-4.266C64.476-7.632,63.432-8.46,61.794-8.46Zm.99,4.68L62.73-2.394a2.542,2.542,0,0,1-1.8,1.1,1.037,1.037,0,0,1-1.1-1.152.664.664,0,0,1,.612-.774Zm6.984-4.662c-1.908,0-3.024,1.08-3.024,2.5,0,2.61,3.726,2.268,3.726,3.8A1.151,1.151,0,0,1,69.192-1.08a3.8,3.8,0,0,1-2.3-.972l-.2.126L66.474-.4a6.518,6.518,0,0,0,2.52.558c2.07,0,3.114-1.278,3.114-2.61,0-2.538-3.726-2.214-3.726-3.726a1.051,1.051,0,0,1,1.17-.99,3.357,3.357,0,0,1,1.836.63l.234-.054.252-1.44A5.7,5.7,0,0,0,69.768-8.442ZM80.1-8.46c-2.376,0-3.8,1.674-3.8,4.392,0,2.628,1.332,4.23,3.582,4.23a6.427,6.427,0,0,0,2.2-.414l.18-1.476L82.1-1.836a4.329,4.329,0,0,1-1.926.54c-1.368,0-2.142-1.08-2.142-2.916,0-1.746.756-2.736,2.034-2.736a3.568,3.568,0,0,1,1.764.558l.18-.072.306-1.53A5.4,5.4,0,0,0,80.1-8.46Zm6.984,0c-2.484,0-3.87,1.6-3.87,4.446,0,2.664,1.314,4.176,3.636,4.176,2.484,0,3.87-1.6,3.87-4.446C90.72-6.948,89.406-8.46,87.084-8.46Zm-.108,1.278c1.35,0,2.034,1.044,2.034,3.312,0,1.89-.684,2.772-2.034,2.772-1.368,0-2.052-1.026-2.052-3.312C84.924-6.264,85.608-7.182,86.976-7.182ZM102.816,0h1.854l-.09-3.636.054-2.34c.018-1.548-.936-2.43-2.79-2.43a6.528,6.528,0,0,0-2.376,1.35H99.36a2.527,2.527,0,0,0-2.592-1.35,5.977,5.977,0,0,0-2.214,1.278h-.126l.018-1.206L92.7-8.172l.09,4.7L92.682,0H94.5l-.09-3.636.018-2.2a3.229,3.229,0,0,1,2.16-1.08c.864,0,1.3.558,1.278,1.458L97.74,0h1.836L99.5-3.636l.036-2.232a3.174,3.174,0,0,1,2.124-1.044c.864,0,1.3.558,1.278,1.458ZM113.8-12.672c-2.07,0-3.276,1.116-3.258,3.168l.018,1.242h-1.224l-.09,1.062.072.108h1.242l.036,3.6L110.484,0h1.836l-.126-3.654.054-3.438h2.088l.108-1.044-.054-.126h-2.124l.018-1.548c.018-1.044.5-1.548,1.35-1.548a3.3,3.3,0,0,1,1.386.342l.126-.108.108-1.386A6.955,6.955,0,0,0,113.8-12.672Zm5.94,4.356a2.655,2.655,0,0,0-2.268,1.638h-.126l.018-1.656-1.746.162.108,4.7L115.6,0h1.836l-.126-3.636.018-1.188c.63-1.242,1.26-1.746,2-1.746a2.519,2.519,0,0,1,.666.09l.2-.054V-8.28A3.506,3.506,0,0,0,119.736-8.316Zm4.644-.144a5.768,5.768,0,0,0-3.24,1.08l.234,1.278.144.09a4.1,4.1,0,0,1,2.574-1.152,1.185,1.185,0,0,1,1.3,1.35l-.018.972-2.844.63a1.918,1.918,0,0,0-1.746,2c0,1.44.99,2.34,2.664,2.358a5.271,5.271,0,0,0,1.872-1.35h.126A1.4,1.4,0,0,0,126.756.126a2.933,2.933,0,0,0,1.134-.4l.18-1.008-.162-.126a2.753,2.753,0,0,1-.54.072c-.378,0-.522-.144-.522-.612,0-.612.216-3.636.216-4.266C127.062-7.632,126.018-8.46,124.38-8.46Zm.99,4.68-.054,1.386a2.542,2.542,0,0,1-1.8,1.1,1.037,1.037,0,0,1-1.1-1.152.664.664,0,0,1,.612-.774Zm6.984-4.662c-1.908,0-3.024,1.08-3.024,2.5,0,2.61,3.726,2.268,3.726,3.8a1.151,1.151,0,0,1-1.278,1.062,3.8,3.8,0,0,1-2.3-.972l-.2.126L129.06-.4a6.518,6.518,0,0,0,2.52.558c2.07,0,3.114-1.278,3.114-2.61,0-2.538-3.726-2.214-3.726-3.726a1.051,1.051,0,0,1,1.17-.99,3.357,3.357,0,0,1,1.836.63l.234-.054.252-1.44A5.7,5.7,0,0,0,132.354-8.442Zm10.278,4.374.306-.288a7.011,7.011,0,0,0,.072-.9,2.847,2.847,0,0,0-3.024-3.186c-2.412,0-3.978,1.638-3.978,4.338,0,2.628,1.44,4.266,3.924,4.266a5.842,5.842,0,0,0,2.52-.612l.216-1.458-.162-.108a4.941,4.941,0,0,1-2.43.756c-1.584,0-2.34-1.026-2.376-2.808Zm-1.3-1.206-3.546.09a2.11,2.11,0,0,1,2.088-2c.9,0,1.494.522,1.494,1.692ZM147.4-8.442c-1.908,0-3.024,1.08-3.024,2.5,0,2.61,3.726,2.268,3.726,3.8a1.151,1.151,0,0,1-1.278,1.062,3.8,3.8,0,0,1-2.3-.972l-.2.126L144.108-.4a6.518,6.518,0,0,0,2.52.558c2.07,0,3.114-1.278,3.114-2.61,0-2.538-3.726-2.214-3.726-3.726a1.051,1.051,0,0,1,1.17-.99,3.357,3.357,0,0,1,1.836.63l.234-.054.252-1.44A5.7,5.7,0,0,0,147.4-8.442Zm13.644,4.788.144-8.982-1.836.144L159.39-8.3a7.586,7.586,0,0,0-1.4-.144c-2.538,0-4.086,1.548-4.086,4.32,0,2.664,1.314,4.23,3.726,4.23A7.351,7.351,0,0,0,159.5-1.134h.144a1.425,1.425,0,0,0,1.332,1.26,2.917,2.917,0,0,0,1.152-.4l.162-1.008-.162-.126a2.6,2.6,0,0,1-.558.072c-.342,0-.45-.144-.468-.594Zm-3.24-3.528a3.717,3.717,0,0,1,1.6.414l.054,3.276-.036,1.17a2.3,2.3,0,0,1-1.764.936c-1.26,0-2.016-1.026-2.034-2.952C155.592-6.264,156.456-7.182,157.806-7.182Zm9.36-1.278c-2.484,0-3.87,1.6-3.87,4.446,0,2.664,1.314,4.176,3.636,4.176,2.484,0,3.87-1.6,3.87-4.446C170.8-6.948,169.488-8.46,167.166-8.46Zm-.108,1.278c1.35,0,2.034,1.044,2.034,3.312,0,1.89-.684,2.772-2.034,2.772-1.368,0-2.052-1.026-2.052-3.312C165.006-6.264,165.69-7.182,167.058-7.182Zm8.208-1.26c-1.908,0-3.024,1.08-3.024,2.5,0,2.61,3.726,2.268,3.726,3.8A1.151,1.151,0,0,1,174.69-1.08a3.8,3.8,0,0,1-2.3-.972l-.2.126L171.972-.4a6.518,6.518,0,0,0,2.52.558c2.07,0,3.114-1.278,3.114-2.61,0-2.538-3.726-2.214-3.726-3.726a1.051,1.051,0,0,1,1.17-.99,3.357,3.357,0,0,1,1.836.63l.234-.054.252-1.44A5.7,5.7,0,0,0,175.266-8.442ZM185.4-8.46a5.768,5.768,0,0,0-3.24,1.08l.234,1.278.144.09a4.1,4.1,0,0,1,2.574-1.152,1.185,1.185,0,0,1,1.3,1.35l-.018.972-2.844.63a1.918,1.918,0,0,0-1.746,2c0,1.44.99,2.34,2.664,2.358a5.271,5.271,0,0,0,1.872-1.35h.126A1.4,1.4,0,0,0,187.776.126a2.933,2.933,0,0,0,1.134-.4l.18-1.008-.162-.126a2.753,2.753,0,0,1-.54.072c-.378,0-.522-.144-.522-.612,0-.612.216-3.636.216-4.266C188.082-7.632,187.038-8.46,185.4-8.46Zm.99,4.68-.054,1.386a2.542,2.542,0,0,1-1.8,1.1,1.037,1.037,0,0,1-1.1-1.152.664.664,0,0,1,.612-.774ZM195.93,0h1.854l-.09-3.636.054-2.34c.018-1.548-.936-2.43-2.79-2.43a6.121,6.121,0,0,0-2.214,1.278h-.126l.018-1.206-1.746.162.09,4.7L190.872,0h1.836L192.6-3.636l.018-2.2a3.229,3.229,0,0,1,2.16-1.08c.864,0,1.3.558,1.278,1.458Zm7.56-8.46c-2.484,0-3.87,1.6-3.87,4.446,0,2.664,1.314,4.176,3.636,4.176,2.484,0,3.87-1.6,3.87-4.446C207.126-6.948,205.812-8.46,203.49-8.46Zm-.108,1.278c1.35,0,2.034,1.044,2.034,3.312,0,1.89-.684,2.772-2.034,2.772-1.368,0-2.052-1.026-2.052-3.312C201.33-6.264,202.014-7.182,203.382-7.182Zm8.208-1.26c-1.908,0-3.024,1.08-3.024,2.5,0,2.61,3.726,2.268,3.726,3.8a1.151,1.151,0,0,1-1.278,1.062,3.8,3.8,0,0,1-2.3-.972l-.2.126L208.3-.4a6.518,6.518,0,0,0,2.52.558c2.07,0,3.114-1.278,3.114-2.61,0-2.538-3.726-2.214-3.726-3.726a1.051,1.051,0,0,1,1.17-.99,3.357,3.357,0,0,1,1.836.63l.234-.054.252-1.44A5.7,5.7,0,0,0,211.59-8.442Zm10.8,2.07a3.719,3.719,0,0,0-2.124.666l-.126-.144c.576-1.71,2.07-2.88,4.806-3.852v-.18l-1.368-.828h-.108c-3.348,1.386-5.274,3.87-5.274,6.894,0,2.484,1.17,3.978,3.474,3.978a3.347,3.347,0,0,0,3.636-3.456A2.812,2.812,0,0,0,222.39-6.372ZM221.8-1.08c-1.386,0-1.944-.936-1.944-2.772l.018-.432a3.279,3.279,0,0,1,2-.774c1.152,0,1.8.72,1.8,2.016A1.749,1.749,0,0,1,221.8-1.08Zm9.072-8.064c-2.592,0-4.086,1.746-4.086,4.788,0,2.862,1.4,4.5,3.852,4.5,2.592,0,4.05-1.728,4.05-4.752C234.684-7.506,233.3-9.144,230.868-9.144Zm-.144,1.692c1.656,0,2.538,1.008,2.538,3.06,0,1.944-.864,2.916-2.52,2.916-1.692,0-2.52-1.008-2.52-3.006S229.05-7.452,230.724-7.452Z" transform="translate(75 499)"/>
    <path id="Caminho_771849" data-name="Caminho 771849" d="M5.886-11.682C2.538-11.682.612-9.522.612-5.67.612-1.944,2.43.144,5.67.144A6.691,6.691,0,0,0,8.73-.612L8.874-2.3l-.18-.108a4.847,4.847,0,0,1-2.88.99c-2.07,0-3.258-1.512-3.258-4.446,0-2.844,1.152-4.266,3.258-4.266A4.278,4.278,0,0,1,8.478-9.2l.18-.054L9-10.89A6.1,6.1,0,0,0,5.886-11.682ZM13.608-8.46a5.768,5.768,0,0,0-3.24,1.08L10.6-6.1l.144.09A4.1,4.1,0,0,1,13.32-7.164a1.185,1.185,0,0,1,1.3,1.35l-.018.972-2.844.63a1.918,1.918,0,0,0-1.746,2c0,1.44.99,2.34,2.664,2.358a5.271,5.271,0,0,0,1.872-1.35h.126A1.4,1.4,0,0,0,15.984.126a2.933,2.933,0,0,0,1.134-.4l.18-1.008L17.136-1.4a2.753,2.753,0,0,1-.54.072c-.378,0-.522-.144-.522-.612,0-.612.216-3.636.216-4.266C16.29-7.632,15.246-8.46,13.608-8.46Zm.99,4.68-.054,1.386a2.542,2.542,0,0,1-1.8,1.1,1.037,1.037,0,0,1-1.1-1.152.664.664,0,0,1,.612-.774ZM29.214,0h1.854l-.09-3.636.054-2.34c.018-1.548-.936-2.43-2.79-2.43a6.528,6.528,0,0,0-2.376,1.35h-.108a2.527,2.527,0,0,0-2.592-1.35,5.977,5.977,0,0,0-2.214,1.278h-.126l.018-1.206L19.1-8.172l.09,4.7L19.08,0H20.9l-.09-3.636.018-2.2a3.229,3.229,0,0,1,2.16-1.08c.864,0,1.3.558,1.278,1.458L24.138,0h1.836L25.9-3.636l.036-2.232a3.174,3.174,0,0,1,2.124-1.044c.864,0,1.3.558,1.278,1.458Zm5.238-12.168a.973.973,0,0,0-1.044,1.044.914.914,0,0,0,.99,1.008.97.97,0,0,0,1.008-1.062A.89.89,0,0,0,34.452-12.168Zm.72,8.532.144-4.7-1.836.162.09,4.7L33.462,0H35.3Zm5.2-4.806c-1.908,0-3.024,1.08-3.024,2.5,0,2.61,3.726,2.268,3.726,3.8A1.151,1.151,0,0,1,39.8-1.08a3.8,3.8,0,0,1-2.3-.972l-.2.126L37.08-.4A6.518,6.518,0,0,0,39.6.162c2.07,0,3.114-1.278,3.114-2.61,0-2.538-3.726-2.214-3.726-3.726a1.051,1.051,0,0,1,1.17-.99,3.357,3.357,0,0,1,1.836.63l.234-.054.252-1.44A5.7,5.7,0,0,0,40.374-8.442ZM50.652-4.068l.306-.288a7.013,7.013,0,0,0,.072-.9,2.847,2.847,0,0,0-3.024-3.186c-2.412,0-3.978,1.638-3.978,4.338,0,2.628,1.44,4.266,3.924,4.266a5.842,5.842,0,0,0,2.52-.612l.216-1.458-.162-.108a4.941,4.941,0,0,1-2.43.756c-1.584,0-2.34-1.026-2.376-2.808Zm-1.3-1.206-3.546.09a2.11,2.11,0,0,1,2.088-2c.9,0,1.494.522,1.494,1.692Zm6.5,3.888c-.738,0-1.062-.288-1.044-1.188l.09-4.518h2.322l.09-1.044-.072-.126h-2.3l.036-1.782-.162-.144-1.62.612v1.314h-1.1L52-7.2l.072.108h1.134l.018,3.51-.072,1.3A2.148,2.148,0,0,0,55.278.108a5.2,5.2,0,0,0,1.836-.54l.18-1.152-.18-.126A2.838,2.838,0,0,1,55.854-1.386Zm5.94-7.074a5.768,5.768,0,0,0-3.24,1.08L58.788-6.1l.144.09a4.1,4.1,0,0,1,2.574-1.152,1.185,1.185,0,0,1,1.3,1.35l-.018.972-2.844.63a1.918,1.918,0,0,0-1.746,2c0,1.44.99,2.34,2.664,2.358a5.271,5.271,0,0,0,1.872-1.35h.126A1.4,1.4,0,0,0,64.17.126,2.933,2.933,0,0,0,65.3-.27l.18-1.008L65.322-1.4a2.753,2.753,0,0,1-.54.072c-.378,0-.522-.144-.522-.612,0-.612.216-3.636.216-4.266C64.476-7.632,63.432-8.46,61.794-8.46Zm.99,4.68L62.73-2.394a2.542,2.542,0,0,1-1.8,1.1,1.037,1.037,0,0,1-1.1-1.152.664.664,0,0,1,.612-.774Zm6.984-4.662c-1.908,0-3.024,1.08-3.024,2.5,0,2.61,3.726,2.268,3.726,3.8A1.151,1.151,0,0,1,69.192-1.08a3.8,3.8,0,0,1-2.3-.972l-.2.126L66.474-.4a6.518,6.518,0,0,0,2.52.558c2.07,0,3.114-1.278,3.114-2.61,0-2.538-3.726-2.214-3.726-3.726a1.051,1.051,0,0,1,1.17-.99,3.357,3.357,0,0,1,1.836.63l.234-.054.252-1.44A5.7,5.7,0,0,0,69.768-8.442ZM80.1-8.46c-2.376,0-3.8,1.674-3.8,4.392,0,2.628,1.332,4.23,3.582,4.23a6.427,6.427,0,0,0,2.2-.414l.18-1.476L82.1-1.836a4.329,4.329,0,0,1-1.926.54c-1.368,0-2.142-1.08-2.142-2.916,0-1.746.756-2.736,2.034-2.736a3.568,3.568,0,0,1,1.764.558l.18-.072.306-1.53A5.4,5.4,0,0,0,80.1-8.46Zm6.984,0c-2.484,0-3.87,1.6-3.87,4.446,0,2.664,1.314,4.176,3.636,4.176,2.484,0,3.87-1.6,3.87-4.446C90.72-6.948,89.406-8.46,87.084-8.46Zm-.108,1.278c1.35,0,2.034,1.044,2.034,3.312,0,1.89-.684,2.772-2.034,2.772-1.368,0-2.052-1.026-2.052-3.312C84.924-6.264,85.608-7.182,86.976-7.182ZM102.816,0h1.854l-.09-3.636.054-2.34c.018-1.548-.936-2.43-2.79-2.43a6.528,6.528,0,0,0-2.376,1.35H99.36a2.527,2.527,0,0,0-2.592-1.35,5.977,5.977,0,0,0-2.214,1.278h-.126l.018-1.206L92.7-8.172l.09,4.7L92.682,0H94.5l-.09-3.636.018-2.2a3.229,3.229,0,0,1,2.16-1.08c.864,0,1.3.558,1.278,1.458L97.74,0h1.836L99.5-3.636l.036-2.232a3.174,3.174,0,0,1,2.124-1.044c.864,0,1.3.558,1.278,1.458ZM113.8-12.672c-2.07,0-3.276,1.116-3.258,3.168l.018,1.242h-1.224l-.09,1.062.072.108h1.242l.036,3.6L110.484,0h1.836l-.126-3.654.054-3.438h2.088l.108-1.044-.054-.126h-2.124l.018-1.548c.018-1.044.5-1.548,1.35-1.548a3.3,3.3,0,0,1,1.386.342l.126-.108.108-1.386A6.955,6.955,0,0,0,113.8-12.672Zm5.94,4.356a2.655,2.655,0,0,0-2.268,1.638h-.126l.018-1.656-1.746.162.108,4.7L115.6,0h1.836l-.126-3.636.018-1.188c.63-1.242,1.26-1.746,2-1.746a2.519,2.519,0,0,1,.666.09l.2-.054V-8.28A3.506,3.506,0,0,0,119.736-8.316Zm4.644-.144a5.768,5.768,0,0,0-3.24,1.08l.234,1.278.144.09a4.1,4.1,0,0,1,2.574-1.152,1.185,1.185,0,0,1,1.3,1.35l-.018.972-2.844.63a1.918,1.918,0,0,0-1.746,2c0,1.44.99,2.34,2.664,2.358a5.271,5.271,0,0,0,1.872-1.35h.126A1.4,1.4,0,0,0,126.756.126a2.933,2.933,0,0,0,1.134-.4l.18-1.008-.162-.126a2.753,2.753,0,0,1-.54.072c-.378,0-.522-.144-.522-.612,0-.612.216-3.636.216-4.266C127.062-7.632,126.018-8.46,124.38-8.46Zm.99,4.68-.054,1.386a2.542,2.542,0,0,1-1.8,1.1,1.037,1.037,0,0,1-1.1-1.152.664.664,0,0,1,.612-.774Zm6.984-4.662c-1.908,0-3.024,1.08-3.024,2.5,0,2.61,3.726,2.268,3.726,3.8a1.151,1.151,0,0,1-1.278,1.062,3.8,3.8,0,0,1-2.3-.972l-.2.126L129.06-.4a6.518,6.518,0,0,0,2.52.558c2.07,0,3.114-1.278,3.114-2.61,0-2.538-3.726-2.214-3.726-3.726a1.051,1.051,0,0,1,1.17-.99,3.357,3.357,0,0,1,1.836.63l.234-.054.252-1.44A5.7,5.7,0,0,0,132.354-8.442Zm10.278,4.374.306-.288a7.011,7.011,0,0,0,.072-.9,2.847,2.847,0,0,0-3.024-3.186c-2.412,0-3.978,1.638-3.978,4.338,0,2.628,1.44,4.266,3.924,4.266a5.842,5.842,0,0,0,2.52-.612l.216-1.458-.162-.108a4.941,4.941,0,0,1-2.43.756c-1.584,0-2.34-1.026-2.376-2.808Zm-1.3-1.206-3.546.09a2.11,2.11,0,0,1,2.088-2c.9,0,1.494.522,1.494,1.692ZM147.4-8.442c-1.908,0-3.024,1.08-3.024,2.5,0,2.61,3.726,2.268,3.726,3.8a1.151,1.151,0,0,1-1.278,1.062,3.8,3.8,0,0,1-2.3-.972l-.2.126L144.108-.4a6.518,6.518,0,0,0,2.52.558c2.07,0,3.114-1.278,3.114-2.61,0-2.538-3.726-2.214-3.726-3.726a1.051,1.051,0,0,1,1.17-.99,3.357,3.357,0,0,1,1.836.63l.234-.054.252-1.44A5.7,5.7,0,0,0,147.4-8.442Zm13.644,4.788.144-8.982-1.836.144L159.39-8.3a7.586,7.586,0,0,0-1.4-.144c-2.538,0-4.086,1.548-4.086,4.32,0,2.664,1.314,4.23,3.726,4.23A7.351,7.351,0,0,0,159.5-1.134h.144a1.425,1.425,0,0,0,1.332,1.26,2.917,2.917,0,0,0,1.152-.4l.162-1.008-.162-.126a2.6,2.6,0,0,1-.558.072c-.342,0-.45-.144-.468-.594Zm-3.24-3.528a3.717,3.717,0,0,1,1.6.414l.054,3.276-.036,1.17a2.3,2.3,0,0,1-1.764.936c-1.26,0-2.016-1.026-2.034-2.952C155.592-6.264,156.456-7.182,157.806-7.182Zm9.36-1.278c-2.484,0-3.87,1.6-3.87,4.446,0,2.664,1.314,4.176,3.636,4.176,2.484,0,3.87-1.6,3.87-4.446C170.8-6.948,169.488-8.46,167.166-8.46Zm-.108,1.278c1.35,0,2.034,1.044,2.034,3.312,0,1.89-.684,2.772-2.034,2.772-1.368,0-2.052-1.026-2.052-3.312C165.006-6.264,165.69-7.182,167.058-7.182Zm8.208-1.26c-1.908,0-3.024,1.08-3.024,2.5,0,2.61,3.726,2.268,3.726,3.8A1.151,1.151,0,0,1,174.69-1.08a3.8,3.8,0,0,1-2.3-.972l-.2.126L171.972-.4a6.518,6.518,0,0,0,2.52.558c2.07,0,3.114-1.278,3.114-2.61,0-2.538-3.726-2.214-3.726-3.726a1.051,1.051,0,0,1,1.17-.99,3.357,3.357,0,0,1,1.836.63l.234-.054.252-1.44A5.7,5.7,0,0,0,175.266-8.442ZM185.4-8.46a5.768,5.768,0,0,0-3.24,1.08l.234,1.278.144.09a4.1,4.1,0,0,1,2.574-1.152,1.185,1.185,0,0,1,1.3,1.35l-.018.972-2.844.63a1.918,1.918,0,0,0-1.746,2c0,1.44.99,2.34,2.664,2.358a5.271,5.271,0,0,0,1.872-1.35h.126A1.4,1.4,0,0,0,187.776.126a2.933,2.933,0,0,0,1.134-.4l.18-1.008-.162-.126a2.753,2.753,0,0,1-.54.072c-.378,0-.522-.144-.522-.612,0-.612.216-3.636.216-4.266C188.082-7.632,187.038-8.46,185.4-8.46Zm.99,4.68-.054,1.386a2.542,2.542,0,0,1-1.8,1.1,1.037,1.037,0,0,1-1.1-1.152.664.664,0,0,1,.612-.774ZM195.93,0h1.854l-.09-3.636.054-2.34c.018-1.548-.936-2.43-2.79-2.43a6.121,6.121,0,0,0-2.214,1.278h-.126l.018-1.206-1.746.162.09,4.7L190.872,0h1.836L192.6-3.636l.018-2.2a3.229,3.229,0,0,1,2.16-1.08c.864,0,1.3.558,1.278,1.458Zm7.56-8.46c-2.484,0-3.87,1.6-3.87,4.446,0,2.664,1.314,4.176,3.636,4.176,2.484,0,3.87-1.6,3.87-4.446C207.126-6.948,205.812-8.46,203.49-8.46Zm-.108,1.278c1.35,0,2.034,1.044,2.034,3.312,0,1.89-.684,2.772-2.034,2.772-1.368,0-2.052-1.026-2.052-3.312C201.33-6.264,202.014-7.182,203.382-7.182Zm8.208-1.26c-1.908,0-3.024,1.08-3.024,2.5,0,2.61,3.726,2.268,3.726,3.8a1.151,1.151,0,0,1-1.278,1.062,3.8,3.8,0,0,1-2.3-.972l-.2.126L208.3-.4a6.518,6.518,0,0,0,2.52.558c2.07,0,3.114-1.278,3.114-2.61,0-2.538-3.726-2.214-3.726-3.726a1.051,1.051,0,0,1,1.17-.99,3.357,3.357,0,0,1,1.836.63l.234-.054.252-1.44A5.7,5.7,0,0,0,211.59-8.442Zm10.368-2.232c-1.944,0-3.294,1.062-3.294,2.844A2.678,2.678,0,0,0,220.3-5.346v.09a2.983,2.983,0,0,0-2.034,2.682c0,1.584,1.188,2.718,3.294,2.718,2.2,0,3.654-1.17,3.654-3.042a2.821,2.821,0,0,0-1.98-2.592v-.09a2.937,2.937,0,0,0,1.656-2.538C224.892-9.7,223.794-10.674,221.958-10.674Zm-.09,1.3a1.4,1.4,0,0,1,1.584,1.44c0,1.008-.72,1.494-1.53,1.872-.918-.36-1.746-.792-1.746-1.818C220.176-8.8,220.806-9.378,221.868-9.378Zm-.27,4.662c1.062.432,2.088.828,2.088,1.944,0,.936-.72,1.638-1.962,1.638-1.188,0-1.908-.666-1.908-1.656C219.816-3.906,220.662-4.374,221.6-4.716Zm9.4-4.428c-2.592,0-4.086,1.746-4.086,4.788,0,2.862,1.4,4.5,3.852,4.5,2.592,0,4.05-1.728,4.05-4.752C234.81-7.506,233.424-9.144,230.994-9.144Zm-.144,1.692c1.656,0,2.538,1.008,2.538,3.06,0,1.944-.864,2.916-2.52,2.916-1.692,0-2.52-1.008-2.52-3.006S229.176-7.452,230.85-7.452Z" transform="translate(75 536)"/>
    <path id="Caminho_771850" data-name="Caminho 771850" d="M5.886-11.682C2.538-11.682.612-9.522.612-5.67.612-1.944,2.43.144,5.67.144A6.691,6.691,0,0,0,8.73-.612L8.874-2.3l-.18-.108a4.847,4.847,0,0,1-2.88.99c-2.07,0-3.258-1.512-3.258-4.446,0-2.844,1.152-4.266,3.258-4.266A4.278,4.278,0,0,1,8.478-9.2l.18-.054L9-10.89A6.1,6.1,0,0,0,5.886-11.682ZM13.608-8.46a5.768,5.768,0,0,0-3.24,1.08L10.6-6.1l.144.09A4.1,4.1,0,0,1,13.32-7.164a1.185,1.185,0,0,1,1.3,1.35l-.018.972-2.844.63a1.918,1.918,0,0,0-1.746,2c0,1.44.99,2.34,2.664,2.358a5.271,5.271,0,0,0,1.872-1.35h.126A1.4,1.4,0,0,0,15.984.126a2.933,2.933,0,0,0,1.134-.4l.18-1.008L17.136-1.4a2.753,2.753,0,0,1-.54.072c-.378,0-.522-.144-.522-.612,0-.612.216-3.636.216-4.266C16.29-7.632,15.246-8.46,13.608-8.46Zm.99,4.68-.054,1.386a2.542,2.542,0,0,1-1.8,1.1,1.037,1.037,0,0,1-1.1-1.152.664.664,0,0,1,.612-.774ZM29.214,0h1.854l-.09-3.636.054-2.34c.018-1.548-.936-2.43-2.79-2.43a6.528,6.528,0,0,0-2.376,1.35h-.108a2.527,2.527,0,0,0-2.592-1.35,5.977,5.977,0,0,0-2.214,1.278h-.126l.018-1.206L19.1-8.172l.09,4.7L19.08,0H20.9l-.09-3.636.018-2.2a3.229,3.229,0,0,1,2.16-1.08c.864,0,1.3.558,1.278,1.458L24.138,0h1.836L25.9-3.636l.036-2.232a3.174,3.174,0,0,1,2.124-1.044c.864,0,1.3.558,1.278,1.458Zm5.238-12.168a.973.973,0,0,0-1.044,1.044.914.914,0,0,0,.99,1.008.97.97,0,0,0,1.008-1.062A.89.89,0,0,0,34.452-12.168Zm.72,8.532.144-4.7-1.836.162.09,4.7L33.462,0H35.3Zm5.2-4.806c-1.908,0-3.024,1.08-3.024,2.5,0,2.61,3.726,2.268,3.726,3.8A1.151,1.151,0,0,1,39.8-1.08a3.8,3.8,0,0,1-2.3-.972l-.2.126L37.08-.4A6.518,6.518,0,0,0,39.6.162c2.07,0,3.114-1.278,3.114-2.61,0-2.538-3.726-2.214-3.726-3.726a1.051,1.051,0,0,1,1.17-.99,3.357,3.357,0,0,1,1.836.63l.234-.054.252-1.44A5.7,5.7,0,0,0,40.374-8.442ZM50.652-4.068l.306-.288a7.013,7.013,0,0,0,.072-.9,2.847,2.847,0,0,0-3.024-3.186c-2.412,0-3.978,1.638-3.978,4.338,0,2.628,1.44,4.266,3.924,4.266a5.842,5.842,0,0,0,2.52-.612l.216-1.458-.162-.108a4.941,4.941,0,0,1-2.43.756c-1.584,0-2.34-1.026-2.376-2.808Zm-1.3-1.206-3.546.09a2.11,2.11,0,0,1,2.088-2c.9,0,1.494.522,1.494,1.692Zm6.5,3.888c-.738,0-1.062-.288-1.044-1.188l.09-4.518h2.322l.09-1.044-.072-.126h-2.3l.036-1.782-.162-.144-1.62.612v1.314h-1.1L52-7.2l.072.108h1.134l.018,3.51-.072,1.3A2.148,2.148,0,0,0,55.278.108a5.2,5.2,0,0,0,1.836-.54l.18-1.152-.18-.126A2.838,2.838,0,0,1,55.854-1.386Zm5.94-7.074a5.768,5.768,0,0,0-3.24,1.08L58.788-6.1l.144.09a4.1,4.1,0,0,1,2.574-1.152,1.185,1.185,0,0,1,1.3,1.35l-.018.972-2.844.63a1.918,1.918,0,0,0-1.746,2c0,1.44.99,2.34,2.664,2.358a5.271,5.271,0,0,0,1.872-1.35h.126A1.4,1.4,0,0,0,64.17.126,2.933,2.933,0,0,0,65.3-.27l.18-1.008L65.322-1.4a2.753,2.753,0,0,1-.54.072c-.378,0-.522-.144-.522-.612,0-.612.216-3.636.216-4.266C64.476-7.632,63.432-8.46,61.794-8.46Zm.99,4.68L62.73-2.394a2.542,2.542,0,0,1-1.8,1.1,1.037,1.037,0,0,1-1.1-1.152.664.664,0,0,1,.612-.774Zm6.984-4.662c-1.908,0-3.024,1.08-3.024,2.5,0,2.61,3.726,2.268,3.726,3.8A1.151,1.151,0,0,1,69.192-1.08a3.8,3.8,0,0,1-2.3-.972l-.2.126L66.474-.4a6.518,6.518,0,0,0,2.52.558c2.07,0,3.114-1.278,3.114-2.61,0-2.538-3.726-2.214-3.726-3.726a1.051,1.051,0,0,1,1.17-.99,3.357,3.357,0,0,1,1.836.63l.234-.054.252-1.44A5.7,5.7,0,0,0,69.768-8.442ZM80.1-8.46c-2.376,0-3.8,1.674-3.8,4.392,0,2.628,1.332,4.23,3.582,4.23a6.427,6.427,0,0,0,2.2-.414l.18-1.476L82.1-1.836a4.329,4.329,0,0,1-1.926.54c-1.368,0-2.142-1.08-2.142-2.916,0-1.746.756-2.736,2.034-2.736a3.568,3.568,0,0,1,1.764.558l.18-.072.306-1.53A5.4,5.4,0,0,0,80.1-8.46Zm6.984,0c-2.484,0-3.87,1.6-3.87,4.446,0,2.664,1.314,4.176,3.636,4.176,2.484,0,3.87-1.6,3.87-4.446C90.72-6.948,89.406-8.46,87.084-8.46Zm-.108,1.278c1.35,0,2.034,1.044,2.034,3.312,0,1.89-.684,2.772-2.034,2.772-1.368,0-2.052-1.026-2.052-3.312C84.924-6.264,85.608-7.182,86.976-7.182ZM102.816,0h1.854l-.09-3.636.054-2.34c.018-1.548-.936-2.43-2.79-2.43a6.528,6.528,0,0,0-2.376,1.35H99.36a2.527,2.527,0,0,0-2.592-1.35,5.977,5.977,0,0,0-2.214,1.278h-.126l.018-1.206L92.7-8.172l.09,4.7L92.682,0H94.5l-.09-3.636.018-2.2a3.229,3.229,0,0,1,2.16-1.08c.864,0,1.3.558,1.278,1.458L97.74,0h1.836L99.5-3.636l.036-2.232a3.174,3.174,0,0,1,2.124-1.044c.864,0,1.3.558,1.278,1.458ZM113.8-12.672c-2.07,0-3.276,1.116-3.258,3.168l.018,1.242h-1.224l-.09,1.062.072.108h1.242l.036,3.6L110.484,0h1.836l-.126-3.654.054-3.438h2.088l.108-1.044-.054-.126h-2.124l.018-1.548c.018-1.044.5-1.548,1.35-1.548a3.3,3.3,0,0,1,1.386.342l.126-.108.108-1.386A6.955,6.955,0,0,0,113.8-12.672Zm5.94,4.356a2.655,2.655,0,0,0-2.268,1.638h-.126l.018-1.656-1.746.162.108,4.7L115.6,0h1.836l-.126-3.636.018-1.188c.63-1.242,1.26-1.746,2-1.746a2.519,2.519,0,0,1,.666.09l.2-.054V-8.28A3.506,3.506,0,0,0,119.736-8.316Zm4.644-.144a5.768,5.768,0,0,0-3.24,1.08l.234,1.278.144.09a4.1,4.1,0,0,1,2.574-1.152,1.185,1.185,0,0,1,1.3,1.35l-.018.972-2.844.63a1.918,1.918,0,0,0-1.746,2c0,1.44.99,2.34,2.664,2.358a5.271,5.271,0,0,0,1.872-1.35h.126A1.4,1.4,0,0,0,126.756.126a2.933,2.933,0,0,0,1.134-.4l.18-1.008-.162-.126a2.753,2.753,0,0,1-.54.072c-.378,0-.522-.144-.522-.612,0-.612.216-3.636.216-4.266C127.062-7.632,126.018-8.46,124.38-8.46Zm.99,4.68-.054,1.386a2.542,2.542,0,0,1-1.8,1.1,1.037,1.037,0,0,1-1.1-1.152.664.664,0,0,1,.612-.774Zm6.984-4.662c-1.908,0-3.024,1.08-3.024,2.5,0,2.61,3.726,2.268,3.726,3.8a1.151,1.151,0,0,1-1.278,1.062,3.8,3.8,0,0,1-2.3-.972l-.2.126L129.06-.4a6.518,6.518,0,0,0,2.52.558c2.07,0,3.114-1.278,3.114-2.61,0-2.538-3.726-2.214-3.726-3.726a1.051,1.051,0,0,1,1.17-.99,3.357,3.357,0,0,1,1.836.63l.234-.054.252-1.44A5.7,5.7,0,0,0,132.354-8.442Zm10.278,4.374.306-.288a7.011,7.011,0,0,0,.072-.9,2.847,2.847,0,0,0-3.024-3.186c-2.412,0-3.978,1.638-3.978,4.338,0,2.628,1.44,4.266,3.924,4.266a5.842,5.842,0,0,0,2.52-.612l.216-1.458-.162-.108a4.941,4.941,0,0,1-2.43.756c-1.584,0-2.34-1.026-2.376-2.808Zm-1.3-1.206-3.546.09a2.11,2.11,0,0,1,2.088-2c.9,0,1.494.522,1.494,1.692ZM147.4-8.442c-1.908,0-3.024,1.08-3.024,2.5,0,2.61,3.726,2.268,3.726,3.8a1.151,1.151,0,0,1-1.278,1.062,3.8,3.8,0,0,1-2.3-.972l-.2.126L144.108-.4a6.518,6.518,0,0,0,2.52.558c2.07,0,3.114-1.278,3.114-2.61,0-2.538-3.726-2.214-3.726-3.726a1.051,1.051,0,0,1,1.17-.99,3.357,3.357,0,0,1,1.836.63l.234-.054.252-1.44A5.7,5.7,0,0,0,147.4-8.442Zm13.644,4.788.144-8.982-1.836.144L159.39-8.3a7.586,7.586,0,0,0-1.4-.144c-2.538,0-4.086,1.548-4.086,4.32,0,2.664,1.314,4.23,3.726,4.23A7.351,7.351,0,0,0,159.5-1.134h.144a1.425,1.425,0,0,0,1.332,1.26,2.917,2.917,0,0,0,1.152-.4l.162-1.008-.162-.126a2.6,2.6,0,0,1-.558.072c-.342,0-.45-.144-.468-.594Zm-3.24-3.528a3.717,3.717,0,0,1,1.6.414l.054,3.276-.036,1.17a2.3,2.3,0,0,1-1.764.936c-1.26,0-2.016-1.026-2.034-2.952C155.592-6.264,156.456-7.182,157.806-7.182Zm9.36-1.278c-2.484,0-3.87,1.6-3.87,4.446,0,2.664,1.314,4.176,3.636,4.176,2.484,0,3.87-1.6,3.87-4.446C170.8-6.948,169.488-8.46,167.166-8.46Zm-.108,1.278c1.35,0,2.034,1.044,2.034,3.312,0,1.89-.684,2.772-2.034,2.772-1.368,0-2.052-1.026-2.052-3.312C165.006-6.264,165.69-7.182,167.058-7.182Zm8.208-1.26c-1.908,0-3.024,1.08-3.024,2.5,0,2.61,3.726,2.268,3.726,3.8A1.151,1.151,0,0,1,174.69-1.08a3.8,3.8,0,0,1-2.3-.972l-.2.126L171.972-.4a6.518,6.518,0,0,0,2.52.558c2.07,0,3.114-1.278,3.114-2.61,0-2.538-3.726-2.214-3.726-3.726a1.051,1.051,0,0,1,1.17-.99,3.357,3.357,0,0,1,1.836.63l.234-.054.252-1.44A5.7,5.7,0,0,0,175.266-8.442ZM185.4-8.46a5.768,5.768,0,0,0-3.24,1.08l.234,1.278.144.09a4.1,4.1,0,0,1,2.574-1.152,1.185,1.185,0,0,1,1.3,1.35l-.018.972-2.844.63a1.918,1.918,0,0,0-1.746,2c0,1.44.99,2.34,2.664,2.358a5.271,5.271,0,0,0,1.872-1.35h.126A1.4,1.4,0,0,0,187.776.126a2.933,2.933,0,0,0,1.134-.4l.18-1.008-.162-.126a2.753,2.753,0,0,1-.54.072c-.378,0-.522-.144-.522-.612,0-.612.216-3.636.216-4.266C188.082-7.632,187.038-8.46,185.4-8.46Zm.99,4.68-.054,1.386a2.542,2.542,0,0,1-1.8,1.1,1.037,1.037,0,0,1-1.1-1.152.664.664,0,0,1,.612-.774ZM195.93,0h1.854l-.09-3.636.054-2.34c.018-1.548-.936-2.43-2.79-2.43a6.121,6.121,0,0,0-2.214,1.278h-.126l.018-1.206-1.746.162.09,4.7L190.872,0h1.836L192.6-3.636l.018-2.2a3.229,3.229,0,0,1,2.16-1.08c.864,0,1.3.558,1.278,1.458Zm7.56-8.46c-2.484,0-3.87,1.6-3.87,4.446,0,2.664,1.314,4.176,3.636,4.176,2.484,0,3.87-1.6,3.87-4.446C207.126-6.948,205.812-8.46,203.49-8.46Zm-.108,1.278c1.35,0,2.034,1.044,2.034,3.312,0,1.89-.684,2.772-2.034,2.772-1.368,0-2.052-1.026-2.052-3.312C201.33-6.264,202.014-7.182,203.382-7.182Zm8.208-1.26c-1.908,0-3.024,1.08-3.024,2.5,0,2.61,3.726,2.268,3.726,3.8a1.151,1.151,0,0,1-1.278,1.062,3.8,3.8,0,0,1-2.3-.972l-.2.126L208.3-.4a6.518,6.518,0,0,0,2.52.558c2.07,0,3.114-1.278,3.114-2.61,0-2.538-3.726-2.214-3.726-3.726a1.051,1.051,0,0,1,1.17-.99,3.357,3.357,0,0,1,1.836.63l.234-.054.252-1.44A5.7,5.7,0,0,0,211.59-8.442Zm8.118-.576-1.782-.072L217.8-7.524l.108.18,1.494-.162h3.456l-4.014,8.622.108.306,1.476.4L221.31-.54,224.586-7.7l-.018-1.35-.81.036Zm10.242-.126c-2.592,0-4.086,1.746-4.086,4.788,0,2.862,1.4,4.5,3.852,4.5,2.592,0,4.05-1.728,4.05-4.752C233.766-7.506,232.38-9.144,229.95-9.144Zm-.144,1.692c1.656,0,2.538,1.008,2.538,3.06,0,1.944-.864,2.916-2.52,2.916-1.692,0-2.52-1.008-2.52-3.006S228.132-7.452,229.806-7.452Z" transform="translate(75 573)"/>
    <rect id="Retângulo_124916" data-name="Retângulo 124916" width="18" height="18" transform="translate(49 558)" fill="#0024a9"/>
    <rect id="Retângulo_124917" data-name="Retângulo 124917" width="18" height="18" transform="translate(49 484)" fill="#3b4aff"/>
    <rect id="Retângulo_124918" data-name="Retângulo 124918" width="18" height="18" transform="translate(49 521)" fill="#40bbff"/>
  </g>
</svg>
