<svg xmlns="http://www.w3.org/2000/svg" xmlns:xlink="http://www.w3.org/1999/xlink" width="328" height="239.716" viewBox="0 0 328 239.716">
  <defs>
    <linearGradient id="linear-gradient" x1="0.973" y1="1" x2="0" y2="1" gradientUnits="objectBoundingBox">
      <stop offset="0" stop-color="#fff" stop-opacity="0"/>
      <stop offset="0.159" stop-color="#fff" stop-opacity="0.408"/>
      <stop offset="0.414" stop-color="#95ebff"/>
      <stop offset="0.598" stop-color="#3db8f9"/>
      <stop offset="0.82" stop-color="#1b74d8"/>
      <stop offset="1" stop-color="#0024a8"/>
    </linearGradient>
    <linearGradient id="linear-gradient-2" x1="0.027" y1="0" x2="1" y2="0" xlink:href="#linear-gradient"/>
    <clipPath id="clip-path">
      <rect id="Retângulo_125125" data-name="Retângulo 125125" width="220.474" height="215.311" transform="translate(0 0)" fill="none"/>
    </clipPath>
    <linearGradient id="linear-gradient-3" x1="0.553" y1="0.086" x2="0.589" y2="1" gradientUnits="objectBoundingBox">
      <stop offset="0" stop-color="#89f1b9"/>
      <stop offset="1" stop-color="#f6b784"/>
    </linearGradient>
    <linearGradient id="linear-gradient-4" x1="0.602" y1="0.975" x2="0.5" y2="-0.083" gradientUnits="objectBoundingBox">
      <stop offset="0" stop-color="#f54c60"/>
      <stop offset="1" stop-color="#fd9da0"/>
    </linearGradient>
    <linearGradient id="linear-gradient-5" x1="0.5" x2="0.5" y2="1" gradientUnits="objectBoundingBox">
      <stop offset="0" stop-color="#3b4fff"/>
      <stop offset="1" stop-color="#40b5ff"/>
    </linearGradient>
    <linearGradient id="linear-gradient-8" x1="0.5" x2="0.5" y2="1" gradientUnits="objectBoundingBox">
      <stop offset="0" stop-color="#9285f9"/>
      <stop offset="1" stop-color="#424ffe"/>
    </linearGradient>
    <linearGradient id="linear-gradient-10" x1="0.5" x2="0.5" y2="1" gradientUnits="objectBoundingBox">
      <stop offset="0" stop-color="#ffb97d"/>
      <stop offset="1" stop-color="#ffe66c"/>
    </linearGradient>
    <linearGradient id="linear-gradient-11" x1="0.5" x2="0.5" y2="1" gradientUnits="objectBoundingBox">
      <stop offset="0" stop-color="#c95ee9"/>
      <stop offset="1" stop-color="#9d7df6"/>
    </linearGradient>
    <linearGradient id="linear-gradient-12" x1="0.412" y1="1.194" x2="0.243" y2="0.211" gradientUnits="objectBoundingBox">
      <stop offset="0" stop-color="#d263e1"/>
      <stop offset="1" stop-color="#fba4b0"/>
    </linearGradient>
    <linearGradient id="linear-gradient-13" x1="0.5" y1="1.333" x2="0.4" y2="0.123" xlink:href="#linear-gradient-12"/>
    <linearGradient id="linear-gradient-14" x1="0.5" y1="1.918" x2="0.553" y2="-1.756" xlink:href="#linear-gradient-12"/>
  </defs>
  <g id="_Ilustração_lateral_direita_1-mob_" data-name="&lt;Ilustração lateral direita_1-mob&gt;" transform="translate(-1097.998 -3024.131)">
    <g id="Grupo_233978" data-name="Grupo 233978">
      <g id="Grupo_232271" data-name="Grupo 232271" transform="translate(1097.998 3024.131)">
        <rect id="Retângulo_124594" data-name="Retângulo 124594" width="273.745" height="225.019" transform="translate(7.605 14.697)" fill="none"/>
        <g id="Grupo_232248" data-name="Grupo 232248" transform="translate(0 17.507)">
          <g id="GettyImages-1412762526" transform="translate(163.31 0)" fill="none">
            <path d="M-115.562.124,164.69,0,117.2,213.805l-280.511-.164Z" stroke="none"/>
            <path d="M 162.1972198486328 2.001083374023438 L -113.9600524902344 2.12322998046875 L -160.8132629394531 211.6426849365234 L 115.597412109375 211.8040771484375 L 162.1972198486328 2.001083374023438 M 164.6904296875 -1.52587890625e-05 L 117.2017211914062 213.8050231933594 L -163.3095703125 213.6412200927734 L -115.5623626708984 0.123931884765625 L 164.6904296875 -1.52587890625e-05 Z" stroke="none" fill="#0024a9"/>
          </g>
        </g>
        <g id="Grupo_232268" data-name="Grupo 232268" transform="translate(214.095 0)">
          <path id="Caminho_734262" data-name="Caminho 734262" d="M3.837-.459H113.9L109.733,17.1H0Z" transform="translate(0 0.459)" fill="url(#linear-gradient)"/>
          <path id="Caminho_734263" data-name="Caminho 734263" d="M110.068,17.1H0L4.172-.459H113.9Z" transform="translate(0 17.911)" fill="url(#linear-gradient-2)"/>
        </g>
        <path id="Caminho_758681" data-name="Caminho 758681" d="M418.32,331.779c-1.584-.307-4.033-1.008-5.416-2.564a.43.43,0,0,1,.336-.691l4.264-.163c.307,1.191.576,2.334.816,3.419" transform="translate(-267.77 -204.345)" fill="#fff"/>
        <g id="Grupo_234119" data-name="Grupo 234119" transform="translate(30.01 11.757)">
          <g id="Grupo_234119-2" data-name="Grupo 234119" transform="translate(0 0.005)" clip-path="url(#clip-path)">
            <path id="Caminho_770848" data-name="Caminho 770848" d="M754.613,1315.139l.635-5.609-10.928.607-.4,3.354s.417,3.237,4.865,3.344,5.832-1.7,5.832-1.7" transform="translate(-640.598 -1127.658)" fill="#ffede4"/>
            <path id="Caminho_770849" data-name="Caminho 770849" d="M707.8,1338.044s-3.7,1.629-5.3,4.11a4.376,4.376,0,0,0-.371,3.213h15.977l.476-6.9s-.868-.57-4.123.924c-2.422,1.112-2.52-1.349-6.658-1.349" transform="translate(-604.483 -1152.212)" fill="#422b2b"/>
            <path id="Caminho_770850" data-name="Caminho 770850" d="M702.094,1379.23H718.2a.128.128,0,0,0,0-.257H702.094a.128.128,0,0,0,0,.257" transform="translate(-604.477 -1187.456)" fill="#fae8e0"/>
            <path id="Caminho_770851" data-name="Caminho 770851" d="M1060.854,1313.915l-.376-4.385-10.928.607.523,3.354s.418,3.237,4.865,3.344,5.916-2.918,5.916-2.918" transform="translate(-903.783 -1127.658)" fill="#ffede4"/>
            <path id="Caminho_770852" data-name="Caminho 770852" d="M1017.2,1338.044s-3.7,1.629-5.3,4.11a4.374,4.374,0,0,0-.371,3.213l16.925.209-.472-7.107a7.691,7.691,0,0,0-2.332.924c-2.406,1.146-3.707-1.349-8.449-1.349" transform="translate(-870.914 -1152.212)" fill="#422b2b"/>
            <path id="Caminho_770853" data-name="Caminho 770853" d="M1011.5,1379.23h16.841a.128.128,0,0,0,0-.257H1011.5a.128.128,0,0,0,0,.257" transform="translate(-870.909 -1187.456)" fill="#fae8e0"/>
            <path id="Caminho_770854" data-name="Caminho 770854" d="M798.781,96.13a4.571,4.571,0,0,0-1.267,3.22c-.048,2.143.026,3.426-.845,4.239s-2.182,2.172-1.988,3.734a2.252,2.252,0,0,0,2.446,2.136c1-.041,1.971-.579,3.518-.13,2.041.592,3.552-.9,4.13-1.061s1.268-4.54-.261-7.271-5.733-4.866-5.733-4.866" transform="translate(-684.296 -82.78)" fill="#9c503d"/>
            <path id="Caminho_770855" data-name="Caminho 770855" d="M674,207.232l-9.073-6.882s10.982-11.662,13.346-13.688a25.968,25.968,0,0,1,10.327-4.881c4.051-.957,9.227-2.091,16.317-3.329s15.866,1.238,15.866,1.238v15.3l-5.431.786,1.141,28.2-32.758,4.339-1.848-22.866Z" transform="translate(-572.579 -153.371)" fill="url(#linear-gradient-3)"/>
            <path id="Caminho_770856" data-name="Caminho 770856" d="M679.451,322.557c1.631,1.114,3.247,2.25,4.838,3.422,1.217.9,2.424,1.809,3.649,2.7q1.418,1.026,2.858,2.021c.136.094.265-.128.13-.221q-2.294-1.59-4.536-3.252c-1.24-.92-2.476-1.845-3.732-2.743q-1.526-1.09-3.076-2.144c-.137-.093-.265.129-.13.222" transform="translate(-585.036 -277.549)" fill="#fae8e0"/>
            <path id="Caminho_770857" data-name="Caminho 770857" d="M845.72,202.381a8.015,8.015,0,0,0,5.443,2.7,7.673,7.673,0,0,0,1.745-.076c.163-.026.094-.273-.068-.247a7.759,7.759,0,0,1-5.685-1.4A7.385,7.385,0,0,1,845.9,202.2c-.108-.125-.289.057-.182.182" transform="translate(-728.235 -174.082)" fill="#fae8e0"/>
            <path id="Caminho_770858" data-name="Caminho 770858" d="M820.174,68.611s-1.945-3.2.4-5.339c1.784-1.629,4.942-1.453,4.942-1.453Z" transform="translate(-705.613 -53.23)" fill="#9c503d"/>
            <path id="Caminho_770859" data-name="Caminho 770859" d="M836.648,63.237c-1.542-3.357-5.362-3.6-8.336-2.233a5.944,5.944,0,0,0-3.5,4.472,20,20,0,0,0-.223,4.235c-.012.75-.152,2.62-.04,4.722.133,2.489,1.721,3.659,4.774,2.922a10.974,10.974,0,0,0,7.735-12.84,11.667,11.667,0,0,0-.412-1.277" transform="translate(-709.996 -51.861)" fill="#ffa88a"/>
            <path id="Caminho_770860" data-name="Caminho 770860" d="M866.636,136.288l.636,7.115s-1.989,2.5-4.489,2.753c-2.26.225-2.888-1.229-2.888-1.229l-.335-2.29Z" transform="translate(-740.181 -117.36)" fill="#ffa88a"/>
            <path id="Caminho_770861" data-name="Caminho 770861" d="M828.919,124.3c.52-.024.492.727.415,1.033-.051.2-.165.436-.4.443-.344.01-.39-.455-.391-.7,0-.279.036-.756.376-.772" transform="translate(-713.471 -107.039)" fill="#422b2b"/>
            <path id="Caminho_770862" data-name="Caminho 770862" d="M823.794,112.037c0,.8-.849.47-1.65.965-.069.043-.137.082-.205.119a1.255,1.255,0,0,1-.259-1.449,3.226,3.226,0,0,1,.557-.227c1.085-.331,1.56.007,1.558.591" transform="translate(-707.451 -95.856)" fill="#9c503d"/>
            <path id="Caminho_770863" data-name="Caminho 770863" d="M831.822,127.648c-.182.358-.359.72-.552,1.072s-.425.718-.659,1.064c-.093.137.13.266.222.13.234-.346.458-.7.659-1.064s.371-.713.553-1.072c.075-.147-.147-.277-.222-.13" transform="translate(-715.233 -109.864)" fill="#2b244a"/>
            <path id="Caminho_770864" data-name="Caminho 770864" d="M830.692,143.223a3.62,3.62,0,0,0,1.271.33.128.128,0,0,0,0-.257,3.268,3.268,0,0,1-1.142-.3.132.132,0,0,0-.176.046.129.129,0,0,0,.046.176" transform="translate(-715.268 -123.129)" fill="#2b244a"/>
            <path id="Caminho_770865" data-name="Caminho 770865" d="M837.167,62.349c-1.471-3.389-5.832-3.575-8.8-2.214-1.981.908-3.28,1.233-3.753,3.336-.051.225.116.885.082,1.115a14.392,14.392,0,0,1,.992-2.313,10.486,10.486,0,0,0,7.2,5.28c.841.188.953.437.9,1.21-.126,1.858-.316,3.314,1.367,4.5a3.556,3.556,0,0,0,1.9.252l-.415-3.4a8.828,8.828,0,0,0,.527-7.762" transform="translate(-710.077 -51.102)" fill="#9c503d"/>
            <path id="Caminho_770866" data-name="Caminho 770866" d="M884.529,101.7a2.785,2.785,0,0,0,.652,2.04c.762.68,2.476.871,3.129,2.476s.3,1.5.734,1.932a3.255,3.255,0,0,1,.789,3.183c-.49,1.469-3.074,1.034-3.863.816s-1.816.784-2.829.925-2.8.269-3.781-1.034a3.058,3.058,0,0,1-.1-3.329,4.769,4.769,0,0,0,.324-2.724l3.176-1.007Z" transform="translate(-756.759 -87.574)" fill="#9c503d"/>
            <path id="Caminho_770867" data-name="Caminho 770867" d="M865.18,118.373a1.99,1.99,0,1,0,1.874-2.1,1.99,1.99,0,0,0-1.874,2.1" transform="translate(-745.017 -100.122)" fill="#ffa88a"/>
            <path id="Caminho_770868" data-name="Caminho 770868" d="M850.224,124.355c.517-.032.5.716.429,1.021-.047.2-.157.437-.391.447-.342.016-.4-.446-.4-.695,0-.277.023-.753.362-.774" transform="translate(-731.829 -107.084)" fill="#422b2b"/>
            <path id="Caminho_770869" data-name="Caminho 770869" d="M845.24,111.841c.061.794.814.41,1.585.849.709.4,1.241.46,1.346.036.127-.512-.457-1.3-1.544-1.573-1.018-.258-1.432.109-1.387.688" transform="translate(-727.846 -95.644)" fill="#9c503d"/>
            <path id="Caminho_770870" data-name="Caminho 770870" d="M881.651,121.766a1.332,1.332,0,0,1,.5,1.612c-.059.154.189.221.247.068a1.588,1.588,0,0,0-.617-1.9c-.138-.092-.267.131-.13.222" transform="translate(-759.153 -104.646)" fill="#2b244a"/>
            <path id="Caminho_770871" data-name="Caminho 770871" d="M836.828,150.379l2.188-.67a1.2,1.2,0,0,1-.863,1.177,1.272,1.272,0,0,1-1.325-.507" transform="translate(-720.606 -128.917)" fill="#fff"/>
            <path id="Caminho_770872" data-name="Caminho 770872" d="M859.951,176.1a6.815,6.815,0,0,0,.861-.494,7.115,7.115,0,0,0,.776-.635c.121-.112-.06-.293-.182-.182a6.593,6.593,0,0,1-.743.607,6.872,6.872,0,0,1-.842.481c-.148.073-.018.295.13.222" transform="translate(-740.349 -150.488)" fill="#2b244a"/>
            <path id="Caminho_770873" data-name="Caminho 770873" d="M726.937,884.519s10.317,3.558,19.328-2.653l20.76-14.31,27.6,18.182s6.843-7.46,10.437-13.962,9.6-24.753-3.156-30.57S765.875,828.1,765.875,828.1l-22.8,5.353Z" transform="translate(-625.977 -713.088)" fill="#e1e6ed"/>
            <path id="Caminho_770874" data-name="Caminho 770874" d="M1012.768,949.975q2.972-3.45,6.133-6.732t6.5-6.378q3.338-3.1,6.846-6.005a45.371,45.371,0,0,1,7.28-5.243,13.314,13.314,0,0,1,8.52-1.691,10.7,10.7,0,0,1,1.077.246.128.128,0,0,0,.068-.247,12.586,12.586,0,0,0-8.559.857,35.051,35.051,0,0,0-7.45,4.98q-3.571,2.907-6.974,6.012t-6.623,6.4q-3.22,3.291-6.251,6.761-.376.43-.749.863c-.107.125.073.307.182.182" transform="translate(-871.926 -795.26)" fill="#2b244a"/>
            <path id="Caminho_770875" data-name="Caminho 770875" d="M753.385,503.495s-4.612,42.005-5.683,56.037c-1.007,13.184-2.148,54.7-2.148,54.7h11.676l12.358-71.466s6.05,25.15,7.2,29.9c2.556,10.56,9.724,41.562,9.724,41.562H798.9s-.567-15.886-2.288-24.1c-1.559-7.441-3.758-15.824-4.65-26.774s-3.1-38.222-7-50.656-5.639-12.966-5.639-12.966Z" transform="translate(-642.007 -430.33)" fill="url(#linear-gradient-4)"/>
            <path id="Caminho_770876" data-name="Caminho 770876" d="M892.138,687.625q.677,3.3,1.353,6.595.648,3.141,1.319,6.278.427,1.99.867,3.977c.036.161.283.093.247-.068q-.747-3.382-1.461-6.771-.655-3.112-1.289-6.229-.394-1.925-.789-3.85c-.033-.161-.281-.093-.247.068" transform="translate(-768.232 -591.987)" fill="#2b244a"/>
            <path id="Caminho_770877" data-name="Caminho 770877" d="M1018.6,718.713c-.072-1.625-.3-3.245-.531-4.853-.339-2.346-.738-4.684-1.149-7.019-1.031-5.848-2.156-11.68-3.243-17.518-1.076-5.784-2.145-11.573-3.014-17.392-.341-2.281-.654-4.568-.861-6.865-.341-3.8-.778-7.59-1.281-11.374-1.062-7.99-2.358-15.946-3.487-23.926q-.194-1.373-.38-2.748c-.022-.163-.269-.094-.247.068,1.07,7.937,2.367,15.841,3.472,23.772.55,3.951,1.061,7.909,1.452,11.879.244,2.469.472,4.932.814,7.39.788,5.662,1.813,11.291,2.849,16.911,1.092,5.925,2.234,11.841,3.3,17.771.772,4.277,1.621,8.59,1.982,12.926.027.325.049.651.063.977.007.165.264.165.257,0" transform="translate(-864.912 -539.856)" fill="#2b244a"/>
            <path id="Caminho_770878" data-name="Caminho 770878" d="M1135.333,109.219s11.977-.428,16.6-2.139,4.064-6.972,2.182-10.908-8.255-15.527-8.255-15.527Z" transform="translate(-977.653 -69.445)" fill="#ffa88a"/>
            <path id="Caminho_770879" data-name="Caminho 770879" d="M570.41,15.863,535.22,13.3S522.16,25.559,519.536,41.643c-2.573,15.769-2.053,28.364-14.03,46.939-15.04,23.325-36.815,29.03-45.056,49.049-8.561,20.794,9.8,39.5,38.2,46l3.044-47.372a195.784,195.784,0,0,1,23.2-20.071c13.175-9.611,26.741-25.438,28.488-51.966,1.8-27.283,9.069-38.547,17.025-48.357" transform="translate(-394.679 -11.451)" fill="#e1e6ed"/>
            <path id="Caminho_770880" data-name="Caminho 770880" d="M937.916,13.305a62.016,62.016,0,0,0-11.937,16.734c3.4-1.476,6.493-3.547,9.814-5.207a18.563,18.563,0,0,1,5.9-1.981c2.364-.3,4.694.4,7.055.2,4.5-.39,8.339-2.9,12.25-4.925a35.246,35.246,0,0,1,6.681-2.643Z" transform="translate(-797.375 -11.458)" fill="url(#linear-gradient-5)"/>
            <path id="Caminho_770881" data-name="Caminho 770881" d="M492.141,921.2a31.374,31.374,0,0,1-.311-12.28,12.16,12.16,0,0,1-2.21-3.446,46.734,46.734,0,0,0-1.989-4.9c-1.835-3.267-5.069-4.086-8.58-4.181a18.472,18.472,0,0,1-5.444-.557,10.779,10.779,0,0,1-4.543-3.421c-2.446-2.849-4.083-6.378-6.986-8.837q-.885,1.659-1.63,3.465c-8.562,20.794,9.8,39.5,38.2,46l.114-1.777a19.954,19.954,0,0,1-6.627-10.061" transform="translate(-394.678 -760.864)" fill="url(#linear-gradient-5)"/>
            <path id="Caminho_770882" data-name="Caminho 770882" d="M614.414,480.2c-1.353-1.075-3.1-1.5-4.535-2.456a7.3,7.3,0,0,1-1.92-1.815,22.768,22.768,0,0,1-1.181-2.022A7.718,7.718,0,0,0,605.39,472a6.627,6.627,0,0,0-1.791-1.119c-1.327-.613-2.885-1.155-3.29-2.733a7.349,7.349,0,0,1,.013-2.659,11.352,11.352,0,0,0,.1-2.538,11.837,11.837,0,0,0-5.41-8.274,22.636,22.636,0,0,0-5.118-2.579,79.766,79.766,0,0,1-7.443,14.342c-10.607,16.449-24.564,24.135-34.761,34.26.072.056.146.11.221.164a17.482,17.482,0,0,0,11.321,2.818,31.141,31.141,0,0,0,6.45-1.183c1.05-.3,2.081-.644,3.113-1a18.322,18.322,0,0,1,3.077-.857c2.215-.347,4.4.359,6.6.439a14.126,14.126,0,0,0,6.047-1.137c.973-.416,1.9-.929,2.9-1.3a7.8,7.8,0,0,1,3.026-.5,39.391,39.391,0,0,1,5.033.791c1.984-1.594,4.114-3.242,6.37-4.887a73.169,73.169,0,0,0,13.6-12.753,5.346,5.346,0,0,0-1.024-1.091" transform="translate(-471.62 -389.312)" fill="url(#linear-gradient-5)"/>
            <path id="Caminho_770883" data-name="Caminho 770883" d="M841.523,455.574a33.043,33.043,0,0,0,1.3-3.178c.055-.156-.194-.223-.248-.068a32.391,32.391,0,0,1-1.273,3.117c-.07.149.151.279.222.13" transform="translate(-724.446 -389.431)" fill="#fae8e0"/>
            <path id="Caminho_770884" data-name="Caminho 770884" d="M702.875,944.31a17.032,17.032,0,0,1-5.718-7.515,25.218,25.218,0,0,1-1.624-9.119,36.708,36.708,0,0,1,1.1-8.983,55.635,55.635,0,0,1,3.223-9.642,68.648,68.648,0,0,1,4.883-8.594q.4-.631.81-1.26c.09-.139-.132-.268-.222-.129a83.875,83.875,0,0,0-5.276,8.963,55.016,55.016,0,0,0-3.429,9.681,38.186,38.186,0,0,0-1.333,9.005,26.669,26.669,0,0,0,1.315,9.31,17.615,17.615,0,0,0,5.191,7.755q.464.392.955.75c.133.1.262-.125.13-.222" transform="translate(-598.713 -774.151)" fill="#2b244a"/>
            <path id="Caminho_770885" data-name="Caminho 770885" d="M605.639,338.268s-8.812,9.327-9.468,14.565c-1.034,8.255,6.616,10.608,12.547,8.213s22.5-11.194,22.5-11.194.841.96,2.852.275a7.527,7.527,0,0,0,4.021-3.764,2.269,2.269,0,0,0-.642-1.583s.856-1.8-.385-2.78a16.431,16.431,0,0,0,3.921-.5c.927-.428,1.1-1.911.47-2.239s-7.913-.927-9.225-.9-6.1,1.092-18,6.425Z" transform="translate(-513.291 -291.289)" fill="#ffa88a"/>
            <path id="Caminho_770886" data-name="Caminho 770886" d="M859.633,363.211q2.269.022,4.536.15c.165.009.164-.247,0-.257q-2.266-.127-4.536-.15a.128.128,0,0,0,0,.257" transform="translate(-740.137 -312.546)" fill="#2b244a"/>
            <path id="Caminho_770887" data-name="Caminho 770887" d="M862.714,382.393a35.665,35.665,0,0,1,4.237.223c.164.018.163-.238,0-.257a35.71,35.71,0,0,0-4.237-.223.128.128,0,0,0,0,.257" transform="translate(-742.789 -329.064)" fill="#2b244a"/>
            <path id="Caminho_770888" data-name="Caminho 770888" d="M848.593,408.826l3.41-2.031a.128.128,0,0,0-.129-.222l-3.41,2.031a.128.128,0,0,0,.13.222" transform="translate(-730.573 -350.091)" fill="#2b244a"/>
            <path id="Caminho_770889" data-name="Caminho 770889" d="M675.709,388.173a68.5,68.5,0,0,1,6.672-2.966c.153-.058.086-.307-.068-.247a69.17,69.17,0,0,0-6.733,2.992c-.147.075-.018.3.13.222" transform="translate(-581.697 -331.488)" fill="#2b244a"/>
            <path id="Caminho_770890" data-name="Caminho 770890" d="M1078.829.482s-5.847-.333-6.7-.385c-1.5-.092-1.322,2.336.03,2.429,1.561.107,3.3.209,3.3.209s-2.609,1.722-1.711,3.187c.871,1.42,3.249-.364,3.249-.364a1.425,1.425,0,0,0,1.863,1.283c1.754-.342,4.82-3.472,4.82-3.472l1.687.123s-.5-2.768-3.149-2.583c0,0-.756-1.711-3.394-.428" transform="translate(-922.319 -0.005)" fill="#ffa88a"/>
            <path id="Caminho_770891" data-name="Caminho 770891" d="M746.764,1287.15h12.111a.128.128,0,0,0,0-.257H746.764a.128.128,0,0,0,0,.257" transform="translate(-642.944 -1108.165)" fill="#2b244a"/>
            <path id="Caminho_770892" data-name="Caminho 770892" d="M1032.311,1287.15H1045.2a.128.128,0,0,0,0-.257h-12.892a.128.128,0,0,0,0,.257" transform="translate(-888.833 -1108.165)" fill="#2b244a"/>
            <path id="Caminho_770893" data-name="Caminho 770893" d="M799.674,475.337a7.642,7.642,0,0,0-7.643,7.641c0,4.222,5.859,13.056,7.643,13.056,1.512,0,7.64-8.834,7.64-13.056a7.641,7.641,0,0,0-7.64-7.641m0,11.367a3.725,3.725,0,1,1,3.724-3.726,3.726,3.726,0,0,1-3.724,3.726" transform="translate(-682.03 -409.321)" fill="#ff674d"/>
            <path id="Caminho_770894" data-name="Caminho 770894" d="M827.684,631.818c0,.425-1.668.77-3.725.77s-3.725-.345-3.725-.77,1.668-.77,3.725-.77,3.725.345,3.725.77" transform="translate(-706.316 -543.406)" fill="#ff674d"/>
            <path id="Caminho_770895" data-name="Caminho 770895" d="M695.312,715.916l-4.35-1.278a.513.513,0,0,1-.369-.492V688.264a.257.257,0,0,1,.329-.246l4.35,1.278a.513.513,0,0,1,.369.492V715.67a.257.257,0,0,1-.329.246" transform="translate(-594.681 -592.454)" fill="#7472e8"/>
            <path id="Caminho_770896" data-name="Caminho 770896" d="M632.974,734.59l-4.021-1.181a.513.513,0,0,1-.369-.493V713.108a.257.257,0,0,1,.329-.246l4.35,1.278a.513.513,0,0,1,.369.492V734.1a.513.513,0,0,1-.658.492" transform="translate(-541.284 -613.849)" fill="#7472e8"/>
            <path id="Caminho_770897" data-name="Caminho 770897" d="M565.545,735.429l-4.35-1.278a.513.513,0,0,1-.369-.492V717.216a.257.257,0,0,1,.329-.246l4.35,1.278a.513.513,0,0,1,.369.492v16.443a.257.257,0,0,1-.329.246" transform="translate(-482.937 -617.385)" fill="#7472e8"/>
            <path id="Caminho_770898" data-name="Caminho 770898" d="M512.57,761.486l-4.35-1.278a.513.513,0,0,1-.369-.492V749.661a.257.257,0,0,1,.329-.246l4.35,1.278a.514.514,0,0,1,.369.493v10.054a.257.257,0,0,1-.329.246" transform="translate(-437.319 -645.324)" fill="#7472e8"/>
            <path id="Caminho_770899" data-name="Caminho 770899" d="M612.495,978.016l-15.852-5.037c-3.719-1.182-6.1.194-6.376,3.448-.268,3.174,1.86,6.065,5.474,7.213l15.852,5.037c3.1.984,5.811-.6,6.06-3.549.253-2.995-2.061-6.129-5.159-7.113" transform="translate(-508.269 -837.489)" fill="#fff"/>
            <path id="Caminho_770900" data-name="Caminho 770900" d="M651.323,1014.733c-1.217-.386-1.371,1.41-.152,1.8s1.371-1.41.152-1.8" transform="translate(-560.01 -873.757)" fill="#422b2b"/>
            <path id="Caminho_770901" data-name="Caminho 770901" d="M683.393,1024.923c-1.217-.386-1.371,1.41-.152,1.8s1.371-1.41.152-1.8" transform="translate(-587.626 -882.532)" fill="#422b2b"/>
            <path id="Caminho_770902" data-name="Caminho 770902" d="M715.463,1035.113c-1.217-.387-1.371,1.41-.152,1.8s1.371-1.41.152-1.8" transform="translate(-615.242 -891.306)" fill="#422b2b"/>
            <path id="Caminho_770903" data-name="Caminho 770903" d="M743.958,1066.6l3.287,2.62c.981.781,2.214.448,2.3-.623l.469-5.545Z" transform="translate(-640.634 -915.413)" fill="#fff"/>
            <path id="Caminho_770904" data-name="Caminho 770904" d="M480.705,979.543l-12.66-4.023c-3.215-1.021-6.025.574-6.288,3.682-.259,3.055,2.138,6.359,5.353,7.381l12.66,4.022c3.75,1.191,6.337-.284,6.615-3.578.286-3.377-1.821-6.259-5.68-7.484" transform="translate(-397.61 -839.772)" fill="#faa23c"/>
            <path id="Caminho_770905" data-name="Caminho 770905" d="M458.824,1003.939l-.487,5.753a2.069,2.069,0,0,0,2.16,2.093l3.68-.465Z" transform="translate(-394.677 -864.508)" fill="#faa23c"/>
            <path id="Caminho_770906" data-name="Caminho 770906" d="M511.258,1016.68c-1.263-.4-1.422,1.463-.158,1.865s1.422-1.463.158-1.865" transform="translate(-439.365 -875.431)" fill="#422b2b"/>
            <path id="Caminho_770907" data-name="Caminho 770907" d="M544.534,1027.252c-1.262-.4-1.422,1.463-.158,1.864s1.422-1.463.158-1.864" transform="translate(-468.02 -884.536)" fill="#422b2b"/>
            <path id="Caminho_770908" data-name="Caminho 770908" d="M577.81,1037.825c-1.263-.4-1.422,1.463-.158,1.865s1.422-1.463.158-1.865" transform="translate(-496.674 -893.64)" fill="#422b2b"/>
            <path id="Caminho_770909" data-name="Caminho 770909" d="M511.547,810.539l.8,3.195a.364.364,0,0,0,.5.242l7.494-3.4a.364.364,0,0,1,.505.252l1.134,5.068a.364.364,0,0,0,.521.244l21.715-11.115a.364.364,0,0,1,.5.188l.259.643a.364.364,0,0,0,.641.065l3.9-5.9a.364.364,0,0,0-.255-.561l-6.169-.828a.364.364,0,0,0-.392.479l.371,1.074a.364.364,0,0,1-.179.443l-17.153,8.7a.364.364,0,0,1-.522-.258l-.809-4.318a.364.364,0,0,0-.51-.263l-12.157,5.627a.364.364,0,0,0-.2.419" transform="translate(-440.491 -687.716)" fill="#ff674d"/>
            <path id="Caminho_770910" data-name="Caminho 770910" d="M1016.748,445.316a7.148,7.148,0,1,0,7.148,7.148,7.15,7.15,0,0,0-7.148-7.148m0,10.427a3.279,3.279,0,1,1,3.279-3.279,3.277,3.277,0,0,1-3.279,3.279" transform="translate(-869.383 -383.469)" fill="#422b2b"/>
            <path id="Caminho_770911" data-name="Caminho 770911" d="M1052.984,423.53V429.4a.594.594,0,0,1-.743.575,3.306,3.306,0,0,0-1.627,0,.594.594,0,0,1-.742-.576V423.53a.6.6,0,0,1,.538-.595q.5-.05,1.016-.05t1.019.05a.6.6,0,0,1,.538.595" transform="translate(-904.061 -364.154)" fill="#422b2b"/>
            <path id="Caminho_770912" data-name="Caminho 770912" d="M1051.427,519.638a3.276,3.276,0,0,0,.814-.1.594.594,0,0,1,.743.575v5.867a.6.6,0,0,1-.538.595,10.411,10.411,0,0,1-2.036,0,.6.6,0,0,1-.538-.595v-5.865a.594.594,0,0,1,.742-.575,3.286,3.286,0,0,0,.813.1" transform="translate(-904.061 -447.365)" fill="#422b2b"/>
            <path id="Caminho_770913" data-name="Caminho 770913" d="M993.681,485.588a.594.594,0,0,1,.575.742,3.324,3.324,0,0,0,0,1.626.594.594,0,0,1-.575.742h-5.868a.6.6,0,0,1-.595-.538q-.05-.5-.05-1.016t.05-1.016a.6.6,0,0,1,.595-.538Z" transform="translate(-850.067 -418.148)" fill="#422b2b"/>
            <path id="Caminho_770914" data-name="Caminho 770914" d="M1090.918,487.142q0,.514-.05,1.016a.6.6,0,0,1-.595.538h-5.865a.594.594,0,0,1-.575-.742,3.326,3.326,0,0,0,0-1.625.594.594,0,0,1,.575-.742h5.865a.6.6,0,0,1,.595.538q.05.5.05,1.016" transform="translate(-933.289 -418.147)" fill="#422b2b"/>
            <path id="Caminho_770915" data-name="Caminho 770915" d="M1009.44,442.958h0a.594.594,0,0,1-.115.931,3.3,3.3,0,0,0-1.151,1.152.594.594,0,0,1-.931.116h0l-4.148-4.145a.6.6,0,0,1-.039-.8,10.274,10.274,0,0,1,1.438-1.438.6.6,0,0,1,.8.039Z" transform="translate(-863.629 -377.716)" fill="#422b2b"/>
            <path id="Caminho_770916" data-name="Caminho 770916" d="M1077.548,511.836a10.273,10.273,0,0,1-1.432,1.429.6.6,0,0,1-.805-.036l-4.143-4.143,0,0a.593.593,0,0,1,.116-.93,3.3,3.3,0,0,0,1.155-1.155.593.593,0,0,1,.93-.116l0,0,4.146,4.149a.6.6,0,0,1,.036.806" transform="translate(-922.246 -436.333)" fill="#422b2b"/>
            <path id="Caminho_770917" data-name="Caminho 770917" d="M1009.458,509.082l-4.148,4.148a.6.6,0,0,1-.805.036,10.215,10.215,0,0,1-1.43-1.432.6.6,0,0,1,.037-.8l4.148-4.148a.593.593,0,0,1,.931.116,3.291,3.291,0,0,0,1.152,1.154.593.593,0,0,1,.115.93" transform="translate(-863.646 -436.334)" fill="#422b2b"/>
            <path id="Caminho_770918" data-name="Caminho 770918" d="M1077.524,441.024l-4.148,4.148a.593.593,0,0,1-.93-.116,3.3,3.3,0,0,0-1.154-1.154.593.593,0,0,1-.115-.93l4.147-4.147a.6.6,0,0,1,.8-.037,10.133,10.133,0,0,1,1.432,1.431.6.6,0,0,1-.036.805" transform="translate(-922.258 -377.73)" fill="#422b2b"/>
            <path id="Caminho_770919" data-name="Caminho 770919" d="M926.984,505.962a4.8,4.8,0,1,0,2.335,6.368,4.8,4.8,0,0,0-2.335-6.368m-.021,5.277a2.2,2.2,0,1,1-1.072-2.922,2.2,2.2,0,0,1,1.072,2.922" transform="translate(-792.371 -435.309)" fill="#fff"/>
            <path id="Caminho_770920" data-name="Caminho 770920" d="M931.656,552.733l-1.669,3.6a.38.38,0,0,1-.464.205,7.1,7.1,0,0,1-.661-.265,6.954,6.954,0,0,1-.627-.331.38.38,0,0,1-.142-.486l1.67-3.6a.387.387,0,0,1,.6-.125,2.151,2.151,0,0,0,.467.293,2.225,2.225,0,0,0,.544.172.381.381,0,0,1,.278.536" transform="translate(-799.164 -475.025)" fill="#fff"/>
            <path id="Caminho_770921" data-name="Caminho 770921" d="M958.8,494.112l-1.67,3.6a.388.388,0,0,1-.6.126,2.186,2.186,0,0,0-.47-.293,2.229,2.229,0,0,0-.543-.172.381.381,0,0,1-.278-.536l1.672-3.606a.38.38,0,0,1,.463-.205,7.092,7.092,0,0,1,1.285.6.38.38,0,0,1,.145.487" transform="translate(-822.536 -424.539)" fill="#fff"/>
            <path id="Caminho_770922" data-name="Caminho 770922" d="M908.766,513.427l3.6,1.67a.387.387,0,0,1,.125.6,2.154,2.154,0,0,0-.293.467,2.225,2.225,0,0,0-.169.544.381.381,0,0,1-.537.28l-3.607-1.671a.38.38,0,0,1-.205-.464,6.633,6.633,0,0,1,.265-.658,6.82,6.82,0,0,1,.332-.629.381.381,0,0,1,.487-.143" transform="translate(-781.603 -442.09)" fill="#fff"/>
            <path id="Caminho_770923" data-name="Caminho 770923" d="M971.017,542.247a.38.38,0,0,1,.205.464,6.952,6.952,0,0,1-.265.658,6.685,6.685,0,0,1-.332.628.38.38,0,0,1-.486.142l-3.6-1.668a.388.388,0,0,1-.125-.6,2.231,2.231,0,0,0,.46-.995.388.388,0,0,1,.542-.295Z" transform="translate(-832.113 -465.47)" fill="#fff"/>
            <path id="Caminho_770924" data-name="Caminho 770924" d="M933.422,496.782a.387.387,0,0,1-.589-.176l-.007-.019-1.363-3.706a.381.381,0,0,1,.183-.474,6.917,6.917,0,0,1,1.332-.489.381.381,0,0,1,.447.242l1.358,3.708.008.021a.381.381,0,0,1-.32.512,2.21,2.21,0,0,0-1.048.381" transform="translate(-802.077 -423.589)" fill="#fff"/>
            <path id="Caminho_770925" data-name="Caminho 770925" d="M956.844,557.017a6.968,6.968,0,0,1-1.331.487.38.38,0,0,1-.447-.243l-1.358-3.706-.008-.023a.381.381,0,0,1,.32-.513,2.219,2.219,0,0,0,1.053-.383.387.387,0,0,1,.589.176l.007.018,1.361,3.711a.381.381,0,0,1-.184.474" transform="translate(-821.225 -475.823)" fill="#fff"/>
            <path id="Caminho_770926" data-name="Caminho 770926" d="M911.443,540.413a.387.387,0,0,1-.176.589l-.019.007-3.708,1.361a.381.381,0,0,1-.474-.184,6.894,6.894,0,0,1-.487-1.329.38.38,0,0,1,.243-.446l3.73-1.368a.381.381,0,0,1,.512.32,2.219,2.219,0,0,0,.38,1.051" transform="translate(-780.659 -464.158)" fill="#fff"/>
            <path id="Caminho_770927" data-name="Caminho 770927" d="M972.174,518.328a.381.381,0,0,1-.242.446l-3.707,1.361-.021.008a.381.381,0,0,1-.512-.32,2.222,2.222,0,0,0-.382-1.051.387.387,0,0,1,.177-.589l.02-.007,3.707-1.361a.381.381,0,0,1,.473.183,6.783,6.783,0,0,1,.487,1.331" transform="translate(-832.904 -445.017)" fill="#fff"/>
            <path id="Caminho_770928" data-name="Caminho 770928" d="M862.817,286.349a3.187,3.187,0,0,0-2.656-1.52,5.322,5.322,0,0,0-1.359.415,8.83,8.83,0,0,1-2.858.75c-1.371.07-2.8-.149-3.923.827a2.206,2.206,0,0,0-.792,1.558c-.083,2.662,3.569,2.6,5.284,2.214a11.229,11.229,0,0,1,2.371-.635c.863.018,1.379.4,2.247.43.986.038,2.243.063,2.551-1.1a3.5,3.5,0,0,0-.866-2.94" transform="translate(-733.006 -245.261)" fill="#fff"/>
            <path id="Caminho_770929" data-name="Caminho 770929" d="M981.338,88.823s6.413-7.318,9.771-9.408,4.953.126,5.787-.07c1.554-.365,7.445-7.827,10.094-9.207s2.668,6.464,2.742,9.506c.07,2.844-.44,8.294-.44,8.294a41.163,41.163,0,0,1-12.467,2.378,125.687,125.687,0,0,1-15.489-1.493" transform="translate(-845.046 -60.259)" fill="#422b2b"/>
            <path id="Caminho_770930" data-name="Caminho 770930" d="M1126.65,70.133c-1.525.8-4.124,3.6-6.354,5.914a13.284,13.284,0,0,0,1.619,1.189c1.054.507,2.374-.7,3.486-.769,1.041-.061,1.767.678,2.808.591a5.355,5.355,0,0,0,1.1-.212c-.155-3.456-.641-7.764-2.663-6.713" transform="translate(-964.705 -60.254)" fill="#fff"/>
            <path id="Caminho_770931" data-name="Caminho 770931" d="M969.526,326.9c-.343-1.684-2.522-2.721-4.217-2.836-.009,0-.605-2.3-.708-2.541a5.042,5.042,0,0,0-1.835-2.21c-1.993-1.318-4.829-.915-6.77.319a16.092,16.092,0,0,0-3.719,3.332,13.139,13.139,0,0,0-1.4,2.061,7.263,7.263,0,0,0-5.948.028,4.249,4.249,0,0,0-2.227,2.284,2.881,2.881,0,0,0,.643,3.107c2.157,1.912,6.768,1.421,9.467,1.474,4.293.084,8.649.161,12.806-.913,1.387-.358,3.036-1.076,3.671-2.461a2.626,2.626,0,0,0,.232-1.643" transform="translate(-811.617 -274.266)" fill="#fff"/>
            <path id="Caminho_770932" data-name="Caminho 770932" d="M1025.8,177.424a6.634,6.634,0,0,0-1.657-2.966,7.263,7.263,0,0,0-6.141-1.923,10.1,10.1,0,0,0-3.849,1.346l-.114-.08a14.668,14.668,0,0,0-3.32-1.851,5.651,5.651,0,0,0-3.643-.142,12,12,0,0,0-3.315,1.818,1.14,1.14,0,0,1-.321.178,1.276,1.276,0,0,1-.486.008,5.435,5.435,0,0,0-4.209,1.451c-1.92,1.827-.8,6.622.5,8.533a6.9,6.9,0,0,0,6.242,2.979c1.291-.118,2.263-.819,3.483-.632,1.7.262,3.719.82,5.418.308a13.259,13.259,0,0,0,2.839-1.3,13.681,13.681,0,0,0,2.4-1.775,10.944,10.944,0,0,0,1.31-1.462,5.536,5.536,0,0,0,2.444-.357,4.412,4.412,0,0,0,2-1.465,3.218,3.218,0,0,0,.413-2.663" transform="translate(-859.151 -147.743)" fill="#fff"/>
            <path id="Caminho_770933" data-name="Caminho 770933" d="M980.107,295.9a32.313,32.313,0,0,0,3.345-2.969c1.154-1.157,2.25-2.373,3.287-3.636q.842-1.025,1.627-2.1c.1-.133-.125-.262-.222-.129a46.982,46.982,0,0,1-6.337,7.078c-.589.534-1.2,1.051-1.83,1.531-.13.1,0,.322.13.222" transform="translate(-843.827 -247.15)" fill="#2b244a"/>
            <path id="Caminho_770934" data-name="Caminho 770934" d="M912.824,295.675a31.9,31.9,0,0,1-3.293-2.929c-1.141-1.144-2.225-2.346-3.252-3.594q-.84-1.02-1.622-2.086c-.1-.132-.319,0-.221.129a47.208,47.208,0,0,0,6.415,7.164c.594.537,1.206,1.053,1.844,1.537.132.1.26-.123.13-.222" transform="translate(-778.803 -247.15)" fill="#2b244a"/>
            <path id="Caminho_770935" data-name="Caminho 770935" d="M889.434,201.183c0,1.985-7.153,7.72-15.977,7.72s-15.976-5.949-15.976-7.72c0-1.737,7.153-7.72,15.976-7.72s15.977,5.641,15.977,7.72" transform="translate(-738.39 -166.595)" fill="#ff674d"/>
            <path id="Caminho_770936" data-name="Caminho 770936" d="M889.44,226.707a2.127,2.127,0,0,1-.464,1.111,64.139,64.139,0,0,1-15.512,2.361,61,61,0,0,1-15.484-2.39,2.055,2.055,0,0,1-.493-1.083,2.207,2.207,0,0,1,.557-1.157,63.262,63.262,0,0,1,15.42-2.446,68.7,68.7,0,0,1,15.4,2.3,2.4,2.4,0,0,1,.577,1.3" transform="translate(-738.396 -192.119)" fill="#ffd6c2"/>
            <path id="Caminho_770937" data-name="Caminho 770937" d="M1084.292,215.2s-1.184-6.086,0-6.086,0,6.086,0,6.086" transform="translate(-933.248 -180.072)" fill="#422b2b"/>
            <path id="Caminho_770938" data-name="Caminho 770938" d="M1084.291,244.225s1.184,6.085,0,6.085,0-6.085,0-6.085" transform="translate(-933.247 -210.307)" fill="#422b2b"/>
            <path id="Caminho_770939" data-name="Caminho 770939" d="M1085.217,245.317s3.265-1.184,3.265,0-3.265,0-3.265,0" transform="translate(-934.498 -210.794)" fill="#422b2b"/>
            <path id="Caminho_770940" data-name="Caminho 770940" d="M1069.645,245.317s-3.265,1.184-3.265,0,3.265,0,3.265,0" transform="translate(-918.277 -210.794)" fill="#422b2b"/>
            <path id="Caminho_770941" data-name="Caminho 770941" d="M952.267,340.133s.091,3.156.775,4.135a2.841,2.841,0,0,0,4.076,0c.684-.979.775-4.135.775-4.135Z" transform="translate(-820.012 -292.895)" fill="#422b2b"/>
            <path id="Caminho_770942" data-name="Caminho 770942" d="M768.875,686.341l0-.007-1.765-.572-.191.608c-2.509.884-4.856,4.644-5.321,8.628a7.437,7.437,0,0,0,.965,5.217l-.167.532,1.585.515,0-.007a2.718,2.718,0,0,0,1.48.009c2.618-.679,5.132-4.587,5.616-8.727.371-3.18-.566-5.565-2.206-6.2" transform="translate(-655.756 -590.521)" fill="#faa23c"/>
            <path id="Caminho_770943" data-name="Caminho 770943" d="M753.332,699.884c2.618-.68,5.132-4.587,5.616-8.728s-1.247-6.946-3.865-6.266-5.132,4.587-5.616,8.727,1.247,6.946,3.865,6.266" transform="translate(-645.308 -589.683)" fill="#faa23c"/>
            <path id="Caminho_770944" data-name="Caminho 770944" d="M764.883,704.918a1.006,1.006,0,0,1,1.4-.351,2.224,2.224,0,0,1,.847,1.523,2.042,2.042,0,0,1-2.288,2.507,3.674,3.674,0,0,0-1.976.4,2.522,2.522,0,0,0-1.06,1.355,2.757,2.757,0,0,0,1.125,3.121c1.209.621,2.493-.421,3.06-1.439.081-.145-.141-.274-.221-.13-.513.92-1.72,1.953-2.811,1.29a2.184,2.184,0,0,1-.908-1.351,2.424,2.424,0,0,1,.274-1.978,2.275,2.275,0,0,1,1.557-.966,12.169,12.169,0,0,0,2.008-.187,2.32,2.32,0,0,0,.775-.413,2.011,2.011,0,0,0,.529-.785,2.821,2.821,0,0,0,.086-1.924,2.11,2.11,0,0,0-1.1-1.367,1.28,1.28,0,0,0-1.523.56c-.091.139.131.267.222.13" transform="translate(-655.908 -606.355)" fill="#2b244a"/>
            <path id="Caminho_770945" data-name="Caminho 770945" d="M767.447,763.561q-.387.972-.782,1.941a.13.13,0,0,0,.09.158.131.131,0,0,0,.158-.09q.395-.969.782-1.941c.061-.153-.187-.22-.247-.068" transform="translate(-660.182 -657.441)" fill="#2b244a"/>
            <path id="Caminho_770946" data-name="Caminho 770946" d="M793.047,698.841q-.294.823-.594,1.645c-.057.155.191.222.247.068q.3-.821.594-1.645c.056-.156-.192-.223-.247-.068" transform="translate(-682.387 -601.708)" fill="#2b244a"/>
            <path id="Caminho_770947" data-name="Caminho 770947" d="M772.594,703.028a4.652,4.652,0,0,0,2.764-1.33,10.2,10.2,0,0,0,2.1-2.8,13.82,13.82,0,0,0,1.326-3.74,11.068,11.068,0,0,0,.126-3.983,4.868,4.868,0,0,0-1.472-2.962c-.126-.106-.308.075-.181.181a4.384,4.384,0,0,1,1.325,2.436,10.015,10.015,0,0,1,.038,3.805,13.632,13.632,0,0,1-1.152,3.675,10.8,10.8,0,0,1-1.947,2.877,4.683,4.683,0,0,1-2.926,1.587c-.164.01-.165.267,0,.257" transform="translate(-665.187 -592.601)" fill="#2b244a"/>
            <path id="Caminho_770948" data-name="Caminho 770948" d="M838.815,675.574h0l-.022-.053-.016-.037-.723-1.707-.439.192a7.154,7.154,0,0,0-5.647-1.215c-4.167.633-7.73,3.754-7.958,6.97,0,.064-.006.127-.007.19l-.31.135.488,1.211a3.879,3.879,0,0,0,.243.6l0,.012h0c.988,1.932,3.573,3,6.711,2.525,4.167-.633,7.73-3.754,7.958-6.97a4.089,4.089,0,0,0-.285-1.855" transform="translate(-709.295 -579.222)" fill="#faa23c"/>
            <path id="Caminho_770949" data-name="Caminho 770949" d="M834.909,662.847c-.228,3.216-3.791,6.336-7.958,6.97s-7.36-1.46-7.131-4.676,3.791-6.336,7.958-6.97,7.36,1.46,7.131,4.676" transform="translate(-705.95 -566.665)" fill="#faa23c"/>
            <path id="Caminho_770950" data-name="Caminho 770950" d="M847.245,679.859a1.215,1.215,0,0,1,1.3,1.025,2.418,2.418,0,0,1-.38,1.651,2.254,2.254,0,0,1-1.569,1.036,2.139,2.139,0,0,1-1.783-.845,8.2,8.2,0,0,0-1.5-1.552,2.5,2.5,0,0,0-1.9-.361,2.79,2.79,0,0,0-1.884,3.079c.253,1.516,1.936,2.146,3.3,1.909.162-.028.094-.276-.068-.248a2.455,2.455,0,0,1-2.994-1.773,2.6,2.6,0,0,1,.522-1.873,2.011,2.011,0,0,1,1.877-.881,2.809,2.809,0,0,1,1.77,1.056,6.638,6.638,0,0,0,1.419,1.431,2.09,2.09,0,0,0,.893.326,2.18,2.18,0,0,0,1.042-.208,2.561,2.561,0,0,0,1.232-1.208,2.463,2.463,0,0,0,.217-1.81,1.455,1.455,0,0,0-1.5-1.011c-.163.015-.165.271,0,.256" transform="translate(-722.902 -585.212)" fill="#2b244a"/>
            <path id="Caminho_770951" data-name="Caminho 770951" d="M833.92,708.393q-1.01.335-2.023.661c-.157.05-.09.3.068.247q1.013-.326,2.023-.66c.156-.052.089-.3-.068-.248" transform="translate(-716.283 -610.003)" fill="#2b244a"/>
            <path id="Caminho_770952" data-name="Caminho 770952" d="M900.164,685.308q-.914.346-1.83.684c-.154.057-.087.3.068.248q.917-.338,1.83-.684c.153-.058.087-.306-.068-.247" transform="translate(-773.495 -590.123)" fill="#2b244a"/>
            <path id="Caminho_770953" data-name="Caminho 770953" d="M835.226,687.143c.179,2.638-1.9,4.877-4.023,6.125a10.758,10.758,0,0,1-4.072,1.4,7.848,7.848,0,0,1-4.025-.457,4.381,4.381,0,0,1-2.525-2.554c-.052-.156-.3-.089-.247.068.852,2.527,3.747,3.406,6.171,3.258a10.629,10.629,0,0,0,7.579-3.845,5.925,5.925,0,0,0,1.4-3.993c-.011-.164-.268-.165-.257,0" transform="translate(-706.395 -591.604)" fill="#2b244a"/>
            <path id="Caminho_770954" data-name="Caminho 770954" d="M1100.984,5.889a30.286,30.286,0,0,1,3.36-2.188.128.128,0,0,0-.129-.222,30.286,30.286,0,0,0-3.36,2.188c-.131.1,0,.321.129.222" transform="translate(-947.916 -2.982)" fill="#2b244a"/>
            <path id="Caminho_770955" data-name="Caminho 770955" d="M1113.627,10.318a4.362,4.362,0,0,1,1.053-1.328c.407-.395.834-.769,1.271-1.129.889-.733,1.822-1.412,2.778-2.053.137-.092.008-.314-.129-.222-.974.654-1.925,1.347-2.83,2.094-.451.372-.891.757-1.309,1.165a4.453,4.453,0,0,0-1.056,1.343c-.065.15.156.281.222.13" transform="translate(-958.761 -4.792)" fill="#2b244a"/>
            <path id="Caminho_770956" data-name="Caminho 770956" d="M430.788,317.488s5.794.551,6.935,5.2-4.592,7.553-4.592,7.553Z" transform="translate(-370.958 -273.395)" fill="#422b2b"/>
            <path id="Caminho_770957" data-name="Caminho 770957" d="M400.8,367.471s-1.15,4.848.642,12.776-8.664,10.4-8.988,10.1-3.982-13.182-2.932-14.151,11.278-8.726,11.278-8.726" transform="translate(-335.264 -316.436)" fill="#422b2b"/>
            <path id="Caminho_770958" data-name="Caminho 770958" d="M382.493,393.98l2.289-1.889,5.274,5.159-3.777,4.166Z" transform="translate(-329.371 -337.636)" fill="#ed7549"/>
            <path id="Caminho_770959" data-name="Caminho 770959" d="M661.562,458.543a30.813,30.813,0,0,1,6.694-3.031c3.315-.935,10.631-1.98,11.524-1.427a1.11,1.11,0,0,1,0,1.87c-.468.383-5.652,2.082-5.652,2.082a1.62,1.62,0,0,1,.579,1.343,1.845,1.845,0,0,1,.568,1.823c-.2,1.275-1.774,2.44-2.89,3.152a3.065,3.065,0,0,1-2.4.283l-4.3,2.4Z" transform="translate(-569.682 -390.888)" fill="#ed7549"/>
            <path id="Caminho_770960" data-name="Caminho 770960" d="M171.894,1478.459l-.4-2.4,10.785-2.6.309,3.348s-.417,3.237-4.865,3.344-5.832-1.7-5.832-1.7" transform="translate(-147.678 -1268.822)" fill="#ffede4"/>
            <path id="Caminho_770961" data-name="Caminho 770961" d="M185.056,1497.571s6.324,3.649,7.321,4.972a1.9,1.9,0,0,1,.167,2.351H175.252s-.157-.871-.893-5.675a25.565,25.565,0,0,0,5.093.149c2.657-.21,3.8-1.721,5.6-1.8" transform="translate(-150.143 -1289.583)" fill="#422b2b"/>
            <path id="Caminho_770962" data-name="Caminho 770962" d="M196.705,1538.5H179.032a.128.128,0,0,0,0,.257h17.673a.128.128,0,0,0,0-.257" transform="translate(-154.061 -1324.827)" fill="#fae8e0"/>
            <path id="Caminho_770963" data-name="Caminho 770963" d="M178.9,1510.369a3.875,3.875,0,0,1-.2,1.769,1.538,1.538,0,0,1-.462.6,1.957,1.957,0,0,1-.831.315c-.162.03-.093.277.068.247a2.156,2.156,0,0,0,.892-.34,1.751,1.751,0,0,0,.536-.654,4.017,4.017,0,0,0,.256-1.937c-.006-.165-.263-.165-.257,0" transform="translate(-152.689 -1300.497)" fill="#fae8e0"/>
            <path id="Caminho_770964" data-name="Caminho 770964" d="M254.5,1507.022a21.548,21.548,0,0,0-2.064.632c-.154.056-.088.3.068.248a21.513,21.513,0,0,1,2.064-.632.128.128,0,0,0-.068-.248" transform="translate(-217.303 -1297.717)" fill="#fae8e0"/>
            <path id="Caminho_770965" data-name="Caminho 770965" d="M244.534,1501.328c-.7.177-1.387.386-2.064.632-.154.056-.088.3.068.248.677-.246,1.366-.455,2.064-.632a.128.128,0,0,0-.068-.247" transform="translate(-208.72 -1292.814)" fill="#fae8e0"/>
            <path id="Caminho_770966" data-name="Caminho 770966" d="M14.822,1448.655l.431-1.386,11.064,2.241-1.4,3.056s-1.977,2.6-5.885.469-4.207-4.38-4.207-4.38" transform="translate(-12.763 -1246.267)" fill="#ffede4"/>
            <path id="Caminho_770967" data-name="Caminho 770967" d="M16.723,1467.624a33.061,33.061,0,0,0-2.431-2.742c-.749-1.385-2.141-3.72-2.141-3.72-1.6-.834-3.345-.1-5.752-1.24a25.567,25.567,0,0,1-4.339-2.671C.3,1461.781,0,1462.614,0,1462.614l10.753,6.2a10.219,10.219,0,0,0,5.1,1.364h1.28a2.557,2.557,0,0,0-.41-2.55" transform="translate(0 -1254.863)" fill="#422b2b"/>
            <path id="Caminho_770968" data-name="Caminho 770968" d="M20.32,1492.792a12.47,12.47,0,0,1-2.467-.112,11.5,11.5,0,0,1-3.352-1.488c-2.277-1.286-4.537-2.6-6.8-3.915q-1.927-1.122-3.857-2.237a.128.128,0,0,0-.13.222c2.291,1.32,4.571,2.657,6.859,3.981q1.731,1,3.471,1.988a14.2,14.2,0,0,0,3.419,1.626,11.393,11.393,0,0,0,2.853.193.128.128,0,0,0,0-.257" transform="translate(-3.148 -1278.775)" fill="#fae8e0"/>
            <path id="Caminho_770969" data-name="Caminho 770969" d="M9.148,1465.5a4.08,4.08,0,0,1-1,1.386,1.6,1.6,0,0,1-.707.328,1.875,1.875,0,0,1-.93-.134c-.156-.055-.223.193-.068.247a2.138,2.138,0,0,0,.989.145,1.779,1.779,0,0,0,.806-.335,4.162,4.162,0,0,0,1.128-1.508c.077-.146-.144-.276-.222-.13" transform="translate(-5.476 -1261.913)" fill="#fae8e0"/>
            <path id="Caminho_770970" data-name="Caminho 770970" d="M82.988,1498.839a21.509,21.509,0,0,0-2.1-.483c-.162-.029-.231.219-.068.247a21.548,21.548,0,0,1,2.1.483.128.128,0,0,0,.068-.248" transform="translate(-69.512 -1290.258)" fill="#fae8e0"/>
            <path id="Caminho_770971" data-name="Caminho 770971" d="M77.193,1488.93a21.538,21.538,0,0,0-2.1-.483c-.161-.029-.231.219-.068.247.709.125,1.411.288,2.1.483a.128.128,0,0,0,.068-.247" transform="translate(-64.522 -1281.725)" fill="#fae8e0"/>
            <path id="Caminho_770972" data-name="Caminho 770972" d="M29.346,1059.585,17.6,1113.558l12.513,3.862,17.745-50.448Z" transform="translate(-15.155 -912.426)" fill="url(#linear-gradient-8)"/>
            <path id="Caminho_770973" data-name="Caminho 770973" d="M85.314,745.08s-.57-49.576-.913-58.7-2.4-37.87-2.4-37.87,2.738-8.156,3.308-13.688l-21.658-8.27s-6.858,5.3-7.2,16.711S65.238,699.1,65.238,699.1l7.186,47.737Z" transform="translate(-48.606 -539.533)" fill="url(#linear-gradient-8)"/>
            <path id="Caminho_770974" data-name="Caminho 770974" d="M181.562,424.475c-1.134-3.828-4.911-8.053-4.911-8.053l-19.26,11.145s-9.053-8.794-12.918-13.976l-.953-3.076-.628.692-4.841-6.084-.152-.106s-1.442.468-1.971.7a10.21,10.21,0,0,0-6.063-.184c-5.689,1.54-4.723,2.323-14.647,5.146s-14.986,5.718-16.44,10.822,2.281,11.849,2.281,11.849l-1.241,2.438s7.87,4.076,10.608,5.133a82.261,82.261,0,0,0,11.05,3.137,10.924,10.924,0,0,0,6.659-1.3c4.007-2.609,8.855-10,8.855-10s10.608,9.525,15.057,11.663,9.276.531,14.2-3.679c3.336-2.852,11.523-10.531,11.928-11.25a3.8,3.8,0,0,0,.572-3.02Z" transform="translate(-84.77 -348.767)" fill="url(#linear-gradient-10)"/>
            <path id="Caminho_770975" data-name="Caminho 770975" d="M236.56,481.058a14.264,14.264,0,0,0,3.1-.342,14.694,14.694,0,0,0,2.949-1.008,17.155,17.155,0,0,0,2.8-1.648,22.356,22.356,0,0,0,2.675-2.276,30.019,30.019,0,0,0,2.527-2.862,41.481,41.481,0,0,0,2.394-3.423c.814-1.291,1.566-2.62,2.272-3.973.768-1.473,1.481-2.974,2.151-4.494q1.083-2.456,2.029-4.97,1.031-2.719,1.935-5.484.229-.7.451-1.393c.05-.158-.2-.225-.247-.068q-.885,2.777-1.88,5.518-.936,2.563-1.995,5.079c-.658,1.553-1.358,3.089-2.111,4.6-.69,1.383-1.425,2.744-2.219,4.07-.727,1.214-1.5,2.4-2.341,3.541a32.317,32.317,0,0,1-2.472,2.988,23.941,23.941,0,0,1-2.6,2.4,18.057,18.057,0,0,1-2.752,1.8,14.851,14.851,0,0,1-2.879,1.16,13.817,13.817,0,0,1-3.024.5q-.382.02-.765.02a.128.128,0,0,0,0,.257" transform="translate(-203.599 -386.666)" fill="#2b244a"/>
            <path id="Caminho_770976" data-name="Caminho 770976" d="M108.5,1100.455q-.552-3.837-1.117-7.672-.6-4.045-1.219-8.086-.635-4.117-1.308-8.227-.666-4.051-1.385-8.093-.688-3.848-1.448-7.683-.09-.451-.182-.9c-.033-.162-.28-.094-.247.068q.77,3.8,1.455,7.613.728,4.023,1.393,8.057.682,4.109,1.319,8.225.63,4.057,1.231,8.119.574,3.867,1.13,7.737.066.455.131.91c.023.163.271.094.248-.068" transform="translate(-87.481 -912.526)" fill="#2b244a"/>
            <path id="Caminho_770977" data-name="Caminho 770977" d="M24.37,1417.21l9.791,3.314,2.88.975c.157.053.224-.195.068-.248l-9.791-3.314-2.88-.975c-.157-.053-.224.195-.068.248" transform="translate(-20.91 -1220.163)" fill="#2b244a"/>
            <path id="Caminho_770978" data-name="Caminho 770978" d="M166.8,1451.034c3.389-.346,6.774-.725,10.151-1.173q1.575-.209,3.149-.429c.163-.022.094-.27-.068-.247-3.363.467-6.729.9-10.1,1.265q-1.563.169-3.127.328c-.163.016-.164.273,0,.256" transform="translate(-143.531 -1247.916)" fill="#2b244a"/>
            <path id="Caminho_770979" data-name="Caminho 770979" d="M170.737,795.769c-.4-5.75-.879-11.495-1.357-17.238q-.992-11.93-2.035-23.856-1.056-12.178-2.13-24.355-.821-9.338-1.637-18.677-.23-2.656-.453-5.314a30.092,30.092,0,0,1,1.453-12.814,24.876,24.876,0,0,1,1.874-4.012.128.128,0,0,0-.222-.13,27.873,27.873,0,0,0-3.427,16.143c.112,1.454.241,2.907.366,4.361q.755,8.768,1.534,17.533,1.059,12.044,2.11,24.089,1.06,12.185,2.089,24.373c.513,6.126,1.027,12.253,1.471,18.384q.055.757.107,1.513c.011.164.268.165.257,0" transform="translate(-140.111 -593.577)" fill="#2b244a"/>
            <path id="Caminho_770980" data-name="Caminho 770980" d="M164,706.411a17.872,17.872,0,0,0,6.323-10.654c.03-.162-.217-.231-.248-.068a17.635,17.635,0,0,1-6.257,10.541c-.128.1.054.285.182.181" transform="translate(-141.031 -598.989)" fill="#2b244a"/>
            <path id="Caminho_770981" data-name="Caminho 770981" d="M92.746,642.082c1.44.88,2.888,1.747,4.36,2.571,1.337.747,2.695,1.458,4.083,2.105,1.35.629,2.729,1.2,4.134,1.692a47.057,47.057,0,0,0,4.542,1.338c1.743.423,3.507.757,5.279,1.033q.371.058.743.112c.162.024.231-.223.068-.247-1.8-.265-3.6-.585-5.373-.993-1.559-.358-3.1-.784-4.62-1.295a44.63,44.63,0,0,1-4.166-1.643c-1.379-.624-2.727-1.314-4.053-2.043-1.457-.8-2.888-1.648-4.308-2.511l-.561-.342c-.141-.086-.27.135-.13.222" transform="translate(-79.812 -552.7)" fill="#2b244a"/>
            <path id="Caminho_770982" data-name="Caminho 770982" d="M122.648,536.253a19.353,19.353,0,0,0,5.707.753,22.686,22.686,0,0,0,2.684-.156c.961-.116,1.915-.3,2.867-.473,1.936-.351,3.865-.745,5.772-1.233a50.21,50.21,0,0,0,5.292-1.655,46.5,46.5,0,0,0,5.189-2.337q.338-.177.673-.36c.145-.079.016-.3-.129-.222a46.88,46.88,0,0,1-5.192,2.436,48.627,48.627,0,0,1-5.212,1.709c-1.859.5-3.743.9-5.635,1.261a36.262,36.262,0,0,1-5.569.76,20.659,20.659,0,0,1-5.725-.547q-.329-.084-.654-.184c-.158-.049-.226.2-.068.247" transform="translate(-105.537 -456.869)" fill="#2b244a"/>
            <path id="Caminho_770983" data-name="Caminho 770983" d="M119.408,573.454l-3.07,4.648c-.091.138.131.267.222.13l3.07-4.648c.091-.138-.131-.267-.222-.13" transform="translate(-100.162 -493.76)" fill="#2b244a"/>
            <path id="Caminho_770984" data-name="Caminho 770984" d="M377.284,549.4a33.7,33.7,0,0,0,2.861-6.906q.306-1.019.567-2.051a.128.128,0,0,0-.248-.068,39.375,39.375,0,0,1-2.44,7.031q-.447.95-.962,1.865a.128.128,0,0,0,.221.13" transform="translate(-324.679 -465.248)" fill="#2b244a"/>
            <path id="Caminho_770985" data-name="Caminho 770985" d="M365.956,410.433c1.148,2.273,2.391,4.494,3.621,6.723q.608,1.1,1.207,2.207c.079.145.3.016.222-.13-1.26-2.326-2.572-4.624-3.811-6.962q-.519-.979-1.018-1.967c-.074-.148-.3-.018-.222.13" transform="translate(-315.117 -353.263)" fill="#2b244a"/>
            <path id="Caminho_770986" data-name="Caminho 770986" d="M400.935,452.76a14.431,14.431,0,0,0,1.294-1.7c.389-.608.728-1.246,1.073-1.879.079-.145-.143-.275-.222-.13-.338.621-.67,1.247-1.049,1.843a13.922,13.922,0,0,1-1.277,1.679c-.108.124.073.306.182.182" transform="translate(-345.067 -386.635)" fill="#2b244a"/>
            <path id="Caminho_770987" data-name="Caminho 770987" d="M641.244,498.886a45.935,45.935,0,0,1,3.915,6.565q.487,1,.935,2.018c.067.151.288.02.222-.13a48.361,48.361,0,0,0-3.579-6.717q-.613-.948-1.271-1.865c-.1-.133-.318-.005-.222.13" transform="translate(-552.165 -429.439)" fill="#2b244a"/>
            <path id="Caminho_770988" data-name="Caminho 770988" d="M706.379,506.306c-.5.424-.986,1.323-.35,1.855.58.484,1.533.206,2.17.006.5-.156.983-.347,1.47-.533.153-.058.087-.306-.068-.247-.462.176-.922.357-1.393.508a4.36,4.36,0,0,1-1.324.265c-.376,0-.833-.128-.894-.563a1.35,1.35,0,0,1,.571-1.11c.126-.107-.056-.288-.182-.182" transform="translate(-607.712 -435.961)" fill="#2b244a"/>
            <path id="Caminho_770989" data-name="Caminho 770989" d="M716.086,519.831a1.336,1.336,0,0,0,.044,1.117.9.9,0,0,0,.565.434.132.132,0,0,0,.158-.09.13.13,0,0,0-.09-.158.482.482,0,0,1-.055-.014l-.029-.01c-.031-.01.016.008-.008,0a.845.845,0,0,1-.117-.067.736.736,0,0,1-.108-.1.6.6,0,0,1-.094-.126,1.106,1.106,0,0,1-.018-.92c.054-.156-.194-.223-.248-.068" transform="translate(-616.546 -447.56)" fill="#2b244a"/>
            <path id="Caminho_770990" data-name="Caminho 770990" d="M741.026,495.164a4.8,4.8,0,0,0,2.072-2.442c.039-.161-.208-.229-.247-.068a4.527,4.527,0,0,1-1.954,2.289c-.13.1,0,.322.13.222" transform="translate(-637.951 -424.153)" fill="#2b244a"/>
            <path id="Caminho_770991" data-name="Caminho 770991" d="M701.845,487.847a13.074,13.074,0,0,0,2.005,1.117c.342.153.691.292,1.045.415a6.033,6.033,0,0,0,1.117.311c.594.085,1.336-.139,1.435-.822s-.506-1.28-.937-1.727a13.188,13.188,0,0,0-1.945-1.654c-.136-.095-.264.128-.13.222A12.815,12.815,0,0,1,706,487c.246.237.486.483.709.742a1.977,1.977,0,0,1,.462.792.691.691,0,0,1-.336.791,1.328,1.328,0,0,1-.932.089,9.568,9.568,0,0,1-1.928-.669,13.089,13.089,0,0,1-2.005-1.117c-.137-.093-.266.129-.13.222" transform="translate(-604.32 -418.041)" fill="#2b244a"/>
            <path id="Caminho_770992" data-name="Caminho 770992" d="M728.636,488.3a10.3,10.3,0,0,1,.912-.575.128.128,0,0,0-.13-.222,10.286,10.286,0,0,0-.912.575.132.132,0,0,0-.046.176.129.129,0,0,0,.176.046" transform="translate(-627.274 -419.785)" fill="#2b244a"/>
            <path id="Caminho_770993" data-name="Caminho 770993" d="M388.074,322.36a5.011,5.011,0,0,1,2.068-2.244,6,6,0,0,1,6,.368,5.63,5.63,0,0,1,2.64,3.734,18.825,18.825,0,0,1,.355,3.824,43.724,43.724,0,0,1,.369,4.416c-.049,2.064-1.178,3.566-3.439,3.256-4.839-.662-8.406-5.556-8.583-10.263a6.642,6.642,0,0,1,.593-3.092" transform="translate(-333.662 -275.101)" fill="#ed7549"/>
            <path id="Caminho_770994" data-name="Caminho 770994" d="M464.841,366.906s1.1,1.754,2.182,3.465c.257.407-1.625,1.212-1.625,1.212Z" transform="translate(-400.282 -315.949)" fill="#ed7549"/>
            <path id="Caminho_770995" data-name="Caminho 770995" d="M460.584,376.174c-.556.03-.446.826-.33,1.143.075.206.222.446.473.428.366-.026.366-.525.34-.791-.029-.3-.119-.8-.483-.78" transform="translate(-396.251 -323.93)" fill="#331c1c"/>
            <path id="Caminho_770996" data-name="Caminho 770996" d="M452.344,363.452c-.078.742-.832.357-1.621.742-.725.355-1.265.389-1.363-.012-.119-.484.488-1.2,1.594-1.422,1.036-.207,1.447.151,1.39.692" transform="translate(-386.938 -312.327)" fill="#422b2b"/>
            <path id="Caminho_770997" data-name="Caminho 770997" d="M463.132,404.588a2.338,2.338,0,0,1-1.765-1.37,13.555,13.555,0,0,0,1.741.253,8.52,8.52,0,0,1,.023,1.116" transform="translate(-397.29 -347.218)" fill="#422b2b"/>
            <path id="Caminho_770998" data-name="Caminho 770998" d="M351.636,323.449c-1.245-2.117-3.338-4.353-6.055-3.928-1.114.174-2.419.994-2.106,2.3a3.136,3.136,0,0,0,2.786,2.033c1.452.194,2.881-.285,4.329-.16.071.116.142.231.21.348a.518.518,0,0,0,.716.12.524.524,0,0,0,.12-.716" transform="translate(-295.731 -275.1)" fill="#422b2b"/>
            <path id="Caminho_770999" data-name="Caminho 770999" d="M391.188,317.349a5.473,5.473,0,0,1,3.918,3.7,12.42,12.42,0,0,1-4,3.565c-.4.23-1.442.922-1.72,1.1l-4.62,1.889s-2.647-5.143.182-8.384a5.8,5.8,0,0,1,6.245-1.872" transform="translate(-330.355 -273.057)" fill="#422b2b"/>
            <path id="Caminho_771000" data-name="Caminho 771000" d="M302.645,375.225s.725,2.995-1.8,3.85c-1.76.6-7.229-.385-11.575,2.535,0,0,7.848,3.771,13.414,1.643s5.058-7.939,5.058-7.939Z" transform="translate(-249.096 -323.113)" fill="#422b2b"/>
            <path id="Caminho_771001" data-name="Caminho 771001" d="M419.374,373.4a1.943,1.943,0,1,1-1.943-1.943,1.943,1.943,0,0,1,1.943,1.943" transform="translate(-357.784 -319.87)" fill="#ed7549"/>
            <path id="Caminho_771002" data-name="Caminho 771002" d="M419.735,418.073a5.625,5.625,0,0,0,1.856,2.022c.139.09.268-.132.13-.222a5.358,5.358,0,0,1-1.764-1.93c-.08-.144-.3-.015-.222.13" transform="translate(-361.425 -359.844)" fill="#2b244a"/>
            <path id="Caminho_771003" data-name="Caminho 771003" d="M421.427,377.974a1.393,1.393,0,0,1,.752-1.622c.149-.071.019-.292-.129-.222a1.649,1.649,0,0,0-.87,1.912.128.128,0,0,0,.247-.068" transform="translate(-362.635 -323.881)" fill="#2b244a"/>
            <path id="Caminho_771004" data-name="Caminho 771004" d="M417.578,449.153c.114,1.391.188,2.786.326,4.175.016.163.273.165.257,0-.138-1.389-.212-2.784-.326-4.175-.013-.163-.27-.165-.257,0" transform="translate(-359.582 -386.667)" fill="#2b244a"/>
            <path id="Caminho_771005" data-name="Caminho 771005" d="M420.153,467.391a6.774,6.774,0,0,0,1.308-1.939c.067-.15-.155-.28-.222-.13a6.574,6.574,0,0,1-1.268,1.887c-.115.119.067.3.182.181" transform="translate(-361.613 -400.639)" fill="#2b244a"/>
            <path id="Caminho_771006" data-name="Caminho 771006" d="M1376.458,240.232l-1.056-6.856-7.053,5,1.015,6.138Z" transform="translate(-1178.306 -200.964)" fill="#ff9c7a"/>
            <path id="Caminho_771007" data-name="Caminho 771007" d="M1328.872,164.428c-.305,3.287-.581,10.807,2.211,12.168s8.741-3.6,10.05-8.994.094-9.4-4.42-9.617-7.352,1.161-7.842,6.443" transform="translate(-1144.154 -136.026)" fill="#ff9c7a"/>
            <path id="Caminho_771008" data-name="Caminho 771008" d="M1332.2,262.652a5.043,5.043,0,0,1-.861.615.128.128,0,0,0,.13.222,5.4,5.4,0,0,0,.913-.655.128.128,0,1,0-.182-.182" transform="translate(-1146.38 -226.143)" fill="#2b244a"/>
            <path id="Caminho_771009" data-name="Caminho 771009" d="M1323.09,222.334s-.7,2.218-1.389,4.386c-.165.515,2.111.857,2.111.857Z" transform="translate(-1138.13 -191.456)" fill="#ff9c7a"/>
            <path id="Caminho_771010" data-name="Caminho 771010" d="M1334.874,148.284c-1.192-1.888-2.5-1.174-3.046-.743a7.566,7.566,0,0,0-3.984-1.095,1.892,1.892,0,0,0-1.768,2.3s-2.312-.157-2.844.66a1.49,1.49,0,0,0,.1,1.837h0a2.415,2.415,0,0,0-1.022,1.958c.036.7.315,2.377,2.7,2.19,1.382-.109,1.342,3.239,1.342,3.239l1.309.925a8,8,0,0,0,8.384.823l-.121-3.014s.67-3.938.8-5.573c.159-2.076-.121-3.35-1.845-3.5" transform="translate(-1138.66 -126.089)" fill="#422b2b"/>
            <path id="Caminho_771011" data-name="Caminho 771011" d="M1342.346,224.495a2.183,2.183,0,1,1-2.663-1.561,2.183,2.183,0,0,1,2.663,1.561" transform="translate(-1152.216 -191.911)" fill="#ff9c7a"/>
            <path id="Caminho_771012" data-name="Caminho 771012" d="M1330.278,228.363c.5-.036.478.816.4,1.163-.049.226-.16.5-.388.509-.334.018-.379-.508-.38-.791,0-.316.034-.857.365-.881" transform="translate(-1145.209 -196.647)" fill="#331c1c"/>
            <path id="Caminho_771013" data-name="Caminho 771013" d="M1329.215,212.6c.008.463-.588.58-1.479.4a1.236,1.236,0,0,0-.152-.023,1.2,1.2,0,0,1,.08-1.454c.94.109,1.542.611,1.551,1.08" transform="translate(-1143.026 -182.146)" fill="#422b2b"/>
            <path id="Caminho_771014" data-name="Caminho 771014" d="M1356.354,230.749a1.8,1.8,0,0,0-.035-1.2,1.669,1.669,0,0,0-.773-.836c-.146-.077-.276.145-.13.222a1.415,1.415,0,0,1,.665.706,1.56,1.56,0,0,1,.025,1.041.129.129,0,0,0,.248.068" transform="translate(-1167.115 -196.934)" fill="#2b244a"/>
            <path id="Caminho_771015" data-name="Caminho 771015" d="M1271.863,1460.167l.408-3.526-11.069-1.6-.317,3.436s.428,3.322,4.992,3.432,5.985-1.74,5.985-1.74" transform="translate(-1085.769 -1252.958)" fill="#ffede4"/>
            <path id="Caminho_771016" data-name="Caminho 771016" d="M1211.177,1479.781s-6.49,3.744-7.513,5.1a1.945,1.945,0,0,0-.171,2.413h17.745s.161-.894.917-5.824a26.239,26.239,0,0,1-5.227.153c-2.726-.216-3.9-1.766-5.75-1.844" transform="translate(-1036.06 -1274.264)" fill="#422b2b"/>
            <path id="Caminho_771017" data-name="Caminho 771017" d="M1202.984,1522.065h18.137a.128.128,0,0,0,0-.257h-18.137a.128.128,0,0,0,0,.257" transform="translate(-1035.802 -1310.454)" fill="#fae8e0"/>
            <path id="Caminho_771018" data-name="Caminho 771018" d="M1508.49,1446.583l-.305-3.971-11.245-1.162.471,3.436s.693,3.322,5.266,3.432,5.813-1.735,5.813-1.735" transform="translate(-1289.039 -1241.256)" fill="#ffede4"/>
            <path id="Caminho_771019" data-name="Caminho 771019" d="M1453.78,1466.192s-6.192,3.744-7.107,5.1a1.966,1.966,0,0,0,.021,2.413h18.623s-.15-1.545-.458-5.819a25.752,25.752,0,0,1-5.182.147c-2.744-.216-4.04-1.766-5.9-1.844" transform="translate(-1245.407 -1262.562)" fill="#422b2b"/>
            <path id="Caminho_771020" data-name="Caminho 771020" d="M1445.853,1508.475h18.792a.128.128,0,0,0,0-.256h-18.792a.128.128,0,0,0,0,.256" transform="translate(-1244.94 -1298.752)" fill="#fae8e0"/>
            <path id="Caminho_771021" data-name="Caminho 771021" d="M1308.494,1497.316a6.213,6.213,0,0,1,3.992-3.815c.157-.048.091-.3-.068-.247a6.483,6.483,0,0,0-4.171,3.994c-.055.156.193.223.248.068" transform="translate(-1126.545 -1285.861)" fill="#fae8e0"/>
            <path id="Caminho_771022" data-name="Caminho 771022" d="M1555.594,1483.45a4.9,4.9,0,0,1,3.162-3.888c.155-.055.088-.3-.068-.248a5.17,5.17,0,0,0-3.35,4.136c-.022.163.235.161.257,0" transform="translate(-1339.325 -1273.855)" fill="#fae8e0"/>
            <path id="Caminho_771023" data-name="Caminho 771023" d="M1465.507,1471.213c2.516.311,4.652-1.328,6.5-2.8.129-.1-.053-.284-.182-.182-1.8,1.434-3.871,3.029-6.318,2.727-.164-.02-.162.237,0,.257" transform="translate(-1261.866 -1264.29)" fill="#fae8e0"/>
            <path id="Caminho_771024" data-name="Caminho 771024" d="M1225.719,1484.8c2.516.311,4.652-1.328,6.5-2.8.129-.1-.054-.284-.182-.182-1.8,1.434-3.871,3.029-6.318,2.727-.164-.02-.162.237,0,.257" transform="translate(-1055.381 -1275.993)" fill="#fae8e0"/>
            <path id="Caminho_771025" data-name="Caminho 771025" d="M1303.734,671.046a102.642,102.642,0,0,1-1.328-12.031c-.172-6.059-2.1-23.574-2.174-37.919-.071-14.582-4.175-20.438-4.175-20.438l-20.47-1.438c-6.1,24.338-7.824,36.947-10.559,61.225-2.049,18.2-3.384,59.674-3.384,59.674h12.046c2.019-8.7,10.44-56.564,11-59.668,2.9,20.674,4.164,36.777,8.573,57.78l13.622-.153a311.956,311.956,0,0,0-3.155-47.034" transform="translate(-1086.422 -515.998)" fill="url(#linear-gradient-11)"/>
            <path id="Caminho_771026" data-name="Caminho 771026" d="M1371.489,267.368a13.733,13.733,0,0,1,2.074-2.724c.708-.724,2.753-2.787,5.177-2.94.616-.039,1,1.118,1.519,2.053,2.374,4.244-2.32,6.116-2.95,6s-5.82-2.389-5.82-2.389" transform="translate(-1181.011 -225.357)" fill="#ffd6c2"/>
            <path id="Caminho_771027" data-name="Caminho 771027" d="M1103.577,566.653a41.843,41.843,0,0,0-6.973,6.015c-2.575,3.026-7.244,8.446-7.4,9.647-.165,1.262,1.734,1.334,2.6.9.623-.312,4.623-3.178,4.623-3.178a1.856,1.856,0,0,0,1.293,1.435s.127.9,1.615.964c1.016.041,2.448-.98,3.633-1.943a2.044,2.044,0,0,0,.757-1.761l5.3-4.49Z" transform="translate(-937.921 -487.955)" fill="#ff9c7a"/>
            <path id="Caminho_771028" data-name="Caminho 771028" d="M1195.416,553.315l-2.656,1.852a37.159,37.159,0,0,0,6.113,8.68l2.81-1.6Z" transform="translate(-1027.104 -476.469)" fill="#ffd6c2"/>
            <path id="Caminho_771029" data-name="Caminho 771029" d="M1231.888,447.7l-20,14.669a53.707,53.707,0,0,0,7.03,10.64l15.606-8.787Z" transform="translate(-1043.576 -385.521)" fill="url(#linear-gradient-12)"/>
            <path id="Caminho_771030" data-name="Caminho 771030" d="M1334.724,286.667a15.53,15.53,0,0,0-10.813,2.494c-8.093,4.466-6.051,19.567-5.227,25.213.3,5.724-2.821,21.381-2.262,26.651a7.656,7.656,0,0,0,6.1,6.5c5.779,1.2,19.22,1.507,27.433-.3-.862-21.442-2.011-30.218-2.823-37.121-1.75-14.877-8.028-22.752-12.4-23.437" transform="translate(-1133.534 -246.708)" fill="url(#linear-gradient-13)"/>
            <path id="Caminho_771031" data-name="Caminho 771031" d="M1337.1,699.985l-.722,2.3s1.234,4.053,6.2,8.639l3.384-7.062Z" transform="translate(-1150.78 -602.769)" fill="#ff9c7a"/>
            <path id="Caminho_771032" data-name="Caminho 771032" d="M1342.931,674.2l-1.348,3.581,9.93,4.561,2.053-3.523Z" transform="translate(-1155.259 -580.565)" fill="#ffd6c2"/>
            <path id="Caminho_771033" data-name="Caminho 771033" d="M1353.288,631.454l-2,5.937,12.033,5.753,5.057-10.007Z" transform="translate(-1163.613 -543.756)" fill="url(#linear-gradient-14)"/>
            <path id="Caminho_771034" data-name="Caminho 771034" d="M1428.487,677.744a1.015,1.015,0,1,1-1.015-1.015,1.015,1.015,0,0,1,1.015,1.015" transform="translate(-1228.345 -582.743)" fill="#ffd6c2"/>
            <path id="Caminho_771035" data-name="Caminho 771035" d="M1443.106,650.63a1.015,1.015,0,1,1-1.015-1.015,1.015,1.015,0,0,1,1.015,1.015" transform="translate(-1240.934 -559.394)" fill="#ffd6c2"/>
            <path id="Caminho_771036" data-name="Caminho 771036" d="M1425.859,710.206c.529.226,1.039.5,1.588.672.158.05.225-.2.068-.247-.528-.169-1.019-.429-1.527-.647a.133.133,0,0,0-.176.046.129.129,0,0,0,.046.176" transform="translate(-1227.776 -611.367)" fill="#fae8e0"/>
            <path id="Caminho_771037" data-name="Caminho 771037" d="M1438.084,366.258q3.85,6.491,7.236,13.25a22.97,22.97,0,0,1,2.4,6.247,10.472,10.472,0,0,1-.063,4.367,32.289,32.289,0,0,1-1.027,3.116c-.524,1.408-1.088,2.8-1.667,4.187-1.317,3.152-2.716,6.269-4.156,9.366-1.126,2.423-2.265,4.843-3.493,7.216q-.141.272-.285.543c-.077.145.144.275.222.129,1.181-2.213,2.248-4.489,3.312-6.759,1.461-3.115,2.878-6.251,4.223-9.417a72.447,72.447,0,0,0,2.973-7.783,11.784,11.784,0,0,0,.294-1.18,9.948,9.948,0,0,0,.091-2.232,16.655,16.655,0,0,0-1.856-6.416c-2.123-4.443-4.5-8.78-6.97-13.04q-.5-.864-1.01-1.723a.128.128,0,0,0-.222.13" transform="translate(-1237.433 -315.227)" fill="#fae8e0"/>
            <path id="Caminho_771038" data-name="Caminho 771038" d="M1350.579,550.792c.416-1,.824-2.009,1.232-3.015q.815-2.012,1.624-4.026.9-2.242,1.8-4.484.868-2.157,1.741-4.312.728-1.8,1.467-3.588l.151-.365c.063-.152-.185-.219-.247-.068q-.717,1.723-1.416,3.454-.863,2.124-1.718,4.252-.906,2.248-1.809,4.5-.827,2.057-1.657,4.113-.643,1.589-1.294,3.175l-.124.3c-.063.152.185.219.248.068" transform="translate(-1162.783 -457.123)" fill="#fae8e0"/>
            <path id="Caminho_771039" data-name="Caminho 771039" d="M1374.836,456.587c1.124,2.477,2.158,4.994,3.288,7.468q.656,1.436,1.338,2.86c.071.149.293.019.222-.13-1.34-2.8-2.575-5.642-3.811-8.487q-.4-.923-.815-1.841c-.068-.15-.29-.02-.222.13" transform="translate(-1183.882 -393.006)" fill="#fae8e0"/>
            <path id="Caminho_771040" data-name="Caminho 771040" d="M1150.616,633.1a1.262,1.262,0,0,0,1.038-.59,3.744,3.744,0,0,0,.462-1.425l.555-2.76.339-1.684c.032-.161-.215-.23-.247-.068l-.526,2.614-.258,1.285a12.489,12.489,0,0,1-.312,1.419c-.153.47-.5.962-1.05.952a.128.128,0,0,0,0,.257" transform="translate(-990.707 -539.477)" fill="#2b244a"/>
            <path id="Caminho_771041" data-name="Caminho 771041" d="M1138.721,629.916a24.27,24.27,0,0,0,.131,4.426c.02.162.277.164.257,0a24.292,24.292,0,0,1-.131-4.426c.01-.165-.246-.164-.256,0" transform="translate(-980.53 -542.325)" fill="#2b244a"/>
            <path id="Caminho_771042" data-name="Caminho 771042" d="M1185.219,645.947a1.609,1.609,0,0,1,.523.371,1.452,1.452,0,0,1,.316.534.131.131,0,0,0,.158.09.129.129,0,0,0,.089-.158,1.78,1.78,0,0,0-.956-1.058.132.132,0,0,0-.176.046.129.129,0,0,0,.046.176" transform="translate(-1020.557 -556.032)" fill="#2b244a"/>
            <path id="Caminho_771043" data-name="Caminho 771043" d="M1166.969,612.413a6.7,6.7,0,0,0,4.356-2.341c.105-.126-.075-.308-.182-.181a6.447,6.447,0,0,1-4.175,2.266c-.162.019-.164.276,0,.257" transform="translate(-1004.791 -525.15)" fill="#2b244a"/>
            <path id="Caminho_771044" data-name="Caminho 771044" d="M1158.173,636.457c.479-.316.949-.661,1.449-.943a.966.966,0,0,1,.845-.127.859.859,0,0,1,.51.64,1.638,1.638,0,0,1-.7,1.5,17.772,17.772,0,0,1-1.455,1.073c-.556.39-1.116.775-1.663,1.179-.131.1,0,.32.129.222.554-.409,1.121-.8,1.685-1.194a14.748,14.748,0,0,0,1.582-1.185,1.808,1.808,0,0,0,.671-1.661,1.087,1.087,0,0,0-1.31-.85,3.329,3.329,0,0,0-.972.534l-.9.593c-.137.09-.009.313.13.222" transform="translate(-996.398 -546.877)" fill="#2b244a"/>
            <path id="Caminho_771045" data-name="Caminho 771045" d="M1364.84,279.536s4.114-3.929,8.832-4.543c1.764-.23,2.467,1.758,2.467,1.758s-6.111,3.93-11.3,2.786" transform="translate(-1175.286 -236.785)" fill="#fba4b0"/>
            <path id="Caminho_771046" data-name="Caminho 771046" d="M1365.591,289.7a44.759,44.759,0,0,1,8.364-2.446q1.219-.2,2.454-.286c.164-.011.165-.268,0-.257a33,33,0,0,0-8.481,1.871c-.807.277-1.607.57-2.405.87-.153.058-.087.306.068.248" transform="translate(-1175.798 -246.894)" fill="#fae8e0"/>
            <path id="Caminho_771047" data-name="Caminho 771047" d="M1435.045,787.89q-.614,3.279-1.272,6.549-.717,3.57-1.473,7.133-.781,3.678-1.6,7.346-.785,3.492-1.62,6.972c-.5,2.08-1.018,4.157-1.568,6.226q-.091.341-.182.682a.128.128,0,0,0,.247.068c.546-2.024,1.058-4.058,1.554-6.095q.837-3.443,1.617-6.9.83-3.661,1.613-7.333.767-3.585,1.493-7.178.671-3.323,1.3-6.653.071-.375.141-.749c.03-.161-.217-.231-.247-.068" transform="translate(-1229.087 -678.385)" fill="#2b244a"/>
            <path id="Caminho_771048" data-name="Caminho 771048" d="M1262.9,1445.681h12.2a.128.128,0,0,0,0-.257h-12.2a.128.128,0,0,0,0,.257" transform="translate(-1087.399 -1244.678)" fill="#2b244a"/>
            <path id="Caminho_771049" data-name="Caminho 771049" d="M1485.175,1432.092h13.535a.128.128,0,0,0,0-.257h-13.535a.128.128,0,0,0,0,.257" transform="translate(-1278.801 -1232.976)" fill="#2b244a"/>
            <path id="Caminho_771050" data-name="Caminho 771050" d="M1335.2,715.043a20.364,20.364,0,0,0,5.157,7.692c.623.638,1.262,1.259,1.906,1.876.119.115.3-.067.182-.181a30.583,30.583,0,0,1-5.961-7.074,13.9,13.9,0,0,1-1.037-2.381c-.051-.156-.3-.09-.247.068" transform="translate(-1149.758 -615.6)" fill="#2b244a"/>
            <path id="Caminho_771051" data-name="Caminho 771051" d="M1322.954,465.683a55.083,55.083,0,0,1,.119,6.114c-.079,2.388-.282,4.77-.55,7.143-.177,1.569-.383,3.134-.608,4.7-.023.162.224.231.247.068.381-2.655.714-5.318.935-7.992.183-2.215.29-4.438.263-6.661q-.021-1.686-.15-3.369c-.013-.164-.269-.165-.257,0" transform="translate(-1138.32 -400.902)" fill="#fae8e0"/>
          </g>
        </g>
      </g>
    </g>
  </g>
</svg>
