<svg xmlns="http://www.w3.org/2000/svg" xmlns:xlink="http://www.w3.org/1999/xlink" width="399.002" height="284.125" viewBox="0 0 399.002 284.125">
  <defs>
    <linearGradient id="linear-gradient" x1="0.973" y1="1" x2="0" y2="1" gradientUnits="objectBoundingBox">
      <stop offset="0" stop-color="#fff" stop-opacity="0"/>
      <stop offset="0.159" stop-color="#fff" stop-opacity="0.408"/>
      <stop offset="0.414" stop-color="#95ebff"/>
      <stop offset="0.598" stop-color="#3db8f9"/>
      <stop offset="0.82" stop-color="#1b74d8"/>
      <stop offset="1" stop-color="#0024a8"/>
    </linearGradient>
    <linearGradient id="linear-gradient-2" x1="0.027" y1="0" x2="1" y2="0" xlink:href="#linear-gradient"/>
    <clipPath id="clip-path">
      <rect id="Retângulo_124920" data-name="Retângulo 124920" width="358.943" height="277.528" fill="none"/>
    </clipPath>
    <linearGradient id="linear-gradient-3" x1="0.5" x2="0.5" y2="1" gradientUnits="objectBoundingBox">
      <stop offset="0" stop-color="#c95ee9"/>
      <stop offset="1" stop-color="#9d7df6"/>
    </linearGradient>
  </defs>
  <g id="_Ilustração_lateral_direita_1_" data-name="&lt;Ilustração lateral direita_1&gt;" transform="translate(-473 -3412.406)">
    <g id="Grupo_232275" data-name="Grupo 232275" transform="translate(-13 1850.854)">
      <g id="Grupo_232248" data-name="Grupo 232248" transform="translate(-54 -235)">
        <g id="GettyImages-1412762526" transform="translate(703.31 1817.849)" fill="none">
          <path d="M-105.227.151,235.692,0,177.924,260.087l-341.233-.2Z" stroke="none"/>
          <path d="M 233.1991882324219 2.0010986328125 L -103.624267578125 2.1500244140625 L -160.8132629394531 257.8894348144531 L 176.3195343017578 258.0863647460938 L 233.1991882324219 2.0010986328125 M 235.6923675537109 0 L 177.923828125 260.0872802734375 L -163.3095855712891 259.8880004882812 L -105.2265777587891 0.150726318359375 L 235.6923675537109 0 Z" stroke="none" fill="#0024a9"/>
        </g>
      </g>
      <g id="Grupo_232268" data-name="Grupo 232268" transform="translate(-9503.485 1725.552)">
        <path id="Caminho_734262" data-name="Caminho 734262" d="M4.668-.459H138.562L133.487,20.9H0Z" transform="translate(10249.926 -163.541)" fill="url(#linear-gradient)"/>
        <path id="Caminho_734263" data-name="Caminho 734263" d="M133.894,20.9H0L5.075-.459H138.562Z" transform="translate(10249.926 -142.311)" fill="url(#linear-gradient-2)"/>
      </g>
    </g>
    <g id="Grupo_234139" data-name="Grupo 234139" transform="translate(501.744 3419.004)">
      <g id="Grupo_233978" data-name="Grupo 233978" transform="translate(0 0)" clip-path="url(#clip-path)">
        <path id="Caminho_770398" data-name="Caminho 770398" d="M176.847,197.7c7.535,44.27-25.706,80.157-74.247,80.157S8.6,241.966,1.066,197.7s25.706-80.157,74.246-80.157,94,35.887,101.535,80.157" transform="translate(0 -75.648)" fill="#0024a9"/>
        <path id="Caminho_770399" data-name="Caminho 770399" d="M187.05,174.8c7.535,44.27-25.706,80.157-74.247,80.157S18.8,219.066,11.269,174.8,36.975,94.639,85.516,94.639s94,35.888,101.534,80.157" transform="translate(-6.567 -60.91)" fill="#40bbff"/>
        <path id="Caminho_770400" data-name="Caminho 770400" d="M179.16,306.173A68.018,68.018,0,0,1,146.22,336c-15.385,6.732-32.791,8.232-49.3,5.727a108.716,108.716,0,0,1-44.59-17.636,102.454,102.454,0,0,1-31.91-34.284c-8.453-15.1-12.6-32.934-9.693-50.147a66.453,66.453,0,0,1,1.569-6.954.535.535,0,0,0-1.031-.284,70.483,70.483,0,0,0-1.5,30.625,82.954,82.954,0,0,0,7.008,22.041,95.075,95.075,0,0,0,12.7,19.738,106.491,106.491,0,0,0,17.32,16.581,110.952,110.952,0,0,0,20.868,12.583,108.717,108.717,0,0,0,23.386,7.761,101.377,101.377,0,0,0,25.187,2.074,87.281,87.281,0,0,0,25.112-4.763,74.5,74.5,0,0,0,20.728-11.178,66.783,66.783,0,0,0,15.244-16.474q1.484-2.289,2.768-4.7c.325-.607-.6-1.147-.923-.54" transform="translate(-5.635 -149.345)" fill="#0e1126"/>
        <path id="Caminho_770401" data-name="Caminho 770401" d="M201.769,204.083c6.011,35.313-20.505,63.939-59.225,63.939S67.564,239.4,61.553,204.083s20.5-63.939,59.225-63.939,74.981,28.627,80.992,63.939" transform="translate(-39.069 -90.197)" fill="#fff"/>
        <path id="Caminho_770402" data-name="Caminho 770402" d="M214.891,230.191c4.652,27.328-15.869,49.482-45.833,49.482s-58.027-22.154-62.678-49.482,15.869-49.482,45.833-49.482,58.027,22.154,62.678,49.482" transform="translate(-68.043 -116.305)" fill="#9285f9"/>
        <path id="Caminho_770403" data-name="Caminho 770403" d="M229.168,258.6c3.173,18.64-10.824,33.751-31.262,33.751s-39.58-15.111-42.753-33.751,10.824-33.751,31.263-33.751S226,239.959,229.168,258.6" transform="translate(-99.568 -144.713)" fill="#fff"/>
        <path id="Caminho_770404" data-name="Caminho 770404" d="M244.937,289.974c1.54,9.045-5.252,16.378-15.17,16.378s-19.206-7.333-20.745-16.378,5.252-16.377,15.17-16.377,19.206,7.332,20.745,16.377" transform="translate(-134.387 -176.088)" fill="#cd5be8"/>
        <path id="Caminho_770405" data-name="Caminho 770405" d="M301.728,9.935,293.488.479a1.392,1.392,0,0,0-2.416.653L285.51,30.2l9.127,8.438Z" transform="translate(-183.755 0)" fill="#cd5be8"/>
        <path id="Caminho_770406" data-name="Caminho 770406" d="M318.188,19.486l11.692-4.541a1.392,1.392,0,0,1,1.836,1.7l-8.594,28.324-12,3.227Z" transform="translate(-200.237 -9.556)" fill="#cd5be8"/>
        <path id="Caminho_770407" data-name="Caminho 770407" d="M335.969,34.768l9.49-3.843c.63-.255.355-1.289-.284-1.031l-9.49,3.843c-.63.255-.355,1.29.284,1.031" transform="translate(-215.819 -19.214)" fill="#0e1126"/>
        <path id="Caminho_770408" data-name="Caminho 770408" d="M332.112,52.3l9.011-3.649c.629-.255.354-1.29-.284-1.031l-9.011,3.649c-.629.255-.354,1.29.284,1.031" transform="translate(-213.336 -30.62)" fill="#0e1126"/>
        <path id="Caminho_770409" data-name="Caminho 770409" d="M299.74,50.747l-5.965-5.556c-.5-.469-1.261.286-.756.756l5.966,5.556c.5.469,1.261-.286.756-.756" transform="translate(-188.481 -28.99)" fill="#0e1126"/>
        <path id="Caminho_770410" data-name="Caminho 770410" d="M296.782,67.775,290.58,62c-.5-.469-1.261.286-.756.756l6.2,5.776c.5.469,1.261-.286.756-.756" transform="translate(-186.424 -39.807)" fill="#0e1126"/>
        <path id="Caminho_770411" data-name="Caminho 770411" d="M255.578,127.98a1.783,1.783,0,0,1-1.731-2.211L279.808,21.116a1.782,1.782,0,0,1,3.459.858L257.306,126.627a1.782,1.782,0,0,1-1.728,1.353" transform="translate(-163.343 -12.719)" fill="#0e1126"/>
        <path id="Caminho_770412" data-name="Caminho 770412" d="M253.093,280.43l8.893,2.483a.929.929,0,0,1,.527,1.4l-6.42,9.809a.929.929,0,0,1-1.027.386L253.6,294.1a.928.928,0,0,1-.676-.816l-1.01-11.883a.929.929,0,0,1,1.175-.973" transform="translate(-162.133 -180.463)" fill="#e5e3f2"/>
        <path id="Caminho_770413" data-name="Caminho 770413" d="M415.916,94.877l-2.244-12.34a1.392,1.392,0,0,0-2.41-.675L391.614,104l3.527,11.919Z" transform="translate(-252.044 -52.384)" fill="#9285f9"/>
        <path id="Caminho_770414" data-name="Caminho 770414" d="M422.268,119.186l12.37,2.078a1.392,1.392,0,0,1,.707,2.4l-21.871,19.943-11.966-3.367Z" transform="translate(-258.412 -76.708)" fill="#9285f9"/>
        <path id="Caminho_770415" data-name="Caminho 770415" d="M249.781,189.286a1.782,1.782,0,0,1-1.266-3.036l75.655-76.408a1.782,1.782,0,0,1,2.533,2.507l-75.655,76.408a1.776,1.776,0,0,1-1.266.528" transform="translate(-159.613 -70.355)" fill="#0e1126"/>
        <path id="Caminho_770416" data-name="Caminho 770416" d="M253.326,297.171l6.377,6.677a.928.928,0,0,1-.263,1.475l-10.529,5.154a.929.929,0,0,1-1.08-.193l-1.05-1.1a.928.928,0,0,1-.164-1.046l5.2-10.732a.929.929,0,0,1,1.507-.236" transform="translate(-158.664 -191.075)" fill="#e5e3f2"/>
        <path id="Caminho_770417" data-name="Caminho 770417" d="M456.288,134.026l10.121,1.552c.673.1.963-.927.284-1.031l-10.121-1.552c-.673-.1-.963.927-.284,1.031" transform="translate(-293.419 -85.591)" fill="#0e1126"/>
        <path id="Caminho_770418" data-name="Caminho 770418" d="M444.187,146.816l9.61,1.473c.673.1.963-.927.284-1.031l-9.61-1.473c-.673-.1-.963.927-.284,1.031" transform="translate(-285.631 -93.823)" fill="#0e1126"/>
        <path id="Caminho_770419" data-name="Caminho 770419" d="M420.613,123.259l-2.284-7.826a.535.535,0,0,0-1.031.284l2.284,7.825a.535.535,0,0,0,1.031-.284" transform="translate(-268.559 -74.051)" fill="#0e1126"/>
        <path id="Caminho_770420" data-name="Caminho 770420" d="M409.361,136.377l-2.375-8.136a.535.535,0,0,0-1.031.284l2.375,8.135a.535.535,0,0,0,1.031-.284" transform="translate(-261.259 -82.295)" fill="#0e1126"/>
        <path id="Caminho_770421" data-name="Caminho 770421" d="M254.854,301.678a44.566,44.566,0,0,1,2.263-3.9,2.717,2.717,0,0,1,.53-.66c.227-.172.424-.018.62.136.626.491,1.213,1.044,1.787,1.594.5.476,1.254-.279.756-.756a20.2,20.2,0,0,0-2.048-1.8,1.485,1.485,0,0,0-2.135.349,28.754,28.754,0,0,0-2.7,4.5c-.329.6.594,1.145.923.54" transform="translate(-163.386 -190.493)" fill="#0e1126"/>
        <path id="Caminho_770422" data-name="Caminho 770422" d="M717.876,530.757s49.833,25.3,46.216,57.446-62.246,35.532-88.413-3.986Z" transform="translate(-434.869 -341.597)" fill="#ff9766"/>
        <path id="Caminho_770423" data-name="Caminho 770423" d="M801.53,686.887q6.319,8.762,12.663,17.508,1.791,2.476,3.579,4.955c.4.553,1.327.02.923-.54q-6.319-8.763-12.663-17.508-1.791-2.476-3.579-4.955c-.4-.553-1.327-.02-.923.54" transform="translate(-515.803 -441.585)" fill="#0e1126"/>
        <path id="Caminho_770424" data-name="Caminho 770424" d="M465.561,310c-1.9,5.018-4.213,9.992-7.743,14.089-3.235,3.755-37.91-5.785-42.5-3.972a43.559,43.559,0,0,1-13.7,2.86,28.6,28.6,0,0,1,1.845-12.652,46.062,46.062,0,0,1,7.662-12.88,149.173,149.173,0,0,1,10.491-11.169,124.02,124.02,0,0,0,10.056-10.925,45.216,45.216,0,0,0,7.154-12.337c.186-.511.357-1.027.518-1.546,1.512.643,33.489,13.6,35,14.241a165.7,165.7,0,0,1-3.478,17.442,158.4,158.4,0,0,1-5.3,16.847" transform="translate(-258.412 -168.282)" fill="#0e1126"/>
        <path id="Caminho_770425" data-name="Caminho 770425" d="M382.537,385.7c32.366-3.152,65.79-3.064,83.874,10.814s-13.744,125.013-42.445,125.013H345.638s19.793-134.162,36.9-135.827" transform="translate(-217.756 -247.154)" fill="url(#linear-gradient-3)"/>
        <path id="Caminho_770426" data-name="Caminho 770426" d="M519.372,384.584q-.48,2.744-.961,5.488l-1.531,8.744-.351,2a.543.543,0,0,0,.658.658l5.31-1.071,8.515-1.717,1.947-.393c.674-.136.389-1.166-.284-1.031l-5.31,1.071-8.515,1.717-1.947.393.657.658.961-5.488q.765-4.372,1.531-8.744l.351-2c.118-.673-.912-.962-1.031-.284" transform="translate(-332.433 -247.271)" fill="#0e1126"/>
        <path id="Caminho_770428" data-name="Caminho 770428" d="M537.26,384.914l8.906,13.326c13.032,0,17.878-11.349,17.878-11.349l-17.505-1.977Z" transform="translate(-345.782 -247.732)" fill="#ff9766"/>
        <path id="Caminho_770429" data-name="Caminho 770429" d="M339.545,388.743c-14.933,1.406-33.984,5.441-48.675,30.841-12.056,20.844-19.331,48.446-19.331,48.446l67.381.008,14.948-55.446Z" transform="translate(-174.763 -250.196)" fill="url(#linear-gradient-3)"/>
        <path id="Caminho_770430" data-name="Caminho 770430" d="M314.258,462.836A119.775,119.775,0,0,1,322.9,448.1q1.389-2.022,2.858-3.986c.412-.552-.516-1.085-.923-.54a120.793,120.793,0,0,0-9.263,14.413q-1.163,2.131-2.238,4.31c-.3.615.618,1.157.923.539" transform="translate(-201.624 -285.338)" fill="#0e1126"/>
        <path id="Caminho_770431" data-name="Caminho 770431" d="M285.243,571.213q12.175.17,24.352.356,11.8.179,23.608.356,6.973.1,13.945.2a.535.535,0,0,0,0-1.069q-12.176-.169-24.352-.356-11.8-.179-23.608-.356-6.973-.1-13.945-.2a.535.535,0,0,0,0,1.069" transform="translate(-183.251 -366.946)" fill="#0e1126"/>
        <path id="Caminho_770432" data-name="Caminho 770432" d="M459.416,514.5l7.785-26.97,2.217-7.681a.535.535,0,0,0-1.031-.284l-7.785,26.97-2.217,7.681a.535.535,0,0,0,1.031.284" transform="translate(-295.003 -308.406)" fill="#0e1126"/>
        <path id="Caminho_770433" data-name="Caminho 770433" d="M680.5,408.547c31.907,4.9,34.273,19.867,61.244,53.981L691.371,489.32Z" transform="translate(-437.969 -262.942)" fill="url(#linear-gradient-3)"/>
        <path id="Caminho_770434" data-name="Caminho 770434" d="M840.111,534.665a3.392,3.392,0,0,0-4.616.283,6.04,6.04,0,0,0-1.681,4.892,34.228,34.228,0,0,0,1.6,6.161c.533,1.946.944,4.06,2.2,5.694.1.129.207.252.317.372a5.664,5.664,0,0,0,3.742,2.474,3.844,3.844,0,0,0,2.4-.382,4.128,4.128,0,0,0,1.743-1.915c.859-1.846,1.5-1.584.9-3.459-.9-2.841-2.8-8.122-4-10.85a8.052,8.052,0,0,0-2.612-3.268" transform="translate(-536.63 -343.615)" fill="#ff9766"/>
        <path id="Caminho_770435" data-name="Caminho 770435" d="M631.1,556.23l25.8,19.853,42.532-61.118-24.9-33.636Z" transform="translate(-406.175 -309.785)" fill="url(#linear-gradient-3)"/>
        <path id="Caminho_770436" data-name="Caminho 770436" d="M675.154,609.981q9.21-11.848,18.479-23.651,9.507-12.133,19-24.276,5.246-6.72,10.471-13.457a.553.553,0,0,0,0-.756.537.537,0,0,0-.756,0q-9.37,12.09-18.813,24.125-9.453,12.073-18.91,24.143-5.124,6.551-10.231,13.116c-.417.537.334,1.3.756.756" transform="translate(-433.966 -352.492)" fill="#0e1126"/>
        <path id="Caminho_770437" data-name="Caminho 770437" d="M642.975,642.292a189.134,189.134,0,0,0,13.774-23.952q1.71-3.549,3.276-7.164c.271-.625-.65-1.17-.923-.539a191.809,191.809,0,0,1-12.838,24.614q-2.038,3.295-4.212,6.5c-.387.571.539,1.107.923.539" transform="translate(-413.167 -392.827)" fill="#0e1126"/>
        <path id="Caminho_770438" data-name="Caminho 770438" d="M576.146,239.572c-1.214,2.769-3.475,9.271-3.823,12.145a10.75,10.75,0,0,0,6.467,11.138c-.769.773-27.9-.22-33.054-1.374-2.9-.65-5.864-1.442-8.167-3.428a12.682,12.682,0,0,1-4.013-7.5c-.118-.649-.2-1.3-.254-1.959q.25-1.017.54-2.026c1.794-6.215,4.622-12.119,6.686-18.254a46.652,46.652,0,0,0,2.232-9.311,58.916,58.916,0,0,0,0-9.825c-.272-5.779,2.091-16.928,2.334-17.128,4.254-3.505,18.94-.644,28.448,7.421a33.433,33.433,0,0,1,9.884,14.383,19.225,19.225,0,0,1-2.034,16.631,74.552,74.552,0,0,0-5.245,9.082" transform="translate(-343.234 -122.659)" fill="#0e1126"/>
        <path id="Caminho_770439" data-name="Caminho 770439" d="M503.928,205.336a34.35,34.35,0,0,0-1.059,6.45,7.125,7.125,0,0,0,.781,4.6,4.014,4.014,0,0,0,2.189,1.487c1.042.328,2.138.519,3.2.759l6.728,1.519c3.724.841,7.7,1.845,11.449.557,3.4-1.169,6.006-3.862,8.247-6.563,2.511-3.027,4.97-6.6,4.661-10.728a7.618,7.618,0,0,0-.95-3.193,12.679,12.679,0,0,1,2.1,2.563c.161.263.556,0,.4-.267a13.214,13.214,0,0,0-1.548-2.056c-2.451-2.675-5.873-4.239-9.244-5.407-1.745-.6-3.522-1.128-5.307-1.6a30.612,30.612,0,0,0-5.618-1.021,15.019,15.019,0,0,0-5.5.545,13.386,13.386,0,0,0-4.648,2.585,19.168,19.168,0,0,0-5.883,9.768" transform="translate(-323.613 -123.823)" fill="#0e1126"/>
        <path id="Caminho_770440" data-name="Caminho 770440" d="M556.56,330.856a161.988,161.988,0,0,0-20.437,4.668l.406,14.6s13.431,10.295,20.531,4.668c.652-8.464-.519-23.65-.5-23.934" transform="translate(-345.05 -212.94)" fill="#ff9766"/>
        <path id="Caminho_770441" data-name="Caminho 770441" d="M543.025,206.762c-8.051-8.365-24.389-15.021-34.6-8.011-4.641,3.185-6.335,9.222-8.583,14.219q-2.191,4.872-4.305,9.779a156.08,156.08,0,0,0-5.64,15.782c-2.046,7.1-.579,14.52,4.45,17.512,4.769,2.837,14.541,1.771,22.448-2.236,6.775-3.434,14.34-1.869,19.937-7,11.1-10.183,18-27.877,6.3-40.041" transform="translate(-314.723 -126.023)" fill="#ff9766"/>
        <path id="Caminho_770442" data-name="Caminho 770442" d="M589.532,277.547c.025,7.256,0,45.613,0,45.613s-11.885,6.5-5.244,33.479c0,0-18.494,13.045-28.318,11.151-7.318-1.411-26.176-17.616-5.187-43.555,8.145-10.066-2.031-19.257,4.569-29.1Z" transform="translate(-348.3 -178.63)" fill="#0e1126"/>
        <path id="Caminho_770443" data-name="Caminho 770443" d="M507.367,318.2a.809.809,0,0,1,.892-.895l8.98.953a.809.809,0,0,1,.64,1.165,5.963,5.963,0,0,1-1.248,1.7,5.585,5.585,0,0,1-6.443,1.058,5.246,5.246,0,0,1-2.821-3.986" transform="translate(-326.539 -204.217)" fill="#fff"/>
        <path id="Caminho_770444" data-name="Caminho 770444" d="M534.84,206.845s-13.375-3.621-19.7,10.038c0,0,1.167-16.527,9.048-19.842s10.652,9.8,10.652,9.8" transform="translate(-331.546 -126.471)" fill="#0e1126"/>
        <path id="Caminho_770445" data-name="Caminho 770445" d="M551.812,193.207a10.626,10.626,0,0,1,1.861-.035,9.239,9.239,0,0,1,4.763-.826,20.019,20.019,0,0,1,5.682,1.268c7.916,2.812,17.3,7.847,22.066,15.029a19.661,19.661,0,0,1,3.3,11.465,27.778,27.778,0,0,1-3.667,12.526,61.6,61.6,0,0,1-8.967,11.729c-.453.49-.911.975-1.368,1.46l-.943-.744a71.945,71.945,0,0,1-10.806-10.32c-.812-.971-1.583-1.969-2.336-2.981-.061-.06-.12-.113-.182-.175-21.773-21.784-13.951-37.875-9.4-38.4" transform="translate(-351.814 -123.777)" fill="#0e1126"/>
        <path id="Caminho_770446" data-name="Caminho 770446" d="M568.914,230.434a29.287,29.287,0,0,0,7.836,18.181,28.4,28.4,0,0,0,4.3,3.749c.562.4,1.1-.528.539-.923a28.13,28.13,0,0,1-10.737-15.58,26.97,26.97,0,0,1-.874-5.427c-.039-.684-1.109-.689-1.069,0" transform="translate(-366.154 -147.976)" fill="#5660a3"/>
        <path id="Caminho_770447" data-name="Caminho 770447" d="M596.009,259.044a20.616,20.616,0,0,0,9.916,9.631c.622.282,1.166-.639.54-.923a19.7,19.7,0,0,1-9.533-9.247c-.3-.618-1.225-.077-.923.54" transform="translate(-383.555 -166.199)" fill="#5660a3"/>
        <path id="Caminho_770448" data-name="Caminho 770448" d="M544.379,267.512a6.807,6.807,0,0,1,2.8.044,8.916,8.916,0,0,1,4.884,3,3.34,3.34,0,0,1,.438,3.98c-1.053,1.559-2.769.994-4.1.269a15.174,15.174,0,0,0-3.525-1.566c-3.65-1.1-3.68-4.932-.492-5.729" transform="translate(-348.869 -172.089)" fill="#0e1126"/>
        <path id="Caminho_770449" data-name="Caminho 770449" d="M502.828,264.216a11.547,11.547,0,0,1,1.011-5.538,6.316,6.316,0,0,1,4.368-.105,5.064,5.064,0,0,1,2,1.3,2.88,2.88,0,0,1-2.922,4.763,10.57,10.57,0,0,0-3.2-.321,5.715,5.715,0,0,1-1.257-.1" transform="translate(-323.613 -166.199)" fill="#0e1126"/>
        <path id="Caminho_770450" data-name="Caminho 770450" d="M577.315,305.612a7.692,7.692,0,1,0-9.574,5.165,7.692,7.692,0,0,0,9.574-5.165" transform="translate(-361.866 -190.322)" fill="#ff9766"/>
        <path id="Caminho_770451" data-name="Caminho 770451" d="M504.6,285.514c-.632-.164-1.3-.742-1.3-2.089.006-1.947,1.347-4.932,3.3-4.029,2.1.97.326,6.722-2,6.118" transform="translate(-323.923 -179.714)" fill="#0e1126"/>
        <path id="Caminho_770452" data-name="Caminho 770452" d="M543.709,295.626c-.632-.164-1.3-.742-1.3-2.089.006-1.947,1.347-4.932,3.3-4.029,2.1.97.326,6.722-2,6.118" transform="translate(-349.097 -186.222)" fill="#0e1126"/>
        <path id="Caminho_770453" data-name="Caminho 770453" d="M541.357,363.9a15.506,15.506,0,0,1-5.061,1.462.551.551,0,0,0-.535.535.538.538,0,0,0,.535.535,17.016,17.016,0,0,0,5.6-1.608.539.539,0,0,0,.192-.731.546.546,0,0,0-.731-.192" transform="translate(-344.817 -234.164)" fill="#0e1126"/>
        <path id="Caminho_770454" data-name="Caminho 770454" d="M585.9,310.129a5.757,5.757,0,0,1-1.876,1.529,6.65,6.65,0,0,1-2.286.828.54.54,0,0,0-.27,1,4.29,4.29,0,0,1,1.656,2.59.535.535,0,0,0,1.031-.284,5.377,5.377,0,0,0-2.147-3.229l-.27,1a7.763,7.763,0,0,0,5.084-2.886.538.538,0,0,0-.192-.731.546.546,0,0,0-.731.192" transform="translate(-374.069 -199.43)" fill="#0e1126"/>
        <path id="Caminho_770455" data-name="Caminho 770455" d="M592.486,471.507a4.151,4.151,0,0,0-1.492-2.875c-2.512-1.789-6.371-1.121-9.167-.566-2.626.522-18.092,3.727-15.444,9.1a2.7,2.7,0,0,0,1.016,1.077,9.275,9.275,0,0,0,1.426.695q.784.332,1.582.6a22.335,22.335,0,0,0,12.924.314,25.094,25.094,0,0,0,3.117-1.066,19.691,19.691,0,0,0,2.965-1.485,6.686,6.686,0,0,0,2.345-2.341,5.8,5.8,0,0,0,.727-3.453" transform="translate(-364.331 -300.864)" fill="#ff9766"/>
        <path id="Caminho_770456" data-name="Caminho 770456" d="M606.224,479.8l-.556.7a3.493,3.493,0,0,1-4.909.553l-45.3-36.13a3.493,3.493,0,0,1-.553-4.909l.556-.7a3.493,3.493,0,0,1,4.909-.553l45.3,36.131a3.494,3.494,0,0,1,.553,4.909" transform="translate(-356.648 -281.899)" fill="#8883a8"/>
        <path id="Caminho_770457" data-name="Caminho 770457" d="M565.7,451.381a5.531,5.531,0,0,1,3.716-4.787c.651-.213.373-1.245-.284-1.031a6.636,6.636,0,0,0-4.5,5.818.535.535,0,0,0,1.069,0" transform="translate(-363.397 -286.747)" fill="#0e1126"/>
        <path id="Caminho_770458" data-name="Caminho 770458" d="M274.05,546.335s-19.777,45.237,9.2,56.827c29.471,11.789,53.637-13.777,99.264-60.346l-26.9-32.42L300.246,546.4Z" transform="translate(-172.139 -328.492)" fill="#ff9766"/>
        <path id="Caminho_770459" data-name="Caminho 770459" d="M678.008,560H632.292a3.562,3.562,0,0,1-2.985-5.505l29.458-45.235a5.774,5.774,0,0,1,4.839-2.623H708.12a3.562,3.562,0,0,1,2.985,5.505l-30.112,46.24A3.562,3.562,0,0,1,678.008,560" transform="translate(-404.649 -326.075)" fill="#0e1126"/>
        <path id="Caminho_770460" data-name="Caminho 770460" d="M632.411,563.438l2.675-4.107,6.49-9.966,8.158-12.528,7.525-11.556,4.751-7.3a12.235,12.235,0,0,1,1.034-1.5,4.8,4.8,0,0,1,3.573-1.6c.2,0,.406,0,.609,0h45.461a.535.535,0,0,0,0-1.069H668.375c-.592,0-1.185-.006-1.777,0a5.973,5.973,0,0,0-5,2.843l-3.68,5.651-7.063,10.846-8.219,12.621L635.5,556.744l-3.83,5.881-.178.274c-.377.578.548,1.115.923.54" transform="translate(-406.371 -330.692)" fill="#e5e3f2"/>
        <path id="Caminho_770461" data-name="Caminho 770461" d="M800.057,558.814c-.041-6.2-2.822-11.678-7.5-14.365-4.886-2.8-10.6-3.375-15.707-2.968-3.976.317-15.153,1.765-13.082,8.084a5.953,5.953,0,0,0,2.984,3.35,16.939,16.939,0,0,0-1.739.75c-1.595.809-3.179,1.791-3.531,3.691-.366,1.978.819,3.473,2.179,4.736.252.234.513.455.774.675-.354.224-.7.461-1.042.713a7.225,7.225,0,0,0-3.1,3.931,6.181,6.181,0,0,0,1.559,5.349,13.155,13.155,0,0,0,4.854,3.076,44.912,44.912,0,0,0,11.175,2.9c1.86.283,3.723.567,5.585.754a17.33,17.33,0,0,0,5.378-.141,9.832,9.832,0,0,0,4.446-2.242,14.863,14.863,0,0,0,3.174-4.094,30.4,30.4,0,0,0,3.594-14.2" transform="translate(-489.24 -348.423)" fill="#ff9766"/>
        <path id="Caminho_770462" data-name="Caminho 770462" d="M843.668,546.517a13.675,13.675,0,0,1,5.471,2.971c.5.474,1.256-.281.756-.756a14.852,14.852,0,0,0-5.943-3.246c-.66-.2-.942.83-.284,1.031" transform="translate(-542.747 -351.06)" fill="#0e1126"/>
        <path id="Caminho_770463" data-name="Caminho 770463" d="M778.945,571.2a68.385,68.385,0,0,1,20.83-.132c.673.1.964-.93.284-1.031a70.084,70.084,0,0,0-21.4.132c-.678.109-.39,1.139.284,1.031" transform="translate(-500.899 -366.393)" fill="#0e1126"/>
        <path id="Caminho_770464" data-name="Caminho 770464" d="M772.133,600.026a68.381,68.381,0,0,1,20.83-.132c.673.1.964-.93.284-1.031a70.079,70.079,0,0,0-21.4.132c-.678.109-.39,1.139.284,1.031" transform="translate(-496.515 -384.943)" fill="#0e1126"/>
        <path id="Caminho_770465" data-name="Caminho 770465" d="M533.419,517.84a6.432,6.432,0,0,0,3.08,4.61,13.074,13.074,0,0,0,5.832,1.561,25,25,0,0,0,6.27-.2,10.139,10.139,0,0,0,5.448-2.694,11.6,11.6,0,0,0,2.927-5.348,15.939,15.939,0,0,0,.451-4.183,6.7,6.7,0,0,0,4.065-2.349,8.935,8.935,0,0,0,1.993-4,10.358,10.358,0,0,0-.264-5.532,17.767,17.767,0,0,0-2.321-4.217c-.021-.03,4.428.624,7.061.89,2.5.253,6.779.152,8.826-1.59a5.815,5.815,0,0,0,1.931-4.7c-.744-5.9-6.755-7.227-10.8-8.6-6.155-2.095-12.993-3.934-19.038-5.379-4.132-.988-12.343-.81-16.4,1.046a119.894,119.894,0,0,0-19.2,10.8c-5.74,3.97,19.855,28,20.131,29.9" transform="translate(-329.813 -306.033)" fill="#ff9766"/>
        <path id="Caminho_770466" data-name="Caminho 770466" d="M604.61,548.694a24.424,24.424,0,0,1,11.568,9.816c.362.583,1.287.047.923-.54a25.635,25.635,0,0,0-12.208-10.307c-.637-.259-.914.775-.284,1.031" transform="translate(-388.9 -352.451)" fill="#0e1126"/>
        <path id="Caminho_770467" data-name="Caminho 770467" d="M580.224,579.266a5.666,5.666,0,0,0-2.8,10.545c.589.359,1.127-.565.54-.923a4.6,4.6,0,0,1,2.258-8.553c.686-.021.689-1.09,0-1.069" transform="translate(-369.85 -372.817)" fill="#0e1126"/>
        <path id="Caminho_770468" data-name="Caminho 770468" d="M628.08,515.917a20.437,20.437,0,0,1,6.787,5.3c.442.528,1.2-.232.756-.756a21.178,21.178,0,0,0-7-5.468c-.617-.3-1.16.624-.54.923" transform="translate(-404.058 -331.414)" fill="#0e1126"/>
        <path id="Caminho_770469" data-name="Caminho 770469" d="M307.666,622.637l18-11.047c.586-.36.049-1.284-.54-.923l-18,11.047c-.585.359-.049,1.284.54.923" transform="translate(-197.504 -392.974)" fill="#0e1126"/>
        <path id="Caminho_770470" data-name="Caminho 770470" d="M793.58,657.092a27.062,27.062,0,0,1-4.054-7.426,16.512,16.512,0,0,1-.506-8.337c.132-.672-.9-.96-1.031-.284a17.631,17.631,0,0,0,.463,8.773,27.7,27.7,0,0,0,4.2,7.813c.4.55,1.33.017.923-.54" transform="translate(-506.929 -412.331)" fill="#0e1126"/>
        <path id="Caminho_770471" data-name="Caminho 770471" d="M778.661,639.534q6.716,1,13.484,1.572c.686.058.682-1.011,0-1.069q-6.622-.563-13.2-1.534c-.673-.1-.963.93-.284,1.031" transform="translate(-500.899 -410.938)" fill="#0e1126"/>
        <path id="Caminho_770472" data-name="Caminho 770472" d="M515.771,296.025a2.064,2.064,0,0,1-.088-2.139,7.132,7.132,0,0,1,1.814-2.058.535.535,0,0,0-.756-.756,7.363,7.363,0,0,0-2.086,2.505,3.072,3.072,0,0,0,.192,2.987.55.55,0,0,0,.731.192.539.539,0,0,0,.192-.731" transform="translate(-331.045 -187.237)" fill="#0e1126"/>
        <path id="Caminho_770473" data-name="Caminho 770473" d="M859.129,587.551a32.453,32.453,0,0,1-3.215,17.806,37.134,37.134,0,0,1-2.75,4.67c-.392.568.535,1.1.923.54a35,35,0,0,0,6.249-17.729,31.743,31.743,0,0,0-.138-5.287c-.074-.677-1.144-.684-1.069,0" transform="translate(-549.038 -377.821)" fill="#0e1126"/>
        <path id="Caminho_770474" data-name="Caminho 770474" d="M824.935,267.033h-80.6a3.41,3.41,0,0,1-3.451-3.79l6.689-74.85a4.229,4.229,0,0,1,4.129-3.79h80.6a3.41,3.41,0,0,1,3.451,3.79l-6.689,74.85a4.229,4.229,0,0,1-4.128,3.79" transform="translate(-476.825 -118.811)" fill="#fcfcfc"/>
        <path id="Caminho_770475" data-name="Caminho 770475" d="M845.321,198.52h-88.18l.9-10.127a4.229,4.229,0,0,1,4.129-3.79h80.6a3.41,3.41,0,0,1,3.451,3.79Z" transform="translate(-487.298 -118.811)" fill="#3b4aff"/>
        <path id="Caminho_770476" data-name="Caminho 770476" d="M946.431,197.943a3.822,3.822,0,0,1-3.731,3.425,3.082,3.082,0,0,1-3.119-3.425,3.822,3.822,0,0,1,3.731-3.425,3.082,3.082,0,0,1,3.119,3.425" transform="translate(-604.708 -125.192)" fill="#fff"/>
        <path id="Caminho_770477" data-name="Caminho 770477" d="M977.783,197.943a3.822,3.822,0,0,1-3.731,3.425,3.082,3.082,0,0,1-3.119-3.425,3.822,3.822,0,0,1,3.731-3.425,3.082,3.082,0,0,1,3.119,3.425" transform="translate(-624.887 -125.192)" fill="#fff"/>
        <path id="Caminho_770478" data-name="Caminho 770478" d="M778.954,308.726a85.294,85.294,0,0,1,9.479-16.652,34.361,34.361,0,0,1,3.718-4.3,11.58,11.58,0,0,1,1.737-1.394,14.553,14.553,0,0,1,4.7-2.089,9.606,9.606,0,0,1,4.905.069,12.262,12.262,0,0,1,4.264,2.373c2.67,2.192,4.69,5.065,7.418,7.193,2.621,2.045,6.067,3.32,9.383,2.381,2.988-.846,5.06-3.323,6.572-5.907a93.931,93.931,0,0,0,4.352-8.989c1.38-3.07,2.711-6.162,4.085-9.235q.588-1.315,1.185-2.626c.283-.622-.638-1.166-.924-.54-2.866,6.293-5.46,12.725-8.573,18.9-1.318,2.616-2.931,5.4-5.612,6.815-3.085,1.626-6.712.624-9.392-1.32-2.793-2.026-4.8-4.919-7.4-7.152-2.543-2.177-5.605-3.639-9.022-3.256a14.8,14.8,0,0,0-7.8,3.449,27.123,27.123,0,0,0-3.482,3.753,78.474,78.474,0,0,0-9.3,15.34q-.624,1.313-1.212,2.644c-.277.623.644,1.168.923.54" transform="translate(-500.71 -172.958)" fill="#0e1126"/>
        <path id="Caminho_770479" data-name="Caminho 770479" d="M900.346,336.666a5.037,5.037,0,0,1-4.918,4.514,4.062,4.062,0,0,1-4.111-4.514,5.037,5.037,0,0,1,4.917-4.514,4.062,4.062,0,0,1,4.111,4.514" transform="translate(-573.643 -213.774)" fill="#cd5be8"/>
        <path id="Caminho_770480" data-name="Caminho 770480" d="M946.335,267.436a5.037,5.037,0,0,1-4.918,4.514,4.062,4.062,0,0,1-4.111-4.514,5.037,5.037,0,0,1,4.918-4.514,4.062,4.062,0,0,1,4.111,4.514" transform="translate(-603.242 -169.217)" fill="#cd5be8"/>
        <path id="Caminho_770481" data-name="Caminho 770481" d="M834.541,302.92a5.037,5.037,0,0,1-4.918,4.514,4.062,4.062,0,0,1-4.111-4.514,5.037,5.037,0,0,1,4.917-4.514,4.062,4.062,0,0,1,4.111,4.514" transform="translate(-531.291 -192.055)" fill="#cd5be8"/>
        <path id="Caminho_770482" data-name="Caminho 770482" d="M778.482,379.793h62.458a.535.535,0,0,0,0-1.069H778.482a.535.535,0,0,0,0,1.069" transform="translate(-500.701 -243.748)" fill="#0e1126"/>
        <path id="Caminho_770483" data-name="Caminho 770483" d="M789.782,249.306h33.188a.535.535,0,0,0,0-1.069H789.782a.535.535,0,0,0,0,1.069" transform="translate(-507.974 -159.766)" fill="#0e1126"/>
        <path id="Caminho_770484" data-name="Caminho 770484" d="M787.986,269.409h18.36a.535.535,0,0,0,0-1.069h-18.36a.535.535,0,0,0,0,1.069" transform="translate(-506.818 -172.704)" fill="#0e1126"/>
      </g>
    </g>
  </g>
</svg>
