<svg xmlns="http://www.w3.org/2000/svg" xmlns:xlink="http://www.w3.org/1999/xlink" fill="none" version="1.1" width="325.71875" height="57.5560302734375" viewBox="0 0 325.71875 57.5560302734375"><defs><linearGradient x1="0.9729999899864197" y1="1" x2="0" y2="1" id="master_svg0_6_3691"><stop offset="0%" stop-color="#FFFFFF" stop-opacity="0"/><stop offset="15.899999439716339%" stop-color="#FFFFFF" stop-opacity="0.40799999237060547"/><stop offset="41.4000004529953%" stop-color="#95EBFF" stop-opacity="1"/><stop offset="59.79999899864197%" stop-color="#3DB8F9" stop-opacity="1"/><stop offset="81.99999928474426%" stop-color="#1B74D8" stop-opacity="1"/><stop offset="100%" stop-color="#0024A8" stop-opacity="1"/></linearGradient><linearGradient x1="0.027000000700354576" y1="0" x2="1" y2="0" id="master_svg1_6_3692"><stop offset="0%" stop-color="#FFFFFF" stop-opacity="0"/><stop offset="15.899999439716339%" stop-color="#FFFFFF" stop-opacity="0.40799999237060547"/><stop offset="41.4000004529953%" stop-color="#95EBFF" stop-opacity="1"/><stop offset="59.79999899864197%" stop-color="#3DB8F9" stop-opacity="1"/><stop offset="81.99999928474426%" stop-color="#1B74D8" stop-opacity="1"/><stop offset="100%" stop-color="#0024A8" stop-opacity="1"/></linearGradient><mask id="master_svg2_6_1974" style="mask-type:alpha" maskUnits="objectBoundingBox"><g><g><rect x="219.2349853515625" y="0" width="106.48400115966797" height="57.555999755859375" rx="0" fill="#FFFFFF" fill-opacity="1" style="mix-blend-mode:passthrough"/></g></g></mask></defs><g><g><g><path d="M6.307,0L187.234,0L180.377,28.868L0,28.868L6.307,0Z" fill="url(#master_svg0_6_3691)" fill-opacity="1" style="mix-blend-mode:passthrough"/></g><g><path d="M180.927,57.55599972534179L0,57.55599972534179L6.857,28.687999725341797L187.234,28.687999725341797L180.927,57.55599972534179Z" fill="url(#master_svg1_6_3692)" fill-opacity="1" style="mix-blend-mode:passthrough"/></g><g><g><path d="M16.17399775970459,18.634983598327636L19.28299775970459,18.634983598327636C19.51528775970459,18.631983598327636,19.73904775970459,18.72238359832764,19.903997759704588,18.885983598327634C20.07404775970459,19.042883598327634,20.16931775970459,19.264683598327636,20.165997759704588,19.495983598327637C20.169577759704588,19.727183598327635,20.074677759704592,19.948983598327636,19.904997759704592,20.105983598327636C19.74027775970459,20.270083598327638,19.51645775970459,20.36088359832764,19.28399775970459,20.357983598327635L16.06399775970459,20.357983598327635C15.61247775970459,20.345783598327635,15.17277775970459,20.210983598327637,14.79199775970459,19.967983598327635C14.41373775970459,19.766183598327636,14.09797775970459,19.464583598327636,13.878997759704589,19.095983598327635L11.88999975970459,15.252003598327637C11.62931075970459,14.723053598327636,11.49251770970459,14.141683598327637,11.489999769704589,13.552003598327637C11.47519495970459,12.971053598327636,11.60581975970459,12.395613598327635,11.86999975970459,11.878003598327638L13.87999775970459,8.078003598327637C14.09569775970459,7.696754598327637,14.40206775970459,7.374578598327637,14.77199775970459,7.140000598327637C15.11241775970459,6.891174598327637,15.51960775970459,6.750102998327637,15.94099775970459,6.735000608327637L19.34099775970459,6.735000608327637C19.571217759704588,6.731136322327637,19.792497759704588,6.8240022983276365,19.95099775970459,6.991000598327637C20.112227759704588,7.148921598327637,20.20274775970459,7.365319598327637,20.20199775970459,7.5910005983276365C20.204857759704588,7.822963598327637,20.11441775970459,8.046353598327636,19.95099775970459,8.211003598327636C19.79395775970459,8.380683598327636,19.57216775970459,8.475573598327637,19.34099775970459,8.472003598327637L16.06599775970459,8.472003598327637C15.76831775970459,8.488653598327637,15.507697759704591,8.677373598327637,15.39899775970459,8.955003598327636L13.48799775970459,12.523003598327637C13.33012775970459,12.832083598327637,13.25306775970459,13.176103598327636,13.26399775970459,13.523003598327637C13.25504775970459,13.893773598327638,13.338927759704589,14.260903598327637,13.50799775970459,14.591003598327637L15.33299775970459,18.092983598327635C15.47004775970459,18.433683598327637,15.80709775970459,18.65088359832764,16.17399775970459,18.634983598327636ZM22.93696775970459,17.77398359832764L22.93696775970459,7.611999598327637C22.93446775970459,7.379112598327636,23.02686775970459,7.155234598327636,23.19296775970459,6.991999598327637C23.34806775970459,6.825535798327636,23.56536775970459,6.730998993327637,23.792967759704588,6.730999946327636C24.01966775970459,6.7305173873276365,24.23656775970459,6.8230590983276365,24.39296775970459,6.986999598327637C24.55696775970459,7.143474598327637,24.649467759704592,7.360371598327637,24.64896775970459,7.586999598327637L24.64896775970459,17.77398359832764C24.64806775970459,17.997783598327636,24.740867759704592,18.211783598327635,24.90496775970459,18.363983598327636C25.06296775970459,18.525183598327637,25.27936775970459,18.61578359832764,25.50496775970459,18.614983598327637L29.03196775970459,18.614983598327637C29.26036775970459,18.619483598327637,29.48066775970459,18.530583598327638,29.64196775970459,18.368983598327638C29.80556775970459,18.214783598327635,29.89666775970459,17.998783598327634,29.89296775970459,17.77398359832764L29.89296775970459,7.611999598327637C29.88816775970459,7.378206598327637,29.97886775970459,7.152543598327637,30.14396775970459,6.986999598327637C30.30246775970459,6.819998698327637,30.52376775970459,6.7271337483276366,30.75396775970459,6.730999946327636C30.98416775970459,6.7271356583276365,31.20546775970459,6.820000698327637,31.36396775970459,6.986999598327637C31.52916775970459,7.152543598327637,31.61976775970459,7.378205598327637,31.61496775970459,7.611999598327637L31.61496775970459,17.757983598327638C31.62326775970459,18.448683598327637,31.34696775970459,19.112283598327636,30.85096775970459,19.592983598327635C30.38066775970459,20.084883598327636,29.72856775970459,20.361483598327638,29.04796775970459,20.357983598327635L25.52096775970459,20.357983598327635C24.833967759704592,20.367883598327637,24.17346775970459,20.093183598327634,23.69596775970459,19.598983598327635C23.20186775970459,19.12158359832764,22.927167759704588,18.461083598327637,22.93696775970459,17.77398359832764Z" fill="#FFFFFF" fill-opacity="1" style="mix-blend-mode:passthrough"/></g><g><path d="M37.17500019073623,20.357998153686523L37.17500019073623,7.592000153686524C37.17451739338623,7.365372153686524,37.267060083386234,7.148475153686523,37.43100028338623,6.991999153686524C37.58747528338623,6.828060153686524,37.80437228338623,6.735517501686523,38.03100028338623,6.736000061036523C38.25762828338623,6.735517501686523,38.47452828338623,6.828060153686524,38.63099828338623,6.991999153686524C38.79493828338623,7.148475153686523,38.88747828338623,7.365372153686524,38.886998283386234,7.592000153686524L38.886998283386234,18.634998153686524L44.98799828338623,18.634998153686524C45.219958283386234,18.632098153686524,45.44334828338623,18.722598153686523,45.60799828338623,18.885998153686522C45.77767828338623,19.042998153686526,45.87257828338623,19.264798153686524,45.86899828338623,19.49599815368652C45.87257828338623,19.727198153686523,45.77767828338623,19.948998153686524,45.60799828338623,20.10599815368652C45.44351828338623,20.269798153686523,45.22010828338623,20.360598153686524,44.98799828338623,20.357998153686523L37.17500019073623,20.357998153686523Z" fill="#FFFFFF" fill-opacity="1" style="mix-blend-mode:passthrough"/></g><g><path d="M46.39999914172647,9.078999450683593L46.39999914172647,6.750999450683594L55.10000005462646,6.750999450683594L55.10000005462646,9.098999450683593C55.103860054626466,9.329209450683594,55.011000054626464,9.550489450683594,54.84400005462646,9.708999450683594C54.686080054626466,9.870219450683594,54.469680054626465,9.960749450683593,54.24400005462647,9.959999450683593C54.011110054626464,9.962569450683594,53.78723005462646,9.870129450683594,53.624000054626464,9.703999450683593C53.45754005462646,9.548919450683593,53.36300005462647,9.331589450683595,53.36300005462647,9.103999450683594L53.36300005462647,8.478999450683594L51.611000054626466,8.478999450683594L51.611000054626466,19.496999450683596C51.61486005462646,19.727199450683592,51.52200005462647,19.94849945068359,51.355000054626466,20.106999450683595C51.19587005462647,20.269499450683593,50.97741005462647,20.36009945068359,50.75000005462647,20.357999450683593C50.51621005462646,20.362799450683596,50.29054005462646,20.272199450683594,50.12500005462646,20.106999450683595C49.95800005462647,19.94849945068359,49.86513005462646,19.727199450683592,49.86900005462647,19.496999450683596L49.86900005462647,8.473999450683595L48.12500005462646,8.473999450683595L48.12500005462646,9.073999450683594C48.12907005462647,9.303249450683595,48.03824005462646,9.523999450683593,47.874000054626464,9.683999450683594C47.71400005462647,9.848239450683593,47.493250054626465,9.939069450683593,47.26399905462647,9.934999450683595C47.03474605462647,9.939069450683593,46.81399705462646,9.848239450683593,46.65399905462647,9.683999450683594C46.489928454626465,9.525709450683593,46.398092984626466,9.306969450683594,46.39999914172647,9.078999450683593Z" fill="#FFFFFF" fill-opacity="1" style="mix-blend-mode:passthrough"/></g><g><path d="M58.1119995122085,17.774026948547363L58.1119995122085,7.611999948547363C58.1094343662085,7.379111948547363,58.201874476208495,7.155233948547363,58.3679996762085,6.991999948547363C58.5230786762085,6.825536948547363,58.740405676208496,6.730998988547364,58.96799967620849,6.730999948547363C59.19462967620849,6.730517388547363,59.4115196762085,6.823060048547363,59.567999676208494,6.986999948547363C59.7319396762085,7.143474948547364,59.8244796762085,7.360371948547363,59.823999676208494,7.586999948547363L59.823999676208494,17.774026948547363C59.823039676208495,17.997826948547363,59.915889676208494,18.211826948547362,60.079999676208494,18.364026948547362C60.2379196762085,18.525226948547363,60.4543196762085,18.615726948547362,60.679999676208496,18.615026948547364L64.2249996762085,18.615026948547364C64.4533396762085,18.619426948547364,64.67361967620849,18.530626948547365,64.8349996762085,18.369026948547365C64.9985596762085,18.214726948547366,65.0896596762085,17.99882694854736,65.0859996762085,17.774026948547363L65.0859996762085,7.611999948547363C65.0812096762085,7.378205948547364,65.17183967620849,7.152543948547363,65.33699967620849,6.986999948547363C65.4955096762085,6.8199996485473635,65.71678967620849,6.727134708547363,65.94699967620849,6.730999948547363C66.17720967620849,6.727135658547363,66.3984896762085,6.820000648547364,66.55699967620849,6.986999948547363C66.72215967620849,7.152542948547364,66.8127896762085,7.3782049485473635,66.8079996762085,7.611999948547363L66.8079996762085,17.75802694854736C66.81621967620849,18.448626948547364,66.5399296762085,19.112226948547363,66.0439996762085,19.59302694854736C65.56979967620849,20.088926948547364,64.9111196762085,20.36592694854736,64.2249996762085,20.358026948547362L60.6979996762085,20.358026948547362C60.01095967620849,20.36782694854736,59.3504296762085,20.093126948547365,58.872999676208494,19.599026948547362C58.3781116762085,19.12192694854736,58.102661376208495,18.461326948547363,58.1119995122085,17.774026948547363ZM69.66296967620849,19.497026948547365L69.66296967620849,6.730999948547363L75.7539696762085,6.730999948547363C76.4410696762085,6.723811148547363,77.1002696762085,7.0023339485473635,77.57396967620849,7.499999948547363C78.0699696762085,7.980746948547363,78.3462696762085,8.644356948547363,78.3379696762085,9.334996948547364L78.3379696762085,10.318996948547364C78.3482696762085,11.010216948547363,78.0737696762085,11.675236948547363,77.57896967620849,12.157996948547364C77.10296967620849,12.654796948547364,76.4419696762085,12.931516948547364,75.7539696762085,12.921996948547363L74.6539696762085,12.921996948547363L78.17196967620849,18.972026948547363C78.2754696762085,19.130826948547366,78.3323696762085,19.315526948547365,78.33596967620849,19.50502694854736C78.3369696762085,19.734026948547363,78.2397696762085,19.952426948547362,78.0689696762085,20.105026948547362C77.9084696762085,20.265626948547364,77.6910696762085,20.356526948547362,77.46396967620849,20.358026948547362C77.1369696762085,20.36912694854736,76.8330696762085,20.190226948547362,76.68396967620849,19.899026948547363L72.65096967620849,12.923996948547362L71.4059696762085,12.923996948547362L71.4059696762085,19.497026948547365C71.40956967620849,19.728126948547363,71.3146696762085,19.949926948547365,71.14496967620849,20.107026948547364C70.9803696762085,20.270426948547364,70.7569696762085,20.360826948547363,70.5249696762085,20.358026948547362C70.2957696762085,20.362026948547364,70.0749696762085,20.271226948547366,69.9149696762085,20.107026948547364C69.75036967620849,19.947126948547364,69.65916967620849,19.726426948547363,69.66296967620849,19.497026948547365ZM71.3859696762085,11.196996948547364L75.7539696762085,11.196996948547364C75.9832696762085,11.201066948547364,76.20396967620849,11.110236948547364,76.3639696762085,10.945996948547364C76.5282696762085,10.785996948547364,76.6190696762085,10.565256948547363,76.61496967620849,10.335996948547363L76.61496967620849,9.335996948547363C76.6190696762085,9.106746948547363,76.5282696762085,8.885996948547364,76.3639696762085,8.725996948547364C76.20396967620849,8.561756948547362,75.9832696762085,8.470926948547364,75.7539696762085,8.474996948547364L71.3859696762085,8.474996948547364L71.3859696762085,11.196996948547364ZM81.22296967620849,19.158026948547363L84.6919696762085,7.370999948547364C84.7882696762085,6.9742419485473635,85.1555696762085,6.7039279485473635,85.5629696762085,6.730000498547363C85.9295696762085,6.687341648547363,86.2726696762085,6.917631948547363,86.3719696762085,7.273000948547363L89.80596967620849,19.240026948547364C89.8323696762085,19.322826948547362,89.84616967620849,19.409126948547364,89.84696967620849,19.496026948547364C89.85136967620849,19.724326948547365,89.7624696762085,19.944526948547363,89.60096967620849,20.106026948547363C89.45656967620849,20.265226948547365,89.25196967620849,20.356626948547365,89.0369696762085,20.358026948547362C88.6340696762085,20.393226948547365,88.2667696762085,20.126226948547362,88.1759696762085,19.732026948547364L87.4949696762085,17.394026948547364L83.54996967620849,17.394026948547364L82.79996967620849,19.894026948547364C82.7595696762085,20.028226948547363,82.6664696762085,20.140426948547365,82.5419696762085,20.205026948547363C82.3961696762085,20.303926948547364,82.2241696762085,20.35712694854736,82.0479696762085,20.358026948547362C81.81156967620849,20.365526948547362,81.58296967620849,20.272526948547362,81.41896967620849,20.102026948547362C81.2559696762085,19.935326948547363,81.1669696762085,19.710026948547362,81.17196967620849,19.477026948547362C81.1727696762085,19.368726948547362,81.18996967620849,19.261126948547364,81.22296967620849,19.158026948547363ZM85.54996967620849,10.718996948547364L84.0729696762085,15.650996948547363L86.9869696762085,15.650996948547363L85.54996967620849,10.718996948547364Z" fill="#FFFFFF" fill-opacity="1" style="mix-blend-mode:passthrough"/></g></g><g><g><path d="M58.02900146191406,48.61402918395996L61.49699846191406,36.82700218395996C61.59325846191406,36.43024518395996,61.960568461914065,36.15993018395996,62.36799846191406,36.18600273395996C62.73452846191406,36.14334298395996,63.07762846191406,36.37363318395996,63.17699846191406,36.72900318395996L66.61099846191406,48.696029183959965C66.63735846191406,48.77882918395996,66.65117846191406,48.865129183959965,66.65199846191406,48.952029183959965C66.65632846191406,49.18032918395996,66.56750846191406,49.40052918395996,66.40599846191407,49.562029183959964C66.26179846191407,49.72102918395996,66.05763846191407,49.81232918395996,65.84299846191406,49.81402918395996C65.44004846191406,49.84922918395996,65.07272846191407,49.58222918395996,64.98199846191406,49.18802918395996L64.30099846191406,46.85102918395996L60.354998461914064,46.85102918395996L59.604998461914064,49.35102918395996C59.564548461914065,49.48522918395996,59.47148846191406,49.59742918395996,59.34699846191406,49.66202918395996C59.201618461914066,49.76012918395996,59.03041846191406,49.81302918395996,58.855001461914064,49.81402918395996C58.61821346191406,49.82182918395996,58.38924046191406,49.72872918395996,58.22500146191406,49.55802918395996C58.06199006191406,49.39132918395996,57.97295999191406,49.166029183959964,57.97800135591406,48.93302918395996C57.978774547914064,48.82472918395996,57.99597026191406,48.71712918395996,58.02900146191406,48.61402918395996ZM62.354998461914064,40.17499918395996L60.87799846191406,45.10699918395996L63.79299846191406,45.10699918395996L62.354998461914064,40.17499918395996ZM78.17999846191407,37.06800318395996L78.17999846191407,49.81402918395996L75.86999846191407,49.81402918395996L71.22899846191406,39.231999183959964L71.22899846191406,48.95302918395996C71.23309846191407,49.18222918395996,71.14219846191406,49.40302918395996,70.97799846191407,49.56302918395996C70.81799846191406,49.72722918395996,70.59729846191406,49.818029183959965,70.36799846191406,49.81402918395996C70.13869846191406,49.818029183959965,69.91799846191407,49.72722918395996,69.75799846191407,49.56302918395996C69.59379846191406,49.40302918395996,69.50289846191406,49.18222918395996,69.50699846191407,48.95302918395996L69.50699846191407,36.18700313395996L71.78299846191406,36.18700313395996L76.43799846191406,46.74802918395996L76.43799846191406,37.06800318395996C76.43579846191406,36.83419118395996,76.53019846191407,36.60984818395996,76.69899846191406,36.44800318395996C76.86079846191406,36.27924538395996,77.08519846191406,36.18480396395996,77.31899846191406,36.18700313395996C77.54919846191406,36.18313884395996,77.77049846191406,36.27600388395996,77.92899846191406,36.44300318395996C78.09449846191407,36.60838018395996,78.18549846191407,36.83406318395996,78.17999846191407,37.06800318395996L78.17999846191407,37.06800318395996Z" fill="#FFFFFF" fill-opacity="1" style="mix-blend-mode:passthrough"/></g><g><path d="M83.85700087341309,48.39497808380127L87.49099587341308,36.04700308380127C87.59236587341309,35.63197608380127,87.97661587341308,35.34927178380127,88.40299587341309,35.376003263801266C88.78680587341309,35.33172508380127,89.14588587341308,35.57294608380127,89.25000587341309,35.94500308380127L92.85000587341308,48.48097808380127C92.87771587341308,48.56797808380127,92.89221587341308,48.65867808380127,92.89300587341309,48.74997808380127C92.89744587341309,48.98917808380127,92.80429587341308,49.219978083801266,92.63500587341309,49.38897808380127C92.48357587341309,49.55617808380127,92.26858587341309,49.65167808380127,92.04300587341308,49.65197808380127C91.62188587341309,49.68777808380127,91.23844587341308,49.40867808380127,91.14300587341309,48.99697808380127L90.42799587341308,46.551978083801274L86.29600587341308,46.551978083801274L85.51000587341309,49.17097808380127C85.46770587341308,49.31167808380127,85.37032587341308,49.42927808380127,85.24000587341308,49.49697808380127C85.08621587341308,49.59897808380127,84.90554587341309,49.65297808380127,84.72100087341309,49.65197808380127C84.47316287341309,49.65967808380127,84.23369687341308,49.56187808380127,84.06200087341308,49.38297808380127C83.89105267341309,49.20837808380127,83.79768586341308,48.97227808380127,83.80300092741308,48.72797808380127C83.80411553341308,48.61487808380127,83.82232117341309,48.50267808380127,83.85700087341309,48.39497808380127ZM88.39099587341309,39.551998083801266L86.84300587341309,44.72099808380127L89.89599587341309,44.72099808380127L88.39099587341309,39.551998083801266Z" fill="#FFFFFF" fill-opacity="1" style="mix-blend-mode:passthrough"/></g><g><path d="M97.56600379943984,49.81395687255859L97.56600379943984,37.048006872558595C97.56552100208984,36.821376872558595,97.65806369208984,36.60447687255859,97.82200389208984,36.448006872558594C97.97847889208984,36.2840668725586,98.19537589208984,36.191516872558594,98.42200389208985,36.19200687255859C98.64863189208984,36.191516872558594,98.86553189208985,36.2840668725586,99.02200189208985,36.448006872558594C99.18594189208984,36.60447687255859,99.27848189208984,36.821376872558595,99.27800189208985,37.048006872558595L99.27800189208985,48.09095687255859L105.37900189208985,48.09095687255859C105.61096189208985,48.08815687255859,105.83435189208984,48.178556872558595,105.99900189208984,48.3419568725586C106.16868189208984,48.4990568725586,106.26358189208985,48.72085687255859,106.26000189208985,48.9519568725586C106.26358189208985,49.1831568725586,106.16868189208984,49.40495687255859,105.99900189208984,49.561956872558596C105.83452189208984,49.72575687255859,105.61111189208984,49.81655687255859,105.37900189208985,49.81395687255859L97.56600379943984,49.81395687255859ZM109.93600189208985,36.18700687255859L116.90900189208985,36.18700687255859C117.13550189208985,36.187216872558594,117.35210189208985,36.279646872558594,117.50900189208984,36.44300687255859C117.67550189208984,36.59807687255859,117.77000189208985,36.8154068725586,117.77000189208985,37.04300687255859C117.77260189208985,37.275886872558594,117.68010189208985,37.499766872558595,117.51400189208985,37.6630068725586C117.35890189208985,37.82946687255859,117.14160189208985,37.9239968725586,116.91400189208984,37.92400687255859L114.31400189208985,37.92400687255859L114.31400189208985,48.09095687255859L116.91400189208984,48.09095687255859C117.14330189208985,48.086956872558595,117.36400189208985,48.17775687255859,117.52400189208984,48.3419568725586C117.68820189208984,48.501956872558594,117.77910189208984,48.72275687255859,117.77500189208985,48.9519568725586C117.77890189208985,49.1822568725586,117.68600189208985,49.40345687255859,117.51900189208985,49.561956872558596C117.36110189208985,49.72325687255859,117.14470189208984,49.81375687255859,116.91900189208985,49.812956872558594L109.93500189208984,49.812956872558594C109.70570189208985,49.817056872558595,109.48500189208984,49.726256872558594,109.32500189208984,49.561956872558596C109.16080189208984,49.40195687255859,109.06990189208985,49.18125687255859,109.07400189208984,48.9519568725586C109.06990189208985,48.72275687255859,109.16080189208984,48.501956872558594,109.32500189208984,48.3419568725586C109.48500189208984,48.17775687255859,109.70570189208985,48.086956872558595,109.93500189208984,48.09095687255859L112.58100189208984,48.09095687255859L112.58100189208984,37.93000687255859L109.93500189208984,37.93000687255859C109.70480189208985,37.933866872558596,109.48350189208985,37.841006872558594,109.32500189208984,37.67400687255859C109.16380189208985,37.51607687255859,109.07330189208984,37.299686872558595,109.07400189208984,37.07400687255859C109.06920189208984,36.840206872558596,109.15980189208985,36.61454687255859,109.32500189208984,36.44900687255859C109.48250189208984,36.279786872558596,109.70390189208985,36.18468687255859,109.93500189208984,36.18700687255859L109.93600189208985,36.18700687255859ZM114.50900189208984,32.53700257255859C114.62810189208984,32.483198172558595,114.75730189208984,32.455251693558594,114.88800189208985,32.455001830558594C115.11880189208985,32.450498582558595,115.33930189208985,32.5504512725586,115.48800189208984,32.72700087255859C115.63980189208985,32.89390587255859,115.72390189208984,33.111392872558596,115.72400189208985,33.337001872558595C115.74470189208984,33.67259687255859,115.55160189208985,33.98477687255859,115.24200189208985,34.11600687255859L112.11500189208985,35.56200687255859C111.99590189208985,35.61580687255859,111.86670189208985,35.64375687255859,111.73600189208985,35.64400687255859C111.50520189208984,35.64850687255859,111.28470189208984,35.548546872558596,111.13600189208984,35.3719968725586C110.98420189208984,35.20509687255859,110.90010189208985,34.987606872558594,110.90000189208985,34.762006872558594C110.87930189208984,34.426406872558594,111.07240189208984,34.114226872558596,111.38200189208985,33.982996872558594L114.50900189208984,32.53700257255859ZM120.60400189208984,38.53700687255859L120.60400189208984,36.2090068725586L129.30400189208984,36.2090068725586L129.30400189208984,38.557006872558595C129.30790189208983,38.787216872558595,129.21500189208984,39.008496872558595,129.04800189208984,39.167006872558595C128.89010189208983,39.328226872558595,128.67370189208984,39.41874687255859,128.44800189208985,39.41800687255859C128.21510189208985,39.420566872558595,127.99120189208985,39.32812687255859,127.82800189208984,39.16200687255859C127.66150189208985,39.006926872558594,127.56700189208985,38.78959687255859,127.56700189208985,38.56200687255859L127.56700189208985,37.93700687255859L125.81200189208984,37.93700687255859L125.81200189208984,48.952956872558595C125.81590189208984,49.183256872558594,125.72300189208984,49.4044568725586,125.55600189208984,49.562956872558594C125.39810189208984,49.7242568725586,125.18170189208985,49.81475687255859,124.95600189208984,49.81395687255859C124.72220189208984,49.818756872558595,124.49650189208984,49.72815687255859,124.33100189208984,49.562956872558594C124.16400189208984,49.4044568725586,124.07110189208984,49.183256872558594,124.07500189208984,48.952956872558595L124.07500189208984,37.93000687255859L122.32600189208985,37.93000687255859L122.32600189208985,38.530006872558594C122.33010189208984,38.759256872558595,122.23920189208985,38.98000687255859,122.07500189208984,39.140006872558594C121.91500189208985,39.30424687255859,121.69430189208984,39.39507687255859,121.46500189208984,39.39100687255859C121.23570189208985,39.39507687255859,121.01500189208984,39.30424687255859,120.85500189208985,39.140006872558594C120.69170189208984,38.98137687255859,120.60060189208984,38.76267687255859,120.60300189208985,38.5350068725586L120.60400189208984,38.53700687255859Z" fill="#FFFFFF" fill-opacity="1" style="mix-blend-mode:passthrough"/></g><g><path d="M137.13000709130858,35.376002311371096L144.4300060913086,35.376002311371096C144.6671860913086,35.376635551371095,144.8939060913086,35.473748180371096,145.05800609130858,35.645002380371096C145.2340160913086,35.80869238037109,145.3333960913086,36.0386413803711,145.33200609130859,36.2790023803711C145.33423609130858,36.52318738037109,145.2371460913086,36.757797380371095,145.06300609130858,36.928997380371094C144.8993160913086,37.105017380371095,144.6693660913086,37.20439738037109,144.4290060913086,37.202997380371094L141.7110060913086,37.202997380371094L141.7110060913086,47.851977380371096L144.4400060913086,47.851977380371096C144.6801860913086,47.847677380371096,144.9114460913086,47.942877380371094,145.0790060913086,48.114977380371094C145.2511260913086,48.282577380371094,145.3463160913086,48.51387738037109,145.3420060913086,48.7539773803711C145.3458460913086,48.99527738037109,145.2482560913086,49.22707738037109,145.0730060913086,49.39297738037109C144.9055760913086,49.5617773803711,144.67673609130858,49.655277380371096,144.43900609130858,49.65197738037109L137.13000709130858,49.65197738037109C136.8898330913086,49.656277380371094,136.6585650913086,49.561077380371096,136.4910070913086,49.388977380371095C136.32012919130858,49.221577380371095,136.22572899130859,48.99117738037109,136.23000717130859,48.751977380371095C136.2256984713086,48.51187738037109,136.3208837913086,48.28057738037109,136.49300709130858,48.11297738037109C136.66042609130858,47.942077380371096,136.8908200913086,47.847677380371096,137.13000709130858,47.851977380371096L139.9060060913086,47.851977380371096L139.9060060913086,37.20200738037109L137.13000709130858,37.20200738037109C136.88872209130858,37.2058473803711,136.6568980913086,37.10825738037109,136.4910070913086,36.933007380371095C136.3207485913086,36.76624738037109,136.2257823913086,36.53731738037109,136.2280070783086,36.29900238037109C136.2228312513086,36.053966380371094,136.3178119913086,35.8174173803711,136.4910070913086,35.644003380371096C136.6570720913086,35.469118080371096,136.8888730913086,35.371899600371094,137.13000709130858,35.376002311371096Z" fill="#FFFFFF" fill-opacity="1" style="mix-blend-mode:passthrough"/></g><g><path d="M154.47899901855467,47.92898679504395L157.58799901855468,47.92898679504395C157.8202890185547,47.92598679504395,158.0440490185547,48.01638679504394,158.2089990185547,48.179986795043945C158.3790490185547,48.336886795043945,158.4743190185547,48.55868679504395,158.4709990185547,48.789986795043944C158.4745790185547,49.021186795043945,158.3796790185547,49.24298679504395,158.2099990185547,49.399986795043944C158.04527901855468,49.56408679504395,157.8214590185547,49.65488679504394,157.5889990185547,49.651986795043946L154.3689990185547,49.651986795043946C153.9174790185547,49.639786795043946,153.47777901855468,49.50498679504395,153.0969990185547,49.261986795043946C152.7187390185547,49.06018679504395,152.40297901855467,48.758586795043946,152.1839990185547,48.389986795043946L150.19500101855468,44.546006795043944C149.9343120185547,44.01705679504394,149.7975189685547,43.43568679504394,149.79500102855468,42.84600679504395C149.7801962185547,42.26505679504395,149.91082101855469,41.689616795043946,150.1750010185547,41.17200679504394L152.1849990185547,37.372006795043944C152.4006990185547,36.99075679504394,152.70706901855468,36.668580795043944,153.0769990185547,36.434002795043945C153.41741901855468,36.185176795043944,153.8246090185547,36.044105495043944,154.2459990185547,36.029003143043944L157.64599901855468,36.029003143043944C157.87621901855468,36.02513885504395,158.0974990185547,36.118004795043944,158.2559990185547,36.285002795043944C158.41722901855468,36.44292479504394,158.50774901855468,36.659321795043944,158.5069990185547,36.885002795043945C158.5098590185547,37.11696679504394,158.4194190185547,37.340356795043945,158.2559990185547,37.50500679504395C158.0989590185547,37.67468679504395,157.8771690185547,37.769576795043946,157.64599901855468,37.76600679504394L154.3709990185547,37.76600679504394C154.07331901855468,37.78265679504395,153.8126990185547,37.971376795043945,153.7039990185547,38.24900679504395L151.7929990185547,41.817006795043945C151.6351290185547,42.126086795043946,151.55806901855468,42.47010679504395,151.56899901855468,42.817006795043945C151.56004901855468,43.187776795043945,151.6439290185547,43.55490679504395,151.81299901855468,43.88500679504394L153.6379990185547,47.386986795043946C153.77504901855468,47.727686795043944,154.1120990185547,47.94488679504394,154.47899901855467,47.92898679504395Z" fill="#FFFFFF" fill-opacity="1" style="mix-blend-mode:passthrough"/></g><g><path d="M162.77100424560547,48.39497808380127L166.40499924560547,36.04700308380127C166.50636924560547,35.63197608380127,166.89061924560548,35.34927178380127,167.31699924560547,35.376003263801266C167.70080924560546,35.33172508380127,168.05988924560546,35.57294608380127,168.16400924560546,35.94500308380127L171.76400924560548,48.48097808380127C171.79171924560546,48.56797808380127,171.80621924560546,48.65867808380127,171.80700924560546,48.74997808380127C171.81144924560547,48.98917808380127,171.71829924560546,49.219978083801266,171.54900924560548,49.38897808380127C171.39757924560547,49.55617808380127,171.18258924560547,49.65167808380127,170.95700924560546,49.65197808380127C170.53588924560546,49.68777808380127,170.15244924560548,49.40867808380127,170.05700924560546,48.99697808380127L169.34199924560548,46.551978083801274L165.21000924560548,46.551978083801274L164.42400924560548,49.17097808380127C164.38170924560546,49.31167808380127,164.28432924560548,49.42927808380127,164.15400924560547,49.49697808380127C164.00021924560548,49.59897808380127,163.81954924560546,49.65297808380127,163.63500424560547,49.65197808380127C163.38716624560547,49.65967808380127,163.14770024560548,49.56187808380127,162.97600424560548,49.38297808380127C162.80505604560548,49.20837808380127,162.71168923560546,48.97227808380127,162.71700429960546,48.72797808380127C162.71811890560548,48.61487808380127,162.73632454560547,48.50267808380127,162.77100424560547,48.39497808380127ZM167.30499924560547,39.551998083801266L165.75700924560547,44.72099808380127L168.80999924560547,44.72099808380127L167.30499924560547,39.551998083801266Z" fill="#FFFFFF" fill-opacity="1" style="mix-blend-mode:passthrough"/></g></g></g><g><g mask="url(#master_svg2_6_1974)"><g><g><path d="M278.1079853515625,23L277.1589853515625,27.477L279.0829853515625,27.477C279.8038853515625,27.5078,280.5259853515625,27.4558,281.2349853515625,27.322C282.1965853515625,27.0535,282.9049853515625,26.2369,283.0349853515625,25.247C283.08248535156247,25.0399,283.1079853515625,24.8284,283.1109853515625,24.616C283.1494853515625,23.9603,282.7208853515625,23.3682,282.0859853515625,23.2C281.4152853515625,23.0364,280.72468535156247,22.9691,280.0349853515625,23L278.1079853515625,23ZM294.9689853515625,30.9L299.9969853515625,30.9L299.25298535156253,23.273L299.1779853515625,23.273L294.9689853515625,30.9ZM258.8469853515625,30.176L257.9219853515625,34.531L260.76998535156247,34.531Q263.4139853515625,34.531,263.8769853515625,32.391C263.9252853515625,32.1912,263.9507853515625,31.9866,263.9529853515625,31.781Q263.9529853515625,30.181,261.5399853515625,30.181L258.8469853515625,30.176ZM260.4119853515625,22.837L259.5349853515625,26.911L261.9479853515625,26.911C262.5728853515625,26.9533,263.2000853515625,26.8759,263.7959853515625,26.683C264.5053853515625,26.3414,265.0046853515625,25.6765,265.1349853515625,24.9C265.3237853515625,24.3312,265.1855853515625,23.7046,264.7749853515625,23.268C264.3252853515625,22.9349,263.7679853515625,22.7806,263.2109853515625,22.835L260.4119853515625,22.837ZM252.1999853515625,37.894L256.1089853515625,19.578L266.1349853515625,19.578Q266.6129853515625,19.618,266.9549853515625,19.678C267.9741853515625,19.8145,268.9213853515625,20.2785,269.6539853515625,21C270.2129853515625,21.6003,270.5157853515625,22.3949,270.4979853515625,23.215C270.4981853515625,23.5323,270.4645853515625,23.8488,270.3979853515625,24.159Q269.7059853515625,27.343,265.5469853515625,28.337L265.5219853515625,28.389Q269.1349853515625,29.052,269.1349853515625,31.8C269.1439853515625,32.9249,268.8036853515625,34.0248,268.1609853515625,34.948C267.5044853515625,35.8958,266.6040853515625,36.6487,265.5549853515625,37.127C263.90108535156253,37.7302,262.1416853515625,37.9901,260.3839853515625,37.891L252.1999853515625,37.894ZM219.4119853515625,31.944L224.4929853515625,31.944C224.4333053515625,32.2067,224.3998053515625,32.4747,224.3929853515625,32.744Q224.3929853515625,34.654,226.9729853515625,34.655Q229.6729853515625,34.655,230.1329853515625,32.671C230.1653853515625,32.5201,230.1817853515625,32.3663,230.1819853515625,32.212Q230.1819853515625,31.312,228.9199853515625,30.979L224.6959853515625,29.863Q221.1059853515625,28.92,221.1059853515625,26.21C221.1093353515625,25.8275,221.1525653515625,25.4465,221.2349853515625,25.073C221.5977653515625,23.5118,222.5487753515625,22.1506,223.8899853515625,21.273C225.7507953515625,20.0886,227.9314553515625,19.5065,230.1349853515625,19.606Q236.5559853515625,19.606,236.5569853515625,23.572C236.5456853515625,24.1108,236.4786853515625,24.647,236.3569853515625,25.172L231.2189853515625,25.172C231.2955853515625,24.9038,231.3378853515625,24.6269,231.3449853515625,24.348Q231.3449853515625,22.748,229.3719853515625,22.753C228.7104553515625,22.7348,228.0587853515625,22.9163,227.5019853515625,23.274C227.0202253515625,23.5633,226.6812653515625,24.0408,226.5669853515625,24.591C226.5350953515625,24.725,226.5183253515625,24.8622,226.5169853515625,25Q226.5169853515625,25.993,228.0099853515625,26.379L231.2189853515625,27.226C232.2463853515625,27.4497,233.2348853515625,27.8248,234.1519853515625,28.339C235.0705853515625,28.9046,235.6119853515625,29.9222,235.5679853515625,31C235.5634853515625,31.4236,235.5127853515625,31.8454,235.4169853515625,32.258C235.0306853515625,34.1038,233.8325853515625,35.6769,232.1559853515625,36.54C230.2912853515625,37.5007,228.2113353515625,37.9669,226.1149853515625,37.894Q221.4359853515625,37.894,219.9429853515625,35.812C219.4567393515625,35.1194,219.2083035515625,34.2878,219.2349853515625,33.442C219.2482737515625,32.9377,219.3075190515625,32.4356,219.4119853515625,31.944ZM236.0979853515625,37.892L240.0259853515625,19.635L253.9349853515625,19.635L253.19098535156252,23.135L244.3629853515625,23.135L243.5409853515625,26.935L251.8549853515625,26.935L251.0859853515625,30.435L242.7709853515625,30.435L241.9479853515625,34.341L250.9829853515625,34.341L250.21398535156248,37.89L236.0979853515625,37.892ZM307.8809853515625,37.892L311.8069853515625,19.635L325.7179853515625,19.635L324.97198535156247,23.135L316.14498535156247,23.135L315.3239853515625,26.935L323.6349853515625,26.935L322.8659853515625,30.435L314.5539853515625,30.435L313.7349853515625,34.345L322.7689853515625,34.345L321.99798535156253,37.894L307.8809853515625,37.892ZM258.91898535156247,6.224L292.5619853515625,6.224L293.8139853515625,0L260.1699853515625,0L258.91898535156247,6.224ZM256.8629853515625,15.883L290.5059853515625,15.883L291.7569853515625,9.659L258.1139853515625,9.659L256.8629853515625,15.883ZM250.1349853515625,47.9L283.7749853515625,47.9L285.02698535156253,41.676L251.3849853515625,41.676L250.1349853515625,47.9ZM248.0809853515625,57.558L281.7189853515625,57.558L282.9709853515625,51.335L249.3289853515625,51.335L248.0809853515625,57.558ZM285.8609853515625,37.894L297.09898535156253,19.723L303.3629853515625,19.723L306.7499853515625,37.895L300.94998535156253,37.895L300.4629853515625,34.246L293.0429853515625,34.246L290.9899853515625,37.895L280.2899853515625,37.895C280.2991853515625,36.5158,280.3936853515625,35.1385,280.5729853515625,33.771C280.6419853515625,33.046,280.6729853515625,32.548,280.6729853515625,32.279C280.7189853515625,31.8429,280.5622853515625,31.4098,280.2479853515625,31.104C279.7449853515625,30.8215,279.1668853515625,30.7017,278.5929853515625,30.761L276.4349853515625,30.761L274.8959853515625,37.894L269.7419853515625,37.894L273.6679853515625,19.632L282.2399853515625,19.632C283.21608535156247,19.6104,284.1925853515625,19.6438,285.1649853515625,19.732C286.1222853515625,19.7957,287.0167853515625,20.2314,287.6569853515625,20.946C288.1311853515625,21.5601,288.3758853515625,22.3206,288.34898535156253,23.096C288.3456853515625,23.564,288.2943853515625,24.0305,288.1959853515625,24.488C287.9421853515625,25.931,287.04328535156253,27.1791,285.7549853515625,27.877C284.8090853515625,28.3657,283.7837853515625,28.6823,282.7269853515625,28.812L282.7019853515625,28.912C283.6747853515625,28.8292,284.6438853515625,29.1079,285.42398535156246,29.695C285.8916853515625,30.2699,286.1130853515625,31.0065,286.0399853515625,31.744Q286.0399853515625,32.225,285.9629853515625,33.389C285.8221853515625,34.8847,285.7886853515625,36.3885,285.8609853515625,37.894Z" fill-rule="evenodd" fill="#FFFFFF" fill-opacity="1" style="mix-blend-mode:passthrough"/></g></g></g></g></g></svg>