<svg xmlns="http://www.w3.org/2000/svg" xmlns:xlink="http://www.w3.org/1999/xlink" fill="none" version="1.1" width="229.333740234375" height="185.999755859375" viewBox="0 0 229.333740234375 185.999755859375"><g><g><g><path d="M39.0292,7C39.0292,7,0,186,0,186C0,186,181.091,186,181.091,186C181.091,186,220.12,7,220.12,7C220.12,7,39.0292,7,39.0292,7C39.0292,7,39.0292,7,39.0292,7Z" fill="#0041D9" fill-opacity="1" style="mix-blend-mode:passthrough"/></g></g><g><g><path d="M48.2430671875,0C48.2430671875,0,9.2138671875,179,9.2138671875,179C9.2138671875,179,190.3048671875,179,190.3048671875,179C190.3048671875,179,229.3338671875,0,229.3338671875,0C229.3338671875,0,48.2430671875,0,48.2430671875,0C48.2430671875,0,48.2430671875,0,48.2430671875,0Z" fill="#CD5BE8" fill-opacity="1" style="mix-blend-mode:passthrough"/></g></g><g><g><path d="M165.8887145996094,48.03450163574219C165.8887145996094,48.03450163574219,164.21631459960938,48.03450163574219,164.21631459960938,48.03450163574219C164.21631459960938,48.03450163574219,164.21631459960938,44.68963163574219,164.21631459960938,44.68963163574219C164.21631459960938,41.00019163574219,161.2159145996094,37.99980163574219,157.52641459960938,37.99980163574219C153.83701459960938,37.99980163574219,150.8366145996094,41.00019163574219,150.8366145996094,44.68963163574219C150.8366145996094,44.68963163574219,150.8366145996094,48.03450163574219,150.8366145996094,48.03450163574219C150.8366145996094,48.03450163574219,147.25421459960938,48.03450163574219,147.25421459960938,48.03450163574219C146.50661459960938,45.157921635742184,143.9093145996094,43.01717163574219,140.80191459960938,43.01717163574219C137.6944145996094,43.01717163574219,135.09711459960937,45.157921635742184,134.3495145996094,48.03450163574219C134.3495145996094,48.03450163574219,103.77031459960938,48.03450163574219,103.77031459960938,48.03450163574219C103.02271459960937,45.157921635742184,100.42541459960938,43.01717163574219,97.31791459960937,43.01717163574219C94.21051459960938,43.01717163574219,91.61321459960938,45.157921635742184,90.86561459960937,48.03450163574219C90.86561459960937,48.03450163574219,87.28321459960938,48.03450163574219,87.28321459960938,48.03450163574219C87.28321459960938,48.03450163574219,87.28321459960938,44.68963163574219,87.28321459960938,44.68963163574219C87.28321459960938,41.00019163574219,84.28281459960937,37.99980163574219,80.59341459960937,37.99980163574219C76.90393459960937,37.99980163574219,73.90354459960938,41.00019163574219,73.90354459960938,44.68963163574219C73.90354459960938,44.68963163574219,73.90354459960938,48.03450163574219,73.90354459960938,48.03450163574219C73.90354459960938,48.03450163574219,72.23108459960937,48.03450163574219,72.23108459960937,48.03450163574219C69.46484459960938,48.03450163574219,67.21371459960938,50.285701635742186,67.21371459960938,53.05190163574218C67.21371459960938,55.818201635742184,69.46484459960938,58.06930163574219,72.23108459960937,58.06930163574219C72.23108459960937,58.06930163574219,73.90354459960938,58.06930163574219,73.90354459960938,58.06930163574219C73.90354459960938,58.06930163574219,73.90354459960938,61.41420163574219,73.90354459960938,61.41420163574219C73.90354459960938,65.1036016357422,76.90393459960937,68.10400163574218,80.59341459960937,68.10400163574218C84.28281459960937,68.10400163574218,87.28321459960938,65.1036016357422,87.28321459960938,61.41420163574219C87.28321459960938,61.41420163574219,87.28321459960938,58.06930163574219,87.28321459960938,58.06930163574219C87.28321459960938,58.06930163574219,90.86561459960937,58.06930163574219,90.86561459960937,58.06930163574219C91.47441459960937,60.40910163574219,93.30571459960937,62.24040163574219,95.64551459960937,62.84920163574219C95.64551459960937,62.84920163574219,95.64551459960937,66.43160163574218,95.64551459960937,66.43160163574218C95.64551459960937,69.89520163574218,96.41151459960938,73.20670163574218,97.85981459960938,76.3091016357422C97.62731459960938,77.05000163574218,97.46011459960937,77.82100163574219,97.37811459960938,78.61710163574219C92.42431459960937,80.05040163574219,88.95571459960938,84.57440163574219,88.95571459960938,89.8460016357422C88.95571459960938,91.7911016357422,89.44901459960937,93.66250163574219,90.35381459960938,95.35010163574219C88.45391459960938,97.43230163574219,87.28321459960938,100.1918016357422,87.28321459960938,103.22570163574218C87.28321459960938,109.1528016357422,91.71351459960937,114.05150163574218,97.43331459960937,114.81750163574219C98.12571459960938,119.98870163574219,102.19821459960937,124.09120163574218,107.35271459960939,124.83380163574219C107.35271459960939,124.83380163574219,107.35271459960939,131.8949016357422,107.35271459960939,131.8949016357422C104.47611459960937,132.64250163574218,102.33531459960938,135.2398016357422,102.33531459960938,138.34680163574217C102.33531459960938,138.34680163574217,102.33531459960938,141.6918016357422,102.33531459960938,141.6918016357422C102.33531459960938,141.6918016357422,115.71501459960938,141.6918016357422,115.71501459960938,141.6918016357422C115.71501459960938,141.6918016357422,115.71501459960938,138.34680163574217,115.71501459960938,138.34680163574217C115.71501459960938,135.2398016357422,113.57421459960938,132.64250163574218,110.69761459960938,131.8949016357422C110.69761459960938,131.8949016357422,110.69761459960938,124.84220163574219,110.69761459960938,124.84220163574219C114.24321459960937,124.33210163574219,117.28371459960937,122.23310163574219,119.05991459960939,119.28630163574219C120.83601459960937,122.23310163574219,123.87661459960938,124.33210163574219,127.42221459960938,124.84220163574219C127.42221459960938,124.84220163574219,127.42221459960938,131.8949016357422,127.42221459960938,131.8949016357422C124.54561459960937,132.64250163574218,122.40481459960938,135.2398016357422,122.40481459960938,138.34680163574217C122.40481459960938,138.34680163574217,122.40481459960938,141.6918016357422,122.40481459960938,141.6918016357422C122.40481459960938,141.6918016357422,135.7845145996094,141.6918016357422,135.7845145996094,141.6918016357422C135.7845145996094,141.6918016357422,135.7845145996094,138.34680163574217,135.7845145996094,138.34680163574217C135.7845145996094,135.2398016357422,133.64371459960938,132.64250163574218,130.76711459960939,131.8949016357422C130.76711459960939,131.8949016357422,130.76711459960939,124.83550163574219,130.76711459960939,124.83550163574219C136.04371459960936,124.0762016357422,140.19811459960937,119.79800163574218,140.74161459960936,114.45450163574219C145.6955145996094,113.02120163574219,149.16411459960938,108.49720163574219,149.16411459960938,103.22570163574218C149.16411459960938,101.28060163574219,148.67081459960937,99.40910163574219,147.76601459960938,97.72160163574219C149.66591459960938,95.63940163574219,150.8366145996094,92.87980163574218,150.8366145996094,89.8460016357422C150.8366145996094,83.91880163574218,146.40631459960937,79.02020163574218,140.68641459960938,78.25420163574219C140.5961145996094,77.58520163574218,140.4607145996094,76.92960163574219,140.26331459960937,76.30080163574219C141.71171459960937,73.20170163574218,142.4743145996094,69.89020163574219,142.4743145996094,66.43160163574218C142.4743145996094,66.43160163574218,142.4743145996094,62.84920163574219,142.4743145996094,62.84920163574219C144.81411459960935,62.24040163574219,146.64541459960938,60.40910163574219,147.25421459960938,58.06930163574219C147.25421459960938,58.06930163574219,150.8366145996094,58.06930163574219,150.8366145996094,58.06930163574219C150.8366145996094,58.06930163574219,150.8366145996094,61.41420163574219,150.8366145996094,61.41420163574219C150.8366145996094,65.1036016357422,153.83701459960938,68.10400163574218,157.52641459960938,68.10400163574218C161.2159145996094,68.10400163574218,164.21631459960938,65.1036016357422,164.21631459960938,61.41420163574219C164.21631459960938,61.41420163574219,164.21631459960938,58.06930163574219,164.21631459960938,58.06930163574219C164.21631459960938,58.06930163574219,165.8887145996094,58.06930163574219,165.8887145996094,58.06930163574219C168.65471459960938,58.06930163574219,170.90571459960938,55.818201635742184,170.90571459960938,53.05190163574218C170.90571459960938,50.285701635742186,168.65471459960938,48.03450163574219,165.8887145996094,48.03450163574219C165.8887145996094,48.03450163574219,165.8887145996094,48.03450163574219,165.8887145996094,48.03450163574219ZM72.23108459960937,54.72440163574218C71.30956459960937,54.72440163574218,70.55863459960938,53.973401635742185,70.55863459960938,53.05190163574218C70.55863459960938,52.13040163574219,71.30956459960937,51.37950163574219,72.23108459960937,51.37950163574219C72.23108459960937,51.37950163574219,73.90354459960938,51.37950163574219,73.90354459960938,51.37950163574219C73.90354459960938,51.37950163574219,73.90354459960938,54.72440163574218,73.90354459960938,54.72440163574218C73.90354459960938,54.72440163574218,72.23108459960937,54.72440163574218,72.23108459960937,54.72440163574218C72.23108459960937,54.72440163574218,72.23108459960937,54.72440163574218,72.23108459960937,54.72440163574218ZM83.93831459960937,61.41420163574219C83.93831459960937,63.25890163574219,82.43811459960938,64.75910163574218,80.59341459960937,64.75910163574218C78.74861459960937,64.75910163574218,77.24841459960938,63.25890163574219,77.24841459960938,61.41420163574219C77.24841459960938,61.41420163574219,77.24841459960938,44.68963163574219,77.24841459960938,44.68963163574219C77.24841459960938,42.844911635742186,78.74861459960937,41.34472163574219,80.59341459960937,41.34472163574219C82.43811459960938,41.34472163574219,83.93831459960937,42.844911635742186,83.93831459960937,44.68963163574219C83.93831459960937,44.68963163574219,83.93831459960937,61.41420163574219,83.93831459960937,61.41420163574219C83.93831459960937,61.41420163574219,83.93831459960937,61.41420163574219,83.93831459960937,61.41420163574219ZM87.28321459960938,51.37950163574219C87.28321459960938,51.37950163574219,90.62811459960938,51.37950163574219,90.62811459960938,51.37950163574219C90.62811459960938,51.37950163574219,90.62811459960938,54.72440163574218,90.62811459960938,54.72440163574218C90.62811459960938,54.72440163574218,87.28321459960938,54.72440163574218,87.28321459960938,54.72440163574218C87.28321459960938,54.72440163574218,87.28321459960938,51.37950163574219,87.28321459960938,51.37950163574219C87.28321459960938,51.37950163574219,87.28321459960938,51.37950163574219,87.28321459960938,51.37950163574219ZM134.11201459960938,54.72440163574218C134.11201459960938,54.72440163574218,104.00781459960938,54.72440163574218,104.00781459960938,54.72440163574218C104.00781459960938,54.72440163574218,104.00781459960938,51.37950163574219,104.00781459960938,51.37950163574219C104.00781459960938,51.37950163574219,134.11201459960938,51.37950163574219,134.11201459960938,51.37950163574219C134.11201459960938,51.37950163574219,134.11201459960938,54.72440163574218,134.11201459960938,54.72440163574218C134.11201459960938,54.72440163574218,134.11201459960938,54.72440163574218,134.11201459960938,54.72440163574218ZM93.97301459960937,56.396801635742186C93.97301459960937,56.396801635742186,93.97301459960937,49.70700163574219,93.97301459960937,49.70700163574219C93.97301459960937,47.862281635742185,95.47321459960938,46.36209163574219,97.31791459960937,46.36209163574219C99.16271459960937,46.36209163574219,100.66291459960937,47.862281635742185,100.66291459960937,49.70700163574219C100.66291459960937,49.70700163574219,100.66291459960937,56.396801635742186,100.66291459960937,56.396801635742186C100.66291459960937,58.241601635742185,99.16271459960937,59.74180163574219,97.31791459960937,59.74180163574219C95.47321459960938,59.74180163574219,93.97301459960937,58.241601635742185,93.97301459960937,56.396801635742186C93.97301459960937,56.396801635742186,93.97301459960937,56.396801635742186,93.97301459960937,56.396801635742186ZM112.37011459960937,138.34680163574217C112.37011459960937,138.34680163574217,105.68021459960937,138.34680163574217,105.68021459960937,138.34680163574217C105.68021459960937,136.5025016357422,107.18041459960938,135.0024016357422,109.02511459960937,135.0024016357422C110.86991459960937,135.0024016357422,112.37011459960937,136.5025016357422,112.37011459960937,138.34680163574217C112.37011459960937,138.34680163574217,112.37011459960937,138.34680163574217,112.37011459960937,138.34680163574217ZM132.43961459960937,138.34680163574217C132.43961459960937,138.34680163574217,125.74971459960938,138.34680163574217,125.74971459960938,138.34680163574217C125.74971459960938,136.5025016357422,127.24991459960938,135.0024016357422,129.09461459960937,135.0024016357422C130.9394145996094,135.0024016357422,132.43961459960937,136.5025016357422,132.43961459960937,138.34680163574217C132.43961459960937,138.34680163574217,132.43961459960937,138.34680163574217,132.43961459960937,138.34680163574217ZM147.4917145996094,89.8460016357422C147.4917145996094,94.45700163574219,143.74041459960938,98.20830163574219,139.1294145996094,98.20830163574219C139.1294145996094,98.20830163574219,139.1294145996094,101.5532016357422,139.1294145996094,101.5532016357422C141.3153145996094,101.5532016357422,143.35401459960937,100.94110163574219,145.10681459960938,99.89410163574219C145.56331459960938,100.93940163574219,145.81921459960938,102.06160163574219,145.81921459960938,103.22570163574218C145.81921459960938,107.3215016357422,142.88741459960937,110.78520163574218,138.84671459960936,111.46080163574219C138.84671459960936,111.46080163574219,137.45691459960938,111.84380163574218,137.45691459960938,111.84380163574218C137.45691459960938,111.84380163574218,137.45691459960938,113.26040163574218,137.45691459960938,113.26040163574218C137.45691459960938,117.87140163574219,133.70561459960936,121.62270163574219,129.09461459960937,121.62270163574219C124.48371459960939,121.62270163574219,120.73241459960937,117.87140163574219,120.73241459960937,113.26040163574218C120.73241459960937,113.26040163574218,117.38741459960937,113.26040163574218,117.38741459960937,113.26040163574218C117.38741459960937,117.87140163574219,113.63611459960939,121.62270163574219,109.02511459960937,121.62270163574219C104.41421459960938,121.62270163574219,100.66291459960937,117.87140163574219,100.66291459960937,113.26040163574218C100.66291459960937,108.6494016357422,104.41421459960938,104.8981016357422,109.02511459960937,104.8981016357422C109.02511459960937,104.8981016357422,109.02511459960937,101.5532016357422,109.02511459960937,101.5532016357422C103.19161459960938,101.5532016357422,98.35651459960937,105.84470163574218,97.47511459960937,111.43410163574218C93.58671459960938,110.7183016357422,90.62811459960938,107.31820163574218,90.62811459960938,103.22570163574218C90.62811459960938,98.6147016357422,94.37941459960938,94.86340163574218,98.99041459960938,94.86340163574218C98.99041459960938,94.86340163574218,98.99041459960938,91.51850163574218,98.99041459960938,91.51850163574218C96.80451459960938,91.51850163574218,94.76581459960937,92.13060163574218,93.01301459960938,93.17750163574219C92.55651459960937,92.13220163574218,92.30061459960937,91.01000163574219,92.30061459960937,89.8460016357422C92.30061459960937,85.7501016357422,95.23241459960937,82.28650163574218,99.27301459960938,81.61080163574218C99.27301459960938,81.61080163574218,100.66291459960937,81.2278016357422,100.66291459960937,81.2278016357422C100.66291459960937,81.2278016357422,100.66291459960937,79.81120163574218,100.66291459960937,79.81120163574218C100.66291459960937,75.20030163574219,104.41421459960938,71.44900163574218,109.02511459960937,71.44900163574218C113.63611459960939,71.44900163574218,117.38741459960937,75.20030163574219,117.38741459960937,79.81120163574218C117.38741459960937,79.81120163574218,120.73241459960937,79.81120163574218,120.73241459960937,79.81120163574218C120.73241459960937,75.20030163574219,124.48371459960939,71.44900163574218,129.09461459960937,71.44900163574218C133.70561459960936,71.44900163574218,137.45691459960938,75.20030163574219,137.45691459960938,79.81120163574218C137.45691459960938,84.4222016357422,133.70561459960936,88.17350163574218,129.09461459960937,88.17350163574218C129.09461459960937,88.17350163574218,129.09461459960937,91.51850163574218,129.09461459960937,91.51850163574218C134.92821459960936,91.51850163574218,139.76331459960937,87.2269016357422,140.64461459960938,81.63760163574219C144.53311459960938,82.35340163574219,147.4917145996094,85.7535016357422,147.4917145996094,89.8460016357422C147.4917145996094,89.8460016357422,147.4917145996094,89.8460016357422,147.4917145996094,89.8460016357422ZM129.09461459960937,68.10400163574218C124.84161459960937,68.10400163574218,121.11031459960938,70.3836016357422,119.05991459960939,73.78540163574219C117.00951459960937,70.3836016357422,113.27821459960938,68.10400163574218,109.02511459960937,68.10400163574218C105.35911459960937,68.10400163574218,102.08781459960937,69.80490163574218,99.94041459960937,72.45080163574218C99.32991459960937,70.51740163574219,98.99041459960938,68.50880163574219,98.99041459960938,66.43160163574218C98.99041459960938,66.43160163574218,98.99041459960938,62.84920163574219,98.99041459960938,62.84920163574219C101.33021459960938,62.24040163574219,103.16151459960938,60.40910163574219,103.77031459960938,58.06930163574219C103.77031459960938,58.06930163574219,134.3495145996094,58.06930163574219,134.3495145996094,58.06930163574219C134.95831459960937,60.40910163574219,136.78961459960937,62.24040163574219,139.1294145996094,62.84920163574219C139.1294145996094,62.84920163574219,139.1294145996094,66.43160163574218,139.1294145996094,66.43160163574218C139.1294145996094,68.50540163574219,138.78991459960938,70.51240163574218,138.18281459960937,72.44410163574219C136.03371459960937,69.79990163574219,132.75901459960937,68.10400163574218,129.09461459960937,68.10400163574218C129.09461459960937,68.10400163574218,129.09461459960937,68.10400163574218,129.09461459960937,68.10400163574218ZM144.14681459960937,56.396801635742186C144.14681459960937,58.241601635742185,142.6466145996094,59.74180163574219,140.80191459960938,59.74180163574219C138.95711459960938,59.74180163574219,137.45691459960938,58.241601635742185,137.45691459960938,56.396801635742186C137.45691459960938,56.396801635742186,137.45691459960938,49.70700163574219,137.45691459960938,49.70700163574219C137.45691459960938,47.862281635742185,138.95711459960938,46.36209163574219,140.80191459960938,46.36209163574219C142.6466145996094,46.36209163574219,144.14681459960937,47.862281635742185,144.14681459960937,49.70700163574219C144.14681459960937,49.70700163574219,144.14681459960937,56.396801635742186,144.14681459960937,56.396801635742186C144.14681459960937,56.396801635742186,144.14681459960937,56.396801635742186,144.14681459960937,56.396801635742186ZM147.4917145996094,54.72440163574218C147.4917145996094,54.72440163574218,147.4917145996094,51.37950163574219,147.4917145996094,51.37950163574219C147.4917145996094,51.37950163574219,150.8366145996094,51.37950163574219,150.8366145996094,51.37950163574219C150.8366145996094,51.37950163574219,150.8366145996094,54.72440163574218,150.8366145996094,54.72440163574218C150.8366145996094,54.72440163574218,147.4917145996094,54.72440163574218,147.4917145996094,54.72440163574218C147.4917145996094,54.72440163574218,147.4917145996094,54.72440163574218,147.4917145996094,54.72440163574218ZM160.87131459960938,61.41420163574219C160.87131459960938,63.25890163574219,159.37111459960937,64.75910163574218,157.52641459960938,64.75910163574218C155.6817145996094,64.75910163574218,154.1815145996094,63.25890163574219,154.1815145996094,61.41420163574219C154.1815145996094,61.41420163574219,154.1815145996094,44.68963163574219,154.1815145996094,44.68963163574219C154.1815145996094,42.844911635742186,155.6817145996094,41.34472163574219,157.52641459960938,41.34472163574219C159.37111459960937,41.34472163574219,160.87131459960938,42.844911635742186,160.87131459960938,44.68963163574219C160.87131459960938,44.68963163574219,160.87131459960938,61.41420163574219,160.87131459960938,61.41420163574219C160.87131459960938,61.41420163574219,160.87131459960938,61.41420163574219,160.87131459960938,61.41420163574219ZM165.8887145996094,54.72440163574218C165.8887145996094,54.72440163574218,164.21631459960938,54.72440163574218,164.21631459960938,54.72440163574218C164.21631459960938,54.72440163574218,164.21631459960938,51.37950163574219,164.21631459960938,51.37950163574219C164.21631459960938,51.37950163574219,165.8887145996094,51.37950163574219,165.8887145996094,51.37950163574219C166.81021459960937,51.37950163574219,167.56071459960935,52.13040163574219,167.56071459960935,53.05190163574218C167.56071459960935,53.973401635742185,166.81021459960937,54.72440163574218,165.8887145996094,54.72440163574218C165.8887145996094,54.72440163574218,165.8887145996094,54.72440163574218,165.8887145996094,54.72440163574218Z" fill="#FFFFFF" fill-opacity="1" style="mix-blend-mode:passthrough"/></g><g><path d="M104.00778579711914,113.26039673339844C104.00778579711914,116.02664673339844,106.25891579711914,118.27772673339844,109.02515579711914,118.27772673339844C109.02515579711914,118.27772673339844,109.02515579711914,114.93285673339844,109.02515579711914,114.93285673339844C108.10363579711914,114.93285673339844,107.35270579711914,114.18192673339844,107.35270579711914,113.26039673339844C107.35270579711914,112.33887673339844,108.10363579711914,111.58794673339844,109.02515579711914,111.58794673339844C109.02515579711914,111.58794673339844,109.02515579711914,108.24302673339845,109.02515579711914,108.24302673339845C106.25891579711914,108.24302673339845,104.00778579711914,110.49415673339844,104.00778579711914,113.26039673339844C104.00778579711914,113.26039673339844,104.00778579711914,113.26039673339844,104.00778579711914,113.26039673339844Z" fill="#FFFFFF" fill-opacity="1" style="mix-blend-mode:passthrough"/></g><g><path d="M129.0946502685547,106.57056460205078C129.0946502685547,106.57056460205078,129.0946502685547,109.91548460205078,129.0946502685547,109.91548460205078C132.78410026855468,109.91548460205078,135.7844802685547,106.91509460205079,135.7844802685547,103.22565460205078C135.7844802685547,103.22565460205078,132.4395702685547,103.22565460205078,132.4395702685547,103.22565460205078C132.4395702685547,105.07037460205078,130.93937026855468,106.57056460205078,129.0946502685547,106.57056460205078C129.0946502685547,106.57056460205078,129.0946502685547,106.57056460205078,129.0946502685547,106.57056460205078Z" fill="#FFFFFF" fill-opacity="1" style="mix-blend-mode:passthrough"/></g><g><path d="M127.42219813720703,94.86336517333984C127.42219813720703,96.70808517333984,125.92199813720703,98.20828517333985,124.07727813720703,98.20828517333985C124.07727813720703,98.20828517333985,124.07727813720703,101.55319517333984,124.07727813720703,101.55319517333984C127.76672813720702,101.55319517333984,130.76710813720703,98.55281517333984,130.76710813720703,94.86336517333984C130.76710813720703,94.86336517333984,127.42219813720703,94.86336517333984,127.42219813720703,94.86336517333984C127.42219813720703,94.86336517333984,127.42219813720703,94.86336517333984,127.42219813720703,94.86336517333984Z" fill="#FFFFFF" fill-opacity="1" style="mix-blend-mode:passthrough"/></g><g><path d="M115.7149887084961,106.57056460205078C115.7149887084961,106.57056460205078,115.7149887084961,109.91548460205078,115.7149887084961,109.91548460205078C119.40443870849609,109.91548460205078,122.4048187084961,106.91509460205079,122.4048187084961,103.22565460205078C122.4048187084961,103.22565460205078,119.0599087084961,103.22565460205078,119.0599087084961,103.22565460205078C119.0599087084961,105.07037460205078,117.55970870849609,106.57056460205078,115.7149887084961,106.57056460205078C115.7149887084961,106.57056460205078,115.7149887084961,106.57056460205078,115.7149887084961,106.57056460205078Z" fill="#FFFFFF" fill-opacity="1" style="mix-blend-mode:passthrough"/></g><g><path d="M119.05990522583008,89.84599226196289C119.05990522583008,86.15655226196289,116.05951522583008,83.15616226196289,112.37007522583008,83.15616226196289C112.37007522583008,83.15616226196289,112.37007522583008,86.50107226196289,112.37007522583008,86.50107226196289C114.21479522583007,86.50107226196289,115.71498522583008,88.0012722619629,115.71498522583008,89.84599226196289C115.71498522583008,89.84599226196289,119.05990522583008,89.84599226196289,119.05990522583008,89.84599226196289C119.05990522583008,89.84599226196289,119.05990522583008,89.84599226196289,119.05990522583008,89.84599226196289Z" fill="#FFFFFF" fill-opacity="1" style="mix-blend-mode:passthrough"/></g><g><path d="M100.66287231445312,84.82862091064453C100.66287231445312,84.82862091064453,100.66287231445312,88.17354091064453,100.66287231445312,88.17354091064453C102.50759231445312,88.17354091064453,104.00779231445313,89.67373091064454,104.00779231445313,91.51845091064453C104.00779231445313,91.51845091064453,107.35270231445313,91.51845091064453,107.35270231445313,91.51845091064453C107.35270231445313,87.82901091064453,104.35231231445313,84.82862091064453,100.66287231445312,84.82862091064453C100.66287231445312,84.82862091064453,100.66287231445312,84.82862091064453,100.66287231445312,84.82862091064453Z" fill="#FFFFFF" fill-opacity="1" style="mix-blend-mode:passthrough"/></g><g><path d="M134.1120202685547,79.81124283325195C134.1120202685547,77.04500283325196,131.8608902685547,74.79387283325195,129.0946502685547,74.79387283325195C129.0946502685547,74.79387283325195,129.0946502685547,78.13879283325196,129.0946502685547,78.13879283325196C130.0161742685547,78.13879283325196,130.76710026855469,78.88972283325195,130.76710026855469,79.81124283325195C130.76710026855469,80.73277283325196,130.0161742685547,81.48370283325195,129.0946502685547,81.48370283325195C129.0946502685547,81.48370283325195,129.0946502685547,84.82857283325195,129.0946502685547,84.82857283325195C131.8608902685547,84.82857283325195,134.1120202685547,82.57749283325195,134.1120202685547,79.81124283325195C134.1120202685547,79.81124283325195,134.1120202685547,79.81124283325195,134.1120202685547,79.81124283325195Z" fill="#FFFFFF" fill-opacity="1" style="mix-blend-mode:passthrough"/></g></g></g></svg>