<svg xmlns="http://www.w3.org/2000/svg" xmlns:xlink="http://www.w3.org/1999/xlink" fill="none" version="1.1" width="137.728759765625" height="112" viewBox="0 0 137.728759765625 112"><defs><mask id="master_svg0_0_4079" style="mask-type:alpha" maskUnits="objectBoundingBox"><g><rect x="44.68937683105469" y="23.99983024597168" width="49" height="63" rx="0" fill="#FFFFFF" fill-opacity="1"/></g></mask></defs><g><g><g><g><path d="M24.4206,0C24.4206,0,0,112,0,112C0,112,113.309,112,113.309,112C113.309,112,137.729,0,137.729,0C137.729,0,24.4206,0,24.4206,0C24.4206,0,24.4206,0,24.4206,0Z" fill="#CD5BE8" fill-opacity="1" style="mix-blend-mode:passthrough"/></g></g></g><g><g mask="url(#master_svg0_0_4079)"><g><path d="M77.052001953125,25.575132369995117L77.052001953125,35.53891236999512Q77.052001953125,38.01653236999512,78.804119953125,39.76863236999512Q80.556241953125,41.52083236999512,83.03389195312499,41.52083236999512L92.997701953125,41.52083236999512Q93.096101953125,41.52083236999512,93.192701953125,41.50163236999512Q93.289301953125,41.48233236999512,93.380301953125,41.44463236999512Q93.47130195312499,41.407032369995115,93.553201953125,41.35223236999512Q93.635101953125,41.29753236999512,93.704801953125,41.227932369995116Q93.774401953125,41.15823236999512,93.829101953125,41.076332369995114Q93.883801953125,40.99443236999512,93.921501953125,40.903432369995116Q93.959201953125,40.81253236999512,93.978401953125,40.715932369995116Q93.997701953125,40.61933236999512,93.997701953125,40.52083236999512Q93.997701953125,40.32193236999512,93.921501953125,40.13813236999512Q93.845401953125,39.954332369995115,93.704801953125,39.813732369995115L78.759108953125,24.868026369995118Q78.689464953125,24.798382369995117,78.607571953125,24.74366336999512Q78.525679953125,24.688944369995117,78.434685953125,24.651253369995118Q78.343690953125,24.613562369995115,78.247092953125,24.594347369995116Q78.150493553125,24.575132369995117,78.052002162619,24.575132369995117Q77.953510753125,24.575132369995117,77.856911953125,24.594347369995116Q77.760312953125,24.613561369995118,77.669318953125,24.651252369995117Q77.578324953125,24.688943369995116,77.496431953125,24.743662369995118Q77.414539953125,24.798381369995116,77.344895953125,24.868025369995117Q77.204242953125,25.008677369995116,77.128122953125,25.192448369995116Q77.052001953125,25.376220369995117,77.052001953125,25.575132369995117ZM80.218331953125,38.354432369995116Q79.052001953125,37.18813236999512,79.052001953125,35.53891236999512L79.052001953125,27.989352369995117L90.583401953125,39.52083236999512L83.03389195312499,39.52083236999512Q81.384661953125,39.52083236999512,80.218331953125,38.354432369995116Z" fill-rule="evenodd" fill="#FFFFFF" fill-opacity="1" style="mix-blend-mode:passthrough"/></g><g><path d="M92.23975152492523,84.59993236999512Q93.99765152492523,82.84203236999511,93.99765152492523,80.35603236999512L93.99765152492523,40.52083236999512Q93.99765152492523,40.42233236999512,93.97845152492523,40.325732369995116Q93.95925152492524,40.22913236999511,93.92155152492523,40.13813236999512Q93.88385152492523,40.04713236999512,93.82915152492524,39.96523236999512Q93.77445152492524,39.88333236999512,93.70475152492523,39.813732369995115Q93.63515152492523,39.74403236999512,93.55325152492523,39.689332369995114Q93.47135152492524,39.63463236999512,93.38035152492523,39.596932369995116Q93.28935152492522,39.559232369995115,93.19275152492523,39.54003236999512Q93.09615152492523,39.52083236999512,92.99765152492523,39.52083236999512L83.03385152492524,39.52083236999512Q81.38465152492523,39.52083236999512,80.21835152492523,38.354432369995116Q79.05205152492523,37.18813236999512,79.05205152492523,35.53891236999512L79.05205152492523,25.575132369995117Q79.05205152492523,25.476640969995117,79.03275152492523,25.380042369995117Q79.01355152492523,25.283443369995116,78.97585152492523,25.192449369995117Q78.93815152492523,25.101454369995118,78.88345152492523,25.019562369995118Q78.82875152492522,24.937669369995117,78.75915152492523,24.868025369995117Q78.68945152492523,24.798381369995116,78.60755152492524,24.743662369995118Q78.52565152492522,24.688944369995117,78.43465152492523,24.651253369995118Q78.34365152492524,24.613562369995115,78.24705152492524,24.594347369995116Q78.15045152492523,24.575132369995117,78.05205152492523,24.575132369995117L50.651631524925236,24.575132369995117Q48.173991524925235,24.575132369995117,46.421869524925235,26.32725236999512Q44.66975152492523,28.079372369995117,44.66975152492523,30.557022369995117L44.66975152492523,80.37593236999513Q44.66975152492523,82.85353236999512,46.421869524925235,84.60573236999511Q48.173991524925235,86.35783236999512,50.651631524925236,86.35783236999512L87.99585152492523,86.35783236999512Q90.48185152492523,86.35783236999512,92.23975152492523,84.59993236999512ZM91.99765152492523,62.939332369995114L91.99765152492523,80.35603236999512Q91.99765152492523,82.01363236999512,90.82555152492523,83.18573236999512Q89.65345152492523,84.35783236999512,87.99585152492523,84.35783236999512L50.651631524925236,84.35783236999512Q49.00242152492523,84.35783236999512,47.836081524925234,83.19143236999511Q46.66975152492523,82.02513236999512,46.66975152492523,80.37593236999513L46.66975152492523,30.557022369995117Q46.66975152492523,28.907802369995117,47.836081524925234,27.741462369995116Q49.00241152492523,26.575132369995117,50.651631524925236,26.575132369995117L77.05205152492523,26.575132369995117L77.05205152492523,35.53891236999512Q77.05205152492523,38.01653236999512,78.80415152492523,39.76863236999512Q80.55625152492523,41.52083236999512,83.03385152492524,41.52083236999512L91.99765152492523,41.52083236999512L91.99765152492523,62.939332369995114Z" fill-rule="evenodd" fill="#FFFFFF" fill-opacity="1" style="mix-blend-mode:passthrough"/></g><g transform="matrix(-0.8571673035621643,0.5150380730628967,-0.5150380730628967,-0.8571673035621643,176.96865099096533,75.22948943552467)"><path d="M87.6090035571289,67.55282976623535Q89.4680335571289,64.34019976623536,90.28363355712891,62.93087076623535Q90.3375335571289,62.837749766235355,90.3776335571289,62.73789076623535Q90.8606335571289,61.53357576623535,89.74893355712891,60.86800976623535Q89.64623355712891,60.80653976623535,89.5351335571289,60.762129766235354Q88.45103355712891,60.32880976623535,87.75221355712891,61.26433176623535Q87.69920355712891,61.33529476623535,87.6549135571289,61.41199576623535Q81.1848035571289,72.61851976623535,78.56743155712891,77.15771976623535Q77.3734345571289,79.22841976623535,76.96509355712891,79.93951976623535Q76.76273355712891,80.29191976623535,76.73555355712891,80.34211976623536Q76.72177355712891,80.36761976623535,76.7095135571289,80.39231976623535Q76.67301355712891,80.46581976623536,76.64481355712891,80.54261976623535Q76.4406635571289,81.09841976623535,76.67118355712891,81.64381976623535Q77.03162355712891,82.49651976623535,77.95543215712891,82.55671976623535Q78.41115955712891,82.58631976623535,78.8060985571289,82.35701976623535Q78.9949835571289,82.24731976623535,79.14476355712891,82.08831976623534Q79.25293355712891,81.97341976623535,79.33762355712891,81.83431976623535Q79.34913355712891,81.81541976623535,79.3707835571289,81.77861976623535Q79.40415355712891,81.72191976623535,79.47674355712891,81.59731976623536Q80.22695355712891,80.30991976623535,87.6090035571289,67.55282976623535Z" fill-rule="evenodd" fill="#FFFFFF" fill-opacity="1" style="mix-blend-mode:passthrough"/></g><g transform="matrix(-0.8571673035621643,0.5150380730628967,-0.5150380730628967,-0.8571673035621643,175.1680501534537,77.11751211538319)"><path d="M89.0115356262207,73.92735570373534L89.0149356262207,73.92735570373534Q89.2649356262207,73.92735570373534,89.5014356262207,73.84625570373535Q90.02103562622071,73.66805570373535,90.3067356262207,73.20025570373535Q90.60243562622071,72.71598570373536,90.5081356262207,72.15556570373535Q90.4963356262207,72.08522570373535,90.4778356262207,72.01633570373535L87.92003562622071,62.47027070373535Q87.8811356262207,62.32524970373535,87.8143356262207,62.19080770373535Q87.5224356262207,61.603625703735354,86.8918356262207,61.41444570373535Q86.6896156262207,61.35215570373535,86.4780856262207,61.34821570373535Q86.26656562622071,61.34427570373535,86.0622056262207,61.39899570373535L76.5160926262207,63.95491570373535Q76.4728476262207,63.966495703735355,76.43036962622071,63.98063570373535Q75.8680656262207,64.16777570373534,75.5811556262207,64.68468570373535Q75.2700756262207,65.24516570373535,75.4531456262207,65.85170570373535Q75.5895856262207,66.32125570373535,75.98254762622071,66.62383570373535Q76.3916326262207,66.93884570373535,76.9075307262207,66.93884570373535L76.9127784262207,66.93884570373535Q77.1102026262207,66.93884570373535,77.3009046262207,66.88776570373535L85.3806556262207,64.72341570373536L87.5451356262207,72.80313570373535Q87.5832356262207,72.94555570373535,87.6484356262207,73.07775570373535Q88.06683562622071,73.92725570373536,89.0115356262207,73.92735570373534ZM78.3303256262207,65.00100570373534Q78.3399556262207,65.03399570373536,78.3482856262207,65.06783570373535Q78.3334556262207,65.00761570373535,78.31370562622071,64.94882570373535Q78.3224856262207,64.97495570373535,78.3303256262207,65.00100570373534Z" fill-rule="evenodd" fill="#FFFFFF" fill-opacity="1" style="mix-blend-mode:passthrough"/></g></g></g></g></svg>