<svg xmlns="http://www.w3.org/2000/svg" width="166.009" height="134.845" viewBox="0 0 166.009 134.845">
  <g id="_Ícone_lateral_esquerdo_1-mob_" data-name="&lt;Ícone lateral esquerdo_1-mob&gt;" transform="translate(-1295.492 -7911.074)">
    <path id="Caminho_734277" data-name="Caminho 734277" d="M-135.841-.077l130.3.063L-33.106,128.24h-130.2Z" transform="translate(1458.802 7917.679)" fill="#0041d9"/>
    <g id="Grupo_232263" data-name="Grupo 232263" transform="translate(1303.731 7911.074)">
      <path id="Caminho_211005" data-name="Caminho 211005" d="M27.975,0,0,128.3H129.8L157.771,0Z" transform="translate(0 0)" fill="#cd5be8"/>
      <g id="Person_at_a_mountain_holding_a_flag" data-name="Person at a mountain holding a flag" transform="translate(30.801 25.431)">
        <path id="Caminho_770536" data-name="Caminho 770536" d="M76,49.164,60.491,39.62v-23.1h4.293v3.987a.92.92,0,0,0,.92.92h9.813A.92.92,0,0,0,76.283,20l-2.113-3.17,2.113-3.17a.92.92,0,0,0-.765-1.43H70.3V8.242a.92.92,0,0,0-.92-.92H60.491V5.789h-1.84v14a3.357,3.357,0,0,0-.3-.153L43.6,13.857a5.8,5.8,0,0,0-2.126-.4H31.4a5.84,5.84,0,0,0-2.831.734l-8.665,4.817A3.384,3.384,0,0,0,18.6,23.593L24.73,34.636A3.445,3.445,0,0,0,29.213,36V53.014a3.965,3.965,0,0,0,.63,2.147H24a.921.921,0,0,0-.7.321l-7.084,8.265h-5.71a.919.919,0,0,0-.692.314L1.228,73.874A.92.92,0,0,0,1.92,75.4h73.6a.92.92,0,0,0,.92-.92V49.947A.92.92,0,0,0,76,49.164ZM48.364,33.374l-5.045-2.888v-9.5L55.9,25.92a3.367,3.367,0,0,0,2.752-.148V39.714l-7.973,6.91V37.362A4.6,4.6,0,0,0,48.364,33.374ZM73.8,14.068l-1.5,2.25a.92.92,0,0,0,0,1.021l1.5,2.249H66.625V16.522h2.76a.92.92,0,0,0,.92-.92V14.069ZM68.464,9.162v5.52H60.491V9.162ZM29.213,28.808l-3.078-5.539,3.078-1.712Zm-4.777-6.7a.919.919,0,0,0-.358,1.251l4.941,8.888a1.538,1.538,0,0,1-.592,2.088,1.574,1.574,0,0,1-2.09-.6L20.2,22.7a1.541,1.541,0,0,1,.6-2.087L29.468,15.8a4,4,0,0,1,1.936-.5H41.471a3.964,3.964,0,0,1,1.454.275L57.68,21.354a1.515,1.515,0,0,1,.971,1.383v.021a1.519,1.519,0,0,1-.107.575l0,0a1.524,1.524,0,0,1-1.984.865L42.735,18.781a.92.92,0,0,0-1.256.856V31.02a.92.92,0,0,0,.463.8l5.51,3.154a2.756,2.756,0,0,1,1.387,2.39V47.1a2.275,2.275,0,0,1-1.981,2.321,2.191,2.191,0,0,1-1.686-.628,2.164,2.164,0,0,1-.626-1.521V40.146a2.162,2.162,0,0,0-1.077-1.866l-6.746-3.852a.92.92,0,0,0-1.376.8v17.59a2.436,2.436,0,0,1-.765,1.765,2.018,2.018,0,0,1-1.512.574,2.138,2.138,0,0,1-2.016-2.143V19.993a.919.919,0,0,0-1.367-.8Zm12.75,30.709V36.812l5.366,3.063a.31.31,0,0,1,.155.271v7.127a3.936,3.936,0,0,0,2.834,3.8L40.829,55.16h-4.36A4.269,4.269,0,0,0,37.186,52.818ZM10.924,65.587H16.64a.921.921,0,0,0,.7-.321L24.422,57h16.75a.919.919,0,0,0,.6-.225l17.3-14.993L64.65,61.855l-4.4,3.3a.921.921,0,0,0-.33,1l2.191,7.405H3.947ZM74.6,73.56H64.026l-2.164-7.314,4.395-3.3a.92.92,0,0,0,.334-.982L61.085,42.146,74.6,50.461Z" transform="translate(0 1.038)" fill="#fff" stroke="#fff" stroke-width="0.5"/>
        <path id="Caminho_770537" data-name="Caminho 770537" d="M44.7,50.913l-4.906,4.906a.92.92,0,0,1-.65.27h-6.9l-3.4,4.538-1.472-1.1,3.68-4.906a.922.922,0,0,1,.736-.368h6.979l4.637-4.637Z" transform="translate(5.714 10.536)" fill="#fff" stroke="#fff" stroke-width="0.5"/>
        <path id="Caminho_770538" data-name="Caminho 770538" d="M31.022,12.653A5.826,5.826,0,1,0,25.2,6.827a5.826,5.826,0,0,0,5.826,5.826Zm0-9.813a3.987,3.987,0,1,1-3.987,3.987A3.987,3.987,0,0,1,31.022,2.84Z" transform="translate(5.244 0)" fill="#fff" stroke="#fff" stroke-width="0.5"/>
      </g>
    </g>
  </g>
</svg>
