<svg xmlns="http://www.w3.org/2000/svg" xmlns:xlink="http://www.w3.org/1999/xlink" fill="none" version="1.1" width="229.333740234375" height="185.999755859375" viewBox="0 0 229.333740234375 185.999755859375"><g><g><g><path d="M39.0292,7C39.0292,7,0,186,0,186C0,186,181.091,186,181.091,186C181.091,186,220.12,7,220.12,7C220.12,7,39.0292,7,39.0292,7C39.0292,7,39.0292,7,39.0292,7Z" fill="#0041D9" fill-opacity="1" style="mix-blend-mode:passthrough"/></g></g><g><g><path d="M48.2430671875,0C48.2430671875,0,9.2138671875,179,9.2138671875,179C9.2138671875,179,190.3048671875,179,190.3048671875,179C190.3048671875,179,229.3338671875,0,229.3338671875,0C229.3338671875,0,48.2430671875,0,48.2430671875,0C48.2430671875,0,48.2430671875,0,48.2430671875,0Z" fill="#9285F9" fill-opacity="1" style="mix-blend-mode:passthrough"/></g></g><g><g><path d="M133.5906760864258,56.097644805941016C133.7792760864258,57.36828902954102,133.9314760864258,58.682259029541015,134.0469760864258,60.03956902954101C150.8025760864258,66.31559902954102,161.91237608642578,82.32119902954102,161.9325760864258,100.21359902954102C161.9325760864258,100.77019902954102,161.91157608642578,101.32189902954102,161.8904760864258,101.87339902954102C156.2939760864258,98.65489902954101,149.1662760864258,100.24109902954102,145.46277608642578,105.52919902954102C141.29547608642577,102.81289902954101,135.8072760864258,103.31939902954102,132.20737608642577,106.75239902954101C128.60757608642578,110.185499029541,127.84147608642579,115.64359902954101,130.3571760864258,119.93499902954102C127.73957608642579,121.01789902954101,125.56797608642577,122.95879902954101,124.19917608642578,125.43889902954102C120.67487608642578,123.88499902954102,116.63587608642578,124.01449902954101,113.21837608642578,125.79099902954101C111.92937608642578,123.27579902954102,109.82767608642578,121.27039902954101,107.25487608642578,120.10069902954102C108.87687608642578,116.77899902954101,108.67257608642578,112.85579902954102,106.71427608642578,109.72049902954102C104.75587608642579,106.58519902954102,101.32007608642579,104.68039902954101,97.62347608642578,104.68069902954102C95.96597608642578,104.67709902954101,94.33077608642579,105.06269902954102,92.84957608642578,105.80659902954102C89.21847608642578,100.31039902954102,81.93705608642578,98.58919902954102,76.22928608642579,101.87789902954101C76.20805608642578,101.32489902954102,76.18706608642579,100.77179902954101,76.18706608642579,100.21359902954102C76.20719608642578,82.32119902954102,87.31707608642579,66.31549902954102,104.07267608642579,60.03951902954102C104.18707608642578,58.68267902954101,104.33917608642578,57.36869902954101,104.52897608642579,56.097599029541016C82.86347608642578,63.234079029541014,69.58707608642578,85.04729902954102,73.20095508642578,107.569899029541C76.81483608642579,130.092399029541,96.24917608642578,146.656999029541,119.05987608642579,146.656999029541C141.87047608642578,146.656999029541,161.3048760864258,130.092399029541,164.9187760864258,107.569899029541C168.5326760864258,85.04729902954102,155.25627608642577,63.234099029541014,133.5906760864258,56.097604751591014C133.5906760864258,56.097604751591014,133.5906760864258,56.097644805941016,133.5906760864258,56.097644805941016ZM119.05977608642579,143.09729902954103C97.62207608642578,143.06589902954101,79.49306608642578,127.22539902954101,76.58640608642578,105.98559902954102C78.71302608642578,104.12849902954102,81.59411608642579,103.38949902954101,84.35207608642578,103.99359902954102C87.11007608642578,104.59769902954102,89.41837608642578,106.47349902954102,90.57387608642578,109.04959902954101C90.79847608642578,109.54609902954101,91.23747608642579,109.91299902954101,91.76597608642578,110.04579902954102C92.29447608642579,110.17869902954101,92.85477608642577,110.06309902954101,93.28747608642578,109.73179902954101C94.52887608642578,108.771999029541,96.05427608642577,108.25219902954102,97.62347608642578,108.25429902954102C101.56837608642579,108.25929902954101,104.76487608642577,111.45659902954102,104.76887608642579,115.40159902954102C104.77547608642578,117.05079902954103,104.20497608642577,118.65029902954102,103.15607608642578,119.92309902954102C102.76567608642578,120.40039902954102,102.64897608642578,121.04519902954101,102.84727608642578,121.62909902954101C103.04557608642578,122.21289902954102,103.53097608642578,122.65319902954101,104.13127608642579,122.79399902954101C107.26037608642578,123.52939902954101,109.75257608642579,125.88999902954102,110.65657608642579,128.97459902954103C110.82357608642579,129.54679902954103,111.26497608642578,129.998099029541,111.83347608642578,130.177599029541C112.40187608642577,130.35719902954102,113.02247608642578,130.241299029541,113.48787608642579,129.868799029541C116.52777608642577,127.43129902954101,120.79857608642578,127.25069902954101,124.03337608642579,129.42299902954102C124.49237608642578,129.731699029541,125.06857608642578,129.810299029541,125.59357608642578,129.635899029541C126.11857608642578,129.46159902954102,126.53327608642579,129.053799029541,126.71637608642578,128.53179902954102C127.79187608642579,125.45479902954102,130.46167608642577,123.21069902954102,133.67777608642578,122.68049902954101C134.3435760864258,122.57069902954102,134.89077608642577,122.09529902954101,135.0924760864258,121.45139902954102C135.29427608642578,120.80749902954102,135.11617608642578,120.10489902954102,134.6320760864258,119.63479902954101C131.8295760864258,116.85869902954101,131.80867608642578,112.33639902954101,134.58507608642577,109.53429902954102C137.3614760864258,106.73209902954102,141.88377608642577,106.711199029541,144.68587608642576,109.48759902954102C145.0974760864258,109.90439902954103,145.68717608642578,110.09289902954102,146.26417608642578,109.99209902954101C146.84117608642578,109.89129902954102,147.3320760864258,109.51399902954103,147.5779760864258,108.98239902954101C148.75087608642576,106.42979902954102,151.05787608642578,104.57899902954102,153.8039760864258,103.98729902954102C156.55017608642578,103.39569902954102,159.41457608642577,104.13229902954102,161.53457608642577,105.97539902954102C158.63247608642578,127.21969902954102,140.50137608642578,143.06589902954101,119.05977608642579,143.09729902954103C119.05977608642579,143.09729902954103,119.05977608642579,143.09729902954103,119.05977608642579,143.09729902954103Z" fill="#FFFFFF" fill-opacity="1" style="mix-blend-mode:passthrough"/></g><g><path d="M124.41892937011718,69.8377333569336C124.41812937011719,66.87817335693359,122.01848937011718,64.4795037099336,119.05890937011719,64.48000343500199C116.10024937011718,64.48000343500199,113.7009811401172,66.87907335693359,113.70072937011719,69.83864335693359C113.70072937011719,72.79866335693359,116.09979937011718,75.1979033569336,119.05936937011718,75.19820335693359C122.01832937011719,75.19480335693359,124.41602937011719,72.79669335693359,124.41892937011718,69.8377333569336C124.41892937011718,69.8377333569336,124.41892937011718,69.8377333569336,124.41892937011718,69.8377333569336ZM117.2734593701172,69.8377333569336C117.27370937011719,68.8512133569336,118.07360937011718,68.05166335693359,119.06012937011718,68.0518333569336C120.04633937011718,68.0518333569336,120.84610937011719,68.8515233569336,120.84618937011719,69.8380433569336C120.84618937011719,70.82472335693359,120.04649937011719,71.62447335693359,119.05996937011719,71.62455335693359C118.07366937011719,71.62338335693359,117.27445937011719,70.8240333569336,117.2734593701172,69.8377333569336C117.2734593701172,69.8377333569336,117.2734593701172,69.8377333569336,117.2734593701172,69.8377333569336Z" fill="#FFFFFF" fill-opacity="1" style="mix-blend-mode:passthrough"/></g><g><path d="M101.1961754224795,94.81784400634766C101.1832473914795,95.47614400634765,101.5333983914795,96.08824400634765,102.10744539147949,96.41084400634766C102.68148939147949,96.73344400634765,103.38641939147949,96.71424400634766,103.94201939147949,96.36074400634766C103.94201939147949,96.36074400634766,112.27922939147949,91.05394400634765,112.27922939147949,91.05394400634765C112.6065293914795,91.94184400634765,112.93592939147949,92.83074400634766,113.3021293914795,93.73634400634765C113.57512939147949,94.41134400634766,114.23042939147949,94.85314400634766,114.95852939147949,94.85314400634766C114.95852939147949,94.85314400634766,117.2734293914795,94.85314400634766,117.2734293914795,94.85314400634766C117.2734293914795,94.85314400634766,117.2734293914795,100.21364400634765,117.2734293914795,100.21364400634765C117.2734293914795,101.20014400634766,118.07322939147949,101.99994400634766,119.0598293914795,101.99994400634766C120.04642939147949,101.99994400634766,120.8462293914795,101.20014400634766,120.8462293914795,100.21364400634765C120.8462293914795,100.21364400634765,120.8462293914795,94.85314400634766,120.8462293914795,94.85314400634766C120.8462293914795,94.85314400634766,123.16112939147949,94.85314400634766,123.16112939147949,94.85314400634766C123.88932939147949,94.85314400634766,124.54462939147949,94.41134400634766,124.8175293914795,93.73634400634765C125.18372939147949,92.83074400634766,125.5131293914795,91.94184400634765,125.84042939147949,91.05404400634765C125.84042939147949,91.05404400634765,134.17762939147948,96.36084400634766,134.17762939147948,96.36084400634766C134.73322939147948,96.71424400634766,135.4382293914795,96.73344400634765,136.01222939147948,96.41084400634766C136.5862293914795,96.08824400634765,136.9364293914795,95.47614400634765,136.9234293914795,94.81784400634766C136.45742939147948,87.01804400634765,134.1900293914795,79.43234400634765,130.2990293914795,72.65634400634767C133.0443293914795,47.958444006347655,121.05172939147948,33.67319400634766,120.4100293914795,32.931809006347656C120.06122939147949,32.55666200634766,119.57202939147949,32.34354443225066,119.0598293914795,32.343544006347656C118.54752939147949,32.343544006347656,118.05842939147949,32.55666100634765,117.70952939147949,32.931809006347656C117.0679293914795,33.67315400634766,105.0754093914795,47.958444006347655,107.8205193914795,72.65634400634767C103.92959939147948,79.43234400634765,101.6621563914795,87.01804400634765,101.1961754224795,94.81784400634766C101.1961754224795,94.81784400634766,101.1961754224795,94.81784400634766,101.1961754224795,94.81784400634766ZM132.9983293914795,91.37414400634765C132.9983293914795,91.37414400634765,127.04172939147949,87.58194400634765,127.04172939147949,87.58194400634765C127.98422939147949,84.66724400634766,128.7577293914795,81.70044400634765,129.35822939147948,78.69644400634766C131.1293293914795,82.74194400634767,132.3535293914795,87.00534400634766,132.9983293914795,91.37414400634765C132.9983293914795,91.37414400634765,132.9983293914795,91.37414400634765,132.9983293914795,91.37414400634765ZM119.0598293914795,37.13362400634766C122.95992939147949,43.249544006347655,125.4819293914795,50.141244006347655,126.45052939147949,57.330044006347656C126.45052939147949,57.330044006347656,111.6690293914795,57.330044006347656,111.6690293914795,57.330044006347656C112.63752939147949,50.141244006347655,115.1596293914795,43.249544006347655,119.0598293914795,37.13360400634765C119.0598293914795,37.13360400634765,119.0598293914795,37.13362400634766,119.0598293914795,37.13362400634766ZM111.26672939147949,60.90354400634766C111.26672939147949,60.90354400634766,126.85282939147949,60.90354400634766,126.85282939147949,60.90354400634766C127.5336293914795,69.26324400634766,126.53172939147949,79.47964400634766,121.94782939147949,91.27944400634766C121.94782939147949,91.27944400634766,120.8462293914795,91.27944400634766,120.8462293914795,91.27944400634766C120.8462293914795,91.27944400634766,120.8462293914795,83.23884400634765,120.8462293914795,83.23884400634765C120.8462293914795,82.25224400634767,120.04642939147949,81.45254400634767,119.0598293914795,81.45254400634767C118.07322939147949,81.45254400634767,117.2734293914795,82.25224400634767,117.2734293914795,83.23884400634765C117.2734293914795,83.23884400634765,117.2734293914795,91.27954400634766,117.2734293914795,91.27954400634766C117.2734293914795,91.27954400634766,116.17182939147949,91.27954400634766,116.17182939147949,91.27954400634766C111.58792939147949,79.47974400634766,110.5860193914795,69.26314400634766,111.26672939147949,60.90354400634766C111.26672939147949,60.90354400634766,111.26672939147949,60.90354400634766,111.26672939147949,60.90354400634766ZM111.0778693914795,87.58184400634767C111.0778693914795,87.58184400634767,105.1160593914795,91.37714400634766,105.1160593914795,91.37714400634766C105.7588393914795,87.00534400634766,106.98463939147949,82.73934400634766,108.76069939147949,78.69304400634766C109.3612693914795,81.69824400634766,110.13496939147949,84.66614400634765,111.07789939147949,87.58204400634766C111.07789939147949,87.58204400634766,111.0778693914795,87.58184400634767,111.0778693914795,87.58184400634767Z" fill="#FFFFFF" fill-opacity="1" style="mix-blend-mode:passthrough"/></g><g><path d="M114.60963061035156,98.67546731933594C114.20184061035157,98.43409651933594,113.71482061035157,98.36476821933594,113.25588061035157,98.48275681933593C112.79694061035157,98.60076031933593,112.40375061035157,98.89639231933593,112.16296061035156,99.30451931933594C112.10802061035156,99.39787931933594,106.77422061035156,108.73192731933594,118.09426061035157,116.01102731933594C118.68230061035156,116.38972731933593,119.43738061035157,116.38972731933593,120.02542061035156,116.01102731933594C131.34550061035156,108.73202731933594,126.01160061035156,99.39787931933594,125.95670061035156,99.30454131933594C125.45780061035157,98.45327681933594,124.36320061035156,98.16772431933593,123.51200061035156,98.66669431933593C122.66070061035157,99.16566431933593,122.37520061035156,100.26022731933594,122.87410061035156,101.11147731933593C123.23530061035156,101.74442731933594,126.06920061035156,107.23225731933594,119.05984061035156,112.34402731933594C112.05045061035156,107.23222731933593,114.88352061035157,101.74480731933593,115.23852061035156,101.12278731933594C115.74093061035157,100.27335731933594,115.45932061035157,99.17746631933593,114.60964061035156,98.67547531933593C114.60964061035156,98.67547531933593,114.60963061035156,98.67546731933594,114.60963061035156,98.67546731933594Z" fill="#FFFFFF" fill-opacity="1" style="mix-blend-mode:passthrough"/></g></g></g></svg>