<svg xmlns="http://www.w3.org/2000/svg" xmlns:xlink="http://www.w3.org/1999/xlink" fill="none" version="1.1" width="258" height="208.671875" viewBox="0 0 258 208.671875"><g><g><g><g><path d="M43.9727,7C43.9727,7,0,208.672,0,208.672C0,208.672,204.028,208.672,204.028,208.672C204.028,208.672,248,7,248,7C248,7,43.9727,7,43.9727,7C43.9727,7,43.9727,7,43.9727,7Z" fill="#CD5BE8" fill-opacity="1" style="mix-blend-mode:passthrough"/></g></g></g><g><g><g><path d="M53.9727,0C53.9727,0,10,201.672,10,201.672C10,201.672,214.028,201.672,214.028,201.672C214.028,201.672,258,0,258,0C258,0,53.9727,0,53.9727,0C53.9727,0,53.9727,0,53.9727,0Z" fill="#F93549" fill-opacity="1" style="mix-blend-mode:passthrough"/></g></g></g><g><g><path d="M151.2993453491211,124.16677037353516C150.3208453491211,124.16677037353516,149.4023453491211,123.78467037353516,148.7087453491211,123.09347037353515C148.7087453491211,123.09347037353515,134.5007453491211,108.88467037353516,134.5007453491211,108.88467037353516C134.5007453491211,108.88467037353516,120.29421534912109,123.09347037353515,120.29421534912109,123.09347037353515C119.6006053491211,123.78467037353516,118.6797153491211,124.16677037353516,117.6987553491211,124.16677037353516C116.7214553491211,124.16677037353516,115.80007534912109,123.78467037353516,115.1069553491211,123.09347037353515C113.67922234912109,121.66317037353517,113.67922234912109,119.33657037353515,115.1069553491211,117.90847037353515C115.1069553491211,117.90847037353515,129.3132453491211,103.69997037353515,129.3132453491211,103.69997037353515C129.3132453491211,103.69997037353515,115.10451534912109,89.49357037353516,115.10451534912109,89.49357037353516C113.67922234912109,88.06547037353516,113.67922234912109,85.73905037353515,115.10451534912109,84.30863037353515C115.7978753491211,83.61722537353516,116.71926534912109,83.23538971353516,117.6987553491211,83.23538971353516C118.6772653491211,83.23538971353516,119.59767534912109,83.61722537353516,120.2917753491211,84.30863037353515C120.2917753491211,84.30863037353515,134.5007453491211,98.51497037353516,134.5007453491211,98.51497037353516C134.5007453491211,98.51497037353516,148.7087453491211,84.30643037353515,148.7087453491211,84.30643037353515C149.4023453491211,83.61502837353515,150.3208453491211,83.23307037353516,151.2993453491211,83.23307037353516C152.2793453491211,83.23307037353516,153.2002453491211,83.61502837353515,153.8935453491211,84.30863037353515C155.32184534912108,85.73673037353515,155.32184534912108,88.06315037353515,153.8935453491211,89.49125037353515C153.8935453491211,89.49125037353515,139.6848453491211,103.69997037353515,139.6848453491211,103.69997037353515C139.6848453491211,103.69997037353515,153.8935453491211,117.90847037353515,153.8935453491211,117.90847037353515C155.32184534912108,119.33657037353515,155.32184534912108,121.66317037353517,153.8935453491211,123.09347037353515C153.2002453491211,123.78467037353516,152.2793453491211,124.16677037353516,151.2993453491211,124.16677037353516C151.2993453491211,124.16677037353516,151.2993453491211,124.16677037353516,151.2993453491211,124.16677037353516Z" fill="#FFFFFF" fill-opacity="1" style="mix-blend-mode:passthrough"/></g><g><path d="M134.5000228881836,45.861366271972656C165.15202288818358,45.861366271972656,190.0000228881836,70.70936627197266,190.0000228881836,101.36136627197266C190.0000228881836,132.01336627197264,165.15202288818358,156.86136627197266,134.5000228881836,156.86136627197266C103.84802288818359,156.86136627197266,79.0000228881836,132.01336627197264,79.0000228881836,101.36136627197266C79.0000228881836,70.70936627197266,103.84802288818359,45.861366271972656,134.5000228881836,45.861366271972656C134.5000228881836,45.861366271972656,134.5000228881836,45.861366271972656,134.5000228881836,45.861366271972656ZM134.5000228881836,53.60555627197266C108.12542288818359,53.60555627197266,86.7442128881836,74.98676627197266,86.7442128881836,101.36136627197266C86.7442128881836,127.73596627197266,108.12542288818359,149.11736627197266,134.5000228881836,149.11736627197266C160.87462288818358,149.11736627197266,182.2560228881836,127.73596627197266,182.2560228881836,101.36136627197266C182.2560228881836,74.98676627197266,160.87462288818358,53.60555627197266,134.5000228881836,53.60555627197266C134.5000228881836,53.60555627197266,134.5000228881836,53.60555627197266,134.5000228881836,53.60555627197266Z" fill="#FFFFFF" fill-opacity="1" style="mix-blend-mode:passthrough"/></g></g></g></svg>