<svg xmlns="http://www.w3.org/2000/svg" xmlns:xlink="http://www.w3.org/1999/xlink" fill="none" version="1.1" width="258" height="208.671875" viewBox="0 0 258 208.671875"><g><g><g><g><path d="M43.9727,7C43.9727,7,0,208.672,0,208.672C0,208.672,204.028,208.672,204.028,208.672C204.028,208.672,248,7,248,7C248,7,43.9727,7,43.9727,7C43.9727,7,43.9727,7,43.9727,7Z" fill="#40BBFF" fill-opacity="1" style="mix-blend-mode:passthrough"/></g></g></g><g><g><g><path d="M53.9727,0C53.9727,0,10,201.672,10,201.672C10,201.672,214.028,201.672,214.028,201.672C214.028,201.672,258,0,258,0C258,0,53.9727,0,53.9727,0C53.9727,0,53.9727,0,53.9727,0Z" fill="#3B4AFF" fill-opacity="1" style="mix-blend-mode:passthrough"/></g></g><g><g><path d="M134.5000228881836,46.000038146972656C165.15202288818358,46.000038146972656,190.0000228881836,70.84803814697266,190.0000228881836,101.50003814697266C190.0000228881836,132.15203814697264,165.15202288818358,157.00003814697266,134.5000228881836,157.00003814697266C103.84802288818359,157.00003814697266,79.0000228881836,132.15203814697264,79.0000228881836,101.50003814697266C79.0000228881836,70.84803814697266,103.84802288818359,46.000038146972656,134.5000228881836,46.000038146972656C134.5000228881836,46.000038146972656,134.5000228881836,46.000038146972656,134.5000228881836,46.000038146972656ZM134.5000228881836,53.74422814697266C108.12542288818359,53.74422814697266,86.7442128881836,75.12543814697266,86.7442128881836,101.50003814697266C86.7442128881836,127.87463814697266,108.12542288818359,149.25603814697266,134.5000228881836,149.25603814697266C160.87462288818358,149.25603814697266,182.2560228881836,127.87463814697266,182.2560228881836,101.50003814697266C182.2560228881836,75.12543814697266,160.87462288818358,53.74422814697266,134.5000228881836,53.74422814697266C134.5000228881836,53.74422814697266,134.5000228881836,53.74422814697266,134.5000228881836,53.74422814697266Z" fill="#FFFFFF" fill-opacity="1" style="mix-blend-mode:passthrough"/></g><g><path d="M158.67900777282716,104.64918321533203C158.64930777282714,104.24918321533204,158.52390777282716,103.86938321533204,158.30600777282714,103.51948321533203C157.90180777282714,102.84258321533203,157.20680777282715,102.31948321533203,156.48850777282715,102.15308321533203C156.22980777282714,102.09478321533203,155.96940777282714,102.06518321533203,155.71440777282714,102.06518321533203C155.15630777282715,102.06518321533203,154.63380777282714,102.21008321533203,154.20250777282715,102.48508321533203C153.83970777282715,102.71778321533203,152.98120777282713,103.36748321533203,152.84100777282714,104.36848321533203C152.60650777282714,106.01068321533202,152.17700777282715,107.61788321533203,151.56480777282715,109.14578321533203C150.91430777282716,110.64288321533203,150.08890777282716,112.06068321533203,149.11110777282715,113.36018321533203C148.16070777282715,114.54688321533203,147.08240777282714,115.62578321533204,145.90660777282716,116.56688321533204C144.59580777282716,117.55588321533203,143.16330777282715,118.39148321533203,141.64930777282714,119.05038321533203C140.15390777282715,119.64938321533202,138.59630777282715,120.07058321533202,137.01970777282716,120.30228321533204C136.22720777282714,120.39558321533204,135.41990777282714,120.44288321533203,134.62050777282715,120.44288321533203C133.81860777282714,120.44288321533203,133.00790777282714,120.39528321533203,132.21100777282714,120.30128321533203C130.61480777282713,120.06728321533203,129.04200777282716,119.64278321533203,127.53610777282715,119.03978321533202C126.02690777282714,118.38408321533203,124.60270777282715,117.55388321533204,123.30310777282715,116.57198321533204C122.14170777282715,115.64308321533204,121.07230777282714,114.57258321533203,120.12453777282715,113.39008321533203C119.13148777282714,112.07218321533203,118.29787777282715,110.64248321533202,117.64674777282715,109.14018321533203C117.04530777282714,107.64118321533203,116.62270777282714,106.07988321533203,116.39064777282715,104.49908321533204C116.20302777282714,102.90588321533204,116.20326777282715,101.28838321533203,116.39149777282715,99.69148321533203C116.62550777282715,98.09558321533203,117.04994777282715,96.52288321533203,117.65309777282715,95.01678321533203C118.30873777282714,93.50718321533203,119.13918777282714,92.08278321533203,120.12111777282715,90.78308321533203C121.05010777282715,89.62148321533203,122.12100777282714,88.55188321533203,123.30380777282716,87.60388321533203C124.62400777282716,86.60898321533203,126.05140777282715,85.77583321533203,127.54650777282714,85.12755321533203C129.03680777282716,84.52975321533204,130.59630777282715,84.10866321533203,132.18180777282714,83.87595321533203C132.96300777282715,83.78411321533203,133.76080777282715,83.73755321533203,134.55320777282714,83.73755321533203C135.35630777282714,83.73755321533203,136.17010777282715,83.78541321533203,136.97170777282716,83.87972321533204C138.58580777282714,84.11710321533204,140.17640777282713,84.54729321533203,141.69900777282714,85.15856321533204C143.18730777282715,85.80356321533203,144.60330777282715,86.62958321533203,145.90770777282717,87.61388321533204C146.37010777282714,87.98408321533203,146.81840777282716,88.37578321533204,147.24830777282716,88.78508321533204C146.79340777282715,88.78478321533203,146.33800777282715,88.78438321533203,145.88270777282713,88.78388321533203C144.78790777282714,88.78258321533204,143.69310777282715,88.78138321533203,142.59950777282714,88.78138321533203C142.59950777282714,88.78138321533203,141.09380777282715,88.78138321533203,141.09380777282715,88.78138321533203C140.29010777282716,88.78138321533203,139.49670777282714,89.12948321533203,138.91700777282716,89.73668321533204C138.36350777282715,90.31628321533204,138.07810777282714,91.05218321533204,138.11320777282714,91.80868321533202C138.14890777282716,92.58268321533203,138.45970777282716,93.30838321533203,138.98850777282715,93.85218321533203C139.54470777282714,94.42398321533203,140.29150777282715,94.74098321533202,141.09380777282715,94.74448321533202C142.44390777282715,94.74448321533202,143.83990777282713,94.74448321533202,145.21320777282716,94.74948321533203C146.30600777282714,94.74948321533203,147.40020777282714,94.75068321533203,148.49430777282714,94.75198321533203C149.58910777282716,94.75318321533203,150.68400777282716,94.75438321533203,151.77760777282714,94.75438321533203C151.77760777282714,94.75438321533203,153.28330777282716,94.75438321533203,153.28330777282716,94.75438321533203C153.53460777282714,94.75438321533203,153.78630777282714,94.72118321533203,154.03100777282714,94.65558321533203C154.31540777282714,94.58408321533203,154.58090777282715,94.46978321533203,154.81650777282715,94.31838321533203C154.82690777282716,94.31188321533203,154.83680777282714,94.30528321533203,154.84680777282716,94.29858321533203C154.84680777282716,94.29858321533203,154.85170777282715,94.29528321533203,154.85170777282715,94.29528321533203C155.72350777282713,93.74428321533203,156.26490777282714,92.77828321533204,156.26490777282714,91.77288321533203C156.26490777282714,90.41788321533203,156.26490777282714,89.01668321533204,156.26980777282716,87.63348321533203C156.26980777282716,86.54309321533204,156.27100777282715,85.45398321533203,156.27220777282716,84.36487321533203C156.27360777282715,83.27496321533204,156.27480777282716,82.18511321533204,156.27480777282716,81.09396321533202C156.27480777282716,81.09396321533202,156.27480777282716,79.58331321533203,156.27480777282716,79.58331321533203C156.27480777282716,78.82411321533203,155.96020777282715,78.06397321533203,155.41200777282714,77.49772621533204C154.85950777282716,76.92720821533203,154.11540777282715,76.59998321533203,153.37010777282714,76.59998321533203C153.32920777282715,76.59998321533203,153.28830777282715,76.60092830633204,153.24750777282713,76.60281562533203C151.60110777282716,76.67869571533203,150.31170777282716,77.98784321533203,150.31170777282716,79.58331321533203C150.31170777282716,80.87885321533203,150.31170777282716,82.21657321533203,150.30730777282716,83.54052321533203C149.16820777282715,82.57758321533203,147.94790777282714,81.72541321533203,146.66800777282714,81.00000321533203C142.96790777282715,78.89875321533204,138.78290777282714,77.78808321533204,134.56540777282714,77.78808321533204C134.48010777282715,77.78808321533204,134.39540777282716,77.78857321533204,134.31030777282714,77.78947321533204C132.09510777282713,77.81272321533203,129.88280777282716,78.14387321533204,127.73500777282715,78.77373321533203C125.58270777282715,79.40492321533203,123.54230777282714,80.32234321533203,121.67040777282715,81.50065321533204C119.81361777282714,82.67195321533202,118.12123777282714,84.08540321533204,116.64064777282715,85.70189321533203C115.13649777282714,87.34438321533203,113.88234777282715,89.16248321533203,112.91322777282714,91.10578321533202C110.93959777282714,95.06348321533203,110.04689777282715,99.38968321533203,110.33132177282715,103.61668321533203C110.63954977282715,108.19168321533203,112.16176777282715,112.50968321533203,114.73305777282715,116.10348321533203C117.35951777282715,119.78028321533203,120.81760777282715,122.61628321533203,124.73380777282715,124.30468321533203C126.86900777282715,125.22618321533203,128.87210777282715,125.81498321533203,130.85770777282715,126.10488321533202C132.22380777282714,126.30428321533203,133.48920777282714,126.40118321533203,134.72540777282714,126.40118321533203C135.62320777282716,126.40118321533203,136.51150777282714,126.34758321533204,137.36550777282716,126.24178321533203C139.74400777282716,125.94518321533204,141.83180777282715,125.41048321533202,143.74730777282716,124.60758321533203C145.05490777282716,124.06218321533203,146.11720777282716,123.53798321533203,147.09170777282714,122.95698321533203C148.15590777282716,122.31748321533203,149.23550777282713,121.54408321533202,150.30060777282716,120.65858321533203C153.89640777282716,117.67388321533204,156.61820777282713,113.48458321533204,157.96400777282713,108.86318321533203C158.25280777282714,107.87708321533204,158.47680777282716,106.84188321533203,158.62970777282715,105.78618321533203C158.73400777282714,105.41438321533204,158.75060777282715,105.03218321533203,158.67900777282716,104.64918321533203C158.67900777282716,104.64918321533203,158.67900777282716,104.64918321533203,158.67900777282716,104.64918321533203Z" fill="#FFFFFF" fill-opacity="1" style="mix-blend-mode:passthrough"/></g></g></g></g></svg>