<svg xmlns="http://www.w3.org/2000/svg" xmlns:xlink="http://www.w3.org/1999/xlink" fill="none" version="1.1" width="258" height="208.671875" viewBox="0 0 258 208.671875"><g><g><g><g><path d="M43.9727,7C43.9727,7,0,208.672,0,208.672C0,208.672,204.028,208.672,204.028,208.672C204.028,208.672,248,7,248,7C248,7,43.9727,7,43.9727,7C43.9727,7,43.9727,7,43.9727,7Z" fill="#9285F9" fill-opacity="1" style="mix-blend-mode:passthrough"/></g></g></g><g><g><g><path d="M53.9727,0C53.9727,0,10,201.672,10,201.672C10,201.672,214.028,201.672,214.028,201.672C214.028,201.672,258,0,258,0C258,0,53.9727,0,53.9727,0C53.9727,0,53.9727,0,53.9727,0Z" fill="#84F4BC" fill-opacity="1" style="mix-blend-mode:passthrough"/></g></g></g><g><g><path d="M132.5,44.537109375C163.152,44.537109375,188,69.385109375,188,100.037109375C188,130.689109375,163.152,155.537109375,132.5,155.537109375C101.848,155.537109375,77,130.689109375,77,100.037109375C77,69.385109375,101.848,44.537109375,132.5,44.537109375C132.5,44.537109375,132.5,44.537109375,132.5,44.537109375ZM132.5,52.281299375C106.1254,52.281299375,84.74419,73.662509375,84.74419,100.037109375C84.74419,126.411709375,106.1254,147.793109375,132.5,147.793109375C158.8746,147.793109375,180.256,126.411709375,180.256,100.037109375C180.256,73.662509375,158.8746,52.281299375,132.5,52.281299375C132.5,52.281299375,132.5,52.281299375,132.5,52.281299375ZM158.4384,84.465609375C158.4384,84.465609375,158.8906,84.818709375,158.8906,84.818709375C160.3311,86.124409375,160.56130000000002,88.267009375,159.5122,89.835909375C159.5122,89.835909375,159.1586,90.28820937500001,159.1586,90.28820937500001C159.1586,90.28820937500001,131.0787,121.264909375,131.0787,121.264909375C129.7803,122.697609375,127.65209999999999,122.934109375,126.0837,121.901009375C126.0837,121.901009375,125.6314,121.553009375,125.6314,121.553009375C125.6314,121.553009375,107.2467,105.144109375,107.2467,105.144109375C105.65090000000001,103.720209375,105.512,101.272609375,106.9359,99.677309375C108.2308,98.227009375,110.37129999999999,97.98030937499999,111.9485,99.016909375C111.9485,99.016909375,112.4033,99.36650937499999,112.4033,99.36650937499999C112.4033,99.36650937499999,127.92060000000001,113.222309375,127.92060000000001,113.222309375C127.92060000000001,113.222309375,153.4212,85.087209375,153.4212,85.087209375C154.7269,83.646809375,156.86939999999998,83.416509375,158.4384,84.465609375C158.4384,84.465609375,158.4384,84.465609375,158.4384,84.465609375Z" fill="#000000" fill-opacity="1" style="mix-blend-mode:passthrough"/></g></g></g></svg>