<svg xmlns="http://www.w3.org/2000/svg" xmlns:xlink="http://www.w3.org/1999/xlink" width="808.222" height="399.643" viewBox="0 0 808.222 399.643">
  <defs>
    <linearGradient id="linear-gradient" x1="0.015" y1="0.269" x2="0.003" y2="1" gradientUnits="objectBoundingBox">
      <stop offset="0" stop-color="#64dadb"/>
      <stop offset="1" stop-color="#4dc5f2"/>
    </linearGradient>
    <linearGradient id="linear-gradient-2" y1="-0.071" x2="0.003" y2="1" gradientUnits="objectBoundingBox">
      <stop offset="0" stop-color="#c95ee9"/>
      <stop offset="1" stop-color="#9d7df6"/>
    </linearGradient>
    <clipPath id="clip-path">
      <path id="Caminho_770335" data-name="Caminho 770335" d="M224.491,0,171.916,83.351,125.823.153C64.235,16.153,16.018,61.164,0,118.008H350.89C334.836,60.985,286.358,15.864,224.491,0Z" fill="url(#linear-gradient)"/>
    </clipPath>
  </defs>
  <g id="_img_joaomaria_20_" data-name="&lt;img joaomaria_20&gt;" transform="translate(-16.845 -30.109)">
    <path id="GettyImages-1412762526" d="M-94.448.173,309.739,0,241.25,297.927l-404.56-.228Z" transform="translate(180.154 30.109)" fill="#0041d9"/>
    <g id="Grupo_234042" data-name="Grupo 234042" transform="translate(10158.066 -1098.057)">
      <path id="Caminho_770807" data-name="Caminho 770807" d="M109.168,129.238l25.84,5.887,18.817-5.277-5.13-21.068L128.309,84.269l13.259-4.65-3.049-12.511-23.927,26.24-5.277,5.761-.042,9.65v.042l-.02,3.911Z" transform="translate(-9605.044 1311.605)" fill="#ffa694"/>
      <path id="Caminho_770793" data-name="Caminho 770793" d="M93.408,112.5s4.73,23.485,9.65,24.011c4.9.525,42.387,1.219,46.255.525,3.848-.694,22.413-11.732,22.413-11.732l16.127-12.8L162.77,100.428l-1.871-.9-2.123-1.031-16.063.652-.862.043-17.009.693h-.105l-1.388.569-4.92,1.976-1.2.484-.862.357Z" transform="translate(-9619.12 1319.957)" fill="#ffa694"/>
      <path id="Caminho_770808" data-name="Caminho 770808" d="M118.368,108.33l6.96,1.093a31.264,31.264,0,0,0,18.565-4.709l.819-.505a29.862,29.862,0,0,0,7.422-6.538,28.466,28.466,0,0,0,4.478-8.032c.295-.819,1.072-5.656,1.64-7.947a9.558,9.558,0,0,1-2.964-2.228c-8.263,3.469-16.462,6.938-24.621,10.6L125.39,95.82l-.042,9.65v.043l-4.92,1.976-1.2.484Z" transform="translate(-9621.122 1314.893)"/>
      <g id="Grupo_234016" data-name="Grupo 234016" transform="translate(-9555.575 1304.955)">
        <path id="Caminho_770778" data-name="Caminho 770778" d="M109.228,50.443a13.2,13.2,0,0,0-8.99-2.929c-5.251.4-9.013,4.194-12.778,6.637-8.439,5.475-25.673,15.071-36.167,7.138-3.548-2.682-3.884-6.656-8.038-9.048-2.941-1.694-9.667-4.294-13.452-3.472-3.583.778-6.443,4.981-7.972,7.394C19.657,59.6,18.486,63.481,19.221,67.3a16.458,16.458,0,0,0,2.229,5.028c1.449,2.555-.226,3.238-.747,5.443a2.456,2.456,0,0,0,.57,2.253,9.665,9.665,0,0,1-6.5-4.812c-.423-.821-2.159-.463-1.73.369a11.3,11.3,0,0,0,7.38,5.754c5.241,1.405,10.471-.9,15.79.6,4.338,1.225,8.069,3.34,12.794,3.66,6.147.416,11.99-1.831,18.123-1.65,2.656.077,5.232.635,7.9.455,2.965-.2,5.692-1.254,8.68-1.362,2.424-.088,4.815.63,7.241.423,2.836-.242,4.631-1.728,7.325-2.285,4.3-.889,7.385.657,10.73-2.412a21.214,21.214,0,0,0,5.59-9.478c1.93-6.389.852-14-5.372-18.845" transform="translate(6.078 22.241)" fill="#ffe3d1"/>
        <path id="Caminho_770781" data-name="Caminho 770781" d="M92.933,25.576C84.59,14.037,71.087,6.13,56.927,6.6,11.814,8.078,18.5,65.282,34.462,91.436c2.54,4.163,6.972,7.722,10.924,10.9,4,3.22,8.329,6.229,13.2,7.443,9.515,2.376,16.267-2.288,22.667-8.3,2.913-2.736,5.806-5.05,8.154-8.479C98.175,80.2,100.8,64.941,99.494,49.949c-.505-5.806-4.574-21.625-6.561-24.373" transform="translate(10.491 3.08)" fill="#ffa694"/>
        <path id="Caminho_770784" data-name="Caminho 770784" d="M42.878,36.531a6.837,6.837,0,0,0-4.917-1.9,11.4,11.4,0,0,0-5.686,1.947c-1.2.812-6.082,4.907-2.1,5.141a7.519,7.519,0,0,0,2.462-.445,28.375,28.375,0,0,1,7.069-1.06c1.3-.029,2.9-.109,3.483-1.018a2.064,2.064,0,0,0-.315-2.668" transform="translate(19.625 16.22)" fill="#ffe3d1"/>
        <path id="Caminho_770785" data-name="Caminho 770785" d="M55.187,38.654c.661.924,2.191.777,3.422.621a23.106,23.106,0,0,1,6.818.145,6.177,6.177,0,0,0,2.385.135c3.743-.84-1.379-4.671-2.619-5.4a9.538,9.538,0,0,0-5.621-1.332,6.343,6.343,0,0,0-4.417,2.822,2.617,2.617,0,0,0,.032,3" transform="translate(25.622 15.36)" fill="#ffe3d1"/>
        <path id="Caminho_770786" data-name="Caminho 770786" d="M66.055,60.5,43.021,61.849a11.648,11.648,0,0,0,11.517,6.728A13.326,13.326,0,0,0,66.055,60.5" transform="translate(20.152 28.341)" fill="#fff"/>
        <path id="Caminho_770787" data-name="Caminho 770787" d="M133.984,77.022a13.919,13.919,0,0,0,1.366-4.227c.455-4.029-1.468-7.054-2.57-10.805-1.278-4.385-.044-8.916-1.013-13.328-.793-3.738-3.392-6.155-5.36-9.365s-2.79-7-4.6-10.3a49.241,49.241,0,0,0-5.962-8.626c-3.833-4.478-9.163-9.629-15.228-12.113A42.149,42.149,0,0,0,84.4,1.6C76.847.119,66.1-1.361,58.786,2.232,46.965,2.523,35.35,10.1,27.1,16.987c-4.405,3.659-7.21,7.886-7.46,13.328-.206,4.557.22,8.427-2.628,12.5-1.85,2.629-4.156,4.914-5.521,7.793a14.772,14.772,0,0,0-1.4,7.992c.294,2.695,1.645,4.663-.514,7.516a37.634,37.634,0,0,1-3.3,3.012C2.53,72.98-.583,77.934.093,83.217c.147,1.123.646,2.14.866,3.236.441,2.14-.543,3.923-.617,5.957a6.49,6.49,0,0,0,1.454,4.7,9.285,9.285,0,0,0,5.83,3.276c.5.079,1.028.145,1.557.185.47.04.954.066,1.439.066a6.088,6.088,0,0,0,1.5.568,11.631,11.631,0,0,0,3.157.291c.514,0,1.057-.026,1.571-.026a10.252,10.252,0,0,1,4.42.727,4.846,4.846,0,0,0,1.028.409,4.746,4.746,0,0,0,1.439.106c3.216-.106,7.122.74,8.37-2.774.352-.991.954-3.329.338-4.333-.088-.159-.25-.277-.338-.449-.411-.925,1.16-1.915,1.733-2.4a41.234,41.234,0,0,0,3.891-3.183,6.563,6.563,0,0,0,1.777-4.28c.1-2.153-.94-4.187-1.468-6.248-1.057-4.174.529-6.3,1.894-10.039,1.968-5.389-.837-11.439-1.336-16.894a62.308,62.308,0,0,1,.529-15.243,8.441,8.441,0,0,0,2.423.159,181.616,181.616,0,0,0,28.267-1.413c2.026-.013,5.877-6.2,6.87-7.958,7.377,3.434,7.582,7.268,13.262,9.372.329,0,10.523,1.432,11.613,1.178a32.56,32.56,0,0,1,2.411,14.025c-.015,3.1-.91,6.393-.294,9.471.47,2.43,2.085,4.412,2.981,6.71,2.129,5.429-2.188,10.528.088,16.1,1.571,3.87,1.233,6.34.72,10.3a8.686,8.686,0,0,0,1.145,6.288.9.9,0,0,0,1.16.277c2.188,1.228,5.609,1.281,8.194,1.228,4.068-.04,13.069.291,15.521-3.434,1.351-2.034-.22-3.514,1.615-5.891,1.351-1.717,2.526-2.483,2.922-4.755.734-4.253-1.821-7.833-4.038-11.505" transform="translate(0 0)" fill="#ffe3d1"/>
        <path id="Caminho_770835" data-name="Caminho 770835" d="M.294,5.827c.757,2.7,2.744,4.506,4.435,4.033s2.45-3.05,1.693-5.751S3.678-.4,1.987.076-.463,3.126.294,5.827" transform="translate(85.69 57.543) rotate(16)"/>
        <path id="Caminho_770838" data-name="Caminho 770838" d="M.294,5.827c.757,2.7,2.744,4.506,4.435,4.033s2.45-3.05,1.693-5.751S3.678-.4,1.987.076-.463,3.126.294,5.827" transform="translate(55.394 57.543) rotate(16)"/>
        <path id="Caminho_770836" data-name="Caminho 770836" d="M143.19,67.236c.826-1.221,2.574.263,1.754,1.476a11.767,11.767,0,0,0-1.54,2.637c-.775,1.674-.681,4.577,1.851,4.4,1.471-.1,1.7,2.179.225,2.28a4.537,4.537,0,0,1-4.848-4.168c-.29-2.759.92-4.207,2.558-6.628" transform="translate(-73.235 1.299)"/>
        <path id="Caminho_770837" data-name="Caminho 770837" d="M123.955,44.982c.115.779,1.967.44,2.151,1.174,3.277-5.547,8.37-15.37,11.648-20.916.6-1.009,1.191-2.04,1.788-3.049a18.887,18.887,0,0,0-1.742-1.559c-.757,1.261-1.49,2.544-2.246,3.8" transform="translate(-47.396 -17.124)" fill="#ffa694"/>
      </g>
      <path id="Caminho_770335-2" data-name="Caminho 770335" d="M193.428,2.726l-15.858,8.969-16.378,5.069-16.638,1.3-14.948-1.3-13.648-3.64-11.178-5.2-6.759-5.2C46.77,16.041,13.33,51.357,0,98.661H292C278.642,51.208,244.913,15.928,193.428,2.726Z" transform="translate(-9625.002 1429.148)" fill="url(#linear-gradient-2)"/>
      <path id="Caminho_770334" data-name="Caminho 770334" d="M335.182,206.086a170.554,170.554,0,0,1,15.773,32.976,220.276,220.276,0,0,1,5.994,21.738c.418,1.741.835,3.489,1.26,5.229a.355.355,0,0,0,.346.269.34.34,0,0,0,.085-.007.362.362,0,0,0,.262-.432c-.432-1.741-.849-3.482-1.266-5.229a221.291,221.291,0,0,0-6.008-21.8,172.082,172.082,0,0,0-15.978-33.33c-.163.191-.318.389-.467.587" transform="translate(-9914.485 1259.653)"/>
      <path id="Caminho_770333" data-name="Caminho 770333" d="M358.957,206.087a170.883,170.883,0,0,0-15.8,33.04,220.717,220.717,0,0,0-6.005,21.781c-.418,1.744-.836,3.5-1.262,5.24a.356.356,0,0,1-.347.269.34.34,0,0,1-.085-.007.363.363,0,0,1-.262-.432c.432-1.744.85-3.488,1.269-5.239a221.723,221.723,0,0,1,6.02-21.845,172.42,172.42,0,0,1,16.01-33.395c.163.191.319.39.468.588" transform="translate(-9730.016 1261.391)"/>
      <path id="Caminho_770805" data-name="Caminho 770805" d="M89.556,110.337c9.824,7.643,23.891,14.621,43.019,15.656,1.854.1,3.667.155,5.44.155a88.919,88.919,0,0,0,51.368-15.869c-.778-.312-1.514-.585-2.211-.857-11.119,7.506-29.45,15.986-54.477,14.621-17.932-.974-31.3-7.292-40.807-14.388-.757.214-1.535.428-2.331.682" transform="translate(-9618.864 1321.972)"/>
    </g>
    <g id="Grupo_233479" data-name="Grupo 233479" transform="translate(-484.508 -4195.751)">
      <path id="Caminho_770289" data-name="Caminho 770289" d="M293.756,374.317c-8.887-13.656-13.643-31.666-12.653-47.122a52.306,52.306,0,0,1,1.62-10.211c.221-.836-.782-1.714-1.4-.895-6.523,8.668-16.1,8.388-25.844,6.518-9.6-1.837-19.89-2.979-29.163-6.2.079-1.387.165-2.773.27-4.164.082-1.064-1.565-1.357-1.649-.284-.1,1.374-.187,2.752-.264,4.131a.8.8,0,0,0-.078,1.48c-.1,2-.182,4-.249,6.009-.006.084,0,.169-.012.262-.177,5.3-.262,10.607-.432,15.908a46.419,46.419,0,0,1-1.527,10.558,36.67,36.67,0,0,1-5.906,12.518c-4.958,6.689-12.348,10.9-18.154,16.742a.847.847,0,0,0,.285,1.3c7.192,4.358,15.015,7.271,23.028,9.725,8.7,2.666,16.824,5.394,25.943,3.371,4.228-.941,8.348-2.284,12.658-2.812,4.2-.5,8.354-.8,12.511-1.717a70.61,70.61,0,0,0,12.575-4.1q2.585-.151,5.12-.5c2.062-.289,5.841-.79,6.671-3.091.9-2.467-2.092-5.48-3.352-7.421" transform="translate(686.998 4151.219)" fill="#ffa694"/>
      <path id="Caminho_770290" data-name="Caminho 770290" d="M288.205,94.9c-.418,1-1.932.277-1.515-.712.438-1.062.884-2.122,1.315-3.193-2.748,2.054-7.922,2.128-10.672,3.554-3.115,1.618-4.135,4.574-6.482,6.909a34.849,34.849,0,0,1-7.3,4.995,72.918,72.918,0,0,1-59.159,5.735c-4.093-1.412-8.361-3.287-11.2-6.681a12.006,12.006,0,0,1-2.6-5.949,51.337,51.337,0,0,1-.477-5.982,10.816,10.816,0,0,0-3.884-8.421c-1.2-1.089-2.311-1.952-2.875-3.5a13.482,13.482,0,0,1-.253-6.987,23.373,23.373,0,0,1-2.647-2.808c-3.022-3.782-4.221-8.19-2.594-14.216,1.031-3.8,2.26-7.775,4.5-11.055,1.451-2.109,3.574-3.44,4.346-5.844.9-2.772.1-6.12-.022-9.01-.386-8.622,1.821-16.237,9.748-20.656A26,26,0,0,1,209,7.976c3.015-3.3,29.42-8.332,67.97,14.648,4.835.216,6.171-.808,11.663,2.2,4.42,2.315,6.373,8.8,6.354,11.369,1.441,13.822.047,28.33,0,33.856-.242,16.869-3.5,16.957-6.781,24.852" transform="translate(698.708 4325)" fill="#9b9b9b"/>
      <path id="Caminho_770291" data-name="Caminho 770291" d="M217.5,151.865c-1.347.769-2.74,1.564-4.177,2.266-.371.182-.75.363-1.136.534-.186.095-.378.172-.569.25-.385.163-.768.317-1.166.46-.2.076-.39.145-.587.2-.5.167-1.014.317-1.535.439a4.511,4.511,0,0,1-.442.1c-.449.092-.9.176-1.354.224l-.442.051-.462.022c-.283.019-.555.023-.834.017-.338-.008-.675-.023-1.017-.057a6.968,6.968,0,0,1-.824-.142,1.422,1.422,0,0,1-.251-.069.464.464,0,0,1-.145-.042,1.01,1.01,0,0,1-.154-.043c-1.785-.572-3.448-1.759-5.19-2.382a5.911,5.911,0,0,0-2.539-.388c-2.873.267-4.289,3.308-7.26,3.6a6.135,6.135,0,0,1-2.751-.34,23.407,23.407,0,0,0,2.647,2.809,13.493,13.493,0,0,0,.253,6.987c.565,1.549,1.68,2.412,2.875,3.5a10.451,10.451,0,0,1,3.751,6.98c.064.461.11.936.133,1.44a51.228,51.228,0,0,0,.478,5.981c.374-.054.743-.126,1.123-.213a20.849,20.849,0,0,0,4.238-1.44,16.093,16.093,0,0,0,1.608-.86c.153-.1.3-.193.449-.287a15.52,15.52,0,0,0,4.717-4.948,23.021,23.021,0,0,0,1.991-4.206c.292-.807.567-1.608.845-2.384.582-1.648,1.164-3.245,1.872-4.794a22.906,22.906,0,0,1,2.815-4.7c1.939-2.475,3.8-4.573,4.352-7.745a.852.852,0,0,0-1.308-.829" transform="translate(694.509 4240.285)" fill="#9b9b9b"/>
      <path id="Caminho_770292" data-name="Caminho 770292" d="M262.4,219.49c14.491,3.569,27.431-4.667,35.082-17.351,3.479-5.768,8.35-14.411,9.949-20.955,2.9-11.881,4.328-24.067,5.712-36.218q1.219-10.695,2.4-21.394c.369-3.333.721-6.8-.408-9.96-1.277-3.574-4.257-6.224-7.122-8.712-3.617-3.141-7.281-6.314-11.543-8.5-8.414-4.317-18.329-4.4-27.76-3.7-10.773.795-21.805,2.589-31.029,8.213-4.84,2.951-9.175,7.073-11.269,12.341-1.59,4-1.8,8.4-1.963,12.7-.614,16.354-.762,32.932,3.076,48.841,4.021,16.667,13.561,35.8,30.051,43.048a29.019,29.019,0,0,0,4.821,1.646" transform="translate(672.479 4273.43)" fill="#ffa694"/>
      <path id="Caminho_770293" data-name="Caminho 770293" d="M420.116,206.7c-.9-1.743-2.524-4.274-4.591-4.878a2.921,2.921,0,0,0-.534-.115c-.1-.012-.209-.017-.309-.021a3.533,3.533,0,0,0-.922.1,2.658,2.658,0,0,0-.339.085,7.218,7.218,0,0,0-1.857.929,31.417,31.417,0,0,0-5.59,5.6c-.7.807.68,1.759,1.376.95.069-.084.148-.176.225-.259a55.777,55.777,0,0,0-2.463,6.079c-.182.526-.348,1.062-.5,1.6a50.757,50.757,0,0,0-2.213,16.271c.153,5.351,4.234,3.933,7.915,1.429a34.475,34.475,0,0,0,5.287-4.5c4.938-5.367,8.019-16.487,4.518-23.271" transform="translate(572.963 4212.405)" fill="#ffa694"/>
      <path id="Caminho_770294" data-name="Caminho 770294" d="M217.527,221.675a53.38,53.38,0,0,0-1.34-16.656c.05.1.117.207.169.3.508.937,2.062.3,1.545-.641-.472-.854-1.1-2.075-1.846-3.315a16.164,16.164,0,0,0-3.129-3.945,5.192,5.192,0,0,0-1.7-1,3.1,3.1,0,0,0-.769-.167,2.84,2.84,0,0,0-.6.006c-2.122.193-4.211,2.311-5.438,3.813a11.489,11.489,0,0,0-1.111,1.616c-3.586,6.213-2.706,16.347.7,22.088,1.577,2.666,7.326,10.263,10.523,8.609.753-.379,1.366-1.275,1.751-2.864a50.345,50.345,0,0,0,1.246-7.848" transform="translate(685.383 4215.443)" fill="#ffa694"/>
      <path id="Caminho_770295" data-name="Caminho 770295" d="M373.425,214.283a16.116,16.116,0,0,0,.466-5.029,4.572,4.572,0,0,0-.856-2.26c-1.492-1.822-3.555-.294-4.131,1.37-.747,2.162-1.057,6.981.92,8.265,2.047,1.33,3.036-.191,3.6-2.346" transform="translate(590.325 4209.901)"/>
      <path id="Caminho_770296" data-name="Caminho 770296" d="M274.607,212.228a15.735,15.735,0,0,0,.071-4.935,4.468,4.468,0,0,0-1.006-2.137c-1.593-1.662-3.487-.016-3.92,1.649-.563,2.163-.5,6.882,1.526,7.982,2.1,1.14,2.943-.417,3.329-2.559" transform="translate(648.818 4210.853)"/>
      <path id="Caminho_770300" data-name="Caminho 770300" d="M259.563,173.386a21.548,21.548,0,0,0-10,1.041,25.948,25.948,0,0,0-5.007,2.3c-.093.059-.21.122-.345.205-1.17.683-3.588,2.1-3.319,3.347.078.339.438.53.766.647.291.111.586.2.882.281a14.374,14.374,0,0,0,5.309.289c4.159-.462,8.07-1.542,12.274-1.209,2.015.166,6.487.652,6.73-2.326.27-3.269-4.95-4.247-7.285-4.574" transform="translate(666.351 4228.823)" fill="#9b9b9b"/>
      <path id="Caminho_770301" data-name="Caminho 770301" d="M362.47,173.1a19.076,19.076,0,0,0-8.861-.8c-2.055.314-6.657,1.238-6.386,4.122.319,3.307,6.629,1.714,8.457,1.783,2.825.107,5.58.857,8.382,1.134,1.605.157,4.672.566,5.879-.837,1.55-1.806-6.256-5-7.471-5.4" transform="translate(605.194 4229.922)" fill="#9b9b9b"/>
      <path id="Caminho_770302" data-name="Caminho 770302" d="M311.327,115.567c.237-6.579-.583-12.935-3.628-18.842a47.66,47.66,0,0,0-19.15-19.3c-.814-.446-1.632-.868-2.465-1.258a37.8,37.8,0,0,0-10.341-3.179,28.808,28.808,0,0,0-7.367-.1c-1.022.12-2.05.273-3.059.464a81.149,81.149,0,0,0-10.586,3.009,172.115,172.115,0,0,0-22.366,9.334c-3.142,1.579-6.646,3.1-9.224,5.536-2.549,2.42-4.226,5.839-5.93,8.872-1.621,2.895-3.735,6.094-4.352,9.468a12.093,12.093,0,0,0-.153,1.23c-.284,4.144,4.215,7.68,3.338,11.578a.7.7,0,0,0-.515.819,17.348,17.348,0,0,0,.854,4.094,2.516,2.516,0,0,0,1.364,1.535.03.03,0,0,0,.023.012,1.556,1.556,0,0,0,1.68-.389,6.579,6.579,0,0,0,1.374-2.6c1.353-3.95,1.512-8.261,1.837-12.4.007-.041.006-.084.013-.125,2.147-.291,11.017-18.48,12.091-19.44.333-.307,31.443-6.043,38.434-7.555,4.908,1.069,10.072,3.947,14.5,5.867a143.883,143.883,0,0,1,15.331,7.7.735.735,0,0,0,.354.112l-.1,25.829c-.007,1.17-.2,5.287.879,7.341a2.35,2.35,0,0,0,.774.923c.458.3,4.556-5.095,4.874-6.542a67.1,67.1,0,0,0,1.512-12" transform="translate(678.857 4284.414)" fill="#9b9b9b"/>
      <path id="Caminho_770320" data-name="Caminho 770320" d="M302.628,351.153c-1.181-.289-3.631.862-4.808,1.287-2.453.883-4.371,1.766-7.045,1.966-4.361.333-9.14.874-13.471.151-8.826-1.482-15.609-7.764-21.571-14.083-.244-.254-.489-.509-.724-.77-.178,5.3-.263,10.607-.432,15.908a46.421,46.421,0,0,1-1.527,10.559c.51-.005,1.022-.019,1.511,0,22.2,3.047,39.513-5.741,46.459-12.547a.161.161,0,0,0,.026-.055c.321-.531,2.216-2.253,1.582-2.413" transform="translate(656.327 4135.352)"/>
      <path id="Caminho_770321" data-name="Caminho 770321" d="M320.311,305.318a34.144,34.144,0,0,0-4.335.1c-2.959.088-5.919.177-8.879.245-2.435.057-4.87.1-7.307.113-2.155.01-7.08-.383-7.218-.339-.6.189,1.184,2.247,1.478,2.534a23.319,23.319,0,0,0,3.891,3.14c5.332,3.328,11.929,2.544,17.343-.058a13.345,13.345,0,0,0,3.813-2.643c.28-.289,2.38-2.975,1.214-3.093" transform="translate(634.331 4154.577)" fill="#fff" stroke="#000" stroke-width="1"/>
      <path id="Caminho_770322" data-name="Caminho 770322" d="M222.881,403.156s8.356-13.562,9.955-14.028,33.889,32.243,33.889,32.243,32.869-33.633,35.952-31.911,10.1,19.6,10.1,19.6-45.355,64.832-46.047,64.712-32.746-30.368-33.889-32.348-13.188-32.364-13.188-32.364" transform="translate(673.479 4107.765)" fill="#fff"/>
      <path id="Caminho_770330" data-name="Caminho 770330" d="M296.517,401.359c3.083,1.721,16.17,9.878,16.17,9.878L277.32,461.071l-10.68-29.852c-.26-.045-10.967,30.11-10.706,29.852-9.441-13.51-36.766-51.972-36.766-51.972l17.655-7.74" transform="translate(673.564 4097.875)" fill="none" stroke="#000" stroke-width="1"/>
      <rect id="Ret창ngulo_124886" data-name="Ret창ngulo 124886" width="293.526" height="274.73" transform="translate(797.599 4325)" fill="none"/>
      <path id="Caminho_770329" data-name="Caminho 770329" d="M7.6,10.321a8.414,8.414,0,0,1-3.474.567C2.322,10.812,1.948,9.223,1.82,7.713A59.832,59.832,0,0,1,1.7.8C1.738-.268.075-.267.041.8c-.068,2.169-.061,4.34.087,6.5A8.225,8.225,0,0,0,.875,10.9c1.37,2.381,5.02,1.864,7.17,1.026.986-.384.558-1.993-.442-1.6" transform="translate(940.662 4429.221) rotate(19)"/>
      <g id="Grupo_233478" data-name="Grupo 233478" transform="translate(765.441 4507.494)">
        <g id="Grupo_233477" data-name="Grupo 233477" clip-path="url(#clip-path)">
          <rect id="Ret창ngulo_124887" data-name="Ret창ngulo 124887" width="350.89" height="118.008" transform="translate(0 0)" fill="url(#linear-gradient)"/>
        </g>
      </g>
      <path id="Caminho_770334-2" data-name="Caminho 770334" d="M335.182,206.2a204.949,204.949,0,0,1,18.954,39.626,264.7,264.7,0,0,1,7.2,26.122c.5,2.092,1,4.192,1.514,6.284a.426.426,0,0,0,.416.323.408.408,0,0,0,.1-.009.435.435,0,0,0,.314-.519c-.519-2.092-1.02-4.184-1.522-6.284a265.913,265.913,0,0,0-7.22-26.2,206.788,206.788,0,0,0-19.2-40.051c-.2.229-.383.468-.561.706" transform="translate(478.335 4344.71)"/>
      <path id="Caminho_770333-2" data-name="Caminho 770333" d="M363.752,206.206a205.346,205.346,0,0,0-18.991,39.7,265.226,265.226,0,0,0-7.216,26.173c-.5,2.1-1.005,4.2-1.517,6.3a.427.427,0,0,1-.417.324.408.408,0,0,1-.1-.009.436.436,0,0,1-.315-.52c.52-2.1,1.022-4.192,1.525-6.3a266.439,266.439,0,0,1,7.234-26.25A207.194,207.194,0,0,1,363.19,205.5c.2.23.383.468.562.707" transform="translate(700.007 4346.799)"/>
    </g>
    <path id="Caminho_773580" data-name="Caminho 773580" d="M6.846,5.413C2.961,5.413.8,7.891.8,12.385c0,4.326,2.058,6.783,5.712,6.783,3.864,0,6.048-2.583,6.048-7.161C12.558,7.765,10.521,5.413,6.846,5.413ZM6.7,6.8c2.751,0,4.116,1.764,4.116,5.5,0,3.675-1.428,5.46-4.2,5.46-2.73,0-4.1-1.806-4.1-5.586C2.52,8.563,3.906,6.8,6.7,6.8Zm9.954,7.98.126-10.521L15.12,4.4l.105,10.5L15.1,19h1.659Zm8.631-10.4-.189-.021c-1.176,1.155-2.289,2.1-3.444,3.045l.462.672L22.3,8.1c1.2-.84,2.331-1.7,3.57-2.667l.042-.168Zm-1.911,4.83a6.1,6.1,0,0,0-3.612,1.3l.231,1.2.168.084a4.533,4.533,0,0,1,2.961-1.386,1.517,1.517,0,0,1,1.659,1.7l-.021,1.365-3.4.8A2.163,2.163,0,0,0,19.4,16.522c0,1.617,1.092,2.625,2.982,2.625a6.193,6.193,0,0,0,2.247-1.575h.126a1.521,1.521,0,0,0,1.47,1.554,3.143,3.143,0,0,0,1.2-.42l.147-.945-.168-.147a2.1,2.1,0,0,1-.693.126c-.5,0-.672-.21-.672-.819,0-.735.273-4.452.273-5.187C26.313,10.159,25.158,9.214,23.373,9.214Zm1.365,5.334-.063,1.722A3.256,3.256,0,0,1,22.3,17.761a1.341,1.341,0,0,1-1.407-1.47.9.9,0,0,1,.8-1.008Zm7.182-9.2-.189-.21L30.45,5.2l-.168.21v8.925l.189.189.987-.1Zm-1.176,11.8a.932.932,0,0,0-1.008.987.868.868,0,0,0,.945.966.927.927,0,0,0,.966-1.008A.851.851,0,0,0,30.744,17.152ZM6.762,48,11.7,34.539h-1.68l-.336,1.449L5.9,46.3H5.775L2.352,35.9l-.315-1.365H.315L4.809,48Zm9.177-9.786c-2.793,0-4.389,1.869-4.389,5.1,0,3.087,1.512,4.851,4.137,4.851,2.793,0,4.368-1.869,4.368-5.1C20.055,39.978,18.543,38.214,15.939,38.214Zm-.105,1.176c1.722,0,2.667,1.386,2.667,4.053,0,2.352-.945,3.528-2.709,3.528-1.722,0-2.667-1.323-2.667-4.032C13.125,40.629,14.07,39.39,15.834,39.39ZM24.3,43.779l.126-10.521-1.659.147.1,10.5L22.743,48H24.4Zm6.573,2.94c-.924,0-1.344-.378-1.323-1.512l.1-5.691h2.835l.105-.987-.084-.126H29.652l.042-2.037-.168-.147-1.449.63V38.4H26.8l-.1.987.084.126H28.1l.021,4.347-.063,1.491A2.426,2.426,0,0,0,30.3,48.126a6.053,6.053,0,0,0,2.1-.609l.168-1.092-.189-.126A3.181,3.181,0,0,1,30.87,46.719Zm6.846-8.505a6.045,6.045,0,0,0-3.591,1.3l.21,1.2.168.084a4.576,4.576,0,0,1,2.961-1.386,1.517,1.517,0,0,1,1.659,1.7L39.1,42.477l-3.4.8a2.163,2.163,0,0,0-1.953,2.247c0,1.617,1.092,2.625,2.982,2.625a6.193,6.193,0,0,0,2.247-1.575h.147a1.5,1.5,0,0,0,1.449,1.554,3.024,3.024,0,0,0,1.2-.42l.168-.945-.168-.147a2.291,2.291,0,0,1-.714.126c-.483,0-.651-.21-.651-.819,0-.735.252-4.452.252-5.187C40.656,39.159,39.522,38.214,37.716,38.214Zm1.365,5.334-.063,1.722a3.222,3.222,0,0,1-2.352,1.491,1.346,1.346,0,0,1-1.428-1.47.92.92,0,0,1,.8-1.008ZM56.154,48h1.68l-.063-4.179.021-2.73c.021-1.806-1.071-2.835-3.192-2.835a6.906,6.906,0,0,0-2.856,1.6h-.126c-.4-1.029-1.407-1.6-3-1.6a6.415,6.415,0,0,0-2.646,1.491h-.147l.021-1.407-1.6.147.084,5.439L44.226,48h1.659L45.8,43.779l.021-2.625a4.2,4.2,0,0,1,2.835-1.512c1.113,0,1.659.714,1.638,1.827L50.19,48h1.68l-.084-4.179.042-2.73a4.144,4.144,0,0,1,2.793-1.449,1.576,1.576,0,0,1,1.659,1.827Zm8.4-9.786c-2.793,0-4.389,1.869-4.389,5.1,0,3.087,1.512,4.851,4.137,4.851,2.793,0,4.368-1.869,4.368-5.1C68.67,39.978,67.158,38.214,64.554,38.214Zm-.1,1.176c1.722,0,2.667,1.386,2.667,4.053,0,2.352-.945,3.528-2.709,3.528-1.722,0-2.667-1.323-2.667-4.032C61.74,40.629,62.685,39.39,64.449,39.39Zm9.45-1.155c-2.079,0-3.318,1.176-3.318,2.772,0,2.982,4.389,2.583,4.389,4.515a1.578,1.578,0,0,1-1.743,1.449,4.132,4.132,0,0,1-2.562-1.05l-.189.126-.21,1.428a6.169,6.169,0,0,0,2.793.693c2.226,0,3.423-1.407,3.423-2.94,0-2.9-4.368-2.5-4.368-4.431a1.455,1.455,0,0,1,1.6-1.365,3.643,3.643,0,0,1,2.016.693l.252-.063.231-1.365A6.123,6.123,0,0,0,73.9,38.235Zm11.781-.021a6.045,6.045,0,0,0-3.591,1.3l.21,1.2.168.084a4.576,4.576,0,0,1,2.961-1.386,1.517,1.517,0,0,1,1.659,1.7l-.021,1.365-3.4.8a2.163,2.163,0,0,0-1.953,2.247c0,1.617,1.092,2.625,2.982,2.625a6.193,6.193,0,0,0,2.247-1.575h.147a1.5,1.5,0,0,0,1.449,1.554,3.024,3.024,0,0,0,1.2-.42l.168-.945-.168-.147a2.291,2.291,0,0,1-.714.126c-.483,0-.651-.21-.651-.819,0-.735.252-4.452.252-5.187C88.62,39.159,87.486,38.214,85.68,38.214Zm1.365,5.334-.063,1.722a3.222,3.222,0,0,1-2.352,1.491,1.346,1.346,0,0,1-1.428-1.47.92.92,0,0,1,.8-1.008Zm12.306-5.292-.819.336a9.39,9.39,0,0,0-2.52-.378c-2.877,0-4.62,1.764-4.62,5.061,0,3.024,1.47,4.83,4.2,4.83a6.74,6.74,0,0,0,2.163-1.239h.168v.4l-.063,4.62H99.5l-.105-8.064.126-5.46Zm-3.528,1.155a4.565,4.565,0,0,1,2.079.567l.042,4.011-.021,1.428A3.217,3.217,0,0,1,95.508,46.7c-1.554,0-2.52-1.3-2.562-3.57C92.9,40.608,94.08,39.411,95.823,39.411Zm14.238-1.071-1.6.147v6.951a3.884,3.884,0,0,1-2.6,1.281c-1.092,0-1.638-.693-1.617-1.827l.126-6.552-1.68.147.063,4.137-.021,2.667c-.021,1.806,1.071,2.835,3.15,2.835a6.1,6.1,0,0,0,2.6-1.47h.168a1.529,1.529,0,0,0,1.449,1.47,3.024,3.024,0,0,0,1.2-.42l.147-.945-.147-.147a2.309,2.309,0,0,1-.735.126c-.441,0-.63-.21-.63-.8Zm4.389-4.263a.926.926,0,0,0-.987.987.863.863,0,0,0,.924.966A.938.938,0,0,0,115.374,35,.86.86,0,0,0,114.45,34.077Zm.651,9.7.126-5.439-1.659.147.084,5.439L113.547,48h1.659Zm11.277-5.5a6.215,6.215,0,0,0-2.646,1.428h-.126l.021-1.365-1.617.147.126,5.439-.126,7.959h1.638l-.042-3.906a9.152,9.152,0,0,0,1.827.189c2.961,0,4.683-1.89,4.683-5.271C130.116,40,128.856,38.277,126.378,38.277Zm-.735,8.673a4.318,4.318,0,0,1-2.058-.546l-.021-2.625.021-2.646a3.651,3.651,0,0,1,2.646-1.491c1.47,0,2.268,1.26,2.31,3.444C128.583,45.69,127.407,46.95,125.643,46.95Zm10.185-8.736a6.045,6.045,0,0,0-3.591,1.3l.21,1.2.168.084a4.576,4.576,0,0,1,2.961-1.386,1.517,1.517,0,0,1,1.659,1.7l-.021,1.365-3.4.8a2.163,2.163,0,0,0-1.953,2.247c0,1.617,1.092,2.625,2.982,2.625a6.193,6.193,0,0,0,2.247-1.575h.147a1.5,1.5,0,0,0,1.449,1.554,3.024,3.024,0,0,0,1.2-.42l.168-.945-.168-.147a2.291,2.291,0,0,1-.714.126c-.483,0-.651-.21-.651-.819,0-.735.252-4.452.252-5.187C138.768,39.159,137.634,38.214,135.828,38.214Zm1.365,5.334-.063,1.722a3.222,3.222,0,0,1-2.352,1.491,1.346,1.346,0,0,1-1.428-1.47.92.92,0,0,1,.8-1.008Zm9.555-5.187c-.819,0-1.827.441-2.688,1.953h-.126l.021-1.974-1.6.147.105,5.439L142.338,48H144l-.1-4.221.021-1.47c.756-1.659,1.533-2.331,2.436-2.331a2.908,2.908,0,0,1,.756.1l.189-.063V38.4A4.13,4.13,0,0,0,146.748,38.361Zm5.355-.147a6.045,6.045,0,0,0-3.591,1.3l.21,1.2.168.084a4.576,4.576,0,0,1,2.961-1.386,1.517,1.517,0,0,1,1.659,1.7l-.021,1.365-3.4.8a2.163,2.163,0,0,0-1.953,2.247c0,1.617,1.092,2.625,2.982,2.625a6.193,6.193,0,0,0,2.247-1.575h.147a1.5,1.5,0,0,0,1.449,1.554,3.024,3.024,0,0,0,1.2-.42l.168-.945-.168-.147a2.291,2.291,0,0,1-.714.126c-.483,0-.651-.21-.651-.819,0-.735.252-4.452.252-5.187C155.043,39.159,153.909,38.214,152.1,38.214Zm1.365,5.334L153.4,45.27a3.222,3.222,0,0,1-2.352,1.491,1.346,1.346,0,0,1-1.428-1.47.92.92,0,0,1,.8-1.008Zm12.663-10.332a3.13,3.13,0,0,0-3.444,3.507l.021,1.68H161.28l-.1.987.084.126h1.449l.042,4.389-.126,4.1h1.659l-.1-4.221.042-4.263h2.5l.1-.987-.063-.126h-2.52l.021-1.932c.021-1.365.63-2.037,1.722-2.037a3.166,3.166,0,0,1,1.533.378l.126-.1.126-1.3A7.85,7.85,0,0,0,166.131,33.216Zm5.292,5a6.045,6.045,0,0,0-3.591,1.3l.21,1.2.168.084a4.576,4.576,0,0,1,2.961-1.386,1.517,1.517,0,0,1,1.659,1.7l-.021,1.365-3.4.8a2.163,2.163,0,0,0-1.953,2.247c0,1.617,1.092,2.625,2.982,2.625a6.193,6.193,0,0,0,2.247-1.575h.147a1.5,1.5,0,0,0,1.449,1.554,3.024,3.024,0,0,0,1.2-.42l.168-.945-.168-.147a2.291,2.291,0,0,1-.714.126c-.483,0-.651-.21-.651-.819,0-.735.252-4.452.252-5.187C174.363,39.159,173.229,38.214,171.423,38.214Zm1.365,5.334-.063,1.722a3.222,3.222,0,0,1-2.352,1.491,1.346,1.346,0,0,1-1.428-1.47.92.92,0,0,1,.8-1.008Zm6.8.231.126-10.521-1.659.147.1,10.5-.126,4.1H179.7Zm6.72-5.565a6.045,6.045,0,0,0-3.591,1.3l.21,1.2.168.084a4.576,4.576,0,0,1,2.961-1.386,1.517,1.517,0,0,1,1.659,1.7l-.021,1.365-3.4.8a2.163,2.163,0,0,0-1.953,2.247c0,1.617,1.092,2.625,2.982,2.625a6.193,6.193,0,0,0,2.247-1.575h.147a1.5,1.5,0,0,0,1.449,1.554,3.024,3.024,0,0,0,1.2-.42l.168-.945-.168-.147a2.291,2.291,0,0,1-.714.126c-.483,0-.651-.21-.651-.819,0-.735.252-4.452.252-5.187C189.252,39.159,188.118,38.214,186.312,38.214Zm1.365,5.334-.063,1.722a3.222,3.222,0,0,1-2.352,1.491,1.346,1.346,0,0,1-1.428-1.47.92.92,0,0,1,.8-1.008Zm9.555-5.187c-.819,0-1.827.441-2.688,1.953h-.126l.021-1.974-1.6.147.105,5.439L192.822,48h1.659l-.1-4.221.021-1.47c.756-1.659,1.533-2.331,2.436-2.331a2.908,2.908,0,0,1,.756.1l.189-.063V38.4A4.13,4.13,0,0,0,197.232,38.361Zm13-.1-.819.336a9.391,9.391,0,0,0-2.52-.378c-2.877,0-4.62,1.764-4.62,5.061,0,3.024,1.47,4.83,4.2,4.83a6.741,6.741,0,0,0,2.163-1.239h.168v.4l-.063,4.62h1.638l-.1-8.064.126-5.46ZM206.7,39.411a4.565,4.565,0,0,1,2.079.567l.042,4.011-.021,1.428a3.217,3.217,0,0,1-2.415,1.281c-1.554,0-2.52-1.3-2.562-3.57C203.784,40.608,204.96,39.411,206.7,39.411Zm14.238-1.071-1.6.147v6.951a3.884,3.884,0,0,1-2.6,1.281c-1.092,0-1.638-.693-1.617-1.827l.126-6.552-1.68.147.063,4.137-.021,2.667c-.021,1.806,1.071,2.835,3.15,2.835a6.1,6.1,0,0,0,2.6-1.47h.168a1.529,1.529,0,0,0,1.449,1.47,3.024,3.024,0,0,0,1.2-.42l.147-.945-.147-.147a2.309,2.309,0,0,1-.735.126c-.441,0-.63-.21-.63-.8Zm4.284,4.767,5.859-.021.357-.273c.021-.252.042-.735.042-.966,0-2.268-1.218-3.612-3.318-3.612-2.751,0-4.515,1.911-4.515,5.019,0,3.024,1.617,4.914,4.368,4.914a6.585,6.585,0,0,0,2.919-.777l.168-1.407-.189-.1a5.13,5.13,0,0,1-2.814.945c-1.932,0-2.877-1.386-2.877-3.654Zm2.793-3.7c1.155,0,1.974.693,1.974,2.205l-.042.252-4.62.126C225.624,40.335,226.59,39.411,228.018,39.411Zm6.258,6.762a3.659,3.659,0,0,0-1.155.546v.168a1.209,1.209,0,0,1,.651.987,2.477,2.477,0,0,1-1.155,1.848v.147l.567.525c1.323-.966,1.974-1.911,1.974-2.814A1.634,1.634,0,0,0,234.276,46.173ZM7.623,77H9.3l-.084-4.179.042-2.73c.021-1.806-1.071-2.835-3.213-2.835a6.611,6.611,0,0,0-2.667,1.491H3.255l.021-1.407-1.6.147.084,5.439L1.659,77H3.318l-.084-4.221.021-2.646A4.164,4.164,0,0,1,6.09,68.642c1.113,0,1.659.714,1.638,1.827Zm8.463-9.786c-2.793,0-4.389,1.869-4.389,5.1,0,3.087,1.512,4.851,4.137,4.851,2.793,0,4.368-1.869,4.368-5.1C20.2,68.978,18.69,67.214,16.086,67.214Zm-.105,1.176c1.722,0,2.667,1.386,2.667,4.053,0,2.352-.945,3.528-2.709,3.528-1.722,0-2.667-1.323-2.667-4.032C13.272,69.629,14.217,68.39,15.981,68.39Zm17.472,4.389.126-10.521L31.92,62.4l.042,5.019a8.182,8.182,0,0,0-1.848-.21c-2.919,0-4.662,1.806-4.662,5,0,3.108,1.491,4.893,4.284,4.893a6.983,6.983,0,0,0,2.289-1.449h.147a1.548,1.548,0,0,0,1.47,1.47,3.024,3.024,0,0,0,1.2-.42l.147-.945-.168-.147a2.119,2.119,0,0,1-.714.126c-.441,0-.588-.21-.609-.8ZM29.9,68.39a4.9,4.9,0,0,1,2.058.525L32,72.9l-.042,1.512a2.982,2.982,0,0,1-2.31,1.281c-1.6,0-2.6-1.3-2.646-3.633C26.964,69.629,28.14,68.39,29.9,68.39Zm8.085-5.313a.926.926,0,0,0-.987.987.863.863,0,0,0,.924.966A.938.938,0,0,0,38.913,64,.86.86,0,0,0,37.989,63.077Zm.651,9.7.126-5.439-1.659.147.084,5.439L37.086,77h1.659Zm6.636-5.565a6.045,6.045,0,0,0-3.591,1.3l.21,1.2.168.084a4.576,4.576,0,0,1,2.961-1.386,1.517,1.517,0,0,1,1.659,1.7l-.021,1.365-3.4.8a2.163,2.163,0,0,0-1.953,2.247c0,1.617,1.092,2.625,2.982,2.625a6.193,6.193,0,0,0,2.247-1.575h.147a1.5,1.5,0,0,0,1.449,1.554,3.024,3.024,0,0,0,1.2-.42l.168-.945-.168-.147a2.291,2.291,0,0,1-.714.126c-.483,0-.651-.21-.651-.819,0-.735.252-4.452.252-5.187C48.216,68.159,47.082,67.214,45.276,67.214Zm1.365,5.334-.063,1.722a3.222,3.222,0,0,1-2.352,1.491,1.346,1.346,0,0,1-1.428-1.47.92.92,0,0,1,.8-1.008Zm11.8-5.334a6.045,6.045,0,0,0-3.591,1.3l.21,1.2.168.084a4.576,4.576,0,0,1,2.961-1.386,1.517,1.517,0,0,1,1.659,1.7l-.021,1.365-3.4.8a2.163,2.163,0,0,0-1.953,2.247c0,1.617,1.092,2.625,2.982,2.625A6.193,6.193,0,0,0,59.7,75.572h.147A1.5,1.5,0,0,0,61.3,77.126a3.024,3.024,0,0,0,1.2-.42l.168-.945-.168-.147a2.291,2.291,0,0,1-.714.126c-.483,0-.651-.21-.651-.819,0-.735.252-4.452.252-5.187C61.383,68.159,60.249,67.214,58.443,67.214Zm1.365,5.334-.063,1.722a3.222,3.222,0,0,1-2.352,1.491,1.346,1.346,0,0,1-1.428-1.47.92.92,0,0,1,.8-1.008Zm15.813.231.126-10.521-1.659.147.042,5.019a8.182,8.182,0,0,0-1.848-.21c-2.919,0-4.662,1.806-4.662,5,0,3.108,1.491,4.893,4.284,4.893a6.983,6.983,0,0,0,2.289-1.449h.147a1.548,1.548,0,0,0,1.47,1.47,3.024,3.024,0,0,0,1.2-.42l.147-.945-.168-.147a2.119,2.119,0,0,1-.714.126c-.441,0-.588-.21-.609-.8ZM72.072,68.39a4.9,4.9,0,0,1,2.058.525l.042,3.99-.042,1.512A2.982,2.982,0,0,1,71.82,75.7c-1.6,0-2.6-1.3-2.646-3.633C69.132,69.629,70.308,68.39,72.072,68.39Zm8.085-5.313a.926.926,0,0,0-.987.987.863.863,0,0,0,.924.966A.938.938,0,0,0,81.081,64,.86.86,0,0,0,80.157,63.077Zm.651,9.7.126-5.439-1.659.147.084,5.439L79.254,77h1.659Zm6.636-5.565a6.045,6.045,0,0,0-3.591,1.3l.21,1.2.168.084a4.576,4.576,0,0,1,2.961-1.386,1.517,1.517,0,0,1,1.659,1.7l-.021,1.365-3.4.8a2.163,2.163,0,0,0-1.953,2.247c0,1.617,1.092,2.625,2.982,2.625A6.193,6.193,0,0,0,88.7,75.572h.147A1.5,1.5,0,0,0,90.3,77.126a3.024,3.024,0,0,0,1.2-.42l.168-.945-.168-.147a2.291,2.291,0,0,1-.714.126c-.483,0-.651-.21-.651-.819,0-.735.252-4.452.252-5.187C90.384,68.159,89.25,67.214,87.444,67.214Zm1.365,5.334-.063,1.722a3.222,3.222,0,0,1-2.352,1.491,1.346,1.346,0,0,1-1.428-1.47.92.92,0,0,1,.8-1.008Zm15.813.231.126-10.521-1.659.147.042,5.019a8.182,8.182,0,0,0-1.848-.21c-2.919,0-4.662,1.806-4.662,5,0,3.108,1.491,4.893,4.284,4.893a6.983,6.983,0,0,0,2.289-1.449h.147a1.548,1.548,0,0,0,1.47,1.47,3.024,3.024,0,0,0,1.2-.42l.147-.945-.168-.147a2.119,2.119,0,0,1-.714.126c-.441,0-.588-.21-.609-.8Zm-3.549-4.389a4.9,4.9,0,0,1,2.058.525l.042,3.99-.042,1.512a2.982,2.982,0,0,1-2.31,1.281c-1.6,0-2.6-1.3-2.646-3.633C98.133,69.629,99.309,68.39,101.073,68.39Zm10.374-1.176a6.045,6.045,0,0,0-3.591,1.3l.21,1.2.168.084a4.576,4.576,0,0,1,2.961-1.386,1.517,1.517,0,0,1,1.659,1.7l-.021,1.365-3.4.8a2.163,2.163,0,0,0-1.953,2.247c0,1.617,1.092,2.625,2.982,2.625a6.193,6.193,0,0,0,2.247-1.575h.147a1.5,1.5,0,0,0,1.449,1.554,3.024,3.024,0,0,0,1.2-.42l.168-.945-.168-.147a2.291,2.291,0,0,1-.714.126c-.483,0-.651-.21-.651-.819,0-.735.252-4.452.252-5.187C114.387,68.159,113.253,67.214,111.447,67.214Zm1.365,5.334-.063,1.722a3.222,3.222,0,0,1-2.352,1.491,1.346,1.346,0,0,1-1.428-1.47.92.92,0,0,1,.8-1.008ZM127.386,77h1.68l-.084-4.179.042-2.73c.021-1.806-1.071-2.835-3.213-2.835a6.611,6.611,0,0,0-2.667,1.491h-.126l.021-1.407-1.6.147.084,5.439L121.422,77h1.659L123,72.779l.021-2.646a4.164,4.164,0,0,1,2.835-1.491c1.113,0,1.659.714,1.638,1.827Zm8.463-9.786c-2.793,0-4.389,1.869-4.389,5.1,0,3.087,1.512,4.851,4.137,4.851,2.793,0,4.368-1.869,4.368-5.1C139.965,68.978,138.453,67.214,135.849,67.214Zm-.1,1.176c1.722,0,2.667,1.386,2.667,4.053,0,2.352-.945,3.528-2.709,3.528-1.722,0-2.667-1.323-2.667-4.032C133.035,69.629,133.98,68.39,135.744,68.39Zm9.45-1.155c-2.079,0-3.318,1.176-3.318,2.772,0,2.982,4.389,2.583,4.389,4.515a1.578,1.578,0,0,1-1.743,1.449,4.132,4.132,0,0,1-2.562-1.05l-.189.126-.21,1.428a6.169,6.169,0,0,0,2.793.693c2.226,0,3.423-1.407,3.423-2.94,0-2.9-4.368-2.5-4.368-4.431a1.455,1.455,0,0,1,1.6-1.365,3.643,3.643,0,0,1,2.016.693l.252-.063L147.5,67.7A6.123,6.123,0,0,0,145.194,67.235Zm7.77,0c-2.079,0-3.318,1.176-3.318,2.772,0,2.982,4.389,2.583,4.389,4.515a1.578,1.578,0,0,1-1.743,1.449,4.132,4.132,0,0,1-2.562-1.05l-.189.126-.21,1.428a6.169,6.169,0,0,0,2.793.693c2.226,0,3.423-1.407,3.423-2.94,0-2.9-4.368-2.5-4.368-4.431a1.455,1.455,0,0,1,1.6-1.365,3.643,3.643,0,0,1,2.016.693l.252-.063.231-1.365A6.123,6.123,0,0,0,152.964,67.235Zm8.316-.021a6.045,6.045,0,0,0-3.591,1.3l.21,1.2.168.084a4.576,4.576,0,0,1,2.961-1.386,1.517,1.517,0,0,1,1.659,1.7l-.021,1.365-3.4.8a2.163,2.163,0,0,0-1.953,2.247c0,1.617,1.092,2.625,2.982,2.625a6.193,6.193,0,0,0,2.247-1.575h.147a1.5,1.5,0,0,0,1.449,1.554,3.024,3.024,0,0,0,1.2-.42l.168-.945-.168-.147a2.291,2.291,0,0,1-.714.126c-.483,0-.651-.21-.651-.819,0-.735.252-4.452.252-5.187C164.22,68.159,163.086,67.214,161.28,67.214Zm1.365,5.334-.063,1.722a3.222,3.222,0,0,1-2.352,1.491,1.346,1.346,0,0,1-1.428-1.47.92.92,0,0,1,.8-1.008Zm10.269.231.126-10.521-1.659.147.1,10.5L171.36,77h1.659Zm7.14-5.565c-2.793,0-4.389,1.869-4.389,5.1,0,3.087,1.512,4.851,4.137,4.851,2.793,0,4.368-1.869,4.368-5.1C184.17,68.978,182.658,67.214,180.054,67.214Zm-.1,1.176c1.722,0,2.667,1.386,2.667,4.053,0,2.352-.945,3.528-2.709,3.528-1.722,0-2.667-1.323-2.667-4.032C177.24,69.629,178.185,68.39,179.949,68.39Zm7.812-5.313a.926.926,0,0,0-.987.987.863.863,0,0,0,.924.966A.938.938,0,0,0,188.685,64,.86.86,0,0,0,187.761,63.077Zm1.134,4.3-.063-.042-1.554.063H185.3l-.105.966.126.147h1.932l.084,4.41-.042,3.759a3.437,3.437,0,0,1-1.974,3.444v.189l.63.756c2.121-1.113,2.9-2.268,2.9-4.473l-.084-3.822Zm6.615-.168a6.045,6.045,0,0,0-3.591,1.3l.21,1.2.168.084a4.576,4.576,0,0,1,2.961-1.386,1.517,1.517,0,0,1,1.659,1.7l-.021,1.365-3.4.8a2.163,2.163,0,0,0-1.953,2.247c0,1.617,1.092,2.625,2.982,2.625a6.193,6.193,0,0,0,2.247-1.575h.147a1.5,1.5,0,0,0,1.449,1.554,3.024,3.024,0,0,0,1.2-.42l.168-.945-.168-.147a2.291,2.291,0,0,1-.714.126c-.483,0-.651-.21-.651-.819,0-.735.252-4.452.252-5.187C198.45,68.159,197.316,67.214,195.51,67.214Zm1.365,5.334-.063,1.722a3.222,3.222,0,0,1-2.352,1.491,1.346,1.346,0,0,1-1.428-1.47.92.92,0,0,1,.8-1.008Zm6.153,2.625a3.659,3.659,0,0,0-1.155.546v.168a1.209,1.209,0,0,1,.651.987,2.477,2.477,0,0,1-1.155,1.848v.147l.567.525c1.323-.966,1.974-1.911,1.974-2.814A1.634,1.634,0,0,0,203.028,75.173Zm-197,21.1a6.215,6.215,0,0,0-2.646,1.428H3.255l.021-1.365-1.617.147.126,5.439-.126,7.959H3.3l-.042-3.906a9.151,9.151,0,0,0,1.827.189c2.961,0,4.683-1.89,4.683-5.271C9.765,98,8.505,96.277,6.027,96.277Zm-.735,8.673a4.319,4.319,0,0,1-2.058-.546l-.021-2.625.021-2.646A3.651,3.651,0,0,1,5.88,97.642c1.47,0,2.268,1.26,2.31,3.444C8.232,103.69,7.056,104.95,5.292,104.95Zm7.791-3.843,5.859-.021.357-.273c.021-.252.042-.735.042-.966,0-2.268-1.218-3.612-3.318-3.612-2.751,0-4.515,1.911-4.515,5.019,0,3.024,1.617,4.914,4.368,4.914a6.585,6.585,0,0,0,2.919-.777l.168-1.407-.189-.105a5.13,5.13,0,0,1-2.814.945c-1.932,0-2.877-1.386-2.877-3.654Zm2.793-3.7c1.155,0,1.974.693,1.974,2.2l-.042.252-4.62.126C13.482,98.335,14.448,97.411,15.876,97.411Zm10.311-1.05c-.819,0-1.827.441-2.688,1.953h-.126l.021-1.974-1.6.147.1,5.439L21.777,106h1.659l-.1-4.221.021-1.47c.756-1.659,1.533-2.331,2.436-2.331a2.908,2.908,0,0,1,.756.105l.189-.063V96.4A4.129,4.129,0,0,0,26.187,96.361Zm5.691-.147c-2.646,0-4.263,1.953-4.263,5.04,0,3.045,1.554,4.914,4.095,4.914a6.813,6.813,0,0,0,2.562-.546l.189-1.407-.189-.1a4.717,4.717,0,0,1-2.352.714c-1.722,0-2.73-1.407-2.73-3.654,0-2.268.987-3.591,2.625-3.591a4.088,4.088,0,0,1,2.163.714l.189-.063.294-1.449A6.385,6.385,0,0,0,31.878,96.214Zm5.376,4.893,5.859-.021.357-.273c.021-.252.042-.735.042-.966,0-2.268-1.218-3.612-3.318-3.612-2.751,0-4.515,1.911-4.515,5.019,0,3.024,1.617,4.914,4.368,4.914a6.585,6.585,0,0,0,2.919-.777l.168-1.407-.189-.105a5.13,5.13,0,0,1-2.814.945c-1.932,0-2.877-1.386-2.877-3.654Zm2.793-3.7c1.155,0,1.974.693,1.974,2.2l-.042.252-4.62.126C37.653,98.335,38.619,97.411,40.047,97.411ZM50.4,96.277a6.441,6.441,0,0,0-2.646,1.428h-.126l.063-6.447-1.659.147.126,10.563-.147,4.1.294.168,1.155-.525a5.141,5.141,0,0,0,2.058.462c2.877,0,4.62-1.89,4.62-5.271C54.138,98,52.857,96.277,50.4,96.277Zm-.735,8.673a3.607,3.607,0,0,1-2.016-.672l-.063-2.5.021-2.646a3.616,3.616,0,0,1,2.646-1.491c1.47,0,2.268,1.26,2.31,3.444C52.605,103.69,51.429,104.95,49.665,104.95Zm7.812-3.843,5.859-.021.357-.273c.021-.252.042-.735.042-.966,0-2.268-1.218-3.612-3.318-3.612-2.751,0-4.515,1.911-4.515,5.019,0,3.024,1.617,4.914,4.368,4.914a6.585,6.585,0,0,0,2.919-.777l.168-1.407-.189-.105a5.13,5.13,0,0,1-2.814.945c-1.932,0-2.877-1.386-2.877-3.654Zm2.793-3.7c1.155,0,1.974.693,1.974,2.2l-.042.252-4.62.126C57.876,98.335,58.842,97.411,60.27,97.411ZM78.1,106h1.68l-.063-4.179.021-2.73c.021-1.806-1.071-2.835-3.192-2.835a6.906,6.906,0,0,0-2.856,1.6h-.126c-.4-1.029-1.407-1.6-3-1.6a6.415,6.415,0,0,0-2.646,1.491h-.147l.021-1.407-1.6.147.084,5.439L66.171,106H67.83l-.084-4.221.021-2.625A4.2,4.2,0,0,1,70.6,97.642c1.113,0,1.659.714,1.638,1.827L72.135,106h1.68l-.084-4.179.042-2.73a4.144,4.144,0,0,1,2.793-1.449,1.576,1.576,0,0,1,1.659,1.827Zm8.4-9.786c-2.793,0-4.389,1.869-4.389,5.1,0,3.087,1.512,4.851,4.137,4.851,2.793,0,4.368-1.869,4.368-5.1C90.615,97.978,89.1,96.214,86.5,96.214Zm-.105,1.176c1.722,0,2.667,1.386,2.667,4.053,0,2.352-.945,3.528-2.709,3.528-1.722,0-2.667-1.323-2.667-4.032C83.685,98.629,84.63,97.39,86.394,97.39Zm9.45-1.155c-2.079,0-3.318,1.176-3.318,2.772,0,2.982,4.389,2.583,4.389,4.515a1.578,1.578,0,0,1-1.743,1.449,4.132,4.132,0,0,1-2.562-1.05l-.189.126-.21,1.428a6.169,6.169,0,0,0,2.793.693c2.226,0,3.423-1.407,3.423-2.94,0-2.9-4.368-2.5-4.368-4.431a1.455,1.455,0,0,1,1.6-1.365,3.643,3.643,0,0,1,2.016.693l.252-.063.231-1.365A6.123,6.123,0,0,0,95.844,96.235Zm15.75.021-.819.336a9.39,9.39,0,0,0-2.52-.378c-2.877,0-4.62,1.764-4.62,5.061,0,3.024,1.47,4.83,4.2,4.83A6.74,6.74,0,0,0,110,104.866h.168v.4l-.063,4.62h1.638l-.105-8.064.126-5.46Zm-3.528,1.155a4.565,4.565,0,0,1,2.079.567l.042,4.011-.021,1.428a3.217,3.217,0,0,1-2.415,1.281c-1.554,0-2.52-1.3-2.562-3.57C105.147,98.608,106.323,97.411,108.066,97.411ZM122.3,96.34l-1.6.147v6.951a3.884,3.884,0,0,1-2.6,1.281c-1.092,0-1.638-.693-1.617-1.827l.126-6.552-1.68.147.063,4.137-.021,2.667c-.021,1.806,1.071,2.835,3.15,2.835a6.1,6.1,0,0,0,2.6-1.47h.168a1.529,1.529,0,0,0,1.449,1.47,3.024,3.024,0,0,0,1.2-.42l.147-.945-.147-.147a2.309,2.309,0,0,1-.735.126c-.441,0-.63-.21-.63-.8Zm4.284,4.767,5.859-.021.357-.273c.021-.252.042-.735.042-.966,0-2.268-1.218-3.612-3.318-3.612-2.751,0-4.515,1.911-4.515,5.019,0,3.024,1.617,4.914,4.368,4.914a6.585,6.585,0,0,0,2.919-.777l.168-1.407-.189-.105a5.13,5.13,0,0,1-2.814.945c-1.932,0-2.877-1.386-2.877-3.654Zm2.793-3.7c1.155,0,1.974.693,1.974,2.2l-.042.252-4.62.126C126.987,98.335,127.953,97.411,129.381,97.411Zm13.734-1.134a6.215,6.215,0,0,0-2.646,1.428h-.126l.021-1.365-1.617.147.126,5.439-.126,7.959h1.638l-.042-3.906a9.151,9.151,0,0,0,1.827.189c2.961,0,4.683-1.89,4.683-5.271C146.853,98,145.593,96.277,143.115,96.277Zm-.735,8.673a4.319,4.319,0,0,1-2.058-.546l-.021-2.625.021-2.646a3.651,3.651,0,0,1,2.646-1.491c1.47,0,2.268,1.26,2.31,3.444C145.32,103.69,144.144,104.95,142.38,104.95Zm10.185-8.736a6.045,6.045,0,0,0-3.591,1.3l.21,1.2.168.084a4.576,4.576,0,0,1,2.961-1.386,1.517,1.517,0,0,1,1.659,1.7l-.021,1.365-3.4.8a2.163,2.163,0,0,0-1.953,2.247c0,1.617,1.092,2.625,2.982,2.625a6.193,6.193,0,0,0,2.247-1.575h.147a1.5,1.5,0,0,0,1.449,1.554,3.024,3.024,0,0,0,1.2-.42l.168-.945-.168-.147a2.291,2.291,0,0,1-.714.126c-.483,0-.651-.21-.651-.819,0-.735.252-4.452.252-5.187C155.5,97.159,154.371,96.214,152.565,96.214Zm1.365,5.334-.063,1.722a3.222,3.222,0,0,1-2.352,1.491,1.346,1.346,0,0,1-1.428-1.47.92.92,0,0,1,.8-1.008Zm9.555-5.187c-.819,0-1.827.441-2.688,1.953h-.126l.021-1.974-1.6.147.105,5.439L159.075,106h1.659l-.1-4.221.021-1.47c.756-1.659,1.533-2.331,2.436-2.331a2.908,2.908,0,0,1,.756.105l.189-.063V96.4A4.129,4.129,0,0,0,163.485,96.361Zm5.355-.147a6.045,6.045,0,0,0-3.591,1.3l.21,1.2.168.084a4.576,4.576,0,0,1,2.961-1.386,1.517,1.517,0,0,1,1.659,1.7l-.021,1.365-3.4.8a2.163,2.163,0,0,0-1.953,2.247c0,1.617,1.092,2.625,2.982,2.625a6.193,6.193,0,0,0,2.247-1.575h.147a1.5,1.5,0,0,0,1.449,1.554,3.024,3.024,0,0,0,1.2-.42l.168-.945-.168-.147a2.291,2.291,0,0,1-.714.126c-.483,0-.651-.21-.651-.819,0-.735.252-4.452.252-5.187C171.78,97.159,170.646,96.214,168.84,96.214Zm1.365,5.334-.063,1.722a3.222,3.222,0,0,1-2.352,1.491,1.346,1.346,0,0,1-1.428-1.47.92.92,0,0,1,.8-1.008ZM184.779,106h1.68l-.084-4.179.042-2.73c.021-1.806-1.071-2.835-3.213-2.835a6.611,6.611,0,0,0-2.667,1.491h-.126l.021-1.407-1.6.147.084,5.439L178.815,106h1.659l-.084-4.221.021-2.646a4.164,4.164,0,0,1,2.835-1.491c1.113,0,1.659.714,1.638,1.827Zm8.463-9.786c-2.793,0-4.389,1.869-4.389,5.1,0,3.087,1.512,4.851,4.137,4.851,2.793,0,4.368-1.869,4.368-5.1C197.358,97.978,195.846,96.214,193.242,96.214Zm-.1,1.176c1.722,0,2.667,1.386,2.667,4.053,0,2.352-.945,3.528-2.709,3.528-1.722,0-2.667-1.323-2.667-4.032C190.428,98.629,191.373,97.39,193.137,97.39Zm9.45-1.155c-2.079,0-3.318,1.176-3.318,2.772,0,2.982,4.389,2.583,4.389,4.515a1.578,1.578,0,0,1-1.743,1.449,4.132,4.132,0,0,1-2.562-1.05l-.189.126-.21,1.428a6.169,6.169,0,0,0,2.793.693c2.226,0,3.423-1.407,3.423-2.94,0-2.9-4.368-2.5-4.368-4.431a1.455,1.455,0,0,1,1.6-1.365,3.643,3.643,0,0,1,2.016.693l.252-.063L204.9,96.7A6.123,6.123,0,0,0,202.587,96.235ZM8.862,130.779l.126-10.521-1.659.147.042,5.019a8.182,8.182,0,0,0-1.848-.21c-2.919,0-4.662,1.806-4.662,5,0,3.108,1.491,4.893,4.284,4.893a6.983,6.983,0,0,0,2.289-1.449h.147a1.548,1.548,0,0,0,1.47,1.47,3.024,3.024,0,0,0,1.2-.42l.147-.945-.168-.147a2.119,2.119,0,0,1-.714.126c-.441,0-.588-.21-.609-.8ZM5.313,126.39a4.9,4.9,0,0,1,2.058.525l.042,3.99-.042,1.512a2.982,2.982,0,0,1-2.31,1.281c-1.6,0-2.6-1.3-2.646-3.633C2.373,127.629,3.549,126.39,5.313,126.39Zm7.98,3.717,5.859-.021.357-.273c.021-.252.042-.735.042-.966,0-2.268-1.218-3.612-3.318-3.612-2.751,0-4.515,1.911-4.515,5.019,0,3.024,1.617,4.914,4.368,4.914a6.585,6.585,0,0,0,2.919-.777l.168-1.407-.189-.1a5.13,5.13,0,0,1-2.814.945c-1.932,0-2.877-1.386-2.877-3.654Zm2.793-3.7c1.155,0,1.974.693,1.974,2.2l-.042.252-4.62.126C13.692,127.335,14.658,126.411,16.086,126.411Zm8.547-1.176c-2.079,0-3.318,1.176-3.318,2.772,0,2.982,4.389,2.583,4.389,4.515a1.578,1.578,0,0,1-1.743,1.449,4.132,4.132,0,0,1-2.562-1.05l-.189.126L21,134.475a6.169,6.169,0,0,0,2.793.693c2.226,0,3.423-1.407,3.423-2.94,0-2.9-4.368-2.5-4.368-4.431a1.455,1.455,0,0,1,1.6-1.365,3.643,3.643,0,0,1,2.016.693l.252-.063.231-1.365A6.123,6.123,0,0,0,24.633,125.235Zm8.169,8.484c-.924,0-1.344-.378-1.323-1.512l.1-5.691h2.835l.105-.987-.084-.126H31.584l.042-2.037-.168-.147-1.449.63V125.4H28.728l-.1.987.084.126H30.03l.021,4.347-.063,1.491a2.426,2.426,0,0,0,2.247,2.772,6.054,6.054,0,0,0,2.1-.609l.168-1.092-.189-.126A3.181,3.181,0,0,1,32.8,133.719Zm6.846-8.5a6.045,6.045,0,0,0-3.591,1.3l.21,1.2.168.084a4.576,4.576,0,0,1,2.961-1.386,1.517,1.517,0,0,1,1.659,1.7l-.021,1.365-3.4.8a2.163,2.163,0,0,0-1.953,2.247c0,1.617,1.092,2.625,2.982,2.625a6.193,6.193,0,0,0,2.247-1.575h.147a1.5,1.5,0,0,0,1.449,1.554,3.024,3.024,0,0,0,1.2-.42l.168-.945-.168-.147a2.291,2.291,0,0,1-.714.126c-.483,0-.651-.21-.651-.819,0-.735.252-4.452.252-5.187C42.588,126.159,41.454,125.214,39.648,125.214Zm1.365,5.334-.063,1.722a3.222,3.222,0,0,1-2.352,1.491,1.346,1.346,0,0,1-1.428-1.47.92.92,0,0,1,.8-1.008Zm8.631-5.334c-2.646,0-4.263,1.953-4.263,5.04,0,3.045,1.554,4.914,4.1,4.914a6.813,6.813,0,0,0,2.562-.546l.189-1.407-.189-.1a4.717,4.717,0,0,1-2.352.714c-1.722,0-2.73-1.407-2.73-3.654,0-2.268.987-3.591,2.625-3.591a4.088,4.088,0,0,1,2.163.714l.189-.063.294-1.449A6.385,6.385,0,0,0,49.644,125.214Zm7.581,0a6.045,6.045,0,0,0-3.591,1.3l.21,1.2.168.084a4.576,4.576,0,0,1,2.961-1.386,1.517,1.517,0,0,1,1.659,1.7l-.021,1.365-3.4.8a2.163,2.163,0,0,0-1.953,2.247c0,1.617,1.092,2.625,2.982,2.625a6.193,6.193,0,0,0,2.247-1.575h.147a1.5,1.5,0,0,0,1.449,1.554,3.024,3.024,0,0,0,1.2-.42l.168-.945-.168-.147a2.291,2.291,0,0,1-.714.126c-.483,0-.651-.21-.651-.819,0-.735.252-4.452.252-5.187C60.165,126.159,59.031,125.214,57.225,125.214Zm1.365,5.334-.063,1.722a3.222,3.222,0,0,1-2.352,1.491,1.346,1.346,0,0,1-1.428-1.47.92.92,0,0,1,.8-1.008Zm9.555-5.187c-.819,0-1.827.441-2.688,1.953h-.126l.021-1.974-1.6.147.1,5.439L63.735,135h1.659l-.1-4.221.021-1.47c.756-1.659,1.533-2.331,2.436-2.331a2.908,2.908,0,0,1,.756.105l.189-.063V125.4A4.129,4.129,0,0,0,68.145,125.361ZM82.446,135h1.68l-.063-4.179.021-2.73c.021-1.806-1.071-2.835-3.192-2.835a6.906,6.906,0,0,0-2.856,1.6H77.91c-.4-1.029-1.407-1.6-3-1.6a6.415,6.415,0,0,0-2.646,1.491h-.147l.021-1.407-1.6.147.084,5.439L70.518,135h1.659l-.084-4.221.021-2.625a4.2,4.2,0,0,1,2.835-1.512c1.113,0,1.659.714,1.638,1.827L76.482,135h1.68l-.084-4.179.042-2.73a4.144,4.144,0,0,1,2.793-1.449,1.576,1.576,0,0,1,1.659,1.827Zm8.4-9.786c-2.793,0-4.389,1.869-4.389,5.1,0,3.087,1.512,4.851,4.137,4.851,2.793,0,4.368-1.869,4.368-5.1C94.962,126.978,93.45,125.214,90.846,125.214Zm-.105,1.176c1.722,0,2.667,1.386,2.667,4.053,0,2.352-.945,3.528-2.709,3.528-1.722,0-2.667-1.323-2.667-4.032C88.032,127.629,88.977,126.39,90.741,126.39Zm9.45-1.155c-2.079,0-3.318,1.176-3.318,2.772,0,2.982,4.389,2.583,4.389,4.515a1.578,1.578,0,0,1-1.743,1.449,4.132,4.132,0,0,1-2.562-1.05l-.189.126-.21,1.428a6.169,6.169,0,0,0,2.793.693c2.226,0,3.423-1.407,3.423-2.94,0-2.9-4.368-2.5-4.368-4.431a1.455,1.455,0,0,1,1.6-1.365,3.643,3.643,0,0,1,2.016.693l.252-.063.231-1.365A6.123,6.123,0,0,0,100.191,125.235Zm9.387,4.872,5.859-.021.357-.273c.021-.252.042-.735.042-.966,0-2.268-1.218-3.612-3.318-3.612-2.751,0-4.515,1.911-4.515,5.019,0,3.024,1.617,4.914,4.368,4.914a6.585,6.585,0,0,0,2.919-.777l.168-1.407-.189-.1a5.13,5.13,0,0,1-2.814.945c-1.932,0-2.877-1.386-2.877-3.654Zm2.793-3.7c1.155,0,1.974.693,1.974,2.2l-.042.252-4.62.126C109.977,127.335,110.943,126.411,112.371,126.411ZM130.2,135h1.68l-.063-4.179.021-2.73c.021-1.806-1.071-2.835-3.192-2.835a6.906,6.906,0,0,0-2.856,1.6h-.126c-.4-1.029-1.407-1.6-3-1.6a6.415,6.415,0,0,0-2.646,1.491h-.147l.021-1.407-1.6.147.084,5.439L118.272,135h1.659l-.084-4.221.021-2.625a4.2,4.2,0,0,1,2.835-1.512c1.113,0,1.659.714,1.638,1.827L124.236,135h1.68l-.084-4.179.042-2.73a4.144,4.144,0,0,1,2.793-1.449,1.576,1.576,0,0,1,1.659,1.827Zm15.5-9.66-1.6.147v6.951a3.884,3.884,0,0,1-2.6,1.281c-1.092,0-1.638-.693-1.617-1.827l.126-6.552-1.68.147.063,4.137-.021,2.667c-.021,1.806,1.071,2.835,3.15,2.835a6.1,6.1,0,0,0,2.6-1.47h.168a1.529,1.529,0,0,0,1.449,1.47,3.024,3.024,0,0,0,1.2-.42l.147-.945-.147-.147a2.309,2.309,0,0,1-.735.126c-.441,0-.63-.21-.63-.8ZM161.112,135h1.68l-.063-4.179.021-2.73c.021-1.806-1.071-2.835-3.192-2.835a6.906,6.906,0,0,0-2.856,1.6h-.126c-.4-1.029-1.407-1.6-3-1.6a6.415,6.415,0,0,0-2.646,1.491h-.147l.021-1.407-1.6.147.084,5.439L149.184,135h1.659l-.084-4.221.021-2.625a4.2,4.2,0,0,1,2.835-1.512c1.113,0,1.659.714,1.638,1.827l-.1,6.531h1.68l-.084-4.179.042-2.73a4.144,4.144,0,0,1,2.793-1.449,1.576,1.576,0,0,1,1.659,1.827Zm20.181,0h1.68l-.063-4.179.021-2.73c.021-1.806-1.071-2.835-3.192-2.835a6.906,6.906,0,0,0-2.856,1.6h-.126c-.4-1.029-1.407-1.6-3-1.6a6.415,6.415,0,0,0-2.646,1.491h-.147l.021-1.407-1.6.147.084,5.439L169.365,135h1.659l-.084-4.221.021-2.625a4.2,4.2,0,0,1,2.835-1.512c1.113,0,1.659.714,1.638,1.827l-.1,6.531h1.68l-.084-4.179.042-2.73a4.144,4.144,0,0,1,2.793-1.449,1.576,1.576,0,0,1,1.659,1.827Zm5.586-4.893,5.859-.021.357-.273c.021-.252.042-.735.042-.966,0-2.268-1.218-3.612-3.318-3.612-2.751,0-4.515,1.911-4.515,5.019,0,3.024,1.617,4.914,4.368,4.914a6.585,6.585,0,0,0,2.919-.777l.168-1.407-.189-.1a5.13,5.13,0,0,1-2.814.945c-1.932,0-2.877-1.386-2.877-3.654Zm2.793-3.7c1.155,0,1.974.693,1.974,2.2l-.042.252-4.62.126C187.278,127.335,188.244,126.411,189.672,126.411Zm10.311-1.05c-.819,0-1.827.441-2.688,1.953h-.126l.021-1.974-1.6.147.105,5.439L195.573,135h1.659l-.1-4.221.021-1.47c.756-1.659,1.533-2.331,2.436-2.331a2.908,2.908,0,0,1,.756.105l.189-.063V125.4A4.129,4.129,0,0,0,199.983,125.361Zm5.691-.147c-2.646,0-4.263,1.953-4.263,5.04,0,3.045,1.554,4.914,4.1,4.914a6.813,6.813,0,0,0,2.562-.546l.189-1.407-.189-.1a4.717,4.717,0,0,1-2.352.714c-1.722,0-2.73-1.407-2.73-3.654,0-2.268.987-3.591,2.625-3.591a4.088,4.088,0,0,1,2.163.714l.189-.063.294-1.449A6.385,6.385,0,0,0,205.674,125.214Zm7.581,0a6.045,6.045,0,0,0-3.591,1.3l.21,1.2.168.084A4.576,4.576,0,0,1,213,126.411a1.517,1.517,0,0,1,1.659,1.7l-.021,1.365-3.4.8a2.163,2.163,0,0,0-1.953,2.247c0,1.617,1.092,2.625,2.982,2.625a6.193,6.193,0,0,0,2.247-1.575h.147a1.5,1.5,0,0,0,1.449,1.554,3.024,3.024,0,0,0,1.2-.42l.168-.945-.168-.147a2.291,2.291,0,0,1-.714.126c-.483,0-.651-.21-.651-.819,0-.735.252-4.452.252-5.187C216.195,126.159,215.061,125.214,213.255,125.214Zm1.365,5.334-.063,1.722a3.222,3.222,0,0,1-2.352,1.491,1.346,1.346,0,0,1-1.428-1.47.92.92,0,0,1,.8-1.008Zm12.348.231.126-10.521-1.659.147.042,5.019a8.182,8.182,0,0,0-1.848-.21c-2.919,0-4.662,1.806-4.662,5,0,3.108,1.491,4.893,4.284,4.893a6.984,6.984,0,0,0,2.289-1.449h.147a1.548,1.548,0,0,0,1.47,1.47,3.024,3.024,0,0,0,1.2-.42l.147-.945-.168-.147a2.119,2.119,0,0,1-.714.126c-.441,0-.588-.21-.609-.8Zm-3.549-4.389a4.9,4.9,0,0,1,2.058.525l.042,3.99-.042,1.512a2.982,2.982,0,0,1-2.31,1.281c-1.6,0-2.6-1.3-2.646-3.633C220.479,127.629,221.655,126.39,223.419,126.39Zm10.794-1.176c-2.793,0-4.389,1.869-4.389,5.1,0,3.087,1.512,4.851,4.137,4.851,2.793,0,4.368-1.869,4.368-5.1C238.329,126.978,236.817,125.214,234.213,125.214Zm-.1,1.176c1.722,0,2.667,1.386,2.667,4.053,0,2.352-.945,3.528-2.709,3.528-1.722,0-2.667-1.323-2.667-4.032C231.4,127.629,232.344,126.39,234.108,126.39ZM5.145,154.214c-2.646,0-4.263,1.953-4.263,5.04,0,3.045,1.554,4.914,4.1,4.914a6.813,6.813,0,0,0,2.562-.546l.189-1.407-.189-.1a4.717,4.717,0,0,1-2.352.714c-1.722,0-2.73-1.407-2.73-3.654,0-2.268.987-3.591,2.625-3.591a4.088,4.088,0,0,1,2.163.714l.189-.063.294-1.449A6.385,6.385,0,0,0,5.145,154.214Zm8.19,0c-2.793,0-4.389,1.869-4.389,5.1,0,3.087,1.512,4.851,4.137,4.851,2.793,0,4.368-1.869,4.368-5.1C17.451,155.978,15.939,154.214,13.335,154.214Zm-.105,1.176c1.722,0,2.667,1.386,2.667,4.053,0,2.352-.945,3.528-2.709,3.528-1.722,0-2.667-1.323-2.667-4.032C10.521,156.629,11.466,155.39,13.23,155.39ZM31.962,164h1.68l-.063-4.179.021-2.73c.021-1.806-1.071-2.835-3.192-2.835a6.906,6.906,0,0,0-2.856,1.6h-.126c-.4-1.029-1.407-1.6-3-1.6a6.415,6.415,0,0,0-2.646,1.491H21.63l.021-1.407-1.6.147.084,5.439-.1,4.074h1.659l-.084-4.221.021-2.625a4.2,4.2,0,0,1,2.835-1.512c1.113,0,1.659.714,1.638,1.827L26,164h1.68l-.084-4.179.042-2.73a4.144,4.144,0,0,1,2.793-1.449,1.576,1.576,0,0,1,1.659,1.827Zm9.156-9.723a6.215,6.215,0,0,0-2.646,1.428h-.126l.021-1.365-1.617.147.126,5.439-.126,7.959h1.638l-.042-3.906a9.152,9.152,0,0,0,1.827.189c2.961,0,4.683-1.89,4.683-5.271C44.856,156,43.6,154.277,41.118,154.277Zm-.735,8.673a4.319,4.319,0,0,1-2.058-.546l-.021-2.625.021-2.646a3.651,3.651,0,0,1,2.646-1.491c1.47,0,2.268,1.26,2.31,3.444C43.323,161.69,42.147,162.95,40.383,162.95Zm7.791-3.843,5.859-.021.357-.273c.021-.252.042-.735.042-.966,0-2.268-1.218-3.612-3.318-3.612-2.751,0-4.515,1.911-4.515,5.019,0,3.024,1.617,4.914,4.368,4.914a6.585,6.585,0,0,0,2.919-.777l.168-1.407-.189-.1a5.13,5.13,0,0,1-2.814.945c-1.932,0-2.877-1.386-2.877-3.654Zm2.793-3.7c1.155,0,1.974.693,1.974,2.205l-.042.252-4.62.126C48.573,156.335,49.539,155.411,50.967,155.411Zm8.946,7.308c-.924,0-1.344-.378-1.323-1.512l.1-5.691H61.53l.105-.987-.084-.126H58.695l.042-2.037-.168-.147-1.449.63V154.4H55.839l-.1.987.084.126h1.323l.021,4.347-.063,1.491a2.426,2.426,0,0,0,2.247,2.772,6.054,6.054,0,0,0,2.1-.609l.168-1.092-.189-.126A3.181,3.181,0,0,1,59.913,162.719Zm4.557-12.642a.926.926,0,0,0-.987.987.863.863,0,0,0,.924.966A.938.938,0,0,0,65.394,151,.86.86,0,0,0,64.47,150.077Zm.651,9.7.126-5.439-1.659.147.084,5.439-.1,4.074h1.659Zm6.489,2.94c-.924,0-1.344-.378-1.323-1.512l.105-5.691h2.835l.105-.987-.084-.126H70.392l.042-2.037-.168-.147-1.449.63V154.4H67.536l-.1.987.084.126h1.323l.021,4.347-.063,1.491a2.426,2.426,0,0,0,2.247,2.772,6.054,6.054,0,0,0,2.1-.609l.168-1.092-.189-.126A3.181,3.181,0,0,1,71.61,162.719Zm4.557-12.642a.926.926,0,0,0-.987.987.863.863,0,0,0,.924.966A.938.938,0,0,0,77.091,151,.86.86,0,0,0,76.167,150.077Zm.651,9.7.126-5.439-1.659.147.084,5.439L75.264,164h1.659Zm3.927-4.179-.273-1.281-1.554.1L81.9,164h1.785l3.528-9.618H85.722l-.336,1.3-2.457,6.657h-.105Zm11.592-1.386c-2.793,0-4.389,1.869-4.389,5.1,0,3.087,1.512,4.851,4.137,4.851,2.793,0,4.368-1.869,4.368-5.1C96.453,155.978,94.941,154.214,92.337,154.214Zm-.105,1.176c1.722,0,2.667,1.386,2.667,4.053,0,2.352-.945,3.528-2.709,3.528-1.722,0-2.667-1.323-2.667-4.032C89.523,156.629,90.468,155.39,92.232,155.39ZM108.465,164h1.68l-.084-4.179.042-2.73c.021-1.806-1.071-2.835-3.213-2.835a6.611,6.611,0,0,0-2.667,1.491H104.1l.021-1.407-1.6.147.084,5.439L102.5,164h1.659l-.084-4.221.021-2.646a4.164,4.164,0,0,1,2.835-1.491c1.113,0,1.659.714,1.638,1.827Zm11.172-13.482-.5-.525h-.168c-.546.525-.882.966-1.2.966-.525,0-2.373-.651-3.255-.756l-.21.063-1.281,1.449v.147l.5.546h.189c.525-.525.861-.987,1.176-.987.546,0,2.394.693,3.255.777l.21-.063,1.281-1.449Zm-3.129,3.7a6.1,6.1,0,0,0-3.612,1.3l.231,1.2.168.084a4.533,4.533,0,0,1,2.961-1.386,1.517,1.517,0,0,1,1.659,1.7l-.021,1.365-3.4.8a2.163,2.163,0,0,0-1.953,2.247c0,1.617,1.092,2.625,2.982,2.625a6.193,6.193,0,0,0,2.247-1.575h.126a1.521,1.521,0,0,0,1.47,1.554,3.143,3.143,0,0,0,1.2-.42l.147-.945-.168-.147a2.1,2.1,0,0,1-.693.126c-.5,0-.672-.21-.672-.819,0-.735.273-4.452.273-5.187C119.448,155.159,118.293,154.214,116.508,154.214Zm1.365,5.334-.063,1.722a3.256,3.256,0,0,1-2.373,1.491,1.341,1.341,0,0,1-1.407-1.47.9.9,0,0,1,.8-1.008Zm8.757-5.334c-2.793,0-4.389,1.869-4.389,5.1,0,3.087,1.512,4.851,4.137,4.851,2.793,0,4.368-1.869,4.368-5.1C130.746,155.978,129.234,154.214,126.63,154.214Zm-.105,1.176c1.722,0,2.667,1.386,2.667,4.053,0,2.352-.945,3.528-2.709,3.528-1.722,0-2.667-1.323-2.667-4.032C123.816,156.629,124.761,155.39,126.525,155.39Zm14.742-1.113a6.441,6.441,0,0,0-2.646,1.428h-.126l.063-6.447-1.659.147.126,10.563-.147,4.1.294.168,1.155-.525a5.141,5.141,0,0,0,2.058.462c2.877,0,4.62-1.89,4.62-5.271C145,156,143.724,154.277,141.267,154.277Zm-.735,8.673a3.607,3.607,0,0,1-2.016-.672l-.063-2.5.021-2.646a3.616,3.616,0,0,1,2.646-1.491c1.47,0,2.268,1.26,2.31,3.444C143.472,161.69,142.3,162.95,140.532,162.95Zm10.206-8.736a6.045,6.045,0,0,0-3.591,1.3l.21,1.2.168.084a4.576,4.576,0,0,1,2.961-1.386,1.517,1.517,0,0,1,1.659,1.7l-.021,1.365-3.4.8a2.163,2.163,0,0,0-1.953,2.247c0,1.617,1.092,2.625,2.982,2.625A6.193,6.193,0,0,0,152,162.572h.147a1.5,1.5,0,0,0,1.449,1.554,3.024,3.024,0,0,0,1.2-.42l.168-.945-.168-.147a2.291,2.291,0,0,1-.714.126c-.483,0-.651-.21-.651-.819,0-.735.252-4.452.252-5.187C153.678,155.159,152.544,154.214,150.738,154.214Zm1.365,5.334-.063,1.722a3.222,3.222,0,0,1-2.352,1.491,1.346,1.346,0,0,1-1.428-1.47.92.92,0,0,1,.8-1.008Zm7.791-5.313c-2.079,0-3.318,1.176-3.318,2.772,0,2.982,4.389,2.583,4.389,4.515a1.578,1.578,0,0,1-1.743,1.449,4.132,4.132,0,0,1-2.562-1.05l-.189.126-.21,1.428a6.169,6.169,0,0,0,2.793.693c2.226,0,3.423-1.407,3.423-2.94,0-2.9-4.368-2.5-4.368-4.431a1.455,1.455,0,0,1,1.6-1.365,3.643,3.643,0,0,1,2.016.693l.252-.063.231-1.365A6.123,6.123,0,0,0,159.894,154.235Zm8.169,8.484c-.924,0-1.344-.378-1.323-1.512l.105-5.691h2.835l.1-.987-.084-.126h-2.856l.042-2.037-.168-.147-1.449.63V154.4h-1.281l-.105.987.084.126h1.323l.021,4.347-.063,1.491a2.426,2.426,0,0,0,2.247,2.772,6.054,6.054,0,0,0,2.1-.609l.168-1.092-.189-.126A3.181,3.181,0,0,1,168.063,162.719Zm6.846-8.5a6.045,6.045,0,0,0-3.591,1.3l.21,1.2.168.084a4.576,4.576,0,0,1,2.961-1.386,1.517,1.517,0,0,1,1.659,1.7l-.021,1.365-3.4.8a2.163,2.163,0,0,0-1.953,2.247c0,1.617,1.092,2.625,2.982,2.625a6.193,6.193,0,0,0,2.247-1.575h.147a1.5,1.5,0,0,0,1.449,1.554,3.024,3.024,0,0,0,1.2-.42l.168-.945-.168-.147a2.291,2.291,0,0,1-.714.126c-.483,0-.651-.21-.651-.819,0-.735.252-4.452.252-5.187C177.849,155.159,176.715,154.214,174.909,154.214Zm1.365,5.334-.063,1.722a3.222,3.222,0,0,1-2.352,1.491,1.346,1.346,0,0,1-1.428-1.47.92.92,0,0,1,.8-1.008Zm11.8-5.334a6.045,6.045,0,0,0-3.591,1.3l.21,1.2.168.084a4.576,4.576,0,0,1,2.961-1.386,1.517,1.517,0,0,1,1.659,1.7l-.021,1.365-3.4.8a2.163,2.163,0,0,0-1.953,2.247c0,1.617,1.092,2.625,2.982,2.625a6.193,6.193,0,0,0,2.247-1.575h.147a1.5,1.5,0,0,0,1.449,1.554,3.024,3.024,0,0,0,1.2-.42l.168-.945-.168-.147a2.291,2.291,0,0,1-.714.126c-.483,0-.651-.21-.651-.819,0-.735.252-4.452.252-5.187C191.016,155.159,189.882,154.214,188.076,154.214Zm1.365,5.334-.063,1.722a3.222,3.222,0,0,1-2.352,1.491,1.346,1.346,0,0,1-1.428-1.47.92.92,0,0,1,.8-1.008Zm9.513-5.271a6.215,6.215,0,0,0-2.646,1.428h-.126l.021-1.365-1.617.147.126,5.439-.126,7.959h1.638l-.042-3.906a9.152,9.152,0,0,0,1.827.189c2.961,0,4.683-1.89,4.683-5.271C202.692,156,201.432,154.277,198.954,154.277Zm-.735,8.673a4.319,4.319,0,0,1-2.058-.546l-.021-2.625.021-2.646a3.651,3.651,0,0,1,2.646-1.491c1.47,0,2.268,1.26,2.31,3.444C201.159,161.69,199.983,162.95,198.219,162.95Zm7.791-3.843,5.859-.021.357-.273c.021-.252.042-.735.042-.966,0-2.268-1.218-3.612-3.318-3.612-2.751,0-4.515,1.911-4.515,5.019,0,3.024,1.617,4.914,4.368,4.914a6.585,6.585,0,0,0,2.919-.777l.168-1.407-.189-.1a5.13,5.13,0,0,1-2.814.945c-1.932,0-2.877-1.386-2.877-3.654Zm2.793-3.7c1.155,0,1.974.693,1.974,2.205l-.042.252-4.62.126C206.409,156.335,207.375,155.411,208.8,155.411ZM220.668,164h1.68l-.084-4.179.042-2.73c.021-1.806-1.071-2.835-3.213-2.835a6.611,6.611,0,0,0-2.667,1.491H216.3l.021-1.407-1.6.147.084,5.439L214.7,164h1.659l-.084-4.221.021-2.646a4.164,4.164,0,0,1,2.835-1.491c1.113,0,1.659.714,1.638,1.827Zm8.043-9.786a6.045,6.045,0,0,0-3.591,1.3l.21,1.2.168.084a4.576,4.576,0,0,1,2.961-1.386,1.517,1.517,0,0,1,1.659,1.7l-.021,1.365-3.4.8a2.163,2.163,0,0,0-1.953,2.247c0,1.617,1.092,2.625,2.982,2.625a6.193,6.193,0,0,0,2.247-1.575h.147a1.5,1.5,0,0,0,1.449,1.554,3.024,3.024,0,0,0,1.2-.42l.168-.945-.168-.147a2.291,2.291,0,0,1-.714.126c-.483,0-.651-.21-.651-.819,0-.735.252-4.452.252-5.187C231.651,155.159,230.517,154.214,228.711,154.214Zm1.365,5.334-.063,1.722a3.222,3.222,0,0,1-2.352,1.491,1.346,1.346,0,0,1-1.428-1.47.92.92,0,0,1,.8-1.008Zm7.791-5.313c-2.079,0-3.318,1.176-3.318,2.772,0,2.982,4.389,2.583,4.389,4.515a1.578,1.578,0,0,1-1.743,1.449,4.132,4.132,0,0,1-2.562-1.05l-.189.126-.21,1.428a6.169,6.169,0,0,0,2.793.693c2.226,0,3.423-1.407,3.423-2.94,0-2.9-4.368-2.5-4.368-4.431a1.455,1.455,0,0,1,1.6-1.365,3.643,3.643,0,0,1,2.016.693l.252-.063.231-1.365A6.123,6.123,0,0,0,237.867,154.235ZM4.7,191.719c-.924,0-1.344-.378-1.323-1.512l.1-5.691H6.321l.105-.987-.084-.126H3.486l.042-2.037-.168-.147-1.449.63V183.4H.63l-.1.987.084.126H1.932l.021,4.347-.063,1.491a2.426,2.426,0,0,0,2.247,2.772,6.054,6.054,0,0,0,2.1-.609l.168-1.092-.189-.126A3.181,3.181,0,0,1,4.7,191.719Zm4.116-3.612,5.859-.021.357-.273c.021-.252.042-.735.042-.966,0-2.268-1.218-3.612-3.318-3.612-2.751,0-4.515,1.911-4.515,5.019,0,3.024,1.617,4.914,4.368,4.914a6.585,6.585,0,0,0,2.919-.777l.168-1.407-.189-.1a5.13,5.13,0,0,1-2.814.945c-1.932,0-2.877-1.386-2.877-3.654Zm2.793-3.7c1.155,0,1.974.693,1.974,2.205l-.042.252-4.62.126C9.219,185.335,10.185,184.411,11.613,184.411Zm10.311-1.05c-.819,0-1.827.441-2.688,1.953H19.11l.021-1.974-1.6.147.1,5.439L17.514,193h1.659l-.1-4.221.021-1.47c.756-1.659,1.533-2.331,2.436-2.331a2.908,2.908,0,0,1,.756.1l.189-.063V183.4A4.13,4.13,0,0,0,21.924,183.361Zm10.311-.084a6.441,6.441,0,0,0-2.646,1.428h-.126l.063-6.447-1.659.147.126,10.563-.147,4.1.294.168,1.155-.525a5.141,5.141,0,0,0,2.058.462c2.877,0,4.62-1.89,4.62-5.271C35.973,185,34.692,183.277,32.235,183.277ZM31.5,191.95a3.607,3.607,0,0,1-2.016-.672l-.063-2.5.021-2.646a3.616,3.616,0,0,1,2.646-1.491c1.47,0,2.268,1.26,2.31,3.444C34.44,190.69,33.264,191.95,31.5,191.95Zm10.626-8.736c-2.793,0-4.389,1.869-4.389,5.1,0,3.087,1.512,4.851,4.137,4.851,2.793,0,4.368-1.869,4.368-5.1C46.242,184.978,44.73,183.214,42.126,183.214Zm-.1,1.176c1.722,0,2.667,1.386,2.667,4.053,0,2.352-.945,3.528-2.709,3.528-1.722,0-2.667-1.323-2.667-4.032C39.312,185.629,40.257,184.39,42.021,184.39Zm10-1.176a6.045,6.045,0,0,0-3.591,1.3l.21,1.2.168.084a4.576,4.576,0,0,1,2.961-1.386,1.517,1.517,0,0,1,1.659,1.7l-.021,1.365-3.4.8a2.163,2.163,0,0,0-1.953,2.247c0,1.617,1.092,2.625,2.982,2.625a6.193,6.193,0,0,0,2.247-1.575h.147a1.5,1.5,0,0,0,1.449,1.554,3.024,3.024,0,0,0,1.2-.42l.168-.945-.168-.147a2.291,2.291,0,0,1-.714.126c-.483,0-.651-.21-.651-.819,0-.735.252-4.452.252-5.187C54.957,184.159,53.823,183.214,52.017,183.214Zm1.365,5.334-.063,1.722a3.222,3.222,0,0,1-2.352,1.491,1.346,1.346,0,0,1-1.428-1.47.92.92,0,0,1,.8-1.008Zm7.791-5.313c-2.079,0-3.318,1.176-3.318,2.772,0,2.982,4.389,2.583,4.389,4.515a1.578,1.578,0,0,1-1.743,1.449,4.132,4.132,0,0,1-2.562-1.05l-.189.126-.21,1.428a6.169,6.169,0,0,0,2.793.693c2.226,0,3.423-1.407,3.423-2.94,0-2.9-4.368-2.5-4.368-4.431a1.455,1.455,0,0,1,1.6-1.365,3.643,3.643,0,0,1,2.016.693l.252-.063.231-1.365A6.123,6.123,0,0,0,61.173,183.235Zm9.492-4.158a.926.926,0,0,0-.987.987.863.863,0,0,0,.924.966A.938.938,0,0,0,71.589,180,.86.86,0,0,0,70.665,179.077Zm.651,9.7.126-5.439-1.659.147.084,5.439L69.762,193h1.659Zm10.647,0,.126-10.521-1.659.147.042,5.019a8.181,8.181,0,0,0-1.848-.21c-2.919,0-4.662,1.806-4.662,5,0,3.108,1.491,4.893,4.284,4.893a6.983,6.983,0,0,0,2.289-1.449h.147a1.548,1.548,0,0,0,1.47,1.47,3.024,3.024,0,0,0,1.2-.42l.147-.945-.168-.147a2.119,2.119,0,0,1-.714.126c-.441,0-.588-.21-.609-.8Zm-3.549-4.389a4.9,4.9,0,0,1,2.058.525l.042,3.99-.042,1.512a2.982,2.982,0,0,1-2.31,1.281c-1.6,0-2.6-1.3-2.646-3.633C75.474,185.629,76.65,184.39,78.414,184.39Zm7.98,3.717,5.859-.021.357-.273c.021-.252.042-.735.042-.966,0-2.268-1.218-3.612-3.318-3.612-2.751,0-4.515,1.911-4.515,5.019,0,3.024,1.617,4.914,4.368,4.914a6.585,6.585,0,0,0,2.919-.777l.168-1.407-.189-.1a5.13,5.13,0,0,1-2.814.945c-1.932,0-2.877-1.386-2.877-3.654Zm2.793-3.7c1.155,0,1.974.693,1.974,2.205l-.042.252-4.62.126C86.793,185.335,87.759,184.411,89.187,184.411Zm6.8-5.334a.926.926,0,0,0-.987.987.863.863,0,0,0,.924.966A.938.938,0,0,0,96.915,180,.86.86,0,0,0,95.991,179.077Zm.651,9.7.126-5.439-1.659.147.084,5.439L95.088,193h1.659Zm6.636-5.565a6.045,6.045,0,0,0-3.591,1.3l.21,1.2.168.084a4.576,4.576,0,0,1,2.961-1.386,1.517,1.517,0,0,1,1.659,1.7l-.021,1.365-3.4.8a2.163,2.163,0,0,0-1.953,2.247c0,1.617,1.092,2.625,2.982,2.625a6.193,6.193,0,0,0,2.247-1.575h.147a1.5,1.5,0,0,0,1.449,1.554,3.024,3.024,0,0,0,1.2-.42l.168-.945-.168-.147a2.291,2.291,0,0,1-.714.126c-.483,0-.651-.21-.651-.819,0-.735.252-4.452.252-5.187C106.218,184.159,105.084,183.214,103.278,183.214Zm1.365,5.334-.063,1.722a3.222,3.222,0,0,1-2.352,1.491,1.346,1.346,0,0,1-1.428-1.47.92.92,0,0,1,.8-1.008Zm7.791-5.313c-2.079,0-3.318,1.176-3.318,2.772,0,2.982,4.389,2.583,4.389,4.515a1.578,1.578,0,0,1-1.743,1.449,4.132,4.132,0,0,1-2.562-1.05l-.189.126-.21,1.428a6.169,6.169,0,0,0,2.793.693c2.226,0,3.423-1.407,3.423-2.94,0-2.9-4.368-2.5-4.368-4.431a1.455,1.455,0,0,1,1.6-1.365,3.643,3.643,0,0,1,2.016.693l.252-.063.231-1.365A6.123,6.123,0,0,0,112.434,183.235Zm9.387,4.872,5.859-.021.357-.273c.021-.252.042-.735.042-.966,0-2.268-1.218-3.612-3.318-3.612-2.751,0-4.515,1.911-4.515,5.019,0,3.024,1.617,4.914,4.368,4.914a6.585,6.585,0,0,0,2.919-.777l.168-1.407-.189-.1a5.13,5.13,0,0,1-2.814.945c-1.932,0-2.877-1.386-2.877-3.654Zm2.793-3.7c1.155,0,1.974.693,1.974,2.205l-.042.252-4.62.126C122.22,185.335,123.186,184.411,124.614,184.411Zm16.569,4.368.126-10.521-1.659.147.042,5.019a8.181,8.181,0,0,0-1.848-.21c-2.919,0-4.662,1.806-4.662,5,0,3.108,1.491,4.893,4.284,4.893a6.984,6.984,0,0,0,2.289-1.449h.147a1.548,1.548,0,0,0,1.47,1.47,3.024,3.024,0,0,0,1.2-.42l.147-.945-.168-.147a2.119,2.119,0,0,1-.714.126c-.441,0-.588-.21-.609-.8Zm-3.549-4.389a4.9,4.9,0,0,1,2.058.525l.042,3.99-.042,1.512a2.982,2.982,0,0,1-2.31,1.281c-1.6,0-2.6-1.3-2.646-3.633C134.694,185.629,135.87,184.39,137.634,184.39Zm10.374-1.176a6.045,6.045,0,0,0-3.591,1.3l.21,1.2.168.084a4.576,4.576,0,0,1,2.961-1.386,1.517,1.517,0,0,1,1.659,1.7l-.021,1.365-3.4.8a2.163,2.163,0,0,0-1.953,2.247c0,1.617,1.092,2.625,2.982,2.625a6.193,6.193,0,0,0,2.247-1.575h.147a1.5,1.5,0,0,0,1.449,1.554,3.024,3.024,0,0,0,1.2-.42l.168-.945-.168-.147a2.291,2.291,0,0,1-.714.126c-.483,0-.651-.21-.651-.819,0-.735.252-4.452.252-5.187C150.948,184.159,149.814,183.214,148.008,183.214Zm1.365,5.334-.063,1.722a3.222,3.222,0,0,1-2.352,1.491,1.346,1.346,0,0,1-1.428-1.47.92.92,0,0,1,.8-1.008Zm12.348.231.126-10.521-1.659.147.042,5.019a8.181,8.181,0,0,0-1.848-.21c-2.919,0-4.662,1.806-4.662,5,0,3.108,1.491,4.893,4.284,4.893a6.984,6.984,0,0,0,2.289-1.449h.147a1.548,1.548,0,0,0,1.47,1.47,3.024,3.024,0,0,0,1.2-.42l.147-.945-.168-.147a2.119,2.119,0,0,1-.714.126c-.441,0-.588-.21-.609-.8Zm-3.549-4.389a4.9,4.9,0,0,1,2.058.525l.042,3.99-.042,1.512a2.982,2.982,0,0,1-2.31,1.281c-1.6,0-2.6-1.3-2.646-3.633C155.232,185.629,156.408,184.39,158.172,184.39Zm10.794-1.176c-2.793,0-4.389,1.869-4.389,5.1,0,3.087,1.512,4.851,4.137,4.851,2.793,0,4.368-1.869,4.368-5.1C173.082,184.978,171.57,183.214,168.966,183.214Zm-.1,1.176c1.722,0,2.667,1.386,2.667,4.053,0,2.352-.945,3.528-2.709,3.528-1.722,0-2.667-1.323-2.667-4.032C166.152,185.629,167.1,184.39,168.861,184.39Zm9.45-1.155c-2.079,0-3.318,1.176-3.318,2.772,0,2.982,4.389,2.583,4.389,4.515a1.578,1.578,0,0,1-1.743,1.449,4.132,4.132,0,0,1-2.562-1.05l-.189.126-.21,1.428a6.169,6.169,0,0,0,2.793.693c2.226,0,3.423-1.407,3.423-2.94,0-2.9-4.368-2.5-4.368-4.431a1.455,1.455,0,0,1,1.6-1.365,3.643,3.643,0,0,1,2.016.693l.252-.063.231-1.365A6.123,6.123,0,0,0,178.311,183.235Zm12.957.042a6.215,6.215,0,0,0-2.646,1.428H188.5l.021-1.365-1.617.147.126,5.439-.126,7.959h1.638l-.042-3.906a9.152,9.152,0,0,0,1.827.189c2.961,0,4.683-1.89,4.683-5.271C195.006,185,193.746,183.277,191.268,183.277Zm-.735,8.673a4.319,4.319,0,0,1-2.058-.546l-.021-2.625.021-2.646a3.651,3.651,0,0,1,2.646-1.491c1.47,0,2.268,1.26,2.31,3.444C193.473,190.69,192.3,191.95,190.533,191.95Zm11.4-8.589c-.819,0-1.827.441-2.688,1.953h-.126l.021-1.974-1.6.147.105,5.439L197.526,193h1.659l-.1-4.221.021-1.47c.756-1.659,1.533-2.331,2.436-2.331a2.908,2.908,0,0,1,.756.1l.189-.063V183.4A4.13,4.13,0,0,0,201.936,183.361Zm3,4.746,5.859-.021.357-.273c.021-.252.042-.735.042-.966,0-2.268-1.218-3.612-3.318-3.612-2.751,0-4.515,1.911-4.515,5.019,0,3.024,1.617,4.914,4.368,4.914a6.585,6.585,0,0,0,2.919-.777l.168-1.407-.189-.1a5.13,5.13,0,0,1-2.814.945c-1.932,0-2.877-1.386-2.877-3.654Zm2.793-3.7c1.155,0,1.974.693,1.974,2.205l-.042.252-4.62.126C205.338,185.335,206.3,184.411,207.732,184.411Zm9.387-1.2c-2.646,0-4.263,1.953-4.263,5.04,0,3.045,1.554,4.914,4.1,4.914a6.813,6.813,0,0,0,2.562-.546l.189-1.407-.189-.1a4.717,4.717,0,0,1-2.352.714c-1.722,0-2.73-1.407-2.73-3.654,0-2.268.987-3.591,2.625-3.591a4.088,4.088,0,0,1,2.163.714l.189-.063.294-1.449A6.385,6.385,0,0,0,217.119,183.214Zm5.5-4.137a.926.926,0,0,0-.987.987.863.863,0,0,0,.924.966.938.938,0,0,0,.987-1.029A.86.86,0,0,0,222.621,179.077Zm.651,9.7.126-5.439-1.659.147.084,5.439L221.718,193h1.659Zm6.09-5.544c-2.079,0-3.318,1.176-3.318,2.772,0,2.982,4.389,2.583,4.389,4.515a1.578,1.578,0,0,1-1.743,1.449,4.132,4.132,0,0,1-2.562-1.05l-.189.126-.21,1.428a6.169,6.169,0,0,0,2.793.693c2.226,0,3.423-1.407,3.423-2.94,0-2.9-4.368-2.5-4.368-4.431a1.455,1.455,0,0,1,1.6-1.365,3.643,3.643,0,0,1,2.016.693l.252-.063.231-1.365A6.123,6.123,0,0,0,229.362,183.235Zm8.736-.021c-2.793,0-4.389,1.869-4.389,5.1,0,3.087,1.512,4.851,4.137,4.851,2.793,0,4.368-1.869,4.368-5.1C242.214,184.978,240.7,183.214,238.1,183.214Zm-.1,1.176c1.722,0,2.667,1.386,2.667,4.053,0,2.352-.945,3.528-2.709,3.528-1.722,0-2.667-1.323-2.667-4.032C235.284,185.629,236.229,184.39,237.993,184.39Zm9.45-1.155c-2.079,0-3.318,1.176-3.318,2.772,0,2.982,4.389,2.583,4.389,4.515a1.578,1.578,0,0,1-1.743,1.449,4.132,4.132,0,0,1-2.562-1.05l-.189.126-.21,1.428a6.169,6.169,0,0,0,2.793.693c2.226,0,3.423-1.407,3.423-2.94,0-2.9-4.368-2.5-4.368-4.431a1.455,1.455,0,0,1,1.6-1.365,3.643,3.643,0,0,1,2.016.693l.252-.063.231-1.365A6.123,6.123,0,0,0,247.443,183.235Zm5.544,7.917a.926.926,0,0,0-.987.987.863.863,0,0,0,.924.966.932.932,0,0,0,.987-1.008A.866.866,0,0,0,252.987,191.152Z" transform="translate(121.943 83.572)" fill="#fff"/>
  </g>
</svg>
