<svg xmlns="http://www.w3.org/2000/svg" xmlns:xlink="http://www.w3.org/1999/xlink" width="360" height="408.484" viewBox="0 0 360 408.484">
  <defs>
    <linearGradient id="linear-gradient" x1="0.015" y1="0.269" x2="0.003" y2="1" gradientUnits="objectBoundingBox">
      <stop offset="0" stop-color="#64dadb"/>
      <stop offset="1" stop-color="#4dc5f2"/>
    </linearGradient>
    <linearGradient id="linear-gradient-2" y1="-0.071" x2="0.003" y2="1" gradientUnits="objectBoundingBox">
      <stop offset="0" stop-color="#c95ee9"/>
      <stop offset="1" stop-color="#9d7df6"/>
    </linearGradient>
    <clipPath id="clip-path">
      <path id="Caminho_770335" data-name="Caminho 770335" d="M135.322,0,103.63,50.244,75.846.092C38.721,9.737,9.656,36.869,0,71.134H211.515C201.837,36.761,172.615,9.563,135.322,0Z" fill="url(#linear-gradient)"/>
    </clipPath>
  </defs>
  <g id="_img_joaomaria_20-mob_" data-name="&lt;img joaomaria_20-mob&gt;" transform="translate(0 -15499.359)">
    <path id="GettyImages-1412762526" d="M-110.9.149,196.69,0,144.569,257.41l-307.878-.2Z" transform="translate(163.31 15499.359)" fill="#0041d9"/>
    <g id="Grupo_234042" data-name="Grupo 234042" transform="translate(167.983 15773.509)">
      <path id="Caminho_770807" data-name="Caminho 770807" d="M109.168,104.559l15.576,3.549,11.343-3.181-3.093-12.7L120.706,77.452l7.992-2.8-1.838-7.541L112.437,82.925,109.256,86.4l-.025,5.817v.025l-.012,2.358Z" transform="translate(-31.331 -22.648)" fill="#ffa694"/>
      <path id="Caminho_770793" data-name="Caminho 770793" d="M93.408,106.934s2.851,14.157,5.817,14.473,25.551.735,27.882.317,13.51-7.072,13.51-7.072l9.721-7.718-15.12-7.275-1.128-.545-1.28-.621-9.683.393-.52.026-10.253.417h-.063l-.836.343-2.966,1.191-.723.292-.52.215Z" transform="translate(-33.557 -30.079)" fill="#ffa694"/>
      <path id="Caminho_770808" data-name="Caminho 770808" d="M118.368,96.864l4.2.659a18.846,18.846,0,0,0,11.191-2.838l.494-.3a18,18,0,0,0,4.474-3.941,17.159,17.159,0,0,0,2.7-4.842c.178-.494.646-3.409.988-4.791a5.761,5.761,0,0,1-1.787-1.343c-4.981,2.091-9.923,4.182-14.841,6.387L122.6,89.323l-.025,5.817v.026l-2.966,1.191-.722.292Z" transform="translate(-44.678 -25.573)"/>
      <g id="Grupo_234016" data-name="Grupo 234016" transform="translate(41.85 0)">
        <path id="Caminho_770778" data-name="Caminho 770778" d="M71,49.266A7.956,7.956,0,0,0,65.576,47.5c-3.165.242-5.433,2.528-7.7,4-5.087,3.3-15.475,9.085-21.8,4.3-2.139-1.617-2.341-4.012-4.845-5.454-1.773-1.021-5.827-2.588-8.109-2.093-2.16.469-3.884,3-4.806,4.457a9.332,9.332,0,0,0-1.573,6.712,9.921,9.921,0,0,0,1.344,3.031c.874,1.54-.136,1.952-.451,3.281a1.48,1.48,0,0,0,.343,1.358,5.826,5.826,0,0,1-3.919-2.9c-.255-.5-1.3-.279-1.043.222a6.814,6.814,0,0,0,4.449,3.468c3.159.847,6.312-.543,9.518.363,2.615.739,4.864,2.014,7.712,2.206,3.705.251,7.227-1.1,10.925-.994,1.6.047,3.154.383,4.765.274,1.787-.12,3.431-.756,5.232-.821,1.461-.053,2.9.38,4.365.255,1.709-.146,2.792-1.042,4.415-1.377,2.594-.536,4.451.4,6.468-1.454a12.788,12.788,0,0,0,3.37-5.713c1.163-3.851.513-8.438-3.238-11.36" transform="translate(-1.49 -5.453)" fill="#ffe3d1"/>
        <path id="Caminho_770781" data-name="Caminho 770781" d="M64.916,18.029c-5.029-6.956-13.168-11.722-21.7-11.441-27.194.894-23.165,35.376-13.542,51.141,1.531,2.509,4.2,4.655,6.585,6.572a21.458,21.458,0,0,0,7.955,4.487c5.736,1.432,9.806-1.379,13.663-5a31.413,31.413,0,0,0,4.915-5.111c5.288-7.719,6.871-16.917,6.083-25.954-.3-3.5-2.757-13.036-3.955-14.692" transform="translate(-2.572 -0.755)" fill="#ffa694"/>
        <path id="Caminho_770784" data-name="Caminho 770784" d="M37.223,35.775a4.122,4.122,0,0,0-2.964-1.144,6.87,6.87,0,0,0-3.427,1.174c-.726.489-3.666,2.958-1.263,3.1a4.532,4.532,0,0,0,1.484-.268A17.1,17.1,0,0,1,35.314,38c.782-.018,1.75-.065,2.1-.613a1.244,1.244,0,0,0-.19-1.608" transform="translate(0.453 -3.977)" fill="#ffe3d1"/>
        <path id="Caminho_770785" data-name="Caminho 770785" d="M54.992,36.326c.4.557,1.32.468,2.063.374a13.928,13.928,0,0,1,4.11.088,3.723,3.723,0,0,0,1.437.081c2.256-.506-.831-2.816-1.579-3.253a5.749,5.749,0,0,0-3.388-.8,3.823,3.823,0,0,0-2.663,1.7,1.578,1.578,0,0,0,.019,1.811" transform="translate(-6.281 -3.766)" fill="#ffe3d1"/>
        <path id="Caminho_770786" data-name="Caminho 770786" d="M56.906,60.5l-13.885.811a7.021,7.021,0,0,0,6.942,4.056A8.033,8.033,0,0,0,56.906,60.5" transform="translate(-4.941 -6.949)" fill="#fff"/>
        <path id="Caminho_770787" data-name="Caminho 770787" d="M80.765,46.429a8.39,8.39,0,0,0,.823-2.548c.274-2.429-.885-4.252-1.549-6.513-.77-2.644-.027-5.375-.611-8.034-.478-2.253-2.045-3.71-3.231-5.645s-1.682-4.22-2.771-6.211a29.682,29.682,0,0,0-3.594-5.2c-2.31-2.7-5.523-5.8-9.179-7.3A25.407,25.407,0,0,0,50.873.963C46.323.072,39.844-.82,35.436,1.346c-7.126.175-14.127,4.746-19.1,8.894-2.655,2.206-4.346,4.754-4.5,8.034-.124,2.747.133,5.08-1.584,7.532a33.972,33.972,0,0,0-3.328,4.7,8.9,8.9,0,0,0-.841,4.817c.177,1.624.991,2.811-.31,4.531a22.686,22.686,0,0,1-1.992,1.815c-2.257,2.325-4.134,5.311-3.727,8.5.089.677.389,1.29.522,1.951C.844,53.4.25,54.479.206,55.7a3.912,3.912,0,0,0,.876,2.835A5.6,5.6,0,0,0,4.6,60.514c.3.048.62.088.938.111.283.024.575.04.867.04a3.67,3.67,0,0,0,.9.342,7.011,7.011,0,0,0,1.9.175c.31,0,.637-.016.947-.016a6.18,6.18,0,0,1,2.664.438,2.921,2.921,0,0,0,.62.247,2.861,2.861,0,0,0,.867.064c1.939-.064,4.293.446,5.045-1.672.212-.6.575-2.007.2-2.612-.053-.1-.15-.167-.2-.271-.248-.557.7-1.155,1.044-1.449a24.856,24.856,0,0,0,2.346-1.919,3.956,3.956,0,0,0,1.071-2.58,13.089,13.089,0,0,0-.885-3.766c-.637-2.516.319-3.8,1.142-6.051,1.186-3.249-.5-6.9-.805-10.184a37.559,37.559,0,0,1,.319-9.189,5.088,5.088,0,0,0,1.461.1,109.477,109.477,0,0,0,17.039-.852c1.222-.008,3.542-3.735,4.141-4.8,4.447,2.07,4.57,4.381,7.994,5.649.2,0,6.343.863,7,.71a19.627,19.627,0,0,1,1.453,8.454c-.009,1.871-.549,3.854-.177,5.709.283,1.465,1.257,2.659,1.8,4.045,1.283,3.273-1.319,6.346.053,9.706.947,2.333.744,3.822.434,6.211a5.236,5.236,0,0,0,.69,3.79.545.545,0,0,0,.7.167c1.319.741,3.381.772,4.939.741,2.452-.024,7.878.175,9.356-2.07.814-1.226-.133-2.118.974-3.551.814-1.035,1.522-1.5,1.761-2.866.443-2.564-1.1-4.722-2.434-6.935" transform="translate(0 0)" fill="#ffe3d1"/>
        <path id="Caminho_770835" data-name="Caminho 770835" d="M.177,3.512C.633,5.141,1.831,6.228,2.851,5.943S4.327,4.1,3.871,2.477,2.217-.241,1.2.046-.279,1.884.177,3.512" transform="translate(51.654 34.687) rotate(16)"/>
        <path id="Caminho_770838" data-name="Caminho 770838" d="M.177,3.512C.633,5.141,1.831,6.228,2.851,5.943S4.327,4.1,3.871,2.477,2.217-.241,1.2.046-.279,1.884.177,3.512" transform="translate(33.391 34.687) rotate(16)"/>
        <path id="Caminho_770836" data-name="Caminho 770836" d="M142.157,67.055c.5-.736,1.552.159,1.057.89a7.093,7.093,0,0,0-.928,1.59c-.467,1.009-.411,2.759,1.116,2.654.887-.062,1.023,1.313.136,1.375a2.735,2.735,0,0,1-2.922-2.512c-.175-1.663.555-2.536,1.542-4" transform="translate(-99.989 -25.742)"/>
        <path id="Caminho_770837" data-name="Caminho 770837" d="M123.955,35.31c.069.469,1.186.265,1.3.708,1.975-3.344,5.045-9.265,7.021-12.608.359-.608.718-1.23,1.078-1.838a11.386,11.386,0,0,0-1.05-.94c-.456.76-.9,1.533-1.354,2.293" transform="translate(-77.806 -18.518)" fill="#ffa694"/>
      </g>
      <path id="Caminho_770335-2" data-name="Caminho 770335" d="M116.6,2.726l-9.559,5.406-9.872,3.056-10.029.784-9.011-.784L69.9,8.994,63.161,5.86,59.087,2.726C28.193,10.752,8.035,32.04,0,60.555H176.017C167.964,31.95,147.632,10.684,116.6,2.726Z" transform="translate(0 73.779)" fill="url(#linear-gradient-2)"/>
      <path id="Caminho_770334" data-name="Caminho 770334" d="M335.182,205.853a102.809,102.809,0,0,1,9.508,19.878,132.765,132.765,0,0,1,3.613,13.1c.252,1.049.5,2.1.759,3.152a.214.214,0,0,0,.209.162.2.2,0,0,0,.051,0,.218.218,0,0,0,.158-.26c-.26-1.049-.512-2.1-.763-3.152A133.389,133.389,0,0,0,345.1,225.59a103.729,103.729,0,0,0-9.632-20.091c-.1.115-.192.235-.282.354" transform="translate(-307.635 -108.934)"/>
      <path id="Caminho_770333" data-name="Caminho 770333" d="M349.514,205.854a103,103,0,0,0-9.527,19.917,133.037,133.037,0,0,0-3.62,13.129c-.252,1.051-.5,2.107-.761,3.158a.214.214,0,0,1-.209.162.2.2,0,0,1-.051,0,.219.219,0,0,1-.158-.261c.261-1.051.513-2.1.765-3.158a133.649,133.649,0,0,1,3.629-13.168,103.935,103.935,0,0,1,9.65-20.13c.1.115.192.235.282.355" transform="translate(-196.438 -107.886)"/>
      <path id="Caminho_770805" data-name="Caminho 770805" d="M89.556,109.973a45.415,45.415,0,0,0,25.931,9.437c1.118.059,2.21.093,3.279.093a53.6,53.6,0,0,0,30.964-9.566c-.469-.188-.913-.352-1.333-.517a52.806,52.806,0,0,1-32.838,8.814,44.4,44.4,0,0,1-24.6-8.673c-.456.129-.925.258-1.405.411" transform="translate(-31.872 -33.205)"/>
    </g>
    <g id="Grupo_233479" data-name="Grupo 233479" transform="translate(16 15726.702)">
      <path id="Caminho_770289" data-name="Caminho 770289" d="M255.765,349.28a48.93,48.93,0,0,1-7.627-28.4,31.529,31.529,0,0,1,.977-6.155c.133-.5-.471-1.033-.843-.539-3.932,5.225-9.7,5.056-15.578,3.929-5.785-1.107-11.99-1.8-17.579-3.739.047-.836.1-1.671.163-2.51.05-.641-.943-.818-.994-.171-.061.828-.113,1.659-.159,2.49a.483.483,0,0,0-.047.892c-.06,1.207-.11,2.411-.15,3.622,0,.051,0,.1-.007.158-.107,3.195-.158,6.394-.26,9.589a27.982,27.982,0,0,1-.921,6.364,22.1,22.1,0,0,1-3.56,7.546c-2.989,4.032-7.444,6.568-10.943,10.092a.51.51,0,0,0,.172.782,60.8,60.8,0,0,0,13.881,5.862c5.243,1.607,10.142,3.252,15.638,2.032,2.549-.567,5.032-1.377,7.63-1.7,2.534-.3,5.036-.481,7.542-1.035a42.563,42.563,0,0,0,7.58-2.472q1.558-.091,3.086-.3c1.243-.174,3.521-.476,4.021-1.863.543-1.487-1.261-3.3-2.021-4.473" transform="translate(-125.976 -228.398)" fill="#ffa694"/>
      <path id="Caminho_770290" data-name="Caminho 770290" d="M244.088,59.225c-.252.6-1.165.167-.913-.429.264-.64.533-1.279.793-1.925-1.657,1.238-4.775,1.283-6.433,2.142-1.877.975-2.493,2.757-3.907,4.165a21.007,21.007,0,0,1-4.4,3.011,43.955,43.955,0,0,1-35.661,3.457c-2.467-.851-5.04-1.981-6.754-4.027a7.237,7.237,0,0,1-1.565-3.586,30.946,30.946,0,0,1-.288-3.606,6.52,6.52,0,0,0-2.341-5.076,5.378,5.378,0,0,1-1.733-2.111,8.127,8.127,0,0,1-.152-4.212,14.088,14.088,0,0,1-1.6-1.693,8.957,8.957,0,0,1-1.564-8.569,21.9,21.9,0,0,1,2.712-6.664c.875-1.271,2.154-2.073,2.62-3.523.545-1.671.059-3.689-.013-5.431-.233-5.2,1.1-9.788,5.876-12.451a15.675,15.675,0,0,1,7.573-1.869c1.817-1.989,17.734-5.022,40.972,8.83,2.915.13,3.72-.487,7.03,1.324,2.664,1.4,3.842,5.3,3.83,6.853.868,8.332.028,17.077,0,20.408-.146,10.168-2.109,10.222-4.088,14.981" transform="translate(-110.586 -2.021)" fill="#9b9b9b"/>
      <path id="Caminho_770291" data-name="Caminho 770291" d="M204.453,151.817c-.812.464-1.652.943-2.518,1.366-.224.11-.452.219-.685.322-.112.057-.228.1-.343.15-.232.1-.463.191-.7.277-.12.046-.235.087-.354.123-.3.1-.611.191-.926.265a2.72,2.72,0,0,1-.267.061c-.271.056-.54.106-.816.135l-.266.031-.279.013c-.171.011-.335.014-.5.01-.2,0-.407-.014-.613-.034a4.2,4.2,0,0,1-.5-.086.859.859,0,0,1-.152-.042.28.28,0,0,1-.088-.026.609.609,0,0,1-.093-.026c-1.076-.345-2.078-1.06-3.129-1.436a3.563,3.563,0,0,0-1.531-.234c-1.732.161-2.585,1.994-4.376,2.17a3.7,3.7,0,0,1-1.658-.2,14.11,14.11,0,0,0,1.6,1.693,8.134,8.134,0,0,0,.152,4.212,5.382,5.382,0,0,0,1.733,2.111,6.3,6.3,0,0,1,2.261,4.208c.039.278.066.564.08.868a30.881,30.881,0,0,0,.288,3.606c.226-.032.448-.076.677-.129a12.567,12.567,0,0,0,2.555-.868,9.7,9.7,0,0,0,.969-.518c.092-.061.184-.116.271-.173a9.355,9.355,0,0,0,2.843-2.983,13.876,13.876,0,0,0,1.2-2.535c.176-.486.342-.969.509-1.437.351-.993.7-1.956,1.129-2.89a13.807,13.807,0,0,1,1.7-2.833c1.169-1.492,2.288-2.757,2.623-4.669a.513.513,0,0,0-.789-.5" transform="translate(-116.105 -111.34)" fill="#9b9b9b"/>
      <path id="Caminho_770292" data-name="Caminho 770292" d="M247.192,169c8.735,2.151,16.535-2.813,21.147-10.459,2.1-3.477,5.034-8.687,6-12.631a175.268,175.268,0,0,0,3.443-21.832q.735-6.447,1.448-12.9a13.445,13.445,0,0,0-.246-6c-.77-2.154-2.566-3.752-4.293-5.252a35.994,35.994,0,0,0-6.958-5.124c-5.072-2.6-11.048-2.65-16.734-2.23-6.494.479-13.144,1.561-18.7,4.95a16.034,16.034,0,0,0-6.793,7.439,22.918,22.918,0,0,0-1.183,7.655c-.37,9.858-.459,19.851,1.854,29.441,2.424,10.047,8.175,21.582,18.114,25.949a17.493,17.493,0,0,0,2.906.992" transform="translate(-145.058 -67.778)" fill="#ffa694"/>
      <path id="Caminho_770293" data-name="Caminho 770293" d="M413.069,204.706c-.543-1.051-1.521-2.576-2.767-2.94a1.76,1.76,0,0,0-.322-.07c-.06-.007-.126-.01-.186-.012a2.129,2.129,0,0,0-.556.06,1.6,1.6,0,0,0-.2.051,4.351,4.351,0,0,0-1.119.56,18.939,18.939,0,0,0-3.369,3.376c-.424.487.41,1.06.83.572.042-.051.089-.106.136-.156a33.616,33.616,0,0,0-1.485,3.665c-.109.317-.21.64-.3.964a30.6,30.6,0,0,0-1.334,9.808c.092,3.226,2.552,2.371,4.771.862a20.779,20.779,0,0,0,3.187-2.712c2.977-3.235,4.834-9.938,2.723-14.028" transform="translate(-275.85 -147.981)" fill="#ffa694"/>
      <path id="Caminho_770294" data-name="Caminho 770294" d="M210.964,211.573a32.177,32.177,0,0,0-.808-10.04c.03.062.07.125.1.181.306.565,1.243.179.931-.386-.285-.515-.664-1.251-1.113-2a9.744,9.744,0,0,0-1.886-2.378,3.13,3.13,0,0,0-1.022-.6,1.87,1.87,0,0,0-.464-.1,1.712,1.712,0,0,0-.364,0c-1.279.117-2.538,1.393-3.278,2.3a6.924,6.924,0,0,0-.67.974c-2.162,3.745-1.631,9.854.421,13.314.95,1.607,4.416,6.187,6.343,5.189a2.425,2.425,0,0,0,1.056-1.726,30.347,30.347,0,0,0,.751-4.731" transform="translate(-128.098 -143.988)" fill="#ffa694"/>
      <path id="Caminho_770295" data-name="Caminho 770295" d="M371.4,211.06a9.715,9.715,0,0,0,.281-3.032,2.756,2.756,0,0,0-.516-1.362c-.9-1.1-2.143-.177-2.49.826-.45,1.3-.637,4.208.555,4.982,1.234.8,1.83-.115,2.17-1.414" transform="translate(-251.862 -151.272)"/>
      <path id="Caminho_770296" data-name="Caminho 770296" d="M272.558,209.144a9.485,9.485,0,0,0,.043-2.975,2.693,2.693,0,0,0-.606-1.288c-.96-1-2.1-.01-2.363.994-.339,1.3-.3,4.148.92,4.812,1.263.687,1.774-.252,2.007-1.543" transform="translate(-177.326 -150.022)"/>
      <path id="Caminho_770300" data-name="Caminho 770300" d="M252.137,173.309a12.989,12.989,0,0,0-6.031.628,15.64,15.64,0,0,0-3.018,1.386c-.056.036-.127.074-.208.124-.705.412-2.163,1.269-2,2.018.047.2.264.319.462.39.176.067.353.12.532.17a8.664,8.664,0,0,0,3.2.174c2.507-.279,4.865-.93,7.4-.729,1.215.1,3.911.393,4.057-1.4.163-1.97-2.984-2.56-4.392-2.757" transform="translate(-155.405 -126.768)" fill="#9b9b9b"/>
      <path id="Caminho_770301" data-name="Caminho 770301" d="M356.41,172.7a11.5,11.5,0,0,0-5.341-.483c-1.239.189-4.013.746-3.85,2.485.192,1.993,4,1.033,5.1,1.075,1.7.064,3.363.517,5.052.683.968.095,2.817.341,3.544-.5.934-1.089-3.771-3.011-4.5-3.255" transform="translate(-234.511 -125.668)" fill="#9b9b9b"/>
      <path id="Caminho_770302" data-name="Caminho 770302" d="M272.149,98.54a22.463,22.463,0,0,0-2.187-11.358,28.729,28.729,0,0,0-11.543-11.634c-.491-.269-.984-.523-1.486-.758a22.785,22.785,0,0,0-6.233-1.916,17.366,17.366,0,0,0-4.441-.061c-.616.072-1.236.165-1.844.28a48.915,48.915,0,0,0-6.381,1.814,103.749,103.749,0,0,0-13.482,5.627,22.724,22.724,0,0,0-5.56,3.337,22.051,22.051,0,0,0-3.574,5.348c-.977,1.745-2.252,3.673-2.624,5.707a7.292,7.292,0,0,0-.092.741c-.171,2.5,2.541,4.63,2.012,6.979a.42.42,0,0,0-.31.494,10.457,10.457,0,0,0,.515,2.468,1.517,1.517,0,0,0,.823.925.018.018,0,0,0,.014.007.938.938,0,0,0,1.013-.234,3.966,3.966,0,0,0,.828-1.566,30.319,30.319,0,0,0,1.107-7.473c0-.025,0-.051.008-.075C220,97.014,225.351,86.05,226,85.472c.2-.185,18.954-3.643,23.168-4.554,2.958.644,6.071,2.379,8.742,3.537A86.731,86.731,0,0,1,267.15,89.1a.443.443,0,0,0,.213.068l-.06,15.569c0,.705-.121,3.187.53,4.425a1.416,1.416,0,0,0,.467.557c.276.181,2.746-3.071,2.938-3.943a40.451,40.451,0,0,0,.912-7.231" transform="translate(-136.675 -53.341)" fill="#9b9b9b"/>
      <path id="Caminho_770320" data-name="Caminho 770320" d="M282.935,346.6c-.712-.174-2.189.52-2.9.776a15.051,15.051,0,0,1-4.247,1.185,34.661,34.661,0,0,1-8.12.091c-5.32-.894-9.409-4.68-13-8.489-.147-.153-.295-.307-.436-.464-.107,3.195-.158,6.394-.26,9.589a27.983,27.983,0,0,1-.92,6.365c.308,0,.616-.011.911,0,13.384,1.837,23.818-3.461,28-7.563a.1.1,0,0,0,.016-.033c.193-.32,1.336-1.358.954-1.455" transform="translate(-166.287 -249.251)"/>
      <path id="Caminho_770321" data-name="Caminho 770321" d="M309.245,305.3a20.576,20.576,0,0,0-2.613.061c-1.784.053-3.568.107-5.352.148-1.468.034-2.936.062-4.4.068-1.3.006-4.267-.231-4.351-.2-.36.114.714,1.355.891,1.527a14.057,14.057,0,0,0,2.346,1.893c3.214,2.006,7.191,1.534,10.454-.035a8.044,8.044,0,0,0,2.3-1.593c.169-.174,1.435-1.793.732-1.864" transform="translate(-195.196 -223.984)" fill="#fff" stroke="#000" stroke-width="1"/>
      <path id="Caminho_770322" data-name="Caminho 770322" d="M221.6,397.581s5.037-8.175,6-8.456,20.428,19.436,20.428,19.436,19.813-20.274,21.672-19.236,6.085,11.817,6.085,11.817-27.34,39.08-27.757,39.008-19.739-18.305-20.428-19.5-7.949-19.509-7.949-19.509" transform="translate(-142.68 -285.51)" fill="#fff"/>
      <path id="Caminho_770330" data-name="Caminho 770330" d="M265.793,401.359c1.858,1.037,9.747,5.954,9.747,5.954l-21.319,30.04-6.438-17.995c-.156-.027-6.611,18.15-6.454,17.995-5.691-8.144-22.162-31.328-22.162-31.328l10.642-4.666" transform="translate(-142.438 -296.332)" fill="none" stroke="#000" stroke-width="1"/>
      <rect id="Ret창ngulo_124886" data-name="Ret창ngulo 124886" width="176.936" height="165.606" transform="translate(19.384 0)" fill="none"/>
      <path id="Caminho_770329" data-name="Caminho 770329" d="M4.583,6.221a5.072,5.072,0,0,1-2.094.342C1.4,6.518,1.174,5.56,1.1,4.65A36.066,36.066,0,0,1,1.028.484c.02-.645-.983-.645-1,0C-.016,1.791-.012,3.1.078,4.4a4.958,4.958,0,0,0,.45,2.164C1.353,8,3.553,7.693,4.849,7.188c.595-.232.336-1.2-.266-.966" transform="translate(105.622 62.824) rotate(19)"/>
      <g id="Grupo_233478" data-name="Grupo 233478" transform="translate(0 110.006)">
        <g id="Grupo_233477" data-name="Grupo 233477" clip-path="url(#clip-path)">
          <rect id="Ret창ngulo_124887" data-name="Ret창ngulo 124887" width="211.515" height="71.134" transform="translate(0 0)" fill="url(#linear-gradient)"/>
        </g>
      </g>
      <path id="Caminho_770334-2" data-name="Caminho 770334" d="M335.182,205.924a123.541,123.541,0,0,1,11.426,23.886,159.547,159.547,0,0,1,4.342,15.746c.3,1.261.6,2.527.912,3.788a.257.257,0,0,0,.251.195.246.246,0,0,0,.062-.005.262.262,0,0,0,.19-.313c-.313-1.261-.615-2.522-.917-3.788a160.3,160.3,0,0,0-4.352-15.793A124.649,124.649,0,0,0,335.52,205.5c-.118.138-.231.282-.338.425" transform="translate(-306.202 -69.744)"/>
      <path id="Caminho_770333-2" data-name="Caminho 770333" d="M352.4,205.925a123.78,123.78,0,0,0-11.448,23.933,159.88,159.88,0,0,0-4.35,15.777c-.3,1.263-.606,2.532-.914,3.8a.258.258,0,0,1-.251.2.246.246,0,0,1-.062-.005.263.263,0,0,1-.19-.313c.313-1.263.616-2.527.919-3.8a160.6,160.6,0,0,1,4.361-15.824,124.9,124.9,0,0,1,11.6-24.19c.118.139.231.282.339.426" transform="translate(-172.58 -68.485)"/>
    </g>
    <path id="Caminho_773581" data-name="Caminho 773581" d="M5.868,4.354C2.538,4.354.684,6.478.684,10.33c0,3.708,1.764,5.814,4.9,5.814,3.312,0,5.184-2.214,5.184-6.138C10.764,6.37,9.018,4.354,5.868,4.354ZM5.742,5.542c2.358,0,3.528,1.512,3.528,4.716,0,3.15-1.224,4.68-3.6,4.68-2.34,0-3.51-1.548-3.51-4.788C2.16,7.054,3.348,5.542,5.742,5.542Zm8.532,6.84.108-9.018L12.96,3.49l.09,9L12.942,16h1.422Zm7.4-8.91-.162-.018c-1.008.99-1.962,1.8-2.952,2.61l.4.576.162.018c1.026-.72,2-1.458,3.06-2.286l.036-.144Zm-1.638,4.14a5.231,5.231,0,0,0-3.1,1.116l.2,1.026.144.072a3.885,3.885,0,0,1,2.538-1.188A1.3,1.3,0,0,1,21.24,10.1l-.018,1.17-2.916.684a1.854,1.854,0,0,0-1.674,1.926c0,1.386.936,2.25,2.556,2.25a5.308,5.308,0,0,0,1.926-1.35h.108a1.3,1.3,0,0,0,1.26,1.332,2.694,2.694,0,0,0,1.026-.36l.126-.81-.144-.126a1.8,1.8,0,0,1-.594.108c-.432,0-.576-.18-.576-.7,0-.63.234-3.816.234-4.446C22.554,8.422,21.564,7.612,20.034,7.612Zm1.17,4.572L21.15,13.66a2.791,2.791,0,0,1-2.034,1.278,1.149,1.149,0,0,1-1.206-1.26.775.775,0,0,1,.684-.864ZM27.36,4.3,27.2,4.12l-1.1.054-.144.18V12l.162.162.846-.09ZM26.352,14.416a.8.8,0,0,0-.864.846.744.744,0,0,0,.81.828.794.794,0,0,0,.828-.864A.729.729,0,0,0,26.352,14.416ZM5.8,50l4.23-11.538H8.586L8.3,39.7l-3.24,8.838H4.95l-2.934-8.91-.27-1.17H.27L4.122,50Zm7.866-8.388c-2.394,0-3.762,1.6-3.762,4.374,0,2.646,1.3,4.158,3.546,4.158,2.394,0,3.744-1.6,3.744-4.374C17.19,43.124,15.894,41.612,13.662,41.612Zm-.09,1.008c1.476,0,2.286,1.188,2.286,3.474,0,2.016-.81,3.024-2.322,3.024-1.476,0-2.286-1.134-2.286-3.456C11.25,43.682,12.06,42.62,13.572,42.62Zm7.254,3.762.108-9.018-1.422.126.09,9L19.494,50h1.422ZM26.46,48.9c-.792,0-1.152-.324-1.134-1.3l.09-4.878h2.43l.09-.846-.072-.108H25.416l.036-1.746-.144-.126-1.242.54v1.332h-1.1l-.09.846.072.108h1.134l.018,3.726-.054,1.278a2.079,2.079,0,0,0,1.926,2.376,5.189,5.189,0,0,0,1.8-.522l.144-.936-.162-.108A2.726,2.726,0,0,1,26.46,48.9Zm5.868-7.29a5.181,5.181,0,0,0-3.078,1.116l.18,1.026.144.072a3.922,3.922,0,0,1,2.538-1.188A1.3,1.3,0,0,1,33.534,44.1l-.018,1.17L30.6,45.95a1.854,1.854,0,0,0-1.674,1.926c0,1.386.936,2.25,2.556,2.25a5.308,5.308,0,0,0,1.926-1.35h.126a1.289,1.289,0,0,0,1.242,1.332,2.592,2.592,0,0,0,1.026-.36l.144-.81-.144-.126a1.964,1.964,0,0,1-.612.108c-.414,0-.558-.18-.558-.7,0-.63.216-3.816.216-4.446C34.848,42.422,33.876,41.612,32.328,41.612Zm1.17,4.572-.054,1.476a2.761,2.761,0,0,1-2.016,1.278,1.154,1.154,0,0,1-1.224-1.26.788.788,0,0,1,.684-.864ZM48.132,50h1.44l-.054-3.582.018-2.34c.018-1.548-.918-2.43-2.736-2.43a5.92,5.92,0,0,0-2.448,1.368h-.108c-.342-.882-1.206-1.368-2.574-1.368A5.5,5.5,0,0,0,39.4,42.926h-.126l.018-1.206-1.368.126L38,46.508,37.908,50H39.33l-.072-3.618.018-2.25a3.6,3.6,0,0,1,2.43-1.3c.954,0,1.422.612,1.4,1.566L43.02,50h1.44l-.072-3.582.036-2.34a3.552,3.552,0,0,1,2.394-1.242A1.351,1.351,0,0,1,48.24,44.4Zm7.2-8.388c-2.394,0-3.762,1.6-3.762,4.374,0,2.646,1.3,4.158,3.546,4.158,2.394,0,3.744-1.6,3.744-4.374C58.86,43.124,57.564,41.612,55.332,41.612Zm-.09,1.008c1.476,0,2.286,1.188,2.286,3.474,0,2.016-.81,3.024-2.322,3.024-1.476,0-2.286-1.134-2.286-3.456C52.92,43.682,53.73,42.62,55.242,42.62Zm8.1-.99c-1.782,0-2.844,1.008-2.844,2.376,0,2.556,3.762,2.214,3.762,3.87a1.353,1.353,0,0,1-1.494,1.242,3.542,3.542,0,0,1-2.2-.9l-.162.108-.18,1.224a5.288,5.288,0,0,0,2.394.594,2.626,2.626,0,0,0,2.934-2.52c0-2.484-3.744-2.142-3.744-3.8a1.247,1.247,0,0,1,1.368-1.17,3.123,3.123,0,0,1,1.728.594l.216-.054.2-1.17A5.248,5.248,0,0,0,63.342,41.63Zm10.1-.018a5.181,5.181,0,0,0-3.078,1.116l.18,1.026.144.072a3.922,3.922,0,0,1,2.538-1.188A1.3,1.3,0,0,1,74.646,44.1l-.018,1.17-2.916.684a1.854,1.854,0,0,0-1.674,1.926c0,1.386.936,2.25,2.556,2.25a5.308,5.308,0,0,0,1.926-1.35h.126a1.289,1.289,0,0,0,1.242,1.332,2.592,2.592,0,0,0,1.026-.36l.144-.81-.144-.126a1.964,1.964,0,0,1-.612.108c-.414,0-.558-.18-.558-.7,0-.63.216-3.816.216-4.446C75.96,42.422,74.988,41.612,73.44,41.612Zm1.17,4.572-.054,1.476a2.761,2.761,0,0,1-2.016,1.278,1.154,1.154,0,0,1-1.224-1.26A.788.788,0,0,1,72,46.814Zm10.548-4.536-.7.288a8.049,8.049,0,0,0-2.16-.324c-2.466,0-3.96,1.512-3.96,4.338,0,2.592,1.26,4.14,3.6,4.14a5.777,5.777,0,0,0,1.854-1.062h.144v.342l-.054,3.96h1.4l-.09-6.912.108-4.68Zm-3.024.99a3.913,3.913,0,0,1,1.782.486l.036,3.438-.018,1.224a2.757,2.757,0,0,1-2.07,1.1c-1.332,0-2.16-1.116-2.2-3.06C79.632,43.664,80.64,42.638,82.134,42.638Zm12.2-.918-1.368.126V47.8a3.33,3.33,0,0,1-2.232,1.1c-.936,0-1.4-.594-1.386-1.566l.108-5.616-1.44.126.054,3.546-.018,2.286c-.018,1.548.918,2.43,2.7,2.43a5.229,5.229,0,0,0,2.232-1.26h.144a1.31,1.31,0,0,0,1.242,1.26,2.592,2.592,0,0,0,1.026-.36l.126-.81-.126-.126a1.979,1.979,0,0,1-.63.108c-.378,0-.54-.18-.54-.684ZM98.1,38.066a.794.794,0,0,0-.846.846.739.739,0,0,0,.792.828.8.8,0,0,0,.846-.882A.737.737,0,0,0,98.1,38.066Zm.558,8.316.108-4.662-1.422.126.072,4.662L97.326,50h1.422Zm9.666-4.716a5.327,5.327,0,0,0-2.268,1.224h-.108l.018-1.17-1.386.126.108,4.662-.108,6.822h1.4l-.036-3.348a7.844,7.844,0,0,0,1.566.162c2.538,0,4.014-1.62,4.014-4.518C111.528,43.142,110.448,41.666,108.324,41.666Zm-.63,7.434a3.7,3.7,0,0,1-1.764-.468l-.018-2.25.018-2.268a3.129,3.129,0,0,1,2.268-1.278c1.26,0,1.944,1.08,1.98,2.952C110.214,48.02,109.206,49.1,107.694,49.1Zm8.73-7.488a5.181,5.181,0,0,0-3.078,1.116l.18,1.026.144.072a3.922,3.922,0,0,1,2.538-1.188A1.3,1.3,0,0,1,117.63,44.1l-.018,1.17-2.916.684a1.854,1.854,0,0,0-1.674,1.926c0,1.386.936,2.25,2.556,2.25a5.308,5.308,0,0,0,1.926-1.35h.126a1.289,1.289,0,0,0,1.242,1.332,2.592,2.592,0,0,0,1.026-.36l.144-.81-.144-.126a1.964,1.964,0,0,1-.612.108c-.414,0-.558-.18-.558-.7,0-.63.216-3.816.216-4.446C118.944,42.422,117.972,41.612,116.424,41.612Zm1.17,4.572-.054,1.476a2.761,2.761,0,0,1-2.016,1.278,1.154,1.154,0,0,1-1.224-1.26.788.788,0,0,1,.684-.864Zm8.19-4.446a2.726,2.726,0,0,0-2.3,1.674h-.108l.018-1.692-1.368.126.09,4.662L122,50h1.422l-.09-3.618.018-1.26c.648-1.422,1.314-2,2.088-2a2.493,2.493,0,0,1,.648.09l.162-.054V41.774A3.539,3.539,0,0,0,125.784,41.738Zm4.59-.126a5.181,5.181,0,0,0-3.078,1.116l.18,1.026.144.072a3.922,3.922,0,0,1,2.538-1.188A1.3,1.3,0,0,1,131.58,44.1l-.018,1.17-2.916.684a1.854,1.854,0,0,0-1.674,1.926c0,1.386.936,2.25,2.556,2.25a5.308,5.308,0,0,0,1.926-1.35h.126a1.289,1.289,0,0,0,1.242,1.332,2.592,2.592,0,0,0,1.026-.36l.144-.81-.144-.126a1.964,1.964,0,0,1-.612.108c-.414,0-.558-.18-.558-.7,0-.63.216-3.816.216-4.446C132.894,42.422,131.922,41.612,130.374,41.612Zm1.17,4.572-.054,1.476a2.761,2.761,0,0,1-2.016,1.278,1.154,1.154,0,0,1-1.224-1.26.788.788,0,0,1,.684-.864ZM142.4,37.328a2.683,2.683,0,0,0-2.952,3.006l.018,1.44H138.24l-.09.846.072.108h1.242l.036,3.762L139.392,50h1.422l-.09-3.618.036-3.654H142.9l.09-.846-.054-.108h-2.16l.018-1.656c.018-1.17.54-1.746,1.476-1.746a2.714,2.714,0,0,1,1.314.324l.108-.09.108-1.116A6.729,6.729,0,0,0,142.4,37.328Zm4.536,4.284a5.181,5.181,0,0,0-3.078,1.116l.18,1.026.144.072a3.922,3.922,0,0,1,2.538-1.188A1.3,1.3,0,0,1,148.14,44.1l-.018,1.17-2.916.684a1.854,1.854,0,0,0-1.674,1.926c0,1.386.936,2.25,2.556,2.25a5.308,5.308,0,0,0,1.926-1.35h.126a1.289,1.289,0,0,0,1.242,1.332,2.592,2.592,0,0,0,1.026-.36l.144-.81-.144-.126a1.964,1.964,0,0,1-.612.108c-.414,0-.558-.18-.558-.7,0-.63.216-3.816.216-4.446C149.454,42.422,148.482,41.612,146.934,41.612Zm1.17,4.572-.054,1.476a2.761,2.761,0,0,1-2.016,1.278,1.154,1.154,0,0,1-1.224-1.26.788.788,0,0,1,.684-.864Zm5.832.2.108-9.018-1.422.126.09,9L152.6,50h1.422Zm5.76-4.77a5.181,5.181,0,0,0-3.078,1.116l.18,1.026.144.072a3.922,3.922,0,0,1,2.538-1.188A1.3,1.3,0,0,1,160.9,44.1l-.018,1.17-2.916.684a1.854,1.854,0,0,0-1.674,1.926c0,1.386.936,2.25,2.556,2.25a5.308,5.308,0,0,0,1.926-1.35h.126a1.289,1.289,0,0,0,1.242,1.332,2.592,2.592,0,0,0,1.026-.36l.144-.81-.144-.126a1.964,1.964,0,0,1-.612.108c-.414,0-.558-.18-.558-.7,0-.63.216-3.816.216-4.446C162.216,42.422,161.244,41.612,159.7,41.612Zm1.17,4.572-.054,1.476a2.761,2.761,0,0,1-2.016,1.278,1.154,1.154,0,0,1-1.224-1.26.788.788,0,0,1,.684-.864Zm8.19-4.446a2.726,2.726,0,0,0-2.3,1.674h-.108l.018-1.692-1.368.126.09,4.662L165.276,50H166.7l-.09-3.618.018-1.26c.648-1.422,1.314-2,2.088-2a2.492,2.492,0,0,1,.648.09l.162-.054V41.774A3.539,3.539,0,0,0,169.056,41.738Zm11.142-.09-.7.288a8.049,8.049,0,0,0-2.16-.324c-2.466,0-3.96,1.512-3.96,4.338,0,2.592,1.26,4.14,3.6,4.14a5.778,5.778,0,0,0,1.854-1.062h.144v.342l-.054,3.96h1.4l-.09-6.912.108-4.68Zm-3.024.99a3.913,3.913,0,0,1,1.782.486l.036,3.438-.018,1.224a2.757,2.757,0,0,1-2.07,1.1c-1.332,0-2.16-1.116-2.2-3.06C174.672,43.664,175.68,42.638,177.174,42.638Zm12.2-.918-1.368.126V47.8a3.33,3.33,0,0,1-2.232,1.1c-.936,0-1.4-.594-1.386-1.566l.108-5.616-1.44.126.054,3.546-.018,2.286c-.018,1.548.918,2.43,2.7,2.43a5.229,5.229,0,0,0,2.232-1.26h.144a1.31,1.31,0,0,0,1.242,1.26,2.592,2.592,0,0,0,1.026-.36l.126-.81-.126-.126a1.979,1.979,0,0,1-.63.108c-.378,0-.54-.18-.54-.684Zm3.672,4.086,5.022-.018.306-.234c.018-.216.036-.63.036-.828,0-1.944-1.044-3.1-2.844-3.1-2.358,0-3.87,1.638-3.87,4.3,0,2.592,1.386,4.212,3.744,4.212a5.644,5.644,0,0,0,2.5-.666l.144-1.206-.162-.09a4.4,4.4,0,0,1-2.412.81c-1.656,0-2.466-1.188-2.466-3.132Zm2.394-3.168c.99,0,1.692.594,1.692,1.89l-.036.216-3.96.108A2.315,2.315,0,0,1,195.444,42.638Zm5.364,5.8a3.136,3.136,0,0,0-.99.468v.144a1.037,1.037,0,0,1,.558.846,2.123,2.123,0,0,1-.99,1.584V51.6l.486.45c1.134-.828,1.692-1.638,1.692-2.412A1.4,1.4,0,0,0,200.808,48.434ZM6.534,76h1.44L7.9,72.418l.036-2.34c.018-1.548-.918-2.43-2.754-2.43A5.666,5.666,0,0,0,2.9,68.926H2.79l.018-1.206-1.368.126.072,4.662L1.422,76H2.844l-.072-3.618.018-2.268a3.569,3.569,0,0,1,2.43-1.278c.954,0,1.422.612,1.4,1.566Zm7.254-8.388c-2.394,0-3.762,1.6-3.762,4.374,0,2.646,1.3,4.158,3.546,4.158,2.394,0,3.744-1.6,3.744-4.374C17.316,69.124,16.02,67.612,13.788,67.612ZM13.7,68.62c1.476,0,2.286,1.188,2.286,3.474,0,2.016-.81,3.024-2.322,3.024-1.476,0-2.286-1.134-2.286-3.456C11.376,69.682,12.186,68.62,13.7,68.62Zm14.976,3.762.108-9.018-1.422.126.036,4.3a7.013,7.013,0,0,0-1.584-.18c-2.5,0-4,1.548-4,4.284,0,2.664,1.278,4.194,3.672,4.194a5.986,5.986,0,0,0,1.962-1.242h.126a1.327,1.327,0,0,0,1.26,1.26,2.592,2.592,0,0,0,1.026-.36l.126-.81-.144-.126a1.816,1.816,0,0,1-.612.108c-.378,0-.5-.18-.522-.684ZM25.632,68.62a4.2,4.2,0,0,1,1.764.45l.036,3.42-.036,1.3a2.556,2.556,0,0,1-1.98,1.1c-1.368,0-2.232-1.116-2.268-3.114C23.112,69.682,24.12,68.62,25.632,68.62Zm6.93-4.554a.794.794,0,0,0-.846.846.739.739,0,0,0,.792.828.8.8,0,0,0,.846-.882A.737.737,0,0,0,32.562,64.066Zm.558,8.316.108-4.662-1.422.126.072,4.662L31.788,76H33.21Zm5.688-4.77a5.181,5.181,0,0,0-3.078,1.116l.18,1.026.144.072a3.922,3.922,0,0,1,2.538-1.188A1.3,1.3,0,0,1,40.014,70.1L40,71.266l-2.916.684a1.854,1.854,0,0,0-1.674,1.926c0,1.386.936,2.25,2.556,2.25a5.308,5.308,0,0,0,1.926-1.35h.126a1.289,1.289,0,0,0,1.242,1.332,2.592,2.592,0,0,0,1.026-.36l.144-.81-.144-.126a1.964,1.964,0,0,1-.612.108c-.414,0-.558-.18-.558-.7,0-.63.216-3.816.216-4.446C41.328,68.422,40.356,67.612,38.808,67.612Zm1.17,4.572-.054,1.476a2.761,2.761,0,0,1-2.016,1.278,1.154,1.154,0,0,1-1.224-1.26.788.788,0,0,1,.684-.864Zm10.116-4.572a5.181,5.181,0,0,0-3.078,1.116l.18,1.026.144.072a3.922,3.922,0,0,1,2.538-1.188A1.3,1.3,0,0,1,51.3,70.1l-.018,1.17-2.916.684a1.854,1.854,0,0,0-1.674,1.926c0,1.386.936,2.25,2.556,2.25a5.308,5.308,0,0,0,1.926-1.35H51.3a1.289,1.289,0,0,0,1.242,1.332,2.592,2.592,0,0,0,1.026-.36l.144-.81-.144-.126a1.964,1.964,0,0,1-.612.108c-.414,0-.558-.18-.558-.7,0-.63.216-3.816.216-4.446C52.614,68.422,51.642,67.612,50.094,67.612Zm1.17,4.572L51.21,73.66a2.761,2.761,0,0,1-2.016,1.278,1.154,1.154,0,0,1-1.224-1.26.788.788,0,0,1,.684-.864Zm13.554.2.108-9.018L63.5,63.49l.036,4.3a7.013,7.013,0,0,0-1.584-.18c-2.5,0-4,1.548-4,4.284,0,2.664,1.278,4.194,3.672,4.194a5.986,5.986,0,0,0,1.962-1.242h.126a1.327,1.327,0,0,0,1.26,1.26,2.592,2.592,0,0,0,1.026-.36l.126-.81-.144-.126a1.816,1.816,0,0,1-.612.108c-.378,0-.5-.18-.522-.684ZM61.776,68.62a4.2,4.2,0,0,1,1.764.45l.036,3.42-.036,1.3a2.556,2.556,0,0,1-1.98,1.1c-1.368,0-2.232-1.116-2.268-3.114C59.256,69.682,60.264,68.62,61.776,68.62Zm6.93-4.554a.794.794,0,0,0-.846.846.739.739,0,0,0,.792.828.8.8,0,0,0,.846-.882A.737.737,0,0,0,68.706,64.066Zm.558,8.316.108-4.662-1.422.126.072,4.662L67.932,76h1.422Zm5.688-4.77a5.181,5.181,0,0,0-3.078,1.116l.18,1.026.144.072a3.922,3.922,0,0,1,2.538-1.188A1.3,1.3,0,0,1,76.158,70.1l-.018,1.17-2.916.684a1.854,1.854,0,0,0-1.674,1.926c0,1.386.936,2.25,2.556,2.25a5.308,5.308,0,0,0,1.926-1.35h.126A1.289,1.289,0,0,0,77.4,76.108a2.592,2.592,0,0,0,1.026-.36l.144-.81-.144-.126a1.964,1.964,0,0,1-.612.108c-.414,0-.558-.18-.558-.7,0-.63.216-3.816.216-4.446C77.472,68.422,76.5,67.612,74.952,67.612Zm1.17,4.572-.054,1.476a2.761,2.761,0,0,1-2.016,1.278,1.154,1.154,0,0,1-1.224-1.26.788.788,0,0,1,.684-.864Zm13.554.2.108-9.018-1.422.126.036,4.3a7.013,7.013,0,0,0-1.584-.18c-2.5,0-4,1.548-4,4.284,0,2.664,1.278,4.194,3.672,4.194a5.986,5.986,0,0,0,1.962-1.242h.126a1.327,1.327,0,0,0,1.26,1.26,2.592,2.592,0,0,0,1.026-.36l.126-.81-.144-.126a1.816,1.816,0,0,1-.612.108c-.378,0-.5-.18-.522-.684ZM86.634,68.62a4.2,4.2,0,0,1,1.764.45l.036,3.42-.036,1.3a2.556,2.556,0,0,1-1.98,1.1c-1.368,0-2.232-1.116-2.268-3.114C84.114,69.682,85.122,68.62,86.634,68.62Zm8.892-1.008a5.181,5.181,0,0,0-3.078,1.116l.18,1.026.144.072a3.922,3.922,0,0,1,2.538-1.188A1.3,1.3,0,0,1,96.732,70.1l-.018,1.17L93.8,71.95a1.854,1.854,0,0,0-1.674,1.926c0,1.386.936,2.25,2.556,2.25a5.308,5.308,0,0,0,1.926-1.35h.126a1.289,1.289,0,0,0,1.242,1.332A2.592,2.592,0,0,0,99,75.748l.144-.81L99,74.812a1.964,1.964,0,0,1-.612.108c-.414,0-.558-.18-.558-.7,0-.63.216-3.816.216-4.446C98.046,68.422,97.074,67.612,95.526,67.612Zm1.17,4.572-.054,1.476a2.761,2.761,0,0,1-2.016,1.278,1.154,1.154,0,0,1-1.224-1.26.788.788,0,0,1,.684-.864ZM109.188,76h1.44l-.072-3.582.036-2.34c.018-1.548-.918-2.43-2.754-2.43a5.666,5.666,0,0,0-2.286,1.278h-.108l.018-1.206-1.368.126.072,4.662L104.076,76H105.5l-.072-3.618.018-2.268a3.569,3.569,0,0,1,2.43-1.278c.954,0,1.422.612,1.4,1.566Zm7.254-8.388c-2.394,0-3.762,1.6-3.762,4.374,0,2.646,1.3,4.158,3.546,4.158,2.394,0,3.744-1.6,3.744-4.374C119.97,69.124,118.674,67.612,116.442,67.612Zm-.09,1.008c1.476,0,2.286,1.188,2.286,3.474,0,2.016-.81,3.024-2.322,3.024-1.476,0-2.286-1.134-2.286-3.456C114.03,69.682,114.84,68.62,116.352,68.62Zm8.1-.99c-1.782,0-2.844,1.008-2.844,2.376,0,2.556,3.762,2.214,3.762,3.87a1.353,1.353,0,0,1-1.494,1.242,3.542,3.542,0,0,1-2.2-.9l-.162.108-.18,1.224a5.288,5.288,0,0,0,2.394.594,2.626,2.626,0,0,0,2.934-2.52c0-2.484-3.744-2.142-3.744-3.8a1.247,1.247,0,0,1,1.368-1.17,3.123,3.123,0,0,1,1.728.594l.216-.054.2-1.17A5.248,5.248,0,0,0,124.452,67.63Zm6.66,0c-1.782,0-2.844,1.008-2.844,2.376,0,2.556,3.762,2.214,3.762,3.87a1.353,1.353,0,0,1-1.494,1.242,3.542,3.542,0,0,1-2.2-.9l-.162.108L128,75.55a5.288,5.288,0,0,0,2.394.594,2.626,2.626,0,0,0,2.934-2.52c0-2.484-3.744-2.142-3.744-3.8a1.247,1.247,0,0,1,1.368-1.17,3.123,3.123,0,0,1,1.728.594l.216-.054.2-1.17A5.248,5.248,0,0,0,131.112,67.63Zm7.128-.018a5.181,5.181,0,0,0-3.078,1.116l.18,1.026.144.072a3.922,3.922,0,0,1,2.538-1.188,1.3,1.3,0,0,1,1.422,1.458l-.018,1.17-2.916.684a1.854,1.854,0,0,0-1.674,1.926c0,1.386.936,2.25,2.556,2.25a5.308,5.308,0,0,0,1.926-1.35h.126a1.289,1.289,0,0,0,1.242,1.332,2.592,2.592,0,0,0,1.026-.36l.144-.81-.144-.126a1.964,1.964,0,0,1-.612.108c-.414,0-.558-.18-.558-.7,0-.63.216-3.816.216-4.446C140.76,68.422,139.788,67.612,138.24,67.612Zm1.17,4.572-.054,1.476a2.761,2.761,0,0,1-2.016,1.278,1.154,1.154,0,0,1-1.224-1.26.788.788,0,0,1,.684-.864Zm8.8.2.108-9.018-1.422.126.09,9L146.88,76H148.3Zm6.12-4.77c-2.394,0-3.762,1.6-3.762,4.374,0,2.646,1.3,4.158,3.546,4.158,2.394,0,3.744-1.6,3.744-4.374C157.86,69.124,156.564,67.612,154.332,67.612Zm-.09,1.008c1.476,0,2.286,1.188,2.286,3.474,0,2.016-.81,3.024-2.322,3.024-1.476,0-2.286-1.134-2.286-3.456C151.92,69.682,152.73,68.62,154.242,68.62Zm6.7-4.554a.794.794,0,0,0-.846.846.739.739,0,0,0,.792.828.8.8,0,0,0,.846-.882A.737.737,0,0,0,160.938,64.066Zm.972,3.69-.054-.036-1.332.054h-1.692l-.09.828.108.126h1.656l.072,3.78-.036,3.222a2.946,2.946,0,0,1-1.692,2.952v.162l.54.648c1.818-.954,2.484-1.944,2.484-3.834l-.072-3.276Zm5.67-.144a5.181,5.181,0,0,0-3.078,1.116l.18,1.026.144.072a3.922,3.922,0,0,1,2.538-1.188,1.3,1.3,0,0,1,1.422,1.458l-.018,1.17-2.916.684a1.854,1.854,0,0,0-1.674,1.926c0,1.386.936,2.25,2.556,2.25a5.308,5.308,0,0,0,1.926-1.35h.126a1.289,1.289,0,0,0,1.242,1.332,2.592,2.592,0,0,0,1.026-.36l.144-.81-.144-.126a1.964,1.964,0,0,1-.612.108c-.414,0-.558-.18-.558-.7,0-.63.216-3.816.216-4.446C170.1,68.422,169.128,67.612,167.58,67.612Zm1.17,4.572L168.7,73.66a2.761,2.761,0,0,1-2.016,1.278,1.154,1.154,0,0,1-1.224-1.26.788.788,0,0,1,.684-.864Zm5.274,2.25a3.136,3.136,0,0,0-.99.468v.144a1.037,1.037,0,0,1,.558.846,2.123,2.123,0,0,1-.99,1.584V77.6l.486.45c1.134-.828,1.692-1.638,1.692-2.412A1.4,1.4,0,0,0,174.024,74.434ZM5.166,93.666A5.327,5.327,0,0,0,2.9,94.89H2.79l.018-1.17-1.386.126.108,4.662-.108,6.822h1.4l-.036-3.348a7.844,7.844,0,0,0,1.566.162c2.538,0,4.014-1.62,4.014-4.518C8.37,95.142,7.29,93.666,5.166,93.666Zm-.63,7.434a3.7,3.7,0,0,1-1.764-.468l-.018-2.25.018-2.268A3.129,3.129,0,0,1,5.04,94.836c1.26,0,1.944,1.08,1.98,2.952C7.056,100.02,6.048,101.1,4.536,101.1Zm6.678-3.294,5.022-.018.306-.234c.018-.216.036-.63.036-.828,0-1.944-1.044-3.1-2.844-3.1-2.358,0-3.87,1.638-3.87,4.3,0,2.592,1.386,4.212,3.744,4.212a5.644,5.644,0,0,0,2.5-.666l.144-1.206-.162-.09a4.4,4.4,0,0,1-2.412.81c-1.656,0-2.466-1.188-2.466-3.132Zm2.394-3.168c.99,0,1.692.594,1.692,1.89l-.036.216-3.96.108A2.315,2.315,0,0,1,13.608,94.638Zm8.838-.9a2.726,2.726,0,0,0-2.3,1.674h-.108l.018-1.692-1.368.126.09,4.662L18.666,102h1.422L20,98.382l.018-1.26c.648-1.422,1.314-2,2.088-2a2.493,2.493,0,0,1,.648.09l.162-.054V93.774A3.539,3.539,0,0,0,22.446,93.738Zm4.878-.126c-2.268,0-3.654,1.674-3.654,4.32,0,2.61,1.332,4.212,3.51,4.212a5.84,5.84,0,0,0,2.2-.468l.162-1.206-.162-.09a4.043,4.043,0,0,1-2.016.612c-1.476,0-2.34-1.206-2.34-3.132,0-1.944.846-3.078,2.25-3.078a3.5,3.5,0,0,1,1.854.612l.162-.054.252-1.242A5.473,5.473,0,0,0,27.324,93.612Zm4.608,4.194,5.022-.018.306-.234c.018-.216.036-.63.036-.828,0-1.944-1.044-3.1-2.844-3.1-2.358,0-3.87,1.638-3.87,4.3,0,2.592,1.386,4.212,3.744,4.212a5.644,5.644,0,0,0,2.5-.666l.144-1.206-.162-.09a4.4,4.4,0,0,1-2.412.81c-1.656,0-2.466-1.188-2.466-3.132Zm2.394-3.168c.99,0,1.692.594,1.692,1.89l-.036.216-3.96.108A2.315,2.315,0,0,1,34.326,94.638Zm8.874-.972a5.521,5.521,0,0,0-2.268,1.224h-.108l.054-5.526-1.422.126.108,9.054-.126,3.51.252.144.99-.45a4.407,4.407,0,0,0,1.764.4c2.466,0,3.96-1.62,3.96-4.518C46.4,95.142,45.306,93.666,43.2,93.666Zm-.63,7.434a3.092,3.092,0,0,1-1.728-.576l-.054-2.142.018-2.268a3.1,3.1,0,0,1,2.268-1.278c1.26,0,1.944,1.08,1.98,2.952C45.09,100.02,44.082,101.1,42.57,101.1Zm6.7-3.294,5.022-.018.306-.234c.018-.216.036-.63.036-.828,0-1.944-1.044-3.1-2.844-3.1-2.358,0-3.87,1.638-3.87,4.3,0,2.592,1.386,4.212,3.744,4.212a5.644,5.644,0,0,0,2.5-.666l.144-1.206-.162-.09a4.4,4.4,0,0,1-2.412.81c-1.656,0-2.466-1.188-2.466-3.132Zm2.394-3.168c.99,0,1.692.594,1.692,1.89l-.036.216-3.96.108A2.315,2.315,0,0,1,51.66,94.638ZM66.942,102h1.44l-.054-3.582.018-2.34c.018-1.548-.918-2.43-2.736-2.43a5.92,5.92,0,0,0-2.448,1.368h-.108c-.342-.882-1.206-1.368-2.574-1.368a5.5,5.5,0,0,0-2.268,1.278h-.126L58.1,93.72l-1.368.126.072,4.662L56.718,102H58.14l-.072-3.618.018-2.25a3.6,3.6,0,0,1,2.43-1.3c.954,0,1.422.612,1.4,1.566l-.09,5.6h1.44L63.2,98.418l.036-2.34a3.552,3.552,0,0,1,2.394-1.242A1.351,1.351,0,0,1,67.05,96.4Zm7.2-8.388c-2.394,0-3.762,1.6-3.762,4.374,0,2.646,1.3,4.158,3.546,4.158,2.394,0,3.744-1.6,3.744-4.374C77.67,95.124,76.374,93.612,74.142,93.612Zm-.09,1.008c1.476,0,2.286,1.188,2.286,3.474,0,2.016-.81,3.024-2.322,3.024-1.476,0-2.286-1.134-2.286-3.456C71.73,95.682,72.54,94.62,74.052,94.62Zm8.1-.99c-1.782,0-2.844,1.008-2.844,2.376,0,2.556,3.762,2.214,3.762,3.87a1.353,1.353,0,0,1-1.494,1.242,3.542,3.542,0,0,1-2.2-.9l-.162.108-.18,1.224a5.288,5.288,0,0,0,2.394.594,2.626,2.626,0,0,0,2.934-2.52c0-2.484-3.744-2.142-3.744-3.8a1.247,1.247,0,0,1,1.368-1.17,3.123,3.123,0,0,1,1.728.594l.216-.054.2-1.17A5.248,5.248,0,0,0,82.152,93.63Zm13.5.018-.7.288a8.049,8.049,0,0,0-2.16-.324c-2.466,0-3.96,1.512-3.96,4.338,0,2.592,1.26,4.14,3.6,4.14a5.778,5.778,0,0,0,1.854-1.062h.144v.342l-.054,3.96h1.4l-.09-6.912.108-4.68Zm-3.024.99a3.913,3.913,0,0,1,1.782.486l.036,3.438-.018,1.224a2.757,2.757,0,0,1-2.07,1.1c-1.332,0-2.16-1.116-2.2-3.06C90.126,95.664,91.134,94.638,92.628,94.638Zm12.2-.918-1.368.126V99.8a3.33,3.33,0,0,1-2.232,1.1c-.936,0-1.4-.594-1.386-1.566l.108-5.616-1.44.126.054,3.546-.018,2.286c-.018,1.548.918,2.43,2.7,2.43a5.229,5.229,0,0,0,2.232-1.26h.144a1.31,1.31,0,0,0,1.242,1.26,2.592,2.592,0,0,0,1.026-.36l.126-.81-.126-.126a1.979,1.979,0,0,1-.63.108c-.378,0-.54-.18-.54-.684Zm3.672,4.086,5.022-.018.306-.234c.018-.216.036-.63.036-.828,0-1.944-1.044-3.1-2.844-3.1-2.358,0-3.87,1.638-3.87,4.3,0,2.592,1.386,4.212,3.744,4.212a5.644,5.644,0,0,0,2.5-.666l.144-1.206-.162-.09a4.4,4.4,0,0,1-2.412.81c-1.656,0-2.466-1.188-2.466-3.132Zm2.394-3.168c.99,0,1.692.594,1.692,1.89l-.036.216-3.96.108A2.315,2.315,0,0,1,110.9,94.638Zm11.772-.972A5.327,5.327,0,0,0,120.4,94.89h-.108l.018-1.17-1.386.126.108,4.662-.108,6.822h1.4l-.036-3.348a7.844,7.844,0,0,0,1.566.162c2.538,0,4.014-1.62,4.014-4.518C125.874,95.142,124.794,93.666,122.67,93.666Zm-.63,7.434a3.7,3.7,0,0,1-1.764-.468l-.018-2.25.018-2.268a3.129,3.129,0,0,1,2.268-1.278c1.26,0,1.944,1.08,1.98,2.952C124.56,100.02,123.552,101.1,122.04,101.1Zm8.73-7.488a5.181,5.181,0,0,0-3.078,1.116l.18,1.026.144.072a3.922,3.922,0,0,1,2.538-1.188,1.3,1.3,0,0,1,1.422,1.458l-.018,1.17-2.916.684a1.854,1.854,0,0,0-1.674,1.926c0,1.386.936,2.25,2.556,2.25a5.308,5.308,0,0,0,1.926-1.35h.126a1.289,1.289,0,0,0,1.242,1.332,2.592,2.592,0,0,0,1.026-.36l.144-.81-.144-.126a1.964,1.964,0,0,1-.612.108c-.414,0-.558-.18-.558-.7,0-.63.216-3.816.216-4.446C133.29,94.422,132.318,93.612,130.77,93.612Zm1.17,4.572-.054,1.476a2.761,2.761,0,0,1-2.016,1.278,1.154,1.154,0,0,1-1.224-1.26.788.788,0,0,1,.684-.864Zm8.19-4.446a2.726,2.726,0,0,0-2.3,1.674h-.108l.018-1.692-1.368.126.09,4.662L136.35,102h1.422l-.09-3.618.018-1.26c.648-1.422,1.314-2,2.088-2a2.493,2.493,0,0,1,.648.09l.162-.054V93.774A3.539,3.539,0,0,0,140.13,93.738Zm4.59-.126a5.181,5.181,0,0,0-3.078,1.116l.18,1.026.144.072a3.922,3.922,0,0,1,2.538-1.188,1.3,1.3,0,0,1,1.422,1.458l-.018,1.17-2.916.684a1.854,1.854,0,0,0-1.674,1.926c0,1.386.936,2.25,2.556,2.25a5.308,5.308,0,0,0,1.926-1.35h.126a1.289,1.289,0,0,0,1.242,1.332,2.592,2.592,0,0,0,1.026-.36l.144-.81-.144-.126a1.964,1.964,0,0,1-.612.108c-.414,0-.558-.18-.558-.7,0-.63.216-3.816.216-4.446C147.24,94.422,146.268,93.612,144.72,93.612Zm1.17,4.572-.054,1.476a2.761,2.761,0,0,1-2.016,1.278,1.154,1.154,0,0,1-1.224-1.26.788.788,0,0,1,.684-.864ZM158.382,102h1.44l-.072-3.582.036-2.34c.018-1.548-.918-2.43-2.754-2.43a5.667,5.667,0,0,0-2.286,1.278h-.108l.018-1.206-1.368.126.072,4.662L153.27,102h1.422l-.072-3.618.018-2.268a3.569,3.569,0,0,1,2.43-1.278c.954,0,1.422.612,1.4,1.566Zm7.254-8.388c-2.394,0-3.762,1.6-3.762,4.374,0,2.646,1.3,4.158,3.546,4.158,2.394,0,3.744-1.6,3.744-4.374C169.164,95.124,167.868,93.612,165.636,93.612Zm-.09,1.008c1.476,0,2.286,1.188,2.286,3.474,0,2.016-.81,3.024-2.322,3.024-1.476,0-2.286-1.134-2.286-3.456C163.224,95.682,164.034,94.62,165.546,94.62Zm8.1-.99c-1.782,0-2.844,1.008-2.844,2.376,0,2.556,3.762,2.214,3.762,3.87a1.353,1.353,0,0,1-1.494,1.242,3.542,3.542,0,0,1-2.2-.9l-.162.108-.18,1.224a5.288,5.288,0,0,0,2.394.594,2.626,2.626,0,0,0,2.934-2.52c0-2.484-3.744-2.142-3.744-3.8a1.247,1.247,0,0,1,1.368-1.17,3.123,3.123,0,0,1,1.728.594l.216-.054.2-1.17A5.248,5.248,0,0,0,173.646,93.63ZM7.6,124.382l.108-9.018-1.422.126.036,4.3a7.013,7.013,0,0,0-1.584-.18c-2.5,0-4,1.548-4,4.284,0,2.664,1.278,4.194,3.672,4.194a5.986,5.986,0,0,0,1.962-1.242H6.5a1.327,1.327,0,0,0,1.26,1.26,2.592,2.592,0,0,0,1.026-.36l.126-.81-.144-.126a1.816,1.816,0,0,1-.612.108c-.378,0-.5-.18-.522-.684ZM4.554,120.62a4.2,4.2,0,0,1,1.764.45l.036,3.42-.036,1.3a2.556,2.556,0,0,1-1.98,1.1c-1.368,0-2.232-1.116-2.268-3.114C2.034,121.682,3.042,120.62,4.554,120.62Zm6.84,3.186,5.022-.018.306-.234c.018-.216.036-.63.036-.828,0-1.944-1.044-3.1-2.844-3.1-2.358,0-3.87,1.638-3.87,4.3,0,2.592,1.386,4.212,3.744,4.212a5.644,5.644,0,0,0,2.5-.666l.144-1.206-.162-.09a4.4,4.4,0,0,1-2.412.81c-1.656,0-2.466-1.188-2.466-3.132Zm2.394-3.168c.99,0,1.692.594,1.692,1.89l-.036.216-3.96.108A2.315,2.315,0,0,1,13.788,120.638Zm7.326-1.008c-1.782,0-2.844,1.008-2.844,2.376,0,2.556,3.762,2.214,3.762,3.87a1.353,1.353,0,0,1-1.494,1.242,3.542,3.542,0,0,1-2.2-.9l-.162.108L18,127.55a5.288,5.288,0,0,0,2.394.594,2.626,2.626,0,0,0,2.934-2.52c0-2.484-3.744-2.142-3.744-3.8a1.247,1.247,0,0,1,1.368-1.17,3.123,3.123,0,0,1,1.728.594l.216-.054.2-1.17A5.248,5.248,0,0,0,21.114,119.63Zm7,7.272c-.792,0-1.152-.324-1.134-1.3l.09-4.878H29.5l.09-.846-.072-.108H27.072l.036-1.746-.144-.126-1.242.54v1.332h-1.1l-.09.846.072.108H25.74l.018,3.726-.054,1.278a2.079,2.079,0,0,0,1.926,2.376,5.189,5.189,0,0,0,1.8-.522l.144-.936-.162-.108A2.726,2.726,0,0,1,28.116,126.9Zm5.868-7.29a5.181,5.181,0,0,0-3.078,1.116l.18,1.026.144.072a3.922,3.922,0,0,1,2.538-1.188A1.3,1.3,0,0,1,35.19,122.1l-.018,1.17-2.916.684a1.854,1.854,0,0,0-1.674,1.926c0,1.386.936,2.25,2.556,2.25a5.309,5.309,0,0,0,1.926-1.35h.126a1.289,1.289,0,0,0,1.242,1.332,2.592,2.592,0,0,0,1.026-.36l.144-.81-.144-.126a1.964,1.964,0,0,1-.612.108c-.414,0-.558-.18-.558-.7,0-.63.216-3.816.216-4.446C36.5,120.422,35.532,119.612,33.984,119.612Zm1.17,4.572L35.1,125.66a2.761,2.761,0,0,1-2.016,1.278,1.154,1.154,0,0,1-1.224-1.26.788.788,0,0,1,.684-.864Zm7.4-4.572c-2.268,0-3.654,1.674-3.654,4.32,0,2.61,1.332,4.212,3.51,4.212a5.84,5.84,0,0,0,2.2-.468l.162-1.206-.162-.09a4.043,4.043,0,0,1-2.016.612c-1.476,0-2.34-1.206-2.34-3.132,0-1.944.846-3.078,2.25-3.078a3.5,3.5,0,0,1,1.854.612l.162-.054.252-1.242A5.473,5.473,0,0,0,42.552,119.612Zm6.5,0a5.181,5.181,0,0,0-3.078,1.116l.18,1.026.144.072a3.922,3.922,0,0,1,2.538-1.188,1.3,1.3,0,0,1,1.422,1.458l-.018,1.17-2.916.684a1.854,1.854,0,0,0-1.674,1.926c0,1.386.936,2.25,2.556,2.25a5.309,5.309,0,0,0,1.926-1.35h.126a1.289,1.289,0,0,0,1.242,1.332,2.592,2.592,0,0,0,1.026-.36l.144-.81-.144-.126a1.964,1.964,0,0,1-.612.108c-.414,0-.558-.18-.558-.7,0-.63.216-3.816.216-4.446C51.57,120.422,50.6,119.612,49.05,119.612Zm1.17,4.572-.054,1.476a2.761,2.761,0,0,1-2.016,1.278,1.154,1.154,0,0,1-1.224-1.26.788.788,0,0,1,.684-.864Zm8.19-4.446a2.726,2.726,0,0,0-2.3,1.674H56l.018-1.692-1.368.126.09,4.662L54.63,128h1.422l-.09-3.618.018-1.26c.648-1.422,1.314-2,2.088-2a2.493,2.493,0,0,1,.648.09l.162-.054v-1.386A3.539,3.539,0,0,0,58.41,119.738ZM70.668,128h1.44l-.054-3.582.018-2.34c.018-1.548-.918-2.43-2.736-2.43a5.92,5.92,0,0,0-2.448,1.368H66.78c-.342-.882-1.206-1.368-2.574-1.368a5.5,5.5,0,0,0-2.268,1.278h-.126l.018-1.206-1.368.126.072,4.662L60.444,128h1.422l-.072-3.618.018-2.25a3.6,3.6,0,0,1,2.43-1.3c.954,0,1.422.612,1.4,1.566l-.09,5.6H67l-.072-3.582.036-2.34a3.552,3.552,0,0,1,2.394-1.242,1.351,1.351,0,0,1,1.422,1.566Zm7.2-8.388c-2.394,0-3.762,1.6-3.762,4.374,0,2.646,1.3,4.158,3.546,4.158,2.394,0,3.744-1.6,3.744-4.374C81.4,121.124,80.1,119.612,77.868,119.612Zm-.09,1.008c1.476,0,2.286,1.188,2.286,3.474,0,2.016-.81,3.024-2.322,3.024-1.476,0-2.286-1.134-2.286-3.456C75.456,121.682,76.266,120.62,77.778,120.62Zm8.1-.99c-1.782,0-2.844,1.008-2.844,2.376,0,2.556,3.762,2.214,3.762,3.87a1.353,1.353,0,0,1-1.494,1.242,3.542,3.542,0,0,1-2.2-.9l-.162.108-.18,1.224a5.288,5.288,0,0,0,2.394.594,2.626,2.626,0,0,0,2.934-2.52c0-2.484-3.744-2.142-3.744-3.8a1.247,1.247,0,0,1,1.368-1.17,3.123,3.123,0,0,1,1.728.594l.216-.054.2-1.17A5.248,5.248,0,0,0,85.878,119.63Zm8.046,4.176,5.022-.018.306-.234c.018-.216.036-.63.036-.828,0-1.944-1.044-3.1-2.844-3.1-2.358,0-3.87,1.638-3.87,4.3,0,2.592,1.386,4.212,3.744,4.212a5.644,5.644,0,0,0,2.5-.666l.144-1.206-.162-.09a4.4,4.4,0,0,1-2.412.81c-1.656,0-2.466-1.188-2.466-3.132Zm2.394-3.168c.99,0,1.692.594,1.692,1.89l-.036.216-3.96.108A2.315,2.315,0,0,1,96.318,120.638ZM111.6,128h1.44l-.054-3.582.018-2.34c.018-1.548-.918-2.43-2.736-2.43a5.92,5.92,0,0,0-2.448,1.368h-.108c-.342-.882-1.206-1.368-2.574-1.368a5.5,5.5,0,0,0-2.268,1.278h-.126l.018-1.206-1.368.126.072,4.662-.09,3.492H102.8l-.072-3.618.018-2.25a3.6,3.6,0,0,1,2.43-1.3c.954,0,1.422.612,1.4,1.566l-.09,5.6h1.44l-.072-3.582.036-2.34a3.552,3.552,0,0,1,2.394-1.242,1.351,1.351,0,0,1,1.422,1.566Zm13.284-8.28-1.368.126V125.8a3.33,3.33,0,0,1-2.232,1.1c-.936,0-1.4-.594-1.386-1.566l.108-5.616-1.44.126.054,3.546-.018,2.286c-.018,1.548.918,2.43,2.7,2.43a5.229,5.229,0,0,0,2.232-1.26h.144a1.31,1.31,0,0,0,1.242,1.26,2.592,2.592,0,0,0,1.026-.36l.126-.81-.126-.126a1.979,1.979,0,0,1-.63.108c-.378,0-.54-.18-.54-.684ZM138.1,128h1.44l-.054-3.582.018-2.34c.018-1.548-.918-2.43-2.736-2.43a5.92,5.92,0,0,0-2.448,1.368h-.108c-.342-.882-1.206-1.368-2.574-1.368a5.5,5.5,0,0,0-2.268,1.278h-.126l.018-1.206-1.368.126.072,4.662-.09,3.492h1.422l-.072-3.618.018-2.25a3.6,3.6,0,0,1,2.43-1.3c.954,0,1.422.612,1.4,1.566l-.09,5.6h1.44l-.072-3.582.036-2.34a3.552,3.552,0,0,1,2.394-1.242A1.351,1.351,0,0,1,138.2,122.4Zm17.3,0h1.44l-.054-3.582.018-2.34c.018-1.548-.918-2.43-2.736-2.43a5.92,5.92,0,0,0-2.448,1.368h-.108c-.342-.882-1.206-1.368-2.574-1.368a5.5,5.5,0,0,0-2.268,1.278h-.126l.018-1.206-1.368.126.072,4.662L145.17,128h1.422l-.072-3.618.018-2.25a3.6,3.6,0,0,1,2.43-1.3c.954,0,1.422.612,1.4,1.566l-.09,5.6h1.44l-.072-3.582.036-2.34a3.552,3.552,0,0,1,2.394-1.242A1.351,1.351,0,0,1,155.5,122.4Zm4.788-4.194,5.022-.018.306-.234c.018-.216.036-.63.036-.828,0-1.944-1.044-3.1-2.844-3.1-2.358,0-3.87,1.638-3.87,4.3,0,2.592,1.386,4.212,3.744,4.212a5.644,5.644,0,0,0,2.5-.666l.144-1.206-.162-.09a4.4,4.4,0,0,1-2.412.81c-1.656,0-2.466-1.188-2.466-3.132Zm2.394-3.168c.99,0,1.692.594,1.692,1.89l-.036.216-3.96.108A2.315,2.315,0,0,1,162.576,120.638Zm8.838-.9a2.726,2.726,0,0,0-2.3,1.674H169l.018-1.692-1.368.126.09,4.662L167.634,128h1.422l-.09-3.618.018-1.26c.648-1.422,1.314-2,2.088-2a2.493,2.493,0,0,1,.648.09l.162-.054v-1.386A3.539,3.539,0,0,0,171.414,119.738Zm4.878-.126c-2.268,0-3.654,1.674-3.654,4.32,0,2.61,1.332,4.212,3.51,4.212a5.84,5.84,0,0,0,2.2-.468l.162-1.206-.162-.09a4.043,4.043,0,0,1-2.016.612c-1.476,0-2.34-1.206-2.34-3.132,0-1.944.846-3.078,2.25-3.078a3.5,3.5,0,0,1,1.854.612l.162-.054.252-1.242A5.473,5.473,0,0,0,176.292,119.612Zm6.5,0a5.181,5.181,0,0,0-3.078,1.116l.18,1.026.144.072a3.922,3.922,0,0,1,2.538-1.188A1.3,1.3,0,0,1,184,122.1l-.018,1.17-2.916.684a1.854,1.854,0,0,0-1.674,1.926c0,1.386.936,2.25,2.556,2.25a5.309,5.309,0,0,0,1.926-1.35H184a1.289,1.289,0,0,0,1.242,1.332,2.592,2.592,0,0,0,1.026-.36l.144-.81-.144-.126a1.964,1.964,0,0,1-.612.108c-.414,0-.558-.18-.558-.7,0-.63.216-3.816.216-4.446C185.31,120.422,184.338,119.612,182.79,119.612Zm1.17,4.572-.054,1.476a2.761,2.761,0,0,1-2.016,1.278,1.154,1.154,0,0,1-1.224-1.26.788.788,0,0,1,.684-.864Zm10.584.2.108-9.018-1.422.126.036,4.3a7.013,7.013,0,0,0-1.584-.18c-2.5,0-4,1.548-4,4.284,0,2.664,1.278,4.194,3.672,4.194a5.986,5.986,0,0,0,1.962-1.242h.126a1.327,1.327,0,0,0,1.26,1.26,2.592,2.592,0,0,0,1.026-.36l.126-.81-.144-.126a1.816,1.816,0,0,1-.612.108c-.378,0-.5-.18-.522-.684ZM191.5,120.62a4.2,4.2,0,0,1,1.764.45l.036,3.42-.036,1.3a2.556,2.556,0,0,1-1.98,1.1c-1.368,0-2.232-1.116-2.268-3.114C188.982,121.682,189.99,120.62,191.5,120.62Zm9.252-1.008c-2.394,0-3.762,1.6-3.762,4.374,0,2.646,1.3,4.158,3.546,4.158,2.394,0,3.744-1.6,3.744-4.374C204.282,121.124,202.986,119.612,200.754,119.612Zm-.09,1.008c1.476,0,2.286,1.188,2.286,3.474,0,2.016-.81,3.024-2.322,3.024-1.476,0-2.286-1.134-2.286-3.456C198.342,121.682,199.152,120.62,200.664,120.62ZM4.41,145.612c-2.268,0-3.654,1.674-3.654,4.32,0,2.61,1.332,4.212,3.51,4.212a5.84,5.84,0,0,0,2.2-.468l.162-1.206-.162-.09a4.043,4.043,0,0,1-2.016.612c-1.476,0-2.34-1.206-2.34-3.132,0-1.944.846-3.078,2.25-3.078a3.5,3.5,0,0,1,1.854.612l.162-.054.252-1.242A5.473,5.473,0,0,0,4.41,145.612Zm7.02,0c-2.394,0-3.762,1.6-3.762,4.374,0,2.646,1.3,4.158,3.546,4.158,2.394,0,3.744-1.6,3.744-4.374C14.958,147.124,13.662,145.612,11.43,145.612Zm-.09,1.008c1.476,0,2.286,1.188,2.286,3.474,0,2.016-.81,3.024-2.322,3.024-1.476,0-2.286-1.134-2.286-3.456C9.018,147.682,9.828,146.62,11.34,146.62ZM27.4,154h1.44l-.054-3.582.018-2.34c.018-1.548-.918-2.43-2.736-2.43a5.92,5.92,0,0,0-2.448,1.368h-.108c-.342-.882-1.206-1.368-2.574-1.368a5.5,5.5,0,0,0-2.268,1.278H18.54l.018-1.206-1.368.126.072,4.662L17.172,154h1.422l-.072-3.618.018-2.25a3.6,3.6,0,0,1,2.43-1.3c.954,0,1.422.612,1.4,1.566l-.09,5.6h1.44l-.072-3.582.036-2.34a3.552,3.552,0,0,1,2.394-1.242A1.351,1.351,0,0,1,27.5,148.4Zm7.848-8.334a5.327,5.327,0,0,0-2.268,1.224h-.108l.018-1.17-1.386.126.108,4.662L31.5,157.33h1.4l-.036-3.348a7.844,7.844,0,0,0,1.566.162c2.538,0,4.014-1.62,4.014-4.518C38.448,147.142,37.368,145.666,35.244,145.666Zm-.63,7.434a3.7,3.7,0,0,1-1.764-.468l-.018-2.25.018-2.268a3.129,3.129,0,0,1,2.268-1.278c1.26,0,1.944,1.08,1.98,2.952C37.134,152.02,36.126,153.1,34.614,153.1Zm6.678-3.294,5.022-.018.306-.234c.018-.216.036-.63.036-.828,0-1.944-1.044-3.1-2.844-3.1-2.358,0-3.87,1.638-3.87,4.3,0,2.592,1.386,4.212,3.744,4.212a5.644,5.644,0,0,0,2.5-.666l.144-1.206-.162-.09a4.4,4.4,0,0,1-2.412.81c-1.656,0-2.466-1.188-2.466-3.132Zm2.394-3.168c.99,0,1.692.594,1.692,1.89l-.036.216-3.96.108A2.315,2.315,0,0,1,43.686,146.638Zm7.668,6.264c-.792,0-1.152-.324-1.134-1.3l.09-4.878h2.43l.09-.846-.072-.108H50.31l.036-1.746L50.2,143.9l-1.242.54v1.332h-1.1l-.09.846.072.108h1.134L49,150.454l-.054,1.278a2.079,2.079,0,0,0,1.926,2.376,5.189,5.189,0,0,0,1.8-.522l.144-.936-.162-.108A2.726,2.726,0,0,1,51.354,152.9Zm3.906-10.836a.794.794,0,0,0-.846.846.739.739,0,0,0,.792.828.8.8,0,0,0,.846-.882A.737.737,0,0,0,55.26,142.066Zm.558,8.316.108-4.662-1.422.126.072,4.662L54.486,154h1.422Zm5.562,2.52c-.792,0-1.152-.324-1.134-1.3l.09-4.878h2.43l.09-.846-.072-.108H60.336l.036-1.746-.144-.126-1.242.54v1.332h-1.1l-.09.846.072.108H59l.018,3.726-.054,1.278a2.079,2.079,0,0,0,1.926,2.376,5.189,5.189,0,0,0,1.8-.522l.144-.936-.162-.108A2.726,2.726,0,0,1,61.38,152.9Zm3.906-10.836a.794.794,0,0,0-.846.846.739.739,0,0,0,.792.828.8.8,0,0,0,.846-.882A.737.737,0,0,0,65.286,142.066Zm.558,8.316.108-4.662-1.422.126.072,4.662L64.512,154h1.422ZM69.21,146.8l-.234-1.1-1.332.09L70.2,154h1.53l3.024-8.244H73.476l-.288,1.116-2.106,5.706h-.09Zm9.936-1.188c-2.394,0-3.762,1.6-3.762,4.374,0,2.646,1.3,4.158,3.546,4.158,2.394,0,3.744-1.6,3.744-4.374C82.674,147.124,81.378,145.612,79.146,145.612Zm-.09,1.008c1.476,0,2.286,1.188,2.286,3.474,0,2.016-.81,3.024-2.322,3.024-1.476,0-2.286-1.134-2.286-3.456C76.734,147.682,77.544,146.62,79.056,146.62ZM92.97,154h1.44l-.072-3.582.036-2.34c.018-1.548-.918-2.43-2.754-2.43a5.666,5.666,0,0,0-2.286,1.278h-.108l.018-1.206-1.368.126.072,4.662L87.858,154H89.28l-.072-3.618.018-2.268a3.569,3.569,0,0,1,2.43-1.278c.954,0,1.422.612,1.4,1.566Zm9.576-11.556-.432-.45h-.144c-.468.45-.756.828-1.026.828-.45,0-2.034-.558-2.79-.648l-.18.054-1.1,1.242v.126l.432.468h.162c.45-.45.738-.846,1.008-.846.468,0,2.052.594,2.79.666l.18-.054,1.1-1.242Zm-2.682,3.168a5.231,5.231,0,0,0-3.1,1.116l.2,1.026.144.072a3.885,3.885,0,0,1,2.538-1.188,1.3,1.3,0,0,1,1.422,1.458l-.018,1.17-2.916.684a1.854,1.854,0,0,0-1.674,1.926c0,1.386.936,2.25,2.556,2.25a5.309,5.309,0,0,0,1.926-1.35h.108a1.3,1.3,0,0,0,1.26,1.332,2.694,2.694,0,0,0,1.026-.36l.126-.81-.144-.126a1.8,1.8,0,0,1-.594.108c-.432,0-.576-.18-.576-.7,0-.63.234-3.816.234-4.446C102.384,146.422,101.394,145.612,99.864,145.612Zm1.17,4.572-.054,1.476a2.791,2.791,0,0,1-2.034,1.278,1.149,1.149,0,0,1-1.206-1.26.775.775,0,0,1,.684-.864Zm7.506-4.572c-2.394,0-3.762,1.6-3.762,4.374,0,2.646,1.3,4.158,3.546,4.158,2.394,0,3.744-1.6,3.744-4.374C112.068,147.124,110.772,145.612,108.54,145.612Zm-.09,1.008c1.476,0,2.286,1.188,2.286,3.474,0,2.016-.81,3.024-2.322,3.024-1.476,0-2.286-1.134-2.286-3.456C106.128,147.682,106.938,146.62,108.45,146.62Zm12.636-.954a5.52,5.52,0,0,0-2.268,1.224h-.108l.054-5.526-1.422.126.108,9.054-.126,3.51.252.144.99-.45a4.407,4.407,0,0,0,1.764.4c2.466,0,3.96-1.62,3.96-4.518C124.29,147.142,123.192,145.666,121.086,145.666Zm-.63,7.434a3.092,3.092,0,0,1-1.728-.576l-.054-2.142.018-2.268a3.1,3.1,0,0,1,2.268-1.278c1.26,0,1.944,1.08,1.98,2.952C122.976,152.02,121.968,153.1,120.456,153.1Zm8.748-7.488a5.181,5.181,0,0,0-3.078,1.116l.18,1.026.144.072a3.922,3.922,0,0,1,2.538-1.188,1.3,1.3,0,0,1,1.422,1.458l-.018,1.17-2.916.684a1.854,1.854,0,0,0-1.674,1.926c0,1.386.936,2.25,2.556,2.25a5.309,5.309,0,0,0,1.926-1.35h.126a1.289,1.289,0,0,0,1.242,1.332,2.592,2.592,0,0,0,1.026-.36l.144-.81-.144-.126a1.964,1.964,0,0,1-.612.108c-.414,0-.558-.18-.558-.7,0-.63.216-3.816.216-4.446C131.724,146.422,130.752,145.612,129.2,145.612Zm1.17,4.572-.054,1.476a2.761,2.761,0,0,1-2.016,1.278,1.154,1.154,0,0,1-1.224-1.26.788.788,0,0,1,.684-.864Zm6.678-4.554c-1.782,0-2.844,1.008-2.844,2.376,0,2.556,3.762,2.214,3.762,3.87a1.353,1.353,0,0,1-1.494,1.242,3.542,3.542,0,0,1-2.2-.9l-.162.108-.18,1.224a5.288,5.288,0,0,0,2.394.594,2.626,2.626,0,0,0,2.934-2.52c0-2.484-3.744-2.142-3.744-3.8a1.247,1.247,0,0,1,1.368-1.17,3.123,3.123,0,0,1,1.728.594l.216-.054.2-1.17A5.248,5.248,0,0,0,137.052,145.63Zm7,7.272c-.792,0-1.152-.324-1.134-1.3l.09-4.878h2.43l.09-.846-.072-.108H143.01l.036-1.746-.144-.126-1.242.54v1.332h-1.1l-.09.846.072.108h1.134l.018,3.726-.054,1.278a2.079,2.079,0,0,0,1.926,2.376,5.188,5.188,0,0,0,1.8-.522l.144-.936-.162-.108A2.726,2.726,0,0,1,144.054,152.9Zm5.868-7.29a5.181,5.181,0,0,0-3.078,1.116l.18,1.026.144.072a3.922,3.922,0,0,1,2.538-1.188,1.3,1.3,0,0,1,1.422,1.458l-.018,1.17-2.916.684a1.854,1.854,0,0,0-1.674,1.926c0,1.386.936,2.25,2.556,2.25a5.309,5.309,0,0,0,1.926-1.35h.126a1.289,1.289,0,0,0,1.242,1.332,2.592,2.592,0,0,0,1.026-.36l.144-.81-.144-.126a1.964,1.964,0,0,1-.612.108c-.414,0-.558-.18-.558-.7,0-.63.216-3.816.216-4.446C152.442,146.422,151.47,145.612,149.922,145.612Zm1.17,4.572-.054,1.476a2.761,2.761,0,0,1-2.016,1.278,1.154,1.154,0,0,1-1.224-1.26.788.788,0,0,1,.684-.864Zm10.116-4.572a5.181,5.181,0,0,0-3.078,1.116l.18,1.026.144.072a3.922,3.922,0,0,1,2.538-1.188,1.3,1.3,0,0,1,1.422,1.458l-.018,1.17-2.916.684a1.854,1.854,0,0,0-1.674,1.926c0,1.386.936,2.25,2.556,2.25a5.309,5.309,0,0,0,1.926-1.35h.126a1.289,1.289,0,0,0,1.242,1.332,2.592,2.592,0,0,0,1.026-.36l.144-.81-.144-.126a1.964,1.964,0,0,1-.612.108c-.414,0-.558-.18-.558-.7,0-.63.216-3.816.216-4.446C163.728,146.422,162.756,145.612,161.208,145.612Zm1.17,4.572-.054,1.476a2.761,2.761,0,0,1-2.016,1.278,1.154,1.154,0,0,1-1.224-1.26.788.788,0,0,1,.684-.864Zm8.154-4.518a5.327,5.327,0,0,0-2.268,1.224h-.108l.018-1.17-1.386.126.108,4.662-.108,6.822h1.4l-.036-3.348a7.844,7.844,0,0,0,1.566.162c2.538,0,4.014-1.62,4.014-4.518C173.736,147.142,172.656,145.666,170.532,145.666Zm-.63,7.434a3.7,3.7,0,0,1-1.764-.468l-.018-2.25.018-2.268a3.129,3.129,0,0,1,2.268-1.278c1.26,0,1.944,1.08,1.98,2.952C172.422,152.02,171.414,153.1,169.9,153.1Zm6.678-3.294,5.022-.018.306-.234c.018-.216.036-.63.036-.828,0-1.944-1.044-3.1-2.844-3.1-2.358,0-3.87,1.638-3.87,4.3,0,2.592,1.386,4.212,3.744,4.212a5.644,5.644,0,0,0,2.5-.666l.144-1.206-.162-.09a4.4,4.4,0,0,1-2.412.81c-1.656,0-2.466-1.188-2.466-3.132Zm2.394-3.168c.99,0,1.692.594,1.692,1.89l-.036.216-3.96.108A2.315,2.315,0,0,1,178.974,146.638ZM189.144,154h1.44l-.072-3.582.036-2.34c.018-1.548-.918-2.43-2.754-2.43a5.667,5.667,0,0,0-2.286,1.278H185.4l.018-1.206-1.368.126.072,4.662-.09,3.492h1.422l-.072-3.618.018-2.268a3.569,3.569,0,0,1,2.43-1.278c.954,0,1.422.612,1.4,1.566Zm6.894-8.388a5.181,5.181,0,0,0-3.078,1.116l.18,1.026.144.072a3.922,3.922,0,0,1,2.538-1.188,1.3,1.3,0,0,1,1.422,1.458l-.018,1.17-2.916.684a1.854,1.854,0,0,0-1.674,1.926c0,1.386.936,2.25,2.556,2.25a5.309,5.309,0,0,0,1.926-1.35h.126a1.289,1.289,0,0,0,1.242,1.332,2.592,2.592,0,0,0,1.026-.36l.144-.81-.144-.126a1.964,1.964,0,0,1-.612.108c-.414,0-.558-.18-.558-.7,0-.63.216-3.816.216-4.446C198.558,146.422,197.586,145.612,196.038,145.612Zm1.17,4.572-.054,1.476a2.761,2.761,0,0,1-2.016,1.278,1.154,1.154,0,0,1-1.224-1.26.788.788,0,0,1,.684-.864Zm6.678-4.554c-1.782,0-2.844,1.008-2.844,2.376,0,2.556,3.762,2.214,3.762,3.87a1.353,1.353,0,0,1-1.494,1.242,3.542,3.542,0,0,1-2.2-.9l-.162.108-.18,1.224a5.288,5.288,0,0,0,2.394.594,2.626,2.626,0,0,0,2.934-2.52c0-2.484-3.744-2.142-3.744-3.8a1.247,1.247,0,0,1,1.368-1.17,3.123,3.123,0,0,1,1.728.594l.216-.054.2-1.17A5.248,5.248,0,0,0,203.886,145.63ZM4.032,178.9c-.792,0-1.152-.324-1.134-1.3l.09-4.878h2.43l.09-.846-.072-.108H2.988l.036-1.746L2.88,169.9l-1.242.54v1.332H.54l-.09.846.072.108H1.656l.018,3.726-.054,1.278a2.079,2.079,0,0,0,1.926,2.376,5.189,5.189,0,0,0,1.8-.522l.144-.936-.162-.108A2.726,2.726,0,0,1,4.032,178.9Zm3.528-3.1,5.022-.018.306-.234c.018-.216.036-.63.036-.828,0-1.944-1.044-3.1-2.844-3.1-2.358,0-3.87,1.638-3.87,4.3,0,2.592,1.386,4.212,3.744,4.212a5.644,5.644,0,0,0,2.5-.666l.144-1.206-.162-.09a4.4,4.4,0,0,1-2.412.81c-1.656,0-2.466-1.188-2.466-3.132Zm2.394-3.168c.99,0,1.692.594,1.692,1.89l-.036.216-3.96.108A2.315,2.315,0,0,1,9.954,172.638Zm8.838-.9a2.726,2.726,0,0,0-2.3,1.674H16.38l.018-1.692-1.368.126.09,4.662L15.012,180h1.422l-.09-3.618.018-1.26c.648-1.422,1.314-2,2.088-2a2.492,2.492,0,0,1,.648.09l.162-.054v-1.386A3.539,3.539,0,0,0,18.792,171.738Zm8.838-.072a5.521,5.521,0,0,0-2.268,1.224h-.108l.054-5.526-1.422.126.108,9.054-.126,3.51.252.144.99-.45a4.407,4.407,0,0,0,1.764.4c2.466,0,3.96-1.62,3.96-4.518C30.834,173.142,29.736,171.666,27.63,171.666ZM27,179.1a3.092,3.092,0,0,1-1.728-.576l-.054-2.142.018-2.268a3.1,3.1,0,0,1,2.268-1.278c1.26,0,1.944,1.08,1.98,2.952C29.52,178.02,28.512,179.1,27,179.1Zm9.108-7.488c-2.394,0-3.762,1.6-3.762,4.374,0,2.646,1.3,4.158,3.546,4.158,2.394,0,3.744-1.6,3.744-4.374C39.636,173.124,38.34,171.612,36.108,171.612Zm-.09,1.008c1.476,0,2.286,1.188,2.286,3.474,0,2.016-.81,3.024-2.322,3.024-1.476,0-2.286-1.134-2.286-3.456C33.7,173.682,34.506,172.62,36.018,172.62Zm8.568-1.008a5.181,5.181,0,0,0-3.078,1.116l.18,1.026.144.072a3.922,3.922,0,0,1,2.538-1.188,1.3,1.3,0,0,1,1.422,1.458l-.018,1.17-2.916.684a1.854,1.854,0,0,0-1.674,1.926c0,1.386.936,2.25,2.556,2.25a5.309,5.309,0,0,0,1.926-1.35h.126a1.289,1.289,0,0,0,1.242,1.332,2.592,2.592,0,0,0,1.026-.36l.144-.81-.144-.126a1.964,1.964,0,0,1-.612.108c-.414,0-.558-.18-.558-.7,0-.63.216-3.816.216-4.446C47.106,172.422,46.134,171.612,44.586,171.612Zm1.17,4.572L45.7,177.66a2.761,2.761,0,0,1-2.016,1.278,1.154,1.154,0,0,1-1.224-1.26.788.788,0,0,1,.684-.864Zm6.678-4.554c-1.782,0-2.844,1.008-2.844,2.376,0,2.556,3.762,2.214,3.762,3.87a1.353,1.353,0,0,1-1.494,1.242,3.542,3.542,0,0,1-2.2-.9l-.162.108-.18,1.224a5.288,5.288,0,0,0,2.394.594,2.626,2.626,0,0,0,2.934-2.52c0-2.484-3.744-2.142-3.744-3.8a1.247,1.247,0,0,1,1.368-1.17A3.123,3.123,0,0,1,54,173.25l.216-.054.2-1.17A5.248,5.248,0,0,0,52.434,171.63Zm8.136-3.564a.794.794,0,0,0-.846.846.739.739,0,0,0,.792.828.8.8,0,0,0,.846-.882A.737.737,0,0,0,60.57,168.066Zm.558,8.316.108-4.662-1.422.126.072,4.662L59.8,180h1.422Zm9.126,0,.108-9.018-1.422.126.036,4.3a7.013,7.013,0,0,0-1.584-.18c-2.5,0-4,1.548-4,4.284,0,2.664,1.278,4.194,3.672,4.194a5.986,5.986,0,0,0,1.962-1.242h.126a1.327,1.327,0,0,0,1.26,1.26,2.592,2.592,0,0,0,1.026-.36l.126-.81-.144-.126a1.817,1.817,0,0,1-.612.108c-.378,0-.5-.18-.522-.684Zm-3.042-3.762a4.2,4.2,0,0,1,1.764.45l.036,3.42-.036,1.3a2.556,2.556,0,0,1-1.98,1.1c-1.368,0-2.232-1.116-2.268-3.114C64.692,173.682,65.7,172.62,67.212,172.62Zm6.84,3.186,5.022-.018.306-.234c.018-.216.036-.63.036-.828,0-1.944-1.044-3.1-2.844-3.1-2.358,0-3.87,1.638-3.87,4.3,0,2.592,1.386,4.212,3.744,4.212a5.644,5.644,0,0,0,2.5-.666l.144-1.206-.162-.09a4.4,4.4,0,0,1-2.412.81c-1.656,0-2.466-1.188-2.466-3.132Zm2.394-3.168c.99,0,1.692.594,1.692,1.89l-.036.216-3.96.108A2.315,2.315,0,0,1,76.446,172.638Zm5.832-4.572a.794.794,0,0,0-.846.846.739.739,0,0,0,.792.828.8.8,0,0,0,.846-.882A.737.737,0,0,0,82.278,168.066Zm.558,8.316.108-4.662-1.422.126.072,4.662L81.5,180h1.422Zm5.688-4.77a5.181,5.181,0,0,0-3.078,1.116l.18,1.026.144.072a3.922,3.922,0,0,1,2.538-1.188A1.3,1.3,0,0,1,89.73,174.1l-.018,1.17-2.916.684a1.854,1.854,0,0,0-1.674,1.926c0,1.386.936,2.25,2.556,2.25a5.309,5.309,0,0,0,1.926-1.35h.126a1.289,1.289,0,0,0,1.242,1.332,2.592,2.592,0,0,0,1.026-.36l.144-.81L92,178.812a1.964,1.964,0,0,1-.612.108c-.414,0-.558-.18-.558-.7,0-.63.216-3.816.216-4.446C91.044,172.422,90.072,171.612,88.524,171.612Zm1.17,4.572-.054,1.476a2.761,2.761,0,0,1-2.016,1.278,1.154,1.154,0,0,1-1.224-1.26.788.788,0,0,1,.684-.864Zm6.678-4.554c-1.782,0-2.844,1.008-2.844,2.376,0,2.556,3.762,2.214,3.762,3.87a1.353,1.353,0,0,1-1.494,1.242,3.542,3.542,0,0,1-2.2-.9l-.162.108-.18,1.224a5.288,5.288,0,0,0,2.394.594,2.626,2.626,0,0,0,2.934-2.52c0-2.484-3.744-2.142-3.744-3.8a1.247,1.247,0,0,1,1.368-1.17,3.123,3.123,0,0,1,1.728.594l.216-.054.2-1.17A5.248,5.248,0,0,0,96.372,171.63Zm8.046,4.176,5.022-.018.306-.234c.018-.216.036-.63.036-.828,0-1.944-1.044-3.1-2.844-3.1-2.358,0-3.87,1.638-3.87,4.3,0,2.592,1.386,4.212,3.744,4.212a5.644,5.644,0,0,0,2.5-.666l.144-1.206-.162-.09a4.4,4.4,0,0,1-2.412.81c-1.656,0-2.466-1.188-2.466-3.132Zm2.394-3.168c.99,0,1.692.594,1.692,1.89l-.036.216-3.96.108A2.315,2.315,0,0,1,106.812,172.638Zm14.2,3.744.108-9.018-1.422.126.036,4.3a7.013,7.013,0,0,0-1.584-.18c-2.5,0-4,1.548-4,4.284,0,2.664,1.278,4.194,3.672,4.194a5.986,5.986,0,0,0,1.962-1.242h.126a1.327,1.327,0,0,0,1.26,1.26,2.592,2.592,0,0,0,1.026-.36l.126-.81-.144-.126a1.817,1.817,0,0,1-.612.108c-.378,0-.5-.18-.522-.684Zm-3.042-3.762a4.2,4.2,0,0,1,1.764.45l.036,3.42-.036,1.3a2.556,2.556,0,0,1-1.98,1.1c-1.368,0-2.232-1.116-2.268-3.114C115.452,173.682,116.46,172.62,117.972,172.62Zm8.892-1.008a5.181,5.181,0,0,0-3.078,1.116l.18,1.026.144.072a3.922,3.922,0,0,1,2.538-1.188,1.3,1.3,0,0,1,1.422,1.458l-.018,1.17-2.916.684a1.854,1.854,0,0,0-1.674,1.926c0,1.386.936,2.25,2.556,2.25a5.309,5.309,0,0,0,1.926-1.35h.126a1.289,1.289,0,0,0,1.242,1.332,2.592,2.592,0,0,0,1.026-.36l.144-.81-.144-.126a1.964,1.964,0,0,1-.612.108c-.414,0-.558-.18-.558-.7,0-.63.216-3.816.216-4.446C129.384,172.422,128.412,171.612,126.864,171.612Zm1.17,4.572-.054,1.476a2.761,2.761,0,0,1-2.016,1.278,1.154,1.154,0,0,1-1.224-1.26.788.788,0,0,1,.684-.864Zm10.584.2.108-9.018-1.422.126.036,4.3a7.013,7.013,0,0,0-1.584-.18c-2.5,0-4,1.548-4,4.284,0,2.664,1.278,4.194,3.672,4.194a5.985,5.985,0,0,0,1.962-1.242h.126a1.327,1.327,0,0,0,1.26,1.26,2.592,2.592,0,0,0,1.026-.36l.126-.81-.144-.126a1.817,1.817,0,0,1-.612.108c-.378,0-.5-.18-.522-.684Zm-3.042-3.762a4.2,4.2,0,0,1,1.764.45l.036,3.42-.036,1.3a2.556,2.556,0,0,1-1.98,1.1c-1.368,0-2.232-1.116-2.268-3.114C133.056,173.682,134.064,172.62,135.576,172.62Zm9.252-1.008c-2.394,0-3.762,1.6-3.762,4.374,0,2.646,1.3,4.158,3.546,4.158,2.394,0,3.744-1.6,3.744-4.374C148.356,173.124,147.06,171.612,144.828,171.612Zm-.09,1.008c1.476,0,2.286,1.188,2.286,3.474,0,2.016-.81,3.024-2.322,3.024-1.476,0-2.286-1.134-2.286-3.456C142.416,173.682,143.226,172.62,144.738,172.62Zm8.1-.99c-1.782,0-2.844,1.008-2.844,2.376,0,2.556,3.762,2.214,3.762,3.87a1.353,1.353,0,0,1-1.494,1.242,3.542,3.542,0,0,1-2.2-.9l-.162.108-.18,1.224a5.288,5.288,0,0,0,2.394.594,2.626,2.626,0,0,0,2.934-2.52c0-2.484-3.744-2.142-3.744-3.8a1.247,1.247,0,0,1,1.368-1.17,3.123,3.123,0,0,1,1.728.594l.216-.054.2-1.17A5.248,5.248,0,0,0,152.838,171.63Zm11.106.036a5.327,5.327,0,0,0-2.268,1.224h-.108l.018-1.17-1.386.126.108,4.662-.108,6.822h1.4l-.036-3.348a7.844,7.844,0,0,0,1.566.162c2.538,0,4.014-1.62,4.014-4.518C167.148,173.142,166.068,171.666,163.944,171.666Zm-.63,7.434a3.7,3.7,0,0,1-1.764-.468l-.018-2.25.018-2.268a3.129,3.129,0,0,1,2.268-1.278c1.26,0,1.944,1.08,1.98,2.952C165.834,178.02,164.826,179.1,163.314,179.1Zm9.774-7.362a2.726,2.726,0,0,0-2.3,1.674h-.108l.018-1.692-1.368.126.09,4.662L169.308,180h1.422l-.09-3.618.018-1.26c.648-1.422,1.314-2,2.088-2a2.492,2.492,0,0,1,.648.09l.162-.054v-1.386A3.539,3.539,0,0,0,173.088,171.738Zm2.574,4.068,5.022-.018.306-.234c.018-.216.036-.63.036-.828,0-1.944-1.044-3.1-2.844-3.1-2.358,0-3.87,1.638-3.87,4.3,0,2.592,1.386,4.212,3.744,4.212a5.644,5.644,0,0,0,2.5-.666l.144-1.206-.162-.09a4.4,4.4,0,0,1-2.412.81c-1.656,0-2.466-1.188-2.466-3.132Zm2.394-3.168c.99,0,1.692.594,1.692,1.89l-.036.216-3.96.108A2.315,2.315,0,0,1,178.056,172.638Zm8.046-1.026c-2.268,0-3.654,1.674-3.654,4.32,0,2.61,1.332,4.212,3.51,4.212a5.84,5.84,0,0,0,2.2-.468l.162-1.206-.162-.09a4.043,4.043,0,0,1-2.016.612c-1.476,0-2.34-1.206-2.34-3.132,0-1.944.846-3.078,2.25-3.078a3.5,3.5,0,0,1,1.854.612l.162-.054.252-1.242A5.473,5.473,0,0,0,186.1,171.612Zm4.716-3.546a.794.794,0,0,0-.846.846.739.739,0,0,0,.792.828.8.8,0,0,0,.846-.882A.737.737,0,0,0,190.818,168.066Zm.558,8.316.108-4.662-1.422.126.072,4.662-.09,3.492h1.422Zm5.22-4.752c-1.782,0-2.844,1.008-2.844,2.376,0,2.556,3.762,2.214,3.762,3.87a1.353,1.353,0,0,1-1.494,1.242,3.542,3.542,0,0,1-2.2-.9l-.162.108-.18,1.224a5.288,5.288,0,0,0,2.394.594,2.626,2.626,0,0,0,2.934-2.52c0-2.484-3.744-2.142-3.744-3.8a1.247,1.247,0,0,1,1.368-1.17,3.123,3.123,0,0,1,1.728.594l.216-.054.2-1.17A5.248,5.248,0,0,0,196.6,171.63Zm7.488-.018c-2.394,0-3.762,1.6-3.762,4.374,0,2.646,1.3,4.158,3.546,4.158,2.394,0,3.744-1.6,3.744-4.374C207.612,173.124,206.316,171.612,204.084,171.612Zm-.09,1.008c1.476,0,2.286,1.188,2.286,3.474,0,2.016-.81,3.024-2.322,3.024-1.476,0-2.286-1.134-2.286-3.456C201.672,173.682,202.482,172.62,203.994,172.62Zm8.1-.99c-1.782,0-2.844,1.008-2.844,2.376,0,2.556,3.762,2.214,3.762,3.87a1.353,1.353,0,0,1-1.494,1.242,3.542,3.542,0,0,1-2.2-.9l-.162.108-.18,1.224a5.288,5.288,0,0,0,2.394.594,2.626,2.626,0,0,0,2.934-2.52c0-2.484-3.744-2.142-3.744-3.8a1.247,1.247,0,0,1,1.368-1.17,3.123,3.123,0,0,1,1.728.594l.216-.054.2-1.17A5.248,5.248,0,0,0,212.094,171.63Zm4.752,6.786a.794.794,0,0,0-.846.846.739.739,0,0,0,.792.828.8.8,0,0,0,.846-.864A.742.742,0,0,0,216.846,178.416Z" transform="translate(74 15530.041)" fill="#fff"/>
  </g>
</svg>
