<svg xmlns="http://www.w3.org/2000/svg" xmlns:xlink="http://www.w3.org/1999/xlink" width="410.922" height="281.384" viewBox="0 0 410.922 281.384">
  <defs>
    <linearGradient id="linear-gradient" x1="0.973" y1="1" x2="0" y2="1" gradientUnits="objectBoundingBox">
      <stop offset="0" stop-color="#fff" stop-opacity="0"/>
      <stop offset="0.159" stop-color="#fff" stop-opacity="0.408"/>
      <stop offset="0.414" stop-color="#95ebff"/>
      <stop offset="0.598" stop-color="#3db8f9"/>
      <stop offset="0.82" stop-color="#1b74d8"/>
      <stop offset="1" stop-color="#0024a8"/>
    </linearGradient>
    <linearGradient id="linear-gradient-2" x1="0.027" y1="0" x2="1" y2="0" xlink:href="#linear-gradient"/>
    <clipPath id="clip-path">
      <rect id="Retângulo_125296" data-name="Retângulo 125296" width="396.292" height="203.524" fill="none"/>
    </clipPath>
    <linearGradient id="linear-gradient-3" x1="0.5" x2="0.5" y2="1" gradientUnits="objectBoundingBox">
      <stop offset="0" stop-color="#d263e1"/>
      <stop offset="1" stop-color="#fba4b0"/>
    </linearGradient>
    <linearGradient id="linear-gradient-4" x1="0.5" x2="0.5" y2="1" gradientUnits="objectBoundingBox">
      <stop offset="0" stop-color="#9285f9"/>
      <stop offset="1" stop-color="#424ffe"/>
    </linearGradient>
    <linearGradient id="linear-gradient-5" x1="0.5" x2="0.5" y2="1" gradientUnits="objectBoundingBox">
      <stop offset="0" stop-color="#3b4fff"/>
      <stop offset="1" stop-color="#40b5ff"/>
    </linearGradient>
    <linearGradient id="linear-gradient-6" x1="0.5" x2="0.78" y2="2.443" gradientUnits="objectBoundingBox">
      <stop offset="0" stop-color="#89f1b9"/>
      <stop offset="1" stop-color="#f6b784"/>
    </linearGradient>
    <linearGradient id="linear-gradient-7" x2="0.5" y2="1" xlink:href="#linear-gradient-6"/>
    <linearGradient id="linear-gradient-8" x2="-0.562" y2="2.029" xlink:href="#linear-gradient-6"/>
    <linearGradient id="linear-gradient-9" x1="0.5" x2="0.5" y2="1" gradientUnits="objectBoundingBox">
      <stop offset="0" stop-color="#ffb97d"/>
      <stop offset="1" stop-color="#ffe66c"/>
    </linearGradient>
    <linearGradient id="linear-gradient-11" x2="0.227" y2="2.174" xlink:href="#linear-gradient-9"/>
    <linearGradient id="linear-gradient-12" x1="0.5" x2="0.5" y2="1" gradientUnits="objectBoundingBox">
      <stop offset="0" stop-color="#6de1d2"/>
      <stop offset="1" stop-color="#46c0f8"/>
    </linearGradient>
  </defs>
  <g id="_Ilustração_lateral_direita_2_" data-name="&lt;Ilustração lateral direita_2&gt;" transform="translate(-461.08 -3412.407)">
    <g id="Grupo_232275" data-name="Grupo 232275" transform="translate(-13 1850.854)">
      <g id="Grupo_232248" data-name="Grupo 232248" transform="translate(-54 -235)">
        <g id="GettyImages-1412762526" transform="translate(703.31 1817.849)" fill="none">
          <path d="M-105.227.151,235.692,0,177.924,260.087l-341.233-.2Z" stroke="none"/>
          <path d="M 233.1991882324219 2.0010986328125 L -103.624267578125 2.1500244140625 L -160.8132629394531 257.8894348144531 L 176.3195343017578 258.0863647460938 L 233.1991882324219 2.0010986328125 M 235.6923675537109 0 L 177.923828125 260.0872802734375 L -163.3095855712891 259.8880004882812 L -105.2265777587891 0.150726318359375 L 235.6923675537109 0 Z" stroke="none" fill="#0024a9"/>
        </g>
      </g>
      <g id="Grupo_232268" data-name="Grupo 232268" transform="translate(-9503.485 1725.552)">
        <path id="Caminho_734262" data-name="Caminho 734262" d="M4.668-.459H138.562L133.487,20.9H0Z" transform="translate(10249.926 -163.541)" fill="url(#linear-gradient)"/>
        <path id="Caminho_734263" data-name="Caminho 734263" d="M133.894,20.9H0L5.075-.459H138.562Z" transform="translate(10249.926 -142.311)" fill="url(#linear-gradient-2)"/>
      </g>
    </g>
    <g id="Grupo_234151" data-name="Grupo 234151" transform="translate(461.08 3488.267)">
      <g id="Grupo_234151-2" data-name="Grupo 234151" clip-path="url(#clip-path)">
        <path id="Caminho_771064" data-name="Caminho 771064" d="M505.974,212.693c-.8-3.841-2.531-6.265-5.562-6.488l-11.137-.822c-3.5-.258-6.874.173-8.744,3.564-1.551,2.814-1.974,6.535-2.529,9.651-.647,3.63-1.11,7.289-1.605,10.942a285.072,285.072,0,0,1-9.342,43.365,4.874,4.874,0,0,0,4.659,6.117,41.293,41.293,0,0,1,16.085,2.842c2.458.947,5.278-1.062,5.944-3.375,2.13-7.4,15.633-49.442,12.231-65.794" transform="translate(-229.415 -100.892)" fill="#fff"/>
        <path id="Caminho_771066" data-name="Caminho 771066" d="M245.827,262.108a1.221,1.221,0,0,0-.04-.138.821.821,0,0,0-.447-.674c-11.8-6.692-25.31-6.356-38.357-7.4-.113-.853-1.244-1.415-1.722-.484-.067.131-.13.263-.2.394-.492.155.517,1.653.616,2.144-7.157,14.4-14.407,32.9-14.856,50.475-.033,1.31,20.6,1.424,29.288,1.526,9.65.113,19.639,1.478,29.289,1.187.5-.015,0-8.5,0-9.094a204.5,204.5,0,0,0-3.575-37.936" transform="translate(-93.769 -124.288)" fill="url(#linear-gradient-3)"/>
        <path id="Caminho_771067" data-name="Caminho 771067" d="M259.848,318.091c-3.315,1.376-7.186,2.447-9.678,5.172-2.7,2.956-4.729,6.712-6.808,10.114-.171.28.269.536.439.257a73.1,73.1,0,0,1,6.449-9.7c2.47-2.873,6.341-3.948,9.733-5.357.3-.124.167-.616-.135-.49" transform="translate(-119.566 -156.296)" fill="#2d0a0a"/>
        <path id="Caminho_771068" data-name="Caminho 771068" d="M654.765,306.954c-.4-5.635.264-11.158-.61-16.8-.847-5.465-2.17-11.471-4.7-16.418-1.766-3.461-4.068-6.586-5.8-10.047a4.2,4.2,0,0,0-1.083-.869c-5.814-1.4-9.91,8.932-15.719,9.98a101.4,101.4,0,0,0-18.946,5.521c-4.358,1.708-9.572,3.156-10.509,8.4a21.1,21.1,0,0,0-.19,4.6c-1.8,5.8-2.435,17.428-2.513,19.528-.028.755,1.346,1.192,2.022,1.265l17.2,1.857c5.721.617,11.522,1.575,17.283,1.046a1.331,1.331,0,0,0,.643-.232l19.985-.993a3.437,3.437,0,0,0,3.241-3.876c-.129-.984-.235-1.971-.306-2.963" transform="translate(-292.229 -129.083)" fill="url(#linear-gradient-4)"/>
        <path id="Caminho_771069" data-name="Caminho 771069" d="M477.954,143.776a16.122,16.122,0,0,1,1.745,10.7c-.251,1.819-.5,3.514.793,5.016.917,1.066,2.111,1.847,3.013,2.948a24,24,0,0,1,2.654,4.2c.813,1.57,1.2,3.963,3.143,4.3,2.875.5,7.744.2,10.09-1.759a2.819,2.819,0,0,0,.948-1.351c.287-1.013-.253-1.942-.394-2.925a24.034,24.034,0,0,0-.555-2.637,27.452,27.452,0,0,0-1.821-4.946,30.909,30.909,0,0,0-6.144-8.482c-2.985-2.958-4.007-6.391-5.711-10.094-1.285-2.793-3.16-5.194-6.217-6.051a.475.475,0,0,0-.472.11.434.434,0,0,0-.506.029c-1.483,1.055-2.956,2.2-3.115,4.137-.195,2.361,1.487,4.822,2.547,6.8" transform="translate(-233.602 -65.196)" fill="#c45d31"/>
        <path id="Caminho_771070" data-name="Caminho 771070" d="M451.646,147.158c.032.232.071.472.111.717,2.542.861,6.125.514,8.426.045a19.372,19.372,0,0,0,8.041-3.612,36.841,36.841,0,0,1-.69-4.9q-.942-7.57-1.566-15.171a1.374,1.374,0,0,0-1.647-1.221,1.216,1.216,0,0,0-1.168.2c-4.54,3.3-9.6,6.319-13.1,10.731a1.011,1.011,0,0,0-.208.3,1.327,1.327,0,0,0,.013,1.281q.974,5.807,1.792,11.636" transform="translate(-220.968 -60.411)" fill="#ff9e63"/>
        <path id="Caminho_771071" data-name="Caminho 771071" d="M354.845,11.935a1.329,1.329,0,0,0-2.608.189,7.244,7.244,0,0,0,.1,2.234c.067.393.895,3.645-.246,3.3a1.142,1.142,0,0,1-.557-.537c-.246-.385-.477-.779-.7-1.175a.455.455,0,0,1-.029-.062,61.826,61.826,0,0,0-3.769-8.445c-.9-1.661-2.061-4.883-4.244-4.947a.963.963,0,0,0-1.007,1.134c.286,1.982,1.469,3.493,2.356,5.238a29.823,29.823,0,0,1,1.815,4.465c.1.329.378.869.219.988-.219.163-.458-.252-.537-.393q-.294-.528-.6-1.05-.6-1.045-1.248-2.066-.906-1.44-1.891-2.828c-1.109-1.559-2.484-4.412-4.649-4.249-.548.041-.786.645-.754,1.124.141,2.1,2.052,4.137,3.138,5.829l1.946,3.03.973,1.515a6.8,6.8,0,0,1,.527.957c.081.185.158.42-.043.556-.336.228-.639-.526-.8-.739-.852-1.1-1.745-2.159-2.684-3.177-1.126-1.221-2.345-2.873-3.977-3.312a.957.957,0,0,0-1.246,1.078c.2,1.9,1.667,3.108,2.815,4.512a51.453,51.453,0,0,1,3.353,4.616.407.407,0,0,1,.031.377c-.032.076-.061.152-.09.229a.377.377,0,0,1-.621.146c-.768-.757-1.519-1.531-2.293-2.3a4.583,4.583,0,0,0-3.183-1.6,1.022,1.022,0,0,0-1,1.242.642.642,0,0,0,.165.257q2.364,2.429,4.632,4.954a41.645,41.645,0,0,1,3.521,4.871,28.019,28.019,0,0,0,1.41,2.587c.506.864,1.065,1.691,1.638,2.509a20.779,20.779,0,0,1,2.5,4.722q1.846,5,3.914,9.913a.847.847,0,0,0,1.6-.03.391.391,0,0,1,.2-.221,7.41,7.41,0,0,0,2.626-1.98c.985-1.128,1.967-3.493,3.32-4.066a.772.772,0,0,0,.488-.755.855.855,0,0,0,.336-1.213,62.316,62.316,0,0,1-4.169-9.842,1.566,1.566,0,0,1-.012-.947c.956-3.085.79-8.221.719-9.832a34.133,34.133,0,0,0-1.371-6.807" transform="translate(-163.781 -1.222)" fill="#ff9e63"/>
        <path id="Caminho_771072" data-name="Caminho 771072" d="M435.526,305.41c.582-.251.852-1.075.126-1.393-7.339-3.208-15.354-3.441-23.283-4.142L385.1,297.465a.891.891,0,0,0-1.61.1q-.948,3.009-1.688,6.065c-4.7,12.3-8.337,21.271-10.314,30.682-.126.6,47.115,4.064,66.373.269a.694.694,0,0,0,.586-.879c1.308-7.94-1.608-20.294-2.922-28.291" transform="translate(-182.545 -145.943)" fill="url(#linear-gradient-5)"/>
        <path id="Caminho_771073" data-name="Caminho 771073" d="M405.671,125.4c-2.989-6.357-6.637-9.508-11.09-14.95-6.572-8.032-9.424-18.633-12.739-28.212a72.351,72.351,0,0,0-6.6-13.371.634.634,0,0,1-.083-.449c-1.355-2.8-2.2-8.935-6.329-6.922-7.432,3.626-12.767,8.676-11.581,11.644.273.682,2.716,8.107,2.711,8.841-.031,4.524,1.834,9.039,3.507,13.319,2.414,6.177,2.577,12.685,4.055,19.074a58.59,58.59,0,0,0,4.766,13.175c2.129,4.218,4.208,8.075,6.032,12.458,2.981,7.164,5.416,14.523,9.437,21.206a1.085,1.085,0,0,0,.882.576,1.268,1.268,0,0,0,1.708-.278,138.72,138.72,0,0,0,11.866-16.9c1.691-2.838,3.95-6.014,4.977-9.173.824-2.535-.477-7.819-1.52-10.038" transform="translate(-175.467 -30.024)" fill="url(#linear-gradient-6)"/>
        <path id="Caminho_771074" data-name="Caminho 771074" d="M458.157,109.888c.209-2.845,1.364-4.473,2.421-7.117,2.587-6.466-2.621-13.6-8.722-15.643-9.95-3.328-19.539,5.464-19.466,15.476a59.847,59.847,0,0,0,1.244,9.739,37.841,37.841,0,0,0,2.514,8.93c1.094,2.329,4.429,2.459,6.626,2.377,4.413-.164,10.316-2.135,12.848-6.237a14.683,14.683,0,0,0,2.523-7.352c0-.058.008-.116.012-.173" transform="translate(-212.472 -42.461)" fill="#ff9e63"/>
        <path id="Caminho_771075" data-name="Caminho 771075" d="M609.332,16.745c-2.044,1.11-4.876,2.88-6.92,3.99a.469.469,0,0,1-.7-.393l0-.042a.473.473,0,0,1,.164-.381c1.43-1.213,3.706-2.447,5.12-3.678,1.592-1.386,3.815-3.4,3.736-5.748a1.081,1.081,0,0,0-1.6-.958,48.859,48.859,0,0,0-4.151,3.2c-.688.566-1.378,1.13-2.092,1.664a7.681,7.681,0,0,1-2.107,1.368c-.726.21-1.776-.578-1.045-1.29a37.841,37.841,0,0,0,5.005-5.834c1.208-1.91,3.1-4.51,2.124-6.811a1.08,1.08,0,0,0-1.68-.239,31.45,31.45,0,0,0-4.042,5.313,67.546,67.546,0,0,1-5.058,5.874.478.478,0,0,1-.452.138.47.47,0,0,1-.33-.668c.514-1.046,1.641-3.08,2.114-4.144.6-1.358,4.341-7.963.978-8.109-1.269-.054-2.342,2.283-2.937,3.22-.855,1.348-4.674,7.874-5.44,9.268a10.834,10.834,0,0,1-1.7,2.543c-.186.174-.378.351-.569.528.288-3.1.737-6.995-2.41-7.828-.594-.157-1.444.286-1.37,1,.466,4.485-.663,8.845-1.239,13.263a.348.348,0,0,1-.012.055c-.643,2.183-.353,4.72-.089,7.061a.464.464,0,0,1-.033.229,92.832,92.832,0,0,1-6.516,12.936c1.363,1.988,8.933,4.615,11.017,4.2,2.991-3.714,5.417-12.437,6.837-13.984,1.073-1.17,6.545-5.253,7.417-6.562a4.612,4.612,0,0,1,1.788-1.582c2.008-.993,2.069-1.045,4.038-2.1,1.659-.892,3.7-2.536,3.746-4.546a1.081,1.081,0,0,0-1.6-.958" transform="translate(-283.083 0)" fill="#ff9e63"/>
        <path id="Caminho_771076" data-name="Caminho 771076" d="M460.636,184.19a12.865,12.865,0,0,0-5.438-8.155,51.975,51.975,0,0,0-9.394-5.269c-1.128-.506-2.268-1-3.439-1.4-.873-.3-2.267-.416-2.394.277-.281.08-18.181-.733-19.13-.68-3.941.225-9.647-2.62-13.4-1.283-3.481,1.241-5.568,8.46-7.135,11.46-.239.458-.506.9-.784,1.339a49.02,49.02,0,0,0-7.715,19.421,70.573,70.573,0,0,0,.071,19.964,4.233,4.233,0,0,1-.251,2.1,63.913,63.913,0,0,0-2.867,8.76,15.857,15.857,0,0,0-.195,6.184c.525,2.938,1.97,3.925,5,3.194,7.384-1.782,16.347-.8,23.788.7a126.231,126.231,0,0,1,14.17,3.552c1.969.619,9.422.78,11.46.36,2.106-.434,3.871-2.887,4.863-4.57,5.015-8.51,16.66-42.236,13.006-54.947-.1-.344-.14-.692-.218-1.021" transform="translate(-190.831 -82.222)" fill="url(#linear-gradient-7)"/>
        <path id="Caminho_771077" data-name="Caminho 771077" d="M450.156,174.163c-.862,8.867-3.874,17.518-6.855,25.861a56.219,56.219,0,0,0-3.036,12.311,104.574,104.574,0,0,0-.532,14.767c.116,5.346.448,10.684.563,16.03a.254.254,0,0,0,.509,0c-.206-9.562-1.108-19.152-.249-28.708a53.191,53.191,0,0,1,2.915-13.366c1.453-4.041,2.85-8.105,4.066-12.225a79.11,79.11,0,0,0,3.129-14.669c.032-.326-.477-.323-.509,0" transform="translate(-216.057 -85.462)" fill="#2d0a0a"/>
        <path id="Caminho_771078" data-name="Caminho 771078" d="M539.8,75.018a7.32,7.32,0,0,0-1.446-2.772,33.675,33.675,0,0,0-3.665-4.478c-2.059-2.1-5.188-4.579-8.341-4.613-1.609-.017-9.336,8.649-16.561,18.341-5.03,6.746-7.762,13.916-13.513,20.074-5.311,5.688-13.543,8.243-19.852,21.013-3.082,6.24-7.818,1.278-10.738,6.607-.377.689-.369,5.892.184,6.14A81.508,81.508,0,0,1,478.819,165a1.231,1.231,0,0,0,1.527.965c.341.054,8.694-.72,8.91-1.13,5.176-9.825,8.2-5.206,9.149-14.518,1.021-10.012,10.049-19.434,13.92-26.769,3.619-6.857,8.962-13.8,13.591-19.923,4.564-6.034,7.131-11.034,8.113-18.424a4.439,4.439,0,0,1,1.7-3.026,53.183,53.183,0,0,0,3.747-5.515,2.43,2.43,0,0,0,.327-1.643" transform="translate(-228.705 -31.034)" fill="url(#linear-gradient-8)"/>
        <path id="Caminho_771079" data-name="Caminho 771079" d="M470.686,165.008a28.118,28.118,0,0,0-2.411-7,.82.82,0,0,0-.238-.294,1.017,1.017,0,0,0-1.374.116c-10.937,8.806-14.9,5.52-15.431,4.626a.638.638,0,0,1-.073-.186c-.055-.077-.117-.15-.167-.23a.758.758,0,0,0-.811.555,27.877,27.877,0,0,0-.888,12.331.637.637,0,0,0,.026.2c0,.023.006.047.009.071.135.865,1.271.681,1.512-.016a.891.891,0,0,0,.054-.108,60.151,60.151,0,0,1,3.735-7.894.291.291,0,0,1,.538.086,23.291,23.291,0,0,0,2.9,7.18,2.412,2.412,0,0,0,1.378.873,1.607,1.607,0,0,0,.664-.258,34.937,34.937,0,0,0,5.6-3.923c1.764-1.544,3.078-3.434,4.719-5.082a.763.763,0,0,0,.155-.425.845.845,0,0,0,.1-.621" transform="translate(-220.622 -77.391)" fill="#9fe6af"/>
        <path id="Caminho_771080" data-name="Caminho 771080" d="M449.313,170.973a19.811,19.811,0,0,0-.682,6.484c.066,1.007.055,3.821,1.307,4.3,1.061.4,1.633-1.867,1.953-2.506a45.94,45.94,0,0,1,2.992-5.339l-.465-.061a55.52,55.52,0,0,0,1.908,5.421c.511,1.187,1.146,2.609,2.672,2.41.32-.042.325-.551,0-.509-1.723.225-2.428-2.573-2.873-3.788s-.833-2.44-1.216-3.67a.258.258,0,0,0-.465-.061,35.117,35.117,0,0,0-2.035,3.463c-.326.622-.642,1.248-.957,1.876-.229.458-.561,1.641-.967,1.934-1.072.775-1.381-3.942-1.384-4.623a19.485,19.485,0,0,1,.7-5.192.254.254,0,0,0-.49-.135" transform="translate(-220.432 -83.926)" fill="#2d0a0a"/>
        <path id="Caminho_771081" data-name="Caminho 771081" d="M437.22,113.876a1.73,1.73,0,0,0-.17-.153c-1.6-1.248-4.221-.015-5,1.778a1.352,1.352,0,0,0-.083.849c.229,1.015.912,1.475,1.822,1.046.961-.452,2.6-.35,3.607-.613,1.324-.345.554-2.16-.179-2.907" transform="translate(-212.249 -55.633)" fill="#c45d31"/>
        <path id="Caminho_771082" data-name="Caminho 771082" d="M462.284,112.172a5.389,5.389,0,0,0-4.358-1.275c-1.363.172-3.09.917-3.015,2.729.1,2.514,3.543.795,4.749.769a6.4,6.4,0,0,0,2.268-.092,1.245,1.245,0,0,0,.356-2.131" transform="translate(-223.537 -54.469)" fill="#c45d31"/>
        <path id="Caminho_771083" data-name="Caminho 771083" d="M426.926,95c2.191-5.474,9.946-10.773,15.653-11.292,6.742-.613,14.254.456,17.545,7.236,2.766,5.7,2.439,12.658-.118,18.408a5.631,5.631,0,0,1-5.512,3.736,5.723,5.723,0,0,0-2.845-1.792,5.585,5.585,0,0,1-2.516-1.389c-2.269-2.551.131-6.451-2.81-8.791-1.174-.935-3.067-.807-4.368-1.587A5.005,5.005,0,0,1,439.84,97a9.85,9.85,0,0,1-.575-4.157,1.131,1.131,0,0,0-.644.013,5.656,5.656,0,0,0-1.478.718c-1.626.64-2.538,2.22-3.243,3.894-.946,2.245-2.9,1.767-3.5,3.787-.168.571.445,4.683-.64,4.348-3.641-1.122-4.02-7.658-2.838-10.61" transform="translate(-209.492 -41.059)" fill="#c45d31"/>
        <path id="Caminho_771084" data-name="Caminho 771084" d="M481.154,120.652a5.589,5.589,0,0,0,.872,2.177.6.6,0,0,0,.809.133c2.415-1.74,2.581-8.3-.207-7.4a4.425,4.425,0,0,0-2.3,1.873c-.482.908.357,1.77.639,2.6.071.208.129.414.183.618" transform="translate(-235.958 -56.744)" fill="#ff9e63"/>
        <path id="Caminho_771085" data-name="Caminho 771085" d="M367.73,35.762c-1.264,3.236-2.165,6.807-.4,10.04.157.287.6.031.439-.257-1.692-3.1-.754-6.555.454-9.648.119-.305-.372-.437-.49-.135" transform="translate(-180.017 -17.489)" fill="#a5422f"/>
        <path id="Caminho_771086" data-name="Caminho 771086" d="M599.611,34.641a12.918,12.918,0,0,1,1.527,9.887c-.078.318.412.454.49.135a13.439,13.439,0,0,0-1.578-10.279c-.17-.279-.61-.024-.439.257" transform="translate(-294.623 -16.837)" fill="#a5422f"/>
        <path id="Caminho_771087" data-name="Caminho 771087" d="M406.453,186.615a54.694,54.694,0,0,0-3.7,6.828c-1.038,2.491-1.762,5.12-2.61,7.679-.1.312.388.445.49.135.825-2.492,1.534-5.047,2.528-7.481a52.763,52.763,0,0,1,3.726-6.9.254.254,0,0,0-.439-.257" transform="translate(-196.621 -91.641)" fill="#2d0a0a"/>
        <path id="Caminho_771088" data-name="Caminho 771088" d="M396.9,270.417a78.47,78.47,0,0,0,1.744,12.662c.071.319.561.184.49-.135a77.656,77.656,0,0,1-1.725-12.527c-.018-.326-.527-.328-.509,0" transform="translate(-195.031 -132.76)" fill="#2d0a0a"/>
        <path id="Caminho_771089" data-name="Caminho 771089" d="M433.6,300.186a83.424,83.424,0,0,0,7.855,5.456c.28.171.536-.268.257-.439a82.4,82.4,0,0,1-7.752-5.377c-.255-.2-.617.158-.36.36" transform="translate(-213.024 -147.303)" fill="#2d0a0a"/>
        <path id="Caminho_771090" data-name="Caminho 771090" d="M464.854,91.246c6.543,2.133,5.115,9.743,7.2,14.876.122.3.614.168.491-.135-2.176-5.363-.738-13.01-7.553-15.231-.312-.1-.445.389-.135.49" transform="translate(-228.337 -44.59)" fill="#8a3f1a"/>
        <path id="Caminho_771091" data-name="Caminho 771091" d="M464.875,144.059c-1,2.474-2.168,4.276-4.684,5.4a32.48,32.48,0,0,1-7.27,2.205c-.321.061-.185.551.135.491a29.809,29.809,0,0,0,8.134-2.608c2.24-1.157,3.26-3.1,4.175-5.354.123-.3-.369-.435-.49-.135" transform="translate(-222.47 -70.706)" fill="#a5422f"/>
        <path id="Caminho_771092" data-name="Caminho 771092" d="M482.821,108.224a17.21,17.21,0,0,0-.7-7.585c-.1-.31-.592-.178-.49.135a16.89,16.89,0,0,1,.684,7.45c-.042.323.467.32.509,0" transform="translate(-236.66 -49.366)" fill="#8a3f1a"/>
        <path id="Caminho_771093" data-name="Caminho 771093" d="M451.279,93.313c-.359-2.735,2.633-4.427,4.855-5.045a.254.254,0,0,0-.135-.49c-2.42.672-5.617,2.571-5.228,5.535.042.32.551.324.509,0" transform="translate(-221.488 -43.128)" fill="#8a3f1a"/>
        <path id="Caminho_771094" data-name="Caminho 771094" d="M483.373,118.585a6.571,6.571,0,0,0-2.4,4.94.254.254,0,0,0,.509,0,6.073,6.073,0,0,1,2.249-4.58c.252-.209-.109-.567-.36-.36" transform="translate(-236.346 -58.241)" fill="#a5422f"/>
        <path id="Caminho_771095" data-name="Caminho 771095" d="M588.4,88.693a17.455,17.455,0,0,0-12.078-9.753c-.319-.07-.455.42-.135.49a16.979,16.979,0,0,1,11.774,9.519c.136.3.574.039.439-.257" transform="translate(-283.039 -38.787)" fill="#2d0a0a"/>
        <path id="Caminho_771096" data-name="Caminho 771096" d="M362.631,87.926c3.682-4.427,7.748-9.144,13.735-10.148.322-.054.186-.544-.135-.49-6.071,1.018-10.224,5.787-13.959,10.279-.208.25.15.611.36.36" transform="translate(-177.985 -37.976)" fill="#2d0a0a"/>
        <path id="Caminho_771097" data-name="Caminho 771097" d="M407.692,117.244l1.163,9.922c.038.321.547.325.509,0l-1.163-9.922c-.038-.321-.547-.325-.509,0" transform="translate(-200.334 -57.493)" fill="#2d0a0a"/>
        <path id="Caminho_771098" data-name="Caminho 771098" d="M462.11,123.363a1.089,1.089,0,0,0-1.208-.492c-1.34.386-1.2,2.1-.732,3.115.317.686,1.169,1.331,1.886.795.988-.739.567-2.521.054-3.418" transform="translate(-225.959 -60.359)" fill="#260505"/>
        <path id="Caminho_771099" data-name="Caminho 771099" d="M440.017,125.233a.914.914,0,0,0-1.065-.492c-1.18.386-1.059,2.1-.645,3.115.28.686,1.03,1.331,1.662.795.87-.739.5-2.521.048-3.418" transform="translate(-215.235 -61.278)" fill="#260505"/>
        <path id="Caminho_771100" data-name="Caminho 771100" d="M450.989,134.314c.268-.492.89-.369,1.339-.259.318.078.454-.412.135-.49-.682-.167-1.524-.222-1.913.493-.157.288.282.545.439.257" transform="translate(-221.379 -65.58)" fill="#a5422f"/>
        <path id="Caminho_771101" data-name="Caminho 771101" d="M446.374,130.135a3.053,3.053,0,0,0-.578,2.457,2.235,2.235,0,0,0,1.715,1.4.254.254,0,0,0,.135-.49c-.7-.189-1.36-.57-1.421-1.371a2.958,2.958,0,0,1,.587-1.74c.173-.279-.266-.535-.439-.257" transform="translate(-219.017 -63.888)" fill="#a5422f"/>
        <path id="Caminho_771102" data-name="Caminho 771102" d="M452.955,138.774c-.953-.4-1.807.128-2.735.393a12.084,12.084,0,0,1-2.6.432c-.521.031-1.967-.275-2.258.213-.611,1.024.6,2.677,1.6,2.963,2.444.7,5.865-.607,6.37-3.342a.557.557,0,0,0-.374-.658" transform="translate(-218.763 -68.122)" fill="#ad4d37"/>
        <path id="Caminho_771103" data-name="Caminho 771103" d="M454.811,139.342a.552.552,0,0,0-.376-.567c-.953-.4-1.807.128-2.735.392a12.119,12.119,0,0,1-2.6.432c-.2.012-.537-.026-.891-.049.095,2.315,4.416.833,6.607-.209" transform="translate(-220.242 -68.122)" fill="#fff"/>
        <path id="Caminho_771104" data-name="Caminho 771104" d="M533.66,126.388a80.449,80.449,0,0,1-7.218,11.282c-.2.26.243.514.439.257a80.408,80.408,0,0,0,7.218-11.282c.153-.289-.286-.547-.44-.257" transform="translate(-258.663 -62.043)" fill="#2d0a0a"/>
        <path id="Caminho_771105" data-name="Caminho 771105" d="M469.476,183.165a25.852,25.852,0,0,0,10.031-8.909c.19-.268-.251-.522-.439-.257a25.311,25.311,0,0,1-9.849,8.727c-.3.139-.038.578.257.439" transform="translate(-230.504 -85.446)" fill="#2d0a0a"/>
        <path id="Caminho_771106" data-name="Caminho 771106" d="M487.345,137.634a1.937,1.937,0,0,1-1.094,1.054c-.3.115-.172.607.135.491a2.5,2.5,0,0,0,1.449-1.409c.126-.3-.366-.433-.49-.135" transform="translate(-238.854 -67.549)" fill="#8a3f1a"/>
        <path id="Caminho_771107" data-name="Caminho 771107" d="M491.27,172.638c-1,1.523-1.37,3.28-2.135,4.912-.138.294.3.553.439.256.763-1.629,1.139-3.393,2.135-4.912.18-.275-.26-.529-.439-.257" transform="translate(-240.342 -84.775)" fill="#2d0a0a"/>
        <path id="Caminho_771108" data-name="Caminho 771108" d="M504.133,186.236a203.728,203.728,0,0,0-5.9,22.7c-.064.319.426.456.49.135a203.8,203.8,0,0,1,5.9-22.7c.1-.312-.39-.446-.49-.135" transform="translate(-244.821 -91.428)" fill="#2d0a0a"/>
        <path id="Caminho_771109" data-name="Caminho 771109" d="M367.663,344.99c-10.251-1.243-30.2-.257-40.461-.374q-16.834-.192-33.67-.252-33.67-.134-67.341.048-67.329.256-134.658.566c-11.1.047-51.656-.244-66.754-.076-3.8.042-7.9,5.646-10.672,8.242q-6.114,5.722-12.023,11.734a7.438,7.438,0,0,0-1.855,2.548c-.825,2.224.693,4.622,2.685,4.64,60.5.54,210.486.113,249.809-.007,20.195-.063,73.936,1.092,94.124.48,8.323-.252,22.331-24.169,22.431-24.426a2.283,2.283,0,0,0-1.615-3.122" transform="translate(0 -169.194)" fill="#f7ead7"/>
        <path id="Caminho_771110" data-name="Caminho 771110" d="M313.508,65.257c-2.72-1.548-6.442-1.012-8.14,1.268a7.942,7.942,0,0,0-.38,8.673,1.434,1.434,0,0,0,1.035.754,1.5,1.5,0,0,0,.855.148c3.172-.313,6.438-1.615,8.033-4.431,1.372-2.42,1.185-4.939-1.4-6.412" transform="translate(-149.325 -31.634)" fill="#592217"/>
        <path id="Caminho_771111" data-name="Caminho 771111" d="M254.623,111.567a4.668,4.668,0,0,0,4.382,4.334l.08,0c2.772.068,5.577-1.188,8.284-.1,2.081.832,3.378,2.77,5.243,3.932,2.886,1.8,6.7,1.255,9.683.032,2.438-1,4.327-1.39,6.861-.525,2.851.973,5.606,2.914,8.759,1.986,3.731-1.1,3.9-5.341,3.546-8.89-.054-.274-.112-.548-.177-.821a65.351,65.351,0,0,0-3.732-9.9c-1.591-3.752-2.3-7.869-3.751-11.692-2.156-5.665-9.211-7.83-14.757-8.223-4.976-.353-10.314.687-13.734,4.545-2.106,2.376-2.379,5.076-3.433,7.89-1.291,3.445-3.768,5.746-5.958,8.611a7.572,7.572,0,0,0-1.7,6.548,22.452,22.452,0,0,1,.4,2.279" transform="translate(-124.836 -40.111)" fill="#592217"/>
        <path id="Caminho_771112" data-name="Caminho 771112" d="M229.445,187.584c2.477,14.744,4.173,29.593,6.213,44.4q.952,6.909,2.032,13.8c.05.322.541.186.49-.135-2.346-14.915-4.015-29.92-6.166-44.862q-.962-6.68-2.079-13.336c-.054-.322-.544-.186-.49.135" transform="translate(-112.745 -92.02)" fill="#2d0a0a"/>
        <path id="Caminho_771113" data-name="Caminho 771113" d="M359.322,272.389c-8.279-9.786-13.926-17.147-17.595-29.545-.692-3.4-1.015-8.483-1.456-11.922-1.228-9.592-2.339-21.854-7.48-30.26a1.475,1.475,0,0,1-.864-.266c-5.811-2.056-8.918,4.44-9.037,9.214-.2,8.026,1.123,16.4,2.295,24.318q.925,6.25,2.172,12.446c1.074,5.335,1.765,9.255,5.341,13.475,4.874,5.752,10.23,13.984,16.08,18.777.747,1.427,8.664-.194,12.627-1.61,2.782-.994-.9-4.8-2.083-4.627" transform="translate(-158.655 -98.28)" fill="#b05641"/>
        <path id="Caminho_771114" data-name="Caminho 771114" d="M345.807,220.817a212.167,212.167,0,0,0-6.193-21.656c-1.823-5.27-3.967-10.95-8.574-13.964-.387-.253-8.073,1.255-9.828,3.763a6.653,6.653,0,0,0-.873,4.137c.022,2.622.078,5.24.053,7.863-.046,4.912-.183,9.826.009,14.737.144,3.659,1.383,11.8,1.737,13.96a1.008,1.008,0,0,0,.637.785c1.588.6,6.547,1.905,13.559-.358,4.024-1.3,7.876-4.072,9.29-8.264a.764.764,0,0,0,.032-.37.675.675,0,0,0,.15-.632" transform="translate(-157.393 -90.99)" fill="url(#linear-gradient-9)"/>
        <path id="Caminho_771115" data-name="Caminho 771115" d="M286.763,184.258c-1.642-5.591-3.775-11.434-7.812-15.877-4.766-5.245-11.747-8.358-17.817-11.789a.7.7,0,0,0-.4-.33,234.7,234.7,0,0,0-23.83-6.685,107.158,107.158,0,0,0-11.023-2.16c-3.036-.347-5.828.674-8.527,2.026-2.517,1.26-1.687,7.665-1.576,10.106.177,3.9-.6,6.723.457,10.462a253.523,253.523,0,0,0-5.308,32.549c-.189,2.07-.667,8.109-.683,10.276,2.633,7.146,20.394,16.342,46.633,9.293,1.018-1.623,4.455-10.241,5.365-12.333,1.546-2.6,3.13-7.409,4.472-10.135a63.069,63.069,0,0,0,17.734-14.179c.432-.014,2.486-.667,2.321-1.226" transform="translate(-103.309 -72.406)" fill="url(#linear-gradient-9)"/>
        <path id="Caminho_771116" data-name="Caminho 771116" d="M274.094,185.287c-.234,15.9-7.2,30.865-12.032,45.74A111.749,111.749,0,0,0,258.783,243c-.066.319.424.456.49.135,3.188-15.493,10.523-29.8,13.812-45.276a65.163,65.163,0,0,0,1.518-12.578.254.254,0,0,0-.509,0" transform="translate(-127.16 -90.927)" fill="#2d0a0a"/>
        <path id="Caminho_771117" data-name="Caminho 771117" d="M479.742,202.815c-.116-.333-7.381-1.255-10.677-1a3.687,3.687,0,0,0-2.492.693c-.811.793-1.527,4.543-1.345,4.776a.885.885,0,0,0,.905.955l11.875.208a1.012,1.012,0,0,0,.612-.178.849.849,0,0,0,.466-.6,33.972,33.972,0,0,0,.811-4.193.9.9,0,0,0-.156-.665" transform="translate(-228.594 -99.148)" fill="#fff"/>
        <path id="Caminho_771118" data-name="Caminho 771118" d="M283.553,165.428c3.611.234,7.926-5.269,9.649-8.105a103.276,103.276,0,0,0,3.674-12.646c.05-.253-2.739.552-3.591.383a18.068,18.068,0,0,0-4.643-.312,34.547,34.547,0,0,1-4.867.28,8.5,8.5,0,0,0-3.917.246.215.215,0,0,0-.108.091.231.231,0,0,0-.078.164,31.31,31.31,0,0,1-2.165,8.887c.741,3.528,2.387,10.774,6.045,11.012" transform="translate(-136.364 -71.068)" fill="#b05641"/>
        <path id="Caminho_771119" data-name="Caminho 771119" d="M433.972,56.184q-3.289-6.986-5.918-14.25c-.11-.305-.6-.173-.49.135q2.65,7.322,5.969,14.371c.139.3.578.038.439-.257" transform="translate(-210.091 -20.521)" fill="#2d0a0a"/>
        <path id="Caminho_771120" data-name="Caminho 771120" d="M427.666,68.264a53.466,53.466,0,0,1-5.311-6.814c-.179-.273-.619-.018-.439.257a54.289,54.289,0,0,0,5.391,6.917c.222.242.581-.118.36-.36" transform="translate(-207.304 -30.139)" fill="#2d0a0a"/>
        <path id="Caminho_771121" data-name="Caminho 771121" d="M179.2,173.572a29.288,29.288,0,0,0-.071-15.777.784.784,0,0,0-.272-.411.674.674,0,0,0-.829-.5c-6.635,1.442-13.3,2.386-20.028,3.238-4.691.594-7.407,5.878-7.113,10.242.282,4.189-2.436,5.753,1.582,6.773,3.622.92,17.78-.479,21.607-1.562,3.587-1.016,6.573-.525,5.123-2" transform="translate(-73.829 -77.079)" fill="#b05641"/>
        <path id="Caminho_771122" data-name="Caminho 771122" d="M299.485,97.018a10.966,10.966,0,0,0-4.908-8.351c-5.07-3.336-13.985-2.1-17.319,3.029-2.878,4.425-2.864,9.622-2.579,14.671.229,4.069.991,8.576,3.854,11.791a10.494,10.494,0,0,0,3.76,2.685,11.94,11.94,0,0,0,5.433.781c6.752-.456,9.474-8.111,10.644-13.44.758-3.458,1.549-7.484,1.115-11.167" transform="translate(-134.914 -42.657)" fill="#b05641"/>
        <path id="Caminho_771123" data-name="Caminho 771123" d="M290.766,158.811c-.121-.184-.3-.232-.428-.128a17.917,17.917,0,0,1-9.814,10.119,1.025,1.025,0,0,1-1.137-.2c-3.34-3.336-5.058-8.991-4.078-15.211-1.307-.089-4.142,1.817-4.789,5.5-.029.167.148.554.107.718a22.229,22.229,0,0,0,.453,12.23c.147.395.3.785.478,1.168a11.8,11.8,0,0,0,1.079,1.9,3.7,3.7,0,0,0,.635.8c1.22.926,2.191-.951,2.694-1.8.3-.5,3.239-4.783,3.886-4.174a.205.205,0,0,0,.136.059,25.966,25.966,0,0,0,1.517,3.549c.406.97.707,1.99,1.04,2.99.218.657.606.855.994.673,4.027-1.891,7.8-10.592,8.363-13.6a13.353,13.353,0,0,0-1.135-4.588" transform="translate(-132.664 -75.371)" fill="#f7ead7"/>
        <path id="Caminho_771124" data-name="Caminho 771124" d="M224.458,148.908c-4.577-1.475-11.277-1.642-15.993-1.1a102.771,102.771,0,0,0-14.973,2.881c-.711.192-.929,2.222-1.07,2.839a37.934,37.934,0,0,0-.354,12.7,44.1,44.1,0,0,0,1.529,7.705,16.591,16.591,0,0,0,3.021,6.418.233.233,0,0,0,.165.081.22.22,0,0,0,.227.242,18.051,18.051,0,0,0,7.714-2.154c2.835-1.331,5.656-2.689,8.484-4.033a.255.255,0,0,0,.082-.062c1.276.016,1.945-1.739,2.454-2.745,1.211-2.394,2.251-4.868,3.259-7.354,1.951-4.811,5.718-15.333,5.454-15.418" transform="translate(-94.202 -72.492)" fill="url(#linear-gradient-11)"/>
        <path id="Caminho_771125" data-name="Caminho 771125" d="M325.5,226.9a127.544,127.544,0,0,1-11.478,17c-.2.253.155.615.36.36a128.365,128.365,0,0,0,11.558-17.1.255.255,0,0,0-.439-.257" transform="translate(-154.279 -111.435)" fill="#2d0a0a"/>
        <path id="Caminho_771126" data-name="Caminho 771126" d="M224.571,196.2a24.657,24.657,0,0,1-7.247,5.45c-.293.145-.036.584.256.439a25.01,25.01,0,0,0,7.35-5.529c.221-.241-.138-.6-.36-.36" transform="translate(-106.727 -96.37)" fill="#2d0a0a"/>
        <path id="Caminho_771127" data-name="Caminho 771127" d="M162.889,96.254c.535-2.53.957-6.4-1.59-7.786-2-1.089-7.192,3.023-7.384,3.507a150.25,150.25,0,0,0-8.783,29.972c-1.378,7.31-4,20.185,4.323,21.083,4.634.5,10.64.911,11.1-4.406.3-3.444-.607-2.869-1.338-6.282-.757-3.535-.214-11.75.081-15.465.692-8.715,1.993-13.066,3.593-20.624" transform="translate(-70.577 -43.382)" fill="#b05641"/>
        <path id="Caminho_771128" data-name="Caminho 771128" d="M182.379,72.976c-.992-1.454-2.715-2.219-4.312-2.972-1.714-.809-3.471-1.991-5.434-2.168-4.634-.419-6.693,5.289-8.19,8.263a85.459,85.459,0,0,0-4.619,11.521,91.76,91.76,0,0,0,9.195,2.386c.039.007-.57-1.784-.533-1.789a9.981,9.981,0,0,0,5.238-.245,15.086,15.086,0,0,0,4.792-3.346c1.012-.906,2.22-1.654,2.112-3.05-.05-.643-.137-1.355-.266-2.078a.751.751,0,0,1,.253-.709c1.852-1.576,3.3-3.56,1.764-5.813" transform="translate(-78.532 -33.323)" fill="#b05641"/>
        <path id="Caminho_771129" data-name="Caminho 771129" d="M191.854,85.263c-.022-.909-.265-2.763-1.282-3.136s-1.771.674-1.914,1.527a7.8,7.8,0,0,0,.014,1.847,3.661,3.661,0,0,1,.044.912c-.153.755-.726.971-1.384,1.163a6.143,6.143,0,0,0-4.3,3.563c-.126.3.312.557.439.257a5.751,5.751,0,0,1,4.149-3.366c.831-.235,1.477-.634,1.6-1.538.137-.989-.344-2.049,0-3.027.41-1.18,1.349-1.031,1.762-.018a5.3,5.3,0,0,1,.368,1.815.254.254,0,0,0,.509,0" transform="translate(-89.927 -40.318)" fill="#753127"/>
        <path id="Caminho_771130" data-name="Caminho 771130" d="M181.146,75.228a4.021,4.021,0,0,1,1.81,2.535,6.121,6.121,0,0,1-1.178,3.285c-.774,1.073-1.939.707-3.04.458-.6-.136-1.362-.3-1.531-1.051-.4-1.795,1.862-1.111,2.649-.746.295.137.554-.3.257-.439-1.093-.506-3.158-1.1-3.428.692-.287,1.9,2.176,2.065,3.437,2.323a1.631,1.631,0,0,0,1.7-.338,9.821,9.821,0,0,0,1.48-2.929c.6-1.6-.555-3.4-1.9-4.228-.279-.173-.535.267-.257.439" transform="translate(-86.81 -36.731)" fill="#753127"/>
        <path id="Caminho_771131" data-name="Caminho 771131" d="M193.734,75.314a5.364,5.364,0,0,1,1.29,1.468,2.987,2.987,0,0,1,.031,1.978c-.072.319.418.455.49.135a3.652,3.652,0,0,0,0-2.178,5.265,5.265,0,0,0-1.456-1.763c-.24-.222-.6.137-.36.36" transform="translate(-95.16 -36.797)" fill="#753127"/>
        <path id="Caminho_771132" data-name="Caminho 771132" d="M189.131,87.406a3.126,3.126,0,0,1-2.152,1.745,2.878,2.878,0,0,1-2.607-1.137c-.208-.253-.566.109-.36.36a3.387,3.387,0,0,0,3.037,1.289,3.654,3.654,0,0,0,2.521-2c.171-.28-.269-.536-.439-.257" transform="translate(-90.391 -42.891)" fill="#753127"/>
        <path id="Caminho_771133" data-name="Caminho 771133" d="M200.421,78.394c.712,1.074-.314,2.831-.969,3.714-.195.263.246.517.439.257.784-1.057,1.808-2.961.969-4.228-.18-.272-.621-.017-.439.257" transform="translate(-97.985 -38.338)" fill="#753127"/>
        <path id="Caminho_771134" data-name="Caminho 771134" d="M309.887,108.965c-.923-1.67-3.557-2.151-5.254-1.91-1.334.19-3.326,1.6-2.1,3.055a.507.507,0,0,0,.171.135,1.76,1.76,0,0,0,1.205.458c1.242.028,2.416-.389,3.689-.243.675.077,1.589.48,2.165-.084a1.163,1.163,0,0,0,.119-1.41" transform="translate(-148.474 -52.577)" fill="#592217"/>
        <path id="Caminho_771135" data-name="Caminho 771135" d="M276.364,109.26c.5.634,1.456.354,2.135.366,1.282.021,2.39.588,3.626.723a1.763,1.763,0,0,0,1.255-.3.51.51,0,0,0,.187-.111c1.41-1.281-.381-2.939-1.679-3.3-1.651-.461-4.326-.328-5.458,1.207a1.163,1.163,0,0,0-.066,1.414" transform="translate(-135.698 -52.286)" fill="#592217"/>
        <path id="Caminho_771136" data-name="Caminho 771136" d="M326.374,116.708c-1.294-.583-2.54,1.161-2.946,2.161s-1.213,4.909.079,5.569c1.108.567,2.307-3.018,2.6-3.693.4-.929,1.8-3.347.269-4.037" transform="translate(-158.623 -57.292)" fill="#b05641"/>
        <path id="Caminho_771137" data-name="Caminho 771137" d="M290.5,96.425c1.289,1.038,2.744,1.591,3.639,3.04.371.6.614,1.286,1.018,1.87a2.81,2.81,0,0,0,3,1.12,1.7,1.7,0,0,0,1.329-2.135c-.121-.429-.245-.857-.344-1.291-.441-1.946-.007-3.557.153-5.481a6.655,6.655,0,0,0-3.35-6.116c-2.477-1.571-5.507-1.732-8.37-1.791a3.755,3.755,0,0,0-.941-.656c-2.862-1.381-6.026.11-8.519,1.585-6.361,3.764-6.395,12.54-6.475,19.065a.254.254,0,0,0,.492.1c1.281-4.009,2.9-8,6.648-10.285a10,10,0,0,0,3.372-2.856,7.9,7.9,0,0,1,2.23-2.193.674.674,0,0,1,1.028.4,5.6,5.6,0,0,0,.248.863c.846,2.256,2.994,3.331,4.791,4.728a.462.462,0,0,1,.054.028" transform="translate(-133.478 -41.491)" fill="#592217"/>
        <path id="Caminho_771138" data-name="Caminho 771138" d="M272.842,96.072a45.845,45.845,0,0,0-3.855,4.508,10.687,10.687,0,0,0-2.353,4.722,28.473,28.473,0,0,0,.164,3.158,8.94,8.94,0,0,1-1.13,3.194,8.021,8.021,0,0,0-.364,5.033c.075.318.565.184.49-.135-.53-2.261.057-4.006.985-6.045.7-1.54.322-2.737.307-4.355-.019-2.019,1.181-3.761,2.34-5.315a44.943,44.943,0,0,1,3.775-4.406c.228-.235-.131-.6-.36-.36" transform="translate(-130.249 -47.171)" fill="#2d0a0a"/>
        <path id="Caminho_771139" data-name="Caminho 771139" d="M297.626,89.086c-.213-.834.772-2.022,1.3-2.537a8.787,8.787,0,0,1,2.094-1.43c.29-.152.034-.591-.256-.439a8.181,8.181,0,0,0-2.682,2.043,3.382,3.382,0,0,0-.948,2.5.254.254,0,0,0,.49-.135" transform="translate(-145.989 -41.595)" fill="#2d0a0a"/>
        <path id="Caminho_771140" data-name="Caminho 771140" d="M307.9,117.632a1.166,1.166,0,0,0-1.747-.4c-.768.427-.84,1.762-.72,2.476.209,1.239,1.813,2.066,2.682.8a3.391,3.391,0,0,0-.216-2.875" transform="translate(-150.065 -57.494)" fill="#260505"/>
        <path id="Caminho_771141" data-name="Caminho 771141" d="M285.122,117.209a1.073,1.073,0,0,0-1.61-.484c-.739.373-.877,1.664-.8,2.364.13,1.213,1.584,2.1,2.463.921a3.413,3.413,0,0,0-.051-2.8" transform="translate(-138.912 -57.269)" fill="#260505"/>
        <path id="Caminho_771142" data-name="Caminho 771142" d="M296.091,133.085a41.438,41.438,0,0,1-7.038.136c-.842-.053.389,2,.616,2.245a3.956,3.956,0,0,0,2.572,1.2,3.787,3.787,0,0,0,4.178-3.272.283.283,0,0,0-.329-.305" transform="translate(-141.894 -65.396)" fill="#fff"/>
        <path id="Caminho_771143" data-name="Caminho 771143" d="M292.619,121.518a3.3,3.3,0,0,0-.909,2.529,2.763,2.763,0,0,0,1.706,1.623c.293.144.551-.295.257-.439-.663-.326-1.329-.642-1.423-1.452a2.9,2.9,0,0,1,.808-2c.2-.261-.244-.515-.439-.257" transform="translate(-143.32 -59.659)" fill="#753127"/>
        <path id="Caminho_771144" data-name="Caminho 771144" d="M296.637,127.17a.729.729,0,0,1,1.035-.026c.234.229.595-.131.36-.36a1.245,1.245,0,0,0-1.754.026c-.225.237.134.6.36.36" transform="translate(-145.552 -62.129)" fill="#753127"/>
        <path id="Caminho_771145" data-name="Caminho 771145" d="M282.237,148.375c1.417,2.214,4.982,3.35,7.466,3.393a12.294,12.294,0,0,0,8.472-3.7c.24-.224-.121-.583-.36-.36a11.906,11.906,0,0,1-7.716,3.552c-2.386.053-6.041-.982-7.424-3.141-.176-.275-.616-.02-.439.257" transform="translate(-138.668 -72.548)" fill="#753127"/>
        <path id="Caminho_771146" data-name="Caminho 771146" d="M290.867,160.348c.726,2.416.056,4.39-.854,6.633a37.005,37.005,0,0,1-2.958,5.916,15.327,15.327,0,0,1-2.023,2.729,2.256,2.256,0,0,1-1.782.821c-.627-.133-.818-.85-1.029-1.344-.682-1.594-1.424-3.165-2.137-4.745-.521-1.155-.661-1.233-1.5-.374a34.51,34.51,0,0,1-4.937,3.856c-2.532,1.788-3.43-3.308-3.712-4.965a26.176,26.176,0,0,1-.257-6.531,24.112,24.112,0,0,1,.776-4.533,5.326,5.326,0,0,1,.664-1.527c.658-1,2.054-2.756,3.32-2.921.32-.042.324-.551,0-.509-1.745.228-3.483,2.386-4.155,3.9a13.38,13.38,0,0,0-.815,3.2,27.569,27.569,0,0,0-.315,6.7c.183,2.363.52,5.107,1.861,7.123,1.226,1.843,2.37.894,3.839-.175.931-.678,1.852-1.373,2.747-2.1a15.6,15.6,0,0,0,1.223-1.032c.632-.631.522-.507.892.312q.681,1.507,1.363,3.013a11.92,11.92,0,0,0,1.238,2.73c1.152,1.368,3.02-.419,3.731-1.321a31.585,31.585,0,0,0,4.173-7.4c1.07-2.55,1.961-4.835,1.134-7.584a.254.254,0,0,0-.49.135" transform="translate(-132.221 -75.11)" fill="#2d0a0a"/>
        <path id="Caminho_771147" data-name="Caminho 771147" d="M401.741,345.716a1.624,1.624,0,0,0,.17-.5,2.028,2.028,0,0,0-1.056-2.026c-.8-.572-1.615-1.122-2.427-1.677A18.327,18.327,0,0,0,391.7,338.2c-3.888-.722-8.845,2.3-12.128-.69-.329-.3-7.977,2.694-9.189,3.278-1.254.6-2.78,1.961-2.072,2.918a10.455,10.455,0,0,0,6.334,4.47,22.975,22.975,0,0,0,3.464.637c2.03.249,4.011.827,6.041,1.047.937.1,3.006.258,3.018-1.158.01-1.131-1.61-1.543-2.456-1.793-.784-.231-1.6-.38-2.361-.686-.281-.114-.692-.526-.6-.866.152-.542.962-.256,1.327-.2,1.805.252,3.645.306,5.431.663a20.846,20.846,0,0,1,5.147,2.235c1.189.621,3.212,1.356,3.93-.25a.532.532,0,0,0,.044-.238,6.344,6.344,0,0,0,2.064.446c.882.011,2.353-.343,2.37-1.414a1.484,1.484,0,0,0-.321-.877" transform="translate(-180.893 -165.836)" fill="#b05641"/>
        <path id="Caminho_771148" data-name="Caminho 771148" d="M405.8,345.712a10.473,10.473,0,0,1,5.542,1.4,26.266,26.266,0,0,1,4.388,3.41c.234.229.595-.131.36-.36a25.766,25.766,0,0,0-4.878-3.728A10.952,10.952,0,0,0,405.8,345.2c-.328-.012-.327.5,0,.509" transform="translate(-199.284 -169.629)" fill="#753127"/>
        <path id="Caminho_771149" data-name="Caminho 771149" d="M421.448,347.3a26.519,26.519,0,0,0-5.663-4.057c-2.048-1.187-3.983-1.257-6.32-1.178-.326.011-.328.52,0,.509a24.849,24.849,0,0,1,3.047.018A7.919,7.919,0,0,1,415.9,343.9a24.883,24.883,0,0,1,5.187,3.758.254.254,0,0,0,.36-.36" transform="translate(-201.086 -168.076)" fill="#753127"/>
        <path id="Caminho_771150" data-name="Caminho 771150" d="M301.676,219.236a.553.553,0,0,0-.231-.045c-1.67-.174-2.525,3.232-2.682,4.438-.216,1.658,10.491,3.958,11.2,3.011a9.7,9.7,0,0,0,1.277-4.095c-.122-.913-6.778-2.6-9.566-3.31" transform="translate(-146.807 -107.705)" fill="#fff"/>
        <path id="Caminho_771151" data-name="Caminho 771151" d="M320.389,123.322a8.9,8.9,0,0,1-.212-2.45c.074-.72.3-1.415.37-2.135a6.238,6.238,0,0,0-.479-3c-.37-.925-1.377-2.1-2.344-1.668a.234.234,0,0,0-.273.049c-2.382,2.318-1.714,5.675-1.755,8.661-.049,3.485-2.276,6.739-1.459,10.245a.257.257,0,0,0,.425.112c1.18-1.188,2.447-.951,3.941-.993a1.266,1.266,0,0,0,1.342-1.116,18.628,18.628,0,0,0,.442-7.7" transform="translate(-154.325 -56.004)" fill="#592217"/>
        <path id="Caminho_771152" data-name="Caminho 771152" d="M308.562,107.294a6.4,6.4,0,0,1,2.04,1.455c.529.572.9,1.265,1.443,1.826.228.236.587-.124.36-.36-.594-.615-.994-1.38-1.6-1.989a6.8,6.8,0,0,0-1.987-1.373c-.3-.136-.554.3-.257.439" transform="translate(-151.559 -52.495)" fill="#2d0a0a"/>
        <path id="Caminho_771153" data-name="Caminho 771153" d="M318.681,118.049a3.425,3.425,0,0,0,3.641,1.128.255.255,0,0,0-.135-.491,2.928,2.928,0,0,1-3.146-1c-.206-.255-.564.107-.36.359" transform="translate(-156.566 -57.789)" fill="#2d0a0a"/>
        <path id="Caminho_771154" data-name="Caminho 771154" d="M330.337,130.862c1.463,3.291,4.695,7.4,2.045,10.94-.2.262.245.516.439.257,2.778-3.715-.514-8.01-2.045-11.453-.132-.3-.571-.04-.439.257" transform="translate(-162.312 -64.113)" fill="#2d0a0a"/>
        <path id="Caminho_771155" data-name="Caminho 771155" d="M318.543,101.764c-1.544-2.567-1.564-5.742-2.923-8.421-.956-1.884-2.581-4.491-5.077-3.5-.3.12-.169.612.135.491,2.955-1.177,4.832,3.534,5.478,5.646.623,2.041.829,4.177,1.948,6.038a.254.254,0,0,0,.439-.257" transform="translate(-152.514 -44.042)" fill="#2d0a0a"/>
        <path id="Caminho_771156" data-name="Caminho 771156" d="M312.29,83.664a9.556,9.556,0,0,0-5.413-1.481.254.254,0,0,0,0,.509,9.061,9.061,0,0,1,5.156,1.411c.278.175.534-.265.257-.439" transform="translate(-150.675 -40.382)" fill="#2d0a0a"/>
        <path id="Caminho_771157" data-name="Caminho 771157" d="M316.032,79.13a3.058,3.058,0,0,1,3.356-3.261c.327.025.325-.483,0-.509a3.56,3.56,0,0,0-3.864,3.769c.017.326.525.328.509,0" transform="translate(-155.042 -37.026)" fill="#2d0a0a"/>
        <path id="Caminho_771158" data-name="Caminho 771158" d="M254.4,344.4a.748.748,0,0,0-.667-1.074c-30.38-.313-63.758-.789-94.058-.213a34.5,34.5,0,0,0-3.272,1.534,2.525,2.525,0,0,0-1.13,3.373,6.675,6.675,0,0,0,.6,1.017,1.5,1.5,0,0,0,1.046.574c1.8.188,4.01-.116,5.682-.1q6.836.071,13.673.126,13.673.11,27.347.156,23.109.078,46.218-.028a.677.677,0,0,0,.647-.483,12.7,12.7,0,0,0,3.91-4.884" transform="translate(-76.171 -168.468)" fill="#592217"/>
        <path id="Caminho_771159" data-name="Caminho 771159" d="M641.365,281.111c0-.278-.006-.728-.008-1.006.129-.815-.774-1.026-1.258-.641l-.084-.1c.121-.611-.444-1.354-1.3-.722-11.4,8.425-25.372,12.833-39.281,10.117-1.259-.246-1.316.893-.76,1.332a32.964,32.964,0,0,0-.6,10.059,1.143,1.143,0,0,0,1.016,1.056c2.715.3,11.5.646,28.683-3.913,3.765-1,7.94-2.9,10.428-6.048,2.135-2.7,2.713-6.181,3.026-9.551a.743.743,0,0,0,.14-.586" transform="translate(-293.826 -136.805)" fill="#fff"/>
        <path id="Caminho_771160" data-name="Caminho 771160" d="M130.584,136.077c-2.6-1.661-6.2-.512-8.633.9a20.82,20.82,0,0,0-4.206,3.342c-.91.907-1.858,2.59-2.954,3.226a.575.575,0,0,1-.789-.156c-.143-.286.073-.613.275-.861a29.675,29.675,0,0,0,5.749-10.015c.966-3.342,1.266-7.015,3.71-9.706,2.33-2.566,7.262-4.635,7.876-8.372a3.608,3.608,0,0,0-2.166-3.617c-3.982-2.094-9.5,3.116-11.89,5.859a23.96,23.96,0,0,0-4.7,8.239c-1.034,3.147-1.121,6.444-2.8,9.386-2.657,4.644-7.811,7.177-11.345,11.043-2.8,3.068-4.734,7.064-4.115,11.182,1.6-.029,1.8,3.724,2.7,3.675a21.715,21.715,0,0,1,8.314,1.159.6.6,0,0,0,.455.364,6.3,6.3,0,0,0,.824.118c.163.067.327.127.489.2a.724.724,0,0,0,.833-.238c2.7-.4,4.591-2.754,6.1-4.832,2.324-3.2,4.686-6.257,8.213-8.2,3.073-1.7,6.6-3.006,8.7-5.983,1.558-2.2,1.891-5.09-.64-6.7" transform="translate(-46.422 -54.216)" fill="#ffbe5c"/>
        <path id="Caminho_771161" data-name="Caminho 771161" d="M58.121,172.246a6.3,6.3,0,0,0-2.263-2.561c-1.581-.765-2.066.337-3.367.334-3.116-.008-2.85-5.962-3.481-7.989a3.7,3.7,0,0,0-.754-1.443,1.939,1.939,0,0,0-2.8.077,4.039,4.039,0,0,0-.606,1.509c-.771,3.068-1.787,6.43-1.28,9.619a19.975,19.975,0,0,0,1.5,4.781c.381.879,2.193,3.272,2.084,4.146a.678.678,0,0,0,.4.732l.018.033a.7.7,0,0,0,1.041.242l6.262,1.531q-.04-.305-.077-.611c.674.216,1.366.4,2.067.559,2.93.669,4.157-.136,3.922-3.083a23.351,23.351,0,0,0-2.671-7.875" transform="translate(-21.345 -78.636)" fill="#7e90e0"/>
        <path id="Caminho_771162" data-name="Caminho 771162" d="M216.127,159.3a4.455,4.455,0,0,0-3.639-.537,9.075,9.075,0,0,0-1.527.636c-2.263,1.107-4.51,2.273-6.828,3.248-3.772,1.587-7.664,2.336-11.556,3.5-6.37,1.91-10.161,7.666-12.4,13.6a.739.739,0,0,0,.078.7.6.6,0,0,0,.607.48c1.58.065,3.656.53,5.2.038.074-.023.142-.058.214-.088a12.3,12.3,0,0,1,7.153,3.259c2.129,2.1,3.711,5.071,6.046,6.927,1.294,1.029,2.366.639,3.692-.132a19.119,19.119,0,0,0,5.977-5.042c2.084-2.91,2.644-7.372-.459-9.835a5.914,5.914,0,0,0-2.524-1.1c-.983-.217-2.777.053-3.526-.595-1.5-1.295-.879-3.194.545-4.307,2.926-2.287,7.12-1.589,10.259-3.445,2.152-1.273,5.87-5.125,2.685-7.3" transform="translate(-88.511 -77.932)" fill="#7e90e0"/>
        <path id="Caminho_771163" data-name="Caminho 771163" d="M102.165,148.648c.174-2.322-.715-4.688-2.675-4-1.235.434-2.145,2.343-2.508,3.525-.436,1.419-.311,3.371,1.18,4.081,2.485,1.183,3.821-1.187,4-3.606" transform="translate(-47.548 -71.019)" fill="#7e90e0"/>
        <path id="Caminho_771164" data-name="Caminho 771164" d="M202.218,111.769a2.291,2.291,0,0,0-1.1-.989,3.558,3.558,0,0,0-3,.167c-2.289,1.131-5.6,5-3.12,7.4,2.411,2.341,5.669-1.029,6.857-3.034a3.783,3.783,0,0,0,.363-3.545" transform="translate(-95.388 -54.309)" fill="#ffbe5c"/>
        <path id="Caminho_771165" data-name="Caminho 771165" d="M253.261,180.778a2.186,2.186,0,0,0-1.382-.2,2.843,2.843,0,0,0-2.108,1.384.761.761,0,0,0,.145.785,1.665,1.665,0,0,0,.864.468,3.184,3.184,0,0,0,2.9-.743c.564-.584.278-1.326-.42-1.7" transform="translate(-122.707 -88.718)" fill="#ffbe5c"/>
        <path id="Caminho_771166" data-name="Caminho 771166" d="M335.969,201.887a4.267,4.267,0,0,0-2.589-.208,7.66,7.66,0,0,0-2.624,1.417,2.6,2.6,0,0,0-1.166,1.583,1.93,1.93,0,0,0,.192,1.027c.987,2.182,3.711,2.139,5.567,1.217a4.065,4.065,0,0,0,2.184-2.286,2.241,2.241,0,0,0-1.564-2.751" transform="translate(-161.951 -99.047)" fill="#7e90e0"/>
        <path id="Caminho_771167" data-name="Caminho 771167" d="M112.447,59.257c-1.9-.844-2.831,1.823-2.5,2.952.891,3.007,5.176-1.757,2.5-2.952" transform="translate(-53.996 -29.039)" fill="#ffbe5c"/>
        <path id="Caminho_771168" data-name="Caminho 771168" d="M77.956,130.024A38.472,38.472,0,0,1,73.9,109.236c.155-1.747.3-3.779,1.279-5.3a3.5,3.5,0,0,1,2.746-1.69,2.985,2.985,0,0,1,2.549,1.936,14.628,14.628,0,0,1,.49,10.916l.374-.152c-5.014-2.6-3.8-10.417-3.329-14.97a81.171,81.171,0,0,1,4.554-19.525c.113-.308-.378-.44-.49-.135a81.779,81.779,0,0,0-4.709,21.095c-.388,4.5-1.125,11.465,3.718,13.975a.258.258,0,0,0,.373-.152c1.205-3.652,1.339-8.643-.922-11.969-1.964-2.889-5.37-1.1-6.369,1.613a20.694,20.694,0,0,0-.891,6.149,38.594,38.594,0,0,0,.316,6.732,39.1,39.1,0,0,0,3.924,12.517c.149.292.587.035.439-.257" transform="translate(-35.992 -39.384)" fill="#2d0a0a"/>
        <path id="Caminho_771169" data-name="Caminho 771169" d="M222.93,108.994a49.549,49.549,0,0,0-6.66,9.456c-.156.288.283.545.439.256a48.96,48.96,0,0,1,6.58-9.352c.218-.243-.141-.6-.36-.36" transform="translate(-106.257 -53.518)" fill="#2d0a0a"/>
        <path id="Caminho_771170" data-name="Caminho 771170" d="M156.021,255.217c-2.884-13.935-9.293-46.531-12.532-59.341-.722-2.854-5.881-2.495-7.978-2.466-4.5.062-8.991.077-13.486.115-11.252.1-85.223-1.018-88.406-.948a2.487,2.487,0,0,0-1.5.545c-1.115.894-2.716,1.734-3.051,3.359-.462,2.244,8.756,49.136,12.064,61.122a2.528,2.528,0,0,0,2.287,1.882c10.672.536,23.4,1.124,34.077,1.338,15.657.314,64.569,1.118,73.988.284,1.835-.162,2.9-2.451,4.02-3.724a2.5,2.5,0,0,0,.521-2.167" transform="translate(-14.274 -94.629)" fill="#cac9cf"/>
        <path id="Caminho_771171" data-name="Caminho 771171" d="M133.055,366.856a157.393,157.393,0,0,0-36.107-.709c-.767.077-6.345,5.146-5.824,6.037.06.1-.22,1.766.852,1.8,13.053.457,38.871.354,39.386-.181,1.171-1.219,1.879-3.7,2.712-5.171a1.352,1.352,0,0,0-1.019-1.78" transform="translate(-44.76 -179.564)" fill="#cac9cf"/>
        <path id="Caminho_771172" data-name="Caminho 771172" d="M140.583,198.06q-40.049.066-80.1-.367-11.406-.124-22.811-.288a.254.254,0,0,0,0,.509q40.046.576,80.1.653,11.406.022,22.813,0a.254.254,0,0,0,0-.509" transform="translate(-18.392 -97.002)" fill="#2d0a0a"/>
        <path id="Caminho_771173" data-name="Caminho 771173" d="M136.258,279.008c-.226-1.323-1.018-2.275-3.011-2.424-1.559-.116-9.545-.686-9.827,1.588q-1.5,12.091-2.811,24.211c-.449,4.153-1.786,19.262-2.269,24.754A1.816,1.816,0,0,0,120,329.192a78.521,78.521,0,0,0,10.49-.315c2.4-.306,6.061-48.171,5.771-49.87" transform="translate(-58.147 -135.837)" fill="#cac9cf"/>
        <path id="Caminho_771174" data-name="Caminho 771174" d="M137.552,301.559c.454-4.126.85-8.258,1.129-12.4.139-2.068.253-4.138.356-6.208.083-1.691.686-3.922-.523-5.315-1.158-1.334-3.089-.86-4.661-.826-1.1.024-2.2.042-3.3.063a21.516,21.516,0,0,0-3.277.087c-1.379.249-1.379,1.381-1.5,2.547q-.34,3.381-.678,6.763c-.509,5.044-1.045,10.086-1.643,15.121-.039.324.47.321.509,0,.581-4.888,1.1-9.782,1.6-14.68q.364-3.6.723-7.2c.076-.757,0-1.759.913-2.021a8.47,8.47,0,0,1,1.946-.074c1.175-.027,2.351-.046,3.526-.069,1.152-.021,2.329-.13,3.479-.086,1.3.05,2.324.516,2.545,1.963a10.567,10.567,0,0,1-.087,1.918c-.106,2.277-.221,4.553-.365,6.827-.285,4.542-.709,9.072-1.206,13.6-.036.325.473.322.509,0" transform="translate(-60.667 -135.968)" fill="#2d0a0a"/>
        <path id="Caminho_771175" data-name="Caminho 771175" d="M145.84,282.193l-4.477,45.1c-.033.326.477.323.509,0l4.477-45.1c.032-.326-.477-.324-.509,0" transform="translate(-69.464 -138.547)" fill="#2d0a0a"/>
        <path id="Caminho_771176" data-name="Caminho 771176" d="M135.192,369.821c-.557,1.147-1.158,2.848-2.208,3.642-.934.705-2.732.507-3.852.509q-5.393.012-10.786.012l-21.822.024a.254.254,0,0,0,0,.509l23.829-.026c3.58,0,7.25.228,10.819-.076a3.43,3.43,0,0,0,2.371-.788,13.312,13.312,0,0,0,2.088-3.548c.142-.293-.3-.551-.439-.257" transform="translate(-47.31 -181.662)" fill="#2d0a0a"/>
        <path id="Caminho_771177" data-name="Caminho 771177" d="M132.292,366.675a5.712,5.712,0,0,1-.348,2.226,2.349,2.349,0,0,1-2.311,1.007c-1.551.006-3.1.036-4.652.051-1.4.014-2.808-.007-4.211.033-1.028.029-1.943-.07-1.972-1.279a18.112,18.112,0,0,1,.274-2.379c.037-.324-.471-.322-.509,0-.123,1.071-.944,3.37.375,3.984a5.91,5.91,0,0,0,2.554.151c1.237-.03,2.477.01,3.714,0,1.186-.014,2.372-.074,3.557-.062a6.011,6.011,0,0,0,2.543-.192c1.395-.67,1.379-2.221,1.494-3.536.028-.326-.481-.324-.509,0" transform="translate(-58.081 -179.894)" fill="#2d0a0a"/>
        <path id="Caminho_771178" data-name="Caminho 771178" d="M245.476,214.931q4.761,25.886,10.658,51.544c.073.319.564.184.49-.135q-5.9-25.652-10.658-51.544c-.059-.321-.549-.185-.49.135" transform="translate(-120.622 -105.458)" fill="#2d0a0a"/>
        <path id="Caminho_771179" data-name="Caminho 771179" d="M434.385,247.33c-.163-.3-.386-.992-.684-1.165-.5-.291-1.287.569-1.526.923-.578.851-.749,2.712-.106,3.169.158.111,2.371-.836,2.6-1.818a1.5,1.5,0,0,0-.282-1.108" transform="translate(-212.112 -120.934)" fill="#fff"/>
        <path id="Caminho_771180" data-name="Caminho 771180" d="M436.357,253.029c-1.494.208-3.1,3.549-1.086,4.029a.246.246,0,0,0,.3-.167c1.011-.089,1.323-1.192,1.539-2.037.192-.75.445-1.991-.75-1.824" transform="translate(-213.423 -124.328)" fill="#29889b"/>
        <path id="Caminho_771181" data-name="Caminho 771181" d="M431.789,216.759a.68.68,0,0,0-.126-1,43.662,43.662,0,0,1-4.743-4.236,2.106,2.106,0,0,1-.578-1.32,26.786,26.786,0,0,1,.242-4.71c.143-1.344.612-2.98-.1-4.242-1.29-2.293-5.065-2.819-7.084-4.385a4.847,4.847,0,0,0-1.7-1.119c-1.2-.282-2.164.636-2.877,1.455a5.578,5.578,0,0,0-1.254,2.172c-1.855-.127-3.982.356-4.256,2.434a3.206,3.206,0,0,0,.007.852c-1.287.678-2.475,1.44-2.2,3.12a3.049,3.049,0,0,0,.513,1.241c-.918,2.935,1.012,5.415,3.08,7.722,1.729,1.93,12.671,11.316,15.5,10.819a.9.9,0,0,0,.71-.537,13.934,13.934,0,0,0,1.242-1.292,21.6,21.6,0,0,0,3.619-6.973" transform="translate(-200.036 -96.161)" fill="#ff9e63"/>
        <path id="Caminho_771182" data-name="Caminho 771182" d="M445.036,230.115c-1.03-.8-2.97-2.44-4.657-2.907a.655.655,0,0,0-.826.555c-.253,2.333-2.6,5.315-3.812,7.991-1,2.213-2.407,4.25-3.538,4.539a.265.265,0,0,0-.181.393c.95,1.475,3.859,2,5.185,2.713a.82.82,0,0,0,.251.084c.449.455,1.333.427,1.311-1.032l5.512-9.976c.619-.334.788-.735.739-1.078a.808.808,0,0,0,.017-1.281" transform="translate(-212.271 -111.636)" fill="#fff"/>
        <path id="Caminho_771183" data-name="Caminho 771183" d="M491.213,213.3a43.453,43.453,0,0,0-2.206-15.4c-1.385-4.107-3.4-9.3-8.275-9.834a2.378,2.378,0,0,0-1.543-.29c-4.431,2.095-7.512,7.131-10.474,11.454-3.324,4.852-6.385,10.2-9.709,15.055a1.672,1.672,0,0,1-2.169.53c-3.878-2.076-8.1-3.52-12.115-5.368-1.339,5.764-7.277,15.538-10.04,15.016,0,.757,8.943,6.726,13.783,9.335a76.586,76.586,0,0,0,7.837,3.673c2.928,1.173,5.516,2.512,8.776,2.383,6.684-.263,13.038-5.2,16.893-10.356,3.382-4.523,11.623-9.638,9.24-16.2" transform="translate(-213.598 -92.249)" fill="url(#linear-gradient-12)"/>
        <path id="Caminho_771184" data-name="Caminho 771184" d="M602.032,213.73c-.063-.136-.13-.27-.193-.406-5.429-15.533-15.893-29.893-30.433-38.463-9.126-5.379-24.834-12.974-34.08-10-3.4,1.091-1.132.3-3.7,2.512-3.06,2.64-7.452,6.621-11.483,5.5a.726.726,0,0,0-.5-.063c-4.571.965-8.972,2.494-12.288,5.931-3.155,3.271-5.071,7.492-6.912,11.585-.276.614,5.561,4.2,8.227,5.142a6.826,6.826,0,0,1,3.36,2.546c3.781,5.46,7.415,11.125,12.291,15.389a37.284,37.284,0,0,0,8.717,5.448c3.418,3.049,7.733,10.2,10.626,13.739,2.06,2.519,5.177,4.969,8.642,4.548a22.976,22.976,0,0,1,5.722-.326,91.24,91.24,0,0,0,22.578-.162c5.38-.728,20.563-7.045,21.856-9.544,1.49-2.881-1.147-10.587-2.43-13.377" transform="translate(-246.89 -80.681)" fill="url(#linear-gradient-12)"/>
        <path id="Caminho_771185" data-name="Caminho 771185" d="M544.679,149.369a1.039,1.039,0,0,0-.388-.794c-2.642-2.208-7.454-4.788-6.767-8.572.467-2.57,2.428-5.143,2.568-7.768a1,1,0,0,0-.965-1.075c-3.416-3.065-8.449-1.437-11.145,2.047-1.962,2.535-3.01,5.805-4.255,8.721l-4.713,11.031a.922.922,0,0,0-.043.667c-.436.721.015,1.647,1,1.329a12.124,12.124,0,0,1,4.6-.82c1.164.17,2.112,2.015,2.93,2.806,1.641,1.586,3.263,3.192,4.895,4.788a1.046,1.046,0,0,0,.627.3,1.023,1.023,0,0,0,.445.117c4.261.186,7.789-.986,9.661-5.085a21.557,21.557,0,0,0,1.706-7.047.966.966,0,0,0-.161-.648" transform="translate(-254.934 -63.655)" fill="#ff9e63"/>
        <path id="Caminho_771186" data-name="Caminho 771186" d="M524.365,119.359a11.531,11.531,0,0,0-9.621-6.029,16.2,16.2,0,0,0-15.191,9.372c-2.336,4.845-.807,10.442-.22,15.811.445,4.067.409,8.445,5.621,8.848a20.927,20.927,0,0,0,12.2-3.333c.877-.549,1.378-2.658,1.724-3.564a50.859,50.859,0,0,0,1.745-5.469,6.081,6.081,0,0,1,.367-1.128c1.132-2.351,3.16-4.047,4.041-6.621a9.723,9.723,0,0,0-.664-7.887" transform="translate(-244.858 -55.683)" fill="#ff9e63"/>
        <path id="Caminho_771187" data-name="Caminho 771187" d="M521.516,137.257c-.109-.763-1.085-1.245-1.624-1.532a5.426,5.426,0,0,0-3.657-.481,2.688,2.688,0,0,0-1.552.943,2.407,2.407,0,0,0-.367,2.259,1.132,1.132,0,0,0,1.013.476,7.466,7.466,0,0,0,1.6-.287,33.792,33.792,0,0,1,3.649-.22,1.017,1.017,0,0,0,.943-1.158" transform="translate(-252.652 -66.394)" fill="#873c25"/>
        <path id="Caminho_771188" data-name="Caminho 771188" d="M501.979,138.99a1.552,1.552,0,0,0,.059-.176,1.681,1.681,0,0,0-.282-1.419,2.1,2.1,0,0,0-3.7.7c-.236.77-.5,1.87.67,1.857a2.778,2.778,0,0,0,.716-.156,1.7,1.7,0,0,1,1.025.011,1.253,1.253,0,0,0,1.508-.813" transform="translate(-244.64 -67.101)" fill="#873c25"/>
        <path id="Caminho_771189" data-name="Caminho 771189" d="M547.915,138.707c.505-2.13-.227-4.329-.7-6.428a.953.953,0,0,0-1.157-.766,44.286,44.286,0,0,0-10.387,1.871.994.994,0,0,0-.622.546.854.854,0,0,0-.547.867c0,1.8-.327,4.057.3,5.76.592,1.6,1.948,1.894,3.359,2.31,2.307.68,2.616,2.556,4.354,3.894,1.417,1.091,4.554.735,5.041-.25.842-1.7-1.029-1.968.354-7.8" transform="translate(-262.608 -64.613)" fill="#873c25"/>
        <path id="Caminho_771190" data-name="Caminho 771190" d="M534.044,116.3c-1.452-4.069-5.948-3.227-8.626-5.814-1.154-1.115-1.91-2.282-3.418-2.972a14.686,14.686,0,0,0-5.679-1.13,13.966,13.966,0,0,0-8.943,2.787,8.974,8.974,0,0,0-3.509,1.468,10.794,10.794,0,0,0-1.162.965,2.541,2.541,0,0,1-1.5.7,4.112,4.112,0,0,0-2.991,1.653c-1.442,1.962-1.057,4.452-.558,6.668.087.382.372.926.858.654a1.239,1.239,0,0,0,.415-.481,22.259,22.259,0,0,1,3.518-4.694c3.138-2.506,6.372-.53,7.5,1.847.753,1.584.7,3.445,1.714,4.918,1.589,2.3,4.384,2.439,6.933,2.248a6.206,6.206,0,0,0,2.448-.107c1.758-.327,3.339.3,5.036.57,5.015.784,9.722-4.306,7.959-9.284" transform="translate(-244.323 -52.274)" fill="#873c25"/>
        <path id="Caminho_771191" data-name="Caminho 771191" d="M539.914,144.691c-2.059-.154-3.889,2.406-4.583,4.135a3.71,3.71,0,0,0-.32,1.849c.215,1.6,2.407,2.371,3.706,1.787a4.655,4.655,0,0,0,1.986-2.676c.457-1.127,1-2.78.537-3.986a1.514,1.514,0,0,0-1.325-1.108" transform="translate(-262.888 -71.096)" fill="#ff9e63"/>
        <path id="Caminho_771192" data-name="Caminho 771192" d="M555.894,122.686c2.189.248,3.114,3,3.147,4.875.031,1.744-.616,4.007-2.2,4.957a.254.254,0,0,0,.256.439c3.446-2.062,3.489-10.249-1.2-10.78-.324-.037-.322.472,0,.509" transform="translate(-273.04 -60.036)" fill="#2d0a0a"/>
        <path id="Caminho_771193" data-name="Caminho 771193" d="M529.152,128.431a5.275,5.275,0,0,1,3.274-.18,5.191,5.191,0,0,0,1.872.519,2.628,2.628,0,0,0,2.491-4.018c-.592-1.032-1.679-1.239-2.7-1.654-2.122-.863-1.866-3.486-2.174-5.4a7.551,7.551,0,0,0-1.645-3.865,6.592,6.592,0,0,0-7.679-1.619c-.3.129-.041.567.257.439a6.067,6.067,0,0,1,7.878,2.767,14.32,14.32,0,0,1,.971,4.553,5.679,5.679,0,0,0,.747,2.552,3.759,3.759,0,0,0,2,1.235c1.4.492,2.9,1.78,1.973,3.423-1.011,1.793-2.868.851-4.283.4a6.138,6.138,0,0,0-3.122.358c-.319.072-.184.563.135.49" transform="translate(-256.731 -54.854)" fill="#2d0a0a"/>
        <path id="Caminho_771194" data-name="Caminho 771194" d="M503.995,121.488a3.783,3.783,0,0,1,3.795-.575.257.257,0,0,0,.322-.245c.087-1.168,1.528-2.614,2.633-1.352a7.707,7.707,0,0,1,1.053,2.413c.111.305.6.173.491-.135-.475-1.306-.846-3.184-2.574-3.242a2.247,2.247,0,0,0-2.111,2.317l.322-.246a4.268,4.268,0,0,0-4.29.706c-.233.23.127.59.36.36" transform="translate(-247.443 -58.156)" fill="#2d0a0a"/>
        <path id="Caminho_771195" data-name="Caminho 771195" d="M519.532,144.617c-1.828.065-1.375,4.274.128,3.977a1.28,1.28,0,0,0,.8-.619c.6-.978.738-3.417-.93-3.358" transform="translate(-254.705 -71.063)" fill="#260505"/>
        <path id="Caminho_771196" data-name="Caminho 771196" d="M502.321,145.957a1.056,1.056,0,0,0-1.06-.711c-.585.034-.769.524-.855.916a2.411,2.411,0,0,0,.816,2.6.871.871,0,0,0,1.289-.625,4.122,4.122,0,0,0-.19-2.186" transform="translate(-245.855 -71.372)" fill="#260505"/>
        <path id="Caminho_771197" data-name="Caminho 771197" d="M506.742,148.344c-.728.743-1.559,1.665-1.365,2.8a2.8,2.8,0,0,0,2,1.969c.306.115.439-.376.135-.49-.8-.3-1.675-.874-1.657-1.841A3.325,3.325,0,0,1,507.1,148.7c.229-.234-.13-.594-.36-.36" transform="translate(-248.323 -72.857)" fill="#a5422f"/>
        <path id="Caminho_771198" data-name="Caminho 771198" d="M510.181,155.368a1.282,1.282,0,0,1,1.21.074.255.255,0,0,0,.257-.439,1.814,1.814,0,0,0-1.724-.074c-.3.137-.039.576.257.439" transform="translate(-250.506 -76.041)" fill="#a5422f"/>
        <path id="Caminho_771199" data-name="Caminho 771199" d="M512.792,160.208c-.475-.458-1.346-.126-1.92-.049a16.76,16.76,0,0,1-4.245.167.351.351,0,0,0-.313.106c-.287.109-.315.342-.215.6.14.367.28.734.432,1.1,1.066,2.544,5.712.319,6.336-1.541a.378.378,0,0,0-.076-.385" transform="translate(-248.665 -78.608)" fill="#fff"/>
        <path id="Caminho_771200" data-name="Caminho 771200" d="M637.688,317.372c-4.36.313-8.739,1.881-12.958,2.971a.841.841,0,0,0-.3,1.469c-.25,1.522-.956,5.169-2.158,6.953a2.292,2.292,0,0,1-1.388.934,19.208,19.208,0,0,1-3.707.459c-1.5.056-3.207-.162-4.653.372-1.547.571-6.3,7.189-3.99,8.176,1.05.45,2.077-.392,2.643-1.2,1.192-1.706,1.149-2.883,3.7-3.393a12.252,12.252,0,0,1,1.938-.21.373.373,0,0,1,.348.541c-.06.117-.118.236-.176.356-.607,1.251-1.127,2.54-1.628,3.837a2.974,2.974,0,0,0-.354,2.277.78.78,0,0,0,.618.456c1.541.2,2.887-1.024,3.668-2.232.5-.768.691-1.719,1.263-2.439a2.091,2.091,0,0,1,1.173-.834c.3-.023,1.091.328.922.761a20.194,20.194,0,0,0-.961,2.683,3.952,3.952,0,0,0-.141,1.381c.052.4.452.735.5,1.032,1.243,1.023,3.071-1.089,3.626-1.972a17.54,17.54,0,0,0,.968-2.341c.146-.332,1.147-2.174,1.441-1.187-.533,1.318-1.7,3.96-.242,4.617,1.3.589,2.335-1.63,2.855-2.527a14.784,14.784,0,0,0,1.136-2.719,2.444,2.444,0,0,1,1.177-1.4c2.665-1.375,3.337-3.851,3.862-6.533a77.932,77.932,0,0,0,1.4-8.867.812.812,0,0,0-.583-1.424" transform="translate(-298.722 -155.952)" fill="#ff9e63"/>
        <path id="Caminho_771201" data-name="Caminho 771201" d="M655.877,294.274c-5.366,2.926-11.18,4.686-17.022,6.386a.772.772,0,0,0-.57.777.725.725,0,0,0-.128.418q-.058,5.158-.116,10.317a.8.8,0,0,0,.738.816c2.694.274,13.814.764,16.383.043,2.918-.819,2.04-13.821,1.856-18.029a.787.787,0,0,0-1.142-.726" transform="translate(-313.526 -144.555)" fill="#fff"/>
        <path id="Caminho_771202" data-name="Caminho 771202" d="M542.136,147.631a4.5,4.5,0,0,0-2.477,3.152c-.067.319.424.456.491.135a4.019,4.019,0,0,1,2.243-2.848c.3-.14.038-.579-.257-.439" transform="translate(-265.179 -72.531)" fill="#a5422f"/>
        <path id="Caminho_771203" data-name="Caminho 771203" d="M606.364,213.926c1.183,1.107,2.745,16.4,2.855,28.277a1,1,0,0,0,.621,1.058c7.134,2.179,13.486.29,20.786-.348a.934.934,0,0,0,.618-.21.816.816,0,0,0,.187-.57c-.228-28.468-3.529-39.087-6.027-42.983-15.877-24.77-25.212-32.192-44.659-34.223-.449-.047,2.524,19.292,8.478,24.859,3.382,3.162,15.06,22.2,17.14,24.14" transform="translate(-285.35 -81.043)" fill="url(#linear-gradient-12)"/>
        <path id="Caminho_771204" data-name="Caminho 771204" d="M534.891,161.719a7.335,7.335,0,0,1-4.684,7.076c-.3.115-.171.608.135.49a7.849,7.849,0,0,0,5.057-7.566c-.01-.327-.519-.328-.509,0" transform="translate(-260.453 -79.346)" fill="#a5422f"/>
        <path id="Caminho_771205" data-name="Caminho 771205" d="M627.654,345.963a3.588,3.588,0,0,1,2.281-1.976,11.892,11.892,0,0,1,2.253-.329c.327-.01.328-.519,0-.509a9.625,9.625,0,0,0-2.914.49,4.328,4.328,0,0,0-2.059,2.067.254.254,0,0,0,.439.257" transform="translate(-308.187 -168.62)" fill="#a5422f"/>
        <path id="Caminho_771206" data-name="Caminho 771206" d="M639.659,347c-1.331.354-2.767,1.016-3.046,2.513-.059.32.431.457.491.135.246-1.32,1.526-1.848,2.691-2.158a.254.254,0,0,0-.135-.49" transform="translate(-312.822 -170.506)" fill="#a5422f"/>
        <path id="Caminho_771207" data-name="Caminho 771207" d="M648.856,348.287a3.7,3.7,0,0,0-1.835,1.416c-.185.271.255.525.439.257a3.122,3.122,0,0,1,1.531-1.183c.306-.109.174-.6-.135-.49" transform="translate(-317.917 -171.136)" fill="#a5422f"/>
        <path id="Caminho_771208" data-name="Caminho 771208" d="M432.749,203.206l-4.023.021a3.534,3.534,0,0,0-2.327.422c-1.188,1.025-.024,2.752.889,3.488a7.754,7.754,0,0,0,2.249,1.19c.148.053.525.1.635.216l.368,1.516-.262.279c-.255.366-.638.649-.9,1.025a5.71,5.71,0,0,0-.551,5.328c.118.3.61.169.49-.135a5.346,5.346,0,0,1,1.316-5.859c.636-.695,1.223-1.6.287-2.339a6.2,6.2,0,0,0-1.6-.653,4.544,4.544,0,0,1-2.8-2.362c-.623-1.91,1.878-1.6,2.911-1.609l3.313-.017a.254.254,0,0,0,0-.509" transform="translate(-209.28 -99.853)" fill="#a5422f"/>
        <path id="Caminho_771209" data-name="Caminho 771209" d="M420.227,204.656c.435,1,.9,1.987,1.423,2.949a5.34,5.34,0,0,0,1.472,2.1c1.234.784,2.425-.3,3.147-1.241.2-.259-.242-.513-.439-.257-.377.489-1.106,1.381-1.823,1.253a2.774,2.774,0,0,1-1.316-1.041,6.777,6.777,0,0,1-.5-.892c-.557-1.019-1.058-2.064-1.521-3.128-.13-.3-.568-.041-.439.257" transform="translate(-206.483 -100.374)" fill="#a5422f"/>
        <path id="Caminho_771210" data-name="Caminho 771210" d="M412.628,211.93a16.236,16.236,0,0,0,1.726,2.856c.523.686,1.23,1.808,2.108,2.072,2.122.638,3.153-1.731,3.85-3.168.142-.293-.3-.551-.439-.257a8.949,8.949,0,0,1-1.016,2.015,2.132,2.132,0,0,1-3.361-.074,15.605,15.605,0,0,1-2.428-3.7c-.141-.295-.58-.037-.439.257" transform="translate(-202.747 -103.95)" fill="#a5422f"/>
        <path id="Caminho_771211" data-name="Caminho 771211" d="M409.245,219.908c.925,1.445,1.972,3.545,3.907,3.747,1.7.178,2.475-1.341,2.974-2.709.112-.308-.379-.441-.491-.135-.538,1.476-1.576,3.018-3.361,2.029-1.183-.655-1.886-2.089-2.59-3.188-.176-.275-.616-.02-.439.257" transform="translate(-201.078 -107.876)" fill="#a5422f"/>
        <path id="Caminho_771212" data-name="Caminho 771212" d="M415.59,227.685a1.163,1.163,0,0,1-.91,1.08c-.319.074-.184.565.135.491a1.677,1.677,0,0,0,1.283-1.571c.013-.328-.5-.327-.509,0" transform="translate(-203.679 -111.761)" fill="#a5422f"/>
        <path id="Caminho_771213" data-name="Caminho 771213" d="M516.11,235.623c3.014.192,5.246,2.228,7.289,4.25a38.742,38.742,0,0,0,5.825,4.86c.273.182.529-.259.256-.439a58.642,58.642,0,0,1-7.029-6.04,10.478,10.478,0,0,0-6.341-3.139c-.327-.021-.326.488,0,.509" transform="translate(-253.49 -115.532)" fill="#2d0a0a"/>
        <path id="Caminho_771214" data-name="Caminho 771214" d="M479.088,244.195a35.692,35.692,0,0,1,8.674,5.8c.242.219.6-.139.36-.36a36.177,36.177,0,0,0-8.778-5.879c-.295-.14-.553.3-.257.439" transform="translate(-235.354 -119.765)" fill="#2d0a0a"/>
        <path id="Caminho_771215" data-name="Caminho 771215" d="M569.217,175.942c-.272,4.993-.646,10.316-4.1,14.256-.215.246.143.607.36.36,3.546-4.048,3.967-9.477,4.246-14.616.018-.327-.491-.326-.509,0" transform="translate(-277.661 -86.336)" fill="#2d0a0a"/>
        <path id="Caminho_771216" data-name="Caminho 771216" d="M572.378,274.311a119.51,119.51,0,0,0,11.88,6.571c.294.141.552-.3.257-.439a119.406,119.406,0,0,1-11.88-6.571c-.278-.175-.534.266-.257.439" transform="translate(-281.201 -134.558)" fill="#2d0a0a"/>
        <path id="Caminho_771217" data-name="Caminho 771217" d="M554.036,164.584c-.869-.729-2.774-2.312-3.766-2.386-.949-.071-1.372,2.275-2,3.378-2.505,4.435-6.529,7.857-11.875,7.208-.508-.062-1.106-.389-1.274.257-.315,1.211,1.4,2.791,2.076,3.66a6.981,6.981,0,0,0,3.16,2.719c1.948.573,9.5-.985,12.016-7.127,1.563-3.817,1.946-7.467,1.658-7.71" transform="translate(-262.936 -79.702)" fill="#fff"/>
        <path id="Caminho_771218" data-name="Caminho 771218" d="M592.951,205.936c3.08,7.98,8.547,14.607,13.907,21.151a55.021,55.021,0,0,1,4.2,5.407,16.518,16.518,0,0,1,2.205,6.985c.548,4.644.786,9.285,1.554,13.908.053.322.544.186.49-.135-.789-4.749-.972-9.527-1.6-14.287a16.961,16.961,0,0,0-1.777-5.994,33.5,33.5,0,0,0-3.605-4.886c-5.648-6.932-11.625-13.835-14.886-22.283-.116-.3-.608-.171-.49.135" transform="translate(-291.361 -101.044)" fill="#2d0a0a"/>
        <path id="Caminho_771219" data-name="Caminho 771219" d="M646.678,200a92.033,92.033,0,0,1,11.492,18.8,36.814,36.814,0,0,1,3.543,11.315c.412,3.825.536,7.694.78,11.532.021.325.529.328.509,0-.258-4.066-.352-8.186-.861-12.23a36.83,36.83,0,0,0-3.344-10.462,92.509,92.509,0,0,0-11.759-19.314c-.2-.257-.56.105-.36.36" transform="translate(-317.741 -98.059)" fill="#2d0a0a"/>
        <path id="Caminho_771220" data-name="Caminho 771220" d="M631.858,246.648a29.506,29.506,0,0,1,1.283,6.575c.026.324.535.327.509,0a30.1,30.1,0,0,0-1.3-6.71c-.1-.311-.589-.178-.49.135" transform="translate(-310.482 -121.047)" fill="#2d0a0a"/>
        <path id="Caminho_771221" data-name="Caminho 771221" d="M248.792,53.688q4.01,8.046,8.631,15.767Z" transform="translate(-122.254 -26.382)" fill="#2d0a0a"/>
        <path id="Caminho_771222" data-name="Caminho 771222" d="M248.333,53.568q4.018,8.043,8.63,15.767a.255.255,0,0,0,.439-.257q-4.61-7.72-8.631-15.767c-.146-.293-.584-.036-.438.257" transform="translate(-122.013 -26.133)" fill="#2d0a0a"/>
        <path id="Caminho_771223" data-name="Caminho 771223" d="M244.854,75.92a38.749,38.749,0,0,0,7.647,7.26Z" transform="translate(-120.318 -37.306)" fill="#2d0a0a"/>
        <path id="Caminho_771224" data-name="Caminho 771224" d="M244.442,75.842a40.515,40.515,0,0,0,7.7,7.3c.265.193.519-.248.257-.439a40.033,40.033,0,0,1-7.6-7.221c-.206-.255-.564.107-.36.36" transform="translate(-120.086 -37.048)" fill="#2d0a0a"/>
        <path id="Caminho_771225" data-name="Caminho 771225" d="M495.607,356.114c-1.161-4.668-9.453-4.8-14.02-2.775-4.918,2.18-10.709,7.409-10.793,10.025-.081,2.537,5.439,2.242,6.944,2.224a36.092,36.092,0,0,0,11.839-2.053,14.689,14.689,0,0,0,5.414-3.345c.555-.691,1.166-1.863.615-4.076" transform="translate(-231.342 -173.015)" fill="#fff"/>
        <path id="Caminho_771226" data-name="Caminho 771226" d="M485.566,361.583a17.991,17.991,0,0,0-6.221,6.917c-.144.292.294.551.439.256a17.545,17.545,0,0,1,6.039-6.734c.276-.174.021-.615-.257-.439" transform="translate(-235.53 -177.658)" fill="#2d0a0a"/>
      </g>
    </g>
  </g>
</svg>
