<svg xmlns="http://www.w3.org/2000/svg" width="201.508" height="163.679" viewBox="0 0 201.508 163.679">
  <g id="_Ícone_lateral_esquerdo_2_" data-name="&lt;Ícone lateral esquerdo_2&gt;" transform="translate(-473 -6870.641)">
    <path id="Caminho_734267" data-name="Caminho 734267" d="M-129.967-.077,28.2,0-5.264,155.679H-163.31Z" transform="translate(636.31 6878.641)" fill="#3b4aff"/>
    <g id="Grupo_128957" data-name="Grupo 128957" transform="translate(35 5647.641)">
      <path id="Caminho_211005" data-name="Caminho 211005" d="M33.956,0,0,155.733H157.553L191.508,0Z" transform="translate(448 1223)" fill="#9285f9"/>
    </g>
    <g id="_2984033_analysis_bussiness_infographic_puzzle_swot_icon" data-name="2984033_analysis_bussiness_infographic_puzzle_swot_icon" transform="translate(531.806 6901.478)">
      <path id="Caminho_771055" data-name="Caminho 771055" d="M55.5,28.1a8.3,8.3,0,0,1-8.3,8.3V47.194H36.4a8.3,8.3,0,1,0-16.606,0H9V9H47.194V19.794A8.3,8.3,0,0,1,55.5,28.1Z" fill="none" stroke="#fff" stroke-miterlimit="10" stroke-width="3"/>
      <path id="Caminho_771056" data-name="Caminho 771056" d="M70.194,9V47.194H59.4a8.3,8.3,0,0,1-16.606,0H32V36.4a8.3,8.3,0,1,0,0-16.606V9Z" transform="translate(15.194)" fill="none" stroke="#fff" stroke-miterlimit="10" stroke-width="3"/>
      <path id="Caminho_771057" data-name="Caminho 771057" d="M73.5,32V70.194H35.3V59.4a8.3,8.3,0,0,1,0-16.606V32H46.1A8.3,8.3,0,0,0,62.7,32Z" transform="translate(11.891 15.194)" fill="none" stroke="#fff" stroke-miterlimit="10" stroke-width="3"/>
      <path id="Caminho_771058" data-name="Caminho 771058" d="M38.891,54.4a8.3,8.3,0,0,0,8.3,8.3V73.5H9V35.3H19.794a8.3,8.3,0,1,1,16.606,0H47.194V46.1A8.3,8.3,0,0,0,38.891,54.4Z" transform="translate(0 11.891)" fill="none" stroke="#fff" stroke-miterlimit="10" stroke-width="3"/>
    </g>
  </g>
</svg>
