<svg xmlns="http://www.w3.org/2000/svg" xmlns:xlink="http://www.w3.org/1999/xlink" width="600.354" height="388.065" viewBox="0 0 600.354 388.065">
  <defs>
    <linearGradient id="linear-gradient" x1="0.015" y1="0.269" x2="0.003" y2="1" gradientUnits="objectBoundingBox">
      <stop offset="0" stop-color="#64dadb"/>
      <stop offset="1" stop-color="#4dc5f2"/>
    </linearGradient>
    <clipPath id="clip-path">
      <path id="Caminho_770335" data-name="Caminho 770335" d="M224.491,0,171.916,83.351,125.823.153C64.235,16.153,16.018,61.164,0,118.008H350.89C334.836,60.985,286.358,15.864,224.491,0Z" fill="url(#linear-gradient)"/>
    </clipPath>
    <clipPath id="clip-path-2">
      <rect id="Retângulo_124925" data-name="Retângulo 124925" width="89.278" height="109.865" fill="none"/>
    </clipPath>
  </defs>
  <g id="_img_joaomaria_17_" data-name="&lt;img joaomaria_17&gt;" transform="translate(-153.278 -30.967)">
    <path id="GettyImages-1412762526" d="M-101.455.155,261.6,0,200.08,267.508l-363.39-.2Z" transform="translate(492.033 76.415)" fill="#0041d9"/>
    <path id="Caminho_773576" data-name="Caminho 773576" d="M1.974,5.539H1.953l.105,9.408L1.953,19h.021c1.155.063,3.57.126,4.368.126,4.137,0,6.426-2.6,6.426-7.329,0-4.1-2.121-6.342-5.943-6.342Zm4.641,12.18c-.441,0-2-.042-2.982-.126L3.57,14.8l.084-7.854c.861-.042,2.6-.084,3.045-.084,2.856,0,4.347,1.722,4.347,5.292C11.046,15.913,9.429,17.719,6.615,17.719ZM16.128,5.077a.926.926,0,0,0-.987.987.863.863,0,0,0,.924.966A.938.938,0,0,0,17.052,6,.86.86,0,0,0,16.128,5.077Zm.651,9.7.126-5.439-1.659.147.084,5.439L15.225,19h1.659Zm6.636-5.565a6.045,6.045,0,0,0-3.591,1.3l.21,1.2.168.084a4.576,4.576,0,0,1,2.961-1.386,1.517,1.517,0,0,1,1.659,1.7L24.8,13.477l-3.4.8a2.163,2.163,0,0,0-1.953,2.247c0,1.617,1.092,2.625,2.982,2.625a6.193,6.193,0,0,0,2.247-1.575h.147a1.5,1.5,0,0,0,1.449,1.554,3.024,3.024,0,0,0,1.2-.42l.168-.945-.168-.147a2.291,2.291,0,0,1-.714.126c-.483,0-.651-.21-.651-.819,0-.735.252-4.452.252-5.187C26.355,10.159,25.221,9.214,23.415,9.214Zm1.365,5.334-.063,1.722a3.222,3.222,0,0,1-2.352,1.491,1.346,1.346,0,0,1-1.428-1.47.92.92,0,0,1,.8-1.008ZM35.889,19h1.68l-.084-4.179.042-2.73c.021-1.806-1.071-2.835-3.213-2.835a6.611,6.611,0,0,0-2.667,1.491h-.126l.021-1.407-1.6.147.084,5.439L29.925,19h1.659L31.5,14.779l.021-2.646a4.164,4.164,0,0,1,2.835-1.491c1.113,0,1.659.714,1.638,1.827Zm7.9-1.281c-.924,0-1.344-.378-1.323-1.512l.1-5.691H45.4l.1-.987L45.423,9.4H42.567l.042-2.037-.168-.147-1.449.63V9.4H39.711l-.1.987.084.126h1.323l.021,4.347-.063,1.491a2.426,2.426,0,0,0,2.247,2.772,6.053,6.053,0,0,0,2.1-.609l.168-1.092L45.3,17.3A3.181,3.181,0,0,1,43.785,17.719ZM47.9,14.107l5.859-.021.357-.273c.021-.252.042-.735.042-.966,0-2.268-1.218-3.612-3.318-3.612-2.751,0-4.515,1.911-4.515,5.019,0,3.024,1.617,4.914,4.368,4.914a6.585,6.585,0,0,0,2.919-.777l.168-1.407-.189-.1a5.13,5.13,0,0,1-2.814.945c-1.932,0-2.877-1.386-2.877-3.654Zm2.793-3.7c1.155,0,1.974.693,1.974,2.2l-.042.252-4.62.126C48.3,11.335,49.266,10.411,50.694,10.411Zm16.569,4.368.126-10.521L65.73,4.4l.042,5.019a8.181,8.181,0,0,0-1.848-.21c-2.919,0-4.662,1.806-4.662,5,0,3.108,1.491,4.893,4.284,4.893a6.983,6.983,0,0,0,2.289-1.449h.147a1.548,1.548,0,0,0,1.47,1.47,3.024,3.024,0,0,0,1.2-.42l.147-.945-.168-.147a2.119,2.119,0,0,1-.714.126c-.441,0-.588-.21-.609-.8ZM63.714,10.39a4.9,4.9,0,0,1,2.058.525l.042,3.99-.042,1.512a2.982,2.982,0,0,1-2.31,1.281c-1.6,0-2.6-1.3-2.646-3.633C60.774,11.629,61.95,10.39,63.714,10.39Zm7.98,3.717,5.859-.021.357-.273c.021-.252.042-.735.042-.966,0-2.268-1.218-3.612-3.318-3.612-2.751,0-4.515,1.911-4.515,5.019,0,3.024,1.617,4.914,4.368,4.914a6.585,6.585,0,0,0,2.919-.777l.168-1.407-.189-.1a5.13,5.13,0,0,1-2.814.945c-1.932,0-2.877-1.386-2.877-3.654Zm2.793-3.7c1.155,0,1.974.693,1.974,2.2l-.042.252-4.62.126C72.093,11.335,73.059,10.411,74.487,10.411Zm8.547-1.176c-2.079,0-3.318,1.176-3.318,2.772,0,2.982,4.389,2.583,4.389,4.515a1.578,1.578,0,0,1-1.743,1.449,4.132,4.132,0,0,1-2.562-1.05l-.189.126-.21,1.428a6.169,6.169,0,0,0,2.793.693c2.226,0,3.423-1.407,3.423-2.94,0-2.9-4.368-2.5-4.368-4.431a1.455,1.455,0,0,1,1.6-1.365,3.643,3.643,0,0,1,2.016.693l.252-.063L85.344,9.7A6.123,6.123,0,0,0,83.034,9.235ZM91.2,17.719c-.924,0-1.344-.378-1.323-1.512l.105-5.691H92.82l.105-.987L92.841,9.4H89.985l.042-2.037-.168-.147-1.449.63V9.4H87.129l-.1.987.084.126h1.323l.021,4.347-.063,1.491a2.426,2.426,0,0,0,2.247,2.772,6.053,6.053,0,0,0,2.1-.609l.168-1.092-.189-.126A3.181,3.181,0,0,1,91.2,17.719Zm4.116-3.612,5.859-.021.357-.273c.021-.252.042-.735.042-.966,0-2.268-1.218-3.612-3.318-3.612-2.751,0-4.515,1.911-4.515,5.019,0,3.024,1.617,4.914,4.368,4.914a6.585,6.585,0,0,0,2.919-.777l.168-1.407-.189-.1a5.13,5.13,0,0,1-2.814.945c-1.932,0-2.877-1.386-2.877-3.654Zm2.793-3.7c1.155,0,1.974.693,1.974,2.2l-.042.252-4.62.126C95.718,11.335,96.684,10.411,98.112,10.411Zm12.852-1.2c-2.646,0-4.263,1.953-4.263,5.04,0,3.045,1.554,4.914,4.095,4.914a6.813,6.813,0,0,0,2.562-.546l.189-1.407-.189-.1a4.717,4.717,0,0,1-2.352.714c-1.722,0-2.73-1.407-2.73-3.654,0-2.268.987-3.591,2.625-3.591a4.088,4.088,0,0,1,2.163.714l.189-.063.294-1.449A6.385,6.385,0,0,0,110.964,9.214Zm5.376,4.893,5.859-.021.357-.273c.021-.252.042-.735.042-.966,0-2.268-1.218-3.612-3.318-3.612-2.751,0-4.515,1.911-4.515,5.019,0,3.024,1.617,4.914,4.368,4.914a6.585,6.585,0,0,0,2.919-.777l.168-1.407-.189-.1a5.13,5.13,0,0,1-2.814.945c-1.932,0-2.877-1.386-2.877-3.654Zm2.793-3.7c1.155,0,1.974.693,1.974,2.2l-.042.252-4.62.126C116.739,11.335,117.7,10.411,119.133,10.411ZM131,19h1.68l-.084-4.179.042-2.73c.021-1.806-1.071-2.835-3.213-2.835a6.611,6.611,0,0,0-2.667,1.491h-.126l.021-1.407-1.6.147.084,5.439L125.034,19h1.659l-.084-4.221.021-2.646a4.164,4.164,0,0,1,2.835-1.491c1.113,0,1.659.714,1.638,1.827Zm9.954-14.616-.189-.021c-1.176,1.155-2.289,2.1-3.444,3.045l.462.672.189.021c1.2-.84,2.331-1.7,3.57-2.667l.042-.168Zm-1.911,4.83a6.1,6.1,0,0,0-3.612,1.3l.231,1.2.168.084a4.533,4.533,0,0,1,2.961-1.386,1.517,1.517,0,0,1,1.659,1.7l-.021,1.365-3.4.8a2.163,2.163,0,0,0-1.953,2.247c0,1.617,1.092,2.625,2.982,2.625a6.193,6.193,0,0,0,2.247-1.575h.126a1.521,1.521,0,0,0,1.47,1.554,3.143,3.143,0,0,0,1.2-.42l.147-.945-.168-.147a2.1,2.1,0,0,1-.693.126c-.5,0-.672-.21-.672-.819,0-.735.273-4.452.273-5.187C141.981,10.159,140.826,9.214,139.041,9.214Zm1.365,5.334-.063,1.722a3.256,3.256,0,0,1-2.373,1.491,1.341,1.341,0,0,1-1.407-1.47.9.9,0,0,1,.8-1.008Zm9.555-5.187c-.819,0-1.827.441-2.688,1.953h-.126l.021-1.974-1.6.147.105,5.439L145.551,19h1.659l-.1-4.221.021-1.47c.756-1.659,1.533-2.331,2.436-2.331a2.908,2.908,0,0,1,.756.105l.189-.063V9.4A4.13,4.13,0,0,0,149.961,9.361Zm3.276-4.284a.926.926,0,0,0-.987.987.863.863,0,0,0,.924.966A.938.938,0,0,0,154.161,6,.86.86,0,0,0,153.237,5.077Zm.651,9.7.126-5.439-1.659.147.084,5.439L152.334,19h1.659Zm7.056-5.565c-2.793,0-4.389,1.869-4.389,5.1,0,3.087,1.512,4.851,4.137,4.851,2.793,0,4.368-1.869,4.368-5.1C165.06,10.978,163.548,9.214,160.944,9.214Zm-.1,1.176c1.722,0,2.667,1.386,2.667,4.053,0,2.352-.945,3.528-2.709,3.528-1.722,0-2.667-1.323-2.667-4.032C158.13,11.629,159.075,10.39,160.839,10.39Zm6.825,6.783a3.659,3.659,0,0,0-1.155.546v.168a1.209,1.209,0,0,1,.651.987A2.477,2.477,0,0,1,166,20.722v.147l.567.525c1.323-.966,1.974-1.911,1.974-2.814A1.634,1.634,0,0,0,167.664,17.173Zm14.049-2.394.126-10.521L180.18,4.4l.042,5.019a8.182,8.182,0,0,0-1.848-.21c-2.919,0-4.662,1.806-4.662,5,0,3.108,1.491,4.893,4.284,4.893a6.983,6.983,0,0,0,2.289-1.449h.147a1.548,1.548,0,0,0,1.47,1.47,3.024,3.024,0,0,0,1.2-.42l.147-.945-.168-.147a2.119,2.119,0,0,1-.714.126c-.441,0-.588-.21-.609-.8Zm-3.549-4.389a4.9,4.9,0,0,1,2.058.525l.042,3.99-.042,1.512a2.982,2.982,0,0,1-2.31,1.281c-1.6,0-2.6-1.3-2.646-3.633C175.224,11.629,176.4,10.39,178.164,10.39Zm7.98,3.717L192,14.086l.357-.273c.021-.252.042-.735.042-.966,0-2.268-1.218-3.612-3.318-3.612-2.751,0-4.515,1.911-4.515,5.019,0,3.024,1.617,4.914,4.368,4.914a6.585,6.585,0,0,0,2.919-.777l.168-1.407-.189-.1a5.13,5.13,0,0,1-2.814.945c-1.932,0-2.877-1.386-2.877-3.654Zm2.793-3.7c1.155,0,1.974.693,1.974,2.2l-.042.252-4.62.126C186.543,11.335,187.509,10.411,188.937,10.411Zm9.387-1.2c-2.646,0-4.263,1.953-4.263,5.04,0,3.045,1.554,4.914,4.1,4.914a6.813,6.813,0,0,0,2.562-.546l.189-1.407-.189-.1a4.717,4.717,0,0,1-2.352.714c-1.722,0-2.73-1.407-2.73-3.654,0-2.268.987-3.591,2.625-3.591a4.088,4.088,0,0,1,2.163.714l.189-.063.294-1.449A6.385,6.385,0,0,0,198.324,9.214Zm5.5-4.137a.926.926,0,0,0-.987.987.863.863,0,0,0,.924.966A.938.938,0,0,0,204.75,6,.86.86,0,0,0,203.826,5.077Zm.651,9.7L204.6,9.34l-1.659.147.084,5.439L202.923,19h1.659Zm10.647,0,.126-10.521-1.659.147.042,5.019a8.182,8.182,0,0,0-1.848-.21c-2.919,0-4.662,1.806-4.662,5,0,3.108,1.491,4.893,4.284,4.893a6.983,6.983,0,0,0,2.289-1.449h.147a1.548,1.548,0,0,0,1.47,1.47,3.024,3.024,0,0,0,1.2-.42l.147-.945-.168-.147a2.119,2.119,0,0,1-.714.126c-.441,0-.588-.21-.609-.8Zm-3.549-4.389a4.9,4.9,0,0,1,2.058.525l.042,3.99-.042,1.512a2.982,2.982,0,0,1-2.31,1.281c-1.6,0-2.6-1.3-2.646-3.633C208.635,11.629,209.811,10.39,211.575,10.39Zm8.085-5.313a.926.926,0,0,0-.987.987.863.863,0,0,0,.924.966A.938.938,0,0,0,220.584,6,.86.86,0,0,0,219.66,5.077Zm.651,9.7.126-5.439-1.659.147.084,5.439L218.757,19h1.659ZM235.683,19h1.68l-.063-4.179.021-2.73c.021-1.806-1.071-2.835-3.192-2.835a6.906,6.906,0,0,0-2.856,1.6h-.126c-.4-1.029-1.407-1.6-3-1.6a6.415,6.415,0,0,0-2.646,1.491h-.147l.021-1.407-1.6.147.084,5.439L223.755,19h1.659l-.084-4.221.021-2.625a4.2,4.2,0,0,1,2.835-1.512c1.113,0,1.659.714,1.638,1.827l-.1,6.531h1.68l-.084-4.179.042-2.73a4.144,4.144,0,0,1,2.793-1.449,1.576,1.576,0,0,1,1.659,1.827Zm8.4-9.786c-2.793,0-4.389,1.869-4.389,5.1,0,3.087,1.512,4.851,4.137,4.851,2.793,0,4.368-1.869,4.368-5.1C248.2,10.978,246.687,9.214,244.083,9.214Zm-.1,1.176c1.722,0,2.667,1.386,2.667,4.053,0,2.352-.945,3.528-2.709,3.528-1.722,0-2.667-1.323-2.667-4.032C241.269,11.629,242.214,10.39,243.978,10.39Zm9.45-1.155c-2.079,0-3.318,1.176-3.318,2.772,0,2.982,4.389,2.583,4.389,4.515a1.578,1.578,0,0,1-1.743,1.449,4.132,4.132,0,0,1-2.562-1.05l-.189.126-.21,1.428a6.169,6.169,0,0,0,2.793.693c2.226,0,3.423-1.407,3.423-2.94,0-2.9-4.368-2.5-4.368-4.431a1.455,1.455,0,0,1,1.6-1.365,3.643,3.643,0,0,1,2.016.693l.252-.063.231-1.365A6.123,6.123,0,0,0,253.428,9.235ZM2.562,34.077a.926.926,0,0,0-.987.987.863.863,0,0,0,.924.966A.938.938,0,0,0,3.486,35,.86.86,0,0,0,2.562,34.077Zm.651,9.7.126-5.439-1.659.147.084,5.439L1.659,48H3.318ZM12.621,48H14.3l-.084-4.179.042-2.73c.021-1.806-1.071-2.835-3.213-2.835a6.611,6.611,0,0,0-2.667,1.491H8.253l.021-1.407-1.6.147.084,5.439L6.657,48H8.316l-.084-4.221.021-2.646a4.164,4.164,0,0,1,2.835-1.491c1.113,0,1.659.714,1.638,1.827Zm8.463-9.786c-2.793,0-4.389,1.869-4.389,5.1,0,3.087,1.512,4.851,4.137,4.851,2.793,0,4.368-1.869,4.368-5.1C25.2,39.978,23.688,38.214,21.084,38.214Zm-.1,1.176c1.722,0,2.667,1.386,2.667,4.053,0,2.352-.945,3.528-2.709,3.528-1.722,0-2.667-1.323-2.667-4.032C18.27,40.629,19.215,39.39,20.979,39.39Zm7.077.21-.273-1.281-1.554.1L29.211,48H31l3.528-9.618H33.033l-.336,1.3L30.24,46.341h-.1Zm11.151-1.386a6.045,6.045,0,0,0-3.591,1.3l.21,1.2.168.084a4.576,4.576,0,0,1,2.961-1.386,1.517,1.517,0,0,1,1.659,1.7l-.021,1.365-3.4.8a2.163,2.163,0,0,0-1.953,2.247c0,1.617,1.092,2.625,2.982,2.625a6.193,6.193,0,0,0,2.247-1.575h.147a1.5,1.5,0,0,0,1.449,1.554,3.024,3.024,0,0,0,1.2-.42l.168-.945-.168-.147a2.291,2.291,0,0,1-.714.126c-.483,0-.651-.21-.651-.819,0-.735.252-4.452.252-5.187C42.147,39.159,41.013,38.214,39.207,38.214Zm1.365,5.334-.063,1.722a3.222,3.222,0,0,1-2.352,1.491,1.346,1.346,0,0,1-1.428-1.47.92.92,0,0,1,.8-1.008Zm9.555-5.187c-.819,0-1.827.441-2.688,1.953h-.126l.021-1.974-1.6.147.1,5.439L45.717,48h1.659l-.1-4.221.021-1.47c.756-1.659,1.533-2.331,2.436-2.331a2.908,2.908,0,0,1,.756.1l.189-.063V38.4A4.13,4.13,0,0,0,50.127,38.361Zm6.636,4.746,5.859-.021.357-.273c.021-.252.042-.735.042-.966,0-2.268-1.218-3.612-3.318-3.612-2.751,0-4.515,1.911-4.515,5.019,0,3.024,1.617,4.914,4.368,4.914a6.585,6.585,0,0,0,2.919-.777l.168-1.407-.189-.1a5.13,5.13,0,0,1-2.814.945c-1.932,0-2.877-1.386-2.877-3.654Zm2.793-3.7c1.155,0,1.974.693,1.974,2.205l-.042.252-4.62.126C57.162,40.335,58.128,39.411,59.556,39.411Zm12.852-1.2c-2.646,0-4.263,1.953-4.263,5.04,0,3.045,1.554,4.914,4.095,4.914a6.813,6.813,0,0,0,2.562-.546l.189-1.407-.189-.1a4.717,4.717,0,0,1-2.352.714c-1.722,0-2.73-1.407-2.73-3.654,0-2.268.987-3.591,2.625-3.591a4.088,4.088,0,0,1,2.163.714l.189-.063.294-1.449A6.385,6.385,0,0,0,72.408,38.214Zm9.009.147c-.819,0-1.827.441-2.688,1.953H78.6l.021-1.974-1.6.147.105,5.439L77.007,48h1.659l-.105-4.221.021-1.47c.756-1.659,1.533-2.331,2.436-2.331a2.908,2.908,0,0,1,.756.1l.189-.063V38.4A4.129,4.129,0,0,0,81.417,38.361Zm3.276-4.284a.926.926,0,0,0-.987.987.863.863,0,0,0,.924.966A.938.938,0,0,0,85.617,35,.86.86,0,0,0,84.693,34.077Zm.651,9.7.126-5.439-1.659.147.084,5.439L83.79,48h1.659Zm6.636-5.565a6.045,6.045,0,0,0-3.591,1.3l.21,1.2.168.084a4.576,4.576,0,0,1,2.961-1.386,1.517,1.517,0,0,1,1.659,1.7l-.021,1.365-3.4.8a2.163,2.163,0,0,0-1.953,2.247c0,1.617,1.092,2.625,2.982,2.625a6.193,6.193,0,0,0,2.247-1.575h.147a1.5,1.5,0,0,0,1.449,1.554,3.024,3.024,0,0,0,1.2-.42l.168-.945-.168-.147a2.291,2.291,0,0,1-.714.126c-.483,0-.651-.21-.651-.819,0-.735.252-4.452.252-5.187C94.92,39.159,93.786,38.214,91.98,38.214Zm1.365,5.334-.063,1.722a3.222,3.222,0,0,1-2.352,1.491,1.346,1.346,0,0,1-1.428-1.47.92.92,0,0,1,.8-1.008Zm9.555-5.187c-.819,0-1.827.441-2.688,1.953h-.126l.021-1.974-1.6.147.105,5.439L98.49,48h1.659l-.105-4.221.021-1.47c.756-1.659,1.533-2.331,2.436-2.331a2.908,2.908,0,0,1,.756.1l.189-.063V38.4A4.129,4.129,0,0,0,102.9,38.361Zm9.324-.147c-2.646,0-4.263,1.953-4.263,5.04,0,3.045,1.554,4.914,4.095,4.914a6.813,6.813,0,0,0,2.562-.546l.189-1.407-.189-.1a4.717,4.717,0,0,1-2.352.714c-1.722,0-2.73-1.407-2.73-3.654,0-2.268.987-3.591,2.625-3.591a4.088,4.088,0,0,1,2.163.714l.189-.063.294-1.449A6.385,6.385,0,0,0,112.224,38.214Zm7.581,0a6.045,6.045,0,0,0-3.591,1.3l.21,1.2.168.084a4.576,4.576,0,0,1,2.961-1.386,1.517,1.517,0,0,1,1.659,1.7l-.021,1.365-3.4.8a2.163,2.163,0,0,0-1.953,2.247c0,1.617,1.092,2.625,2.982,2.625a6.193,6.193,0,0,0,2.247-1.575h.147a1.5,1.5,0,0,0,1.449,1.554,3.024,3.024,0,0,0,1.2-.42l.168-.945-.168-.147a2.291,2.291,0,0,1-.714.126c-.483,0-.651-.21-.651-.819,0-.735.252-4.452.252-5.187C122.745,39.159,121.611,38.214,119.8,38.214Zm1.365,5.334-.063,1.722a3.222,3.222,0,0,1-2.352,1.491,1.346,1.346,0,0,1-1.428-1.47.92.92,0,0,1,.8-1.008ZM138.243,48h1.68l-.063-4.179.021-2.73c.021-1.806-1.071-2.835-3.192-2.835a6.906,6.906,0,0,0-2.856,1.6h-.126c-.4-1.029-1.407-1.6-3-1.6a6.415,6.415,0,0,0-2.646,1.491h-.147l.021-1.407-1.6.147.084,5.439L126.315,48h1.659l-.084-4.221.021-2.625a4.2,4.2,0,0,1,2.835-1.512c1.113,0,1.659.714,1.638,1.827l-.1,6.531h1.68l-.084-4.179.042-2.73a4.144,4.144,0,0,1,2.793-1.449,1.576,1.576,0,0,1,1.659,1.827Zm5.691-13.923a.926.926,0,0,0-.987.987.863.863,0,0,0,.924.966A.938.938,0,0,0,144.858,35,.86.86,0,0,0,143.934,34.077Zm.651,9.7.126-5.439-1.659.147.084,5.439L143.031,48h1.659Zm6.09-5.544c-2.079,0-3.318,1.176-3.318,2.772,0,2.982,4.389,2.583,4.389,4.515A1.578,1.578,0,0,1,150,46.971a4.132,4.132,0,0,1-2.562-1.05l-.189.126-.21,1.428a6.169,6.169,0,0,0,2.793.693c2.226,0,3.423-1.407,3.423-2.94,0-2.9-4.368-2.5-4.368-4.431a1.455,1.455,0,0,1,1.6-1.365,3.643,3.643,0,0,1,2.016.693l.252-.063.231-1.365A6.123,6.123,0,0,0,150.675,38.235Zm5.922,4.872,5.859-.021.357-.273c.021-.252.042-.735.042-.966,0-2.268-1.218-3.612-3.318-3.612-2.751,0-4.515,1.911-4.515,5.019,0,3.024,1.617,4.914,4.368,4.914a6.585,6.585,0,0,0,2.919-.777l.168-1.407-.189-.1a5.13,5.13,0,0,1-2.814.945c-1.932,0-2.877-1.386-2.877-3.654Zm2.793-3.7c1.155,0,1.974.693,1.974,2.205l-.042.252-4.62.126C157,40.335,157.962,39.411,159.39,39.411Zm8.946,7.308c-.924,0-1.344-.378-1.323-1.512l.105-5.691h2.835l.1-.987-.084-.126h-2.856l.042-2.037-.168-.147-1.449.63V38.4h-1.281l-.105.987.084.126h1.323l.021,4.347-.063,1.491a2.426,2.426,0,0,0,2.247,2.772,6.053,6.053,0,0,0,2.1-.609l.168-1.092-.189-.126A3.181,3.181,0,0,1,168.336,46.719Zm6.846-8.505a6.045,6.045,0,0,0-3.591,1.3l.21,1.2.168.084a4.576,4.576,0,0,1,2.961-1.386,1.517,1.517,0,0,1,1.659,1.7l-.021,1.365-3.4.8a2.163,2.163,0,0,0-1.953,2.247c0,1.617,1.092,2.625,2.982,2.625a6.193,6.193,0,0,0,2.247-1.575h.147a1.5,1.5,0,0,0,1.449,1.554,3.024,3.024,0,0,0,1.2-.42l.168-.945-.168-.147a2.291,2.291,0,0,1-.714.126c-.483,0-.651-.21-.651-.819,0-.735.252-4.452.252-5.187C178.122,39.159,176.988,38.214,175.182,38.214Zm1.365,5.334-.063,1.722a3.222,3.222,0,0,1-2.352,1.491,1.346,1.346,0,0,1-1.428-1.47.92.92,0,0,1,.8-1.008Zm7.791-5.313c-2.079,0-3.318,1.176-3.318,2.772,0,2.982,4.389,2.583,4.389,4.515a1.578,1.578,0,0,1-1.743,1.449,4.132,4.132,0,0,1-2.562-1.05l-.189.126-.21,1.428a6.169,6.169,0,0,0,2.793.693c2.226,0,3.423-1.407,3.423-2.94,0-2.9-4.368-2.5-4.368-4.431a1.455,1.455,0,0,1,1.6-1.365,3.643,3.643,0,0,1,2.016.693l.252-.063.231-1.365A6.123,6.123,0,0,0,184.338,38.235Zm12.075-.021c-2.646,0-4.263,1.953-4.263,5.04,0,3.045,1.554,4.914,4.1,4.914a6.813,6.813,0,0,0,2.562-.546L199,46.215l-.189-.1a4.717,4.717,0,0,1-2.352.714c-1.722,0-2.73-1.407-2.73-3.654,0-2.268.987-3.591,2.625-3.591a4.088,4.088,0,0,1,2.163.714l.189-.063L199,38.781A6.385,6.385,0,0,0,196.413,38.214Zm8.19,0c-2.793,0-4.389,1.869-4.389,5.1,0,3.087,1.512,4.851,4.137,4.851,2.793,0,4.368-1.869,4.368-5.1C208.719,39.978,207.207,38.214,204.6,38.214Zm-.1,1.176c1.722,0,2.667,1.386,2.667,4.053,0,2.352-.945,3.528-2.709,3.528-1.722,0-2.667-1.323-2.667-4.032C201.789,40.629,202.734,39.39,204.5,39.39ZM223.23,48h1.68l-.063-4.179.021-2.73c.021-1.806-1.071-2.835-3.192-2.835a6.906,6.906,0,0,0-2.856,1.6h-.126c-.4-1.029-1.407-1.6-3-1.6a6.415,6.415,0,0,0-2.646,1.491H212.9l.021-1.407-1.6.147.084,5.439L211.3,48h1.659l-.084-4.221.021-2.625a4.2,4.2,0,0,1,2.835-1.512c1.113,0,1.659.714,1.638,1.827l-.1,6.531h1.68l-.084-4.179.042-2.73a4.144,4.144,0,0,1,2.793-1.449,1.576,1.576,0,0,1,1.659,1.827ZM5.712,62.216a3.13,3.13,0,0,0-3.444,3.507l.021,1.68H.861l-.1.987.084.126H2.289L2.331,72.9,2.205,77H3.864l-.105-4.221L3.8,68.516H6.3l.105-.987L6.342,67.4H3.822l.021-1.932c.021-1.365.63-2.037,1.722-2.037a3.166,3.166,0,0,1,1.533.378l.126-.1.126-1.3A7.85,7.85,0,0,0,5.712,62.216Zm6.72,5.145c-.819,0-1.827.441-2.688,1.953H9.618l.021-1.974-1.6.147.1,5.439L8.022,77H9.681l-.1-4.221.021-1.47c.756-1.659,1.533-2.331,2.436-2.331a2.908,2.908,0,0,1,.756.105l.189-.063V67.4A4.129,4.129,0,0,0,12.432,67.361Zm5.355-.147a6.045,6.045,0,0,0-3.591,1.3l.21,1.2.168.084a4.576,4.576,0,0,1,2.961-1.386,1.517,1.517,0,0,1,1.659,1.7l-.021,1.365-3.4.8a2.163,2.163,0,0,0-1.953,2.247c0,1.617,1.092,2.625,2.982,2.625a6.193,6.193,0,0,0,2.247-1.575h.147a1.5,1.5,0,0,0,1.449,1.554,3.024,3.024,0,0,0,1.2-.42l.168-.945-.168-.147a2.291,2.291,0,0,1-.714.126c-.483,0-.651-.21-.651-.819,0-.735.252-4.452.252-5.187C20.727,68.159,19.593,67.214,17.787,67.214Zm1.365,5.334-.063,1.722a3.222,3.222,0,0,1-2.352,1.491,1.346,1.346,0,0,1-1.428-1.47.92.92,0,0,1,.8-1.008Zm7.791-5.313c-2.079,0-3.318,1.176-3.318,2.772,0,2.982,4.389,2.583,4.389,4.515a1.578,1.578,0,0,1-1.743,1.449,4.132,4.132,0,0,1-2.562-1.05l-.189.126-.21,1.428a6.169,6.169,0,0,0,2.793.693c2.226,0,3.423-1.407,3.423-2.94,0-2.9-4.368-2.5-4.368-4.431a1.455,1.455,0,0,1,1.6-1.365,3.643,3.643,0,0,1,2.016.693l.252-.063.231-1.365A6.123,6.123,0,0,0,26.943,67.235Zm5.922,4.872,5.859-.021.357-.273c.021-.252.042-.735.042-.966,0-2.268-1.218-3.612-3.318-3.612-2.751,0-4.515,1.911-4.515,5.019,0,3.024,1.617,4.914,4.368,4.914a6.585,6.585,0,0,0,2.919-.777l.168-1.407-.189-.105a5.13,5.13,0,0,1-2.814.945c-1.932,0-2.877-1.386-2.877-3.654Zm2.793-3.7c1.155,0,1.974.693,1.974,2.2l-.042.252-4.62.126C33.264,69.335,34.23,68.411,35.658,68.411Zm8.547-1.176c-2.079,0-3.318,1.176-3.318,2.772,0,2.982,4.389,2.583,4.389,4.515a1.578,1.578,0,0,1-1.743,1.449,4.132,4.132,0,0,1-2.562-1.05l-.189.126-.21,1.428a6.169,6.169,0,0,0,2.793.693c2.226,0,3.423-1.407,3.423-2.94,0-2.9-4.368-2.5-4.368-4.431a1.455,1.455,0,0,1,1.6-1.365,3.643,3.643,0,0,1,2.016.693l.252-.063.231-1.365A6.123,6.123,0,0,0,44.205,67.235ZM60,72.779l.126-10.521-1.659.147.042,5.019a8.182,8.182,0,0,0-1.848-.21c-2.919,0-4.662,1.806-4.662,5,0,3.108,1.491,4.893,4.284,4.893a6.983,6.983,0,0,0,2.289-1.449h.147a1.548,1.548,0,0,0,1.47,1.47,3.024,3.024,0,0,0,1.2-.42l.147-.945-.168-.147a2.119,2.119,0,0,1-.714.126c-.441,0-.588-.21-.609-.8ZM56.448,68.39a4.9,4.9,0,0,1,2.058.525l.042,3.99-.042,1.512A2.982,2.982,0,0,1,56.2,75.7c-1.6,0-2.6-1.3-2.646-3.633C53.508,69.629,54.684,68.39,56.448,68.39Zm10.794-1.176c-2.793,0-4.389,1.869-4.389,5.1,0,3.087,1.512,4.851,4.137,4.851,2.793,0,4.368-1.869,4.368-5.1C71.358,68.978,69.846,67.214,67.242,67.214Zm-.105,1.176c1.722,0,2.667,1.386,2.667,4.053,0,2.352-.945,3.528-2.709,3.528-1.722,0-2.667-1.323-2.667-4.032C64.428,69.629,65.373,68.39,67.137,68.39Zm9.45-1.155c-2.079,0-3.318,1.176-3.318,2.772,0,2.982,4.389,2.583,4.389,4.515a1.578,1.578,0,0,1-1.743,1.449,4.132,4.132,0,0,1-2.562-1.05l-.189.126-.21,1.428a6.169,6.169,0,0,0,2.793.693c2.226,0,3.423-1.407,3.423-2.94,0-2.9-4.368-2.5-4.368-4.431a1.455,1.455,0,0,1,1.6-1.365,3.643,3.643,0,0,1,2.016.693l.252-.063L78.9,67.7A6.123,6.123,0,0,0,76.587,67.235Zm11.781-.021a6.045,6.045,0,0,0-3.591,1.3l.21,1.2.168.084a4.576,4.576,0,0,1,2.961-1.386,1.517,1.517,0,0,1,1.659,1.7l-.021,1.365-3.4.8A2.163,2.163,0,0,0,84.4,74.522c0,1.617,1.092,2.625,2.982,2.625a6.193,6.193,0,0,0,2.247-1.575h.147a1.5,1.5,0,0,0,1.449,1.554,3.024,3.024,0,0,0,1.2-.42l.168-.945-.168-.147a2.291,2.291,0,0,1-.714.126c-.483,0-.651-.21-.651-.819,0-.735.252-4.452.252-5.187C91.308,68.159,90.174,67.214,88.368,67.214Zm1.365,5.334L89.67,74.27a3.222,3.222,0,0,1-2.352,1.491,1.346,1.346,0,0,1-1.428-1.47.92.92,0,0,1,.8-1.008ZM100.842,77h1.68l-.084-4.179.042-2.73c.021-1.806-1.071-2.835-3.213-2.835A6.611,6.611,0,0,0,96.6,68.747h-.126l.021-1.407-1.6.147.084,5.439L94.878,77h1.659l-.084-4.221.021-2.646a4.164,4.164,0,0,1,2.835-1.491c1.113,0,1.659.714,1.638,1.827Zm8.463-9.786c-2.793,0-4.389,1.869-4.389,5.1,0,3.087,1.512,4.851,4.137,4.851,2.793,0,4.368-1.869,4.368-5.1C113.421,68.978,111.909,67.214,109.305,67.214ZM109.2,68.39c1.722,0,2.667,1.386,2.667,4.053,0,2.352-.945,3.528-2.709,3.528-1.722,0-2.667-1.323-2.667-4.032C106.491,69.629,107.436,68.39,109.2,68.39Zm9.45-1.155c-2.079,0-3.318,1.176-3.318,2.772,0,2.982,4.389,2.583,4.389,4.515a1.578,1.578,0,0,1-1.743,1.449,4.132,4.132,0,0,1-2.562-1.05l-.189.126-.21,1.428a6.169,6.169,0,0,0,2.793.693c2.226,0,3.423-1.407,3.423-2.94,0-2.9-4.368-2.5-4.368-4.431a1.455,1.455,0,0,1,1.6-1.365,3.643,3.643,0,0,1,2.016.693l.252-.063.231-1.365A6.123,6.123,0,0,0,118.65,67.235Zm11.655-.609-.252-.168-4.242,1.26v1.323l.168.084,2.709-.756.021,4.494L128.6,77h1.68l-.084-4.347Zm7.5-.273a3.777,3.777,0,0,0-4.1,3.948,3.217,3.217,0,0,0,3.36,3.549,4.549,4.549,0,0,0,2.73-.924l.126.147c-.651,2.247-2.478,3.822-5.838,5v.168l1.3.756h.1c3.948-1.575,6.216-4.473,6.216-8.043C141.708,68.054,140.427,66.353,137.8,66.353Zm-.273,6.258c-1.491,0-2.331-.9-2.331-2.541a2.29,2.29,0,0,1,2.478-2.562c1.743,0,2.52,1.176,2.52,3.444l-.021.567A3.944,3.944,0,0,1,137.529,72.611Zm10.143-6.258a3.777,3.777,0,0,0-4.1,3.948,3.217,3.217,0,0,0,3.36,3.549,4.549,4.549,0,0,0,2.73-.924l.126.147c-.651,2.247-2.478,3.822-5.838,5v.168l1.3.756h.1c3.948-1.575,6.216-4.473,6.216-8.043C151.578,68.054,150.3,66.353,147.672,66.353Zm-.273,6.258c-1.491,0-2.331-.9-2.331-2.541a2.29,2.29,0,0,1,2.478-2.562c1.743,0,2.52,1.176,2.52,3.444l-.021.567A3.944,3.944,0,0,1,147.4,72.611Zm10.815-6.195c-3,0-4.683,1.974-4.683,5.5,0,3.339,1.617,5.229,4.473,5.229,2.982,0,4.662-1.974,4.662-5.439C162.666,68.306,161.049,66.416,158.214,66.416Zm-.147,1.533c2.142,0,3.276,1.344,3.276,3.948,0,2.478-1.113,3.78-3.255,3.78s-3.234-1.323-3.234-3.885C154.854,69.251,155.946,67.949,158.067,67.949Zm8.232,7.224a3.659,3.659,0,0,0-1.155.546v.168a1.209,1.209,0,0,1,.651.987,2.477,2.477,0,0,1-1.155,1.848v.147l.567.525c1.323-.966,1.974-1.911,1.974-2.814A1.634,1.634,0,0,0,166.3,75.173Zm10.9-12.957a3.13,3.13,0,0,0-3.444,3.507l.021,1.68h-1.428l-.1.987.084.126h1.449l.042,4.389-.126,4.1h1.659l-.1-4.221.042-4.263h2.5l.1-.987-.063-.126h-2.52l.021-1.932c.021-1.365.63-2.037,1.722-2.037a3.166,3.166,0,0,1,1.533.378l.126-.1.126-1.3A7.85,7.85,0,0,0,177.2,62.216Zm5.565,5c-2.793,0-4.389,1.869-4.389,5.1,0,3.087,1.512,4.851,4.137,4.851,2.793,0,4.368-1.869,4.368-5.1C186.879,68.978,185.367,67.214,182.763,67.214Zm-.1,1.176c1.722,0,2.667,1.386,2.667,4.053,0,2.352-.945,3.528-2.709,3.528-1.722,0-2.667-1.323-2.667-4.032C179.949,69.629,180.894,68.39,182.658,68.39Zm10.29-1.176c-2.646,0-4.263,1.953-4.263,5.04,0,3.045,1.554,4.914,4.1,4.914a6.813,6.813,0,0,0,2.562-.546l.189-1.407-.189-.1a4.717,4.717,0,0,1-2.352.714c-1.722,0-2.73-1.407-2.73-3.654,0-2.268.987-3.591,2.625-3.591a4.088,4.088,0,0,1,2.163.714l.189-.063.294-1.449A6.385,6.385,0,0,0,192.948,67.214Zm7.581,0a6.045,6.045,0,0,0-3.591,1.3l.21,1.2.168.084a4.576,4.576,0,0,1,2.961-1.386,1.517,1.517,0,0,1,1.659,1.7l-.021,1.365-3.4.8a2.163,2.163,0,0,0-1.953,2.247c0,1.617,1.092,2.625,2.982,2.625a6.193,6.193,0,0,0,2.247-1.575h.147a1.5,1.5,0,0,0,1.449,1.554,3.024,3.024,0,0,0,1.2-.42l.168-.945-.168-.147a2.291,2.291,0,0,1-.714.126c-.483,0-.651-.21-.651-.819,0-.735.252-4.452.252-5.187C203.469,68.159,202.335,67.214,200.529,67.214Zm1.365,5.334-.063,1.722a3.222,3.222,0,0,1-2.352,1.491,1.346,1.346,0,0,1-1.428-1.47.92.92,0,0,1,.8-1.008ZM213,77h1.68l-.084-4.179.042-2.73c.021-1.806-1.071-2.835-3.213-2.835a6.611,6.611,0,0,0-2.667,1.491h-.126l.021-1.407-1.6.147.084,5.439L207.039,77H208.7l-.084-4.221.021-2.646a4.164,4.164,0,0,1,2.835-1.491c1.113,0,1.659.714,1.638,1.827Zm12.054-4.221.126-10.521-1.659.147.042,5.019a8.182,8.182,0,0,0-1.848-.21c-2.919,0-4.662,1.806-4.662,5,0,3.108,1.491,4.893,4.284,4.893a6.983,6.983,0,0,0,2.289-1.449h.147a1.548,1.548,0,0,0,1.47,1.47,3.024,3.024,0,0,0,1.2-.42l.147-.945-.168-.147a2.119,2.119,0,0,1-.714.126c-.441,0-.588-.21-.609-.8Zm-3.549-4.389a4.9,4.9,0,0,1,2.058.525l.042,3.99-.042,1.512a2.982,2.982,0,0,1-2.31,1.281c-1.6,0-2.6-1.3-2.646-3.633C218.568,69.629,219.744,68.39,221.508,68.39ZM232.3,67.214c-2.793,0-4.389,1.869-4.389,5.1,0,3.087,1.512,4.851,4.137,4.851,2.793,0,4.368-1.869,4.368-5.1C236.418,68.978,234.906,67.214,232.3,67.214Zm-.1,1.176c1.722,0,2.667,1.386,2.667,4.053,0,2.352-.945,3.528-2.709,3.528-1.722,0-2.667-1.323-2.667-4.032C229.488,69.629,230.433,68.39,232.2,68.39ZM2.457,101.107l5.859-.021.357-.273c.021-.252.042-.735.042-.966,0-2.268-1.218-3.612-3.318-3.612-2.751,0-4.515,1.911-4.515,5.019,0,3.024,1.617,4.914,4.368,4.914a6.585,6.585,0,0,0,2.919-.777l.168-1.407-.189-.105a5.13,5.13,0,0,1-2.814.945c-1.932,0-2.877-1.386-2.877-3.654Zm2.793-3.7c1.155,0,1.974.693,1.974,2.2l-.042.252-4.62.126C2.856,98.335,3.822,97.411,5.25,97.411ZM23.079,106h1.68l-.063-4.179.021-2.73c.021-1.806-1.071-2.835-3.192-2.835a6.906,6.906,0,0,0-2.856,1.6h-.126c-.4-1.029-1.407-1.6-3-1.6a6.415,6.415,0,0,0-2.646,1.491h-.147l.021-1.407-1.6.147.084,5.439-.1,4.074H12.81l-.084-4.221.021-2.625a4.2,4.2,0,0,1,2.835-1.512c1.113,0,1.659.714,1.638,1.827L17.115,106H18.8l-.084-4.179.042-2.73a4.144,4.144,0,0,1,2.793-1.449,1.576,1.576,0,0,1,1.659,1.827Zm15.5-9.66-1.6.147v6.951a3.884,3.884,0,0,1-2.6,1.281c-1.092,0-1.638-.693-1.617-1.827l.126-6.552-1.68.147.063,4.137-.021,2.667c-.021,1.806,1.071,2.835,3.15,2.835a6.1,6.1,0,0,0,2.6-1.47h.168a1.529,1.529,0,0,0,1.449,1.47,3.024,3.024,0,0,0,1.2-.42l.147-.945-.147-.147a2.309,2.309,0,0,1-.735.126c-.441,0-.63-.21-.63-.8ZM53.991,106h1.68l-.063-4.179.021-2.73c.021-1.806-1.071-2.835-3.192-2.835a6.906,6.906,0,0,0-2.856,1.6h-.126c-.4-1.029-1.407-1.6-3-1.6a6.415,6.415,0,0,0-2.646,1.491h-.147l.021-1.407-1.6.147.084,5.439-.1,4.074h1.659l-.084-4.221.021-2.625a4.2,4.2,0,0,1,2.835-1.512c1.113,0,1.659.714,1.638,1.827l-.1,6.531h1.68l-.084-4.179.042-2.73a4.144,4.144,0,0,1,2.793-1.449,1.576,1.576,0,0,1,1.659,1.827Zm12.621-9.723a6.215,6.215,0,0,0-2.646,1.428H63.84l.021-1.365-1.617.147.126,5.439-.126,7.959h1.638l-.042-3.906a9.151,9.151,0,0,0,1.827.189c2.961,0,4.683-1.89,4.683-5.271C70.35,98,69.09,96.277,66.612,96.277Zm-.735,8.673a4.319,4.319,0,0,1-2.058-.546l-.021-2.625.021-2.646a3.651,3.651,0,0,1,2.646-1.491c1.47,0,2.268,1.26,2.31,3.444C68.817,103.69,67.641,104.95,65.877,104.95ZM78.666,91.384l-.189-.021c-1.176,1.155-2.289,2.1-3.444,3.045l.462.672.189.021c1.2-.84,2.331-1.7,3.57-2.667l.042-.168Zm1.449,4.956-1.575.147v6.951a3.971,3.971,0,0,1-2.625,1.281c-1.071,0-1.617-.693-1.6-1.827l.1-6.552-1.68.147.084,4.137-.042,2.667c-.021,1.806,1.071,2.835,3.171,2.835a6.16,6.16,0,0,0,2.583-1.47h.168a1.529,1.529,0,0,0,1.449,1.47,2.913,2.913,0,0,0,1.2-.42l.168-.945-.168-.147a2.225,2.225,0,0,1-.735.126c-.441,0-.609-.21-.609-.8Zm7.959-.063a6.441,6.441,0,0,0-2.646,1.428H85.3l.063-6.447-1.659.147.126,10.563-.147,4.1.294.168,1.155-.525a5.141,5.141,0,0,0,2.058.462c2.877,0,4.62-1.89,4.62-5.271C91.812,98,90.531,96.277,88.074,96.277Zm-.735,8.673a3.607,3.607,0,0,1-2.016-.672l-.063-2.5.021-2.646a3.616,3.616,0,0,1,2.646-1.491c1.47,0,2.268,1.26,2.31,3.444C90.279,103.69,89.1,104.95,87.339,104.95Zm8.673-3.171.126-10.521-1.659.147.1,10.5-.126,4.1h1.659Zm4.431-9.7a.926.926,0,0,0-.987.987.863.863,0,0,0,.924.966A.938.938,0,0,0,101.367,93,.86.86,0,0,0,100.443,92.077Zm.651,9.7.126-5.439-1.659.147.084,5.439L99.54,106H101.2Zm6.93-5.565c-2.646,0-4.263,1.953-4.263,5.04,0,3.045,1.554,4.914,4.095,4.914a6.813,6.813,0,0,0,2.562-.546l.189-1.407-.189-.1a4.717,4.717,0,0,1-2.352.714c-1.722,0-2.73-1.407-2.73-3.654,0-2.268.987-3.591,2.625-3.591a4.088,4.088,0,0,1,2.163.714l.189-.063.294-1.449A6.385,6.385,0,0,0,108.024,96.214Zm8.19,0c-2.793,0-4.389,1.869-4.389,5.1,0,3.087,1.512,4.851,4.137,4.851,2.793,0,4.368-1.869,4.368-5.1C120.33,97.978,118.818,96.214,116.214,96.214Zm-.105,1.176c1.722,0,2.667,1.386,2.667,4.053,0,2.352-.945,3.528-2.709,3.528-1.722,0-2.667-1.323-2.667-4.032C113.4,98.629,114.345,97.39,116.109,97.39Zm22.2,8.61h1.68l-.063-4.179.021-2.73c.021-1.806-1.071-2.835-3.192-2.835a6.906,6.906,0,0,0-2.856,1.6h-.126c-.4-1.029-1.407-1.6-3-1.6a6.415,6.415,0,0,0-2.646,1.491h-.147l.021-1.407-1.6.147.084,5.439L126.378,106h1.659l-.084-4.221.021-2.625a4.2,4.2,0,0,1,2.835-1.512c1.113,0,1.659.714,1.638,1.827l-.1,6.531h1.68l-.084-4.179.042-2.73a4.144,4.144,0,0,1,2.793-1.449,1.576,1.576,0,0,1,1.659,1.827Zm7.98-9.786a6.045,6.045,0,0,0-3.591,1.3l.21,1.2.168.084a4.576,4.576,0,0,1,2.961-1.386,1.517,1.517,0,0,1,1.659,1.7l-.021,1.365-3.4.8a2.163,2.163,0,0,0-1.953,2.247c0,1.617,1.092,2.625,2.982,2.625a6.193,6.193,0,0,0,2.247-1.575h.147a1.5,1.5,0,0,0,1.449,1.554,3.024,3.024,0,0,0,1.2-.42l.168-.945-.168-.147a2.291,2.291,0,0,1-.714.126c-.483,0-.651-.21-.651-.819,0-.735.252-4.452.252-5.187C149.226,97.159,148.092,96.214,146.286,96.214Zm1.365,5.334-.063,1.722a3.222,3.222,0,0,1-2.352,1.491,1.346,1.346,0,0,1-1.428-1.47.92.92,0,0,1,.8-1.008Zm6.048-9.471a.926.926,0,0,0-.987.987.863.863,0,0,0,.924.966A.938.938,0,0,0,154.623,93,.86.86,0,0,0,153.7,92.077Zm.651,9.7.126-5.439-1.659.147.084,5.439L152.8,106h1.659Zm6.09-5.544c-2.079,0-3.318,1.176-3.318,2.772,0,2.982,4.389,2.583,4.389,4.515a1.578,1.578,0,0,1-1.743,1.449,4.132,4.132,0,0,1-2.562-1.05l-.189.126-.21,1.428a6.169,6.169,0,0,0,2.793.693c2.226,0,3.423-1.407,3.423-2.94,0-2.9-4.368-2.5-4.368-4.431a1.455,1.455,0,0,1,1.6-1.365,3.643,3.643,0,0,1,2.016.693l.252-.063.231-1.365A6.123,6.123,0,0,0,160.44,96.235Zm9.6-4.158a.926.926,0,0,0-.987.987.863.863,0,0,0,.924.966A.938.938,0,0,0,170.961,93,.86.86,0,0,0,170.037,92.077Zm1.134,4.305-.063-.042-1.554.063H167.58l-.105.966.126.147h1.932l.084,4.41-.042,3.759a3.437,3.437,0,0,1-1.974,3.444v.189l.63.756c2.121-1.113,2.9-2.268,2.9-4.473l-.084-3.822Zm7.035-.168c-2.793,0-4.389,1.869-4.389,5.1,0,3.087,1.512,4.851,4.137,4.851,2.793,0,4.368-1.869,4.368-5.1C182.322,97.978,180.81,96.214,178.206,96.214Zm-.1,1.176c1.722,0,2.667,1.386,2.667,4.053,0,2.352-.945,3.528-2.709,3.528-1.722,0-2.667-1.323-2.667-4.032C175.392,98.629,176.337,97.39,178.1,97.39Zm7.077.21-.273-1.281-1.554.1L186.333,106h1.785l3.528-9.618h-1.491l-.336,1.3-2.457,6.657h-.1Zm8.778,3.507,5.859-.021.357-.273c.021-.252.042-.735.042-.966,0-2.268-1.218-3.612-3.318-3.612-2.751,0-4.515,1.911-4.515,5.019,0,3.024,1.617,4.914,4.368,4.914a6.585,6.585,0,0,0,2.919-.777l.168-1.407-.189-.105a5.13,5.13,0,0,1-2.814.945c-1.932,0-2.877-1.386-2.877-3.654Zm2.793-3.7c1.155,0,1.974.693,1.974,2.2l-.042.252-4.62.126C194.355,98.335,195.321,97.411,196.749,97.411ZM214.578,106h1.68l-.063-4.179.021-2.73c.021-1.806-1.071-2.835-3.192-2.835a6.906,6.906,0,0,0-2.856,1.6h-.126c-.4-1.029-1.407-1.6-3-1.6a6.415,6.415,0,0,0-2.646,1.491h-.147l.021-1.407-1.6.147.084,5.439L202.65,106h1.659l-.084-4.221.021-2.625a4.2,4.2,0,0,1,2.835-1.512c1.113,0,1.659.714,1.638,1.827l-.1,6.531h1.68l-.084-4.179.042-2.73a4.144,4.144,0,0,1,2.793-1.449,1.576,1.576,0,0,1,1.659,1.827Zm15.414-9.744-.819.336a9.39,9.39,0,0,0-2.52-.378c-2.877,0-4.62,1.764-4.62,5.061,0,3.024,1.47,4.83,4.2,4.83a6.741,6.741,0,0,0,2.163-1.239h.168v.4l-.063,4.62h1.638l-.1-8.064.126-5.46Zm-3.528,1.155a4.565,4.565,0,0,1,2.079.567l.042,4.011-.021,1.428a3.217,3.217,0,0,1-2.415,1.281c-1.554,0-2.52-1.3-2.562-3.57C223.545,98.608,224.721,97.411,226.464,97.411ZM240.7,96.34l-1.6.147v6.951a3.884,3.884,0,0,1-2.6,1.281c-1.092,0-1.638-.693-1.617-1.827l.126-6.552-1.68.147.063,4.137-.021,2.667c-.021,1.806,1.071,2.835,3.15,2.835a6.1,6.1,0,0,0,2.6-1.47h.168a1.529,1.529,0,0,0,1.449,1.47,3.024,3.024,0,0,0,1.2-.42l.147-.945-.147-.147a2.309,2.309,0,0,1-.735.126c-.441,0-.63-.21-.63-.8Zm4.284,4.767,5.859-.021.357-.273c.021-.252.042-.735.042-.966,0-2.268-1.218-3.612-3.318-3.612-2.751,0-4.515,1.911-4.515,5.019,0,3.024,1.617,4.914,4.368,4.914a6.585,6.585,0,0,0,2.919-.777l.168-1.407-.189-.105a5.13,5.13,0,0,1-2.814.945c-1.932,0-2.877-1.386-2.877-3.654Zm2.793-3.7c1.155,0,1.974.693,1.974,2.2l-.042.252-4.62.126C245.385,98.335,246.351,97.411,247.779,97.411ZM5.145,125.214c-2.646,0-4.263,1.953-4.263,5.04,0,3.045,1.554,4.914,4.1,4.914a6.813,6.813,0,0,0,2.562-.546l.189-1.407-.189-.1a4.717,4.717,0,0,1-2.352.714c-1.722,0-2.73-1.407-2.73-3.654,0-2.268.987-3.591,2.625-3.591a4.088,4.088,0,0,1,2.163.714l.189-.063.294-1.449A6.385,6.385,0,0,0,5.145,125.214Zm9.009.147c-.819,0-1.827.441-2.688,1.953H11.34l.021-1.974-1.6.147.1,5.439L9.744,135H11.4l-.1-4.221.021-1.47c.756-1.659,1.533-2.331,2.436-2.331a2.908,2.908,0,0,1,.756.105l.189-.063V125.4A4.129,4.129,0,0,0,14.154,125.361Zm3,4.746,5.859-.021.357-.273c.021-.252.042-.735.042-.966,0-2.268-1.218-3.612-3.318-3.612-2.751,0-4.515,1.911-4.515,5.019,0,3.024,1.617,4.914,4.368,4.914a6.585,6.585,0,0,0,2.919-.777l.168-1.407-.189-.1a5.13,5.13,0,0,1-2.814.945c-1.932,0-2.877-1.386-2.877-3.654Zm2.793-3.7c1.155,0,1.974.693,1.974,2.2l-.042.252-4.62.126C17.556,127.335,18.522,126.411,19.95,126.411Zm8.547-1.176c-2.079,0-3.318,1.176-3.318,2.772,0,2.982,4.389,2.583,4.389,4.515a1.578,1.578,0,0,1-1.743,1.449,4.132,4.132,0,0,1-2.562-1.05l-.189.126-.21,1.428a6.169,6.169,0,0,0,2.793.693c2.226,0,3.423-1.407,3.423-2.94,0-2.9-4.368-2.5-4.368-4.431a1.455,1.455,0,0,1,1.6-1.365,3.643,3.643,0,0,1,2.016.693l.252-.063.231-1.365A6.123,6.123,0,0,0,28.5,125.235Zm8.61-.021c-2.646,0-4.263,1.953-4.263,5.04,0,3.045,1.554,4.914,4.095,4.914a6.813,6.813,0,0,0,2.562-.546l.189-1.407-.189-.1a4.717,4.717,0,0,1-2.352.714c-1.722,0-2.73-1.407-2.73-3.654,0-2.268.987-3.591,2.625-3.591a4.088,4.088,0,0,1,2.163.714l.189-.063.294-1.449A6.385,6.385,0,0,0,37.107,125.214Zm5.376,4.893,5.859-.021.357-.273c.021-.252.042-.735.042-.966,0-2.268-1.218-3.612-3.318-3.612-2.751,0-4.515,1.911-4.515,5.019,0,3.024,1.617,4.914,4.368,4.914a6.585,6.585,0,0,0,2.919-.777l.168-1.407-.189-.1a5.13,5.13,0,0,1-2.814.945c-1.932,0-2.877-1.386-2.877-3.654Zm2.793-3.7c1.155,0,1.974.693,1.974,2.2l-.042.252-4.62.126C42.882,127.335,43.848,126.411,45.276,126.411Zm13.146-1.071-1.6.147v6.951a3.884,3.884,0,0,1-2.6,1.281c-1.092,0-1.638-.693-1.617-1.827l.126-6.552-1.68.147.063,4.137-.021,2.667c-.021,1.806,1.071,2.835,3.15,2.835a6.1,6.1,0,0,0,2.6-1.47h.168a1.529,1.529,0,0,0,1.449,1.47,3.024,3.024,0,0,0,1.2-.42l.147-.945-.147-.147a2.309,2.309,0,0,1-.735.126c-.441,0-.63-.21-.63-.8ZM71.337,135h1.68l-.084-4.179.042-2.73c.021-1.806-1.071-2.835-3.213-2.835a6.611,6.611,0,0,0-2.667,1.491h-.126l.021-1.407-1.6.147.084,5.439L65.373,135h1.659l-.084-4.221.021-2.646a4.164,4.164,0,0,1,2.835-1.491c1.113,0,1.659.714,1.638,1.827Zm8.463-9.786c-2.793,0-4.389,1.869-4.389,5.1,0,3.087,1.512,4.851,4.137,4.851,2.793,0,4.368-1.869,4.368-5.1C83.916,126.978,82.4,125.214,79.8,125.214Zm-.105,1.176c1.722,0,2.667,1.386,2.667,4.053,0,2.352-.945,3.528-2.709,3.528-1.722,0-2.667-1.323-2.667-4.032C76.986,127.629,77.931,126.39,79.695,126.39Zm14.847-6.174c-2.73,0-3.969,1.218-3.969,3.906V125.4H89.166l-.105.987.084.126h1.449l.042,4.41L90.51,135h1.659l-.1-4.2.063-4.284h4.641l.084,4.431L96.726,135h1.68l-.126-4.179.126-5.481-.126-.063-.987.126H92.127l.021-1.6c0-1.638.693-2.373,2.205-2.373a5.526,5.526,0,0,1,2.478.651l.21-.063.21-1.386A9.445,9.445,0,0,0,94.542,120.216Zm13,14.784h1.68l-.084-4.179.042-2.73c.021-1.806-1.071-2.835-3.213-2.835a6.611,6.611,0,0,0-2.667,1.491h-.126l.021-1.407-1.6.147.084,5.439L101.577,135h1.659l-.084-4.221.021-2.646a4.164,4.164,0,0,1,2.835-1.491c1.113,0,1.659.714,1.638,1.827Zm8.043-9.786a6.045,6.045,0,0,0-3.591,1.3l.21,1.2.168.084a4.576,4.576,0,0,1,2.961-1.386,1.517,1.517,0,0,1,1.659,1.7l-.021,1.365-3.4.8a2.163,2.163,0,0,0-1.953,2.247c0,1.617,1.092,2.625,2.982,2.625a6.193,6.193,0,0,0,2.247-1.575h.147a1.5,1.5,0,0,0,1.449,1.554,3.024,3.024,0,0,0,1.2-.42l.168-.945-.168-.147a2.291,2.291,0,0,1-.714.126c-.483,0-.651-.21-.651-.819,0-.735.252-4.452.252-5.187C118.524,126.159,117.39,125.214,115.584,125.214Zm1.365,5.334-.063,1.722a3.222,3.222,0,0,1-2.352,1.491,1.346,1.346,0,0,1-1.428-1.47.92.92,0,0,1,.8-1.008Zm6.8.231.126-10.521-1.659.147.1,10.5L122.2,135h1.659Zm14.2,0,.126-10.521-1.659.147.042,5.019a8.182,8.182,0,0,0-1.848-.21c-2.919,0-4.662,1.806-4.662,5,0,3.108,1.491,4.893,4.284,4.893a6.984,6.984,0,0,0,2.289-1.449h.147a1.548,1.548,0,0,0,1.47,1.47,3.024,3.024,0,0,0,1.2-.42l.147-.945-.168-.147a2.119,2.119,0,0,1-.714.126c-.441,0-.588-.21-.609-.8ZM134.4,126.39a4.9,4.9,0,0,1,2.058.525l.042,3.99-.042,1.512a2.982,2.982,0,0,1-2.31,1.281c-1.6,0-2.6-1.3-2.646-3.633C131.46,127.629,132.636,126.39,134.4,126.39Zm10.794-1.176c-2.793,0-4.389,1.869-4.389,5.1,0,3.087,1.512,4.851,4.137,4.851,2.793,0,4.368-1.869,4.368-5.1C149.31,126.978,147.8,125.214,145.194,125.214Zm-.1,1.176c1.722,0,2.667,1.386,2.667,4.053,0,2.352-.945,3.528-2.709,3.528-1.722,0-2.667-1.323-2.667-4.032C142.38,127.629,143.325,126.39,145.089,126.39ZM158,125.235c-2.079,0-3.318,1.176-3.318,2.772,0,2.982,4.389,2.583,4.389,4.515a1.578,1.578,0,0,1-1.743,1.449,4.132,4.132,0,0,1-2.562-1.05l-.189.126-.21,1.428a6.169,6.169,0,0,0,2.793.693c2.226,0,3.423-1.407,3.423-2.94,0-2.9-4.368-2.5-4.368-4.431a1.455,1.455,0,0,1,1.6-1.365,3.643,3.643,0,0,1,2.016.693l.252-.063.231-1.365A6.123,6.123,0,0,0,158,125.235Zm7.539-1.155.189.021c1.2-.84,2.331-1.7,3.57-2.667l.042-.168-.63-.882-.189-.021c-1.176,1.155-2.289,2.1-3.444,3.045Zm-1.617,6.027,5.859-.021.336-.273a7.711,7.711,0,0,0,.063-.966c0-2.268-1.239-3.612-3.339-3.612-2.73,0-4.494,1.911-4.494,5.019,0,3.024,1.6,4.914,4.347,4.914a6.512,6.512,0,0,0,2.919-.777l.189-1.407-.189-.1a5.184,5.184,0,0,1-2.814.945c-1.932,0-2.877-1.386-2.877-3.654Zm2.793-3.7c1.155,0,1.953.693,1.953,2.2l-.042.252-4.6.126C164.325,127.335,165.291,126.411,166.719,126.411Zm9.387-1.2c-2.646,0-4.263,1.953-4.263,5.04,0,3.045,1.554,4.914,4.1,4.914a6.813,6.813,0,0,0,2.562-.546l.189-1.407-.189-.1a4.717,4.717,0,0,1-2.352.714c-1.722,0-2.73-1.407-2.73-3.654,0-2.268.987-3.591,2.625-3.591a4.088,4.088,0,0,1,2.163.714l.189-.063.294-1.449A6.385,6.385,0,0,0,176.106,125.214Zm11.844.126-1.6.147v6.951a3.884,3.884,0,0,1-2.6,1.281c-1.092,0-1.638-.693-1.617-1.827l.126-6.552-1.68.147.063,4.137-.021,2.667c-.021,1.806,1.071,2.835,3.15,2.835a6.1,6.1,0,0,0,2.6-1.47h.168a1.529,1.529,0,0,0,1.449,1.47,3.024,3.024,0,0,0,1.2-.42l.147-.945-.147-.147a2.309,2.309,0,0,1-.735.126c-.441,0-.63-.21-.63-.8Zm5.145,5.439.126-10.521-1.659.147.1,10.5-.126,4.1H193.2Zm7.14-5.565c-2.793,0-4.389,1.869-4.389,5.1,0,3.087,1.512,4.851,4.137,4.851,2.793,0,4.368-1.869,4.368-5.1C204.351,126.978,202.839,125.214,200.235,125.214Zm-.1,1.176c1.722,0,2.667,1.386,2.667,4.053,0,2.352-.945,3.528-2.709,3.528-1.722,0-2.667-1.323-2.667-4.032C197.421,127.629,198.366,126.39,200.13,126.39Zm15.771,1.6,4.263-6.447h-1.827l-.546,1.05-2.919,4.326-2.9-4.305-.546-1.071h-2.037l4.389,6.657-4.557,6.8h1.785l.546-.987,3.213-4.7,3.108,4.6.588,1.092H220.5Zm12.369,0,4.263-6.447h-1.827l-.546,1.05-2.919,4.326-2.9-4.305-.546-1.071H221.76l4.389,6.657-4.557,6.8h1.785l.546-.987,3.213-4.7,3.108,4.6.588,1.092h2.037Zm7.665,5.166a.926.926,0,0,0-.987.987.863.863,0,0,0,.924.966.932.932,0,0,0,.987-1.008A.866.866,0,0,0,235.935,133.152Z" transform="translate(423.934 136.631)" fill="#fff"/>
    <g id="Grupo_233479" data-name="Grupo 233479" transform="translate(-612.163 -4206.469)">
      <path id="Caminho_770289" data-name="Caminho 770289" d="M293.756,374.317c-8.887-13.656-13.643-31.666-12.653-47.122a52.306,52.306,0,0,1,1.62-10.211c.221-.836-.782-1.714-1.4-.895-6.523,8.668-16.1,8.388-25.844,6.518-9.6-1.837-19.89-2.979-29.163-6.2.079-1.387.165-2.773.27-4.164.082-1.064-1.565-1.357-1.649-.284-.1,1.374-.187,2.752-.264,4.131a.8.8,0,0,0-.078,1.48c-.1,2-.182,4-.249,6.009-.006.084,0,.169-.012.262-.177,5.3-.262,10.607-.432,15.908a46.419,46.419,0,0,1-1.527,10.558,36.67,36.67,0,0,1-5.906,12.518c-4.958,6.689-12.348,10.9-18.154,16.742a.847.847,0,0,0,.285,1.3c7.192,4.358,15.015,7.271,23.028,9.725,8.7,2.666,16.824,5.394,25.943,3.371,4.228-.941,8.348-2.284,12.658-2.812,4.2-.5,8.354-.8,12.511-1.717a70.61,70.61,0,0,0,12.575-4.1q2.585-.151,5.12-.5c2.062-.289,5.841-.79,6.671-3.091.9-2.467-2.092-5.48-3.352-7.421" transform="translate(686.998 4151.219)" fill="#ffa694"/>
      <path id="Caminho_770290" data-name="Caminho 770290" d="M288.205,94.9c-.418,1-1.932.277-1.515-.712.438-1.062.884-2.122,1.315-3.193-2.748,2.054-7.922,2.128-10.672,3.554-3.115,1.618-4.135,4.574-6.482,6.909a34.849,34.849,0,0,1-7.3,4.995,72.918,72.918,0,0,1-59.159,5.735c-4.093-1.412-8.361-3.287-11.2-6.681a12.006,12.006,0,0,1-2.6-5.949,51.337,51.337,0,0,1-.477-5.982,10.816,10.816,0,0,0-3.884-8.421c-1.2-1.089-2.311-1.952-2.875-3.5a13.482,13.482,0,0,1-.253-6.987,23.373,23.373,0,0,1-2.647-2.808c-3.022-3.782-4.221-8.19-2.594-14.216,1.031-3.8,2.26-7.775,4.5-11.055,1.451-2.109,3.574-3.44,4.346-5.844.9-2.772.1-6.12-.022-9.01-.386-8.622,1.821-16.237,9.748-20.656A26,26,0,0,1,209,7.976c3.015-3.3,29.42-8.332,67.97,14.648,4.835.216,6.171-.808,11.663,2.2,4.42,2.315,6.373,8.8,6.354,11.369,1.441,13.822.047,28.33,0,33.856-.242,16.869-3.5,16.957-6.781,24.852" transform="translate(698.708 4325)" fill="#9b9b9b"/>
      <path id="Caminho_770291" data-name="Caminho 770291" d="M217.5,151.865c-1.347.769-2.74,1.564-4.177,2.266-.371.182-.75.363-1.136.534-.186.095-.378.172-.569.25-.385.163-.768.317-1.166.46-.2.076-.39.145-.587.2-.5.167-1.014.317-1.535.439a4.511,4.511,0,0,1-.442.1c-.449.092-.9.176-1.354.224l-.442.051-.462.022c-.283.019-.555.023-.834.017-.338-.008-.675-.023-1.017-.057a6.968,6.968,0,0,1-.824-.142,1.422,1.422,0,0,1-.251-.069.464.464,0,0,1-.145-.042,1.01,1.01,0,0,1-.154-.043c-1.785-.572-3.448-1.759-5.19-2.382a5.911,5.911,0,0,0-2.539-.388c-2.873.267-4.289,3.308-7.26,3.6a6.135,6.135,0,0,1-2.751-.34,23.407,23.407,0,0,0,2.647,2.809,13.493,13.493,0,0,0,.253,6.987c.565,1.549,1.68,2.412,2.875,3.5a10.451,10.451,0,0,1,3.751,6.98c.064.461.11.936.133,1.44a51.228,51.228,0,0,0,.478,5.981c.374-.054.743-.126,1.123-.213a20.849,20.849,0,0,0,4.238-1.44,16.093,16.093,0,0,0,1.608-.86c.153-.1.3-.193.449-.287a15.52,15.52,0,0,0,4.717-4.948,23.021,23.021,0,0,0,1.991-4.206c.292-.807.567-1.608.845-2.384.582-1.648,1.164-3.245,1.872-4.794a22.906,22.906,0,0,1,2.815-4.7c1.939-2.475,3.8-4.573,4.352-7.745a.852.852,0,0,0-1.308-.829" transform="translate(694.509 4240.285)" fill="#9b9b9b"/>
      <path id="Caminho_770292" data-name="Caminho 770292" d="M262.4,219.49c14.491,3.569,27.431-4.667,35.082-17.351,3.479-5.768,8.35-14.411,9.949-20.955,2.9-11.881,4.328-24.067,5.712-36.218q1.219-10.695,2.4-21.394c.369-3.333.721-6.8-.408-9.96-1.277-3.574-4.257-6.224-7.122-8.712-3.617-3.141-7.281-6.314-11.543-8.5-8.414-4.317-18.329-4.4-27.76-3.7-10.773.795-21.805,2.589-31.029,8.213-4.84,2.951-9.175,7.073-11.269,12.341-1.59,4-1.8,8.4-1.963,12.7-.614,16.354-.762,32.932,3.076,48.841,4.021,16.667,13.561,35.8,30.051,43.048a29.019,29.019,0,0,0,4.821,1.646" transform="translate(672.479 4273.43)" fill="#ffa694"/>
      <path id="Caminho_770293" data-name="Caminho 770293" d="M420.116,206.7c-.9-1.743-2.524-4.274-4.591-4.878a2.921,2.921,0,0,0-.534-.115c-.1-.012-.209-.017-.309-.021a3.533,3.533,0,0,0-.922.1,2.658,2.658,0,0,0-.339.085,7.218,7.218,0,0,0-1.857.929,31.417,31.417,0,0,0-5.59,5.6c-.7.807.68,1.759,1.376.95.069-.084.148-.176.225-.259a55.777,55.777,0,0,0-2.463,6.079c-.182.526-.348,1.062-.5,1.6a50.757,50.757,0,0,0-2.213,16.271c.153,5.351,4.234,3.933,7.915,1.429a34.475,34.475,0,0,0,5.287-4.5c4.938-5.367,8.019-16.487,4.518-23.271" transform="translate(572.963 4212.405)" fill="#ffa694"/>
      <path id="Caminho_770294" data-name="Caminho 770294" d="M217.527,221.675a53.38,53.38,0,0,0-1.34-16.656c.05.1.117.207.169.3.508.937,2.062.3,1.545-.641-.472-.854-1.1-2.075-1.846-3.315a16.164,16.164,0,0,0-3.129-3.945,5.192,5.192,0,0,0-1.7-1,3.1,3.1,0,0,0-.769-.167,2.84,2.84,0,0,0-.6.006c-2.122.193-4.211,2.311-5.438,3.813a11.489,11.489,0,0,0-1.111,1.616c-3.586,6.213-2.706,16.347.7,22.088,1.577,2.666,7.326,10.263,10.523,8.609.753-.379,1.366-1.275,1.751-2.864a50.345,50.345,0,0,0,1.246-7.848" transform="translate(685.383 4215.443)" fill="#ffa694"/>
      <path id="Caminho_770295" data-name="Caminho 770295" d="M373.425,214.283a16.116,16.116,0,0,0,.466-5.029,4.572,4.572,0,0,0-.856-2.26c-1.492-1.822-3.555-.294-4.131,1.37-.747,2.162-1.057,6.981.92,8.265,2.047,1.33,3.036-.191,3.6-2.346" transform="translate(590.325 4209.901)"/>
      <path id="Caminho_770296" data-name="Caminho 770296" d="M274.607,212.228a15.735,15.735,0,0,0,.071-4.935,4.468,4.468,0,0,0-1.006-2.137c-1.593-1.662-3.487-.016-3.92,1.649-.563,2.163-.5,6.882,1.526,7.982,2.1,1.14,2.943-.417,3.329-2.559" transform="translate(648.818 4210.853)"/>
      <path id="Caminho_770300" data-name="Caminho 770300" d="M259.563,173.386a21.548,21.548,0,0,0-10,1.041,25.948,25.948,0,0,0-5.007,2.3c-.093.059-.21.122-.345.205-1.17.683-3.588,2.1-3.319,3.347.078.339.438.53.766.647.291.111.586.2.882.281a14.374,14.374,0,0,0,5.309.289c4.159-.462,8.07-1.542,12.274-1.209,2.015.166,6.487.652,6.73-2.326.27-3.269-4.95-4.247-7.285-4.574" transform="translate(666.351 4228.823)" fill="#9b9b9b"/>
      <path id="Caminho_770301" data-name="Caminho 770301" d="M362.47,173.1a19.076,19.076,0,0,0-8.861-.8c-2.055.314-6.657,1.238-6.386,4.122.319,3.307,6.629,1.714,8.457,1.783,2.825.107,5.58.857,8.382,1.134,1.605.157,4.672.566,5.879-.837,1.55-1.806-6.256-5-7.471-5.4" transform="translate(605.194 4229.922)" fill="#9b9b9b"/>
      <path id="Caminho_770302" data-name="Caminho 770302" d="M311.327,115.567c.237-6.579-.583-12.935-3.628-18.842a47.66,47.66,0,0,0-19.15-19.3c-.814-.446-1.632-.868-2.465-1.258a37.8,37.8,0,0,0-10.341-3.179,28.808,28.808,0,0,0-7.367-.1c-1.022.12-2.05.273-3.059.464a81.149,81.149,0,0,0-10.586,3.009,172.115,172.115,0,0,0-22.366,9.334c-3.142,1.579-6.646,3.1-9.224,5.536-2.549,2.42-4.226,5.839-5.93,8.872-1.621,2.895-3.735,6.094-4.352,9.468a12.093,12.093,0,0,0-.153,1.23c-.284,4.144,4.215,7.68,3.338,11.578a.7.7,0,0,0-.515.819,17.348,17.348,0,0,0,.854,4.094,2.516,2.516,0,0,0,1.364,1.535.03.03,0,0,0,.023.012,1.556,1.556,0,0,0,1.68-.389,6.579,6.579,0,0,0,1.374-2.6c1.353-3.95,1.512-8.261,1.837-12.4.007-.041.006-.084.013-.125,2.147-.291,11.017-18.48,12.091-19.44.333-.307,31.443-6.043,38.434-7.555,4.908,1.069,10.072,3.947,14.5,5.867a143.883,143.883,0,0,1,15.331,7.7.735.735,0,0,0,.354.112l-.1,25.829c-.007,1.17-.2,5.287.879,7.341a2.35,2.35,0,0,0,.774.923c.458.3,4.556-5.095,4.874-6.542a67.1,67.1,0,0,0,1.512-12" transform="translate(678.857 4284.414)" fill="#9b9b9b"/>
      <path id="Caminho_770320" data-name="Caminho 770320" d="M302.628,351.153c-1.181-.289-3.631.862-4.808,1.287-2.453.883-4.371,1.766-7.045,1.966-4.361.333-9.14.874-13.471.151-8.826-1.482-15.609-7.764-21.571-14.083-.244-.254-.489-.509-.724-.77-.178,5.3-.263,10.607-.432,15.908a46.421,46.421,0,0,1-1.527,10.559c.51-.005,1.022-.019,1.511,0,22.2,3.047,39.513-5.741,46.459-12.547a.161.161,0,0,0,.026-.055c.321-.531,2.216-2.253,1.582-2.413" transform="translate(656.327 4135.352)"/>
      <path id="Caminho_770321" data-name="Caminho 770321" d="M320.311,305.318a34.144,34.144,0,0,0-4.335.1c-2.959.088-5.919.177-8.879.245-2.435.057-4.87.1-7.307.113-2.155.01-7.08-.383-7.218-.339-.6.189,1.184,2.247,1.478,2.534a23.319,23.319,0,0,0,3.891,3.14c5.332,3.328,11.929,2.544,17.343-.058a13.345,13.345,0,0,0,3.813-2.643c.28-.289,2.38-2.975,1.214-3.093" transform="translate(634.331 4154.577)" fill="#fff" stroke="#000" stroke-width="1"/>
      <path id="Caminho_770322" data-name="Caminho 770322" d="M222.881,403.156s8.356-13.562,9.955-14.028,33.889,32.243,33.889,32.243,32.869-33.633,35.952-31.911,10.1,19.6,10.1,19.6-45.355,64.832-46.047,64.712-32.746-30.368-33.889-32.348-13.188-32.364-13.188-32.364" transform="translate(673.479 4107.765)" fill="#fff"/>
      <path id="Caminho_770330" data-name="Caminho 770330" d="M296.517,401.359c3.083,1.721,16.17,9.878,16.17,9.878L277.32,461.071l-10.68-29.852c-.26-.045-10.967,30.11-10.706,29.852-9.441-13.51-36.766-51.972-36.766-51.972l17.655-7.74" transform="translate(673.564 4097.875)" fill="none" stroke="#000" stroke-width="1"/>
      <rect id="Retângulo_124886" data-name="Retângulo 124886" width="293.526" height="274.73" transform="translate(797.599 4325)" fill="none"/>
      <path id="Caminho_770329" data-name="Caminho 770329" d="M7.6,10.321a8.414,8.414,0,0,1-3.474.567C2.322,10.812,1.948,9.223,1.82,7.713A59.832,59.832,0,0,1,1.7.8C1.738-.268.075-.267.041.8c-.068,2.169-.061,4.34.087,6.5A8.225,8.225,0,0,0,.875,10.9c1.37,2.381,5.02,1.864,7.17,1.026.986-.384.558-1.993-.442-1.6" transform="translate(940.662 4429.221) rotate(19)"/>
      <g id="Grupo_233478" data-name="Grupo 233478" transform="translate(765.441 4507.494)">
        <g id="Grupo_233477" data-name="Grupo 233477" clip-path="url(#clip-path)">
          <rect id="Retângulo_124887" data-name="Retângulo 124887" width="350.89" height="118.008" transform="translate(0 0)" fill="url(#linear-gradient)"/>
        </g>
      </g>
      <path id="Caminho_770334" data-name="Caminho 770334" d="M335.182,206.2a204.949,204.949,0,0,1,18.954,39.626,264.7,264.7,0,0,1,7.2,26.122c.5,2.092,1,4.192,1.514,6.284a.426.426,0,0,0,.416.323.408.408,0,0,0,.1-.009.435.435,0,0,0,.314-.519c-.519-2.092-1.02-4.184-1.522-6.284a265.913,265.913,0,0,0-7.22-26.2,206.788,206.788,0,0,0-19.2-40.051c-.2.229-.383.468-.561.706" transform="translate(478.335 4344.71)"/>
      <path id="Caminho_770333" data-name="Caminho 770333" d="M363.752,206.206a205.346,205.346,0,0,0-18.991,39.7,265.226,265.226,0,0,0-7.216,26.173c-.5,2.1-1.005,4.2-1.517,6.3a.427.427,0,0,1-.417.324.408.408,0,0,1-.1-.009.436.436,0,0,1-.315-.52c.52-2.1,1.022-4.192,1.525-6.3a266.439,266.439,0,0,1,7.234-26.25A207.194,207.194,0,0,1,363.19,205.5c.2.23.383.468.562.707" transform="translate(700.007 4346.799)"/>
      <g id="Grupo_233995" data-name="Grupo 233995" transform="translate(770.277 4283.418) rotate(-31)">
        <g id="Grupo_233994" data-name="Grupo 233994" clip-path="url(#clip-path-2)">
          <path id="Caminho_770518" data-name="Caminho 770518" d="M118.562,265.666a13.147,13.147,0,1,1-13.147-13.147,13.147,13.147,0,0,1,13.147,13.147" transform="translate(-61.732 -168.948)" fill="#0e1126"/>
          <path id="Caminho_770519" data-name="Caminho 770519" d="M103,81.043A28.429,28.429,0,1,1,74.575,52.614,28.429,28.429,0,0,1,103,81.043" transform="translate(-30.874 -35.201)" fill="#f5c750"/>
          <path id="Caminho_770520" data-name="Caminho 770520" d="M65.819,193.226c4.67,6,8.753,11.809,8.753,21.288H87.737V193.226Z" transform="translate(-44.036 -129.278)" fill="#f5c750"/>
          <path id="Caminho_770521" data-name="Caminho 770521" d="M153.966,193.226c-4.67,6-8.753,11.809-8.753,21.288H132.048V193.226Z" transform="translate(-88.347 -129.278)" fill="#f5c750"/>
          <rect id="Retângulo_124924" data-name="Retângulo 124924" width="26.294" height="11.482" transform="translate(30.536 85.236)" fill="#0e1126"/>
          <path id="Caminho_770522" data-name="Caminho 770522" d="M101.352,167.637c-.068-5.72-.046-11.442-.032-17.163q.01-4.343.022-8.685c0-2.442-.048-4.891.1-7.33a19.447,19.447,0,0,1,1.783-7.767,7.784,7.784,0,0,1,5.834-4.4,4.8,4.8,0,0,1,5.1,2.737,5.527,5.527,0,0,1,.017,3.556,12.216,12.216,0,0,1-1.622,3.514c-2.947,4.384-8.446,6.273-13.536,6.337a30.065,30.065,0,0,1-9.281-1.493,16.9,16.9,0,0,1-7.985-5.026c-1.893-2.222-3.461-5.16-3.423-8.148a5.939,5.939,0,0,1,3.43-5.54,6.473,6.473,0,0,1,6.3,1.085,12.081,12.081,0,0,1,4.152,7.354,36.926,36.926,0,0,1,.327,8.7c-.117,2.772-.142,5.54-.148,8.314-.013,6.194.006,12.388.015,18.582q0,1.924,0,3.847a.5.5,0,0,0,.993,0c0-6.317-.023-12.635-.021-18.952,0-2.942-.037-5.89.039-8.831a90.268,90.268,0,0,0,.115-9.17,15.937,15.937,0,0,0-2.83-8.517,8.774,8.774,0,0,0-6.732-3.811,6.393,6.393,0,0,0-5.729,3.344c-1.438,2.683-.967,5.812.249,8.479a16.5,16.5,0,0,0,6.22,7.125,26.824,26.824,0,0,0,10.1,3.322c5.523.851,11.571.018,16-3.633a13.263,13.263,0,0,0,4.351-6.728,6.474,6.474,0,0,0,0-3.849,5.28,5.28,0,0,0-2.053-2.639,6.822,6.822,0,0,0-7.025-.009,10.64,10.64,0,0,0-4.745,6.55,31.134,31.134,0,0,0-.982,8.344c-.032,2.637-.012,5.275-.019,7.912-.017,6.264-.043,12.528-.013,18.792q.009,1.9.03,3.794a.5.5,0,0,0,.993,0" transform="translate(-51.755 -78.166)" fill="#0e1126"/>
          <path id="Caminho_770523" data-name="Caminho 770523" d="M232.918,102.07l11.457-4.844a.5.5,0,0,0,.178-.679.509.509,0,0,0-.679-.178l-11.457,4.844a.5.5,0,0,0-.178.679.509.509,0,0,0,.679.178" transform="translate(-155.338 -64.437)" fill="#0e1126"/>
          <path id="Caminho_770524" data-name="Caminho 770524" d="M195.719,32.013l6.633-11.274a.5.5,0,0,0-.857-.5l-6.633,11.274a.5.5,0,0,0,.857.5" transform="translate(-130.324 -13.38)" fill="#0e1126"/>
          <path id="Caminho_770525" data-name="Caminho 770525" d="M59.508,31.512,52.875,20.238a.5.5,0,0,0-.857.5l6.633,11.274a.5.5,0,0,0,.857-.5" transform="translate(-34.754 -13.38)" fill="#0e1126"/>
          <path id="Caminho_770526" data-name="Caminho 770526" d="M12.2,101.215.743,96.37a.515.515,0,0,0-.679.178.5.5,0,0,0,.178.68L11.7,102.072a.514.514,0,0,0,.679-.178.5.5,0,0,0-.178-.679" transform="translate(0 -64.439)" fill="#0e1126"/>
          <path id="Caminho_770527" data-name="Caminho 770527" d="M133.384.48V12.005a.5.5,0,0,0,.993,0V.48a.5.5,0,0,0-.993,0" transform="translate(-89.241 0)" fill="#0e1126"/>
          <path id="Caminho_770528" data-name="Caminho 770528" d="M98.088,297.955l18.326-4.966,5.259-1.425a.5.5,0,0,0-.264-.957l-18.326,4.966L97.824,297a.5.5,0,0,0,.264.957" transform="translate(-65.214 -194.418)" fill="#e5e3f2"/>
          <path id="Caminho_770529" data-name="Caminho 770529" d="M93,273.259l19.706-5.339,5.562-1.507a.5.5,0,0,0-.264-.957L98.3,270.794,92.738,272.3a.5.5,0,0,0,.264.957" transform="translate(-61.811 -177.59)" fill="#e5e3f2"/>
        </g>
      </g>
    </g>
  </g>
</svg>
