<svg xmlns="http://www.w3.org/2000/svg" xmlns:xlink="http://www.w3.org/1999/xlink" width="365.134" height="254.242" viewBox="0 0 365.134 254.242">
  <defs>
    <linearGradient id="linear-gradient" x1="0.209" x2="0.584" y2="1.161" gradientUnits="objectBoundingBox">
      <stop offset="0" stop-color="#fff"/>
      <stop offset="0.243" stop-color="#95ebff"/>
      <stop offset="0.644" stop-color="#0024a8"/>
      <stop offset="1" stop-color="#3db8f9"/>
    </linearGradient>
    <clipPath id="clip-path">
      <rect id="Retângulo_124885" data-name="Retângulo 124885" width="309.13" height="201.407" fill="#40bbff"/>
    </clipPath>
    <clipPath id="clip-path-2">
      <rect id="Retângulo_124864" data-name="Retângulo 124864" width="315.215" height="199.57" fill="none"/>
    </clipPath>
    <linearGradient id="linear-gradient-2" x1="0.5" x2="0.5" y2="1" gradientUnits="objectBoundingBox">
      <stop offset="0" stop-color="#c95ee9"/>
      <stop offset="1" stop-color="#9d7df6"/>
    </linearGradient>
    <linearGradient id="linear-gradient-3" x1="0.973" y1="1" x2="0" y2="1" gradientUnits="objectBoundingBox">
      <stop offset="0" stop-color="#fff" stop-opacity="0"/>
      <stop offset="0.159" stop-color="#fff" stop-opacity="0.408"/>
      <stop offset="0.414" stop-color="#95ebff"/>
      <stop offset="0.598" stop-color="#3db8f9"/>
      <stop offset="0.82" stop-color="#1b74d8"/>
      <stop offset="1" stop-color="#0024a8"/>
    </linearGradient>
    <linearGradient id="linear-gradient-4" x1="0.027" y1="0" x2="1" y2="0" xlink:href="#linear-gradient-3"/>
    <clipPath id="clip-path-3">
      <rect id="Retângulo_124925" data-name="Retângulo 124925" width="70.009" height="86.152" fill="none"/>
    </clipPath>
  </defs>
  <g id="_Carrossel-imagem-fixa_2-mob_" data-name="&lt;Carrossel-imagem-fixa_2-mob&gt;" transform="translate(-435.866 -1539.335)">
    <g id="Grupo_232248" data-name="Grupo 232248" transform="translate(473 1578.507)">
      <path id="Caminho_734267" data-name="Caminho 734267" d="M-117.986,0H137.781L92.547,204.1l-255.856-.071Z" transform="translate(163.31 10.97)" fill="url(#linear-gradient)"/>
      <path id="GettyImages-1412762526" d="M-117.069.12,154.341,0l-45.99,207.059-271.66-.159Z" transform="translate(173.659 0)" fill="#fff"/>
      <g id="Grupo_234167" data-name="Grupo 234167" transform="translate(-919.158 -6626.294)">
        <g id="Grupo_233472" data-name="Grupo 233472" transform="translate(924.484 6630.571)" opacity="0.25">
          <g id="Grupo_233471" data-name="Grupo 233471" clip-path="url(#clip-path)">
            <path id="Caminho_770281" data-name="Caminho 770281" d="M308.65,33.166c-.112-1.118.1-2.245.092-3.363-.014-1.322-.109-2.646-.134-3.969h0a.386.386,0,0,0,.178-.378q.007-4.141.014-8.282,0-.542.007-1.084h0c.052-3.17.067-6.341,0-9.511a2.842,2.842,0,0,0,.1-.3,3.686,3.686,0,0,0,.016-2.433c0-.076,0-.152,0-.228-.053-.837-.11-1.29-.336-1.534v0c-.025-.534-.23-.716-1-.856a5.566,5.566,0,0,0-2.433-.01c-.076,0-.151,0-.228,0-1.293.053-1.669.115-1.775.577l-6.044-.01c-.362-.333-.8-.195-1.2-.2-5.245-.054-10.489-.024-15.732.207-1.551.069-3.108.008-4.662.007-2.288-.287-4.594-.278-6.888-.4-.936-.048-1.874-.071-2.812-.082a5.72,5.72,0,0,0-1.434-.653,4.025,4.025,0,0,0-3.68.67c-.663.006-1.326.01-1.988.009l-5.4.012c-1.509.011-3.018.1-4.523.142-1.666.05-3.33.169-5,.239A5.06,5.06,0,0,0,241.733.559a3.931,3.931,0,0,0-3.841.892c-.066.055-.124.115-.182.174a2.446,2.446,0,0,0-.426-.031c-2.289.073-4.563-.35-6.852-.241-.269.013-.552-.045-.772.2h0c-1.961-.078-3.921.039-5.887-.165-1.677-.174-3.379-.055-5.07-.066-.291-.3-.654-.195-.99-.2-1.053-.008-2.105-.007-3.158-.009A5.468,5.468,0,0,0,212.84.261a4.073,4.073,0,0,0-3.981.924l-.038.035c-2.033.177-4.065.344-6.106.344-1.935,0-3.871-.008-5.807-.013-.247-.3-.574-.209-.876-.209h-2.407a5.675,5.675,0,0,0-1.474-.681,4.027,4.027,0,0,0-3.7.683l-6.288,0-.616,0-1.64-.028h0c-.326-.318-.724-.18-1.093-.195-2.01-.08-4.018-.01-6.025.071A5.508,5.508,0,0,0,171,.283a4.121,4.121,0,0,0-4.026.935c-.043.036-.08.076-.12.114-.114,0-.227,0-.341,0-.725-.015-1.451,0-2.176.008-2.884.089-5.768-.14-8.657.183-1.39.155-2.8.059-4.2.142a5.51,5.51,0,0,0-1.79-.9,4.12,4.12,0,0,0-4.026.935,2.812,2.812,0,0,0-.328.331A2.158,2.158,0,0,1,144.683,2a27.544,27.544,0,0,0-5.24-.187c-3.109.09-6.208-.3-9.316-.26a.7.7,0,0,0-.5-.217A5.4,5.4,0,0,0,127.661.292a4.106,4.106,0,0,0-4.012.932,2.919,2.919,0,0,0-.306.3c-3.24.132-6.489.027-9.734.024a1.731,1.731,0,0,1-.413-.025,38.387,38.387,0,0,0-4.527-.363,17.939,17.939,0,0,0-2.81-.075,5.51,5.51,0,0,0-1.778-.9,4.121,4.121,0,0,0-4.026.935,2.877,2.877,0,0,0-.214.2H97.565c-.326-.319-.725-.2-1.092-.192-2.929.071-5.858.023-8.79.129q-.938.034-1.877.073a5.693,5.693,0,0,0-1.458-.67,4.094,4.094,0,0,0-3.94.869c-1.711.046-3.424.066-5.137.026-2.451-.057-4.9,0-7.356.019-.367,0-.767-.121-1.09.2l-.1,0A5.37,5.37,0,0,0,64.674.663a4.121,4.121,0,0,0-4.026.935c-.072.06-.138.123-.2.189l-3.133,0c-.215-.255-.5-.2-.769-.2q-3.6,0-7.19,0a1.151,1.151,0,0,0-.622.082,5.515,5.515,0,0,0-1.782-.9,4.062,4.062,0,0,0-3.832.786c-.66-.017-1.309.293-1.977.235h0c-.283-.318-.648-.2-.982-.205Q33.07,1.56,25.98,1.562c-.486.009-.932-.236-1.426-.231-2.382.025-4.764.032-7.146.007-.49-.005-.944.336-1.424.163a5.778,5.778,0,0,0-1.847-.161c-2.9-.094-5.81.125-8.71-.074-.067-.015-.137-.031-.216-.045A6.443,6.443,0,0,0,3.331,1.11c-.085,0-.171.006-.256.012a3,3,0,0,0-.581.093C.872,1.283.736,1.372.733,2.317Q.72,5.614.715,8.911c-.333.235-.195.518-.2.78C.463,13.108.493,16.525.724,19.941c.069,1.011.008,2.025.007,3.038a40.083,40.083,0,0,0-.4,4.488c-.169,2.149-.051,4.306-.056,6.46l.012,3.518c.011.983.1,1.966.142,2.947.074,1.588.3,3.173.3,4.762,0,.628,0,1.256,0,1.884a3.19,3.19,0,0,0-.2.855C.6,49.385.181,50.866.29,52.358c.013.175-.045.36.2.5h0C.412,54.139.529,55.416.325,56.7A22.232,22.232,0,0,0,.259,60c-.3.19-.195.426-.2.645C.049,61.816.047,62.988.047,64.159a12.836,12.836,0,0,0,.032,1.689A34.671,34.671,0,0,1,.5,70.417C.5,71.679.493,72.94.488,74.2c-.3.161-.209.374-.209.57q0,4.517.006,9.034l0,.4q-.014.534-.028,1.068h0c-.318.213-.18.472-.195.712-.163,2.676.3,5.345.209,8.02-.015.472,0,.945.008,1.418a45.4,45.4,0,0,0,.183,5.64c.2,1.175-.024,2.371.274,3.55h0c0,.739-.005,1.479.013,2.218.011.467.342.926.19,1.4a11.759,11.759,0,0,0-.187,3.414c.09,2.026-.3,4.045-.26,6.071-.3.188-.2.425-.2.643,0,1.167.076,2.333.161,3.5.161,2.2.043,4.412.04,6.619a.743.743,0,0,1-.025.269A16.528,16.528,0,0,0,.1,131.7a14.453,14.453,0,0,0-.034,2.9c0,.2-.078.41.2.577v3.756h0c-.319.212-.2.473-.192.712.071,1.909.023,3.817.129,5.727.15,2.693.395,5.389.3,8.088-.057,1.6,0,3.2.019,4.793,0,.239-.121.5.2.71q.007.332.014.665-.006,2.766-.013,5.533c-.255.141-.2.326-.2.5q0,2.342,0,4.685c0,.175-.056.362.209.5q.008.4.016.809a8.945,8.945,0,0,1-.214,2.523c-.184.511.262,1.006.195,1.519h0c-.318.185-.2.422-.205.639Q.5,180.956.5,185.576c.009.317-.236.607-.231.93.025,1.552.032,3.1.007,4.656-.005.319.336.615.163.928a2.512,2.512,0,0,0-.161,1.2c-.111,2.222.217,4.449-.217,6.667a1.8,1.8,0,0,0,0,.54c.078.692.383.867,1.541.89.38.008.764.025,1.141,0a5.188,5.188,0,0,0,1.872-.14c1.141-.134,1.155-.134,1.154-.747,0-1.281-.021-2.562-.032-3.843a12.279,12.279,0,0,0,.015-4.6q0-3.784-.009-7.567a29.031,29.031,0,0,0,.224-4.469c.1-1.165.1-2.332.184-3.5.153-2.042.054-4.092.05-6.138,0-.219.075-.454-.2-.648.009-1.4.024-2.792.025-4.188q0-7.3,0-14.59c0-2.207-.039-4.413-.059-6.619q0-7.352,0-14.7a.431.431,0,0,0-.192-.444h0q-.012-.4-.023-.8c.008-.247.024-.494.022-.741-.021-2.019-.1-4.038-.192-6.057-.146-3.346-.067-6.695-.074-10.042-.006-2.494,0-4.988,0-7.481h0q.019-1.617.038-3.234h0c.233-.148.186-.335.2-.512.065-1.076.062-2.152.189-3.229A34.108,34.108,0,0,0,5.989,93.4,8.509,8.509,0,0,0,6.16,90.51,18.306,18.306,0,0,1,6.051,85.4a45.774,45.774,0,0,0,.155-4.843h0q0-4.455,0-8.909A9.886,9.886,0,0,0,6.153,70.1a41.292,41.292,0,0,1-.346-4.237,42.7,42.7,0,0,1,.342-6.664c.173-1.7.054-3.419.065-5.129a14.645,14.645,0,0,0,.24-3.769c.229-.147.189-.332.192-.507.008-.6,0-1.2,0-1.8l.019-1.358h0c.011-.292.042-.584.03-.876-.058-1.48-.1-2.96-.211-4.441-.2-2.714.054-5.433-.218-8.149-.112-1.118.1-2.245.092-3.363-.014-1.322-.109-2.646-.134-3.969h0a.385.385,0,0,0,.178-.378l.014-8.282q0-.542.007-1.084h0c.05-3.092.067-6.184.009-9.276L8.964,6.8a28.773,28.773,0,0,0,7.055.015L27.632,6.8a68.166,68.166,0,0,0,6.858.224c1.788.1,3.579.1,5.37.184.8.039,1.594.061,2.392.073a5.786,5.786,0,0,0,.67.917q.667.749,1.344,1.49a1.169,1.169,0,0,1,.323.82c0,.472-.006.944,0,1.416.013.731.037,1.463.051,2.195a.135.135,0,0,1-.02-.035c-.018-.059-.033-.1-.048-.143l-.007-.019a.36.36,0,0,0-.046-.089l0,0h0c-.055-.068-.136-.068-.34-.064-.039,0-.078.008-.117.012a7.553,7.553,0,0,0-1.5.067h0c-.509.01-1.02,0-1.528.033-1.355.084-2.708.2-4.063.274q-.255.014-.51.033l-.316.03c-.805.062-1.609.138-2.413.214a5.339,5.339,0,0,0-1.165.136,9.635,9.635,0,0,0-1.5.165h0a4.228,4.228,0,0,0-.893.1q-1.647.243-3.289.521c-.708.12-1.42.221-2.116.4a2.142,2.142,0,0,0-.231.03c-1.247.289-2.5.568-3.732.9-.942.256-1.883.517-2.8.848l-.08.025q-.3.109-.591.228l-.188.075-.066.029c-.05.021-.1.044-.145.069-.013.006-.027.011-.039.018L16.887,18a.913.913,0,0,0-.227.175.234.234,0,0,1-.07.1c-.086.057-.081.147-.085.234a.285.285,0,0,0-.076.233c-.12.125-.1.3-.113.442a3.985,3.985,0,0,0,.017,1.378c0,.006,0,.005-.006.015a.078.078,0,0,0,.021.067,1.156,1.156,0,0,0,.149.626.335.335,0,0,0,.071.232v0a.307.307,0,0,1,.015.047c0,.009.008.018.01.027a3.812,3.812,0,0,0,.6,1.231.457.457,0,0,0,.645.187c.2-.074.385-.167.583-.233q1.1-.37,2.21-.724c-.021.1-.045.209-.074.312q-.4,1.412-.745,2.839l-.1.3.027.014c-.158.68-.308,1.362-.438,2.048-.274,1.433-.553,2.866-.685,4.323-.109,1.2-.257,2.4-.375,3.6h0c-.025.207-.045.378-.062.523l.015.011c0,.032-.006.063-.009.1a12.508,12.508,0,0,0-.161,2,1.991,1.991,0,0,0-.085.352c-.046.811-.081,1.623-.125,2.434-.058,1.055-.1,2.11-.186,3.163-.159,2.047-.243,4.1-.206,6.148-.033.446-.08.891-.1,1.337-.081,2.442-.048,4.883.115,7.321a2.088,2.088,0,0,0,.088.9h0q.007.231.015.462c0,.041,0,.083.006.124l0,.238q.006,1.613.012,3.225a.594.594,0,0,0,.082.349h0c0,.223-.006.446-.008.669-.007.872.013,1.746-.027,2.616-.037.81-.093,1.619-.072,2.43a4.561,4.561,0,0,0-.086.538c-.086,1.942-.182,3.883-.243,5.826-.041,1.336-.03,2.674-.042,4.011h0a.708.708,0,0,0-.1.523c0,1.259,0,2.517.013,3.776a8.023,8.023,0,0,0,.094,1.7,10.9,10.9,0,0,0,.063,1.669c0,.017,0,.033,0,.05.013.078.029.155.047.233h0c-.008.643.03,1.292-.036,1.929h0a17.417,17.417,0,0,0-.078,2.349q-.127,2.8-.253,5.6h0a.6.6,0,0,0-.093.4c-.023,1.13-.172,2.252-.223,3.378a28.7,28.7,0,0,0-.152,3.443,2.706,2.706,0,0,0-.012.736l0,.365a4.634,4.634,0,0,0-.083,1.276c.1,1.341.069,2.685.116,4.027a.576.576,0,0,0,.084.349c-.038,1.376.141,2.742.176,4.115a.559.559,0,0,0,.063.167c0,.122-.009.244,0,.365q.184,2.4.373,4.793c.136,1.739.248,3.481.422,5.217a8.643,8.643,0,0,0,.205,1.811,10.025,10.025,0,0,0,.118,1.75c.066,1.006.165,2.01.251,3.015a11.29,11.29,0,0,0,.1,2.2h0l.027.973q0,1.276-.005,2.551-.005,4.284-.01,8.568,0,1.16,0,2.32.005,1.281.011,2.563c-.017.573-.032,1.147-.01,1.72,0,.012,0,.024,0,.036,0,.107.01.215.017.323v0c-.005.04-.01.08-.016.12,0,.061,0,.122-.006.182l-.006.182a.918.918,0,0,0-.023.222,18.78,18.78,0,0,0-.088,2.467,7.738,7.738,0,0,0-.111,1.833c0,.041,0,.082-.005.123l0,.121c0,.041,0,.082,0,.123q0,.183-.01.365a.159.159,0,0,0-.01.1c-.014.07-.019.14-.029.21a.278.278,0,0,0-.007.052,12.858,12.858,0,0,0-.04,1.833c0,.054.05.106.078.159h0c-.188.746-.061,1.033.612,1.357a1.1,1.1,0,0,0,.5.2v0l.006,0c.016.012.037.037.049.033h0a1.22,1.22,0,0,0,.68.208l.046.019.05,0a.415.415,0,0,0,.387.095,7.754,7.754,0,0,0,2.7.149,24.848,24.848,0,0,0,3.816-.176,3.574,3.574,0,0,0,1.19-.2,14.554,14.554,0,0,0,2.167-.291c.48-.077.955-.181,1.431-.282.152-.033.348-.036.38-.243a2.428,2.428,0,0,0,.016-.785c0-.01-.017-.019-.034-.027l.084-.012v-.62a.623.623,0,0,0,.078-.29c.019-.324.03-.649.044-.973a3.283,3.283,0,0,0,.159-1.123,28.1,28.1,0,0,0,.311-3.173,4.923,4.923,0,0,0,.1-.536c.127-1.636.257-3.273.366-4.91s.187-3.279.292-4.917c.049-.768.159-1.533.189-2.3.032-.831.205-1.652.158-2.486a20.211,20.211,0,0,0,.251-2.93,6.14,6.14,0,0,0,.163-1.561,23.51,23.51,0,0,0,.2-2.839,3.641,3.641,0,0,0,.121-.964c.11-1.354.248-2.707.318-4.063.053-1.013.213-2.019.173-3.037a8.131,8.131,0,0,0,.138-1.805.462.462,0,0,0,.036-.122,3.758,3.758,0,0,0,.059-1v-.248a19.915,19.915,0,0,0,.193-2.537,29.3,29.3,0,0,0,.18-3.449,9.286,9.286,0,0,0,.125-1.956c.158-1.046.162-2.1.25-3.156.11-1.315.233-2.629.32-3.945a17.92,17.92,0,0,0,.163-2.186c.239-1.453.35-2.92.5-4.383a2.186,2.186,0,0,0,.112-.993,1.671,1.671,0,0,0,.113-.857c.087-.622.177-1.243.26-1.866.184-1.385.376-2.769.54-4.157.105-.884.283-1.76.3-2.653a26.349,26.349,0,0,0,.388-3.505,1.742,1.742,0,0,0,.1-.89L38.808,86a3.587,3.587,0,0,0,.127-1.221,29.345,29.345,0,0,0,.364-3.514c.2-.933.237-1.887.35-2.831.109-.906.207-1.813.285-2.722.029.408.032.818.027,1.228a4.446,4.446,0,0,1-.065.987.573.573,0,0,0,.048.482.846.846,0,0,1,.061.662,7.888,7.888,0,0,0-.2,1.58c.01.193.081.373.08.564,0,.75.129,1.495.08,2.247q0,1.513,0,3.026c0,.459.014.92-.006,1.379-.009.209.1.394.068.6a10.623,10.623,0,0,0-.138,1.667c-.124.114-.073.263-.074.4,0,.982,0,1.964,0,2.945,0,.152-.03.3-.041.453a8,8,0,0,0-.1,1.783,10.86,10.86,0,0,1,.061,1.331c.007.255,0,.51,0,.765.024.32-.064.634-.069.949-.017,1.188-.007,2.376-.007,3.564,0,.09-.006.181.076.245a11.226,11.226,0,0,0,.071,1.178,12.8,12.8,0,0,0,.146,2.241.824.824,0,0,0,.456.645,4.957,4.957,0,0,0,1.45.43,14.682,14.682,0,0,0,3.248.341.285.285,0,0,0,.282.073,5.75,5.75,0,0,1,1.082.046c.018.345.036.69.054,1.035.04.73.083,1.461.142,2.19.141,1.742.279,3.483.442,5.223.165,1.76.331,3.52.546,5.274.207,1.7.351,3.4.421,5.1.083,2.032.212,4.06.424,6.082a5.22,5.22,0,0,0,.184,1.381l.021.21c.021,1.148.2,2.284.311,3.424a3.872,3.872,0,0,0,.16,1.248,25.676,25.676,0,0,0,.271,2.906,9.771,9.771,0,0,0,.121,1.954,8.491,8.491,0,0,0,.1,1.988h0a1.647,1.647,0,0,0,.02.571,11.794,11.794,0,0,0,.052,1.787.844.844,0,0,0,.05.327c-.038,1.463.124,2.919.193,4.377.028.586.057,1.175.1,1.762.113,1.537.248,3.074.312,4.613.03.71.143,1.412.212,2.118l-.048-.015c0,.377,0,.532.094.633.006.144.01.289.009.433,0,.232.174.361.333.483a4.331,4.331,0,0,0,1.453.75,13.228,13.228,0,0,0,5.177.44,5.475,5.475,0,0,0,1.72-.218,7.148,7.148,0,0,0,1.946-.374.557.557,0,0,1,.1-.105l0,0h0l0,.006a.152.152,0,0,1-.1.1,2.228,2.228,0,0,0,.975-.246h0a16.637,16.637,0,0,0,3.415-1.064,2.06,2.06,0,0,0,.734-.414c0-.031-.006-.062-.009-.094h0c0-.01,0-.021,0-.031,0-.034-.009-.068-.015-.1,0-.007,0-.014,0-.021l0,0a.1.1,0,0,1,.018.04.246.246,0,0,1,.006.028.589.589,0,0,1,0,.065,1.077,1.077,0,0,0,0,.113c.159-.093.123-.255.105-.383a3.434,3.434,0,0,1-.025-.517c.011-.216.02-.4.032-.649l-.009,0c0-.094.008-.189.008-.283,0-1.14,0-2.279,0-3.419q0-3.235,0-6.471h0c.1-1.212.107-2.426.11-3.641q.008-3.19.028-6.381c0-.072.006-.143.009-.216a.616.616,0,0,0,.079-.348q.021-2.085.041-4.17a.762.762,0,0,0,.075-.227c-.012-1.645.2-3.282.17-4.928a.876.876,0,0,0,.073-.225q.09-2.079.172-4.158a1.083,1.083,0,0,0,.092-.593c.025-.345.025-.692.056-1.036a29.181,29.181,0,0,0,.2-3.651h0q0-.243.006-.487c.124-1.413.249-2.827.368-4.24.024-.283.013-.569.031-.853,0-.065.01-.129.013-.193a2.832,2.832,0,0,0,.247.2c.18.132.31.324.566.307a.548.548,0,0,0,.262.165,10.579,10.579,0,0,0,2.329.628l1.086.218q-.142,3.073-.276,6.146a5.007,5.007,0,0,0-.022.95,1.268,1.268,0,0,0-.051.219c-.094,1.576-.168,3.154-.123,4.734.057,2,.193,4,.191,6.007a.4.4,0,0,0,.107.332.551.551,0,0,1,.36.1l.351.023a.325.325,0,0,1,.019.065,1.2,1.2,0,0,1,.54.1,2.872,2.872,0,0,1,.819.093l.975.023.005,0h.029a.089.089,0,0,0,.013.068l.033-.015.03.019a20.484,20.484,0,0,0,2.481.043,3.12,3.12,0,0,0,1.067-.044,1.344,1.344,0,0,1,.534-.04,15.679,15.679,0,0,0,1.753-.043l.157-.01c.243-.109.515.038.756-.088l.027-.019.031.013a.312.312,0,0,0,.089-.056.432.432,0,0,0,.386-.034.284.284,0,0,0,.183-.176.258.258,0,0,0,.036-.061.4.4,0,0,0,.145-.313c0-.057.007-.113.011-.17l.017-.272c.048-.788.094-1.577.168-2.363.186-1.958.389-3.914.6-5.87a24.757,24.757,0,0,0,.084-4.532,27.942,27.942,0,0,1-.108-2.856c.011-.421.025-.843.039-1.265.2,0,.4,0,.6,0a3.939,3.939,0,0,0,1.8-.2.848.848,0,0,1,.44-.074c.393.029.769-.111,1.161-.111a.962.962,0,0,0,.519-.114A4.522,4.522,0,0,1,90,115.675a8.275,8.275,0,0,0,2.033-.828c.824-.485,1.594-1.061,2.382-1.608l.06-.042a.236.236,0,0,1,.081-.155,2.885,2.885,0,0,1,.542-.367c.329-.366.664-.821,1.167-.873q.318-.274.624-.561c.737-.49,1.388-1.1,2.123-1.585,1.013-.667,2.054-1.3,3.131-1.863h0q.042,1.016.092,2.031c.062,1.216.12,2.433.233,3.645a33.46,33.46,0,0,1,.147,3.691c0,.158-.006.316,0,.473.031.981.154,1.959.119,2.943a1.9,1.9,0,0,0,.021.284c.085.74.158,1.479.189,2.224s.129,1.481.2,2.222c0,.029.029.055.045.082a15.234,15.234,0,0,0,.2,1.926c.186,1.725.35,3.452.584,5.171a3.594,3.594,0,0,0,.166,1.065.073.073,0,0,1,.034.032l-.034-.032c.046.532.072,1.068.147,1.6a3.465,3.465,0,0,0,.136.973c.163,1.321.164,2.655.292,3.979.18,1.859.206,3.73.475,5.582.15,1.033.14,2.085.328,3.114a3.8,3.8,0,0,0,.111.843.86.86,0,0,1,.042.529l-.015,0-.06.089c.01.016.019.033.029.05a.356.356,0,0,0-.147.175.282.282,0,0,0-.17.206,2.243,2.243,0,0,0-.019,1.231,4.319,4.319,0,0,0,.263,1.539h0a2.714,2.714,0,0,0,.476.949,10.036,10.036,0,0,0,1.811.948,1.156,1.156,0,0,0,.5.161,2.865,2.865,0,0,0,1.049.191c.373.051.744.117,1.118.15a13.733,13.733,0,0,0,2.117.06l.095-.009c.614-.034,1.231-.045,1.841-.107a7.262,7.262,0,0,0,2.071-.432,1.038,1.038,0,0,0,.467-.12h0a1.314,1.314,0,0,0,.681-.17,3.688,3.688,0,0,0,.953-.382.245.245,0,0,0,.2-.09,2.571,2.571,0,0,0,1.141-.775c.181-.142.205-.389.361-.545a.715.715,0,0,0,.186-.607c-.044-.551-.073-1.1-.114-1.654a.608.608,0,0,0-.07-.172c-.014-.2.146-.39.006-.586a9.372,9.372,0,0,1,.11-1.389,12.381,12.381,0,0,0,.242-1.863c.081-.451.131-.908.226-1.355.187-.883.189-1.787.355-2.675.18-.961.256-1.942.377-2.914.074-.6.139-1.193.223-1.788.167-1.177.14-2.368.252-3.549a15.7,15.7,0,0,0,.221-1.929.114.114,0,0,0-.032-.013l0-.006.028.019a.8.8,0,0,0,.074-.461c.017-.364-.006-.731.031-1.093.12-1.2.211-2.4.339-3.594s.15-2.4.307-3.595a.308.308,0,0,0,.074-.2,13.9,13.9,0,0,1-.076,2.585,19.376,19.376,0,0,0-.1,2.4.721.721,0,0,0-.089.41c0,.054,0,.108,0,.162a2.2,2.2,0,0,0-.017.67c-.038.737-.122,1.472-.161,2.207-.184,3.444-.425,6.887-.415,10.338,0,1.231-.207,2.451-.136,3.682.039.673.128.815.754,1.016a3.555,3.555,0,0,0,.628.087v-.009c.122.142.285.12.444.11a10.175,10.175,0,0,1,4.046,1.964,5.184,5.184,0,0,0,.988.555,17.827,17.827,0,0,0,2.262.861c-.008.049-.018.1-.027.146a5.649,5.649,0,0,0-.32,1.365,1.023,1.023,0,0,0,.325,1.21,5.672,5.672,0,0,0,1.624,1.144,4.774,4.774,0,0,0,1.893.864h0a1.088,1.088,0,0,0,.574.182l.031.023.038-.005a.4.4,0,0,0,.3.092v0h0a4.445,4.445,0,0,0,2.481.467.466.466,0,0,0,.286-.009c.485,0,.97.016,1.455,0a2.027,2.027,0,0,0,.832-.08,2.95,2.95,0,0,0,1.05-.09,7.33,7.33,0,0,0,1.9-.48h0a.822.822,0,0,0,.479-.279h0a2.273,2.273,0,0,0,1.042-.956c.154-.209.415-.347.44-.641a4.431,4.431,0,0,0,.039-1.177.237.237,0,0,0-.01-.193c0-.124-.009-.249,0-.373.01-.192-.1-.2-.214-.187a.738.738,0,0,0-.033-.141l-.133.053a.4.4,0,0,1-.08-.161c1.242-.036,2.483-.087,3.724-.116s2.507-.027,3.76-.04a29.85,29.85,0,0,0,4.2-.015,1.049,1.049,0,0,0,.544-.109,13.133,13.133,0,0,0,2.055-.082c1.838-.184,3.648-.533,5.465-.863a14.532,14.532,0,0,0,3.921-1.4,19.707,19.707,0,0,1,5.455-1.954h0a22.314,22.314,0,0,0,3.525-.35,17.646,17.646,0,0,0,2.759-.647,1.055,1.055,0,0,0,.821-1.027c.026-.969.02-1.939.028-2.909h0a1.7,1.7,0,0,0,.1-.837c.009-.806.007-1.612.008-2.418,0-.827.012-1.654.021-2.48.374.053.744.139,1.121.165h0a2.93,2.93,0,0,0,1.071.115l.044.026.05-.011a.589.589,0,0,0,.144.059c1.133.138,2.265.276,3.386.491a8.19,8.19,0,0,0,1.81.41.882.882,0,0,0,.2.043,17.092,17.092,0,0,0,2.6.374h0a.256.256,0,0,0,.217.011l.045.023.048-.017a4.585,4.585,0,0,0,1.948,0l.051.01.044-.028a2.116,2.116,0,0,0,.521-.084c.341-.029.434-.213.456-.526.042-.6.137-1.194.179-1.794.01,0,.019,0,.029,0l-.024-.056a2.685,2.685,0,0,0-.076-1.21c-.021-1.2-.153-2.4-.1-3.6a1.458,1.458,0,0,0,.035-.684,37.175,37.175,0,0,1,.017-4.906,3.081,3.081,0,0,0,0-.852,8.742,8.742,0,0,1-.072-1.753c0-.3,0-.6,0-.9,1.19-.055,2.38-.189,3.57-.187.417,0,.832-.006,1.248-.018l.015.075a3.366,3.366,0,0,1,.1.994,29.68,29.68,0,0,0,.306,4.76,6.714,6.714,0,0,0,.064.7c.079.442.226.557.672.538a12.694,12.694,0,0,1,2.062,0,21.089,21.089,0,0,0,4.3.076,6.975,6.975,0,0,0,1.811-.186,8.955,8.955,0,0,0,2.117-.361,1.346,1.346,0,0,0,.723-.341c.052-.024.105-.047.111-.116.032-.426.082-.852.092-1.279a3.3,3.3,0,0,0-.077-1.326,2.093,2.093,0,0,0-.11-.863c-.018-.638-.119-1.273-.142-1.91,1.786.027,3.569.2,5.357.136a1.03,1.03,0,0,1,.221.013,12.082,12.082,0,0,0,2.71.052c1.233-.051,2.465-.186,3.7-.181,1.589.007,3.173-.174,4.762-.129a1.717,1.717,0,0,0,.221-.012,25.965,25.965,0,0,1,3.143-.2,5.812,5.812,0,0,0,.72-.033c.733-.08,1.461-.182,2.2-.211.551-.022,1.106-.054,1.656-.107a3.223,3.223,0,0,0,.915-.2c.252-.1.348-.243.251-.462.143.01.286.022.429.032a.172.172,0,0,0,.138.009c.235.015.471.029.706.046a.4.4,0,0,0,.34-.076c.027.046.058.092.08.137a.4.4,0,0,0,.174-.293c0-.1,0-.2,0-.295a.544.544,0,0,1,.264-.033,8.747,8.747,0,0,0,2.7-.155.6.6,0,0,1,.249-.01.43.43,0,0,0,.218.4c.012-.026.025-.05.037-.074.11.1.266.049.417.021a12.439,12.439,0,0,1,2.289-.2,44.61,44.61,0,0,0,7.38-.476v.006c.011,0,.019-.008.029-.011q.52-.087,1.038-.2a44.943,44.943,0,0,0,4.578-1.1c.9-.289,1.8-.547,2.713-.788a29.538,29.538,0,0,0,4.341-1.481,1.547,1.547,0,0,0,1.017-1.723c-.045-.607-.117-1.214-.2-1.818a29.275,29.275,0,0,1-.433-4.519,1.865,1.865,0,0,1,.148-.741,3.828,3.828,0,0,0,.352-1.9,31.19,31.19,0,0,1,0-3.187,6.273,6.273,0,0,0-.1-1.7c-.016-.584-.021-1.169-.049-1.752.432.013.863.012,1.294-.015a1.908,1.908,0,0,0,.144.85c.083,1.295.169,2.59.248,3.884.026.431,0,.869.057,1.295a32.349,32.349,0,0,1,.314,3.879,21.249,21.249,0,0,0,.169,2.289,21.311,21.311,0,0,1,.257,2.165,32.3,32.3,0,0,0,.607,5.619.748.748,0,0,1-.02.465,1.754,1.754,0,0,0-.031,1.1,7.519,7.519,0,0,1,.153,2.7,16.524,16.524,0,0,0-.169,3.468,1.219,1.219,0,0,0,.941,1.2,8.114,8.114,0,0,0,1.2.3,42.661,42.661,0,0,0,5.712.341c.728,0,1.456.019,2.184.034a9.425,9.425,0,0,0,1.416-.036.432.432,0,0,0,.416-.41c.218-1.318.651-2.592.793-3.928a4.831,4.831,0,0,1,.469-1.514,12.457,12.457,0,0,0,.673-2.917,8.648,8.648,0,0,0,.165-2.113c-.05-1.061-.124-2.121-.189-3.181.084-.736-.1-1.459-.07-2.2a20.8,20.8,0,0,0-.258-2.9c-.007-2.046,0-4.093-.029-6.139,0-.21,0-.42,0-.631a21.521,21.521,0,0,0,3.116-1.99,11.906,11.906,0,0,0,1.356-1.148c.119-.12.229-.279.436-.214s.2.249.215.424c.015.283.033.565.046.847.03.637.075,1.274.118,1.911l0,0a.442.442,0,0,0,.022.286c.022.336.046.672.061,1.008.018.417.032.837.071,1.255h-.029a.26.26,0,0,0,.06.261,6.092,6.092,0,0,0,.145.815c.112.427.2.466.622.547a8.586,8.586,0,0,0,1.538-.011,7.988,7.988,0,0,0,1.362.028,6.009,6.009,0,0,1,1.174-.248,7.014,7.014,0,0,0,1.984-.256,11.583,11.583,0,0,0,2.32-.625,1.259,1.259,0,0,0,.271-.168l0,0a.288.288,0,0,0,.109-.112l0-.006a.959.959,0,0,0,.168-.585c.026-.969-.073-1.931-.11-2.9a.312.312,0,0,0-.007-.256c0-.116-.01-.232-.01-.348,0-1.093-.007-2.187-.011-3.28a5.2,5.2,0,0,0-.109-1.382c.016-.663.04-1.325.038-1.99-.008-1.781-.208-3.555-.151-5.334a11.42,11.42,0,0,1-.1-1.594,18.129,18.129,0,0,0,.075-2.5c.121-2.891-.113-5.779-.1-8.67a.973.973,0,0,0-.01-.229.6.6,0,0,0-.064-.143.108.108,0,0,0-.032-.059,54.852,54.852,0,0,0-.21-6.3,24.471,24.471,0,0,1-.256-4.17,1.751,1.751,0,0,0-.022-.344,17.721,17.721,0,0,1-.2-2.219,4.487,4.487,0,0,0-.205-1.809.714.714,0,0,1-.027-.284c0-.8-.19-1.6-.124-2.4a.845.845,0,0,0-.107-.442,7.3,7.3,0,0,0-.121-1.266c-.017-.8-.128-1.6-.136-2.4a4.794,4.794,0,0,0-.122-1.076,16.933,16.933,0,0,1-.428-4.088q0-1.553,0-3.107a3.3,3.3,0,0,0-.068-.683,2.913,2.913,0,0,1,.008-1.2,3.882,3.882,0,0,0,.005-1.482,2.662,2.662,0,0,1-.057-.511,19.749,19.749,0,0,0-.27-2.616c-.033-.265.02-.582-.189-.818.026-.2-.1-.377-.121-.57a11.521,11.521,0,0,0-.457-1.5.813.813,0,0,0-.119-.461c0-.127.017-.26-.11-.344v0a10.718,10.718,0,0,0-.92-3.231,17.12,17.12,0,0,0-1.963-4.142h0a5.985,5.985,0,0,0-.62-1.03,11.084,11.084,0,0,0-1.945-1.936.676.676,0,0,0-.478-.149.76.76,0,0,1-.583-.3,5.99,5.99,0,0,0-2.823-1.772.251.251,0,0,0-.233-.111.24.24,0,0,0-.23-.111.711.711,0,0,0-.331-.131,19.784,19.784,0,0,0-2.327-1.114,6.174,6.174,0,0,0-1.484-.607.634.634,0,0,0-.13-.109c-1.064-.477-2.121-.971-3.2-1.416a12.124,12.124,0,0,1-1.711-.8c-.534-.326-1.119-.57-1.647-.914h0a1.471,1.471,0,0,0-.563-.452,3.2,3.2,0,0,0-1.39-.69h0a.765.765,0,0,0-.465-.23,8.5,8.5,0,0,0-1.273-.571,8.767,8.767,0,0,0-.847-.293c-.084-.065-.167-.132-.251-.2a5,5,0,0,0-.848-.587.251.251,0,0,0-.194-.125,1.469,1.469,0,0,0-.557-.344.5.5,0,0,0-.185-.147c-.438-.272-.906-.488-1.367-.718a.676.676,0,0,0-.323-.106.156.156,0,0,0-.146-.067.119.119,0,0,0-.047-.04s-.008-.01-.013-.012a.2.2,0,0,0-.08-.013,1.656,1.656,0,0,0-.245-.108l-.06-.022-.013-.005h-.005l-.224-.073a7.243,7.243,0,0,0-1.635-.255l-.041-2.568a2.427,2.427,0,0,0-.309-1.163,4.327,4.327,0,0,0-.987-1.263q-.354-.33-.691-.679c1.227.022,2.457.127,3.68.119,2.029-.014,4.061-.109,6.092-.134h0a.744.744,0,0,0,.58.178l12.71.014,1.664.007h0c5.669.06,11.338.075,17.005-.035q0,.728,0,1.456c-.332.235-.195.518-.2.78-.054,3.418-.024,6.834.207,10.251.069,1.011.008,2.025.007,3.038a40.081,40.081,0,0,0-.4,4.488c-.169,2.149-.051,4.306-.056,6.46q.006,1.759.012,3.518c.011.983.1,1.966.142,2.947.074,1.588.3,3.173.3,4.762,0,.628,0,1.256,0,1.884a3.19,3.19,0,0,0-.2.855c.073,1.492-.35,2.973-.241,4.465.013.175-.044.36.2.5h0c-.078,1.278.039,2.555-.165,3.835a22.129,22.129,0,0,0-.066,3.3c-.3.19-.2.426-.2.645-.013,1.171-.015,2.343-.015,3.514a12.837,12.837,0,0,0,.032,1.689,34.682,34.682,0,0,1,.422,4.57c0,1.261-.008,2.522-.013,3.784-.3.161-.209.374-.209.57q0,4.517.006,9.034c0,.134,0,.268,0,.4q-.014.534-.028,1.068h0c-.318.213-.18.472-.195.712-.163,2.676.3,5.345.208,8.02-.015.472,0,.945.008,1.418a45.327,45.327,0,0,0,.183,5.64c.2,1.175-.025,2.371.274,3.55h0c0,.739-.005,1.479.013,2.218.011.467.342.926.19,1.4a11.772,11.772,0,0,0-.187,3.414c.09,2.026-.3,4.045-.26,6.071-.3.188-.2.425-.2.643,0,1.167.076,2.333.161,3.5.161,2.2.043,4.412.04,6.619a.744.744,0,0,1-.025.269,16.533,16.533,0,0,0-.363,2.95,14.455,14.455,0,0,0-.034,2.9c0,.2-.078.41.2.577q0,1.877,0,3.756h0c-.319.212-.2.473-.192.712.071,1.909.023,3.817.129,5.727.15,2.693.395,5.389.3,8.088-.057,1.6,0,3.2.019,4.793,0,.239-.121.5.2.71q.007.332.013.665-.006,2.766-.013,5.533c-.255.141-.2.326-.2.5q0,2.342,0,4.685c0,.175-.056.362.209.5.006.27.01.54.016.809a8.946,8.946,0,0,1-.214,2.523c-.184.511.262,1.006.195,1.519h0c-.318.185-.2.422-.2.639q-.015,4.619-.013,9.239c.009.317-.236.607-.231.93.025,1.552.032,3.1.007,4.656-.005.319.336.615.163.928a2.512,2.512,0,0,0-.161,1.2c-.111,2.222.217,4.449-.217,6.667a1.8,1.8,0,0,0,0,.54c.078.692.383.867,1.541.89.38.008.764.025,1.141,0a5.188,5.188,0,0,0,1.872-.14c1.141-.134,1.155-.134,1.154-.747,0-1.281-.021-2.562-.032-3.843a12.272,12.272,0,0,0,.015-4.6q0-3.784-.009-7.567a29.086,29.086,0,0,0,.224-4.469c.1-1.165.1-2.332.184-3.5.153-2.042.054-4.092.05-6.138,0-.219.075-.454-.2-.648.008-1.4.024-2.792.025-4.188q0-7.3,0-14.59c0-2.207-.039-4.413-.059-6.619q0-7.352,0-14.7a.43.43,0,0,0-.192-.444h0q-.012-.4-.023-.8c.008-.247.024-.494.022-.741-.021-2.019-.1-4.038-.192-6.057-.146-3.346-.067-6.695-.074-10.042-.006-2.494,0-4.988,0-7.481h0q.02-1.617.038-3.234h0c.233-.148.186-.335.2-.512.065-1.076.062-2.152.189-3.229a34.006,34.006,0,0,0,.063-3.707,8.519,8.519,0,0,0,.171-2.887,18.291,18.291,0,0,1-.109-5.111,45.789,45.789,0,0,0,.155-4.843h0q0-4.455,0-8.909a9.838,9.838,0,0,0-.052-1.551,41.3,41.3,0,0,1-.346-4.237,42.7,42.7,0,0,1,.342-6.664c.173-1.7.054-3.419.065-5.129a14.646,14.646,0,0,0,.24-3.769c.229-.147.189-.332.192-.507.008-.6,0-1.2,0-1.8q.01-.679.019-1.358h0c.011-.292.042-.584.03-.876-.058-1.48-.1-2.96-.211-4.441-.2-2.714.054-5.433-.218-8.149M181.588,139.67q-.043-.028-.088-.052a.3.3,0,0,1,.086-.06c0,.038,0,.075,0,.113M38.918,79.923h0v0h0c.009,0,.013,0,.012,0a.017.017,0,0,1-.011,0m-19.1,83.43s0,.009,0,.013,0,.026,0,.04,0,.032.006.05,0,.033.008.051l0,.011,0,0a.162.162,0,0,1-.052-.046l-.011-.017a.172.172,0,0,1-.02-.094c.023,0,.046,0,.069-.005M16.6,19.064a.224.224,0,0,0,.044,0c-.007.013-.013.026-.021.04l-.024-.036M188.126,8.106q.667.749,1.344,1.49a1.169,1.169,0,0,1,.324.82c0,.472-.006.944,0,1.416.007.394.017.787.027,1.181-.019.006-.038.01-.057.016a4.145,4.145,0,0,0-1.349.339,1.756,1.756,0,0,0-.572.234l-.006,0-.055.033-.028,0-.015.007a.116.116,0,0,0-.041.018l-.015.007a.132.132,0,0,0-.026.037h0c-.019,0-.037,0-.055.005h-.017l0,0a.152.152,0,0,0-.048.011c-.079.039-.156.081-.234.122l-.04.019-.04.023c-.211.112-.419.229-.622.354l-.1.064c-.211.133-.419.272-.62.424a.22.22,0,0,0-.04.01.145.145,0,0,0-.029.008.115.115,0,0,0-.051.055c-.028.016-.057.03-.083.048a20.82,20.82,0,0,0-2.977,2.611.844.844,0,0,0-.27.251,5.4,5.4,0,0,0-.71.554,11.383,11.383,0,0,1-1.012.605,3.994,3.994,0,0,0-.4,0,2.962,2.962,0,0,1-.4-.026c-.371-.164-.739-.335-1.095-.534l-.016-.019-.02-.012a.4.4,0,0,0-.132-.082l-.008,0-.019-.007a.129.129,0,0,0-.09-.063l-.008-.006-.021,0-.029-.03-.01-.008a2.159,2.159,0,0,0-.356-.262c-.055-.04-.111-.08-.166-.122-.4-.3-.771-.647-1.164-.963a10.938,10.938,0,0,0-1.125-1A6.671,6.671,0,0,0,174.612,15a.226.226,0,0,0-.177-.114,1.332,1.332,0,0,0-.51-.316.453.453,0,0,0-.17-.134c-.4-.249-.829-.447-1.251-.657a.617.617,0,0,0-.295-.1.141.141,0,0,0-.134-.061c0-.005-.009-.006-.012-.011a.124.124,0,0,0-.043-.037.188.188,0,0,0-.073-.011,1.677,1.677,0,0,0-.285-.121l-.006,0h-.006l-.2-.067a6.3,6.3,0,0,0-1.428-.227l-.052-3.208a2.428,2.428,0,0,0-.309-1.163,4.32,4.32,0,0,0-.987-1.263q-.192-.178-.381-.362a17.138,17.138,0,0,0,3.588.076,42.983,42.983,0,0,1,7.845-.109c2.481.194,4.955.132,7.432.155h.346a5.912,5.912,0,0,0,.625.836M65.547,159.15l0,0a.026.026,0,0,1,0-.012.051.051,0,0,1,0-.011.034.034,0,0,1,0-.007h0a.144.144,0,0,1,0,.025s0,.009,0,.008M18.852,157.5s0,0-.006,0l-.008-.006a.063.063,0,0,0,0-.035h0c0-.017,0-.023,0-.023l0,0a.036.036,0,0,1,.008.012.079.079,0,0,1,0,.01.069.069,0,0,1,0,.022.046.046,0,0,1,0,.013M17.707,89.046h0l.029,0c0,.014,0,.029-.005.044v0h0c-.01-.014-.017-.029-.027-.043h0m33.415,55.06.061.009c-.007.019-.009.036-.017.056-.015-.021-.03-.044-.044-.065M20.408,49.165c.008.006.018.006.027.011a.316.316,0,0,0,.086.036c.008,0,.014.008.022.009-.034.017-.069.032-.105.046l-.01,0v0c-.006-.034-.013-.069-.019-.1m119.163-42.6q2.52,0,5.039,0A5.224,5.224,0,0,0,145.659,8.3q.667.749,1.344,1.49a1.169,1.169,0,0,1,.324.82c0,.472-.006.944,0,1.416.009.55.025,1.1.038,1.65l-.062.016a4.093,4.093,0,0,0-1.263.3,1.7,1.7,0,0,0-.522.2l-.019.007-.052.029-.027,0-.014.006a.119.119,0,0,0-.039.015l-.015.006a.11.11,0,0,0-.025.033h0l-.028,0-.035,0h-.005l0,0a.152.152,0,0,0-.047.01c-.075.035-.149.073-.224.109l-.033.014-.034.018c-.2.1-.392.2-.583.311l-.1.061c-.191.113-.379.23-.56.359l-.015.01a.2.2,0,0,0-.032.008.151.151,0,0,0-.033.008.105.105,0,0,0-.047.048c-.026.014-.053.026-.078.042-.256.162-.5.335-.744.516-.091.068-.176.142-.265.212-.974-.245-1.951-.476-2.932-.681a14.246,14.246,0,0,0-1.7-.322,12.362,12.362,0,0,0-1.828-.3.065.065,0,0,0-.057-.006h0c-.041-.02-.082-.057-.124-.058a8.331,8.331,0,0,1-1.091-.159,2.513,2.513,0,0,0-.75-.088.071.071,0,0,0-.06-.007.5.5,0,0,0-.357-.062l-.2-.018a.765.765,0,0,0-.5-.062l-.206-.017a3.761,3.761,0,0,0-.92-.136c-.791-.094-1.581-.215-2.376-.268-.429-.029-.857-.072-1.285-.117l-.027,0c-.334-.035-.667-.071-1-.1-.054,0-.109-.015-.165-.022a.663.663,0,0,0-.184,0v-.017L126.633,10a2.416,2.416,0,0,0-.308-1.159,4.313,4.313,0,0,0-.983-1.258c-.306-.284-.608-.575-.888-.884-.021-.023-.038-.046-.057-.069,5.056-.137,10.117-.062,15.175-.07M32.433,145.005l-.007,0,.019,0c0,.007-.008.009-.012.009m150.453-126.9s.006.009.006.014,0,.008,0,.013a.079.079,0,0,1-.027.037.493.493,0,0,0,.02-.064M53.693,146.947a.487.487,0,0,0-.051-.035l-.023-.013a.231.231,0,0,0-.053-.019l0,0a.792.792,0,0,0,.059-.121l.007-.013c0-.017.007-.034.01-.051,0,.007.006.014.008.021.011.038.026.077.041.115.008.019.014.037.023.056.018.04.039.079.061.119.007.012.012.025.019.037-.028-.028-.053-.051-.077-.071l-.028-.021M21.687,162.759c.016.016.031.033.047.051l-.05,0c-.006,0-.011-.006-.017-.011a.1.1,0,0,1,0-.055l.02.018m4.9-145.07a.05.05,0,0,1-.007.015.032.032,0,0,1-.017.008l-.006,0a.1.1,0,0,1-.041-.012c.023-.009.05-.017.076-.024a.072.072,0,0,1-.005.011m2.57-1.351c-.018.007-.024.006-.032,0h0c.025-.014.033-.009.033,0h0m65.8,1.868a.025.025,0,0,1,.006.013s0,.007,0,.011a.071.071,0,0,1-.027.035.555.555,0,0,0,.02-.059m-36.6,139.851H58.31a.173.173,0,0,1,.015-.025l.053.024h-.025M46.424,16.694h0m-2.2,2.028-.007.009h-.008l.015-.009m6.123-.627.019,0c-.006,0-.01.005-.012,0s-.006,0-.007-.008m-6.161-1.487-.03.01v-.011l.031,0m-14.84,3.367c1.043-.19,2.1-.287,3.144-.459a1.616,1.616,0,0,0,.2,0q1.111-.118,2.222-.241c.662-.073,1.325-.15,1.987-.226a5.155,5.155,0,0,0,1.024-.074.2.2,0,0,1,.021-.008h0c-.008,0-.016,0-.024.009.575-.008,1.15-.039,1.723-.08l.058,0,.17-.009.05,0,.055-.005c.164-.018.328-.03.492-.046l.127-.01h0l.708-.015h4.336l1.647.015.082.021.04,0a10.3,10.3,0,0,0,1.117.065.527.527,0,0,0,.3.06c.494.042.989.085,1.483.135s.966.1,1.449.153a2.524,2.524,0,0,0-.324.107c-.506.216-.936.563-1.429.8a3.458,3.458,0,0,0-.917.453,6.013,6.013,0,0,0-1.442.461,4.767,4.767,0,0,1-.691.311c-.072.024-.142.052-.214.077-1.707,0-3.415.037-5.122.05a1.194,1.194,0,0,0-.287.074h0l-.209,0-.247,0a4.129,4.129,0,0,0-.977.007l-.125.006-1.83-.01-.483-.015a1.33,1.33,0,0,0-.656-.078c-.75-.025-1.5-.028-2.25-.072-1.517-.089-3.031-.24-4.554-.2l-.334-.011h0a1.18,1.18,0,0,0-.285-.077c-.932-.018-1.865-.028-2.8-.04a.144.144,0,0,0-.017-.006l-.026-.144c-.013-.073-.044-.223-.084-.412.963-.2,1.927-.393,2.895-.57m132.586-2.007a.03.03,0,0,1,.006.013s0,.008,0,.011a.074.074,0,0,1-.027.035.427.427,0,0,0,.02-.059m22.855-.783-.021.026-.028.027a.708.708,0,0,0,.049-.054M54.482,147.946l.013,0,.051-.012.028-.007c0,.03,0,.059,0,.089a.168.168,0,0,1-.094-.068M19.787,94.407c-.005,0-.01.01-.017.009h0a.386.386,0,0,0,.007-.043c0-.008,0-.015,0-.023l.018.019,0,0a.045.045,0,0,1,0,.025.027.027,0,0,1-.006.01M96.839,17.35l-.022.025-.031.029A.682.682,0,0,0,96.839,17.35ZM19.728,114.76c0-.017,0-.019.006-.019s0,.012-.006.019m144.1-97.652-.02.023c-.008.009-.017.016-.026.024C163.8,17.14,163.813,17.125,163.828,17.108ZM33.379,108.04c.017,0,.029,0,.045,0l.076,0,.033,0c-.006.007-.013.012-.019.018a.236.236,0,0,1-.048.036.212.212,0,0,1-.038.01.2.2,0,0,1-.054.011,1.256,1.256,0,0,1-.1-.018.37.37,0,0,1-.1-.055l.049,0,.065,0,.084,0M27.4,146.906l-.031-.039c.017-.012.036-.023.055-.035-.01.015-.017.031-.029.046s0,.019,0,.028m.98-97.22.008-.009a.18.18,0,0,1,.1-.039h0a.624.624,0,0,0-.084.06l-.017.015a.445.445,0,0,0-.061.068l0,0a.2.2,0,0,1,.057-.1M42.293,67.926l.009-.017c-.005.052-.01.105-.013.158l0-.008a.182.182,0,0,1-.01-.048.171.171,0,0,1,0-.035.206.206,0,0,1,.017-.051m82.754-49.547-.006.009h-.007l.013-.009m-.034-2.106-.027.01v-.011l.027,0M60.9,139.024a.164.164,0,0,0-.02-.025.136.136,0,0,1,.021.025.146.146,0,0,1,.018.021.151.151,0,0,1,.014.069.158.158,0,0,0-.016-.069.167.167,0,0,0-.017-.021m-7.957-13.77s.005,0,.006,0a.063.063,0,0,1,.021-.008c0,.007,0,.014,0,.021-.018,0-.029,0-.029-.01M21.69,139.3c-.015,0-.027-.01-.042-.014l0,0a.145.145,0,0,1,.091-.038.13.13,0,0,1,.045.054.212.212,0,0,1,.008.02c0,.006,0,.011,0,.017l-.008,0c-.032-.013-.067-.023-.1-.034m7.927-14.1c.006.01.011.019.017.029l-.005,0-.01,0a.117.117,0,0,1-.074-.008c0-.046.008-.085.011-.126.006.01.013.021.019.032s.026.045.041.068m-2.665.369-.031.03c-.008-.017-.015-.034-.023-.052l.055.022M32.79,87.284h-.009l.038-.053.021-.03s0,0,.006.007a.226.226,0,0,0,.073.08.767.767,0,0,0-.129,0M23.161,98.656h0c.01-.015.017-.02.022-.018s0,.005,0,.008a.025.025,0,0,1,0,.014v0a.02.02,0,0,1-.013.018c-.007,0-.015,0-.029-.012h0a.366.366,0,0,1-.021-.044l-.006-.017Zm7.206-4.35,0,0c-.01-.007-.016-.016-.025-.024l.026,0V94.3a.016.016,0,0,1,0,0m-.984,11.323h-.028a.237.237,0,0,1,.022-.023c0,.008,0,.016.006.024m-2.07,10.794V116.4a1.133,1.133,0,0,0,.083-.079h0a.279.279,0,0,1-.083.1M25.12,92.465l.013-.025a.854.854,0,0,1,.012.09h0a.146.146,0,0,1-.056-.006l.008-.015.023-.044m-2.172,8.069c-.005.014-.006.025-.012.04v0c-.006-.014-.011-.027-.016-.041h.029M19.434,88.821a.028.028,0,0,1-.013-.032c0,.011.008.021.013.032m8.123,56.108-.014,0,.014-.025Zm4.9-30.318c-.01,0-.011-.022-.011-.022s.007.015.011.022m104.012-94.94a.325.325,0,0,0-.28.151l-1.518.656c-.292.113-.586.22-.878.334-1.181.4-2.295.961-3.447,1.429-.515.157-1.017.35-1.516.549l-1.255.011c-.663.007-1.328.059-1.987.015-.1-.007-.21-.008-.314-.013a.249.249,0,0,1-.046-.037l-.252-.024a.507.507,0,0,0-.021-.069l-.239-.015c-.013-.024-.025-.049-.036-.074l-.254-.02c-.006-.023-.013-.047-.021-.07h-.173l-.1-.091-.258-.026a.574.574,0,0,0-.015-.067.316.316,0,0,1-.27-.094.858.858,0,0,1-.468-.167.353.353,0,0,1-.272-.094,25.064,25.064,0,0,0-.54-.191,109.584,109.584,0,0,1-.549-.181l-.247-.018-.027-.073a.313.313,0,0,1-.276-.086.379.379,0,0,1-.278-.085.347.347,0,0,1-.271-.1.38.38,0,0,1-.276-.087l-.254-.025a.289.289,0,0,1-.023-.065.334.334,0,0,1-.273-.088l-.327-.05a.238.238,0,0,0-.193-.069c-.008-.024-.015-.048-.021-.072a.355.355,0,0,1-.271-.091l-.24-.024c0-.006,0,0,0-.012a.075.075,0,0,0-.027-.062c-.1-.112-.262,0-.364-.1-.078-.08-.2-.016-.276-.08-.132-.13-.322.008-.455-.1-.113-.1-.272-.009-.391-.088a.052.052,0,0,1-.063-.009c-.073-.083-.2,0-.274-.092a.17.17,0,0,0-.172-.027c.015-.031.007-.052-.044-.052a.045.045,0,0,1-.057-.011.155.155,0,0,0-.2,0v.012l-.07-.005-.086-.009c0-.007,0-.013,0-.019h-.014a.246.246,0,0,0-.026-.054l-.334-.021a.169.169,0,0,0-.188,0l-.092-.075a.761.761,0,0,1-.452-.1.526.526,0,0,1-.368-.087l-.433-.016a.568.568,0,0,0-.109-.076.663.663,0,0,0-.407-.051l-.165-.067-.247-.1c.394-.059.788-.117,1.181-.19a1.27,1.27,0,0,0,.174,0q.985-.118,1.969-.24c.587-.073,1.174-.149,1.761-.224a4.1,4.1,0,0,0,.907-.074c.006,0,.013,0,.019-.008h0c-.007,0-.015,0-.021.009.508-.008,1.016-.038,1.522-.079l.057,0,.15-.009.045,0,.048-.005c.142-.017.283-.029.425-.044.041,0,.082-.006.124-.011l.628-.015H126.3l1.077.011h.005l.377,0c.024.008.048.015.072.021l.036,0a8.01,8.01,0,0,0,.989.064h0c.08.068.175.051.267.06.438.042.877.085,1.314.135.736.084,1.471.182,2.208.257.507.052,1.01.14,1.513.221l1.064.17c.238.044.475.089.713.131l.57.1c-.013.011-.027.019-.04.031m-6.741-3.824,0,.013v0l0,0-.019-.006c.009-.008.018-.008.027-.014m-2.782.54.027-.015.006,0,.01-.006a.227.227,0,0,1-.023.019l-.02,0M111.69,16A.006.006,0,0,1,111.7,16c-.016.007-.022.006-.029,0h0a.038.038,0,0,1,.021-.008l0,0M21.809,97.464l.006.019-.01,0-.019,0,.023-.013M19.479,93.2a.061.061,0,0,1,.016-.007l.013,0a.022.022,0,0,1,.024.018h0c.007.015.01.031.016.046l0,0,0-.005a.083.083,0,0,0-.016-.027v0a.026.026,0,0,0-.021-.006s0,0-.007,0h0l-.007-.007v.008a.032.032,0,0,1-.019,0s0,0,0-.008,0,0,0,0m.381.866c.007,0,.012.01.019.015l-.019,0ZM169.974,18.138a1.112,1.112,0,0,0-.2-.052c-.17-.01-.341-.015-.512-.021a.724.724,0,0,0,.139-.107.372.372,0,0,1,.041-.031.331.331,0,0,1,.053-.038.183.183,0,0,1,.042-.01.213.213,0,0,1,.046-.01.232.232,0,0,1,.048.008.261.261,0,0,1,.042.007.716.716,0,0,1,.1.039c.154.074.308.146.464.216h-.255m-36.766-.608a.017.017,0,0,1,0-.012l0,0a.016.016,0,0,1,0,.009v0M33.01,120.324c.011,0,.014.016.014.019v0l0,0c0-.006-.007-.012-.012-.018m1.83-30.519.048-.02c0,.012,0,.024,0,.036l-.023-.008-.022-.008m8.089,2.863.012-.02.011.021h-.024m8.506,39.021.012,0a.05.05,0,0,1,.027.028l0,0a.091.091,0,0,1,0,.05l-.006.013a.333.333,0,0,1-.023.048l0,0c-.006-.012-.013-.022-.018-.034s-.019-.042-.028-.064-.014-.039-.021-.059h.006a.173.173,0,0,1,.056.006M63.227,114.92a.126.126,0,0,1-.033.007.119.119,0,0,1-.032.006c.008,0,.036-.007.065-.013Zm131.4-95.13c-.175.046-.351.09-.53.124a7.943,7.943,0,0,0-1.535.392c-.056,0-.11.012-.166.017h-.5a.2.2,0,0,0-.2.1l-.391,0h-2.733l-.781,0c-.127-.147-.3-.093-.454-.095-.565-.005-1.129,0-1.694,0h-.183c.141-.062.281-.126.416-.2.091-.03.184-.052.272-.091,1.239-.543,2.467-1.113,3.715-1.633a1.409,1.409,0,0,0,.532-.3.326.326,0,0,1,.055-.044.355.355,0,0,1,.039-.03.187.187,0,0,1,.056-.014.258.258,0,0,1,.033-.008.417.417,0,0,1,.187.059l.049.025h0c.223.114.446.23.676.325.526.218,1.047.448,1.567.681l0,0,.995.444.567.254m-168.907,4.3,0,0-.01-.018-.009-.019a.133.133,0,0,1,.019-.006c0,.015,0,.031,0,.046m125.715-9.086h0l0,.005,0,0h0m-14.984.082h-.016l-.044,0-.025,0,.056-.034.029.044m-1.969-.455-.036-.055-.016-.025h.117a.3.3,0,0,1-.065.079m-28.37.262h0s0,0,0,0l0,0h0m-56.6,1.286-.006.013v0l0,0-.022-.005c.01-.008.02-.008.03-.014m-3.139.542.03-.015.007,0,.011-.005a.271.271,0,0,1-.026.019l-.022.005M36.7,86.454a.2.2,0,0,0,.031-.011c.006.019.013.039.02.059a.671.671,0,0,1-.051-.049m14,42.1-.011-.009a.056.056,0,0,1,.019-.029.144.144,0,0,0-.008.037M173.15,14.639h0l0,.006-.006-.006h0M67.166,16.383s-.006-.009-.008-.013l.01,0,0,.01M65.55,154.708l0,.013,0,.007-.029-.018h0l.032,0v0M194.172,14.531h0l0,.005,0,0h0M53.436,17.87a.017.017,0,0,1-.005-.013h0a.016.016,0,0,1,0,.01v0m114-4.314a1.811,1.811,0,0,0-.568.217l-.006,0-.054.031-.028,0-.015.006a.129.129,0,0,0-.04.016l-.015.006a.117.117,0,0,0-.026.034h0l-.025,0-.042,0H166.6l0,0a.152.152,0,0,0-.049.011c-.078.037-.155.076-.233.113l-.039.017-.038.021q-.313.155-.617.328l-.105.063c-.209.123-.415.252-.614.393a.128.128,0,0,0-.119.068c-.028.014-.056.027-.083.044a20.33,20.33,0,0,0-2.959,2.43.817.817,0,0,0-.268.233,5.285,5.285,0,0,0-.706.515c-.135.086-.273.165-.411.244a2.174,2.174,0,0,0-.606.1.084.084,0,0,0-.1.014,3.938,3.938,0,0,0-1.254.154.6.6,0,0,0-.154.044,1.974,1.974,0,0,0-.812.144c-.228-.107-.453-.221-.674-.344l-.015-.018-.019-.011a.378.378,0,0,0-.123-.076l-.009-.006-.032-.02a.124.124,0,0,0-.071-.046l-.008-.006-.02,0-.006-.006-.021-.021-.006,0a1.974,1.974,0,0,0-.336-.247c-.056-.041-.113-.082-.168-.124-.378-.283-.722-.606-1.089-.9a10.267,10.267,0,0,0-1.061-.947,6.323,6.323,0,0,0-.964-.69.215.215,0,0,0-.167-.107,1.261,1.261,0,0,0-.481-.3.426.426,0,0,0-.16-.127c-.378-.235-.782-.421-1.179-.619a.582.582,0,0,0-.278-.091.133.133,0,0,0-.126-.057s-.008-.006-.011-.01a.113.113,0,0,0-.042-.036.162.162,0,0,0-.069-.011,1.565,1.565,0,0,0-.268-.115l-.006,0h-.005l-.193-.063a5.061,5.061,0,0,0-1.12-.195l-.052-3.2a2.423,2.423,0,0,0-.309-1.163,4.326,4.326,0,0,0-.987-1.263c-.307-.285-.611-.577-.892-.887a2.8,2.8,0,0,1-.379-.532h4.966l4.964.038h0c.227.233.514.185.785.2,1.652.065,3.3.062,4.956.189,1.541.119,3.093.08,4.643.068a5.907,5.907,0,0,0,.57.764c.445.5.891,1,1.344,1.49a1.171,1.171,0,0,1,.323.82c0,.472-.006.944,0,1.416.01.568.026,1.137.039,1.706a4.208,4.208,0,0,0-1.248.3M111.818,7.024a.846.846,0,0,0,.681-.192h0l1.226-.023c.379.008.758.024,1.137.022,2.65-.017,5.3-.082,7.949-.155a5.541,5.541,0,0,0,.836,1.222c.443.5.888.994,1.339,1.485a1.164,1.164,0,0,1,.322.816c0,.471-.005.941,0,1.411.011.673.033,1.345.047,2.018l0,0-.008-.024a.378.378,0,0,0-.04-.087v0h0c-.048-.068-.12-.068-.3-.064-.034,0-.069.008-.1.012a5.922,5.922,0,0,0-1.329.068c-.452.01-.9,0-1.355.032-1.2.083-2.4.2-3.6.273-.151.01-.3.021-.452.033l-.276.029c-.714.062-1.428.138-2.141.214a4.221,4.221,0,0,0-1.032.136,7.57,7.57,0,0,0-1.326.165,3.382,3.382,0,0,0-.792.1q-1.459.242-2.914.519c-.616.117-1.234.217-1.841.391a2.783,2.783,0,0,0-.281-.165.228.228,0,0,0-.176-.114,1.336,1.336,0,0,0-.507-.314.454.454,0,0,0-.169-.134c-.4-.247-.825-.444-1.244-.653a.618.618,0,0,0-.293-.1.141.141,0,0,0-.133-.06c0-.005-.008-.006-.012-.01a.117.117,0,0,0-.044-.037.18.18,0,0,0-.073-.011,1.642,1.642,0,0,0-.283-.121l-.007,0h-.006l-.2-.066a5.8,5.8,0,0,0-1.312-.216l-.054-3.386a2.427,2.427,0,0,0-.309-1.163,4.326,4.326,0,0,0-.987-1.263q-.3-.283-.6-.58h10.66m-44.811,8.45a.057.057,0,0,1,.018.027c-.006-.011-.018-.017-.027-.027h.008m-5.926-.3-.006-.012.015,0-.009.01M19.019,159.031c.016-.015.034-.028.051-.041a.077.077,0,0,1-.05.041h0M32.188,148.19h-.06a.048.048,0,0,1,.013,0,.133.133,0,0,1,.028,0l.019,0h0m91.751-34.171c.086-1.45.288-2.893.258-4.35a1.823,1.823,0,0,1,.037-.472,4.635,4.635,0,0,0,0-1.7,10.178,10.178,0,0,0,.115-2.411c0-.9-.1-1.808-.052-2.706.1-1.729-.021-3.455.019-5.183.042-1.791,0-3.584-.013-5.375a8.394,8.394,0,0,0-.173-2.627,22.241,22.241,0,0,0-.038-2.276,10.4,10.4,0,0,1-.03-1.707q.024-.41.045-.819l.216-.051.1-.025c.086-.021.171-.045.257-.068l.012,0,.153-.04h0s.006,0,.008,0l.144-.04a.23.23,0,0,0,.129-.031l.088-.014c.077-.08.2-.013.277-.08l.033-.022.039.006c.062-.04.143-.03.2-.077l.022-.023.031,0c.074-.028.163-.02.209-.089.059-.038.138-.028.193-.077l.047-.018h0c.073-.025.156-.023.207-.08a.87.87,0,0,1,.153-.042.367.367,0,0,0,.171-.026,1.6,1.6,0,0,0,.069.3c.015.459.008.919.048,1.376.086.979.168,1.958.178,2.942a12.961,12.961,0,0,0,.051,1.425.444.444,0,0,0,.036.189c-.03.144-.056.289-.087.433-.219.993-.473,1.979-.629,2.987-.3,1.964-.681,3.915-.977,5.88-.191,1.267-.258,2.546-.451,3.81-.319,2.088-.4,4.195-.519,6.3-.007.085-.014.17-.021.255a10.507,10.507,0,0,0-.128,2.448h0a17.583,17.583,0,0,0-.368,2.589c-.043.307-.089.613-.134.92.015-.476.029-.951.057-1.426M.985,18c-.01.011-.016.023-.027.035A.142.142,0,0,1,.985,18M89.253,7.024H99.4a5.879,5.879,0,0,0,.658.892c.445.5.891,1,1.344,1.49a1.171,1.171,0,0,1,.323.82c0,.472-.006.944,0,1.416.011.62.029,1.24.043,1.86l-.01,0a4.311,4.311,0,0,0-1.333.314,1.781,1.781,0,0,0-.551.211l-.02.007-.054.031-.028,0-.015.006a.12.12,0,0,0-.042.017L99.7,14.1a.115.115,0,0,0-.026.035h0l-.046,0-.022,0H99.6l0,0a.151.151,0,0,0-.049.011c-.08.037-.158.077-.237.116l-.033.015-.033.017q-.317.157-.624.332l-.1.057c-.208.122-.413.25-.611.39l0,0a.178.178,0,0,0-.033.008.142.142,0,0,0-.036.009.113.113,0,0,0-.05.051c-.027.015-.056.027-.082.044a20.211,20.211,0,0,0-2.943,2.417.816.816,0,0,0-.267.232,4.42,4.42,0,0,0-.575.411,1.148,1.148,0,0,1-.2-.209.2.2,0,0,0-.09-.184.8.8,0,0,0,0-.087c-.009-.043,0-.1-.029-.128a5.964,5.964,0,0,1-.732-1.37,6.587,6.587,0,0,0-.683-1.4,10.974,10.974,0,0,0-.9-1.805.188.188,0,0,0-.092-.18h0c-.066-.167-.206-.188-.359-.184h0l-.035-.015,0,0a1.161,1.161,0,0,0-.318-.136h0a6.2,6.2,0,0,0-1.361-.385,3.564,3.564,0,0,0-1.085-.179c-.188.015-.352-.117-.542-.088l-.174-.008c-.1-.123-.24-.078-.367-.088a6.262,6.262,0,0,0-2.078-.268,8.746,8.746,0,0,0-1.527-.1l-.019-1.22a2.428,2.428,0,0,0-.309-1.163,4.326,4.326,0,0,0-.987-1.263c-.251-.233-.5-.473-.732-.721,2.655-.012,5.309-.033,7.964-.049M57.094,15.418h-.018l-.05,0-.028,0,.063-.034.033.044m-2.222-.457-.006-.008c-.011-.016-.024-.033-.033-.045l-.02-.027h.132a.313.313,0,0,1-.073.08M18.232,58.5l-.027.025-.048.052-.016.017v0a.391.391,0,0,1,.007-.082c0-.008,0-.016,0-.025a.451.451,0,0,1,.045-.115c.028.031.052.064.077.1l0,0c-.011.008-.024.02-.037.031M19,150.529c.01,0,.011.005.013.015L19,150.53h0M266.892,14.62h0a.036.036,0,0,1,0,.007l-.006-.006h0M210,12.266a4.833,4.833,0,0,0-1.5.352,2.047,2.047,0,0,0-.638.244h0l-.061.034-.031,0-.015.006a.142.142,0,0,0-.048.019l-.016.007,0,0c-.5.062-1,.119-1.491.2a3.4,3.4,0,0,1-.709.084,1.967,1.967,0,0,0-.849.131c0-.024.008-.047.012-.071-.162-.11-.289-.078-.346.1-.019.059-.033.121-.047.182a2.191,2.191,0,0,0-.572.629A17.864,17.864,0,0,1,202.332,16a8.047,8.047,0,0,1-2.134,1.339c-.4.162-.808.318-1.2.5-.415-.329-.79-.709-1.192-1.055a11.263,11.263,0,0,0-1.133-1.079,6.761,6.761,0,0,0-1.029-.787.23.23,0,0,0-.178-.123,1.342,1.342,0,0,0-.513-.339.469.469,0,0,0-.171-.145c-.4-.267-.834-.48-1.259-.706a1.171,1.171,0,0,0-.18-.084.332.332,0,0,0-.117-.02.139.139,0,0,0-.134-.065.119.119,0,0,0-.031-.028c-.009-.007-.015-.019-.026-.023a.164.164,0,0,0-.073-.012,1.438,1.438,0,0,0-.226-.107l-.054-.021-.012,0h0c-.069-.025-.138-.048-.207-.072a5.4,5.4,0,0,0-1.292-.231l-.044-2.717a2.427,2.427,0,0,0-.309-1.163,4.333,4.333,0,0,0-.987-1.263q-.276-.256-.543-.524,5.772,0,11.545,0a23.247,23.247,0,0,0,2.381-.052c1.662-.172,3.328-.238,4.995-.295a5.755,5.755,0,0,0,.656.889q.659.741,1.328,1.473a1.158,1.158,0,0,1,.32.811c0,.467-.006.933,0,1.4,0,.22.01.439.015.659a3.1,3.1,0,0,0-.524.113M303.366,18c-.01.011-.017.023-.027.035a.154.154,0,0,1,.027-.035M283.112,2.021a.239.239,0,0,1,.053.027c-.018-.01-.035-.016-.053-.027M34.048,2.1h-.009l0-.006.011.006M1.032,180.326l.006-.008h0v0l-.006,0M79.094,7.083l.489,0a5.724,5.724,0,0,0,.737,1.025c.445.5.891,1,1.344,1.49a1.171,1.171,0,0,1,.323.82c0,.376,0,.753,0,1.129a11.706,11.706,0,0,1-1.649.088.569.569,0,0,0-.18.013,26.369,26.369,0,0,1-2.754.343,7.246,7.246,0,0,0-1.4.269c-.125.011-.264-.036-.362.087-.125.014-.264-.03-.362.092a4.329,4.329,0,0,0-1.241.354c-.122.042-.177.151-.239.256-.151.257-.319.505-.462.767a6.866,6.866,0,0,0-.859,2.151,3.322,3.322,0,0,0-.211.641.233.233,0,0,1,.152.306c-.1.271-.256.511-.363.777l-.082.2a.515.515,0,0,0,.113.212.173.173,0,0,1-.01.168,1.242,1.242,0,0,0-.16.23c-.219-.189-.437-.38-.663-.561a12.726,12.726,0,0,0-1.324-1.182,7.888,7.888,0,0,0-1.2-.862.271.271,0,0,0-.209-.134h0a1.577,1.577,0,0,0-.6-.371.534.534,0,0,0-.2-.158c-.472-.293-.976-.526-1.472-.773a.717.717,0,0,0-.348-.113l-.006,0,0,0h0a.156.156,0,0,0-.152-.072.159.159,0,0,0-.151-.07h0A3.093,3.093,0,0,0,65,13.981a5.983,5.983,0,0,0-1.3-.233l-.054-3.338a2.427,2.427,0,0,0-.309-1.163,4.333,4.333,0,0,0-.987-1.263c-.307-.285-.611-.577-.892-.887l-.009-.011q8.824,0,17.648,0M59.47,15.249l0,.006-.006.006s0-.008,0-.012M181.585,137.688l.014.014v.015c0-.01-.01-.019-.014-.029M238.94,10.266a4.567,4.567,0,0,1-.99.114,6.766,6.766,0,0,0-1.341.145h0a12.708,12.708,0,0,0-2.369.238,5.27,5.27,0,0,0-1.3.2,6.678,6.678,0,0,0-1.812.2c-.344.071-.716-.052-1.032.165a4.713,4.713,0,0,0-2.561,1.332c-.3.338-.553.712-.823,1.073a6.855,6.855,0,0,0-.99,1.854A11.43,11.43,0,0,1,224.25,17.9a2.6,2.6,0,0,1-.593.557c-.188.117-.374.238-.561.357a4.732,4.732,0,0,1-1.778-1.432,9.475,9.475,0,0,1-.791-1.453,6.829,6.829,0,0,0-.655-1.393.211.211,0,0,0-.113-.187c.008-.117,0-.244-.223-.268-.022.051-.054.107-.074.166a.309.309,0,0,0-.15-.046c-.2-.252-.532-.2-.793-.32a6.767,6.767,0,0,0-2.649-.567.469.469,0,0,0-.247-.106,4.081,4.081,0,0,0-1-.122l-.453-.224a.686.686,0,0,0-.33-.108h0a.126.126,0,0,0-.066-.055.164.164,0,0,0-.024,0,.283.283,0,0,0-.059-.009.12.12,0,0,0-.034-.029c-.009-.008-.017-.02-.029-.025a.2.2,0,0,0-.082-.013,1.719,1.719,0,0,0-.257-.114l-.044-.016-.025-.009-.009,0-.225-.073a5.375,5.375,0,0,0-1.129-.21l-.037-2.3a2.4,2.4,0,0,0-.306-1.15,4.284,4.284,0,0,0-.975-1.248q-.333-.309-.65-.636c3.354-.108,6.7.124,10.05.346,2.616.173,5.247.054,7.871.065a34.3,34.3,0,0,0,5.785.24.973.973,0,0,0,.778.192c.921.008,1.841,0,2.763,0l.724.007c.011.012.02.025.031.038q.636.715,1.282,1.421a1.115,1.115,0,0,1,.308.782c0,.069,0,.138,0,.207a4.408,4.408,0,0,0-.543.1m64.474,170.06.006-.008h0v0l-.006,0M44.012,7.295c1.757,0,3.514-.032,5.27-.034.336,0,.7.075.994-.2,2.142.009,4.285.024,6.427.025h3.113a5.606,5.606,0,0,0,.832,1.21q.667.749,1.344,1.49a1.169,1.169,0,0,1,.323.82c0,.472-.006.944,0,1.416.01.565.026,1.131.039,1.7a3.259,3.259,0,0,0-.5.111,5.121,5.121,0,0,0-1.577.371h0a2.266,2.266,0,0,0-.74.294.15.15,0,0,0-.147.077l0,0a.5.5,0,0,0-.146.022c-.415.2-.822.406-1.216.639a9.067,9.067,0,0,0-1.444-.194.082.082,0,0,0-.065-.006.441.441,0,0,0-.141-.058,10.437,10.437,0,0,1-1.231-.16,3.169,3.169,0,0,0-.847-.088.086.086,0,0,0-.068-.007.619.619,0,0,0-.4-.063L53.6,14.64a.96.96,0,0,0-.563-.062l-.232-.017a4.756,4.756,0,0,0-1.038-.137c-.893-.094-1.784-.216-2.682-.269-.484-.029-.966-.072-1.449-.117l-.032,0c-.376-.035-.753-.071-1.129-.1a1.032,1.032,0,0,0-.5.008c0-.017,0-.031,0-.048l-.057-3.579a2.427,2.427,0,0,0-.309-1.163,4.328,4.328,0,0,0-.987-1.263q-.312-.29-.61-.595m-26.6,44.654c0,.041-.006.081-.008.122a.382.382,0,0,1,.008-.122m54.936,71.107v0h0l0,0m120.117,14.877h0a.38.38,0,0,0,0,.059l-.009,0c0-.019.008-.038.012-.057M261.7,9.786a1.17,1.17,0,0,1,.323.82c0,.472-.006.944,0,1.416.006.359.015.718.025,1.077a4.68,4.68,0,0,0-1.41.338,1.981,1.981,0,0,0-.622.237l-.006,0-.043.025-.016.009h0l-.03,0-.017.007a.136.136,0,0,0-.044.018l-.017.007a.124.124,0,0,0-.028.037h0l-.043,0-.03,0h-.006l0,0a.187.187,0,0,0-.054.012c-.086.04-.172.084-.257.125l-.04.018-.04.021q-.345.171-.679.362l-.11.065c-.228.134-.452.274-.668.428l0,0a.187.187,0,0,0-.059.014c-.005,0-.012,0-.017,0a.121.121,0,0,0-.055.056c-.03.016-.061.03-.09.048-.281.178-.551.369-.817.566a14.719,14.719,0,0,0-1.706.588c-.2.077-.394.156-.59.237-.314-.5-.554-1.033-.818-1.557a7.234,7.234,0,0,0-2.45-2.771,6.64,6.64,0,0,0-2.347-.924,5.955,5.955,0,0,0-1.888-.575c-1.213-.046-2.414-.245-3.63-.232a5.528,5.528,0,0,1-1.569-.184.836.836,0,0,0-.627.057q-.231-.013-.462-.022l-.006-.36a2.318,2.318,0,0,0-.295-1.11,3.7,3.7,0,0,0-.647-.911c.252.009.5.016.756.01,2.272-.058,4.543-.1,6.815-.211,4.09-.2,8.19.042,12.285-.207a5.788,5.788,0,0,0,.694.953q.667.749,1.344,1.49" transform="translate(0 0)" fill="#40bbff"/>
            <path id="Caminho_770282" data-name="Caminho 770282" d="M181.711,43.073c-.017.062-.034.123-.054.184a1.314,1.314,0,0,0-.131.6q.092-.391.185-.782" transform="translate(-109.559 -25.997)" fill="#40bbff"/>
            <path id="Caminho_770283" data-name="Caminho 770283" d="M183.951,339.363l.035,0-.138-.035a.168.168,0,0,0,.1.033" transform="translate(-110.965 -204.809)" fill="#40bbff"/>
            <path id="Caminho_770284" data-name="Caminho 770284" d="M181.559,320.08v-.137a.123.123,0,0,0-.029.047.067.067,0,0,0,.029.09" transform="translate(-109.562 -193.107)" fill="#40bbff"/>
            <path id="Caminho_770285" data-name="Caminho 770285" d="M182.116,337.4a1.182,1.182,0,0,0,.038.477c.028.083.063.1.092.072-.093-.087-.12-.212-.127-.434l0-.115" transform="translate(-109.915 -203.646)" fill="#40bbff"/>
            <path id="Caminho_770286" data-name="Caminho 770286" d="M182.01,308.285a.488.488,0,0,0-.018.306l.015-.262,0-.044" transform="translate(-109.834 -186.071)" fill="#40bbff"/>
            <path id="Caminho_770287" data-name="Caminho 770287" d="M212.5,296.609c0,.075,0,.15,0,.225.042-.033.038-.1.039-.151a2.708,2.708,0,0,0-.017-.766c-.009.229-.016.46-.02.692" transform="translate(-128.258 -178.606)" fill="#40bbff"/>
            <path id="Caminho_770288" data-name="Caminho 770288" d="M182.15,304.161a.709.709,0,0,0-.03.582c.012-.191.021-.386.03-.582" transform="translate(-109.889 -183.582)" fill="#40bbff"/>
          </g>
        </g>
        <g id="Grupo_233384" data-name="Grupo 233384" transform="translate(882.024 6638.783)">
          <g id="Grupo_233383" data-name="Grupo 233383" transform="translate(0)" clip-path="url(#clip-path-2)">
            <path id="Caminho_759164" data-name="Caminho 759164" d="M195.943,220.322l2.519-17.907,25.331-2.077V211.17s-7.9,4.9-8.85,4.9-19,4.255-19,4.255" transform="translate(-48.657 -57.116)"/>
            <path id="Caminho_759165" data-name="Caminho 759165" d="M88.353,56.526c1.217,2.459.414,4.154-.5,6.458a3.178,3.178,0,0,0-.233,1.89c10.508-.984,21.016-1.955,31.55-2.576,7.118-.415,14.079-1.359,21.145-2.317,4.477-.595,8.981-.906,13.419-1.669a4.637,4.637,0,0,0-1.5-3.585c-.569-.583-1.513-.971-1.967-1.631-1.281-1.824-.8-3.351-.556-5.241a7.261,7.261,0,0,0-.428-3.442,9.214,9.214,0,0,0-3.118-4.037c-1.941-1.488-3.727-1.5-4.387-4.1-1-3.986.285-7.622-2.07-11.323-3.313-5.189-9.369-6.676-14.946-5.28-.091-.09-.182-.168-.272-.245a10.458,10.458,0,0,0-.984-.88c-5.2-4.361-13.549-7.17-19.152-3.637-4.62,2.912-4.517,6-6.135,7.441-1.837,1.617-5.163,2.8-6.69,4.749-1.41,1.786-2.886,4-2.989,6.341-.117,2.252,1.358,4.3,1.112,6.561-.233,2.085-1.877,3.353-2.808,5.1a9.279,9.279,0,0,0-.66,7.26,33.555,33.555,0,0,0,2.174,4.167" transform="translate(100.176 -3.794)" fill="#ffe3d1"/>
            <path id="Caminho_759166" data-name="Caminho 759166" d="M109.167,102.189l14.59,3.324,10.625-2.98-2.9-11.9-.059-.225-3.384-13.878-.581-2.363-1.721-7.064L112.23,81.924l-2.98,3.253-.024,5.449v.024l-.011,2.208Z" transform="translate(102.789 -19.132)" fill="#ffa694"/>
            <path id="Caminho_759167" data-name="Caminho 759167" d="M93.408,106.4s2.671,13.261,5.449,13.557,23.933.688,26.117.3,12.655-6.624,12.655-6.624l9.106-7.23-14.163-6.814-1.057-.51-1.2-.582-9.07.368-.487.024-9.6.391H111.1l-.784.321-2.778,1.116-.677.273-.487.2Z" transform="translate(101.703 -28.08)" fill="#ffa694"/>
            <path id="Caminho_759168" data-name="Caminho 759168" d="M118.368,95.763l3.93.617a17.653,17.653,0,0,0,10.483-2.659l.463-.285a16.861,16.861,0,0,0,4.191-3.692,16.072,16.072,0,0,0,2.529-4.535c.167-.463.606-3.193.926-4.487a5.4,5.4,0,0,1-1.674-1.258c-4.665,1.959-9.3,3.918-13.9,5.983l-2.98,3.253-.024,5.449v.024l-2.778,1.116-.676.273Z" transform="translate(89.706 -22.655)"/>
            <path id="Caminho_759169" data-name="Caminho 759169" d="M109.8,45.112c-.169-.976-.319-1.9-.453-2.767-.853-5.468,4.953-13.272,8.735-14.074,11.762-2.493,27.669-2.664,30.162,9.1a21.7,21.7,0,0,1,.322,6.975c.239,4.522-1.761,11.83-4.279,17.5C139.35,72.965,133.147,76.671,127.335,76.3c-13.948-.88-15.513-19.51-17.539-31.193" transform="translate(88.4 -7.671)" fill="#ffa694"/>
            <path id="Caminho_759170" data-name="Caminho 759170" d="M106.47,43.414a.548.548,0,0,1-.168-.466c.362-5.228.543-12.009,4.3-16.06A16.623,16.623,0,0,1,125.39,21.4a30.272,30.272,0,0,1,6.819,1.566c.414.142.829.3,1.242.453a53.6,53.6,0,0,1,9.226,4.762c1.929,1.23,3.9,2.3,4.776,4.517,1.152,2.925,1.268,6.626,1.514,9.758a.046.046,0,0,1,.039-.014c.815-.168,1.152,1.075.337,1.255-8.9,1.877-19.191-1.786-21.431-10.883-.1-.414-.194-.841-.258-1.281-.169.013-.35.039-.518.064a15.812,15.812,0,0,0-5.927,1.7c-1.864,1.048-2.99,2.925-4.84,3.96-2.07,1.152-4.5,1.035-6.38,2.652-2.679,2.33-3.119,6.2-3.494,9.5-.1.815-1.4.829-1.294,0a25.676,25.676,0,0,1,1.268-5.992" transform="translate(90.199 -6.068)" fill="#ffe3d1"/>
            <path id="Caminho_759171" data-name="Caminho 759171" d="M103.882,54.539c-.861,4.179.934,8.081,4.01,8.715s6.268-2.241,7.129-6.421-.934-8.082-4.011-8.715-6.268,2.24-7.128,6.421" transform="translate(125.868 -13.694)" fill="#ffa694"/>
            <path id="Caminho_759172" data-name="Caminho 759172" d="M129.137,62.885c.428,1.526,1.549,2.544,2.5,2.277s1.383-1.722.956-3.247-1.549-2.545-2.5-2.277-1.383,1.722-.956,3.247" transform="translate(90.251 -16.991)"/>
            <path id="Caminho_759173" data-name="Caminho 759173" d="M148.809,63.866c.428,1.525,1.549,2.544,2.5,2.277s1.383-1.722.956-3.247-1.549-2.545-2.5-2.277-1.383,1.721-.956,3.247" transform="translate(56.515 -17.27)"/>
            <path id="Caminho_759174" data-name="Caminho 759174" d="M142.057,67.037c.466-.689,1.453.149.99.834a6.644,6.644,0,0,0-.869,1.489c-.438.945-.385,2.584,1.045,2.486.831-.058.959,1.23.127,1.288a2.562,2.562,0,0,1-2.737-2.353c-.164-1.558.52-2.376,1.444-3.743" transform="translate(70.794 -19.039)"/>
            <path id="Caminho_759175" data-name="Caminho 759175" d="M134.983,78.361c1.1,2.163,4.56,1.731,5.469-.39a.648.648,0,0,1,1.2.493c-1.372,3.2-6.253,3.561-7.855.409-.378-.744.812-1.252,1.188-.513" transform="translate(77.911 -22.12)"/>
            <path id="Caminho_759176" data-name="Caminho 759176" d="M126.76,52.92a2.932,2.932,0,0,1,1.267-.885,4.629,4.629,0,0,1,2.521-.084,4.684,4.684,0,0,1,1.946.85c.839.664,1.724,2.381.166,2.8a2.855,2.855,0,0,1-1.423-.084,5.41,5.41,0,0,0-1.413-.258,8.5,8.5,0,0,0-1.565.317,1.848,1.848,0,0,1-1.531-.222,1.523,1.523,0,0,1-.415-1.559,2.283,2.283,0,0,1,.449-.871" transform="translate(91.441 -14.773)" fill="#ffe3d1"/>
            <path id="Caminho_759177" data-name="Caminho 759177" d="M154.851,55.043a1.522,1.522,0,0,1-.311,1.584,1.851,1.851,0,0,1-1.513.324,8.414,8.414,0,0,0-1.582-.213,5.446,5.446,0,0,0-1.393.351,2.85,2.85,0,0,1-1.415.178c-1.583-.31-.813-2.083-.019-2.8a4.671,4.671,0,0,1,1.885-.977,4.623,4.623,0,0,1,2.52-.084,2.922,2.922,0,0,1,1.323.8,2.3,2.3,0,0,1,.505.839" transform="translate(54.671 -15.186)" fill="#ffe3d1"/>
            <path id="Caminho_759178" data-name="Caminho 759178" d="M126.668,31.413c.168-.026.35-.051.518-.064.065.44.155.866.259,1.281,1.85-3.132,3.688-6.264,5.539-9.4.336-.57.673-1.152,1.009-1.721a10.664,10.664,0,0,0-.984-.88c-.428.712-.841,1.436-1.268,2.148-1.7,2.873-3.378,5.759-5.073,8.632" transform="translate(90.667 -5.882)" fill="#ffa694"/>
            <path id="Caminho_759179" data-name="Caminho 759179" d="M6.859,163.662l21.215,10.376,4.013,41.55h90.366l4.309-22.556,38.428-4s-13.344-48.52-29.085-62.326c-10.008-8.8-22.378-14.555-30.035-17.582-.463-.189-.9-.356-1.318-.522-3.621-1.378-5.9-2.054-5.9-2.054a50.3,50.3,0,0,1-24.645,6.66c-13.77-.154-20.276-6.09-20.276-6.09s-2.541.629-5.948,1.626c-.451.131-.914.261-1.389.415-5.651,1.686-12.893,4.179-15.4,6.423-4.309,3.846-24.337,48.08-24.337,48.08" transform="translate(145.122 -30.377)" fill="url(#linear-gradient-2)"/>
            <path id="Caminho_759180" data-name="Caminho 759180" d="M223.092,220.533,220,214.1s-15.606-2.424-24.214,5.493,5.788,20.281,5.788,20.281,15.647.477,16.875.412,4.642-19.755,4.642-19.755" transform="translate(-45.884 -60.941)"/>
            <path id="Caminho_759181" data-name="Caminho 759181" d="M166.368,233.957c.055-.377,3.113-1.277,3.548-1.424a12.134,12.134,0,0,1,4.383-.844c3.384.172,3.3,3.65,1.545,5.383a11.721,11.721,0,0,1-3.986,2.341c-6.668,2.6-5.493-5.44-5.49-5.456" transform="translate(19.299 -66.052)"/>
            <path id="Caminho_759182" data-name="Caminho 759182" d="M134.4,231.812c-.055-.378-3.113-1.277-3.548-1.424a12.134,12.134,0,0,0-4.383-.844c-3.384.172-3.3,3.65-1.545,5.382a11.735,11.735,0,0,0,3.986,2.342c6.668,2.6,5.493-5.441,5.49-5.457" transform="translate(92.272 -65.441)"/>
            <path id="Caminho_759183" data-name="Caminho 759183" d="M176.981,242.891a38.34,38.34,0,0,1,4.559-.439c.38-.024.784-.06,1.2-.084,1.828-.13,3.953-.261,6.114-.392l1.2-.071c2.149-.131,4.309-.262,6.233-.368.415-.024.807-.048,1.2-.072l.625-.035a4.629,4.629,0,0,0,4.3-5.419c-.654-3.761-1.651-8.557-2.762-10.632-1.437-2.683-3.941-1.9-5.176-1.294a5.689,5.689,0,0,0-.725.415,5.716,5.716,0,0,0-.759-2.042,3.9,3.9,0,0,0-3.407-1.947,3.274,3.274,0,0,0-3.455,2.624v.011a5.483,5.483,0,0,0-.213,1.353,4.245,4.245,0,0,0-.891-.866,3.739,3.739,0,0,0-3.4-.617c-1.793.534-1.947,3.264-1.864,5.009v.024a14.056,14.056,0,0,0,.154,1.483,3.821,3.821,0,0,0-1.175-.546,2.779,2.779,0,0,0-2.992.891c-1.829,2.054.866,13.356,1.235,13.011" transform="translate(-12.452 -62.868)" fill="#ffa694"/>
            <path id="Caminho_759184" data-name="Caminho 759184" d="M26.782,220.533c-2.82-.445-9.052,5.515-10.759,9.151s-1.484,11.649-1.484,11.649H34.721l15.8,3.635H99.793l-4.452-23.3-28.492,3.858L65.728,231.4S29.6,220.978,26.782,220.533" transform="translate(205.035 -62.867)" fill="#ffa694"/>
            <path id="Caminho_759185" data-name="Caminho 759185" d="M117.355,244.733a.593.593,0,0,0,.589-.531,54.847,54.847,0,0,1,1.463-7.908c.927-3.15,5.031-6.5,5.072-6.532a.593.593,0,0,0-.746-.923c-.181.146-4.435,3.619-5.464,7.12a55.222,55.222,0,0,0-1.5,8.118.593.593,0,0,0,.528.653.478.478,0,0,0,.064,0" transform="translate(107.043 -65.204)" fill="#4f332e"/>
            <path id="Caminho_759186" data-name="Caminho 759186" d="M109.42,248.608a.594.594,0,0,0,.589-.531,54.864,54.864,0,0,1,1.463-7.908c.926-3.144,5.031-6.5,5.072-6.532a.593.593,0,0,0-.746-.923c-.181.146-4.435,3.62-5.464,7.12a55.223,55.223,0,0,0-1.5,8.118.593.593,0,0,0,.528.653.612.612,0,0,0,.064,0" transform="translate(120.651 -66.309)" fill="#4f332e"/>
            <path id="Caminho_759187" data-name="Caminho 759187" d="M102.408,252.812a.594.594,0,0,0,.589-.531,54.757,54.757,0,0,1,1.463-7.908c.926-3.144,5.031-6.5,5.072-6.532a.593.593,0,1,0-.746-.923c-.181.146-4.435,3.62-5.464,7.12a54.929,54.929,0,0,0-1.5,8.118.593.593,0,0,0,.528.653.631.631,0,0,0,.064,0" transform="translate(132.676 -67.508)" fill="#4f332e"/>
            <path id="Caminho_759188" data-name="Caminho 759188" d="M80.314,255.724H201.107v-2.446a4.627,4.627,0,0,0-4.628-4.628H84.942a4.628,4.628,0,0,0-4.628,4.628Z" transform="translate(56.692 -70.89)"/>
            <path id="Caminho_759189" data-name="Caminho 759189" d="M235.942,253.065h53.863v-1.436a2.719,2.719,0,0,0-2.719-2.719H235.942Z" transform="translate(-143.265 -70.964)" fill="#b4b2c2"/>
            <path id="Caminho_759190" data-name="Caminho 759190" d="M168.781,90.547l14.828,75.171a7.451,7.451,0,0,0,7.313,6.007h127.2a7.434,7.434,0,0,0,4.108-1.222,6.976,6.976,0,0,0,1.033-.843,7.4,7.4,0,0,0,2.184-6.827l-14.827-75.17a7.386,7.386,0,0,0-2.28-4.048,6.01,6.01,0,0,0-.937-.724,7.426,7.426,0,0,0-4.1-1.235H176.094a7.421,7.421,0,0,0-6.493,3.823,5.314,5.314,0,0,0-.534,1.187,7.364,7.364,0,0,0-.285,3.882" transform="translate(-130.938 -23.28)" fill="#b4b2c2"/>
            <path id="Caminho_759191" data-name="Caminho 759191" d="M259.533,231.882h24.93l6.879-50.333h-24.93Z" transform="translate(-161.667 -51.759)" fill="#b4b2c2"/>
            <path id="Caminho_759192" data-name="Caminho 759192" d="M256.969,199.761H258.2l3.028-18.579h25.084l-2.588,18.579h1.222l2.672-19.089a.612.612,0,0,0-.605-.677H260.708a.613.613,0,0,0-.605.5Z" transform="translate(-156.119 -51.317)"/>
            <path id="Caminho_759193" data-name="Caminho 759193" d="M171.9,88.189h132.8a3.923,3.923,0,0,1,3.823,3.122l16.549,80.715a6.934,6.934,0,0,0,1.032-.843l-16.418-80.11A5.106,5.106,0,0,0,304.691,87H172.43a5.382,5.382,0,0,0-.535,1.187" transform="translate(-133.767 -24.804)"/>
            <path id="Caminho_759194" data-name="Caminho 759194" d="M375.1,113.736a.615.615,0,0,0,.119-.012.594.594,0,0,0,.464-.7l-2.82-13.8a.594.594,0,0,0-1.164.237l2.82,13.8a.594.594,0,0,0,.581.475" transform="translate(-326.199 -28.153)" fill="#4f332e"/>
            <path id="Caminho_759195" data-name="Caminho 759195" d="M368.334,113.736a.615.615,0,0,0,.119-.012.594.594,0,0,0,.464-.7l-2.82-13.8a.594.594,0,0,0-1.164.237l2.82,13.8a.594.594,0,0,0,.581.475" transform="translate(-314.597 -28.153)" fill="#4f332e"/>
            <path id="Caminho_759196" data-name="Caminho 759196" d="M361.567,113.736a.615.615,0,0,0,.119-.012.594.594,0,0,0,.464-.7l-2.82-13.8a.594.594,0,0,0-1.164.237l2.82,13.8a.594.594,0,0,0,.58.475" transform="translate(-302.991 -28.153)" fill="#4f332e"/>
            <path id="Caminho_759197" data-name="Caminho 759197" d="M354.8,113.736a.615.615,0,0,0,.119-.012.594.594,0,0,0,.464-.7l-2.82-13.8a.594.594,0,0,0-1.164.237l2.82,13.8a.594.594,0,0,0,.581.475" transform="translate(-291.39 -28.153)" fill="#4f332e"/>
            <path id="Caminho_759198" data-name="Caminho 759198" d="M348.036,113.736a.615.615,0,0,0,.119-.012.594.594,0,0,0,.464-.7l-2.82-13.8a.594.594,0,0,0-1.164.237l2.82,13.8a.594.594,0,0,0,.581.475" transform="translate(-279.787 -28.153)" fill="#4f332e"/>
            <path id="Caminho_759199" data-name="Caminho 759199" d="M193.009,88.072a.51.51,0,0,0,.309.107.606.606,0,0,0,.522-.237l2.826-3.834a6.016,6.016,0,0,0-.938-.724l-2.85,3.858a.6.6,0,0,0,.131.831" transform="translate(-19.259 -23.772)"/>
            <path id="Caminho_759200" data-name="Caminho 759200" d="M0,268.169H266.863a.813.813,0,0,0,.9-.69V255.412a.814.814,0,0,0-.9-.69H0Z" transform="translate(47.456 -72.621)" fill="#a64c38"/>
            <path id="Caminho_759201" data-name="Caminho 759201" d="M88.15,248.44s4.056-4.65,5.639-4.65,4.155,4.65,4.155,4.65Z" transform="translate(154.253 -69.504)"/>
            <path id="Caminho_759202" data-name="Caminho 759202" d="M202.457,232l2.8,13.462.213,1.009a.6.6,0,0,0,.583.463.5.5,0,0,0,.13-.011.579.579,0,0,0,.45-.7l-.177-.843-2.98-14.317a14.09,14.09,0,0,0,.154,1.484,3.808,3.808,0,0,0-1.176-.546" transform="translate(-36.171 -65.875)" fill="#4f332e"/>
            <path id="Caminho_759203" data-name="Caminho 759203" d="M192.349,224.687l3.835,18.341.13.629a.587.587,0,0,0,.582.463.433.433,0,0,0,.119-.012.6.6,0,0,0,.463-.7l-.1-.451-3.93-18.758a5.483,5.483,0,0,0-.213,1.353,4.245,4.245,0,0,0-.891-.866" transform="translate(-19.782 -63.919)" fill="#4f332e"/>
            <path id="Caminho_759204" data-name="Caminho 759204" d="M181.792,223.237l3.3,19.078.237,1.4a.606.606,0,0,0,.581.5c.036,0,.071-.012.107-.012a.61.61,0,0,0,.487-.688l-.214-1.27-3.015-17.38a5.644,5.644,0,0,0-.724.415,5.726,5.726,0,0,0-.76-2.042" transform="translate(-1.26 -63.645)" fill="#4f332e"/>
            <path id="Caminho_759205" data-name="Caminho 759205" d="M40.725,212.941a.592.592,0,0,0,.55-.372l13.85-34.526a.593.593,0,1,0-1.1-.442L40.174,212.127a.593.593,0,0,0,.55.814" transform="translate(231.358 -50.527)"/>
            <path id="Caminho_759206" data-name="Caminho 759206" d="M54.425,205.945a.593.593,0,0,0,.593-.58l.442-20.473a.593.593,0,0,0-.581-.606.607.607,0,0,0-.607.581l-.441,20.473a.593.593,0,0,0,.58.606Z" transform="translate(221.27 -52.54)"/>
            <path id="Caminho_759207" data-name="Caminho 759207" d="M89.556,109.979a44.319,44.319,0,0,0,25.631,9.533c1.1.059,2.185.094,3.241.094a52.21,52.21,0,0,0,30.6-9.663c-.463-.19-.9-.356-1.318-.522a51.376,51.376,0,0,1-32.457,8.9,43.3,43.3,0,0,1-24.313-8.761c-.451.13-.914.261-1.389.415" transform="translate(102.159 -31.196)"/>
          </g>
        </g>
      </g>
    </g>
    <g id="Grupo_232268" data-name="Grupo 232268" transform="translate(690.689 1561.552)">
      <path id="Caminho_734262" data-name="Caminho 734262" d="M3.716-.459H110.311l-4.04,17.008H0Z" transform="translate(0 0.459)" fill="url(#linear-gradient-3)"/>
      <path id="Caminho_734263" data-name="Caminho 734263" d="M106.595,16.549H0L4.04-.459H110.311Z" transform="translate(0 17.361)" fill="url(#linear-gradient-4)"/>
    </g>
    <g id="Grupo_234168" data-name="Grupo 234168" transform="translate(675.871 1539.335)">
      <g id="Grupo_233995" data-name="Grupo 233995" transform="translate(60.01 109.904) rotate(-149)">
        <g id="Grupo_233994" data-name="Grupo 233994" clip-path="url(#clip-path-3)">
          <path id="Caminho_770518" data-name="Caminho 770518" d="M20.619,10.309A10.309,10.309,0,1,0,10.309,20.619,10.309,10.309,0,0,0,20.619,10.309" transform="translate(23.945 0)" fill="#0e1126"/>
          <path id="Caminho_770519" data-name="Caminho 770519" d="M44.586,22.293A22.293,22.293,0,1,0,22.293,44.586,22.293,22.293,0,0,0,44.586,22.293" transform="translate(11.976 27.912)" fill="#f5c750"/>
          <path id="Caminho_770520" data-name="Caminho 770520" d="M0,16.693C3.662,11.991,6.864,7.433,6.864,0H17.187V16.693Z" transform="translate(17.081 19.313)" fill="#f5c750"/>
          <path id="Caminho_770521" data-name="Caminho 770521" d="M17.187,16.693c-3.662-4.7-6.864-9.26-6.864-16.693H0V16.693Z" transform="translate(34.269 19.313)" fill="#f5c750"/>
          <rect id="Retângulo_124924" data-name="Retângulo 124924" width="20.619" height="9.004" transform="translate(23.945 10.309)" fill="#0e1126"/>
          <path id="Caminho_770522" data-name="Caminho 770522" d="M18.817.376c-.053,4.486-.036,8.973-.025,13.459q.008,3.405.017,6.811c0,1.915-.038,3.835.08,5.748a15.25,15.25,0,0,0,1.4,6.091,6.1,6.1,0,0,0,4.575,3.448,3.765,3.765,0,0,0,4-2.146A4.334,4.334,0,0,0,28.875,31,9.579,9.579,0,0,0,27.6,28.241c-2.311-3.438-6.623-4.919-10.614-4.97a23.576,23.576,0,0,0-7.278,1.171,13.252,13.252,0,0,0-6.262,3.942A10.138,10.138,0,0,0,.765,34.773a4.657,4.657,0,0,0,2.69,4.344A5.076,5.076,0,0,0,8.4,38.266,9.473,9.473,0,0,0,11.651,32.5a28.956,28.956,0,0,0,.256-6.82c-.092-2.174-.111-4.344-.116-6.52-.01-4.857,0-9.715.011-14.572q0-1.508,0-3.016a.39.39,0,0,1,.779,0c0,4.954-.018,9.908-.017,14.862,0,2.307-.029,4.619.03,6.925a70.784,70.784,0,0,1,.09,7.19,12.5,12.5,0,0,1-2.219,6.678,6.88,6.88,0,0,1-5.279,2.988A5.013,5.013,0,0,1,.7,37.594a7.48,7.48,0,0,1,.2-6.649A12.939,12.939,0,0,1,5.77,25.357a21.035,21.035,0,0,1,7.924-2.605c4.331-.667,9.074-.014,12.544,2.848a10.4,10.4,0,0,1,3.412,5.275,5.077,5.077,0,0,1,0,3.018,4.141,4.141,0,0,1-1.61,2.069,5.35,5.35,0,0,1-5.509.007,8.343,8.343,0,0,1-3.721-5.137,24.415,24.415,0,0,1-.77-6.543c-.025-2.068-.009-4.136-.015-6.2-.013-4.912-.034-9.824-.01-14.736q.007-1.487.024-2.975a.39.39,0,0,1,.779,0" transform="translate(20.075 15.616)" fill="#0e1126"/>
          <path id="Caminho_770523" data-name="Caminho 770523" d="M.582.045l8.985,3.8a.392.392,0,0,1,.14.533.4.4,0,0,1-.533.14L.189.717A.392.392,0,0,1,.049.185.4.4,0,0,1,.582.045" transform="translate(60.254 56.597)" fill="#0e1126"/>
          <path id="Caminho_770524" data-name="Caminho 770524" d="M.729.188l5.2,8.841a.39.39,0,0,1-.672.393L.057.58A.39.39,0,0,1,.729.188" transform="translate(50.552 71.353)" fill="#0e1126"/>
          <path id="Caminho_770525" data-name="Caminho 770525" d="M5.93.58.729,9.421a.39.39,0,0,1-.672-.393L5.258.187A.39.39,0,0,1,5.93.58" transform="translate(13.481 71.353)" fill="#0e1126"/>
          <path id="Caminho_770526" data-name="Caminho 770526" d="M9.567.717.583,4.515a.4.4,0,0,1-.533-.14.392.392,0,0,1,.14-.533L9.174.044a.4.4,0,0,1,.533.14.392.392,0,0,1-.14.533" transform="translate(0 56.598)" fill="#0e1126"/>
          <path id="Caminho_770527" data-name="Caminho 770527" d="M0,9.414V.376a.39.39,0,0,1,.779,0V9.414a.39.39,0,0,1-.779,0" transform="translate(34.616 76.362)" fill="#0e1126"/>
          <path id="Caminho_770528" data-name="Caminho 770528" d="M.483.015,14.853,3.909l4.124,1.117a.39.39,0,0,1-.207.751L4.4,1.883.275.766A.39.39,0,0,1,.483.015" transform="translate(25.296 4.947)" fill="#e5e3f2"/>
          <path id="Caminho_770529" data-name="Caminho 770529" d="M.483.015,15.935,4.2,20.3,5.384a.39.39,0,0,1-.207.751L4.637,1.948.275.766A.39.39,0,0,1,.483.015" transform="translate(23.976 11.116)" fill="#e5e3f2"/>
        </g>
      </g>
    </g>
  </g>
</svg>
