<svg xmlns="http://www.w3.org/2000/svg" xmlns:xlink="http://www.w3.org/1999/xlink" width="464.005" height="312.447" viewBox="0 0 464.005 312.447">
  <defs>
    <linearGradient id="linear-gradient" x1="0.209" x2="0.584" y2="1.161" gradientUnits="objectBoundingBox">
      <stop offset="0" stop-color="#fff"/>
      <stop offset="0.243" stop-color="#95ebff"/>
      <stop offset="0.644" stop-color="#0024a8"/>
      <stop offset="1" stop-color="#3db8f9"/>
    </linearGradient>
    <linearGradient id="linear-gradient-2" x1="0.973" y1="1" x2="0" y2="1" gradientUnits="objectBoundingBox">
      <stop offset="0" stop-color="#fff" stop-opacity="0"/>
      <stop offset="0.159" stop-color="#fff" stop-opacity="0.408"/>
      <stop offset="0.414" stop-color="#95ebff"/>
      <stop offset="0.598" stop-color="#3db8f9"/>
      <stop offset="0.82" stop-color="#1b74d8"/>
      <stop offset="1" stop-color="#0024a8"/>
    </linearGradient>
    <linearGradient id="linear-gradient-3" x1="0.027" y1="0" x2="1" y2="0" xlink:href="#linear-gradient-2"/>
    <clipPath id="clip-path">
      <rect id="Retângulo_124885" data-name="Retângulo 124885" width="378.615" height="246.678" fill="#40bbff"/>
    </clipPath>
    <clipPath id="clip-path-2">
      <rect id="Retângulo_124864" data-name="Retângulo 124864" width="386.067" height="244.428" fill="none"/>
    </clipPath>
    <linearGradient id="linear-gradient-4" x1="0.5" x2="0.5" y2="1" gradientUnits="objectBoundingBox">
      <stop offset="0" stop-color="#c95ee9"/>
      <stop offset="1" stop-color="#9d7df6"/>
    </linearGradient>
    <clipPath id="clip-path-3">
      <rect id="Retângulo_124925" data-name="Retângulo 124925" width="85.745" height="105.517" fill="none"/>
    </clipPath>
  </defs>
  <g id="_Carrossel-imagem-fixa_2_" data-name="&lt;Carrossel-imagem-fixa_2&gt;" transform="translate(-474.997 -1775.553)">
    <path id="Caminho_734267" data-name="Caminho 734267" d="M-106.379,0H214.892l-56.82,256.372-321.382-.089Z" transform="translate(690.31 1831.628)" fill="url(#linear-gradient)"/>
    <path id="GettyImages-1412762526" d="M-105.227.151,235.692,0,177.924,260.087l-341.233-.2Z" transform="translate(703.31 1817.849)" fill="#fff"/>
    <g id="Grupo_232278" data-name="Grupo 232278" transform="translate(-9449.485 1960.552)">
      <path id="Caminho_734262" data-name="Caminho 734262" d="M4.668-.459H138.562L133.487,20.9H0Z" transform="translate(10249.926 -163.541)" fill="url(#linear-gradient-2)"/>
      <path id="Caminho_734263" data-name="Caminho 734263" d="M133.894,20.9H0L5.075-.459H138.562Z" transform="translate(10249.926 -142.311)" fill="url(#linear-gradient-3)"/>
    </g>
    <g id="Grupo_234125" data-name="Grupo 234125" transform="translate(-407.027 -4811.568)">
      <g id="Grupo_233472" data-name="Grupo 233472" transform="translate(934.027 6640.337)" opacity="0.25">
        <g id="Grupo_233471" data-name="Grupo 233471" clip-path="url(#clip-path)">
          <path id="Caminho_770281" data-name="Caminho 770281" d="M378.026,40.621c-.137-1.37.127-2.749.113-4.118-.017-1.619-.133-3.241-.164-4.862h0a.472.472,0,0,0,.218-.463q.009-5.072.017-10.144,0-.663.008-1.327h0c.063-3.883.083-7.766,0-11.649a3.474,3.474,0,0,0,.126-.373,4.514,4.514,0,0,0,.019-2.98c0-.093,0-.186,0-.279-.065-1.025-.134-1.579-.411-1.879v0c-.031-.654-.281-.876-1.224-1.048a6.817,6.817,0,0,0-2.98-.012c-.093,0-.185,0-.279,0-1.583.065-2.044.14-2.174.706l-7.4-.013c-.443-.407-.974-.238-1.466-.243-6.424-.066-12.847-.03-19.269.254-1.9.084-3.806.01-5.71.008-2.8-.351-5.626-.341-8.437-.485-1.147-.059-2.3-.087-3.444-.1a7.006,7.006,0,0,0-1.757-.8,4.929,4.929,0,0,0-4.507.821c-.812.007-1.624.012-2.435.011l-6.612.015c-1.848.014-3.7.118-5.54.173-2.04.062-4.078.207-6.118.293A6.2,6.2,0,0,0,296.068.685a4.814,4.814,0,0,0-4.7,1.092c-.081.067-.151.141-.223.213a3,3,0,0,0-.521-.038c-2.8.089-5.589-.428-8.393-.295-.33.016-.676-.055-.946.244h0c-2.4-.1-4.8.048-7.21-.2-2.054-.214-4.138-.067-6.209-.081-.357-.364-.8-.238-1.212-.241-1.29-.01-2.579-.009-3.868-.011a6.7,6.7,0,0,0-2.1-1.048,4.989,4.989,0,0,0-4.875,1.132c-.016.014-.031.029-.047.043-2.489.217-4.978.422-7.478.421-2.37,0-4.741-.01-7.113-.016-.3-.364-.7-.256-1.073-.256h-2.948a6.95,6.95,0,0,0-1.8-.834,4.933,4.933,0,0,0-4.527.836l-7.7,0-.755-.006-2.008-.034h0c-.4-.39-.887-.22-1.338-.238-2.462-.1-4.921-.013-7.38.087a6.746,6.746,0,0,0-2.2-1.114A5.047,5.047,0,0,0,204.5,1.491c-.053.044-.1.093-.147.14-.139,0-.278,0-.418,0-.888-.019-1.777.006-2.665.01-3.532.109-7.065-.172-10.6.224-1.7.19-3.43.072-5.148.174A6.748,6.748,0,0,0,183.33.929,5.046,5.046,0,0,0,178.4,2.074a3.443,3.443,0,0,0-.4.405,2.643,2.643,0,0,1-.793-.031,33.736,33.736,0,0,0-6.418-.229c-3.808.111-7.6-.37-11.41-.319a.859.859,0,0,0-.616-.266,6.616,6.616,0,0,0-2.4-1.277A5.029,5.029,0,0,0,151.442,1.5a3.575,3.575,0,0,0-.374.367c-3.968.162-7.947.034-11.922.03a2.12,2.12,0,0,1-.506-.031c-1.826-.454-3.7-.209-5.544-.445a21.971,21.971,0,0,0-3.442-.092,6.749,6.749,0,0,0-2.178-1.1,5.047,5.047,0,0,0-4.931,1.145,3.525,3.525,0,0,0-.263.246h-2.787c-.4-.39-.889-.246-1.338-.235-3.588.086-7.175.028-10.765.158q-1.149.042-2.3.09a6.973,6.973,0,0,0-1.786-.821,5.014,5.014,0,0,0-4.825,1.064c-2.1.056-4.194.081-6.292.032-3-.069-6.006,0-9.009.023-.45,0-.94-.148-1.335.25l-.127,0A6.577,6.577,0,0,0,79.211.812,5.047,5.047,0,0,0,74.28,1.957c-.088.074-.169.151-.248.231L70.2,2.182c-.264-.313-.613-.25-.942-.251q-4.4-.006-8.807,0a1.41,1.41,0,0,0-.762.1A6.755,6.755,0,0,0,57.5.929a4.975,4.975,0,0,0-4.693.963c-.808-.02-1.6.358-2.422.288h0c-.347-.39-.793-.251-1.2-.252Q40.5,1.91,31.819,1.912c-.6.011-1.141-.289-1.747-.283-2.917.031-5.835.039-8.752.008-.6-.006-1.157.411-1.744.2a7.076,7.076,0,0,0-2.263-.2c-3.555-.116-7.116.153-10.668-.091-.083-.019-.168-.037-.264-.055a7.891,7.891,0,0,0-2.3-.136c-.1,0-.209.008-.313.015a3.673,3.673,0,0,0-.712.114C1.067,1.572.9,1.681.9,2.837Q.882,6.876.876,10.914c-.407.288-.238.635-.243.955C.567,16.055.6,20.24.887,24.423.971,25.662.9,26.9.9,28.144a49.092,49.092,0,0,0-.485,5.5C.2,36.274.348,38.916.342,41.553l.015,4.308c.014,1.2.118,2.408.173,3.61C.62,51.416.9,53.357.892,55.3c0,.769,0,1.538,0,2.307A3.907,3.907,0,0,0,.65,58.658C.739,60.485.222,62.3.356,64.127c.016.215-.055.441.244.616h0c-.1,1.565.048,3.129-.2,4.7a27.229,27.229,0,0,0-.081,4.046c-.364.233-.238.522-.241.79-.017,1.435-.019,2.869-.018,4.3A15.721,15.721,0,0,0,.1,80.648a42.465,42.465,0,0,1,.517,5.6C.612,87.79.6,89.334.6,90.88c-.364.2-.256.458-.256.7q0,5.532.007,11.064l-.006.492q-.017.654-.034,1.308h0c-.39.261-.22.578-.238.872-.2,3.277.362,6.547.255,9.823-.019.578.006,1.158.01,1.737.109,2.3-.172,4.6.224,6.908.247,1.439-.03,2.9.336,4.348h0c0,.906-.006,1.812.017,2.717.014.572.419,1.134.233,1.711a14.4,14.4,0,0,0-.229,4.181c.111,2.481-.37,4.954-.319,7.435-.371.23-.251.52-.251.788,0,1.43.093,2.857.2,4.287.2,2.7.053,5.4.049,8.107a.91.91,0,0,1-.031.33c-.454,1.19-.209,2.409-.445,3.613a17.7,17.7,0,0,0-.042,3.555c0,.242-.1.5.242.706v4.6h0c-.39.26-.246.579-.235.872.086,2.338.028,4.675.158,7.015.184,3.3.484,6.6.366,9.905-.069,1.956,0,3.913.023,5.87,0,.293-.148.612.25.87q.009.407.017.814-.007,3.388-.016,6.776c-.313.172-.25.4-.251.615q-.006,2.869,0,5.738c0,.215-.068.444.256.612q.009.5.019.991a10.956,10.956,0,0,1-.263,3.09c-.225.625.321,1.232.238,1.861h0c-.39.226-.251.517-.252.783Q.608,221.629.61,227.288c.011.388-.289.743-.283,1.139.031,1.9.039,3.8.008,5.7-.006.39.411.754.2,1.136a3.077,3.077,0,0,0-.2,1.475C.2,239.461.6,242.188.073,244.906a2.2,2.2,0,0,0,0,.661c.1.847.47,1.062,1.887,1.091.466.009.936.031,1.4,0a6.354,6.354,0,0,0,2.292-.171c1.4-.165,1.414-.165,1.413-.915,0-1.569-.025-3.138-.039-4.707a15.039,15.039,0,0,0,.019-5.63q-.006-4.634-.011-9.267A35.556,35.556,0,0,0,7.3,220.5c.123-1.427.119-2.856.226-4.285.187-2.5.067-5.012.061-7.518,0-.268.092-.556-.243-.793.011-1.71.03-3.419.031-5.129q0-8.935,0-17.87c-.005-2.7-.048-5.4-.073-8.107q0-9,0-18.008a.527.527,0,0,0-.235-.544h0q-.015-.489-.028-.978c.009-.3.03-.6.027-.907-.025-2.473-.127-4.946-.235-7.419-.179-4.1-.082-8.2-.091-12.3-.007-3.054,0-6.109,0-9.163h0q.023-1.981.046-3.962h0c.285-.181.227-.41.24-.627.08-1.318.076-2.636.231-3.955a41.775,41.775,0,0,0,.078-4.541,10.422,10.422,0,0,0,.209-3.536,22.421,22.421,0,0,1-.133-6.26,56.063,56.063,0,0,0,.19-5.931h0q0-5.456,0-10.911a12.108,12.108,0,0,0-.064-1.9,50.574,50.574,0,0,1-.424-5.189A52.3,52.3,0,0,1,7.53,72.5c.212-2.087.067-4.187.08-6.281A17.936,17.936,0,0,0,7.9,61.6c.281-.18.232-.407.235-.621.01-.735,0-1.47,0-2.2l.023-1.663h0c.014-.358.051-.716.037-1.073-.071-1.813-.123-3.626-.258-5.439-.248-3.324.066-6.654-.267-9.981-.137-1.37.127-2.749.113-4.118-.017-1.619-.133-3.241-.164-4.862h0a.472.472,0,0,0,.218-.463l.017-10.144q0-.663.008-1.327h0c.061-3.787.083-7.574.011-11.361l3.1-.02a35.24,35.24,0,0,0,8.641.019l14.223-.011a83.488,83.488,0,0,0,8.4.274c2.19.123,4.384.119,6.577.226.976.048,1.952.075,2.93.09a7.086,7.086,0,0,0,.821,1.124q.817.918,1.646,1.825a1.432,1.432,0,0,1,.4,1c0,.578-.007,1.156,0,1.734.016.9.046,1.792.063,2.688a.166.166,0,0,1-.025-.043c-.022-.072-.041-.127-.058-.175,0-.008-.006-.017-.009-.024a.441.441,0,0,0-.056-.109l0,0h0c-.067-.084-.167-.084-.417-.079-.048,0-.1.01-.143.015a9.25,9.25,0,0,0-1.832.083h0c-.624.012-1.249,0-1.872.04-1.659.1-3.316.242-4.976.336q-.312.017-.624.04l-.386.036c-.986.076-1.971.169-2.955.262a6.54,6.54,0,0,0-1.427.167,11.8,11.8,0,0,0-1.833.2h0a5.178,5.178,0,0,0-1.094.126q-2.017.3-4.028.638c-.867.147-1.739.27-2.592.492a2.624,2.624,0,0,0-.283.037c-1.527.354-3.057.7-4.571,1.108-1.154.314-2.306.633-3.431,1.038l-.1.031q-.364.133-.724.28L21,21.887c-.027.011-.053.023-.081.035-.061.025-.119.053-.178.084-.016.008-.033.014-.048.022l-.015.014a1.118,1.118,0,0,0-.278.215.286.286,0,0,1-.086.118c-.105.07-.1.18-.1.286a.349.349,0,0,0-.093.285c-.147.153-.118.365-.138.542A4.881,4.881,0,0,0,20,25.177c0,.007-.005.006-.007.018a.1.1,0,0,0,.026.082,1.416,1.416,0,0,0,.183.767.411.411,0,0,0,.087.284v0a.376.376,0,0,1,.018.057c0,.011.009.022.013.033a4.669,4.669,0,0,0,.738,1.508.56.56,0,0,0,.79.229c.24-.091.471-.2.714-.286q1.351-.454,2.707-.887c-.026.128-.055.256-.091.382q-.5,1.729-.913,3.477l-.122.366.034.017c-.194.833-.377,1.668-.537,2.508-.335,1.755-.677,3.51-.839,5.295-.133,1.474-.315,2.942-.46,4.415h-.006c-.03.253-.055.463-.076.641l.018.014c0,.039-.008.078-.011.117a15.32,15.32,0,0,0-.2,2.449,2.439,2.439,0,0,0-.1.431c-.057.993-.1,1.987-.153,2.981-.071,1.292-.127,2.585-.227,3.874-.194,2.507-.3,5.016-.252,7.53-.04.546-.1,1.091-.117,1.638-.1,2.991-.059,5.98.14,8.966a2.557,2.557,0,0,0,.108,1.1h0c.006.189.012.377.018.566,0,.05,0,.1.007.152l0,.291q.007,1.975.015,3.95a.727.727,0,0,0,.1.428h0c0,.273-.008.546-.01.819-.008,1.068.016,2.138-.033,3.2-.045.992-.114,1.982-.088,2.976a5.586,5.586,0,0,0-.106.659c-.106,2.378-.223,4.756-.3,7.135-.05,1.637-.036,3.275-.051,4.913h0a.867.867,0,0,0-.126.641c0,1.542,0,3.083.017,4.625a9.826,9.826,0,0,0,.116,2.081,13.356,13.356,0,0,0,.078,2.044c0,.02,0,.041,0,.061.016.1.035.19.058.285h0c-.01.788.036,1.582-.044,2.363h0a21.331,21.331,0,0,0-.1,2.877q-.155,3.431-.31,6.862h0a.733.733,0,0,0-.114.493c-.028,1.384-.21,2.758-.273,4.138a35.148,35.148,0,0,0-.186,4.217,3.315,3.315,0,0,0-.015.9l-.006.447a5.676,5.676,0,0,0-.1,1.563c.122,1.642.085,3.289.142,4.932a.7.7,0,0,0,.1.427c-.047,1.685.173,3.358.215,5.039a.685.685,0,0,0,.078.2c0,.149-.011.3,0,.447q.226,2.936.457,5.871c.167,2.13.3,4.264.517,6.389a10.586,10.586,0,0,0,.252,2.217,12.278,12.278,0,0,0,.144,2.143c.081,1.232.2,2.462.307,3.693a13.828,13.828,0,0,0,.118,2.7h0l.034,1.192q0,1.562-.006,3.125-.007,5.247-.012,10.494,0,1.42,0,2.841.007,1.569.014,3.139c-.021.7-.039,1.4-.012,2.107,0,.015,0,.03,0,.044.005.132.012.263.021.4v0c-.006.049-.013.1-.019.147,0,.074,0,.149-.007.223l-.007.223a1.125,1.125,0,0,0-.028.272,23,23,0,0,0-.107,3.022,9.477,9.477,0,0,0-.136,2.245c0,.051,0,.1-.006.151l0,.148c0,.05,0,.1,0,.15q-.006.224-.013.447a.194.194,0,0,0-.012.118c-.017.085-.023.171-.035.257a.34.34,0,0,0-.009.064A15.748,15.748,0,0,0,21.965,199c0,.066.062.13.1.2h0c-.23.914-.075,1.265.749,1.662a1.351,1.351,0,0,0,.615.246v0l.007,0c.02.014.045.045.06.041h0a1.5,1.5,0,0,0,.833.255l.056.023.061,0a.508.508,0,0,0,.474.116,9.5,9.5,0,0,0,3.3.183,30.433,30.433,0,0,0,4.674-.216,4.377,4.377,0,0,0,1.458-.246A17.824,17.824,0,0,0,37,200.9c.588-.094,1.17-.222,1.753-.346.186-.04.427-.045.465-.3a2.974,2.974,0,0,0,.019-.962c0-.013-.021-.023-.042-.033l.1-.015v-.76a.763.763,0,0,0,.1-.355c.023-.4.037-.794.054-1.192a4.021,4.021,0,0,0,.195-1.375,34.416,34.416,0,0,0,.381-3.887,6.03,6.03,0,0,0,.122-.657c.155-2,.315-4.008.448-6.014s.229-4.015.357-6.023c.06-.94.195-1.877.231-2.819.039-1.017.252-2.023.194-3.045a24.755,24.755,0,0,0,.307-3.589,7.52,7.52,0,0,0,.2-1.912,28.794,28.794,0,0,0,.243-3.477,4.46,4.46,0,0,0,.148-1.18c.134-1.659.3-3.315.39-4.976.065-1.241.261-2.473.212-3.72a9.959,9.959,0,0,0,.169-2.211.565.565,0,0,0,.044-.15,4.6,4.6,0,0,0,.073-1.228v-.3a24.391,24.391,0,0,0,.236-3.107,35.888,35.888,0,0,0,.221-4.224,11.373,11.373,0,0,0,.153-2.4c.194-1.281.2-2.577.306-3.865.135-1.61.285-3.22.391-4.832a21.948,21.948,0,0,0,.2-2.677c.293-1.779.429-3.576.614-5.368a2.677,2.677,0,0,0,.137-1.216,2.046,2.046,0,0,0,.138-1.049c.106-.762.217-1.523.318-2.285.225-1.7.46-3.392.662-5.091.129-1.083.347-2.155.372-3.249a32.272,32.272,0,0,0,.475-4.293,2.133,2.133,0,0,0,.121-1.09l.021-.3a4.393,4.393,0,0,0,.156-1.5,35.94,35.94,0,0,0,.445-4.3c.25-1.142.29-2.311.429-3.468.134-1.109.253-2.22.349-3.333.036.5.039,1,.033,1.5a5.445,5.445,0,0,1-.079,1.209.7.7,0,0,0,.058.59,1.036,1.036,0,0,1,.075.811,9.662,9.662,0,0,0-.251,1.935c.012.237.1.457.1.691,0,.919.158,1.831.1,2.752q0,1.854,0,3.707c0,.563.017,1.126-.008,1.689-.011.256.121.482.083.739a13.011,13.011,0,0,0-.169,2.042c-.151.139-.09.322-.091.487,0,1.2,0,2.4,0,3.607,0,.186-.037.372-.05.554a9.794,9.794,0,0,0-.119,2.183,13.3,13.3,0,0,1,.075,1.63c.009.312,0,.625,0,.937.029.392-.079.776-.084,1.162-.021,1.455-.009,2.91-.009,4.365,0,.11-.008.222.093.3a13.748,13.748,0,0,0,.087,1.443,15.674,15.674,0,0,0,.179,2.745,1.009,1.009,0,0,0,.558.789,6.071,6.071,0,0,0,1.776.526,17.983,17.983,0,0,0,3.979.418.349.349,0,0,0,.345.09,7.042,7.042,0,0,1,1.325.056c.022.423.044.845.067,1.268.049.894.1,1.789.174,2.683.172,2.133.342,4.266.541,6.4.2,2.155.406,4.312.669,6.46.254,2.078.43,4.16.515,6.248.1,2.489.26,4.973.52,7.449a6.394,6.394,0,0,0,.226,1.692l.026.257c.026,1.407.241,2.8.381,4.193a4.742,4.742,0,0,0,.2,1.529,31.448,31.448,0,0,0,.332,3.559,11.967,11.967,0,0,0,.148,2.393,10.4,10.4,0,0,0,.121,2.434h0a2.017,2.017,0,0,0,.025.7,14.445,14.445,0,0,0,.064,2.189,1.033,1.033,0,0,0,.062.4c-.047,1.792.151,3.575.237,5.361.034.718.07,1.439.123,2.158.138,1.882.3,3.764.382,5.649.036.87.175,1.73.259,2.594l-.059-.019c0,.462,0,.651.115.775.008.177.013.353.011.531,0,.284.213.442.408.592a5.3,5.3,0,0,0,1.78.918,16.2,16.2,0,0,0,6.34.539,6.705,6.705,0,0,0,2.107-.267,8.755,8.755,0,0,0,2.384-.458.682.682,0,0,1,.123-.129l0,0h0l0,.008a.186.186,0,0,1-.126.125,2.728,2.728,0,0,0,1.194-.3h0a20.377,20.377,0,0,0,4.183-1.3,2.523,2.523,0,0,0,.9-.507c0-.038-.007-.076-.011-.115h0c0-.013,0-.025-.005-.038-.005-.042-.011-.084-.018-.125,0-.009,0-.017,0-.026l0,0a.118.118,0,0,1,.022.049.3.3,0,0,1,.008.034.722.722,0,0,1,0,.08,1.317,1.317,0,0,0,0,.138c.194-.114.15-.312.129-.469a4.2,4.2,0,0,1-.031-.634c.013-.264.024-.49.039-.794l-.011,0c0-.116.01-.232.01-.347,0-1.4,0-2.792,0-4.188q0-3.962,0-7.925h0c.12-1.484.131-2.971.134-4.459q.009-3.907.034-7.815c0-.088.007-.176.011-.264a.754.754,0,0,0,.1-.427q.026-2.553.05-5.107a.934.934,0,0,0,.092-.278c-.015-2.015.246-4.02.208-6.036a1.073,1.073,0,0,0,.09-.275q.111-2.546.211-5.092a1.327,1.327,0,0,0,.113-.726c.03-.422.03-.848.068-1.269a35.739,35.739,0,0,0,.242-4.471h0q0-.3.008-.6c.151-1.731.305-3.462.451-5.193.029-.347.017-.7.038-1.044,0-.079.012-.158.017-.237a3.468,3.468,0,0,0,.3.251c.22.162.38.4.693.376a.671.671,0,0,0,.321.2,12.957,12.957,0,0,0,2.853.769l1.33.267q-.174,3.764-.338,7.528a6.132,6.132,0,0,0-.027,1.164,1.553,1.553,0,0,0-.063.268c-.115,1.93-.206,3.862-.151,5.8.07,2.452.236,4.9.234,7.357a.49.49,0,0,0,.132.406.674.674,0,0,1,.44.119l.43.028a.4.4,0,0,1,.023.079,1.467,1.467,0,0,1,.662.118,3.517,3.517,0,0,1,1,.114l1.194.028.006,0h.035a.109.109,0,0,0,.017.083l.04-.018.037.024a25.09,25.09,0,0,0,3.039.052,3.821,3.821,0,0,0,1.307-.054,1.646,1.646,0,0,1,.655-.049,19.207,19.207,0,0,0,2.148-.053l.193-.013c.3-.134.631.047.926-.108l.033-.024.037.016a.383.383,0,0,0,.109-.068.529.529,0,0,0,.472-.042.348.348,0,0,0,.224-.216.315.315,0,0,0,.044-.075.486.486,0,0,0,.178-.384c0-.069.009-.139.013-.208l.02-.333c.059-.965.115-1.931.206-2.894.227-2.4.476-4.794.729-7.189a30.32,30.32,0,0,0,.1-5.55,34.223,34.223,0,0,1-.132-3.5c.013-.516.031-1.033.048-1.549.245,0,.49,0,.736,0a4.825,4.825,0,0,0,2.208-.239,1.039,1.039,0,0,1,.538-.091c.482.035.942-.135,1.422-.135a1.179,1.179,0,0,0,.636-.14,5.539,5.539,0,0,1,1.816-.6,10.135,10.135,0,0,0,2.49-1.014c1.009-.594,1.953-1.3,2.917-1.969l.074-.052a.289.289,0,0,1,.1-.19,3.534,3.534,0,0,1,.663-.45c.4-.448.814-1.006,1.429-1.069q.389-.336.765-.688c.9-.6,1.7-1.348,2.6-1.942,1.241-.817,2.516-1.589,3.835-2.282h0q.052,1.244.113,2.488c.076,1.489.147,2.98.286,4.464a40.979,40.979,0,0,1,.18,4.52c0,.193-.007.386,0,.58.038,1.2.188,2.4.145,3.6a2.322,2.322,0,0,0,.026.348c.1.906.194,1.811.231,2.724s.158,1.814.245,2.721c0,.035.036.067.055.1a18.658,18.658,0,0,0,.248,2.359c.227,2.113.429,4.228.716,6.334a4.4,4.4,0,0,0,.2,1.3.09.09,0,0,1,.042.039l-.042-.039c.057.652.088,1.308.181,1.954a4.244,4.244,0,0,0,.166,1.192c.2,1.618.2,3.252.358,4.874.22,2.277.252,4.568.582,6.837.184,1.265.171,2.553.4,3.813a4.651,4.651,0,0,0,.135,1.032,1.053,1.053,0,0,1,.052.648l-.019-.006-.073.109c.013.019.024.041.036.061a.435.435,0,0,0-.18.215.345.345,0,0,0-.208.252,2.748,2.748,0,0,0-.024,1.508,5.29,5.29,0,0,0,.322,1.885h0a3.324,3.324,0,0,0,.583,1.162,12.291,12.291,0,0,0,2.218,1.161,1.415,1.415,0,0,0,.609.2,3.509,3.509,0,0,0,1.285.235c.456.063.911.143,1.37.184a16.82,16.82,0,0,0,2.593.074l.116-.011c.752-.041,1.507-.055,2.255-.131a8.894,8.894,0,0,0,2.536-.529,1.272,1.272,0,0,0,.572-.147h0a1.61,1.61,0,0,0,.834-.208,4.516,4.516,0,0,0,1.167-.468.3.3,0,0,0,.242-.111,3.149,3.149,0,0,0,1.4-.949c.222-.174.252-.476.442-.668a.875.875,0,0,0,.228-.743c-.053-.674-.09-1.35-.14-2.025a.745.745,0,0,0-.086-.21c-.017-.239.178-.477.007-.718a11.479,11.479,0,0,1,.135-1.7,15.164,15.164,0,0,0,.3-2.282c.1-.553.161-1.112.277-1.66.229-1.081.232-2.189.435-3.276.22-1.177.314-2.378.462-3.569.091-.73.17-1.461.273-2.19.2-1.442.172-2.9.309-4.347a19.225,19.225,0,0,0,.27-2.363.14.14,0,0,0-.039-.016l0-.007.034.023a.986.986,0,0,0,.09-.564c.02-.446-.007-.9.037-1.338.147-1.466.259-2.938.415-4.4s.184-2.941.376-4.4a.377.377,0,0,0,.09-.243,17.018,17.018,0,0,1-.093,3.166,23.732,23.732,0,0,0-.125,2.94.883.883,0,0,0-.109.5c0,.066,0,.132,0,.2a2.7,2.7,0,0,0-.021.821c-.047.9-.149,1.8-.2,2.7-.225,4.218-.521,8.435-.509,12.661,0,1.507-.254,3-.167,4.51.048.824.156,1,.924,1.244a4.354,4.354,0,0,0,.769.106v-.011c.15.174.349.147.544.135a12.462,12.462,0,0,1,4.956,2.406,6.349,6.349,0,0,0,1.21.68,21.835,21.835,0,0,0,2.77,1.054c-.01.06-.022.119-.033.179a6.919,6.919,0,0,0-.391,1.671,1.253,1.253,0,0,0,.4,1.482,6.946,6.946,0,0,0,1.989,1.4,5.847,5.847,0,0,0,2.318,1.058h0a1.333,1.333,0,0,0,.7.223l.038.028.047-.006a.492.492,0,0,0,.373.112v-.005h0a5.444,5.444,0,0,0,3.039.572.571.571,0,0,0,.35-.011c.594,0,1.189.02,1.782,0a2.483,2.483,0,0,0,1.019-.1,3.614,3.614,0,0,0,1.286-.111,8.978,8.978,0,0,0,2.33-.587h0a1.006,1.006,0,0,0,.587-.341h0a2.784,2.784,0,0,0,1.276-1.171c.188-.256.508-.425.539-.785a5.427,5.427,0,0,0,.048-1.441.29.29,0,0,0-.012-.236c0-.152-.011-.3,0-.456.012-.235-.118-.241-.263-.229a.9.9,0,0,0-.041-.172l-.163.065a.493.493,0,0,1-.1-.2c1.521-.045,3.041-.106,4.562-.142s3.07-.033,4.605-.049a36.556,36.556,0,0,0,5.146-.018,1.285,1.285,0,0,0,.666-.133,16.084,16.084,0,0,0,2.517-.1c2.251-.225,4.468-.653,6.693-1.058a17.8,17.8,0,0,0,4.8-1.715,24.136,24.136,0,0,1,6.681-2.393h0a27.33,27.33,0,0,0,4.317-.429,21.61,21.61,0,0,0,3.379-.792,1.293,1.293,0,0,0,1.006-1.258c.032-1.187.025-2.375.034-3.563h0a2.087,2.087,0,0,0,.12-1.025c.011-.988.008-1.975.01-2.962,0-1.013.015-2.025.026-3.038.458.065.911.17,1.373.2h0a3.589,3.589,0,0,0,1.312.141l.053.032.061-.013a.722.722,0,0,0,.177.072c1.387.169,2.774.338,4.147.6a10.031,10.031,0,0,0,2.216.5,1.08,1.08,0,0,0,.245.052,20.934,20.934,0,0,0,3.188.458h0a.314.314,0,0,0,.266.014l.055.029.059-.021a5.616,5.616,0,0,0,2.386,0l.063.012.054-.034a2.592,2.592,0,0,0,.638-.1c.417-.035.532-.261.558-.645.051-.734.168-1.463.219-2.2.012,0,.024,0,.035,0l-.03-.069a3.288,3.288,0,0,0-.093-1.482c-.025-1.47-.187-2.937-.128-4.409a1.786,1.786,0,0,0,.043-.838,45.53,45.53,0,0,1,.02-6.009,3.773,3.773,0,0,0,.006-1.043,10.708,10.708,0,0,1-.088-2.147c0-.367,0-.734.005-1.1,1.458-.067,2.915-.231,4.372-.229.51,0,1.019-.007,1.528-.022l.018.092a4.122,4.122,0,0,1,.124,1.217,36.353,36.353,0,0,0,.375,5.83,8.223,8.223,0,0,0,.079.863c.1.542.277.683.823.658a15.548,15.548,0,0,1,2.525,0,25.828,25.828,0,0,0,5.265.093,8.543,8.543,0,0,0,2.217-.227,10.967,10.967,0,0,0,2.593-.442,1.649,1.649,0,0,0,.885-.418c.064-.03.129-.058.135-.142.039-.522.1-1.044.113-1.566a4.041,4.041,0,0,0-.094-1.625,2.563,2.563,0,0,0-.134-1.057c-.022-.782-.145-1.559-.174-2.34,2.188.033,4.371.251,6.562.166a1.262,1.262,0,0,1,.271.016,14.8,14.8,0,0,0,3.319.063c1.51-.063,3.02-.227,4.532-.221,1.947.008,3.886-.214,5.833-.158a2.1,2.1,0,0,0,.271-.015,31.8,31.8,0,0,1,3.85-.251,7.118,7.118,0,0,0,.881-.04c.9-.1,1.789-.223,2.7-.259.675-.027,1.354-.066,2.028-.131a3.948,3.948,0,0,0,1.121-.248c.309-.127.426-.3.308-.566.175.013.35.027.525.039a.211.211,0,0,0,.169.011c.288.018.577.036.865.056a.486.486,0,0,0,.417-.093c.033.056.071.112.1.168a.483.483,0,0,0,.213-.359c0-.12,0-.241,0-.361a.666.666,0,0,1,.323-.04,10.713,10.713,0,0,0,3.3-.19.737.737,0,0,1,.3-.012.527.527,0,0,0,.267.489c.015-.032.03-.062.046-.09.135.119.326.06.511.026a15.235,15.235,0,0,1,2.8-.251,54.636,54.636,0,0,0,9.038-.583v.007c.014,0,.023-.009.035-.014q.637-.106,1.271-.24a55.041,55.041,0,0,0,5.607-1.346c1.1-.354,2.208-.67,3.323-.965a36.178,36.178,0,0,0,5.317-1.813,1.9,1.9,0,0,0,1.245-2.111c-.055-.744-.143-1.487-.247-2.227a35.858,35.858,0,0,1-.53-5.535,2.285,2.285,0,0,1,.181-.907,4.689,4.689,0,0,0,.431-2.324,38.211,38.211,0,0,1,0-3.9,7.683,7.683,0,0,0-.118-2.082c-.02-.715-.025-1.432-.06-2.146.529.016,1.057.015,1.585-.018a2.336,2.336,0,0,0,.176,1.041c.1,1.586.207,3.172.3,4.757.032.528,0,1.065.07,1.586a39.617,39.617,0,0,1,.385,4.751,26.019,26.019,0,0,0,.207,2.8,26.113,26.113,0,0,1,.315,2.652,39.553,39.553,0,0,0,.743,6.883.917.917,0,0,1-.024.57,2.148,2.148,0,0,0-.037,1.345,9.209,9.209,0,0,1,.187,3.3,20.24,20.24,0,0,0-.207,4.248,1.493,1.493,0,0,0,1.152,1.476,9.939,9.939,0,0,0,1.467.367,52.252,52.252,0,0,0,7,.418c.892,0,1.784.024,2.675.041a11.545,11.545,0,0,0,1.734-.045.529.529,0,0,0,.509-.5c.267-1.614.8-3.175.971-4.811a5.917,5.917,0,0,1,.574-1.855,15.259,15.259,0,0,0,.824-3.573,10.592,10.592,0,0,0,.2-2.588c-.061-1.3-.152-2.6-.231-3.9.1-.9-.123-1.787-.085-2.7a25.478,25.478,0,0,0-.317-3.553c-.009-2.506,0-5.013-.036-7.519,0-.257-.005-.515-.005-.772a26.359,26.359,0,0,0,3.816-2.437,14.584,14.584,0,0,0,1.661-1.407c.145-.147.281-.342.534-.262s.251.3.263.52c.019.346.04.692.056,1.038.037.781.092,1.56.145,2.34l-.006,0a.541.541,0,0,0,.027.351c.027.411.056.823.075,1.235.022.511.04,1.025.086,1.537h-.036a.319.319,0,0,0,.073.32,7.458,7.458,0,0,0,.178,1c.137.523.24.571.762.671a10.516,10.516,0,0,0,1.883-.014,9.783,9.783,0,0,0,1.668.034,7.361,7.361,0,0,1,1.438-.3,8.59,8.59,0,0,0,2.43-.314,14.186,14.186,0,0,0,2.841-.766,1.542,1.542,0,0,0,.332-.206l0,0a.352.352,0,0,0,.133-.137l0-.008a1.174,1.174,0,0,0,.206-.717c.032-1.187-.089-2.365-.135-3.546a.382.382,0,0,0-.009-.313c0-.142-.012-.284-.012-.426,0-1.339-.009-2.678-.014-4.017a6.369,6.369,0,0,0-.134-1.692c.02-.812.049-1.623.046-2.437-.01-2.181-.255-4.354-.185-6.533a13.987,13.987,0,0,1-.117-1.952,22.207,22.207,0,0,0,.092-3.063c.149-3.541-.139-7.078-.127-10.619a1.2,1.2,0,0,0-.012-.28.74.74,0,0,0-.078-.175.132.132,0,0,0-.039-.072,67.171,67.171,0,0,0-.258-7.715,29.973,29.973,0,0,1-.314-5.107,2.143,2.143,0,0,0-.027-.421,21.711,21.711,0,0,1-.248-2.718A5.5,5.5,0,0,0,364,74.915a.874.874,0,0,1-.033-.348c0-.984-.233-1.955-.152-2.942a1.035,1.035,0,0,0-.131-.541,8.936,8.936,0,0,0-.149-1.551c-.021-.982-.157-1.957-.167-2.942a5.872,5.872,0,0,0-.15-1.318,20.739,20.739,0,0,1-.524-5.007q0-1.9,0-3.806a4.034,4.034,0,0,0-.084-.836,3.568,3.568,0,0,1,.009-1.466,4.754,4.754,0,0,0,.006-1.815,3.258,3.258,0,0,1-.07-.626,24.19,24.19,0,0,0-.331-3.2c-.04-.324.025-.713-.232-1,.032-.25-.121-.461-.149-.7a14.113,14.113,0,0,0-.56-1.839,1,1,0,0,0-.146-.565c0-.155.021-.318-.135-.422v0a13.127,13.127,0,0,0-1.127-3.958,20.968,20.968,0,0,0-2.4-5.073h0a7.331,7.331,0,0,0-.76-1.261,13.577,13.577,0,0,0-2.383-2.371.828.828,0,0,0-.586-.183.931.931,0,0,1-.714-.372,7.336,7.336,0,0,0-3.458-2.171.307.307,0,0,0-.285-.136.294.294,0,0,0-.281-.135.871.871,0,0,0-.405-.16,24.234,24.234,0,0,0-2.85-1.365,7.562,7.562,0,0,0-1.818-.743.776.776,0,0,0-.16-.134c-1.3-.584-2.6-1.189-3.915-1.735a14.85,14.85,0,0,1-2.1-.977c-.655-.4-1.371-.7-2.017-1.12h0a1.8,1.8,0,0,0-.689-.554,3.922,3.922,0,0,0-1.7-.845h0a.937.937,0,0,0-.569-.281,10.416,10.416,0,0,0-1.56-.7,10.739,10.739,0,0,0-1.037-.359c-.1-.08-.2-.162-.307-.243a6.128,6.128,0,0,0-1.039-.719.308.308,0,0,0-.237-.153,1.8,1.8,0,0,0-.683-.422.611.611,0,0,0-.227-.18c-.537-.333-1.11-.6-1.674-.879a.828.828,0,0,0-.4-.13.191.191,0,0,0-.179-.082.145.145,0,0,0-.058-.049c-.006,0-.01-.012-.017-.015a.247.247,0,0,0-.1-.016,2.03,2.03,0,0,0-.3-.133L324.9,16.3l-.017-.006h-.006l-.274-.089a8.871,8.871,0,0,0-2-.312l-.05-3.145a2.973,2.973,0,0,0-.379-1.425,5.3,5.3,0,0,0-1.208-1.546q-.434-.4-.847-.832c1.5.027,3.009.156,4.507.146,2.484-.017,4.974-.133,7.462-.164h0a.912.912,0,0,0,.711.218l15.567.017,2.038.008h0c6.943.073,13.886.092,20.828-.043q0,.892,0,1.784c-.407.288-.238.635-.243.955-.066,4.186-.03,8.371.254,12.555.084,1.238.01,2.48.008,3.721a49.089,49.089,0,0,0-.485,5.5c-.207,2.633-.063,5.274-.068,7.912l.015,4.308c.014,1.2.118,2.408.173,3.61.09,1.945.369,3.886.362,5.833,0,.769,0,1.538,0,2.307A3.908,3.908,0,0,0,371,58.658c.089,1.827-.428,3.642-.295,5.469.016.215-.054.441.244.616h0c-.1,1.565.048,3.129-.2,4.7a27.1,27.1,0,0,0-.081,4.046c-.364.233-.239.522-.242.79-.016,1.435-.019,2.869-.018,4.3a15.722,15.722,0,0,0,.039,2.068,42.47,42.47,0,0,1,.517,5.6c0,1.545-.01,3.089-.016,4.635-.364.2-.256.458-.256.7q0,5.532.007,11.064c0,.164,0,.328-.006.492q-.017.654-.034,1.308h0c-.39.261-.22.578-.238.872-.2,3.277.362,6.547.255,9.823-.018.578.006,1.158.01,1.737.109,2.3-.172,4.6.224,6.908.246,1.439-.03,2.9.335,4.348h0c0,.906-.006,1.812.017,2.717.014.572.419,1.134.233,1.711a14.418,14.418,0,0,0-.229,4.181c.111,2.481-.37,4.954-.319,7.435-.371.23-.251.52-.251.788,0,1.43.093,2.857.2,4.287.2,2.7.053,5.4.049,8.107a.911.911,0,0,1-.031.33c-.454,1.19-.209,2.409-.445,3.613a17.7,17.7,0,0,0-.042,3.555c0,.242-.1.5.242.706q0,2.3,0,4.6h0c-.39.26-.246.579-.235.872.086,2.338.028,4.675.158,7.015.184,3.3.484,6.6.366,9.905-.069,1.956,0,3.913.023,5.87,0,.293-.148.612.25.87q.008.407.017.814-.007,3.388-.016,6.776c-.313.172-.25.4-.251.615q-.005,2.869,0,5.738c0,.215-.068.444.256.612.007.331.013.661.019.991a10.957,10.957,0,0,1-.263,3.09c-.225.625.321,1.232.238,1.861h0c-.39.226-.251.517-.251.783q-.018,5.658-.016,11.316c.011.388-.289.743-.283,1.139.031,1.9.039,3.8.008,5.7-.006.39.412.754.2,1.136a3.077,3.077,0,0,0-.2,1.475c-.136,2.721.266,5.449-.266,8.166a2.2,2.2,0,0,0,0,.661c.1.847.47,1.062,1.887,1.091.466.009.936.031,1.4,0a6.354,6.354,0,0,0,2.292-.171c1.4-.165,1.414-.165,1.413-.915,0-1.569-.025-3.138-.039-4.707a15.03,15.03,0,0,0,.019-5.63q-.006-4.634-.011-9.267a35.616,35.616,0,0,0,.274-5.473c.123-1.427.119-2.856.226-4.285.187-2.5.066-5.012.062-7.518,0-.268.091-.556-.243-.793.01-1.71.029-3.419.03-5.129q0-8.935,0-17.87c-.005-2.7-.048-5.4-.073-8.107q0-9,0-18.008a.527.527,0,0,0-.235-.544h0q-.015-.489-.028-.978c.009-.3.03-.6.027-.907-.025-2.473-.127-4.946-.235-7.419-.179-4.1-.082-8.2-.091-12.3-.007-3.054,0-6.109,0-9.163h0q.024-1.981.047-3.962h0c.285-.181.227-.41.24-.627.08-1.318.076-2.636.231-3.955a41.656,41.656,0,0,0,.078-4.541,10.434,10.434,0,0,0,.21-3.536,22.4,22.4,0,0,1-.133-6.26,56.073,56.073,0,0,0,.19-5.931h0q0-5.456,0-10.911a12.051,12.051,0,0,0-.064-1.9,50.581,50.581,0,0,1-.424-5.189,52.3,52.3,0,0,1,.419-8.162c.212-2.087.066-4.187.08-6.281a17.936,17.936,0,0,0,.294-4.617c.281-.18.232-.407.235-.621.01-.735,0-1.47,0-2.2q.012-.832.023-1.663h0c.014-.358.051-.716.037-1.073-.071-1.813-.123-3.626-.258-5.439-.248-3.324.066-6.654-.267-9.981M222.4,171.064q-.052-.034-.108-.064a.368.368,0,0,1,.106-.074c0,.046,0,.092,0,.138M47.666,97.888h0v0h0c.011,0,.016,0,.015,0a.021.021,0,0,1-.014,0M24.277,200.07s0,.011,0,.016,0,.032,0,.049,0,.039.007.061.005.041.009.063l0,.014,0,0a.2.2,0,0,1-.063-.056.183.183,0,0,1-.014-.021.21.21,0,0,1-.024-.115c.028,0,.056,0,.084-.006M20.337,23.348a.275.275,0,0,0,.054-.005c-.009.017-.016.032-.025.049l-.029-.044M230.411,9.928q.817.918,1.646,1.825a1.432,1.432,0,0,1,.4,1c0,.578-.007,1.156,0,1.734.008.482.021.964.034,1.446-.023.007-.047.012-.069.019a5.077,5.077,0,0,0-1.652.415,2.151,2.151,0,0,0-.7.286l-.007,0-.067.04-.034,0-.019.008a.143.143,0,0,0-.05.022l-.019.008a.162.162,0,0,0-.032.045h0c-.024,0-.046,0-.067.006h-.021l-.006,0a.186.186,0,0,0-.059.014c-.1.048-.191.1-.286.149l-.049.023-.049.028c-.258.137-.513.281-.762.434l-.123.078c-.259.163-.514.333-.76.52a.269.269,0,0,0-.049.013.178.178,0,0,0-.036.009.141.141,0,0,0-.062.067c-.034.019-.069.036-.1.058a25.5,25.5,0,0,0-3.646,3.2,1.034,1.034,0,0,0-.331.307,6.611,6.611,0,0,0-.869.678,13.942,13.942,0,0,1-1.239.741,4.892,4.892,0,0,0-.492,0,3.628,3.628,0,0,1-.5-.032c-.454-.2-.905-.411-1.341-.654l-.019-.024-.024-.015a.49.49,0,0,0-.162-.1l-.01-.006-.024-.009a.158.158,0,0,0-.11-.077l-.01-.007-.026,0-.036-.037-.013-.009a2.644,2.644,0,0,0-.437-.321c-.068-.05-.136-.1-.2-.15-.495-.37-.945-.792-1.425-1.179a13.4,13.4,0,0,0-1.378-1.229,8.17,8.17,0,0,0-1.253-.9.277.277,0,0,0-.217-.14,1.632,1.632,0,0,0-.624-.386.555.555,0,0,0-.208-.165c-.492-.305-1.016-.547-1.532-.8a.756.756,0,0,0-.361-.118.173.173,0,0,0-.164-.074c0-.006-.011-.008-.015-.013a.151.151,0,0,0-.053-.046.23.23,0,0,0-.089-.014,2.055,2.055,0,0,0-.349-.149l-.008,0h-.007l-.25-.082a7.719,7.719,0,0,0-1.748-.278l-.063-3.929a2.973,2.973,0,0,0-.379-1.425A5.29,5.29,0,0,0,206.584,9.2q-.235-.218-.466-.443a20.99,20.99,0,0,0,4.395.093,52.645,52.645,0,0,1,9.608-.133c3.039.238,6.068.162,9.1.19h.423a7.239,7.239,0,0,0,.765,1.024M80.28,194.922l0-.005a.031.031,0,0,1,0-.015.063.063,0,0,1,0-.013.042.042,0,0,1,0-.008h0a.176.176,0,0,1,0,.031s0,.011,0,.01M23.089,192.9s-.005,0-.007.005l-.01-.007a.077.077,0,0,0,0-.043h0c0-.021,0-.028,0-.028l0,0a.045.045,0,0,1,.01.015.1.1,0,0,1,0,.013.085.085,0,0,1,0,.027.056.056,0,0,1,0,.016m-1.4-83.84h0l.035,0c0,.017,0,.035-.006.053v0h0c-.013-.017-.021-.035-.033-.052h0M62.613,176.5c.027.005.052.009.075.012-.009.023-.011.045-.021.068-.019-.026-.036-.053-.054-.08M25,60.215c.01.007.022.007.033.013a.387.387,0,0,0,.106.044c.009,0,.017.01.027.011-.042.02-.084.039-.129.057l-.012.005v0c-.008-.042-.016-.084-.024-.127M170.943,8.04q3.086-.005,6.172,0a6.4,6.4,0,0,0,1.284,2.12q.816.918,1.645,1.825a1.432,1.432,0,0,1,.4,1c0,.578-.007,1.156,0,1.734.011.673.03,1.347.047,2.02-.025.007-.051.012-.076.02a5.013,5.013,0,0,0-1.547.364,2.076,2.076,0,0,0-.639.245l-.023.008-.063.035-.033,0-.017.007a.146.146,0,0,0-.048.019l-.018.007a.135.135,0,0,0-.03.04h0l-.034,0-.043,0h-.006l0,0a.186.186,0,0,0-.057.013c-.092.043-.183.089-.274.134l-.04.017-.041.022c-.242.12-.48.247-.714.381-.043.024-.085.05-.127.075-.234.138-.464.282-.686.439l-.018.012a.245.245,0,0,0-.039.01.185.185,0,0,0-.041.01.129.129,0,0,0-.058.059c-.032.017-.065.032-.1.051-.314.2-.617.41-.911.632-.111.084-.216.174-.324.26-1.193-.3-2.389-.583-3.592-.834a17.448,17.448,0,0,0-2.088-.394,15.14,15.14,0,0,0-2.238-.372.08.08,0,0,0-.069-.008h0c-.05-.025-.1-.069-.152-.071a10.2,10.2,0,0,1-1.336-.2,3.078,3.078,0,0,0-.919-.108.087.087,0,0,0-.073-.008.61.61,0,0,0-.437-.076l-.246-.022a.937.937,0,0,0-.612-.076l-.252-.02a4.606,4.606,0,0,0-1.126-.167c-.969-.115-1.936-.264-2.91-.329-.525-.035-1.05-.088-1.574-.143l-.033,0c-.409-.043-.817-.086-1.226-.123-.066-.006-.134-.018-.2-.027a.813.813,0,0,0-.225,0v-.021l-.07-4.367a2.959,2.959,0,0,0-.377-1.419,5.282,5.282,0,0,0-1.2-1.541c-.375-.348-.745-.7-1.088-1.082-.025-.028-.047-.056-.07-.084,6.192-.168,12.391-.076,18.586-.085M39.723,177.6l-.008-.006.023-.005c0,.008-.01.011-.015.011M223.993,22.179c0,.006.007.011.007.017s0,.01,0,.016a.1.1,0,0,1-.034.045.6.6,0,0,0,.025-.078M65.762,179.977a.6.6,0,0,0-.062-.043l-.028-.016a.283.283,0,0,0-.065-.023l0-.006a.97.97,0,0,0,.073-.148l.008-.017c0-.021.009-.042.012-.062,0,.009.007.017.009.026.014.047.032.094.05.141.009.023.017.046.028.068.022.049.048.1.075.146.008.015.015.03.023.045-.034-.034-.065-.063-.094-.087-.012-.01-.023-.017-.034-.026m-39.2,19.366c.019.019.038.041.058.062l-.061,0c-.007-.006-.014-.007-.02-.014a.123.123,0,0,1,0-.067l.024.022m6-177.677a.061.061,0,0,1-.008.018.04.04,0,0,1-.021.01s0,0-.007,0a.116.116,0,0,1-.05-.015c.028-.011.061-.02.093-.03a.088.088,0,0,1-.006.014m3.148-1.655c-.022.009-.03.007-.039,0h0c.03-.017.041-.011.04,0h0M116.3,22.3a.031.031,0,0,1,.007.017s0,.009,0,.013a.087.087,0,0,1-.033.043.681.681,0,0,0,.025-.072M71.469,193.584h-.052a.211.211,0,0,1,.018-.031l.065.029h-.03M56.858,20.446h0M54.167,22.93s0,.008-.008.011h-.01l.018-.011m7.5-.768.024,0c-.007.005-.012.006-.015.005s-.007,0-.009-.01m-7.545-1.821-.037.012v-.014l.037,0M35.946,24.465c1.277-.233,2.57-.352,3.851-.562a1.98,1.98,0,0,0,.24,0q1.361-.145,2.722-.3c.811-.09,1.623-.184,2.434-.276a6.314,6.314,0,0,0,1.254-.091.245.245,0,0,1,.026-.01h0c-.01,0-.02.006-.03.011.7-.01,1.408-.048,2.111-.1l.071,0,.208-.011.062,0,.067-.006c.2-.022.4-.037.6-.056.052-.005.1-.007.156-.013h0l.868-.018H55.9l2.017.018c.034.009.067.018.1.025l.05,0a12.614,12.614,0,0,0,1.368.079.646.646,0,0,0,.369.074c.605.051,1.211.1,1.816.166s1.183.124,1.775.187a3.092,3.092,0,0,0-.4.132c-.62.265-1.146.69-1.75.98a4.235,4.235,0,0,0-1.123.555,7.365,7.365,0,0,0-1.766.565,5.839,5.839,0,0,1-.846.381c-.088.03-.174.064-.262.094-2.091,0-4.182.046-6.274.062a1.462,1.462,0,0,0-.351.091h0l-.256,0-.3.005a5.057,5.057,0,0,0-1.2.008l-.153.007-2.241-.012-.591-.018a1.629,1.629,0,0,0-.8-.1c-.919-.031-1.839-.034-2.756-.088-1.858-.109-3.712-.294-5.578-.247L36.335,26h0a1.446,1.446,0,0,0-.349-.094c-1.142-.022-2.284-.034-3.426-.05a.175.175,0,0,0-.02-.008c-.011-.059-.021-.118-.032-.177-.016-.09-.054-.273-.1-.5,1.179-.246,2.36-.481,3.545-.7m162.388-2.458a.037.037,0,0,1,.007.016s0,.009,0,.014a.091.091,0,0,1-.034.043.525.525,0,0,0,.025-.073m27.992-.959-.026.032c-.011.012-.023.022-.034.034a.864.864,0,0,0,.06-.066M66.727,181.2l.016,0,.063-.015.034-.008c0,.036,0,.073,0,.109a.206.206,0,0,1-.116-.083M24.235,115.627c-.006.006-.013.012-.02.011h0a.473.473,0,0,0,.009-.053c0-.009,0-.019,0-.028l.022.024,0,0a.055.055,0,0,1,0,.031.033.033,0,0,1-.007.012m94.37-94.377-.027.031-.038.035A.837.837,0,0,0,118.605,21.25Zm-94.443,119.3c0-.021,0-.023.007-.023s0,.015-.007.023m176.49-119.6-.025.029c-.01.011-.021.019-.032.03C200.615,20.993,200.634,20.974,200.652,20.953ZM40.881,132.324c.02,0,.036,0,.055,0l.093-.005.04,0c-.007.008-.016.015-.023.022a.289.289,0,0,1-.058.044.259.259,0,0,1-.047.013.249.249,0,0,1-.066.013,1.541,1.541,0,0,1-.119-.022.453.453,0,0,1-.118-.067l.06,0,.08,0c.034,0,.072,0,.1,0m-7.325,47.6-.038-.048c.021-.015.045-.029.068-.042-.012.018-.021.038-.035.056s0,.023.005.034m1.2-119.073s.006-.008.01-.011a.221.221,0,0,1,.118-.048h0a.764.764,0,0,0-.1.074l-.02.018a.545.545,0,0,0-.075.083l0,0a.247.247,0,0,1,.07-.12M51.8,83.194l.011-.021c-.006.064-.012.129-.016.194l0-.009a.222.222,0,0,1-.012-.058.21.21,0,0,1,0-.043.252.252,0,0,1,.021-.063M153.154,22.51s0,.008-.007.011h-.008l.016-.011m-.041-2.579-.033.012v-.014l.033,0M74.595,170.272a.2.2,0,0,0-.024-.03.166.166,0,0,1,.026.03.18.18,0,0,1,.022.026.185.185,0,0,1,.017.085.194.194,0,0,0-.02-.085.205.205,0,0,0-.02-.026m-9.746-16.865s.006,0,.008,0a.077.077,0,0,1,.025-.009c0,.009,0,.017,0,.025-.022,0-.035-.005-.035-.012m-38.284,17.2c-.018-.005-.034-.013-.052-.017l0,0a.178.178,0,0,1,.112-.047.159.159,0,0,1,.055.067.26.26,0,0,1,.01.025c0,.007,0,.014,0,.02l-.009,0c-.039-.016-.082-.029-.124-.041m9.709-17.265c.008.012.013.023.021.036l-.006,0-.012,0a.144.144,0,0,1-.09-.01c0-.057.009-.1.014-.154.007.013.017.026.024.039s.032.055.05.084m-3.264.452-.038.036c-.009-.021-.018-.042-.029-.064l.067.027M40.16,106.9h-.011l.046-.065.026-.036s.006.005.008.008a.277.277,0,0,0,.089.1.94.94,0,0,0-.158,0M28.367,120.831h0c.012-.018.021-.025.027-.022s0,.006,0,.009a.03.03,0,0,1,.006.017v0a.025.025,0,0,1-.016.022c-.008,0-.019,0-.035-.015h0a.449.449,0,0,1-.026-.054l-.008-.021C28.335,120.79,28.351,120.811,28.367,120.831Zm8.826-5.328,0,0c-.012-.009-.019-.02-.03-.029l.032,0v.03a.02.02,0,0,1,0,.005m-1.205,13.868h-.034a.29.29,0,0,1,.027-.028c0,.01,0,.019.007.029m-2.535,13.22v-.029a1.386,1.386,0,0,0,.1-.1h0a.342.342,0,0,1-.1.125m-2.686-29.342.016-.03a1.046,1.046,0,0,1,.015.111h0a.179.179,0,0,1-.068-.008l.01-.019.029-.054m-2.66,9.883c-.006.017-.008.031-.015.049v0c-.007-.017-.013-.033-.019-.05h.035m-4.3-14.347a.035.035,0,0,1-.016-.039c.006.013.01.026.016.039M33.751,177.5l-.017-.006.017-.031Zm6-37.133c-.012,0-.014-.027-.014-.027s.009.018.014.027M167.143,24.093a.4.4,0,0,0-.343.185l-1.86.8c-.358.138-.718.269-1.075.409-1.446.486-2.81,1.176-4.221,1.75-.631.192-1.246.429-1.857.673l-1.537.014c-.812.008-1.627.073-2.434.018-.128-.009-.257-.01-.385-.016a.3.3,0,0,1-.057-.045l-.309-.03a.621.621,0,0,0-.026-.084l-.293-.018c-.016-.03-.031-.06-.045-.09l-.311-.024c-.008-.029-.016-.057-.026-.085h-.212l-.122-.111-.316-.032a.7.7,0,0,0-.018-.082.387.387,0,0,1-.331-.115,1.051,1.051,0,0,1-.573-.2.433.433,0,0,1-.333-.115,30.684,30.684,0,0,0-.662-.234,134.335,134.335,0,0,1-.672-.221l-.3-.022-.033-.09a.383.383,0,0,1-.338-.105.464.464,0,0,1-.341-.1A.425.425,0,0,1,147.78,26a.466.466,0,0,1-.338-.107l-.311-.031a.354.354,0,0,1-.029-.08.409.409,0,0,1-.335-.107l-.4-.062a.291.291,0,0,0-.237-.085c-.009-.029-.018-.058-.026-.088a.435.435,0,0,1-.332-.112l-.294-.03c0-.007,0,0,.005-.015a.091.091,0,0,0-.033-.076c-.122-.137-.321,0-.445-.12-.1-.1-.246-.019-.337-.1-.162-.16-.395.01-.557-.119-.139-.126-.333-.011-.479-.108a.063.063,0,0,1-.078-.011c-.09-.1-.246-.005-.335-.113a.208.208,0,0,0-.211-.033c.018-.038.008-.063-.054-.064a.055.055,0,0,1-.07-.014.19.19,0,0,0-.25,0v.015l-.085-.006-.105-.011c0-.008,0-.016,0-.024h-.017a.3.3,0,0,0-.032-.067l-.409-.026a.207.207,0,0,0-.23.005l-.112-.092a.932.932,0,0,1-.553-.118.644.644,0,0,1-.451-.106l-.53-.02a.7.7,0,0,0-.134-.093.812.812,0,0,0-.5-.063l-.2-.083-.3-.124c.483-.072.966-.144,1.446-.233a1.556,1.556,0,0,0,.213,0q1.206-.144,2.412-.294c.719-.089,1.438-.183,2.157-.275a5.027,5.027,0,0,0,1.111-.091c.007,0,.016-.006.023-.01h0c-.008,0-.018.006-.026.011.622-.01,1.244-.047,1.864-.1l.069,0,.184-.011.055,0,.059-.006c.173-.021.347-.036.521-.054.051-.005.1-.008.151-.014l.769-.018h4.706l1.319.013h.006l.462,0c.029.01.059.018.088.025l.045,0a9.811,9.811,0,0,0,1.211.079h0c.1.084.215.063.327.073.537.051,1.074.1,1.61.165.9.1,1.8.223,2.7.315.621.064,1.237.172,1.853.27l1.3.208c.291.054.582.109.873.161l.7.123c-.016.014-.033.023-.049.037m-8.256-4.684-.006.016v0l0,0-.024-.007c.011-.01.022-.01.033-.017m-3.407.661a.268.268,0,0,0,.033-.018l.007,0,.013-.007a.278.278,0,0,1-.028.024l-.024.006m-18.686-.476a.008.008,0,0,1,.007.009c-.02.009-.027.007-.035,0h0a.047.047,0,0,1,.025-.01l0,0M26.711,119.372l.007.023-.013,0-.023,0,.028-.016m-2.854-5.228a.075.075,0,0,1,.02-.008.063.063,0,0,1,.016,0,.027.027,0,0,1,.029.022h0c.008.019.013.038.02.056l0,0,0-.006a.1.1,0,0,0-.019-.033v0a.031.031,0,0,0-.025-.007s-.005,0-.008,0h0l-.008-.009v.01a.039.039,0,0,1-.023,0s0,0,0-.009,0,0,0,0m.467,1.06c.009.005.015.012.023.018l-.023.005ZM208.18,22.215a1.361,1.361,0,0,0-.249-.064c-.209-.013-.418-.019-.627-.026a.886.886,0,0,0,.17-.131.454.454,0,0,1,.051-.038.4.4,0,0,1,.065-.047.224.224,0,0,1,.052-.012.261.261,0,0,1,.056-.013.284.284,0,0,1,.059.01.32.32,0,0,1,.051.009.876.876,0,0,1,.117.048c.188.09.377.179.568.264h-.313m-45.03-.744a.021.021,0,0,1-.006-.015l0,0a.02.02,0,0,1,0,.011v0M40.43,147.369c.014,0,.017.019.017.023v0l0,0c-.006-.007-.009-.015-.015-.022m2.242-37.378.059-.024c0,.015,0,.029,0,.044L42.7,110l-.027-.01m9.907,3.506.015-.025.014.026h-.029M63,161.289l.015.005a.061.061,0,0,1,.034.034l0,0a.112.112,0,0,1,0,.061l-.007.017a.408.408,0,0,1-.029.059l0,.005c-.007-.014-.016-.027-.022-.041s-.023-.052-.034-.078-.017-.048-.026-.073h.007a.212.212,0,0,1,.068.007m14.442-20.538a.154.154,0,0,1-.04.009.146.146,0,0,1-.039.007c.01,0,.044-.009.08-.016ZM238.37,24.239c-.214.057-.43.11-.649.151a9.728,9.728,0,0,0-1.88.48c-.069,0-.135.015-.2.021h-.615a.245.245,0,0,0-.239.117l-.479,0h-3.347l-.957,0c-.156-.18-.367-.114-.556-.116-.691-.006-1.383,0-2.075,0h-.224c.172-.076.344-.155.51-.247.111-.036.226-.064.333-.111,1.517-.665,3.021-1.363,4.55-2a1.726,1.726,0,0,0,.651-.368.4.4,0,0,1,.068-.054.435.435,0,0,1,.048-.037.229.229,0,0,1,.069-.017.316.316,0,0,1,.04-.01.511.511,0,0,1,.229.072l.06.031h0c.273.14.546.281.827.4.644.267,1.282.549,1.919.834l0,0q.609.272,1.218.543c.232.1.463.207.695.311M31.5,29.507l0,0-.012-.022-.011-.024a.164.164,0,0,1,.023-.007c0,.019,0,.038,0,.057M185.47,18.379h0l0,.006-.006-.006h0m-18.351.1h-.02l-.053-.006-.031-.005.068-.041.036.054m-2.411-.557c-.016-.025-.032-.049-.044-.067s-.014-.023-.019-.03h.144a.366.366,0,0,1-.08.1m-34.746.321h0s0,0,0,.006l0-.005h0M60.637,19.817l-.007.016v0l0,0-.027-.006c.012-.01.025-.01.037-.017m-3.845.663.036-.019.009,0,.013-.006a.333.333,0,0,1-.032.023l-.027.006m-11.85,85.406a.246.246,0,0,0,.038-.013c.008.024.016.048.025.073a.824.824,0,0,1-.063-.06m17.141,51.558-.014-.011a.069.069,0,0,1,.024-.035.176.176,0,0,0-.01.046M212.069,17.929h0l.005.007-.007-.007h0M82.263,20.065c0-.006-.008-.011-.01-.017l.012,0,0,.013m-1.98,169.416,0,.017,0,.009-.035-.022h0l.039-.006v0M237.816,17.8h0l0,.006-.005-.005h0M65.447,21.887a.021.021,0,0,1-.006-.016h0a.02.02,0,0,1,0,.012v0M205.066,16.6a2.218,2.218,0,0,0-.7.266l-.007,0-.067.037-.034,0-.019.008a.158.158,0,0,0-.05.02l-.019.008a.143.143,0,0,0-.032.042h0l-.031,0-.051,0h-.007l0,0a.186.186,0,0,0-.06.014c-.1.045-.19.093-.285.139l-.048.021-.047.025q-.384.19-.756.4l-.129.077c-.256.151-.508.308-.752.481a.157.157,0,0,0-.146.084c-.034.017-.069.034-.1.054a24.9,24.9,0,0,0-3.624,2.976,1,1,0,0,0-.329.286,6.474,6.474,0,0,0-.864.631c-.165.1-.335.2-.5.3a2.663,2.663,0,0,0-.742.122.1.1,0,0,0-.119.017,4.824,4.824,0,0,0-1.536.189.732.732,0,0,0-.189.054,2.417,2.417,0,0,0-.995.177c-.279-.132-.554-.27-.825-.421a.217.217,0,0,0-.018-.022l-.023-.014a.463.463,0,0,0-.151-.093l-.011-.007-.039-.025a.152.152,0,0,0-.086-.056l-.01-.007-.025,0-.008-.008-.026-.026-.008-.006a2.418,2.418,0,0,0-.411-.3c-.069-.05-.138-.1-.206-.152-.463-.347-.885-.742-1.334-1.1a12.574,12.574,0,0,0-1.3-1.16,7.744,7.744,0,0,0-1.181-.845.263.263,0,0,0-.2-.132,1.544,1.544,0,0,0-.589-.364.521.521,0,0,0-.2-.156c-.463-.287-.957-.516-1.444-.758a.713.713,0,0,0-.341-.111.163.163,0,0,0-.154-.07c0-.006-.01-.007-.014-.012a.139.139,0,0,0-.051-.044.2.2,0,0,0-.084-.013,1.918,1.918,0,0,0-.329-.14l-.008,0h-.006l-.236-.077a6.2,6.2,0,0,0-1.372-.238l-.063-3.925a2.967,2.967,0,0,0-.378-1.425,5.3,5.3,0,0,0-1.209-1.546c-.376-.35-.748-.706-1.092-1.086a3.433,3.433,0,0,1-.465-.652h6.082l6.08.046h0c.278.285.629.227.962.24,2.023.08,4.045.076,6.07.231,1.888.145,3.788.1,5.687.083a7.235,7.235,0,0,0,.7.936c.545.612,1.091,1.222,1.646,1.825a1.434,1.434,0,0,1,.4,1c0,.578-.007,1.156,0,1.734.012.7.032,1.393.048,2.089a5.154,5.154,0,0,0-1.529.372m-68.115-8a1.037,1.037,0,0,0,.834-.235h0l1.5-.028c.465.009.929.03,1.393.027,3.246-.021,6.49-.1,9.736-.189a6.787,6.787,0,0,0,1.024,1.5c.543.61,1.088,1.217,1.64,1.818a1.425,1.425,0,0,1,.394,1c0,.576-.006,1.152,0,1.728.014.824.04,1.647.057,2.471l0-.005-.01-.03a.463.463,0,0,0-.049-.107v0h0c-.059-.083-.147-.084-.369-.078-.042,0-.084.01-.127.015a7.253,7.253,0,0,0-1.628.083c-.553.012-1.108,0-1.659.039-1.47.1-2.938.241-4.409.335-.185.012-.369.026-.553.04l-.338.036c-.875.076-1.749.169-2.622.262a5.17,5.17,0,0,0-1.264.166,9.272,9.272,0,0,0-1.624.2,4.142,4.142,0,0,0-.97.126q-1.787.3-3.569.636c-.754.144-1.511.266-2.254.479a3.409,3.409,0,0,0-.344-.2.279.279,0,0,0-.216-.139,1.637,1.637,0,0,0-.621-.384.556.556,0,0,0-.207-.164c-.489-.3-1.01-.544-1.524-.8a.756.756,0,0,0-.359-.118.173.173,0,0,0-.163-.074c0-.006-.01-.007-.015-.013a.143.143,0,0,0-.053-.046.221.221,0,0,0-.089-.014,2.011,2.011,0,0,0-.346-.148l-.009,0h-.007l-.248-.081a7.108,7.108,0,0,0-1.607-.265l-.066-4.147a2.973,2.973,0,0,0-.379-1.425,5.3,5.3,0,0,0-1.208-1.546q-.373-.347-.73-.71h13.056M82.068,18.953a.069.069,0,0,1,.022.034c-.008-.014-.022-.021-.033-.033h.01m-7.258-.369L74.8,18.57l.018,0-.011.013M23.294,194.777c.02-.018.041-.034.062-.05a.094.094,0,0,1-.061.05h0M39.423,181.5h-.074a.058.058,0,0,1,.017,0,.162.162,0,0,1,.034,0l.023,0h0M151.8,139.648c.1-1.776.353-3.543.316-5.328a2.233,2.233,0,0,1,.046-.578,5.677,5.677,0,0,0,0-2.077,12.466,12.466,0,0,0,.141-2.953c.005-1.1-.125-2.215-.063-3.314.12-2.117-.026-4.231.024-6.347.051-2.193,0-4.389-.017-6.583a10.281,10.281,0,0,0-.212-3.217,27.239,27.239,0,0,0-.047-2.788,12.74,12.74,0,0,1-.037-2.09q.03-.5.055-1c.088-.02.176-.04.264-.062l.126-.031c.105-.026.21-.055.315-.083l.015,0,.187-.05h.006s.007,0,.01-.005l.176-.049a.281.281,0,0,0,.158-.038l.108-.017c.094-.1.241-.016.339-.1l.04-.027.048.007c.076-.049.175-.037.247-.094l.027-.029.038.005c.09-.034.2-.025.256-.109.072-.047.168-.034.236-.094l.058-.022h0c.089-.03.191-.028.253-.1a1.065,1.065,0,0,1,.188-.052.45.45,0,0,0,.21-.032,1.962,1.962,0,0,0,.084.363c.018.562.01,1.126.059,1.685.1,1.2.206,2.4.218,3.6a15.873,15.873,0,0,0,.063,1.746.543.543,0,0,0,.044.231c-.037.177-.068.354-.107.53-.269,1.216-.579,2.423-.771,3.659-.373,2.4-.834,4.795-1.2,7.2-.234,1.552-.316,3.118-.552,4.666-.391,2.558-.485,5.137-.636,7.713-.008.1-.017.208-.025.312a12.869,12.869,0,0,0-.157,3h0a21.536,21.536,0,0,0-.45,3.171c-.053.376-.109.751-.164,1.127.018-.583.036-1.165.07-1.747M1.206,22.043c-.012.014-.02.028-.033.043a.174.174,0,0,1,.033-.043M109.314,8.6h12.423a7.2,7.2,0,0,0,.806,1.092c.545.612,1.091,1.222,1.646,1.825a1.434,1.434,0,0,1,.4,1c0,.578-.007,1.156,0,1.734.013.759.035,1.519.052,2.278l-.013,0a5.281,5.281,0,0,0-1.632.384,2.181,2.181,0,0,0-.674.258l-.025.009-.067.037-.034,0-.018.007a.147.147,0,0,0-.051.021l-.018.007a.141.141,0,0,0-.032.043h0c-.019,0-.038,0-.056.005l-.027,0h-.007l0,0a.185.185,0,0,0-.06.014c-.1.046-.194.094-.291.142l-.041.018-.04.021q-.388.192-.765.407c-.039.022-.078.046-.117.069-.255.15-.506.306-.748.478l0,0a.218.218,0,0,0-.041.01.175.175,0,0,0-.044.011.138.138,0,0,0-.061.062c-.034.018-.068.034-.1.054a24.753,24.753,0,0,0-3.6,2.96,1,1,0,0,0-.327.284,5.414,5.414,0,0,0-.7.5,1.406,1.406,0,0,1-.25-.256.242.242,0,0,0-.11-.225.979.979,0,0,0,0-.107c-.011-.053,0-.12-.035-.157a7.3,7.3,0,0,1-.9-1.679,8.068,8.068,0,0,0-.837-1.71,13.441,13.441,0,0,0-1.108-2.211.23.23,0,0,0-.113-.22h0c-.081-.2-.252-.23-.44-.225h0l-.043-.018,0,0a1.422,1.422,0,0,0-.389-.167h0a7.592,7.592,0,0,0-1.667-.471,4.365,4.365,0,0,0-1.328-.219c-.23.018-.431-.143-.664-.108l-.213-.01c-.122-.151-.294-.1-.45-.108a7.67,7.67,0,0,0-2.546-.328,10.712,10.712,0,0,0-1.87-.121l-.024-1.494a2.973,2.973,0,0,0-.379-1.425,5.3,5.3,0,0,0-1.208-1.546c-.307-.285-.607-.579-.9-.883,3.252-.015,6.5-.04,9.755-.06M69.927,18.883H69.9l-.062-.006-.034-.005.077-.042.041.054m-2.721-.559-.008-.01c-.014-.02-.029-.04-.04-.055l-.024-.033H67.3a.383.383,0,0,1-.09.1M22.33,71.653l-.033.031-.059.064-.019.021v0a.479.479,0,0,1,.008-.1c0-.01,0-.02,0-.031a.553.553,0,0,1,.055-.14c.034.037.064.079.095.118l0,0c-.014.01-.03.024-.046.038m.936,112.71c.012,0,.014.006.016.019l-.016-.018h0M326.882,17.906h0a.046.046,0,0,1,.005.008l-.007-.008h0M257.2,15.023a5.919,5.919,0,0,0-1.833.431,2.508,2.508,0,0,0-.781.3h0l-.075.041-.038,0-.019.008a.174.174,0,0,0-.059.024l-.02.008,0,0c-.609.076-1.22.146-1.827.241a4.158,4.158,0,0,1-.869.1,2.41,2.41,0,0,0-1.04.161c0-.029.01-.058.015-.086-.2-.135-.354-.1-.424.122-.024.073-.04.148-.058.223a2.684,2.684,0,0,0-.7.771,21.876,21.876,0,0,1-1.656,2.221,9.855,9.855,0,0,1-2.614,1.64c-.492.2-.989.389-1.472.61-.508-.4-.968-.869-1.46-1.292a13.794,13.794,0,0,0-1.387-1.322,8.281,8.281,0,0,0-1.26-.963.281.281,0,0,0-.218-.151,1.644,1.644,0,0,0-.629-.415.575.575,0,0,0-.209-.177c-.495-.327-1.022-.588-1.542-.864a1.435,1.435,0,0,0-.22-.1.406.406,0,0,0-.144-.024.17.17,0,0,0-.165-.08.146.146,0,0,0-.037-.034c-.011-.009-.019-.023-.032-.028a.2.2,0,0,0-.09-.015,1.762,1.762,0,0,0-.277-.132l-.067-.026-.015-.006h-.005c-.084-.031-.169-.059-.253-.088a6.618,6.618,0,0,0-1.582-.283l-.053-3.327a2.973,2.973,0,0,0-.378-1.425,5.307,5.307,0,0,0-1.208-1.546q-.338-.314-.665-.642,7.07,0,14.14,0a28.472,28.472,0,0,0,2.916-.064c2.036-.211,4.077-.292,6.117-.361a7.049,7.049,0,0,0,.8,1.089q.807.907,1.627,1.8a1.419,1.419,0,0,1,.392.993c0,.571-.007,1.143,0,1.714,0,.269.012.538.018.807a3.8,3.8,0,0,0-.642.139m114.352,7.02c-.012.014-.02.028-.034.043a.189.189,0,0,1,.034-.043M346.748,2.476a.292.292,0,0,1,.065.033c-.022-.012-.043-.02-.065-.033M41.7,2.574h-.011l0-.007.014.007M1.264,220.858l.007-.009h0v.005l-.007,0M96.873,8.675l.6,0a7.011,7.011,0,0,0,.9,1.256c.545.612,1.091,1.222,1.646,1.825a1.434,1.434,0,0,1,.4,1c0,.461,0,.922,0,1.383a14.338,14.338,0,0,1-2.02.108.7.7,0,0,0-.22.016,32.3,32.3,0,0,1-3.373.42,8.875,8.875,0,0,0-1.72.33c-.153.013-.323-.045-.444.106-.153.017-.324-.037-.443.113a5.3,5.3,0,0,0-1.52.434c-.15.051-.217.185-.292.313-.185.315-.391.619-.566.939a8.409,8.409,0,0,0-1.053,2.635,4.069,4.069,0,0,0-.259.786.285.285,0,0,1,.186.375c-.117.332-.313.626-.444.952l-.1.248a.63.63,0,0,0,.139.26.211.211,0,0,1-.013.205,1.521,1.521,0,0,0-.2.282c-.268-.232-.536-.465-.812-.688a15.585,15.585,0,0,0-1.622-1.447,9.66,9.66,0,0,0-1.474-1.056.332.332,0,0,0-.255-.165h0a1.932,1.932,0,0,0-.735-.454.653.653,0,0,0-.245-.194c-.578-.359-1.2-.644-1.8-.947a.879.879,0,0,0-.426-.139l-.007.005,0,0h0a.191.191,0,0,0-.186-.088.2.2,0,0,0-.185-.085h0a3.789,3.789,0,0,0-.722-.277,7.327,7.327,0,0,0-1.6-.286l-.066-4.088a2.973,2.973,0,0,0-.378-1.425,5.307,5.307,0,0,0-1.209-1.546c-.376-.35-.748-.706-1.092-1.086l-.011-.014q10.807,0,21.614,0m-24.036,10,0,.008-.008.007s0-.01,0-.015M222.4,168.636l.017.017v.019c-.005-.012-.012-.024-.017-.036M292.647,12.573a5.594,5.594,0,0,1-1.213.14,8.286,8.286,0,0,0-1.642.178h0a15.565,15.565,0,0,0-2.9.292,6.455,6.455,0,0,0-1.6.251,8.179,8.179,0,0,0-2.22.244c-.421.087-.877-.064-1.264.2a5.773,5.773,0,0,0-3.136,1.631c-.363.414-.677.872-1.008,1.314a8.4,8.4,0,0,0-1.213,2.27,14,14,0,0,1-1.8,2.833,3.188,3.188,0,0,1-.726.682c-.23.144-.458.291-.687.437a5.8,5.8,0,0,1-2.177-1.754,11.605,11.605,0,0,1-.969-1.779,8.363,8.363,0,0,0-.8-1.706.259.259,0,0,0-.139-.229c.01-.144,0-.3-.273-.328-.027.063-.066.132-.09.2a.378.378,0,0,0-.184-.056c-.25-.309-.651-.249-.972-.391a8.288,8.288,0,0,0-3.244-.694.574.574,0,0,0-.3-.13,5,5,0,0,0-1.225-.15l-.555-.275a.84.84,0,0,0-.4-.133h0a.154.154,0,0,0-.081-.067.2.2,0,0,0-.029,0,.347.347,0,0,0-.072-.011.148.148,0,0,0-.041-.035c-.012-.01-.021-.025-.035-.031a.249.249,0,0,0-.1-.016,2.106,2.106,0,0,0-.314-.139l-.053-.02-.031-.011-.012,0-.275-.09a6.584,6.584,0,0,0-1.383-.257l-.046-2.817a2.934,2.934,0,0,0-.374-1.408,5.246,5.246,0,0,0-1.194-1.529q-.408-.379-.8-.779c4.108-.133,8.207.152,12.309.424,3.2.212,6.426.067,9.64.08a42,42,0,0,0,7.085.294,1.191,1.191,0,0,0,.953.235c1.127.01,2.255,0,3.384,0l.887.008c.014.015.025.031.038.046q.779.875,1.57,1.741a1.366,1.366,0,0,1,.378.957c0,.084,0,.169,0,.253a5.4,5.4,0,0,0-.665.123m78.966,208.284s0-.006.007-.009h0v.005l-.007,0M53.9,8.934c2.151,0,4.3-.039,6.454-.042.411,0,.854.092,1.217-.243,2.623.011,5.248.03,7.872.031H73.26a6.866,6.866,0,0,0,1.019,1.481q.817.918,1.646,1.825a1.432,1.432,0,0,1,.4,1c0,.578-.007,1.156,0,1.734.012.692.032,1.385.048,2.078a3.992,3.992,0,0,0-.615.135,6.272,6.272,0,0,0-1.931.454h0a2.775,2.775,0,0,0-.906.36.184.184,0,0,0-.18.095l-.005,0a.612.612,0,0,0-.179.027c-.509.239-1.007.5-1.49.782a11.105,11.105,0,0,0-1.768-.237.1.1,0,0,0-.079-.008.54.54,0,0,0-.172-.071,12.783,12.783,0,0,1-1.507-.2,3.882,3.882,0,0,0-1.038-.108.106.106,0,0,0-.083-.008.758.758,0,0,0-.493-.077l-.278-.022a1.176,1.176,0,0,0-.69-.076l-.285-.02a5.825,5.825,0,0,0-1.271-.168c-1.094-.115-2.184-.265-3.285-.33-.592-.035-1.183-.088-1.774-.143l-.039,0c-.461-.043-.922-.086-1.383-.123a1.264,1.264,0,0,0-.612.009c0-.021,0-.037,0-.059l-.07-4.383a2.973,2.973,0,0,0-.378-1.425,5.3,5.3,0,0,0-1.209-1.546q-.382-.355-.747-.728M21.325,63.625c0,.05-.008.1-.01.149a.467.467,0,0,1,.01-.149m67.285,87.09v0h0l0,0m147.116,18.221h0a.467.467,0,0,0-.005.073l-.011,0c0-.023.009-.047.015-.069m84.8-156.951a1.434,1.434,0,0,1,.4,1c0,.578-.007,1.156,0,1.734.008.44.019.879.031,1.319a5.732,5.732,0,0,0-1.727.414,2.425,2.425,0,0,0-.761.291l-.007,0-.053.03-.02.011h0l-.037,0-.021.008a.167.167,0,0,0-.054.022l-.021.008a.152.152,0,0,0-.034.046h0c-.018,0-.035,0-.053.005l-.037,0h-.007l0,0a.229.229,0,0,0-.067.015c-.106.05-.21.1-.315.153l-.049.022-.049.026q-.423.21-.832.443l-.134.08c-.279.164-.554.336-.818.524l-.006,0a.23.23,0,0,0-.072.017c-.006,0-.015,0-.02,0a.149.149,0,0,0-.068.068c-.037.019-.075.037-.111.059-.344.218-.675.452-1,.693a18.025,18.025,0,0,0-2.089.721c-.243.094-.483.191-.723.29-.385-.607-.678-1.266-1-1.907a8.86,8.86,0,0,0-3-3.394,8.132,8.132,0,0,0-2.875-1.131,7.293,7.293,0,0,0-2.312-.7c-1.486-.057-2.957-.3-4.446-.285a6.771,6.771,0,0,1-1.922-.225,1.023,1.023,0,0,0-.768.07q-.283-.016-.566-.027l-.007-.44a2.84,2.84,0,0,0-.361-1.359,4.532,4.532,0,0,0-.792-1.116c.309.011.618.019.926.012,2.783-.071,5.564-.123,8.347-.258,5.01-.243,10.031.051,15.046-.253a7.087,7.087,0,0,0,.85,1.168c.545.612,1.091,1.222,1.646,1.825" transform="translate(0 0)" fill="#40bbff"/>
          <path id="Caminho_770282" data-name="Caminho 770282" d="M181.754,43.073c-.02.076-.042.151-.066.225a1.609,1.609,0,0,0-.16.732q.112-.479.226-.957" transform="translate(-93.385 -22.159)" fill="#40bbff"/>
          <path id="Caminho_770283" data-name="Caminho 770283" d="M183.974,339.37l.043,0-.168-.043a.206.206,0,0,0,.126.04" transform="translate(-94.583 -174.572)" fill="#40bbff"/>
          <path id="Caminho_770284" data-name="Caminho 770284" d="M181.567,320.111v-.168a.15.15,0,0,0-.035.057.081.081,0,0,0,.035.111" transform="translate(-93.387 -164.598)" fill="#40bbff"/>
          <path id="Caminho_770285" data-name="Caminho 770285" d="M182.118,337.4a1.448,1.448,0,0,0,.047.585c.034.1.077.117.113.088-.114-.106-.147-.259-.156-.532l0-.14" transform="translate(-93.688 -173.581)" fill="#40bbff"/>
          <path id="Caminho_770286" data-name="Caminho 770286" d="M182.018,308.285a.6.6,0,0,0-.022.374l.019-.321,0-.053" transform="translate(-93.619 -158.6)" fill="#40bbff"/>
          <path id="Caminho_770287" data-name="Caminho 770287" d="M212.5,296.764c0,.092,0,.184,0,.276.051-.04.047-.118.048-.185a3.317,3.317,0,0,0-.021-.938c-.011.281-.019.564-.024.847" transform="translate(-109.323 -152.238)" fill="#40bbff"/>
          <path id="Caminho_770288" data-name="Caminho 770288" d="M182.168,304.161a.868.868,0,0,0-.037.713c.015-.234.026-.473.037-.713" transform="translate(-93.666 -156.479)" fill="#40bbff"/>
        </g>
      </g>
      <g id="Grupo_233384" data-name="Grupo 233384" transform="translate(882.024 6650.395)">
        <g id="Grupo_233383" data-name="Grupo 233383" transform="translate(0)" clip-path="url(#clip-path-2)">
          <path id="Caminho_759164" data-name="Caminho 759164" d="M195.943,224.814l3.085-21.932,31.025-2.544V213.6s-9.675,6-10.839,6-23.271,5.212-23.271,5.212" transform="translate(-15.551 -24.924)"/>
          <path id="Caminho_759165" data-name="Caminho 759165" d="M88.943,66.24c1.49,3.012.507,5.088-.618,7.909a3.892,3.892,0,0,0-.285,2.315c12.87-1.206,25.74-2.395,38.642-3.155,8.717-.508,17.244-1.664,25.9-2.838,5.484-.728,11-1.109,16.436-2.044a5.679,5.679,0,0,0-1.839-4.39c-.7-.714-1.854-1.189-2.409-2-1.569-2.235-.982-4.1-.681-6.419a8.893,8.893,0,0,0-.524-4.216,11.286,11.286,0,0,0-3.819-4.944c-2.377-1.823-4.565-1.84-5.374-5.025-1.22-4.881.349-9.336-2.536-13.868-4.057-6.355-11.475-8.177-18.306-6.466-.111-.11-.222-.206-.333-.3a12.809,12.809,0,0,0-1.2-1.078c-6.372-5.341-16.594-8.781-23.457-4.454-5.659,3.566-5.532,7.353-7.513,9.113-2.25,1.981-6.324,3.424-8.194,5.817-1.728,2.187-3.535,4.9-3.661,7.766-.144,2.758,1.664,5.263,1.362,8.035-.285,2.553-2.3,4.107-3.439,6.245a11.365,11.365,0,0,0-.808,8.892c.618,1.855,1.807,3.376,2.663,5.1" transform="translate(141.963 -1.656)" fill="#ffe3d1"/>
          <path id="Caminho_759166" data-name="Caminho 759166" d="M109.168,110.074l17.87,4.072L140.05,110.5,136.5,95.926l-.073-.276-4.144-17-.712-2.894-2.108-8.652L112.919,85.255l-3.649,3.984-.029,6.674v.029l-.014,2.7Z" transform="translate(150.431 -8.349)" fill="#ffa694"/>
          <path id="Caminho_759167" data-name="Caminho 759167" d="M93.408,108.177s3.271,16.241,6.674,16.6,29.313.843,31.988.363,15.5-8.113,15.5-8.113l11.152-8.855-17.346-8.346-1.294-.625-1.468-.713-11.109.451-.6.03-11.763.479h-.073l-.96.393-3.4,1.367-.829.334-.6.247Z" transform="translate(145.558 -12.253)" fill="#ffa694"/>
          <path id="Caminho_759168" data-name="Caminho 759168" d="M118.368,99.426l4.813.756a21.62,21.62,0,0,0,12.839-3.256l.567-.349a20.651,20.651,0,0,0,5.133-4.522,19.685,19.685,0,0,0,3.1-5.555c.2-.567.742-3.911,1.134-5.5a6.61,6.61,0,0,1-2.05-1.541c-5.714,2.4-11.384,4.8-17.027,7.328l-3.649,3.984-.029,6.674v.03l-3.4,1.367-.828.334Z" transform="translate(136.475 -9.886)"/>
          <path id="Caminho_759169" data-name="Caminho 759169" d="M109.917,49.2c-.207-1.2-.391-2.331-.555-3.389-1.045-6.7,6.066-16.255,10.7-17.237,14.406-3.053,33.889-3.262,36.942,11.144a26.581,26.581,0,0,1,.394,8.543c.293,5.538-2.157,14.489-5.24,21.439-6.042,13.615-13.639,18.154-20.758,17.7-17.084-1.078-19-23.895-21.481-38.2" transform="translate(132.829 -3.347)" fill="#ffa694"/>
          <path id="Caminho_759170" data-name="Caminho 759170" d="M106.757,48.388a.671.671,0,0,1-.206-.571c.444-6.4.665-14.708,5.262-19.669,4.913-5.325,10.872-7.465,18.116-6.72a37.077,37.077,0,0,1,8.352,1.918c.507.174,1.015.364,1.522.554a65.654,65.654,0,0,1,11.3,5.832c2.362,1.506,4.771,2.822,5.849,5.532,1.411,3.582,1.553,8.115,1.855,11.951a.056.056,0,0,1,.047-.017c1-.206,1.411,1.316.412,1.538-10.9,2.3-23.505-2.187-26.248-13.329-.126-.507-.237-1.031-.316-1.569-.207.016-.428.047-.635.079a19.366,19.366,0,0,0-7.259,2.077c-2.283,1.284-3.662,3.582-5.928,4.85-2.536,1.411-5.515,1.268-7.814,3.248-3.281,2.854-3.82,7.592-4.28,11.634-.127,1-1.712,1.015-1.585,0a31.447,31.447,0,0,1,1.553-7.338" transform="translate(134.118 -2.648)" fill="#ffe3d1"/>
          <path id="Caminho_759171" data-name="Caminho 759171" d="M103.931,56c-1.054,5.119,1.144,9.9,4.911,10.674s7.676-2.745,8.731-7.864-1.144-9.9-4.912-10.674-7.676,2.744-8.73,7.864" transform="translate(177.461 -5.975)" fill="#ffa694"/>
          <path id="Caminho_759172" data-name="Caminho 759172" d="M129.174,63.624c.524,1.869,1.9,3.116,3.067,2.789s1.694-2.109,1.171-3.977-1.9-3.117-3.067-2.789-1.694,2.109-1.171,3.977" transform="translate(139.526 -7.414)"/>
          <path id="Caminho_759173" data-name="Caminho 759173" d="M148.846,64.605c.524,1.868,1.9,3.116,3.067,2.789s1.694-2.109,1.171-3.977-1.9-3.117-3.067-2.789-1.694,2.108-1.171,3.977" transform="translate(102.629 -7.536)"/>
          <path id="Caminho_759174" data-name="Caminho 759174" d="M142.387,67.1c.571-.844,1.78.182,1.213,1.021a8.137,8.137,0,0,0-1.065,1.824c-.536,1.158-.471,3.165,1.28,3.044,1.017-.071,1.174,1.507.156,1.577a3.137,3.137,0,0,1-3.353-2.882c-.2-1.908.637-2.91,1.769-4.584" transform="translate(118.307 -8.308)"/>
          <path id="Caminho_759175" data-name="Caminho 759175" d="M135.267,78.534c1.347,2.649,5.585,2.12,6.7-.477a.794.794,0,0,1,1.467.6c-1.68,3.915-7.658,4.361-9.62.5-.463-.911.995-1.533,1.455-.628" transform="translate(125.481 -9.653)"/>
          <path id="Caminho_759176" data-name="Caminho 759176" d="M126.874,53.168a3.591,3.591,0,0,1,1.552-1.084,5.669,5.669,0,0,1,3.087-.1,5.737,5.737,0,0,1,2.383,1.041c1.027.813,2.112,2.917.2,3.424a3.5,3.5,0,0,1-1.743-.1,6.626,6.626,0,0,0-1.731-.316,10.41,10.41,0,0,0-1.917.389,2.264,2.264,0,0,1-1.876-.272,1.865,1.865,0,0,1-.509-1.91,2.8,2.8,0,0,1,.55-1.067" transform="translate(140.373 -6.447)" fill="#ffe3d1"/>
          <path id="Caminho_759177" data-name="Caminho 759177" d="M156.455,55.443a1.864,1.864,0,0,1-.381,1.939,2.267,2.267,0,0,1-1.854.4,10.306,10.306,0,0,0-1.938-.261,6.671,6.671,0,0,0-1.707.43,3.491,3.491,0,0,1-1.733.218c-1.939-.38-1-2.551-.024-3.431a5.721,5.721,0,0,1,2.309-1.2,5.662,5.662,0,0,1,3.086-.1,3.578,3.578,0,0,1,1.621.978,2.814,2.814,0,0,1,.619,1.028" transform="translate(100.162 -6.627)" fill="#ffe3d1"/>
          <path id="Caminho_759178" data-name="Caminho 759178" d="M126.668,33.836c.206-.032.428-.063.634-.079.08.538.19,1.061.317,1.569,2.266-3.836,4.517-7.672,6.784-11.507.412-.7.824-1.411,1.236-2.108a13.058,13.058,0,0,0-1.2-1.078c-.524.872-1.031,1.759-1.553,2.631-2.076,3.519-4.137,7.053-6.213,10.572" transform="translate(139.518 -2.567)" fill="#ffa694"/>
          <path id="Caminho_759179" data-name="Caminho 759179" d="M6.859,176.5l25.983,12.708L37.757,240.1H148.435l5.278-27.626,47.066-4.9s-16.343-59.425-35.623-76.335C152.9,120.463,137.748,113.411,128.37,109.7c-.567-.232-1.105-.436-1.614-.639-4.435-1.687-7.227-2.516-7.227-2.516a61.606,61.606,0,0,1-30.185,8.157c-16.866-.189-24.833-7.459-24.833-7.459s-3.112.771-7.285,1.992c-.552.16-1.12.32-1.7.509-6.921,2.065-15.79,5.118-18.858,7.866C31.388,122.324,6.859,176.5,6.859,176.5" transform="translate(179.283 -13.256)" fill="url(#linear-gradient-4)"/>
          <path id="Caminho_759180" data-name="Caminho 759180" d="M229.846,222.057l-3.786-7.876s-19.114-2.968-29.656,6.727,7.089,24.84,7.089,24.84,19.164.584,20.668.5,5.685-24.2,5.685-24.2" transform="translate(-12.807 -26.593)"/>
          <path id="Caminho_759181" data-name="Caminho 759181" d="M166.386,234.469c.067-.462,3.812-1.564,4.346-1.744a14.862,14.862,0,0,1,5.368-1.033c4.144.21,4.042,4.471,1.892,6.593a14.355,14.355,0,0,1-4.881,2.867c-8.167,3.188-6.727-6.663-6.725-6.682" transform="translate(61.014 -28.823)"/>
          <path id="Caminho_759182" data-name="Caminho 759182" d="M136.8,232.324c-.067-.463-3.812-1.564-4.346-1.744a14.862,14.862,0,0,0-5.368-1.033c-4.144.21-4.042,4.471-1.892,6.592a14.372,14.372,0,0,0,4.881,2.868c8.167,3.187,6.727-6.664,6.725-6.683" transform="translate(140.824 -28.557)"/>
          <path id="Caminho_759183" data-name="Caminho 759183" d="M177.4,247.921a46.957,46.957,0,0,1,5.584-.538c.465-.03.96-.074,1.468-.1,2.239-.159,4.842-.32,7.488-.48l1.468-.087c2.632-.16,5.278-.32,7.633-.451.509-.029.989-.059,1.468-.088l.765-.043a5.67,5.67,0,0,0,5.265-6.637c-.8-4.606-2.023-10.481-3.383-13.022-1.76-3.286-4.827-2.326-6.339-1.585a6.968,6.968,0,0,0-.888.509,7,7,0,0,0-.93-2.5,4.778,4.778,0,0,0-4.173-2.384,4.01,4.01,0,0,0-4.232,3.213v.014a6.716,6.716,0,0,0-.261,1.658,5.2,5.2,0,0,0-1.091-1.061,4.579,4.579,0,0,0-4.158-.756c-2.2.654-2.384,4-2.283,6.135v.03a17.213,17.213,0,0,0,.189,1.817,4.679,4.679,0,0,0-1.439-.669,3.4,3.4,0,0,0-3.664,1.091c-2.24,2.516,1.061,16.358,1.512,15.936" transform="translate(24.11 -27.434)" fill="#ffa694"/>
          <path id="Caminho_759184" data-name="Caminho 759184" d="M29.536,220.538c-3.453-.546-11.087,6.755-13.177,11.208s-1.818,14.268-1.818,14.268H39.26l19.357,4.452h60.341L113.5,221.931l-34.9,4.726-1.373,7.195s-44.246-12.768-47.7-13.313" transform="translate(254.387 -27.433)" fill="#ffa694"/>
          <path id="Caminho_759185" data-name="Caminho 759185" d="M117.489,248.335a.727.727,0,0,0,.721-.651A67.174,67.174,0,0,1,120,238c1.135-3.858,6.162-7.959,6.212-8a.727.727,0,0,0-.914-1.13c-.222.179-5.431,4.432-6.692,8.72a67.634,67.634,0,0,0-1.843,9.943.726.726,0,0,0,.646.8.585.585,0,0,0,.078,0" transform="translate(157.348 -28.453)" fill="#4f332e"/>
          <path id="Caminho_759186" data-name="Caminho 759186" d="M109.554,252.21a.727.727,0,0,0,.721-.651,67.2,67.2,0,0,1,1.791-9.686c1.134-3.851,6.162-7.959,6.212-8a.727.727,0,0,0-.914-1.13c-.222.179-5.431,4.433-6.692,8.72a67.635,67.635,0,0,0-1.843,9.943.726.726,0,0,0,.646.8.748.748,0,0,0,.078,0" transform="translate(172.231 -28.935)" fill="#4f332e"/>
          <path id="Caminho_759187" data-name="Caminho 759187" d="M102.542,256.414a.727.727,0,0,0,.721-.651,67.064,67.064,0,0,1,1.791-9.686c1.134-3.851,6.162-7.959,6.212-8a.727.727,0,1,0-.914-1.13c-.222.179-5.431,4.433-6.692,8.72a67.275,67.275,0,0,0-1.843,9.943.727.727,0,0,0,.646.8.776.776,0,0,0,.078,0" transform="translate(185.383 -29.458)" fill="#4f332e"/>
          <path id="Caminho_759188" data-name="Caminho 759188" d="M80.314,257.314H228.258v-3a5.668,5.668,0,0,0-5.668-5.668H85.983a5.668,5.668,0,0,0-5.669,5.668Z" transform="translate(87.487 -30.935)"/>
          <path id="Caminho_759189" data-name="Caminho 759189" d="M235.942,254h65.971V252.24a3.33,3.33,0,0,0-3.33-3.33H235.942Z" transform="translate(-122.434 -30.967)" fill="#b4b2c2"/>
          <path id="Caminho_759190" data-name="Caminho 759190" d="M168.812,92.546l18.161,92.067a9.126,9.126,0,0,0,8.956,7.357h155.8a9.105,9.105,0,0,0,5.031-1.5,8.543,8.543,0,0,0,1.265-1.032,9.062,9.062,0,0,0,2.675-8.361l-18.16-92.067a9.046,9.046,0,0,0-2.792-4.958,7.36,7.36,0,0,0-1.148-.887,9.1,9.1,0,0,0-5.017-1.512H177.769a9.09,9.09,0,0,0-7.953,4.682,6.509,6.509,0,0,0-.654,1.454,9.02,9.02,0,0,0-.349,4.754" transform="translate(-122.463 -10.159)" fill="#b4b2c2"/>
          <path id="Caminho_759191" data-name="Caminho 759191" d="M259.533,243.2h30.534l8.425-61.647H267.958Z" transform="translate(-139.669 -22.586)" fill="#b4b2c2"/>
          <path id="Caminho_759192" data-name="Caminho 759192" d="M256.969,204.2h1.512l3.708-22.755h30.723l-3.17,22.755h1.5l3.272-23.38a.749.749,0,0,0-.742-.829H261.549a.751.751,0,0,0-.742.611Z" transform="translate(-133.45 -22.393)"/>
          <path id="Caminho_759193" data-name="Caminho 759193" d="M171.9,88.456H334.539a4.8,4.8,0,0,1,4.682,3.824l20.269,98.858a8.492,8.492,0,0,0,1.264-1.032L340.646,91.989A6.254,6.254,0,0,0,334.539,87H172.55a6.592,6.592,0,0,0-.655,1.454" transform="translate(-125.197 -10.824)"/>
          <path id="Caminho_759194" data-name="Caminho 759194" d="M375.866,117.1a.753.753,0,0,0,.146-.015.727.727,0,0,0,.568-.858l-3.453-16.9a.727.727,0,0,0-1.425.291l3.453,16.9a.727.727,0,0,0,.711.581" transform="translate(-315.974 -12.285)" fill="#4f332e"/>
          <path id="Caminho_759195" data-name="Caminho 759195" d="M369.1,117.1a.753.753,0,0,0,.146-.015.727.727,0,0,0,.568-.858l-3.453-16.9a.727.727,0,0,0-1.425.291l3.453,16.9a.727.727,0,0,0,.711.581" transform="translate(-303.286 -12.285)" fill="#4f332e"/>
          <path id="Caminho_759196" data-name="Caminho 759196" d="M362.334,117.1a.753.753,0,0,0,.146-.015.728.728,0,0,0,.568-.858l-3.453-16.9a.727.727,0,0,0-1.425.291l3.453,16.9a.727.727,0,0,0,.711.581" transform="translate(-290.592 -12.285)" fill="#4f332e"/>
          <path id="Caminho_759197" data-name="Caminho 759197" d="M355.569,117.1a.753.753,0,0,0,.146-.015.728.728,0,0,0,.568-.858l-3.453-16.9a.727.727,0,0,0-1.425.291l3.453,16.9a.727.727,0,0,0,.711.581" transform="translate(-277.904 -12.285)" fill="#4f332e"/>
          <path id="Caminho_759198" data-name="Caminho 759198" d="M348.8,117.1a.753.753,0,0,0,.146-.015.728.728,0,0,0,.568-.858l-3.453-16.9a.727.727,0,0,0-1.425.291l3.453,16.9a.727.727,0,0,0,.711.581" transform="translate(-265.213 -12.285)" fill="#4f332e"/>
          <path id="Caminho_759199" data-name="Caminho 759199" d="M193.063,89.126a.625.625,0,0,0,.378.13.742.742,0,0,0,.639-.291l3.461-4.7a7.368,7.368,0,0,0-1.149-.887l-3.49,4.725a.741.741,0,0,0,.16,1.018" transform="translate(19.74 -10.374)"/>
          <path id="Caminho_759200" data-name="Caminho 759200" d="M0,271.191H326.846a1,1,0,0,0,1.1-.845V255.567a1,1,0,0,0-1.1-.845H0Z" transform="translate(58.123 -31.69)" fill="#a64c38"/>
          <path id="Caminho_759201" data-name="Caminho 759201" d="M88.15,249.485s4.968-5.695,6.907-5.695,5.089,5.695,5.089,5.695Z" transform="translate(208.738 -30.33)"/>
          <path id="Caminho_759202" data-name="Caminho 759202" d="M202.457,232.208l3.432,16.488.261,1.236a.732.732,0,0,0,.714.566.614.614,0,0,0,.159-.014.71.71,0,0,0,.552-.858l-.217-1.032-3.649-17.535a17.253,17.253,0,0,0,.189,1.818,4.665,4.665,0,0,0-1.44-.669" transform="translate(1.206 -28.746)" fill="#4f332e"/>
          <path id="Caminho_759203" data-name="Caminho 759203" d="M192.349,224.8l4.7,22.464.159.771a.719.719,0,0,0,.713.567.531.531,0,0,0,.145-.015.73.73,0,0,0,.567-.857l-.116-.552L193.7,224.2a6.716,6.716,0,0,0-.261,1.658,5.2,5.2,0,0,0-1.091-1.061" transform="translate(19.006 -27.893)" fill="#4f332e"/>
          <path id="Caminho_759204" data-name="Caminho 759204" d="M181.792,223.237l4.043,23.366.291,1.715a.742.742,0,0,0,.712.611c.044,0,.088-.015.131-.015a.748.748,0,0,0,.6-.843l-.262-1.556-3.693-21.286a6.912,6.912,0,0,0-.887.509,7.013,7.013,0,0,0-.931-2.5" transform="translate(39.319 -27.773)" fill="#4f332e"/>
          <path id="Caminho_759205" data-name="Caminho 759205" d="M40.858,220.969a.726.726,0,0,0,.674-.456L58.5,178.226a.727.727,0,1,0-1.349-.541L40.184,219.972a.726.726,0,0,0,.674,1" transform="translate(292.381 -22.049)"/>
          <path id="Caminho_759206" data-name="Caminho 759206" d="M54.559,210.814a.726.726,0,0,0,.727-.711l.541-25.075a.727.727,0,0,0-.711-.743.744.744,0,0,0-.743.712l-.54,25.074a.727.727,0,0,0,.711.742Z" transform="translate(283.106 -22.927)"/>
          <path id="Caminho_759207" data-name="Caminho 759207" d="M89.556,110.1a54.281,54.281,0,0,0,31.392,11.676c1.353.073,2.676.116,3.97.116A63.946,63.946,0,0,0,162.4,110.06c-.567-.233-1.1-.436-1.614-.639a62.924,62.924,0,0,1-39.753,10.9A53.037,53.037,0,0,1,91.257,109.6c-.552.159-1.12.32-1.7.509" transform="translate(145.251 -13.613)"/>
        </g>
      </g>
      <g id="Grupo_234016" data-name="Grupo 234016" transform="translate(1175.976 6587.122)">
        <g id="Grupo_233995" data-name="Grupo 233995" transform="translate(73.498 134.608) rotate(-149)">
          <g id="Grupo_233994" data-name="Grupo 233994" clip-path="url(#clip-path-3)">
            <path id="Caminho_770518" data-name="Caminho 770518" d="M25.253,12.627A12.627,12.627,0,1,0,12.626,25.253,12.627,12.627,0,0,0,25.253,12.627" transform="translate(29.328 0)" fill="#0e1126"/>
            <path id="Caminho_770519" data-name="Caminho 770519" d="M54.608,27.3a27.3,27.3,0,1,0-27.3,27.3,27.3,27.3,0,0,0,27.3-27.3" transform="translate(14.668 34.185)" fill="#f5c750"/>
            <path id="Caminho_770520" data-name="Caminho 770520" d="M0,20.446C4.485,14.686,8.407,9.1,8.407,0H21.051V20.445Z" transform="translate(20.921 23.654)" fill="#f5c750"/>
            <path id="Caminho_770521" data-name="Caminho 770521" d="M21.051,20.445C16.565,14.686,12.644,9.1,12.644,0H0V20.446Z" transform="translate(41.972 23.654)" fill="#f5c750"/>
            <rect id="Retângulo_124924" data-name="Retângulo 124924" width="25.253" height="11.028" transform="translate(29.328 12.627)" fill="#0e1126"/>
            <path id="Caminho_770522" data-name="Caminho 770522" d="M23.047.46C22.982,5.955,23,11.45,23.016,16.944q.01,4.171.021,8.341c0,2.345-.046,4.7.1,7.04a18.678,18.678,0,0,0,1.713,7.46,7.476,7.476,0,0,0,5.6,4.223,4.611,4.611,0,0,0,4.9-2.628,5.309,5.309,0,0,0,.017-3.415,11.733,11.733,0,0,0-1.557-3.375c-2.831-4.21-8.112-6.025-13-6.087a28.875,28.875,0,0,0-8.914,1.434,16.231,16.231,0,0,0-7.669,4.828A12.417,12.417,0,0,0,.937,42.589,5.7,5.7,0,0,0,4.231,47.91a6.217,6.217,0,0,0,6.052-1.042A11.6,11.6,0,0,0,14.27,39.8a35.464,35.464,0,0,0,.314-8.353c-.112-2.663-.136-5.321-.142-7.985-.013-5.949.006-11.9.014-17.847q0-1.848,0-3.694a.477.477,0,0,1,.954,0c0,6.067-.022,12.135-.021,18.2,0,2.826-.035,5.657.037,8.482a86.694,86.694,0,0,1,.11,8.807,15.307,15.307,0,0,1-2.718,8.18,8.427,8.427,0,0,1-6.466,3.66,6.14,6.14,0,0,1-5.5-3.212c-1.381-2.576-.928-5.582.239-8.143a15.847,15.847,0,0,1,5.974-6.843,25.763,25.763,0,0,1,9.7-3.191c5.3-.818,11.113-.017,15.363,3.489a12.738,12.738,0,0,1,4.179,6.461,6.218,6.218,0,0,1,0,3.7,5.071,5.071,0,0,1-1.971,2.534,6.552,6.552,0,0,1-6.747.009,10.219,10.219,0,0,1-4.557-6.291,29.9,29.9,0,0,1-.943-8.013c-.031-2.532-.011-5.066-.018-7.6-.016-6.016-.042-12.032-.012-18.048q.009-1.822.029-3.644a.477.477,0,0,1,.954,0" transform="translate(24.588 19.126)" fill="#0e1126"/>
            <path id="Caminho_770523" data-name="Caminho 770523" d="M.712.055l11,4.652a.48.48,0,0,1,.171.652.489.489,0,0,1-.652.171L.231.878A.48.48,0,0,1,.06.226.489.489,0,0,1,.712.055" transform="translate(73.798 69.318)" fill="#0e1126"/>
            <path id="Caminho_770524" data-name="Caminho 770524" d="M.893.23l6.37,10.828a.477.477,0,0,1-.823.481L.069.711A.477.477,0,0,1,.893.23" transform="translate(61.914 87.391)" fill="#0e1126"/>
            <path id="Caminho_770525" data-name="Caminho 770525" d="M7.263.711.893,11.539a.477.477,0,0,1-.823-.481L6.439.23a.477.477,0,0,1,.823.481" transform="translate(16.511 87.392)" fill="#0e1126"/>
            <path id="Caminho_770526" data-name="Caminho 770526" d="M11.718.878.714,5.53a.5.5,0,0,1-.652-.171.48.48,0,0,1,.171-.653l11-4.652a.494.494,0,0,1,.652.171.48.48,0,0,1-.171.652" transform="translate(0 69.319)" fill="#0e1126"/>
            <path id="Caminho_770527" data-name="Caminho 770527" d="M0,11.53V.46a.477.477,0,0,1,.954,0V11.53a.477.477,0,0,1-.954,0" transform="translate(42.396 93.526)" fill="#0e1126"/>
            <path id="Caminho_770528" data-name="Caminho 770528" d="M.591.019l17.6,4.769,5.051,1.368a.477.477,0,0,1-.253.92L5.388,2.307.337.938A.477.477,0,0,1,.591.019" transform="translate(30.982 6.059)" fill="#e5e3f2"/>
            <path id="Caminho_770529" data-name="Caminho 770529" d="M.591.019,19.517,5.147l5.342,1.447a.477.477,0,0,1-.254.92L5.679,2.386.337.938A.477.477,0,0,1,.591.019" transform="translate(29.365 13.615)" fill="#e5e3f2"/>
          </g>
        </g>
      </g>
    </g>
  </g>
</svg>
