<svg xmlns="http://www.w3.org/2000/svg" xmlns:xlink="http://www.w3.org/1999/xlink" width="364" height="232.024" viewBox="0 0 364 232.024">
  <defs>
    <linearGradient id="linear-gradient" x1="0.209" x2="0.584" y2="1.161" gradientUnits="objectBoundingBox">
      <stop offset="0" stop-color="#fff"/>
      <stop offset="0.243" stop-color="#95ebff"/>
      <stop offset="0.644" stop-color="#0024a8"/>
      <stop offset="1" stop-color="#3db8f9"/>
    </linearGradient>
    <clipPath id="clip-path">
      <rect id="Retângulo_124885" data-name="Retângulo 124885" width="288.384" height="187.89" fill="#40bbff"/>
    </clipPath>
    <linearGradient id="linear-gradient-2" x1="0.5" x2="0.5" y2="1" gradientUnits="objectBoundingBox">
      <stop offset="0" stop-color="#c95ee9"/>
      <stop offset="1" stop-color="#9d7df6"/>
    </linearGradient>
    <linearGradient id="linear-gradient-3" x1="0.973" y1="1" x2="0" y2="1" gradientUnits="objectBoundingBox">
      <stop offset="0" stop-color="#fff" stop-opacity="0"/>
      <stop offset="0.159" stop-color="#fff" stop-opacity="0.408"/>
      <stop offset="0.414" stop-color="#95ebff"/>
      <stop offset="0.598" stop-color="#3db8f9"/>
      <stop offset="0.82" stop-color="#1b74d8"/>
      <stop offset="1" stop-color="#0024a8"/>
    </linearGradient>
    <linearGradient id="linear-gradient-4" x1="0.027" y1="0" x2="1" y2="0" xlink:href="#linear-gradient-3"/>
  </defs>
  <g id="_Carrossel-imagem-fixa_1-mob_" data-name="&lt;Carrossel-imagem-fixa_1-mob&gt;" transform="translate(-437 -1561.553)">
    <g id="Grupo_232248" data-name="Grupo 232248" transform="translate(473 1578.507)">
      <path id="Caminho_734267" data-name="Caminho 734267" d="M-117.986,0H137.781L92.547,204.1l-255.856-.071Z" transform="translate(163.31 10.97)" fill="url(#linear-gradient)"/>
      <path id="GettyImages-1412762526" d="M-117.069.12,154.341,0l-45.99,207.059-271.66-.159Z" transform="translate(173.659 0)" fill="#fff"/>
      <g id="Grupo_234122" data-name="Grupo 234122" transform="translate(-36 18)">
        <g id="Grupo_233472" data-name="Grupo 233472" transform="translate(51.072 0)" opacity="0.25">
          <g id="Grupo_233471" data-name="Grupo 233471" clip-path="url(#clip-path)">
            <path id="Caminho_770281" data-name="Caminho 770281" d="M287.935,30.94c-.1-1.043.1-2.094.086-3.137-.013-1.233-.1-2.469-.125-3.7h0a.36.36,0,0,0,.166-.353q.007-3.863.013-7.726,0-.505.006-1.011h0c.048-2.958.063-5.915,0-8.873a2.648,2.648,0,0,0,.1-.284,3.438,3.438,0,0,0,.015-2.27c0-.071,0-.142,0-.212-.049-.781-.1-1.2-.313-1.431v0c-.023-.5-.214-.668-.932-.8a5.193,5.193,0,0,0-2.27-.009c-.071,0-.141,0-.212,0-1.206.05-1.557.107-1.656.538l-5.638-.01c-.337-.31-.742-.182-1.117-.185-4.893-.05-9.785-.023-14.677.193-1.447.064-2.9.008-4.349.006-2.135-.267-4.286-.26-6.426-.369-.874-.045-1.748-.067-2.623-.077a5.336,5.336,0,0,0-1.338-.609,3.755,3.755,0,0,0-3.433.625c-.618.005-1.237.009-1.855.009l-5.036.011c-1.408.01-2.815.09-4.219.132-1.554.047-3.106.158-4.66.223a4.72,4.72,0,0,0-1.929-1.1,3.667,3.667,0,0,0-3.583.832c-.061.051-.115.107-.17.162a2.282,2.282,0,0,0-.4-.029c-2.136.068-4.257-.326-6.392-.224-.251.012-.515-.042-.72.186h0c-1.829-.072-3.658.037-5.492-.154-1.564-.163-3.152-.051-4.729-.061-.272-.277-.61-.182-.923-.184-.982-.007-1.964-.007-2.946-.008a5.1,5.1,0,0,0-1.6-.8,3.8,3.8,0,0,0-3.713.862l-.036.033c-1.9.165-3.792.321-5.7.321-1.805,0-3.611-.008-5.418-.012-.23-.277-.536-.195-.817-.195h-2.245a5.294,5.294,0,0,0-1.375-.635,3.757,3.757,0,0,0-3.448.637l-5.866,0-.575,0-1.53-.026h0c-.3-.3-.675-.168-1.019-.182-1.875-.074-3.748-.01-5.621.066a5.138,5.138,0,0,0-1.676-.848,3.844,3.844,0,0,0-3.756.872c-.04.034-.074.071-.112.107-.106,0-.212,0-.318,0-.676-.014-1.353,0-2.03.008-2.691.083-5.381-.131-8.076.17-1.3.145-2.612.055-3.921.133a5.14,5.14,0,0,0-1.67-.844,3.843,3.843,0,0,0-3.756.872,2.621,2.621,0,0,0-.306.309,2.013,2.013,0,0,1-.6-.024,25.7,25.7,0,0,0-4.888-.175c-2.9.084-5.791-.282-8.691-.243a.655.655,0,0,0-.469-.2,5.039,5.039,0,0,0-1.832-.973,3.831,3.831,0,0,0-3.742.869,2.723,2.723,0,0,0-.285.28c-3.023.124-6.053.026-9.081.023a1.615,1.615,0,0,1-.386-.024,35.812,35.812,0,0,0-4.223-.339,16.735,16.735,0,0,0-2.621-.07A5.14,5.14,0,0,0,97.1.175a3.844,3.844,0,0,0-3.756.872,2.687,2.687,0,0,0-.2.187H91.017c-.3-.3-.677-.187-1.019-.179-2.733.066-5.465.021-8.2.12q-.875.032-1.751.068A5.311,5.311,0,0,0,78.687.619a3.819,3.819,0,0,0-3.675.811c-1.6.043-3.194.062-4.792.024-2.286-.053-4.575,0-6.862.017-.342,0-.716-.113-1.017.19h-.1A5.01,5.01,0,0,0,60.334.619a3.844,3.844,0,0,0-3.756.872c-.067.056-.129.115-.189.176l-2.922,0c-.2-.238-.467-.19-.718-.191q-3.354,0-6.708,0a1.074,1.074,0,0,0-.58.077A5.145,5.145,0,0,0,43.8.708a3.789,3.789,0,0,0-3.574.733c-.616-.016-1.221.273-1.845.22h0c-.264-.3-.6-.191-.916-.192q-6.614-.013-13.228-.012c-.453.009-.869-.22-1.331-.215-2.222.024-4.444.03-6.666.006-.457,0-.881.313-1.328.152a5.39,5.39,0,0,0-1.723-.15c-2.707-.088-5.42.116-8.126-.069-.063-.014-.128-.028-.2-.042a6.01,6.01,0,0,0-1.753-.1c-.08,0-.159.006-.239.011a2.8,2.8,0,0,0-.542.087C.813,1.2.687,1.28.684,2.161Q.672,5.237.667,8.313c-.31.22-.182.483-.185.727C.432,12.229.46,15.416.676,18.6c.064.943.008,1.889.006,2.834a37.392,37.392,0,0,0-.369,4.187C.155,27.629.265,29.642.261,31.651l.011,3.281c.01.917.09,1.834.132,2.749.069,1.481.281,2.96.276,4.443,0,.586,0,1.172,0,1.757a2.976,2.976,0,0,0-.184.8C.563,46.07.169,47.452.271,48.844c.012.163-.042.336.186.469h0C.384,50.506.494,51.7.3,52.892a20.74,20.74,0,0,0-.061,3.081c-.277.177-.182.4-.184.6C.045,57.668.043,58.76.044,59.853a11.974,11.974,0,0,0,.03,1.575,32.344,32.344,0,0,1,.394,4.263c0,1.177-.008,2.353-.012,3.53-.277.15-.195.349-.195.532q0,4.214.006,8.427l0,.375q-.013.5-.026,1h0c-.3.2-.168.44-.182.664C-.1,82.712.329,85.2.248,87.7c-.014.44,0,.882.008,1.323a42.349,42.349,0,0,0,.17,5.262c.188,1.1-.023,2.212.256,3.312h0c0,.69,0,1.38.013,2.07.011.436.319.864.178,1.3A10.97,10.97,0,0,0,.7,104.152c.084,1.89-.282,3.773-.243,5.663-.283.175-.191.4-.191.6,0,1.089.071,2.176.15,3.265.15,2.055.04,4.116.037,6.175a.693.693,0,0,1-.024.251,15.419,15.419,0,0,0-.339,2.752,13.483,13.483,0,0,0-.032,2.707c0,.184-.072.382.184.538v3.5h0c-.3.2-.187.441-.179.664.066,1.781.021,3.561.12,5.343.14,2.513.368,5.027.278,7.545-.053,1.49,0,2.981.017,4.471,0,.223-.113.466.19.663q.007.31.013.62-.006,2.581-.012,5.161c-.238.131-.19.3-.191.468q0,2.185,0,4.37c0,.163-.052.338.2.466q.007.378.015.755a8.345,8.345,0,0,1-.2,2.354c-.172.476.244.939.182,1.417h0c-.3.172-.191.394-.192.6q-.013,4.309-.012,8.619c.009.3-.22.566-.215.867.024,1.447.03,2.9.006,4.344,0,.3.313.574.152.865a2.344,2.344,0,0,0-.15,1.123c-.1,2.072.2,4.15-.2,6.22a1.676,1.676,0,0,0,0,.5c.072.645.358.809,1.437.831.355.007.713.023,1.064,0a4.84,4.84,0,0,0,1.746-.13c1.065-.125,1.077-.125,1.076-.7,0-1.2-.019-2.39-.03-3.585a11.455,11.455,0,0,0,.014-4.289q0-3.53-.009-7.059a27.082,27.082,0,0,0,.209-4.169c.094-1.087.091-2.176.172-3.264.142-1.905.051-3.817.047-5.726,0-.2.07-.424-.185-.6.008-1.3.023-2.6.023-3.906q0-6.806,0-13.611c0-2.058-.036-4.117-.055-6.175q0-6.858,0-13.716a.4.4,0,0,0-.179-.414h0q-.011-.372-.021-.745c.007-.23.023-.461.02-.691-.019-1.884-.1-3.767-.179-5.651-.136-3.121-.062-6.246-.069-9.368-.006-2.326,0-4.653,0-6.979h0q.018-1.509.035-3.017h0c.217-.138.173-.312.183-.477.061-1,.058-2.007.176-3.012a31.82,31.82,0,0,0,.059-3.459,7.938,7.938,0,0,0,.159-2.693,17.078,17.078,0,0,1-.1-4.768A42.7,42.7,0,0,0,5.79,75.15h0q0-4.156,0-8.311a9.222,9.222,0,0,0-.049-1.447,38.521,38.521,0,0,1-.323-3.953,39.834,39.834,0,0,1,.319-6.217c.162-1.59.051-3.189.061-4.784a13.662,13.662,0,0,0,.224-3.516c.214-.137.177-.31.179-.473.007-.56,0-1.119,0-1.679L6.219,43.5h0c.01-.273.039-.545.028-.817-.054-1.381-.094-2.761-.2-4.143-.189-2.531.05-5.068-.2-7.6-.1-1.043.1-2.094.086-3.137-.013-1.233-.1-2.469-.125-3.7h0a.36.36,0,0,0,.166-.353l.013-7.726q0-.505.006-1.011h0c.047-2.885.063-5.769.008-8.654l2.36-.016a26.842,26.842,0,0,0,6.581.014l10.834-.009a63.591,63.591,0,0,0,6.4.209c1.668.094,3.339.091,5.009.172.743.036,1.487.057,2.232.068a5.4,5.4,0,0,0,.625.856q.622.7,1.254,1.39a1.091,1.091,0,0,1,.3.765c0,.44-.005.881,0,1.321.012.682.035,1.365.048,2.047a.126.126,0,0,1-.019-.033c-.017-.055-.031-.1-.044-.133l-.007-.018a.336.336,0,0,0-.043-.083v0h0c-.051-.064-.127-.064-.317-.06-.036,0-.072.007-.109.011a7.046,7.046,0,0,0-1.4.063h0c-.475.009-.952,0-1.426.03-1.264.078-2.526.184-3.79.256q-.238.013-.476.031l-.294.028c-.751.058-1.5.129-2.251.2a4.981,4.981,0,0,0-1.087.127,8.989,8.989,0,0,0-1.4.154h0a3.944,3.944,0,0,0-.833.1q-1.537.226-3.068.486c-.66.112-1.324.206-1.974.375a2,2,0,0,0-.216.028c-1.163.27-2.329.53-3.482.844-.879.239-1.757.482-2.614.791l-.075.024q-.277.1-.552.213l-.176.07-.061.027c-.046.019-.091.041-.135.064-.012.006-.025.01-.036.017l-.011.01a.852.852,0,0,0-.212.163.218.218,0,0,1-.065.09c-.08.053-.076.137-.08.218a.266.266,0,0,0-.071.217c-.112.117-.09.278-.105.413a3.718,3.718,0,0,0,.016,1.286c0,.005,0,0-.006.014a.073.073,0,0,0,.02.062,1.079,1.079,0,0,0,.139.584.313.313,0,0,0,.066.216h0a.286.286,0,0,1,.014.044c0,.009.007.017.01.025a3.556,3.556,0,0,0,.562,1.148.426.426,0,0,0,.6.175c.183-.069.359-.156.544-.218q1.029-.346,2.062-.675c-.02.1-.042.2-.069.291q-.378,1.317-.7,2.648l-.093.279.026.013c-.148.634-.287,1.27-.409,1.911-.255,1.337-.516,2.673-.639,4.033-.1,1.122-.24,2.241-.35,3.362h0c-.023.193-.042.352-.058.488l.014.01c0,.03-.006.059-.009.089a11.669,11.669,0,0,0-.151,1.865,1.858,1.858,0,0,0-.079.328c-.043.756-.075,1.514-.117,2.27-.054.984-.1,1.969-.173,2.95-.148,1.909-.227,3.82-.192,5.736-.03.416-.075.831-.089,1.247-.076,2.278-.045,4.555.107,6.83a1.948,1.948,0,0,0,.082.839h0c0,.144.009.287.014.431,0,.038,0,.077.005.116v.222q.006,1.5.011,3.009a.554.554,0,0,0,.077.326h0c0,.208-.006.416-.007.624-.006.814.012,1.629-.025,2.441-.034.756-.087,1.51-.067,2.267a4.254,4.254,0,0,0-.081.5c-.081,1.811-.17,3.622-.226,5.435-.038,1.247-.028,2.494-.039,3.742h0a.66.66,0,0,0-.1.488c0,1.174,0,2.348.013,3.523a7.484,7.484,0,0,0,.088,1.585,10.173,10.173,0,0,0,.059,1.557c0,.016,0,.031,0,.047.012.072.027.145.044.217h0c-.007.6.028,1.2-.033,1.8h0a16.248,16.248,0,0,0-.072,2.191q-.118,2.613-.236,5.226h0a.558.558,0,0,0-.087.376c-.021,1.054-.16,2.1-.208,3.152a26.772,26.772,0,0,0-.142,3.212,2.525,2.525,0,0,0-.011.686l0,.34a4.323,4.323,0,0,0-.078,1.19c.093,1.251.065,2.5.108,3.757a.537.537,0,0,0,.079.325c-.036,1.283.132,2.558.164,3.838a.522.522,0,0,0,.059.156c0,.114-.009.228,0,.341q.172,2.236.348,4.472c.127,1.622.232,3.247.393,4.867a8.063,8.063,0,0,0,.192,1.689,9.352,9.352,0,0,0,.11,1.632c.061.939.154,1.875.234,2.813a10.532,10.532,0,0,0,.09,2.056h0l.026.908q0,1.19,0,2.38,0,4-.009,7.993,0,1.082,0,2.164,0,1.195.01,2.391c-.016.535-.03,1.07-.009,1.6,0,.011,0,.023,0,.034,0,.1.009.2.016.3v0c0,.037-.01.074-.015.112,0,.057,0,.114-.005.17l-.006.17a.857.857,0,0,0-.021.207,17.52,17.52,0,0,0-.082,2.3,7.219,7.219,0,0,0-.1,1.71c0,.038,0,.077,0,.115l0,.112c0,.038,0,.077,0,.115q0,.17-.01.341a.148.148,0,0,0-.009.09c-.013.065-.017.13-.027.2a.259.259,0,0,0-.007.048,12,12,0,0,0-.037,1.71c0,.05.047.1.073.149h0c-.175.7-.057.963.571,1.266a1.029,1.029,0,0,0,.468.187v0l.005,0c.015.011.034.034.045.031h0a1.139,1.139,0,0,0,.634.194l.043.017.046,0a.387.387,0,0,0,.361.088,7.234,7.234,0,0,0,2.514.139,23.18,23.18,0,0,0,3.56-.165,3.333,3.333,0,0,0,1.11-.187,13.578,13.578,0,0,0,2.021-.272c.447-.071.891-.169,1.335-.263.142-.03.325-.034.354-.227a2.265,2.265,0,0,0,.015-.733c0-.01-.016-.018-.032-.025l.078-.011v-.579a.582.582,0,0,0,.073-.27c.018-.3.028-.605.041-.908a3.063,3.063,0,0,0,.148-1.047,26.214,26.214,0,0,0,.29-2.96,4.6,4.6,0,0,0,.093-.5c.118-1.527.24-3.053.341-4.581s.174-3.058.272-4.587c.046-.716.148-1.43.176-2.147.03-.775.192-1.541.148-2.32a18.855,18.855,0,0,0,.234-2.734,5.728,5.728,0,0,0,.152-1.456,21.932,21.932,0,0,0,.185-2.648,3.4,3.4,0,0,0,.113-.9c.1-1.263.231-2.525.3-3.79.05-.945.2-1.884.161-2.834a7.586,7.586,0,0,0,.129-1.684.43.43,0,0,0,.033-.114,3.506,3.506,0,0,0,.055-.935v-.232a18.578,18.578,0,0,0,.18-2.367,27.335,27.335,0,0,0,.168-3.217,8.662,8.662,0,0,0,.117-1.824c.148-.976.151-1.963.233-2.944.1-1.226.217-2.452.3-3.68a16.719,16.719,0,0,0,.152-2.039c.223-1.355.327-2.724.468-4.088a2.039,2.039,0,0,0,.1-.926,1.558,1.558,0,0,0,.105-.8c.081-.58.165-1.16.242-1.74.171-1.292.351-2.584.5-3.878.1-.825.264-1.642.283-2.475a24.58,24.58,0,0,0,.362-3.27,1.625,1.625,0,0,0,.092-.83l.016-.228a3.346,3.346,0,0,0,.119-1.139,27.374,27.374,0,0,0,.339-3.279c.19-.87.221-1.76.327-2.641.1-.845.193-1.691.266-2.539.027.381.03.763.025,1.146a4.147,4.147,0,0,1-.06.921.534.534,0,0,0,.044.449.789.789,0,0,1,.057.618,7.359,7.359,0,0,0-.191,1.474c.009.18.076.348.075.526,0,.7.121,1.395.075,2.1q0,1.412,0,2.823c0,.429.013.858-.006,1.286-.009.195.092.367.063.563a9.91,9.91,0,0,0-.129,1.555c-.115.106-.068.246-.069.371,0,.916,0,1.832,0,2.747,0,.142-.028.283-.038.422a7.46,7.46,0,0,0-.091,1.663,10.132,10.132,0,0,1,.057,1.242c.007.238,0,.476,0,.714.022.3-.06.591-.064.885-.016,1.108-.007,2.216-.007,3.325,0,.084-.006.169.071.229a10.472,10.472,0,0,0,.066,1.1,11.938,11.938,0,0,0,.136,2.091.769.769,0,0,0,.425.6,4.625,4.625,0,0,0,1.352.4,13.7,13.7,0,0,0,3.03.318.266.266,0,0,0,.263.068,5.364,5.364,0,0,1,1.009.043c.017.322.033.644.051.966.037.681.078,1.363.133,2.043.131,1.625.26,3.25.412,4.872.154,1.642.309,3.284.51,4.92.193,1.582.327,3.169.392,4.759.078,1.9.2,3.788.4,5.674a4.87,4.87,0,0,0,.172,1.288l.02.2c.02,1.071.184,2.131.29,3.194a3.612,3.612,0,0,0,.149,1.165,23.953,23.953,0,0,0,.253,2.711,9.115,9.115,0,0,0,.113,1.823,7.921,7.921,0,0,0,.092,1.854h0a1.537,1.537,0,0,0,.019.533,11,11,0,0,0,.049,1.667.787.787,0,0,0,.047.305c-.035,1.365.115,2.723.18,4.084.026.547.054,1.1.094,1.643.105,1.434.231,2.867.291,4.3.028.663.133,1.318.2,1.976l-.045-.014c0,.352,0,.5.088.59.006.135.01.269.008.4,0,.216.162.337.311.451a4.04,4.04,0,0,0,1.355.7,12.34,12.34,0,0,0,4.829.411,5.107,5.107,0,0,0,1.6-.2,6.668,6.668,0,0,0,1.815-.349.519.519,0,0,1,.094-.1l0,0h0l0,.006a.142.142,0,0,1-.1.1,2.079,2.079,0,0,0,.91-.23h0a15.52,15.52,0,0,0,3.186-.993,1.921,1.921,0,0,0,.685-.386c0-.029-.005-.058-.008-.087h0c0-.01,0-.019,0-.029,0-.032-.008-.064-.014-.1,0-.007,0-.013,0-.02l0,0a.09.09,0,0,1,.017.037.23.23,0,0,1,.006.026.552.552,0,0,1,0,.061,1,1,0,0,0,0,.105c.148-.087.114-.238.1-.358a3.2,3.2,0,0,1-.024-.483c.01-.2.018-.374.03-.605l-.009,0c0-.088.007-.176.007-.264,0-1.063,0-2.126,0-3.19q0-3.018,0-6.036h0c.092-1.13.1-2.263.1-3.4q.007-2.976.026-5.953c0-.067.006-.134.009-.2a.575.575,0,0,0,.074-.325q.02-1.945.038-3.89a.712.712,0,0,0,.07-.212c-.011-1.535.187-3.062.158-4.6a.817.817,0,0,0,.068-.21q.084-1.939.161-3.879a1.011,1.011,0,0,0,.086-.553c.023-.322.023-.646.052-.967a27.22,27.22,0,0,0,.185-3.406h0q0-.227.006-.454c.115-1.318.233-2.637.344-3.956.022-.264.013-.531.029-.8,0-.06.009-.12.013-.18a2.639,2.639,0,0,0,.23.191c.168.123.289.3.528.286a.511.511,0,0,0,.244.153,9.868,9.868,0,0,0,2.173.585l1.013.2q-.133,2.867-.257,5.734a4.671,4.671,0,0,0-.021.886,1.183,1.183,0,0,0-.048.2c-.087,1.47-.157,2.942-.115,4.416.054,1.868.18,3.734.178,5.6a.373.373,0,0,0,.1.31.514.514,0,0,1,.335.091l.328.021a.3.3,0,0,1,.017.06,1.117,1.117,0,0,1,.5.09,2.679,2.679,0,0,1,.764.087l.91.021,0,0H70.4a.083.083,0,0,0,.013.063l.03-.014.028.018a19.112,19.112,0,0,0,2.315.04,2.91,2.91,0,0,0,1-.041,1.253,1.253,0,0,1,.5-.037,14.629,14.629,0,0,0,1.636-.04l.147-.01c.226-.1.48.036.705-.082l.025-.018.028.012a.292.292,0,0,0,.083-.052.4.4,0,0,0,.36-.032.265.265,0,0,0,.17-.165.24.24,0,0,0,.033-.057.37.37,0,0,0,.136-.292c0-.053.007-.106.01-.159l.016-.253c.045-.735.087-1.471.157-2.2.173-1.827.362-3.652.555-5.476a23.093,23.093,0,0,0,.078-4.227,26.068,26.068,0,0,1-.1-2.664c.01-.393.024-.787.037-1.18l.56,0a3.675,3.675,0,0,0,1.682-.182.791.791,0,0,1,.41-.069c.367.027.718-.1,1.083-.1a.9.9,0,0,0,.484-.107,4.22,4.22,0,0,1,1.383-.46,7.719,7.719,0,0,0,1.9-.772c.769-.452,1.487-.99,2.222-1.5l.056-.04a.22.22,0,0,1,.075-.145,2.692,2.692,0,0,1,.505-.342c.307-.341.62-.766,1.088-.814q.3-.256.582-.524c.688-.457,1.295-1.027,1.981-1.479.945-.622,1.916-1.21,2.921-1.738h0q.039.947.086,1.895c.058,1.134.112,2.27.218,3.4a31.216,31.216,0,0,1,.137,3.443c0,.147-.006.294,0,.442.029.915.143,1.827.111,2.745a1.77,1.77,0,0,0,.02.265c.08.69.148,1.379.176,2.075s.12,1.382.186,2.073c0,.027.027.051.042.077a14.212,14.212,0,0,0,.189,1.8c.173,1.609.327,3.22.545,4.824a3.353,3.353,0,0,0,.155.993.068.068,0,0,1,.032.03l-.032-.03c.043.5.067,1,.138,1.489a3.232,3.232,0,0,0,.126.908c.152,1.233.153,2.477.273,3.712.168,1.734.192,3.48.443,5.208.14.963.13,1.945.306,2.9a3.543,3.543,0,0,0,.1.786.8.8,0,0,1,.04.494l-.014,0-.056.083c.01.015.018.031.027.047a.332.332,0,0,0-.137.163.263.263,0,0,0-.159.192,2.093,2.093,0,0,0-.018,1.148,4.03,4.03,0,0,0,.245,1.436h0a2.532,2.532,0,0,0,.444.885,9.361,9.361,0,0,0,1.689.884,1.078,1.078,0,0,0,.464.15,2.673,2.673,0,0,0,.979.179c.348.048.694.109,1.043.14a12.81,12.81,0,0,0,1.975.056l.088-.008c.573-.031,1.148-.042,1.718-.1a6.774,6.774,0,0,0,1.932-.4.969.969,0,0,0,.436-.112h0a1.226,1.226,0,0,0,.635-.158,3.44,3.44,0,0,0,.889-.356.229.229,0,0,0,.184-.084,2.4,2.4,0,0,0,1.065-.723c.169-.132.192-.362.337-.509a.667.667,0,0,0,.174-.566c-.041-.514-.068-1.028-.106-1.543a.567.567,0,0,0-.065-.16c-.013-.182.136-.364.005-.547a8.746,8.746,0,0,1,.1-1.3,11.551,11.551,0,0,0,.226-1.738c.076-.421.122-.847.211-1.264.175-.824.176-1.667.331-2.5.168-.9.239-1.811.352-2.718.069-.556.13-1.113.208-1.668.156-1.1.131-2.209.235-3.311a14.644,14.644,0,0,0,.206-1.8.107.107,0,0,0-.03-.012l0-.006.026.018a.751.751,0,0,0,.069-.43c.016-.34-.005-.682.028-1.019.112-1.117.2-2.237.316-3.352s.14-2.24.286-3.354a.287.287,0,0,0,.069-.185,12.962,12.962,0,0,1-.071,2.412,18.075,18.075,0,0,0-.1,2.239.672.672,0,0,0-.083.382c0,.05,0,.1,0,.151a2.057,2.057,0,0,0-.016.625c-.036.688-.114,1.373-.151,2.059-.172,3.213-.4,6.425-.388,9.644,0,1.148-.193,2.286-.127,3.435.037.628.119.76.7.947a3.314,3.314,0,0,0,.586.081v-.009c.114.132.266.112.415.1a9.492,9.492,0,0,1,3.775,1.833,4.837,4.837,0,0,0,.922.518,16.626,16.626,0,0,0,2.11.8c-.008.045-.017.091-.025.136a5.27,5.27,0,0,0-.3,1.273.954.954,0,0,0,.3,1.129,5.291,5.291,0,0,0,1.515,1.068,4.454,4.454,0,0,0,1.766.806h0a1.015,1.015,0,0,0,.535.17l.029.021.036,0a.375.375,0,0,0,.284.085v0h0a4.147,4.147,0,0,0,2.315.436.435.435,0,0,0,.267-.008c.453,0,.905.015,1.357,0a1.892,1.892,0,0,0,.776-.075,2.754,2.754,0,0,0,.98-.084,6.839,6.839,0,0,0,1.774-.447h0a.767.767,0,0,0,.447-.26h0a2.121,2.121,0,0,0,.972-.892c.143-.2.387-.324.411-.6a4.134,4.134,0,0,0,.036-1.1.221.221,0,0,0-.009-.18c0-.116-.008-.232,0-.348.009-.179-.09-.184-.2-.175a.692.692,0,0,0-.031-.131l-.124.049a.376.376,0,0,1-.074-.15c1.158-.034,2.316-.081,3.475-.108s2.338-.025,3.508-.037a27.846,27.846,0,0,0,3.92-.014.978.978,0,0,0,.507-.1,12.251,12.251,0,0,0,1.917-.077c1.715-.171,3.4-.5,5.1-.805a13.556,13.556,0,0,0,3.658-1.306,18.385,18.385,0,0,1,5.088-1.822h0a20.818,20.818,0,0,0,3.288-.327,16.46,16.46,0,0,0,2.574-.6.985.985,0,0,0,.766-.958c.024-.9.019-1.809.026-2.714h0a1.59,1.59,0,0,0,.092-.781c.009-.752.006-1.5.007-2.256,0-.771.011-1.543.02-2.314.349.05.694.129,1.046.154h0a2.733,2.733,0,0,0,1,.108l.041.024.046-.01a.549.549,0,0,0,.135.055c1.057.129,2.113.258,3.159.458a7.641,7.641,0,0,0,1.688.383.822.822,0,0,0,.187.04,15.944,15.944,0,0,0,2.428.349h0a.239.239,0,0,0,.2.01l.042.022.045-.016a4.278,4.278,0,0,0,1.817,0l.048.009.041-.026a1.973,1.973,0,0,0,.486-.079c.318-.027.4-.2.425-.491.039-.559.128-1.114.167-1.673l.027,0-.023-.053a2.5,2.5,0,0,0-.071-1.129c-.019-1.12-.143-2.237-.1-3.358a1.36,1.36,0,0,0,.033-.638,34.681,34.681,0,0,1,.016-4.577,2.873,2.873,0,0,0,0-.794,8.155,8.155,0,0,1-.067-1.635c0-.28,0-.559,0-.838,1.111-.051,2.22-.176,3.33-.175.389,0,.776-.006,1.164-.017l.014.07a3.139,3.139,0,0,1,.094.927,27.69,27.69,0,0,0,.286,4.44,6.275,6.275,0,0,0,.06.658c.073.413.211.52.627.5a11.844,11.844,0,0,1,1.923,0,19.672,19.672,0,0,0,4.01.071,6.507,6.507,0,0,0,1.689-.173,8.353,8.353,0,0,0,1.975-.337,1.256,1.256,0,0,0,.674-.318c.049-.023.1-.044.1-.108.03-.4.077-.8.086-1.193a3.078,3.078,0,0,0-.072-1.237,1.952,1.952,0,0,0-.1-.805c-.017-.6-.111-1.187-.132-1.782,1.666.025,3.329.191,5,.126a.962.962,0,0,1,.206.012,11.272,11.272,0,0,0,2.528.048c1.15-.048,2.3-.173,3.452-.169,1.483.006,2.96-.163,4.443-.12a1.6,1.6,0,0,0,.206-.011,24.221,24.221,0,0,1,2.932-.191,5.42,5.42,0,0,0,.671-.03c.683-.075,1.363-.17,2.053-.2.514-.02,1.032-.05,1.544-.1a3.007,3.007,0,0,0,.854-.189c.235-.1.324-.227.234-.431.133.01.267.021.4.03a.161.161,0,0,0,.129.008l.659.043a.37.37,0,0,0,.317-.071c.025.043.054.085.075.128a.368.368,0,0,0,.162-.273c0-.092,0-.183,0-.275a.507.507,0,0,1,.246-.03,8.16,8.16,0,0,0,2.517-.145.561.561,0,0,1,.232-.009.4.4,0,0,0,.2.372c.011-.024.023-.047.035-.069.1.091.249.046.389.02a11.6,11.6,0,0,1,2.135-.191,41.615,41.615,0,0,0,6.884-.444v.006l.027-.01q.485-.081.968-.183a41.925,41.925,0,0,0,4.27-1.025c.835-.27,1.682-.51,2.531-.735a27.555,27.555,0,0,0,4.05-1.381,1.444,1.444,0,0,0,.949-1.608c-.042-.567-.109-1.133-.188-1.7a27.312,27.312,0,0,1-.4-4.216,1.74,1.74,0,0,1,.138-.691,3.571,3.571,0,0,0,.328-1.77,29.11,29.11,0,0,1,0-2.973,5.852,5.852,0,0,0-.09-1.586c-.015-.545-.019-1.091-.046-1.635.4.012.805.011,1.207-.014a1.78,1.78,0,0,0,.134.793c.078,1.208.158,2.416.231,3.624.024.4,0,.811.054,1.208a30.18,30.18,0,0,1,.293,3.618,19.825,19.825,0,0,0,.158,2.135,19.9,19.9,0,0,1,.24,2.02,30.129,30.129,0,0,0,.566,5.242.7.7,0,0,1-.018.434,1.637,1.637,0,0,0-.029,1.024,7.013,7.013,0,0,1,.143,2.517,15.419,15.419,0,0,0-.158,3.236,1.137,1.137,0,0,0,.878,1.124,7.572,7.572,0,0,0,1.117.279,39.8,39.8,0,0,0,5.328.318c.679,0,1.359.018,2.038.031a8.8,8.8,0,0,0,1.321-.034.4.4,0,0,0,.388-.383c.2-1.23.607-2.418.74-3.664a4.506,4.506,0,0,1,.437-1.413,11.625,11.625,0,0,0,.628-2.721,8.068,8.068,0,0,0,.154-1.971c-.047-.99-.116-1.979-.176-2.968.079-.686-.094-1.361-.065-2.056a19.407,19.407,0,0,0-.241-2.706c-.007-1.909,0-3.818-.027-5.727,0-.2,0-.392,0-.588a20.075,20.075,0,0,0,2.907-1.856,11.108,11.108,0,0,0,1.265-1.071c.111-.112.214-.261.406-.2s.191.232.2.4c.014.264.03.527.043.79.028.595.07,1.188.11,1.783h0a.412.412,0,0,0,.02.267c.02.313.043.626.057.94.017.389.03.781.066,1.17h-.027a.243.243,0,0,0,.056.244,5.683,5.683,0,0,0,.136.761c.1.4.183.435.581.511a8.01,8.01,0,0,0,1.435-.01,7.451,7.451,0,0,0,1.271.026,5.605,5.605,0,0,1,1.1-.231,6.544,6.544,0,0,0,1.851-.239,10.806,10.806,0,0,0,2.164-.583,1.175,1.175,0,0,0,.253-.157h0a.268.268,0,0,0,.1-.1l0-.006a.894.894,0,0,0,.157-.546c.024-.9-.068-1.8-.1-2.7a.291.291,0,0,0-.007-.239c0-.108-.009-.216-.009-.325,0-1.02-.007-2.04-.01-3.06a4.849,4.849,0,0,0-.1-1.289c.015-.618.038-1.236.035-1.856-.007-1.661-.194-3.316-.141-4.976a10.65,10.65,0,0,1-.09-1.487,16.919,16.919,0,0,0,.07-2.333c.113-2.7-.106-5.391-.1-8.088a.912.912,0,0,0-.009-.213.565.565,0,0,0-.06-.133.1.1,0,0,0-.03-.055,51.172,51.172,0,0,0-.2-5.877,22.83,22.83,0,0,1-.239-3.89,1.634,1.634,0,0,0-.02-.321,16.538,16.538,0,0,1-.189-2.07,4.187,4.187,0,0,0-.192-1.688.666.666,0,0,1-.025-.265c0-.749-.177-1.489-.116-2.241a.789.789,0,0,0-.1-.412,6.811,6.811,0,0,0-.113-1.181c-.016-.748-.12-1.49-.127-2.241a4.473,4.473,0,0,0-.114-1,15.8,15.8,0,0,1-.4-3.814q0-1.449,0-2.9a3.075,3.075,0,0,0-.064-.637,2.717,2.717,0,0,1,.007-1.117,3.622,3.622,0,0,0,0-1.382,2.481,2.481,0,0,1-.054-.477,18.436,18.436,0,0,0-.252-2.44c-.03-.247.019-.543-.176-.763.024-.19-.092-.351-.113-.532a10.748,10.748,0,0,0-.426-1.4.759.759,0,0,0-.111-.43c0-.118.016-.242-.1-.321h0a10,10,0,0,0-.858-3.014,15.969,15.969,0,0,0-1.831-3.864h0a5.584,5.584,0,0,0-.579-.96,10.34,10.34,0,0,0-1.815-1.806.631.631,0,0,0-.446-.139.709.709,0,0,1-.544-.284,5.588,5.588,0,0,0-2.634-1.653.234.234,0,0,0-.217-.1.224.224,0,0,0-.214-.1.663.663,0,0,0-.309-.122,18.461,18.461,0,0,0-2.17-1.04,5.762,5.762,0,0,0-1.385-.566.591.591,0,0,0-.122-.1c-.993-.445-1.978-.906-2.982-1.321a11.31,11.31,0,0,1-1.6-.744c-.5-.3-1.044-.532-1.536-.853h0a1.372,1.372,0,0,0-.525-.422,2.987,2.987,0,0,0-1.3-.644h0a.714.714,0,0,0-.433-.214,7.934,7.934,0,0,0-1.188-.533,8.184,8.184,0,0,0-.79-.274c-.078-.061-.156-.123-.234-.185a4.669,4.669,0,0,0-.791-.548.235.235,0,0,0-.181-.116,1.37,1.37,0,0,0-.52-.321.465.465,0,0,0-.173-.137c-.409-.254-.845-.455-1.275-.669a.631.631,0,0,0-.3-.1.146.146,0,0,0-.136-.062.111.111,0,0,0-.044-.037s-.008-.009-.013-.011a.188.188,0,0,0-.074-.012,1.544,1.544,0,0,0-.228-.1l-.056-.021-.013,0h0l-.209-.068a6.757,6.757,0,0,0-1.526-.237l-.038-2.4a2.265,2.265,0,0,0-.288-1.085,4.037,4.037,0,0,0-.921-1.178q-.331-.308-.645-.634c1.145.02,2.292.119,3.433.111,1.892-.013,3.788-.1,5.684-.125h0a.694.694,0,0,0,.541.166l11.857.013,1.552.006h0c5.288.056,10.577.07,15.864-.033q0,.68,0,1.359c-.31.22-.182.483-.185.727-.05,3.188-.023,6.376.193,9.563.064.943.008,1.889.006,2.834a37.4,37.4,0,0,0-.369,4.187c-.158,2.005-.048,4.017-.052,6.026q.006,1.641.011,3.281c.01.917.09,1.834.132,2.749.069,1.481.281,2.96.276,4.443,0,.586,0,1.172,0,1.757a2.974,2.974,0,0,0-.184.8c.068,1.392-.326,2.774-.225,4.165.012.163-.041.336.186.469h0c-.072,1.192.037,2.384-.154,3.578a20.649,20.649,0,0,0-.061,3.081c-.277.177-.182.4-.184.6-.013,1.093-.014,2.185-.014,3.278a11.975,11.975,0,0,0,.03,1.575,32.343,32.343,0,0,1,.394,4.263c0,1.177-.008,2.353-.012,3.53-.277.15-.195.349-.195.532q0,4.214.006,8.427c0,.125,0,.25,0,.375q-.013.5-.026,1h0c-.3.2-.168.44-.182.664-.152,2.5.276,4.987.195,7.482-.014.44,0,.882.008,1.323a42.273,42.273,0,0,0,.171,5.262c.187,1.1-.023,2.212.255,3.312h0c0,.69,0,1.38.013,2.07.011.436.319.864.177,1.3a10.983,10.983,0,0,0-.175,3.185c.084,1.89-.281,3.773-.243,5.663-.283.175-.191.4-.191.6,0,1.089.071,2.176.15,3.265.15,2.055.04,4.116.037,6.175a.693.693,0,0,1-.024.251,15.417,15.417,0,0,0-.339,2.752,13.483,13.483,0,0,0-.032,2.707c0,.184-.072.382.184.538q0,1.751,0,3.5h0c-.3.2-.187.441-.179.664.066,1.781.022,3.561.12,5.343.14,2.513.368,5.027.279,7.545-.053,1.49,0,2.981.017,4.471,0,.223-.113.466.19.663q.006.31.013.62-.005,2.581-.012,5.161c-.238.131-.19.3-.191.468q0,2.185,0,4.37c0,.163-.052.338.2.466.005.252.01.5.015.755a8.346,8.346,0,0,1-.2,2.354c-.172.476.244.939.182,1.417h0c-.3.172-.191.394-.191.6q-.014,4.309-.012,8.619c.008.3-.22.566-.215.867.024,1.447.03,2.9.006,4.344,0,.3.314.574.152.865a2.343,2.343,0,0,0-.15,1.123c-.1,2.072.2,4.15-.2,6.22a1.676,1.676,0,0,0,0,.5c.072.645.358.809,1.437.831.355.007.713.023,1.064,0a4.84,4.84,0,0,0,1.746-.13c1.065-.125,1.077-.125,1.076-.7,0-1.2-.019-2.39-.03-3.585a11.449,11.449,0,0,0,.014-4.289q0-3.53-.008-7.059a27.127,27.127,0,0,0,.209-4.169c.094-1.087.091-2.176.172-3.264.142-1.905.051-3.817.047-5.726,0-.2.07-.424-.185-.6.008-1.3.022-2.6.023-3.906q0-6.806,0-13.611c0-2.058-.036-4.117-.055-6.175q0-6.858,0-13.716a.4.4,0,0,0-.179-.414h0q-.011-.372-.022-.745c.007-.23.023-.461.02-.691-.019-1.884-.1-3.767-.179-5.651-.136-3.121-.062-6.246-.069-9.368-.005-2.326,0-4.653,0-6.979h0q.018-1.509.035-3.017h0c.217-.138.173-.312.183-.477.061-1,.058-2.007.176-3.012a31.721,31.721,0,0,0,.059-3.459,7.947,7.947,0,0,0,.16-2.693,17.064,17.064,0,0,1-.1-4.768,42.687,42.687,0,0,0,.145-4.518h0q0-4.156,0-8.311a9.186,9.186,0,0,0-.049-1.447,38.518,38.518,0,0,1-.323-3.953,39.83,39.83,0,0,1,.319-6.217c.162-1.59.051-3.189.061-4.784a13.661,13.661,0,0,0,.224-3.516c.214-.137.177-.31.179-.473.007-.56,0-1.119,0-1.679l.018-1.267h0c.01-.273.039-.545.028-.817-.054-1.381-.094-2.761-.2-4.143-.189-2.531.05-5.068-.2-7.6M169.4,130.3q-.04-.026-.082-.049a.28.28,0,0,1,.081-.056c0,.035,0,.07,0,.105M36.306,74.559h0v0h0c.008,0,.012,0,.011,0a.016.016,0,0,1-.011,0M18.491,152.39s0,.008,0,.012,0,.024,0,.037,0,.03.005.047,0,.031.007.048v.01l0,0a.151.151,0,0,1-.048-.043l-.011-.016a.16.16,0,0,1-.018-.088c.021,0,.043,0,.064,0m-3-134.606a.209.209,0,0,0,.041,0c-.007.013-.012.024-.019.037l-.022-.033M175.5,7.562q.622.7,1.254,1.39a1.091,1.091,0,0,1,.3.765c0,.44-.005.881,0,1.321.006.367.016.734.026,1.1-.017.006-.036.009-.053.015a3.867,3.867,0,0,0-1.258.316,1.638,1.638,0,0,0-.534.218l-.005,0-.051.031-.026,0-.014.006a.109.109,0,0,0-.038.017l-.014.006a.124.124,0,0,0-.024.034h0c-.018,0-.035,0-.051,0h-.016l0,0a.141.141,0,0,0-.045.011c-.074.037-.146.076-.218.114l-.037.018-.037.021c-.2.1-.391.214-.581.33l-.094.06c-.2.124-.391.253-.579.4a.2.2,0,0,0-.037.01.135.135,0,0,0-.027.007.108.108,0,0,0-.047.051c-.026.015-.053.028-.078.044a19.426,19.426,0,0,0-2.777,2.436.788.788,0,0,0-.252.234,5.036,5.036,0,0,0-.662.517,10.62,10.62,0,0,1-.944.565,3.726,3.726,0,0,0-.375,0,2.765,2.765,0,0,1-.377-.024c-.346-.153-.689-.313-1.021-.5l-.015-.018-.018-.011a.374.374,0,0,0-.124-.076l-.007,0-.018-.007a.12.12,0,0,0-.084-.059l-.007-.005-.02,0-.027-.028-.01-.007a2.014,2.014,0,0,0-.333-.244c-.052-.038-.1-.075-.155-.114-.377-.282-.72-.6-1.085-.9a10.2,10.2,0,0,0-1.05-.936,6.222,6.222,0,0,0-.954-.683.211.211,0,0,0-.165-.107,1.243,1.243,0,0,0-.476-.294.423.423,0,0,0-.158-.125c-.375-.233-.774-.417-1.167-.613a.576.576,0,0,0-.275-.09.132.132,0,0,0-.125-.057s-.008-.006-.011-.01a.116.116,0,0,0-.04-.035.175.175,0,0,0-.068-.011,1.565,1.565,0,0,0-.266-.113l-.006,0h-.005l-.19-.062a5.88,5.88,0,0,0-1.332-.212l-.048-2.993a2.265,2.265,0,0,0-.288-1.085A4.03,4.03,0,0,0,157.351,7q-.179-.166-.355-.337a15.988,15.988,0,0,0,3.347.071,40.1,40.1,0,0,1,7.318-.1c2.315.181,4.622.124,6.933.145h.322a5.514,5.514,0,0,0,.583.78M61.148,148.469l0,0a.024.024,0,0,1,0-.011.048.048,0,0,1,0-.01.032.032,0,0,1,0-.006h0a.134.134,0,0,1,0,.024s0,.008,0,.008m-43.561-1.54s0,0-.005,0l-.008-.006a.059.059,0,0,0,0-.033h0c0-.016,0-.021,0-.021l0,0a.034.034,0,0,1,.008.011.072.072,0,0,1,0,.01.065.065,0,0,1,0,.021.042.042,0,0,1,0,.012M16.519,83.07h.028c0,.013,0,.027,0,.041v0h0c-.01-.013-.016-.027-.025-.04h0m31.173,51.365.057.009c-.007.018-.008.034-.016.052-.014-.02-.028-.041-.041-.061M19.039,45.865c.008.006.017.006.025.01a.3.3,0,0,0,.081.033c.007,0,.013.007.02.009-.032.016-.064.03-.1.043l-.009,0v0c-.006-.032-.012-.064-.018-.1M130.2,6.124q2.35,0,4.7,0a4.874,4.874,0,0,0,.978,1.615q.622.7,1.253,1.39a1.091,1.091,0,0,1,.3.765c0,.44-.005.881,0,1.321.008.513.023,1.026.035,1.539l-.058.015a3.818,3.818,0,0,0-1.179.277,1.582,1.582,0,0,0-.487.187l-.018.006-.048.027-.025,0-.013.005a.111.111,0,0,0-.036.014l-.014.006a.1.1,0,0,0-.023.03h0l-.026,0-.033,0h-.008a.142.142,0,0,0-.044.01c-.07.033-.139.068-.209.1l-.031.013-.031.017c-.184.092-.366.188-.544.29l-.1.057c-.178.105-.353.215-.523.335l-.014.009a.187.187,0,0,0-.03.007.141.141,0,0,0-.031.007.1.1,0,0,0-.044.045c-.024.013-.05.024-.073.039-.239.151-.47.313-.694.481-.085.064-.164.132-.247.2-.909-.229-1.82-.444-2.736-.635a13.29,13.29,0,0,0-1.59-.3,11.533,11.533,0,0,0-1.7-.283.061.061,0,0,0-.053-.006h0c-.038-.019-.077-.053-.116-.054a7.771,7.771,0,0,1-1.017-.149,2.344,2.344,0,0,0-.7-.082.066.066,0,0,0-.056-.006.465.465,0,0,0-.333-.058l-.187-.017a.714.714,0,0,0-.466-.058l-.192-.016a3.509,3.509,0,0,0-.858-.127c-.738-.087-1.475-.2-2.217-.25-.4-.027-.8-.067-1.2-.109l-.025,0c-.311-.033-.622-.066-.934-.094-.05,0-.1-.014-.154-.02a.619.619,0,0,0-.171,0v-.016l-.054-3.326a2.254,2.254,0,0,0-.287-1.081,4.023,4.023,0,0,0-.917-1.173c-.285-.265-.567-.536-.829-.824-.019-.021-.036-.043-.054-.064,4.716-.128,9.438-.058,14.157-.065M30.256,135.274l-.006,0,.017,0c0,.006-.007.009-.011.009M170.612,16.893s.006.008.005.013,0,.008,0,.012a.074.074,0,0,1-.026.034.459.459,0,0,0,.019-.06M50.09,137.085a.455.455,0,0,0-.047-.033l-.021-.012a.217.217,0,0,0-.049-.018l0,0a.742.742,0,0,0,.055-.112l.006-.013c0-.016.007-.032.009-.047,0,.007.005.013.007.02.011.036.024.072.038.107.007.017.013.035.021.052.017.037.037.074.057.111.006.011.011.023.018.034-.026-.026-.05-.048-.071-.066l-.026-.02M20.231,151.836c.015.015.029.031.044.047l-.046,0c-.005,0-.01-.005-.016-.01a.094.094,0,0,1,0-.051l.018.017M24.8,16.5a.047.047,0,0,1-.006.014.03.03,0,0,1-.016.007l-.006,0a.089.089,0,0,1-.038-.011c.021-.009.046-.016.071-.023a.067.067,0,0,1,0,.01m2.4-1.26c-.017.007-.023.006-.03,0h0c.023-.013.031-.009.03,0h0m61.382,1.742a.023.023,0,0,1,.005.013s0,.007,0,.01a.066.066,0,0,1-.025.033.522.522,0,0,0,.019-.055M54.436,147.449H54.4a.161.161,0,0,1,.014-.024l.049.022h-.023M43.308,15.574h0m-2.05,1.892-.006.009h-.007l.014-.009m5.712-.585.018,0c-.006,0-.009,0-.011,0s-.005,0-.007-.007m-5.747-1.387-.028.009v-.011l.028,0M27.379,18.634c.973-.178,1.958-.268,2.933-.428a1.508,1.508,0,0,0,.183,0q1.037-.11,2.073-.225c.618-.068,1.236-.14,1.854-.21a4.809,4.809,0,0,0,.955-.069.186.186,0,0,1,.02-.008h0c-.007,0-.015,0-.023.008.537-.007,1.072-.036,1.608-.074l.054,0,.158-.009.047,0,.051,0c.153-.017.306-.028.459-.043l.119-.01h0l.661-.014h4.045l1.536.014.076.019.038,0a9.608,9.608,0,0,0,1.042.06.492.492,0,0,0,.281.056c.461.039.923.08,1.384.126s.9.095,1.352.143a2.354,2.354,0,0,0-.3.1c-.472.2-.873.526-1.333.746a3.225,3.225,0,0,0-.855.423,5.61,5.61,0,0,0-1.345.43,4.447,4.447,0,0,1-.645.29c-.067.023-.132.048-.2.072-1.593,0-3.186.035-4.779.047a1.114,1.114,0,0,0-.267.069h0l-.2,0-.231,0a3.852,3.852,0,0,0-.911.006l-.117.006L35.4,20.153l-.45-.014a1.241,1.241,0,0,0-.612-.073c-.7-.024-1.4-.026-2.1-.067-1.415-.083-2.828-.224-4.249-.188l-.312-.01h0a1.1,1.1,0,0,0-.266-.072c-.87-.017-1.74-.026-2.61-.038a.134.134,0,0,0-.016-.006l-.024-.135c-.012-.068-.041-.208-.078-.384.9-.187,1.8-.366,2.7-.531m123.688-1.872a.028.028,0,0,1,.006.012s0,.007,0,.011a.069.069,0,0,1-.026.033.4.4,0,0,0,.019-.055m21.321-.731-.02.024-.026.026a.66.66,0,0,0,.045-.05M50.825,138.017l.012,0,.048-.011.026-.006c0,.028,0,.055,0,.083a.157.157,0,0,1-.088-.063M18.459,88.071s-.01.009-.016.008h0a.36.36,0,0,0,.007-.04c0-.007,0-.014,0-.021l.017.018,0,0a.042.042,0,0,1,0,.023.026.026,0,0,1-.005.009M90.34,16.186l-.02.024-.029.027A.635.635,0,0,0,90.34,16.186ZM18.4,107.058c0-.016,0-.017.006-.017s0,.011-.006.017m134.429-91.1-.019.022c-.007.008-.016.015-.024.023C152.8,15.99,152.819,15.976,152.833,15.96ZM31.138,100.789l.042,0,.071,0,.031,0-.018.017a.219.219,0,0,1-.044.034.2.2,0,0,1-.036.01.19.19,0,0,1-.05.01,1.176,1.176,0,0,1-.091-.017.345.345,0,0,1-.09-.051l.046,0,.061,0,.078,0m-5.579,36.257-.029-.037c.016-.011.034-.022.052-.032-.009.014-.016.029-.027.043s0,.017,0,.026m.914-90.7.008-.008a.168.168,0,0,1,.09-.037h0a.581.581,0,0,0-.079.056l-.016.014a.415.415,0,0,0-.057.063l0,0a.188.188,0,0,1,.054-.092M39.454,63.368l.008-.016c0,.049-.009.1-.012.148l0-.007a.169.169,0,0,1-.009-.044.16.16,0,0,1,0-.033.191.191,0,0,1,.016-.048m77.2-46.222-.006.009h-.006l.012-.009m-.031-1.965-.025.009V15.18l.025,0M56.817,129.693a.152.152,0,0,0-.018-.023.126.126,0,0,1,.02.023.137.137,0,0,1,.017.02.141.141,0,0,1,.013.065.148.148,0,0,0-.015-.065.157.157,0,0,0-.016-.02m-7.423-12.846s0,0,.006,0a.058.058,0,0,1,.019-.007c0,.007,0,.013,0,.019-.017,0-.027,0-.027-.009m-29.16,13.1c-.014,0-.026-.01-.04-.013l0,0a.136.136,0,0,1,.085-.036.121.121,0,0,1,.042.051.2.2,0,0,1,.007.019c0,.005,0,.01,0,.016l-.007,0c-.03-.012-.062-.022-.095-.031m7.4-13.151.016.027,0,0-.009,0a.11.11,0,0,1-.069-.008c0-.043.007-.08.01-.118.005.01.013.02.018.03s.024.042.038.064m-2.486.344-.029.028c-.007-.016-.014-.032-.022-.048l.051.021m5.446-35.717h-.008l.035-.05.02-.028s0,0,.006.006a.211.211,0,0,0,.068.074.714.714,0,0,0-.121,0M21.607,92.035h0c.009-.014.016-.019.021-.017s0,0,0,.007a.023.023,0,0,1,0,.013v0a.019.019,0,0,1-.012.017c-.006,0-.014,0-.027-.011h0a.342.342,0,0,1-.02-.041l-.006-.016Zm6.723-4.058,0,0c-.009-.007-.015-.015-.023-.022l.024,0v.023a.015.015,0,0,1,0,0M27.412,98.54h-.026a.222.222,0,0,1,.021-.021c0,.008,0,.015.005.022m-1.931,10.069v-.022a1.053,1.053,0,0,0,.078-.074h0a.261.261,0,0,1-.078.1M23.434,86.26l.012-.023a.8.8,0,0,1,.011.084h0a.136.136,0,0,1-.052-.006l.008-.014.022-.041m-2.026,7.528c0,.013-.006.023-.011.037h0l-.015-.038h.027M18.13,82.86a.026.026,0,0,1-.012-.03c0,.01.007.02.012.03M25.708,135.2l-.013,0,.013-.023Zm4.571-28.283c-.009,0-.011-.02-.011-.02s.007.014.011.02M127.31,18.351a.3.3,0,0,0-.261.141l-1.416.612c-.273.105-.547.2-.819.311-1.1.37-2.141.9-3.215,1.333-.481.146-.949.327-1.415.513l-1.171.011c-.618.006-1.239.055-1.854.014-.1-.007-.2-.007-.293-.012a.232.232,0,0,1-.043-.034l-.235-.023a.476.476,0,0,0-.02-.064l-.223-.014c-.012-.023-.024-.045-.034-.069l-.237-.018c-.006-.022-.012-.044-.02-.065h-.161L115.8,20.9l-.241-.024a.54.54,0,0,0-.014-.062.3.3,0,0,1-.252-.088.8.8,0,0,1-.437-.156.33.33,0,0,1-.253-.087,23.4,23.4,0,0,0-.5-.178,101.056,101.056,0,0,1-.512-.169l-.23-.017-.026-.068a.292.292,0,0,1-.258-.08.353.353,0,0,1-.26-.079.324.324,0,0,1-.253-.089.355.355,0,0,1-.258-.081l-.237-.024a.27.27,0,0,1-.022-.061.312.312,0,0,1-.255-.082l-.305-.047a.222.222,0,0,0-.18-.065c-.007-.022-.014-.044-.02-.067a.331.331,0,0,1-.253-.085l-.224-.023c0-.005,0,0,0-.011a.07.07,0,0,0-.025-.058c-.093-.1-.244,0-.339-.091-.073-.075-.187-.015-.257-.075-.123-.122-.3.007-.424-.091-.106-.1-.253-.009-.365-.082a.048.048,0,0,1-.059-.009c-.068-.077-.187,0-.255-.086a.159.159,0,0,0-.16-.025c.014-.029.006-.048-.041-.049a.042.042,0,0,1-.054-.011.145.145,0,0,0-.19,0v.011l-.065,0-.08-.009c0-.006,0-.012,0-.018h-.013a.229.229,0,0,0-.024-.051l-.312-.02a.158.158,0,0,0-.175,0l-.085-.07a.71.71,0,0,1-.421-.09.491.491,0,0,1-.343-.081l-.4-.015a.529.529,0,0,0-.1-.071.619.619,0,0,0-.379-.048l-.154-.063-.23-.094c.368-.055.736-.109,1.1-.177a1.185,1.185,0,0,0,.162,0q.919-.11,1.837-.224c.548-.068,1.1-.139,1.643-.209a3.829,3.829,0,0,0,.847-.069c.006,0,.012,0,.018-.008h0c-.006,0-.014,0-.02.008.474-.007.948-.036,1.42-.074l.053,0,.14-.009.042,0,.045,0c.132-.016.264-.027.4-.041l.115-.01.585-.014h3.584l1,.01h0l.352,0c.022.007.045.014.067.019l.034,0a7.472,7.472,0,0,0,.923.06h0c.075.064.163.048.249.056.409.039.818.079,1.226.126.687.078,1.372.17,2.06.24.473.049.942.131,1.412.206l.992.158c.222.041.443.083.665.122l.531.094c-.012.01-.025.018-.037.028m-6.288-3.568,0,.012V14.8L121,14.8c.008-.008.017-.008.025-.013m-2.6.5.025-.014.006,0,.01-.005a.212.212,0,0,1-.021.018l-.018,0m-14.232-.363a.006.006,0,0,1,.005.007c-.015.007-.021.006-.027,0h0a.036.036,0,0,1,.019-.007h0m-83.849,76,.006.017-.01,0-.017,0,.021-.012m-2.174-3.982a.057.057,0,0,1,.015-.006l.012,0a.021.021,0,0,1,.022.017h0c.006.014.01.029.015.043l0,0v0a.078.078,0,0,0-.015-.025h0a.024.024,0,0,0-.019-.006s0,0-.006,0h0l-.006-.007v.008a.03.03,0,0,1-.018,0s0,0,0-.007,0,0,0,0m.356.808c.007,0,.011.009.017.014l-.017,0Zm140.04-70.828a1.037,1.037,0,0,0-.19-.049c-.159-.01-.318-.014-.477-.02a.675.675,0,0,0,.129-.1.343.343,0,0,1,.038-.029.307.307,0,0,1,.049-.036.17.17,0,0,1,.04-.009.2.2,0,0,1,.043-.01.217.217,0,0,1,.045.007.243.243,0,0,1,.039.007.669.669,0,0,1,.089.037c.143.069.287.136.433.2h-.238m-34.3-.567a.016.016,0,0,1,0-.011h0a.015.015,0,0,1,0,.009h0M30.795,112.249c.011,0,.013.015.013.018v0l0,0c0-.006-.007-.011-.011-.017M32.5,83.778l.045-.018c0,.011,0,.022,0,.034l-.021-.008-.02-.007m7.546,2.671.011-.019.011.02h-.022m7.935,36.4.011,0a.046.046,0,0,1,.026.026v0a.085.085,0,0,1,0,.046l-.005.013a.311.311,0,0,1-.022.045l0,0c-.005-.011-.012-.021-.017-.031s-.018-.04-.026-.06-.013-.037-.02-.055h.006a.162.162,0,0,1,.052.006m11-15.644a.117.117,0,0,1-.031.007.111.111,0,0,1-.03.005c.007,0,.033-.007.061-.012ZM181.562,18.463c-.163.043-.327.084-.494.115a7.409,7.409,0,0,0-1.432.366c-.053,0-.1.011-.155.016h-.468a.186.186,0,0,0-.182.089l-.365,0h-3.278c-.119-.137-.279-.087-.424-.088-.527,0-1.054,0-1.58,0h-.171c.131-.058.262-.118.388-.188.085-.028.172-.049.254-.085,1.156-.506,2.3-1.038,3.466-1.523a1.314,1.314,0,0,0,.5-.28.305.305,0,0,1,.051-.041.331.331,0,0,1,.036-.028.174.174,0,0,1,.053-.013.24.24,0,0,1,.03-.007.389.389,0,0,1,.175.055l.045.023h0c.208.107.416.214.63.3.49.2.976.418,1.462.635h0l.928.414.529.237M23.991,22.475v0l-.009-.017-.009-.018a.124.124,0,0,1,.018-.006c0,.014,0,.029,0,.043M141.269,14h0l0,0,0,0h0m-13.978.076h-.015l-.041,0-.024,0,.052-.031.027.041m-1.837-.425-.034-.051-.015-.023h.109a.279.279,0,0,1-.061.074M98.989,13.9h0s0,0,0,0l0,0h0m-52.8,1.2-.005.012v.006l-.021,0c.009-.008.019-.008.028-.013m-2.928.505.028-.014.007,0,.01,0a.253.253,0,0,1-.024.018l-.02,0M34.232,80.652a.187.187,0,0,0,.029-.01c.006.018.012.037.019.055a.626.626,0,0,1-.048-.045m13.056,39.271-.01-.008a.052.052,0,0,1,.018-.027.134.134,0,0,0-.008.035M161.529,13.657h0l0,.006-.005-.005h0M62.658,15.283s-.006-.008-.008-.013l.009,0v.01M61.151,144.325l0,.013v.007l-.027-.017h0l.03,0v0M181.14,13.556h0l0,0,0,0h0M49.85,16.671a.016.016,0,0,1,0-.012h0a.015.015,0,0,1,0,.009h0M156.2,12.647a1.689,1.689,0,0,0-.53.2l-.005,0-.051.028-.026,0-.014.006a.121.121,0,0,0-.038.015l-.014.006a.11.11,0,0,0-.024.032h0l-.023,0-.039,0h-.009a.141.141,0,0,0-.046.011c-.073.034-.145.071-.217.106l-.037.016-.036.019q-.292.145-.576.306l-.1.058c-.195.115-.387.235-.572.366a.12.12,0,0,0-.111.064c-.026.013-.052.026-.077.041a18.967,18.967,0,0,0-2.76,2.267.762.762,0,0,0-.25.218,4.93,4.93,0,0,0-.658.48c-.126.08-.255.153-.384.227a2.028,2.028,0,0,0-.565.093.078.078,0,0,0-.091.013,3.674,3.674,0,0,0-1.17.144.558.558,0,0,0-.144.041,1.841,1.841,0,0,0-.758.135c-.213-.1-.422-.206-.628-.321l-.014-.017-.017-.011a.352.352,0,0,0-.115-.071l-.009-.005-.03-.019a.116.116,0,0,0-.066-.043l-.008-.005-.019,0-.006-.006-.02-.02-.006,0a1.841,1.841,0,0,0-.313-.23c-.053-.038-.105-.076-.157-.116-.352-.264-.674-.565-1.016-.841a9.577,9.577,0,0,0-.99-.884,5.9,5.9,0,0,0-.9-.644.2.2,0,0,0-.156-.1,1.176,1.176,0,0,0-.449-.277.4.4,0,0,0-.149-.119c-.353-.219-.729-.393-1.1-.578a.543.543,0,0,0-.26-.085.124.124,0,0,0-.117-.054s-.007-.005-.01-.009a.106.106,0,0,0-.039-.033.151.151,0,0,0-.064-.01,1.46,1.46,0,0,0-.25-.107l-.006,0h0l-.18-.058a4.722,4.722,0,0,0-1.045-.182l-.048-2.99a2.26,2.26,0,0,0-.288-1.085,4.036,4.036,0,0,0-.921-1.178c-.286-.266-.57-.538-.832-.827a2.614,2.614,0,0,1-.354-.5h4.632l4.631.035h0c.212.217.479.173.733.183,1.541.061,3.081.058,4.623.176,1.438.111,2.885.075,4.331.063a5.514,5.514,0,0,0,.532.713c.415.466.831.93,1.254,1.39a1.093,1.093,0,0,1,.3.765c0,.44-.005.881,0,1.321.009.53.024,1.061.037,1.591a3.926,3.926,0,0,0-1.165.284M104.313,6.553a.79.79,0,0,0,.635-.179h0l1.144-.021c.354.007.707.023,1.061.02,2.472-.016,4.943-.076,7.415-.144a5.169,5.169,0,0,0,.78,1.14c.413.465.828.927,1.249,1.385a1.085,1.085,0,0,1,.3.761c0,.439,0,.878,0,1.316.01.628.031,1.255.044,1.882v0l-.007-.023a.351.351,0,0,0-.037-.081v0h0c-.045-.063-.112-.064-.281-.06-.032,0-.064.007-.1.011a5.524,5.524,0,0,0-1.24.063c-.421.009-.844,0-1.264.03-1.119.078-2.238.184-3.358.255-.141.009-.281.02-.421.031l-.258.027c-.666.058-1.332.129-2,.2a3.938,3.938,0,0,0-.963.126,7.063,7.063,0,0,0-1.237.153,3.155,3.155,0,0,0-.739.1q-1.361.226-2.719.484c-.574.109-1.151.2-1.717.365a2.6,2.6,0,0,0-.262-.154.213.213,0,0,0-.165-.106,1.246,1.246,0,0,0-.473-.293.424.424,0,0,0-.158-.125c-.372-.231-.769-.414-1.161-.609a.576.576,0,0,0-.274-.09.131.131,0,0,0-.124-.056s-.008-.006-.011-.01a.109.109,0,0,0-.041-.035.168.168,0,0,0-.068-.011,1.533,1.533,0,0,0-.264-.112l-.007,0H97.6l-.189-.062a5.414,5.414,0,0,0-1.224-.2l-.05-3.159a2.264,2.264,0,0,0-.288-1.085,4.036,4.036,0,0,0-.92-1.178q-.284-.264-.556-.541h9.945m-41.8,7.883a.053.053,0,0,1,.017.026c-.006-.011-.017-.016-.025-.025h.008m-5.528-.281-.006-.011h.014l-.008.01m-39.239,134.2c.015-.014.031-.026.047-.038a.072.072,0,0,1-.047.038h0m12.285-10.113h-.056a.043.043,0,0,1,.013,0,.121.121,0,0,1,.026,0l.018,0h0m85.594-31.877c.08-1.353.269-2.7.24-4.058a1.7,1.7,0,0,1,.035-.44,4.323,4.323,0,0,0,0-1.582,9.5,9.5,0,0,0,.107-2.249c0-.84-.1-1.687-.048-2.524.092-1.613-.02-3.223.018-4.835.039-1.671,0-3.343-.013-5.014a7.831,7.831,0,0,0-.161-2.45,20.748,20.748,0,0,0-.036-2.124,9.7,9.7,0,0,1-.028-1.592q.023-.382.042-.764l.2-.047.1-.023c.08-.02.16-.042.24-.063l.011,0,.143-.038h0s.005,0,.007,0l.134-.037a.214.214,0,0,0,.121-.029l.082-.013c.072-.074.183-.012.258-.075l.031-.02.037.005c.058-.037.133-.028.188-.072l.02-.022.029,0c.069-.026.152-.019.195-.083.055-.036.128-.026.18-.072l.044-.017h0c.068-.023.145-.021.193-.075a.813.813,0,0,1,.143-.04.342.342,0,0,0,.16-.024,1.494,1.494,0,0,0,.064.276c.014.428.008.858.045,1.283.08.913.157,1.827.166,2.744a12.088,12.088,0,0,0,.048,1.33.414.414,0,0,0,.033.176c-.028.135-.052.27-.081.4-.2.926-.441,1.846-.587,2.787-.284,1.832-.635,3.652-.911,5.486-.178,1.182-.24,2.375-.421,3.554-.3,1.948-.369,3.913-.484,5.875-.006.079-.013.158-.019.237a9.8,9.8,0,0,0-.119,2.284h0a16.4,16.4,0,0,0-.343,2.415c-.04.286-.083.572-.125.858.014-.444.027-.888.054-1.331M.919,16.79c-.009.011-.015.021-.025.033a.132.132,0,0,1,.025-.033M83.263,6.553h9.462a5.485,5.485,0,0,0,.614.832c.415.466.831.93,1.254,1.39a1.092,1.092,0,0,1,.3.765c0,.44-.005.881,0,1.321.01.578.027,1.157.04,1.735l-.01,0a4.022,4.022,0,0,0-1.243.293,1.661,1.661,0,0,0-.514.2l-.019.007-.051.028-.026,0-.014.006a.112.112,0,0,0-.039.016l-.014.006a.107.107,0,0,0-.024.033h0l-.043,0-.02,0h-.009a.141.141,0,0,0-.045.01c-.074.035-.148.072-.222.108l-.031.014-.03.016q-.3.146-.582.31l-.089.053c-.194.114-.385.233-.57.364l0,0a.166.166,0,0,0-.031.008.133.133,0,0,0-.033.008.1.1,0,0,0-.047.047c-.026.014-.052.026-.077.041a18.855,18.855,0,0,0-2.745,2.254.761.761,0,0,0-.249.216,4.125,4.125,0,0,0-.536.384,1.07,1.07,0,0,1-.19-.2.184.184,0,0,0-.084-.172.745.745,0,0,0,0-.081c-.009-.04,0-.092-.027-.12a5.564,5.564,0,0,1-.683-1.278A6.145,6.145,0,0,0,86,13.88a10.237,10.237,0,0,0-.844-1.684.175.175,0,0,0-.086-.168h0c-.061-.155-.192-.175-.335-.171h0l-.033-.014h0a1.083,1.083,0,0,0-.3-.127h0a5.783,5.783,0,0,0-1.27-.359,3.324,3.324,0,0,0-1.012-.167c-.175.014-.328-.109-.506-.082l-.162-.008c-.093-.115-.224-.073-.343-.082a5.842,5.842,0,0,0-1.939-.25,8.159,8.159,0,0,0-1.424-.092l-.018-1.138a2.265,2.265,0,0,0-.288-1.085,4.036,4.036,0,0,0-.921-1.178c-.234-.217-.463-.441-.683-.673,2.477-.011,4.953-.031,7.43-.046m-30,7.831h-.017l-.047,0-.026,0,.058-.032.031.041m-2.073-.426-.006-.008c-.01-.015-.022-.03-.031-.042l-.018-.025h.124a.292.292,0,0,1-.068.074M17.008,54.577l-.025.023-.045.048-.015.016v0a.365.365,0,0,1,.006-.077c0-.008,0-.015,0-.023a.421.421,0,0,1,.042-.107c.026.028.048.06.072.09l0,0c-.01.007-.023.018-.035.029m.713,85.849c.009,0,.01,0,.012.014l-.012-.014h0M248.98,13.639h0a.036.036,0,0,1,0,.006l-.005-.006h0m-53.074-2.2a4.508,4.508,0,0,0-1.4.328,1.91,1.91,0,0,0-.6.228h0l-.057.031-.029,0-.014.006a.132.132,0,0,0-.045.018l-.015.006,0,0c-.464.058-.929.111-1.391.184a3.167,3.167,0,0,1-.662.079,1.835,1.835,0,0,0-.792.122c0-.022.008-.044.011-.066-.151-.1-.269-.073-.323.093-.018.055-.03.113-.044.17a2.044,2.044,0,0,0-.534.587,16.664,16.664,0,0,1-1.262,1.692,7.507,7.507,0,0,1-1.991,1.249c-.375.151-.753.3-1.121.465-.387-.307-.737-.662-1.112-.984a10.509,10.509,0,0,0-1.057-1.007,6.308,6.308,0,0,0-.96-.734.214.214,0,0,0-.166-.115,1.252,1.252,0,0,0-.479-.316.438.438,0,0,0-.159-.135c-.377-.249-.778-.448-1.174-.658a1.094,1.094,0,0,0-.168-.078.31.31,0,0,0-.109-.018.13.13,0,0,0-.125-.061.111.111,0,0,0-.028-.026c-.008-.007-.014-.017-.024-.021a.153.153,0,0,0-.068-.011,1.342,1.342,0,0,0-.211-.1l-.051-.02-.011,0h0l-.193-.067a5.041,5.041,0,0,0-1.205-.215l-.041-2.534a2.264,2.264,0,0,0-.288-1.085,4.042,4.042,0,0,0-.92-1.178q-.257-.239-.506-.489,5.385,0,10.77,0a21.687,21.687,0,0,0,2.221-.049c1.551-.161,3.105-.222,4.659-.275a5.368,5.368,0,0,0,.612.829q.615.691,1.239,1.374a1.081,1.081,0,0,1,.3.756c0,.435-.005.871,0,1.306,0,.2.009.41.014.615a2.9,2.9,0,0,0-.489.106m87.1,5.347c-.009.011-.016.021-.026.033a.144.144,0,0,1,.026-.033m-18.9-14.9a.224.224,0,0,1,.05.025c-.017-.009-.033-.015-.05-.025M31.763,1.96h-.008l0-.005.011.005M.963,168.223l.006-.007h0v0l-.006,0M73.786,6.608l.456,0a5.34,5.34,0,0,0,.688.956c.415.466.831.93,1.254,1.39a1.092,1.092,0,0,1,.3.765c0,.351,0,.7,0,1.054a10.921,10.921,0,0,1-1.538.082.531.531,0,0,0-.168.012,24.6,24.6,0,0,1-2.569.32,6.76,6.76,0,0,0-1.31.251c-.117.01-.246-.034-.338.081-.116.013-.247-.028-.337.086a4.038,4.038,0,0,0-1.158.33c-.114.039-.165.141-.223.239-.141.24-.3.471-.431.715a6.405,6.405,0,0,0-.8,2.007,3.1,3.1,0,0,0-.2.6.217.217,0,0,1,.142.286c-.089.253-.239.477-.338.725l-.076.189a.48.48,0,0,0,.106.2.161.161,0,0,1-.01.156,1.158,1.158,0,0,0-.149.215c-.2-.176-.408-.354-.618-.524a11.871,11.871,0,0,0-1.236-1.1,7.358,7.358,0,0,0-1.122-.8.253.253,0,0,0-.195-.125h0a1.472,1.472,0,0,0-.56-.346.5.5,0,0,0-.186-.148c-.44-.273-.911-.491-1.373-.721a.669.669,0,0,0-.324-.106l-.005,0v0h0a.145.145,0,0,0-.142-.067.148.148,0,0,0-.141-.065h0a2.885,2.885,0,0,0-.55-.211,5.581,5.581,0,0,0-1.217-.218l-.05-3.114a2.264,2.264,0,0,0-.288-1.085,4.042,4.042,0,0,0-.92-1.178c-.287-.266-.57-.538-.832-.827l-.008-.01q8.232,0,16.463,0M55.479,14.225l0,.006-.006.005s0-.007,0-.011M169.4,128.447l.013.013v.014c0-.009-.009-.018-.013-.027M222.9,9.577a4.261,4.261,0,0,1-.924.107,6.311,6.311,0,0,0-1.251.135h0a11.855,11.855,0,0,0-2.21.222,4.917,4.917,0,0,0-1.217.191,6.229,6.229,0,0,0-1.691.186c-.321.066-.668-.049-.963.154a4.4,4.4,0,0,0-2.389,1.243c-.277.315-.516.664-.768,1a6.4,6.4,0,0,0-.924,1.729A10.659,10.659,0,0,1,209.2,16.7a2.428,2.428,0,0,1-.553.52c-.175.109-.349.222-.524.333a4.414,4.414,0,0,1-1.658-1.336,8.839,8.839,0,0,1-.738-1.355,6.37,6.37,0,0,0-.611-1.3.2.2,0,0,0-.106-.174c.007-.109,0-.227-.208-.25-.021.048-.05.1-.069.155a.288.288,0,0,0-.14-.043c-.19-.235-.5-.19-.74-.3a6.313,6.313,0,0,0-2.471-.529.437.437,0,0,0-.23-.1,3.807,3.807,0,0,0-.933-.114L199.8,12a.64.64,0,0,0-.308-.1h0a.117.117,0,0,0-.062-.051.154.154,0,0,0-.022,0,.264.264,0,0,0-.055-.009.113.113,0,0,0-.031-.027c-.009-.007-.016-.019-.027-.023a.189.189,0,0,0-.076-.012,1.6,1.6,0,0,0-.239-.106l-.041-.015-.023-.009-.009,0-.21-.068a5.015,5.015,0,0,0-1.054-.2L197.6,9.236a2.235,2.235,0,0,0-.285-1.072A4,4,0,0,0,196.41,7q-.311-.288-.606-.594c3.129-.1,6.251.116,9.375.323,2.44.162,4.895.051,7.343.061a31.994,31.994,0,0,0,5.4.224.907.907,0,0,0,.726.179c.859.007,1.718,0,2.577,0l.676.006c.01.011.019.024.029.035q.594.667,1.2,1.326a1.04,1.04,0,0,1,.288.729c0,.064,0,.129,0,.193a4.111,4.111,0,0,0-.506.094m60.147,158.646.005-.007h0v0l-.005,0M41.058,6.805c1.639,0,3.278-.03,4.916-.032.313,0,.651.07.927-.185,2,.008,4,.023,6,.023h2.9a5.23,5.23,0,0,0,.776,1.128q.622.7,1.254,1.39a1.091,1.091,0,0,1,.3.765c0,.44-.005.881,0,1.321.009.527.024,1.055.037,1.582a3.04,3.04,0,0,0-.469.1,4.777,4.777,0,0,0-1.471.346h0a2.114,2.114,0,0,0-.69.274.14.14,0,0,0-.137.072l0,0a.466.466,0,0,0-.136.02c-.388.182-.767.379-1.135.6a8.458,8.458,0,0,0-1.347-.181.076.076,0,0,0-.06-.006.412.412,0,0,0-.131-.054,9.737,9.737,0,0,1-1.148-.149,2.957,2.957,0,0,0-.79-.082.08.08,0,0,0-.063-.006.577.577,0,0,0-.375-.058L50,13.657a.9.9,0,0,0-.526-.058l-.217-.016a4.437,4.437,0,0,0-.968-.128c-.833-.087-1.664-.2-2.5-.251-.451-.027-.9-.067-1.351-.109l-.03,0c-.351-.033-.7-.066-1.054-.094a.963.963,0,0,0-.466.007c0-.016,0-.028,0-.045l-.054-3.338a2.264,2.264,0,0,0-.288-1.085,4.037,4.037,0,0,0-.921-1.178q-.291-.271-.569-.555M16.243,48.462c0,.038-.006.076-.007.114a.356.356,0,0,1,.007-.114M67.492,114.8h0m112.056,13.879h0a.352.352,0,0,0,0,.055l-.009,0c0-.018.007-.036.011-.053M244.139,9.13a1.092,1.092,0,0,1,.3.765c0,.44-.005.881,0,1.321.006.335.014.669.023,1a4.366,4.366,0,0,0-1.315.315,1.847,1.847,0,0,0-.58.222l-.005,0-.04.023-.015.008h0l-.028,0-.016.006a.127.127,0,0,0-.041.017l-.016.006a.115.115,0,0,0-.026.035h0l-.04,0-.028,0H242.3a.175.175,0,0,0-.051.011c-.081.038-.16.078-.24.117l-.037.017-.037.02q-.322.16-.634.337l-.1.061c-.212.125-.422.256-.623.4l0,0a.175.175,0,0,0-.055.013s-.011,0-.016,0a.113.113,0,0,0-.051.052c-.028.015-.057.028-.084.045-.262.166-.514.344-.762.528a13.731,13.731,0,0,0-1.591.549c-.185.071-.368.146-.551.221-.293-.463-.517-.964-.763-1.453a6.749,6.749,0,0,0-2.285-2.585,6.194,6.194,0,0,0-2.19-.862,5.555,5.555,0,0,0-1.761-.536c-1.132-.043-2.252-.228-3.387-.217a5.157,5.157,0,0,1-1.464-.172.78.78,0,0,0-.585.053q-.216-.012-.431-.021l-.006-.335a2.163,2.163,0,0,0-.275-1.035,3.453,3.453,0,0,0-.6-.85c.235.009.47.015.706.009,2.119-.054,4.238-.094,6.358-.2,3.816-.185,7.641.039,11.461-.193a5.4,5.4,0,0,0,.648.889c.415.466.831.93,1.254,1.39" transform="translate(0 0)" fill="#40bbff"/>
            <path id="Caminho_770282" data-name="Caminho 770282" d="M181.7,43.073c-.016.058-.032.115-.05.172a1.226,1.226,0,0,0-.122.558q.085-.365.172-.729" transform="translate(-114.389 -27.143)" fill="#40bbff"/>
            <path id="Caminho_770283" data-name="Caminho 770283" d="M183.944,339.361l.033,0-.128-.033a.157.157,0,0,0,.1.031" transform="translate(-115.856 -213.837)" fill="#40bbff"/>
            <path id="Caminho_770284" data-name="Caminho 770284" d="M181.557,320.071v-.128a.115.115,0,0,0-.027.044.062.062,0,0,0,.027.084" transform="translate(-114.392 -201.62)" fill="#40bbff"/>
            <path id="Caminho_770285" data-name="Caminho 770285" d="M182.116,337.4a1.1,1.1,0,0,0,.036.445c.026.077.059.089.086.067-.087-.081-.112-.2-.119-.405l0-.107" transform="translate(-114.76 -212.623)" fill="#40bbff"/>
            <path id="Caminho_770286" data-name="Caminho 770286" d="M182.008,308.285a.456.456,0,0,0-.017.285l.014-.244,0-.041" transform="translate(-114.675 -194.273)" fill="#40bbff"/>
            <path id="Caminho_770287" data-name="Caminho 770287" d="M212.5,296.562c0,.07,0,.14,0,.21.039-.03.036-.09.036-.141a2.525,2.525,0,0,0-.016-.715c-.008.214-.015.429-.018.645" transform="translate(-133.912 -186.479)" fill="#40bbff"/>
            <path id="Caminho_770288" data-name="Caminho 770288" d="M182.144,304.161a.661.661,0,0,0-.028.543c.011-.178.02-.36.028-.543" transform="translate(-114.733 -191.674)" fill="#40bbff"/>
          </g>
        </g>
        <g id="Grupo_234013" data-name="Grupo 234013" transform="translate(0 0.75)">
          <path id="Caminho_770806" data-name="Caminho 770806" d="M195.943,219.652l2.434-17.306,24.482-2.008v10.469s-7.635,4.733-8.553,4.733-18.363,4.112-18.363,4.112" transform="translate(-53.597 -61.919)"/>
          <path id="Caminho_770807" data-name="Caminho 770807" d="M109.168,101.012l14.1,3.213,10.269-2.88-2.8-11.5L119.613,76.473l7.235-2.538-1.664-6.827L112.127,81.427l-2.88,3.144-.023,5.266v.023l-.011,2.134Z" transform="translate(95.68 -20.741)" fill="#ffa694"/>
          <path id="Caminho_770793" data-name="Caminho 770793" d="M93.408,106.135s2.581,12.816,5.266,13.1,23.131.665,25.242.287,12.231-6.4,12.231-6.4l8.8-6.987-13.688-6.586-1.021-.493-1.159-.562-8.766.356-.471.023-9.282.378H110.5l-.757.31-2.685,1.079-.654.264-.471.195Z" transform="translate(95.159 -30.442)" fill="#ffa694"/>
          <path id="Caminho_770808" data-name="Caminho 770808" d="M118.368,95.216l3.8.6a17.061,17.061,0,0,0,10.131-2.57l.447-.276a16.3,16.3,0,0,0,4.05-3.568,15.534,15.534,0,0,0,2.444-4.383c.161-.447.585-3.086.895-4.337a5.216,5.216,0,0,1-1.617-1.216c-4.509,1.893-8.983,3.786-13.436,5.782l-2.88,3.144-.023,5.266v.023l-2.685,1.079-.654.264Z" transform="translate(82.728 -24.56)"/>
          <path id="Caminho_770796" data-name="Caminho 770796" d="M6.859,161.747l20.5,10.028,3.878,40.156h87.336l4.165-21.8,37.139-3.866s-12.9-46.892-28.11-60.236c-9.672-8.5-21.627-14.067-29.028-16.993-.448-.183-.872-.344-1.273-.5-3.5-1.331-5.7-1.985-5.7-1.985a48.613,48.613,0,0,1-23.819,6.437c-13.309-.149-19.6-5.886-19.6-5.886s-2.456.608-5.749,1.572c-.436.126-.884.252-1.342.4C39.8,110.7,32.8,113.11,30.379,115.279,26.215,119,6.859,161.747,6.859,161.747" transform="translate(140.025 -32.931)" fill="url(#linear-gradient-2)"/>
          <path id="Caminho_770818" data-name="Caminho 770818" d="M222.085,220.306l-2.988-6.215s-15.083-2.342-23.4,5.308,5.594,19.6,5.594,19.6,15.122.461,16.309.4,4.486-19.092,4.486-19.092" transform="translate(-50.82 -66.066)"/>
          <path id="Caminho_770819" data-name="Caminho 770819" d="M166.365,233.881c.053-.365,3.008-1.234,3.429-1.376a11.728,11.728,0,0,1,4.236-.815c3.27.166,3.189,3.528,1.493,5.2a11.328,11.328,0,0,1-3.852,2.262c-6.444,2.516-5.308-5.258-5.306-5.273" transform="translate(13.075 -71.607)"/>
          <path id="Caminho_770820" data-name="Caminho 770820" d="M134.047,231.736c-.053-.366-3.008-1.234-3.429-1.376a11.728,11.728,0,0,0-4.236-.815c-3.27.166-3.189,3.528-1.493,5.2a11.342,11.342,0,0,0,3.852,2.263c6.444,2.515,5.308-5.259,5.306-5.274" transform="translate(85.027 -70.944)"/>
          <path id="Caminho_770821" data-name="Caminho 770821" d="M176.919,242.14a37.056,37.056,0,0,1,4.406-.424c.367-.024.757-.058,1.159-.081,1.767-.126,3.821-.252,5.909-.379l1.159-.068c2.077-.126,4.165-.253,6.023-.356.4-.023.78-.046,1.159-.069l.6-.034a4.474,4.474,0,0,0,4.155-5.237c-.632-3.635-1.6-8.27-2.67-10.275-1.389-2.593-3.809-1.836-5-1.251a5.5,5.5,0,0,0-.7.4,5.524,5.524,0,0,0-.734-1.973,3.77,3.77,0,0,0-3.293-1.881,3.164,3.164,0,0,0-3.339,2.536v.011a5.3,5.3,0,0,0-.206,1.308,4.1,4.1,0,0,0-.861-.837,3.613,3.613,0,0,0-3.281-.6c-1.733.516-1.881,3.155-1.8,4.841v.024a13.578,13.578,0,0,0,.149,1.434,3.692,3.692,0,0,0-1.136-.528,2.686,2.686,0,0,0-2.892.861c-1.767,1.985.837,12.908,1.193,12.575" transform="translate(-17.907 -68.154)" fill="#ffa694"/>
          <path id="Caminho_770822" data-name="Caminho 770822" d="M26.371,220.532c-2.725-.43-8.748,5.33-10.4,8.844s-1.434,11.259-1.434,11.259h19.5l15.274,3.513H96.933l-4.3-22.517L65.094,225.36l-1.083,5.677S29.1,220.962,26.371,220.532" transform="translate(197.672 -68.154)" fill="#ffa694"/>
          <path id="Caminho_770823" data-name="Caminho 770823" d="M117.335,244.2a.574.574,0,0,0,.569-.513,53.01,53.01,0,0,1,1.414-7.643c.9-3.044,4.862-6.281,4.9-6.313a.574.574,0,0,0-.721-.892c-.175.141-4.286,3.5-5.281,6.881a53.372,53.372,0,0,0-1.454,7.846.573.573,0,0,0,.51.631.459.459,0,0,0,.061,0" transform="translate(99.538 -70.688)" fill="#4f332e"/>
          <path id="Caminho_770824" data-name="Caminho 770824" d="M109.4,248.07a.574.574,0,0,0,.569-.513,53.028,53.028,0,0,1,1.414-7.643c.895-3.039,4.863-6.28,4.9-6.313a.574.574,0,0,0-.721-.892c-.175.141-4.286,3.5-5.281,6.881a53.37,53.37,0,0,0-1.454,7.846.573.573,0,0,0,.51.631.593.593,0,0,0,.062,0" transform="translate(112.955 -71.885)" fill="#4f332e"/>
          <path id="Caminho_770825" data-name="Caminho 770825" d="M102.388,252.274a.574.574,0,0,0,.569-.513,52.918,52.918,0,0,1,1.414-7.643c.895-3.039,4.863-6.281,4.9-6.313a.574.574,0,1,0-.721-.892c-.175.141-4.286,3.5-5.281,6.881a53.088,53.088,0,0,0-1.454,7.846.573.573,0,0,0,.51.631.61.61,0,0,0,.061,0" transform="translate(124.812 -73.185)" fill="#4f332e"/>
          <path id="Caminho_770826" data-name="Caminho 770826" d="M80.314,255.487H197.056v-2.364a4.472,4.472,0,0,0-4.472-4.472H84.787a4.472,4.472,0,0,0-4.473,4.472Z" transform="translate(52.097 -76.852)"/>
          <path id="Caminho_770827" data-name="Caminho 770827" d="M235.942,252.926H288v-1.388a2.628,2.628,0,0,0-2.628-2.628H235.942Z" transform="translate(-146.373 -76.932)" fill="#b4b2c2"/>
          <path id="Caminho_770797" data-name="Caminho 770797" d="M168.777,90.249l14.33,72.65a7.2,7.2,0,0,0,7.067,5.805H313.112a7.185,7.185,0,0,0,3.97-1.181,6.745,6.745,0,0,0,1-.815,7.151,7.151,0,0,0,2.111-6.6l-14.33-72.649a7.139,7.139,0,0,0-2.2-3.913,5.808,5.808,0,0,0-.906-.7,7.177,7.177,0,0,0-3.959-1.193H175.844a7.173,7.173,0,0,0-6.276,3.694,5.135,5.135,0,0,0-.516,1.148,7.117,7.117,0,0,0-.276,3.752" transform="translate(-132.202 -25.238)" fill="#b4b2c2"/>
          <path id="Caminho_770816" data-name="Caminho 770816" d="M259.533,230.194h24.094l6.648-48.645H266.181Z" transform="translate(-164.949 -56.112)" fill="#b4b2c2"/>
          <path id="Caminho_770817" data-name="Caminho 770817" d="M256.969,199.1h1.193l2.926-17.956h24.243l-2.5,17.956h1.181l2.582-18.449a.591.591,0,0,0-.585-.654H260.583a.593.593,0,0,0-.585.482Z" transform="translate(-159.501 -55.632)"/>
          <path id="Caminho_770798" data-name="Caminho 770798" d="M171.9,88.15H300.237a3.791,3.791,0,0,1,3.694,3.017l15.994,78.008a6.706,6.706,0,0,0,1-.815L305.056,90.938A4.935,4.935,0,0,0,300.237,87H172.412a5.2,5.2,0,0,0-.517,1.148" transform="translate(-135.046 -26.89)"/>
          <path id="Caminho_770801" data-name="Caminho 770801" d="M361.452,113.233a.6.6,0,0,0,.115-.012.575.575,0,0,0,.448-.677l-2.725-13.338a.574.574,0,0,0-1.125.229l2.725,13.338a.574.574,0,0,0,.561.459" transform="translate(-304.841 -30.52)" fill="#4f332e"/>
          <path id="Caminho_770802" data-name="Caminho 770802" d="M354.687,113.233a.6.6,0,0,0,.115-.012.575.575,0,0,0,.448-.677l-2.725-13.338a.574.574,0,0,0-1.125.229l2.725,13.338a.574.574,0,0,0,.561.459" transform="translate(-293.402 -30.52)" fill="#4f332e"/>
          <path id="Caminho_770803" data-name="Caminho 770803" d="M347.921,113.233a.594.594,0,0,0,.115-.012.575.575,0,0,0,.448-.677L345.76,99.207a.574.574,0,0,0-1.125.229l2.725,13.338a.574.574,0,0,0,.561.459" transform="translate(-281.961 -30.52)" fill="#4f332e"/>
          <path id="Caminho_770804" data-name="Caminho 770804" d="M193,87.915a.493.493,0,0,0,.3.1.585.585,0,0,0,.5-.229l2.731-3.705a5.813,5.813,0,0,0-.906-.7l-2.754,3.728a.585.585,0,0,0,.126.8" transform="translate(-25.078 -25.772)"/>
          <path id="Caminho_770828" data-name="Caminho 770828" d="M0,267.718H257.913a.786.786,0,0,0,.866-.667V255.389a.787.787,0,0,0-.866-.667H0Z" transform="translate(45.864 -78.728)" fill="#a64c38"/>
          <path id="Caminho_770829" data-name="Caminho 770829" d="M88.15,248.284s3.92-4.494,5.45-4.494,4.016,4.494,4.016,4.494Z" transform="translate(146.124 -75.349)"/>
          <path id="Caminho_770830" data-name="Caminho 770830" d="M202.457,231.965l2.708,13.011.206.976a.578.578,0,0,0,.563.447.483.483,0,0,0,.126-.011.56.56,0,0,0,.435-.677l-.171-.815-2.88-13.837a13.616,13.616,0,0,0,.149,1.434,3.68,3.68,0,0,0-1.137-.528" transform="translate(-41.747 -71.415)" fill="#4f332e"/>
          <path id="Caminho_770831" data-name="Caminho 770831" d="M192.349,224.671l3.706,17.726.126.608a.567.567,0,0,0,.562.448.419.419,0,0,0,.115-.012.576.576,0,0,0,.448-.676l-.092-.436-3.8-18.128a5.3,5.3,0,0,0-.206,1.308,4.1,4.1,0,0,0-.861-.837" transform="translate(-25.57 -69.294)" fill="#4f332e"/>
          <path id="Caminho_770832" data-name="Caminho 770832" d="M181.792,223.237l3.19,18.438.229,1.354a.586.586,0,0,0,.562.482c.035,0,.069-.012.1-.012a.59.59,0,0,0,.471-.665l-.207-1.228-2.914-16.8a5.45,5.45,0,0,0-.7.4,5.534,5.534,0,0,0-.734-1.973" transform="translate(-7.314 -68.997)" fill="#4f332e"/>
          <path id="Caminho_770833" data-name="Caminho 770833" d="M40.7,211.744a.572.572,0,0,0,.532-.36l13.385-33.368a.574.574,0,1,0-1.065-.427L40.173,210.957a.573.573,0,0,0,.532.787" transform="translate(222.253 -54.777)"/>
          <path id="Caminho_770834" data-name="Caminho 770834" d="M54.405,205.219a.573.573,0,0,0,.573-.561l.427-19.787a.574.574,0,0,0-.561-.586.587.587,0,0,0-.587.562l-.426,19.786a.573.573,0,0,0,.561.586Z" transform="translate(212.044 -56.958)"/>
          <path id="Caminho_770805" data-name="Caminho 770805" d="M89.556,109.96a42.833,42.833,0,0,0,24.771,9.213c1.067.057,2.111.091,3.133.091a50.459,50.459,0,0,0,29.579-9.339c-.448-.184-.872-.344-1.273-.5a49.653,49.653,0,0,1-31.369,8.6,41.851,41.851,0,0,1-23.5-8.467c-.436.126-.884.252-1.342.4" transform="translate(95.729 -33.819)"/>
          <rect id="Retângulo_124953" data-name="Retângulo 124953" width="304.644" height="192.877" transform="translate(0 0)" fill="none"/>
          <g id="Grupo_234016" data-name="Grupo 234016" transform="translate(172.271 6.117)">
            <path id="Caminho_770778" data-name="Caminho 770778" d="M65.5,49.1a7.2,7.2,0,0,0-4.906-1.6c-2.866.219-4.919,2.289-6.973,3.622-4.605,2.988-14.01,8.224-19.737,3.9-1.936-1.463-2.119-3.632-4.386-4.937-1.605-.924-5.275-2.343-7.341-1.895-1.955.425-3.516,2.718-4.35,4.035A8.449,8.449,0,0,0,16.383,58.3,8.981,8.981,0,0,0,17.6,61.039c.791,1.395-.123,1.767-.408,2.97a1.34,1.34,0,0,0,.311,1.229,5.274,5.274,0,0,1-3.547-2.626c-.231-.448-1.178-.253-.944.2a6.168,6.168,0,0,0,4.027,3.14c2.86.767,5.714-.491,8.617.328,2.367.669,4.4,1.823,6.982,2,3.354.227,6.543-1,9.89-.9,1.45.042,2.855.346,4.314.248,1.618-.109,3.106-.684,4.737-.743,1.323-.048,2.628.344,3.951.231,1.547-.132,2.527-.943,4-1.247,2.348-.485,4.03.358,5.855-1.316a11.577,11.577,0,0,0,3.051-5.172A9.293,9.293,0,0,0,65.5,49.1" transform="translate(-2.578 -9.434)" fill="#ffe3d1"/>
            <path id="Caminho_770781" data-name="Caminho 770781" d="M60.888,16.944C56.335,10.647,48.967,6.332,41.24,6.586c-24.618.809-20.971,32.026-12.259,46.3,1.386,2.272,3.8,4.214,5.961,5.95a19.426,19.426,0,0,0,7.2,4.062c5.193,1.3,8.877-1.248,12.369-4.528a28.438,28.438,0,0,0,4.45-4.627c4.787-6.988,6.221-15.315,5.507-23.5-.276-3.168-2.5-11.8-3.58-13.3" transform="translate(-4.45 -1.307)" fill="#ffa694"/>
            <path id="Caminho_770784" data-name="Caminho 770784" d="M36.41,35.666a3.731,3.731,0,0,0-2.683-1.035,6.219,6.219,0,0,0-3.1,1.063c-.657.443-3.319,2.678-1.143,2.805a4.1,4.1,0,0,0,1.344-.243,15.484,15.484,0,0,1,3.857-.579c.708-.016,1.584-.059,1.9-.555a1.126,1.126,0,0,0-.172-1.456" transform="translate(-2.302 -6.88)" fill="#ffe3d1"/>
            <path id="Caminho_770785" data-name="Caminho 770785" d="M54.964,35.991c.361.5,1.2.424,1.868.339a12.609,12.609,0,0,1,3.721.079,3.371,3.371,0,0,0,1.3.074c2.043-.458-.752-2.549-1.429-2.945a5.2,5.2,0,0,0-3.067-.727,3.461,3.461,0,0,0-2.411,1.54,1.428,1.428,0,0,0,.017,1.639" transform="translate(-10.867 -6.515)" fill="#ffe3d1"/>
            <path id="Caminho_770787" data-name="Caminho 770787" d="M73.115,42.031a7.6,7.6,0,0,0,.745-2.307c.248-2.2-.8-3.849-1.4-5.9-.7-2.393-.024-4.866-.553-7.273-.433-2.04-1.851-3.359-2.925-5.111s-1.523-3.82-2.508-5.622a26.871,26.871,0,0,0-3.253-4.707c-2.091-2.444-5-5.255-8.31-6.61A23,23,0,0,0,46.054.872C41.936.065,36.07-.742,32.079,1.218c-6.451.159-12.789,4.3-17.293,8.052-2.4,2-3.934,4.3-4.071,7.273-.112,2.487.12,4.6-1.434,6.819a30.755,30.755,0,0,0-3.013,4.253,8.061,8.061,0,0,0-.761,4.361c.16,1.47.9,2.545-.28,4.1a20.538,20.538,0,0,1-1.8,1.643C1.381,39.826-.318,42.529.05,45.412c.08.613.353,1.168.473,1.766.24,1.168-.3,2.141-.337,3.251A3.542,3.542,0,0,0,.98,53a5.067,5.067,0,0,0,3.181,1.788c.272.043.561.079.849.1.256.022.521.036.785.036a3.323,3.323,0,0,0,.817.31,6.347,6.347,0,0,0,1.723.159c.28,0,.577-.014.857-.014a5.6,5.6,0,0,1,2.412.4,2.644,2.644,0,0,0,.561.223,2.59,2.59,0,0,0,.785.058c1.755-.058,3.886.4,4.568-1.514.192-.541.521-1.816.184-2.364-.048-.086-.136-.151-.184-.245-.224-.5.633-1.045.946-1.312a22.5,22.5,0,0,0,2.124-1.737,3.581,3.581,0,0,0,.97-2.335,11.849,11.849,0,0,0-.8-3.409c-.577-2.278.288-3.438,1.034-5.478,1.074-2.941-.457-6.242-.729-9.219a34,34,0,0,1,.288-8.318,4.606,4.606,0,0,0,1.322.086A99.107,99.107,0,0,0,38.1,19.434c1.106-.007,3.207-3.382,3.749-4.343,4.026,1.874,4.137,3.966,7.237,5.114.18,0,5.742.781,6.337.643A17.768,17.768,0,0,1,56.736,28.5c-.008,1.694-.5,3.489-.16,5.168.256,1.326,1.138,2.408,1.627,3.662,1.162,2.963-1.194,5.745.048,8.787.857,2.112.673,3.46.393,5.622a4.74,4.74,0,0,0,.625,3.431.493.493,0,0,0,.633.151,9.55,9.55,0,0,0,4.471.67c2.22-.022,7.132.159,8.47-1.874.737-1.11-.12-1.917.881-3.215.737-.937,1.378-1.355,1.595-2.595.4-2.321-.994-4.274-2.2-6.278" transform="translate(0 0)" fill="#ffe3d1"/>
            <path id="Caminho_770835" data-name="Caminho 770835" d="M.16,3.18c.413,1.474,1.5,2.459,2.42,2.2S3.918,3.716,3.5,2.242s-1.5-2.46-2.42-2.2S-.253,1.706.16,3.18" transform="translate(46.761 31.402) rotate(16)"/>
            <path id="Caminho_770839" data-name="Caminho 770839" d="M.16,3.18c.413,1.474,1.5,2.459,2.42,2.2S3.918,3.716,3.5,2.242s-1.5-2.46-2.42-2.2S-.253,1.706.16,3.18" transform="translate(30.229 31.402) rotate(16)"/>
            <path id="Caminho_770836" data-name="Caminho 770836" d="M142.008,67.029c.45-.666,1.4.144.957.806a6.422,6.422,0,0,0-.84,1.439c-.423.913-.372,2.5,1.01,2.4.8-.056.927,1.189.123,1.244a2.476,2.476,0,0,1-2.646-2.275c-.158-1.506.5-2.3,1.4-3.617" transform="translate(-103.834 -29.629)"/>
            <path id="Caminho_770837" data-name="Caminho 770837" d="M123.955,33.92c.063.425,1.073.24,1.174.641,1.788-3.027,4.567-8.387,6.356-11.414.325-.551.65-1.113.976-1.664a10.3,10.3,0,0,0-.951-.851c-.413.688-.813,1.388-1.226,2.076" transform="translate(-82.177 -18.718)" fill="#ffa694"/>
            <path id="Caminho_770840" data-name="Caminho 770840" d="M46.794,65.373H57.384" transform="translate(-12.121 -15.356)" fill="none" stroke="#000" stroke-linecap="round" stroke-width="2"/>
          </g>
        </g>
      </g>
    </g>
    <g id="Grupo_232268" data-name="Grupo 232268" transform="translate(690.689 1561.552)">
      <path id="Caminho_734262" data-name="Caminho 734262" d="M3.716-.459H110.311l-4.04,17.008H0Z" transform="translate(0 0.459)" fill="url(#linear-gradient-3)"/>
      <path id="Caminho_734263" data-name="Caminho 734263" d="M106.595,16.549H0L4.04-.459H110.311Z" transform="translate(0 17.361)" fill="url(#linear-gradient-4)"/>
    </g>
  </g>
</svg>
