<svg xmlns="http://www.w3.org/2000/svg" width="680.227" height="352.168" viewBox="0 0 680.227 352.168">
  <g id="_img_Grafico_12_" data-name="&lt;img Grafico_12&gt;" transform="translate(-646.779 -8393.832)">
    <path id="Caminho_772632" data-name="Caminho 772632" d="M9.12,33.48c4.992,0,8.672-2.272,8.672-7.072,0-8.128-11.04-5.408-11.04-9.888,0-2.048,2.272-2.528,4-2.528A8.927,8.927,0,0,1,15.584,15.4l1.664-3.328a13.311,13.311,0,0,0-7.04-1.952c-4.224,0-8.352,1.92-8.352,6.592,0,8.1,11.04,5.376,11.04,10.016,0,1.792-1.536,2.848-4.032,2.848A11.971,11.971,0,0,1,2.5,27.624L.7,31.048A15.221,15.221,0,0,0,9.12,33.48Zm19.648,0a10.3,10.3,0,0,0,3.584-.672l-.928-3.52a4.575,4.575,0,0,1-1.6.32c-1.664,0-2.464-.992-2.464-2.976v-5.76h4.384V17.32H27.36v-4.9H24.384l-.32,1.728c-.48,2.528-.736,3.168-3.616,3.168h-.48v3.552H22.88V27.4C22.88,31.144,24.864,33.48,28.768,33.48ZM43.616,16.84c-6.336,0-9.056,4.608-9.056,9.344,0,4.288,2.208,7.3,5.856,7.3,2.944,0,4.768-2.08,5.888-4.928L45.824,33h4.512V18.888A11.764,11.764,0,0,0,43.616,16.84ZM41.792,29.864c-1.44,0-2.56-.928-2.56-3.84,0-2.208.768-5.76,4.32-5.76a5.251,5.251,0,0,1,2.24.544C45.536,25,44.608,29.864,41.792,29.864ZM62.176,33.48a10.3,10.3,0,0,0,3.584-.672l-.928-3.52a4.575,4.575,0,0,1-1.6.32c-1.664,0-2.464-.992-2.464-2.976v-5.76h4.384V17.32H60.768v-4.9H57.792l-.32,1.728c-.48,2.528-.736,3.168-3.616,3.168h-.48v3.552h2.912V27.4C56.288,31.144,58.272,33.48,62.176,33.48ZM84.16,17.32H79.648c0,5.088-.16,12.288-4,12.288-1.984,0-2.368-2.08-2.368-3.424V17.32H68.8V27.656c0,3.808,2.432,5.824,5.7,5.824,2.752,0,4.448-1.632,5.5-4.064L79.648,33H84.16Zm9.792,16.16c3.872,0,6.688-1.664,6.688-5.28,0-5.568-8.1-3.936-8.1-6.4,0-1.024,1.28-1.312,2.464-1.312a8.366,8.366,0,0,1,3.9.96l1.536-3.136A12.438,12.438,0,0,0,94.56,16.84c-3.232,0-6.528,1.344-6.528,4.928,0,5.856,8.128,4.16,8.128,6.752,0,.864-.864,1.344-2.432,1.344a9.8,9.8,0,0,1-4.864-1.376l-1.632,3.264A13.694,13.694,0,0,0,93.952,33.48Zm29.28-16.448a12.326,12.326,0,0,0-2.208-.192c-6.336,0-9.056,4.608-9.056,9.344,0,4.288,2.208,7.3,5.856,7.3,2.944,0,4.768-2.112,5.888-4.96l-.48,4.48h4.512V9.832h-4.512ZM119.2,29.864c-1.44,0-2.56-.928-2.56-3.84,0-2.208.768-5.76,4.32-5.76a5.251,5.251,0,0,1,2.24.544C122.944,25,122.016,29.864,119.2,29.864Zm20.064,3.616a7.914,7.914,0,0,0,8.192-8.32,8.209,8.209,0,1,0-16.416,0A7.922,7.922,0,0,0,139.264,33.48Zm0-3.648c-2.368,0-3.584-2.176-3.584-4.672s1.216-4.672,3.584-4.672c2.336,0,3.552,2.176,3.552,4.672S141.6,29.832,139.264,29.832Zm16.9,3.648c3.872,0,6.688-1.664,6.688-5.28,0-5.568-8.1-3.936-8.1-6.4,0-1.024,1.28-1.312,2.464-1.312a8.366,8.366,0,0,1,3.9.96l1.536-3.136a12.438,12.438,0,0,0-5.888-1.472c-3.232,0-6.528,1.344-6.528,4.928,0,5.856,8.128,4.16,8.128,6.752,0,.864-.864,1.344-2.432,1.344a9.8,9.8,0,0,1-4.864-1.376l-1.632,3.264A13.694,13.694,0,0,0,156.16,33.48Zm28.7-16.64c-2.976,0-4.832,2.144-5.92,5.024l.48-4.544h-4.48V39.848h4.48v-6.56a12.689,12.689,0,0,0,2.24.192c6.336,0,9.056-4.608,9.056-9.344C190.72,19.848,188.512,16.84,184.864,16.84Zm-3.136,13.216a5.282,5.282,0,0,1-2.272-.544c.256-4.192,1.184-9.088,4.032-9.088,1.408,0,2.56.96,2.56,3.84C186.048,26.5,185.248,30.056,181.728,30.056Zm22.72-13.216c-3.456,0-5.184,2.56-6.08,5.984l.544-5.5h-4.48V33h4.48c0-5.184.32-11.52,4.576-11.52a5.077,5.077,0,0,1,1.6.288l1.184-4.672A6.609,6.609,0,0,0,204.448,16.84Zm11.36,16.64A7.914,7.914,0,0,0,224,25.16a8.209,8.209,0,1,0-16.416,0A7.922,7.922,0,0,0,215.808,33.48Zm0-3.648c-2.368,0-3.584-2.176-3.584-4.672s1.216-4.672,3.584-4.672c2.336,0,3.552,2.176,3.552,4.672S218.144,29.832,215.808,29.832Zm22.08-12.8a12.327,12.327,0,0,0-2.208-.192c-6.336,0-9.056,4.608-9.056,9.344,0,4.288,2.208,7.3,5.856,7.3,2.944,0,4.768-2.112,5.888-4.96l-.48,4.48H242.4V9.832h-4.512Zm-4.032,12.832c-1.44,0-2.56-.928-2.56-3.84,0-2.208.768-5.76,4.32-5.76a5.251,5.251,0,0,1,2.24.544C237.6,25,236.672,29.864,233.856,29.864Zm28-12.544h-4.512c0,5.088-.16,12.288-4,12.288-1.984,0-2.368-2.08-2.368-3.424V17.32H246.5V27.656c0,3.808,2.432,5.824,5.7,5.824,2.752,0,4.448-1.632,5.5-4.064L257.344,33h4.512ZM273.7,33.48a10.3,10.3,0,0,0,3.584-.672l-.928-3.52a4.575,4.575,0,0,1-1.6.32c-1.664,0-2.464-.992-2.464-2.976v-5.76h4.384V17.32h-4.384v-4.9h-2.976l-.32,1.728c-.48,2.528-.736,3.168-3.616,3.168h-.48v3.552h2.912V27.4C267.808,31.144,269.792,33.48,273.7,33.48Zm13.728,0a7.914,7.914,0,0,0,8.192-8.32,8.209,8.209,0,1,0-16.416,0A7.922,7.922,0,0,0,287.424,33.48Zm0-3.648c-2.368,0-3.584-2.176-3.584-4.672s1.216-4.672,3.584-4.672c2.336,0,3.552,2.176,3.552,4.672S289.76,29.832,287.424,29.832Zm16.9,3.648c3.872,0,6.688-1.664,6.688-5.28,0-5.568-8.1-3.936-8.1-6.4,0-1.024,1.28-1.312,2.464-1.312a8.366,8.366,0,0,1,3.9.96l1.536-3.136a12.438,12.438,0,0,0-5.888-1.472c-3.232,0-6.528,1.344-6.528,4.928,0,5.856,8.128,4.16,8.128,6.752,0,.864-.864,1.344-2.432,1.344a9.8,9.8,0,0,1-4.864-1.376L297.6,31.752A13.694,13.694,0,0,0,304.32,33.48Z" transform="translate(646.5 8384)"/>
    <path id="Caminho_772634" data-name="Caminho 772634" d="M9.72-2.64C6.6-2.64,4.728-5.112,4.728-8.4S6.6-14.16,9.72-14.16A5.73,5.73,0,0,1,13.056-13.1l1.56-2.448a8.687,8.687,0,0,0-5.16-1.608c-5.256,0-8.4,3.72-8.4,8.76C1.056-3.336,4.2.36,9.456.36a8.632,8.632,0,0,0,5.16-1.608L13.056-3.7A5.893,5.893,0,0,1,9.72-2.64ZM23.3-12.12c-4.752,0-6.792,3.456-6.792,7.008C16.512-1.9,18.168.36,20.9.36c2.208,0,3.576-1.56,4.416-3.7L24.96,0h3.384V-10.584A8.823,8.823,0,0,0,23.3-12.12ZM21.936-2.352c-1.08,0-1.92-.7-1.92-2.88,0-1.656.576-4.32,3.24-4.32a3.938,3.938,0,0,1,1.68.408C24.744-6,24.048-2.352,21.936-2.352Zm24.7-9.768a4.317,4.317,0,0,0-4.056,2.952,3.494,3.494,0,0,0-3.624-2.952c-2.088,0-3.384,1.3-4.176,3.216l.288-2.856H31.7V0h3.36c0-3.792.168-9.216,2.832-9.216,1.32,0,1.464,1.44,1.464,2.568V0h3.384c0-3.768.144-9.216,2.808-9.216,1.344,0,1.488,1.44,1.488,2.568V0H50.4V-7.584C50.4-10.44,49.032-12.12,46.632-12.12Zm8.616-1.3A2.2,2.2,0,0,0,57.5-15.7,2.205,2.205,0,0,0,55.248-18a2.211,2.211,0,0,0-2.28,2.3A2.205,2.205,0,0,0,55.248-13.416ZM56.928,0V-11.76h-3.36V0Zm7.344.36c2.9,0,5.016-1.248,5.016-3.96,0-4.176-6.072-2.952-6.072-4.8,0-.768.96-.984,1.848-.984a6.275,6.275,0,0,1,2.928.72l1.152-2.352a9.328,9.328,0,0,0-4.416-1.1c-2.424,0-4.9,1.008-4.9,3.7,0,4.392,6.1,3.12,6.1,5.064,0,.648-.648,1.008-1.824,1.008a7.347,7.347,0,0,1-3.648-1.032L59.232-.936A10.27,10.27,0,0,0,64.272.36ZM78-2.3a3.1,3.1,0,0,1-3.192-2.3l7.2-.84a6.2,6.2,0,0,0,.312-1.968c0-2.976-2.16-4.7-5.04-4.7-3.408,0-5.88,2.4-5.88,6.192C71.4-2.16,73.872.36,77.76.36A7.239,7.239,0,0,0,82.032-.96L80.784-3.144A5.387,5.387,0,0,1,78-2.3Zm-.528-7.224c1.056,0,1.824.552,1.824,1.584a1.854,1.854,0,0,1-.072.6l-4.56.552A2.878,2.878,0,0,1,77.472-9.528ZM90.528.36a7.728,7.728,0,0,0,2.688-.5l-.7-2.64a3.431,3.431,0,0,1-1.2.24c-1.248,0-1.848-.744-1.848-2.232V-9.1H92.76V-11.76H89.472v-3.672H87.24l-.24,1.3c-.36,1.9-.552,2.376-2.712,2.376h-.36V-9.1h2.184v4.9C86.112-1.392,87.6.36,90.528.36Zm11.136-12.48c-4.752,0-6.792,3.456-6.792,7.008C94.872-1.9,96.528.36,99.264.36c2.208,0,3.576-1.56,4.416-3.7L103.32,0H106.7V-10.584A8.823,8.823,0,0,0,101.664-12.12ZM100.3-2.352c-1.08,0-1.92-.7-1.92-2.88,0-1.656.576-4.32,3.24-4.32a3.938,3.938,0,0,1,1.68.408C103.1-6,102.408-2.352,100.3-2.352ZM114.048.36c2.9,0,5.016-1.248,5.016-3.96,0-4.176-6.072-2.952-6.072-4.8,0-.768.96-.984,1.848-.984a6.275,6.275,0,0,1,2.928.72l1.152-2.352a9.328,9.328,0,0,0-4.416-1.1c-2.424,0-4.9,1.008-4.9,3.7,0,4.392,6.1,3.12,6.1,5.064,0,.648-.648,1.008-1.824,1.008a7.347,7.347,0,0,1-3.648-1.032L109.008-.936A10.27,10.27,0,0,0,114.048.36Zm20.3-12.48c-4.752,0-6.792,3.456-6.792,7.008,0,3.216,1.656,5.472,4.392,5.472,2.208,0,3.576-1.56,4.416-3.7L136.008,0h3.384V-10.584A8.823,8.823,0,0,0,134.352-12.12Zm-1.368,9.768c-1.08,0-1.92-.7-1.92-2.88,0-1.656.576-4.32,3.24-4.32a3.938,3.938,0,0,1,1.68.408C135.792-6,135.1-2.352,132.984-2.352Zm17.3-9.768c-2.28,0-3.648,1.392-4.464,3.432l.288-3.072h-3.36V0h3.36c0-3.816.216-9.216,3.144-9.216,1.488,0,1.632,1.584,1.632,2.568V0h3.384V-7.584C154.272-10.416,152.808-12.12,150.288-12.12ZM162.816.36a5.935,5.935,0,0,0,6.144-6.24,5.922,5.922,0,0,0-6.144-6.24,5.928,5.928,0,0,0-6.168,6.24A5.941,5.941,0,0,0,162.816.36Zm0-2.736c-1.776,0-2.688-1.632-2.688-3.5s.912-3.5,2.688-3.5c1.752,0,2.664,1.632,2.664,3.5S164.568-2.376,162.816-2.376ZM175.488.36c2.9,0,5.016-1.248,5.016-3.96,0-4.176-6.072-2.952-6.072-4.8,0-.768.96-.984,1.848-.984a6.275,6.275,0,0,1,2.928.72l1.152-2.352a9.328,9.328,0,0,0-4.416-1.1c-2.424,0-4.9,1.008-4.9,3.7,0,4.392,6.1,3.12,6.1,5.064,0,.648-.648,1.008-1.824,1.008a7.347,7.347,0,0,1-3.648-1.032L170.448-.936A10.27,10.27,0,0,0,175.488.36Zm18.936.024c5.448,0,7.68-4.416,7.68-9.312,0-5.64-3.12-8.232-6.912-8.232-3.288,0-6.168,2.064-6.168,5.808a5.336,5.336,0,0,0,5.592,5.568c2.424,0,3.6-1.224,3.96-1.992-.216,3.432-1.416,5.256-4.32,5.256a7.17,7.17,0,0,1-3.6-1.032L189.288-1.08A9.419,9.419,0,0,0,194.424.384Zm.864-9.072a2.649,2.649,0,0,1-2.664-2.808,2.609,2.609,0,0,1,2.664-2.76,2.6,2.6,0,0,1,2.688,2.76A2.64,2.64,0,0,1,195.288-8.688ZM211.992.36c4.7,0,7.464-3.816,7.464-8.76s-2.76-8.76-7.464-8.76c-4.728,0-7.488,3.816-7.488,8.76S207.264.36,211.992.36Zm0-3c-2.712,0-3.816-2.928-3.816-5.76s1.1-5.76,3.816-5.76,3.816,2.928,3.816,5.76S214.7-2.64,211.992-2.64Z" transform="translate(778.699 8492)"/>
    <path id="Caminho_772635" data-name="Caminho 772635" d="M5.256,0V-10.344L12.984,0h2.832V-16.8H12.408V-6.48L4.68-16.8H1.872V0ZM24.72.36a5.935,5.935,0,0,0,6.144-6.24,5.922,5.922,0,0,0-6.144-6.24,5.928,5.928,0,0,0-6.168,6.24A5.941,5.941,0,0,0,24.72.36Zm0-2.736c-1.776,0-2.688-1.632-2.688-3.5s.912-3.5,2.688-3.5c1.752,0,2.664,1.632,2.664,3.5S26.472-2.376,24.72-2.376Zm15.312-8.808a11.381,11.381,0,0,1,1.176,4.776c0,1.968-.744,3.96-2.712,3.96-1.272,0-1.92-.816-1.92-2.376V-11.76h-3.36v7.3c0,2.832,2.04,4.8,5.256,4.8,4.128,0,6.168-3.192,6.168-6.744A15.388,15.388,0,0,0,43.32-12.1Zm13.68-.936c-4.752,0-6.792,3.456-6.792,7.008C46.92-1.9,48.576.36,51.312.36c2.208,0,3.576-1.56,4.416-3.7L55.368,0h3.384V-10.584A8.823,8.823,0,0,0,53.712-12.12ZM52.344-2.352c-1.08,0-1.92-.7-1.92-2.88,0-1.656.576-4.32,3.24-4.32a3.938,3.938,0,0,1,1.68.408C55.152-6,54.456-2.352,52.344-2.352ZM74.112.36a7.728,7.728,0,0,0,2.688-.5l-.7-2.64a3.431,3.431,0,0,1-1.2.24c-1.248,0-1.848-.744-1.848-2.232V-9.1h3.288V-11.76H73.056v-3.672H70.824l-.24,1.3c-.36,1.9-.552,2.376-2.712,2.376h-.36V-9.1H69.7v4.9C69.7-1.392,71.184.36,74.112.36ZM84.84-2.3a3.1,3.1,0,0,1-3.192-2.3l7.2-.84a6.2,6.2,0,0,0,.312-1.968c0-2.976-2.16-4.7-5.04-4.7-3.408,0-5.88,2.4-5.88,6.192C78.24-2.16,80.712.36,84.6.36A7.239,7.239,0,0,0,88.872-.96L87.624-3.144A5.387,5.387,0,0,1,84.84-2.3Zm-.528-7.224c1.056,0,1.824.552,1.824,1.584a1.854,1.854,0,0,1-.072.6l-4.56.552A2.878,2.878,0,0,1,84.312-9.528ZM99.36-12.12c-2.28,0-3.648,1.392-4.464,3.432l.288-3.072h-3.36V0h3.36c0-3.816.216-9.216,3.144-9.216,1.488,0,1.632,1.584,1.632,2.568V0h3.384V-7.584C103.344-10.416,101.88-12.12,99.36-12.12Zm15.024.144a9.245,9.245,0,0,0-1.656-.144c-4.752,0-6.792,3.456-6.792,7.008,0,3.216,1.656,5.472,4.392,5.472,2.208,0,3.576-1.584,4.416-3.72L114.384,0h3.384V-17.376h-3.384ZM111.36-2.352c-1.08,0-1.92-.7-1.92-2.88,0-1.656.576-4.32,3.24-4.32a3.938,3.938,0,0,1,1.68.408C114.168-6,113.472-2.352,111.36-2.352Zm17.856-10.9,1.272-1.944-4.3-3.1-4.32,3.1,1.272,1.944,3.048-1.872ZM126.84-2.3a3.1,3.1,0,0,1-3.192-2.3l7.2-.84a6.2,6.2,0,0,0,.312-1.968c0-2.976-2.16-4.7-5.04-4.7-3.408,0-5.88,2.4-5.88,6.192,0,3.768,2.472,6.288,6.36,6.288a7.239,7.239,0,0,0,4.272-1.32l-1.248-2.184A5.387,5.387,0,0,1,126.84-2.3Zm-.528-7.224c1.056,0,1.824.552,1.824,1.584a1.855,1.855,0,0,1-.072.6l-4.56.552A2.878,2.878,0,0,1,126.312-9.528ZM141.36-12.12c-2.28,0-3.648,1.392-4.464,3.432l.288-3.072h-3.36V0h3.36c0-3.816.216-9.216,3.144-9.216,1.488,0,1.632,1.584,1.632,2.568V0h3.384V-7.584C145.344-10.416,143.88-12.12,141.36-12.12Zm12.888,9.576A3.031,3.031,0,0,1,151.2-5.88a3.031,3.031,0,0,1,3.048-3.336,3.587,3.587,0,0,1,2.04.624l1.512-2.4a6.761,6.761,0,0,0-3.816-1.128,5.889,5.889,0,0,0-6.264,6.24A5.889,5.889,0,0,0,153.984.36,6.538,6.538,0,0,0,157.8-.792l-1.512-2.376A3.587,3.587,0,0,1,154.248-2.544Zm8.016-10.872a2.2,2.2,0,0,0,2.256-2.28,2.205,2.205,0,0,0-2.256-2.3,2.211,2.211,0,0,0-2.28,2.3A2.205,2.205,0,0,0,162.264-13.416ZM163.944,0V-11.76h-3.36V0Zm9.576-12.12c-4.752,0-6.792,3.456-6.792,7.008,0,3.216,1.656,5.472,4.392,5.472,2.208,0,3.576-1.56,4.416-3.7L175.176,0h3.384V-10.584A8.823,8.823,0,0,0,173.52-12.12Zm-1.368,9.768c-1.08,0-1.92-.7-1.92-2.88,0-1.656.576-4.32,3.24-4.32a3.938,3.938,0,0,1,1.68.408C174.96-6,174.264-2.352,172.152-2.352Zm24.12-9.624a9.245,9.245,0,0,0-1.656-.144c-4.752,0-6.792,3.456-6.792,7.008,0,3.216,1.656,5.472,4.392,5.472,2.208,0,3.576-1.584,4.416-3.72L196.272,0h3.384V-17.376h-3.384Zm-3.024,9.624c-1.08,0-1.92-.7-1.92-2.88,0-1.656.576-4.32,3.24-4.32a3.938,3.938,0,0,1,1.68.408C196.056-6,195.36-2.352,193.248-2.352Zm15.48.048a3.1,3.1,0,0,1-3.192-2.3l7.2-.84a6.2,6.2,0,0,0,.312-1.968c0-2.976-2.16-4.7-5.04-4.7-3.408,0-5.88,2.4-5.88,6.192,0,3.768,2.472,6.288,6.36,6.288A7.239,7.239,0,0,0,212.76-.96l-1.248-2.184A5.387,5.387,0,0,1,208.728-2.3ZM208.2-9.528c1.056,0,1.824.552,1.824,1.584a1.855,1.855,0,0,1-.072.6l-4.56.552A2.878,2.878,0,0,1,208.2-9.528Zm28.92-2.592a4.317,4.317,0,0,0-4.056,2.952,3.494,3.494,0,0,0-3.624-2.952c-2.088,0-3.384,1.3-4.176,3.216l.288-2.856h-3.36V0h3.36c0-3.792.168-9.216,2.832-9.216,1.32,0,1.464,1.44,1.464,2.568V0h3.384c0-3.768.144-9.216,2.808-9.216,1.344,0,1.488,1.44,1.488,2.568V0h3.36V-7.584C240.888-10.44,239.52-12.12,237.12-12.12ZM249.864-2.3a3.1,3.1,0,0,1-3.192-2.3l7.2-.84a6.2,6.2,0,0,0,.312-1.968c0-2.976-2.16-4.7-5.04-4.7-3.408,0-5.88,2.4-5.88,6.192,0,3.768,2.472,6.288,6.36,6.288A7.239,7.239,0,0,0,253.9-.96l-1.248-2.184A5.387,5.387,0,0,1,249.864-2.3Zm-.528-7.224c1.056,0,1.824.552,1.824,1.584a1.855,1.855,0,0,1-.072.6l-4.56.552A2.878,2.878,0,0,1,249.336-9.528ZM264.36-12.12c-2.592,0-3.888,1.92-4.56,4.488l.408-4.128h-3.36V0h3.36c0-3.888.24-8.64,3.432-8.64a3.808,3.808,0,0,1,1.2.216l.888-3.5A4.957,4.957,0,0,0,264.36-12.12Zm8.88,9.576a3.031,3.031,0,0,1-3.048-3.336,3.031,3.031,0,0,1,3.048-3.336,3.587,3.587,0,0,1,2.04.624l1.512-2.4a6.761,6.761,0,0,0-3.816-1.128,5.889,5.889,0,0,0-6.264,6.24A5.889,5.889,0,0,0,272.976.36a6.538,6.538,0,0,0,3.816-1.152L275.28-3.168A3.587,3.587,0,0,1,273.24-2.544Zm12.1-9.576c-4.752,0-6.792,3.456-6.792,7.008C278.544-1.9,280.2.36,282.936.36c2.208,0,3.576-1.56,4.416-3.7L286.992,0h3.384V-10.584A8.823,8.823,0,0,0,285.336-12.12Zm-1.368,9.768c-1.08,0-1.92-.7-1.92-2.88,0-1.656.576-4.32,3.24-4.32a3.939,3.939,0,0,1,1.68.408C286.776-6,286.08-2.352,283.968-2.352Zm17.64-9.624a9.245,9.245,0,0,0-1.656-.144c-4.752,0-6.792,3.456-6.792,7.008,0,3.216,1.656,5.472,4.392,5.472,2.208,0,3.576-1.584,4.416-3.72L301.608,0h3.384V-17.376h-3.384Zm-3.024,9.624c-1.08,0-1.92-.7-1.92-2.88,0-1.656.576-4.32,3.24-4.32a3.938,3.938,0,0,1,1.68.408C301.392-6,300.7-2.352,298.584-2.352ZM313.632.36a5.935,5.935,0,0,0,6.144-6.24,5.922,5.922,0,0,0-6.144-6.24,5.928,5.928,0,0,0-6.168,6.24A5.941,5.941,0,0,0,313.632.36Zm0-2.736c-1.776,0-2.688-1.632-2.688-3.5s.912-3.5,2.688-3.5c1.752,0,2.664,1.632,2.664,3.5S315.384-2.376,313.632-2.376Z" transform="translate(778.699 8566)"/>
    <path id="Caminho_772636" data-name="Caminho 772636" d="M1.953,5.539l.105,9.408L1.953,19h1.7L3.57,14.8v-.525h1.6c3.15,0,5.019-1.827,5.019-4.809,0-2.541-1.491-3.948-4.116-3.948Zm1.638,7.329.063-5.9L5.691,6.9c1.806.063,2.772.9,2.772,2.709A2.97,2.97,0,0,1,5.8,12.91Zm8.9,1.239,5.859-.021.357-.273c.021-.252.042-.735.042-.966,0-2.268-1.218-3.612-3.318-3.612-2.751,0-4.515,1.911-4.515,5.019,0,3.024,1.617,4.914,4.368,4.914a6.585,6.585,0,0,0,2.919-.777l.168-1.407-.189-.1a5.13,5.13,0,0,1-2.814.945c-1.932,0-2.877-1.386-2.877-3.654Zm2.793-3.7c1.155,0,1.974.693,1.974,2.2l-.042.252-4.62.126C12.894,11.335,13.86,10.411,15.288,10.411Zm8.547-1.176c-2.079,0-3.318,1.176-3.318,2.772,0,2.982,4.389,2.583,4.389,4.515a1.578,1.578,0,0,1-1.743,1.449,4.132,4.132,0,0,1-2.562-1.05l-.189.126-.21,1.428a6.169,6.169,0,0,0,2.793.693c2.226,0,3.423-1.407,3.423-2.94,0-2.9-4.368-2.5-4.368-4.431a1.455,1.455,0,0,1,1.6-1.365,3.643,3.643,0,0,1,2.016.693l.252-.063L26.145,9.7A6.123,6.123,0,0,0,23.835,9.235Zm7.77,0c-2.079,0-3.318,1.176-3.318,2.772,0,2.982,4.389,2.583,4.389,4.515a1.578,1.578,0,0,1-1.743,1.449,4.132,4.132,0,0,1-2.562-1.05l-.189.126-.21,1.428a6.169,6.169,0,0,0,2.793.693c2.226,0,3.423-1.407,3.423-2.94,0-2.9-4.368-2.5-4.368-4.431a1.455,1.455,0,0,1,1.6-1.365,3.643,3.643,0,0,1,2.016.693l.252-.063L33.915,9.7A6.123,6.123,0,0,0,31.6,9.235Zm8.736-.021c-2.793,0-4.389,1.869-4.389,5.1,0,3.087,1.512,4.851,4.137,4.851,2.793,0,4.368-1.869,4.368-5.1C44.457,10.978,42.945,9.214,40.341,9.214Zm-.1,1.176c1.722,0,2.667,1.386,2.667,4.053,0,2.352-.945,3.528-2.709,3.528-1.722,0-2.667-1.323-2.667-4.032C37.527,11.629,38.472,10.39,40.236,10.39Zm10-1.176a6.045,6.045,0,0,0-3.591,1.3l.21,1.2.168.084a4.576,4.576,0,0,1,2.961-1.386,1.517,1.517,0,0,1,1.659,1.7l-.021,1.365-3.4.8a2.163,2.163,0,0,0-1.953,2.247c0,1.617,1.092,2.625,2.982,2.625a6.193,6.193,0,0,0,2.247-1.575h.147a1.5,1.5,0,0,0,1.449,1.554,3.024,3.024,0,0,0,1.2-.42l.168-.945-.168-.147a2.291,2.291,0,0,1-.714.126c-.483,0-.651-.21-.651-.819,0-.735.252-4.452.252-5.187C53.172,10.159,52.038,9.214,50.232,9.214ZM51.6,14.548l-.063,1.722a3.222,3.222,0,0,1-2.352,1.491,1.346,1.346,0,0,1-1.428-1.47.92.92,0,0,1,.8-1.008Zm7.791-5.313c-2.079,0-3.318,1.176-3.318,2.772,0,2.982,4.389,2.583,4.389,4.515a1.578,1.578,0,0,1-1.743,1.449,4.132,4.132,0,0,1-2.562-1.05l-.189.126-.21,1.428a6.169,6.169,0,0,0,2.793.693c2.226,0,3.423-1.407,3.423-2.94,0-2.9-4.368-2.5-4.368-4.431a1.455,1.455,0,0,1,1.6-1.365,3.643,3.643,0,0,1,2.016.693l.252-.063L61.7,9.7A6.123,6.123,0,0,0,59.388,9.235Zm12.075-.021c-2.646,0-4.263,1.953-4.263,5.04,0,3.045,1.554,4.914,4.095,4.914a6.813,6.813,0,0,0,2.562-.546l.189-1.407-.189-.1a4.717,4.717,0,0,1-2.352.714c-1.722,0-2.73-1.407-2.73-3.654,0-2.268.987-3.591,2.625-3.591a4.088,4.088,0,0,1,2.163.714l.189-.063.294-1.449A6.385,6.385,0,0,0,71.463,9.214Zm8.19,0c-2.793,0-4.389,1.869-4.389,5.1,0,3.087,1.512,4.851,4.137,4.851,2.793,0,4.368-1.869,4.368-5.1C83.769,10.978,82.257,9.214,79.653,9.214Zm-.105,1.176c1.722,0,2.667,1.386,2.667,4.053,0,2.352-.945,3.528-2.709,3.528-1.722,0-2.667-1.323-2.667-4.032C76.839,11.629,77.784,10.39,79.548,10.39ZM98.28,19h1.68L99.9,14.821l.021-2.73c.021-1.806-1.071-2.835-3.192-2.835a6.906,6.906,0,0,0-2.856,1.6h-.126c-.4-1.029-1.407-1.6-3-1.6A6.415,6.415,0,0,0,88.1,10.747h-.147l.021-1.407-1.6.147.084,5.439L86.352,19h1.659l-.084-4.221.021-2.625a4.2,4.2,0,0,1,2.835-1.512c1.113,0,1.659.714,1.638,1.827L92.316,19H94l-.084-4.179.042-2.73a4.144,4.144,0,0,1,2.793-1.449,1.576,1.576,0,0,1,1.659,1.827Zm20.181,0h1.68l-.063-4.179.021-2.73c.021-1.806-1.071-2.835-3.192-2.835a6.906,6.906,0,0,0-2.856,1.6h-.126c-.4-1.029-1.407-1.6-3-1.6a6.415,6.415,0,0,0-2.646,1.491h-.147l.021-1.407-1.6.147.084,5.439L106.533,19h1.659l-.084-4.221.021-2.625a4.2,4.2,0,0,1,2.835-1.512c1.113,0,1.659.714,1.638,1.827L112.5,19h1.68l-.084-4.179.042-2.73a4.144,4.144,0,0,1,2.793-1.449,1.576,1.576,0,0,1,1.659,1.827Zm7.98-9.786a6.045,6.045,0,0,0-3.591,1.3l.21,1.2.168.084a4.576,4.576,0,0,1,2.961-1.386,1.517,1.517,0,0,1,1.659,1.7l-.021,1.365-3.4.8a2.163,2.163,0,0,0-1.953,2.247c0,1.617,1.092,2.625,2.982,2.625a6.193,6.193,0,0,0,2.247-1.575h.147a1.5,1.5,0,0,0,1.449,1.554,3.024,3.024,0,0,0,1.2-.42l.168-.945-.168-.147a2.291,2.291,0,0,1-.714.126c-.483,0-.651-.21-.651-.819,0-.735.252-4.452.252-5.187C129.381,10.159,128.247,9.214,126.441,9.214Zm1.365,5.334-.063,1.722a3.222,3.222,0,0,1-2.352,1.491,1.346,1.346,0,0,1-1.428-1.47.92.92,0,0,1,.8-1.008Zm6.048-9.471a.926.926,0,0,0-.987.987.863.863,0,0,0,.924.966A.938.938,0,0,0,134.778,6,.86.86,0,0,0,133.854,5.077Zm.651,9.7.126-5.439-1.659.147.084,5.439L132.951,19h1.659Zm6.09-5.544c-2.079,0-3.318,1.176-3.318,2.772,0,2.982,4.389,2.583,4.389,4.515a1.578,1.578,0,0,1-1.743,1.449,4.132,4.132,0,0,1-2.562-1.05l-.189.126-.21,1.428a6.169,6.169,0,0,0,2.793.693c2.226,0,3.423-1.407,3.423-2.94,0-2.9-4.368-2.5-4.368-4.431a1.455,1.455,0,0,1,1.6-1.365,3.643,3.643,0,0,1,2.016.693l.252-.063L142.9,9.7A6.123,6.123,0,0,0,140.6,9.235Zm15.792,5.544.126-10.521-1.659.147.042,5.019a8.182,8.182,0,0,0-1.848-.21c-2.919,0-4.662,1.806-4.662,5,0,3.108,1.491,4.893,4.284,4.893a6.983,6.983,0,0,0,2.289-1.449h.147a1.548,1.548,0,0,0,1.47,1.47,3.024,3.024,0,0,0,1.2-.42l.147-.945-.168-.147a2.119,2.119,0,0,1-.714.126c-.441,0-.588-.21-.609-.8Zm-3.549-4.389a4.9,4.9,0,0,1,2.058.525l.042,3.99-.042,1.512a2.982,2.982,0,0,1-2.31,1.281c-1.6,0-2.6-1.3-2.646-3.633C149.9,11.629,151.074,10.39,152.838,10.39Zm7.98,3.717,5.859-.021.357-.273c.021-.252.042-.735.042-.966,0-2.268-1.218-3.612-3.318-3.612-2.751,0-4.515,1.911-4.515,5.019,0,3.024,1.617,4.914,4.368,4.914a6.585,6.585,0,0,0,2.919-.777l.168-1.407-.189-.1a5.13,5.13,0,0,1-2.814.945c-1.932,0-2.877-1.386-2.877-3.654Zm2.793-3.7c1.155,0,1.974.693,1.974,2.2l-.042.252-4.62.126C161.217,11.335,162.183,10.411,163.611,10.411Zm11.718-1.974a5.141,5.141,0,0,0-3.36,1.3l.252,1.323h.189a3.953,3.953,0,0,1,2.6-1.239,1.632,1.632,0,0,1,1.827,1.638,2.585,2.585,0,0,1-2.52,2.373l-.924.021-.042,1.155.1.126H174.7c1.743.063,2.709.84,2.709,2.163,0,1.491-1.26,2.436-3.108,2.436a5.483,5.483,0,0,1-2.142-.42l-.126.1.1,1.428a13.152,13.152,0,0,0,2.058.189c2.856,0,4.788-1.6,4.788-3.948,0-1.428-.882-2.394-2.562-2.793v-.084a3.535,3.535,0,0,0,2.1-3.108C178.521,9.529,177.24,8.437,175.329,8.437Zm10.311-.021c-3,0-4.683,1.974-4.683,5.5,0,3.339,1.617,5.229,4.473,5.229,2.982,0,4.662-1.974,4.662-5.439C190.092,10.306,188.475,8.416,185.64,8.416Zm-.147,1.533c2.142,0,3.276,1.344,3.276,3.948,0,2.478-1.113,3.78-3.255,3.78s-3.234-1.323-3.234-3.885C182.28,11.251,183.372,9.949,185.493,9.949Zm13.881-.735a6.045,6.045,0,0,0-3.591,1.3l.21,1.2.168.084a4.576,4.576,0,0,1,2.961-1.386,1.517,1.517,0,0,1,1.659,1.7l-.021,1.365-3.4.8a2.163,2.163,0,0,0-1.953,2.247c0,1.617,1.092,2.625,2.982,2.625a6.193,6.193,0,0,0,2.247-1.575h.147a1.5,1.5,0,0,0,1.449,1.554,3.024,3.024,0,0,0,1.2-.42l.168-.945-.168-.147a2.291,2.291,0,0,1-.714.126c-.483,0-.651-.21-.651-.819,0-.735.252-4.452.252-5.187C202.314,10.159,201.18,9.214,199.374,9.214Zm1.365,5.334-.063,1.722a3.222,3.222,0,0,1-2.352,1.491,1.346,1.346,0,0,1-1.428-1.47.92.92,0,0,1,.8-1.008ZM211.848,19h1.68l-.084-4.179.042-2.73c.021-1.806-1.071-2.835-3.213-2.835a6.611,6.611,0,0,0-2.667,1.491h-.126L207.5,9.34l-1.6.147.084,5.439L205.884,19h1.659l-.084-4.221.021-2.646a4.164,4.164,0,0,1,2.835-1.491c1.113,0,1.659.714,1.638,1.827Zm8.463-9.786c-2.793,0-4.389,1.869-4.389,5.1,0,3.087,1.512,4.851,4.137,4.851,2.793,0,4.368-1.869,4.368-5.1C224.427,10.978,222.915,9.214,220.311,9.214Zm-.1,1.176c1.722,0,2.667,1.386,2.667,4.053,0,2.352-.945,3.528-2.709,3.528-1.722,0-2.667-1.323-2.667-4.032C217.5,11.629,218.442,10.39,220.206,10.39Zm9.45-1.155c-2.079,0-3.318,1.176-3.318,2.772,0,2.982,4.389,2.583,4.389,4.515a1.578,1.578,0,0,1-1.743,1.449,4.132,4.132,0,0,1-2.562-1.05l-.189.126-.21,1.428a6.169,6.169,0,0,0,2.793.693c2.226,0,3.423-1.407,3.423-2.94,0-2.9-4.368-2.5-4.368-4.431a1.455,1.455,0,0,1,1.6-1.365,3.643,3.643,0,0,1,2.016.693l.252-.063.231-1.365A6.123,6.123,0,0,0,229.656,9.235Zm11.235,0c-2.079,0-3.318,1.176-3.318,2.772,0,2.982,4.389,2.583,4.389,4.515a1.578,1.578,0,0,1-1.743,1.449,4.132,4.132,0,0,1-2.562-1.05l-.189.126-.21,1.428a6.169,6.169,0,0,0,2.793.693c2.226,0,3.423-1.407,3.423-2.94,0-2.9-4.368-2.5-4.368-4.431a1.455,1.455,0,0,1,1.6-1.365,3.643,3.643,0,0,1,2.016.693l.252-.063L243.2,9.7A6.123,6.123,0,0,0,240.891,9.235Zm5.922,4.872,5.859-.021.357-.273c.021-.252.042-.735.042-.966,0-2.268-1.218-3.612-3.318-3.612-2.751,0-4.515,1.911-4.515,5.019,0,3.024,1.617,4.914,4.368,4.914a6.585,6.585,0,0,0,2.919-.777l.168-1.407-.189-.1a5.13,5.13,0,0,1-2.814.945c-1.932,0-2.877-1.386-2.877-3.654Zm2.793-3.7c1.155,0,1.974.693,1.974,2.2l-.042.252-4.62.126C247.212,11.335,248.178,10.411,249.606,10.411ZM261.471,19h1.68l-.084-4.179.042-2.73c.021-1.806-1.071-2.835-3.213-2.835a6.611,6.611,0,0,0-2.667,1.491H257.1l.021-1.407-1.6.147.084,5.439L255.507,19h1.659l-.084-4.221.021-2.646a4.164,4.164,0,0,1,2.835-1.491c1.113,0,1.659.714,1.638,1.827Zm12.054-4.221.126-10.521-1.659.147.042,5.019a8.181,8.181,0,0,0-1.848-.21c-2.919,0-4.662,1.806-4.662,5,0,3.108,1.491,4.893,4.284,4.893a6.983,6.983,0,0,0,2.289-1.449h.147a1.548,1.548,0,0,0,1.47,1.47,3.024,3.024,0,0,0,1.2-.42l.147-.945-.168-.147a2.119,2.119,0,0,1-.714.126c-.441,0-.588-.21-.609-.8Zm-3.549-4.389a4.9,4.9,0,0,1,2.058.525l.042,3.99-.042,1.512a2.982,2.982,0,0,1-2.31,1.281c-1.6,0-2.6-1.3-2.646-3.633C267.036,11.629,268.212,10.39,269.976,10.39ZM280.77,9.214c-2.793,0-4.389,1.869-4.389,5.1,0,3.087,1.512,4.851,4.137,4.851,2.793,0,4.368-1.869,4.368-5.1C284.886,10.978,283.374,9.214,280.77,9.214Zm-.105,1.176c1.722,0,2.667,1.386,2.667,4.053,0,2.352-.945,3.528-2.709,3.528-1.722,0-2.667-1.323-2.667-4.032C277.956,11.629,278.9,10.39,280.665,10.39ZM2.562,34.077a.926.926,0,0,0-.987.987.863.863,0,0,0,.924.966A.938.938,0,0,0,3.486,35,.86.86,0,0,0,2.562,34.077Zm.651,9.7.126-5.439-1.659.147.084,5.439L1.659,48H3.318ZM12.621,48H14.3l-.084-4.179.042-2.73c.021-1.806-1.071-2.835-3.213-2.835a6.611,6.611,0,0,0-2.667,1.491H8.253l.021-1.407-1.6.147.084,5.439L6.657,48H8.316l-.084-4.221.021-2.646a4.164,4.164,0,0,1,2.835-1.491c1.113,0,1.659.714,1.638,1.827Zm9.24-14.931c-2.562,0-4.032,1.3-4.011,3.822l.021,1.512H16.464l-.1.987.084.126h1.428l.063,4.41L17.808,48h1.659l-.1-4.158.042-4.326h2.5l.1-.987-.063-.126h-2.52l.021-1.764a2.075,2.075,0,0,1,2.331-2.352,7.082,7.082,0,0,1,2.688.588l.126-.105.315-1.3A12.519,12.519,0,0,0,21.861,33.069Zm3.822,10.71.126-10.521L24.15,33.4l.1,10.5L24.129,48h1.659ZM36.456,38.34l-1.6.147v6.951a3.884,3.884,0,0,1-2.6,1.281c-1.092,0-1.638-.693-1.617-1.827l.126-6.552-1.68.147.063,4.137-.021,2.667c-.021,1.806,1.071,2.835,3.15,2.835a6.1,6.1,0,0,0,2.6-1.47h.168a1.529,1.529,0,0,0,1.449,1.47,3.024,3.024,0,0,0,1.2-.42l.147-.945-.147-.147a2.309,2.309,0,0,1-.735.126c-.441,0-.63-.21-.63-.8Zm4.284,4.767,5.859-.021.357-.273c.021-.252.042-.735.042-.966,0-2.268-1.218-3.612-3.318-3.612-2.751,0-4.515,1.911-4.515,5.019,0,3.024,1.617,4.914,4.368,4.914a6.585,6.585,0,0,0,2.919-.777l.168-1.407-.189-.1a5.13,5.13,0,0,1-2.814.945c-1.932,0-2.877-1.386-2.877-3.654Zm2.793-3.7c1.155,0,1.974.693,1.974,2.205l-.042.252-4.62.126C41.139,40.335,42.1,39.411,43.533,39.411ZM55.4,48h1.68l-.084-4.179.042-2.73c.021-1.806-1.071-2.835-3.213-2.835a6.611,6.611,0,0,0-2.667,1.491H51.03l.021-1.407-1.6.147.084,5.439L49.434,48h1.659l-.084-4.221.021-2.646a4.164,4.164,0,0,1,2.835-1.491c1.113,0,1.659.714,1.638,1.827Zm8.337-9.786c-2.646,0-4.263,1.953-4.263,5.04,0,3.045,1.554,4.914,4.1,4.914a6.813,6.813,0,0,0,2.562-.546l.189-1.407-.189-.1a4.717,4.717,0,0,1-2.352.714c-1.722,0-2.73-1.407-2.73-3.654,0-2.268.987-3.591,2.625-3.591a4.088,4.088,0,0,1,2.163.714l.189-.063.294-1.449A6.385,6.385,0,0,0,63.735,38.214Zm5.5-4.137a.926.926,0,0,0-.987.987.863.863,0,0,0,.924.966A.938.938,0,0,0,70.161,35,.86.86,0,0,0,69.237,34.077Zm.651,9.7.126-5.439-1.659.147.084,5.439L68.334,48h1.659Zm6.636-5.565a6.045,6.045,0,0,0-3.591,1.3l.21,1.2.168.084a4.576,4.576,0,0,1,2.961-1.386,1.517,1.517,0,0,1,1.659,1.7l-.021,1.365-3.4.8a2.163,2.163,0,0,0-1.953,2.247c0,1.617,1.092,2.625,2.982,2.625a6.193,6.193,0,0,0,2.247-1.575h.147a1.5,1.5,0,0,0,1.449,1.554,3.024,3.024,0,0,0,1.2-.42l.168-.945-.168-.147a2.291,2.291,0,0,1-.714.126c-.483,0-.651-.21-.651-.819,0-.735.252-4.452.252-5.187C79.464,39.159,78.33,38.214,76.524,38.214Zm1.365,5.334-.063,1.722a3.222,3.222,0,0,1-2.352,1.491,1.346,1.346,0,0,1-1.428-1.47.92.92,0,0,1,.8-1.008Zm12.348.231.126-10.521L88.7,33.4l.042,5.019a8.181,8.181,0,0,0-1.848-.21c-2.919,0-4.662,1.806-4.662,5,0,3.108,1.491,4.893,4.284,4.893a6.983,6.983,0,0,0,2.289-1.449h.147a1.548,1.548,0,0,0,1.47,1.47,3.024,3.024,0,0,0,1.2-.42l.147-.945-.168-.147a2.119,2.119,0,0,1-.714.126c-.441,0-.588-.21-.609-.8ZM86.688,39.39a4.9,4.9,0,0,1,2.058.525l.042,3.99-.042,1.512a2.982,2.982,0,0,1-2.31,1.281c-1.6,0-2.6-1.3-2.646-3.633C83.748,40.629,84.924,39.39,86.688,39.39Zm10.374-1.176a6.045,6.045,0,0,0-3.591,1.3l.21,1.2.168.084a4.576,4.576,0,0,1,2.961-1.386,1.517,1.517,0,0,1,1.659,1.7l-.021,1.365-3.4.8a2.163,2.163,0,0,0-1.953,2.247c0,1.617,1.092,2.625,2.982,2.625a6.193,6.193,0,0,0,2.247-1.575h.147a1.5,1.5,0,0,0,1.449,1.554,3.024,3.024,0,0,0,1.2-.42l.168-.945-.168-.147a2.291,2.291,0,0,1-.714.126c-.483,0-.651-.21-.651-.819,0-.735.252-4.452.252-5.187C100,39.159,98.868,38.214,97.062,38.214Zm1.365,5.334-.063,1.722a3.222,3.222,0,0,1-2.352,1.491,1.346,1.346,0,0,1-1.428-1.47.92.92,0,0,1,.8-1.008Zm7.791-5.313c-2.079,0-3.318,1.176-3.318,2.772,0,2.982,4.389,2.583,4.389,4.515a1.578,1.578,0,0,1-1.743,1.449,4.132,4.132,0,0,1-2.562-1.05l-.189.126-.21,1.428a6.169,6.169,0,0,0,2.793.693c2.226,0,3.423-1.407,3.423-2.94,0-2.9-4.368-2.5-4.368-4.431a1.455,1.455,0,0,1,1.6-1.365,3.643,3.643,0,0,1,2.016.693l.252-.063.231-1.365A6.123,6.123,0,0,0,106.218,38.235Zm12.957.042a6.215,6.215,0,0,0-2.646,1.428H116.4l.021-1.365-1.617.147.126,5.439-.126,7.959h1.638l-.042-3.906a9.152,9.152,0,0,0,1.827.189c2.961,0,4.683-1.89,4.683-5.271C122.913,40,121.653,38.277,119.175,38.277Zm-.735,8.673a4.318,4.318,0,0,1-2.058-.546l-.021-2.625.021-2.646a3.651,3.651,0,0,1,2.646-1.491c1.47,0,2.268,1.26,2.31,3.444C121.38,45.69,120.2,46.95,118.44,46.95Zm7.791-3.843,5.859-.021.357-.273c.021-.252.042-.735.042-.966,0-2.268-1.218-3.612-3.318-3.612-2.751,0-4.515,1.911-4.515,5.019,0,3.024,1.617,4.914,4.368,4.914a6.585,6.585,0,0,0,2.919-.777l.168-1.407-.189-.1a5.13,5.13,0,0,1-2.814.945c-1.932,0-2.877-1.386-2.877-3.654Zm2.793-3.7c1.155,0,1.974.693,1.974,2.205l-.042.252-4.62.126C126.63,40.335,127.6,39.411,129.024,39.411Zm7.539,4.368.126-10.521-1.659.147.1,10.5-.126,4.1h1.659Zm7.14-5.565c-2.793,0-4.389,1.869-4.389,5.1,0,3.087,1.512,4.851,4.137,4.851,2.793,0,4.368-1.869,4.368-5.1C147.819,39.978,146.307,38.214,143.7,38.214Zm-.1,1.176c1.722,0,2.667,1.386,2.667,4.053,0,2.352-.945,3.528-2.709,3.528-1.722,0-2.667-1.323-2.667-4.032C140.889,40.629,141.834,39.39,143.6,39.39Zm22.2,8.61h1.68l-.063-4.179.021-2.73c.021-1.806-1.071-2.835-3.192-2.835a6.906,6.906,0,0,0-2.856,1.6h-.126c-.4-1.029-1.407-1.6-3-1.6a6.415,6.415,0,0,0-2.646,1.491h-.147l.021-1.407-1.6.147.084,5.439L153.867,48h1.659l-.084-4.221.021-2.625a4.2,4.2,0,0,1,2.835-1.512c1.113,0,1.659.714,1.638,1.827l-.1,6.531h1.68l-.084-4.179.042-2.73a4.144,4.144,0,0,1,2.793-1.449,1.576,1.576,0,0,1,1.659,1.827Zm8.4-9.786c-2.793,0-4.389,1.869-4.389,5.1,0,3.087,1.512,4.851,4.137,4.851,2.793,0,4.368-1.869,4.368-5.1C178.311,39.978,176.8,38.214,174.195,38.214Zm-.1,1.176c1.722,0,2.667,1.386,2.667,4.053,0,2.352-.945,3.528-2.709,3.528-1.722,0-2.667-1.323-2.667-4.032C171.381,40.629,172.326,39.39,174.09,39.39Zm7.077.21-.273-1.281-1.554.1L182.322,48h1.785l3.528-9.618h-1.491l-.336,1.3-2.457,6.657h-.1Zm9.219-5.523a.926.926,0,0,0-.987.987.863.863,0,0,0,.924.966A.938.938,0,0,0,191.31,35,.86.86,0,0,0,190.386,34.077Zm.651,9.7.126-5.439-1.659.147.084,5.439L189.483,48h1.659ZM206.409,48h1.68l-.063-4.179.021-2.73c.021-1.806-1.071-2.835-3.192-2.835a6.906,6.906,0,0,0-2.856,1.6h-.126c-.4-1.029-1.407-1.6-3-1.6a6.415,6.415,0,0,0-2.646,1.491h-.147l.021-1.407-1.6.147.084,5.439L194.481,48h1.659l-.084-4.221.021-2.625a4.2,4.2,0,0,1,2.835-1.512c1.113,0,1.659.714,1.638,1.827l-.1,6.531h1.68l-.084-4.179.042-2.73a4.144,4.144,0,0,1,2.793-1.449,1.576,1.576,0,0,1,1.659,1.827Zm5.586-4.893,5.859-.021.357-.273c.021-.252.042-.735.042-.966,0-2.268-1.218-3.612-3.318-3.612-2.751,0-4.515,1.911-4.515,5.019,0,3.024,1.617,4.914,4.368,4.914a6.585,6.585,0,0,0,2.919-.777l.168-1.407-.189-.1a5.13,5.13,0,0,1-2.814.945c-1.932,0-2.877-1.386-2.877-3.654Zm2.793-3.7c1.155,0,1.974.693,1.974,2.205l-.042.252-4.62.126C212.394,40.335,213.36,39.411,214.788,39.411ZM226.653,48h1.68l-.084-4.179.042-2.73c.021-1.806-1.071-2.835-3.213-2.835a6.611,6.611,0,0,0-2.667,1.491h-.126l.021-1.407-1.6.147.084,5.439L220.689,48h1.659l-.084-4.221.021-2.646a4.164,4.164,0,0,1,2.835-1.491c1.113,0,1.659.714,1.638,1.827Zm7.9-1.281c-.924,0-1.344-.378-1.323-1.512l.1-5.691h2.835l.1-.987-.084-.126h-2.856l.042-2.037-.168-.147-1.449.63V38.4h-1.281l-.105.987.084.126h1.323l.021,4.347-.063,1.491a2.426,2.426,0,0,0,2.247,2.772,6.053,6.053,0,0,0,2.1-.609l.168-1.092-.189-.126A3.181,3.181,0,0,1,234.549,46.719Zm6.93-8.505c-2.793,0-4.389,1.869-4.389,5.1,0,3.087,1.512,4.851,4.137,4.851,2.793,0,4.368-1.869,4.368-5.1C245.6,39.978,244.083,38.214,241.479,38.214Zm-.1,1.176c1.722,0,2.667,1.386,2.667,4.053,0,2.352-.945,3.528-2.709,3.528-1.722,0-2.667-1.323-2.667-4.032C238.665,40.629,239.61,39.39,241.374,39.39ZM257.607,48h1.68l-.084-4.179.042-2.73c.021-1.806-1.071-2.835-3.213-2.835a6.611,6.611,0,0,0-2.667,1.491h-.126l.021-1.407-1.6.147.084,5.439L251.643,48H253.3l-.084-4.221.021-2.646a4.164,4.164,0,0,1,2.835-1.491c1.113,0,1.659.714,1.638,1.827Zm8.463-9.786c-2.793,0-4.389,1.869-4.389,5.1,0,3.087,1.512,4.851,4.137,4.851,2.793,0,4.368-1.869,4.368-5.1C270.186,39.978,268.674,38.214,266.07,38.214Zm-.1,1.176c1.722,0,2.667,1.386,2.667,4.053,0,2.352-.945,3.528-2.709,3.528-1.722,0-2.667-1.323-2.667-4.032C263.256,40.629,264.2,39.39,265.965,39.39Zm9.45-1.155c-2.079,0-3.318,1.176-3.318,2.772,0,2.982,4.389,2.583,4.389,4.515a1.578,1.578,0,0,1-1.743,1.449,4.132,4.132,0,0,1-2.562-1.05l-.189.126-.21,1.428a6.169,6.169,0,0,0,2.793.693c2.226,0,3.423-1.407,3.423-2.94,0-2.9-4.368-2.5-4.368-4.431a1.455,1.455,0,0,1,1.6-1.365,3.643,3.643,0,0,1,2.016.693l.252-.063.231-1.365A6.123,6.123,0,0,0,275.415,38.235Zm8.169,8.484c-.924,0-1.344-.378-1.323-1.512l.1-5.691H285.2l.1-.987-.084-.126h-2.856l.042-2.037-.168-.147-1.449.63V38.4H279.51l-.105.987.084.126h1.323l.021,4.347-.063,1.491a2.426,2.426,0,0,0,2.247,2.772,6.053,6.053,0,0,0,2.1-.609l.168-1.092L285.1,46.3A3.181,3.181,0,0,1,283.584,46.719Zm8.757-13.335-.189-.021c-1.176,1.155-2.289,2.1-3.444,3.045l.462.672.189.021c1.2-.84,2.331-1.7,3.57-2.667l.042-.168Zm-1.911,4.83a6.1,6.1,0,0,0-3.612,1.3l.231,1.2.168.084a4.533,4.533,0,0,1,2.961-1.386,1.517,1.517,0,0,1,1.659,1.7l-.021,1.365-3.4.8a2.163,2.163,0,0,0-1.953,2.247c0,1.617,1.092,2.625,2.982,2.625a6.193,6.193,0,0,0,2.247-1.575h.126a1.521,1.521,0,0,0,1.47,1.554,3.143,3.143,0,0,0,1.2-.42l.147-.945-.168-.147a2.1,2.1,0,0,1-.693.126c-.5,0-.672-.21-.672-.819,0-.735.273-4.452.273-5.187C293.37,39.159,292.215,38.214,290.43,38.214Zm1.365,5.334-.063,1.722a3.256,3.256,0,0,1-2.373,1.491,1.341,1.341,0,0,1-1.407-1.47.9.9,0,0,1,.8-1.008Zm6.8.231.126-10.521-1.659.147.105,10.5-.126,4.1H298.7Zm12.054-5.712-.168-.126c-.987.273-2.037.525-3.045.714a4.334,4.334,0,0,0-1.89-.378c-2.247,0-3.738,1.239-3.738,3.36a2.976,2.976,0,0,0,1.365,2.688v.084A4.137,4.137,0,0,0,301.9,45.69c0,.945.672,1.407,1.575,1.68v.1a4.555,4.555,0,0,0-1.848,1.827c0,1.575,1.239,2.751,3.549,2.751,2.52,0,4.515-1.407,4.515-3.192,0-3.087-6.237-1.806-6.237-3.36,0-.273.147-.462.609-.819a4.9,4.9,0,0,0,1.3.168c2.352,0,3.78-1.323,3.78-3.339a3.277,3.277,0,0,0-.462-1.785l.042-.084a17.361,17.361,0,0,0,1.932-.441Zm-5.208,5.649a1.956,1.956,0,0,1-2.142-2.142,2,2,0,0,1,2.226-2.184,1.909,1.909,0,0,1,2.121,2.1A2.027,2.027,0,0,1,305.445,43.716Zm2.772,5.46c0,.966-1.239,1.7-2.856,1.7-1.491,0-2.268-.63-2.268-1.407,0-.672.609-1.239,1.617-1.848C306.39,47.9,308.217,47.979,308.217,49.176Zm5.04-15.1a.926.926,0,0,0-.987.987.863.863,0,0,0,.924.966A.938.938,0,0,0,314.181,35,.86.86,0,0,0,313.257,34.077Zm.651,9.7.126-5.439-1.659.147.084,5.439L312.354,48h1.659Zm6.93-5.565c-2.646,0-4.263,1.953-4.263,5.04,0,3.045,1.554,4.914,4.1,4.914a6.813,6.813,0,0,0,2.562-.546l.189-1.407-.189-.1a4.717,4.717,0,0,1-2.352.714c-1.722,0-2.73-1.407-2.73-3.654,0-2.268.987-3.591,2.625-3.591a4.088,4.088,0,0,1,2.163.714l.189-.063.294-1.449A6.385,6.385,0,0,0,320.838,38.214Zm8.19,0c-2.793,0-4.389,1.869-4.389,5.1,0,3.087,1.512,4.851,4.137,4.851,2.793,0,4.368-1.869,4.368-5.1C333.144,39.978,331.632,38.214,329.028,38.214Zm-.105,1.176c1.722,0,2.667,1.386,2.667,4.053,0,2.352-.945,3.528-2.709,3.528-1.722,0-2.667-1.323-2.667-4.032C326.214,40.629,327.159,39.39,328.923,39.39Z" transform="translate(778.699 8574)"/>
    <path id="Caminho_772633" data-name="Caminho 772633" d="M6.576-17.112a25.716,25.716,0,0,0-4.536.432V0H4.92V-5.76c.6.048,1.2.072,1.728.072,4.992,0,7.368-2.352,7.368-5.712S11.64-17.112,6.576-17.112Zm.072,9.024c-.5,0-1.1-.048-1.728-.1V-14.64c.624-.048,1.224-.1,1.728-.1,3,0,4.416,1.248,4.416,3.336S9.648-8.088,6.648-8.088Zm16.92-3.936c-2.568,0-3.84,2.088-4.44,4.776l.312-4.44H16.7V0H19.44c0-3.96.264-9.216,3.552-9.216a3.368,3.368,0,0,1,1.128.192l.72-2.808A4.406,4.406,0,0,0,23.568-12.024Zm8.4,12.36c3.48,0,5.928-2.544,5.928-6.192a5.8,5.8,0,0,0-5.928-6.168A5.8,5.8,0,0,0,26.04-5.856C26.04-2.208,28.488.336,31.968.336Zm0-2.208c-2.04,0-3.1-1.848-3.1-3.984,0-2.112,1.056-3.96,3.1-3.96s3.1,1.848,3.1,3.96C35.064-3.72,34.008-1.872,31.968-1.872Zm16.584-9.912a7.68,7.68,0,0,0-1.992-.24c-4.536,0-6.528,3.456-6.528,7.008,0,3.1,1.536,5.328,4.224,5.328,2.448,0,3.888-1.992,4.656-4.488L48.552,0h2.736V-17.376H48.552Zm-3.5,9.936c-1.32,0-2.208-1.008-2.208-3.264,0-2.016.816-4.824,3.7-4.824a3.98,3.98,0,0,1,2.016.528C48.384-6.168,47.616-1.848,45.048-1.848Zm20.5-9.84H62.832c0,3.888-.216,9.672-3.432,9.672-1.512,0-2.04-1.44-2.04-2.736v-6.936H54.624v7.776a3.863,3.863,0,0,0,4.1,4.224c2.28,0,3.576-1.536,4.344-3.72L62.832,0h2.712Zm8.64,12a6.229,6.229,0,0,0,2.448-.48L76.056-2.28a3.1,3.1,0,0,1-1.248.264c-1.2,0-1.9-.672-1.9-2.28V-9.552h3.312v-2.136H72.912v-3.5H71.088l-.192,1.44c-.288,1.632-.48,2.064-2.4,2.064h-.552v2.136h2.232V-3.84C70.176-1.176,71.64.312,74.184.312ZM84.192.336c3.48,0,5.928-2.544,5.928-6.192a5.8,5.8,0,0,0-5.928-6.168,5.8,5.8,0,0,0-5.928,6.168C78.264-2.208,80.712.336,84.192.336Zm0-2.208c-2.04,0-3.1-1.848-3.1-3.984,0-2.112,1.056-3.96,3.1-3.96s3.1,1.848,3.1,3.96C87.288-3.72,86.232-1.872,84.192-1.872Zm20.64.048a3.417,3.417,0,0,1-3.5-2.928l7.416-.864a7.251,7.251,0,0,0,.288-1.944c0-2.76-2.016-4.464-4.776-4.464-3.36,0-5.664,2.52-5.664,6.168a5.788,5.788,0,0,0,6.1,6.168,6.992,6.992,0,0,0,4.1-1.3L107.76-2.736A5.417,5.417,0,0,1,104.832-1.824Zm-.456-8.112a1.958,1.958,0,0,1,2.184,1.992,3.544,3.544,0,0,1-.072.648l-5.232.624C101.448-8.5,102.528-9.936,104.376-9.936Zm22.032-2.088c-2.088,0-3.36,1.368-4.152,3.336a3.429,3.429,0,0,0-3.552-3.336c-2.256,0-3.576,1.584-4.344,3.816l.264-3.48h-2.736V0h2.736c0-3.864.24-9.7,3.24-9.7,1.392,0,1.752,1.368,1.752,2.76V0h2.712c0-3.864.24-9.7,3.24-9.7,1.392,0,1.752,1.368,1.752,2.76V0h2.712V-7.656C130.032-10.44,128.688-12.024,126.408-12.024Zm21.432.24a7.68,7.68,0,0,0-1.992-.24c-4.536,0-6.528,3.456-6.528,7.008,0,3.1,1.536,5.328,4.224,5.328,2.448,0,3.888-1.992,4.656-4.488L147.84,0h2.736V-17.376H147.84Zm-3.5,9.936c-1.32,0-2.208-1.008-2.208-3.264,0-2.016.816-4.824,3.7-4.824a3.98,3.98,0,0,1,2.016.528C147.672-6.168,146.9-1.848,144.336-1.848Zm15.24.024a3.417,3.417,0,0,1-3.5-2.928l7.416-.864a7.251,7.251,0,0,0,.288-1.944c0-2.76-2.016-4.464-4.776-4.464-3.36,0-5.664,2.52-5.664,6.168a5.788,5.788,0,0,0,6.1,6.168,6.992,6.992,0,0,0,4.1-1.3L162.5-2.736A5.417,5.417,0,0,1,159.576-1.824Zm-.456-8.112A1.958,1.958,0,0,1,161.3-7.944a3.544,3.544,0,0,1-.072.648L156-6.672C156.192-8.5,157.272-9.936,159.12-9.936ZM170.328.312c2.808,0,4.8-1.2,4.8-3.744,0-4.224-6.24-2.856-6.24-5.088,0-.984,1.056-1.3,2.136-1.3a6.072,6.072,0,0,1,2.952.744l.912-1.9a8.26,8.26,0,0,0-4.128-1.056c-2.328,0-4.608.984-4.608,3.48,0,4.3,6.264,2.9,6.264,5.28,0,.912-.792,1.392-2.208,1.392a7.263,7.263,0,0,1-3.672-1.056L165.552-.96A9.332,9.332,0,0,0,170.328.312ZM183.7-1.824a3.417,3.417,0,0,1-3.5-2.928l7.416-.864A7.251,7.251,0,0,0,187.9-7.56c0-2.76-2.016-4.464-4.776-4.464-3.36,0-5.664,2.52-5.664,6.168a5.788,5.788,0,0,0,6.1,6.168,6.992,6.992,0,0,0,4.1-1.3l-1.032-1.752A5.417,5.417,0,0,1,183.7-1.824Zm-.456-8.112a1.958,1.958,0,0,1,2.184,1.992,3.544,3.544,0,0,1-.072.648l-5.232.624C180.312-8.5,181.392-9.936,183.24-9.936ZM197.856-12c-2.448,0-3.84,1.68-4.632,3.984l.264-3.672h-2.736V0h2.736c0-3.912.288-9.672,3.552-9.672,1.536,0,1.92,1.44,1.92,2.76V0h2.712V-7.632C201.672-10.44,200.232-12,197.856-12Zm13.728.768a11.834,11.834,0,0,1,1.224,4.9c0,2.256-.936,4.392-3.12,4.392-1.416,0-2.232-.936-2.232-2.832v-6.912H204.72v7.2c0,2.952,1.944,4.776,4.944,4.776,3.912,0,5.9-3.072,5.9-6.624a14.931,14.931,0,0,0-1.344-5.64ZM223.824.336c3.48,0,5.928-2.544,5.928-6.192a5.8,5.8,0,0,0-5.928-6.168A5.8,5.8,0,0,0,217.9-5.856C217.9-2.208,220.344.336,223.824.336Zm0-2.208c-2.04,0-3.1-1.848-3.1-3.984,0-2.112,1.056-3.96,3.1-3.96s3.1,1.848,3.1,3.96C226.92-3.72,225.864-1.872,223.824-1.872ZM236.088.288a5.511,5.511,0,0,0,2.136-.48l-.576-2.136a1.892,1.892,0,0,1-.96.288c-1.032,0-1.44-.768-1.44-2.208V-17.376h-2.736V-3.792C232.512-1.224,233.76.288,236.088.288Zm10.848-11.52a11.834,11.834,0,0,1,1.224,4.9c0,2.256-.936,4.392-3.12,4.392-1.416,0-2.232-.936-2.232-2.832v-6.912h-2.736v7.2c0,2.952,1.944,4.776,4.944,4.776,3.912,0,5.9-3.072,5.9-6.624a14.931,14.931,0,0,0-1.344-5.64Zm8.448-2.376a1.846,1.846,0,0,0,1.9-1.92,1.846,1.846,0,0,0-1.9-1.92,1.846,1.846,0,0,0-1.9,1.92A1.846,1.846,0,0,0,255.384-13.608ZM256.752,0V-11.688h-2.736V0Zm18.12-12.024c-2.088,0-3.36,1.368-4.152,3.336a3.429,3.429,0,0,0-3.552-3.336c-2.256,0-3.576,1.584-4.344,3.816l.264-3.48h-2.736V0h2.736c0-3.864.24-9.7,3.24-9.7,1.392,0,1.752,1.368,1.752,2.76V0h2.712c0-3.864.24-9.7,3.24-9.7,1.392,0,1.752,1.368,1.752,2.76V0H278.5V-7.656C278.5-10.44,277.152-12.024,274.872-12.024ZM287.4-1.824a3.417,3.417,0,0,1-3.5-2.928l7.416-.864A7.25,7.25,0,0,0,291.6-7.56c0-2.76-2.016-4.464-4.776-4.464-3.36,0-5.664,2.52-5.664,6.168a5.788,5.788,0,0,0,6.1,6.168,6.992,6.992,0,0,0,4.1-1.3l-1.032-1.752A5.417,5.417,0,0,1,287.4-1.824Zm-.456-8.112a1.958,1.958,0,0,1,2.184,1.992,3.543,3.543,0,0,1-.072.648l-5.232.624C284.016-8.5,285.1-9.936,286.944-9.936ZM301.56-12c-2.448,0-3.84,1.68-4.632,3.984l.264-3.672h-2.736V0h2.736c0-3.912.288-9.672,3.552-9.672,1.536,0,1.92,1.44,1.92,2.76V0h2.712V-7.632C305.376-10.44,303.936-12,301.56-12ZM313.824.312a6.229,6.229,0,0,0,2.448-.48L315.7-2.28a3.1,3.1,0,0,1-1.248.264c-1.2,0-1.9-.672-1.9-2.28V-9.552h3.312v-2.136h-3.312v-3.5h-1.824l-.192,1.44c-.288,1.632-.48,2.064-2.4,2.064h-.552v2.136h2.232V-3.84C309.816-1.176,311.28.312,313.824.312Zm10.008.024c3.48,0,5.928-2.544,5.928-6.192a5.8,5.8,0,0,0-5.928-6.168A5.8,5.8,0,0,0,317.9-5.856C317.9-2.208,320.352.336,323.832.336Zm0-2.208c-2.04,0-3.1-1.848-3.1-3.984,0-2.112,1.056-3.96,3.1-3.96s3.1,1.848,3.1,3.96C326.928-3.72,325.872-1.872,323.832-1.872Z" transform="translate(778.699 8525)"/>
    <path id="Caminho_772637" data-name="Caminho 772637" d="M6.118-12.274c-3.42,0-5.4,2.242-5.4,6.289C.722-2.052,2.6.133,5.871.133A6.715,6.715,0,0,0,9.234-.779l.133-1.444-.19-.1A5.129,5.129,0,0,1,6-1.159C3.667-1.159,2.3-2.869,2.3-6.118,2.3-9.348,3.648-11,6.042-11A4.455,4.455,0,0,1,8.968-9.937l.171-.038.3-1.387A6.04,6.04,0,0,0,6.118-12.274Zm8.151,3.42A5.469,5.469,0,0,0,11.02-7.676l.19,1.083.152.076a4.14,4.14,0,0,1,2.679-1.254,1.373,1.373,0,0,1,1.5,1.539L15.523-5l-3.078.722a1.957,1.957,0,0,0-1.767,2.033c0,1.463.988,2.375,2.7,2.375a5.6,5.6,0,0,0,2.033-1.425h.133A1.36,1.36,0,0,0,16.853.114a2.736,2.736,0,0,0,1.083-.38l.152-.855-.152-.133a2.073,2.073,0,0,1-.646.114c-.437,0-.589-.19-.589-.741,0-.665.228-4.028.228-4.693C16.929-8,15.9-8.854,14.269-8.854ZM15.5-4.028,15.447-2.47a2.915,2.915,0,0,1-2.128,1.349,1.218,1.218,0,0,1-1.292-1.33.832.832,0,0,1,.722-.912ZM30.951,0h1.52l-.057-3.781.019-2.47c.019-1.634-.969-2.565-2.888-2.565a6.249,6.249,0,0,0-2.584,1.444h-.114c-.361-.931-1.273-1.444-2.717-1.444a5.8,5.8,0,0,0-2.394,1.349H21.6l.019-1.273-1.444.133.076,4.921L20.159,0h1.5l-.076-3.819L21.6-6.194a3.8,3.8,0,0,1,2.565-1.368c1.007,0,1.5.646,1.482,1.653L25.555,0h1.52L27-3.781l.038-2.47a3.749,3.749,0,0,1,2.527-1.311,1.426,1.426,0,0,1,1.5,1.653ZM36.1-12.6a.838.838,0,0,0-.893.893.78.78,0,0,0,.836.874.849.849,0,0,0,.893-.931A.778.778,0,0,0,36.1-12.6Zm.589,8.778L36.8-8.74l-1.5.133.076,4.921L35.283,0h1.5ZM42.2-8.835c-1.881,0-3,1.064-3,2.508,0,2.7,3.971,2.337,3.971,4.085A1.428,1.428,0,0,1,41.591-.931a3.738,3.738,0,0,1-2.318-.95l-.171.114-.19,1.292a5.581,5.581,0,0,0,2.527.627c2.014,0,3.1-1.273,3.1-2.66,0-2.622-3.952-2.261-3.952-4.009a1.316,1.316,0,0,1,1.444-1.235,3.3,3.3,0,0,1,1.824.627l.228-.057.209-1.235A5.54,5.54,0,0,0,42.2-8.835Zm5.358,4.408,5.3-.019.323-.247c.019-.228.038-.665.038-.874,0-2.052-1.1-3.268-3-3.268-2.489,0-4.085,1.729-4.085,4.541,0,2.736,1.463,4.446,3.952,4.446a5.958,5.958,0,0,0,2.641-.7l.152-1.273-.171-.1a4.641,4.641,0,0,1-2.546.855c-1.748,0-2.6-1.254-2.6-3.306Zm2.527-3.344c1.045,0,1.786.627,1.786,1.995l-.038.228-4.18.114A2.444,2.444,0,0,1,50.084-7.771Zm8.094,6.612c-.836,0-1.216-.342-1.2-1.368l.095-5.149h2.565l.095-.893-.076-.114H57.076l.038-1.843-.152-.133-1.311.57v1.406H54.492l-.1.893.076.114h1.2l.019,3.933-.057,1.349A2.195,2.195,0,0,0,57.665.114a5.477,5.477,0,0,0,1.9-.551l.152-.988-.171-.114A2.878,2.878,0,0,1,58.178-1.159Zm6.194-7.7a5.469,5.469,0,0,0-3.249,1.178l.19,1.083.152.076a4.14,4.14,0,0,1,2.679-1.254,1.373,1.373,0,0,1,1.5,1.539L65.626-5l-3.078.722a1.957,1.957,0,0,0-1.767,2.033c0,1.463.988,2.375,2.7,2.375a5.6,5.6,0,0,0,2.033-1.425h.133A1.36,1.36,0,0,0,66.956.114a2.736,2.736,0,0,0,1.083-.38l.152-.855-.152-.133a2.073,2.073,0,0,1-.646.114c-.437,0-.589-.19-.589-.741,0-.665.228-4.028.228-4.693C67.032-8,66.006-8.854,64.372-8.854Zm1.235,4.826L65.55-2.47a2.915,2.915,0,0,1-2.128,1.349,1.218,1.218,0,0,1-1.292-1.33.832.832,0,0,1,.722-.912Zm7.049-4.807c-1.881,0-3,1.064-3,2.508,0,2.7,3.971,2.337,3.971,4.085A1.428,1.428,0,0,1,72.048-.931a3.738,3.738,0,0,1-2.318-.95l-.171.114-.19,1.292A5.581,5.581,0,0,0,71.9.152c2.014,0,3.1-1.273,3.1-2.66,0-2.622-3.952-2.261-3.952-4.009a1.316,1.316,0,0,1,1.444-1.235,3.3,3.3,0,0,1,1.824.627l.228-.057.209-1.235A5.54,5.54,0,0,0,72.656-8.835Zm10.659-.019a5.469,5.469,0,0,0-3.249,1.178l.19,1.083.152.076a4.14,4.14,0,0,1,2.679-1.254,1.373,1.373,0,0,1,1.5,1.539L84.569-5l-3.078.722a1.957,1.957,0,0,0-1.767,2.033c0,1.463.988,2.375,2.7,2.375a5.6,5.6,0,0,0,2.033-1.425h.133A1.36,1.36,0,0,0,85.9.114a2.736,2.736,0,0,0,1.083-.38l.152-.855-.152-.133a2.073,2.073,0,0,1-.646.114c-.437,0-.589-.19-.589-.741,0-.665.228-4.028.228-4.693C85.975-8,84.949-8.854,83.315-8.854ZM84.55-4.028,84.493-2.47a2.915,2.915,0,0,1-2.128,1.349,1.218,1.218,0,0,1-1.292-1.33.832.832,0,0,1,.722-.912ZM94.6,0h1.52l-.076-3.781.038-2.47c.019-1.634-.969-2.565-2.907-2.565a5.981,5.981,0,0,0-2.413,1.349h-.114l.019-1.273-1.444.133L89.3-3.686,89.205,0h1.5L90.63-3.819l.019-2.394a3.768,3.768,0,0,1,2.565-1.349c1.007,0,1.5.646,1.482,1.653Zm7.657-8.854c-2.527,0-3.971,1.691-3.971,4.617,0,2.793,1.368,4.389,3.743,4.389,2.527,0,3.952-1.691,3.952-4.617C105.982-7.258,104.614-8.854,102.258-8.854Zm-.095,1.064c1.558,0,2.413,1.254,2.413,3.667,0,2.128-.855,3.192-2.451,3.192-1.558,0-2.413-1.2-2.413-3.648C99.712-6.669,100.567-7.79,102.163-7.79Zm8.55-1.045c-1.881,0-3,1.064-3,2.508,0,2.7,3.971,2.337,3.971,4.085a1.428,1.428,0,0,1-1.577,1.311,3.738,3.738,0,0,1-2.318-.95l-.171.114-.19,1.292a5.581,5.581,0,0,0,2.527.627c2.014,0,3.1-1.273,3.1-2.66,0-2.622-3.952-2.261-3.952-4.009a1.316,1.316,0,0,1,1.444-1.235,3.3,3.3,0,0,1,1.824.627l.228-.057.209-1.235A5.54,5.54,0,0,0,110.713-8.835Zm8.493-.627-1.71-.057-.1,1.292.1.171,1.444-.152h4.009l-4.427,9.557.1.247,1.216.342.855-2.261,3.686-8.056L124.355-9.5l-.8.038Zm10.83-.114c-2.717,0-4.237,1.786-4.237,4.978,0,3.021,1.463,4.731,4.047,4.731,2.7,0,4.218-1.786,4.218-4.921C134.064-7.866,132.6-9.576,130.036-9.576ZM129.9-8.189c1.938,0,2.964,1.216,2.964,3.572,0,2.242-1.007,3.42-2.945,3.42S127-2.394,127-4.712C127-7.011,127.984-8.189,129.9-8.189ZM1.767,14.821l.1,8.512L1.767,27H3.306L3.23,23.2v-.475H4.674c2.85,0,4.541-1.653,4.541-4.351,0-2.3-1.349-3.572-3.724-3.572Zm1.482,6.631.057-5.339,1.843-.057c1.634.057,2.508.817,2.508,2.451A2.687,2.687,0,0,1,5.244,21.49Zm11.8-3.173a2.878,2.878,0,0,0-2.432,1.767H12.5l.019-1.786-1.444.133.095,4.921L11.058,27h1.5l-.095-3.819.019-1.33c.684-1.5,1.387-2.109,2.2-2.109a2.631,2.631,0,0,1,.684.095l.171-.057V18.317A3.736,3.736,0,0,0,15.048,18.279Zm5.263-.133c-2.527,0-3.971,1.691-3.971,4.617,0,2.793,1.368,4.389,3.743,4.389,2.527,0,3.952-1.691,3.952-4.617C24.035,19.742,22.667,18.146,20.311,18.146Zm-.1,1.064c1.558,0,2.413,1.254,2.413,3.667,0,2.128-.855,3.192-2.451,3.192-1.558,0-2.413-1.2-2.413-3.648C17.765,20.331,18.62,19.21,20.216,19.21Zm12.673,3.971L33,13.662l-1.5.133.038,4.541a7.4,7.4,0,0,0-1.672-.19c-2.641,0-4.218,1.634-4.218,4.522,0,2.812,1.349,4.427,3.876,4.427A6.318,6.318,0,0,0,31.6,25.784h.133a1.4,1.4,0,0,0,1.33,1.33,2.736,2.736,0,0,0,1.083-.38l.133-.855-.152-.133a1.917,1.917,0,0,1-.646.114c-.4,0-.532-.19-.551-.722ZM29.678,19.21a4.43,4.43,0,0,1,1.862.475l.038,3.61-.038,1.368a2.7,2.7,0,0,1-2.09,1.159c-1.444,0-2.356-1.178-2.394-3.287C27.018,20.331,28.082,19.21,29.678,19.21Zm13.053-.95-1.444.133v6.289a3.514,3.514,0,0,1-2.356,1.159c-.988,0-1.482-.627-1.463-1.653l.114-5.928-1.52.133.057,3.743L36.1,24.549c-.019,1.634.969,2.565,2.85,2.565a5.519,5.519,0,0,0,2.356-1.33h.152a1.383,1.383,0,0,0,1.311,1.33,2.736,2.736,0,0,0,1.083-.38l.133-.855-.133-.133a2.089,2.089,0,0,1-.665.114c-.4,0-.57-.19-.57-.722Zm5.909,7.581c-.836,0-1.216-.342-1.2-1.368l.095-5.149H50.1l.095-.893-.076-.114H47.538l.038-1.843-.152-.133-1.311.57v1.406H44.954l-.1.893.076.114h1.2l.019,3.933-.057,1.349a2.195,2.195,0,0,0,2.033,2.508,5.477,5.477,0,0,0,1.9-.551l.152-.988-.171-.114A2.878,2.878,0,0,1,48.64,25.841Zm6.27-7.695c-2.527,0-3.971,1.691-3.971,4.617,0,2.793,1.368,4.389,3.743,4.389,2.527,0,3.952-1.691,3.952-4.617C58.634,19.742,57.266,18.146,54.91,18.146Zm-.1,1.064c1.558,0,2.413,1.254,2.413,3.667,0,2.128-.855,3.192-2.451,3.192-1.558,0-2.413-1.2-2.413-3.648C52.364,20.331,53.219,19.21,54.815,19.21Zm10.013,3.363,5.3-.019.323-.247c.019-.228.038-.665.038-.874,0-2.052-1.1-3.268-3-3.268-2.489,0-4.085,1.729-4.085,4.541,0,2.736,1.463,4.446,3.952,4.446a5.958,5.958,0,0,0,2.641-.7l.152-1.273-.171-.1a4.641,4.641,0,0,1-2.546.855c-1.748,0-2.6-1.254-2.6-3.306Zm2.527-3.344c1.045,0,1.786.627,1.786,1.995l-.038.228-4.18.114A2.444,2.444,0,0,1,67.355,19.229ZM83.486,27h1.52l-.057-3.781.019-2.47c.019-1.634-.969-2.565-2.888-2.565A6.249,6.249,0,0,0,79.5,19.628h-.114c-.361-.931-1.273-1.444-2.717-1.444a5.8,5.8,0,0,0-2.394,1.349h-.133l.019-1.273-1.444.133.076,4.921L72.694,27h1.5l-.076-3.819.019-2.375A3.8,3.8,0,0,1,76.7,19.438c1.007,0,1.5.646,1.482,1.653L78.09,27h1.52l-.076-3.781.038-2.47A3.749,3.749,0,0,1,82.1,19.438a1.426,1.426,0,0,1,1.5,1.653ZM95.57,27l4.465-12.179h-1.52l-.3,1.311-3.42,9.329h-.114l-3.1-9.405-.285-1.235H89.737L93.8,27Zm5.757-4.427,5.3-.019.323-.247c.019-.228.038-.665.038-.874,0-2.052-1.1-3.268-3-3.268-2.489,0-4.085,1.729-4.085,4.541,0,2.736,1.463,4.446,3.952,4.446a5.958,5.958,0,0,0,2.641-.7l.152-1.273-.171-.1a4.641,4.641,0,0,1-2.546.855c-1.748,0-2.6-1.254-2.6-3.306Zm2.527-3.344c1.045,0,1.786.627,1.786,1.995l-.038.228-4.18.114A2.444,2.444,0,0,1,103.854,19.229ZM114.589,27h1.52l-.076-3.781.038-2.47c.019-1.634-.969-2.565-2.907-2.565a5.981,5.981,0,0,0-2.413,1.349h-.114l.019-1.273-1.444.133.076,4.921-.1,3.686h1.5l-.076-3.819.019-2.394a3.768,3.768,0,0,1,2.565-1.349c1.007,0,1.5.646,1.482,1.653Zm10.906-3.819.114-9.519-1.5.133.038,4.541a7.4,7.4,0,0,0-1.672-.19c-2.641,0-4.218,1.634-4.218,4.522,0,2.812,1.349,4.427,3.876,4.427a6.318,6.318,0,0,0,2.071-1.311h.133a1.4,1.4,0,0,0,1.33,1.33,2.736,2.736,0,0,0,1.083-.38l.133-.855-.152-.133a1.917,1.917,0,0,1-.646.114c-.4,0-.532-.19-.551-.722Zm-3.211-3.971a4.43,4.43,0,0,1,1.862.475l.038,3.61-.038,1.368a2.7,2.7,0,0,1-2.09,1.159c-1.444,0-2.356-1.178-2.394-3.287C119.624,20.331,120.688,19.21,122.284,19.21Zm9.386-1.064a5.469,5.469,0,0,0-3.249,1.178l.19,1.083.152.076a4.14,4.14,0,0,1,2.679-1.254,1.373,1.373,0,0,1,1.5,1.539L132.924,22l-3.078.722a1.957,1.957,0,0,0-1.767,2.033c0,1.463.988,2.375,2.7,2.375a5.6,5.6,0,0,0,2.033-1.425h.133a1.36,1.36,0,0,0,1.311,1.406,2.736,2.736,0,0,0,1.083-.38l.152-.855-.152-.133a2.073,2.073,0,0,1-.646.114c-.437,0-.589-.19-.589-.741,0-.665.228-4.028.228-4.693C134.33,19,133.3,18.146,131.67,18.146Zm1.235,4.826-.057,1.558a2.915,2.915,0,0,1-2.128,1.349,1.218,1.218,0,0,1-1.292-1.33.832.832,0,0,1,.722-.912Zm7.049-4.807c-1.881,0-3,1.064-3,2.508,0,2.7,3.971,2.337,3.971,4.085a1.428,1.428,0,0,1-1.577,1.311,3.738,3.738,0,0,1-2.318-.95l-.171.114-.19,1.292a5.581,5.581,0,0,0,2.527.627c2.014,0,3.1-1.273,3.1-2.66,0-2.622-3.952-2.261-3.952-4.009a1.316,1.316,0,0,1,1.444-1.235,3.3,3.3,0,0,1,1.824.627l.228-.057.209-1.235A5.54,5.54,0,0,0,139.954,18.165Z" transform="translate(704.453 8713.326)"/>
    <path id="Caminho_772638" data-name="Caminho 772638" d="M6.118-12.274c-3.42,0-5.4,2.242-5.4,6.289C.722-2.052,2.6.133,5.871.133A6.715,6.715,0,0,0,9.234-.779l.133-1.444-.19-.1A5.129,5.129,0,0,1,6-1.159C3.667-1.159,2.3-2.869,2.3-6.118,2.3-9.348,3.648-11,6.042-11A4.455,4.455,0,0,1,8.968-9.937l.171-.038.3-1.387A6.04,6.04,0,0,0,6.118-12.274Zm8.151,3.42A5.469,5.469,0,0,0,11.02-7.676l.19,1.083.152.076a4.14,4.14,0,0,1,2.679-1.254,1.373,1.373,0,0,1,1.5,1.539L15.523-5l-3.078.722a1.957,1.957,0,0,0-1.767,2.033c0,1.463.988,2.375,2.7,2.375a5.6,5.6,0,0,0,2.033-1.425h.133A1.36,1.36,0,0,0,16.853.114a2.736,2.736,0,0,0,1.083-.38l.152-.855-.152-.133a2.073,2.073,0,0,1-.646.114c-.437,0-.589-.19-.589-.741,0-.665.228-4.028.228-4.693C16.929-8,15.9-8.854,14.269-8.854ZM15.5-4.028,15.447-2.47a2.915,2.915,0,0,1-2.128,1.349,1.218,1.218,0,0,1-1.292-1.33.832.832,0,0,1,.722-.912ZM30.951,0h1.52l-.057-3.781.019-2.47c.019-1.634-.969-2.565-2.888-2.565a6.249,6.249,0,0,0-2.584,1.444h-.114c-.361-.931-1.273-1.444-2.717-1.444a5.8,5.8,0,0,0-2.394,1.349H21.6l.019-1.273-1.444.133.076,4.921L20.159,0h1.5l-.076-3.819L21.6-6.194a3.8,3.8,0,0,1,2.565-1.368c1.007,0,1.5.646,1.482,1.653L25.555,0h1.52L27-3.781l.038-2.47a3.749,3.749,0,0,1,2.527-1.311,1.426,1.426,0,0,1,1.5,1.653ZM36.1-12.6a.838.838,0,0,0-.893.893.78.78,0,0,0,.836.874.849.849,0,0,0,.893-.931A.778.778,0,0,0,36.1-12.6Zm.589,8.778L36.8-8.74l-1.5.133.076,4.921L35.283,0h1.5ZM42.2-8.835c-1.881,0-3,1.064-3,2.508,0,2.7,3.971,2.337,3.971,4.085A1.428,1.428,0,0,1,41.591-.931a3.738,3.738,0,0,1-2.318-.95l-.171.114-.19,1.292a5.581,5.581,0,0,0,2.527.627c2.014,0,3.1-1.273,3.1-2.66,0-2.622-3.952-2.261-3.952-4.009a1.316,1.316,0,0,1,1.444-1.235,3.3,3.3,0,0,1,1.824.627l.228-.057.209-1.235A5.54,5.54,0,0,0,42.2-8.835Zm5.358,4.408,5.3-.019.323-.247c.019-.228.038-.665.038-.874,0-2.052-1.1-3.268-3-3.268-2.489,0-4.085,1.729-4.085,4.541,0,2.736,1.463,4.446,3.952,4.446a5.958,5.958,0,0,0,2.641-.7l.152-1.273-.171-.1a4.641,4.641,0,0,1-2.546.855c-1.748,0-2.6-1.254-2.6-3.306Zm2.527-3.344c1.045,0,1.786.627,1.786,1.995l-.038.228-4.18.114A2.444,2.444,0,0,1,50.084-7.771Zm8.094,6.612c-.836,0-1.216-.342-1.2-1.368l.095-5.149h2.565l.095-.893-.076-.114H57.076l.038-1.843-.152-.133-1.311.57v1.406H54.492l-.1.893.076.114h1.2l.019,3.933-.057,1.349A2.195,2.195,0,0,0,57.665.114a5.477,5.477,0,0,0,1.9-.551l.152-.988-.171-.114A2.878,2.878,0,0,1,58.178-1.159Zm6.194-7.7a5.469,5.469,0,0,0-3.249,1.178l.19,1.083.152.076a4.14,4.14,0,0,1,2.679-1.254,1.373,1.373,0,0,1,1.5,1.539L65.626-5l-3.078.722a1.957,1.957,0,0,0-1.767,2.033c0,1.463.988,2.375,2.7,2.375a5.6,5.6,0,0,0,2.033-1.425h.133A1.36,1.36,0,0,0,66.956.114a2.736,2.736,0,0,0,1.083-.38l.152-.855-.152-.133a2.073,2.073,0,0,1-.646.114c-.437,0-.589-.19-.589-.741,0-.665.228-4.028.228-4.693C67.032-8,66.006-8.854,64.372-8.854Zm1.235,4.826L65.55-2.47a2.915,2.915,0,0,1-2.128,1.349,1.218,1.218,0,0,1-1.292-1.33.832.832,0,0,1,.722-.912Zm7.049-4.807c-1.881,0-3,1.064-3,2.508,0,2.7,3.971,2.337,3.971,4.085A1.428,1.428,0,0,1,72.048-.931a3.738,3.738,0,0,1-2.318-.95l-.171.114-.19,1.292A5.581,5.581,0,0,0,71.9.152c2.014,0,3.1-1.273,3.1-2.66,0-2.622-3.952-2.261-3.952-4.009a1.316,1.316,0,0,1,1.444-1.235,3.3,3.3,0,0,1,1.824.627l.228-.057.209-1.235A5.54,5.54,0,0,0,72.656-8.835Zm10.659-.019a5.469,5.469,0,0,0-3.249,1.178l.19,1.083.152.076a4.14,4.14,0,0,1,2.679-1.254,1.373,1.373,0,0,1,1.5,1.539L84.569-5l-3.078.722a1.957,1.957,0,0,0-1.767,2.033c0,1.463.988,2.375,2.7,2.375a5.6,5.6,0,0,0,2.033-1.425h.133A1.36,1.36,0,0,0,85.9.114a2.736,2.736,0,0,0,1.083-.38l.152-.855-.152-.133a2.073,2.073,0,0,1-.646.114c-.437,0-.589-.19-.589-.741,0-.665.228-4.028.228-4.693C85.975-8,84.949-8.854,83.315-8.854ZM84.55-4.028,84.493-2.47a2.915,2.915,0,0,1-2.128,1.349,1.218,1.218,0,0,1-1.292-1.33.832.832,0,0,1,.722-.912ZM94.6,0h1.52l-.076-3.781.038-2.47c.019-1.634-.969-2.565-2.907-2.565a5.981,5.981,0,0,0-2.413,1.349h-.114l.019-1.273-1.444.133L89.3-3.686,89.205,0h1.5L90.63-3.819l.019-2.394a3.768,3.768,0,0,1,2.565-1.349c1.007,0,1.5.646,1.482,1.653Zm7.657-8.854c-2.527,0-3.971,1.691-3.971,4.617,0,2.793,1.368,4.389,3.743,4.389,2.527,0,3.952-1.691,3.952-4.617C105.982-7.258,104.614-8.854,102.258-8.854Zm-.095,1.064c1.558,0,2.413,1.254,2.413,3.667,0,2.128-.855,3.192-2.451,3.192-1.558,0-2.413-1.2-2.413-3.648C99.712-6.669,100.567-7.79,102.163-7.79Zm8.55-1.045c-1.881,0-3,1.064-3,2.508,0,2.7,3.971,2.337,3.971,4.085a1.428,1.428,0,0,1-1.577,1.311,3.738,3.738,0,0,1-2.318-.95l-.171.114-.19,1.292a5.581,5.581,0,0,0,2.527.627c2.014,0,3.1-1.273,3.1-2.66,0-2.622-3.952-2.261-3.952-4.009a1.316,1.316,0,0,1,1.444-1.235,3.3,3.3,0,0,1,1.824.627l.228-.057.209-1.235A5.54,5.54,0,0,0,110.713-8.835Zm10.925-2.413c-1.938,0-3.306,1.083-3.306,2.907a2.851,2.851,0,0,0,1.786,2.622v.1A3.263,3.263,0,0,0,117.9-2.717c0,1.672,1.254,2.85,3.363,2.85,2.223,0,3.686-1.216,3.686-3.135,0-1.634-1.159-2.28-2.185-2.774v-.095A3.071,3.071,0,0,0,124.6-8.588C124.6-10.241,123.481-11.248,121.638-11.248Zm-.076,1.1a1.617,1.617,0,0,1,1.824,1.691c0,1.216-.874,1.767-1.824,2.166-1.026-.418-1.957-.893-1.957-2.09A1.742,1.742,0,0,1,121.562-10.146Zm-.266,5c1.2.494,2.375.931,2.375,2.242a2.007,2.007,0,0,1-2.28,1.957,1.943,1.943,0,0,1-2.2-1.919C119.187-4.218,120.232-4.769,121.3-5.149Zm9.823-4.427c-2.717,0-4.237,1.786-4.237,4.978,0,3.021,1.463,4.731,4.047,4.731,2.7,0,4.218-1.786,4.218-4.921C135.147-7.866,133.684-9.576,131.119-9.576Zm-.133,1.387c1.938,0,2.964,1.216,2.964,3.572,0,2.242-1.007,3.42-2.945,3.42s-2.926-1.2-2.926-3.515C128.079-7.011,129.067-8.189,130.986-8.189ZM1.767,14.821l.1,8.512L1.767,27H3.306L3.23,23.2v-.475H4.674c2.85,0,4.541-1.653,4.541-4.351,0-2.3-1.349-3.572-3.724-3.572Zm1.482,6.631.057-5.339,1.843-.057c1.634.057,2.508.817,2.508,2.451A2.687,2.687,0,0,1,5.244,21.49Zm11.8-3.173a2.878,2.878,0,0,0-2.432,1.767H12.5l.019-1.786-1.444.133.095,4.921L11.058,27h1.5l-.095-3.819.019-1.33c.684-1.5,1.387-2.109,2.2-2.109a2.631,2.631,0,0,1,.684.095l.171-.057V18.317A3.736,3.736,0,0,0,15.048,18.279Zm5.263-.133c-2.527,0-3.971,1.691-3.971,4.617,0,2.793,1.368,4.389,3.743,4.389,2.527,0,3.952-1.691,3.952-4.617C24.035,19.742,22.667,18.146,20.311,18.146Zm-.1,1.064c1.558,0,2.413,1.254,2.413,3.667,0,2.128-.855,3.192-2.451,3.192-1.558,0-2.413-1.2-2.413-3.648C17.765,20.331,18.62,19.21,20.216,19.21Zm12.673,3.971L33,13.662l-1.5.133.038,4.541a7.4,7.4,0,0,0-1.672-.19c-2.641,0-4.218,1.634-4.218,4.522,0,2.812,1.349,4.427,3.876,4.427A6.318,6.318,0,0,0,31.6,25.784h.133a1.4,1.4,0,0,0,1.33,1.33,2.736,2.736,0,0,0,1.083-.38l.133-.855-.152-.133a1.917,1.917,0,0,1-.646.114c-.4,0-.532-.19-.551-.722ZM29.678,19.21a4.43,4.43,0,0,1,1.862.475l.038,3.61-.038,1.368a2.7,2.7,0,0,1-2.09,1.159c-1.444,0-2.356-1.178-2.394-3.287C27.018,20.331,28.082,19.21,29.678,19.21Zm13.053-.95-1.444.133v6.289a3.514,3.514,0,0,1-2.356,1.159c-.988,0-1.482-.627-1.463-1.653l.114-5.928-1.52.133.057,3.743L36.1,24.549c-.019,1.634.969,2.565,2.85,2.565a5.519,5.519,0,0,0,2.356-1.33h.152a1.383,1.383,0,0,0,1.311,1.33,2.736,2.736,0,0,0,1.083-.38l.133-.855-.133-.133a2.089,2.089,0,0,1-.665.114c-.4,0-.57-.19-.57-.722Zm5.909,7.581c-.836,0-1.216-.342-1.2-1.368l.095-5.149H50.1l.095-.893-.076-.114H47.538l.038-1.843-.152-.133-1.311.57v1.406H44.954l-.1.893.076.114h1.2l.019,3.933-.057,1.349a2.195,2.195,0,0,0,2.033,2.508,5.477,5.477,0,0,0,1.9-.551l.152-.988-.171-.114A2.878,2.878,0,0,1,48.64,25.841Zm6.27-7.695c-2.527,0-3.971,1.691-3.971,4.617,0,2.793,1.368,4.389,3.743,4.389,2.527,0,3.952-1.691,3.952-4.617C58.634,19.742,57.266,18.146,54.91,18.146Zm-.1,1.064c1.558,0,2.413,1.254,2.413,3.667,0,2.128-.855,3.192-2.451,3.192-1.558,0-2.413-1.2-2.413-3.648C52.364,20.331,53.219,19.21,54.815,19.21Zm10.013,3.363,5.3-.019.323-.247c.019-.228.038-.665.038-.874,0-2.052-1.1-3.268-3-3.268-2.489,0-4.085,1.729-4.085,4.541,0,2.736,1.463,4.446,3.952,4.446a5.958,5.958,0,0,0,2.641-.7l.152-1.273-.171-.1a4.641,4.641,0,0,1-2.546.855c-1.748,0-2.6-1.254-2.6-3.306Zm2.527-3.344c1.045,0,1.786.627,1.786,1.995l-.038.228-4.18.114A2.444,2.444,0,0,1,67.355,19.229ZM83.486,27h1.52l-.057-3.781.019-2.47c.019-1.634-.969-2.565-2.888-2.565A6.249,6.249,0,0,0,79.5,19.628h-.114c-.361-.931-1.273-1.444-2.717-1.444a5.8,5.8,0,0,0-2.394,1.349h-.133l.019-1.273-1.444.133.076,4.921L72.694,27h1.5l-.076-3.819.019-2.375A3.8,3.8,0,0,1,76.7,19.438c1.007,0,1.5.646,1.482,1.653L78.09,27h1.52l-.076-3.781.038-2.47A3.749,3.749,0,0,1,82.1,19.438a1.426,1.426,0,0,1,1.5,1.653ZM95.57,27l4.465-12.179h-1.52l-.3,1.311-3.42,9.329h-.114l-3.1-9.405-.285-1.235H89.737L93.8,27Zm5.757-4.427,5.3-.019.323-.247c.019-.228.038-.665.038-.874,0-2.052-1.1-3.268-3-3.268-2.489,0-4.085,1.729-4.085,4.541,0,2.736,1.463,4.446,3.952,4.446a5.958,5.958,0,0,0,2.641-.7l.152-1.273-.171-.1a4.641,4.641,0,0,1-2.546.855c-1.748,0-2.6-1.254-2.6-3.306Zm2.527-3.344c1.045,0,1.786.627,1.786,1.995l-.038.228-4.18.114A2.444,2.444,0,0,1,103.854,19.229ZM114.589,27h1.52l-.076-3.781.038-2.47c.019-1.634-.969-2.565-2.907-2.565a5.981,5.981,0,0,0-2.413,1.349h-.114l.019-1.273-1.444.133.076,4.921-.1,3.686h1.5l-.076-3.819.019-2.394a3.768,3.768,0,0,1,2.565-1.349c1.007,0,1.5.646,1.482,1.653Zm10.906-3.819.114-9.519-1.5.133.038,4.541a7.4,7.4,0,0,0-1.672-.19c-2.641,0-4.218,1.634-4.218,4.522,0,2.812,1.349,4.427,3.876,4.427a6.318,6.318,0,0,0,2.071-1.311h.133a1.4,1.4,0,0,0,1.33,1.33,2.736,2.736,0,0,0,1.083-.38l.133-.855-.152-.133a1.917,1.917,0,0,1-.646.114c-.4,0-.532-.19-.551-.722Zm-3.211-3.971a4.43,4.43,0,0,1,1.862.475l.038,3.61-.038,1.368a2.7,2.7,0,0,1-2.09,1.159c-1.444,0-2.356-1.178-2.394-3.287C119.624,20.331,120.688,19.21,122.284,19.21Zm9.386-1.064a5.469,5.469,0,0,0-3.249,1.178l.19,1.083.152.076a4.14,4.14,0,0,1,2.679-1.254,1.373,1.373,0,0,1,1.5,1.539L132.924,22l-3.078.722a1.957,1.957,0,0,0-1.767,2.033c0,1.463.988,2.375,2.7,2.375a5.6,5.6,0,0,0,2.033-1.425h.133a1.36,1.36,0,0,0,1.311,1.406,2.736,2.736,0,0,0,1.083-.38l.152-.855-.152-.133a2.073,2.073,0,0,1-.646.114c-.437,0-.589-.19-.589-.741,0-.665.228-4.028.228-4.693C134.33,19,133.3,18.146,131.67,18.146Zm1.235,4.826-.057,1.558a2.915,2.915,0,0,1-2.128,1.349,1.218,1.218,0,0,1-1.292-1.33.832.832,0,0,1,.722-.912Zm7.049-4.807c-1.881,0-3,1.064-3,2.508,0,2.7,3.971,2.337,3.971,4.085a1.428,1.428,0,0,1-1.577,1.311,3.738,3.738,0,0,1-2.318-.95l-.171.114-.19,1.292a5.581,5.581,0,0,0,2.527.627c2.014,0,3.1-1.273,3.1-2.66,0-2.622-3.952-2.261-3.952-4.009a1.316,1.316,0,0,1,1.444-1.235,3.3,3.3,0,0,1,1.824.627l.228-.057.209-1.235A5.54,5.54,0,0,0,139.954,18.165Z" transform="translate(921.127 8713.326)"/>
    <path id="Caminho_772639" data-name="Caminho 772639" d="M6.118-12.274c-3.42,0-5.4,2.242-5.4,6.289C.722-2.052,2.6.133,5.871.133A6.715,6.715,0,0,0,9.234-.779l.133-1.444-.19-.1A5.129,5.129,0,0,1,6-1.159C3.667-1.159,2.3-2.869,2.3-6.118,2.3-9.348,3.648-11,6.042-11A4.455,4.455,0,0,1,8.968-9.937l.171-.038.3-1.387A6.04,6.04,0,0,0,6.118-12.274Zm8.151,3.42A5.469,5.469,0,0,0,11.02-7.676l.19,1.083.152.076a4.14,4.14,0,0,1,2.679-1.254,1.373,1.373,0,0,1,1.5,1.539L15.523-5l-3.078.722a1.957,1.957,0,0,0-1.767,2.033c0,1.463.988,2.375,2.7,2.375a5.6,5.6,0,0,0,2.033-1.425h.133A1.36,1.36,0,0,0,16.853.114a2.736,2.736,0,0,0,1.083-.38l.152-.855-.152-.133a2.073,2.073,0,0,1-.646.114c-.437,0-.589-.19-.589-.741,0-.665.228-4.028.228-4.693C16.929-8,15.9-8.854,14.269-8.854ZM15.5-4.028,15.447-2.47a2.915,2.915,0,0,1-2.128,1.349,1.218,1.218,0,0,1-1.292-1.33.832.832,0,0,1,.722-.912ZM30.951,0h1.52l-.057-3.781.019-2.47c.019-1.634-.969-2.565-2.888-2.565a6.249,6.249,0,0,0-2.584,1.444h-.114c-.361-.931-1.273-1.444-2.717-1.444a5.8,5.8,0,0,0-2.394,1.349H21.6l.019-1.273-1.444.133.076,4.921L20.159,0h1.5l-.076-3.819L21.6-6.194a3.8,3.8,0,0,1,2.565-1.368c1.007,0,1.5.646,1.482,1.653L25.555,0h1.52L27-3.781l.038-2.47a3.749,3.749,0,0,1,2.527-1.311,1.426,1.426,0,0,1,1.5,1.653ZM36.1-12.6a.838.838,0,0,0-.893.893.78.78,0,0,0,.836.874.849.849,0,0,0,.893-.931A.778.778,0,0,0,36.1-12.6Zm.589,8.778L36.8-8.74l-1.5.133.076,4.921L35.283,0h1.5ZM42.2-8.835c-1.881,0-3,1.064-3,2.508,0,2.7,3.971,2.337,3.971,4.085A1.428,1.428,0,0,1,41.591-.931a3.738,3.738,0,0,1-2.318-.95l-.171.114-.19,1.292a5.581,5.581,0,0,0,2.527.627c2.014,0,3.1-1.273,3.1-2.66,0-2.622-3.952-2.261-3.952-4.009a1.316,1.316,0,0,1,1.444-1.235,3.3,3.3,0,0,1,1.824.627l.228-.057.209-1.235A5.54,5.54,0,0,0,42.2-8.835Zm5.358,4.408,5.3-.019.323-.247c.019-.228.038-.665.038-.874,0-2.052-1.1-3.268-3-3.268-2.489,0-4.085,1.729-4.085,4.541,0,2.736,1.463,4.446,3.952,4.446a5.958,5.958,0,0,0,2.641-.7l.152-1.273-.171-.1a4.641,4.641,0,0,1-2.546.855c-1.748,0-2.6-1.254-2.6-3.306Zm2.527-3.344c1.045,0,1.786.627,1.786,1.995l-.038.228-4.18.114A2.444,2.444,0,0,1,50.084-7.771Zm8.094,6.612c-.836,0-1.216-.342-1.2-1.368l.095-5.149h2.565l.095-.893-.076-.114H57.076l.038-1.843-.152-.133-1.311.57v1.406H54.492l-.1.893.076.114h1.2l.019,3.933-.057,1.349A2.195,2.195,0,0,0,57.665.114a5.477,5.477,0,0,0,1.9-.551l.152-.988-.171-.114A2.878,2.878,0,0,1,58.178-1.159Zm6.194-7.7a5.469,5.469,0,0,0-3.249,1.178l.19,1.083.152.076a4.14,4.14,0,0,1,2.679-1.254,1.373,1.373,0,0,1,1.5,1.539L65.626-5l-3.078.722a1.957,1.957,0,0,0-1.767,2.033c0,1.463.988,2.375,2.7,2.375a5.6,5.6,0,0,0,2.033-1.425h.133A1.36,1.36,0,0,0,66.956.114a2.736,2.736,0,0,0,1.083-.38l.152-.855-.152-.133a2.073,2.073,0,0,1-.646.114c-.437,0-.589-.19-.589-.741,0-.665.228-4.028.228-4.693C67.032-8,66.006-8.854,64.372-8.854Zm1.235,4.826L65.55-2.47a2.915,2.915,0,0,1-2.128,1.349,1.218,1.218,0,0,1-1.292-1.33.832.832,0,0,1,.722-.912Zm7.049-4.807c-1.881,0-3,1.064-3,2.508,0,2.7,3.971,2.337,3.971,4.085A1.428,1.428,0,0,1,72.048-.931a3.738,3.738,0,0,1-2.318-.95l-.171.114-.19,1.292A5.581,5.581,0,0,0,71.9.152c2.014,0,3.1-1.273,3.1-2.66,0-2.622-3.952-2.261-3.952-4.009a1.316,1.316,0,0,1,1.444-1.235,3.3,3.3,0,0,1,1.824.627l.228-.057.209-1.235A5.54,5.54,0,0,0,72.656-8.835Zm10.659-.019a5.469,5.469,0,0,0-3.249,1.178l.19,1.083.152.076a4.14,4.14,0,0,1,2.679-1.254,1.373,1.373,0,0,1,1.5,1.539L84.569-5l-3.078.722a1.957,1.957,0,0,0-1.767,2.033c0,1.463.988,2.375,2.7,2.375a5.6,5.6,0,0,0,2.033-1.425h.133A1.36,1.36,0,0,0,85.9.114a2.736,2.736,0,0,0,1.083-.38l.152-.855-.152-.133a2.073,2.073,0,0,1-.646.114c-.437,0-.589-.19-.589-.741,0-.665.228-4.028.228-4.693C85.975-8,84.949-8.854,83.315-8.854ZM84.55-4.028,84.493-2.47a2.915,2.915,0,0,1-2.128,1.349,1.218,1.218,0,0,1-1.292-1.33.832.832,0,0,1,.722-.912ZM94.6,0h1.52l-.076-3.781.038-2.47c.019-1.634-.969-2.565-2.907-2.565a5.981,5.981,0,0,0-2.413,1.349h-.114l.019-1.273-1.444.133L89.3-3.686,89.205,0h1.5L90.63-3.819l.019-2.394a3.768,3.768,0,0,1,2.565-1.349c1.007,0,1.5.646,1.482,1.653Zm7.657-8.854c-2.527,0-3.971,1.691-3.971,4.617,0,2.793,1.368,4.389,3.743,4.389,2.527,0,3.952-1.691,3.952-4.617C105.982-7.258,104.614-8.854,102.258-8.854Zm-.095,1.064c1.558,0,2.413,1.254,2.413,3.667,0,2.128-.855,3.192-2.451,3.192-1.558,0-2.413-1.2-2.413-3.648C99.712-6.669,100.567-7.79,102.163-7.79Zm8.55-1.045c-1.881,0-3,1.064-3,2.508,0,2.7,3.971,2.337,3.971,4.085a1.428,1.428,0,0,1-1.577,1.311,3.738,3.738,0,0,1-2.318-.95l-.171.114-.19,1.292a5.581,5.581,0,0,0,2.527.627c2.014,0,3.1-1.273,3.1-2.66,0-2.622-3.952-2.261-3.952-4.009a1.316,1.316,0,0,1,1.444-1.235,3.3,3.3,0,0,1,1.824.627l.228-.057.209-1.235A5.54,5.54,0,0,0,110.713-8.835Zm11.343,2.2a4.115,4.115,0,0,0-2.47.836l-.114-.133c.589-2.033,2.242-3.458,5.282-4.522V-10.6l-1.178-.684h-.1c-3.572,1.425-5.624,4.047-5.624,7.277,0,2.622,1.159,4.161,3.534,4.161A3.417,3.417,0,0,0,125.1-3.42,2.911,2.911,0,0,0,122.056-6.631Zm-.551,5.738c-1.577,0-2.28-1.064-2.28-3.116l.019-.513a3.6,3.6,0,0,1,2.394-.988c1.349,0,2.109.817,2.109,2.3A2.072,2.072,0,0,1,121.505-.893Zm9.538-8.683c-2.717,0-4.237,1.786-4.237,4.978,0,3.021,1.463,4.731,4.047,4.731,2.7,0,4.218-1.786,4.218-4.921C135.071-7.866,133.608-9.576,131.043-9.576Zm-.133,1.387c1.938,0,2.964,1.216,2.964,3.572,0,2.242-1.007,3.42-2.945,3.42S128-2.394,128-4.712C128-7.011,128.991-8.189,130.91-8.189ZM1.767,14.821l.1,8.512L1.767,27H3.306L3.23,23.2v-.475H4.674c2.85,0,4.541-1.653,4.541-4.351,0-2.3-1.349-3.572-3.724-3.572Zm1.482,6.631.057-5.339,1.843-.057c1.634.057,2.508.817,2.508,2.451A2.687,2.687,0,0,1,5.244,21.49Zm11.8-3.173a2.878,2.878,0,0,0-2.432,1.767H12.5l.019-1.786-1.444.133.095,4.921L11.058,27h1.5l-.095-3.819.019-1.33c.684-1.5,1.387-2.109,2.2-2.109a2.631,2.631,0,0,1,.684.095l.171-.057V18.317A3.736,3.736,0,0,0,15.048,18.279Zm5.263-.133c-2.527,0-3.971,1.691-3.971,4.617,0,2.793,1.368,4.389,3.743,4.389,2.527,0,3.952-1.691,3.952-4.617C24.035,19.742,22.667,18.146,20.311,18.146Zm-.1,1.064c1.558,0,2.413,1.254,2.413,3.667,0,2.128-.855,3.192-2.451,3.192-1.558,0-2.413-1.2-2.413-3.648C17.765,20.331,18.62,19.21,20.216,19.21Zm12.673,3.971L33,13.662l-1.5.133.038,4.541a7.4,7.4,0,0,0-1.672-.19c-2.641,0-4.218,1.634-4.218,4.522,0,2.812,1.349,4.427,3.876,4.427A6.318,6.318,0,0,0,31.6,25.784h.133a1.4,1.4,0,0,0,1.33,1.33,2.736,2.736,0,0,0,1.083-.38l.133-.855-.152-.133a1.917,1.917,0,0,1-.646.114c-.4,0-.532-.19-.551-.722ZM29.678,19.21a4.43,4.43,0,0,1,1.862.475l.038,3.61-.038,1.368a2.7,2.7,0,0,1-2.09,1.159c-1.444,0-2.356-1.178-2.394-3.287C27.018,20.331,28.082,19.21,29.678,19.21Zm13.053-.95-1.444.133v6.289a3.514,3.514,0,0,1-2.356,1.159c-.988,0-1.482-.627-1.463-1.653l.114-5.928-1.52.133.057,3.743L36.1,24.549c-.019,1.634.969,2.565,2.85,2.565a5.519,5.519,0,0,0,2.356-1.33h.152a1.383,1.383,0,0,0,1.311,1.33,2.736,2.736,0,0,0,1.083-.38l.133-.855-.133-.133a2.089,2.089,0,0,1-.665.114c-.4,0-.57-.19-.57-.722Zm5.909,7.581c-.836,0-1.216-.342-1.2-1.368l.095-5.149H50.1l.095-.893-.076-.114H47.538l.038-1.843-.152-.133-1.311.57v1.406H44.954l-.1.893.076.114h1.2l.019,3.933-.057,1.349a2.195,2.195,0,0,0,2.033,2.508,5.477,5.477,0,0,0,1.9-.551l.152-.988-.171-.114A2.878,2.878,0,0,1,48.64,25.841Zm6.27-7.695c-2.527,0-3.971,1.691-3.971,4.617,0,2.793,1.368,4.389,3.743,4.389,2.527,0,3.952-1.691,3.952-4.617C58.634,19.742,57.266,18.146,54.91,18.146Zm-.1,1.064c1.558,0,2.413,1.254,2.413,3.667,0,2.128-.855,3.192-2.451,3.192-1.558,0-2.413-1.2-2.413-3.648C52.364,20.331,53.219,19.21,54.815,19.21Zm15.808,3.971.114-9.519-1.5.133.038,4.541a7.4,7.4,0,0,0-1.672-.19c-2.641,0-4.218,1.634-4.218,4.522,0,2.812,1.349,4.427,3.876,4.427a6.318,6.318,0,0,0,2.071-1.311h.133a1.4,1.4,0,0,0,1.33,1.33,2.736,2.736,0,0,0,1.083-.38l.133-.855-.152-.133a1.917,1.917,0,0,1-.646.114c-.4,0-.532-.19-.551-.722ZM67.412,19.21a4.43,4.43,0,0,1,1.862.475l.038,3.61-.038,1.368a2.7,2.7,0,0,1-2.09,1.159c-1.444,0-2.356-1.178-2.394-3.287C64.752,20.331,65.816,19.21,67.412,19.21Zm7.22,3.363,5.3-.019.323-.247c.019-.228.038-.665.038-.874,0-2.052-1.1-3.268-3-3.268-2.489,0-4.085,1.729-4.085,4.541,0,2.736,1.463,4.446,3.952,4.446a5.958,5.958,0,0,0,2.641-.7l.152-1.273-.171-.1a4.641,4.641,0,0,1-2.546.855c-1.748,0-2.6-1.254-2.6-3.306Zm2.527-3.344c1.045,0,1.786.627,1.786,1.995l-.038.228-4.18.114A2.444,2.444,0,0,1,77.159,19.229Zm7.733-1.064c-1.881,0-3,1.064-3,2.508,0,2.7,3.971,2.337,3.971,4.085a1.428,1.428,0,0,1-1.577,1.311,3.738,3.738,0,0,1-2.318-.95l-.171.114-.19,1.292a5.581,5.581,0,0,0,2.527.627c2.014,0,3.1-1.273,3.1-2.66,0-2.622-3.952-2.261-3.952-4.009a1.316,1.316,0,0,1,1.444-1.235,3.3,3.3,0,0,1,1.824.627l.228-.057.209-1.235A5.54,5.54,0,0,0,84.892,18.165Zm7.79-.019c-2.394,0-3.857,1.767-3.857,4.56,0,2.755,1.406,4.446,3.705,4.446a6.164,6.164,0,0,0,2.318-.494l.171-1.273-.171-.095a4.267,4.267,0,0,1-2.128.646c-1.558,0-2.47-1.273-2.47-3.306,0-2.052.893-3.249,2.375-3.249a3.7,3.7,0,0,1,1.957.646l.171-.057.266-1.311A5.777,5.777,0,0,0,92.682,18.146Zm7.41,0c-2.527,0-3.971,1.691-3.971,4.617,0,2.793,1.368,4.389,3.743,4.389,2.527,0,3.952-1.691,3.952-4.617C103.816,19.742,102.448,18.146,100.092,18.146ZM100,19.21c1.558,0,2.413,1.254,2.413,3.667,0,2.128-.855,3.192-2.451,3.192-1.558,0-2.413-1.2-2.413-3.648C97.546,20.331,98.4,19.21,100,19.21ZM111.549,27h1.52l-.076-3.781.038-2.47c.019-1.634-.969-2.565-2.907-2.565a5.981,5.981,0,0,0-2.413,1.349H107.6l.019-1.273-1.444.133.076,4.921-.1,3.686h1.5l-.076-3.819.019-2.394a3.768,3.768,0,0,1,2.565-1.349c1.007,0,1.5.646,1.482,1.653Zm7.144-1.159c-.836,0-1.216-.342-1.2-1.368l.1-5.149h2.565l.1-.893-.076-.114h-2.584l.038-1.843-.152-.133-1.311.57v1.406h-1.159l-.1.893.076.114h1.2l.019,3.933-.057,1.349a2.195,2.195,0,0,0,2.033,2.508,5.477,5.477,0,0,0,1.9-.551l.152-.988-.171-.114A2.878,2.878,0,0,1,118.693,25.841ZM122.816,14.4a.838.838,0,0,0-.893.893.78.78,0,0,0,.836.874.849.849,0,0,0,.893-.931A.778.778,0,0,0,122.816,14.4Zm.589,8.778.114-4.921-1.5.133.076,4.921L122,27h1.5ZM131.917,27h1.52l-.076-3.781.038-2.47c.019-1.634-.969-2.565-2.907-2.565a5.981,5.981,0,0,0-2.413,1.349h-.114l.019-1.273-1.444.133.076,4.921-.1,3.686h1.5l-.076-3.819.019-2.394a3.768,3.768,0,0,1,2.565-1.349c1.007,0,1.5.646,1.482,1.653Zm10.944-8.74-1.444.133v6.289a3.514,3.514,0,0,1-2.356,1.159c-.988,0-1.482-.627-1.463-1.653l.114-5.928-1.52.133.057,3.743-.019,2.413c-.019,1.634.969,2.565,2.85,2.565a5.519,5.519,0,0,0,2.356-1.33h.152a1.383,1.383,0,0,0,1.311,1.33,2.736,2.736,0,0,0,1.083-.38l.133-.855-.133-.133a2.089,2.089,0,0,1-.665.114c-.4,0-.57-.19-.57-.722Zm6.042-.114a5.469,5.469,0,0,0-3.249,1.178l.19,1.083.152.076a4.14,4.14,0,0,1,2.679-1.254,1.373,1.373,0,0,1,1.5,1.539L150.157,22l-3.078.722a1.957,1.957,0,0,0-1.767,2.033c0,1.463.988,2.375,2.7,2.375a5.6,5.6,0,0,0,2.033-1.425h.133a1.36,1.36,0,0,0,1.311,1.406,2.736,2.736,0,0,0,1.083-.38l.152-.855-.152-.133a2.073,2.073,0,0,1-.646.114c-.437,0-.589-.19-.589-.741,0-.665.228-4.028.228-4.693C151.563,19,150.537,18.146,148.9,18.146Zm1.235,4.826-.057,1.558a2.915,2.915,0,0,1-2.128,1.349,1.218,1.218,0,0,1-1.292-1.33.832.832,0,0,1,.722-.912Zm11.172.209.114-9.519-1.5.133.038,4.541a7.4,7.4,0,0,0-1.672-.19c-2.641,0-4.218,1.634-4.218,4.522,0,2.812,1.349,4.427,3.876,4.427a6.318,6.318,0,0,0,2.071-1.311h.133a1.4,1.4,0,0,0,1.33,1.33,2.736,2.736,0,0,0,1.083-.38l.133-.855-.152-.133a1.917,1.917,0,0,1-.646.114c-.4,0-.532-.19-.551-.722ZM158.1,19.21a4.43,4.43,0,0,1,1.862.475L160,23.3l-.038,1.368a2.7,2.7,0,0,1-2.09,1.159c-1.444,0-2.356-1.178-2.394-3.287C155.439,20.331,156.5,19.21,158.1,19.21Zm9.766-1.064c-2.527,0-3.971,1.691-3.971,4.617,0,2.793,1.368,4.389,3.743,4.389,2.527,0,3.952-1.691,3.952-4.617C171.589,19.742,170.221,18.146,167.865,18.146Zm-.1,1.064c1.558,0,2.413,1.254,2.413,3.667,0,2.128-.855,3.192-2.451,3.192-1.558,0-2.413-1.2-2.413-3.648C165.319,20.331,166.174,19.21,167.77,19.21ZM6.878,47.654A2.941,2.941,0,0,0,8.7,44.766c0-1.957-1.311-2.964-3.553-2.964l-3.382.019.1,8.512L1.767,54h.019c.76.057,2.261.076,2.679.076,3.325,0,5-1.178,5-3.477A2.78,2.78,0,0,0,6.878,47.654Zm.266-2.717A2.091,2.091,0,0,1,5.358,47.2l-2.09-.057.038-4.085H4.845C6.46,43.056,7.144,43.626,7.144,44.937ZM4.693,52.8c-.38,0-.912-.019-1.406-.057L3.23,50.2l.019-1.786L5.586,48.4c1.52.171,2.337.874,2.337,2.128C7.923,52.005,6.764,52.8,4.693,52.8Zm9.9-7.657a5.469,5.469,0,0,0-3.249,1.178l.19,1.083.152.076a4.14,4.14,0,0,1,2.679-1.254,1.373,1.373,0,0,1,1.5,1.539L15.846,49l-3.078.722A1.957,1.957,0,0,0,11,51.758c0,1.463.988,2.375,2.7,2.375a5.6,5.6,0,0,0,2.033-1.425h.133a1.36,1.36,0,0,0,1.311,1.406,2.736,2.736,0,0,0,1.083-.38l.152-.855-.152-.133a2.073,2.073,0,0,1-.646.114c-.437,0-.589-.19-.589-.741,0-.665.228-4.028.228-4.693C17.252,46,16.226,45.146,14.592,45.146Zm1.235,4.826L15.77,51.53a2.915,2.915,0,0,1-2.128,1.349,1.218,1.218,0,0,1-1.292-1.33.832.832,0,0,1,.722-.912ZM21.3,41.4a.838.838,0,0,0-.893.893.78.78,0,0,0,.836.874.849.849,0,0,0,.893-.931A.778.778,0,0,0,21.3,41.4Zm.589,8.778L22,45.26l-1.5.133.076,4.921L20.482,54h1.5Zm4.047-4.123-.361-.817-1.615.114,2.774,4.218L23.94,54h1.406l.38-.741,1.824-2.831,1.862,2.755.418.893,1.6-.152-2.907-4.37L31.236,45.3H29.83l-.437.779L27.74,48.7Zm10.279-.912c-2.527,0-3.971,1.691-3.971,4.617,0,2.793,1.368,4.389,3.743,4.389,2.527,0,3.952-1.691,3.952-4.617C39.938,46.742,38.57,45.146,36.214,45.146Zm-.095,1.064c1.558,0,2.413,1.254,2.413,3.667,0,2.128-.855,3.192-2.451,3.192-1.558,0-2.413-1.2-2.413-3.648C33.668,47.331,34.523,46.21,36.119,46.21ZM49.4,45.279a2.878,2.878,0,0,0-2.432,1.767h-.114l.019-1.786-1.444.133.1,4.921L45.41,54h1.5l-.095-3.819.019-1.33c.684-1.5,1.387-2.109,2.2-2.109a2.631,2.631,0,0,1,.684.095l.171-.057V45.317A3.736,3.736,0,0,0,49.4,45.279Zm2.717,4.294,5.3-.019.323-.247c.019-.228.038-.665.038-.874,0-2.052-1.1-3.268-3-3.268-2.489,0-4.085,1.729-4.085,4.541,0,2.736,1.463,4.446,3.952,4.446a5.958,5.958,0,0,0,2.641-.7l.152-1.273-.171-.095a4.641,4.641,0,0,1-2.546.855c-1.748,0-2.6-1.254-2.6-3.306Zm2.527-3.344c1.045,0,1.786.627,1.786,1.995l-.038.228-4.18.114A2.444,2.444,0,0,1,54.644,46.229Zm7.733-1.064c-1.881,0-3,1.064-3,2.508,0,2.7,3.971,2.337,3.971,4.085a1.428,1.428,0,0,1-1.577,1.311,3.738,3.738,0,0,1-2.318-.95l-.171.114-.19,1.292a5.582,5.582,0,0,0,2.527.627c2.014,0,3.1-1.273,3.1-2.66,0-2.622-3.952-2.261-3.952-4.009a1.316,1.316,0,0,1,1.444-1.235,3.3,3.3,0,0,1,1.824.627l.228-.057.209-1.235A5.54,5.54,0,0,0,62.377,45.165Zm11.191.1-1.444.133v6.289a3.514,3.514,0,0,1-2.356,1.159c-.988,0-1.482-.627-1.463-1.653l.114-5.928-1.52.133.057,3.743-.019,2.413c-.019,1.634.969,2.565,2.85,2.565a5.519,5.519,0,0,0,2.356-1.33h.152a1.383,1.383,0,0,0,1.311,1.33,2.736,2.736,0,0,0,1.083-.38l.133-.855-.133-.133a2.089,2.089,0,0,1-.665.114c-.4,0-.57-.19-.57-.722Zm4.655,4.921.114-9.519-1.5.133.1,9.5L76.817,54h1.5Zm5.947,2.66c-.836,0-1.216-.342-1.2-1.368l.1-5.149h2.565l.1-.893-.076-.114H83.068l.038-1.843-.152-.133-1.311.57v1.406H80.484l-.1.893.076.114h1.2l.019,3.933-.057,1.349a2.195,2.195,0,0,0,2.033,2.508,5.477,5.477,0,0,0,1.9-.551l.152-.988-.171-.114A2.878,2.878,0,0,1,84.17,52.841Zm6.194-7.695a5.469,5.469,0,0,0-3.249,1.178l.19,1.083.152.076a4.14,4.14,0,0,1,2.679-1.254,1.373,1.373,0,0,1,1.5,1.539L91.618,49l-3.078.722a1.957,1.957,0,0,0-1.767,2.033c0,1.463.988,2.375,2.7,2.375A5.6,5.6,0,0,0,91.5,52.708h.133a1.36,1.36,0,0,0,1.311,1.406,2.736,2.736,0,0,0,1.083-.38l.152-.855-.152-.133a2.073,2.073,0,0,1-.646.114c-.437,0-.589-.19-.589-.741,0-.665.228-4.028.228-4.693C93.024,46,92,45.146,90.364,45.146ZM91.6,49.972l-.057,1.558a2.915,2.915,0,0,1-2.128,1.349,1.218,1.218,0,0,1-1.292-1.33.832.832,0,0,1,.722-.912Zm11.172.209.114-9.519-1.5.133.038,4.541a7.4,7.4,0,0,0-1.672-.19c-2.641,0-4.218,1.634-4.218,4.522,0,2.812,1.349,4.427,3.876,4.427a6.318,6.318,0,0,0,2.071-1.311h.133a1.4,1.4,0,0,0,1.33,1.33,2.736,2.736,0,0,0,1.083-.38l.133-.855-.152-.133a1.917,1.917,0,0,1-.646.114c-.4,0-.532-.19-.551-.722ZM99.56,46.21a4.43,4.43,0,0,1,1.862.475l.038,3.61-.038,1.368a2.7,2.7,0,0,1-2.09,1.159c-1.444,0-2.356-1.178-2.394-3.287C96.9,47.331,97.964,46.21,99.56,46.21Zm9.766-1.064c-2.527,0-3.971,1.691-3.971,4.617,0,2.793,1.368,4.389,3.743,4.389,2.527,0,3.952-1.691,3.952-4.617C113.05,46.742,111.682,45.146,109.326,45.146Zm-.095,1.064c1.558,0,2.413,1.254,2.413,3.667,0,2.128-.855,3.192-2.451,3.192-1.558,0-2.413-1.2-2.413-3.648C106.78,47.331,107.635,46.21,109.231,46.21Zm15.808,3.971.114-9.519-1.5.133.038,4.541a7.4,7.4,0,0,0-1.672-.19c-2.641,0-4.218,1.634-4.218,4.522,0,2.812,1.349,4.427,3.876,4.427a6.318,6.318,0,0,0,2.071-1.311h.133a1.4,1.4,0,0,0,1.33,1.33,2.736,2.736,0,0,0,1.083-.38l.133-.855-.152-.133a1.917,1.917,0,0,1-.646.114c-.4,0-.532-.19-.551-.722Zm-3.211-3.971a4.43,4.43,0,0,1,1.862.475l.038,3.61-.038,1.368a2.7,2.7,0,0,1-2.09,1.159c-1.444,0-2.356-1.178-2.394-3.287C119.168,47.331,120.232,46.21,121.828,46.21Zm7.22,3.363,5.3-.019.323-.247c.019-.228.038-.665.038-.874,0-2.052-1.1-3.268-3-3.268-2.489,0-4.085,1.729-4.085,4.541,0,2.736,1.463,4.446,3.952,4.446a5.958,5.958,0,0,0,2.641-.7l.152-1.273-.171-.095a4.641,4.641,0,0,1-2.546.855c-1.748,0-2.6-1.254-2.6-3.306Zm2.527-3.344c1.045,0,1.786.627,1.786,1.995l-.038.228-4.18.114A2.444,2.444,0,0,1,131.575,46.229Zm9.025.171-.247-1.159-1.406.1,2.7,8.664h1.615l3.192-8.7H145.1l-.3,1.178L142.576,52.5h-.1Zm7.942,3.173,5.3-.019.323-.247c.019-.228.038-.665.038-.874,0-2.052-1.1-3.268-3-3.268-2.489,0-4.085,1.729-4.085,4.541,0,2.736,1.463,4.446,3.952,4.446a5.958,5.958,0,0,0,2.641-.7l.152-1.273-.171-.095a4.641,4.641,0,0,1-2.546.855c-1.748,0-2.6-1.254-2.6-3.306Zm2.527-3.344c1.045,0,1.786.627,1.786,1.995l-.038.228-4.18.114A2.444,2.444,0,0,1,151.069,46.229ZM161.8,54h1.52l-.076-3.781.038-2.47c.019-1.634-.969-2.565-2.907-2.565a5.981,5.981,0,0,0-2.413,1.349h-.114l.019-1.273-1.444.133.076,4.921L156.408,54h1.5l-.076-3.819.019-2.394a3.768,3.768,0,0,1,2.565-1.349c1.007,0,1.5.646,1.482,1.653Zm10.906-3.819.114-9.519-1.5.133.038,4.541a7.4,7.4,0,0,0-1.672-.19c-2.641,0-4.218,1.634-4.218,4.522,0,2.812,1.349,4.427,3.876,4.427a6.318,6.318,0,0,0,2.071-1.311h.133a1.4,1.4,0,0,0,1.33,1.33,2.736,2.736,0,0,0,1.083-.38l.133-.855-.152-.133a1.917,1.917,0,0,1-.646.114c-.4,0-.532-.19-.551-.722ZM169.5,46.21a4.43,4.43,0,0,1,1.862.475l.038,3.61-.038,1.368a2.7,2.7,0,0,1-2.09,1.159c-1.444,0-2.356-1.178-2.394-3.287C166.839,47.331,167.9,46.21,169.5,46.21Zm9.386-1.064a5.469,5.469,0,0,0-3.249,1.178l.19,1.083.152.076a4.14,4.14,0,0,1,2.679-1.254,1.373,1.373,0,0,1,1.5,1.539L180.139,49l-3.078.722a1.957,1.957,0,0,0-1.767,2.033c0,1.463.988,2.375,2.7,2.375a5.6,5.6,0,0,0,2.033-1.425h.133a1.36,1.36,0,0,0,1.311,1.406,2.736,2.736,0,0,0,1.083-.38l.152-.855-.152-.133a2.073,2.073,0,0,1-.646.114c-.437,0-.589-.19-.589-.741,0-.665.228-4.028.228-4.693C181.545,46,180.519,45.146,178.885,45.146Zm1.235,4.826-.057,1.558a2.915,2.915,0,0,1-2.128,1.349,1.218,1.218,0,0,1-1.292-1.33.832.832,0,0,1,.722-.912Zm7.049-4.807c-1.881,0-3,1.064-3,2.508,0,2.7,3.971,2.337,3.971,4.085a1.428,1.428,0,0,1-1.577,1.311,3.738,3.738,0,0,1-2.318-.95l-.171.114-.19,1.292a5.581,5.581,0,0,0,2.527.627c2.014,0,3.1-1.273,3.1-2.66,0-2.622-3.952-2.261-3.952-4.009A1.316,1.316,0,0,1,187,46.248a3.3,3.3,0,0,1,1.824.627l.228-.057.209-1.235A5.54,5.54,0,0,0,187.169,45.165Z" transform="translate(1137.5 8686)"/>
    <g id="_6330632_accessories_clothes_clothing_fashion_shirt_icon" data-name="6330632_accessories_clothes_clothing_fashion_shirt_icon" transform="translate(636.779 8484.58)">
      <path id="Caminho_771060" data-name="Caminho 771060" d="M82.475,22v78.124H19V22" transform="translate(12.972 17.296)" fill="#0041d9"/>
      <path id="Caminho_771061" data-name="Caminho 771061" d="M31.972,51.5H10v-1.78A36.621,36.621,0,0,1,30.245,16.967L44.179,10h0A14.648,14.648,0,0,0,58.827,24.648h9.765A14.648,14.648,0,0,0,83.241,10h0l13.935,6.968A36.62,36.62,0,0,1,117.42,49.723V51.5H95.448" transform="translate(0 0)" fill="#0041d9"/>
    </g>
    <g id="_6330632_accessories_clothes_clothing_fashion_shirt_icon-2" data-name="6330632_accessories_clothes_clothing_fashion_shirt_icon" transform="translate(636.779 8686.326)">
      <path id="Caminho_771060-2" data-name="Caminho 771060" d="M48.353,22V58.126H19V22" transform="translate(1.161 1.547)" fill="#0024a9"/>
      <path id="Caminho_771061-2" data-name="Caminho 771061" d="M20.161,29.192H10v-.823a16.934,16.934,0,0,1,9.362-15.147L25.805,10h0a6.774,6.774,0,0,0,6.774,6.774h4.516A6.774,6.774,0,0,0,43.869,10h0l6.444,3.222a16.934,16.934,0,0,1,9.361,15.147v.823H49.513" transform="translate(0 0)" fill="#0024a9"/>
    </g>
    <g id="_6330632_accessories_clothes_clothing_fashion_shirt_icon-3" data-name="6330632_accessories_clothes_clothing_fashion_shirt_icon" transform="translate(853.453 8686.326)">
      <path id="Caminho_771060-3" data-name="Caminho 771060" d="M48.353,22V58.126H19V22" transform="translate(1.161 1.547)" fill="#40bbff"/>
      <path id="Caminho_771061-3" data-name="Caminho 771061" d="M20.161,29.192H10v-.823a16.934,16.934,0,0,1,9.362-15.147L25.805,10h0a6.774,6.774,0,0,0,6.774,6.774h4.516A6.774,6.774,0,0,0,43.869,10h0l6.444,3.222a16.934,16.934,0,0,1,9.361,15.147v.823H49.513" transform="translate(0 0)" fill="#40bbff"/>
    </g>
    <g id="_6330632_accessories_clothes_clothing_fashion_shirt_icon-4" data-name="6330632_accessories_clothes_clothing_fashion_shirt_icon" transform="translate(1070.127 8686.326)">
      <path id="Caminho_771060-4" data-name="Caminho 771060" d="M48.353,22V58.126H19V22" transform="translate(1.161 1.547)" fill="#3b4aff"/>
      <path id="Caminho_771061-4" data-name="Caminho 771061" d="M20.161,29.192H10v-.823a16.934,16.934,0,0,1,9.362-15.147L25.805,10h0a6.774,6.774,0,0,0,6.774,6.774h4.516A6.774,6.774,0,0,0,43.869,10h0l6.444,3.222a16.934,16.934,0,0,1,9.361,15.147v.823H49.513" transform="translate(0 0)" fill="#3b4aff"/>
    </g>
  </g>
</svg>
