<svg xmlns="http://www.w3.org/2000/svg" xmlns:xlink="http://www.w3.org/1999/xlink" width="328" height="239.716" viewBox="0 0 328 239.716">
  <defs>
    <linearGradient id="linear-gradient" x1="0.973" y1="1" x2="0" y2="1" gradientUnits="objectBoundingBox">
      <stop offset="0" stop-color="#fff" stop-opacity="0"/>
      <stop offset="0.159" stop-color="#fff" stop-opacity="0.408"/>
      <stop offset="0.414" stop-color="#95ebff"/>
      <stop offset="0.598" stop-color="#3db8f9"/>
      <stop offset="0.82" stop-color="#1b74d8"/>
      <stop offset="1" stop-color="#0024a8"/>
    </linearGradient>
    <linearGradient id="linear-gradient-2" x1="0.027" y1="0" x2="1" y2="0" xlink:href="#linear-gradient"/>
    <clipPath id="clip-path">
      <rect id="Retângulo_125296" data-name="Retângulo 125296" width="316.322" height="162.454" fill="none"/>
    </clipPath>
    <linearGradient id="linear-gradient-3" x1="0.5" x2="0.5" y2="1" gradientUnits="objectBoundingBox">
      <stop offset="0" stop-color="#d263e1"/>
      <stop offset="1" stop-color="#fba4b0"/>
    </linearGradient>
    <linearGradient id="linear-gradient-4" x1="0.5" x2="0.5" y2="1" gradientUnits="objectBoundingBox">
      <stop offset="0" stop-color="#9285f9"/>
      <stop offset="1" stop-color="#424ffe"/>
    </linearGradient>
    <linearGradient id="linear-gradient-5" x1="0.5" x2="0.5" y2="1" gradientUnits="objectBoundingBox">
      <stop offset="0" stop-color="#3b4fff"/>
      <stop offset="1" stop-color="#40b5ff"/>
    </linearGradient>
    <linearGradient id="linear-gradient-6" x1="0.5" x2="0.78" y2="2.443" gradientUnits="objectBoundingBox">
      <stop offset="0" stop-color="#89f1b9"/>
      <stop offset="1" stop-color="#f6b784"/>
    </linearGradient>
    <linearGradient id="linear-gradient-7" x2="0.5" y2="1" xlink:href="#linear-gradient-6"/>
    <linearGradient id="linear-gradient-8" x2="-0.562" y2="2.029" xlink:href="#linear-gradient-6"/>
    <linearGradient id="linear-gradient-9" x1="0.5" x2="0.5" y2="1" gradientUnits="objectBoundingBox">
      <stop offset="0" stop-color="#ffb97d"/>
      <stop offset="1" stop-color="#ffe66c"/>
    </linearGradient>
    <linearGradient id="linear-gradient-11" x2="0.227" y2="2.174" xlink:href="#linear-gradient-9"/>
    <linearGradient id="linear-gradient-12" x1="0.5" x2="0.5" y2="1" gradientUnits="objectBoundingBox">
      <stop offset="0" stop-color="#6de1d2"/>
      <stop offset="1" stop-color="#46c0f8"/>
    </linearGradient>
  </defs>
  <g id="_Ilustração_lateral_direita_2-mob_" data-name="&lt;Ilustração lateral direita_2-mob&gt;" transform="translate(-16 -14194)">
    <g id="Grupo_232271" data-name="Grupo 232271" transform="translate(16 14194)">
      <rect id="Retângulo_124594" data-name="Retângulo 124594" width="273.745" height="225.019" transform="translate(7.605 14.697)" fill="none"/>
      <g id="Grupo_232248" data-name="Grupo 232248" transform="translate(0 17.507)">
        <g id="GettyImages-1412762526" transform="translate(163.31 0)" fill="none">
          <path d="M-115.562.124,164.69,0,117.2,213.805l-280.511-.164Z" stroke="none"/>
          <path d="M 162.1972198486328 2.001083374023438 L -113.9600524902344 2.12322998046875 L -160.8132629394531 211.6426849365234 L 115.597412109375 211.8040771484375 L 162.1972198486328 2.001083374023438 M 164.6904296875 -1.52587890625e-05 L 117.2017211914062 213.8050231933594 L -163.3095703125 213.6412200927734 L -115.5623626708984 0.123931884765625 L 164.6904296875 -1.52587890625e-05 Z" stroke="none" fill="#0024a9"/>
        </g>
      </g>
      <g id="Grupo_232268" data-name="Grupo 232268" transform="translate(214.095 0)">
        <path id="Caminho_734262" data-name="Caminho 734262" d="M3.837-.459H113.9L109.733,17.1H0Z" transform="translate(0 0.459)" fill="url(#linear-gradient)"/>
        <path id="Caminho_734263" data-name="Caminho 734263" d="M110.068,17.1H0L4.172-.459H113.9Z" transform="translate(0 17.911)" fill="url(#linear-gradient-2)"/>
      </g>
      <path id="Caminho_758681" data-name="Caminho 758681" d="M418.32,331.779c-1.584-.307-4.033-1.008-5.416-2.564a.43.43,0,0,1,.336-.691l4.264-.163c.307,1.191.576,2.334.816,3.419" transform="translate(-267.77 -204.345)" fill="#fff"/>
      <g id="Grupo_234194" data-name="Grupo 234194" transform="translate(0 66.858)">
        <g id="Grupo_234151" data-name="Grupo 234151" clip-path="url(#clip-path)">
          <path id="Caminho_771064" data-name="Caminho 771064" d="M498.084,211.206c-.638-3.066-2.02-5-4.44-5.179l-8.89-.656c-2.791-.206-5.487.138-6.98,2.845-1.238,2.246-1.576,5.216-2.019,7.7-.516,2.9-.886,5.818-1.281,8.734a227.546,227.546,0,0,1-7.457,34.614,3.89,3.89,0,0,0,3.719,4.882,32.96,32.96,0,0,1,12.839,2.269c1.962.756,4.213-.848,4.744-2.694,1.7-5.9,12.479-39.465,9.763-52.517" transform="translate(-277.333 -121.966)" fill="#fff"/>
          <path id="Caminho_771066" data-name="Caminho 771066" d="M234.728,260.256a.975.975,0,0,0-.032-.11.656.656,0,0,0-.357-.538c-9.42-5.341-20.2-5.073-30.617-5.906-.091-.681-.993-1.129-1.374-.387-.054.1-.1.21-.157.315-.393.124.413,1.319.492,1.711-5.712,11.493-11.5,26.257-11.858,40.289-.026,1.045,16.444,1.137,23.378,1.218,7.7.09,15.676,1.18,23.379.947.4-.012,0-6.788,0-7.259a163.229,163.229,0,0,0-2.854-30.281" transform="translate(-113.355 -150.248)" fill="url(#linear-gradient-3)"/>
          <path id="Caminho_771067" data-name="Caminho 771067" d="M256.513,318.087c-2.646,1.1-5.736,1.953-7.725,4.128a51.666,51.666,0,0,0-5.434,8.073c-.136.223.214.427.351.205a58.355,58.355,0,0,1,5.147-7.74c1.972-2.293,5.061-3.152,7.769-4.276.238-.1.134-.492-.108-.391" transform="translate(-144.54 -188.942)" fill="#2d0a0a"/>
          <path id="Caminho_771068" data-name="Caminho 771068" d="M642.644,298.022c-.323-4.5.211-8.907-.487-13.409a44.436,44.436,0,0,0-3.748-13.105c-1.41-2.762-3.247-5.257-4.628-8.02a3.35,3.35,0,0,0-.865-.694c-4.641-1.116-7.91,7.13-12.547,7.966a80.933,80.933,0,0,0-15.123,4.407c-3.479,1.364-7.64,2.519-8.388,6.7a16.835,16.835,0,0,0-.151,3.674c-1.437,4.626-1.943,13.911-2.005,15.587-.022.6,1.075.952,1.614,1.01l13.726,1.482c4.567.493,9.2,1.257,13.8.835a1.062,1.062,0,0,0,.513-.185l15.952-.792a2.743,2.743,0,0,0,2.587-3.094c-.1-.786-.188-1.574-.244-2.365" transform="translate(-353.267 -156.044)" fill="url(#linear-gradient-4)"/>
          <path id="Caminho_771069" data-name="Caminho 771069" d="M477.437,141.536a12.868,12.868,0,0,1,1.393,8.537c-.2,1.452-.4,2.8.633,4,.732.851,1.685,1.474,2.405,2.353a19.155,19.155,0,0,1,2.118,3.355c.649,1.253.956,3.163,2.509,3.435,2.295.4,6.181.161,8.054-1.4a2.25,2.25,0,0,0,.756-1.078c.229-.809-.2-1.55-.315-2.334a19.193,19.193,0,0,0-.443-2.1,21.917,21.917,0,0,0-1.453-3.948,24.673,24.673,0,0,0-4.9-6.77c-2.382-2.361-3.2-5.1-4.559-8.057-1.026-2.23-2.522-4.146-4.962-4.83a.379.379,0,0,0-.377.088.346.346,0,0,0-.4.024c-1.184.842-2.359,1.76-2.486,3.3-.155,1.885,1.187,3.849,2.033,5.429" transform="translate(-282.394 -78.814)" fill="#c45d31"/>
          <path id="Caminho_771070" data-name="Caminho 771070" d="M451.249,142.271c.026.185.056.377.089.572a14.408,14.408,0,0,0,6.725.036A15.463,15.463,0,0,0,464.482,140a29.409,29.409,0,0,1-.551-3.915q-.752-6.042-1.25-12.109a1.1,1.1,0,0,0-1.315-.975.971.971,0,0,0-.933.156c-3.624,2.631-7.666,5.044-10.46,8.565a.807.807,0,0,0-.166.243,1.059,1.059,0,0,0,.01,1.022q.777,4.635,1.431,9.288" transform="translate(-267.122 -73.029)" fill="#ff9e63"/>
          <path id="Caminho_771071" data-name="Caminho 771071" d="M350.5,10.028a1.061,1.061,0,0,0-2.082.151,5.784,5.784,0,0,0,.08,1.783c.054.313.714,2.91-.2,2.631a.911.911,0,0,1-.445-.428c-.2-.307-.381-.622-.562-.938a.366.366,0,0,1-.023-.05,49.35,49.35,0,0,0-3.008-6.741c-.721-1.326-1.645-3.9-3.388-3.949a.769.769,0,0,0-.8.905c.229,1.582,1.173,2.788,1.881,4.181a23.8,23.8,0,0,1,1.449,3.564c.084.262.3.693.175.788-.175.13-.366-.2-.428-.313q-.234-.421-.476-.838-.483-.834-1-1.649-.723-1.15-1.509-2.258c-.885-1.245-1.982-3.522-3.711-3.392-.438.033-.627.515-.6.9.112,1.68,1.638,3.3,2.5,4.652l1.553,2.419.777,1.209a5.43,5.43,0,0,1,.421.764c.065.147.126.335-.034.444-.268.182-.51-.42-.642-.589-.68-.874-1.393-1.723-2.142-2.536-.9-.974-1.872-2.293-3.175-2.644a.764.764,0,0,0-.994.86c.162,1.52,1.331,2.481,2.247,3.6a41.079,41.079,0,0,1,2.677,3.685.325.325,0,0,1,.025.3c-.025.06-.049.121-.071.183a.3.3,0,0,1-.5.117c-.613-.6-1.213-1.222-1.831-1.832a3.658,3.658,0,0,0-2.541-1.277.816.816,0,0,0-.8.991.513.513,0,0,0,.132.205q1.887,1.939,3.7,3.954a33.235,33.235,0,0,1,2.81,3.888,22.352,22.352,0,0,0,1.125,2.065c.4.69.85,1.349,1.308,2a16.584,16.584,0,0,1,1.992,3.769q1.474,3.994,3.124,7.912a.676.676,0,0,0,1.275-.024.312.312,0,0,1,.158-.176,5.915,5.915,0,0,0,2.1-1.58c.786-.9,1.57-2.788,2.65-3.245a.617.617,0,0,0,.39-.6.682.682,0,0,0,.268-.968,49.745,49.745,0,0,1-3.328-7.856,1.25,1.25,0,0,1-.01-.756c.763-2.462.631-6.562.574-7.848a27.242,27.242,0,0,0-1.095-5.434" transform="translate(-197.989 -1.477)" fill="#ff9e63"/>
          <path id="Caminho_771072" data-name="Caminho 771072" d="M422.6,303.713c.465-.2.68-.858.1-1.112-5.858-2.561-12.256-2.746-18.584-3.306l-21.766-1.924a.711.711,0,0,0-1.285.079q-.756,2.4-1.347,4.841c-3.749,9.817-6.654,16.978-8.233,24.491-.1.478,37.608,3.244,52.979.214a.554.554,0,0,0,.468-.7c1.044-6.338-1.283-16.2-2.332-22.582" transform="translate(-220.673 -176.426)" fill="url(#linear-gradient-5)"/>
          <path id="Caminho_771073" data-name="Caminho 771073" d="M395.866,112.426c-2.386-5.074-5.3-7.59-8.852-11.933-5.246-6.411-7.522-14.873-10.168-22.519A57.752,57.752,0,0,0,371.578,67.3a.506.506,0,0,1-.067-.358c-1.082-2.232-1.758-7.132-5.052-5.525-5.933,2.895-10.191,6.926-9.244,9.294.218.544,2.168,6.471,2.164,7.057-.025,3.611,1.464,7.215,2.8,10.631,1.927,4.931,2.057,10.125,3.237,15.225a46.766,46.766,0,0,0,3.8,10.516c1.7,3.367,3.359,6.446,4.815,9.944,2.379,5.719,4.323,11.593,7.532,16.926a.866.866,0,0,0,.7.46,1.012,1.012,0,0,0,1.363-.222,110.728,110.728,0,0,0,9.472-13.489c1.349-2.265,3.153-4.8,3.972-7.322.658-2.024-.381-6.241-1.213-8.012" transform="translate(-212.116 -36.295)" fill="url(#linear-gradient-6)"/>
          <path id="Caminho_771074" data-name="Caminho 771074" d="M452.958,105.15c.166-2.271,1.088-3.571,1.932-5.681,2.065-5.161-2.092-10.858-6.962-12.486-7.943-2.656-15.6,4.361-15.538,12.353a47.766,47.766,0,0,0,.993,7.774,30.206,30.206,0,0,0,2.007,7.128c.873,1.859,3.535,1.963,5.289,1.9,3.522-.131,8.234-1.7,10.255-4.978a11.719,11.719,0,0,0,2.014-5.868c0-.046.006-.093.009-.138" transform="translate(-256.85 -51.33)" fill="#ff9e63"/>
          <path id="Caminho_771075" data-name="Caminho 771075" d="M602.624,13.366c-1.632.886-3.892,2.3-5.524,3.185a.375.375,0,0,1-.555-.313V16.2a.378.378,0,0,1,.131-.3c1.142-.968,2.958-1.953,4.087-2.936,1.271-1.106,3.045-2.713,2.982-4.588a.863.863,0,0,0-1.275-.764,39.01,39.01,0,0,0-3.314,2.556c-.549.452-1.1.9-1.67,1.328a6.131,6.131,0,0,1-1.682,1.092c-.579.168-1.417-.462-.834-1.03a30.2,30.2,0,0,0,4-4.657c.965-1.525,2.471-3.6,1.7-5.436a.862.862,0,0,0-1.341-.19,25.106,25.106,0,0,0-3.227,4.241,53.923,53.923,0,0,1-4.037,4.689.382.382,0,0,1-.361.11.375.375,0,0,1-.263-.533c.41-.835,1.31-2.458,1.688-3.307C593.6,5.389,596.585.117,593.9,0c-1.013-.043-1.87,1.822-2.345,2.57-.682,1.076-3.731,6.285-4.342,7.4A8.648,8.648,0,0,1,585.857,12c-.149.139-.3.281-.454.422.23-2.472.588-5.583-1.924-6.248-.474-.125-1.153.228-1.094.8.372,3.58-.529,7.06-.989,10.586a.278.278,0,0,1-.01.044,14.733,14.733,0,0,0-.071,5.636.371.371,0,0,1-.026.183,74.1,74.1,0,0,1-5.2,10.325c1.088,1.587,7.131,3.683,8.794,3.355,2.388-2.965,4.324-9.927,5.457-11.162.857-.934,5.224-4.193,5.92-5.238a3.681,3.681,0,0,1,1.427-1.263c1.6-.792,1.652-.834,3.223-1.68,1.324-.712,2.953-2.025,2.99-3.629a.863.863,0,0,0-1.275-.764" transform="translate(-342.209 0)" fill="#ff9e63"/>
          <path id="Caminho_771076" data-name="Caminho 771076" d="M446.049,180.787a10.269,10.269,0,0,0-4.341-6.509,41.487,41.487,0,0,0-7.5-4.206c-.9-.4-1.811-.8-2.745-1.114-.7-.236-1.809-.332-1.911.221-.224.064-14.512-.585-15.27-.542-3.146.18-7.7-2.092-10.695-1.024-2.779.991-4.445,6.753-5.7,9.147-.191.365-.4.721-.626,1.069a39.129,39.129,0,0,0-6.158,15.5,56.332,56.332,0,0,0,.057,15.935,3.379,3.379,0,0,1-.2,1.68,51.018,51.018,0,0,0-2.289,6.993,12.657,12.657,0,0,0-.155,4.936c.419,2.345,1.573,3.133,3.992,2.549,5.894-1.423,13.048-.637,18.988.563a100.763,100.763,0,0,1,11.311,2.835,33.763,33.763,0,0,0,9.147.287c1.681-.346,3.09-2.3,3.882-3.648,4-6.792,13.3-33.713,10.381-43.859-.079-.274-.112-.552-.174-.815" transform="translate(-230.689 -99.396)" fill="url(#linear-gradient-7)"/>
          <path id="Caminho_771077" data-name="Caminho 771077" d="M448.043,174.114c-.688,7.078-3.092,13.983-5.472,20.643a44.876,44.876,0,0,0-2.424,9.827,83.472,83.472,0,0,0-.425,11.787c.093,4.267.357,8.528.449,12.8a.2.2,0,0,0,.406,0c-.164-7.633-.885-15.287-.2-22.915a42.457,42.457,0,0,1,2.327-10.669c1.16-3.226,2.275-6.47,3.245-9.758a63.146,63.146,0,0,0,2.5-11.709c.025-.26-.381-.258-.406,0" transform="translate(-261.185 -103.312)" fill="#2d0a0a"/>
          <path id="Caminho_771078" data-name="Caminho 771078" d="M524.794,72.624a5.843,5.843,0,0,0-1.154-2.213,26.878,26.878,0,0,0-2.925-3.574c-1.643-1.677-4.141-3.655-6.658-3.682-1.284-.014-7.452,6.9-13.219,14.64-4.015,5.384-6.2,11.107-10.786,16.023-4.24,4.54-10.81,6.58-15.846,16.773-2.46,4.981-6.24,1.02-8.571,5.274-.3.55-.294,4.7.147,4.9a65.06,65.06,0,0,1,10.335,23.683.982.982,0,0,0,1.219.771c.272.043,6.94-.575,7.112-.9,4.131-7.843,6.544-4.155,7.3-11.588.815-7.992,8.021-15.512,11.111-21.367,2.889-5.473,7.153-11.019,10.848-15.9,3.643-4.816,5.692-8.808,6.476-14.706a3.544,3.544,0,0,1,1.357-2.416,42.454,42.454,0,0,0,2.991-4.4,1.94,1.94,0,0,0,.261-1.311" transform="translate(-276.475 -37.516)" fill="url(#linear-gradient-8)"/>
          <path id="Caminho_771079" data-name="Caminho 771079" d="M466.3,163.492a22.445,22.445,0,0,0-1.924-5.589.655.655,0,0,0-.19-.235.812.812,0,0,0-1.1.093c-8.73,7.029-11.891,4.406-12.317,3.693a.51.51,0,0,1-.058-.149c-.044-.062-.093-.119-.134-.184a.605.605,0,0,0-.647.443,22.252,22.252,0,0,0-.709,9.842.508.508,0,0,0,.021.162c0,.019,0,.037.007.056.108.691,1.015.543,1.207-.013a.71.71,0,0,0,.043-.086,48.016,48.016,0,0,1,2.981-6.3.233.233,0,0,1,.43.069,18.591,18.591,0,0,0,2.319,5.731,1.925,1.925,0,0,0,1.1.7,1.282,1.282,0,0,0,.53-.206,27.887,27.887,0,0,0,4.467-3.131c1.408-1.232,2.457-2.741,3.767-4.056a.609.609,0,0,0,.123-.339.674.674,0,0,0,.082-.5" transform="translate(-266.702 -93.555)" fill="#9fe6af"/>
          <path id="Caminho_771080" data-name="Caminho 771080" d="M449.167,170.937a15.813,15.813,0,0,0-.544,5.175c.053.8.044,3.05,1.043,3.429.847.322,1.3-1.49,1.559-2a36.674,36.674,0,0,1,2.388-4.262l-.371-.048a44.31,44.31,0,0,0,1.523,4.327c.408.948.915,2.083,2.133,1.924.255-.033.259-.44,0-.406-1.375.18-1.938-2.053-2.293-3.023s-.665-1.947-.971-2.93a.206.206,0,0,0-.371-.048,28.025,28.025,0,0,0-1.624,2.764c-.26.5-.513,1-.764,1.5-.183.365-.448,1.31-.772,1.544-.855.618-1.1-3.146-1.105-3.69a15.553,15.553,0,0,1,.561-4.144.2.2,0,0,0-.391-.108" transform="translate(-266.474 -101.455)" fill="#2d0a0a"/>
          <path id="Caminho_771081" data-name="Caminho 771081" d="M436.154,113.743a1.388,1.388,0,0,0-.136-.122c-1.274-1-3.369-.012-3.988,1.419a1.079,1.079,0,0,0-.067.678c.183.81.728,1.178,1.455.835a18.324,18.324,0,0,1,2.879-.489c1.057-.276.442-1.724-.143-2.32" transform="translate(-256.581 -67.253)" fill="#c45d31"/>
          <path id="Caminho_771082" data-name="Caminho 771082" d="M460.8,111.9a4.3,4.3,0,0,0-3.479-1.017c-1.088.138-2.467.732-2.407,2.178.083,2.007,2.828.635,3.791.613a5.108,5.108,0,0,0,1.811-.073.994.994,0,0,0,.284-1.7" transform="translate(-270.226 -65.846)" fill="#c45d31"/>
          <path id="Caminho_771083" data-name="Caminho 771083" d="M426.805,92.688c1.749-4.369,7.939-8.6,12.494-9.013,5.381-.489,11.378.364,14,5.776a17.735,17.735,0,0,1-.095,14.693,4.5,4.5,0,0,1-4.4,2.982,4.568,4.568,0,0,0-2.271-1.431,4.458,4.458,0,0,1-2.008-1.109c-1.811-2.036.1-5.149-2.243-7.017-.937-.747-2.448-.644-3.487-1.267a4,4,0,0,1-1.689-2.013,7.862,7.862,0,0,1-.459-3.318.9.9,0,0,0-.514.011,4.515,4.515,0,0,0-1.18.573,5.19,5.19,0,0,0-2.588,3.108c-.755,1.792-2.315,1.41-2.791,3.023-.134.455.355,3.738-.511,3.471-2.906-.9-3.208-6.112-2.265-8.469" transform="translate(-253.248 -49.635)" fill="#c45d31"/>
          <path id="Caminho_771084" data-name="Caminho 771084" d="M480.959,119.608a4.462,4.462,0,0,0,.7,1.738.476.476,0,0,0,.646.106c1.928-1.389,2.06-6.626-.165-5.908a3.532,3.532,0,0,0-1.833,1.495c-.384.725.285,1.413.51,2.075.056.166.1.33.146.494" transform="translate(-285.242 -68.596)" fill="#ff9e63"/>
          <path id="Caminho_771085" data-name="Caminho 771085" d="M367.45,35.728c-1.009,2.583-1.728,5.433-.322,8.014.125.229.476.025.351-.205-1.351-2.478-.6-5.233.362-7.7.1-.244-.3-.349-.391-.108" transform="translate(-217.617 -21.142)" fill="#a5422f"/>
          <path id="Caminho_771086" data-name="Caminho 771086" d="M599.6,34.565a10.311,10.311,0,0,1,1.219,7.892c-.063.254.329.362.391.108a10.727,10.727,0,0,0-1.26-8.2.2.2,0,0,0-.35.205" transform="translate(-356.16 -20.353)" fill="#a5422f"/>
          <path id="Caminho_771087" data-name="Caminho 771087" d="M405.177,186.591a43.655,43.655,0,0,0-2.95,5.45c-.829,1.988-1.407,4.087-2.083,6.129-.082.249.31.355.391.108.659-1.989,1.225-4.029,2.018-5.971a42.115,42.115,0,0,1,2.974-5.512.2.2,0,0,0-.35-.205" transform="translate(-237.689 -110.782)" fill="#2d0a0a"/>
          <path id="Caminho_771088" data-name="Caminho 771088" d="M396.9,270.368a62.64,62.64,0,0,0,1.392,10.107c.056.255.448.147.391-.108a61.985,61.985,0,0,1-1.377-10c-.014-.26-.421-.261-.406,0" transform="translate(-235.767 -160.489)" fill="#2d0a0a"/>
          <path id="Caminho_771089" data-name="Caminho 771089" d="M433.585,300.1a66.591,66.591,0,0,0,6.27,4.355c.224.137.428-.214.205-.35a65.784,65.784,0,0,1-6.188-4.292c-.2-.159-.493.126-.287.287" transform="translate(-257.518 -178.069)" fill="#2d0a0a"/>
          <path id="Caminho_771090" data-name="Caminho 771090" d="M464.818,91.144c5.223,1.7,4.083,7.777,5.745,11.874.1.239.49.134.392-.108-1.737-4.281-.589-10.384-6.029-12.157-.249-.081-.356.311-.108.391" transform="translate(-276.03 -53.903)" fill="#8a3f1a"/>
          <path id="Caminho_771091" data-name="Caminho 771091" d="M462.425,144.025a7.012,7.012,0,0,1-3.739,4.311,25.925,25.925,0,0,1-5.8,1.76c-.257.048-.148.44.108.392a23.794,23.794,0,0,0,6.492-2.082c1.788-.924,2.6-2.471,3.333-4.273.1-.242-.294-.348-.391-.108" transform="translate(-268.937 -85.474)" fill="#a5422f"/>
          <path id="Caminho_771092" data-name="Caminho 771092" d="M482.578,106.658a13.737,13.737,0,0,0-.56-6.055c-.08-.248-.472-.142-.391.108a13.482,13.482,0,0,1,.546,5.947c-.034.258.373.256.406,0" transform="translate(-286.091 -59.677)" fill="#8a3f1a"/>
          <path id="Caminho_771093" data-name="Caminho 771093" d="M451.17,92.194c-.286-2.183,2.1-3.534,3.875-4.027a.2.2,0,0,0-.108-.391c-1.932.537-4.484,2.052-4.173,4.418.033.255.44.259.406,0" transform="translate(-267.749 -52.136)" fill="#8a3f1a"/>
          <path id="Caminho_771094" data-name="Caminho 771094" d="M482.89,118.572a5.245,5.245,0,0,0-1.914,3.943.2.2,0,0,0,.406,0,4.848,4.848,0,0,1,1.795-3.656c.2-.166-.087-.452-.287-.287" transform="translate(-285.711 -70.405)" fill="#a5422f"/>
          <path id="Caminho_771095" data-name="Caminho 771095" d="M585.894,86.724a13.933,13.933,0,0,0-9.641-7.785c-.255-.056-.363.335-.108.391a13.553,13.553,0,0,1,9.4,7.6c.108.237.458.031.35-.205" transform="translate(-342.157 -46.888)" fill="#2d0a0a"/>
          <path id="Caminho_771096" data-name="Caminho 771096" d="M362.546,85.779c2.939-3.534,6.184-7.3,10.963-8.1.257-.043.148-.434-.108-.391-4.846.812-8.161,4.619-11.142,8.2-.166.2.12.488.287.287" transform="translate(-215.161 -45.908)" fill="#2d0a0a"/>
          <path id="Caminho_771097" data-name="Caminho 771097" d="M407.692,117.195l.928,7.919c.03.256.436.259.406,0l-.928-7.919c-.03-.257-.436-.259-.406,0" transform="translate(-242.178 -69.502)" fill="#2d0a0a"/>
          <path id="Caminho_771098" data-name="Caminho 771098" d="M461.652,123.257a.869.869,0,0,0-.965-.393c-1.069.308-.96,1.676-.585,2.487.253.548.933,1.062,1.506.635.789-.59.453-2.012.043-2.729" transform="translate(-273.155 -72.966)" fill="#260505"/>
          <path id="Caminho_771099" data-name="Caminho 771099" d="M439.613,125.127a.73.73,0,0,0-.85-.393c-.942.308-.846,1.676-.515,2.487.223.548.823,1.062,1.327.635.695-.59.4-2.012.038-2.729" transform="translate(-260.191 -74.077)" fill="#260505"/>
          <path id="Caminho_771100" data-name="Caminho 771100" d="M450.893,134.142c.214-.393.71-.295,1.068-.207.254.062.362-.329.108-.391-.544-.133-1.217-.177-1.527.393-.125.23.225.435.35.205" transform="translate(-267.618 -79.278)" fill="#a5422f"/>
          <path id="Caminho_771101" data-name="Caminho 771101" d="M446.24,130.111a2.437,2.437,0,0,0-.462,1.961,1.784,1.784,0,0,0,1.369,1.118.2.2,0,0,0,.108-.391c-.561-.151-1.085-.455-1.134-1.094a2.361,2.361,0,0,1,.469-1.389c.138-.223-.213-.427-.35-.205" transform="translate(-264.762 -77.232)" fill="#a5422f"/>
          <path id="Caminho_771102" data-name="Caminho 771102" d="M451.388,138.745c-.761-.315-1.442.1-2.183.313a9.645,9.645,0,0,1-2.079.345c-.416.024-1.57-.22-1.8.17-.488.818.483,2.137,1.278,2.365,1.951.56,4.681-.485,5.084-2.668a.445.445,0,0,0-.3-.525" transform="translate(-264.455 -82.35)" fill="#ad4d37"/>
          <path id="Caminho_771103" data-name="Caminho 771103" d="M453.478,139.2a.44.44,0,0,0-.3-.452c-.761-.316-1.442.1-2.183.313a9.673,9.673,0,0,1-2.079.345c-.16.009-.428-.021-.711-.039.076,1.848,3.525.665,5.274-.166" transform="translate(-266.244 -82.351)" fill="#fff"/>
          <path id="Caminho_771104" data-name="Caminho 771104" d="M532.193,126.362a64.219,64.219,0,0,1-5.761,9c-.159.207.194.41.35.2a64.182,64.182,0,0,0,5.762-9c.122-.231-.229-.436-.351-.205" transform="translate(-312.689 -75.002)" fill="#2d0a0a"/>
          <path id="Caminho_771105" data-name="Caminho 771105" d="M469.4,181.292a20.636,20.636,0,0,0,8.007-7.111c.152-.214-.2-.417-.351-.205a20.2,20.2,0,0,1-7.861,6.966c-.236.111-.03.462.205.35" transform="translate(-278.649 -103.293)" fill="#2d0a0a"/>
          <path id="Caminho_771106" data-name="Caminho 771106" d="M487.09,137.6a1.546,1.546,0,0,1-.873.841c-.242.092-.137.484.108.392a2,2,0,0,0,1.157-1.125c.1-.241-.292-.346-.391-.108" transform="translate(-288.743 -81.658)" fill="#8a3f1a"/>
          <path id="Caminho_771107" data-name="Caminho 771107" d="M490.834,172.615a29.582,29.582,0,0,0-1.7,3.921c-.11.235.24.441.35.2a29.709,29.709,0,0,1,1.7-3.921c.144-.219-.207-.423-.35-.205" transform="translate(-290.542 -102.482)" fill="#2d0a0a"/>
          <path id="Caminho_771108" data-name="Caminho 771108" d="M502.94,186.2a162.614,162.614,0,0,0-4.712,18.123c-.051.255.34.364.391.108a162.678,162.678,0,0,1,4.712-18.123c.08-.249-.311-.356-.391-.108" transform="translate(-295.957 -110.524)" fill="#2d0a0a"/>
          <path id="Caminho_771109" data-name="Caminho 771109" d="M293.47,344.854c-8.182-.992-24.1-.205-32.3-.3q-13.437-.153-26.875-.2-26.875-.107-53.752.039-53.742.2-107.485.451c-8.863.037-41.232-.194-53.284-.061-3.033.034-6.3,4.506-8.519,6.579q-4.88,4.567-9.6,9.366a5.937,5.937,0,0,0-1.481,2.034,2.682,2.682,0,0,0,2.143,3.7c48.289.431,168.011.091,199.4-.006,16.12-.05,59.016.872,75.13.383,6.644-.2,17.825-19.292,17.9-19.5a1.822,1.822,0,0,0-1.289-2.492" transform="translate(0 -204.533)" fill="#f7ead7"/>
          <path id="Caminho_771110" data-name="Caminho 771110" d="M311.566,65.08c-2.171-1.235-5.142-.807-6.5,1.012a6.34,6.34,0,0,0-.3,6.923,1.144,1.144,0,0,0,.826.6,1.2,1.2,0,0,0,.683.118c2.532-.25,5.138-1.289,6.412-3.537,1.095-1.932.946-3.942-1.12-5.118" transform="translate(-180.514 -38.241)" fill="#592217"/>
          <path id="Caminho_771111" data-name="Caminho 771111" d="M254.507,105.525a3.726,3.726,0,0,0,3.5,3.459l.064,0c2.213.054,4.452-.948,6.613-.084,1.661.664,2.7,2.211,4.185,3.138,2.3,1.435,5.347,1,7.729.026a7.031,7.031,0,0,1,5.477-.419c2.276.777,4.475,2.326,6.992,1.585,2.978-.877,3.113-4.264,2.83-7.1-.043-.219-.089-.438-.142-.656a52.163,52.163,0,0,0-2.979-7.905c-1.27-2.995-1.833-6.281-2.994-9.333-1.721-4.522-7.352-6.25-11.779-6.563-3.972-.282-8.233.548-10.962,3.628-1.681,1.9-1.9,4.052-2.74,6.3-1.03,2.75-3.008,4.586-4.756,6.874a6.044,6.044,0,0,0-1.356,5.227,17.925,17.925,0,0,1,.322,1.819" transform="translate(-150.911 -48.489)" fill="#592217"/>
          <path id="Caminho_771112" data-name="Caminho 771112" d="M229.444,187.519c1.978,11.768,3.331,23.621,4.959,35.439q.76,5.515,1.622,11.015c.04.257.432.148.391-.108-1.872-11.905-3.205-23.882-4.922-35.809q-.768-5.332-1.659-10.645c-.043-.257-.434-.148-.391.108" transform="translate(-136.293 -111.24)" fill="#2d0a0a"/>
          <path id="Caminho_771113" data-name="Caminho 771113" d="M351.966,257.783c-6.608-7.811-11.116-13.687-14.044-23.583-.552-2.714-.81-6.771-1.162-9.516-.98-7.657-1.867-17.444-5.971-24.154a1.178,1.178,0,0,1-.689-.212c-4.639-1.641-7.118,3.544-7.213,7.355-.16,6.407.9,13.092,1.832,19.411q.739,4.989,1.734,9.935c.857,4.259,1.409,7.387,4.263,10.756,3.89,4.592,8.166,11.162,12.835,14.988.6,1.139,6.915-.155,10.079-1.285,2.221-.793-.715-3.829-1.663-3.694" transform="translate(-191.793 -118.808)" fill="#b05641"/>
          <path id="Caminho_771114" data-name="Caminho 771114" d="M340.661,213.624a169.366,169.366,0,0,0-4.944-17.286c-1.455-4.206-3.167-8.74-6.844-11.146-.308-.2-6.444,1-7.845,3a5.311,5.311,0,0,0-.7,3.3c.017,2.093.063,4.182.043,6.276-.037,3.921-.146,7.843.007,11.763.115,2.921,1.1,9.418,1.386,11.143a.8.8,0,0,0,.509.626c1.268.48,5.226,1.521,10.823-.285,3.212-1.036,6.286-3.251,7.416-6.6a.609.609,0,0,0,.026-.3.539.539,0,0,0,.12-.5" transform="translate(-190.267 -109.995)" fill="url(#linear-gradient-9)"/>
          <path id="Caminho_771115" data-name="Caminho 771115" d="M271.32,176.81c-1.311-4.463-3.013-9.127-6.235-12.673-3.8-4.187-9.377-6.671-14.222-9.41a.557.557,0,0,0-.323-.263,187.335,187.335,0,0,0-19.021-5.336,85.537,85.537,0,0,0-8.8-1.724,12.066,12.066,0,0,0-6.807,1.617c-2.009,1.006-1.347,6.118-1.258,8.067.142,3.112-.476,5.367.365,8.351a202.364,202.364,0,0,0-4.237,25.981c-.151,1.652-.532,6.473-.545,8.2,2.1,5.7,16.278,13.044,37.222,7.418.813-1.3,3.556-8.175,4.282-9.844,1.234-2.073,2.5-5.914,3.569-8.09a50.342,50.342,0,0,0,14.156-11.318c.345-.011,1.984-.532,1.853-.978" transform="translate(-124.886 -87.529)" fill="url(#linear-gradient-9)"/>
          <path id="Caminho_771116" data-name="Caminho 771116" d="M271,185.237c-.187,12.7-5.747,24.637-9.6,36.51a89.2,89.2,0,0,0-2.617,9.561c-.053.255.339.364.391.108,2.545-12.367,8.4-23.783,11.025-36.139a52.014,52.014,0,0,0,1.211-10.04.2.2,0,0,0-.406,0" transform="translate(-153.72 -109.919)" fill="#2d0a0a"/>
          <path id="Caminho_771117" data-name="Caminho 771117" d="M476.807,202.6c-.093-.266-5.892-1-8.523-.8a2.943,2.943,0,0,0-1.989.553,8.142,8.142,0,0,0-1.073,3.813.707.707,0,0,0,.723.762l9.479.166a.807.807,0,0,0,.489-.142.678.678,0,0,0,.372-.475,27.119,27.119,0,0,0,.647-3.347.718.718,0,0,0-.124-.531" transform="translate(-276.34 -119.857)" fill="#fff"/>
          <path id="Caminho_771118" data-name="Caminho 771118" d="M282.333,161.23c2.882.187,6.326-4.206,7.7-6.47a82.431,82.431,0,0,0,2.933-10.094c.04-.2-2.187.44-2.866.306a14.422,14.422,0,0,0-3.706-.249,27.574,27.574,0,0,1-3.885.224,6.783,6.783,0,0,0-3.126.2.171.171,0,0,0-.086.072.184.184,0,0,0-.062.131,24.991,24.991,0,0,1-1.728,7.094c.591,2.816,1.905,8.6,4.825,8.79" transform="translate(-164.846 -85.912)" fill="#b05641"/>
          <path id="Caminho_771119" data-name="Caminho 771119" d="M432.675,53.274Q430.05,47.7,427.951,41.9c-.088-.244-.481-.138-.391.108q2.116,5.844,4.765,11.471c.111.236.462.03.351-.205" transform="translate(-253.973 -24.807)" fill="#2d0a0a"/>
          <path id="Caminho_771120" data-name="Caminho 771120" d="M426.5,66.866a42.676,42.676,0,0,1-4.239-5.439c-.143-.218-.494-.014-.351.205a43.333,43.333,0,0,0,4.3,5.521c.177.193.464-.095.287-.287" transform="translate(-250.603 -36.434)" fill="#2d0a0a"/>
          <path id="Caminho_771121" data-name="Caminho 771121" d="M173.354,170.2a23.378,23.378,0,0,0-.056-12.593.626.626,0,0,0-.217-.328.538.538,0,0,0-.662-.4c-5.3,1.151-10.614,1.9-15.986,2.584-3.745.474-5.913,4.691-5.678,8.175.225,3.344-1.944,4.592,1.263,5.406,2.891.734,14.192-.382,17.247-1.247,2.863-.811,5.247-.419,4.089-1.595" transform="translate(-89.249 -93.179)" fill="#b05641"/>
          <path id="Caminho_771122" data-name="Caminho 771122" d="M294.455,94.958a8.753,8.753,0,0,0-3.918-6.666c-4.047-2.663-11.163-1.674-13.824,2.418-2.3,3.532-2.286,7.68-2.058,11.71.183,3.248.791,6.845,3.077,9.412a8.377,8.377,0,0,0,3,2.144,9.531,9.531,0,0,0,4.336.623c5.389-.364,7.563-6.474,8.5-10.728a27.915,27.915,0,0,0,.89-8.914" transform="translate(-163.093 -51.566)" fill="#b05641"/>
          <path id="Caminho_771123" data-name="Caminho 771123" d="M286.571,157.716c-.1-.147-.24-.185-.342-.1a14.3,14.3,0,0,1-7.834,8.077.818.818,0,0,1-.907-.164c-2.666-2.663-4.037-7.176-3.255-12.141-1.043-.071-3.306,1.45-3.823,4.387-.024.134.118.442.085.573a17.744,17.744,0,0,0,.362,9.762c.117.315.241.627.381.932a9.417,9.417,0,0,0,.861,1.518,2.957,2.957,0,0,0,.507.64c.974.739,1.749-.759,2.15-1.434.236-.4,2.585-3.818,3.1-3.332a.164.164,0,0,0,.109.047,20.728,20.728,0,0,0,1.211,2.833c.324.774.565,1.588.83,2.387.174.524.484.683.793.538,3.215-1.509,6.223-8.455,6.675-10.858a10.659,10.659,0,0,0-.906-3.662" transform="translate(-160.373 -91.114)" fill="#f7ead7"/>
          <path id="Caminho_771124" data-name="Caminho 771124" d="M217.848,148.629c-3.654-1.178-9-1.311-12.766-.877a82.033,82.033,0,0,0-11.951,2.3c-.568.153-.741,1.774-.854,2.266a30.28,30.28,0,0,0-.283,10.136,35.2,35.2,0,0,0,1.221,6.151,13.243,13.243,0,0,0,2.412,5.123.186.186,0,0,0,.132.065.176.176,0,0,0,.181.193,14.408,14.408,0,0,0,6.157-1.719c2.263-1.062,4.514-2.146,6.772-3.219a.2.2,0,0,0,.066-.05c1.019.013,1.552-1.388,1.959-2.191.967-1.911,1.8-3.886,2.6-5.87,1.557-3.84,4.564-12.239,4.354-12.307" transform="translate(-113.878 -87.633)" fill="url(#linear-gradient-11)"/>
          <path id="Caminho_771125" data-name="Caminho 771125" d="M323.175,226.875a101.807,101.807,0,0,1-9.162,13.567c-.162.2.124.491.287.287a102.464,102.464,0,0,0,9.226-13.649.2.2,0,0,0-.351-.205" transform="translate(-186.502 -134.71)" fill="#2d0a0a"/>
          <path id="Caminho_771126" data-name="Caminho 771126" d="M223.082,196.181a19.682,19.682,0,0,1-5.784,4.35c-.234.116-.029.466.2.35a19.963,19.963,0,0,0,5.867-4.413c.176-.192-.11-.48-.287-.287" transform="translate(-129.019 -116.498)" fill="#2d0a0a"/>
          <path id="Caminho_771127" data-name="Caminho 771127" d="M159,94.645c.427-2.02.764-5.11-1.269-6.215-1.6-.87-5.74,2.413-5.894,2.8a119.931,119.931,0,0,0-7.011,23.924c-1.1,5.835-3.191,16.112,3.451,16.829,3.7.4,8.493.728,8.859-3.517.236-2.749-.485-2.29-1.068-5.014-.6-2.822-.171-9.379.065-12.344.552-6.956,1.591-10.429,2.868-16.462" transform="translate(-85.318 -52.443)" fill="#b05641"/>
          <path id="Caminho_771128" data-name="Caminho 771128" d="M177.826,71.935a8.07,8.07,0,0,0-3.441-2.373c-1.368-.646-2.77-1.589-4.337-1.731-3.7-.334-5.343,4.221-6.537,6.6a68.213,68.213,0,0,0-3.687,9.2,73.243,73.243,0,0,0,7.339,1.9c.031.006-.455-1.424-.425-1.428a7.967,7.967,0,0,0,4.181-.2,12.042,12.042,0,0,0,3.825-2.671c.807-.723,1.772-1.32,1.686-2.434-.04-.514-.109-1.082-.212-1.658a.6.6,0,0,1,.2-.566c1.479-1.258,2.635-2.842,1.408-4.64" transform="translate(-94.935 -40.283)" fill="#b05641"/>
          <path id="Caminho_771129" data-name="Caminho 771129" d="M190.069,84.614c-.018-.726-.212-2.205-1.023-2.5s-1.414.538-1.528,1.219a6.223,6.223,0,0,0,.011,1.475,2.922,2.922,0,0,1,.035.728c-.122.6-.58.775-1.105.928a4.9,4.9,0,0,0-3.435,2.844c-.1.238.249.445.351.205a4.59,4.59,0,0,1,3.312-2.687c.663-.188,1.179-.506,1.279-1.228.11-.789-.274-1.636,0-2.416.327-.942,1.077-.823,1.407-.015a4.231,4.231,0,0,1,.294,1.449.2.2,0,0,0,.406,0" transform="translate(-108.71 -48.739)" fill="#753127"/>
          <path id="Caminho_771130" data-name="Caminho 771130" d="M180.241,75.131a3.209,3.209,0,0,1,1.444,2.023,4.885,4.885,0,0,1-.94,2.622c-.618.856-1.548.564-2.427.365-.481-.109-1.087-.24-1.222-.839-.322-1.433,1.486-.887,2.114-.6.235.109.442-.241.2-.351-.873-.4-2.521-.877-2.736.553-.229,1.519,1.737,1.648,2.744,1.854a1.3,1.3,0,0,0,1.361-.27,7.839,7.839,0,0,0,1.181-2.338c.481-1.274-.443-2.711-1.52-3.375-.223-.138-.427.213-.205.35" transform="translate(-104.941 -44.403)" fill="#753127"/>
          <path id="Caminho_771131" data-name="Caminho 771131" d="M193.718,75.227a4.281,4.281,0,0,1,1.03,1.172,2.384,2.384,0,0,1,.024,1.579c-.057.255.334.363.391.108a2.915,2.915,0,0,0,0-1.738A4.2,4.2,0,0,0,194,74.94c-.192-.177-.479.109-.287.287" transform="translate(-115.035 -44.483)" fill="#753127"/>
          <path id="Caminho_771132" data-name="Caminho 771132" d="M188.085,87.382a2.5,2.5,0,0,1-1.718,1.393,2.3,2.3,0,0,1-2.081-.908c-.166-.2-.452.087-.287.287a2.7,2.7,0,0,0,2.424,1.029,2.916,2.916,0,0,0,2.012-1.6c.136-.224-.214-.428-.351-.205" transform="translate(-109.271 -51.85)" fill="#753127"/>
          <path id="Caminho_771133" data-name="Caminho 771133" d="M200.216,78.318c.568.857-.251,2.26-.773,2.965-.155.21.2.413.351.205.626-.844,1.443-2.364.773-3.375-.144-.217-.5-.014-.351.205" transform="translate(-118.45 -46.346)" fill="#753127"/>
          <path id="Caminho_771134" data-name="Caminho 771134" d="M308.326,108.568c-.736-1.333-2.839-1.717-4.194-1.524-1.065.152-2.655,1.278-1.673,2.438a.4.4,0,0,0,.137.108,1.4,1.4,0,0,0,.962.365c.992.022,1.928-.311,2.945-.194.539.062,1.269.383,1.728-.067a.928.928,0,0,0,.1-1.126" transform="translate(-179.485 -63.559)" fill="#592217"/>
          <path id="Caminho_771135" data-name="Caminho 771135" d="M276.321,108.684c.4.506,1.162.283,1.7.292,1.023.017,1.908.469,2.894.577a1.407,1.407,0,0,0,1-.237.407.407,0,0,0,.149-.089c1.126-1.023-.3-2.346-1.34-2.636-1.318-.368-3.453-.261-4.357.964a.928.928,0,0,0-.053,1.129" transform="translate(-164.041 -63.207)" fill="#592217"/>
          <path id="Caminho_771136" data-name="Caminho 771136" d="M325.654,116.685c-1.033-.466-2.028.927-2.351,1.725s-.968,3.918.063,4.445c.885.452,1.841-2.409,2.073-2.948.319-.741,1.436-2.672.215-3.223" transform="translate(-191.754 -69.258)" fill="#b05641"/>
          <path id="Caminho_771137" data-name="Caminho 771137" d="M286.691,94.005c1.029.829,2.19,1.27,2.9,2.427.3.48.49,1.027.812,1.493a2.243,2.243,0,0,0,2.394.894,1.353,1.353,0,0,0,1.06-1.7c-.1-.342-.2-.684-.274-1.031a13.386,13.386,0,0,1,.122-4.375,5.312,5.312,0,0,0-2.674-4.882c-1.977-1.254-4.4-1.383-6.681-1.43a3,3,0,0,0-.751-.524c-2.285-1.1-4.81.088-6.8,1.265-5.078,3-5.1,10.01-5.168,15.218a.2.2,0,0,0,.393.08c1.022-3.2,2.311-6.387,5.307-8.209a7.985,7.985,0,0,0,2.691-2.28,6.308,6.308,0,0,1,1.78-1.75.538.538,0,0,1,.82.323,4.469,4.469,0,0,0,.2.689c.675,1.8,2.39,2.659,3.824,3.774a.371.371,0,0,1,.043.022" transform="translate(-161.358 -50.157)" fill="#592217"/>
          <path id="Caminho_771138" data-name="Caminho 771138" d="M271.272,96.056a36.594,36.594,0,0,0-3.077,3.6,8.53,8.53,0,0,0-1.878,3.769,22.723,22.723,0,0,0,.131,2.521,7.135,7.135,0,0,1-.9,2.55,6.4,6.4,0,0,0-.291,4.018c.06.254.451.147.391-.108a6.988,6.988,0,0,1,.786-4.825c.559-1.229.257-2.185.245-3.476a7.281,7.281,0,0,1,1.867-4.242,35.876,35.876,0,0,1,3.014-3.517c.182-.188-.1-.475-.287-.287" transform="translate(-157.454 -57.023)" fill="#2d0a0a"/>
          <path id="Caminho_771139" data-name="Caminho 771139" d="M297.519,88.191c-.17-.665.616-1.614,1.039-2.025a7.014,7.014,0,0,1,1.671-1.142c.232-.121.027-.472-.2-.35a6.53,6.53,0,0,0-2.141,1.63,2.7,2.7,0,0,0-.757,1.995.2.2,0,0,0,.391-.108" transform="translate(-176.482 -50.283)" fill="#2d0a0a"/>
          <path id="Caminho_771140" data-name="Caminho 771140" d="M307.4,117.505a.931.931,0,0,0-1.394-.32c-.613.341-.671,1.406-.575,1.977a1.192,1.192,0,0,0,2.141.638,2.706,2.706,0,0,0-.172-2.295" transform="translate(-181.408 -69.503)" fill="#260505"/>
          <path id="Caminho_771141" data-name="Caminho 771141" d="M284.632,117.075a.857.857,0,0,0-1.285-.386c-.59.3-.7,1.328-.64,1.887.1.968,1.265,1.678,1.966.735a2.725,2.725,0,0,0-.041-2.236" transform="translate(-167.926 -69.23)" fill="#260505"/>
          <path id="Caminho_771142" data-name="Caminho 771142" d="M294.612,133.085a33.077,33.077,0,0,1-5.617.108c-.672-.043.311,1.6.492,1.792a3.158,3.158,0,0,0,2.053.955,3.023,3.023,0,0,0,3.335-2.612.226.226,0,0,0-.263-.244" transform="translate(-171.531 -79.055)" fill="#fff"/>
          <path id="Caminho_771143" data-name="Caminho 771143" d="M292.427,121.5a2.632,2.632,0,0,0-.726,2.019,2.205,2.205,0,0,0,1.362,1.3c.234.115.44-.235.2-.351-.529-.26-1.061-.513-1.135-1.159a2.312,2.312,0,0,1,.645-1.6c.157-.209-.195-.411-.35-.205" transform="translate(-173.255 -72.12)" fill="#753127"/>
          <path id="Caminho_771144" data-name="Caminho 771144" d="M296.55,127.022a.582.582,0,0,1,.826-.021c.187.183.475-.1.287-.287a.993.993,0,0,0-1.4.021c-.18.189.107.477.287.287" transform="translate(-175.954 -75.106)" fill="#753127"/>
          <path id="Caminho_771145" data-name="Caminho 771145" d="M282.229,148.227c1.131,1.767,3.977,2.674,5.96,2.709a9.813,9.813,0,0,0,6.762-2.954c.192-.179-.1-.465-.287-.287a9.5,9.5,0,0,1-6.159,2.835c-1.9.042-4.822-.784-5.926-2.507-.141-.219-.492-.016-.35.205" transform="translate(-167.631 -87.7)" fill="#753127"/>
          <path id="Caminho_771146" data-name="Caminho 771146" d="M286.47,158.836c.58,1.928.045,3.5-.682,5.294a29.538,29.538,0,0,1-2.361,4.722,12.234,12.234,0,0,1-1.615,2.178,1.8,1.8,0,0,1-1.423.656c-.5-.106-.653-.679-.822-1.073-.544-1.273-1.136-2.526-1.706-3.788-.416-.922-.527-.984-1.194-.3a27.548,27.548,0,0,1-3.94,3.078c-2.021,1.427-2.738-2.64-2.963-3.963a20.894,20.894,0,0,1-.205-5.213,19.244,19.244,0,0,1,.62-3.618,4.251,4.251,0,0,1,.53-1.219c.525-.8,1.64-2.2,2.65-2.332.255-.033.259-.44,0-.406-1.393.182-2.78,1.9-3.317,3.114a10.681,10.681,0,0,0-.651,2.552,22.006,22.006,0,0,0-.251,5.347,12.114,12.114,0,0,0,1.486,5.686c.979,1.471,1.891.713,3.064-.14.743-.541,1.478-1.1,2.193-1.675a12.452,12.452,0,0,0,.976-.824c.5-.5.417-.4.712.249q.543,1.2,1.088,2.405a9.516,9.516,0,0,0,.988,2.179c.92,1.092,2.411-.334,2.978-1.055a25.212,25.212,0,0,0,3.331-5.91c.854-2.035,1.565-3.86.905-6.053a.2.2,0,0,0-.391.108" transform="translate(-159.838 -90.798)" fill="#2d0a0a"/>
          <path id="Caminho_771147" data-name="Caminho 771147" d="M394.958,344.055a1.3,1.3,0,0,0,.136-.4,1.619,1.619,0,0,0-.843-1.617c-.638-.456-1.289-.9-1.937-1.339a14.629,14.629,0,0,0-5.374-2.647c-3.1-.576-7.06,1.834-9.681-.551-.263-.239-6.367,2.15-7.335,2.617-1,.483-2.219,1.565-1.654,2.329a8.345,8.345,0,0,0,5.056,3.568,18.336,18.336,0,0,0,2.765.509c1.62.2,3.2.66,4.822.836.748.082,2.4.206,2.409-.924.008-.9-1.285-1.231-1.96-1.431-.626-.185-1.276-.3-1.885-.547-.224-.091-.553-.42-.477-.691.121-.432.768-.2,1.06-.164,1.441.2,2.909.244,4.335.529a16.64,16.64,0,0,1,4.108,1.784c.949.5,2.564,1.082,3.137-.2a.425.425,0,0,0,.035-.19,5.063,5.063,0,0,0,1.647.356c.7.009,1.878-.274,1.891-1.129a1.184,1.184,0,0,0-.256-.7" transform="translate(-218.676 -200.474)" fill="#b05641"/>
          <path id="Caminho_771148" data-name="Caminho 771148" d="M405.748,345.61a8.36,8.36,0,0,1,4.424,1.118,20.967,20.967,0,0,1,3.5,2.722c.187.183.475-.1.287-.287a20.566,20.566,0,0,0-3.893-2.975,8.742,8.742,0,0,0-4.32-.984c-.261-.01-.261.4,0,.406" transform="translate(-240.908 -205.059)" fill="#753127"/>
          <path id="Caminho_771149" data-name="Caminho 771149" d="M418.981,346.241A21.169,21.169,0,0,0,414.46,343a8.67,8.67,0,0,0-5.044-.941c-.26.009-.261.415,0,.406a19.826,19.826,0,0,1,2.432.014,6.321,6.321,0,0,1,2.705,1.046,19.859,19.859,0,0,1,4.14,3,.2.2,0,0,0,.287-.287" transform="translate(-243.087 -203.182)" fill="#753127"/>
          <path id="Caminho_771150" data-name="Caminho 771150" d="M301.088,219.225a.442.442,0,0,0-.185-.036c-1.333-.139-2.016,2.58-2.141,3.542-.172,1.323,8.374,3.159,8.942,2.4a7.744,7.744,0,0,0,1.019-3.268c-.1-.729-5.41-2.077-7.636-2.642" transform="translate(-177.47 -130.201)" fill="#fff"/>
          <path id="Caminho_771151" data-name="Caminho 771151" d="M319.112,121.435a7.107,7.107,0,0,1-.169-1.956c.059-.575.236-1.13.3-1.7a4.979,4.979,0,0,0-.382-2.4c-.3-.738-1.1-1.678-1.871-1.331a.187.187,0,0,0-.218.039c-1.9,1.85-1.368,4.529-1.4,6.913-.039,2.782-1.816,5.379-1.164,8.178a.2.2,0,0,0,.339.09c.942-.948,1.953-.759,3.145-.792a1.01,1.01,0,0,0,1.071-.891,14.869,14.869,0,0,0,.353-6.147" transform="translate(-186.559 -67.702)" fill="#592217"/>
          <path id="Caminho_771152" data-name="Caminho 771152" d="M308.535,107.2a5.106,5.106,0,0,1,1.628,1.161c.423.457.719,1.01,1.152,1.458.182.188.469-.1.287-.287-.474-.491-.794-1.1-1.276-1.587a5.425,5.425,0,0,0-1.586-1.1c-.236-.109-.442.241-.205.351" transform="translate(-183.215 -63.459)" fill="#2d0a0a"/>
          <path id="Caminho_771153" data-name="Caminho 771153" d="M318.669,117.959a2.734,2.734,0,0,0,2.906.9.2.2,0,0,0-.108-.392,2.337,2.337,0,0,1-2.511-.8c-.164-.2-.45.086-.287.287" transform="translate(-189.268 -69.859)" fill="#2d0a0a"/>
          <path id="Caminho_771154" data-name="Caminho 771154" d="M330.332,130.783c1.168,2.627,3.747,5.9,1.632,8.732-.157.21.2.412.35.205,2.217-2.965-.41-6.393-1.632-9.142-.106-.238-.456-.032-.35.205" transform="translate(-196.214 -77.504)" fill="#2d0a0a"/>
          <path id="Caminho_771155" data-name="Caminho 771155" d="M316.894,99.315c-1.233-2.049-1.248-4.583-2.333-6.722-.763-1.5-2.06-3.585-4.053-2.791-.24.1-.135.488.108.392,2.358-.94,3.857,2.821,4.372,4.507.5,1.629.661,3.334,1.555,4.819a.2.2,0,0,0,.35-.205" transform="translate(-184.369 -53.241)" fill="#2d0a0a"/>
          <path id="Caminho_771156" data-name="Caminho 771156" d="M311.148,83.365a7.627,7.627,0,0,0-4.32-1.182.2.2,0,0,0,0,.406,7.232,7.232,0,0,1,4.115,1.126c.222.14.426-.212.2-.35" transform="translate(-182.147 -48.817)" fill="#2d0a0a"/>
          <path id="Caminho_771157" data-name="Caminho 771157" d="M315.928,78.367a2.441,2.441,0,0,1,2.679-2.6c.261.02.259-.386,0-.406a2.842,2.842,0,0,0-3.085,3.009c.013.26.419.261.406,0" transform="translate(-187.425 -44.759)" fill="#2d0a0a"/>
          <path id="Caminho_771158" data-name="Caminho 771158" d="M234.345,344.085a.6.6,0,0,0-.532-.857c-24.249-.25-50.892-.63-75.077-.17a27.535,27.535,0,0,0-2.612,1.225,2.015,2.015,0,0,0-.9,2.692,5.328,5.328,0,0,0,.481.812,1.2,1.2,0,0,0,.835.458c1.433.15,3.2-.093,4.536-.078q5.457.057,10.914.1,10.914.088,21.829.124,18.445.062,36.891-.022a.541.541,0,0,0,.517-.386,10.14,10.14,0,0,0,3.121-3.9" transform="translate(-92.081 -203.656)" fill="#592217"/>
          <path id="Caminho_771159" data-name="Caminho 771159" d="M632.6,280.565c0-.222-.005-.581-.007-.8.1-.651-.618-.819-1-.512l-.067-.077c.1-.488-.355-1.081-1.037-.577-9.1,6.725-20.252,10.243-31.354,8.075-1-.2-1.051.712-.607,1.063a26.312,26.312,0,0,0-.481,8.029.912.912,0,0,0,.811.843c2.167.237,9.179.516,22.895-3.124,3.005-.8,6.338-2.312,8.324-4.828,1.7-2.158,2.165-4.934,2.415-7.623a.593.593,0,0,0,.112-.468" transform="translate(-355.197 -165.379)" fill="#fff"/>
          <path id="Caminho_771160" data-name="Caminho 771160" d="M123.3,130.881c-2.079-1.326-4.946-.409-6.891.717a16.619,16.619,0,0,0-3.357,2.667c-.726.724-1.483,2.068-2.358,2.575a.459.459,0,0,1-.63-.125c-.114-.228.058-.489.219-.687a23.687,23.687,0,0,0,4.589-7.994c.771-2.668,1.011-5.6,2.962-7.747,1.86-2.048,5.8-3.7,6.287-6.683a2.88,2.88,0,0,0-1.729-2.887c-3.179-1.672-7.581,2.487-9.491,4.677a19.125,19.125,0,0,0-3.755,6.576c-.825,2.512-.9,5.144-2.239,7.492-2.121,3.707-6.235,5.729-9.055,8.815-2.239,2.449-3.779,5.639-3.285,8.926,1.276-.024,1.44,2.972,2.157,2.933a17.333,17.333,0,0,1,6.636.925.479.479,0,0,0,.363.29,5.027,5.027,0,0,0,.658.094c.13.053.261.1.391.158a.578.578,0,0,0,.665-.19c2.151-.322,3.664-2.2,4.869-3.857,1.855-2.554,3.741-4.994,6.556-6.549,2.453-1.355,5.265-2.4,6.948-4.776,1.244-1.756,1.509-4.063-.511-5.351" transform="translate(-56.119 -65.54)" fill="#ffbe5c"/>
          <path id="Caminho_771161" data-name="Caminho 771161" d="M55.158,169.78a5.027,5.027,0,0,0-1.806-2.045c-1.262-.611-1.649.269-2.688.266-2.487-.006-2.275-4.759-2.778-6.377a2.954,2.954,0,0,0-.6-1.152,1.548,1.548,0,0,0-2.232.062,3.224,3.224,0,0,0-.484,1.2c-.615,2.449-1.427,5.133-1.022,7.678a15.944,15.944,0,0,0,1.2,3.816c.3.7,1.751,2.612,1.663,3.309a.541.541,0,0,0,.318.584l.014.026a.558.558,0,0,0,.831.193l5,1.222q-.032-.244-.062-.488c.538.172,1.09.319,1.65.446,2.339.534,3.318-.108,3.13-2.461a18.639,18.639,0,0,0-2.132-6.286" transform="translate(-25.803 -95.061)" fill="#7e90e0"/>
          <path id="Caminho_771162" data-name="Caminho 771162" d="M208.862,159.158a3.556,3.556,0,0,0-2.9-.428,7.243,7.243,0,0,0-1.219.507c-1.806.884-3.6,1.815-5.45,2.593a88.929,88.929,0,0,1-9.224,2.8c-5.085,1.525-8.111,6.119-9.9,10.852a.59.59,0,0,0,.062.559.478.478,0,0,0,.484.383c1.261.052,2.918.423,4.152.03.059-.019.114-.047.171-.07a9.819,9.819,0,0,1,5.709,2.6c1.7,1.679,2.962,4.048,4.826,5.529,1.033.821,1.888.51,2.947-.105a15.26,15.26,0,0,0,4.771-4.025c1.663-2.323,2.111-5.884-.366-7.85a4.72,4.72,0,0,0-2.015-.881c-.784-.173-2.216.043-2.815-.475-1.194-1.034-.7-2.55.435-3.438,2.336-1.825,5.683-1.268,8.189-2.75,1.718-1.016,4.685-4.091,2.143-5.829" transform="translate(-106.998 -94.209)" fill="#7e90e0"/>
          <path id="Caminho_771163" data-name="Caminho 771163" d="M101.075,147.816c.139-1.853-.571-3.742-2.135-3.193-.986.347-1.712,1.87-2,2.813-.348,1.132-.248,2.69.942,3.258,1.983.944,3.05-.948,3.2-2.878" transform="translate(-57.479 -85.852)" fill="#7e90e0"/>
          <path id="Caminho_771164" data-name="Caminho 771164" d="M200.584,111.517a1.829,1.829,0,0,0-.876-.789,2.84,2.84,0,0,0-2.4.134c-1.827.9-4.467,3.987-2.491,5.907,1.924,1.869,4.525-.821,5.473-2.422a3.019,3.019,0,0,0,.289-2.83" transform="translate(-115.312 -65.652)" fill="#ffbe5c"/>
          <path id="Caminho_771165" data-name="Caminho 771165" d="M252.545,180.731a1.745,1.745,0,0,0-1.1-.158,2.27,2.27,0,0,0-1.682,1.105.608.608,0,0,0,.116.626,1.329,1.329,0,0,0,.689.374,2.542,2.542,0,0,0,2.315-.593c.45-.466.222-1.058-.335-1.354" transform="translate(-148.337 -107.248)" fill="#ffbe5c"/>
          <path id="Caminho_771166" data-name="Caminho 771166" d="M334.679,201.822a3.406,3.406,0,0,0-2.066-.166,6.114,6.114,0,0,0-2.095,1.131,2.076,2.076,0,0,0-.931,1.264,1.54,1.54,0,0,0,.153.82c.788,1.742,2.962,1.707,4.443.971a3.244,3.244,0,0,0,1.743-1.824,1.789,1.789,0,0,0-1.248-2.2" transform="translate(-195.777 -119.734)" fill="#7e90e0"/>
          <path id="Caminho_771167" data-name="Caminho 771167" d="M111.93,59.224c-1.513-.674-2.26,1.455-1.993,2.356.711,2.4,4.132-1.4,1.993-2.356" transform="translate(-65.273 -35.104)" fill="#ffbe5c"/>
          <path id="Caminho_771168" data-name="Caminho 771168" d="M77.005,119.959a30.708,30.708,0,0,1-3.235-16.593,9.352,9.352,0,0,1,1.021-4.227,2.792,2.792,0,0,1,2.192-1.349,2.382,2.382,0,0,1,2.035,1.545,11.676,11.676,0,0,1,.391,8.713l.3-.121c-4-2.074-3.035-8.315-2.658-11.949a64.791,64.791,0,0,1,3.635-15.585c.09-.246-.3-.352-.391-.108a65.277,65.277,0,0,0-3.759,16.838c-.31,3.59-.9,9.152,2.968,11.155a.206.206,0,0,0,.3-.121c.962-2.915,1.069-6.9-.736-9.554-1.568-2.306-4.287-.879-5.084,1.288a16.518,16.518,0,0,0-.711,4.908,30.807,30.807,0,0,0,.252,5.374,31.208,31.208,0,0,0,3.132,9.991c.119.233.469.028.351-.205" transform="translate(-43.509 -47.61)" fill="#2d0a0a"/>
          <path id="Caminho_771169" data-name="Caminho 771169" d="M221.579,108.978a39.55,39.55,0,0,0-5.316,7.548c-.124.23.226.435.351.2a39.079,39.079,0,0,1,5.252-7.465c.174-.194-.112-.482-.287-.287" transform="translate(-128.45 -64.697)" fill="#2d0a0a"/>
          <path id="Caminho_771170" data-name="Caminho 771170" d="M130.4,242.576c-2.3-11.123-7.418-37.142-10-47.366-.576-2.278-4.694-1.991-6.368-1.969-3.588.049-7.176.062-10.764.092-8.981.077-68.025-.813-70.566-.757a1.985,1.985,0,0,0-1.2.435c-.89.714-2.168,1.384-2.435,2.681-.369,1.792,6.989,39.221,9.63,48.788a2.018,2.018,0,0,0,1.825,1.5c8.519.428,18.674.9,27.2,1.068,12.5.25,51.539.893,59.057.227,1.465-.129,2.314-1.956,3.208-2.972a2,2,0,0,0,.416-1.73" transform="translate(-17.255 -114.394)" fill="#cac9cf"/>
          <path id="Caminho_771171" data-name="Caminho 771171" d="M124.587,366.567A125.632,125.632,0,0,0,95.766,366c-.612.061-5.065,4.108-4.649,4.819.048.082-.175,1.41.68,1.439,10.419.365,31.027.283,31.438-.144.935-.973,1.5-2.954,2.165-4.128a1.08,1.08,0,0,0-.813-1.421" transform="translate(-54.109 -217.07)" fill="#cac9cf"/>
          <path id="Caminho_771172" data-name="Caminho 771172" d="M119.767,197.927q-31.968.052-63.934-.293-9.1-.1-18.208-.23a.2.2,0,0,0,0,.406q31.965.46,63.933.521,9.1.018,18.209,0a.2.2,0,0,0,0-.406" transform="translate(-22.234 -117.263)" fill="#2d0a0a"/>
          <path id="Caminho_771173" data-name="Caminho 771173" d="M132.64,278.489c-.18-1.056-.813-1.816-2.4-1.935-1.244-.093-7.619-.548-7.844,1.267q-1.2,9.651-2.243,19.326c-.358,3.315-1.425,15.375-1.811,19.758a1.449,1.449,0,0,0,1.323,1.641,62.673,62.673,0,0,0,8.373-.251c1.916-.244,4.838-38.45,4.606-39.806" transform="translate(-70.292 -164.209)" fill="#cac9cf"/>
          <path id="Caminho_771174" data-name="Caminho 771174" d="M134.708,296.543c.363-3.294.678-6.591.9-9.9.111-1.651.2-3.3.284-4.955.067-1.35.547-3.131-.417-4.243-.924-1.065-2.466-.686-3.721-.659-.877.02-1.753.033-2.63.05a17.174,17.174,0,0,0-2.616.069c-1.1.2-1.1,1.1-1.194,2.033q-.272,2.7-.542,5.4c-.406,4.027-.834,8.05-1.311,12.069-.031.259.375.257.406,0,.464-3.9.881-7.808,1.276-11.717q.29-2.875.577-5.75c.061-.6,0-1.4.729-1.613a6.761,6.761,0,0,1,1.554-.059c.938-.022,1.876-.037,2.815-.055.919-.017,1.859-.1,2.777-.069,1.04.04,1.855.412,2.031,1.567a8.434,8.434,0,0,1-.069,1.531c-.084,1.817-.177,3.634-.291,5.449-.228,3.625-.566,7.241-.963,10.852-.028.259.378.257.406,0" transform="translate(-73.338 -164.367)" fill="#2d0a0a"/>
          <path id="Caminho_771175" data-name="Caminho 771175" d="M144.937,282.144l-3.573,36c-.026.26.38.258.406,0l3.573-36c.026-.26-.38-.258-.406,0" transform="translate(-83.972 -167.485)" fill="#2d0a0a"/>
          <path id="Caminho_771176" data-name="Caminho 771176" d="M127.34,369.8a8.074,8.074,0,0,1-1.762,2.907c-.745.563-2.181.4-3.074.406q-4.3.01-8.61.01l-17.418.019a.2.2,0,0,0,0,.406l19.02-.021c2.857,0,5.787.182,8.636-.06a2.738,2.738,0,0,0,1.893-.629A10.626,10.626,0,0,0,127.69,370c.114-.234-.236-.44-.35-.205" transform="translate(-57.192 -219.606)" fill="#2d0a0a"/>
          <path id="Caminho_771177" data-name="Caminho 771177" d="M129.448,366.557a4.56,4.56,0,0,1-.278,1.777,1.875,1.875,0,0,1-1.845.8c-1.238,0-2.475.028-3.713.041-1.121.011-2.241-.006-3.361.026-.82.023-1.551-.056-1.574-1.021a14.459,14.459,0,0,1,.219-1.9c.03-.259-.376-.257-.406,0-.1.855-.754,2.69.3,3.18a4.716,4.716,0,0,0,2.038.12c.987-.024,1.977.008,2.965,0,.946-.011,1.893-.059,2.839-.05a4.8,4.8,0,0,0,2.03-.153c1.113-.535,1.1-1.772,1.192-2.823.023-.26-.384-.259-.406,0" transform="translate(-70.213 -217.468)" fill="#2d0a0a"/>
          <path id="Caminho_771178" data-name="Caminho 771178" d="M245.475,214.867q3.8,20.662,8.508,41.143c.058.255.45.147.391-.108q-4.705-20.475-8.508-41.143c-.047-.257-.438-.148-.391.108" transform="translate(-145.816 -127.485)" fill="#2d0a0a"/>
          <path id="Caminho_771179" data-name="Caminho 771179" d="M433.835,247.083c-.13-.238-.308-.792-.546-.93-.4-.232-1.027.454-1.218.736-.462.68-.6,2.165-.084,2.529.126.089,1.893-.667,2.074-1.451a1.2,1.2,0,0,0-.225-.885" transform="translate(-256.415 -146.193)" fill="#fff"/>
          <path id="Caminho_771180" data-name="Caminho 771180" d="M435.947,253.026c-1.193.166-2.473,2.833-.867,3.216a.2.2,0,0,0,.237-.134c.807-.071,1.056-.951,1.228-1.626.153-.6.356-1.589-.6-1.456" transform="translate(-258 -150.296)" fill="#29889b"/>
          <path id="Caminho_771181" data-name="Caminho 771181" d="M426.8,212.508a.543.543,0,0,0-.1-.8,34.85,34.85,0,0,1-3.786-3.381,1.681,1.681,0,0,1-.461-1.053,21.379,21.379,0,0,1,.193-3.759c.114-1.073.489-2.379-.078-3.386-1.03-1.831-4.043-2.25-5.655-3.5a3.869,3.869,0,0,0-1.358-.893c-.956-.225-1.727.508-2.3,1.161a4.452,4.452,0,0,0-1,1.734c-1.481-.1-3.179.284-3.4,1.943a2.56,2.56,0,0,0,.006.68c-1.027.541-1.976,1.149-1.753,2.49a2.434,2.434,0,0,0,.409.991c-.732,2.343.808,4.322,2.459,6.164,1.38,1.54,10.114,9.033,12.373,8.636a.718.718,0,0,0,.566-.428,11.117,11.117,0,0,0,.991-1.031,17.238,17.238,0,0,0,2.889-5.566" transform="translate(-241.818 -116.246)" fill="#ff9e63"/>
          <path id="Caminho_771182" data-name="Caminho 771182" d="M442.4,229.523a12.847,12.847,0,0,0-3.717-2.32.523.523,0,0,0-.659.443c-.2,1.863-2.077,4.243-3.043,6.378-.8,1.767-1.922,3.392-2.824,3.623a.212.212,0,0,0-.145.313c.758,1.178,3.081,1.6,4.139,2.165a.655.655,0,0,0,.2.067c.358.363,1.064.341,1.046-.824l4.4-7.963c.494-.266.629-.587.59-.861a.645.645,0,0,0,.014-1.023" transform="translate(-256.608 -134.953)" fill="#fff"/>
          <path id="Caminho_771183" data-name="Caminho 771183" d="M479.806,208.138a34.684,34.684,0,0,0-1.761-12.289c-1.105-3.278-2.712-7.426-6.6-7.85a1.9,1.9,0,0,0-1.232-.232c-3.536,1.672-6,5.692-8.36,9.143-2.653,3.873-5.1,8.145-7.75,12.017a1.335,1.335,0,0,1-1.731.423c-3.1-1.657-6.469-2.809-9.67-4.285-1.069,4.6-5.809,12.4-8.014,11.986,0,.6,7.138,5.369,11,7.451a61.132,61.132,0,0,0,6.255,2.932c2.337.936,4.4,2,7.005,1.9,5.335-.21,10.407-4.15,13.484-8.266,2.7-3.61,9.277-7.693,7.376-12.932" transform="translate(-258.212 -111.517)" fill="url(#linear-gradient-12)"/>
          <path id="Caminho_771184" data-name="Caminho 771184" d="M581.934,203.733c-.05-.108-.1-.216-.154-.324-4.334-12.4-12.686-23.861-24.292-30.7-7.284-4.294-19.823-10.356-27.2-7.984-2.711.871-.9.24-2.949,2-2.443,2.107-5.948,5.285-9.166,4.393a.58.58,0,0,0-.4-.05c-3.649.77-7.162,1.991-9.808,4.734-2.519,2.611-4.048,5.98-5.517,9.247-.22.49,4.438,3.352,6.567,4.1a5.449,5.449,0,0,1,2.682,2.032c3.018,4.358,5.919,8.88,9.81,12.284a29.76,29.76,0,0,0,6.958,4.349c2.728,2.434,6.172,8.144,8.482,10.966,1.644,2.01,4.132,3.966,6.9,3.63a18.339,18.339,0,0,1,4.567-.26,72.828,72.828,0,0,0,18.022-.129c4.294-.581,16.413-5.623,17.445-7.618,1.19-2.3-.915-8.451-1.94-10.678" transform="translate(-298.458 -97.533)" fill="url(#linear-gradient-12)"/>
          <path id="Caminho_771185" data-name="Caminho 771185" d="M539.458,145.368a.829.829,0,0,0-.31-.634c-2.109-1.763-5.95-3.822-5.4-6.842.373-2.051,1.938-4.105,2.049-6.2a.8.8,0,0,0-.771-.858c-2.727-2.446-6.744-1.147-8.9,1.634-1.566,2.023-2.4,4.634-3.4,6.961l-3.762,8.805a.736.736,0,0,0-.034.533c-.348.575.012,1.315.8,1.061a9.677,9.677,0,0,1,3.673-.654c.929.136,1.686,1.608,2.339,2.239,1.31,1.266,2.6,2.548,3.907,3.822a.835.835,0,0,0,.5.242.816.816,0,0,0,.355.093c3.4.149,6.217-.787,7.711-4.059a17.2,17.2,0,0,0,1.362-5.625.771.771,0,0,0-.128-.518" transform="translate(-308.182 -76.951)" fill="#ff9e63"/>
          <path id="Caminho_771186" data-name="Caminho 771186" d="M519.105,118.14a9.2,9.2,0,0,0-7.68-4.812,12.933,12.933,0,0,0-12.126,7.48c-1.864,3.867-.644,8.335-.176,12.621.355,3.247.326,6.741,4.486,7.062a16.7,16.7,0,0,0,9.738-2.66c.7-.438,1.1-2.122,1.376-2.845a40.6,40.6,0,0,0,1.393-4.365,4.857,4.857,0,0,1,.293-.9c.9-1.876,2.522-3.23,3.226-5.285a7.761,7.761,0,0,0-.53-6.3" transform="translate(-296.001 -67.314)" fill="#ff9e63"/>
          <path id="Caminho_771187" data-name="Caminho 771187" d="M520.031,136.824c-.087-.609-.866-.994-1.3-1.223a4.331,4.331,0,0,0-2.919-.384,2.146,2.146,0,0,0-1.239.753,1.922,1.922,0,0,0-.293,1.8.9.9,0,0,0,.809.38,5.958,5.958,0,0,0,1.273-.229,26.978,26.978,0,0,1,2.912-.175.812.812,0,0,0,.753-.924" transform="translate(-305.423 -80.261)" fill="#873c25"/>
          <path id="Caminho_771188" data-name="Caminho 771188" d="M501.147,138.5a1.234,1.234,0,0,0,.047-.141,1.342,1.342,0,0,0-.225-1.133,1.673,1.673,0,0,0-2.95.556c-.188.615-.4,1.492.535,1.483a2.217,2.217,0,0,0,.571-.125,1.356,1.356,0,0,1,.818.009,1,1,0,0,0,1.2-.649" transform="translate(-295.738 -81.116)" fill="#873c25"/>
          <path id="Caminho_771189" data-name="Caminho 771189" d="M545.192,137.251c.4-1.7-.181-3.455-.556-5.131a.761.761,0,0,0-.923-.611A35.349,35.349,0,0,0,535.421,133a.794.794,0,0,0-.5.436.682.682,0,0,0-.437.692c0,1.433-.261,3.238.24,4.6.473,1.28,1.555,1.512,2.682,1.844,1.841.543,2.088,2.04,3.475,3.108,1.131.871,3.635.587,4.024-.2.672-1.356-.822-1.571.283-6.229" transform="translate(-317.459 -78.109)" fill="#873c25"/>
          <path id="Caminho_771190" data-name="Caminho 771190" d="M526.611,114.3c-1.159-3.248-4.747-2.576-6.885-4.641A9.951,9.951,0,0,0,517,107.286a11.722,11.722,0,0,0-4.533-.9,11.147,11.147,0,0,0-7.138,2.225,7.163,7.163,0,0,0-2.8,1.172,8.615,8.615,0,0,0-.927.77,2.029,2.029,0,0,1-1.2.561,3.283,3.283,0,0,0-2.387,1.32c-1.151,1.566-.844,3.554-.445,5.322.069.305.3.739.685.522a.989.989,0,0,0,.331-.384,17.767,17.767,0,0,1,2.808-3.747,3.812,3.812,0,0,1,5.988,1.475c.6,1.264.556,2.75,1.368,3.926,1.268,1.839,3.5,1.947,5.534,1.794a4.954,4.954,0,0,0,1.954-.085c1.4-.261,2.665.243,4.02.455,4,.626,7.76-3.437,6.353-7.411" transform="translate(-295.354 -63.193)" fill="#873c25"/>
          <path id="Caminho_771191" data-name="Caminho 771191" d="M538.921,144.689c-1.644-.123-3.1,1.921-3.658,3.3a2.961,2.961,0,0,0-.256,1.476c.172,1.277,1.921,1.892,2.958,1.426a3.716,3.716,0,0,0,1.585-2.136,4.8,4.8,0,0,0,.428-3.182,1.208,1.208,0,0,0-1.058-.885" transform="translate(-317.796 -85.946)" fill="#ff9e63"/>
          <path id="Caminho_771192" data-name="Caminho 771192" d="M555.845,122.583c1.747.2,2.485,2.394,2.512,3.891a4.615,4.615,0,0,1-1.759,3.957.2.2,0,0,0,.2.35c2.751-1.646,2.785-8.18-.958-8.6-.259-.029-.257.377,0,.406" transform="translate(-330.07 -72.575)" fill="#2d0a0a"/>
          <path id="Caminho_771193" data-name="Caminho 771193" d="M527.8,125.041a4.211,4.211,0,0,1,2.614-.144,4.143,4.143,0,0,0,1.495.414A2.1,2.1,0,0,0,533.9,122.1c-.473-.824-1.34-.989-2.153-1.32-1.694-.689-1.49-2.782-1.735-4.309a6.028,6.028,0,0,0-1.313-3.085,5.262,5.262,0,0,0-6.129-1.293c-.24.1-.033.453.2.351a4.843,4.843,0,0,1,6.288,2.209,11.429,11.429,0,0,1,.775,3.634,4.533,4.533,0,0,0,.6,2.037,3,3,0,0,0,1.6.986c1.118.393,2.315,1.421,1.575,2.733-.807,1.431-2.289.679-3.418.318a4.9,4.9,0,0,0-2.492.285c-.255.057-.147.449.108.391" transform="translate(-310.354 -66.311)" fill="#2d0a0a"/>
          <path id="Caminho_771194" data-name="Caminho 771194" d="M503.907,120.855a3.02,3.02,0,0,1,3.029-.459.205.205,0,0,0,.257-.2c.069-.932,1.22-2.087,2.1-1.079a6.152,6.152,0,0,1,.84,1.926c.089.244.481.138.392-.108-.379-1.043-.676-2.542-2.055-2.588a1.794,1.794,0,0,0-1.685,1.849l.257-.2a3.407,3.407,0,0,0-3.424.563c-.186.184.1.471.287.287" transform="translate(-299.126 -70.303)" fill="#2d0a0a"/>
          <path id="Caminho_771195" data-name="Caminho 771195" d="M519.291,144.617c-1.459.052-1.1,3.412.1,3.174a1.022,1.022,0,0,0,.64-.494c.478-.781.589-2.728-.742-2.68" transform="translate(-307.905 -85.905)" fill="#260505"/>
          <path id="Caminho_771196" data-name="Caminho 771196" d="M501.919,145.814a.843.843,0,0,0-.846-.567c-.467.027-.614.418-.682.731a1.925,1.925,0,0,0,.652,2.079.7.7,0,0,0,1.029-.5,3.29,3.29,0,0,0-.151-1.744" transform="translate(-297.206 -86.279)" fill="#260505"/>
          <path id="Caminho_771197" data-name="Caminho 771197" d="M506.461,148.329a2.728,2.728,0,0,0-1.089,2.234,2.231,2.231,0,0,0,1.6,1.572c.244.092.35-.3.108-.391-.637-.24-1.337-.7-1.323-1.47a2.654,2.654,0,0,1,.992-1.657c.183-.187-.1-.474-.287-.287" transform="translate(-300.189 -88.075)" fill="#a5422f"/>
          <path id="Caminho_771198" data-name="Caminho 771198" d="M510.1,155.242a1.024,1.024,0,0,1,.966.059.2.2,0,0,0,.205-.351,1.448,1.448,0,0,0-1.376-.059c-.237.11-.031.46.205.35" transform="translate(-302.829 -91.923)" fill="#a5422f"/>
          <path id="Caminho_771199" data-name="Caminho 771199" d="M511.431,160.16c-.38-.365-1.074-.1-1.532-.039a13.378,13.378,0,0,1-3.388.133.281.281,0,0,0-.25.084c-.229.087-.251.273-.171.483.112.293.224.586.345.876.851,2.031,4.559.255,5.058-1.23a.3.3,0,0,0-.061-.307" transform="translate(-300.604 -95.026)" fill="#fff"/>
          <path id="Caminho_771200" data-name="Caminho 771200" d="M631.68,317.371c-3.48.25-6.976,1.5-10.343,2.372a.672.672,0,0,0-.239,1.172c-.2,1.215-.763,4.126-1.723,5.55a1.829,1.829,0,0,1-1.108.746,15.332,15.332,0,0,1-2.959.367,12.133,12.133,0,0,0-3.714.3c-1.235.456-5.025,5.738-3.184,6.526.838.359,1.658-.313,2.109-.96.952-1.362.918-2.3,2.956-2.709a9.783,9.783,0,0,1,1.547-.168.3.3,0,0,1,.278.432c-.048.094-.094.189-.141.284-.484,1-.9,2.028-1.3,3.063a2.374,2.374,0,0,0-.283,1.817.622.622,0,0,0,.494.364A3.306,3.306,0,0,0,617,334.743c.4-.613.552-1.372,1.008-1.947a1.669,1.669,0,0,1,.936-.665c.237-.019.871.261.736.607a16.122,16.122,0,0,0-.767,2.142,3.156,3.156,0,0,0-.112,1.1c.041.315.361.587.4.824.992.816,2.451-.869,2.895-1.574a14,14,0,0,0,.773-1.868c.117-.265.916-1.736,1.151-.948-.425,1.052-1.354,3.161-.193,3.685,1.039.47,1.864-1.3,2.279-2.017a11.8,11.8,0,0,0,.907-2.17,1.951,1.951,0,0,1,.939-1.115c2.127-1.1,2.664-3.074,3.083-5.215a62.2,62.2,0,0,0,1.117-7.077.648.648,0,0,0-.466-1.137" transform="translate(-361.116 -188.525)" fill="#ff9e63"/>
          <path id="Caminho_771201" data-name="Caminho 771201" d="M652.278,294.255a67.025,67.025,0,0,1-13.587,5.1.617.617,0,0,0-.455.62.579.579,0,0,0-.1.333q-.046,4.117-.093,8.235a.636.636,0,0,0,.589.651c2.15.219,11.027.61,13.077.034,2.329-.654,1.628-11.032,1.482-14.391a.629.629,0,0,0-.911-.58" transform="translate(-379.012 -174.748)" fill="#fff"/>
          <path id="Caminho_771202" data-name="Caminho 771202" d="M541.635,147.625a3.59,3.59,0,0,0-1.977,2.516c-.053.255.338.364.392.108a3.208,3.208,0,0,1,1.79-2.273c.236-.112.03-.462-.205-.35" transform="translate(-320.567 -87.68)" fill="#a5422f"/>
          <path id="Caminho_771203" data-name="Caminho 771203" d="M601.185,204.038c.944.883,2.191,13.092,2.279,22.571a.8.8,0,0,0,.5.845c5.695,1.74,10.765.232,16.592-.278a.746.746,0,0,0,.494-.168.651.651,0,0,0,.149-.455c-.182-22.723-2.817-31.2-4.811-34.309-12.673-19.772-20.125-25.7-35.647-27.317-.358-.038,2.014,15.4,6.767,19.843,2.7,2.524,12.021,17.716,13.681,19.269" transform="translate(-344.951 -97.97)" fill="url(#linear-gradient-12)"/>
          <path id="Caminho_771204" data-name="Caminho 771204" d="M533.911,161.669a5.854,5.854,0,0,1-3.739,5.648c-.242.092-.137.485.108.391a6.265,6.265,0,0,0,4.037-6.039c-.008-.261-.414-.262-.406,0" transform="translate(-314.854 -95.919)" fill="#a5422f"/>
          <path id="Caminho_771205" data-name="Caminho 771205" d="M627.557,345.4a2.864,2.864,0,0,1,1.821-1.577,9.49,9.49,0,0,1,1.8-.263c.261-.008.262-.414,0-.406a7.682,7.682,0,0,0-2.326.391,3.455,3.455,0,0,0-1.643,1.65.2.2,0,0,0,.35.2" transform="translate(-372.558 -203.839)" fill="#a5422f"/>
          <path id="Caminho_771206" data-name="Caminho 771206" d="M639.043,347c-1.062.282-2.209.811-2.431,2.006-.047.255.344.365.392.108.2-1.053,1.218-1.475,2.148-1.722a.2.2,0,0,0-.108-.391" transform="translate(-378.16 -206.12)" fill="#a5422f"/>
          <path id="Caminho_771207" data-name="Caminho 771207" d="M648.477,348.284a2.952,2.952,0,0,0-1.465,1.131c-.148.216.2.419.35.205a2.491,2.491,0,0,1,1.222-.944c.244-.087.139-.48-.108-.391" transform="translate(-384.319 -206.881)" fill="#a5422f"/>
          <path id="Caminho_771208" data-name="Caminho 771208" d="M431.366,203.206l-3.211.017a2.821,2.821,0,0,0-1.857.337c-.948.818-.019,2.2.71,2.784a6.189,6.189,0,0,0,1.8.95c.118.043.419.082.507.172l.294,1.21-.209.222c-.2.292-.509.518-.715.818a4.558,4.558,0,0,0-.44,4.253c.095.24.487.135.391-.108a4.267,4.267,0,0,1,1.051-4.676c.508-.555.976-1.275.229-1.867a4.952,4.952,0,0,0-1.279-.521,3.627,3.627,0,0,1-2.232-1.886c-.5-1.525,1.5-1.28,2.324-1.285l2.644-.014a.2.2,0,0,0,0-.406" transform="translate(-252.992 -120.709)" fill="#a5422f"/>
          <path id="Caminho_771209" data-name="Caminho 771209" d="M420.222,204.578c.348.8.721,1.586,1.136,2.354a4.262,4.262,0,0,0,1.175,1.677c.985.626,1.936-.243,2.512-.991.159-.207-.193-.409-.351-.205-.3.391-.883,1.1-1.456,1a2.214,2.214,0,0,1-1.05-.831,5.416,5.416,0,0,1-.4-.712c-.445-.813-.844-1.647-1.214-2.5-.1-.239-.453-.032-.35.205" transform="translate(-249.611 -121.339)" fill="#a5422f"/>
          <path id="Caminho_771210" data-name="Caminho 771210" d="M412.623,211.852a12.961,12.961,0,0,0,1.377,2.28c.417.547.982,1.443,1.682,1.654,1.694.509,2.517-1.382,3.073-2.528.114-.234-.236-.44-.35-.205a7.142,7.142,0,0,1-.811,1.608,1.7,1.7,0,0,1-2.683-.059,12.457,12.457,0,0,1-1.938-2.954c-.112-.235-.463-.03-.35.205" transform="translate(-245.095 -125.661)" fill="#a5422f"/>
          <path id="Caminho_771211" data-name="Caminho 771211" d="M409.237,219.832c.738,1.153,1.574,2.83,3.118,2.991,1.357.142,1.975-1.07,2.374-2.163.09-.246-.3-.352-.392-.108-.43,1.178-1.258,2.409-2.683,1.619a6.985,6.985,0,0,1-2.067-2.545c-.14-.219-.492-.016-.35.205" transform="translate(-243.077 -130.408)" fill="#a5422f"/>
          <path id="Caminho_771212" data-name="Caminho 771212" d="M415.37,227.635a.928.928,0,0,1-.726.862c-.255.059-.147.451.108.392a1.339,1.339,0,0,0,1.024-1.254c.01-.261-.4-.261-.406,0" transform="translate(-246.222 -135.105)" fill="#a5422f"/>
          <path id="Caminho_771213" data-name="Caminho 771213" d="M516.06,235.52c2.406.153,4.188,1.778,5.818,3.392a30.923,30.923,0,0,0,4.649,3.879c.218.145.422-.207.2-.35a46.807,46.807,0,0,1-5.611-4.821,8.363,8.363,0,0,0-5.062-2.506c-.261-.017-.26.389,0,.406" transform="translate(-306.436 -139.663)" fill="#2d0a0a"/>
          <path id="Caminho_771214" data-name="Caminho 771214" d="M479.062,244.1a28.49,28.49,0,0,1,6.924,4.629c.193.175.481-.111.287-.287a28.877,28.877,0,0,0-7.006-4.692c-.235-.112-.441.238-.205.35" transform="translate(-284.512 -144.781)" fill="#2d0a0a"/>
          <path id="Caminho_771215" data-name="Caminho 771215" d="M568.377,175.893c-.217,3.985-.516,8.234-3.271,11.379-.171.2.115.484.287.287,2.83-3.231,3.166-7.565,3.389-11.667.014-.261-.392-.26-.406,0" transform="translate(-335.656 -104.368)" fill="#2d0a0a"/>
          <path id="Caminho_771216" data-name="Caminho 771216" d="M572.354,274.215a95.4,95.4,0,0,0,9.482,5.245c.234.112.44-.237.205-.351a95.3,95.3,0,0,1-9.482-5.245c-.222-.14-.426.212-.205.351" transform="translate(-339.935 -162.663)" fill="#2d0a0a"/>
          <path id="Caminho_771217" data-name="Caminho 771217" d="M550.212,164.1c-.694-.582-2.215-1.845-3.006-1.9-.757-.056-1.1,1.816-1.593,2.7-2,3.54-5.211,6.272-9.479,5.754-.405-.049-.883-.31-1.017.205-.251.966,1.12,2.228,1.657,2.922a5.572,5.572,0,0,0,2.523,2.17c1.555.457,7.583-.786,9.591-5.689,1.248-3.046,1.554-5.961,1.323-6.154" transform="translate(-317.854 -96.349)" fill="#fff"/>
          <path id="Caminho_771218" data-name="Caminho 771218" d="M592.948,205.874c2.458,6.37,6.822,11.659,11.1,16.883a43.922,43.922,0,0,1,3.353,4.316,13.184,13.184,0,0,1,1.76,5.576c.437,3.707.628,7.412,1.241,11.1.043.257.434.148.391-.108-.63-3.791-.776-7.6-1.277-11.4a13.538,13.538,0,0,0-1.419-4.785,26.734,26.734,0,0,0-2.878-3.9c-4.508-5.533-9.279-11.043-11.882-17.787-.093-.241-.485-.136-.391.108" transform="translate(-352.217 -122.149)" fill="#2d0a0a"/>
          <path id="Caminho_771219" data-name="Caminho 771219" d="M646.666,199.911a73.458,73.458,0,0,1,9.173,15.006,29.384,29.384,0,0,1,2.828,9.031c.329,3.053.427,6.142.622,9.205.017.259.423.261.406,0-.206-3.246-.281-6.534-.687-9.762a29.4,29.4,0,0,0-2.669-8.351,73.843,73.843,0,0,0-9.386-15.417c-.161-.205-.447.084-.287.287" transform="translate(-384.107 -118.54)" fill="#2d0a0a"/>
          <path id="Caminho_771220" data-name="Caminho 771220" d="M631.856,246.585a23.549,23.549,0,0,1,1.024,5.248c.021.259.427.261.406,0a24.028,24.028,0,0,0-1.038-5.356c-.078-.248-.47-.142-.391.108" transform="translate(-375.331 -146.329)" fill="#2d0a0a"/>
          <path id="Caminho_771221" data-name="Caminho 771221" d="M248.792,53.688q3.2,6.422,6.889,12.586Z" transform="translate(-147.788 -31.892)" fill="#2d0a0a"/>
          <path id="Caminho_771222" data-name="Caminho 771222" d="M248.327,53.49q3.207,6.42,6.889,12.586a.2.2,0,0,0,.351-.205q-3.679-6.162-6.889-12.586c-.117-.234-.466-.028-.35.205" transform="translate(-147.498 -31.591)" fill="#2d0a0a"/>
          <path id="Caminho_771223" data-name="Caminho 771223" d="M244.854,75.92a30.929,30.929,0,0,0,6.1,5.8Z" transform="translate(-145.449 -45.098)" fill="#2d0a0a"/>
          <path id="Caminho_771224" data-name="Caminho 771224" d="M244.43,75.752a32.339,32.339,0,0,0,6.145,5.827c.212.154.415-.2.205-.35a31.954,31.954,0,0,1-6.063-5.764c-.164-.2-.45.086-.287.287" transform="translate(-145.168 -44.787)" fill="#2d0a0a"/>
          <path id="Caminho_771225" data-name="Caminho 771225" d="M490.6,355.3c-.927-3.726-7.545-3.832-11.191-2.215-3.925,1.74-8.548,5.914-8.615,8-.065,2.025,4.341,1.79,5.543,1.775a28.809,28.809,0,0,0,9.45-1.639,11.725,11.725,0,0,0,4.322-2.67,3.443,3.443,0,0,0,.491-3.253" transform="translate(-279.662 -209.153)" fill="#fff"/>
          <path id="Caminho_771226" data-name="Caminho 771226" d="M484.3,361.574a14.36,14.36,0,0,0-4.966,5.521c-.115.233.235.44.35.2a14,14,0,0,1,4.821-5.375c.22-.139.017-.491-.205-.35" transform="translate(-284.725 -214.764)" fill="#2d0a0a"/>
        </g>
      </g>
    </g>
  </g>
</svg>
