<svg xmlns="http://www.w3.org/2000/svg" xmlns:xlink="http://www.w3.org/1999/xlink" width="464.005" height="291.447" viewBox="0 0 464.005 291.447">
  <defs>
    <linearGradient id="linear-gradient" x1="0.209" x2="0.584" y2="1.161" gradientUnits="objectBoundingBox">
      <stop offset="0" stop-color="#fff"/>
      <stop offset="0.243" stop-color="#95ebff"/>
      <stop offset="0.644" stop-color="#0024a8"/>
      <stop offset="1" stop-color="#3db8f9"/>
    </linearGradient>
    <linearGradient id="linear-gradient-2" x1="0.973" y1="1" x2="0" y2="1" gradientUnits="objectBoundingBox">
      <stop offset="0" stop-color="#fff" stop-opacity="0"/>
      <stop offset="0.159" stop-color="#fff" stop-opacity="0.408"/>
      <stop offset="0.414" stop-color="#95ebff"/>
      <stop offset="0.598" stop-color="#3db8f9"/>
      <stop offset="0.82" stop-color="#1b74d8"/>
      <stop offset="1" stop-color="#0024a8"/>
    </linearGradient>
    <linearGradient id="linear-gradient-3" x1="0.027" y1="0" x2="1" y2="0" xlink:href="#linear-gradient-2"/>
    <clipPath id="clip-path">
      <rect id="Retângulo_124885" data-name="Retângulo 124885" width="364.334" height="237.374" fill="#40bbff"/>
    </clipPath>
    <linearGradient id="linear-gradient-4" x1="0.5" x2="0.5" y2="1" gradientUnits="objectBoundingBox">
      <stop offset="0" stop-color="#c95ee9"/>
      <stop offset="1" stop-color="#9d7df6"/>
    </linearGradient>
  </defs>
  <g id="_Carrossel-imagem-fixa_1_" data-name="&lt;Carrossel-imagem-fixa_1&gt;" transform="translate(-474.997 -1796.553)">
    <path id="Caminho_734267" data-name="Caminho 734267" d="M-106.379,0H214.892l-56.82,256.372-321.382-.089Z" transform="translate(690.31 1831.628)" fill="url(#linear-gradient)"/>
    <path id="GettyImages-1412762526" d="M-105.227.151,235.692,0,177.924,260.087l-341.233-.2Z" transform="translate(703.31 1817.849)" fill="#fff"/>
    <g id="Grupo_232278" data-name="Grupo 232278" transform="translate(-9449.485 1960.552)">
      <path id="Caminho_734262" data-name="Caminho 734262" d="M4.668-.459H138.562L133.487,20.9H0Z" transform="translate(10249.926 -163.541)" fill="url(#linear-gradient-2)"/>
      <path id="Caminho_734263" data-name="Caminho 734263" d="M133.894,20.9H0L5.075-.459H138.562Z" transform="translate(10249.926 -142.311)" fill="url(#linear-gradient-3)"/>
    </g>
    <g id="Grupo_234122" data-name="Grupo 234122" transform="translate(475.997 1667.8)">
      <g id="Grupo_233472" data-name="Grupo 233472" transform="translate(63.522 171.346)" opacity="0.25">
        <g id="Grupo_233471" data-name="Grupo 233471" clip-path="url(#clip-path)">
          <path id="Caminho_770281" data-name="Caminho 770281" d="M363.767,39.088c-.132-1.318.122-2.645.108-3.963-.016-1.558-.128-3.119-.158-4.678h0a.455.455,0,0,0,.21-.446q.008-4.881.017-9.761,0-.638.008-1.277h0c.061-3.736.079-7.473,0-11.209a3.349,3.349,0,0,0,.121-.359,4.344,4.344,0,0,0,.019-2.867c0-.089,0-.179,0-.268-.062-.986-.129-1.52-.4-1.808v0c-.029-.629-.271-.843-1.178-1.008a6.56,6.56,0,0,0-2.867-.012c-.089,0-.178,0-.268,0-1.524.063-1.967.135-2.092.68L350.169,2.1c-.426-.392-.937-.229-1.411-.234-6.182-.064-12.362-.029-18.542.244-1.828.081-3.663.01-5.495.008-2.7-.338-5.414-.328-8.119-.466-1.1-.057-2.209-.084-3.314-.1a6.742,6.742,0,0,0-1.69-.77,4.743,4.743,0,0,0-4.337.79c-.781.007-1.562.012-2.343.011l-6.362.014c-1.778.013-3.557.114-5.331.167-1.963.059-3.924.2-5.887.282A5.963,5.963,0,0,0,284.9.659a4.633,4.633,0,0,0-4.527,1.051c-.078.065-.146.135-.215.205a2.883,2.883,0,0,0-.5-.036c-2.7.086-5.378-.412-8.076-.284-.317.015-.651-.053-.91.235h0c-2.311-.092-4.621.046-6.938-.194-1.976-.206-3.982-.065-5.975-.078-.343-.35-.77-.229-1.166-.232-1.241-.009-2.481-.008-3.722-.01A6.445,6.445,0,0,0,250.849.308,4.8,4.8,0,0,0,246.157,1.4c-.016.014-.029.028-.045.042-2.4.208-4.79.406-7.2.405-2.281,0-4.562-.01-6.844-.015-.291-.35-.677-.246-1.032-.246H228.2a6.688,6.688,0,0,0-1.737-.8,4.747,4.747,0,0,0-4.356.8l-7.411,0-.726-.006-1.932-.033h0c-.385-.375-.853-.212-1.288-.229-2.369-.094-4.735-.012-7.1.084A6.491,6.491,0,0,0,201.535.333a4.856,4.856,0,0,0-4.745,1.1c-.051.043-.094.09-.141.135-.134,0-.268,0-.4,0-.854-.018-1.71.006-2.565.01-3.4.1-6.8-.165-10.2.215-1.639.183-3.3.07-4.954.168a6.493,6.493,0,0,0-2.11-1.066A4.856,4.856,0,0,0,171.671,2a3.313,3.313,0,0,0-.387.39,2.544,2.544,0,0,1-.763-.03,32.463,32.463,0,0,0-6.176-.221c-3.664.107-7.316-.356-10.98-.307a.827.827,0,0,0-.593-.256A6.367,6.367,0,0,0,150.458.344a4.84,4.84,0,0,0-4.728,1.1,3.439,3.439,0,0,0-.36.353c-3.819.156-7.648.032-11.472.029a2.04,2.04,0,0,1-.487-.03c-1.757-.437-3.557-.2-5.335-.428a21.143,21.143,0,0,0-3.312-.088,6.494,6.494,0,0,0-2.1-1.056,4.856,4.856,0,0,0-4.745,1.1,3.392,3.392,0,0,0-.253.236h-2.682c-.385-.376-.855-.236-1.287-.226-3.452.083-6.9.027-10.359.152q-1.106.04-2.212.086A6.71,6.71,0,0,0,99.41.782a4.825,4.825,0,0,0-4.643,1.024c-2.017.054-4.035.078-6.054.031-2.888-.067-5.78,0-8.669.022-.433,0-.9-.143-1.284.24l-.122,0A6.329,6.329,0,0,0,76.223.782a4.856,4.856,0,0,0-4.745,1.1c-.085.071-.163.145-.238.222L67.548,2.1c-.254-.3-.59-.241-.907-.241q-4.237-.006-8.475,0a1.357,1.357,0,0,0-.733.1,6.5,6.5,0,0,0-2.1-1.059,4.787,4.787,0,0,0-4.516.927c-.778-.02-1.543.345-2.331.278h0c-.334-.375-.763-.242-1.157-.242q-8.355-.017-16.712-.015c-.573.011-1.1-.278-1.681-.272-2.807.03-5.615.037-8.422.008-.577-.006-1.113.4-1.678.192a6.81,6.81,0,0,0-2.177-.189c-3.421-.111-6.847.147-10.266-.087-.079-.018-.161-.036-.254-.053a7.593,7.593,0,0,0-2.214-.131c-.1,0-.2.007-.3.014a3.534,3.534,0,0,0-.685.109C1.027,1.512.867,1.617.864,2.73Q.849,6.616.843,10.5c-.392.278-.229.611-.234.919C.545,15.449.58,19.476.853,23.5c.081,1.191.01,2.387.008,3.58a47.24,47.24,0,0,0-.466,5.29c-.2,2.533-.06,5.075-.066,7.613l.014,4.146c.013,1.159.114,2.317.167,3.473.087,1.871.355,3.74.349,5.613,0,.74,0,1.48,0,2.22a3.76,3.76,0,0,0-.233,1.007C.711,58.2.214,59.95.342,61.708c.015.207-.053.424.235.593h0c-.092,1.506.046,3.011-.194,4.52a26.2,26.2,0,0,0-.078,3.893c-.35.224-.229.5-.232.76C.057,72.855.055,74.236.055,75.616a15.128,15.128,0,0,0,.037,1.99,40.863,40.863,0,0,1,.5,5.386c0,1.487-.01,2.973-.015,4.46-.35.19-.246.441-.246.672q0,5.324.007,10.647l-.006.473Q.314,99.874.3,100.5h0c-.375.251-.212.556-.229.839-.192,3.153.348,6.3.246,9.452-.018.556.006,1.114.01,1.671a53.5,53.5,0,0,0,.215,6.648C.776,120.5.51,121.908.862,123.3h0c0,.871-.006,1.743.016,2.615.014.551.4,1.091.224,1.646a13.859,13.859,0,0,0-.221,4.024c.107,2.388-.356,4.767-.307,7.155-.357.221-.242.5-.241.758,0,1.376.089,2.75.189,4.125.189,2.6.051,5.2.047,7.8a.876.876,0,0,1-.03.317c-.437,1.145-.2,2.318-.428,3.477a17.033,17.033,0,0,0-.04,3.421c0,.233-.092.483.233.68v4.427h0c-.376.25-.236.557-.226.839.083,2.25.027,4.5.152,6.75.177,3.174.465,6.351.352,9.532-.067,1.882,0,3.766.022,5.649,0,.282-.143.589.24.837q.008.392.016.784-.007,3.26-.015,6.521c-.3.166-.241.385-.241.591Q.6,198,.6,200.765c0,.206-.066.427.247.589q.009.477.019.954a10.543,10.543,0,0,1-.253,2.974c-.217.6.309,1.186.229,1.79h0c-.375.218-.242.5-.242.754Q.585,213.27.587,218.715c.011.373-.278.715-.272,1.1.03,1.829.037,3.658.008,5.488-.006.376.4.725.192,1.093a2.961,2.961,0,0,0-.189,1.419c-.131,2.618.256,5.243-.256,7.858a2.118,2.118,0,0,0,0,.636c.092.815.452,1.022,1.816,1.049.448.009.9.029,1.344,0a6.114,6.114,0,0,0,2.206-.164c1.345-.158,1.361-.158,1.36-.881,0-1.51-.024-3.02-.038-4.53a14.472,14.472,0,0,0,.018-5.418q-.006-4.459-.011-8.918a34.215,34.215,0,0,0,.264-5.267c.118-1.373.114-2.749.217-4.124.18-2.407.064-4.823.059-7.235,0-.258.088-.535-.234-.763.01-1.645.029-3.29.029-4.935q0-8.6,0-17.2c-.005-2.6-.046-5.2-.07-7.8q0-8.665,0-17.329a.508.508,0,0,0-.227-.523h0q-.014-.47-.027-.941c.009-.291.029-.582.026-.873-.024-2.38-.122-4.759-.226-7.139-.172-3.943-.078-7.891-.087-11.835-.007-2.939,0-5.878,0-8.817h0q.022-1.906.044-3.812h0c.275-.174.219-.394.231-.6.077-1.268.073-2.536.222-3.806a40.2,40.2,0,0,0,.075-4.37,10.029,10.029,0,0,0,.2-3.4,21.576,21.576,0,0,1-.128-6.024,53.948,53.948,0,0,0,.183-5.708h0q0-5.25,0-10.5a11.651,11.651,0,0,0-.062-1.828,48.666,48.666,0,0,1-.408-4.994,50.324,50.324,0,0,1,.4-7.855c.2-2.009.064-4.029.077-6.045a17.26,17.26,0,0,0,.283-4.442c.27-.173.223-.392.226-.6.009-.707,0-1.414,0-2.122l.022-1.6h0c.013-.344.049-.689.036-1.032-.068-1.745-.119-3.489-.249-5.234-.238-3.2.063-6.4-.257-9.6-.132-1.318.122-2.645.108-3.963-.016-1.558-.128-3.119-.158-4.678h0A.454.454,0,0,0,7.549,30l.017-9.761q0-.638.008-1.277h0c.059-3.644.079-7.289.01-10.933l2.981-.02a33.911,33.911,0,0,0,8.315.018l13.687-.011a80.339,80.339,0,0,0,8.083.264c2.108.118,4.219.114,6.329.217.939.046,1.879.072,2.819.086a6.818,6.818,0,0,0,.79,1.081q.786.883,1.584,1.756a1.378,1.378,0,0,1,.381.966c0,.556-.007,1.112,0,1.669.015.862.044,1.724.06,2.587a.159.159,0,0,1-.024-.041c-.021-.069-.039-.122-.056-.168,0-.007-.006-.016-.008-.023a.425.425,0,0,0-.054-.1l0,0h0c-.064-.08-.16-.08-.4-.076-.046,0-.092.009-.138.014a8.9,8.9,0,0,0-1.763.079h0c-.6.012-1.2,0-1.8.038-1.6.1-3.191.233-4.788.323q-.3.017-.6.039l-.372.035c-.949.073-1.9.163-2.844.252a6.293,6.293,0,0,0-1.373.161,11.356,11.356,0,0,0-1.764.194h0a4.982,4.982,0,0,0-1.053.121q-1.941.286-3.876.614c-.834.142-1.673.26-2.494.473a2.525,2.525,0,0,0-.272.036c-1.469.341-2.942.67-4.4,1.066-1.111.3-2.219.609-3.3,1l-.095.03q-.35.128-.7.269l-.222.088c-.026.01-.051.022-.078.034-.058.024-.115.051-.171.081-.015.007-.031.013-.046.021l-.014.013a1.076,1.076,0,0,0-.268.207.276.276,0,0,1-.083.114c-.1.067-.1.173-.1.276a.335.335,0,0,0-.089.274c-.141.148-.114.351-.133.521a4.7,4.7,0,0,0,.02,1.625c0,.007-.005.006-.007.018a.092.092,0,0,0,.025.078,1.363,1.363,0,0,0,.176.738.4.4,0,0,0,.084.273v0a.362.362,0,0,1,.017.055c0,.011.009.021.012.032a4.493,4.493,0,0,0,.71,1.451.539.539,0,0,0,.76.221c.231-.087.454-.2.687-.275q1.3-.437,2.6-.853c-.025.123-.053.247-.087.367q-.477,1.664-.878,3.346l-.117.352.032.016c-.186.8-.363,1.6-.517,2.414-.322,1.689-.652,3.378-.807,5.1-.128,1.418-.3,2.831-.442,4.248H21.5c-.029.244-.053.445-.073.617l.018.013c0,.037-.007.075-.011.112a14.742,14.742,0,0,0-.19,2.357,2.347,2.347,0,0,0-.1.414c-.055.955-.1,1.912-.148,2.868-.068,1.243-.122,2.487-.219,3.728-.187,2.412-.286,4.826-.242,7.246-.038.525-.094,1.05-.112,1.576-.1,2.878-.057,5.755.135,8.628a2.461,2.461,0,0,0,.1,1.06h0c.006.182.012.363.017.545,0,.049,0,.1.007.147l0,.28q.007,1.9.014,3.8a.7.7,0,0,0,.1.412h0c0,.263-.007.525-.009.788-.008,1.028.015,2.058-.032,3.084-.043.955-.109,1.908-.085,2.864a5.375,5.375,0,0,0-.1.634c-.1,2.288-.215,4.576-.286,6.866-.049,1.575-.035,3.151-.05,4.727h0a.834.834,0,0,0-.121.617c0,1.483,0,2.967.016,4.45a9.455,9.455,0,0,0,.111,2,12.852,12.852,0,0,0,.075,1.967c0,.02,0,.039,0,.059.015.092.034.183.056.275h0c-.009.758.035,1.522-.042,2.274h0a20.527,20.527,0,0,0-.092,2.768q-.149,3.3-.3,6.6h0a.705.705,0,0,0-.109.475c-.027,1.332-.2,2.654-.263,3.982a33.823,33.823,0,0,0-.179,4.058,3.19,3.19,0,0,0-.014.867l-.006.43a5.462,5.462,0,0,0-.1,1.5c.118,1.58.082,3.165.136,4.746a.678.678,0,0,0,.1.411c-.045,1.621.166,3.232.207,4.849a.659.659,0,0,0,.075.2c0,.143-.011.288,0,.43q.217,2.825.44,5.649c.16,2.05.292,4.1.5,6.148a10.187,10.187,0,0,0,.242,2.134,11.815,11.815,0,0,0,.139,2.062c.078,1.186.195,2.369.3,3.554a13.306,13.306,0,0,0,.114,2.6h0l.032,1.147q0,1.5-.006,3.007-.006,5.049-.012,10.1,0,1.367,0,2.734.006,1.51.013,3.02c-.02.676-.037,1.352-.011,2.027,0,.014,0,.029,0,.043.005.127.012.253.021.38v0c-.006.047-.012.094-.019.141,0,.071,0,.143-.007.215l-.007.215a1.082,1.082,0,0,0-.027.262,22.134,22.134,0,0,0-.1,2.908,9.12,9.12,0,0,0-.131,2.16c0,.049,0,.1-.006.145l0,.142c0,.049,0,.1,0,.145q-.006.215-.012.43a.187.187,0,0,0-.011.114c-.017.082-.022.164-.034.247a.327.327,0,0,0-.008.061,15.154,15.154,0,0,0-.047,2.16c0,.063.059.125.092.188h0c-.221.88-.072,1.217.721,1.6a1.3,1.3,0,0,0,.592.236v0l.007,0c.019.014.043.043.057.039h0a1.439,1.439,0,0,0,.8.245l.054.022.058,0a.489.489,0,0,0,.456.112,9.139,9.139,0,0,0,3.177.176,29.287,29.287,0,0,0,4.5-.208,4.212,4.212,0,0,0,1.4-.237,17.152,17.152,0,0,0,2.553-.343c.565-.09,1.126-.214,1.687-.333.179-.038.411-.043.448-.286a2.861,2.861,0,0,0,.019-.926c0-.012-.02-.022-.041-.032l.1-.014V191a.735.735,0,0,0,.093-.342c.022-.382.036-.764.052-1.147a3.869,3.869,0,0,0,.187-1.323,33.118,33.118,0,0,0,.366-3.74,5.8,5.8,0,0,0,.117-.632c.15-1.929.3-3.857.431-5.787s.22-3.864.344-5.8c.058-.9.187-1.806.222-2.712.038-.979.242-1.946.186-2.93a23.821,23.821,0,0,0,.3-3.454,7.236,7.236,0,0,0,.192-1.84,27.707,27.707,0,0,0,.234-3.346,4.292,4.292,0,0,0,.143-1.136c.129-1.6.292-3.19.375-4.789.063-1.194.251-2.38.2-3.58a9.584,9.584,0,0,0,.163-2.128.544.544,0,0,0,.042-.144,4.429,4.429,0,0,0,.07-1.182V144.7a23.471,23.471,0,0,0,.228-2.99,34.533,34.533,0,0,0,.213-4.065,10.943,10.943,0,0,0,.148-2.3c.186-1.233.191-2.48.295-3.72.13-1.549.274-3.1.377-4.649a21.121,21.121,0,0,0,.192-2.576c.282-1.712.413-3.441.591-5.165a2.576,2.576,0,0,0,.132-1.17,1.969,1.969,0,0,0,.133-1.01c.1-.733.208-1.465.306-2.2.216-1.632.443-3.264.637-4.9.124-1.042.334-2.074.358-3.127a31.054,31.054,0,0,0,.457-4.131,2.053,2.053,0,0,0,.116-1.048l.021-.288a4.227,4.227,0,0,0,.15-1.439,34.584,34.584,0,0,0,.428-4.142c.241-1.1.279-2.224.413-3.337.128-1.068.243-2.137.336-3.208.035.481.037.964.032,1.447a5.24,5.24,0,0,1-.076,1.163.675.675,0,0,0,.056.568,1,1,0,0,1,.072.781,9.3,9.3,0,0,0-.241,1.862c.012.228.1.44.094.665,0,.884.152,1.762.094,2.648q0,1.784,0,3.567c0,.542.016,1.084-.007,1.625-.011.246.117.464.08.711a12.521,12.521,0,0,0-.163,1.965c-.146.134-.086.31-.087.468,0,1.157,0,2.314,0,3.471,0,.179-.036.358-.049.534a9.425,9.425,0,0,0-.115,2.1,12.8,12.8,0,0,1,.072,1.568c.008.3,0,.6,0,.9.028.377-.076.747-.081,1.118-.02,1.4-.008,2.8-.008,4.2,0,.106-.007.214.089.289a13.228,13.228,0,0,0,.084,1.388,15.082,15.082,0,0,0,.172,2.641.971.971,0,0,0,.537.76,5.843,5.843,0,0,0,1.709.506,17.306,17.306,0,0,0,3.828.4.336.336,0,0,0,.332.086,6.777,6.777,0,0,1,1.275.054c.021.407.042.813.064,1.22.047.861.1,1.722.168,2.581.166,2.053.329,4.106.52,6.156.194,2.074.391,4.149.644,6.216.244,2,.413,4,.5,6.013.1,2.4.25,4.785.5,7.168a6.152,6.152,0,0,0,.217,1.628l.025.248c.025,1.354.232,2.692.366,4.035a4.563,4.563,0,0,0,.188,1.471,30.262,30.262,0,0,0,.32,3.425,11.516,11.516,0,0,0,.143,2.3,10.008,10.008,0,0,0,.116,2.343h0a1.941,1.941,0,0,0,.024.673,13.9,13.9,0,0,0,.062,2.106.994.994,0,0,0,.059.386c-.045,1.725.146,3.44.228,5.159.033.691.068,1.385.119,2.076.133,1.811.292,3.622.367,5.436.035.837.168,1.665.25,2.5l-.057-.018c0,.444,0,.627.111.746.007.17.012.34.01.511,0,.273.205.425.392.57a5.1,5.1,0,0,0,1.712.883,15.59,15.59,0,0,0,6.1.519,6.453,6.453,0,0,0,2.027-.257,8.425,8.425,0,0,0,2.294-.441.656.656,0,0,1,.119-.124l0,0h0l0,.007a.179.179,0,0,1-.121.121,2.626,2.626,0,0,0,1.149-.29h0a19.607,19.607,0,0,0,4.025-1.255,2.427,2.427,0,0,0,.865-.488c0-.037-.007-.073-.01-.11h0c0-.012,0-.024-.005-.036-.005-.04-.01-.08-.018-.121,0-.008,0-.017,0-.025l0,0a.113.113,0,0,1,.021.047.29.29,0,0,1,.007.033.7.7,0,0,1,0,.077,1.266,1.266,0,0,0,0,.133c.187-.11.144-.3.124-.452a4.046,4.046,0,0,1-.03-.61c.013-.254.023-.472.037-.764l-.011,0c0-.111.009-.223.009-.334,0-1.343,0-2.687,0-4.03q0-3.813,0-7.626h0c.116-1.428.126-2.859.129-4.291q.009-3.76.033-7.52c0-.085.007-.169.011-.254a.726.726,0,0,0,.093-.411q.025-2.457.048-4.915a.9.9,0,0,0,.089-.267c-.014-1.939.236-3.869.2-5.808a1.033,1.033,0,0,0,.086-.265q.107-2.45.2-4.9a1.277,1.277,0,0,0,.108-.7c.029-.407.029-.816.065-1.221a34.389,34.389,0,0,0,.233-4.3h0q0-.287.007-.574c.146-1.666.294-3.331.434-5,.028-.334.016-.67.036-1.005,0-.076.011-.152.016-.228a3.336,3.336,0,0,0,.291.241c.212.156.365.382.667.362a.646.646,0,0,0,.309.194,12.467,12.467,0,0,0,2.745.74l1.28.257q-.168,3.622-.325,7.244a5.9,5.9,0,0,0-.026,1.12,1.493,1.493,0,0,0-.06.258c-.11,1.858-.2,3.717-.145,5.579.068,2.36.228,4.718.225,7.08a.472.472,0,0,0,.127.391.649.649,0,0,1,.424.114l.414.027a.385.385,0,0,1,.022.076,1.411,1.411,0,0,1,.637.114,3.384,3.384,0,0,1,.966.109l1.149.027.006,0h.034a.105.105,0,0,0,.016.08l.038-.017.036.023a24.145,24.145,0,0,0,2.924.05,3.677,3.677,0,0,0,1.258-.052,1.583,1.583,0,0,1,.63-.047,18.482,18.482,0,0,0,2.067-.051l.185-.012c.286-.129.607.045.891-.1l.032-.023.036.015a.369.369,0,0,0,.1-.065.509.509,0,0,0,.455-.041.335.335,0,0,0,.215-.208.3.3,0,0,0,.042-.072.467.467,0,0,0,.171-.369c0-.067.008-.134.013-.2l.02-.32c.057-.929.11-1.859.2-2.785.219-2.308.458-4.613.7-6.918a29.176,29.176,0,0,0,.1-5.341,32.931,32.931,0,0,1-.127-3.366c.013-.5.03-.994.046-1.49.236,0,.472,0,.708,0a4.643,4.643,0,0,0,2.125-.23,1,1,0,0,1,.518-.087c.463.034.907-.13,1.369-.13a1.134,1.134,0,0,0,.612-.135,5.33,5.33,0,0,1,1.747-.581,9.752,9.752,0,0,0,2.4-.976c.971-.571,1.879-1.251,2.807-1.9l.071-.05a.278.278,0,0,1,.1-.183,3.4,3.4,0,0,1,.638-.433c.388-.431.783-.968,1.375-1.029q.374-.323.736-.662c.869-.577,1.636-1.3,2.5-1.868,1.194-.786,2.421-1.529,3.691-2.2h0q.05,1.2.109,2.394c.073,1.433.141,2.867.275,4.3a39.435,39.435,0,0,1,.173,4.35c0,.186-.007.372,0,.558.037,1.156.181,2.309.14,3.468a2.234,2.234,0,0,0,.025.335c.1.872.186,1.743.222,2.621s.152,1.746.235,2.619c0,.034.035.064.053.1a17.956,17.956,0,0,0,.239,2.27c.219,2.033.413,4.069.689,6.095a4.236,4.236,0,0,0,.2,1.255.086.086,0,0,1,.04.037l-.04-.037c.055.627.085,1.258.174,1.881a4.084,4.084,0,0,0,.16,1.147c.193,1.557.193,3.129.344,4.69.212,2.191.243,4.4.56,6.579.177,1.217.164,2.457.387,3.67a4.477,4.477,0,0,0,.13.993,1.014,1.014,0,0,1,.05.624l-.018-.006-.071.105c.012.019.023.039.035.059a.419.419,0,0,0-.173.206.332.332,0,0,0-.2.243,2.644,2.644,0,0,0-.023,1.451,5.091,5.091,0,0,0,.31,1.814h0a3.2,3.2,0,0,0,.561,1.118,11.828,11.828,0,0,0,2.134,1.117,1.362,1.362,0,0,0,.586.189,3.377,3.377,0,0,0,1.236.226c.439.06.877.138,1.318.177a16.185,16.185,0,0,0,2.5.071l.112-.01c.724-.04,1.45-.053,2.17-.126a8.558,8.558,0,0,0,2.441-.509,1.224,1.224,0,0,0,.551-.141h0a1.549,1.549,0,0,0,.8-.2,4.346,4.346,0,0,0,1.123-.45.289.289,0,0,0,.233-.107,3.03,3.03,0,0,0,1.345-.913c.214-.167.242-.458.425-.643a.842.842,0,0,0,.22-.715c-.051-.649-.086-1.3-.135-1.949a.716.716,0,0,0-.083-.2c-.017-.23.171-.459.007-.691a11.047,11.047,0,0,1,.13-1.638,14.593,14.593,0,0,0,.285-2.2c.1-.532.155-1.07.266-1.6.221-1.041.223-2.106.419-3.153.212-1.133.3-2.288.445-3.434.087-.7.164-1.406.263-2.107.2-1.388.165-2.791.3-4.183a18.5,18.5,0,0,0,.26-2.274.135.135,0,0,0-.037-.015l0-.007.033.022a.949.949,0,0,0,.087-.543c.02-.429-.007-.862.036-1.288.141-1.411.249-2.827.4-4.235s.177-2.83.362-4.237a.363.363,0,0,0,.087-.234,16.375,16.375,0,0,1-.089,3.047,22.836,22.836,0,0,0-.121,2.829.85.85,0,0,0-.105.483c0,.064,0,.127,0,.191a2.6,2.6,0,0,0-.02.79c-.045.869-.143,1.734-.19,2.6-.217,4.059-.5,8.117-.49,12.184,0,1.45-.244,2.888-.16,4.34.046.793.15.96.889,1.2a4.19,4.19,0,0,0,.74.1v-.011c.144.167.335.142.524.13a11.992,11.992,0,0,1,4.769,2.315,6.11,6.11,0,0,0,1.164.654,21.008,21.008,0,0,0,2.666,1.014c-.01.057-.021.114-.031.172a6.657,6.657,0,0,0-.377,1.608,1.206,1.206,0,0,0,.384,1.426,6.685,6.685,0,0,0,1.914,1.349,5.627,5.627,0,0,0,2.231,1.018h0a1.282,1.282,0,0,0,.676.215l.036.027.045-.006a.474.474,0,0,0,.359.108v-.005h0a5.239,5.239,0,0,0,2.924.551.55.55,0,0,0,.337-.01c.572,0,1.144.019,1.715,0a2.39,2.39,0,0,0,.981-.095,3.478,3.478,0,0,0,1.238-.107,8.641,8.641,0,0,0,2.242-.565h0a.969.969,0,0,0,.565-.328h0a2.679,2.679,0,0,0,1.228-1.127c.181-.247.489-.409.519-.755a5.222,5.222,0,0,0,.046-1.387.279.279,0,0,0-.011-.227c0-.147-.01-.293,0-.439.012-.227-.114-.232-.253-.221a.872.872,0,0,0-.039-.166l-.157.062a.475.475,0,0,1-.094-.189c1.463-.043,2.926-.1,4.39-.137s2.954-.032,4.432-.047a35.178,35.178,0,0,0,4.952-.017,1.236,1.236,0,0,0,.641-.128,15.48,15.48,0,0,0,2.422-.1c2.167-.216,4.3-.628,6.441-1.018a17.127,17.127,0,0,0,4.621-1.65,23.226,23.226,0,0,1,6.429-2.3h0a26.3,26.3,0,0,0,4.155-.413,20.793,20.793,0,0,0,3.252-.763,1.244,1.244,0,0,0,.968-1.211c.03-1.142.024-2.286.033-3.428h0a2.008,2.008,0,0,0,.116-.986c.011-.95.008-1.9.009-2.85,0-.975.014-1.949.025-2.923.441.063.877.164,1.321.194h0a3.453,3.453,0,0,0,1.262.136l.051.03.058-.013a.693.693,0,0,0,.17.07c1.335.163,2.669.326,3.991.578a9.652,9.652,0,0,0,2.133.484,1.039,1.039,0,0,0,.236.05,20.144,20.144,0,0,0,3.068.441h0a.3.3,0,0,0,.256.013l.053.028.057-.02a5.4,5.4,0,0,0,2.3,0l.06.012.052-.033a2.494,2.494,0,0,0,.613-.1c.4-.034.512-.251.537-.62.049-.706.162-1.408.211-2.114.012,0,.023,0,.034,0l-.028-.066a3.164,3.164,0,0,0-.09-1.426c-.024-1.415-.18-2.826-.123-4.243a1.719,1.719,0,0,0,.041-.806,43.812,43.812,0,0,1,.02-5.782,3.63,3.63,0,0,0,.006-1,10.305,10.305,0,0,1-.085-2.066c0-.353,0-.706.005-1.059,1.4-.065,2.805-.222,4.207-.221.491,0,.981-.007,1.47-.021l.018.088a3.966,3.966,0,0,1,.119,1.171,34.982,34.982,0,0,0,.361,5.61,7.92,7.92,0,0,0,.076.831c.093.521.267.657.792.634a14.962,14.962,0,0,1,2.43,0,24.854,24.854,0,0,0,5.067.089,8.221,8.221,0,0,0,2.134-.219,10.553,10.553,0,0,0,2.495-.426,1.586,1.586,0,0,0,.852-.4c.062-.028.124-.056.13-.137.038-.5.1-1,.108-1.507a3.888,3.888,0,0,0-.091-1.563,2.466,2.466,0,0,0-.129-1.017c-.021-.752-.14-1.5-.167-2.252,2.105.031,4.206.241,6.314.16a1.216,1.216,0,0,1,.261.015,14.24,14.24,0,0,0,3.194.061c1.453-.06,2.906-.219,4.361-.213,1.873.008,3.739-.206,5.613-.152a2.026,2.026,0,0,0,.261-.014,30.6,30.6,0,0,1,3.7-.241,6.847,6.847,0,0,0,.848-.038c.863-.094,1.722-.215,2.594-.249.65-.026,1.3-.064,1.951-.126a3.8,3.8,0,0,0,1.079-.238c.3-.122.41-.287.3-.544.169.012.337.026.506.037a.2.2,0,0,0,.163.01c.278.018.555.035.832.054a.468.468,0,0,0,.4-.089c.032.054.068.108.095.162a.465.465,0,0,0,.205-.345c0-.116,0-.232,0-.348a.641.641,0,0,1,.311-.038,10.309,10.309,0,0,0,3.18-.183.709.709,0,0,1,.293-.011.507.507,0,0,0,.257.471c.014-.031.029-.059.044-.087.13.114.314.058.492.025a14.659,14.659,0,0,1,2.7-.241,52.575,52.575,0,0,0,8.7-.561v.007c.013,0,.022-.009.034-.013q.613-.1,1.223-.231a52.962,52.962,0,0,0,5.4-1.3c1.055-.341,2.124-.644,3.2-.928a34.811,34.811,0,0,0,5.117-1.745,1.824,1.824,0,0,0,1.2-2.031c-.053-.716-.137-1.431-.237-2.143a34.506,34.506,0,0,1-.51-5.326,2.2,2.2,0,0,1,.174-.873,4.511,4.511,0,0,0,.414-2.236,36.775,36.775,0,0,1,0-3.756,7.393,7.393,0,0,0-.114-2c-.019-.688-.024-1.378-.057-2.065.509.015,1.017.014,1.525-.017a2.249,2.249,0,0,0,.17,1c.1,1.526.2,3.052.292,4.578.031.508,0,1.025.068,1.526a38.129,38.129,0,0,1,.37,4.571,25.047,25.047,0,0,0,.2,2.7,25.137,25.137,0,0,1,.3,2.552,38.062,38.062,0,0,0,.715,6.623.882.882,0,0,1-.023.548,2.067,2.067,0,0,0-.036,1.294,8.861,8.861,0,0,1,.18,3.179,19.479,19.479,0,0,0-.2,4.088,1.436,1.436,0,0,0,1.109,1.42,9.567,9.567,0,0,0,1.411.353,50.283,50.283,0,0,0,6.732.4c.858,0,1.717.023,2.574.04a11.11,11.11,0,0,0,1.668-.043.509.509,0,0,0,.49-.484c.257-1.554.767-3.055.934-4.629a5.694,5.694,0,0,1,.552-1.785,14.685,14.685,0,0,0,.793-3.438,10.192,10.192,0,0,0,.194-2.49c-.059-1.25-.147-2.5-.222-3.749.1-.867-.118-1.72-.082-2.6a24.514,24.514,0,0,0-.3-3.419c-.008-2.412,0-4.824-.035-7.235,0-.248-.005-.5-.005-.743a25.364,25.364,0,0,0,3.672-2.345,14.035,14.035,0,0,0,1.6-1.354c.14-.142.27-.329.513-.252s.242.293.253.5c.018.333.038.666.054,1,.035.751.088,1.5.139,2.252l-.006,0a.521.521,0,0,0,.026.337c.026.4.054.791.072,1.188.021.492.038.987.083,1.479h-.035a.307.307,0,0,0,.071.308,7.18,7.18,0,0,0,.171.961c.132.5.231.549.734.645a10.12,10.12,0,0,0,1.812-.013,9.414,9.414,0,0,0,1.605.033,7.083,7.083,0,0,1,1.383-.292,8.267,8.267,0,0,0,2.338-.3,13.651,13.651,0,0,0,2.734-.737,1.483,1.483,0,0,0,.319-.2l0,0a.339.339,0,0,0,.128-.132l0-.007a1.13,1.13,0,0,0,.2-.69c.031-1.142-.085-2.276-.129-3.413a.368.368,0,0,0-.008-.3c0-.136-.012-.273-.012-.41,0-1.289-.008-2.577-.013-3.866a6.128,6.128,0,0,0-.129-1.628c.019-.781.048-1.561.044-2.345-.009-2.1-.245-4.19-.178-6.287a13.461,13.461,0,0,1-.113-1.879,21.371,21.371,0,0,0,.088-2.947c.143-3.407-.134-6.811-.122-10.218a1.151,1.151,0,0,0-.012-.27.713.713,0,0,0-.075-.169.127.127,0,0,0-.037-.069,64.638,64.638,0,0,0-.248-7.424,28.842,28.842,0,0,1-.3-4.914,2.061,2.061,0,0,0-.026-.405,20.9,20.9,0,0,1-.239-2.616,5.288,5.288,0,0,0-.242-2.132.841.841,0,0,1-.032-.335c0-.947-.224-1.882-.146-2.831a1,1,0,0,0-.126-.521,8.6,8.6,0,0,0-.143-1.492c-.021-.945-.151-1.883-.161-2.831a5.65,5.65,0,0,0-.144-1.269,19.956,19.956,0,0,1-.5-4.819q0-1.831,0-3.662a3.882,3.882,0,0,0-.08-.8,3.433,3.433,0,0,1,.009-1.411,4.575,4.575,0,0,0,.006-1.746,3.134,3.134,0,0,1-.068-.6,23.284,23.284,0,0,0-.318-3.083c-.038-.312.024-.686-.223-.964.03-.241-.116-.444-.143-.672a13.575,13.575,0,0,0-.539-1.77.958.958,0,0,0-.14-.543c0-.15.021-.306-.13-.406v0a12.632,12.632,0,0,0-1.084-3.808,20.176,20.176,0,0,0-2.313-4.882h0a7.057,7.057,0,0,0-.731-1.213,13.064,13.064,0,0,0-2.293-2.281.8.8,0,0,0-.563-.176.9.9,0,0,1-.687-.358,7.059,7.059,0,0,0-3.328-2.089.3.3,0,0,0-.274-.131.283.283,0,0,0-.271-.13.838.838,0,0,0-.39-.154,23.32,23.32,0,0,0-2.742-1.313,7.278,7.278,0,0,0-1.749-.715.746.746,0,0,0-.154-.128c-1.254-.562-2.5-1.144-3.768-1.669a14.29,14.29,0,0,1-2.017-.941c-.63-.384-1.319-.672-1.941-1.077h0a1.734,1.734,0,0,0-.663-.533,3.774,3.774,0,0,0-1.639-.813h0a.9.9,0,0,0-.548-.271,10.024,10.024,0,0,0-1.5-.673,10.336,10.336,0,0,0-1-.346c-.1-.077-.2-.156-.3-.234a5.9,5.9,0,0,0-1-.692.3.3,0,0,0-.228-.147,1.731,1.731,0,0,0-.657-.406.588.588,0,0,0-.219-.173c-.517-.321-1.068-.575-1.611-.846a.8.8,0,0,0-.38-.125.184.184,0,0,0-.172-.078.14.14,0,0,0-.056-.047c-.006,0-.01-.011-.016-.014a.238.238,0,0,0-.094-.015,1.952,1.952,0,0,0-.288-.128l-.071-.026-.016-.006h-.006l-.264-.086a8.537,8.537,0,0,0-1.927-.3l-.048-3.027a2.862,2.862,0,0,0-.364-1.371,5.1,5.1,0,0,0-1.163-1.488q-.418-.389-.815-.8c1.446.026,2.9.15,4.337.14,2.391-.016,4.786-.128,7.18-.158h0a.877.877,0,0,0,.684.21l14.98.017,1.961.008h0c6.681.071,13.363.088,20.042-.041q0,.859,0,1.717c-.392.278-.229.611-.234.919-.064,4.028-.029,8.055.244,12.081.081,1.191.01,2.387.008,3.58a47.243,47.243,0,0,0-.466,5.29c-.2,2.533-.06,5.075-.066,7.613l.014,4.146c.013,1.159.114,2.317.167,3.473.087,1.871.355,3.74.349,5.613,0,.74,0,1.48,0,2.22a3.76,3.76,0,0,0-.233,1.007c.086,1.758-.412,3.5-.284,5.262.015.207-.052.424.235.593h0c-.092,1.506.046,3.011-.194,4.52a26.083,26.083,0,0,0-.078,3.893c-.35.224-.23.5-.233.76-.016,1.381-.018,2.761-.018,4.141a15.128,15.128,0,0,0,.037,1.99,40.862,40.862,0,0,1,.5,5.386c0,1.487-.01,2.973-.015,4.46-.35.19-.246.441-.246.672q0,5.324.007,10.647c0,.157,0,.315-.006.473q-.017.629-.033,1.259h0c-.375.251-.212.556-.229.839-.192,3.153.348,6.3.246,9.452-.018.556.006,1.114.01,1.671a53.41,53.41,0,0,0,.216,6.648c.237,1.384-.029,2.794.322,4.184h0c0,.871-.006,1.743.016,2.615.014.551.4,1.091.224,1.646a13.875,13.875,0,0,0-.221,4.024c.107,2.388-.356,4.767-.307,7.155-.357.221-.242.5-.241.758,0,1.376.089,2.75.189,4.125.189,2.6.051,5.2.047,7.8a.876.876,0,0,1-.03.317c-.437,1.145-.2,2.318-.428,3.477a17.036,17.036,0,0,0-.04,3.421c0,.233-.092.483.233.68q0,2.213,0,4.427h0c-.376.25-.236.557-.226.839.083,2.25.027,4.5.152,6.75.177,3.174.465,6.351.352,9.532-.067,1.882,0,3.766.022,5.649,0,.282-.143.589.241.837q.008.392.016.784-.007,3.26-.015,6.521c-.3.166-.241.385-.241.591q0,2.761,0,5.521c0,.206-.066.427.247.589.007.318.012.636.019.954a10.543,10.543,0,0,1-.253,2.974c-.217.6.309,1.186.229,1.79h0c-.375.218-.242.5-.242.754q-.018,5.444-.015,10.889c.011.373-.278.715-.272,1.1.03,1.829.037,3.658.008,5.488-.006.376.4.725.192,1.093a2.96,2.96,0,0,0-.189,1.419c-.131,2.618.256,5.243-.256,7.858a2.117,2.117,0,0,0,0,.636c.092.815.452,1.022,1.816,1.049.448.009.9.029,1.344,0a6.114,6.114,0,0,0,2.206-.164c1.345-.158,1.361-.158,1.36-.881,0-1.51-.024-3.02-.038-4.53a14.464,14.464,0,0,0,.018-5.418q-.006-4.459-.01-8.918a34.273,34.273,0,0,0,.263-5.267c.118-1.373.115-2.749.217-4.124.18-2.407.064-4.823.059-7.235,0-.258.088-.535-.234-.763.01-1.645.028-3.29.029-4.935q0-8.6,0-17.2c-.005-2.6-.046-5.2-.07-7.8q0-8.665,0-17.329a.507.507,0,0,0-.226-.523h0q-.014-.47-.027-.941c.009-.291.029-.582.026-.873-.024-2.38-.122-4.759-.226-7.139-.172-3.943-.078-7.891-.087-11.835-.007-2.939,0-5.878,0-8.817h0q.023-1.906.045-3.812h0c.274-.174.219-.394.231-.6.077-1.268.073-2.536.222-3.806a40.077,40.077,0,0,0,.075-4.37,10.04,10.04,0,0,0,.2-3.4,21.557,21.557,0,0,1-.128-6.024,53.948,53.948,0,0,0,.183-5.708h0q0-5.25,0-10.5a11.6,11.6,0,0,0-.062-1.828,48.669,48.669,0,0,1-.408-4.994,50.326,50.326,0,0,1,.4-7.855c.2-2.009.064-4.029.077-6.045a17.26,17.26,0,0,0,.283-4.442c.27-.173.223-.392.226-.6.009-.707,0-1.414,0-2.122q.011-.8.022-1.6h0c.013-.344.049-.689.036-1.032-.068-1.745-.119-3.489-.248-5.234-.238-3.2.063-6.4-.257-9.6M214.015,164.612q-.05-.033-.1-.062a.353.353,0,0,1,.1-.071c0,.044,0,.088,0,.133M45.868,94.2h0v0h0c.01,0,.015,0,.014,0a.02.02,0,0,1-.014,0M23.361,192.524s0,.01,0,.015,0,.03,0,.047,0,.038.007.059.005.039.009.06l0,.013,0,0a.192.192,0,0,1-.061-.054.175.175,0,0,1-.014-.021.2.2,0,0,1-.023-.111c.027,0,.054,0,.081-.006M19.569,22.468a.264.264,0,0,0,.052-.005c-.008.016-.015.03-.024.047l-.028-.042M221.72,9.554q.786.883,1.584,1.756a1.378,1.378,0,0,1,.381.966c0,.556-.007,1.112,0,1.669.008.464.02.928.032,1.392-.022.007-.045.011-.067.019a4.885,4.885,0,0,0-1.589.4,2.069,2.069,0,0,0-.674.276l-.007,0-.064.039-.033,0-.018.008a.137.137,0,0,0-.049.021l-.018.008a.156.156,0,0,0-.03.043h0c-.023,0-.044,0-.065.006h-.021l-.006,0a.179.179,0,0,0-.057.014c-.093.046-.184.1-.276.143l-.047.022-.047.027c-.249.132-.493.27-.734.417l-.119.075c-.249.157-.494.32-.731.5a.258.258,0,0,0-.047.012.171.171,0,0,0-.035.009.136.136,0,0,0-.06.065c-.033.019-.067.035-.1.056a24.542,24.542,0,0,0-3.509,3.078,1,1,0,0,0-.319.3,6.361,6.361,0,0,0-.836.653,13.415,13.415,0,0,1-1.192.713,4.707,4.707,0,0,0-.473,0,3.492,3.492,0,0,1-.477-.03c-.437-.193-.871-.4-1.29-.629l-.019-.023-.023-.014a.472.472,0,0,0-.156-.1l-.009-.006-.023-.008a.152.152,0,0,0-.106-.074l-.009-.007-.025,0-.035-.036-.012-.009a2.544,2.544,0,0,0-.42-.309c-.065-.048-.131-.095-.2-.144-.476-.356-.909-.763-1.371-1.135A12.892,12.892,0,0,0,207,18.541a7.861,7.861,0,0,0-1.205-.862.266.266,0,0,0-.209-.135,1.57,1.57,0,0,0-.6-.372.534.534,0,0,0-.2-.158c-.473-.294-.977-.527-1.475-.774a.727.727,0,0,0-.348-.114.166.166,0,0,0-.157-.071c0-.006-.01-.007-.014-.013a.146.146,0,0,0-.051-.044.222.222,0,0,0-.086-.014,1.978,1.978,0,0,0-.335-.143l-.007,0H202.3l-.241-.078a7.428,7.428,0,0,0-1.682-.268l-.061-3.781a2.861,2.861,0,0,0-.364-1.371,5.091,5.091,0,0,0-1.163-1.488q-.226-.21-.449-.426a20.2,20.2,0,0,0,4.229.09,50.659,50.659,0,0,1,9.245-.128c2.924.229,5.839.156,8.759.183h.407a6.967,6.967,0,0,0,.736.986M77.252,187.57l0-.005a.03.03,0,0,1,0-.014.06.06,0,0,1,0-.013.041.041,0,0,1,0-.008h0a.169.169,0,0,1,0,.03s0,.01,0,.01m-55.034-1.945s-.005,0-.007.005l-.01-.007a.074.074,0,0,0,0-.041h0c0-.02,0-.027,0-.027l0,0a.043.043,0,0,1,.01.014.092.092,0,0,1,0,.012.082.082,0,0,1,0,.026.054.054,0,0,1,0,.015m-1.349-80.678h0l.034,0c0,.017,0,.034-.006.051v0h0c-.012-.017-.021-.034-.031-.05h0M60.252,169.84c.026.005.05.009.072.011-.008.022-.01.043-.021.066-.018-.025-.035-.051-.052-.077m-36.2-111.9c.01.007.021.007.031.013a.373.373,0,0,0,.1.042c.009,0,.016.009.026.011-.04.02-.081.038-.124.055l-.012.005v0c-.007-.041-.015-.081-.023-.122M164.5,7.737q2.969,0,5.939,0a6.157,6.157,0,0,0,1.235,2.04q.786.883,1.583,1.756a1.378,1.378,0,0,1,.381.966c0,.556-.007,1.112,0,1.669.011.648.029,1.3.045,1.944-.024.007-.049.012-.073.019a4.824,4.824,0,0,0-1.489.35,2,2,0,0,0-.615.236l-.022.008-.061.034-.031,0-.016.007a.14.14,0,0,0-.046.018l-.017.007a.129.129,0,0,0-.029.038h0l-.033,0-.041,0H171.2l0,0a.179.179,0,0,0-.055.012c-.089.042-.176.086-.264.129l-.039.017-.04.021c-.233.116-.462.237-.687.366l-.122.072c-.225.133-.446.271-.66.423l-.018.011a.236.236,0,0,0-.038.009.178.178,0,0,0-.039.009.124.124,0,0,0-.056.057c-.031.016-.063.03-.092.049-.3.191-.593.395-.877.608-.107.08-.207.167-.312.25-1.148-.289-2.3-.561-3.456-.8a16.789,16.789,0,0,0-2.009-.379,14.569,14.569,0,0,0-2.154-.358.076.076,0,0,0-.067-.007h0c-.049-.024-.1-.067-.147-.068a9.818,9.818,0,0,1-1.285-.188,2.962,2.962,0,0,0-.884-.1.084.084,0,0,0-.071-.008.587.587,0,0,0-.421-.073l-.237-.021a.9.9,0,0,0-.589-.073l-.242-.02a4.433,4.433,0,0,0-1.084-.16c-.933-.11-1.863-.254-2.8-.316-.506-.034-1.01-.085-1.515-.137l-.031,0c-.393-.041-.786-.083-1.18-.118-.064-.006-.129-.017-.194-.026a.782.782,0,0,0-.216,0v-.02l-.068-4.2a2.847,2.847,0,0,0-.363-1.366,5.083,5.083,0,0,0-1.159-1.483c-.361-.335-.717-.677-1.047-1.041-.024-.027-.045-.054-.068-.081,5.959-.162,11.924-.073,17.885-.082M38.224,170.9l-.008-.006.022-.005c0,.008-.009.011-.014.011M215.545,21.342c0,.006.007.01.007.016s0,.01,0,.015a.094.094,0,0,1-.032.043.581.581,0,0,0,.024-.075M63.281,173.188a.574.574,0,0,0-.06-.041l-.027-.015a.274.274,0,0,0-.062-.022l0-.006a.934.934,0,0,0,.07-.142l.008-.016c0-.02.008-.04.012-.06,0,.008.007.017.009.025.014.045.03.091.049.135.009.022.017.044.027.066.021.047.046.093.072.14.008.014.014.029.022.043-.033-.033-.063-.06-.09-.084l-.033-.025M25.559,191.824c.019.019.037.039.056.06l-.058,0c-.007-.006-.013-.007-.02-.013a.118.118,0,0,1,0-.065l.023.021M31.336,20.848a.059.059,0,0,1-.008.017.038.038,0,0,1-.021.009s0,0-.007,0a.112.112,0,0,1-.048-.014c.027-.011.058-.02.09-.029a.085.085,0,0,1-.006.013m3.029-1.592c-.021.008-.028.007-.037,0h0c.029-.016.039-.011.038,0h0m77.548,2.2a.03.03,0,0,1,.007.016s0,.008,0,.013a.084.084,0,0,1-.032.041.655.655,0,0,0,.024-.07M68.773,186.282h-.05a.2.2,0,0,1,.017-.03l.062.028h-.029M54.714,19.675h0m-2.59,2.39s0,.007-.008.011h-.009l.017-.011m7.216-.739.023,0c-.007.005-.011.006-.014.005s-.007,0-.008-.009M52.08,19.574l-.036.011v-.014l.036,0M34.59,23.542c1.229-.224,2.473-.338,3.706-.541a1.9,1.9,0,0,0,.231,0q1.31-.139,2.619-.284c.781-.086,1.561-.177,2.342-.266a6.076,6.076,0,0,0,1.207-.087.235.235,0,0,1,.025-.01h0c-.009,0-.019.006-.028.01.678-.009,1.355-.046,2.031-.094l.069,0,.2-.011.059,0,.064-.006c.193-.021.386-.036.58-.054.05-.005.1-.007.15-.012h0l.835-.018h5.11l1.941.017c.032.009.064.017.1.024l.048,0a12.138,12.138,0,0,0,1.316.076.621.621,0,0,0,.356.071c.583.05,1.166.1,1.748.159s1.139.12,1.708.18a2.975,2.975,0,0,0-.382.127c-.6.255-1.1.664-1.684.943a4.075,4.075,0,0,0-1.081.534,7.087,7.087,0,0,0-1.7.543,5.618,5.618,0,0,1-.814.366c-.085.029-.167.061-.252.091-2.012,0-4.025.044-6.037.059a1.407,1.407,0,0,0-.338.087h0l-.247,0-.292.005a4.866,4.866,0,0,0-1.151.008l-.148.007-2.156-.011-.569-.018a1.568,1.568,0,0,0-.773-.092c-.884-.03-1.769-.033-2.652-.085-1.788-.105-3.572-.283-5.367-.238l-.394-.013h0a1.391,1.391,0,0,0-.336-.091c-1.1-.021-2.2-.033-3.3-.048a.169.169,0,0,0-.02-.007c-.01-.057-.02-.114-.03-.17-.015-.086-.052-.263-.1-.485,1.134-.236,2.271-.463,3.412-.671m156.263-2.366a.035.035,0,0,1,.007.015s0,.009,0,.014a.087.087,0,0,1-.032.041.5.5,0,0,0,.024-.07m26.937-.923-.025.031c-.01.011-.022.021-.033.032a.833.833,0,0,0,.057-.063M64.211,174.366l.015,0,.06-.014.033-.008c0,.035,0,.07,0,.105a.2.2,0,0,1-.111-.08m-40.89-63.1c-.006.006-.012.011-.02.01h0a.455.455,0,0,0,.008-.051c0-.009,0-.018,0-.027l.021.023,0,0a.053.053,0,0,1,0,.029.032.032,0,0,1-.007.011m90.811-90.817-.026.03-.036.034A.8.8,0,0,0,114.132,20.448Zm-90.881,114.8c0-.02,0-.022.007-.022s0,.014-.007.022M193.084,20.163l-.024.028c-.009.01-.02.019-.03.028C193.048,20.2,193.066,20.183,193.084,20.163ZM39.339,127.333c.02,0,.035,0,.053,0l.09-.005.039,0c-.007.008-.015.014-.022.021a.278.278,0,0,1-.056.043.25.25,0,0,1-.045.012.24.24,0,0,1-.063.013,1.489,1.489,0,0,1-.115-.021.436.436,0,0,1-.114-.065l.058,0,.077,0c.032,0,.069,0,.1,0m-7.049,45.806-.037-.046c.021-.014.043-.028.065-.041-.012.018-.021.036-.034.054s0,.022.005.033M33.445,58.558s.006-.007.01-.01a.213.213,0,0,1,.113-.046h0a.735.735,0,0,0-.1.071l-.02.017a.525.525,0,0,0-.072.08l0,0a.238.238,0,0,1,.068-.116m16.4,21.5.01-.02c-.006.062-.012.124-.015.186l0-.009a.214.214,0,0,1-.012-.056.2.2,0,0,1,0-.041.242.242,0,0,1,.021-.06m97.532-58.395s0,.007-.007.011h-.008l.015-.011m-.04-2.482-.031.011v-.014l.032,0M71.781,163.85a.192.192,0,0,0-.023-.029.159.159,0,0,1,.025.029.174.174,0,0,1,.021.025.178.178,0,0,1,.016.082.186.186,0,0,0-.019-.082.2.2,0,0,0-.02-.025M62.4,147.621s.006,0,.007,0a.074.074,0,0,1,.024-.009c0,.008,0,.016,0,.024-.021,0-.034-.005-.034-.011m-36.84,16.552c-.017-.005-.032-.012-.05-.017l0,0a.171.171,0,0,1,.107-.045.153.153,0,0,1,.053.064.25.25,0,0,1,.009.024c0,.007,0,.013,0,.02l-.009,0c-.038-.015-.078-.028-.12-.04m9.343-16.614c.007.012.013.022.021.035l-.006,0-.012,0a.138.138,0,0,1-.087-.01c0-.055.009-.1.013-.149.007.012.016.025.023.037s.031.053.048.08m-3.141.435-.037.035c-.009-.02-.017-.041-.028-.061l.064.026m6.88-45.124h-.01l.044-.063.025-.035s.006.005.007.008a.267.267,0,0,0,.085.094.9.9,0,0,0-.152,0M27.3,116.273h0c.011-.018.021-.024.026-.021s0,.006,0,.009a.029.029,0,0,1,.006.017v0a.024.024,0,0,1-.015.021c-.008,0-.018,0-.034-.014h0a.432.432,0,0,1-.025-.052l-.007-.02C27.267,116.234,27.281,116.254,27.3,116.273Zm8.493-5.127,0,0c-.012-.008-.019-.019-.029-.028l.03,0v.029a.019.019,0,0,1,0,.005m-1.16,13.345H34.6a.28.28,0,0,1,.026-.027c0,.01,0,.019.007.028m-2.44,12.721v-.028a1.334,1.334,0,0,0,.1-.093h0a.329.329,0,0,1-.1.12m-2.585-28.235.015-.029a1.007,1.007,0,0,1,.014.107h0a.172.172,0,0,1-.065-.007l.01-.018.028-.052m-2.559,9.51c-.006.016-.007.029-.014.047v0c-.007-.016-.013-.031-.019-.048h.034M22.9,104.682a.033.033,0,0,1-.015-.037c.006.013.009.025.015.037m9.573,66.127-.017-.006.017-.029Zm5.774-35.732c-.012,0-.014-.026-.014-.026s.008.017.014.026M160.838,23.184a.383.383,0,0,0-.33.178l-1.789.774c-.344.133-.691.259-1.034.393-1.392.468-2.7,1.132-4.062,1.684-.607.185-1.2.413-1.787.648l-1.479.014c-.781.008-1.566.07-2.342.018-.123-.008-.247-.009-.371-.015a.294.294,0,0,1-.055-.043l-.3-.028a.6.6,0,0,0-.025-.081l-.282-.018c-.015-.029-.03-.057-.043-.087l-.3-.023c-.007-.028-.015-.055-.025-.082h-.2l-.117-.107-.3-.031a.678.678,0,0,0-.018-.078.373.373,0,0,1-.318-.111,1.012,1.012,0,0,1-.552-.2.416.416,0,0,1-.32-.11,29.564,29.564,0,0,0-.637-.225,127.8,127.8,0,0,1-.647-.213l-.291-.021-.032-.086a.368.368,0,0,1-.326-.1.446.446,0,0,1-.328-.1.409.409,0,0,1-.319-.112.448.448,0,0,1-.326-.1l-.3-.03a.341.341,0,0,1-.028-.077.394.394,0,0,1-.322-.1l-.386-.059a.28.28,0,0,0-.228-.082c-.009-.028-.017-.056-.025-.085a.418.418,0,0,1-.32-.107l-.283-.029c0-.007,0,0,.005-.014a.088.088,0,0,0-.032-.073c-.118-.132-.309,0-.428-.115-.092-.095-.236-.019-.325-.094-.156-.154-.38.009-.536-.115-.134-.121-.32-.011-.461-.1a.061.061,0,0,1-.075-.011c-.086-.1-.237-.005-.322-.108a.2.2,0,0,0-.2-.031c.018-.036.008-.061-.052-.062a.053.053,0,0,1-.068-.014.183.183,0,0,0-.24,0v.014l-.082-.006-.1-.011c0-.008,0-.015,0-.023h-.016a.29.29,0,0,0-.031-.064l-.394-.025a.2.2,0,0,0-.221.005L136.3,23.4a.9.9,0,0,1-.532-.113.62.62,0,0,1-.434-.1l-.51-.019a.669.669,0,0,0-.128-.089.782.782,0,0,0-.479-.06l-.195-.079-.291-.119c.465-.069.929-.138,1.392-.224a1.5,1.5,0,0,0,.2,0q1.161-.139,2.321-.283c.692-.086,1.383-.176,2.075-.264a4.838,4.838,0,0,0,1.069-.087c.007,0,.015-.006.022-.01h0c-.008,0-.017.006-.025.01.6-.009,1.2-.045,1.794-.093l.067,0,.177-.011.053,0,.057-.006c.167-.021.334-.035.5-.052.049-.005.1-.007.146-.013l.74-.018h4.528l1.269.013h.006l.444,0c.028.009.057.017.085.024l.043,0a9.44,9.44,0,0,0,1.166.076h0c.095.08.206.06.315.071.516.05,1.033.1,1.549.159.868.1,1.734.214,2.6.3.6.062,1.19.165,1.783.26l1.254.2c.28.052.56.105.841.155l.671.118c-.015.013-.032.022-.047.036m-7.944-4.507-.006.015v0l0,0-.023-.007c.01-.01.021-.01.031-.016m-3.279.636a.257.257,0,0,0,.031-.018l.007,0,.012-.007a.267.267,0,0,1-.027.023l-.023.006m-17.981-.458a.007.007,0,0,1,.007.008c-.019.008-.026.007-.034,0h0a.045.045,0,0,1,.024-.009l0,0M25.7,114.869l.007.022-.012,0-.022,0,.027-.015m-2.746-5.031a.072.072,0,0,1,.019-.008.062.062,0,0,1,.015,0,.026.026,0,0,1,.028.021h0c.008.018.012.036.019.054l0,0,0-.006a.1.1,0,0,0-.019-.032v0a.03.03,0,0,0-.024-.007s-.005,0-.008,0h0l-.008-.008v.01a.038.038,0,0,1-.022,0s0,0,0-.009,0,0,0,0m.449,1.02c.008.005.014.012.022.017l-.022.005ZM200.327,21.377a1.31,1.31,0,0,0-.24-.062c-.2-.012-.4-.018-.6-.025a.853.853,0,0,0,.164-.126.435.435,0,0,1,.049-.036.388.388,0,0,1,.062-.045.215.215,0,0,1,.05-.012.252.252,0,0,1,.054-.012.274.274,0,0,1,.057.009.308.308,0,0,1,.049.008.844.844,0,0,1,.113.046c.181.087.363.172.547.254h-.3M157,20.661a.02.02,0,0,1-.006-.014l0,0a.019.019,0,0,1,0,.011v0M38.905,141.811c.014,0,.017.019.017.022v0l0,0c-.006-.007-.008-.014-.014-.021m2.157-35.968.057-.023c0,.014,0,.028,0,.043l-.027-.01-.026-.009m9.533,3.374.014-.024.014.025H50.6m10.025,45.99.014.005a.059.059,0,0,1,.032.033l0,0a.107.107,0,0,1,0,.058l-.007.016a.394.394,0,0,1-.028.057l0,.005c-.007-.014-.015-.026-.021-.04s-.022-.05-.033-.075-.016-.046-.025-.07h.007a.2.2,0,0,1,.066.007m13.9-19.764a.149.149,0,0,1-.039.008.141.141,0,0,1-.038.007c.009,0,.042-.008.077-.015ZM229.379,23.325c-.206.055-.413.106-.625.146a9.361,9.361,0,0,0-1.809.462c-.066,0-.13.014-.2.02h-.592a.236.236,0,0,0-.23.113l-.461,0h-3.221l-.92,0c-.15-.173-.353-.11-.535-.112-.665-.006-1.331,0-2,0h-.215c.166-.073.331-.149.491-.238.107-.035.217-.062.321-.107,1.46-.64,2.908-1.312,4.378-1.924a1.66,1.66,0,0,0,.627-.354.385.385,0,0,1,.065-.052.419.419,0,0,1,.046-.036.22.22,0,0,1,.066-.017.3.3,0,0,1,.038-.009.491.491,0,0,1,.221.069l.057.029h0c.263.135.525.271.8.383.62.257,1.233.528,1.846.8l0,0q.586.261,1.172.523l.669.3M30.31,28.394l0,0-.012-.021-.011-.023a.157.157,0,0,1,.022-.007c0,.018,0,.036,0,.055M178.474,17.686h0l0,.006-.006-.006h0m-17.659.1H160.8l-.051-.006-.03-.005.066-.04.035.052m-2.32-.536c-.015-.024-.031-.047-.043-.064l-.019-.029h.138a.352.352,0,0,1-.077.093m-33.436.309h0s0,0,0,.006l0-.005h0M58.35,19.07l-.007.015v0l0,0-.026-.006c.012-.01.024-.01.036-.016m-3.7.638.035-.018.008,0,.013-.006a.32.32,0,0,1-.03.022l-.026.006m-11.4,82.185a.237.237,0,0,0,.036-.013c.007.023.015.046.024.07a.792.792,0,0,1-.06-.057m16.494,49.613-.013-.01a.066.066,0,0,1,.023-.034.169.169,0,0,0-.01.044M204.07,17.253h0l.005.007-.007-.007h0M79.16,19.308c0-.006-.007-.01-.01-.016l.012,0,0,.012m-1.9,163.026,0,.016,0,.008-.034-.021h0l.038-.006v0M228.846,17.126h0l0,.006-.005-.005h0M62.978,21.061a.02.02,0,0,1-.006-.015h0a.019.019,0,0,1,0,.012v0m134.353-5.084a2.134,2.134,0,0,0-.67.256l-.007,0-.064.036-.033,0-.018.007a.153.153,0,0,0-.048.019l-.018.007a.138.138,0,0,0-.03.041h0l-.029,0-.049,0h-.007l0,0a.178.178,0,0,0-.057.014c-.092.043-.183.089-.274.134l-.046.021-.045.024q-.369.183-.727.387l-.124.074c-.246.145-.489.3-.723.463a.151.151,0,0,0-.14.08c-.033.017-.066.032-.1.052a23.961,23.961,0,0,0-3.487,2.864.962.962,0,0,0-.316.275,6.229,6.229,0,0,0-.832.607c-.159.1-.322.194-.485.287a2.563,2.563,0,0,0-.714.118.1.1,0,0,0-.114.016,4.642,4.642,0,0,0-1.478.182.7.7,0,0,0-.182.052,2.326,2.326,0,0,0-.957.17c-.269-.127-.534-.26-.794-.406a.206.206,0,0,0-.018-.021l-.022-.014a.445.445,0,0,0-.145-.09l-.011-.007-.037-.024a.147.147,0,0,0-.083-.054l-.01-.007-.024,0-.007-.007-.025-.025-.007-.006a2.327,2.327,0,0,0-.4-.291c-.066-.049-.133-.1-.2-.146-.445-.334-.851-.714-1.284-1.062a12.1,12.1,0,0,0-1.251-1.116,7.45,7.45,0,0,0-1.136-.813.253.253,0,0,0-.2-.127,1.486,1.486,0,0,0-.567-.35.5.5,0,0,0-.189-.15c-.446-.277-.921-.5-1.39-.73a.686.686,0,0,0-.328-.107.156.156,0,0,0-.148-.068c0-.006-.009-.007-.013-.011a.134.134,0,0,0-.049-.042.191.191,0,0,0-.081-.013,1.845,1.845,0,0,0-.316-.135l-.007,0h-.006l-.227-.074a5.965,5.965,0,0,0-1.32-.229l-.061-3.777a2.855,2.855,0,0,0-.364-1.371,5.1,5.1,0,0,0-1.163-1.488c-.362-.336-.72-.68-1.051-1.045a3.3,3.3,0,0,1-.447-.627h5.852l5.851.044h0c.268.274.606.218.926.231,1.946.077,3.892.073,5.841.222,1.817.14,3.645.095,5.472.08a6.964,6.964,0,0,0,.672.9c.524.589,1.05,1.176,1.584,1.756a1.38,1.38,0,0,1,.381.966c0,.556-.007,1.112,0,1.669.012.67.03,1.34.046,2.01a4.96,4.96,0,0,0-1.471.358m-65.546-7.7a1,1,0,0,0,.8-.227h0l1.445-.027c.447.009.894.029,1.34.026,3.123-.021,6.245-.1,9.368-.182a6.53,6.53,0,0,0,.985,1.44c.522.587,1.047,1.171,1.578,1.75a1.371,1.371,0,0,1,.379.962c0,.555-.006,1.109,0,1.663.013.793.039,1.585.055,2.378l0-.005-.009-.028a.444.444,0,0,0-.047-.1v0h0c-.057-.08-.142-.08-.355-.075-.041,0-.081.009-.122.014a6.979,6.979,0,0,0-1.566.08c-.532.011-1.066,0-1.6.038-1.414.1-2.827.232-4.242.322-.178.011-.355.025-.532.039l-.326.035c-.842.073-1.683.163-2.523.252a4.975,4.975,0,0,0-1.217.16,8.923,8.923,0,0,0-1.563.194,3.986,3.986,0,0,0-.933.121q-1.72.285-3.435.612c-.726.138-1.454.256-2.169.461a3.282,3.282,0,0,0-.331-.195.269.269,0,0,0-.208-.134,1.575,1.575,0,0,0-.6-.37.535.535,0,0,0-.2-.158c-.47-.292-.972-.523-1.466-.77a.728.728,0,0,0-.346-.114.166.166,0,0,0-.157-.071c0-.006-.01-.007-.014-.012a.138.138,0,0,0-.051-.044.212.212,0,0,0-.086-.014,1.936,1.936,0,0,0-.333-.142l-.008,0H123.3l-.239-.078a6.84,6.84,0,0,0-1.546-.255l-.064-3.991a2.861,2.861,0,0,0-.364-1.371,5.1,5.1,0,0,0-1.163-1.488q-.359-.334-.7-.683h12.564M78.973,18.238a.067.067,0,0,1,.021.032c-.007-.014-.021-.021-.031-.031h.01m-6.984-.355-.007-.014.018,0-.01.012M22.416,187.43c.019-.018.04-.033.06-.049a.091.091,0,0,1-.059.048h0m15.52-12.777h-.071a.055.055,0,0,1,.016,0,.155.155,0,0,1,.033,0l.022,0h0m108.136-40.273c.1-1.709.339-3.41.3-5.127a2.151,2.151,0,0,1,.044-.556,5.462,5.462,0,0,0,0-2,12,12,0,0,0,.135-2.842c.005-1.061-.121-2.131-.061-3.189.116-2.038-.025-4.072.023-6.108.049-2.11,0-4.224-.016-6.335a9.894,9.894,0,0,0-.2-3.1,26.211,26.211,0,0,0-.045-2.683,12.261,12.261,0,0,1-.036-2.011q.029-.483.053-.966c.085-.02.17-.039.254-.06l.121-.029c.1-.025.2-.053.3-.08l.014,0,.18-.048h.006s.007,0,.009-.005l.17-.047a.27.27,0,0,0,.152-.037l.1-.017c.091-.094.232-.015.327-.095l.039-.026.046.007c.073-.047.168-.035.238-.091l.026-.028.037.005c.087-.033.192-.024.246-.1.07-.045.162-.033.227-.091l.056-.021h0c.085-.029.184-.027.244-.095a1.024,1.024,0,0,1,.181-.05.433.433,0,0,0,.2-.031,1.889,1.889,0,0,0,.081.349c.017.541.01,1.083.057,1.621.1,1.154.2,2.308.209,3.467a15.269,15.269,0,0,0,.06,1.68.523.523,0,0,0,.042.222c-.036.17-.065.341-.1.51-.258,1.17-.557,2.332-.742,3.521-.359,2.314-.8,4.614-1.151,6.93-.225,1.494-.3,3-.531,4.49-.376,2.461-.466,4.944-.612,7.422-.008.1-.016.2-.024.3a12.383,12.383,0,0,0-.151,2.886h0a20.725,20.725,0,0,0-.433,3.051c-.051.362-.1.723-.157,1.084.017-.561.035-1.121.068-1.681M1.161,21.212c-.012.014-.019.027-.032.041a.167.167,0,0,1,.032-.041M105.191,8.278h11.954a6.93,6.93,0,0,0,.776,1.051c.524.589,1.05,1.176,1.584,1.756a1.38,1.38,0,0,1,.381.966c0,.556-.007,1.112,0,1.669.013.731.034,1.461.05,2.192l-.012,0a5.081,5.081,0,0,0-1.571.37,2.1,2.1,0,0,0-.649.249l-.024.008-.064.036-.033,0-.017.007a.141.141,0,0,0-.049.02l-.018.007a.136.136,0,0,0-.031.041h0c-.019,0-.036,0-.054.005l-.026,0h-.007l0,0a.178.178,0,0,0-.057.013c-.094.044-.186.091-.28.136l-.039.017-.038.021q-.374.185-.736.392c-.038.021-.075.044-.112.067-.245.144-.487.295-.72.46l0,0a.21.21,0,0,0-.039.01.168.168,0,0,0-.042.01.133.133,0,0,0-.059.06c-.032.017-.066.032-.1.052a23.82,23.82,0,0,0-3.468,2.848.961.961,0,0,0-.314.273,5.21,5.21,0,0,0-.677.485,1.353,1.353,0,0,1-.24-.247.233.233,0,0,0-.106-.217.942.942,0,0,0,0-.1c-.011-.051,0-.116-.034-.151a7.029,7.029,0,0,1-.863-1.615,7.763,7.763,0,0,0-.805-1.646,12.934,12.934,0,0,0-1.066-2.128.221.221,0,0,0-.108-.212h0c-.078-.2-.242-.221-.423-.216h0l-.042-.018,0,0a1.368,1.368,0,0,0-.374-.161h0a7.306,7.306,0,0,0-1.6-.454,4.2,4.2,0,0,0-1.278-.211c-.221.017-.415-.137-.639-.1l-.205-.01c-.118-.145-.283-.092-.433-.1a7.38,7.38,0,0,0-2.45-.315,10.308,10.308,0,0,0-1.8-.116l-.023-1.438a2.861,2.861,0,0,0-.364-1.371,5.1,5.1,0,0,0-1.163-1.488c-.3-.275-.585-.557-.862-.85,3.129-.014,6.258-.039,9.387-.058m-37.9,9.893h-.021l-.059-.006-.033-.005.074-.04.039.052m-2.618-.538-.007-.01c-.013-.019-.028-.038-.039-.053l-.023-.031h.156a.368.368,0,0,1-.086.094M21.487,68.951l-.031.029-.057.061-.019.02v0a.461.461,0,0,1,.008-.1c0-.01,0-.019,0-.029a.532.532,0,0,1,.053-.135c.033.036.061.076.091.114l0,0c-.013.009-.029.023-.044.037m.9,108.459c.011,0,.013.006.015.018l-.015-.017h0M314.553,17.231h0a.045.045,0,0,1,.005.008l-.007-.007h0M247.5,14.456a5.7,5.7,0,0,0-1.764.415,2.413,2.413,0,0,0-.752.288h0l-.072.04-.037,0-.018.007a.167.167,0,0,0-.057.023l-.019.008,0,0c-.586.073-1.174.14-1.758.232a4,4,0,0,1-.836.1,2.319,2.319,0,0,0-1,.155c0-.028.01-.056.014-.083-.191-.13-.34-.093-.408.117-.023.07-.038.143-.056.214a2.582,2.582,0,0,0-.675.741,21.051,21.051,0,0,1-1.594,2.138,9.484,9.484,0,0,1-2.516,1.578c-.473.191-.952.375-1.416.587-.489-.388-.931-.836-1.4-1.243a13.277,13.277,0,0,0-1.335-1.272,7.97,7.97,0,0,0-1.213-.927.271.271,0,0,0-.21-.145,1.582,1.582,0,0,0-.605-.4.553.553,0,0,0-.2-.171c-.476-.315-.984-.566-1.483-.832a1.382,1.382,0,0,0-.212-.1.391.391,0,0,0-.138-.023.164.164,0,0,0-.158-.077.141.141,0,0,0-.036-.033c-.01-.008-.018-.022-.03-.027a.194.194,0,0,0-.086-.014,1.7,1.7,0,0,0-.267-.127l-.064-.025-.014-.006h-.005c-.081-.029-.162-.057-.243-.085a6.369,6.369,0,0,0-1.523-.272l-.051-3.2a2.86,2.86,0,0,0-.364-1.371,5.107,5.107,0,0,0-1.163-1.488q-.325-.3-.64-.618,6.8,0,13.607,0A27.4,27.4,0,0,0,239.5,8.5c1.959-.2,3.923-.281,5.887-.348a6.782,6.782,0,0,0,.773,1.048q.777.873,1.566,1.736a1.365,1.365,0,0,1,.377.955c0,.55-.007,1.1,0,1.65,0,.259.012.518.018.777a3.659,3.659,0,0,0-.618.134m110.039,6.756c-.012.014-.02.027-.032.041a.182.182,0,0,1,.032-.041M333.669,2.382a.283.283,0,0,1,.063.032c-.021-.012-.042-.019-.063-.032M40.128,2.477h-.01l0-.007.014.007M1.216,212.527l.007-.009h0v.005l-.007,0m92-204.179.577,0a6.747,6.747,0,0,0,.869,1.208c.524.589,1.05,1.176,1.584,1.756a1.38,1.38,0,0,1,.381.966c0,.443,0,.887,0,1.331a13.8,13.8,0,0,1-1.944.1.67.67,0,0,0-.212.015,31.078,31.078,0,0,1-3.245.4,8.54,8.54,0,0,0-1.655.317c-.148.013-.311-.043-.427.1-.147.017-.312-.036-.426.109a5.1,5.1,0,0,0-1.463.417c-.144.05-.209.178-.281.3-.178.3-.376.6-.544.9a8.092,8.092,0,0,0-1.013,2.535,3.915,3.915,0,0,0-.249.756.274.274,0,0,1,.179.361c-.112.32-.3.6-.428.916l-.1.239a.607.607,0,0,0,.134.25.2.2,0,0,1-.012.2,1.463,1.463,0,0,0-.189.271c-.258-.223-.515-.448-.781-.662a15,15,0,0,0-1.561-1.393A9.3,9.3,0,0,0,81,18.738a.32.32,0,0,0-.246-.158h0a1.859,1.859,0,0,0-.707-.437.629.629,0,0,0-.235-.186c-.556-.345-1.15-.62-1.735-.911a.846.846,0,0,0-.41-.134l-.007.005,0,0h0a.184.184,0,0,0-.179-.085.187.187,0,0,0-.178-.082h0a3.645,3.645,0,0,0-.695-.266,7.051,7.051,0,0,0-1.537-.275l-.063-3.934a2.861,2.861,0,0,0-.364-1.371A5.107,5.107,0,0,0,73.481,9.41c-.362-.336-.72-.68-1.051-1.045l-.01-.013q10.4,0,20.8,0M70.09,17.972l0,.007-.007.007s0-.009,0-.014m143.922,144.3.016.016v.018c-.005-.012-.012-.023-.016-.035M281.609,12.1a5.383,5.383,0,0,1-1.167.135,7.973,7.973,0,0,0-1.58.171h0a14.977,14.977,0,0,0-2.792.281,6.211,6.211,0,0,0-1.538.241,7.87,7.87,0,0,0-2.136.235c-.405.084-.844-.062-1.216.194a5.555,5.555,0,0,0-3.018,1.57c-.349.4-.651.839-.97,1.265a8.08,8.08,0,0,0-1.167,2.185A13.469,13.469,0,0,1,264.3,21.1a3.067,3.067,0,0,1-.7.656c-.221.138-.441.28-.662.421a5.577,5.577,0,0,1-2.1-1.688,11.168,11.168,0,0,1-.933-1.712,8.047,8.047,0,0,0-.772-1.641.249.249,0,0,0-.134-.22c.009-.138,0-.287-.263-.316-.026.06-.064.127-.087.2a.364.364,0,0,0-.177-.054c-.24-.3-.627-.24-.935-.377a7.976,7.976,0,0,0-3.122-.668.552.552,0,0,0-.291-.125,4.809,4.809,0,0,0-1.179-.144l-.534-.264a.808.808,0,0,0-.389-.128h0a.148.148,0,0,0-.078-.065.193.193,0,0,0-.028,0,.333.333,0,0,0-.069-.011.142.142,0,0,0-.04-.034c-.011-.009-.021-.024-.034-.029a.239.239,0,0,0-.1-.015,2.026,2.026,0,0,0-.3-.134l-.051-.019-.029-.011-.011,0-.265-.086a6.335,6.335,0,0,0-1.331-.248l-.044-2.71a2.823,2.823,0,0,0-.36-1.355,5.048,5.048,0,0,0-1.149-1.471q-.392-.364-.766-.75c3.953-.128,7.9.146,11.845.408,3.083.2,6.184.064,9.276.077a40.421,40.421,0,0,0,6.818.283,1.146,1.146,0,0,0,.917.226c1.085.009,2.17,0,3.256,0l.854.008c.013.014.024.03.037.044q.75.842,1.511,1.675a1.314,1.314,0,0,1,.364.921c0,.081,0,.163,0,.244a5.194,5.194,0,0,0-.64.119M357.6,212.527s0-.006.007-.009h0v.005l-.007,0M51.871,8.6c2.07,0,4.141-.037,6.211-.04.4,0,.822.088,1.171-.234,2.524.01,5.05.029,7.575.029H70.5a6.607,6.607,0,0,0,.981,1.426q.786.883,1.584,1.756a1.378,1.378,0,0,1,.381.966c0,.556-.007,1.112,0,1.669.012.666.03,1.333.046,2a3.841,3.841,0,0,0-.592.13,6.035,6.035,0,0,0-1.859.437h0a2.67,2.67,0,0,0-.872.346.177.177,0,0,0-.173.091l-.005,0a.589.589,0,0,0-.172.026c-.49.23-.969.479-1.433.753a10.686,10.686,0,0,0-1.7-.228.1.1,0,0,0-.076-.007.52.52,0,0,0-.166-.068,12.3,12.3,0,0,1-1.45-.189,3.735,3.735,0,0,0-1-.1.1.1,0,0,0-.08-.008.729.729,0,0,0-.474-.074l-.268-.021a1.132,1.132,0,0,0-.664-.073l-.274-.02A5.605,5.605,0,0,0,61.01,17c-1.053-.11-2.1-.255-3.161-.317-.57-.034-1.139-.085-1.707-.137l-.038,0c-.443-.041-.887-.083-1.331-.119a1.217,1.217,0,0,0-.589.009c0-.02,0-.036,0-.057l-.068-4.218a2.861,2.861,0,0,0-.364-1.371A5.1,5.1,0,0,0,52.59,9.3q-.367-.342-.719-.7M20.521,61.225c0,.048-.007.1-.009.143a.45.45,0,0,1,.009-.143m64.747,83.805v0h0l0,0m141.567,17.534h0a.447.447,0,0,0-.005.07l-.011,0c0-.022.009-.045.014-.067m81.6-151.031a1.38,1.38,0,0,1,.381.966c0,.556-.007,1.112,0,1.668.007.423.018.846.029,1.269a5.516,5.516,0,0,0-1.662.4,2.334,2.334,0,0,0-.733.28l-.007,0-.051.029-.019.01h0l-.036,0-.02.008a.161.161,0,0,0-.052.021l-.02.008a.145.145,0,0,0-.033.044h0c-.018,0-.034,0-.051.005l-.036,0h-.007l0,0a.22.22,0,0,0-.064.014c-.1.048-.2.1-.3.148l-.047.021-.047.025q-.407.2-.8.426l-.129.077c-.268.158-.533.323-.787.5l-.006,0a.221.221,0,0,0-.07.017c-.006,0-.014,0-.02,0a.143.143,0,0,0-.065.066c-.035.019-.072.036-.107.057-.331.21-.65.435-.962.667a17.345,17.345,0,0,0-2.01.693c-.234.09-.465.184-.7.279-.37-.584-.653-1.218-.964-1.835a8.526,8.526,0,0,0-2.887-3.266,7.826,7.826,0,0,0-2.767-1.089,7.018,7.018,0,0,0-2.225-.677c-1.43-.055-2.845-.288-4.278-.274a6.516,6.516,0,0,1-1.85-.217.985.985,0,0,0-.739.067q-.273-.015-.545-.026l-.007-.424a2.733,2.733,0,0,0-.347-1.308,4.362,4.362,0,0,0-.763-1.074c.3.011.594.019.891.011,2.678-.068,5.354-.119,8.033-.249,4.821-.234,9.653.05,14.479-.243a6.819,6.819,0,0,0,.818,1.124q.786.883,1.584,1.756" transform="translate(0 0)" fill="#40bbff"/>
          <path id="Caminho_770282" data-name="Caminho 770282" d="M181.746,43.073c-.02.073-.04.145-.064.217a1.548,1.548,0,0,0-.154.7q.108-.461.218-.921" transform="translate(-96.709 -22.948)" fill="#40bbff"/>
          <path id="Caminho_770283" data-name="Caminho 770283" d="M183.969,339.369l.041,0-.162-.042a.2.2,0,0,0,.121.039" transform="translate(-97.949 -180.786)" fill="#40bbff"/>
          <path id="Caminho_770284" data-name="Caminho 770284" d="M181.566,320.1v-.162a.145.145,0,0,0-.034.055.078.078,0,0,0,.034.107" transform="translate(-96.711 -170.457)" fill="#40bbff"/>
          <path id="Caminho_770285" data-name="Caminho 770285" d="M182.117,337.4a1.393,1.393,0,0,0,.045.563c.033.1.074.113.109.085-.11-.1-.141-.249-.15-.512l0-.135" transform="translate(-97.023 -179.76)" fill="#40bbff"/>
          <path id="Caminho_770286" data-name="Caminho 770286" d="M182.017,308.285a.576.576,0,0,0-.021.36l.018-.309,0-.051" transform="translate(-96.951 -164.246)" fill="#40bbff"/>
          <path id="Caminho_770287" data-name="Caminho 770287" d="M212.5,296.732c0,.088,0,.177,0,.265.049-.038.045-.114.046-.178a3.192,3.192,0,0,0-.02-.9c-.01.27-.019.542-.023.815" transform="translate(-113.215 -157.657)" fill="#40bbff"/>
          <path id="Caminho_770288" data-name="Caminho 770288" d="M182.165,304.161a.835.835,0,0,0-.035.686c.014-.225.025-.455.035-.686" transform="translate(-97 -162.049)" fill="#40bbff"/>
        </g>
      </g>
      <g id="Grupo_234013" data-name="Grupo 234013" transform="translate(-1 172.294)">
        <path id="Caminho_770806" data-name="Caminho 770806" d="M195.943,224.739l3.075-21.864,30.929-2.537v13.226s-9.645,5.979-10.806,5.979-23.2,5.2-23.2,5.2" transform="translate(-16.107 -25.465)"/>
        <path id="Caminho_770807" data-name="Caminho 770807" d="M109.168,109.942,126.982,114l12.973-3.638-3.537-14.525-14.054-16.9,9.141-3.206-2.1-8.625L112.907,85.2l-3.638,3.972-.029,6.653v.029l-.014,2.7Z" transform="translate(149.63 -8.53)" fill="#ffa694"/>
        <path id="Caminho_770793" data-name="Caminho 770793" d="M93.408,108.147s3.261,16.191,6.653,16.553,29.223.841,31.889.362,15.452-8.088,15.452-8.088l11.118-8.828-17.293-8.32-1.29-.623-1.464-.711-11.074.45-.594.03-11.726.477h-.072l-.957.392-3.392,1.363-.827.333-.594.246Z" transform="translate(144.821 -12.519)" fill="#ffa694"/>
        <path id="Caminho_770808" data-name="Caminho 770808" d="M118.368,99.365l4.8.753a21.554,21.554,0,0,0,12.8-3.246l.565-.348a20.587,20.587,0,0,0,5.117-4.508,19.625,19.625,0,0,0,3.087-5.538c.2-.565.739-3.9,1.13-5.479a6.589,6.589,0,0,1-2.043-1.536c-5.7,2.392-11.349,4.783-16.974,7.305l-3.638,3.972-.029,6.653v.03l-3.392,1.363-.826.333Z" transform="translate(135.689 -10.1)"/>
        <path id="Caminho_770796" data-name="Caminho 770796" d="M6.859,176.284l25.9,12.669,4.9,50.732H148l5.262-27.541,46.92-4.885s-16.292-59.242-35.513-76.1C152.448,120.42,137.345,113.39,128,109.693c-.566-.231-1.1-.435-1.609-.637-4.421-1.682-7.2-2.508-7.2-2.508A61.416,61.416,0,0,1,89.09,114.68c-16.814-.189-24.757-7.436-24.757-7.436s-3.1.768-7.262,1.986c-.551.16-1.116.319-1.7.507-6.9,2.058-15.742,5.1-18.8,7.842-5.262,4.7-29.715,58.705-29.715,58.705" transform="translate(178.709 -13.543)" fill="url(#linear-gradient-4)"/>
        <path id="Caminho_770818" data-name="Caminho 770818" d="M229.733,222.032l-3.774-7.852s-19.055-2.959-29.565,6.706,7.067,24.763,7.067,24.763,19.1.582,20.6.5,5.668-24.121,5.668-24.121" transform="translate(-13.363 -27.17)"/>
        <path id="Caminho_770819" data-name="Caminho 770819" d="M166.386,234.46c.067-.461,3.8-1.559,4.332-1.739a14.818,14.818,0,0,1,5.352-1.03c4.131.21,4.029,4.457,1.886,6.573a14.311,14.311,0,0,1-4.866,2.858c-8.141,3.178-6.706-6.643-6.7-6.662" transform="translate(60.313 -29.449)"/>
        <path id="Caminho_770820" data-name="Caminho 770820" d="M136.763,232.315c-.067-.462-3.8-1.559-4.332-1.739a14.816,14.816,0,0,0-5.352-1.03c-4.131.21-4.029,4.457-1.886,6.572a14.328,14.328,0,0,0,4.866,2.86c8.141,3.177,6.706-6.644,6.7-6.663" transform="translate(140.008 -29.176)"/>
        <path id="Caminho_770821" data-name="Caminho 770821" d="M177.394,247.837a46.825,46.825,0,0,1,5.566-.536c.464-.03.957-.073,1.464-.1,2.232-.159,4.827-.319,7.465-.478l1.464-.086c2.624-.16,5.262-.32,7.61-.45.507-.029.985-.058,1.464-.087l.763-.043a5.652,5.652,0,0,0,5.249-6.617c-.8-4.592-2.016-10.449-3.373-12.982-1.755-3.276-4.812-2.319-6.32-1.58a6.947,6.947,0,0,0-.885.507,6.979,6.979,0,0,0-.927-2.493,4.763,4.763,0,0,0-4.16-2.377,4,4,0,0,0-4.219,3.2v.014a6.7,6.7,0,0,0-.26,1.652,5.183,5.183,0,0,0-1.088-1.058,4.565,4.565,0,0,0-4.145-.753c-2.189.652-2.377,3.986-2.276,6.116v.03a17.152,17.152,0,0,0,.189,1.811,4.666,4.666,0,0,0-1.435-.667,3.393,3.393,0,0,0-3.653,1.088c-2.233,2.508,1.058,16.307,1.507,15.887" transform="translate(23.496 -28.029)" fill="#ffa694"/>
        <path id="Caminho_770822" data-name="Caminho 770822" d="M29.49,220.538c-3.443-.544-11.053,6.734-13.136,11.173s-1.812,14.224-1.812,14.224H39.183l19.3,4.439h60.155L113.2,221.927l-34.788,4.711-1.369,7.173s-44.11-12.728-47.552-13.272" transform="translate(253.558 -28.029)" fill="#ffa694"/>
        <path id="Caminho_770823" data-name="Caminho 770823" d="M117.487,248.275a.725.725,0,0,0,.719-.649,66.969,66.969,0,0,1,1.786-9.656c1.131-3.846,6.143-7.935,6.193-7.976a.725.725,0,0,0-.911-1.127c-.221.178-5.415,4.419-6.671,8.693a67.426,67.426,0,0,0-1.837,9.913.724.724,0,0,0,.644.8.576.576,0,0,0,.078,0" transform="translate(156.503 -29.071)" fill="#4f332e"/>
        <path id="Caminho_770824" data-name="Caminho 770824" d="M109.552,252.149a.725.725,0,0,0,.719-.649,66.992,66.992,0,0,1,1.786-9.656c1.13-3.839,6.143-7.935,6.193-7.976a.725.725,0,0,0-.911-1.127c-.221.178-5.415,4.419-6.671,8.693a67.424,67.424,0,0,0-1.837,9.913.724.724,0,0,0,.644.8.743.743,0,0,0,.078,0" transform="translate(171.365 -29.563)" fill="#4f332e"/>
        <path id="Caminho_770825" data-name="Caminho 770825" d="M102.54,256.354a.725.725,0,0,0,.719-.648,66.856,66.856,0,0,1,1.786-9.656c1.13-3.839,6.143-7.935,6.193-7.976a.725.725,0,1,0-.911-1.127c-.221.178-5.415,4.419-6.672,8.693a67.072,67.072,0,0,0-1.837,9.913.724.724,0,0,0,.644.8.77.77,0,0,0,.078,0" transform="translate(184.498 -30.098)" fill="#4f332e"/>
        <path id="Caminho_770826" data-name="Caminho 770826" d="M80.314,257.287H227.8V254.3a5.65,5.65,0,0,0-5.65-5.65H85.965a5.65,5.65,0,0,0-5.651,5.65Z" transform="translate(86.969 -31.606)"/>
        <path id="Caminho_770827" data-name="Caminho 770827" d="M235.942,253.983h65.767V252.23a3.32,3.32,0,0,0-3.32-3.32H235.942Z" transform="translate(-122.784 -31.639)" fill="#b4b2c2"/>
        <path id="Caminho_770797" data-name="Caminho 770797" d="M168.812,92.512l18.1,91.784a9.1,9.1,0,0,0,8.929,7.334H351.16a9.077,9.077,0,0,0,5.016-1.493,8.519,8.519,0,0,0,1.261-1.029,9.034,9.034,0,0,0,2.667-8.335L342,88.99a9.018,9.018,0,0,0-2.784-4.943,7.334,7.334,0,0,0-1.144-.884,9.067,9.067,0,0,0-5-1.507H177.74a9.062,9.062,0,0,0-7.928,4.667,6.488,6.488,0,0,0-.652,1.45,8.992,8.992,0,0,0-.348,4.74" transform="translate(-122.605 -10.379)" fill="#b4b2c2"/>
        <path id="Caminho_770816" data-name="Caminho 770816" d="M259.533,243.005h30.44l8.4-61.457H267.932Z" transform="translate(-140.039 -23.077)" fill="#b4b2c2"/>
        <path id="Caminho_770817" data-name="Caminho 770817" d="M256.969,204.13h1.507l3.7-22.685H292.8l-3.16,22.685h1.493l3.262-23.308a.747.747,0,0,0-.739-.827H261.535a.749.749,0,0,0-.739.609Z" transform="translate(-133.831 -22.879)"/>
        <path id="Caminho_770798" data-name="Caminho 770798" d="M171.9,88.452H334.038a4.79,4.79,0,0,1,4.667,3.812l20.207,98.553a8.472,8.472,0,0,0,1.26-1.029L340.125,91.974A6.235,6.235,0,0,0,334.038,87H172.548a6.572,6.572,0,0,0-.653,1.45" transform="translate(-125.341 -11.059)"/>
        <path id="Caminho_770801" data-name="Caminho 770801" d="M362.321,117.048a.75.75,0,0,0,.146-.015.726.726,0,0,0,.566-.855l-3.443-16.85a.725.725,0,0,0-1.421.29l3.443,16.851a.725.725,0,0,0,.709.58" transform="translate(-290.8 -12.552)" fill="#4f332e"/>
        <path id="Caminho_770802" data-name="Caminho 770802" d="M355.556,117.048a.751.751,0,0,0,.146-.015.726.726,0,0,0,.566-.855l-3.443-16.85a.725.725,0,0,0-1.421.29l3.443,16.851a.725.725,0,0,0,.709.58" transform="translate(-278.13 -12.552)" fill="#4f332e"/>
        <path id="Caminho_770803" data-name="Caminho 770803" d="M348.79,117.048a.751.751,0,0,0,.146-.015.726.726,0,0,0,.566-.855l-3.443-16.85a.725.725,0,0,0-1.421.29l3.443,16.851a.725.725,0,0,0,.709.58" transform="translate(-265.458 -12.552)" fill="#4f332e"/>
        <path id="Caminho_770804" data-name="Caminho 770804" d="M193.062,89.108a.623.623,0,0,0,.377.13.74.74,0,0,0,.637-.29l3.451-4.681a7.345,7.345,0,0,0-1.145-.884l-3.479,4.71a.739.739,0,0,0,.16,1.015" transform="translate(19.085 -10.599)"/>
        <path id="Caminho_770828" data-name="Caminho 770828" d="M0,271.14H325.839a.993.993,0,0,0,1.095-.843V255.565a.994.994,0,0,0-1.095-.843H0Z" transform="translate(57.943 -32.378)" fill="#a64c38"/>
        <path id="Caminho_770829" data-name="Caminho 770829" d="M88.15,249.467s4.953-5.677,6.885-5.677,5.073,5.677,5.073,5.677Z" transform="translate(207.823 -30.988)"/>
        <path id="Caminho_770830" data-name="Caminho 770830" d="M202.457,232.2l3.422,16.437.26,1.233a.73.73,0,0,0,.711.565.611.611,0,0,0,.159-.014.708.708,0,0,0,.55-.855l-.216-1.029L203.7,231.059a17.2,17.2,0,0,0,.188,1.812,4.649,4.649,0,0,0-1.436-.667" transform="translate(0.578 -29.37)" fill="#4f332e"/>
        <path id="Caminho_770831" data-name="Caminho 770831" d="M192.349,224.794l4.682,22.395.159.768a.717.717,0,0,0,.711.566.529.529,0,0,0,.145-.015.728.728,0,0,0,.566-.855l-.116-.551-4.8-22.9a6.694,6.694,0,0,0-.26,1.652,5.184,5.184,0,0,0-1.088-1.058" transform="translate(18.354 -28.498)" fill="#4f332e"/>
        <path id="Caminho_770832" data-name="Caminho 770832" d="M181.792,223.237l4.03,23.294.29,1.71a.74.74,0,0,0,.71.609c.044,0,.087-.015.131-.015a.745.745,0,0,0,.594-.841l-.261-1.551L183.6,225.223a6.888,6.888,0,0,0-.884.507,6.991,6.991,0,0,0-.928-2.493" transform="translate(38.637 -28.376)" fill="#4f332e"/>
        <path id="Caminho_770833" data-name="Caminho 770833" d="M40.856,220.834a.723.723,0,0,0,.672-.455l16.911-42.156a.725.725,0,1,0-1.345-.539L40.184,219.84a.724.724,0,0,0,.672.994" transform="translate(291.356 -22.527)"/>
        <path id="Caminho_770834" data-name="Caminho 770834" d="M54.556,210.732a.724.724,0,0,0,.724-.709l.539-25a.725.725,0,0,0-.709-.74.742.742,0,0,0-.741.71l-.539,25a.725.725,0,0,0,.709.74Z" transform="translate(282.067 -23.424)"/>
        <path id="Caminho_770805" data-name="Caminho 770805" d="M89.556,110.1a54.113,54.113,0,0,0,31.295,11.64c1.349.072,2.668.115,3.958.115a63.749,63.749,0,0,0,37.368-11.8c-.566-.232-1.1-.435-1.609-.637a62.73,62.73,0,0,1-39.63,10.871,52.874,52.874,0,0,1-29.686-10.7c-.551.159-1.116.319-1.7.507" transform="translate(144.527 -13.908)"/>
        <rect id="Retângulo_124953" data-name="Retângulo 124953" width="384.877" height="243.674" transform="translate(0 0)" fill="none"/>
        <g id="Grupo_234016" data-name="Grupo 234016" transform="translate(217.642 7.728)">
          <path id="Caminho_770778" data-name="Caminho 770778" d="M79.333,49.523a9.1,9.1,0,0,0-6.2-2.019c-3.62.277-6.214,2.891-8.81,4.575-5.818,3.775-17.7,10.39-24.934,4.921-2.446-1.849-2.678-4.589-5.542-6.238-2.028-1.168-6.664-2.96-9.274-2.394-2.47.537-4.442,3.434-5.5,5.1a10.674,10.674,0,0,0-1.8,7.677,11.346,11.346,0,0,0,1.537,3.466c1,1.762-.156,2.232-.515,3.753a1.693,1.693,0,0,0,.393,1.553A6.663,6.663,0,0,1,14.213,66.6c-.292-.566-1.488-.319-1.193.254a7.793,7.793,0,0,0,5.088,3.967c3.613.969,7.219-.62,10.886.415,2.991.845,5.563,2.3,8.821,2.523,4.238.287,8.266-1.262,12.495-1.137,1.831.053,3.607.438,5.45.314C57.8,72.8,59.683,72.07,61.744,72c1.671-.06,3.32.435,4.992.292,1.955-.167,3.193-1.192,5.05-1.575,2.966-.613,5.091.453,7.4-1.663a14.625,14.625,0,0,0,3.854-6.534c1.33-4.4.587-9.651-3.7-12.992" transform="translate(0.16 0.587)" fill="#ffe3d1"/>
          <path id="Caminho_770781" data-name="Caminho 770781" d="M71.026,19.675C65.274,11.72,55.965,6.268,46.2,6.589,15.1,7.612,19.709,47.049,30.715,65.08c1.751,2.87,4.807,5.324,7.531,7.517,2.757,2.22,5.742,4.294,9.1,5.132,6.56,1.638,11.215-1.577,15.627-5.721a35.928,35.928,0,0,0,5.622-5.845c6.048-8.829,7.859-19.348,6.957-29.684-.348-4-3.153-14.909-4.523-16.8" transform="translate(0.277 0.081)" fill="#ffa694"/>
          <path id="Caminho_770784" data-name="Caminho 770784" d="M38.456,35.94a4.714,4.714,0,0,0-3.39-1.308,7.857,7.857,0,0,0-3.92,1.342c-.83.56-4.193,3.383-1.444,3.544a5.184,5.184,0,0,0,1.7-.307,19.562,19.562,0,0,1,4.873-.731c.894-.02,2-.075,2.4-.7a1.423,1.423,0,0,0-.217-1.839" transform="translate(4.634 0.428)" fill="#ffe3d1"/>
          <path id="Caminho_770785" data-name="Caminho 770785" d="M55.035,36.833c.456.637,1.51.536,2.359.428a15.93,15.93,0,0,1,4.7.1,4.259,4.259,0,0,0,1.644.093c2.581-.579-.95-3.22-1.806-3.72a6.575,6.575,0,0,0-3.875-.918,4.373,4.373,0,0,0-3.045,1.946,1.8,1.8,0,0,0,.022,2.071" transform="translate(0.677 0.405)" fill="#ffe3d1"/>
          <path id="Caminho_770787" data-name="Caminho 770787" d="M92.371,53.1a9.6,9.6,0,0,0,.942-2.914c.314-2.778-1.012-4.863-1.772-7.449-.881-3.023-.03-6.147-.7-9.189-.547-2.577-2.339-4.244-3.7-6.457s-1.923-4.827-3.169-7.1a33.947,33.947,0,0,0-4.11-5.947c-2.642-3.087-6.317-6.639-10.5-8.351A29.058,29.058,0,0,0,58.183,1.1c-5.2-1.02-12.614-2.04-17.656.437-8.15.2-16.157,5.428-21.847,10.172-3.037,2.523-4.971,5.437-5.143,9.189-.142,3.142.152,5.81-1.812,8.615C10.451,31.327,8.861,32.9,7.92,34.888a10.184,10.184,0,0,0-.962,5.51c.2,1.858,1.134,3.215-.354,5.182a25.946,25.946,0,0,1-2.278,2.076C1.744,50.314-.4,53.729.064,57.372c.1.774.445,1.475.6,2.231.3,1.475-.375,2.7-.425,4.107a4.474,4.474,0,0,0,1,3.242,6.4,6.4,0,0,0,4.019,2.258c.344.055.709.1,1.073.128.324.027.658.046.992.046a4.2,4.2,0,0,0,1.033.392,8.019,8.019,0,0,0,2.177.2c.354,0,.729-.018,1.083-.018a7.068,7.068,0,0,1,3.047.5,3.34,3.34,0,0,0,.709.282,3.272,3.272,0,0,0,.992.073c2.217-.073,4.91.51,5.77-1.912.243-.683.658-2.295.233-2.987-.061-.109-.172-.191-.233-.31-.283-.637.8-1.32,1.195-1.657a28.427,28.427,0,0,0,2.683-2.195A4.525,4.525,0,0,0,27.236,58.8c.071-1.484-.648-2.887-1.012-4.307-.729-2.878.364-4.344,1.306-6.921,1.357-3.716-.577-7.886-.921-11.647a42.957,42.957,0,0,1,.364-10.509,5.819,5.819,0,0,0,1.67.109,125.208,125.208,0,0,0,19.488-.974c1.4-.009,4.051-4.272,4.736-5.487,5.086,2.367,5.227,5.011,9.143,6.461.227,0,7.255.987,8.006.812a22.448,22.448,0,0,1,1.662,9.669c-.01,2.14-.628,4.408-.2,6.529.324,1.676,1.438,3.042,2.055,4.626,1.468,3.743-1.508,7.258.061,11.1,1.083,2.668.85,4.371.5,7.1a5.988,5.988,0,0,0,.79,4.335.623.623,0,0,0,.8.191c1.508.847,3.867.883,5.649.847,2.8-.027,9.01.2,10.7-2.368.931-1.4-.152-2.422,1.114-4.062.931-1.184,1.741-1.712,2.015-3.278.506-2.932-1.255-5.4-2.784-7.932" transform="translate(0 0)" fill="#ffe3d1"/>
          <path id="Caminho_770835" data-name="Caminho 770835" d="M.2,4.017C.724,5.88,2.094,7.124,3.26,6.8s1.689-2.1,1.167-3.965S2.536-.275,1.37.052-.32,2.155.2,4.017" transform="translate(59.076 39.672) rotate(16)"/>
          <path id="Caminho_770839" data-name="Caminho 770839" d="M.2,4.017C.724,5.88,2.094,7.124,3.26,6.8s1.689-2.1,1.167-3.965S2.536-.275,1.37.052-.32,2.155.2,4.017" transform="translate(38.19 39.672) rotate(16)"/>
          <path id="Caminho_770836" data-name="Caminho 770836" d="M142.382,67.094c.569-.841,1.775.182,1.209,1.018a8.112,8.112,0,0,0-1.061,1.818c-.534,1.154-.47,3.156,1.276,3.035,1.014-.071,1.171,1.5.155,1.572a3.128,3.128,0,0,1-3.342-2.874c-.2-1.9.635-2.9,1.763-4.57" transform="translate(-94.154 -19.845)"/>
          <path id="Caminho_770837" data-name="Caminho 770837" d="M123.955,37.419c.079.537,1.356.3,1.483.81,2.259-3.824,5.77-10.6,8.03-14.42.41-.7.821-1.406,1.232-2.1a13.022,13.022,0,0,0-1.2-1.075c-.522.869-1.027,1.754-1.548,2.623" transform="translate(-71.174 -18.214)" fill="#ffa694"/>
          <path id="Caminho_770840" data-name="Caminho 770840" d="M46.794,65.373H60.173" transform="translate(-2.989 -2.183)" fill="none" stroke="#000" stroke-linecap="round" stroke-width="2"/>
        </g>
      </g>
    </g>
  </g>
</svg>
