<svg xmlns="http://www.w3.org/2000/svg" width="326.873" height="401.497" viewBox="0 0 326.873 401.497">
  <g id="_img_Grafico_12-mob_" data-name="&lt;img Grafico_12-mob&gt;" transform="translate(-16 -7786.06)">
    <path id="Caminho_772640" data-name="Caminho 772640" d="M6.27,23.33c3.432,0,5.962-1.562,5.962-4.862,0-5.588-7.59-3.718-7.59-6.8,0-1.408,1.562-1.738,2.75-1.738a6.137,6.137,0,0,1,3.322.968l1.144-2.288A9.151,9.151,0,0,0,7.018,7.27c-2.9,0-5.742,1.32-5.742,4.532,0,5.566,7.59,3.7,7.59,6.886,0,1.232-1.056,1.958-2.772,1.958A8.23,8.23,0,0,1,1.716,19.3L.484,21.658A10.465,10.465,0,0,0,6.27,23.33Zm13.508,0a7.084,7.084,0,0,0,2.464-.462l-.638-2.42a3.145,3.145,0,0,1-1.1.22c-1.144,0-1.694-.682-1.694-2.046v-3.96h3.014V12.22H18.81V8.854H16.764l-.22,1.188c-.33,1.738-.506,2.178-2.486,2.178h-.33v2.442h2V19.15C15.73,21.724,17.094,23.33,19.778,23.33ZM29.986,11.89c-4.356,0-6.226,3.168-6.226,6.424,0,2.948,1.518,5.016,4.026,5.016,2.024,0,3.278-1.43,4.048-3.388L31.5,23h3.1V13.3A8.088,8.088,0,0,0,29.986,11.89Zm-1.254,8.954c-.99,0-1.76-.638-1.76-2.64,0-1.518.528-3.96,2.97-3.96a3.61,3.61,0,0,1,1.54.374C31.306,17.5,30.668,20.844,28.732,20.844ZM42.746,23.33a7.084,7.084,0,0,0,2.464-.462l-.638-2.42a3.145,3.145,0,0,1-1.1.22c-1.144,0-1.694-.682-1.694-2.046v-3.96h3.014V12.22H41.778V8.854H39.732l-.22,1.188c-.33,1.738-.506,2.178-2.486,2.178H36.7v2.442h2V19.15C38.7,21.724,40.062,23.33,42.746,23.33ZM57.86,12.22h-3.1c0,3.5-.11,8.448-2.75,8.448-1.364,0-1.628-1.43-1.628-2.354V12.22H47.3v7.106a3.685,3.685,0,0,0,3.916,4A4,4,0,0,0,55,20.536L54.758,23h3.1Zm6.732,11.11c2.662,0,4.6-1.144,4.6-3.63,0-3.828-5.566-2.706-5.566-4.4,0-.7.88-.9,1.694-.9a5.752,5.752,0,0,1,2.684.66L69.058,12.9A8.551,8.551,0,0,0,65.01,11.89c-2.222,0-4.488.924-4.488,3.388,0,4.026,5.588,2.86,5.588,4.642,0,.594-.594.924-1.672.924a6.735,6.735,0,0,1-3.344-.946l-1.122,2.244A9.414,9.414,0,0,0,64.592,23.33Zm20.13-11.308A8.474,8.474,0,0,0,83.2,11.89c-4.356,0-6.226,3.168-6.226,6.424,0,2.948,1.518,5.016,4.026,5.016,2.024,0,3.278-1.452,4.048-3.41L84.722,23h3.1V7.072h-3.1ZM81.95,20.844c-.99,0-1.76-.638-1.76-2.64,0-1.518.528-3.96,2.97-3.96a3.61,3.61,0,0,1,1.54.374C84.524,17.5,83.886,20.844,81.95,20.844ZM95.744,23.33a5.441,5.441,0,0,0,5.632-5.72,5.644,5.644,0,1,0-11.286,0A5.446,5.446,0,0,0,95.744,23.33Zm0-2.508c-1.628,0-2.464-1.5-2.464-3.212s.836-3.212,2.464-3.212c1.606,0,2.442,1.5,2.442,3.212S97.35,20.822,95.744,20.822ZM107.36,23.33c2.662,0,4.6-1.144,4.6-3.63,0-3.828-5.566-2.706-5.566-4.4,0-.7.88-.9,1.694-.9a5.752,5.752,0,0,1,2.684.66l1.056-2.156a8.551,8.551,0,0,0-4.048-1.012c-2.222,0-4.488.924-4.488,3.388,0,4.026,5.588,2.86,5.588,4.642,0,.594-.594.924-1.672.924a6.735,6.735,0,0,1-3.344-.946l-1.122,2.244A9.414,9.414,0,0,0,107.36,23.33Zm19.734-11.44c-2.046,0-3.322,1.474-4.07,3.454l.33-3.124h-3.08V27.708h3.08V23.2a8.724,8.724,0,0,0,1.54.132c4.356,0,6.226-3.168,6.226-6.424C131.12,13.958,129.6,11.89,127.094,11.89Zm-2.156,9.086a3.631,3.631,0,0,1-1.562-.374c.176-2.882.814-6.248,2.772-6.248.968,0,1.76.66,1.76,2.64C127.908,18.534,127.358,20.976,124.938,20.976Zm15.62-9.086c-2.376,0-3.564,1.76-4.18,4.114l.374-3.784h-3.08V23h3.08c0-3.564.22-7.92,3.146-7.92a3.491,3.491,0,0,1,1.1.2l.814-3.212A4.544,4.544,0,0,0,140.558,11.89Zm7.81,11.44A5.441,5.441,0,0,0,154,17.61a5.644,5.644,0,1,0-11.286,0A5.446,5.446,0,0,0,148.368,23.33Zm0-2.508c-1.628,0-2.464-1.5-2.464-3.212s.836-3.212,2.464-3.212c1.606,0,2.442,1.5,2.442,3.212S149.974,20.822,148.368,20.822Zm15.18-8.8a8.474,8.474,0,0,0-1.518-.132c-4.356,0-6.226,3.168-6.226,6.424,0,2.948,1.518,5.016,4.026,5.016,2.024,0,3.278-1.452,4.048-3.41l-.33,3.08h3.1V7.072h-3.1Zm-2.772,8.822c-.99,0-1.76-.638-1.76-2.64,0-1.518.528-3.96,2.97-3.96a3.61,3.61,0,0,1,1.54.374C163.35,17.5,162.712,20.844,160.776,20.844Zm19.25-8.624h-3.1c0,3.5-.11,8.448-2.75,8.448-1.364,0-1.628-1.43-1.628-2.354V12.22h-3.08v7.106a3.685,3.685,0,0,0,3.916,4,4,4,0,0,0,3.784-2.794L176.924,23h3.1Zm8.14,11.11a7.084,7.084,0,0,0,2.464-.462l-.638-2.42a3.145,3.145,0,0,1-1.1.22c-1.144,0-1.694-.682-1.694-2.046v-3.96h3.014V12.22H187.2V8.854h-2.046l-.22,1.188c-.33,1.738-.506,2.178-2.486,2.178h-.33v2.442h2V19.15C184.118,21.724,185.482,23.33,188.166,23.33Zm9.438,0a5.441,5.441,0,0,0,5.632-5.72,5.644,5.644,0,1,0-11.286,0A5.446,5.446,0,0,0,197.6,23.33Zm0-2.508c-1.628,0-2.464-1.5-2.464-3.212s.836-3.212,2.464-3.212c1.606,0,2.442,1.5,2.442,3.212S199.21,20.822,197.6,20.822ZM209.22,23.33c2.662,0,4.6-1.144,4.6-3.63,0-3.828-5.566-2.706-5.566-4.4,0-.7.88-.9,1.694-.9a5.752,5.752,0,0,1,2.684.66l1.056-2.156a8.551,8.551,0,0,0-4.048-1.012c-2.222,0-4.488.924-4.488,3.388,0,4.026,5.588,2.86,5.588,4.642,0,.594-.594.924-1.672.924a6.735,6.735,0,0,1-3.344-.946L204.6,22.142A9.414,9.414,0,0,0,209.22,23.33Z" transform="translate(16 7778.988)"/>
    <path id="Caminho_772641" data-name="Caminho 772641" d="M7.29-1.98c-2.34,0-3.744-1.854-3.744-4.32s1.4-4.32,3.744-4.32a4.3,4.3,0,0,1,2.5.792l1.17-1.836a6.515,6.515,0,0,0-3.87-1.206c-3.942,0-6.3,2.79-6.3,6.57C.792-2.5,3.15.27,7.092.27a6.474,6.474,0,0,0,3.87-1.206L9.792-2.772A4.42,4.42,0,0,1,7.29-1.98ZM17.478-9.09c-3.564,0-5.094,2.592-5.094,5.256,0,2.412,1.242,4.1,3.294,4.1C17.334.27,18.36-.9,18.99-2.5L18.72,0h2.538V-7.938A6.617,6.617,0,0,0,17.478-9.09ZM16.452-1.764c-.81,0-1.44-.522-1.44-2.16,0-1.242.432-3.24,2.43-3.24a2.954,2.954,0,0,1,1.26.306C18.558-4.5,18.036-1.764,16.452-1.764ZM34.974-9.09a3.238,3.238,0,0,0-3.042,2.214A2.62,2.62,0,0,0,29.214-9.09a3.328,3.328,0,0,0-3.132,2.412L26.3-8.82h-2.52V0H26.3c0-2.844.126-6.912,2.124-6.912.99,0,1.1,1.08,1.1,1.926V0h2.538c0-2.826.108-6.912,2.106-6.912,1.008,0,1.116,1.08,1.116,1.926V0H37.8V-5.688C37.8-7.83,36.774-9.09,34.974-9.09Zm6.462-.972a1.65,1.65,0,0,0,1.692-1.71A1.654,1.654,0,0,0,41.436-13.5a1.658,1.658,0,0,0-1.71,1.728A1.654,1.654,0,0,0,41.436-10.062ZM42.7,0V-8.82h-2.52V0ZM48.2.27c2.178,0,3.762-.936,3.762-2.97,0-3.132-4.554-2.214-4.554-3.6,0-.576.72-.738,1.386-.738a4.706,4.706,0,0,1,2.2.54l.864-1.764a7,7,0,0,0-3.312-.828c-1.818,0-3.672.756-3.672,2.772,0,3.294,4.572,2.34,4.572,3.8,0,.486-.486.756-1.368.756a5.51,5.51,0,0,1-2.736-.774L44.424-.7A7.7,7.7,0,0,0,48.2.27Zm10.3-2a2.327,2.327,0,0,1-2.394-1.728l5.4-.63a4.651,4.651,0,0,0,.234-1.476A3.452,3.452,0,0,0,57.96-9.09a4.3,4.3,0,0,0-4.41,4.644A4.455,4.455,0,0,0,58.32.27a5.429,5.429,0,0,0,3.2-.99l-.936-1.638A4.04,4.04,0,0,1,58.5-1.728Zm-.4-5.418c.792,0,1.368.414,1.368,1.188a1.391,1.391,0,0,1-.054.45L56-5.094A2.159,2.159,0,0,1,58.1-7.146ZM67.9.27a5.8,5.8,0,0,0,2.016-.378l-.522-1.98a2.573,2.573,0,0,1-.9.18c-.936,0-1.386-.558-1.386-1.674v-3.24H69.57v-2H67.1v-2.754H65.43l-.18.972c-.27,1.422-.414,1.782-2.034,1.782h-.27v2h1.638V-3.15C64.584-1.044,65.7.27,67.9.27Zm8.352-9.36c-3.564,0-5.094,2.592-5.094,5.256,0,2.412,1.242,4.1,3.294,4.1C76.1.27,77.13-.9,77.76-2.5L77.49,0h2.538V-7.938A6.617,6.617,0,0,0,76.248-9.09ZM75.222-1.764c-.81,0-1.44-.522-1.44-2.16,0-1.242.432-3.24,2.43-3.24a2.954,2.954,0,0,1,1.26.306C77.328-4.5,76.806-1.764,75.222-1.764ZM85.536.27C87.714.27,89.3-.666,89.3-2.7c0-3.132-4.554-2.214-4.554-3.6,0-.576.72-.738,1.386-.738a4.706,4.706,0,0,1,2.2.54l.864-1.764a7,7,0,0,0-3.312-.828c-1.818,0-3.672.756-3.672,2.772,0,3.294,4.572,2.34,4.572,3.8,0,.486-.486.756-1.368.756a5.51,5.51,0,0,1-2.736-.774L81.756-.7A7.7,7.7,0,0,0,85.536.27Zm15.228-9.36C97.2-9.09,95.67-6.5,95.67-3.834c0,2.412,1.242,4.1,3.294,4.1,1.656,0,2.682-1.17,3.312-2.772l-.27,2.5h2.538V-7.938A6.617,6.617,0,0,0,100.764-9.09ZM99.738-1.764c-.81,0-1.44-.522-1.44-2.16,0-1.242.432-3.24,2.43-3.24a2.954,2.954,0,0,1,1.26.306C101.844-4.5,101.322-1.764,99.738-1.764ZM112.716-9.09a3.511,3.511,0,0,0-3.348,2.574l.216-2.3h-2.52V0h2.52c0-2.862.162-6.912,2.358-6.912,1.116,0,1.224,1.188,1.224,1.926V0H115.7V-5.688C115.7-7.812,114.606-9.09,112.716-9.09Zm9.4,9.36a4.452,4.452,0,0,0,4.608-4.68,4.442,4.442,0,0,0-4.608-4.68,4.446,4.446,0,0,0-4.626,4.68A4.456,4.456,0,0,0,122.112.27Zm0-2.052c-1.332,0-2.016-1.224-2.016-2.628s.684-2.628,2.016-2.628c1.314,0,2,1.224,2,2.628S123.426-1.782,122.112-1.782Zm9.5,2.052c2.178,0,3.762-.936,3.762-2.97,0-3.132-4.554-2.214-4.554-3.6,0-.576.72-.738,1.386-.738a4.706,4.706,0,0,1,2.2.54l.864-1.764a7,7,0,0,0-3.312-.828c-1.818,0-3.672.756-3.672,2.772,0,3.294,4.572,2.34,4.572,3.8,0,.486-.486.756-1.368.756a5.51,5.51,0,0,1-2.736-.774L127.836-.7A7.7,7.7,0,0,0,131.616.27Zm14.2.018c4.086,0,5.76-3.312,5.76-6.984,0-4.23-2.34-6.174-5.184-6.174a4.3,4.3,0,0,0-4.626,4.356,4,4,0,0,0,4.194,4.176,3.1,3.1,0,0,0,2.97-1.494c-.162,2.574-1.062,3.942-3.24,3.942a5.377,5.377,0,0,1-2.7-.774L141.966-.81A7.064,7.064,0,0,0,145.818.288Zm.648-6.8a1.987,1.987,0,0,1-2-2.106,1.957,1.957,0,0,1,2-2.07,1.951,1.951,0,0,1,2.016,2.07A1.98,1.98,0,0,1,146.466-6.516ZM158.994.27c3.528,0,5.6-2.862,5.6-6.57s-2.07-6.57-5.6-6.57c-3.546,0-5.616,2.862-5.616,6.57S155.448.27,158.994.27Zm0-2.25c-2.034,0-2.862-2.2-2.862-4.32s.828-4.32,2.862-4.32,2.862,2.2,2.862,4.32S161.028-1.98,158.994-1.98Z" transform="translate(116.001 7861.337)" fill="#2f2e33"/>
    <path id="Caminho_772643" data-name="Caminho 772643" d="M3.942,19V11.242L9.738,19h2.124V6.4H9.306v7.74L3.51,6.4H1.4V19ZM18,19.27a4.452,4.452,0,0,0,4.608-4.68A4.442,4.442,0,0,0,18,9.91a4.446,4.446,0,0,0-4.626,4.68A4.456,4.456,0,0,0,18,19.27Zm0-2.052c-1.332,0-2.016-1.224-2.016-2.628s.684-2.628,2.016-2.628c1.314,0,2,1.224,2,2.628S19.314,17.218,18,17.218Zm10.944-6.606a8.535,8.535,0,0,1,.882,3.582c0,1.476-.558,2.97-2.034,2.97-.954,0-1.44-.612-1.44-1.782v-5.2h-2.52v5.472c0,2.124,1.53,3.6,3.942,3.6,3.1,0,4.626-2.394,4.626-5.058a11.541,11.541,0,0,0-.99-4.266Zm9.72-.7c-3.564,0-5.094,2.592-5.094,5.256,0,2.412,1.242,4.1,3.294,4.1,1.656,0,2.682-1.17,3.312-2.772l-.27,2.5h2.538V11.062A6.617,6.617,0,0,0,38.664,9.91Zm-1.026,7.326c-.81,0-1.44-.522-1.44-2.16,0-1.242.432-3.24,2.43-3.24a2.954,2.954,0,0,1,1.26.306C39.744,14.5,39.222,17.236,37.638,17.236ZM52.884,19.27a5.8,5.8,0,0,0,2.016-.378l-.522-1.98a2.573,2.573,0,0,1-.9.18c-.936,0-1.386-.558-1.386-1.674v-3.24h2.466v-2H52.092V7.426H50.418l-.18.972c-.27,1.422-.414,1.782-2.034,1.782h-.27v2h1.638V15.85C49.572,17.956,50.688,19.27,52.884,19.27Zm7.506-2A2.327,2.327,0,0,1,58,15.544l5.4-.63a4.651,4.651,0,0,0,.234-1.476A3.452,3.452,0,0,0,59.85,9.91a4.3,4.3,0,0,0-4.41,4.644,4.455,4.455,0,0,0,4.77,4.716,5.429,5.429,0,0,0,3.2-.99l-.936-1.638A4.04,4.04,0,0,1,60.39,17.272Zm-.4-5.418c.792,0,1.368.414,1.368,1.188a1.391,1.391,0,0,1-.054.45l-3.42.414A2.159,2.159,0,0,1,59.994,11.854ZM70.74,9.91a3.511,3.511,0,0,0-3.348,2.574l.216-2.3h-2.52V19h2.52c0-2.862.162-6.912,2.358-6.912,1.116,0,1.224,1.188,1.224,1.926V19h2.538V13.312C73.728,11.188,72.63,9.91,70.74,9.91Zm10.728.108a6.934,6.934,0,0,0-1.242-.108c-3.564,0-5.094,2.592-5.094,5.256,0,2.412,1.242,4.1,3.294,4.1,1.656,0,2.682-1.188,3.312-2.79L81.468,19h2.538V5.968H81.468ZM79.2,17.236c-.81,0-1.44-.522-1.44-2.16,0-1.242.432-3.24,2.43-3.24a2.954,2.954,0,0,1,1.26.306C81.306,14.5,80.784,17.236,79.2,17.236ZM92.052,9.064l.954-1.458L89.784,5.284l-3.24,2.322L87.5,9.064l2.286-1.4ZM90.27,17.272a2.327,2.327,0,0,1-2.394-1.728l5.4-.63a4.651,4.651,0,0,0,.234-1.476A3.452,3.452,0,0,0,89.73,9.91a4.3,4.3,0,0,0-4.41,4.644,4.455,4.455,0,0,0,4.77,4.716,5.429,5.429,0,0,0,3.2-.99l-.936-1.638A4.04,4.04,0,0,1,90.27,17.272Zm-.4-5.418c.792,0,1.368.414,1.368,1.188a1.391,1.391,0,0,1-.054.45l-3.42.414A2.159,2.159,0,0,1,89.874,11.854ZM100.62,9.91a3.511,3.511,0,0,0-3.348,2.574l.216-2.3h-2.52V19h2.52c0-2.862.162-6.912,2.358-6.912,1.116,0,1.224,1.188,1.224,1.926V19h2.538V13.312C103.608,11.188,102.51,9.91,100.62,9.91Zm9.126,7.182a2.274,2.274,0,0,1-2.286-2.5,2.274,2.274,0,0,1,2.286-2.5,2.69,2.69,0,0,1,1.53.468l1.134-1.8a5.071,5.071,0,0,0-2.862-.846,4.417,4.417,0,0,0-4.7,4.68,4.417,4.417,0,0,0,4.7,4.68,4.9,4.9,0,0,0,2.862-.864l-1.134-1.782A2.69,2.69,0,0,1,109.746,17.092Zm5.472-8.154a1.65,1.65,0,0,0,1.692-1.71,1.7,1.7,0,1,0-3.4,0A1.654,1.654,0,0,0,115.218,8.938ZM116.478,19V10.18h-2.52V19Zm6.642-9.09c-3.564,0-5.094,2.592-5.094,5.256,0,2.412,1.242,4.1,3.294,4.1,1.656,0,2.682-1.17,3.312-2.772l-.27,2.5H126.9V11.062A6.617,6.617,0,0,0,123.12,9.91Zm-1.026,7.326c-.81,0-1.44-.522-1.44-2.16,0-1.242.432-3.24,2.43-3.24a2.954,2.954,0,0,1,1.26.306C124.2,14.5,123.678,17.236,122.094,17.236Zm17.01-7.218a6.934,6.934,0,0,0-1.242-.108c-3.564,0-5.094,2.592-5.094,5.256,0,2.412,1.242,4.1,3.294,4.1,1.656,0,2.682-1.188,3.312-2.79L139.1,19h2.538V5.968H139.1Zm-2.268,7.218c-.81,0-1.44-.522-1.44-2.16,0-1.242.432-3.24,2.43-3.24a2.954,2.954,0,0,1,1.26.306C138.942,14.5,138.42,17.236,136.836,17.236Zm11.07.036a2.327,2.327,0,0,1-2.394-1.728l5.4-.63a4.651,4.651,0,0,0,.234-1.476,3.452,3.452,0,0,0-3.78-3.528,4.3,4.3,0,0,0-4.41,4.644,4.455,4.455,0,0,0,4.77,4.716,5.429,5.429,0,0,0,3.2-.99l-.936-1.638A4.04,4.04,0,0,1,147.906,17.272Zm-.4-5.418c.792,0,1.368.414,1.368,1.188a1.391,1.391,0,0,1-.054.45l-3.42.414A2.159,2.159,0,0,1,147.51,11.854ZM168.12,9.91a3.238,3.238,0,0,0-3.042,2.214A2.62,2.62,0,0,0,162.36,9.91a3.328,3.328,0,0,0-3.132,2.412l.216-2.142h-2.52V19h2.52c0-2.844.126-6.912,2.124-6.912.99,0,1.1,1.08,1.1,1.926V19H165.2c0-2.826.108-6.912,2.106-6.912,1.008,0,1.116,1.08,1.116,1.926V19h2.52V13.312C170.946,11.17,169.92,9.91,168.12,9.91Zm9.018,7.362a2.327,2.327,0,0,1-2.394-1.728l5.4-.63a4.651,4.651,0,0,0,.234-1.476A3.452,3.452,0,0,0,176.6,9.91a4.3,4.3,0,0,0-4.41,4.644,4.455,4.455,0,0,0,4.77,4.716,5.429,5.429,0,0,0,3.2-.99l-.936-1.638A4.04,4.04,0,0,1,177.138,17.272Zm-.4-5.418c.792,0,1.368.414,1.368,1.188a1.391,1.391,0,0,1-.054.45l-3.42.414A2.159,2.159,0,0,1,176.742,11.854ZM187.47,9.91c-1.944,0-2.916,1.44-3.42,3.366l.306-3.1h-2.52V19h2.52c0-2.916.18-6.48,2.574-6.48a2.856,2.856,0,0,1,.9.162l.666-2.628A3.718,3.718,0,0,0,187.47,9.91Zm6.12,7.182a2.273,2.273,0,0,1-2.286-2.5,2.273,2.273,0,0,1,2.286-2.5,2.69,2.69,0,0,1,1.53.468l1.134-1.8a5.071,5.071,0,0,0-2.862-.846,4.417,4.417,0,0,0-4.7,4.68,4.417,4.417,0,0,0,4.7,4.68,4.9,4.9,0,0,0,2.862-.864l-1.134-1.782A2.69,2.69,0,0,1,193.59,17.092Zm8.532-7.182c-3.564,0-5.094,2.592-5.094,5.256,0,2.412,1.242,4.1,3.294,4.1,1.656,0,2.682-1.17,3.312-2.772l-.27,2.5H205.9V11.062A6.617,6.617,0,0,0,202.122,9.91ZM201.1,17.236c-.81,0-1.44-.522-1.44-2.16,0-1.242.432-3.24,2.43-3.24a2.954,2.954,0,0,1,1.26.306C203.2,14.5,202.68,17.236,201.1,17.236Zm12.69-7.218a6.934,6.934,0,0,0-1.242-.108c-3.564,0-5.094,2.592-5.094,5.256,0,2.412,1.242,4.1,3.294,4.1,1.656,0,2.682-1.188,3.312-2.79l-.27,2.52h2.538V5.968h-2.538Zm-2.268,7.218c-.81,0-1.44-.522-1.44-2.16,0-1.242.432-3.24,2.43-3.24a2.954,2.954,0,0,1,1.26.306C213.624,14.5,213.1,17.236,211.518,17.236Zm10.746,2.034a4.452,4.452,0,0,0,4.608-4.68,4.617,4.617,0,1,0-9.234,0A4.456,4.456,0,0,0,222.264,19.27Zm0-2.052c-1.332,0-2.016-1.224-2.016-2.628s.684-2.628,2.016-2.628c1.314,0,2,1.224,2,2.628S223.578,17.218,222.264,17.218Z" transform="translate(116.001 7898.674)" fill="#2f2e33"/>
    <path id="Caminho_772644" data-name="Caminho 772644" d="M1.674,4.462l.09,8.064L1.674,16H3.132L3.06,12.4v-.45H4.428c2.7,0,4.3-1.566,4.3-4.122C8.73,5.65,7.452,4.444,5.2,4.444Zm1.4,6.282.054-5.058,1.746-.054c1.548.054,2.376.774,2.376,2.322A2.546,2.546,0,0,1,4.968,10.78Zm7.632,1.062,5.022-.018.306-.234c.018-.216.036-.63.036-.828,0-1.944-1.044-3.1-2.844-3.1-2.358,0-3.87,1.638-3.87,4.3,0,2.592,1.386,4.212,3.744,4.212a5.644,5.644,0,0,0,2.5-.666l.144-1.206-.162-.09a4.4,4.4,0,0,1-2.412.81c-1.656,0-2.466-1.188-2.466-3.132ZM13.1,8.638c.99,0,1.692.594,1.692,1.89l-.036.216-3.96.108A2.315,2.315,0,0,1,13.1,8.638ZM20.43,7.63c-1.782,0-2.844,1.008-2.844,2.376,0,2.556,3.762,2.214,3.762,3.87a1.353,1.353,0,0,1-1.494,1.242,3.542,3.542,0,0,1-2.2-.9l-.162.108-.18,1.224a5.288,5.288,0,0,0,2.394.594,2.626,2.626,0,0,0,2.934-2.52c0-2.484-3.744-2.142-3.744-3.8a1.247,1.247,0,0,1,1.368-1.17A3.123,3.123,0,0,1,22,9.25l.216-.054.2-1.17A5.248,5.248,0,0,0,20.43,7.63Zm6.66,0c-1.782,0-2.844,1.008-2.844,2.376,0,2.556,3.762,2.214,3.762,3.87a1.353,1.353,0,0,1-1.494,1.242,3.542,3.542,0,0,1-2.2-.9l-.162.108-.18,1.224a5.288,5.288,0,0,0,2.394.594,2.626,2.626,0,0,0,2.934-2.52c0-2.484-3.744-2.142-3.744-3.8a1.247,1.247,0,0,1,1.368-1.17,3.123,3.123,0,0,1,1.728.594l.216-.054.2-1.17A5.248,5.248,0,0,0,27.09,7.63Zm7.488-.018c-2.394,0-3.762,1.6-3.762,4.374,0,2.646,1.3,4.158,3.546,4.158,2.394,0,3.744-1.6,3.744-4.374C38.106,9.124,36.81,7.612,34.578,7.612Zm-.09,1.008c1.476,0,2.286,1.188,2.286,3.474,0,2.016-.81,3.024-2.322,3.024-1.476,0-2.286-1.134-2.286-3.456C32.166,9.682,32.976,8.62,34.488,8.62Zm8.568-1.008a5.181,5.181,0,0,0-3.078,1.116l.18,1.026.144.072A3.922,3.922,0,0,1,42.84,8.638,1.3,1.3,0,0,1,44.262,10.1l-.018,1.17-2.916.684a1.854,1.854,0,0,0-1.674,1.926c0,1.386.936,2.25,2.556,2.25a5.308,5.308,0,0,0,1.926-1.35h.126A1.289,1.289,0,0,0,45.5,16.108a2.592,2.592,0,0,0,1.026-.36l.144-.81-.144-.126a1.964,1.964,0,0,1-.612.108c-.414,0-.558-.18-.558-.7,0-.63.216-3.816.216-4.446C45.576,8.422,44.6,7.612,43.056,7.612Zm1.17,4.572-.054,1.476a2.761,2.761,0,0,1-2.016,1.278,1.154,1.154,0,0,1-1.224-1.26.788.788,0,0,1,.684-.864ZM50.9,7.63c-1.782,0-2.844,1.008-2.844,2.376,0,2.556,3.762,2.214,3.762,3.87a1.353,1.353,0,0,1-1.494,1.242,3.542,3.542,0,0,1-2.2-.9l-.162.108-.18,1.224a5.288,5.288,0,0,0,2.394.594,2.626,2.626,0,0,0,2.934-2.52c0-2.484-3.744-2.142-3.744-3.8a1.247,1.247,0,0,1,1.368-1.17,3.123,3.123,0,0,1,1.728.594l.216-.054.2-1.17A5.248,5.248,0,0,0,50.9,7.63Zm10.35-.018c-2.268,0-3.654,1.674-3.654,4.32,0,2.61,1.332,4.212,3.51,4.212a5.84,5.84,0,0,0,2.2-.468l.162-1.206-.162-.09a4.043,4.043,0,0,1-2.016.612c-1.476,0-2.34-1.206-2.34-3.132,0-1.944.846-3.078,2.25-3.078a3.5,3.5,0,0,1,1.854.612l.162-.054L63.468,8.1A5.473,5.473,0,0,0,61.254,7.612Zm7.02,0c-2.394,0-3.762,1.6-3.762,4.374,0,2.646,1.3,4.158,3.546,4.158,2.394,0,3.744-1.6,3.744-4.374C71.8,9.124,70.506,7.612,68.274,7.612Zm-.09,1.008c1.476,0,2.286,1.188,2.286,3.474,0,2.016-.81,3.024-2.322,3.024-1.476,0-2.286-1.134-2.286-3.456C65.862,9.682,66.672,8.62,68.184,8.62ZM84.24,16h1.44l-.054-3.582.018-2.34c.018-1.548-.918-2.43-2.736-2.43A5.92,5.92,0,0,0,80.46,9.016h-.108c-.342-.882-1.206-1.368-2.574-1.368A5.5,5.5,0,0,0,75.51,8.926h-.126L75.4,7.72l-1.368.126.072,4.662L74.016,16h1.422l-.072-3.618.018-2.25a3.6,3.6,0,0,1,2.43-1.3c.954,0,1.422.612,1.4,1.566l-.09,5.6h1.44L80.5,12.418l.036-2.34a3.552,3.552,0,0,1,2.394-1.242A1.351,1.351,0,0,1,84.348,10.4Zm17.3,0h1.44l-.054-3.582.018-2.34c.018-1.548-.918-2.43-2.736-2.43a5.92,5.92,0,0,0-2.448,1.368H97.65c-.342-.882-1.206-1.368-2.574-1.368a5.5,5.5,0,0,0-2.268,1.278h-.126L92.7,7.72l-1.368.126.072,4.662L91.314,16h1.422l-.072-3.618.018-2.25a3.6,3.6,0,0,1,2.43-1.3c.954,0,1.422.612,1.4,1.566l-.09,5.6h1.44l-.072-3.582.036-2.34a3.552,3.552,0,0,1,2.394-1.242,1.351,1.351,0,0,1,1.422,1.566Zm6.84-8.388A5.181,5.181,0,0,0,105.3,8.728l.18,1.026.144.072a3.922,3.922,0,0,1,2.538-1.188,1.3,1.3,0,0,1,1.422,1.458l-.018,1.17-2.916.684a1.854,1.854,0,0,0-1.674,1.926c0,1.386.936,2.25,2.556,2.25a5.308,5.308,0,0,0,1.926-1.35h.126a1.289,1.289,0,0,0,1.242,1.332,2.592,2.592,0,0,0,1.026-.36l.144-.81-.144-.126a1.964,1.964,0,0,1-.612.108c-.414,0-.558-.18-.558-.7,0-.63.216-3.816.216-4.446C110.9,8.422,109.926,7.612,108.378,7.612Zm1.17,4.572-.054,1.476a2.761,2.761,0,0,1-2.016,1.278,1.154,1.154,0,0,1-1.224-1.26.788.788,0,0,1,.684-.864Zm5.184-8.118a.794.794,0,0,0-.846.846.739.739,0,0,0,.792.828.8.8,0,0,0,.846-.882A.737.737,0,0,0,114.732,4.066Zm.558,8.316L115.4,7.72l-1.422.126.072,4.662L113.958,16h1.422Zm5.22-4.752c-1.782,0-2.844,1.008-2.844,2.376,0,2.556,3.762,2.214,3.762,3.87a1.353,1.353,0,0,1-1.494,1.242,3.542,3.542,0,0,1-2.2-.9l-.162.108-.18,1.224a5.288,5.288,0,0,0,2.394.594,2.626,2.626,0,0,0,2.934-2.52c0-2.484-3.744-2.142-3.744-3.8a1.247,1.247,0,0,1,1.368-1.17,3.123,3.123,0,0,1,1.728.594l.216-.054.2-1.17A5.248,5.248,0,0,0,120.51,7.63Zm13.536,4.752.108-9.018-1.422.126.036,4.3a7.012,7.012,0,0,0-1.584-.18c-2.5,0-4,1.548-4,4.284,0,2.664,1.278,4.194,3.672,4.194a5.986,5.986,0,0,0,1.962-1.242h.126a1.327,1.327,0,0,0,1.26,1.26,2.592,2.592,0,0,0,1.026-.36l.126-.81-.144-.126a1.817,1.817,0,0,1-.612.108c-.378,0-.5-.18-.522-.684ZM131,8.62a4.2,4.2,0,0,1,1.764.45l.036,3.42-.036,1.3a2.556,2.556,0,0,1-1.98,1.1c-1.368,0-2.232-1.116-2.268-3.114C128.484,9.682,129.492,8.62,131,8.62Zm6.84,3.186,5.022-.018.306-.234c.018-.216.036-.63.036-.828,0-1.944-1.044-3.1-2.844-3.1-2.358,0-3.87,1.638-3.87,4.3,0,2.592,1.386,4.212,3.744,4.212a5.644,5.644,0,0,0,2.5-.666l.144-1.206-.162-.09a4.4,4.4,0,0,1-2.412.81c-1.656,0-2.466-1.188-2.466-3.132Zm2.394-3.168c.99,0,1.692.594,1.692,1.89l-.036.216-3.96.108A2.315,2.315,0,0,1,140.238,8.638Zm10.044-1.692a4.407,4.407,0,0,0-2.88,1.116l.216,1.134h.162a3.389,3.389,0,0,1,2.232-1.062,1.4,1.4,0,0,1,1.566,1.4,2.215,2.215,0,0,1-2.16,2.034l-.792.018-.036.99.09.108h1.062c1.494.054,2.322.72,2.322,1.854,0,1.278-1.08,2.088-2.664,2.088a4.7,4.7,0,0,1-1.836-.36l-.108.09.09,1.224a11.273,11.273,0,0,0,1.764.162c2.448,0,4.1-1.368,4.1-3.384,0-1.224-.756-2.052-2.2-2.394V11.9a3.03,3.03,0,0,0,1.8-2.664C153.018,7.882,151.92,6.946,150.282,6.946Zm8.838-.018c-2.574,0-4.014,1.692-4.014,4.716,0,2.862,1.386,4.482,3.834,4.482,2.556,0,4-1.692,4-4.662C162.936,8.548,161.55,6.928,159.12,6.928Zm-.126,1.314c1.836,0,2.808,1.152,2.808,3.384,0,2.124-.954,3.24-2.79,3.24s-2.772-1.134-2.772-3.33C156.24,9.358,157.176,8.242,158.994,8.242Zm11.9-.63a5.181,5.181,0,0,0-3.078,1.116l.18,1.026.144.072a3.922,3.922,0,0,1,2.538-1.188A1.3,1.3,0,0,1,172.1,10.1l-.018,1.17-2.916.684a1.854,1.854,0,0,0-1.674,1.926c0,1.386.936,2.25,2.556,2.25a5.308,5.308,0,0,0,1.926-1.35h.126a1.289,1.289,0,0,0,1.242,1.332,2.592,2.592,0,0,0,1.026-.36l.144-.81-.144-.126a1.964,1.964,0,0,1-.612.108c-.414,0-.558-.18-.558-.7,0-.63.216-3.816.216-4.446C173.412,8.422,172.44,7.612,170.892,7.612Zm1.17,4.572-.054,1.476a2.761,2.761,0,0,1-2.016,1.278,1.154,1.154,0,0,1-1.224-1.26.788.788,0,0,1,.684-.864ZM181.584,16h1.44l-.072-3.582.036-2.34c.018-1.548-.918-2.43-2.754-2.43a5.667,5.667,0,0,0-2.286,1.278h-.108l.018-1.206-1.368.126.072,4.662L176.472,16h1.422l-.072-3.618.018-2.268a3.569,3.569,0,0,1,2.43-1.278c.954,0,1.422.612,1.4,1.566Zm7.254-8.388c-2.394,0-3.762,1.6-3.762,4.374,0,2.646,1.3,4.158,3.546,4.158,2.394,0,3.744-1.6,3.744-4.374C192.366,9.124,191.07,7.612,188.838,7.612Zm-.09,1.008c1.476,0,2.286,1.188,2.286,3.474,0,2.016-.81,3.024-2.322,3.024-1.476,0-2.286-1.134-2.286-3.456C186.426,9.682,187.236,8.62,188.748,8.62Zm8.1-.99c-1.782,0-2.844,1.008-2.844,2.376,0,2.556,3.762,2.214,3.762,3.87a1.353,1.353,0,0,1-1.494,1.242,3.542,3.542,0,0,1-2.2-.9l-.162.108-.18,1.224a5.288,5.288,0,0,0,2.394.594,2.626,2.626,0,0,0,2.934-2.52c0-2.484-3.744-2.142-3.744-3.8a1.247,1.247,0,0,1,1.368-1.17,3.123,3.123,0,0,1,1.728.594l.216-.054.2-1.17A5.248,5.248,0,0,0,196.848,7.63Zm9.63,0c-1.782,0-2.844,1.008-2.844,2.376,0,2.556,3.762,2.214,3.762,3.87a1.353,1.353,0,0,1-1.494,1.242,3.542,3.542,0,0,1-2.2-.9l-.162.108-.18,1.224a5.288,5.288,0,0,0,2.394.594,2.626,2.626,0,0,0,2.934-2.52c0-2.484-3.744-2.142-3.744-3.8a1.247,1.247,0,0,1,1.368-1.17,3.123,3.123,0,0,1,1.728.594l.216-.054.2-1.17A5.248,5.248,0,0,0,206.478,7.63Zm5.076,4.176,5.022-.018.306-.234c.018-.216.036-.63.036-.828,0-1.944-1.044-3.1-2.844-3.1-2.358,0-3.87,1.638-3.87,4.3,0,2.592,1.386,4.212,3.744,4.212a5.644,5.644,0,0,0,2.5-.666l.144-1.206-.162-.09a4.4,4.4,0,0,1-2.412.81c-1.656,0-2.466-1.188-2.466-3.132Zm2.394-3.168c.99,0,1.692.594,1.692,1.89l-.036.216-3.96.108A2.315,2.315,0,0,1,213.948,8.638ZM224.118,16h1.44l-.072-3.582.036-2.34c.018-1.548-.918-2.43-2.754-2.43a5.667,5.667,0,0,0-2.286,1.278h-.108l.018-1.206-1.368.126.072,4.662L219.006,16h1.422l-.072-3.618.018-2.268a3.569,3.569,0,0,1,2.43-1.278c.954,0,1.422.612,1.4,1.566Zm10.332-3.618.108-9.018-1.422.126.036,4.3a7.012,7.012,0,0,0-1.584-.18c-2.5,0-4,1.548-4,4.284,0,2.664,1.278,4.194,3.672,4.194a5.986,5.986,0,0,0,1.962-1.242h.126a1.327,1.327,0,0,0,1.26,1.26,2.592,2.592,0,0,0,1.026-.36l.126-.81-.144-.126a1.817,1.817,0,0,1-.612.108c-.378,0-.5-.18-.522-.684ZM231.408,8.62a4.2,4.2,0,0,1,1.764.45l.036,3.42-.036,1.3a2.556,2.556,0,0,1-1.98,1.1c-1.368,0-2.232-1.116-2.268-3.114C228.888,9.682,229.9,8.62,231.408,8.62Zm9.252-1.008c-2.394,0-3.762,1.6-3.762,4.374,0,2.646,1.3,4.158,3.546,4.158,2.394,0,3.744-1.6,3.744-4.374C244.188,9.124,242.892,7.612,240.66,7.612Zm-.09,1.008c1.476,0,2.286,1.188,2.286,3.474,0,2.016-.81,3.024-2.322,3.024-1.476,0-2.286-1.134-2.286-3.456C238.248,9.682,239.058,8.62,240.57,8.62ZM2.2,30.066a.794.794,0,0,0-.846.846.739.739,0,0,0,.792.828.8.8,0,0,0,.846-.882A.737.737,0,0,0,2.2,30.066Zm.558,8.316.108-4.662-1.422.126.072,4.662L1.422,42H2.844ZM10.818,42h1.44l-.072-3.582.036-2.34c.018-1.548-.918-2.43-2.754-2.43a5.666,5.666,0,0,0-2.286,1.278H7.074l.018-1.206-1.368.126L5.8,38.508,5.706,42H7.128l-.072-3.618.018-2.268A3.569,3.569,0,0,1,9.5,34.836c.954,0,1.422.612,1.4,1.566Zm7.92-12.8c-2.2,0-3.456,1.116-3.438,3.276l.018,1.3H14.112l-.09.846.072.108h1.224l.054,3.78L15.264,42h1.422l-.09-3.564.036-3.708h2.142l.09-.846-.054-.108H16.65l.018-1.512a1.778,1.778,0,0,1,2-2.016,6.071,6.071,0,0,1,2.3.5l.108-.09.27-1.116A10.73,10.73,0,0,0,18.738,29.2Zm3.276,9.18.108-9.018L20.7,29.49l.09,9L20.682,42H22.1Zm9.234-4.662-1.368.126V39.8a3.33,3.33,0,0,1-2.232,1.1c-.936,0-1.4-.594-1.386-1.566l.108-5.616-1.44.126.054,3.546-.018,2.286c-.018,1.548.918,2.43,2.7,2.43a5.229,5.229,0,0,0,2.232-1.26h.144a1.31,1.31,0,0,0,1.242,1.26,2.592,2.592,0,0,0,1.026-.36l.126-.81-.126-.126a1.979,1.979,0,0,1-.63.108c-.378,0-.54-.18-.54-.684Zm3.672,4.086,5.022-.018.306-.234c.018-.216.036-.63.036-.828,0-1.944-1.044-3.1-2.844-3.1-2.358,0-3.87,1.638-3.87,4.3,0,2.592,1.386,4.212,3.744,4.212a5.644,5.644,0,0,0,2.5-.666l.144-1.206-.162-.09a4.4,4.4,0,0,1-2.412.81c-1.656,0-2.466-1.188-2.466-3.132Zm2.394-3.168c.99,0,1.692.594,1.692,1.89l-.036.216-3.96.108A2.315,2.315,0,0,1,37.314,34.638ZM47.484,42h1.44l-.072-3.582.036-2.34c.018-1.548-.918-2.43-2.754-2.43a5.666,5.666,0,0,0-2.286,1.278H43.74l.018-1.206-1.368.126.072,4.662L42.372,42h1.422l-.072-3.618.018-2.268a3.569,3.569,0,0,1,2.43-1.278c.954,0,1.422.612,1.4,1.566Zm7.146-8.388c-2.268,0-3.654,1.674-3.654,4.32,0,2.61,1.332,4.212,3.51,4.212a5.84,5.84,0,0,0,2.2-.468l.162-1.206-.162-.09a4.043,4.043,0,0,1-2.016.612c-1.476,0-2.34-1.206-2.34-3.132,0-1.944.846-3.078,2.25-3.078a3.5,3.5,0,0,1,1.854.612l.162-.054.252-1.242A5.473,5.473,0,0,0,54.63,33.612Zm4.716-3.546a.794.794,0,0,0-.846.846.739.739,0,0,0,.792.828.8.8,0,0,0,.846-.882A.737.737,0,0,0,59.346,30.066Zm.558,8.316.108-4.662-1.422.126.072,4.662L58.572,42h1.422Zm5.688-4.77a5.181,5.181,0,0,0-3.078,1.116l.18,1.026.144.072a3.922,3.922,0,0,1,2.538-1.188A1.3,1.3,0,0,1,66.8,36.1l-.018,1.17-2.916.684a1.854,1.854,0,0,0-1.674,1.926c0,1.386.936,2.25,2.556,2.25a5.308,5.308,0,0,0,1.926-1.35H66.8a1.289,1.289,0,0,0,1.242,1.332,2.592,2.592,0,0,0,1.026-.36l.144-.81-.144-.126a1.964,1.964,0,0,1-.612.108c-.414,0-.558-.18-.558-.7,0-.63.216-3.816.216-4.446C68.112,34.422,67.14,33.612,65.592,33.612Zm1.17,4.572-.054,1.476a2.761,2.761,0,0,1-2.016,1.278,1.154,1.154,0,0,1-1.224-1.26.788.788,0,0,1,.684-.864Zm10.584.2.108-9.018-1.422.126.036,4.3a7.013,7.013,0,0,0-1.584-.18c-2.5,0-4,1.548-4,4.284,0,2.664,1.278,4.194,3.672,4.194a5.986,5.986,0,0,0,1.962-1.242h.126a1.327,1.327,0,0,0,1.26,1.26,2.592,2.592,0,0,0,1.026-.36l.126-.81-.144-.126a1.816,1.816,0,0,1-.612.108c-.378,0-.5-.18-.522-.684ZM74.3,34.62a4.2,4.2,0,0,1,1.764.45l.036,3.42-.036,1.3a2.556,2.556,0,0,1-1.98,1.1c-1.368,0-2.232-1.116-2.268-3.114C71.784,35.682,72.792,34.62,74.3,34.62ZM83.2,33.612a5.181,5.181,0,0,0-3.078,1.116l.18,1.026.144.072a3.922,3.922,0,0,1,2.538-1.188A1.3,1.3,0,0,1,84.4,36.1l-.018,1.17-2.916.684a1.854,1.854,0,0,0-1.674,1.926c0,1.386.936,2.25,2.556,2.25a5.308,5.308,0,0,0,1.926-1.35H84.4a1.289,1.289,0,0,0,1.242,1.332,2.592,2.592,0,0,0,1.026-.36l.144-.81-.144-.126a1.964,1.964,0,0,1-.612.108c-.414,0-.558-.18-.558-.7,0-.63.216-3.816.216-4.446C85.716,34.422,84.744,33.612,83.2,33.612Zm1.17,4.572-.054,1.476A2.761,2.761,0,0,1,82.3,40.938a1.154,1.154,0,0,1-1.224-1.26.788.788,0,0,1,.684-.864Zm6.678-4.554c-1.782,0-2.844,1.008-2.844,2.376,0,2.556,3.762,2.214,3.762,3.87a1.353,1.353,0,0,1-1.494,1.242,3.542,3.542,0,0,1-2.2-.9l-.162.108-.18,1.224a5.288,5.288,0,0,0,2.394.594,2.626,2.626,0,0,0,2.934-2.52c0-2.484-3.744-2.142-3.744-3.8a1.247,1.247,0,0,1,1.368-1.17,3.123,3.123,0,0,1,1.728.594l.216-.054.2-1.17A5.248,5.248,0,0,0,91.044,33.63Zm11.106.036a5.327,5.327,0,0,0-2.268,1.224h-.108l.018-1.17-1.386.126.108,4.662-.108,6.822h1.4l-.036-3.348a7.844,7.844,0,0,0,1.566.162c2.538,0,4.014-1.62,4.014-4.518C105.354,35.142,104.274,33.666,102.15,33.666Zm-.63,7.434a3.7,3.7,0,0,1-1.764-.468l-.018-2.25.018-2.268a3.129,3.129,0,0,1,2.268-1.278c1.26,0,1.944,1.08,1.98,2.952C104.04,40.02,103.032,41.1,101.52,41.1Zm6.678-3.294,5.022-.018.306-.234c.018-.216.036-.63.036-.828,0-1.944-1.044-3.1-2.844-3.1-2.358,0-3.87,1.638-3.87,4.3,0,2.592,1.386,4.212,3.744,4.212a5.644,5.644,0,0,0,2.5-.666l.144-1.206-.162-.09a4.4,4.4,0,0,1-2.412.81c-1.656,0-2.466-1.188-2.466-3.132Zm2.394-3.168c.99,0,1.692.594,1.692,1.89l-.036.216-3.96.108A2.315,2.315,0,0,1,110.592,34.638Zm6.462,3.744.108-9.018-1.422.126.09,9L115.722,42h1.422Zm6.12-4.77c-2.394,0-3.762,1.6-3.762,4.374,0,2.646,1.3,4.158,3.546,4.158,2.394,0,3.744-1.6,3.744-4.374C126.7,35.124,125.406,33.612,123.174,33.612Zm-.09,1.008c1.476,0,2.286,1.188,2.286,3.474,0,2.016-.81,3.024-2.322,3.024-1.476,0-2.286-1.134-2.286-3.456C120.762,35.682,121.572,34.62,123.084,34.62ZM142.11,42h1.44l-.054-3.582.018-2.34c.018-1.548-.918-2.43-2.736-2.43a5.92,5.92,0,0,0-2.448,1.368h-.108c-.342-.882-1.206-1.368-2.574-1.368a5.5,5.5,0,0,0-2.268,1.278h-.126l.018-1.206-1.368.126.072,4.662L131.886,42h1.422l-.072-3.618.018-2.25a3.6,3.6,0,0,1,2.43-1.3c.954,0,1.422.612,1.4,1.566L137,42h1.44l-.072-3.582.036-2.34a3.552,3.552,0,0,1,2.394-1.242,1.351,1.351,0,0,1,1.422,1.566Zm7.2-8.388c-2.394,0-3.762,1.6-3.762,4.374,0,2.646,1.3,4.158,3.546,4.158,2.394,0,3.744-1.6,3.744-4.374C152.838,35.124,151.542,33.612,149.31,33.612Zm-.09,1.008c1.476,0,2.286,1.188,2.286,3.474,0,2.016-.81,3.024-2.322,3.024-1.476,0-2.286-1.134-2.286-3.456C146.9,35.682,147.708,34.62,149.22,34.62Zm6.066.18-.234-1.1-1.332.09L156.276,42h1.53l3.024-8.244h-1.278l-.288,1.116-2.106,5.706h-.09Zm7.9-4.734a.794.794,0,0,0-.846.846.739.739,0,0,0,.792.828.8.8,0,0,0,.846-.882A.737.737,0,0,0,163.188,30.066Zm.558,8.316.108-4.662-1.422.126.072,4.662L162.414,42h1.422ZM176.922,42h1.44l-.054-3.582.018-2.34c.018-1.548-.918-2.43-2.736-2.43a5.92,5.92,0,0,0-2.448,1.368h-.108c-.342-.882-1.206-1.368-2.574-1.368a5.5,5.5,0,0,0-2.268,1.278h-.126l.018-1.206-1.368.126.072,4.662L166.7,42h1.422l-.072-3.618.018-2.25a3.6,3.6,0,0,1,2.43-1.3c.954,0,1.422.612,1.4,1.566l-.09,5.6h1.44l-.072-3.582.036-2.34a3.552,3.552,0,0,1,2.394-1.242A1.351,1.351,0,0,1,177.03,36.4Zm4.788-4.194,5.022-.018.306-.234c.018-.216.036-.63.036-.828,0-1.944-1.044-3.1-2.844-3.1-2.358,0-3.87,1.638-3.87,4.3,0,2.592,1.386,4.212,3.744,4.212a5.644,5.644,0,0,0,2.5-.666l.144-1.206-.162-.09a4.4,4.4,0,0,1-2.412.81c-1.656,0-2.466-1.188-2.466-3.132Zm2.394-3.168c.99,0,1.692.594,1.692,1.89l-.036.216-3.96.108A2.315,2.315,0,0,1,184.1,34.638ZM194.274,42h1.44l-.072-3.582.036-2.34c.018-1.548-.918-2.43-2.754-2.43a5.667,5.667,0,0,0-2.286,1.278h-.108l.018-1.206-1.368.126.072,4.662L189.162,42h1.422l-.072-3.618.018-2.268a3.569,3.569,0,0,1,2.43-1.278c.954,0,1.422.612,1.4,1.566Zm6.768-1.1c-.792,0-1.152-.324-1.134-1.3l.09-4.878h2.43l.09-.846-.072-.108H200l.036-1.746-.144-.126-1.242.54v1.332h-1.1l-.09.846.072.108h1.134l.018,3.726-.054,1.278a2.079,2.079,0,0,0,1.926,2.376,5.189,5.189,0,0,0,1.8-.522l.144-.936-.162-.108A2.726,2.726,0,0,1,201.042,40.9Zm5.94-7.29c-2.394,0-3.762,1.6-3.762,4.374,0,2.646,1.3,4.158,3.546,4.158,2.394,0,3.744-1.6,3.744-4.374C210.51,35.124,209.214,33.612,206.982,33.612Zm-.09,1.008c1.476,0,2.286,1.188,2.286,3.474,0,2.016-.81,3.024-2.322,3.024-1.476,0-2.286-1.134-2.286-3.456C204.57,35.682,205.38,34.62,206.892,34.62ZM220.806,42h1.44l-.072-3.582.036-2.34c.018-1.548-.918-2.43-2.754-2.43a5.667,5.667,0,0,0-2.286,1.278h-.108l.018-1.206-1.368.126.072,4.662L215.694,42h1.422l-.072-3.618.018-2.268a3.569,3.569,0,0,1,2.43-1.278c.954,0,1.422.612,1.4,1.566Zm7.254-8.388c-2.394,0-3.762,1.6-3.762,4.374,0,2.646,1.3,4.158,3.546,4.158,2.394,0,3.744-1.6,3.744-4.374C231.588,35.124,230.292,33.612,228.06,33.612Zm-.09,1.008c1.476,0,2.286,1.188,2.286,3.474,0,2.016-.81,3.024-2.322,3.024-1.476,0-2.286-1.134-2.286-3.456C225.648,35.682,226.458,34.62,227.97,34.62Zm8.1-.99c-1.782,0-2.844,1.008-2.844,2.376,0,2.556,3.762,2.214,3.762,3.87a1.353,1.353,0,0,1-1.494,1.242,3.542,3.542,0,0,1-2.2-.9l-.162.108-.18,1.224a5.288,5.288,0,0,0,2.394.594,2.626,2.626,0,0,0,2.934-2.52c0-2.484-3.744-2.142-3.744-3.8a1.247,1.247,0,0,1,1.368-1.17,3.123,3.123,0,0,1,1.728.594l.216-.054.2-1.17A5.248,5.248,0,0,0,236.07,33.63Zm7,7.272c-.792,0-1.152-.324-1.134-1.3l.09-4.878h2.43l.09-.846-.072-.108h-2.448l.036-1.746-.144-.126-1.242.54v1.332h-1.1l-.09.846.072.108H240.7l.018,3.726-.054,1.278a2.079,2.079,0,0,0,1.926,2.376,5.189,5.189,0,0,0,1.8-.522l.144-.936-.162-.108A2.726,2.726,0,0,1,243.072,40.9Zm7.506-11.43-.162-.018c-1.008.99-1.962,1.8-2.952,2.61l.4.576.162.018c1.026-.72,2-1.458,3.06-2.286l.036-.144Zm-1.638,4.14a5.231,5.231,0,0,0-3.1,1.116l.2,1.026.144.072a3.885,3.885,0,0,1,2.538-1.188,1.3,1.3,0,0,1,1.422,1.458l-.018,1.17-2.916.684a1.854,1.854,0,0,0-1.674,1.926c0,1.386.936,2.25,2.556,2.25a5.308,5.308,0,0,0,1.926-1.35h.108a1.3,1.3,0,0,0,1.26,1.332,2.694,2.694,0,0,0,1.026-.36l.126-.81-.144-.126a1.8,1.8,0,0,1-.594.108c-.432,0-.576-.18-.576-.7,0-.63.234-3.816.234-4.446C251.46,34.422,250.47,33.612,248.94,33.612Zm1.17,4.572-.054,1.476a2.791,2.791,0,0,1-2.034,1.278,1.149,1.149,0,0,1-1.206-1.26.775.775,0,0,1,.684-.864Zm5.832.2.108-9.018-1.422.126.09,9L254.61,42h1.422Zm10.332-4.9-.144-.108c-.846.234-1.746.45-2.61.612a3.715,3.715,0,0,0-1.62-.324c-1.926,0-3.2,1.062-3.2,2.88a2.551,2.551,0,0,0,1.17,2.3v.072a3.547,3.547,0,0,0-1.1,1.1c0,.81.576,1.206,1.35,1.44v.09a3.9,3.9,0,0,0-1.584,1.566c0,1.35,1.062,2.358,3.042,2.358,2.16,0,3.87-1.206,3.87-2.736,0-2.646-5.346-1.548-5.346-2.88,0-.234.126-.4.522-.7a4.2,4.2,0,0,0,1.116.144c2.016,0,3.24-1.134,3.24-2.862a2.809,2.809,0,0,0-.4-1.53l.036-.072a14.881,14.881,0,0,0,1.656-.378Zm-4.464,4.842a1.676,1.676,0,0,1-1.836-1.836,1.716,1.716,0,0,1,1.908-1.872,1.637,1.637,0,0,1,1.818,1.8A1.738,1.738,0,0,1,261.81,38.328Zm2.376,4.68c0,.828-1.062,1.458-2.448,1.458-1.278,0-1.944-.54-1.944-1.206,0-.576.522-1.062,1.386-1.584C262.62,41.91,264.186,41.982,264.186,43.008Zm4.32-12.942a.794.794,0,0,0-.846.846.739.739,0,0,0,.792.828.8.8,0,0,0,.846-.882A.737.737,0,0,0,268.506,30.066Zm.558,8.316.108-4.662-1.422.126.072,4.662L267.732,42h1.422Zm5.94-4.77c-2.268,0-3.654,1.674-3.654,4.32,0,2.61,1.332,4.212,3.51,4.212a5.84,5.84,0,0,0,2.2-.468l.162-1.206-.162-.09a4.043,4.043,0,0,1-2.016.612c-1.476,0-2.34-1.206-2.34-3.132,0-1.944.846-3.078,2.25-3.078a3.5,3.5,0,0,1,1.854.612l.162-.054.252-1.242A5.473,5.473,0,0,0,275,33.612Zm7.02,0c-2.394,0-3.762,1.6-3.762,4.374,0,2.646,1.3,4.158,3.546,4.158,2.394,0,3.744-1.6,3.744-4.374C285.552,35.124,284.256,33.612,282.024,33.612Zm-.09,1.008c1.476,0,2.286,1.188,2.286,3.474,0,2.016-.81,3.024-2.322,3.024-1.476,0-2.286-1.134-2.286-3.456C279.612,35.682,280.422,34.62,281.934,34.62Z" transform="translate(16 7931.674)"/>
    <path id="Caminho_772642" data-name="Caminho 772642" d="M1.548,4.444l.126,8.082L1.548,16h1.89l-.09-3.636v-.27H4.626c2.79,0,4.482-1.62,4.482-4.212,0-2.232-1.314-3.456-3.636-3.456Zm1.818,6.174.072-4.68,1.53-.054c1.458.054,2.214.7,2.214,2.16a2.361,2.361,0,0,1-2.016,2.61ZM14.76,7.684a2.655,2.655,0,0,0-2.268,1.638h-.126l.018-1.656-1.746.162.108,4.7L10.62,16h1.836l-.126-3.636.018-1.188c.63-1.242,1.26-1.746,2-1.746a2.519,2.519,0,0,1,.666.09l.2-.054V7.72A3.507,3.507,0,0,0,14.76,7.684Zm4.95-.144c-2.484,0-3.87,1.6-3.87,4.446,0,2.664,1.314,4.176,3.636,4.176,2.484,0,3.87-1.6,3.87-4.446C23.346,9.052,22.032,7.54,19.71,7.54ZM19.6,8.818c1.35,0,2.034,1.044,2.034,3.312,0,1.89-.684,2.772-2.034,2.772-1.368,0-2.052-1.026-2.052-3.312C17.55,9.736,18.234,8.818,19.6,8.818Zm12.2,3.528.144-8.982-1.836.144L30.15,7.7a7.586,7.586,0,0,0-1.4-.144c-2.538,0-4.086,1.548-4.086,4.32,0,2.664,1.314,4.23,3.726,4.23a7.351,7.351,0,0,0,1.872-1.242H30.4a1.425,1.425,0,0,0,1.332,1.26,2.917,2.917,0,0,0,1.152-.4l.162-1.008-.162-.126a2.6,2.6,0,0,1-.558.072c-.342,0-.45-.144-.468-.594Zm-3.24-3.528a3.717,3.717,0,0,1,1.6.414l.054,3.276-.036,1.17a2.3,2.3,0,0,1-1.764.936c-1.26,0-2.016-1.026-2.034-2.952C26.352,9.736,27.216,8.818,28.566,8.818Zm12.69-1.152-1.746.162v5.85a2.951,2.951,0,0,1-1.962.918c-.846,0-1.26-.54-1.242-1.422l.09-5.508-1.818.162.072,3.6-.036,2.25c-.018,1.548.954,2.43,2.772,2.43a5.411,5.411,0,0,0,2.16-1.26h.144a1.441,1.441,0,0,0,1.332,1.278,2.832,2.832,0,0,0,1.134-.4l.18-1.008-.162-.126a2.6,2.6,0,0,1-.558.072c-.36,0-.486-.144-.486-.594Zm5.616,6.948c-.738,0-1.062-.288-1.044-1.188l.09-4.518H48.24l.09-1.044-.072-.126h-2.3l.036-1.782-.162-.144-1.62.612V7.738h-1.1L43.02,8.8l.072.108h1.134l.018,3.51-.072,1.3A2.148,2.148,0,0,0,46.3,16.108a5.2,5.2,0,0,0,1.836-.54l.18-1.152-.18-.126A2.838,2.838,0,0,1,46.872,14.614ZM52.83,7.54c-2.484,0-3.87,1.6-3.87,4.446,0,2.664,1.314,4.176,3.636,4.176,2.484,0,3.87-1.6,3.87-4.446C56.466,9.052,55.152,7.54,52.83,7.54Zm-.108,1.278c1.35,0,2.034,1.044,2.034,3.312,0,1.89-.684,2.772-2.034,2.772-1.368,0-2.052-1.026-2.052-3.312C50.67,9.736,51.354,8.818,52.722,8.818Zm14.6,3.114.306-.288a7.013,7.013,0,0,0,.072-.9,2.847,2.847,0,0,0-3.024-3.186C62.262,7.558,60.7,9.2,60.7,11.9c0,2.628,1.44,4.266,3.924,4.266a5.842,5.842,0,0,0,2.52-.612l.216-1.458-.162-.108a4.941,4.941,0,0,1-2.43.756c-1.584,0-2.34-1.026-2.376-2.808Zm-1.3-1.206-3.546.09a2.11,2.11,0,0,1,2.088-2c.9,0,1.494.522,1.494,1.692ZM79.722,16h1.854l-.09-3.636.054-2.34c.018-1.548-.936-2.43-2.79-2.43a6.528,6.528,0,0,0-2.376,1.35h-.108a2.527,2.527,0,0,0-2.592-1.35A5.977,5.977,0,0,0,71.46,8.872h-.126l.018-1.206-1.746.162.09,4.7L69.588,16h1.818l-.09-3.636.018-2.2a3.229,3.229,0,0,1,2.16-1.08c.864,0,1.3.558,1.278,1.458L74.646,16h1.836l-.072-3.636.036-2.232A3.174,3.174,0,0,1,78.57,9.088c.864,0,1.3.558,1.278,1.458Zm13.626-3.654.144-8.982-1.836.144L91.692,7.7a7.587,7.587,0,0,0-1.4-.144c-2.538,0-4.086,1.548-4.086,4.32,0,2.664,1.314,4.23,3.726,4.23A7.351,7.351,0,0,0,91.8,14.866h.144a1.425,1.425,0,0,0,1.332,1.26,2.917,2.917,0,0,0,1.152-.4l.162-1.008-.162-.126a2.6,2.6,0,0,1-.558.072c-.342,0-.45-.144-.468-.594Zm-3.24-3.528a3.717,3.717,0,0,1,1.6.414l.054,3.276-.036,1.17a2.3,2.3,0,0,1-1.764.936c-1.26,0-2.016-1.026-2.034-2.952C87.894,9.736,88.758,8.818,90.108,8.818Zm12.114,3.114.306-.288a7.013,7.013,0,0,0,.072-.9,2.847,2.847,0,0,0-3.024-3.186C97.164,7.558,95.6,9.2,95.6,11.9c0,2.628,1.44,4.266,3.924,4.266a5.842,5.842,0,0,0,2.52-.612l.216-1.458-.162-.108a4.941,4.941,0,0,1-2.43.756c-1.584,0-2.34-1.026-2.376-2.808Zm-1.3-1.206-3.546.09a2.11,2.11,0,0,1,2.088-2c.9,0,1.494.522,1.494,1.692Zm6.066-3.168c-1.908,0-3.024,1.08-3.024,2.5,0,2.61,3.726,2.268,3.726,3.8a1.151,1.151,0,0,1-1.278,1.062,3.8,3.8,0,0,1-2.3-.972l-.2.126L103.7,15.6a6.518,6.518,0,0,0,2.52.558c2.07,0,3.114-1.278,3.114-2.61,0-2.538-3.726-2.214-3.726-3.726a1.051,1.051,0,0,1,1.17-.99,3.357,3.357,0,0,1,1.836.63l.234-.054.252-1.44A5.7,5.7,0,0,0,106.992,7.558Zm10.278,4.374.306-.288a7.013,7.013,0,0,0,.072-.9,2.847,2.847,0,0,0-3.024-3.186c-2.412,0-3.978,1.638-3.978,4.338,0,2.628,1.44,4.266,3.924,4.266a5.842,5.842,0,0,0,2.52-.612l.216-1.458-.162-.108a4.941,4.941,0,0,1-2.43.756c-1.584,0-2.34-1.026-2.376-2.808Zm-1.3-1.206-3.546.09a2.11,2.11,0,0,1,2.088-2c.9,0,1.494.522,1.494,1.692ZM124.6,16h1.854l-.09-3.636.054-2.34c.018-1.548-.936-2.43-2.79-2.43a6.121,6.121,0,0,0-2.214,1.278h-.126l.018-1.206-1.746.162.09,4.7L119.538,16h1.836l-.108-3.636.018-2.2a3.229,3.229,0,0,1,2.16-1.08c.864,0,1.3.558,1.278,1.458Zm4.95-7.128-.234-1.224-1.692.09L130.086,16h1.98L135,7.7h-1.62l-.306,1.26-1.836,5.274h-.126Zm9.81-1.332c-2.484,0-3.87,1.6-3.87,4.446,0,2.664,1.314,4.176,3.636,4.176,2.484,0,3.87-1.6,3.87-4.446C142.992,9.052,141.678,7.54,139.356,7.54Zm-.108,1.278c1.35,0,2.034,1.044,2.034,3.312,0,1.89-.684,2.772-2.034,2.772-1.368,0-2.052-1.026-2.052-3.312C137.2,9.736,137.88,8.818,139.248,8.818Zm7.506,3.528.144-8.982-1.836.144.108,9L145.044,16h1.836Zm3.654-3.474-.234-1.224-1.692.09L150.948,16h1.98l2.934-8.3h-1.62l-.306,1.26L152.1,14.236h-.126Zm7.812-5.04a.973.973,0,0,0-1.044,1.044.914.914,0,0,0,.99,1.008.97.97,0,0,0,1.008-1.062A.89.89,0,0,0,158.22,3.832Zm.72,8.532.144-4.7-1.836.162.09,4.7L157.23,16h1.836ZM171.774,16h1.854l-.09-3.636.054-2.34c.018-1.548-.936-2.43-2.79-2.43a6.528,6.528,0,0,0-2.376,1.35h-.108a2.527,2.527,0,0,0-2.592-1.35,5.977,5.977,0,0,0-2.214,1.278h-.126l.018-1.206-1.746.162.09,4.7L161.64,16h1.818l-.09-3.636.018-2.2a3.229,3.229,0,0,1,2.16-1.08c.864,0,1.3.558,1.278,1.458L166.7,16h1.836l-.072-3.636.036-2.232a3.174,3.174,0,0,1,2.124-1.044c.864,0,1.3.558,1.278,1.458Zm10.26-4.068.306-.288a7.011,7.011,0,0,0,.072-.9,2.847,2.847,0,0,0-3.024-3.186c-2.412,0-3.978,1.638-3.978,4.338,0,2.628,1.44,4.266,3.924,4.266a5.842,5.842,0,0,0,2.52-.612l.216-1.458-.162-.108a4.941,4.941,0,0,1-2.43.756c-1.584,0-2.34-1.026-2.376-2.808Zm-1.3-1.206-3.546.09a2.11,2.11,0,0,1,2.088-2c.9,0,1.494.522,1.494,1.692ZM189.36,16h1.854l-.09-3.636.054-2.34c.018-1.548-.936-2.43-2.79-2.43a6.121,6.121,0,0,0-2.214,1.278h-.126l.018-1.206-1.746.162.09,4.7L184.3,16h1.836l-.108-3.636.018-2.2a3.229,3.229,0,0,1,2.16-1.08c.864,0,1.3.558,1.278,1.458Zm7.236-1.386c-.738,0-1.062-.288-1.044-1.188l.09-4.518h2.322l.09-1.044-.072-.126h-2.3l.036-1.782-.162-.144-1.62.612V7.738h-1.1l-.09,1.062.072.108h1.134l.018,3.51-.072,1.3a2.148,2.148,0,0,0,2.124,2.394,5.2,5.2,0,0,0,1.836-.54l.18-1.152-.18-.126A2.838,2.838,0,0,1,196.6,14.614Zm5.958-7.074c-2.484,0-3.87,1.6-3.87,4.446,0,2.664,1.314,4.176,3.636,4.176,2.484,0,3.87-1.6,3.87-4.446C206.19,9.052,204.876,7.54,202.554,7.54Zm-.108,1.278c1.35,0,2.034,1.044,2.034,3.312,0,1.89-.684,2.772-2.034,2.772-1.368,0-2.052-1.026-2.052-3.312C200.394,9.736,201.078,8.818,202.446,8.818Z" transform="translate(116.001 7875.674)"/>
    <g id="_6330632_accessories_clothes_clothing_fashion_shirt_icon" data-name="6330632_accessories_clothes_clothing_fashion_shirt_icon" transform="translate(6 7832.338)">
      <path id="Caminho_771060" data-name="Caminho 771060" d="M67.063,22V81.154H19V22" transform="translate(7.637 10.183)" fill="#0041d9"/>
      <path id="Caminho_771061" data-name="Caminho 771061" d="M26.637,41.426H10V40.078a27.729,27.729,0,0,1,15.329-24.8L35.88,10h0A11.091,11.091,0,0,0,46.971,21.091h7.394A11.091,11.091,0,0,0,65.457,10h0l10.552,5.276a27.728,27.728,0,0,1,15.328,24.8v1.348H74.7" fill="#0041d9"/>
    </g>
    <path id="Caminho_772645" data-name="Caminho 772645" d="M5.152,3.664c-2.88,0-4.544,1.888-4.544,5.3,0,3.312,1.584,5.152,4.336,5.152a5.655,5.655,0,0,0,2.832-.768l.112-1.216-.16-.08a4.319,4.319,0,0,1-2.672.976c-1.968,0-3.12-1.44-3.12-4.176,0-2.72,1.136-4.112,3.152-4.112a3.752,3.752,0,0,1,2.464.9L7.7,5.6l.256-1.168A5.087,5.087,0,0,0,5.152,3.664Zm6.864,2.88a4.605,4.605,0,0,0-2.736.992l.16.912.128.064a3.486,3.486,0,0,1,2.256-1.056,1.156,1.156,0,0,1,1.264,1.3l-.016,1.04L10.48,10.4a1.648,1.648,0,0,0-1.488,1.712c0,1.232.832,2,2.272,2a4.719,4.719,0,0,0,1.712-1.2h.112a1.146,1.146,0,0,0,1.1,1.184,2.3,2.3,0,0,0,.912-.32l.128-.72-.128-.112a1.746,1.746,0,0,1-.544.1c-.368,0-.5-.16-.5-.624,0-.56.192-3.392.192-3.952C14.256,7.264,13.392,6.544,12.016,6.544Zm1.04,4.064-.048,1.312a2.455,2.455,0,0,1-1.792,1.136,1.026,1.026,0,0,1-1.088-1.12.7.7,0,0,1,.608-.768ZM26.064,14h1.28L27.3,10.816l.016-2.08c.016-1.376-.816-2.16-2.432-2.16A5.262,5.262,0,0,0,22.7,7.792h-.1A2.182,2.182,0,0,0,20.32,6.576,4.887,4.887,0,0,0,18.3,7.712h-.112l.016-1.072-1.216.112.064,4.144-.08,3.1H18.24l-.064-3.216.016-2a3.2,3.2,0,0,1,2.16-1.152c.848,0,1.264.544,1.248,1.392L21.52,14H22.8l-.064-3.184.032-2.08a3.157,3.157,0,0,1,2.128-1.1A1.2,1.2,0,0,1,26.16,9.024ZM30.4,3.392a.705.705,0,0,0-.752.752.657.657,0,0,0,.7.736A.715.715,0,0,0,31.1,4.1.655.655,0,0,0,30.4,3.392Zm.5,7.392.1-4.144-1.264.112.064,4.144-.08,3.1h1.264Zm4.64-4.224c-1.584,0-2.528.9-2.528,2.112,0,2.272,3.344,1.968,3.344,3.44a1.2,1.2,0,0,1-1.328,1.1,3.148,3.148,0,0,1-1.952-.8l-.144.1-.16,1.088a4.7,4.7,0,0,0,2.128.528,2.334,2.334,0,0,0,2.608-2.24c0-2.208-3.328-1.9-3.328-3.376a1.108,1.108,0,0,1,1.216-1.04A2.776,2.776,0,0,1,36.928,8l.192-.048.176-1.04A4.665,4.665,0,0,0,35.536,6.56Zm4.512,3.712,4.464-.016.272-.208c.016-.192.032-.56.032-.736,0-1.728-.928-2.752-2.528-2.752-2.1,0-3.44,1.456-3.44,3.824,0,2.3,1.232,3.744,3.328,3.744a5.017,5.017,0,0,0,2.224-.592l.128-1.072-.144-.08a3.908,3.908,0,0,1-2.144.72c-1.472,0-2.192-1.056-2.192-2.784Zm2.128-2.816c.88,0,1.5.528,1.5,1.68l-.032.192-3.52.1A2.058,2.058,0,0,1,42.176,7.456Zm6.816,5.568c-.7,0-1.024-.288-1.008-1.152l.08-4.336h2.16l.08-.752-.064-.1H48.064L48.1,5.136l-.128-.112-1.1.48V6.688h-.976l-.08.752.064.1H46.88l.016,3.312-.048,1.136A1.848,1.848,0,0,0,48.56,14.1a4.612,4.612,0,0,0,1.6-.464l.128-.832-.144-.1A2.423,2.423,0,0,1,48.992,13.024Zm5.216-6.48a4.605,4.605,0,0,0-2.736.992l.16.912.128.064a3.486,3.486,0,0,1,2.256-1.056,1.156,1.156,0,0,1,1.264,1.3l-.016,1.04-2.592.608a1.648,1.648,0,0,0-1.488,1.712c0,1.232.832,2,2.272,2a4.719,4.719,0,0,0,1.712-1.2h.112a1.146,1.146,0,0,0,1.1,1.184,2.3,2.3,0,0,0,.912-.32l.128-.72-.128-.112a1.746,1.746,0,0,1-.544.1c-.368,0-.5-.16-.5-.624,0-.56.192-3.392.192-3.952C56.448,7.264,55.584,6.544,54.208,6.544Zm1.04,4.064L55.2,11.92a2.455,2.455,0,0,1-1.792,1.136,1.026,1.026,0,0,1-1.088-1.12.7.7,0,0,1,.608-.768ZM61.184,6.56c-1.584,0-2.528.9-2.528,2.112,0,2.272,3.344,1.968,3.344,3.44a1.2,1.2,0,0,1-1.328,1.1,3.148,3.148,0,0,1-1.952-.8l-.144.1-.16,1.088a4.7,4.7,0,0,0,2.128.528,2.334,2.334,0,0,0,2.608-2.24c0-2.208-3.328-1.9-3.328-3.376a1.108,1.108,0,0,1,1.216-1.04A2.776,2.776,0,0,1,62.576,8l.192-.048.176-1.04A4.665,4.665,0,0,0,61.184,6.56Zm8.976-.016a4.605,4.605,0,0,0-2.736.992l.16.912.128.064a3.486,3.486,0,0,1,2.256-1.056,1.156,1.156,0,0,1,1.264,1.3l-.016,1.04-2.592.608a1.648,1.648,0,0,0-1.488,1.712c0,1.232.832,2,2.272,2a4.719,4.719,0,0,0,1.712-1.2h.112a1.146,1.146,0,0,0,1.1,1.184,2.3,2.3,0,0,0,.912-.32l.128-.72-.128-.112a1.745,1.745,0,0,1-.544.1c-.368,0-.5-.16-.5-.624,0-.56.192-3.392.192-3.952C72.4,7.264,71.536,6.544,70.16,6.544Zm1.04,4.064-.048,1.312a2.455,2.455,0,0,1-1.792,1.136,1.026,1.026,0,0,1-1.088-1.12.7.7,0,0,1,.608-.768ZM79.664,14h1.28l-.064-3.184.032-2.08c.016-1.376-.816-2.16-2.448-2.16a5.037,5.037,0,0,0-2.032,1.136h-.1l.016-1.072-1.216.112L75.2,10.9,75.12,14h1.264l-.064-3.216.016-2.016A3.173,3.173,0,0,1,78.5,7.632c.848,0,1.264.544,1.248,1.392Zm6.448-7.456c-2.128,0-3.344,1.424-3.344,3.888,0,2.352,1.152,3.7,3.152,3.7,2.128,0,3.328-1.424,3.328-3.888C89.248,7.888,88.1,6.544,86.112,6.544Zm-.08.9c1.312,0,2.032,1.056,2.032,3.088,0,1.792-.72,2.688-2.064,2.688-1.312,0-2.032-1.008-2.032-3.072C83.968,8.384,84.688,7.44,86.032,7.44Zm7.2-.88c-1.584,0-2.528.9-2.528,2.112,0,2.272,3.344,1.968,3.344,3.44a1.2,1.2,0,0,1-1.328,1.1,3.148,3.148,0,0,1-1.952-.8l-.144.1-.16,1.088a4.7,4.7,0,0,0,2.128.528,2.334,2.334,0,0,0,2.608-2.24c0-2.208-3.328-1.9-3.328-3.376a1.108,1.108,0,0,1,1.216-1.04A2.776,2.776,0,0,1,94.624,8l.192-.048.176-1.04A4.665,4.665,0,0,0,93.232,6.56Zm7.152-.528-1.44-.048-.08,1.088.08.144,1.216-.128h3.376l-3.728,8.048.08.208,1.024.288.72-1.9,3.1-6.784L104.72,6l-.672.032Zm9.12-.1c-2.288,0-3.568,1.5-3.568,4.192,0,2.544,1.232,3.984,3.408,3.984,2.272,0,3.552-1.5,3.552-4.144C112.9,7.376,111.664,5.936,109.5,5.936ZM109.392,7.1c1.632,0,2.5,1.024,2.5,3.008,0,1.888-.848,2.88-2.48,2.88s-2.464-1.008-2.464-2.96C106.944,8.1,107.776,7.1,109.392,7.1ZM1.488,27.744l.08,7.168L1.488,38h1.3L2.72,34.8v-.4H3.936c2.4,0,3.824-1.392,3.824-3.664,0-1.936-1.136-3.008-3.136-3.008Zm1.248,5.584.048-4.5,1.552-.048c1.376.048,2.112.688,2.112,2.064A2.263,2.263,0,0,1,4.416,33.36Zm9.936-2.672a2.423,2.423,0,0,0-2.048,1.488h-.1l.016-1.5-1.216.112.08,4.144-.1,3.1h1.264l-.08-3.216.016-1.12c.576-1.264,1.168-1.776,1.856-1.776a2.216,2.216,0,0,1,.576.08l.144-.048V30.688A3.146,3.146,0,0,0,12.672,30.656Zm4.432-.112c-2.128,0-3.344,1.424-3.344,3.888,0,2.352,1.152,3.7,3.152,3.7,2.128,0,3.328-1.424,3.328-3.888C20.24,31.888,19.088,30.544,17.1,30.544Zm-.08.9c1.312,0,2.032,1.056,2.032,3.088,0,1.792-.72,2.688-2.064,2.688-1.312,0-2.032-1.008-2.032-3.072C14.96,32.384,15.68,31.44,17.024,31.44ZM27.7,34.784l.1-8.016-1.264.112L26.56,30.7a6.233,6.233,0,0,0-1.408-.16c-2.224,0-3.552,1.376-3.552,3.808,0,2.368,1.136,3.728,3.264,3.728a5.321,5.321,0,0,0,1.744-1.1h.112a1.179,1.179,0,0,0,1.12,1.12,2.3,2.3,0,0,0,.912-.32l.112-.72-.128-.112a1.615,1.615,0,0,1-.544.1c-.336,0-.448-.16-.464-.608Zm-2.7-3.344a3.731,3.731,0,0,1,1.568.4l.032,3.04-.032,1.152a2.272,2.272,0,0,1-1.76.976c-1.216,0-1.984-.992-2.016-2.768C22.752,32.384,23.648,31.44,24.992,31.44Zm10.992-.8-1.216.112v5.3a2.96,2.96,0,0,1-1.984.976c-.832,0-1.248-.528-1.232-1.392l.1-4.992-1.28.112.048,3.152L30.4,35.936c-.016,1.376.816,2.16,2.4,2.16a4.648,4.648,0,0,0,1.984-1.12h.128a1.165,1.165,0,0,0,1.1,1.12,2.3,2.3,0,0,0,.912-.32l.112-.72-.112-.112a1.76,1.76,0,0,1-.56.1c-.336,0-.48-.16-.48-.608Zm4.976,6.384c-.7,0-1.024-.288-1.008-1.152l.08-4.336h2.16l.08-.752-.064-.1H40.032l.032-1.552-.128-.112-1.1.48v1.184h-.976l-.08.752.064.1h1.008l.016,3.312-.048,1.136A1.848,1.848,0,0,0,40.528,38.1a4.612,4.612,0,0,0,1.6-.464l.128-.832-.144-.1A2.423,2.423,0,0,1,40.96,37.024Zm5.28-6.48c-2.128,0-3.344,1.424-3.344,3.888,0,2.352,1.152,3.7,3.152,3.7,2.128,0,3.328-1.424,3.328-3.888C49.376,31.888,48.224,30.544,46.24,30.544Zm-.08.9c1.312,0,2.032,1.056,2.032,3.088,0,1.792-.72,2.688-2.064,2.688-1.312,0-2.032-1.008-2.032-3.072C44.1,32.384,44.816,31.44,46.16,31.44Zm8.432,2.832,4.464-.016.272-.208c.016-.192.032-.56.032-.736,0-1.728-.928-2.752-2.528-2.752-2.1,0-3.44,1.456-3.44,3.824,0,2.3,1.232,3.744,3.328,3.744a5.017,5.017,0,0,0,2.224-.592l.128-1.072-.144-.08a3.908,3.908,0,0,1-2.144.72c-1.472,0-2.192-1.056-2.192-2.784Zm2.128-2.816c.88,0,1.5.528,1.5,1.68l-.032.192-3.52.1A2.058,2.058,0,0,1,56.72,31.456ZM70.3,38h1.28l-.048-3.184.016-2.08c.016-1.376-.816-2.16-2.432-2.16a5.262,5.262,0,0,0-2.176,1.216h-.1a2.182,2.182,0,0,0-2.288-1.216,4.887,4.887,0,0,0-2.016,1.136h-.112l.016-1.072-1.216.112L61.3,34.9l-.08,3.1H62.48l-.064-3.216.016-2a3.2,3.2,0,0,1,2.16-1.152c.848,0,1.264.544,1.248,1.392L65.76,38h1.28l-.064-3.184.032-2.08a3.157,3.157,0,0,1,2.128-1.1A1.2,1.2,0,0,1,70.4,33.024ZM80.48,38l3.76-10.256H82.96l-.256,1.1L79.824,36.7h-.1l-2.608-7.92-.24-1.04H75.568L78.992,38Zm4.848-3.728,4.464-.016.272-.208c.016-.192.032-.56.032-.736,0-1.728-.928-2.752-2.528-2.752-2.1,0-3.44,1.456-3.44,3.824,0,2.3,1.232,3.744,3.328,3.744a5.017,5.017,0,0,0,2.224-.592l.128-1.072-.144-.08a3.908,3.908,0,0,1-2.144.72c-1.472,0-2.192-1.056-2.192-2.784Zm2.128-2.816c.88,0,1.5.528,1.5,1.68l-.032.192-3.52.1A2.058,2.058,0,0,1,87.456,31.456ZM96.5,38h1.28l-.064-3.184.032-2.08c.016-1.376-.816-2.16-2.448-2.16a5.037,5.037,0,0,0-2.032,1.136h-.1l.016-1.072-1.216.112.064,4.144-.08,3.1h1.264l-.064-3.216.016-2.016a3.173,3.173,0,0,1,2.16-1.136c.848,0,1.264.544,1.248,1.392Zm9.184-3.216.1-8.016-1.264.112.032,3.824a6.233,6.233,0,0,0-1.408-.16c-2.224,0-3.552,1.376-3.552,3.808,0,2.368,1.136,3.728,3.264,3.728a5.321,5.321,0,0,0,1.744-1.1h.112a1.179,1.179,0,0,0,1.12,1.12,2.3,2.3,0,0,0,.912-.32l.112-.72-.128-.112a1.615,1.615,0,0,1-.544.1c-.336,0-.448-.16-.464-.608Zm-2.7-3.344a3.731,3.731,0,0,1,1.568.4l.032,3.04-.032,1.152a2.272,2.272,0,0,1-1.76.976c-1.216,0-1.984-.992-2.016-2.768C100.736,32.384,101.632,31.44,102.976,31.44Zm7.9-.9a4.605,4.605,0,0,0-2.736.992l.16.912.128.064a3.486,3.486,0,0,1,2.256-1.056,1.156,1.156,0,0,1,1.264,1.3l-.016,1.04-2.592.608a1.648,1.648,0,0,0-1.488,1.712c0,1.232.832,2,2.272,2a4.719,4.719,0,0,0,1.712-1.2h.112a1.146,1.146,0,0,0,1.1,1.184,2.3,2.3,0,0,0,.912-.32l.128-.72-.128-.112a1.746,1.746,0,0,1-.544.1c-.368,0-.5-.16-.5-.624,0-.56.192-3.392.192-3.952C113.12,31.264,112.256,30.544,110.88,30.544Zm1.04,4.064-.048,1.312a2.455,2.455,0,0,1-1.792,1.136,1.026,1.026,0,0,1-1.088-1.12.7.7,0,0,1,.608-.768Zm5.936-4.048c-1.584,0-2.528.9-2.528,2.112,0,2.272,3.344,1.968,3.344,3.44a1.2,1.2,0,0,1-1.328,1.1,3.148,3.148,0,0,1-1.952-.8l-.144.1-.16,1.088a4.7,4.7,0,0,0,2.128.528,2.334,2.334,0,0,0,2.608-2.24c0-2.208-3.328-1.9-3.328-3.376a1.108,1.108,0,0,1,1.216-1.04,2.776,2.776,0,0,1,1.536.528l.192-.048.176-1.04A4.665,4.665,0,0,0,117.856,30.56Z" transform="translate(88.674 8003.336)"/>
    <path id="Caminho_772646" data-name="Caminho 772646" d="M5.152,3.664c-2.88,0-4.544,1.888-4.544,5.3,0,3.312,1.584,5.152,4.336,5.152a5.655,5.655,0,0,0,2.832-.768l.112-1.216-.16-.08a4.319,4.319,0,0,1-2.672.976c-1.968,0-3.12-1.44-3.12-4.176,0-2.72,1.136-4.112,3.152-4.112a3.752,3.752,0,0,1,2.464.9L7.7,5.6l.256-1.168A5.087,5.087,0,0,0,5.152,3.664Zm6.864,2.88a4.605,4.605,0,0,0-2.736.992l.16.912.128.064a3.486,3.486,0,0,1,2.256-1.056,1.156,1.156,0,0,1,1.264,1.3l-.016,1.04L10.48,10.4a1.648,1.648,0,0,0-1.488,1.712c0,1.232.832,2,2.272,2a4.719,4.719,0,0,0,1.712-1.2h.112a1.146,1.146,0,0,0,1.1,1.184,2.3,2.3,0,0,0,.912-.32l.128-.72-.128-.112a1.746,1.746,0,0,1-.544.1c-.368,0-.5-.16-.5-.624,0-.56.192-3.392.192-3.952C14.256,7.264,13.392,6.544,12.016,6.544Zm1.04,4.064-.048,1.312a2.455,2.455,0,0,1-1.792,1.136,1.026,1.026,0,0,1-1.088-1.12.7.7,0,0,1,.608-.768ZM26.064,14h1.28L27.3,10.816l.016-2.08c.016-1.376-.816-2.16-2.432-2.16A5.262,5.262,0,0,0,22.7,7.792h-.1A2.182,2.182,0,0,0,20.32,6.576,4.887,4.887,0,0,0,18.3,7.712h-.112l.016-1.072-1.216.112.064,4.144-.08,3.1H18.24l-.064-3.216.016-2a3.2,3.2,0,0,1,2.16-1.152c.848,0,1.264.544,1.248,1.392L21.52,14H22.8l-.064-3.184.032-2.08a3.157,3.157,0,0,1,2.128-1.1A1.2,1.2,0,0,1,26.16,9.024ZM30.4,3.392a.705.705,0,0,0-.752.752.657.657,0,0,0,.7.736A.715.715,0,0,0,31.1,4.1.655.655,0,0,0,30.4,3.392Zm.5,7.392.1-4.144-1.264.112.064,4.144-.08,3.1h1.264Zm4.64-4.224c-1.584,0-2.528.9-2.528,2.112,0,2.272,3.344,1.968,3.344,3.44a1.2,1.2,0,0,1-1.328,1.1,3.148,3.148,0,0,1-1.952-.8l-.144.1-.16,1.088a4.7,4.7,0,0,0,2.128.528,2.334,2.334,0,0,0,2.608-2.24c0-2.208-3.328-1.9-3.328-3.376a1.108,1.108,0,0,1,1.216-1.04A2.776,2.776,0,0,1,36.928,8l.192-.048.176-1.04A4.665,4.665,0,0,0,35.536,6.56Zm4.512,3.712,4.464-.016.272-.208c.016-.192.032-.56.032-.736,0-1.728-.928-2.752-2.528-2.752-2.1,0-3.44,1.456-3.44,3.824,0,2.3,1.232,3.744,3.328,3.744a5.017,5.017,0,0,0,2.224-.592l.128-1.072-.144-.08a3.908,3.908,0,0,1-2.144.72c-1.472,0-2.192-1.056-2.192-2.784Zm2.128-2.816c.88,0,1.5.528,1.5,1.68l-.032.192-3.52.1A2.058,2.058,0,0,1,42.176,7.456Zm6.816,5.568c-.7,0-1.024-.288-1.008-1.152l.08-4.336h2.16l.08-.752-.064-.1H48.064L48.1,5.136l-.128-.112-1.1.48V6.688h-.976l-.08.752.064.1H46.88l.016,3.312-.048,1.136A1.848,1.848,0,0,0,48.56,14.1a4.612,4.612,0,0,0,1.6-.464l.128-.832-.144-.1A2.423,2.423,0,0,1,48.992,13.024Zm5.216-6.48a4.605,4.605,0,0,0-2.736.992l.16.912.128.064a3.486,3.486,0,0,1,2.256-1.056,1.156,1.156,0,0,1,1.264,1.3l-.016,1.04-2.592.608a1.648,1.648,0,0,0-1.488,1.712c0,1.232.832,2,2.272,2a4.719,4.719,0,0,0,1.712-1.2h.112a1.146,1.146,0,0,0,1.1,1.184,2.3,2.3,0,0,0,.912-.32l.128-.72-.128-.112a1.746,1.746,0,0,1-.544.1c-.368,0-.5-.16-.5-.624,0-.56.192-3.392.192-3.952C56.448,7.264,55.584,6.544,54.208,6.544Zm1.04,4.064L55.2,11.92a2.455,2.455,0,0,1-1.792,1.136,1.026,1.026,0,0,1-1.088-1.12.7.7,0,0,1,.608-.768ZM61.184,6.56c-1.584,0-2.528.9-2.528,2.112,0,2.272,3.344,1.968,3.344,3.44a1.2,1.2,0,0,1-1.328,1.1,3.148,3.148,0,0,1-1.952-.8l-.144.1-.16,1.088a4.7,4.7,0,0,0,2.128.528,2.334,2.334,0,0,0,2.608-2.24c0-2.208-3.328-1.9-3.328-3.376a1.108,1.108,0,0,1,1.216-1.04A2.776,2.776,0,0,1,62.576,8l.192-.048.176-1.04A4.665,4.665,0,0,0,61.184,6.56Zm8.976-.016a4.605,4.605,0,0,0-2.736.992l.16.912.128.064a3.486,3.486,0,0,1,2.256-1.056,1.156,1.156,0,0,1,1.264,1.3l-.016,1.04-2.592.608a1.648,1.648,0,0,0-1.488,1.712c0,1.232.832,2,2.272,2a4.719,4.719,0,0,0,1.712-1.2h.112a1.146,1.146,0,0,0,1.1,1.184,2.3,2.3,0,0,0,.912-.32l.128-.72-.128-.112a1.745,1.745,0,0,1-.544.1c-.368,0-.5-.16-.5-.624,0-.56.192-3.392.192-3.952C72.4,7.264,71.536,6.544,70.16,6.544Zm1.04,4.064-.048,1.312a2.455,2.455,0,0,1-1.792,1.136,1.026,1.026,0,0,1-1.088-1.12.7.7,0,0,1,.608-.768ZM79.664,14h1.28l-.064-3.184.032-2.08c.016-1.376-.816-2.16-2.448-2.16a5.037,5.037,0,0,0-2.032,1.136h-.1l.016-1.072-1.216.112L75.2,10.9,75.12,14h1.264l-.064-3.216.016-2.016A3.173,3.173,0,0,1,78.5,7.632c.848,0,1.264.544,1.248,1.392Zm6.448-7.456c-2.128,0-3.344,1.424-3.344,3.888,0,2.352,1.152,3.7,3.152,3.7,2.128,0,3.328-1.424,3.328-3.888C89.248,7.888,88.1,6.544,86.112,6.544Zm-.08.9c1.312,0,2.032,1.056,2.032,3.088,0,1.792-.72,2.688-2.064,2.688-1.312,0-2.032-1.008-2.032-3.072C83.968,8.384,84.688,7.44,86.032,7.44Zm7.2-.88c-1.584,0-2.528.9-2.528,2.112,0,2.272,3.344,1.968,3.344,3.44a1.2,1.2,0,0,1-1.328,1.1,3.148,3.148,0,0,1-1.952-.8l-.144.1-.16,1.088a4.7,4.7,0,0,0,2.128.528,2.334,2.334,0,0,0,2.608-2.24c0-2.208-3.328-1.9-3.328-3.376a1.108,1.108,0,0,1,1.216-1.04A2.776,2.776,0,0,1,94.624,8l.192-.048.176-1.04A4.665,4.665,0,0,0,93.232,6.56Zm9.2-2.032c-1.632,0-2.784.912-2.784,2.448a2.4,2.4,0,0,0,1.5,2.208v.08a2.748,2.748,0,0,0-1.872,2.448c0,1.408,1.056,2.4,2.832,2.4,1.872,0,3.1-1.024,3.1-2.64,0-1.376-.976-1.92-1.84-2.336v-.08a2.586,2.586,0,0,0,1.552-2.288A2.195,2.195,0,0,0,102.432,4.528Zm-.064.928A1.361,1.361,0,0,1,103.9,6.88c0,1.024-.736,1.488-1.536,1.824-.864-.352-1.648-.752-1.648-1.76A1.467,1.467,0,0,1,102.368,5.456Zm-.224,4.208c1.008.416,2,.784,2,1.888a1.69,1.69,0,0,1-1.92,1.648,1.636,1.636,0,0,1-1.856-1.616C100.368,10.448,101.248,9.984,102.144,9.664Zm8.272-3.728c-2.288,0-3.568,1.5-3.568,4.192,0,2.544,1.232,3.984,3.408,3.984,2.272,0,3.552-1.5,3.552-4.144C113.808,7.376,112.576,5.936,110.416,5.936ZM110.3,7.1c1.632,0,2.5,1.024,2.5,3.008,0,1.888-.848,2.88-2.48,2.88s-2.464-1.008-2.464-2.96C107.856,8.1,108.688,7.1,110.3,7.1ZM1.488,27.744l.08,7.168L1.488,38h1.3L2.72,34.8v-.4H3.936c2.4,0,3.824-1.392,3.824-3.664,0-1.936-1.136-3.008-3.136-3.008Zm1.248,5.584.048-4.5,1.552-.048c1.376.048,2.112.688,2.112,2.064A2.263,2.263,0,0,1,4.416,33.36Zm9.936-2.672a2.423,2.423,0,0,0-2.048,1.488h-.1l.016-1.5-1.216.112.08,4.144-.1,3.1h1.264l-.08-3.216.016-1.12c.576-1.264,1.168-1.776,1.856-1.776a2.216,2.216,0,0,1,.576.08l.144-.048V30.688A3.146,3.146,0,0,0,12.672,30.656Zm4.432-.112c-2.128,0-3.344,1.424-3.344,3.888,0,2.352,1.152,3.7,3.152,3.7,2.128,0,3.328-1.424,3.328-3.888C20.24,31.888,19.088,30.544,17.1,30.544Zm-.08.9c1.312,0,2.032,1.056,2.032,3.088,0,1.792-.72,2.688-2.064,2.688-1.312,0-2.032-1.008-2.032-3.072C14.96,32.384,15.68,31.44,17.024,31.44ZM27.7,34.784l.1-8.016-1.264.112L26.56,30.7a6.233,6.233,0,0,0-1.408-.16c-2.224,0-3.552,1.376-3.552,3.808,0,2.368,1.136,3.728,3.264,3.728a5.321,5.321,0,0,0,1.744-1.1h.112a1.179,1.179,0,0,0,1.12,1.12,2.3,2.3,0,0,0,.912-.32l.112-.72-.128-.112a1.615,1.615,0,0,1-.544.1c-.336,0-.448-.16-.464-.608Zm-2.7-3.344a3.731,3.731,0,0,1,1.568.4l.032,3.04-.032,1.152a2.272,2.272,0,0,1-1.76.976c-1.216,0-1.984-.992-2.016-2.768C22.752,32.384,23.648,31.44,24.992,31.44Zm10.992-.8-1.216.112v5.3a2.96,2.96,0,0,1-1.984.976c-.832,0-1.248-.528-1.232-1.392l.1-4.992-1.28.112.048,3.152L30.4,35.936c-.016,1.376.816,2.16,2.4,2.16a4.648,4.648,0,0,0,1.984-1.12h.128a1.165,1.165,0,0,0,1.1,1.12,2.3,2.3,0,0,0,.912-.32l.112-.72-.112-.112a1.76,1.76,0,0,1-.56.1c-.336,0-.48-.16-.48-.608Zm4.976,6.384c-.7,0-1.024-.288-1.008-1.152l.08-4.336h2.16l.08-.752-.064-.1H40.032l.032-1.552-.128-.112-1.1.48v1.184h-.976l-.08.752.064.1h1.008l.016,3.312-.048,1.136A1.848,1.848,0,0,0,40.528,38.1a4.612,4.612,0,0,0,1.6-.464l.128-.832-.144-.1A2.423,2.423,0,0,1,40.96,37.024Zm5.28-6.48c-2.128,0-3.344,1.424-3.344,3.888,0,2.352,1.152,3.7,3.152,3.7,2.128,0,3.328-1.424,3.328-3.888C49.376,31.888,48.224,30.544,46.24,30.544Zm-.08.9c1.312,0,2.032,1.056,2.032,3.088,0,1.792-.72,2.688-2.064,2.688-1.312,0-2.032-1.008-2.032-3.072C44.1,32.384,44.816,31.44,46.16,31.44Zm8.432,2.832,4.464-.016.272-.208c.016-.192.032-.56.032-.736,0-1.728-.928-2.752-2.528-2.752-2.1,0-3.44,1.456-3.44,3.824,0,2.3,1.232,3.744,3.328,3.744a5.017,5.017,0,0,0,2.224-.592l.128-1.072-.144-.08a3.908,3.908,0,0,1-2.144.72c-1.472,0-2.192-1.056-2.192-2.784Zm2.128-2.816c.88,0,1.5.528,1.5,1.68l-.032.192-3.52.1A2.058,2.058,0,0,1,56.72,31.456ZM70.3,38h1.28l-.048-3.184.016-2.08c.016-1.376-.816-2.16-2.432-2.16a5.262,5.262,0,0,0-2.176,1.216h-.1a2.182,2.182,0,0,0-2.288-1.216,4.887,4.887,0,0,0-2.016,1.136h-.112l.016-1.072-1.216.112L61.3,34.9l-.08,3.1H62.48l-.064-3.216.016-2a3.2,3.2,0,0,1,2.16-1.152c.848,0,1.264.544,1.248,1.392L65.76,38h1.28l-.064-3.184.032-2.08a3.157,3.157,0,0,1,2.128-1.1A1.2,1.2,0,0,1,70.4,33.024ZM80.48,38l3.76-10.256H82.96l-.256,1.1L79.824,36.7h-.1l-2.608-7.92-.24-1.04H75.568L78.992,38Zm4.848-3.728,4.464-.016.272-.208c.016-.192.032-.56.032-.736,0-1.728-.928-2.752-2.528-2.752-2.1,0-3.44,1.456-3.44,3.824,0,2.3,1.232,3.744,3.328,3.744a5.017,5.017,0,0,0,2.224-.592l.128-1.072-.144-.08a3.908,3.908,0,0,1-2.144.72c-1.472,0-2.192-1.056-2.192-2.784Zm2.128-2.816c.88,0,1.5.528,1.5,1.68l-.032.192-3.52.1A2.058,2.058,0,0,1,87.456,31.456ZM96.5,38h1.28l-.064-3.184.032-2.08c.016-1.376-.816-2.16-2.448-2.16a5.037,5.037,0,0,0-2.032,1.136h-.1l.016-1.072-1.216.112.064,4.144-.08,3.1h1.264l-.064-3.216.016-2.016a3.173,3.173,0,0,1,2.16-1.136c.848,0,1.264.544,1.248,1.392Zm9.184-3.216.1-8.016-1.264.112.032,3.824a6.233,6.233,0,0,0-1.408-.16c-2.224,0-3.552,1.376-3.552,3.808,0,2.368,1.136,3.728,3.264,3.728a5.321,5.321,0,0,0,1.744-1.1h.112a1.179,1.179,0,0,0,1.12,1.12,2.3,2.3,0,0,0,.912-.32l.112-.72-.128-.112a1.615,1.615,0,0,1-.544.1c-.336,0-.448-.16-.464-.608Zm-2.7-3.344a3.731,3.731,0,0,1,1.568.4l.032,3.04-.032,1.152a2.272,2.272,0,0,1-1.76.976c-1.216,0-1.984-.992-2.016-2.768C100.736,32.384,101.632,31.44,102.976,31.44Zm7.9-.9a4.605,4.605,0,0,0-2.736.992l.16.912.128.064a3.486,3.486,0,0,1,2.256-1.056,1.156,1.156,0,0,1,1.264,1.3l-.016,1.04-2.592.608a1.648,1.648,0,0,0-1.488,1.712c0,1.232.832,2,2.272,2a4.719,4.719,0,0,0,1.712-1.2h.112a1.146,1.146,0,0,0,1.1,1.184,2.3,2.3,0,0,0,.912-.32l.128-.72-.128-.112a1.746,1.746,0,0,1-.544.1c-.368,0-.5-.16-.5-.624,0-.56.192-3.392.192-3.952C113.12,31.264,112.256,30.544,110.88,30.544Zm1.04,4.064-.048,1.312a2.455,2.455,0,0,1-1.792,1.136,1.026,1.026,0,0,1-1.088-1.12.7.7,0,0,1,.608-.768Zm5.936-4.048c-1.584,0-2.528.9-2.528,2.112,0,2.272,3.344,1.968,3.344,3.44a1.2,1.2,0,0,1-1.328,1.1,3.148,3.148,0,0,1-1.952-.8l-.144.1-.16,1.088a4.7,4.7,0,0,0,2.128.528,2.334,2.334,0,0,0,2.608-2.24c0-2.208-3.328-1.9-3.328-3.376a1.108,1.108,0,0,1,1.216-1.04,2.776,2.776,0,0,1,1.536.528l.192-.048.176-1.04A4.665,4.665,0,0,0,117.856,30.56Z" transform="translate(88.674 8065.93)"/>
    <path id="Caminho_772647" data-name="Caminho 772647" d="M5.152,3.664c-2.88,0-4.544,1.888-4.544,5.3,0,3.312,1.584,5.152,4.336,5.152a5.655,5.655,0,0,0,2.832-.768l.112-1.216-.16-.08a4.319,4.319,0,0,1-2.672.976c-1.968,0-3.12-1.44-3.12-4.176,0-2.72,1.136-4.112,3.152-4.112a3.752,3.752,0,0,1,2.464.9L7.7,5.6l.256-1.168A5.087,5.087,0,0,0,5.152,3.664Zm6.864,2.88a4.605,4.605,0,0,0-2.736.992l.16.912.128.064a3.486,3.486,0,0,1,2.256-1.056,1.156,1.156,0,0,1,1.264,1.3l-.016,1.04L10.48,10.4a1.648,1.648,0,0,0-1.488,1.712c0,1.232.832,2,2.272,2a4.719,4.719,0,0,0,1.712-1.2h.112a1.146,1.146,0,0,0,1.1,1.184,2.3,2.3,0,0,0,.912-.32l.128-.72-.128-.112a1.746,1.746,0,0,1-.544.1c-.368,0-.5-.16-.5-.624,0-.56.192-3.392.192-3.952C14.256,7.264,13.392,6.544,12.016,6.544Zm1.04,4.064-.048,1.312a2.455,2.455,0,0,1-1.792,1.136,1.026,1.026,0,0,1-1.088-1.12.7.7,0,0,1,.608-.768ZM26.064,14h1.28L27.3,10.816l.016-2.08c.016-1.376-.816-2.16-2.432-2.16A5.262,5.262,0,0,0,22.7,7.792h-.1A2.182,2.182,0,0,0,20.32,6.576,4.887,4.887,0,0,0,18.3,7.712h-.112l.016-1.072-1.216.112.064,4.144-.08,3.1H18.24l-.064-3.216.016-2a3.2,3.2,0,0,1,2.16-1.152c.848,0,1.264.544,1.248,1.392L21.52,14H22.8l-.064-3.184.032-2.08a3.157,3.157,0,0,1,2.128-1.1A1.2,1.2,0,0,1,26.16,9.024ZM30.4,3.392a.705.705,0,0,0-.752.752.657.657,0,0,0,.7.736A.715.715,0,0,0,31.1,4.1.655.655,0,0,0,30.4,3.392Zm.5,7.392.1-4.144-1.264.112.064,4.144-.08,3.1h1.264Zm4.64-4.224c-1.584,0-2.528.9-2.528,2.112,0,2.272,3.344,1.968,3.344,3.44a1.2,1.2,0,0,1-1.328,1.1,3.148,3.148,0,0,1-1.952-.8l-.144.1-.16,1.088a4.7,4.7,0,0,0,2.128.528,2.334,2.334,0,0,0,2.608-2.24c0-2.208-3.328-1.9-3.328-3.376a1.108,1.108,0,0,1,1.216-1.04A2.776,2.776,0,0,1,36.928,8l.192-.048.176-1.04A4.665,4.665,0,0,0,35.536,6.56Zm4.512,3.712,4.464-.016.272-.208c.016-.192.032-.56.032-.736,0-1.728-.928-2.752-2.528-2.752-2.1,0-3.44,1.456-3.44,3.824,0,2.3,1.232,3.744,3.328,3.744a5.017,5.017,0,0,0,2.224-.592l.128-1.072-.144-.08a3.908,3.908,0,0,1-2.144.72c-1.472,0-2.192-1.056-2.192-2.784Zm2.128-2.816c.88,0,1.5.528,1.5,1.68l-.032.192-3.52.1A2.058,2.058,0,0,1,42.176,7.456Zm6.816,5.568c-.7,0-1.024-.288-1.008-1.152l.08-4.336h2.16l.08-.752-.064-.1H48.064L48.1,5.136l-.128-.112-1.1.48V6.688h-.976l-.08.752.064.1H46.88l.016,3.312-.048,1.136A1.848,1.848,0,0,0,48.56,14.1a4.612,4.612,0,0,0,1.6-.464l.128-.832-.144-.1A2.423,2.423,0,0,1,48.992,13.024Zm5.216-6.48a4.605,4.605,0,0,0-2.736.992l.16.912.128.064a3.486,3.486,0,0,1,2.256-1.056,1.156,1.156,0,0,1,1.264,1.3l-.016,1.04-2.592.608a1.648,1.648,0,0,0-1.488,1.712c0,1.232.832,2,2.272,2a4.719,4.719,0,0,0,1.712-1.2h.112a1.146,1.146,0,0,0,1.1,1.184,2.3,2.3,0,0,0,.912-.32l.128-.72-.128-.112a1.746,1.746,0,0,1-.544.1c-.368,0-.5-.16-.5-.624,0-.56.192-3.392.192-3.952C56.448,7.264,55.584,6.544,54.208,6.544Zm1.04,4.064L55.2,11.92a2.455,2.455,0,0,1-1.792,1.136,1.026,1.026,0,0,1-1.088-1.12.7.7,0,0,1,.608-.768ZM61.184,6.56c-1.584,0-2.528.9-2.528,2.112,0,2.272,3.344,1.968,3.344,3.44a1.2,1.2,0,0,1-1.328,1.1,3.148,3.148,0,0,1-1.952-.8l-.144.1-.16,1.088a4.7,4.7,0,0,0,2.128.528,2.334,2.334,0,0,0,2.608-2.24c0-2.208-3.328-1.9-3.328-3.376a1.108,1.108,0,0,1,1.216-1.04A2.776,2.776,0,0,1,62.576,8l.192-.048.176-1.04A4.665,4.665,0,0,0,61.184,6.56Zm8.976-.016a4.605,4.605,0,0,0-2.736.992l.16.912.128.064a3.486,3.486,0,0,1,2.256-1.056,1.156,1.156,0,0,1,1.264,1.3l-.016,1.04-2.592.608a1.648,1.648,0,0,0-1.488,1.712c0,1.232.832,2,2.272,2a4.719,4.719,0,0,0,1.712-1.2h.112a1.146,1.146,0,0,0,1.1,1.184,2.3,2.3,0,0,0,.912-.32l.128-.72-.128-.112a1.745,1.745,0,0,1-.544.1c-.368,0-.5-.16-.5-.624,0-.56.192-3.392.192-3.952C72.4,7.264,71.536,6.544,70.16,6.544Zm1.04,4.064-.048,1.312a2.455,2.455,0,0,1-1.792,1.136,1.026,1.026,0,0,1-1.088-1.12.7.7,0,0,1,.608-.768ZM79.664,14h1.28l-.064-3.184.032-2.08c.016-1.376-.816-2.16-2.448-2.16a5.037,5.037,0,0,0-2.032,1.136h-.1l.016-1.072-1.216.112L75.2,10.9,75.12,14h1.264l-.064-3.216.016-2.016A3.173,3.173,0,0,1,78.5,7.632c.848,0,1.264.544,1.248,1.392Zm6.448-7.456c-2.128,0-3.344,1.424-3.344,3.888,0,2.352,1.152,3.7,3.152,3.7,2.128,0,3.328-1.424,3.328-3.888C89.248,7.888,88.1,6.544,86.112,6.544Zm-.08.9c1.312,0,2.032,1.056,2.032,3.088,0,1.792-.72,2.688-2.064,2.688-1.312,0-2.032-1.008-2.032-3.072C83.968,8.384,84.688,7.44,86.032,7.44Zm7.2-.88c-1.584,0-2.528.9-2.528,2.112,0,2.272,3.344,1.968,3.344,3.44a1.2,1.2,0,0,1-1.328,1.1,3.148,3.148,0,0,1-1.952-.8l-.144.1-.16,1.088a4.7,4.7,0,0,0,2.128.528,2.334,2.334,0,0,0,2.608-2.24c0-2.208-3.328-1.9-3.328-3.376a1.108,1.108,0,0,1,1.216-1.04A2.776,2.776,0,0,1,94.624,8l.192-.048.176-1.04A4.665,4.665,0,0,0,93.232,6.56Zm9.552,1.856a3.466,3.466,0,0,0-2.08.7l-.1-.112C101.1,7.3,102.5,6.1,105.056,5.2V5.072l-.992-.576h-.08c-3.008,1.2-4.736,3.408-4.736,6.128,0,2.208.976,3.5,2.976,3.5a2.878,2.878,0,0,0,3.12-3.008A2.451,2.451,0,0,0,102.784,8.416Zm-.464,4.832c-1.328,0-1.92-.9-1.92-2.624l.016-.432a3.035,3.035,0,0,1,2.016-.832c1.136,0,1.776.688,1.776,1.936A1.745,1.745,0,0,1,102.32,13.248Zm8.032-7.312c-2.288,0-3.568,1.5-3.568,4.192,0,2.544,1.232,3.984,3.408,3.984,2.272,0,3.552-1.5,3.552-4.144C113.744,7.376,112.512,5.936,110.352,5.936ZM110.24,7.1c1.632,0,2.5,1.024,2.5,3.008,0,1.888-.848,2.88-2.48,2.88s-2.464-1.008-2.464-2.96C107.792,8.1,108.624,7.1,110.24,7.1ZM1.488,27.744l.08,7.168L1.488,38h1.3L2.72,34.8v-.4H3.936c2.4,0,3.824-1.392,3.824-3.664,0-1.936-1.136-3.008-3.136-3.008Zm1.248,5.584.048-4.5,1.552-.048c1.376.048,2.112.688,2.112,2.064A2.263,2.263,0,0,1,4.416,33.36Zm9.936-2.672a2.423,2.423,0,0,0-2.048,1.488h-.1l.016-1.5-1.216.112.08,4.144-.1,3.1h1.264l-.08-3.216.016-1.12c.576-1.264,1.168-1.776,1.856-1.776a2.216,2.216,0,0,1,.576.08l.144-.048V30.688A3.146,3.146,0,0,0,12.672,30.656Zm4.432-.112c-2.128,0-3.344,1.424-3.344,3.888,0,2.352,1.152,3.7,3.152,3.7,2.128,0,3.328-1.424,3.328-3.888C20.24,31.888,19.088,30.544,17.1,30.544Zm-.08.9c1.312,0,2.032,1.056,2.032,3.088,0,1.792-.72,2.688-2.064,2.688-1.312,0-2.032-1.008-2.032-3.072C14.96,32.384,15.68,31.44,17.024,31.44ZM27.7,34.784l.1-8.016-1.264.112L26.56,30.7a6.233,6.233,0,0,0-1.408-.16c-2.224,0-3.552,1.376-3.552,3.808,0,2.368,1.136,3.728,3.264,3.728a5.321,5.321,0,0,0,1.744-1.1h.112a1.179,1.179,0,0,0,1.12,1.12,2.3,2.3,0,0,0,.912-.32l.112-.72-.128-.112a1.615,1.615,0,0,1-.544.1c-.336,0-.448-.16-.464-.608Zm-2.7-3.344a3.731,3.731,0,0,1,1.568.4l.032,3.04-.032,1.152a2.272,2.272,0,0,1-1.76.976c-1.216,0-1.984-.992-2.016-2.768C22.752,32.384,23.648,31.44,24.992,31.44Zm10.992-.8-1.216.112v5.3a2.96,2.96,0,0,1-1.984.976c-.832,0-1.248-.528-1.232-1.392l.1-4.992-1.28.112.048,3.152L30.4,35.936c-.016,1.376.816,2.16,2.4,2.16a4.648,4.648,0,0,0,1.984-1.12h.128a1.165,1.165,0,0,0,1.1,1.12,2.3,2.3,0,0,0,.912-.32l.112-.72-.112-.112a1.76,1.76,0,0,1-.56.1c-.336,0-.48-.16-.48-.608Zm4.976,6.384c-.7,0-1.024-.288-1.008-1.152l.08-4.336h2.16l.08-.752-.064-.1H40.032l.032-1.552-.128-.112-1.1.48v1.184h-.976l-.08.752.064.1h1.008l.016,3.312-.048,1.136A1.848,1.848,0,0,0,40.528,38.1a4.612,4.612,0,0,0,1.6-.464l.128-.832-.144-.1A2.423,2.423,0,0,1,40.96,37.024Zm5.28-6.48c-2.128,0-3.344,1.424-3.344,3.888,0,2.352,1.152,3.7,3.152,3.7,2.128,0,3.328-1.424,3.328-3.888C49.376,31.888,48.224,30.544,46.24,30.544Zm-.08.9c1.312,0,2.032,1.056,2.032,3.088,0,1.792-.72,2.688-2.064,2.688-1.312,0-2.032-1.008-2.032-3.072C44.1,32.384,44.816,31.44,46.16,31.44Zm13.312,3.344.1-8.016L58.3,26.88l.032,3.824a6.234,6.234,0,0,0-1.408-.16c-2.224,0-3.552,1.376-3.552,3.808,0,2.368,1.136,3.728,3.264,3.728a5.321,5.321,0,0,0,1.744-1.1H58.5a1.179,1.179,0,0,0,1.12,1.12,2.3,2.3,0,0,0,.912-.32l.112-.72-.128-.112a1.615,1.615,0,0,1-.544.1c-.336,0-.448-.16-.464-.608Zm-2.7-3.344a3.731,3.731,0,0,1,1.568.4l.032,3.04-.032,1.152a2.272,2.272,0,0,1-1.76.976c-1.216,0-1.984-.992-2.016-2.768C54.528,32.384,55.424,31.44,56.768,31.44Zm6.08,2.832,4.464-.016.272-.208c.016-.192.032-.56.032-.736,0-1.728-.928-2.752-2.528-2.752-2.1,0-3.44,1.456-3.44,3.824,0,2.3,1.232,3.744,3.328,3.744a5.017,5.017,0,0,0,2.224-.592l.128-1.072-.144-.08a3.908,3.908,0,0,1-2.144.72c-1.472,0-2.192-1.056-2.192-2.784Zm2.128-2.816c.88,0,1.5.528,1.5,1.68l-.032.192-3.52.1A2.058,2.058,0,0,1,64.976,31.456Zm6.512-.9c-1.584,0-2.528.9-2.528,2.112,0,2.272,3.344,1.968,3.344,3.44a1.2,1.2,0,0,1-1.328,1.1,3.148,3.148,0,0,1-1.952-.8l-.144.1L68.72,37.6a4.7,4.7,0,0,0,2.128.528,2.334,2.334,0,0,0,2.608-2.24c0-2.208-3.328-1.9-3.328-3.376a1.108,1.108,0,0,1,1.216-1.04A2.776,2.776,0,0,1,72.88,32l.192-.048.176-1.04A4.665,4.665,0,0,0,71.488,30.56Zm6.56-.016c-2.016,0-3.248,1.488-3.248,3.84,0,2.32,1.184,3.744,3.12,3.744a5.191,5.191,0,0,0,1.952-.416l.144-1.072-.144-.08a3.594,3.594,0,0,1-1.792.544C76.768,37.1,76,36.032,76,34.32c0-1.728.752-2.736,2-2.736a3.115,3.115,0,0,1,1.648.544l.144-.048.224-1.1A4.865,4.865,0,0,0,78.048,30.544Zm6.24,0c-2.128,0-3.344,1.424-3.344,3.888,0,2.352,1.152,3.7,3.152,3.7,2.128,0,3.328-1.424,3.328-3.888C87.424,31.888,86.272,30.544,84.288,30.544Zm-.08.9c1.312,0,2.032,1.056,2.032,3.088,0,1.792-.72,2.688-2.064,2.688-1.312,0-2.032-1.008-2.032-3.072C82.144,32.384,82.864,31.44,84.208,31.44ZM93.936,38h1.28l-.064-3.184.032-2.08c.016-1.376-.816-2.16-2.448-2.16A5.037,5.037,0,0,0,90.7,31.712h-.1l.016-1.072-1.216.112.064,4.144-.08,3.1h1.264l-.064-3.216.016-2.016a3.173,3.173,0,0,1,2.16-1.136c.848,0,1.264.544,1.248,1.392Zm6.016-.976c-.7,0-1.024-.288-1.008-1.152l.08-4.336h2.16l.08-.752-.064-.1H99.024l.032-1.552-.128-.112-1.1.48v1.184h-.976l-.08.752.064.1H97.84l.016,3.312-.048,1.136A1.848,1.848,0,0,0,99.52,38.1a4.612,4.612,0,0,0,1.6-.464l.128-.832-.144-.1A2.423,2.423,0,0,1,99.952,37.024Zm3.472-9.632a.706.706,0,0,0-.752.752.657.657,0,0,0,.7.736.715.715,0,0,0,.752-.784A.655.655,0,0,0,103.424,27.392Zm.5,7.392.1-4.144-1.264.112.064,4.144-.08,3.1H104ZM111.088,38h1.28l-.064-3.184.032-2.08c.016-1.376-.816-2.16-2.448-2.16a5.037,5.037,0,0,0-2.032,1.136h-.1l.016-1.072-1.216.112.064,4.144-.08,3.1h1.264l-.064-3.216.016-2.016a3.173,3.173,0,0,1,2.16-1.136c.848,0,1.264.544,1.248,1.392Zm9.216-7.36-1.216.112v5.3a2.96,2.96,0,0,1-1.984.976c-.832,0-1.248-.528-1.232-1.392l.1-4.992-1.28.112.048,3.152-.016,2.032c-.016,1.376.816,2.16,2.4,2.16a4.648,4.648,0,0,0,1.984-1.12h.128a1.165,1.165,0,0,0,1.1,1.12,2.3,2.3,0,0,0,.912-.32l.112-.72-.112-.112a1.759,1.759,0,0,1-.56.1c-.336,0-.48-.16-.48-.608Zm5.088-.1a4.605,4.605,0,0,0-2.736.992l.16.912.128.064a3.486,3.486,0,0,1,2.256-1.056,1.156,1.156,0,0,1,1.264,1.3l-.016,1.04-2.592.608a1.648,1.648,0,0,0-1.488,1.712c0,1.232.832,2,2.272,2a4.719,4.719,0,0,0,1.712-1.2h.112a1.146,1.146,0,0,0,1.1,1.184,2.3,2.3,0,0,0,.912-.32l.128-.72-.128-.112a1.746,1.746,0,0,1-.544.1c-.368,0-.5-.16-.5-.624,0-.56.192-3.392.192-3.952C127.632,31.264,126.768,30.544,125.392,30.544Zm1.04,4.064-.048,1.312a2.455,2.455,0,0,1-1.792,1.136,1.026,1.026,0,0,1-1.088-1.12.7.7,0,0,1,.608-.768Zm9.408.176.1-8.016-1.264.112L134.7,30.7a6.233,6.233,0,0,0-1.408-.16c-2.224,0-3.552,1.376-3.552,3.808,0,2.368,1.136,3.728,3.264,3.728a5.321,5.321,0,0,0,1.744-1.1h.112a1.179,1.179,0,0,0,1.12,1.12,2.3,2.3,0,0,0,.912-.32l.112-.72-.128-.112a1.615,1.615,0,0,1-.544.1c-.336,0-.448-.16-.464-.608Zm-2.7-3.344a3.731,3.731,0,0,1,1.568.4l.032,3.04-.032,1.152a2.272,2.272,0,0,1-1.76.976c-1.216,0-1.984-.992-2.016-2.768C130.9,32.384,131.792,31.44,133.136,31.44Zm8.224-.9c-2.128,0-3.344,1.424-3.344,3.888,0,2.352,1.152,3.7,3.152,3.7,2.128,0,3.328-1.424,3.328-3.888C144.5,31.888,143.344,30.544,141.36,30.544Zm-.08.9c1.312,0,2.032,1.056,2.032,3.088,0,1.792-.72,2.688-2.064,2.688-1.312,0-2.032-1.008-2.032-3.072C139.216,32.384,139.936,31.44,141.28,31.44ZM5.792,56.656a2.477,2.477,0,0,0,1.536-2.432c0-1.648-1.1-2.5-2.992-2.5l-2.848.016.08,7.168L1.488,62H1.5c.64.048,1.9.064,2.256.064,2.8,0,4.208-.992,4.208-2.928A2.341,2.341,0,0,0,5.792,56.656Zm.224-2.288a1.761,1.761,0,0,1-1.5,1.9l-1.76-.048.032-3.44h1.3C5.44,52.784,6.016,53.264,6.016,54.368ZM3.952,60.992c-.32,0-.768-.016-1.184-.048L2.72,58.8l.016-1.5L4.7,57.28c1.28.144,1.968.736,1.968,1.792C6.672,60.32,5.7,60.992,3.952,60.992Zm8.336-6.448a4.605,4.605,0,0,0-2.736.992l.16.912.128.064A3.486,3.486,0,0,1,12.1,55.456a1.156,1.156,0,0,1,1.264,1.3l-.016,1.04-2.592.608a1.648,1.648,0,0,0-1.488,1.712c0,1.232.832,2,2.272,2a4.719,4.719,0,0,0,1.712-1.2h.112a1.146,1.146,0,0,0,1.1,1.184,2.3,2.3,0,0,0,.912-.32l.128-.72-.128-.112a1.746,1.746,0,0,1-.544.1c-.368,0-.5-.16-.5-.624,0-.56.192-3.392.192-3.952C14.528,55.264,13.664,54.544,12.288,54.544Zm1.04,4.064L13.28,59.92a2.455,2.455,0,0,1-1.792,1.136,1.026,1.026,0,0,1-1.088-1.12.7.7,0,0,1,.608-.768Zm4.608-7.216a.705.705,0,0,0-.752.752.657.657,0,0,0,.7.736.715.715,0,0,0,.752-.784A.655.655,0,0,0,17.936,51.392Zm.5,7.392.1-4.144-1.264.112.064,4.144-.08,3.1h1.264Zm3.408-3.472-.3-.688-1.36.1,2.336,3.552L20.16,62h1.184l.32-.624L23.2,58.992l1.568,2.32.352.752,1.344-.128-2.448-3.68L26.3,54.672H25.12l-.368.656L23.36,57.536Zm8.656-.768c-2.128,0-3.344,1.424-3.344,3.888,0,2.352,1.152,3.7,3.152,3.7,2.128,0,3.328-1.424,3.328-3.888C33.632,55.888,32.48,54.544,30.5,54.544Zm-.08.9c1.312,0,2.032,1.056,2.032,3.088,0,1.792-.72,2.688-2.064,2.688-1.312,0-2.032-1.008-2.032-3.072C28.352,56.384,29.072,55.44,30.416,55.44ZM41.6,54.656a2.423,2.423,0,0,0-2.048,1.488h-.1l.016-1.5-1.216.112.08,4.144-.1,3.1H39.5l-.08-3.216.016-1.12c.576-1.264,1.168-1.776,1.856-1.776a2.216,2.216,0,0,1,.576.08l.144-.048V54.688A3.146,3.146,0,0,0,41.6,54.656Zm2.288,3.616,4.464-.016.272-.208c.016-.192.032-.56.032-.736,0-1.728-.928-2.752-2.528-2.752-2.1,0-3.44,1.456-3.44,3.824,0,2.3,1.232,3.744,3.328,3.744a5.017,5.017,0,0,0,2.224-.592l.128-1.072-.144-.08a3.908,3.908,0,0,1-2.144.72c-1.472,0-2.192-1.056-2.192-2.784Zm2.128-2.816c.88,0,1.5.528,1.5,1.68l-.032.192-3.52.1A2.058,2.058,0,0,1,46.016,55.456Zm6.512-.9c-1.584,0-2.528.9-2.528,2.112,0,2.272,3.344,1.968,3.344,3.44a1.2,1.2,0,0,1-1.328,1.1,3.148,3.148,0,0,1-1.952-.8l-.144.1L49.76,61.6a4.7,4.7,0,0,0,2.128.528,2.334,2.334,0,0,0,2.608-2.24c0-2.208-3.328-1.9-3.328-3.376a1.108,1.108,0,0,1,1.216-1.04A2.776,2.776,0,0,1,53.92,56l.192-.048.176-1.04A4.665,4.665,0,0,0,52.528,54.56Zm9.424.08-1.216.112v5.3a2.96,2.96,0,0,1-1.984.976c-.832,0-1.248-.528-1.232-1.392l.1-4.992-1.28.112.048,3.152-.016,2.032c-.016,1.376.816,2.16,2.4,2.16a4.648,4.648,0,0,0,1.984-1.12h.128a1.165,1.165,0,0,0,1.1,1.12,2.3,2.3,0,0,0,.912-.32l.112-.72-.112-.112a1.76,1.76,0,0,1-.56.1c-.336,0-.48-.16-.48-.608Zm3.92,4.144.1-8.016L64.7,50.88l.08,8-.1,3.12h1.264Zm5.008,2.24c-.7,0-1.024-.288-1.008-1.152l.08-4.336h2.16l.08-.752-.064-.1H69.952l.032-1.552-.128-.112-1.1.48v1.184h-.976l-.08.752.064.1h1.008l.016,3.312-.048,1.136A1.848,1.848,0,0,0,70.448,62.1a4.612,4.612,0,0,0,1.6-.464l.128-.832-.144-.1A2.423,2.423,0,0,1,70.88,61.024Zm5.216-6.48a4.605,4.605,0,0,0-2.736.992l.16.912.128.064A3.486,3.486,0,0,1,75.9,55.456a1.156,1.156,0,0,1,1.264,1.3l-.016,1.04L74.56,58.4a1.648,1.648,0,0,0-1.488,1.712c0,1.232.832,2,2.272,2a4.719,4.719,0,0,0,1.712-1.2h.112a1.146,1.146,0,0,0,1.1,1.184,2.3,2.3,0,0,0,.912-.32l.128-.72-.128-.112a1.746,1.746,0,0,1-.544.1c-.368,0-.5-.16-.5-.624,0-.56.192-3.392.192-3.952C78.336,55.264,77.472,54.544,76.1,54.544Zm1.04,4.064-.048,1.312A2.455,2.455,0,0,1,75.3,61.056a1.026,1.026,0,0,1-1.088-1.12.7.7,0,0,1,.608-.768Zm9.408.176.1-8.016-1.264.112.032,3.824A6.233,6.233,0,0,0,84,54.544c-2.224,0-3.552,1.376-3.552,3.808,0,2.368,1.136,3.728,3.264,3.728a5.321,5.321,0,0,0,1.744-1.1h.112a1.179,1.179,0,0,0,1.12,1.12,2.3,2.3,0,0,0,.912-.32l.112-.72-.128-.112a1.615,1.615,0,0,1-.544.1c-.336,0-.448-.16-.464-.608Zm-2.7-3.344a3.731,3.731,0,0,1,1.568.4l.032,3.04-.032,1.152a2.272,2.272,0,0,1-1.76.976c-1.216,0-1.984-.992-2.016-2.768C81.6,56.384,82.5,55.44,83.84,55.44Zm8.224-.9c-2.128,0-3.344,1.424-3.344,3.888,0,2.352,1.152,3.7,3.152,3.7C94,62.128,95.2,60.7,95.2,58.24,95.2,55.888,94.048,54.544,92.064,54.544Zm-.08.9c1.312,0,2.032,1.056,2.032,3.088,0,1.792-.72,2.688-2.064,2.688-1.312,0-2.032-1.008-2.032-3.072C89.92,56.384,90.64,55.44,91.984,55.44ZM105.3,58.784l.1-8.016-1.264.112.032,3.824a6.233,6.233,0,0,0-1.408-.16c-2.224,0-3.552,1.376-3.552,3.808,0,2.368,1.136,3.728,3.264,3.728a5.321,5.321,0,0,0,1.744-1.1h.112a1.179,1.179,0,0,0,1.12,1.12,2.3,2.3,0,0,0,.912-.32l.112-.72-.128-.112a1.615,1.615,0,0,1-.544.1c-.336,0-.448-.16-.464-.608Zm-2.7-3.344a3.731,3.731,0,0,1,1.568.4l.032,3.04-.032,1.152a2.272,2.272,0,0,1-1.76.976c-1.216,0-1.984-.992-2.016-2.768C100.352,56.384,101.248,55.44,102.592,55.44Zm6.08,2.832,4.464-.016.272-.208c.016-.192.032-.56.032-.736,0-1.728-.928-2.752-2.528-2.752-2.1,0-3.44,1.456-3.44,3.824,0,2.3,1.232,3.744,3.328,3.744a5.017,5.017,0,0,0,2.224-.592l.128-1.072-.144-.08a3.908,3.908,0,0,1-2.144.72c-1.472,0-2.192-1.056-2.192-2.784Zm2.128-2.816c.88,0,1.5.528,1.5,1.68l-.032.192-3.52.1A2.058,2.058,0,0,1,110.8,55.456Zm7.6.144-.208-.976-1.184.08L119.28,62h1.36l2.688-7.328h-1.136l-.256.992-1.872,5.072h-.08Zm6.688,2.672,4.464-.016.272-.208c.016-.192.032-.56.032-.736,0-1.728-.928-2.752-2.528-2.752-2.1,0-3.44,1.456-3.44,3.824,0,2.3,1.232,3.744,3.328,3.744a5.017,5.017,0,0,0,2.224-.592l.128-1.072-.144-.08a3.908,3.908,0,0,1-2.144.72c-1.472,0-2.192-1.056-2.192-2.784Zm2.128-2.816c.88,0,1.5.528,1.5,1.68l-.032.192-3.52.1A2.058,2.058,0,0,1,127.216,55.456ZM136.256,62h1.28l-.064-3.184.032-2.08c.016-1.376-.816-2.16-2.448-2.16a5.037,5.037,0,0,0-2.032,1.136h-.1l.016-1.072-1.216.112.064,4.144-.08,3.1h1.264l-.064-3.216.016-2.016a3.173,3.173,0,0,1,2.16-1.136c.848,0,1.264.544,1.248,1.392Zm9.184-3.216.1-8.016-1.264.112L144.3,54.7a6.233,6.233,0,0,0-1.408-.16c-2.224,0-3.552,1.376-3.552,3.808,0,2.368,1.136,3.728,3.264,3.728a5.321,5.321,0,0,0,1.744-1.1h.112a1.179,1.179,0,0,0,1.12,1.12,2.3,2.3,0,0,0,.912-.32l.112-.72-.128-.112a1.615,1.615,0,0,1-.544.1c-.336,0-.448-.16-.464-.608Zm-2.7-3.344a3.731,3.731,0,0,1,1.568.4l.032,3.04-.032,1.152a2.272,2.272,0,0,1-1.76.976c-1.216,0-1.984-.992-2.016-2.768C140.5,56.384,141.392,55.44,142.736,55.44Zm7.9-.9a4.605,4.605,0,0,0-2.736.992l.16.912.128.064a3.486,3.486,0,0,1,2.256-1.056,1.156,1.156,0,0,1,1.264,1.3l-.016,1.04L149.1,58.4a1.648,1.648,0,0,0-1.488,1.712c0,1.232.832,2,2.272,2a4.719,4.719,0,0,0,1.712-1.2h.112a1.146,1.146,0,0,0,1.1,1.184,2.3,2.3,0,0,0,.912-.32l.128-.72-.128-.112a1.746,1.746,0,0,1-.544.1c-.368,0-.5-.16-.5-.624,0-.56.192-3.392.192-3.952C152.88,55.264,152.016,54.544,150.64,54.544Zm1.04,4.064-.048,1.312a2.455,2.455,0,0,1-1.792,1.136,1.026,1.026,0,0,1-1.088-1.12.7.7,0,0,1,.608-.768Zm5.936-4.048c-1.584,0-2.528.9-2.528,2.112,0,2.272,3.344,1.968,3.344,3.44a1.2,1.2,0,0,1-1.328,1.1,3.148,3.148,0,0,1-1.952-.8l-.144.1-.16,1.088a4.7,4.7,0,0,0,2.128.528,2.334,2.334,0,0,0,2.608-2.24c0-2.208-3.328-1.9-3.328-3.376a1.108,1.108,0,0,1,1.216-1.04,2.776,2.776,0,0,1,1.536.528l.192-.048.176-1.04A4.665,4.665,0,0,0,157.616,54.56Z" transform="translate(88.674 8125.43)"/>
    <g id="_6330632_accessories_clothes_clothing_fashion_shirt_icon-2" data-name="6330632_accessories_clothes_clothing_fashion_shirt_icon" transform="translate(13 7987.674)">
      <path id="Caminho_771060-2" data-name="Caminho 771060" d="M48.353,22V58.126H19V22" transform="translate(1.161 1.547)" fill="#0024a9"/>
      <path id="Caminho_771061-2" data-name="Caminho 771061" d="M20.161,29.192H10v-.823a16.934,16.934,0,0,1,9.362-15.147L25.805,10h0a6.774,6.774,0,0,0,6.774,6.774h4.516A6.774,6.774,0,0,0,43.869,10h0l6.444,3.222a16.934,16.934,0,0,1,9.361,15.147v.823H49.513" transform="translate(0 0)" fill="#0024a9"/>
    </g>
    <g id="_6330632_accessories_clothes_clothing_fashion_shirt_icon-3" data-name="6330632_accessories_clothes_clothing_fashion_shirt_icon" transform="translate(13 8053.011)">
      <path id="Caminho_771060-3" data-name="Caminho 771060" d="M48.353,22V58.126H19V22" transform="translate(1.161 1.547)" fill="#40bbff"/>
      <path id="Caminho_771061-3" data-name="Caminho 771061" d="M20.161,29.192H10v-.823a16.934,16.934,0,0,1,9.362-15.147L25.805,10h0a6.774,6.774,0,0,0,6.774,6.774h4.516A6.774,6.774,0,0,0,43.869,10h0l6.444,3.222a16.934,16.934,0,0,1,9.361,15.147v.823H49.513" transform="translate(0 0)" fill="#40bbff"/>
    </g>
    <g id="_6330632_accessories_clothes_clothing_fashion_shirt_icon-4" data-name="6330632_accessories_clothes_clothing_fashion_shirt_icon" transform="translate(13 8125.441)">
      <path id="Caminho_771060-4" data-name="Caminho 771060" d="M48.353,22V58.126H19V22" transform="translate(1.161 1.547)" fill="#3b4aff"/>
      <path id="Caminho_771061-4" data-name="Caminho 771061" d="M20.161,29.192H10v-.823a16.934,16.934,0,0,1,9.362-15.147L25.805,10h0a6.774,6.774,0,0,0,6.774,6.774h4.516A6.774,6.774,0,0,0,43.869,10h0l6.444,3.222a16.934,16.934,0,0,1,9.361,15.147v.823H49.513" transform="translate(0 0)" fill="#3b4aff"/>
    </g>
  </g>
</svg>
