<svg xmlns="http://www.w3.org/2000/svg" xmlns:xlink="http://www.w3.org/1999/xlink" width="357.877" height="355.77" viewBox="0 0 357.877 355.77">
  <defs>
    <linearGradient id="linear-gradient" x1="0.015" y1="0.269" x2="0.003" y2="1" gradientUnits="objectBoundingBox">
      <stop offset="0" stop-color="#64dadb"/>
      <stop offset="1" stop-color="#4dc5f2"/>
    </linearGradient>
    <clipPath id="clip-path">
      <path id="Caminho_770335" data-name="Caminho 770335" d="M150.843,0,115.516,56.007,84.545.1C43.162,10.854,10.763,41.1,0,79.294H235.776C224.988,40.978,192.414,10.66,150.843,0Z" fill="url(#linear-gradient)"/>
    </clipPath>
    <clipPath id="clip-path-2">
      <rect id="Retângulo_124925" data-name="Retângulo 124925" width="59.989" height="73.822" fill="none"/>
    </clipPath>
  </defs>
  <g id="_img_joaomaria_17-mob_" data-name="&lt;img joaomaria_17-mob&gt;" transform="translate(0 -1273.336)">
    <path id="GettyImages-1412762526" d="M-111.213.131,194.568,0,142.753,225.391l-306.063-.173Z" transform="translate(163.31 1273.336)" fill="#0041d9"/>
    <path id="Caminho_773577" data-name="Caminho 773577" d="M1.692,4.462H1.674l.09,8.064L1.674,16h.018c.99.054,3.06.108,3.744.108,3.546,0,5.508-2.232,5.508-6.282,0-3.51-1.818-5.436-5.094-5.436ZM5.67,14.9c-.378,0-1.71-.036-2.556-.108L3.06,12.4l.072-6.732C3.87,5.632,5.364,5.6,5.742,5.6c2.448,0,3.726,1.476,3.726,4.536C9.468,13.354,8.082,14.9,5.67,14.9ZM13.824,4.066a.794.794,0,0,0-.846.846.739.739,0,0,0,.792.828.8.8,0,0,0,.846-.882A.737.737,0,0,0,13.824,4.066Zm.558,8.316L14.49,7.72l-1.422.126.072,4.662L13.05,16h1.422Zm5.688-4.77a5.181,5.181,0,0,0-3.078,1.116l.18,1.026.144.072a3.922,3.922,0,0,1,2.538-1.188A1.3,1.3,0,0,1,21.276,10.1l-.018,1.17-2.916.684a1.854,1.854,0,0,0-1.674,1.926c0,1.386.936,2.25,2.556,2.25a5.308,5.308,0,0,0,1.926-1.35h.126a1.289,1.289,0,0,0,1.242,1.332,2.592,2.592,0,0,0,1.026-.36l.144-.81-.144-.126a1.964,1.964,0,0,1-.612.108c-.414,0-.558-.18-.558-.7,0-.63.216-3.816.216-4.446C22.59,8.422,21.618,7.612,20.07,7.612Zm1.17,4.572-.054,1.476a2.761,2.761,0,0,1-2.016,1.278,1.154,1.154,0,0,1-1.224-1.26.788.788,0,0,1,.684-.864ZM30.762,16H32.2l-.072-3.582.036-2.34c.018-1.548-.918-2.43-2.754-2.43a5.666,5.666,0,0,0-2.286,1.278h-.108l.018-1.206-1.368.126.072,4.662L25.65,16h1.422L27,12.382l.018-2.268a3.569,3.569,0,0,1,2.43-1.278c.954,0,1.422.612,1.4,1.566Zm6.768-1.1c-.792,0-1.152-.324-1.134-1.3l.09-4.878h2.43l.09-.846-.072-.108H36.486l.036-1.746L36.378,5.9l-1.242.54V7.774h-1.1l-.09.846.072.108h1.134l.018,3.726-.054,1.278a2.079,2.079,0,0,0,1.926,2.376,5.189,5.189,0,0,0,1.8-.522l.144-.936-.162-.108A2.726,2.726,0,0,1,37.53,14.9Zm3.528-3.1,5.022-.018.306-.234c.018-.216.036-.63.036-.828,0-1.944-1.044-3.1-2.844-3.1-2.358,0-3.87,1.638-3.87,4.3,0,2.592,1.386,4.212,3.744,4.212a5.644,5.644,0,0,0,2.5-.666l.144-1.206-.162-.09a4.4,4.4,0,0,1-2.412.81c-1.656,0-2.466-1.188-2.466-3.132Zm2.394-3.168c.99,0,1.692.594,1.692,1.89l-.036.216-3.96.108A2.315,2.315,0,0,1,43.452,8.638Zm14.2,3.744.108-9.018L56.34,3.49l.036,4.3a7.013,7.013,0,0,0-1.584-.18c-2.5,0-4,1.548-4,4.284,0,2.664,1.278,4.194,3.672,4.194a5.986,5.986,0,0,0,1.962-1.242h.126a1.327,1.327,0,0,0,1.26,1.26,2.592,2.592,0,0,0,1.026-.36l.126-.81-.144-.126a1.816,1.816,0,0,1-.612.108c-.378,0-.5-.18-.522-.684ZM54.612,8.62a4.2,4.2,0,0,1,1.764.45l.036,3.42-.036,1.3a2.556,2.556,0,0,1-1.98,1.1c-1.368,0-2.232-1.116-2.268-3.114C52.092,9.682,53.1,8.62,54.612,8.62Zm6.84,3.186,5.022-.018.306-.234c.018-.216.036-.63.036-.828,0-1.944-1.044-3.1-2.844-3.1-2.358,0-3.87,1.638-3.87,4.3,0,2.592,1.386,4.212,3.744,4.212a5.644,5.644,0,0,0,2.5-.666l.144-1.206-.162-.09a4.4,4.4,0,0,1-2.412.81c-1.656,0-2.466-1.188-2.466-3.132Zm2.394-3.168c.99,0,1.692.594,1.692,1.89l-.036.216-3.96.108A2.315,2.315,0,0,1,63.846,8.638ZM71.172,7.63c-1.782,0-2.844,1.008-2.844,2.376,0,2.556,3.762,2.214,3.762,3.87A1.353,1.353,0,0,1,70.6,15.118a3.542,3.542,0,0,1-2.2-.9l-.162.108-.18,1.224a5.288,5.288,0,0,0,2.394.594,2.626,2.626,0,0,0,2.934-2.52c0-2.484-3.744-2.142-3.744-3.8a1.247,1.247,0,0,1,1.368-1.17,3.123,3.123,0,0,1,1.728.594l.216-.054.2-1.17A5.248,5.248,0,0,0,71.172,7.63Zm7,7.272c-.792,0-1.152-.324-1.134-1.3l.09-4.878h2.43l.09-.846-.072-.108H77.13l.036-1.746L77.022,5.9l-1.242.54V7.774h-1.1l-.09.846.072.108H75.8l.018,3.726-.054,1.278a2.079,2.079,0,0,0,1.926,2.376,5.189,5.189,0,0,0,1.8-.522l.144-.936-.162-.108A2.726,2.726,0,0,1,78.174,14.9Zm3.528-3.1,5.022-.018.306-.234c.018-.216.036-.63.036-.828,0-1.944-1.044-3.1-2.844-3.1-2.358,0-3.87,1.638-3.87,4.3,0,2.592,1.386,4.212,3.744,4.212a5.644,5.644,0,0,0,2.5-.666l.144-1.206-.162-.09a4.4,4.4,0,0,1-2.412.81c-1.656,0-2.466-1.188-2.466-3.132ZM84.1,8.638c.99,0,1.692.594,1.692,1.89l-.036.216-3.96.108A2.315,2.315,0,0,1,84.1,8.638ZM95.112,7.612c-2.268,0-3.654,1.674-3.654,4.32,0,2.61,1.332,4.212,3.51,4.212a5.84,5.84,0,0,0,2.2-.468l.162-1.206-.162-.09a4.043,4.043,0,0,1-2.016.612c-1.476,0-2.34-1.206-2.34-3.132,0-1.944.846-3.078,2.25-3.078a3.5,3.5,0,0,1,1.854.612l.162-.054L97.326,8.1A5.473,5.473,0,0,0,95.112,7.612Zm4.608,4.194,5.022-.018.306-.234c.018-.216.036-.63.036-.828,0-1.944-1.044-3.1-2.844-3.1-2.358,0-3.87,1.638-3.87,4.3,0,2.592,1.386,4.212,3.744,4.212a5.644,5.644,0,0,0,2.5-.666l.144-1.206-.162-.09a4.4,4.4,0,0,1-2.412.81c-1.656,0-2.466-1.188-2.466-3.132Zm2.394-3.168c.99,0,1.692.594,1.692,1.89l-.036.216-3.96.108A2.315,2.315,0,0,1,102.114,8.638ZM112.284,16h1.44l-.072-3.582.036-2.34c.018-1.548-.918-2.43-2.754-2.43a5.666,5.666,0,0,0-2.286,1.278h-.108l.018-1.206-1.368.126.072,4.662L107.172,16h1.422l-.072-3.618.018-2.268a3.569,3.569,0,0,1,2.43-1.278c.954,0,1.422.612,1.4,1.566Zm8.532-12.528-.162-.018c-1.008.99-1.962,1.8-2.952,2.61l.4.576.162.018c1.026-.72,2-1.458,3.06-2.286l.036-.144Zm-1.638,4.14a5.231,5.231,0,0,0-3.1,1.116l.2,1.026.144.072a3.885,3.885,0,0,1,2.538-1.188,1.3,1.3,0,0,1,1.422,1.458l-.018,1.17-2.916.684a1.854,1.854,0,0,0-1.674,1.926c0,1.386.936,2.25,2.556,2.25a5.308,5.308,0,0,0,1.926-1.35h.108a1.3,1.3,0,0,0,1.26,1.332,2.694,2.694,0,0,0,1.026-.36l.126-.81-.144-.126a1.8,1.8,0,0,1-.594.108c-.432,0-.576-.18-.576-.7,0-.63.234-3.816.234-4.446C121.7,8.422,120.708,7.612,119.178,7.612Zm1.17,4.572-.054,1.476a2.791,2.791,0,0,1-2.034,1.278,1.149,1.149,0,0,1-1.206-1.26.775.775,0,0,1,.684-.864Zm8.19-4.446a2.726,2.726,0,0,0-2.3,1.674h-.108l.018-1.692-1.368.126.09,4.662L124.758,16h1.422l-.09-3.618.018-1.26c.648-1.422,1.314-2,2.088-2a2.493,2.493,0,0,1,.648.09l.162-.054V7.774A3.54,3.54,0,0,0,128.538,7.738Zm2.808-3.672a.794.794,0,0,0-.846.846.739.739,0,0,0,.792.828.8.8,0,0,0,.846-.882A.737.737,0,0,0,131.346,4.066Zm.558,8.316.108-4.662-1.422.126.072,4.662L130.572,16h1.422Zm6.048-4.77c-2.394,0-3.762,1.6-3.762,4.374,0,2.646,1.3,4.158,3.546,4.158,2.394,0,3.744-1.6,3.744-4.374C141.48,9.124,140.184,7.612,137.952,7.612Zm-.09,1.008c1.476,0,2.286,1.188,2.286,3.474,0,2.016-.81,3.024-2.322,3.024-1.476,0-2.286-1.134-2.286-3.456C135.54,9.682,136.35,8.62,137.862,8.62Zm5.85,5.814a3.136,3.136,0,0,0-.99.468v.144a1.037,1.037,0,0,1,.558.846,2.123,2.123,0,0,1-.99,1.584V17.6l.486.45c1.134-.828,1.692-1.638,1.692-2.412A1.4,1.4,0,0,0,143.712,14.434Zm12.042-2.052.108-9.018-1.422.126.036,4.3a7.012,7.012,0,0,0-1.584-.18c-2.5,0-4,1.548-4,4.284,0,2.664,1.278,4.194,3.672,4.194a5.986,5.986,0,0,0,1.962-1.242h.126a1.327,1.327,0,0,0,1.26,1.26,2.592,2.592,0,0,0,1.026-.36l.126-.81-.144-.126a1.817,1.817,0,0,1-.612.108c-.378,0-.5-.18-.522-.684ZM152.712,8.62a4.2,4.2,0,0,1,1.764.45l.036,3.42-.036,1.3a2.556,2.556,0,0,1-1.98,1.1c-1.368,0-2.232-1.116-2.268-3.114C150.192,9.682,151.2,8.62,152.712,8.62Zm6.84,3.186,5.022-.018.306-.234c.018-.216.036-.63.036-.828,0-1.944-1.044-3.1-2.844-3.1-2.358,0-3.87,1.638-3.87,4.3,0,2.592,1.386,4.212,3.744,4.212a5.644,5.644,0,0,0,2.5-.666l.144-1.206-.162-.09a4.4,4.4,0,0,1-2.412.81c-1.656,0-2.466-1.188-2.466-3.132Zm2.394-3.168c.99,0,1.692.594,1.692,1.89l-.036.216-3.96.108A2.315,2.315,0,0,1,161.946,8.638Zm8.046-1.026c-2.268,0-3.654,1.674-3.654,4.32,0,2.61,1.332,4.212,3.51,4.212a5.84,5.84,0,0,0,2.2-.468l.162-1.206-.162-.09a4.043,4.043,0,0,1-2.016.612c-1.476,0-2.34-1.206-2.34-3.132,0-1.944.846-3.078,2.25-3.078a3.5,3.5,0,0,1,1.854.612l.162-.054.252-1.242A5.473,5.473,0,0,0,169.992,7.612Zm4.716-3.546a.794.794,0,0,0-.846.846.739.739,0,0,0,.792.828.8.8,0,0,0,.846-.882A.737.737,0,0,0,174.708,4.066Zm.558,8.316.108-4.662-1.422.126.072,4.662L173.934,16h1.422Zm9.126,0,.108-9.018-1.422.126.036,4.3a7.012,7.012,0,0,0-1.584-.18c-2.5,0-4,1.548-4,4.284,0,2.664,1.278,4.194,3.672,4.194a5.986,5.986,0,0,0,1.962-1.242h.126a1.327,1.327,0,0,0,1.26,1.26,2.592,2.592,0,0,0,1.026-.36l.126-.81-.144-.126a1.817,1.817,0,0,1-.612.108c-.378,0-.5-.18-.522-.684ZM181.35,8.62a4.2,4.2,0,0,1,1.764.45l.036,3.42-.036,1.3a2.556,2.556,0,0,1-1.98,1.1c-1.368,0-2.232-1.116-2.268-3.114C178.83,9.682,179.838,8.62,181.35,8.62Zm6.93-4.554a.794.794,0,0,0-.846.846.739.739,0,0,0,.792.828.8.8,0,0,0,.846-.882A.737.737,0,0,0,188.28,4.066Zm.558,8.316.108-4.662-1.422.126.072,4.662L187.506,16h1.422ZM202.014,16h1.44l-.054-3.582.018-2.34c.018-1.548-.918-2.43-2.736-2.43a5.92,5.92,0,0,0-2.448,1.368h-.108c-.342-.882-1.206-1.368-2.574-1.368a5.5,5.5,0,0,0-2.268,1.278h-.126l.018-1.206-1.368.126.072,4.662L191.79,16h1.422l-.072-3.618.018-2.25a3.6,3.6,0,0,1,2.43-1.3c.954,0,1.422.612,1.4,1.566L196.9,16h1.44l-.072-3.582.036-2.34A3.552,3.552,0,0,1,200.7,8.836a1.351,1.351,0,0,1,1.422,1.566Zm7.2-8.388c-2.394,0-3.762,1.6-3.762,4.374,0,2.646,1.3,4.158,3.546,4.158,2.394,0,3.744-1.6,3.744-4.374C212.742,9.124,211.446,7.612,209.214,7.612Zm-.09,1.008c1.476,0,2.286,1.188,2.286,3.474,0,2.016-.81,3.024-2.322,3.024-1.476,0-2.286-1.134-2.286-3.456C206.8,9.682,207.612,8.62,209.124,8.62Zm8.1-.99c-1.782,0-2.844,1.008-2.844,2.376,0,2.556,3.762,2.214,3.762,3.87a1.353,1.353,0,0,1-1.494,1.242,3.542,3.542,0,0,1-2.2-.9l-.162.108-.18,1.224a5.288,5.288,0,0,0,2.394.594,2.626,2.626,0,0,0,2.934-2.52c0-2.484-3.744-2.142-3.744-3.8a1.247,1.247,0,0,1,1.368-1.17,3.123,3.123,0,0,1,1.728.594l.216-.054.2-1.17A5.248,5.248,0,0,0,217.224,7.63ZM2.2,30.066a.794.794,0,0,0-.846.846.739.739,0,0,0,.792.828.8.8,0,0,0,.846-.882A.737.737,0,0,0,2.2,30.066Zm.558,8.316.108-4.662-1.422.126.072,4.662L1.422,42H2.844ZM10.818,42h1.44l-.072-3.582.036-2.34c.018-1.548-.918-2.43-2.754-2.43a5.666,5.666,0,0,0-2.286,1.278H7.074l.018-1.206-1.368.126L5.8,38.508,5.706,42H7.128l-.072-3.618.018-2.268A3.569,3.569,0,0,1,9.5,34.836c.954,0,1.422.612,1.4,1.566Zm7.254-8.388c-2.394,0-3.762,1.6-3.762,4.374,0,2.646,1.3,4.158,3.546,4.158,2.394,0,3.744-1.6,3.744-4.374C21.6,35.124,20.3,33.612,18.072,33.612Zm-.09,1.008c1.476,0,2.286,1.188,2.286,3.474,0,2.016-.81,3.024-2.322,3.024-1.476,0-2.286-1.134-2.286-3.456C15.66,35.682,16.47,34.62,17.982,34.62Zm6.066.18-.234-1.1-1.332.09L25.038,42h1.53l3.024-8.244H28.314l-.288,1.116L25.92,40.578h-.09Zm9.558-1.188a5.181,5.181,0,0,0-3.078,1.116l.18,1.026.144.072a3.922,3.922,0,0,1,2.538-1.188A1.3,1.3,0,0,1,34.812,36.1l-.018,1.17-2.916.684A1.854,1.854,0,0,0,30.2,39.876c0,1.386.936,2.25,2.556,2.25a5.308,5.308,0,0,0,1.926-1.35h.126a1.289,1.289,0,0,0,1.242,1.332,2.592,2.592,0,0,0,1.026-.36l.144-.81-.144-.126a1.964,1.964,0,0,1-.612.108c-.414,0-.558-.18-.558-.7,0-.63.216-3.816.216-4.446C36.126,34.422,35.154,33.612,33.606,33.612Zm1.17,4.572-.054,1.476a2.761,2.761,0,0,1-2.016,1.278,1.154,1.154,0,0,1-1.224-1.26.788.788,0,0,1,.684-.864Zm8.19-4.446a2.726,2.726,0,0,0-2.3,1.674h-.108l.018-1.692-1.368.126.09,4.662L39.186,42h1.422l-.09-3.618.018-1.26c.648-1.422,1.314-2,2.088-2a2.492,2.492,0,0,1,.648.09l.162-.054V33.774A3.539,3.539,0,0,0,42.966,33.738Zm5.688,4.068,5.022-.018.306-.234c.018-.216.036-.63.036-.828,0-1.944-1.044-3.1-2.844-3.1-2.358,0-3.87,1.638-3.87,4.3,0,2.592,1.386,4.212,3.744,4.212a5.644,5.644,0,0,0,2.5-.666l.144-1.206-.162-.09a4.4,4.4,0,0,1-2.412.81c-1.656,0-2.466-1.188-2.466-3.132Zm2.394-3.168c.99,0,1.692.594,1.692,1.89l-.036.216-3.96.108A2.315,2.315,0,0,1,51.048,34.638Zm11.016-1.026c-2.268,0-3.654,1.674-3.654,4.32,0,2.61,1.332,4.212,3.51,4.212a5.84,5.84,0,0,0,2.2-.468l.162-1.206-.162-.09a4.043,4.043,0,0,1-2.016.612c-1.476,0-2.34-1.206-2.34-3.132,0-1.944.846-3.078,2.25-3.078a3.5,3.5,0,0,1,1.854.612l.162-.054.252-1.242A5.473,5.473,0,0,0,62.064,33.612Zm7.722.126a2.726,2.726,0,0,0-2.3,1.674h-.108l.018-1.692-1.368.126.09,4.662L66.006,42h1.422l-.09-3.618.018-1.26c.648-1.422,1.314-2,2.088-2a2.493,2.493,0,0,1,.648.09l.162-.054V33.774A3.539,3.539,0,0,0,69.786,33.738Zm2.808-3.672a.794.794,0,0,0-.846.846.739.739,0,0,0,.792.828.8.8,0,0,0,.846-.882A.737.737,0,0,0,72.594,30.066Zm.558,8.316.108-4.662-1.422.126.072,4.662L71.82,42h1.422Zm5.688-4.77a5.181,5.181,0,0,0-3.078,1.116l.18,1.026.144.072a3.922,3.922,0,0,1,2.538-1.188A1.3,1.3,0,0,1,80.046,36.1l-.018,1.17-2.916.684a1.854,1.854,0,0,0-1.674,1.926c0,1.386.936,2.25,2.556,2.25a5.308,5.308,0,0,0,1.926-1.35h.126a1.289,1.289,0,0,0,1.242,1.332,2.592,2.592,0,0,0,1.026-.36l.144-.81-.144-.126a1.964,1.964,0,0,1-.612.108c-.414,0-.558-.18-.558-.7,0-.63.216-3.816.216-4.446C81.36,34.422,80.388,33.612,78.84,33.612Zm1.17,4.572-.054,1.476a2.761,2.761,0,0,1-2.016,1.278,1.154,1.154,0,0,1-1.224-1.26.788.788,0,0,1,.684-.864Zm8.19-4.446a2.726,2.726,0,0,0-2.3,1.674h-.108l.018-1.692-1.368.126.09,4.662L84.42,42h1.422l-.09-3.618.018-1.26c.648-1.422,1.314-2,2.088-2a2.493,2.493,0,0,1,.648.09l.162-.054V33.774A3.539,3.539,0,0,0,88.2,33.738Zm7.992-.126c-2.268,0-3.654,1.674-3.654,4.32,0,2.61,1.332,4.212,3.51,4.212a5.84,5.84,0,0,0,2.2-.468l.162-1.206-.162-.09a4.043,4.043,0,0,1-2.016.612c-1.476,0-2.34-1.206-2.34-3.132,0-1.944.846-3.078,2.25-3.078a3.5,3.5,0,0,1,1.854.612l.162-.054.252-1.242A5.473,5.473,0,0,0,96.192,33.612Zm6.5,0a5.181,5.181,0,0,0-3.078,1.116l.18,1.026.144.072a3.922,3.922,0,0,1,2.538-1.188A1.3,1.3,0,0,1,103.9,36.1l-.018,1.17-2.916.684a1.854,1.854,0,0,0-1.674,1.926c0,1.386.936,2.25,2.556,2.25a5.308,5.308,0,0,0,1.926-1.35h.126a1.289,1.289,0,0,0,1.242,1.332,2.592,2.592,0,0,0,1.026-.36l.144-.81-.144-.126a1.964,1.964,0,0,1-.612.108c-.414,0-.558-.18-.558-.7,0-.63.216-3.816.216-4.446C105.21,34.422,104.238,33.612,102.69,33.612Zm1.17,4.572-.054,1.476a2.761,2.761,0,0,1-2.016,1.278,1.154,1.154,0,0,1-1.224-1.26.788.788,0,0,1,.684-.864ZM118.494,42h1.44l-.054-3.582.018-2.34c.018-1.548-.918-2.43-2.736-2.43a5.92,5.92,0,0,0-2.448,1.368h-.108c-.342-.882-1.206-1.368-2.574-1.368a5.5,5.5,0,0,0-2.268,1.278h-.126l.018-1.206-1.368.126.072,4.662L108.27,42h1.422l-.072-3.618.018-2.25a3.6,3.6,0,0,1,2.43-1.3c.954,0,1.422.612,1.4,1.566l-.09,5.6h1.44l-.072-3.582.036-2.34a3.552,3.552,0,0,1,2.394-1.242A1.351,1.351,0,0,1,118.6,36.4Zm4.878-11.934a.794.794,0,0,0-.846.846.739.739,0,0,0,.792.828.8.8,0,0,0,.846-.882A.737.737,0,0,0,123.372,30.066Zm.558,8.316.108-4.662-1.422.126.072,4.662L122.6,42h1.422Zm5.22-4.752c-1.782,0-2.844,1.008-2.844,2.376,0,2.556,3.762,2.214,3.762,3.87a1.353,1.353,0,0,1-1.494,1.242,3.542,3.542,0,0,1-2.2-.9l-.162.108-.18,1.224a5.288,5.288,0,0,0,2.394.594,2.626,2.626,0,0,0,2.934-2.52c0-2.484-3.744-2.142-3.744-3.8a1.247,1.247,0,0,1,1.368-1.17,3.123,3.123,0,0,1,1.728.594l.216-.054.2-1.17A5.248,5.248,0,0,0,129.15,33.63Zm5.076,4.176,5.022-.018.306-.234c.018-.216.036-.63.036-.828,0-1.944-1.044-3.1-2.844-3.1-2.358,0-3.87,1.638-3.87,4.3,0,2.592,1.386,4.212,3.744,4.212a5.644,5.644,0,0,0,2.5-.666l.144-1.206-.162-.09a4.4,4.4,0,0,1-2.412.81c-1.656,0-2.466-1.188-2.466-3.132Zm2.394-3.168c.99,0,1.692.594,1.692,1.89l-.036.216-3.96.108A2.315,2.315,0,0,1,136.62,34.638Zm7.668,6.264c-.792,0-1.152-.324-1.134-1.3l.09-4.878h2.43l.09-.846-.072-.108h-2.448l.036-1.746-.144-.126-1.242.54v1.332h-1.1l-.09.846.072.108h1.134l.018,3.726-.054,1.278a2.079,2.079,0,0,0,1.926,2.376,5.189,5.189,0,0,0,1.8-.522l.144-.936-.162-.108A2.726,2.726,0,0,1,144.288,40.9Zm5.868-7.29a5.181,5.181,0,0,0-3.078,1.116l.18,1.026.144.072a3.922,3.922,0,0,1,2.538-1.188,1.3,1.3,0,0,1,1.422,1.458l-.018,1.17-2.916.684a1.854,1.854,0,0,0-1.674,1.926c0,1.386.936,2.25,2.556,2.25a5.308,5.308,0,0,0,1.926-1.35h.126a1.289,1.289,0,0,0,1.242,1.332,2.592,2.592,0,0,0,1.026-.36l.144-.81-.144-.126a1.964,1.964,0,0,1-.612.108c-.414,0-.558-.18-.558-.7,0-.63.216-3.816.216-4.446C152.676,34.422,151.7,33.612,150.156,33.612Zm1.17,4.572-.054,1.476a2.761,2.761,0,0,1-2.016,1.278,1.154,1.154,0,0,1-1.224-1.26.788.788,0,0,1,.684-.864ZM158,33.63c-1.782,0-2.844,1.008-2.844,2.376,0,2.556,3.762,2.214,3.762,3.87a1.353,1.353,0,0,1-1.494,1.242,3.542,3.542,0,0,1-2.2-.9l-.162.108-.18,1.224a5.288,5.288,0,0,0,2.394.594,2.626,2.626,0,0,0,2.934-2.52c0-2.484-3.744-2.142-3.744-3.8a1.247,1.247,0,0,1,1.368-1.17,3.123,3.123,0,0,1,1.728.594l.216-.054.2-1.17A5.248,5.248,0,0,0,158,33.63Zm10.35-.018c-2.268,0-3.654,1.674-3.654,4.32,0,2.61,1.332,4.212,3.51,4.212a5.84,5.84,0,0,0,2.2-.468l.162-1.206-.162-.09a4.043,4.043,0,0,1-2.016.612c-1.476,0-2.34-1.206-2.34-3.132,0-1.944.846-3.078,2.25-3.078a3.5,3.5,0,0,1,1.854.612l.162-.054.252-1.242A5.473,5.473,0,0,0,168.354,33.612Zm7.02,0c-2.394,0-3.762,1.6-3.762,4.374,0,2.646,1.3,4.158,3.546,4.158,2.394,0,3.744-1.6,3.744-4.374C178.9,35.124,177.606,33.612,175.374,33.612Zm-.09,1.008c1.476,0,2.286,1.188,2.286,3.474,0,2.016-.81,3.024-2.322,3.024-1.476,0-2.286-1.134-2.286-3.456C172.962,35.682,173.772,34.62,175.284,34.62ZM191.34,42h1.44l-.054-3.582.018-2.34c.018-1.548-.918-2.43-2.736-2.43a5.92,5.92,0,0,0-2.448,1.368h-.108c-.342-.882-1.206-1.368-2.574-1.368a5.5,5.5,0,0,0-2.268,1.278h-.126l.018-1.206-1.368.126.072,4.662L181.116,42h1.422l-.072-3.618.018-2.25a3.6,3.6,0,0,1,2.43-1.3c.954,0,1.422.612,1.4,1.566l-.09,5.6h1.44l-.072-3.582.036-2.34a3.552,3.552,0,0,1,2.394-1.242,1.351,1.351,0,0,1,1.422,1.566ZM4.9,55.328a2.683,2.683,0,0,0-2.952,3.006l.018,1.44H.738l-.09.846.072.108H1.962L2,64.49,1.89,68H3.312l-.09-3.618.036-3.654H5.4l.09-.846-.054-.108H3.276l.018-1.656c.018-1.17.54-1.746,1.476-1.746a2.714,2.714,0,0,1,1.314.324l.108-.09L6.3,55.49A6.729,6.729,0,0,0,4.9,55.328Zm5.76,4.41a2.726,2.726,0,0,0-2.3,1.674H8.244l.018-1.692-1.368.126.09,4.662L6.876,68H8.3l-.09-3.618.018-1.26c.648-1.422,1.314-2,2.088-2a2.492,2.492,0,0,1,.648.09l.162-.054V59.774A3.539,3.539,0,0,0,10.656,59.738Zm4.59-.126a5.181,5.181,0,0,0-3.078,1.116l.18,1.026.144.072a3.922,3.922,0,0,1,2.538-1.188A1.3,1.3,0,0,1,16.452,62.1l-.018,1.17-2.916.684a1.854,1.854,0,0,0-1.674,1.926c0,1.386.936,2.25,2.556,2.25a5.308,5.308,0,0,0,1.926-1.35h.126a1.289,1.289,0,0,0,1.242,1.332,2.592,2.592,0,0,0,1.026-.36l.144-.81-.144-.126a1.964,1.964,0,0,1-.612.108c-.414,0-.558-.18-.558-.7,0-.63.216-3.816.216-4.446C17.766,60.422,16.794,59.612,15.246,59.612Zm1.17,4.572-.054,1.476a2.761,2.761,0,0,1-2.016,1.278,1.154,1.154,0,0,1-1.224-1.26.788.788,0,0,1,.684-.864Zm6.678-4.554c-1.782,0-2.844,1.008-2.844,2.376,0,2.556,3.762,2.214,3.762,3.87a1.353,1.353,0,0,1-1.494,1.242,3.542,3.542,0,0,1-2.2-.9l-.162.108-.18,1.224a5.288,5.288,0,0,0,2.394.594,2.626,2.626,0,0,0,2.934-2.52c0-2.484-3.744-2.142-3.744-3.8a1.247,1.247,0,0,1,1.368-1.17,3.123,3.123,0,0,1,1.728.594l.216-.054.2-1.17A5.248,5.248,0,0,0,23.094,59.63Zm5.076,4.176,5.022-.018.306-.234c.018-.216.036-.63.036-.828,0-1.944-1.044-3.1-2.844-3.1-2.358,0-3.87,1.638-3.87,4.3,0,2.592,1.386,4.212,3.744,4.212a5.644,5.644,0,0,0,2.5-.666l.144-1.206-.162-.09a4.4,4.4,0,0,1-2.412.81c-1.656,0-2.466-1.188-2.466-3.132Zm2.394-3.168c.99,0,1.692.594,1.692,1.89l-.036.216-3.96.108A2.315,2.315,0,0,1,30.564,60.638ZM37.89,59.63c-1.782,0-2.844,1.008-2.844,2.376,0,2.556,3.762,2.214,3.762,3.87a1.353,1.353,0,0,1-1.494,1.242,3.542,3.542,0,0,1-2.2-.9l-.162.108-.18,1.224a5.288,5.288,0,0,0,2.394.594,2.626,2.626,0,0,0,2.934-2.52c0-2.484-3.744-2.142-3.744-3.8a1.247,1.247,0,0,1,1.368-1.17,3.123,3.123,0,0,1,1.728.594l.216-.054.2-1.17A5.248,5.248,0,0,0,37.89,59.63Zm13.536,4.752.108-9.018-1.422.126.036,4.3a7.013,7.013,0,0,0-1.584-.18c-2.5,0-4,1.548-4,4.284,0,2.664,1.278,4.194,3.672,4.194A5.986,5.986,0,0,0,50.2,66.848h.126a1.327,1.327,0,0,0,1.26,1.26,2.592,2.592,0,0,0,1.026-.36l.126-.81-.144-.126a1.816,1.816,0,0,1-.612.108c-.378,0-.5-.18-.522-.684ZM48.384,60.62a4.2,4.2,0,0,1,1.764.45l.036,3.42-.036,1.3a2.556,2.556,0,0,1-1.98,1.1c-1.368,0-2.232-1.116-2.268-3.114C45.864,61.682,46.872,60.62,48.384,60.62Zm9.252-1.008c-2.394,0-3.762,1.6-3.762,4.374,0,2.646,1.3,4.158,3.546,4.158,2.394,0,3.744-1.6,3.744-4.374C61.164,61.124,59.868,59.612,57.636,59.612Zm-.09,1.008c1.476,0,2.286,1.188,2.286,3.474,0,2.016-.81,3.024-2.322,3.024-1.476,0-2.286-1.134-2.286-3.456C55.224,61.682,56.034,60.62,57.546,60.62Zm8.1-.99c-1.782,0-2.844,1.008-2.844,2.376,0,2.556,3.762,2.214,3.762,3.87a1.353,1.353,0,0,1-1.494,1.242,3.542,3.542,0,0,1-2.2-.9l-.162.108-.18,1.224a5.288,5.288,0,0,0,2.394.594,2.626,2.626,0,0,0,2.934-2.52c0-2.484-3.744-2.142-3.744-3.8a1.247,1.247,0,0,1,1.368-1.17,3.123,3.123,0,0,1,1.728.594l.216-.054.2-1.17A5.248,5.248,0,0,0,65.646,59.63Zm10.1-.018a5.181,5.181,0,0,0-3.078,1.116l.18,1.026.144.072a3.922,3.922,0,0,1,2.538-1.188A1.3,1.3,0,0,1,76.95,62.1l-.018,1.17-2.916.684a1.854,1.854,0,0,0-1.674,1.926c0,1.386.936,2.25,2.556,2.25a5.308,5.308,0,0,0,1.926-1.35h.126a1.289,1.289,0,0,0,1.242,1.332,2.592,2.592,0,0,0,1.026-.36l.144-.81-.144-.126a1.964,1.964,0,0,1-.612.108c-.414,0-.558-.18-.558-.7,0-.63.216-3.816.216-4.446C78.264,60.422,77.292,59.612,75.744,59.612Zm1.17,4.572L76.86,65.66a2.761,2.761,0,0,1-2.016,1.278,1.154,1.154,0,0,1-1.224-1.26.788.788,0,0,1,.684-.864ZM86.436,68h1.44L87.8,64.418l.036-2.34c.018-1.548-.918-2.43-2.754-2.43A5.666,5.666,0,0,0,82.8,60.926h-.108l.018-1.206-1.368.126.072,4.662L81.324,68h1.422l-.072-3.618.018-2.268a3.569,3.569,0,0,1,2.43-1.278c.954,0,1.422.612,1.4,1.566Zm7.254-8.388c-2.394,0-3.762,1.6-3.762,4.374,0,2.646,1.3,4.158,3.546,4.158,2.394,0,3.744-1.6,3.744-4.374C97.218,61.124,95.922,59.612,93.69,59.612ZM93.6,60.62c1.476,0,2.286,1.188,2.286,3.474,0,2.016-.81,3.024-2.322,3.024-1.476,0-2.286-1.134-2.286-3.456C91.278,61.682,92.088,60.62,93.6,60.62Zm8.1-.99c-1.782,0-2.844,1.008-2.844,2.376,0,2.556,3.762,2.214,3.762,3.87a1.353,1.353,0,0,1-1.494,1.242,3.542,3.542,0,0,1-2.2-.9l-.162.108-.18,1.224a5.288,5.288,0,0,0,2.394.594,2.626,2.626,0,0,0,2.934-2.52c0-2.484-3.744-2.142-3.744-3.8a1.247,1.247,0,0,1,1.368-1.17,3.123,3.123,0,0,1,1.728.594l.216-.054.2-1.17A5.248,5.248,0,0,0,101.7,59.63Zm9.99-.522-.216-.144-3.636,1.08v1.134l.144.072L110.3,60.6l.018,3.852L110.232,68h1.44l-.072-3.726Zm6.426-.234a3.238,3.238,0,0,0-3.51,3.384,2.758,2.758,0,0,0,2.88,3.042,3.9,3.9,0,0,0,2.34-.792l.108.126c-.558,1.926-2.124,3.276-5,4.284v.144l1.116.648h.09c3.384-1.35,5.328-3.834,5.328-6.894C121.464,60.332,120.366,58.874,118.116,58.874Zm-.234,5.364c-1.278,0-2-.774-2-2.178a1.963,1.963,0,0,1,2.124-2.2c1.494,0,2.16,1.008,2.16,2.952l-.018.486A3.38,3.38,0,0,1,117.882,64.238Zm8.694-5.364a3.238,3.238,0,0,0-3.51,3.384,2.758,2.758,0,0,0,2.88,3.042,3.9,3.9,0,0,0,2.34-.792l.108.126c-.558,1.926-2.124,3.276-5,4.284v.144l1.116.648h.09c3.384-1.35,5.328-3.834,5.328-6.894C129.924,60.332,128.826,58.874,126.576,58.874Zm-.234,5.364c-1.278,0-2-.774-2-2.178a1.963,1.963,0,0,1,2.124-2.2c1.494,0,2.16,1.008,2.16,2.952l-.018.486A3.38,3.38,0,0,1,126.342,64.238Zm9.27-5.31c-2.574,0-4.014,1.692-4.014,4.716,0,2.862,1.386,4.482,3.834,4.482,2.556,0,4-1.692,4-4.662C139.428,60.548,138.042,58.928,135.612,58.928Zm-.126,1.314c1.836,0,2.808,1.152,2.808,3.384,0,2.124-.954,3.24-2.79,3.24s-2.772-1.134-2.772-3.33C132.732,61.358,133.668,60.242,135.486,60.242Zm7.056,6.192a3.136,3.136,0,0,0-.99.468v.144a1.037,1.037,0,0,1,.558.846,2.123,2.123,0,0,1-.99,1.584V69.6l.486.45c1.134-.828,1.692-1.638,1.692-2.412A1.4,1.4,0,0,0,142.542,66.434Zm9.342-11.106a2.683,2.683,0,0,0-2.952,3.006l.018,1.44h-1.224l-.09.846.072.108h1.242l.036,3.762L148.878,68H150.3l-.09-3.618.036-3.654h2.142l.09-.846-.054-.108h-2.16l.018-1.656c.018-1.17.54-1.746,1.476-1.746a2.714,2.714,0,0,1,1.314.324l.108-.09.108-1.116A6.729,6.729,0,0,0,151.884,55.328Zm4.77,4.284c-2.394,0-3.762,1.6-3.762,4.374,0,2.646,1.3,4.158,3.546,4.158,2.394,0,3.744-1.6,3.744-4.374C160.182,61.124,158.886,59.612,156.654,59.612Zm-.09,1.008c1.476,0,2.286,1.188,2.286,3.474,0,2.016-.81,3.024-2.322,3.024-1.476,0-2.286-1.134-2.286-3.456C154.242,61.682,155.052,60.62,156.564,60.62Zm8.82-1.008c-2.268,0-3.654,1.674-3.654,4.32,0,2.61,1.332,4.212,3.51,4.212a5.84,5.84,0,0,0,2.2-.468l.162-1.206-.162-.09a4.043,4.043,0,0,1-2.016.612c-1.476,0-2.34-1.206-2.34-3.132,0-1.944.846-3.078,2.25-3.078a3.5,3.5,0,0,1,1.854.612l.162-.054L167.6,60.1A5.473,5.473,0,0,0,165.384,59.612Zm6.5,0a5.181,5.181,0,0,0-3.078,1.116l.18,1.026.144.072a3.922,3.922,0,0,1,2.538-1.188,1.3,1.3,0,0,1,1.422,1.458l-.018,1.17-2.916.684a1.854,1.854,0,0,0-1.674,1.926c0,1.386.936,2.25,2.556,2.25a5.308,5.308,0,0,0,1.926-1.35h.126a1.289,1.289,0,0,0,1.242,1.332,2.592,2.592,0,0,0,1.026-.36l.144-.81-.144-.126a1.964,1.964,0,0,1-.612.108c-.414,0-.558-.18-.558-.7,0-.63.216-3.816.216-4.446C174.4,60.422,173.43,59.612,171.882,59.612Zm1.17,4.572L173,65.66a2.761,2.761,0,0,1-2.016,1.278,1.154,1.154,0,0,1-1.224-1.26.788.788,0,0,1,.684-.864ZM182.574,68h1.44l-.072-3.582.036-2.34c.018-1.548-.918-2.43-2.754-2.43a5.667,5.667,0,0,0-2.286,1.278h-.108l.018-1.206-1.368.126.072,4.662L177.462,68h1.422l-.072-3.618.018-2.268a3.569,3.569,0,0,1,2.43-1.278c.954,0,1.422.612,1.4,1.566Zm10.332-3.618.108-9.018-1.422.126.036,4.3a7.013,7.013,0,0,0-1.584-.18c-2.5,0-4,1.548-4,4.284,0,2.664,1.278,4.194,3.672,4.194a5.986,5.986,0,0,0,1.962-1.242h.126a1.327,1.327,0,0,0,1.26,1.26,2.592,2.592,0,0,0,1.026-.36l.126-.81-.144-.126a1.816,1.816,0,0,1-.612.108c-.378,0-.5-.18-.522-.684Zm-3.042-3.762a4.2,4.2,0,0,1,1.764.45l.036,3.42-.036,1.3a2.556,2.556,0,0,1-1.98,1.1c-1.368,0-2.232-1.116-2.268-3.114C187.344,61.682,188.352,60.62,189.864,60.62Zm9.252-1.008c-2.394,0-3.762,1.6-3.762,4.374,0,2.646,1.3,4.158,3.546,4.158,2.394,0,3.744-1.6,3.744-4.374C202.644,61.124,201.348,59.612,199.116,59.612Zm-.09,1.008c1.476,0,2.286,1.188,2.286,3.474,0,2.016-.81,3.024-2.322,3.024-1.476,0-2.286-1.134-2.286-3.456C196.7,61.682,197.514,60.62,199.026,60.62ZM2.106,89.806l5.022-.018.306-.234c.018-.216.036-.63.036-.828,0-1.944-1.044-3.1-2.844-3.1-2.358,0-3.87,1.638-3.87,4.3,0,2.592,1.386,4.212,3.744,4.212A5.644,5.644,0,0,0,7,93.478l.144-1.206-.162-.09a4.4,4.4,0,0,1-2.412.81c-1.656,0-2.466-1.188-2.466-3.132ZM4.5,86.638c.99,0,1.692.594,1.692,1.89l-.036.216-3.96.108A2.315,2.315,0,0,1,4.5,86.638ZM19.782,94h1.44l-.054-3.582.018-2.34c.018-1.548-.918-2.43-2.736-2.43A5.92,5.92,0,0,0,16,87.016h-.108c-.342-.882-1.206-1.368-2.574-1.368a5.5,5.5,0,0,0-2.268,1.278h-.126l.018-1.206-1.368.126.072,4.662L9.558,94H10.98l-.072-3.618.018-2.25a3.6,3.6,0,0,1,2.43-1.3c.954,0,1.422.612,1.4,1.566L14.67,94h1.44l-.072-3.582.036-2.34a3.552,3.552,0,0,1,2.394-1.242A1.351,1.351,0,0,1,19.89,88.4Zm13.284-8.28-1.368.126V91.8a3.33,3.33,0,0,1-2.232,1.1c-.936,0-1.4-.594-1.386-1.566l.108-5.616-1.44.126.054,3.546-.018,2.286c-.018,1.548.918,2.43,2.7,2.43a5.229,5.229,0,0,0,2.232-1.26h.144a1.31,1.31,0,0,0,1.242,1.26,2.592,2.592,0,0,0,1.026-.36l.126-.81-.126-.126a1.979,1.979,0,0,1-.63.108c-.378,0-.54-.18-.54-.684ZM46.278,94h1.44l-.054-3.582.018-2.34c.018-1.548-.918-2.43-2.736-2.43A5.92,5.92,0,0,0,42.5,87.016H42.39c-.342-.882-1.206-1.368-2.574-1.368a5.5,5.5,0,0,0-2.268,1.278h-.126l.018-1.206-1.368.126.072,4.662L36.054,94h1.422L37.4,90.382l.018-2.25a3.6,3.6,0,0,1,2.43-1.3c.954,0,1.422.612,1.4,1.566l-.09,5.6h1.44l-.072-3.582.036-2.34a3.552,3.552,0,0,1,2.394-1.242A1.351,1.351,0,0,1,46.386,88.4ZM57.1,85.666a5.327,5.327,0,0,0-2.268,1.224H54.72l.018-1.17-1.386.126.108,4.662-.108,6.822h1.4l-.036-3.348a7.844,7.844,0,0,0,1.566.162c2.538,0,4.014-1.62,4.014-4.518C60.3,87.142,59.22,85.666,57.1,85.666Zm-.63,7.434a3.7,3.7,0,0,1-1.764-.468l-.018-2.25.018-2.268a3.129,3.129,0,0,1,2.268-1.278c1.26,0,1.944,1.08,1.98,2.952C58.986,92.02,57.978,93.1,56.466,93.1ZM67.428,81.472l-.162-.018c-1.008.99-1.962,1.8-2.952,2.61l.4.576.162.018c1.026-.72,2-1.458,3.06-2.286l.036-.144ZM68.67,85.72l-1.35.126V91.8a3.4,3.4,0,0,1-2.25,1.1c-.918,0-1.386-.594-1.368-1.566l.09-5.616-1.44.126.072,3.546-.036,2.286c-.018,1.548.918,2.43,2.718,2.43a5.28,5.28,0,0,0,2.214-1.26h.144a1.31,1.31,0,0,0,1.242,1.26,2.5,2.5,0,0,0,1.026-.36l.144-.81-.144-.126a1.907,1.907,0,0,1-.63.108c-.378,0-.522-.18-.522-.684Zm6.822-.054a5.521,5.521,0,0,0-2.268,1.224h-.108l.054-5.526-1.422.126.108,9.054-.126,3.51.252.144.99-.45a4.407,4.407,0,0,0,1.764.4c2.466,0,3.96-1.62,3.96-4.518C78.7,87.142,77.6,85.666,75.492,85.666Zm-.63,7.434a3.092,3.092,0,0,1-1.728-.576l-.054-2.142.018-2.268a3.1,3.1,0,0,1,2.268-1.278c1.26,0,1.944,1.08,1.98,2.952C77.382,92.02,76.374,93.1,74.862,93.1ZM82.3,90.382l.108-9.018-1.422.126.09,9L80.964,94h1.422Zm3.8-8.316a.794.794,0,0,0-.846.846.739.739,0,0,0,.792.828.8.8,0,0,0,.846-.882A.737.737,0,0,0,86.094,82.066Zm.558,8.316.108-4.662-1.422.126.072,4.662L85.32,94h1.422Zm5.94-4.77c-2.268,0-3.654,1.674-3.654,4.32,0,2.61,1.332,4.212,3.51,4.212a5.84,5.84,0,0,0,2.2-.468l.162-1.206-.162-.09a4.043,4.043,0,0,1-2.016.612c-1.476,0-2.34-1.206-2.34-3.132,0-1.944.846-3.078,2.25-3.078a3.5,3.5,0,0,1,1.854.612l.162-.054.252-1.242A5.473,5.473,0,0,0,92.592,85.612Zm7.02,0c-2.394,0-3.762,1.6-3.762,4.374,0,2.646,1.3,4.158,3.546,4.158,2.394,0,3.744-1.6,3.744-4.374C103.14,87.124,101.844,85.612,99.612,85.612Zm-.09,1.008c1.476,0,2.286,1.188,2.286,3.474,0,2.016-.81,3.024-2.322,3.024-1.476,0-2.286-1.134-2.286-3.456C97.2,87.682,98.01,86.62,99.522,86.62ZM118.548,94h1.44l-.054-3.582.018-2.34c.018-1.548-.918-2.43-2.736-2.43a5.92,5.92,0,0,0-2.448,1.368h-.108c-.342-.882-1.206-1.368-2.574-1.368a5.5,5.5,0,0,0-2.268,1.278h-.126l.018-1.206-1.368.126.072,4.662L108.324,94h1.422l-.072-3.618.018-2.25a3.6,3.6,0,0,1,2.43-1.3c.954,0,1.422.612,1.4,1.566l-.09,5.6h1.44l-.072-3.582.036-2.34a3.552,3.552,0,0,1,2.394-1.242,1.351,1.351,0,0,1,1.422,1.566Zm6.84-8.388a5.181,5.181,0,0,0-3.078,1.116l.18,1.026.144.072a3.922,3.922,0,0,1,2.538-1.188,1.3,1.3,0,0,1,1.422,1.458l-.018,1.17-2.916.684a1.854,1.854,0,0,0-1.674,1.926c0,1.386.936,2.25,2.556,2.25a5.308,5.308,0,0,0,1.926-1.35h.126a1.289,1.289,0,0,0,1.242,1.332,2.592,2.592,0,0,0,1.026-.36l.144-.81-.144-.126a1.964,1.964,0,0,1-.612.108c-.414,0-.558-.18-.558-.7,0-.63.216-3.816.216-4.446C127.908,86.422,126.936,85.612,125.388,85.612Zm1.17,4.572L126.5,91.66a2.761,2.761,0,0,1-2.016,1.278,1.154,1.154,0,0,1-1.224-1.26.788.788,0,0,1,.684-.864Zm5.184-8.118a.794.794,0,0,0-.846.846.739.739,0,0,0,.792.828.8.8,0,0,0,.846-.882A.737.737,0,0,0,131.742,82.066Zm.558,8.316.108-4.662-1.422.126.072,4.662L130.968,94h1.422Zm5.22-4.752c-1.782,0-2.844,1.008-2.844,2.376,0,2.556,3.762,2.214,3.762,3.87a1.353,1.353,0,0,1-1.494,1.242,3.542,3.542,0,0,1-2.2-.9l-.162.108-.18,1.224a5.288,5.288,0,0,0,2.394.594,2.626,2.626,0,0,0,2.934-2.52c0-2.484-3.744-2.142-3.744-3.8a1.247,1.247,0,0,1,1.368-1.17,3.123,3.123,0,0,1,1.728.594l.216-.054.2-1.17A5.248,5.248,0,0,0,137.52,85.63Zm8.226-3.564a.794.794,0,0,0-.846.846.739.739,0,0,0,.792.828.8.8,0,0,0,.846-.882A.737.737,0,0,0,145.746,82.066Zm.972,3.69-.054-.036-1.332.054H143.64l-.09.828.108.126h1.656l.072,3.78-.036,3.222a2.946,2.946,0,0,1-1.692,2.952v.162l.54.648c1.818-.954,2.484-1.944,2.484-3.834l-.072-3.276Zm6.03-.144c-2.394,0-3.762,1.6-3.762,4.374,0,2.646,1.3,4.158,3.546,4.158,2.394,0,3.744-1.6,3.744-4.374C156.276,87.124,154.98,85.612,152.748,85.612Zm-.09,1.008c1.476,0,2.286,1.188,2.286,3.474,0,2.016-.81,3.024-2.322,3.024-1.476,0-2.286-1.134-2.286-3.456C150.336,87.682,151.146,86.62,152.658,86.62Zm6.066.18-.234-1.1-1.332.09L159.714,94h1.53l3.024-8.244H162.99l-.288,1.116L160.6,92.578h-.09Zm7.524,3.006,5.022-.018.306-.234c.018-.216.036-.63.036-.828,0-1.944-1.044-3.1-2.844-3.1-2.358,0-3.87,1.638-3.87,4.3,0,2.592,1.386,4.212,3.744,4.212a5.644,5.644,0,0,0,2.5-.666l.144-1.206-.162-.09a4.4,4.4,0,0,1-2.412.81c-1.656,0-2.466-1.188-2.466-3.132Zm2.394-3.168c.99,0,1.692.594,1.692,1.89l-.036.216-3.96.108A2.315,2.315,0,0,1,168.642,86.638ZM183.924,94h1.44l-.054-3.582.018-2.34c.018-1.548-.918-2.43-2.736-2.43a5.92,5.92,0,0,0-2.448,1.368h-.108c-.342-.882-1.206-1.368-2.574-1.368a5.5,5.5,0,0,0-2.268,1.278h-.126l.018-1.206-1.368.126.072,4.662L173.7,94h1.422l-.072-3.618.018-2.25a3.6,3.6,0,0,1,2.43-1.3c.954,0,1.422.612,1.4,1.566l-.09,5.6h1.44l-.072-3.582.036-2.34a3.552,3.552,0,0,1,2.394-1.242,1.351,1.351,0,0,1,1.422,1.566Zm13.212-8.352-.7.288a8.049,8.049,0,0,0-2.16-.324c-2.466,0-3.96,1.512-3.96,4.338,0,2.592,1.26,4.14,3.6,4.14a5.778,5.778,0,0,0,1.854-1.062h.144v.342l-.054,3.96h1.4l-.09-6.912.108-4.68Zm-3.024.99a3.913,3.913,0,0,1,1.782.486l.036,3.438-.018,1.224a2.757,2.757,0,0,1-2.07,1.1c-1.332,0-2.16-1.116-2.2-3.06C191.61,87.664,192.618,86.638,194.112,86.638Zm12.2-.918-1.368.126V91.8a3.33,3.33,0,0,1-2.232,1.1c-.936,0-1.4-.594-1.386-1.566l.108-5.616-1.44.126.054,3.546-.018,2.286c-.018,1.548.918,2.43,2.7,2.43a5.229,5.229,0,0,0,2.232-1.26h.144a1.31,1.31,0,0,0,1.242,1.26,2.592,2.592,0,0,0,1.026-.36l.126-.81-.126-.126a1.979,1.979,0,0,1-.63.108c-.378,0-.54-.18-.54-.684Zm3.672,4.086,5.022-.018.306-.234c.018-.216.036-.63.036-.828,0-1.944-1.044-3.1-2.844-3.1-2.358,0-3.87,1.638-3.87,4.3,0,2.592,1.386,4.212,3.744,4.212a5.644,5.644,0,0,0,2.5-.666l.144-1.206-.162-.09a4.4,4.4,0,0,1-2.412.81c-1.656,0-2.466-1.188-2.466-3.132Zm2.394-3.168c.99,0,1.692.594,1.692,1.89l-.036.216-3.96.108A2.315,2.315,0,0,1,212.382,86.638ZM4.41,111.612c-2.268,0-3.654,1.674-3.654,4.32,0,2.61,1.332,4.212,3.51,4.212a5.84,5.84,0,0,0,2.2-.468l.162-1.206-.162-.09a4.043,4.043,0,0,1-2.016.612c-1.476,0-2.34-1.206-2.34-3.132,0-1.944.846-3.078,2.25-3.078a3.5,3.5,0,0,1,1.854.612l.162-.054.252-1.242A5.473,5.473,0,0,0,4.41,111.612Zm7.722.126a2.726,2.726,0,0,0-2.3,1.674H9.72l.018-1.692-1.368.126.09,4.662L8.352,120H9.774l-.09-3.618.018-1.26c.648-1.422,1.314-2,2.088-2a2.493,2.493,0,0,1,.648.09l.162-.054v-1.386A3.539,3.539,0,0,0,12.132,111.738Zm2.574,4.068,5.022-.018.306-.234c.018-.216.036-.63.036-.828,0-1.944-1.044-3.1-2.844-3.1-2.358,0-3.87,1.638-3.87,4.3,0,2.592,1.386,4.212,3.744,4.212a5.644,5.644,0,0,0,2.5-.666l.144-1.206-.162-.09a4.4,4.4,0,0,1-2.412.81c-1.656,0-2.466-1.188-2.466-3.132Zm2.394-3.168c.99,0,1.692.594,1.692,1.89l-.036.216-3.96.108A2.315,2.315,0,0,1,17.1,112.638Zm7.326-1.008c-1.782,0-2.844,1.008-2.844,2.376,0,2.556,3.762,2.214,3.762,3.87a1.353,1.353,0,0,1-1.494,1.242,3.542,3.542,0,0,1-2.2-.9l-.162.108-.18,1.224a5.288,5.288,0,0,0,2.394.594,2.626,2.626,0,0,0,2.934-2.52c0-2.484-3.744-2.142-3.744-3.8a1.247,1.247,0,0,1,1.368-1.17,3.123,3.123,0,0,1,1.728.594l.216-.054.2-1.17A5.248,5.248,0,0,0,24.426,111.63Zm7.38-.018c-2.268,0-3.654,1.674-3.654,4.32,0,2.61,1.332,4.212,3.51,4.212a5.84,5.84,0,0,0,2.2-.468l.162-1.206-.162-.09a4.043,4.043,0,0,1-2.016.612c-1.476,0-2.34-1.206-2.34-3.132,0-1.944.846-3.078,2.25-3.078a3.5,3.5,0,0,1,1.854.612l.162-.054.252-1.242A5.473,5.473,0,0,0,31.806,111.612Zm4.608,4.194,5.022-.018.306-.234c.018-.216.036-.63.036-.828,0-1.944-1.044-3.1-2.844-3.1-2.358,0-3.87,1.638-3.87,4.3,0,2.592,1.386,4.212,3.744,4.212a5.644,5.644,0,0,0,2.5-.666l.144-1.206-.162-.09a4.4,4.4,0,0,1-2.412.81c-1.656,0-2.466-1.188-2.466-3.132Zm2.394-3.168c.99,0,1.692.594,1.692,1.89l-.036.216-3.96.108A2.315,2.315,0,0,1,38.808,112.638Zm11.268-.918-1.368.126V117.8a3.33,3.33,0,0,1-2.232,1.1c-.936,0-1.4-.594-1.386-1.566l.108-5.616-1.44.126.054,3.546-.018,2.286c-.018,1.548.918,2.43,2.7,2.43a5.229,5.229,0,0,0,2.232-1.26h.144a1.31,1.31,0,0,0,1.242,1.26,2.592,2.592,0,0,0,1.026-.36l.126-.81-.126-.126a1.979,1.979,0,0,1-.63.108c-.378,0-.54-.18-.54-.684ZM61.146,120h1.44l-.072-3.582.036-2.34c.018-1.548-.918-2.43-2.754-2.43a5.666,5.666,0,0,0-2.286,1.278H57.4l.018-1.206-1.368.126.072,4.662L56.034,120h1.422l-.072-3.618.018-2.268a3.569,3.569,0,0,1,2.43-1.278c.954,0,1.422.612,1.4,1.566Zm7.254-8.388c-2.394,0-3.762,1.6-3.762,4.374,0,2.646,1.3,4.158,3.546,4.158,2.394,0,3.744-1.6,3.744-4.374C71.928,113.124,70.632,111.612,68.4,111.612Zm-.09,1.008c1.476,0,2.286,1.188,2.286,3.474,0,2.016-.81,3.024-2.322,3.024-1.476,0-2.286-1.134-2.286-3.456C65.988,113.682,66.8,112.62,68.31,112.62Zm12.726-5.292c-2.34,0-3.4,1.044-3.4,3.348v1.1H76.428l-.09.846.072.108h1.242l.036,3.78L77.58,120H79l-.09-3.6.054-3.672h3.978l.072,3.8L82.908,120h1.44l-.108-3.582.108-4.7-.108-.054-.846.108H78.966l.018-1.368c0-1.4.594-2.034,1.89-2.034A4.737,4.737,0,0,1,83,108.93l.18-.054.18-1.188A8.1,8.1,0,0,0,81.036,107.328ZM92.178,120h1.44l-.072-3.582.036-2.34c.018-1.548-.918-2.43-2.754-2.43a5.666,5.666,0,0,0-2.286,1.278h-.108l.018-1.206-1.368.126.072,4.662L87.066,120h1.422l-.072-3.618.018-2.268a3.569,3.569,0,0,1,2.43-1.278c.954,0,1.422.612,1.4,1.566Zm6.894-8.388a5.181,5.181,0,0,0-3.078,1.116l.18,1.026.144.072a3.922,3.922,0,0,1,2.538-1.188,1.3,1.3,0,0,1,1.422,1.458l-.018,1.17-2.916.684a1.854,1.854,0,0,0-1.674,1.926c0,1.386.936,2.25,2.556,2.25a5.308,5.308,0,0,0,1.926-1.35h.126a1.289,1.289,0,0,0,1.242,1.332,2.592,2.592,0,0,0,1.026-.36l.144-.81-.144-.126a1.964,1.964,0,0,1-.612.108c-.414,0-.558-.18-.558-.7,0-.63.216-3.816.216-4.446C101.592,112.422,100.62,111.612,99.072,111.612Zm1.17,4.572-.054,1.476a2.761,2.761,0,0,1-2.016,1.278,1.154,1.154,0,0,1-1.224-1.26.788.788,0,0,1,.684-.864Zm5.832.2.108-9.018-1.422.126.09,9-.108,3.51h1.422Zm12.168,0,.108-9.018-1.422.126.036,4.3a7.013,7.013,0,0,0-1.584-.18c-2.5,0-4,1.548-4,4.284,0,2.664,1.278,4.194,3.672,4.194a5.986,5.986,0,0,0,1.962-1.242h.126a1.327,1.327,0,0,0,1.26,1.26,2.592,2.592,0,0,0,1.026-.36l.126-.81-.144-.126a1.816,1.816,0,0,1-.612.108c-.378,0-.5-.18-.522-.684ZM115.2,112.62a4.2,4.2,0,0,1,1.764.45l.036,3.42-.036,1.3a2.556,2.556,0,0,1-1.98,1.1c-1.368,0-2.232-1.116-2.268-3.114C112.68,113.682,113.688,112.62,115.2,112.62Zm9.252-1.008c-2.394,0-3.762,1.6-3.762,4.374,0,2.646,1.3,4.158,3.546,4.158,2.394,0,3.744-1.6,3.744-4.374C127.98,113.124,126.684,111.612,124.452,111.612Zm-.09,1.008c1.476,0,2.286,1.188,2.286,3.474,0,2.016-.81,3.024-2.322,3.024-1.476,0-2.286-1.134-2.286-3.456C122.04,113.682,122.85,112.62,124.362,112.62Zm11.07-.99c-1.782,0-2.844,1.008-2.844,2.376,0,2.556,3.762,2.214,3.762,3.87a1.353,1.353,0,0,1-1.494,1.242,3.542,3.542,0,0,1-2.2-.9l-.162.108-.18,1.224a5.288,5.288,0,0,0,2.394.594,2.626,2.626,0,0,0,2.934-2.52c0-2.484-3.744-2.142-3.744-3.8a1.247,1.247,0,0,1,1.368-1.17,3.123,3.123,0,0,1,1.728.594l.216-.054.2-1.17A5.248,5.248,0,0,0,135.432,111.63Zm6.462-.99.162.018c1.026-.72,2-1.458,3.06-2.286l.036-.144-.54-.756-.162-.018c-1.008.99-1.962,1.8-2.952,2.61Zm-1.386,5.166,5.022-.018.288-.234a6.609,6.609,0,0,0,.054-.828c0-1.944-1.062-3.1-2.862-3.1-2.34,0-3.852,1.638-3.852,4.3,0,2.592,1.368,4.212,3.726,4.212a5.582,5.582,0,0,0,2.5-.666l.162-1.206-.162-.09a4.444,4.444,0,0,1-2.412.81c-1.656,0-2.466-1.188-2.466-3.132Zm2.394-3.168c.99,0,1.674.594,1.674,1.89l-.036.216-3.942.108A2.315,2.315,0,0,1,142.9,112.638Zm8.046-1.026c-2.268,0-3.654,1.674-3.654,4.32,0,2.61,1.332,4.212,3.51,4.212a5.84,5.84,0,0,0,2.2-.468l.162-1.206-.162-.09a4.043,4.043,0,0,1-2.016.612c-1.476,0-2.34-1.206-2.34-3.132,0-1.944.846-3.078,2.25-3.078a3.5,3.5,0,0,1,1.854.612l.162-.054.252-1.242A5.473,5.473,0,0,0,150.948,111.612Zm10.152.108-1.368.126V117.8a3.33,3.33,0,0,1-2.232,1.1c-.936,0-1.4-.594-1.386-1.566l.108-5.616-1.44.126.054,3.546-.018,2.286c-.018,1.548.918,2.43,2.7,2.43a5.229,5.229,0,0,0,2.232-1.26h.144a1.31,1.31,0,0,0,1.242,1.26,2.592,2.592,0,0,0,1.026-.36l.126-.81-.126-.126a1.979,1.979,0,0,1-.63.108c-.378,0-.54-.18-.54-.684Zm4.41,4.662.108-9.018-1.422.126.09,9-.108,3.51H165.6Zm6.12-4.77c-2.394,0-3.762,1.6-3.762,4.374,0,2.646,1.3,4.158,3.546,4.158,2.394,0,3.744-1.6,3.744-4.374C175.158,113.124,173.862,111.612,171.63,111.612Zm-.09,1.008c1.476,0,2.286,1.188,2.286,3.474,0,2.016-.81,3.024-2.322,3.024-1.476,0-2.286-1.134-2.286-3.456C169.218,113.682,170.028,112.62,171.54,112.62Zm13.518,1.368,3.654-5.526h-1.566l-.468.9-2.5,3.708-2.484-3.69-.468-.918h-1.746l3.762,5.706L179.334,120h1.53l.468-.846,2.754-4.032,2.664,3.942.5.936H189Zm10.6,0,3.654-5.526h-1.566l-.468.9-2.5,3.708-2.484-3.69-.468-.918H190.08l3.762,5.706L189.936,120h1.53l.468-.846,2.754-4.032,2.664,3.942.5.936H199.6Zm6.57,4.428a.794.794,0,0,0-.846.846.739.739,0,0,0,.792.828.8.8,0,0,0,.846-.864A.742.742,0,0,0,202.23,118.416Z" transform="translate(75.112 1300.447)" fill="#fff"/>
    <g id="Grupo_234060" data-name="Grupo 234060" transform="translate(-749.441 -2869.086)">
      <path id="Caminho_770289" data-name="Caminho 770289" d="M262.378,353.638a54.542,54.542,0,0,1-8.5-31.663,35.148,35.148,0,0,1,1.089-6.861c.148-.562-.525-1.152-.94-.6-4.383,5.824-10.818,5.636-17.365,4.379-6.448-1.234-13.365-2-19.6-4.168.053-.932.111-1.863.181-2.8.055-.715-1.052-.912-1.108-.191-.068.923-.126,1.849-.177,2.775a.538.538,0,0,0-.052.995c-.067,1.346-.122,2.688-.167,4.038,0,.056,0,.114-.008.176-.119,3.561-.176,7.127-.29,10.689a31.19,31.19,0,0,1-1.026,7.094,24.64,24.64,0,0,1-3.969,8.411c-3.332,4.495-8.3,7.321-12.2,11.249a.569.569,0,0,0,.192.872,67.779,67.779,0,0,0,15.473,6.535c5.844,1.791,11.3,3.625,17.432,2.265,2.841-.633,5.609-1.535,8.505-1.89,2.825-.339,5.614-.536,8.407-1.154a47.441,47.441,0,0,0,8.449-2.755q1.737-.1,3.44-.335c1.385-.194,3.924-.531,4.482-2.077.606-1.658-1.405-3.682-2.253-4.986" transform="translate(647.739 4077.383)" fill="#ffa694"/>
      <path id="Caminho_770290" data-name="Caminho 770290" d="M251.768,65.434c-.281.67-1.3.186-1.018-.478.294-.714.594-1.426.884-2.146-1.847,1.38-5.323,1.43-7.171,2.388-2.093,1.087-2.778,3.073-4.355,4.643a23.415,23.415,0,0,1-4.9,3.356,49,49,0,0,1-39.751,3.853c-2.75-.949-5.618-2.209-7.528-4.489a8.067,8.067,0,0,1-1.745-4,34.5,34.5,0,0,1-.321-4.019,7.268,7.268,0,0,0-2.61-5.658,5.994,5.994,0,0,1-1.932-2.353,9.059,9.059,0,0,1-.17-4.695,15.706,15.706,0,0,1-1.778-1.887c-2.03-2.541-2.836-5.5-1.743-9.552a24.408,24.408,0,0,1,3.023-7.428c.975-1.417,2.4-2.311,2.92-3.927.607-1.863.066-4.112-.015-6.054-.259-5.794,1.223-10.91,6.55-13.879a17.472,17.472,0,0,1,8.442-2.083c2.026-2.217,19.768-5.6,45.672,9.843,3.249.145,4.146-.543,7.837,1.476,2.97,1.556,4.282,5.913,4.269,7.639.968,9.287.031,19.036,0,22.749-.162,11.335-2.351,11.394-4.557,16.7" transform="translate(662.488 4294.604)" fill="#9b9b9b"/>
      <path id="Caminho_770291" data-name="Caminho 770291" d="M206.724,151.826c-.9.517-1.841,1.051-2.807,1.523-.249.122-.5.244-.763.359-.125.064-.254.116-.383.168-.259.109-.516.213-.784.309-.134.051-.262.1-.394.137-.339.113-.681.213-1.032.3a3.035,3.035,0,0,1-.3.068c-.3.062-.6.118-.91.151l-.3.034-.311.015c-.19.012-.373.015-.561.011-.227-.005-.454-.016-.684-.038a4.679,4.679,0,0,1-.554-.1.956.956,0,0,1-.169-.046.312.312,0,0,1-.1-.028.678.678,0,0,1-.1-.029c-1.2-.384-2.317-1.182-3.488-1.6a3.972,3.972,0,0,0-1.706-.261c-1.93.18-2.882,2.223-4.878,2.419a4.123,4.123,0,0,1-1.849-.228,15.728,15.728,0,0,0,1.778,1.887,9.067,9.067,0,0,0,.17,4.695,6,6,0,0,0,1.932,2.353,7.022,7.022,0,0,1,2.52,4.69c.043.31.074.629.089.968a34.423,34.423,0,0,0,.321,4.019c.251-.036.5-.085.755-.143a14.011,14.011,0,0,0,2.848-.968,10.818,10.818,0,0,0,1.081-.578c.1-.068.2-.13.3-.193a10.429,10.429,0,0,0,3.169-3.325,15.471,15.471,0,0,0,1.338-2.826c.2-.542.381-1.081.568-1.6.391-1.107.782-2.18,1.258-3.222a15.392,15.392,0,0,1,1.892-3.158c1.3-1.663,2.55-3.073,2.924-5.2a.572.572,0,0,0-.879-.557" transform="translate(657.2 4189.568)" fill="#9b9b9b"/>
      <path id="Caminho_770292" data-name="Caminho 770292" d="M249.838,177.788c9.737,2.4,18.432-3.136,23.573-11.658,2.338-3.875,5.611-9.683,6.685-14.08a195.381,195.381,0,0,0,3.838-24.336q.819-7.186,1.614-14.375c.248-2.239.484-4.571-.274-6.692-.858-2.4-2.86-4.182-4.786-5.854a40.123,40.123,0,0,0-7.756-5.712c-5.654-2.9-12.316-2.954-18.653-2.486-7.239.534-14.652,1.74-20.849,5.518a17.873,17.873,0,0,0-7.572,8.293,25.547,25.547,0,0,0-1.319,8.533c-.412,10.989-.512,22.128,2.067,32.818,2.7,11.2,9.112,24.057,20.192,28.926a19.5,19.5,0,0,0,3.239,1.106" transform="translate(629.452 4231.316)" fill="#ffa694"/>
      <path id="Caminho_770293" data-name="Caminho 770293" d="M414.3,205.053c-.605-1.171-1.7-2.872-3.085-3.277a1.964,1.964,0,0,0-.359-.077c-.067-.008-.14-.011-.208-.014a2.374,2.374,0,0,0-.619.067,1.786,1.786,0,0,0-.228.057,4.85,4.85,0,0,0-1.247.624,21.112,21.112,0,0,0-3.756,3.763c-.473.543.457,1.182.925.638.047-.056.1-.118.151-.174a37.471,37.471,0,0,0-1.655,4.085c-.122.353-.234.714-.339,1.074a34.1,34.1,0,0,0-1.487,10.933c.1,3.6,2.845,2.642,5.319.96a23.164,23.164,0,0,0,3.553-3.023c3.318-3.607,5.388-11.078,3.036-15.637" transform="translate(504.104 4154.452)" fill="#ffa694"/>
      <path id="Caminho_770294" data-name="Caminho 770294" d="M212.106,213.331a35.868,35.868,0,0,0-.9-11.192c.034.069.078.139.113.2.342.63,1.385.2,1.038-.431-.317-.574-.74-1.394-1.241-2.228a10.862,10.862,0,0,0-2.1-2.651,3.488,3.488,0,0,0-1.139-.67,2.084,2.084,0,0,0-.517-.112,1.908,1.908,0,0,0-.405,0c-1.426.13-2.829,1.553-3.654,2.562a7.72,7.72,0,0,0-.747,1.086c-2.41,4.175-1.818,10.984.47,14.841,1.059,1.791,4.922,6.9,7.071,5.785a2.7,2.7,0,0,0,1.177-1.924,33.831,33.831,0,0,0,.837-5.273" transform="translate(645.706 4158.279)" fill="#ffa694"/>
      <path id="Caminho_770295" data-name="Caminho 770295" d="M371.754,211.621a10.829,10.829,0,0,0,.313-3.379,3.072,3.072,0,0,0-.575-1.519c-1-1.224-2.389-.2-2.776.92-.5,1.453-.71,4.691.618,5.554,1.376.893,2.04-.128,2.419-1.576" transform="translate(526.938 4151.298)"/>
      <path id="Caminho_770296" data-name="Caminho 770296" d="M272.914,209.681a10.574,10.574,0,0,0,.048-3.316,3,3,0,0,0-.676-1.436c-1.07-1.117-2.343-.011-2.634,1.108-.378,1.453-.335,4.624,1.025,5.364,1.408.766,1.978-.28,2.237-1.72" transform="translate(598.681 4152.496)"/>
      <path id="Caminho_770300" data-name="Caminho 770300" d="M253.43,173.322a14.479,14.479,0,0,0-6.722.7,17.434,17.434,0,0,0-3.364,1.545c-.063.04-.141.082-.232.138-.786.459-2.411,1.414-2.23,2.249.052.228.295.356.515.435.2.075.394.134.593.189a9.658,9.658,0,0,0,3.567.194c2.795-.31,5.423-1.036,8.247-.813,1.354.112,4.359.438,4.522-1.563.181-2.2-3.326-2.853-4.9-3.074" transform="translate(619.839 4174.831)" fill="#9b9b9b"/>
      <path id="Caminho_770301" data-name="Caminho 770301" d="M357.465,172.769a12.818,12.818,0,0,0-5.954-.539c-1.381.211-4.473.832-4.291,2.77.214,2.222,4.454,1.152,5.683,1.2,1.9.072,3.749.576,5.632.762,1.079.106,3.14.381,3.95-.563,1.042-1.214-4.2-3.356-5.02-3.628" transform="translate(543.857 4175.931)" fill="#9b9b9b"/>
      <path id="Caminho_770302" data-name="Caminho 770302" d="M278.969,101.5a25.04,25.04,0,0,0-2.438-12.661,32.024,32.024,0,0,0-12.867-12.969c-.547-.3-1.1-.583-1.656-.845a25.4,25.4,0,0,0-6.948-2.136,19.358,19.358,0,0,0-4.95-.068c-.687.081-1.378.184-2.056.312a54.526,54.526,0,0,0-7.113,2.022,115.647,115.647,0,0,0-15.029,6.272c-2.111,1.061-4.466,2.08-6.2,3.72-1.713,1.626-2.84,3.924-3.984,5.961-1.089,1.945-2.51,4.095-2.924,6.362a8.129,8.129,0,0,0-.1.826c-.191,2.785,2.832,5.161,2.243,7.779a.469.469,0,0,0-.346.551,11.656,11.656,0,0,0,.574,2.751,1.691,1.691,0,0,0,.917,1.031.02.02,0,0,0,.016.008,1.046,1.046,0,0,0,1.129-.261,4.421,4.421,0,0,0,.923-1.746,33.8,33.8,0,0,0,1.234-8.33c0-.028,0-.056.009-.084,1.443-.2,7.4-12.417,8.125-13.062.224-.207,21.128-4.06,25.825-5.077,3.3.718,6.768,2.652,9.745,3.942a96.681,96.681,0,0,1,10.3,5.174.494.494,0,0,0,.238.075l-.067,17.355c0,.786-.135,3.553.591,4.933a1.579,1.579,0,0,0,.52.62c.307.2,3.061-3.423,3.275-4.4a45.091,45.091,0,0,0,1.016-8.06" transform="translate(637.485 4245.153)" fill="#9b9b9b"/>
      <path id="Caminho_770320" data-name="Caminho 770320" d="M286.363,347.4c-.793-.194-2.44.579-3.231.865a16.778,16.778,0,0,1-4.734,1.321,38.636,38.636,0,0,1-9.052.1c-5.931-1-10.488-5.217-14.494-9.463-.164-.171-.329-.342-.486-.518-.119,3.561-.177,7.127-.29,10.689a31.194,31.194,0,0,1-1.026,7.095c.343,0,.687-.013,1.015,0,14.919,2.047,26.55-3.858,31.217-8.431a.109.109,0,0,0,.018-.037c.215-.356,1.489-1.514,1.063-1.621" transform="translate(609.107 4057.398)"/>
      <path id="Caminho_770321" data-name="Caminho 770321" d="M311.171,305.3a22.945,22.945,0,0,0-2.913.068c-1.988.059-3.977.119-5.966.165-1.636.038-3.273.069-4.91.076-1.448.007-4.757-.257-4.85-.228-.4.127.8,1.51.993,1.7a15.671,15.671,0,0,0,2.615,2.11c3.583,2.236,8.015,1.71,11.653-.039a8.967,8.967,0,0,0,2.562-1.776c.188-.194,1.6-2,.816-2.078" transform="translate(581.401 4081.613)" fill="#fff" stroke="#000" stroke-width="1"/>
      <path id="Caminho_770322" data-name="Caminho 770322" d="M221.82,398.552s5.615-9.113,6.689-9.426,22.771,21.665,22.771,21.665,22.086-22.6,24.157-21.442,6.783,13.173,6.783,13.173S251.746,446.084,251.281,446s-22-20.405-22.771-21.736-8.861-21.746-8.861-21.746" transform="translate(631.589 4022.648)" fill="#fff"/>
      <path id="Caminho_770330" data-name="Caminho 770330" d="M271.141,401.359c2.071,1.156,10.865,6.637,10.865,6.637l-23.764,33.485-7.176-20.059c-.174-.03-7.369,20.232-7.194,20.059-6.344-9.078-24.7-34.922-24.7-34.922l11.863-5.2" transform="translate(631.804 4011.988)" fill="none" stroke="#000" stroke-width="1"/>
      <rect id="Retângulo_124886" data-name="Retângulo 124886" width="197.23" height="184.601" transform="translate(787.049 4296.273)" fill="none"/>
      <path id="Caminho_770329" data-name="Caminho 770329" d="M5.109,6.935a5.654,5.654,0,0,1-2.335.381C1.56,7.265,1.309,6.2,1.223,5.183A40.2,40.2,0,0,1,1.145.539C1.168-.18.05-.179.028.539-.018,2-.013,3.455.086,4.91a5.527,5.527,0,0,0,.5,2.413c.92,1.6,3.373,1.253,4.818.69.663-.258.375-1.339-.3-1.077" transform="translate(883.178 4366.303) rotate(19)"/>
      <g id="Grupo_233478" data-name="Grupo 233478" transform="translate(765.441 4418.898)">
        <g id="Grupo_233477" data-name="Grupo 233477" clip-path="url(#clip-path)">
          <rect id="Retângulo_124887" data-name="Retângulo 124887" width="235.776" height="79.294" transform="translate(0 0)" fill="url(#linear-gradient)"/>
        </g>
      </g>
      <path id="Caminho_770334" data-name="Caminho 770334" d="M335.182,205.973A137.71,137.71,0,0,1,347.918,232.6a177.866,177.866,0,0,1,4.84,17.553c.337,1.406.674,2.817,1.017,4.223a.287.287,0,0,0,.28.217.274.274,0,0,0,.069-.006.292.292,0,0,0,.211-.349c-.349-1.406-.685-2.811-1.023-4.222a178.687,178.687,0,0,0-4.851-17.6,138.951,138.951,0,0,0-12.9-26.912c-.131.154-.257.314-.377.474" transform="translate(462.563 4242.101)"/>
      <path id="Caminho_770333" data-name="Caminho 770333" d="M354.379,205.974a137.978,137.978,0,0,0-12.761,26.678,178.209,178.209,0,0,0-4.849,17.587c-.338,1.408-.675,2.822-1.019,4.231a.287.287,0,0,1-.28.218.276.276,0,0,1-.069-.006.293.293,0,0,1-.212-.349c.349-1.408.687-2.817,1.025-4.23a179.02,179.02,0,0,1,4.861-17.639A139.221,139.221,0,0,1,354,205.5c.132.154.258.315.378.475" transform="translate(611.512 4243.504)"/>
      <g id="Grupo_233995" data-name="Grupo 233995" transform="translate(752.415 4269.333) rotate(-31)">
        <g id="Grupo_233994" data-name="Grupo 233994" clip-path="url(#clip-path-2)">
          <path id="Caminho_770518" data-name="Caminho 770518" d="M17.668,8.834A8.834,8.834,0,1,1,8.834,0a8.834,8.834,0,0,1,8.834,8.834" transform="translate(20.518 56.154)" fill="#0e1126"/>
          <path id="Caminho_770519" data-name="Caminho 770519" d="M38.2,19.1A19.1,19.1,0,1,1,19.1,0,19.1,19.1,0,0,1,38.2,19.1" transform="translate(10.262 11.7)" fill="#f5c750"/>
          <path id="Caminho_770520" data-name="Caminho 770520" d="M0,0C3.138,4.03,5.881,7.935,5.881,14.3h8.846V0Z" transform="translate(14.637 42.969)" fill="#f5c750"/>
          <path id="Caminho_770521" data-name="Caminho 770521" d="M14.728,0C11.59,4.03,8.846,7.935,8.846,14.3H0V0Z" transform="translate(29.364 42.969)" fill="#f5c750"/>
          <rect id="Retângulo_124924" data-name="Retângulo 124924" width="17.668" height="7.715" transform="translate(20.518 57.273)" fill="#0e1126"/>
          <path id="Caminho_770522" data-name="Caminho 770522" d="M16.124,34.138c-.046-3.844-.031-7.688-.021-11.532q.007-2.918.015-5.836c0-1.641-.032-3.286.069-4.925a13.067,13.067,0,0,1,1.2-5.219A5.231,5.231,0,0,1,21.3,3.672,3.226,3.226,0,0,1,24.731,5.51,3.714,3.714,0,0,1,24.742,7.9a8.208,8.208,0,0,1-1.09,2.361c-1.98,2.946-5.675,4.215-9.1,4.258a20.2,20.2,0,0,1-6.236-1,11.355,11.355,0,0,1-5.366-3.377,8.687,8.687,0,0,1-2.3-5.475A3.991,3.991,0,0,1,2.96.942a4.349,4.349,0,0,1,4.234.729,8.118,8.118,0,0,1,2.79,4.941,24.812,24.812,0,0,1,.219,5.844c-.079,1.863-.1,3.722-.1,5.587-.009,4.162,0,8.324.01,12.486q0,1.293,0,2.585a.334.334,0,0,0,.667,0c0-4.245-.016-8.49-.014-12.735,0-1.977-.025-3.958.026-5.934a60.655,60.655,0,0,0,.077-6.161,10.709,10.709,0,0,0-1.9-5.723A5.9,5.9,0,0,0,4.446,0,4.3,4.3,0,0,0,.6,2.247a6.409,6.409,0,0,0,.167,5.7,11.087,11.087,0,0,0,4.18,4.788,18.024,18.024,0,0,0,6.79,2.232c3.711.572,7.775.012,10.748-2.441A8.912,8.912,0,0,0,25.406,8a4.35,4.35,0,0,0,0-2.586,3.548,3.548,0,0,0-1.379-1.773,4.584,4.584,0,0,0-4.72-.006,7.149,7.149,0,0,0-3.188,4.4,20.92,20.92,0,0,0-.66,5.606c-.021,1.772-.008,3.544-.012,5.316-.011,4.209-.029,8.418-.008,12.627q.006,1.275.02,2.549a.334.334,0,0,0,.667,0" transform="translate(17.202 25.981)" fill="#0e1126"/>
          <path id="Caminho_770523" data-name="Caminho 770523" d="M.5,3.869,8.2.615a.336.336,0,0,0,.12-.456A.342.342,0,0,0,7.86.039L.162,3.294a.336.336,0,0,0-.12.456.342.342,0,0,0,.456.12" transform="translate(51.631 21.417)" fill="#0e1126"/>
          <path id="Caminho_770524" data-name="Caminho 770524" d="M.624,8.073,5.081.5A.334.334,0,0,0,4.505.161L.048,7.736a.334.334,0,0,0,.576.337" transform="translate(43.317 4.447)" fill="#0e1126"/>
          <path id="Caminho_770525" data-name="Caminho 770525" d="M5.081,7.736.624.161A.334.334,0,0,0,.049.5L4.505,8.073a.334.334,0,0,0,.576-.337" transform="translate(11.552 4.447)" fill="#0e1126"/>
          <path id="Caminho_770526" data-name="Caminho 770526" d="M8.2,3.293.5.038a.346.346,0,0,0-.456.12.336.336,0,0,0,.12.457l7.7,3.255a.345.345,0,0,0,.456-.12.336.336,0,0,0-.12-.456" transform="translate(0 21.418)" fill="#0e1126"/>
          <path id="Caminho_770527" data-name="Caminho 770527" d="M0,.322V8.067a.334.334,0,0,0,.667,0V.322A.334.334,0,0,0,0,.322" transform="translate(29.661 0)" fill="#0e1126"/>
          <path id="Caminho_770528" data-name="Caminho 770528" d="M.413,4.95,12.727,1.614,16.261.656a.334.334,0,0,0-.177-.643L3.77,3.35.236,4.307a.334.334,0,0,0,.177.643" transform="translate(21.676 64.62)" fill="#e5e3f2"/>
          <path id="Caminho_770529" data-name="Caminho 770529" d="M.413,5.257,13.655,1.669,17.392.657a.334.334,0,0,0-.177-.643L3.973,3.6.236,4.613a.334.334,0,0,0,.177.643" transform="translate(20.545 59.027)" fill="#e5e3f2"/>
        </g>
      </g>
    </g>
  </g>
</svg>
