<svg xmlns="http://www.w3.org/2000/svg" xmlns:xlink="http://www.w3.org/1999/xlink" width="399.002" height="281.384" viewBox="0 0 399.002 281.384">
  <defs>
    <linearGradient id="linear-gradient" x1="0.973" y1="1" x2="0" y2="1" gradientUnits="objectBoundingBox">
      <stop offset="0" stop-color="#fff" stop-opacity="0"/>
      <stop offset="0.159" stop-color="#fff" stop-opacity="0.408"/>
      <stop offset="0.414" stop-color="#95ebff"/>
      <stop offset="0.598" stop-color="#3db8f9"/>
      <stop offset="0.82" stop-color="#1b74d8"/>
      <stop offset="1" stop-color="#0024a8"/>
    </linearGradient>
    <linearGradient id="linear-gradient-2" x1="0.027" y1="0" x2="1" y2="0" xlink:href="#linear-gradient"/>
    <clipPath id="clip-path">
      <rect id="Retângulo_125125" data-name="Retângulo 125125" width="281.371" height="274.782" transform="translate(0 0)" fill="none"/>
    </clipPath>
    <linearGradient id="linear-gradient-3" x1="0.553" y1="0.086" x2="0.589" y2="1" gradientUnits="objectBoundingBox">
      <stop offset="0" stop-color="#89f1b9"/>
      <stop offset="1" stop-color="#f6b784"/>
    </linearGradient>
    <linearGradient id="linear-gradient-4" x1="0.602" y1="0.975" x2="0.5" y2="-0.083" gradientUnits="objectBoundingBox">
      <stop offset="0" stop-color="#f54c60"/>
      <stop offset="1" stop-color="#fd9da0"/>
    </linearGradient>
    <linearGradient id="linear-gradient-5" x1="0.5" x2="0.5" y2="1" gradientUnits="objectBoundingBox">
      <stop offset="0" stop-color="#3b4fff"/>
      <stop offset="1" stop-color="#40b5ff"/>
    </linearGradient>
    <linearGradient id="linear-gradient-8" x1="0.5" x2="0.5" y2="1" gradientUnits="objectBoundingBox">
      <stop offset="0" stop-color="#9285f9"/>
      <stop offset="1" stop-color="#424ffe"/>
    </linearGradient>
    <linearGradient id="linear-gradient-10" x1="0.5" x2="0.5" y2="1" gradientUnits="objectBoundingBox">
      <stop offset="0" stop-color="#ffb97d"/>
      <stop offset="1" stop-color="#ffe66c"/>
    </linearGradient>
    <linearGradient id="linear-gradient-11" x1="0.5" x2="0.5" y2="1" gradientUnits="objectBoundingBox">
      <stop offset="0" stop-color="#c95ee9"/>
      <stop offset="1" stop-color="#9d7df6"/>
    </linearGradient>
    <linearGradient id="linear-gradient-12" x1="0.412" y1="1.194" x2="0.243" y2="0.211" gradientUnits="objectBoundingBox">
      <stop offset="0" stop-color="#d263e1"/>
      <stop offset="1" stop-color="#fba4b0"/>
    </linearGradient>
    <linearGradient id="linear-gradient-13" x1="0.5" y1="1.333" x2="0.4" y2="0.123" xlink:href="#linear-gradient-12"/>
    <linearGradient id="linear-gradient-14" x1="0.5" y1="1.918" x2="0.553" y2="-1.756" xlink:href="#linear-gradient-12"/>
  </defs>
  <g id="_Ilustração_lateral_esquerda_1_" data-name="&lt;Ilustração lateral esquerda_1&gt;" transform="translate(-473 -3412.407)">
    <g id="Grupo_232275" data-name="Grupo 232275" transform="translate(-13 1850.854)">
      <g id="Grupo_232248" data-name="Grupo 232248" transform="translate(-54 -235)">
        <g id="GettyImages-1412762526" transform="translate(703.31 1817.849)" fill="none">
          <path d="M-105.227.151,235.692,0,177.924,260.087l-341.233-.2Z" stroke="none"/>
          <path d="M 233.1991882324219 2.0010986328125 L -103.624267578125 2.1500244140625 L -160.8132629394531 257.8894348144531 L 176.3195343017578 258.0863647460938 L 233.1991882324219 2.0010986328125 M 235.6923675537109 0 L 177.923828125 260.0872802734375 L -163.3095855712891 259.8880004882812 L -105.2265777587891 0.150726318359375 L 235.6923675537109 0 Z" stroke="none" fill="#0024a9"/>
        </g>
      </g>
      <g id="Grupo_232268" data-name="Grupo 232268" transform="translate(-9503.485 1725.552)">
        <path id="Caminho_734262" data-name="Caminho 734262" d="M4.668-.459H138.562L133.487,20.9H0Z" transform="translate(10249.926 -163.541)" fill="url(#linear-gradient)"/>
        <path id="Caminho_734263" data-name="Caminho 734263" d="M133.894,20.9H0L5.075-.459H138.562Z" transform="translate(10249.926 -142.311)" fill="url(#linear-gradient-2)"/>
      </g>
    </g>
    <g id="Grupo_234119" data-name="Grupo 234119" transform="translate(504.048 3412.402)">
      <g id="Grupo_234119-2" data-name="Grupo 234119" transform="translate(0 0.005)" clip-path="url(#clip-path)">
        <path id="Caminho_770848" data-name="Caminho 770848" d="M757.567,1316.688l.81-7.158-13.947.774-.515,4.28s.533,4.131,6.208,4.267,7.443-2.164,7.443-2.164" transform="translate(-612.061 -1077.423)" fill="#ffede4"/>
        <path id="Caminho_770849" data-name="Caminho 770849" d="M709.41,1338.044s-4.727,2.079-6.765,5.245a5.584,5.584,0,0,0-.473,4.1h20.389l.607-8.8s-1.108-.728-5.262,1.179c-3.091,1.419-3.216-1.722-8.5-1.722" transform="translate(-577.555 -1100.884)" fill="#422b2b"/>
        <path id="Caminho_770850" data-name="Caminho 770850" d="M702.128,1379.3h20.555a.164.164,0,0,0,0-.328H702.128a.164.164,0,0,0,0,.328" transform="translate(-577.549 -1134.558)" fill="#fae8e0"/>
        <path id="Caminho_770851" data-name="Caminho 770851" d="M1063.976,1315.127l-.48-5.6-13.947.774.668,4.28s.533,4.131,6.209,4.267,7.55-3.724,7.55-3.724" transform="translate(-863.522 -1077.423)" fill="#ffede4"/>
        <path id="Caminho_770852" data-name="Caminho 770852" d="M1018.813,1338.044s-4.727,2.079-6.765,5.245a5.583,5.583,0,0,0-.473,4.1l21.6.267-.6-9.07s-.382-.056-2.975,1.179c-3.07,1.463-4.731-1.722-10.783-1.722" transform="translate(-832.117 -1100.884)" fill="#422b2b"/>
        <path id="Caminho_770853" data-name="Caminho 770853" d="M1011.531,1379.3h21.492a.164.164,0,0,0,0-.328h-21.492a.164.164,0,0,0,0,.328" transform="translate(-832.112 -1134.558)" fill="#fae8e0"/>
        <path id="Caminho_770854" data-name="Caminho 770854" d="M799.919,96.13a5.834,5.834,0,0,0-1.617,4.109c-.062,2.735.034,4.372-1.078,5.41s-2.785,2.772-2.538,4.765a2.874,2.874,0,0,0,3.122,2.726c1.278-.053,2.515-.738,4.49-.166,2.6.755,4.533-1.145,5.271-1.355s1.618-5.794-.334-9.28-7.316-6.21-7.316-6.21" transform="translate(-653.812 -79.092)" fill="#9c503d"/>
        <path id="Caminho_770855" data-name="Caminho 770855" d="M676.506,215.277l-11.579-8.783s14.015-14.883,17.032-17.468a33.141,33.141,0,0,1,13.18-6.229c5.17-1.221,11.776-2.669,20.823-4.249s20.249,1.58,20.249,1.58V199.66l-6.931,1,1.456,35.986-41.805,5.537L686.572,213Z" transform="translate(-547.072 -146.539)" fill="url(#linear-gradient-3)"/>
        <path id="Caminho_770856" data-name="Caminho 770856" d="M679.467,322.624c2.082,1.422,4.145,2.872,6.174,4.367,1.553,1.145,3.093,2.308,4.656,3.44q1.809,1.31,3.647,2.579c.174.12.338-.163.165-.283q-2.928-2.029-5.789-4.151c-1.582-1.175-3.159-2.355-4.763-3.5q-1.947-1.391-3.926-2.736c-.175-.119-.339.164-.165.283" transform="translate(-558.975 -265.185)" fill="#fae8e0"/>
        <path id="Caminho_770857" data-name="Caminho 770857" d="M845.729,202.443a10.23,10.23,0,0,0,6.947,3.443,9.793,9.793,0,0,0,2.227-.1c.208-.033.12-.348-.087-.316a9.9,9.9,0,0,1-7.255-1.788,9.426,9.426,0,0,1-1.6-1.473c-.138-.16-.369.073-.232.232" transform="translate(-695.794 -166.327)" fill="#fae8e0"/>
        <path id="Caminho_770858" data-name="Caminho 770858" d="M820.383,70.488s-2.482-4.079.513-6.813c2.277-2.079,6.307-1.854,6.307-1.854Z" transform="translate(-674.18 -50.859)" fill="#9c503d"/>
        <path id="Caminho_770859" data-name="Caminho 770859" d="M840,64.068c-1.969-4.285-6.844-4.589-10.639-2.85a7.586,7.586,0,0,0-4.465,5.707,25.527,25.527,0,0,0-.284,5.4c-.015.957-.195,3.344-.051,6.027.17,3.177,2.2,4.67,6.092,3.729,6.458-1.559,11.456-8.7,9.872-16.386a14.88,14.88,0,0,0-.526-1.63" transform="translate(-678.367 -49.551)" fill="#ffa88a"/>
        <path id="Caminho_770860" data-name="Caminho 770860" d="M868.59,136.288l.811,9.081s-2.539,3.2-5.729,3.513c-2.884.287-3.686-1.568-3.686-1.568l-.427-2.923Z" transform="translate(-707.207 -112.133)" fill="#ffa88a"/>
        <path id="Caminho_770861" data-name="Caminho 770861" d="M829.023,124.3c.664-.03.628.928.529,1.319-.065.254-.21.556-.511.566-.438.013-.5-.58-.5-.9,0-.356.046-.965.48-.985" transform="translate(-681.688 -102.271)" fill="#422b2b"/>
        <path id="Caminho_770862" data-name="Caminho 770862" d="M824.414,112.236c-.005,1.021-1.083.6-2.106,1.231-.088.054-.175.1-.262.152a1.6,1.6,0,0,1-.33-1.849,4.118,4.118,0,0,1,.71-.289c1.384-.422,1.991.01,1.988.754" transform="translate(-675.936 -91.587)" fill="#9c503d"/>
        <path id="Caminho_770863" data-name="Caminho 770863" d="M832.163,127.666c-.232.457-.458.918-.705,1.368-.257.467-.542.916-.841,1.358-.118.175.165.339.283.165.3-.441.584-.891.841-1.358.247-.45.473-.911.705-1.368.1-.188-.187-.354-.283-.165" transform="translate(-683.371 -104.97)" fill="#2b244a"/>
        <path id="Caminho_770864" data-name="Caminho 770864" d="M830.71,143.289a4.62,4.62,0,0,0,1.622.422.164.164,0,0,0,0-.328,4.172,4.172,0,0,1-1.457-.377.169.169,0,0,0-.224.059.165.165,0,0,0,.059.224" transform="translate(-683.405 -117.644)" fill="#2b244a"/>
        <path id="Caminho_770865" data-name="Caminho 770865" d="M840.638,63.179c-1.878-4.325-7.442-4.563-11.236-2.825-2.528,1.159-4.186,1.573-4.789,4.257-.066.287.148,1.13.1,1.423a18.363,18.363,0,0,1,1.265-2.952,13.383,13.383,0,0,0,9.189,6.738c1.073.241,1.216.557,1.149,1.544-.161,2.371-.4,4.229,1.745,5.743a4.538,4.538,0,0,0,2.43.321l-.529-4.343c1.312-2.641,2.342-6.059.672-9.906" transform="translate(-678.445 -48.826)" fill="#9c503d"/>
        <path id="Caminho_770866" data-name="Caminho 770866" d="M886.109,101.7a3.555,3.555,0,0,0,.832,2.6c.972.868,3.159,1.111,3.993,3.159s.382,1.91.937,2.465a4.154,4.154,0,0,1,1.007,4.062c-.625,1.875-3.923,1.319-4.93,1.041s-2.317,1-3.611,1.18-3.573.343-4.826-1.319a3.9,3.9,0,0,1-.127-4.249,6.087,6.087,0,0,0,.414-3.477l4.054-1.286Z" transform="translate(-723.047 -83.673)" fill="#9c503d"/>
        <path id="Caminho_770867" data-name="Caminho 770867" d="M865.181,118.954a2.54,2.54,0,1,0,2.392-2.68,2.54,2.54,0,0,0-2.392,2.68" transform="translate(-711.828 -95.662)" fill="#ffa88a"/>
        <path id="Caminho_770868" data-name="Caminho 770868" d="M850.324,124.355c.66-.041.64.913.548,1.3-.06.254-.2.557-.5.571-.436.02-.5-.569-.51-.887-.006-.354.03-.961.462-.987" transform="translate(-699.228 -102.314)" fill="#422b2b"/>
        <path id="Caminho_770869" data-name="Caminho 770869" d="M845.241,112.054c.078,1.013,1.039.523,2.023,1.084.9.515,1.583.587,1.718.046.163-.653-.583-1.656-1.971-2.008-1.3-.329-1.827.139-1.77.878" transform="translate(-695.423 -91.384)" fill="#9c503d"/>
        <path id="Caminho_770870" data-name="Caminho 770870" d="M881.667,121.833a1.7,1.7,0,0,1,.637,2.057c-.076.2.241.282.316.087a2.027,2.027,0,0,0-.788-2.426c-.176-.117-.341.167-.165.283" transform="translate(-725.335 -99.984)" fill="#2b244a"/>
        <path id="Caminho_770871" data-name="Caminho 770871" d="M836.828,150.564l2.792-.855a1.527,1.527,0,0,1-1.1,1.5,1.624,1.624,0,0,1-1.691-.647" transform="translate(-688.505 -123.175)" fill="#fff"/>
        <path id="Caminho_770872" data-name="Caminho 770872" d="M860,176.475a8.7,8.7,0,0,0,1.1-.63,9.081,9.081,0,0,0,.99-.81c.155-.143-.077-.375-.232-.232a8.406,8.406,0,0,1-.948.775,8.779,8.779,0,0,1-1.074.613c-.189.094-.023.376.165.283" transform="translate(-707.369 -143.784)" fill="#2b244a"/>
        <path id="Caminho_770873" data-name="Caminho 770873" d="M726.937,900.1s13.166,4.541,24.667-3.386L778.1,878.455l35.229,23.2s8.733-9.52,13.319-17.818,12.252-31.589-4.027-39.013-45.99-16.73-45.99-16.73l-29.1,6.831Z" transform="translate(-598.091 -681.322)" fill="#e1e6ed"/>
        <path id="Caminho_770874" data-name="Caminho 770874" d="M1012.827,957.282q3.793-4.4,7.827-8.591t8.3-8.14q4.26-3.953,8.738-7.664a57.9,57.9,0,0,1,9.291-6.691,16.991,16.991,0,0,1,10.873-2.158,13.625,13.625,0,0,1,1.374.314.164.164,0,0,0,.087-.316,16.063,16.063,0,0,0-10.923,1.093,44.723,44.723,0,0,0-9.507,6.355q-4.558,3.709-8.9,7.673t-8.452,8.163q-4.11,4.2-7.977,8.628-.48.549-.956,1.1c-.137.159.094.392.232.232" transform="translate(-833.084 -759.833)" fill="#2b244a"/>
        <path id="Caminho_770875" data-name="Caminho 770875" d="M755.548,504.533s-5.886,53.607-7.253,71.514c-1.285,16.826-2.742,69.805-2.742,69.805h14.9l15.772-91.205s7.721,32.1,9.19,38.163c3.263,13.477,12.41,53.042,12.41,53.042h15.8s-.723-20.274-2.92-30.755c-1.99-9.5-4.8-20.194-5.935-34.169s-3.961-48.779-8.939-64.648-7.2-16.547-7.2-16.547Z" transform="translate(-613.408 -411.16)" fill="url(#linear-gradient-4)"/>
        <path id="Caminho_770876" data-name="Caminho 770876" d="M892.139,687.669q.865,4.208,1.727,8.416.827,4.009,1.683,8.012.546,2.539,1.106,5.075c.045.206.361.119.316-.087q-.953-4.316-1.864-8.641-.836-3.972-1.645-7.95-.5-2.457-1.007-4.913c-.042-.206-.358-.119-.316.087" transform="translate(-734.009 -565.616)" fill="#2b244a"/>
        <path id="Caminho_770877" data-name="Caminho 770877" d="M1022.524,744.065c-.091-2.074-.381-4.141-.677-6.194-.433-2.995-.941-5.978-1.467-8.958-1.315-7.464-2.752-14.906-4.139-22.356-1.374-7.381-2.737-14.769-3.847-22.2-.435-2.911-.835-5.83-1.1-8.762-.436-4.851-.993-9.687-1.635-14.515-1.355-10.2-3.009-20.35-4.45-30.534q-.248-1.753-.485-3.507c-.028-.208-.344-.119-.316.087,1.366,10.129,3.021,20.216,4.431,30.338.7,5.042,1.354,10.094,1.853,15.161.311,3.151.6,6.294,1.039,9.431,1.006,7.226,2.313,14.409,3.636,21.582,1.394,7.562,2.852,15.112,4.217,22.679.985,5.459,2.069,10.962,2.529,16.5.035.415.063.831.081,1.247.009.21.337.211.328,0" transform="translate(-826.382 -515.807)" fill="#2b244a"/>
        <path id="Caminho_770878" data-name="Caminho 770878" d="M1135.333,117.111s15.285-.546,21.181-2.73,5.186-8.9,2.784-13.92-10.536-19.816-10.536-19.816Z" transform="translate(-934.101 -66.352)" fill="#ffa88a"/>
        <path id="Caminho_770879" data-name="Caminho 770879" d="M601.366,16.572,556.456,13.3S539.788,28.946,536.44,49.472c-3.283,20.125-2.62,36.2-17.906,59.9-19.194,29.767-46.984,37.048-57.5,62.6-10.925,26.538,12.509,50.406,48.757,58.7l3.885-60.457A249.861,249.861,0,0,1,543.282,144.6c16.814-12.265,34.127-32.464,36.357-66.319,2.293-34.818,11.573-49.194,21.727-61.713" transform="translate(-377.097 -10.941)" fill="#e1e6ed"/>
        <path id="Caminho_770880" data-name="Caminho 770880" d="M941.213,13.305a79.148,79.148,0,0,0-15.234,21.356c4.343-1.883,8.287-4.526,12.525-6.646a23.69,23.69,0,0,1,7.533-2.529c3.017-.383,5.991.511,9,.249,5.745-.5,10.642-3.7,15.633-6.286a44.985,44.985,0,0,1,8.526-3.374Z" transform="translate(-761.854 -10.948)" fill="url(#linear-gradient-5)"/>
        <path id="Caminho_770881" data-name="Caminho 770881" d="M501.478,931.6a40.04,40.04,0,0,1-.4-15.672,15.518,15.518,0,0,1-2.821-4.4,59.634,59.634,0,0,0-2.538-6.259c-2.342-4.169-6.469-5.214-10.95-5.336-2.322-.066-4.716.042-6.947-.711a13.756,13.756,0,0,1-5.8-4.366c-3.121-3.636-5.211-8.139-8.915-11.277q-1.13,2.117-2.08,4.422c-10.927,26.537,12.509,50.405,48.757,58.7l.146-2.267a25.465,25.465,0,0,1-8.457-12.841" transform="translate(-377.096 -726.969)" fill="url(#linear-gradient-5)"/>
        <path id="Caminho_770882" data-name="Caminho 770882" d="M632.845,487.967c-1.726-1.372-3.957-1.909-5.788-3.135a9.315,9.315,0,0,1-2.45-2.316,29.033,29.033,0,0,1-1.507-2.581,9.848,9.848,0,0,0-1.772-2.434,8.456,8.456,0,0,0-2.286-1.428c-1.693-.783-3.682-1.474-4.2-3.488a9.378,9.378,0,0,1,.016-3.393,14.494,14.494,0,0,0,.121-3.24c-.449-4.418-3.341-8.1-6.9-10.56a28.889,28.889,0,0,0-6.531-3.292,101.809,101.809,0,0,1-9.5,18.3c-13.537,20.992-31.349,30.8-44.362,43.723.092.072.187.141.282.209,4.156,2.964,9.427,3.931,14.448,3.6a39.734,39.734,0,0,0,8.231-1.51c1.34-.383,2.656-.822,3.973-1.274a23.379,23.379,0,0,1,3.927-1.094c2.827-.442,5.611.458,8.424.56a18.03,18.03,0,0,0,7.717-1.451c1.241-.531,2.43-1.186,3.695-1.661a9.954,9.954,0,0,1,3.862-.642,50.273,50.273,0,0,1,6.423,1.009c2.532-2.034,5.25-4.137,8.129-6.237a93.381,93.381,0,0,0,17.356-16.275,6.822,6.822,0,0,0-1.307-1.392" transform="translate(-450.611 -371.969)" fill="url(#linear-gradient-5)"/>
        <path id="Caminho_770883" data-name="Caminho 770883" d="M841.588,456.495a42.176,42.176,0,0,0,1.658-4.056c.07-.2-.247-.285-.316-.087a41.311,41.311,0,0,1-1.624,3.978c-.089.19.193.356.283.165" transform="translate(-692.174 -372.083)" fill="#fae8e0"/>
        <path id="Caminho_770884" data-name="Caminho 770884" d="M704.974,956.822a21.736,21.736,0,0,1-7.3-9.59,32.179,32.179,0,0,1-2.072-11.638,46.839,46.839,0,0,1,1.4-11.464,70.992,70.992,0,0,1,4.113-12.305,87.608,87.608,0,0,1,6.231-10.968q.515-.805,1.034-1.608c.115-.177-.169-.342-.283-.165a107.029,107.029,0,0,0-6.734,11.439,70.213,70.213,0,0,0-4.376,12.354,48.733,48.733,0,0,0-1.7,11.492,34.036,34.036,0,0,0,1.678,11.882,22.482,22.482,0,0,0,6.625,9.9q.592.5,1.219.957c.17.125.334-.159.165-.283" transform="translate(-572.042 -739.665)" fill="#2b244a"/>
        <path id="Caminho_770885" data-name="Caminho 770885" d="M608.28,338.268s-11.245,11.9-12.083,18.588c-1.319,10.536,8.443,13.538,16.013,10.481s28.715-14.286,28.715-14.286,1.074,1.225,3.639.352,4.968-3.821,5.131-4.8a2.9,2.9,0,0,0-.819-2.02s1.092-2.293-.491-3.548c0,0,3.821-.091,5-.637s1.4-2.438.6-2.857-10.1-1.183-11.773-1.146-7.791,1.394-22.967,8.2Z" transform="translate(-490.425 -278.313)" fill="#ffa88a"/>
        <path id="Caminho_770886" data-name="Caminho 770886" d="M859.667,363.281q2.9.029,5.788.191c.211.012.21-.316,0-.328q-2.892-.162-5.788-.191a.164.164,0,0,0,0,.328" transform="translate(-707.166 -298.623)" fill="#2b244a"/>
        <path id="Caminho_770887" data-name="Caminho 770887" d="M862.748,382.465a45.508,45.508,0,0,1,5.408.285c.209.024.208-.3,0-.328a45.546,45.546,0,0,0-5.408-.285.164.164,0,0,0,0,.328" transform="translate(-709.7 -314.405)" fill="#2b244a"/>
        <path id="Caminho_770888" data-name="Caminho 770888" d="M848.646,409.453,853,406.861a.164.164,0,0,0-.165-.283l-4.352,2.591a.164.164,0,0,0,.165.283" transform="translate(-698.027 -334.496)" fill="#2b244a"/>
        <path id="Caminho_770889" data-name="Caminho 770889" d="M675.763,389.063a87.425,87.425,0,0,1,8.514-3.785c.195-.075.11-.391-.087-.316a88.293,88.293,0,0,0-8.593,3.818c-.188.1-.022.379.165.283" transform="translate(-555.783 -316.721)" fill="#2b244a"/>
        <path id="Caminho_770890" data-name="Caminho 770890" d="M1080.972.614s-7.461-.425-8.551-.492c-1.912-.117-1.687,2.981.039,3.1,1.992.137,4.218.267,4.218.267s-3.33,2.2-2.184,4.067c1.111,1.813,4.146-.464,4.146-.464a1.819,1.819,0,0,0,2.378,1.638c2.238-.437,6.151-4.43,6.151-4.43l2.153.157s-.634-3.533-4.018-3.3c0,0-.965-2.184-4.331-.546" transform="translate(-881.232 -0.005)" fill="#ffa88a"/>
        <path id="Caminho_770891" data-name="Caminho 770891" d="M746.8,1287.221h15.456a.164.164,0,0,0,0-.328H746.8a.164.164,0,0,0,0,.328" transform="translate(-614.302 -1058.799)" fill="#2b244a"/>
        <path id="Caminho_770892" data-name="Caminho 770892" d="M1032.346,1287.221H1048.8a.164.164,0,0,0,0-.328h-16.452a.164.164,0,0,0,0,.328" transform="translate(-849.238 -1058.799)" fill="#2b244a"/>
        <path id="Caminho_770893" data-name="Caminho 770893" d="M801.785,475.337a9.752,9.752,0,0,0-9.754,9.751c0,5.388,7.478,16.662,9.754,16.662,1.929,0,9.751-11.274,9.751-16.662a9.752,9.752,0,0,0-9.751-9.751m0,14.507a4.754,4.754,0,1,1,4.753-4.756,4.755,4.755,0,0,1-4.753,4.756" transform="translate(-651.648 -391.087)" fill="#ff674d"/>
        <path id="Caminho_770894" data-name="Caminho 770894" d="M829.742,632.031c0,.543-2.128.983-4.754.983s-4.754-.44-4.754-.983,2.128-.983,4.754-.983,4.754.44,4.754.983" transform="translate(-674.852 -519.199)" fill="#ff674d"/>
        <path id="Caminho_770895" data-name="Caminho 770895" d="M696.616,723.624l-5.551-1.631a.655.655,0,0,1-.47-.629v-33.03a.328.328,0,0,1,.42-.314l5.551,1.631a.655.655,0,0,1,.47.628v33.03a.328.328,0,0,1-.42.314" transform="translate(-568.19 -566.062)" fill="#7472e8"/>
        <path id="Caminho_770896" data-name="Caminho 770896" d="M634.187,740.594l-5.131-1.508a.655.655,0,0,1-.47-.629V713.179a.327.327,0,0,1,.42-.314l5.551,1.631a.655.655,0,0,1,.47.629v24.841a.655.655,0,0,1-.84.628" transform="translate(-517.172 -586.503)" fill="#7472e8"/>
        <path id="Caminho_770897" data-name="Caminho 770897" d="M566.849,740.53,561.3,738.9a.655.655,0,0,1-.47-.628V717.286a.327.327,0,0,1,.42-.314L566.8,718.6a.655.655,0,0,1,.47.629v20.984a.328.328,0,0,1-.42.314" transform="translate(-461.423 -589.882)" fill="#7472e8"/>
        <path id="Caminho_770898" data-name="Caminho 770898" d="M513.874,764.823l-5.551-1.631a.655.655,0,0,1-.47-.629V749.732a.328.328,0,0,1,.42-.314l5.551,1.631a.655.655,0,0,1,.47.629v12.831a.327.327,0,0,1-.42.314" transform="translate(-417.838 -616.577)" fill="#7472e8"/>
        <path id="Caminho_770899" data-name="Caminho 770899" d="M618.64,979.523,598.41,973.1c-4.746-1.508-7.785.247-8.137,4.4-.343,4.051,2.374,7.74,6.986,9.206l20.23,6.428c3.954,1.256,7.417-.771,7.734-4.529.323-3.822-2.63-7.821-6.584-9.078" transform="translate(-485.627 -800.181)" fill="#fff"/>
        <path id="Caminho_770900" data-name="Caminho 770900" d="M651.6,1014.748c-1.553-.493-1.749,1.8-.194,2.293s1.749-1.8.194-2.293" transform="translate(-535.063 -834.833)" fill="#422b2b"/>
        <path id="Caminho_770901" data-name="Caminho 770901" d="M683.668,1024.938c-1.553-.493-1.749,1.8-.194,2.293s1.749-1.8.194-2.293" transform="translate(-561.449 -843.217)" fill="#422b2b"/>
        <path id="Caminho_770902" data-name="Caminho 770902" d="M715.738,1035.128c-1.553-.493-1.749,1.8-.194,2.293s1.749-1.8.194-2.293" transform="translate(-587.834 -851.601)" fill="#422b2b"/>
        <path id="Caminho_770903" data-name="Caminho 770903" d="M743.958,1067.583l4.195,3.343c1.251,1,2.825.571,2.941-.8l.6-7.076Z" transform="translate(-612.095 -874.634)" fill="#fff"/>
        <path id="Caminho_770904" data-name="Caminho 770904" d="M485.944,980.739l-16.157-5.134c-4.1-1.3-7.69.733-8.025,4.7-.33,3.9,2.729,8.116,6.831,9.419l16.157,5.134c4.785,1.52,8.087-.362,8.443-4.566.364-4.309-2.324-7.987-7.248-9.552" transform="translate(-379.897 -802.362)" fill="#faa23c"/>
        <path id="Caminho_770905" data-name="Caminho 770905" d="M458.96,1003.939l-.621,7.342a2.641,2.641,0,0,0,2.756,2.671l4.7-.594Z" transform="translate(-377.095 -825.997)" fill="#faa23c"/>
        <path id="Caminho_770906" data-name="Caminho 770906" d="M511.542,1016.7c-1.611-.512-1.815,1.867-.2,2.38s1.815-1.867.2-2.38" transform="translate(-419.792 -836.433)" fill="#422b2b"/>
        <path id="Caminho_770907" data-name="Caminho 770907" d="M544.818,1027.268c-1.611-.512-1.815,1.867-.2,2.379s1.815-1.866.2-2.379" transform="translate(-447.17 -845.132)" fill="#422b2b"/>
        <path id="Caminho_770908" data-name="Caminho 770908" d="M578.095,1037.841c-1.611-.512-1.815,1.867-.2,2.379s1.815-1.866.2-2.379" transform="translate(-474.549 -853.831)" fill="#422b2b"/>
        <path id="Caminho_770909" data-name="Caminho 770909" d="M511.55,813.828l1.026,4.077a.464.464,0,0,0,.642.309l9.564-4.339a.464.464,0,0,1,.645.321l1.448,6.468a.464.464,0,0,0,.664.312l27.713-14.185a.464.464,0,0,1,.642.24l.331.821a.464.464,0,0,0,.818.082l4.973-7.525a.464.464,0,0,0-.325-.716l-7.874-1.057a.464.464,0,0,0-.5.611l.473,1.371a.464.464,0,0,1-.229.565l-21.891,11.1a.464.464,0,0,1-.666-.329l-1.032-5.511a.464.464,0,0,0-.651-.336L511.8,813.293a.464.464,0,0,0-.255.534" transform="translate(-420.868 -657.08)" fill="#ff674d"/>
        <path id="Caminho_770910" data-name="Caminho 770910" d="M1018.722,445.316a9.122,9.122,0,1,0,9.122,9.122,9.125,9.125,0,0,0-9.122-9.122m0,13.307a4.185,4.185,0,1,1,4.185-4.185,4.182,4.182,0,0,1-4.185,4.185" transform="translate(-830.654 -366.387)" fill="#422b2b"/>
        <path id="Caminho_770911" data-name="Caminho 770911" d="M1053.844,423.708v7.487a.758.758,0,0,1-.948.734,4.219,4.219,0,0,0-2.077,0,.758.758,0,0,1-.947-.734v-7.485a.763.763,0,0,1,.687-.759q.641-.064,1.3-.064t1.3.064a.763.763,0,0,1,.687.759" transform="translate(-863.788 -347.932)" fill="#422b2b"/>
        <path id="Caminho_770912" data-name="Caminho 770912" d="M1051.856,519.672a4.179,4.179,0,0,0,1.039-.131.758.758,0,0,1,.948.734v7.487a.763.763,0,0,1-.687.759q-.642.064-1.3.064t-1.3-.064a.763.763,0,0,1-.687-.759v-7.485a.758.758,0,0,1,.947-.734,4.2,4.2,0,0,0,1.037.129" transform="translate(-863.788 -427.436)" fill="#422b2b"/>
        <path id="Caminho_770913" data-name="Caminho 770913" d="M995.48,485.588a.758.758,0,0,1,.734.947,4.239,4.239,0,0,0,0,2.074.758.758,0,0,1-.734.947h-7.489a.763.763,0,0,1-.759-.687q-.064-.641-.064-1.3t.064-1.3a.763.763,0,0,1,.759-.687Z" transform="translate(-812.198 -399.521)" fill="#422b2b"/>
        <path id="Caminho_770914" data-name="Caminho 770914" d="M1092.88,487.571q0,.656-.063,1.3a.763.763,0,0,1-.759.687h-7.485a.758.758,0,0,1-.734-.947,4.237,4.237,0,0,0,0-2.074.758.758,0,0,1,.734-.947h7.485a.763.763,0,0,1,.759.687q.064.641.063,1.3" transform="translate(-891.714 -399.52)" fill="#422b2b"/>
        <path id="Caminho_770915" data-name="Caminho 770915" d="M1011.241,444.152h0a.758.758,0,0,1-.147,1.188,4.207,4.207,0,0,0-1.468,1.471.758.758,0,0,1-1.189.148l0,0-5.294-5.29a.764.764,0,0,1-.05-1.024,13.117,13.117,0,0,1,1.835-1.835.764.764,0,0,1,1.024.05Z" transform="translate(-825.157 -360.89)" fill="#422b2b"/>
        <path id="Caminho_770916" data-name="Caminho 770916" d="M1079.36,513.253a13.108,13.108,0,0,1-1.827,1.824.766.766,0,0,1-1.027-.047l-5.287-5.287-.006-.006a.757.757,0,0,1,.148-1.187,4.207,4.207,0,0,0,1.474-1.474.757.757,0,0,1,1.187-.147l0,0,5.291,5.294a.766.766,0,0,1,.046,1.028" transform="translate(-881.162 -416.895)" fill="#422b2b"/>
        <path id="Caminho_770917" data-name="Caminho 770917" d="M1011.26,509.738l-5.293,5.293a.766.766,0,0,1-1.028.046,13.031,13.031,0,0,1-1.825-1.827.766.766,0,0,1,.047-1.027l5.294-5.294a.757.757,0,0,1,1.188.148,4.2,4.2,0,0,0,1.471,1.473.757.757,0,0,1,.147,1.187" transform="translate(-825.173 -416.897)" fill="#422b2b"/>
        <path id="Caminho_770918" data-name="Caminho 770918" d="M1079.326,441.679l-5.293,5.293a.757.757,0,0,1-1.187-.148,4.207,4.207,0,0,0-1.472-1.473.757.757,0,0,1-.147-1.187l5.292-5.292a.766.766,0,0,1,1.027-.047,12.945,12.945,0,0,1,1.827,1.826.766.766,0,0,1-.046,1.027" transform="translate(-881.174 -360.903)" fill="#422b2b"/>
        <path id="Caminho_770919" data-name="Caminho 770919" d="M928.866,506.085a6.12,6.12,0,1,0,2.98,8.126,6.124,6.124,0,0,0-2.98-8.126m-.027,6.735a2.809,2.809,0,1,1-1.368-3.728,2.807,2.807,0,0,1,1.368,3.728" transform="translate(-757.073 -415.917)" fill="#fff"/>
        <path id="Caminho_770920" data-name="Caminho 770920" d="M932.65,553.035l-2.13,4.6a.485.485,0,0,1-.592.262c-.284-.1-.563-.21-.843-.338a8.894,8.894,0,0,1-.8-.423.485.485,0,0,1-.182-.62l2.132-4.6a.494.494,0,0,1,.771-.159,2.75,2.75,0,0,0,.6.373,2.842,2.842,0,0,0,.694.219.486.486,0,0,1,.355.685" transform="translate(-763.564 -453.864)" fill="#fff"/>
        <path id="Caminho_770921" data-name="Caminho 770921" d="M959.793,494.417l-2.132,4.6a.5.5,0,0,1-.77.161,2.791,2.791,0,0,0-.6-.374,2.845,2.845,0,0,0-.694-.219.486.486,0,0,1-.355-.685l2.133-4.6a.485.485,0,0,1,.591-.262,9.053,9.053,0,0,1,1.64.76.485.485,0,0,1,.185.622" transform="translate(-785.894 -405.627)" fill="#fff"/>
        <path id="Caminho_770922" data-name="Caminho 770922" d="M909.07,513.437l4.6,2.132a.494.494,0,0,1,.159.77,2.75,2.75,0,0,0-.374.6,2.84,2.84,0,0,0-.216.695.486.486,0,0,1-.685.357l-4.6-2.133a.486.486,0,0,1-.262-.592,8.475,8.475,0,0,1,.339-.84,8.713,8.713,0,0,1,.423-.8.486.486,0,0,1,.621-.183" transform="translate(-746.784 -422.396)" fill="#fff"/>
        <path id="Caminho_770923" data-name="Caminho 770923" d="M972.315,542.718a.485.485,0,0,1,.262.592,8.832,8.832,0,0,1-.338.839,8.54,8.54,0,0,1-.423.8.485.485,0,0,1-.62.181L966.6,543a.5.5,0,0,1-.16-.771,2.758,2.758,0,0,0,.372-.6,2.789,2.789,0,0,0,.216-.674.5.5,0,0,1,.692-.376Z" transform="translate(-795.044 -444.734)" fill="#fff"/>
        <path id="Caminho_770924" data-name="Caminho 770924" d="M933.97,498.128a.494.494,0,0,1-.751-.225l-.009-.024-1.74-4.73a.486.486,0,0,1,.234-.6,8.828,8.828,0,0,1,1.7-.624.486.486,0,0,1,.57.309l1.733,4.732.01.027a.486.486,0,0,1-.408.653,2.82,2.82,0,0,0-1.338.486" transform="translate(-766.346 -404.719)" fill="#fff"/>
        <path id="Caminho_770925" data-name="Caminho 770925" d="M957.719,558.246a8.886,8.886,0,0,1-1.7.621.486.486,0,0,1-.57-.31l-1.733-4.729-.011-.029a.486.486,0,0,1,.408-.654,2.83,2.83,0,0,0,1.344-.488.493.493,0,0,1,.752.225l.009.023,1.736,4.736a.486.486,0,0,1-.235.6" transform="translate(-784.642 -454.626)" fill="#fff"/>
        <path id="Caminho_770926" data-name="Caminho 770926" d="M912.79,540.8a.494.494,0,0,1-.225.751l-.024.009-4.733,1.736a.486.486,0,0,1-.6-.235,8.8,8.8,0,0,1-.622-1.7.486.486,0,0,1,.31-.569l4.76-1.746a.486.486,0,0,1,.653.408,2.832,2.832,0,0,0,.486,1.342" transform="translate(-745.883 -443.481)" fill="#fff"/>
        <path id="Caminho_770927" data-name="Caminho 770927" d="M973.537,518.753a.486.486,0,0,1-.309.569l-4.73,1.737-.027.01a.486.486,0,0,1-.653-.408,2.835,2.835,0,0,0-.487-1.341.494.494,0,0,1,.226-.752l.026-.009,4.731-1.737a.485.485,0,0,1,.6.233,8.65,8.65,0,0,1,.622,1.7" transform="translate(-795.8 -425.192)" fill="#fff"/>
        <path id="Caminho_770928" data-name="Caminho 770928" d="M866.018,286.772c-.807-1.028-1.982-2.1-3.389-1.939a6.792,6.792,0,0,0-1.735.529,11.269,11.269,0,0,1-3.647.957c-1.749.089-3.567-.19-5.006,1.056a2.816,2.816,0,0,0-1.011,1.988c-.106,3.4,4.555,3.317,6.743,2.825a14.338,14.338,0,0,1,3.026-.81c1.1.023,1.76.506,2.868.549,1.259.049,2.863.08,3.256-1.4a4.473,4.473,0,0,0-1.105-3.752" transform="translate(-700.352 -234.335)" fill="#fff"/>
        <path id="Caminho_770929" data-name="Caminho 770929" d="M981.338,94.028s8.185-9.339,12.47-12.006,6.321.161,7.386-.089c1.983-.466,9.5-9.988,12.882-11.75s3.4,8.25,3.5,12.131c.089,3.629-.561,10.584-.561,10.584a52.532,52.532,0,0,1-15.91,3.035c-7.814,0-19.767-1.9-19.767-1.9" transform="translate(-807.401 -57.575)" fill="#422b2b"/>
        <path id="Caminho_770930" data-name="Caminho 770930" d="M1128.4,70.177c-1.946,1.016-5.263,4.6-8.109,7.547a16.947,16.947,0,0,0,2.066,1.517c1.346.647,3.03-.9,4.449-.981,1.329-.077,2.254.866,3.583.754a6.837,6.837,0,0,0,1.41-.27c-.2-4.41-.819-9.909-3.4-8.567" transform="translate(-921.729 -57.57)" fill="#fff"/>
        <path id="Caminho_770931" data-name="Caminho 770931" d="M976.985,329.226c-.437-2.149-3.219-3.473-5.381-3.62-.012,0-.773-2.935-.9-3.243a6.433,6.433,0,0,0-2.341-2.821c-2.544-1.682-6.163-1.168-8.64.408a20.536,20.536,0,0,0-4.746,4.252,16.766,16.766,0,0,0-1.781,2.63,9.269,9.269,0,0,0-7.591.035,5.424,5.424,0,0,0-2.841,2.915,3.677,3.677,0,0,0,.82,3.965c2.752,2.44,8.638,1.814,12.081,1.881,5.478.107,11.038.206,16.343-1.165,1.77-.457,3.875-1.374,4.685-3.141a3.351,3.351,0,0,0,.3-2.1" transform="translate(-775.461 -262.049)" fill="#fff"/>
        <path id="Caminho_770932" data-name="Caminho 770932" d="M1033.56,179.041a8.467,8.467,0,0,0-2.115-3.785,9.269,9.269,0,0,0-7.837-2.455,12.892,12.892,0,0,0-4.913,1.718l-.145-.1a18.72,18.72,0,0,0-4.237-2.362,7.212,7.212,0,0,0-4.649-.182,15.3,15.3,0,0,0-4.23,2.32,1.455,1.455,0,0,1-.41.227,1.628,1.628,0,0,1-.62.01,6.936,6.936,0,0,0-5.372,1.851c-2.451,2.331-1.023,8.451.644,10.89a8.811,8.811,0,0,0,7.966,3.8c1.648-.151,2.888-1.046,4.445-.806,2.175.335,4.746,1.047,6.914.393a16.923,16.923,0,0,0,3.623-1.665,17.452,17.452,0,0,0,3.062-2.266,13.973,13.973,0,0,0,1.672-1.866,7.066,7.066,0,0,0,3.119-.456,5.63,5.63,0,0,0,2.556-1.869,4.106,4.106,0,0,0,.528-3.4" transform="translate(-820.878 -141.162)" fill="#fff"/>
        <path id="Caminho_770933" data-name="Caminho 770933" d="M980.158,298.351a41.248,41.248,0,0,0,4.268-3.789c1.473-1.477,2.871-3.029,4.2-4.641q1.075-1.308,2.076-2.675c.125-.17-.16-.334-.283-.165a59.959,59.959,0,0,1-8.087,9.033c-.752.682-1.526,1.341-2.336,1.954-.166.126,0,.41.165.283" transform="translate(-806.237 -236.141)" fill="#2b244a"/>
        <path id="Caminho_770934" data-name="Caminho 770934" d="M915.148,298.068a40.722,40.722,0,0,1-4.2-3.738c-1.456-1.46-2.84-2.994-4.15-4.586q-1.072-1.3-2.07-2.663c-.123-.169-.407-.005-.283.165a60.249,60.249,0,0,0,8.187,9.143c.758.685,1.539,1.344,2.353,1.961.168.127.331-.157.165-.283" transform="translate(-744.109 -236.141)" fill="#2b244a"/>
        <path id="Caminho_770935" data-name="Caminho 770935" d="M898.26,203.316c0,2.533-9.129,9.853-20.389,9.853s-20.389-7.593-20.389-9.853c0-2.217,9.129-9.853,20.389-9.853s20.389,7.2,20.389,9.853" transform="translate(-705.497 -159.174)" fill="#ff674d"/>
        <path id="Caminho_770936" data-name="Caminho 770936" d="M898.266,227.7a2.715,2.715,0,0,1-.593,1.418c-4.166,1.123-12.27,3.013-19.8,3.013a77.853,77.853,0,0,1-19.76-3.05,2.622,2.622,0,0,1-.629-1.382,2.815,2.815,0,0,1,.711-1.477c3.842-1.065,12.217-3.121,19.678-3.121,7.055,0,15.329,1.838,19.652,2.938a3.06,3.06,0,0,1,.737,1.661" transform="translate(-705.502 -183.561)" fill="#ffd6c2"/>
        <path id="Caminho_770937" data-name="Caminho 770937" d="M1084.438,216.88s-1.511-7.766,0-7.766,0,7.766,0,7.766" transform="translate(-891.674 -172.051)" fill="#422b2b"/>
        <path id="Caminho_770938" data-name="Caminho 770938" d="M1084.436,244.225s1.511,7.766,0,7.766,0-7.766,0-7.766" transform="translate(-891.673 -200.938)" fill="#422b2b"/>
        <path id="Caminho_770939" data-name="Caminho 770939" d="M1085.217,245.462s4.167-1.511,4.167,0-4.167,0-4.167,0" transform="translate(-892.868 -201.404)" fill="#422b2b"/>
        <path id="Caminho_770940" data-name="Caminho 770940" d="M1070.547,245.462s-4.167,1.511-4.167,0,4.167,0,4.167,0" transform="translate(-877.37 -201.404)" fill="#422b2b"/>
        <path id="Caminho_770941" data-name="Caminho 770941" d="M952.267,340.133s.116,4.028.989,5.277a3.626,3.626,0,0,0,5.2,0c.873-1.249.989-5.277.989-5.277Z" transform="translate(-783.483 -279.847)" fill="#422b2b"/>
        <path id="Caminho_770942" data-name="Caminho 770942" d="M770.907,686.5l0-.009-2.253-.73-.244.776c-3.2,1.128-6.2,5.926-6.791,11.011-.335,2.872.169,5.234,1.232,6.659l-.214.679,2.023.658,0-.009a3.47,3.47,0,0,0,1.889.011c3.341-.867,6.55-5.854,7.167-11.138.474-4.058-.722-7.1-2.815-7.908" transform="translate(-626.544 -564.215)" fill="#faa23c"/>
        <path id="Caminho_770943" data-name="Caminho 770943" d="M754.422,704.053c3.341-.867,6.55-5.854,7.167-11.138s-1.592-8.864-4.933-8-6.55,5.854-7.167,11.138,1.591,8.864,4.933,8" transform="translate(-616.561 -563.414)" fill="#faa23c"/>
        <path id="Caminho_770944" data-name="Caminho 770944" d="M765.764,705.131a1.284,1.284,0,0,1,1.791-.448,2.839,2.839,0,0,1,1.081,1.943,2.606,2.606,0,0,1-2.92,3.2,4.689,4.689,0,0,0-2.522.516,3.219,3.219,0,0,0-1.352,1.729,3.518,3.518,0,0,0,1.436,3.983c1.544.793,3.182-.537,3.905-1.836.1-.184-.18-.35-.283-.165-.654,1.174-2.2,2.492-3.587,1.646a2.788,2.788,0,0,1-1.159-1.724,3.093,3.093,0,0,1,.349-2.524,2.9,2.9,0,0,1,1.987-1.233,15.525,15.525,0,0,0,2.562-.238,2.961,2.961,0,0,0,.989-.528,2.569,2.569,0,0,0,.676-1,3.6,3.6,0,0,0,.11-2.455,2.692,2.692,0,0,0-1.4-1.744,1.634,1.634,0,0,0-1.943.715c-.116.177.167.341.283.165" transform="translate(-626.689 -579.344)" fill="#2b244a"/>
        <path id="Caminho_770945" data-name="Caminho 770945" d="M767.665,763.584q-.494,1.241-1,2.477a.165.165,0,0,0,.114.2.168.168,0,0,0,.2-.114q.5-1.237,1-2.477c.078-.2-.239-.281-.316-.087" transform="translate(-630.772 -628.154)" fill="#2b244a"/>
        <path id="Caminho_770946" data-name="Caminho 770946" d="M793.213,698.865q-.376,1.051-.758,2.1c-.072.2.244.284.316.087q.382-1.048.758-2.1c.071-.2-.245-.285-.316-.087" transform="translate(-651.988 -574.904)" fill="#2b244a"/>
        <path id="Caminho_770947" data-name="Caminho 770947" d="M772.628,707.129a5.936,5.936,0,0,0,3.528-1.7,13.022,13.022,0,0,0,2.68-3.578,17.639,17.639,0,0,0,1.693-4.773A14.126,14.126,0,0,0,780.69,692a6.213,6.213,0,0,0-1.879-3.781c-.16-.135-.393.1-.232.232a5.594,5.594,0,0,1,1.691,3.109,12.781,12.781,0,0,1,.048,4.856,17.4,17.4,0,0,1-1.471,4.69,13.776,13.776,0,0,1-2.485,3.672,5.977,5.977,0,0,1-3.734,2.025c-.209.013-.211.341,0,.328" transform="translate(-635.554 -566.202)" fill="#2b244a"/>
        <path id="Caminho_770948" data-name="Caminho 770948" d="M842.991,676.385h0l-.028-.067-.02-.048-.922-2.178-.56.245a9.13,9.13,0,0,0-7.207-1.551c-5.318.808-9.865,4.791-10.156,8.895-.006.081-.007.161-.009.242l-.4.173.623,1.546a4.947,4.947,0,0,0,.31.77l.006.015h0c1.26,2.465,4.56,3.832,8.565,3.223,5.318-.808,9.865-4.791,10.156-8.895a5.218,5.218,0,0,0-.364-2.368" transform="translate(-677.698 -553.419)" fill="#faa23c"/>
        <path id="Caminho_770949" data-name="Caminho 770949" d="M839.08,664.17c-.291,4.1-4.838,8.087-10.156,8.895s-9.392-1.864-9.1-5.968,4.838-8.087,10.156-8.895,9.392,1.864,9.1,5.968" transform="translate(-674.501 -541.421)" fill="#faa23c"/>
        <path id="Caminho_770950" data-name="Caminho 770950" d="M849.385,679.932a1.551,1.551,0,0,1,1.66,1.308,3.086,3.086,0,0,1-.485,2.107,2.876,2.876,0,0,1-2,1.323,2.73,2.73,0,0,1-2.276-1.079,10.46,10.46,0,0,0-1.916-1.981,3.2,3.2,0,0,0-2.426-.46,3.561,3.561,0,0,0-2.4,3.93c.323,1.935,2.471,2.738,4.216,2.436.207-.036.119-.352-.087-.316-1.6.277-3.57-.48-3.822-2.263a3.317,3.317,0,0,1,.666-2.39,2.566,2.566,0,0,1,2.4-1.125,3.585,3.585,0,0,1,2.259,1.348,8.477,8.477,0,0,0,1.811,1.826,2.668,2.668,0,0,0,1.139.416,2.782,2.782,0,0,0,1.33-.266,3.269,3.269,0,0,0,1.573-1.541,3.144,3.144,0,0,0,.277-2.31,1.856,1.856,0,0,0-1.909-1.29c-.208.019-.21.347,0,.327" transform="translate(-690.699 -559.143)" fill="#2b244a"/>
        <path id="Caminho_770951" data-name="Caminho 770951" d="M834.5,708.4q-1.289.427-2.581.843c-.2.064-.115.38.087.316q1.293-.415,2.581-.843c.2-.066.114-.382-.087-.316" transform="translate(-684.374 -582.829)" fill="#2b244a"/>
        <path id="Caminho_770952" data-name="Caminho 770952" d="M900.694,685.31q-1.166.441-2.336.872c-.2.072-.111.389.087.316q1.17-.432,2.336-.872c.2-.074.111-.391-.087-.316" transform="translate(-739.037 -563.834)" fill="#2b244a"/>
        <path id="Caminho_770953" data-name="Caminho 770953" d="M839.342,687.177c.228,3.366-2.42,6.225-5.134,7.816a13.729,13.729,0,0,1-5.2,1.783,10.017,10.017,0,0,1-5.137-.583,5.592,5.592,0,0,1-3.222-3.259c-.067-.2-.384-.113-.316.087,1.087,3.225,4.782,4.347,7.875,4.158a13.565,13.565,0,0,0,9.672-4.906,7.56,7.56,0,0,0,1.787-5.1c-.014-.209-.342-.211-.327,0" transform="translate(-674.927 -565.25)" fill="#2b244a"/>
        <path id="Caminho_770954" data-name="Caminho 770954" d="M1101.035,6.56a38.646,38.646,0,0,1,4.288-2.793.164.164,0,0,0-.165-.283,38.672,38.672,0,0,0-4.288,2.793c-.167.125,0,.41.165.283" transform="translate(-905.689 -2.849)" fill="#2b244a"/>
        <path id="Caminho_770955" data-name="Caminho 770955" d="M1113.692,11.631a5.571,5.571,0,0,1,1.344-1.694c.519-.5,1.064-.981,1.623-1.441,1.134-.935,2.325-1.8,3.546-2.621.174-.117.01-.4-.165-.283-1.244.834-2.456,1.719-3.612,2.672-.575.474-1.137.966-1.67,1.487a5.685,5.685,0,0,0-1.348,1.714c-.083.191.2.358.283.165" transform="translate(-916.05 -4.579)" fill="#2b244a"/>
        <path id="Caminho_770956" data-name="Caminho 770956" d="M430.788,317.488s7.395.7,8.851,6.636-5.86,9.64-5.86,9.64Z" transform="translate(-354.433 -261.216)" fill="#422b2b"/>
        <path id="Caminho_770957" data-name="Caminho 770957" d="M403.971,367.471s-1.468,6.187.819,16.3-11.057,13.271-11.47,12.892-5.082-16.822-3.742-18.06,14.393-11.136,14.393-11.136" transform="translate(-320.329 -302.34)" fill="#422b2b"/>
        <path id="Caminho_770958" data-name="Caminho 770958" d="M382.493,394.5l2.921-2.411,6.731,6.583-4.821,5.317Z" transform="translate(-314.698 -322.595)" fill="#ed7549"/>
        <path id="Caminho_770959" data-name="Caminho 770959" d="M661.562,459.817a39.323,39.323,0,0,1,8.542-3.868c4.23-1.193,13.568-2.527,14.707-1.822a1.417,1.417,0,0,1,0,2.386c-.6.488-7.214,2.658-7.214,2.658a2.067,2.067,0,0,1,.739,1.714,2.354,2.354,0,0,1,.725,2.326c-.258,1.627-2.264,3.114-3.688,4.023a3.911,3.911,0,0,1-3.067.362l-5.494,3.065Z" transform="translate(-544.304 -373.476)" fill="#ed7549"/>
        <path id="Caminho_770960" data-name="Caminho 770960" d="M172,1479.839l-.508-3.063,13.764-3.314.394,4.273s-.533,4.131-6.209,4.267-7.443-2.164-7.443-2.164" transform="translate(-141.099 -1212.299)" fill="#ffede4"/>
        <path id="Caminho_770961" data-name="Caminho 770961" d="M188.01,1497.571s8.071,4.656,9.343,6.345a2.419,2.419,0,0,1,.213,3H175.5s-.2-1.111-1.14-7.242a32.642,32.642,0,0,0,6.5.19c3.391-.268,4.85-2.2,7.151-2.294" transform="translate(-143.455 -1232.135)" fill="#422b2b"/>
        <path id="Caminho_770962" data-name="Caminho 770962" d="M201.621,1538.5H179.067a.164.164,0,0,0,0,.328h22.554a.164.164,0,0,0,0-.328" transform="translate(-147.198 -1265.809)" fill="#fae8e0"/>
        <path id="Caminho_770963" data-name="Caminho 770963" d="M179.342,1510.4a4.945,4.945,0,0,1-.258,2.257,1.963,1.963,0,0,1-.59.766,2.494,2.494,0,0,1-1.061.4c-.207.038-.119.354.087.316a2.749,2.749,0,0,0,1.139-.435,2.233,2.233,0,0,0,.684-.834,5.127,5.127,0,0,0,.326-2.472c-.008-.21-.335-.211-.328,0" transform="translate(-145.887 -1242.563)" fill="#fae8e0"/>
        <path id="Caminho_770964" data-name="Caminho 770964" d="M255.1,1507.023a27.469,27.469,0,0,0-2.634.807c-.2.072-.112.388.087.316a27.47,27.47,0,0,1,2.634-.807.164.164,0,0,0-.087-.316" transform="translate(-207.623 -1239.907)" fill="#fae8e0"/>
        <path id="Caminho_770965" data-name="Caminho 770965" d="M245.129,1501.329c-.891.226-1.77.493-2.634.807-.2.072-.112.388.087.316a27.485,27.485,0,0,1,2.634-.807.164.164,0,0,0-.087-.316" transform="translate(-199.422 -1235.223)" fill="#fae8e0"/>
        <path id="Caminho_770966" data-name="Caminho 770966" d="M14.822,1449.038l.55-1.769,14.121,2.861-1.791,3.9s-2.524,3.314-7.51.6-5.369-5.59-5.369-5.59" transform="translate(-12.195 -1190.749)" fill="#ffede4"/>
        <path id="Caminho_770967" data-name="Caminho 770967" d="M21.342,1470.489a42.194,42.194,0,0,0-3.1-3.5c-.956-1.768-2.733-4.748-2.733-4.748-2.043-1.064-4.269-.122-7.341-1.582a32.633,32.633,0,0,1-5.538-3.409C.381,1463.033,0,1464.1,0,1464.1L13.722,1472a13.043,13.043,0,0,0,6.51,1.741h1.633a3.263,3.263,0,0,0-.523-3.254" transform="translate(0 -1198.962)" fill="#422b2b"/>
        <path id="Caminho_770968" data-name="Caminho 770968" d="M24.923,1494.938a15.906,15.906,0,0,1-3.148-.143,14.673,14.673,0,0,1-4.277-1.9c-2.906-1.641-5.791-3.318-8.675-5q-2.459-1.432-4.922-2.855a.164.164,0,0,0-.165.283c2.923,1.684,5.833,3.391,8.754,5.08q2.209,1.278,4.43,2.538a18.114,18.114,0,0,0,4.363,2.075,14.532,14.532,0,0,0,3.641.246.164.164,0,0,0,0-.328" transform="translate(-3.008 -1221.809)" fill="#fae8e0"/>
        <path id="Caminho_770969" data-name="Caminho 770969" d="M9.919,1465.52a5.207,5.207,0,0,1-1.271,1.769,2.041,2.041,0,0,1-.9.419,2.389,2.389,0,0,1-1.187-.17c-.2-.07-.285.246-.087.316a2.73,2.73,0,0,0,1.263.185,2.268,2.268,0,0,0,1.028-.428,5.314,5.314,0,0,0,1.44-1.925c.1-.186-.184-.352-.283-.165" transform="translate(-5.232 -1205.698)" fill="#fae8e0"/>
        <path id="Caminho_770970" data-name="Caminho 770970" d="M83.614,1498.974a27.463,27.463,0,0,0-2.685-.616c-.206-.036-.295.279-.087.316a27.468,27.468,0,0,1,2.685.616.164.164,0,0,0,.087-.316" transform="translate(-66.415 -1232.78)" fill="#fae8e0"/>
        <path id="Caminho_770971" data-name="Caminho 770971" d="M77.819,1489.064a27.491,27.491,0,0,0-2.685-.616c-.206-.036-.295.279-.087.316a27.5,27.5,0,0,1,2.685.616.164.164,0,0,0,.087-.316" transform="translate(-61.648 -1224.627)" fill="#fae8e0"/>
        <path id="Caminho_770972" data-name="Caminho 770972" d="M32.59,1059.585l-14.99,68.88,15.97,4.929,22.646-64.382Z" transform="translate(-14.48 -871.78)" fill="url(#linear-gradient-8)"/>
        <path id="Caminho_770973" data-name="Caminho 770973" d="M93.287,777.818s-.728-63.27-1.165-74.916-3.057-48.33-3.057-48.33,3.494-10.409,4.222-17.469L65.647,626.55s-8.753,6.769-9.189,21.326,11.209,71.258,11.209,71.258l9.171,60.922Z" transform="translate(-46.441 -515.498)" fill="url(#linear-gradient-8)"/>
        <path id="Caminho_770974" data-name="Caminho 770974" d="M204.52,429.85c-1.447-4.886-6.268-10.277-6.268-10.277L173.673,433.8s-11.553-11.223-16.486-17.836l-1.216-3.926-.8.883-6.178-7.765-.195-.135s-1.84.6-2.515.889a13.031,13.031,0,0,0-7.737-.235c-7.26,1.965-6.027,2.965-18.692,6.568s-19.125,7.3-20.981,13.811,2.911,15.121,2.911,15.121l-1.583,3.112s10.044,5.2,13.538,6.551a104.98,104.98,0,0,0,14.1,4s4.878.7,8.5-1.656c5.113-3.33,11.3-12.756,11.3-12.756s13.538,12.155,19.216,14.885,11.837.678,18.124-4.695c4.258-3.639,14.706-13.44,15.222-14.357,1.31-2.329.73-3.854.73-3.854Z" transform="translate(-80.994 -333.231)" fill="url(#linear-gradient-10)"/>
        <path id="Caminho_770975" data-name="Caminho 770975" d="M236.595,489.9a18.2,18.2,0,0,0,3.957-.436,18.749,18.749,0,0,0,3.764-1.286,21.889,21.889,0,0,0,3.576-2.1,28.529,28.529,0,0,0,3.414-2.9,38.308,38.308,0,0,0,3.225-3.652,52.942,52.942,0,0,0,3.055-4.368c1.038-1.648,2-3.344,2.9-5.071.98-1.879,1.89-3.8,2.745-5.736q1.382-3.135,2.59-6.343,1.315-3.47,2.469-7,.292-.888.576-1.778c.064-.2-.252-.288-.316-.087q-1.13,3.544-2.4,7.042c-.8,2.18-1.64,4.344-2.546,6.481-.84,1.982-1.733,3.942-2.695,5.868-.881,1.765-1.819,3.5-2.831,5.194-.927,1.55-1.917,3.063-2.987,4.518a41.246,41.246,0,0,1-3.155,3.813,30.551,30.551,0,0,1-3.319,3.068,23.043,23.043,0,0,1-3.512,2.3,18.951,18.951,0,0,1-3.674,1.481,17.628,17.628,0,0,1-3.86.643q-.488.026-.977.026a.164.164,0,0,0,0,.328" transform="translate(-194.529 -369.441)" fill="#2b244a"/>
        <path id="Caminho_770976" data-name="Caminho 770976" d="M110.407,1111.712q-.7-4.9-1.425-9.791-.762-5.162-1.556-10.32-.811-5.254-1.67-10.5-.85-5.17-1.767-10.328-.878-4.911-1.848-9.8-.115-.576-.232-1.151c-.042-.207-.358-.119-.316.087q.983,4.848,1.856,9.716.929,5.134,1.778,10.282.87,5.244,1.683,10.5.8,5.177,1.571,10.361.732,4.935,1.442,9.874.084.581.167,1.162c.03.208.346.119.316-.087" transform="translate(-83.584 -871.875)" fill="#2b244a"/>
        <path id="Caminho_770977" data-name="Caminho 770977" d="M24.395,1417.28l12.5,4.23,3.675,1.244c.2.068.286-.249.087-.316l-12.5-4.23-3.676-1.244c-.2-.068-.286.249-.087.316" transform="translate(-19.978 -1165.808)" fill="#2b244a"/>
        <path id="Caminho_770978" data-name="Caminho 770978" d="M166.837,1451.546c4.325-.442,8.645-.925,12.954-1.5q2.01-.267,4.019-.547c.208-.029.119-.344-.087-.316-4.292.6-8.588,1.149-12.9,1.615q-1.995.216-3.99.418c-.208.021-.21.349,0,.327" transform="translate(-137.137 -1192.324)" fill="#2b244a"/>
        <path id="Caminho_770979" data-name="Caminho 770979" d="M172.954,825.173c-.507-7.338-1.122-14.67-1.731-22q-1.266-15.225-2.6-30.445-1.348-15.542-2.718-31.082-1.047-11.918-2.089-23.836-.294-3.39-.579-6.781a38.4,38.4,0,0,1,1.854-16.354,31.753,31.753,0,0,1,2.392-5.12.164.164,0,0,0-.283-.165,35.572,35.572,0,0,0-4.374,20.6c.143,1.856.307,3.711.467,5.565q.964,11.19,1.958,22.376,1.351,15.371,2.692,30.743,1.352,15.55,2.666,31.1c.655,7.818,1.311,15.637,1.878,23.462q.07.965.137,1.931c.015.209.342.211.328,0" transform="translate(-133.87 -567.135)" fill="#2b244a"/>
        <path id="Caminho_770980" data-name="Caminho 770980" d="M164.065,709.4a22.809,22.809,0,0,0,8.069-13.6c.038-.206-.278-.294-.316-.087a22.5,22.5,0,0,1-7.985,13.453c-.164.133.069.363.232.231" transform="translate(-134.749 -572.306)" fill="#2b244a"/>
        <path id="Caminho_770981" data-name="Caminho 770981" d="M92.762,642.149c1.837,1.123,3.685,2.23,5.565,3.281,1.706.954,3.439,1.861,5.211,2.687,1.723.8,3.483,1.528,5.276,2.159a60.045,60.045,0,0,0,5.8,1.708c2.225.54,4.476.966,6.737,1.319q.474.074.948.144c.206.03.3-.285.087-.316-2.3-.339-4.591-.747-6.857-1.267-1.99-.457-3.96-1-5.9-1.653a56.97,56.97,0,0,1-5.316-2.1c-1.759-.8-3.48-1.677-5.172-2.607-1.859-1.022-3.685-2.1-5.5-3.2l-.716-.436c-.18-.11-.345.173-.165.283" transform="translate(-76.257 -528.079)" fill="#2b244a"/>
        <path id="Caminho_770982" data-name="Caminho 770982" d="M122.673,537.827a24.7,24.7,0,0,0,7.283.961,28.93,28.93,0,0,0,3.426-.2c1.226-.148,2.444-.384,3.659-.6,2.471-.447,4.933-.951,7.366-1.573a64.077,64.077,0,0,0,6.753-2.112,59.339,59.339,0,0,0,6.623-2.983q.431-.226.859-.459c.185-.1.02-.384-.165-.283a59.846,59.846,0,0,1-6.626,3.109,62.051,62.051,0,0,1-6.652,2.182c-2.373.638-4.777,1.155-7.191,1.609a46.278,46.278,0,0,1-7.107.97,26.367,26.367,0,0,1-7.307-.7q-.42-.107-.835-.235c-.2-.062-.288.254-.087.316" transform="translate(-100.836 -436.516)" fill="#2b244a"/>
        <path id="Caminho_770983" data-name="Caminho 770983" d="M120.262,573.47l-3.917,5.932c-.116.177.167.341.283.165l3.918-5.932c.116-.176-.167-.341-.283-.165" transform="translate(-95.7 -471.765)" fill="#2b244a"/>
        <path id="Caminho_770984" data-name="Caminho 770984" d="M377.35,551.919A43.008,43.008,0,0,0,381,543.105q.39-1.3.723-2.618a.164.164,0,0,0-.316-.087,50.249,50.249,0,0,1-3.114,8.973q-.57,1.213-1.228,2.381a.164.164,0,0,0,.283.165" transform="translate(-310.216 -444.522)" fill="#2b244a"/>
        <path id="Caminho_770985" data-name="Caminho 770985" d="M365.96,410.487c1.465,2.9,3.052,5.735,4.622,8.58q.776,1.405,1.54,2.816c.1.185.383.02.283-.165-1.608-2.969-3.283-5.9-4.864-8.885q-.662-1.249-1.3-2.51c-.1-.188-.378-.022-.283.165" transform="translate(-301.08 -337.527)" fill="#2b244a"/>
        <path id="Caminho_770986" data-name="Caminho 770986" d="M400.994,453.8a18.41,18.41,0,0,0,1.651-2.163c.5-.775.929-1.59,1.369-2.4.1-.185-.182-.351-.283-.165-.431.792-.855,1.591-1.339,2.352a17.769,17.769,0,0,1-1.629,2.143c-.138.158.093.391.232.232" transform="translate(-329.695 -369.412)" fill="#2b244a"/>
        <path id="Caminho_770987" data-name="Caminho 770987" d="M641.251,498.937a58.627,58.627,0,0,1,5,8.378q.622,1.276,1.194,2.575c.085.192.367.026.283-.165a61.713,61.713,0,0,0-4.568-8.572q-.782-1.21-1.622-2.381c-.121-.17-.406-.007-.283.165" transform="translate(-527.568 -410.309)" fill="#2b244a"/>
        <path id="Caminho_770988" data-name="Caminho 770988" d="M706.56,506.315c-.637.541-1.259,1.688-.446,2.367.74.618,1.957.263,2.769.008.635-.2,1.254-.443,1.876-.68.195-.074.11-.391-.087-.316-.589.224-1.177.455-1.777.649a5.564,5.564,0,0,1-1.69.338c-.48,0-1.063-.163-1.141-.718a1.722,1.722,0,0,1,.728-1.416c.161-.137-.072-.367-.232-.232" transform="translate(-580.64 -416.54)" fill="#2b244a"/>
        <path id="Caminho_770989" data-name="Caminho 770989" d="M716.113,519.856a1.705,1.705,0,0,0,.056,1.426,1.151,1.151,0,0,0,.721.554.168.168,0,0,0,.2-.114.166.166,0,0,0-.115-.2.631.631,0,0,1-.07-.018l-.037-.013c-.04-.013.02.01-.011,0a1.079,1.079,0,0,1-.15-.085.948.948,0,0,1-.137-.122.763.763,0,0,1-.12-.161,1.412,1.412,0,0,1-.023-1.174c.069-.2-.247-.285-.316-.087" transform="translate(-589.081 -427.622)" fill="#2b244a"/>
        <path id="Caminho_770990" data-name="Caminho 770990" d="M741.076,495.883c1.08-.82,2.307-1.725,2.644-3.117.05-.2-.266-.292-.316-.087-.315,1.3-1.483,2.154-2.493,2.921-.166.126,0,.411.165.283" transform="translate(-609.531 -405.258)" fill="#2b244a"/>
        <path id="Caminho_770991" data-name="Caminho 770991" d="M701.861,488.505a16.685,16.685,0,0,0,2.559,1.425c.437.195.882.372,1.334.53a7.709,7.709,0,0,0,1.425.4c.758.108,1.706-.178,1.832-1.049s-.646-1.634-1.2-2.2a16.834,16.834,0,0,0-2.483-2.111c-.173-.121-.337.163-.165.283a16.364,16.364,0,0,1,2,1.645c.314.3.62.617.905.947a2.523,2.523,0,0,1,.59,1.011.881.881,0,0,1-.429,1.009,1.7,1.7,0,0,1-1.189.114,12.213,12.213,0,0,1-2.461-.854,16.7,16.7,0,0,1-2.559-1.425c-.175-.118-.339.165-.165.283" transform="translate(-577.399 -399.418)" fill="#2b244a"/>
        <path id="Caminho_770992" data-name="Caminho 770992" d="M728.689,488.527a13.113,13.113,0,0,1,1.164-.734.164.164,0,0,0-.165-.283,13.127,13.127,0,0,0-1.164.734.168.168,0,0,0-.059.224.165.165,0,0,0,.224.059" transform="translate(-599.331 -401.085)" fill="#2b244a"/>
        <path id="Caminho_770993" data-name="Caminho 770993" d="M388.239,323.159a6.4,6.4,0,0,1,2.639-2.864c2.46-1.4,5.3-.873,7.653.47a7.184,7.184,0,0,1,3.369,4.766,24.028,24.028,0,0,1,.454,4.88,55.8,55.8,0,0,1,.471,5.636c-.063,2.634-1.5,4.551-4.389,4.156-6.175-.845-10.728-7.09-10.954-13.1a8.477,8.477,0,0,1,.756-3.946" transform="translate(-318.798 -262.846)" fill="#ed7549"/>
        <path id="Caminho_770994" data-name="Caminho 770994" d="M464.841,366.906s1.4,2.238,2.784,4.422c.328.519-2.074,1.547-2.074,1.547Z" transform="translate(-382.45 -301.875)" fill="#ed7549"/>
        <path id="Caminho_770995" data-name="Caminho 770995" d="M460.7,376.175c-.709.039-.569,1.054-.422,1.458.1.263.283.569.6.547.468-.033.468-.67.434-1.009-.038-.379-.152-1.021-.616-1" transform="translate(-378.599 -309.5)" fill="#331c1c"/>
        <path id="Caminho_770996" data-name="Caminho 770996" d="M453.172,363.659c-.1.947-1.062.455-2.069.947-.926.452-1.614.5-1.739-.015-.151-.618.623-1.533,2.034-1.815,1.322-.264,1.846.192,1.774.883" transform="translate(-369.701 -298.414)" fill="#422b2b"/>
        <path id="Caminho_770997" data-name="Caminho 770997" d="M463.619,404.966a2.984,2.984,0,0,1-2.252-1.748,17.3,17.3,0,0,0,2.222.323,10.877,10.877,0,0,1,.03,1.425" transform="translate(-379.592 -331.751)" fill="#422b2b"/>
        <path id="Caminho_770998" data-name="Caminho 770998" d="M353.9,324.549c-1.589-2.7-4.26-5.556-7.727-5.013-1.422.223-3.087,1.268-2.688,2.939.377,1.574,2.083,2.4,3.555,2.6,1.853.248,3.677-.364,5.525-.2.091.147.181.3.268.444a.661.661,0,0,0,.914.153.669.669,0,0,0,.153-.914" transform="translate(-282.557 -262.846)" fill="#422b2b"/>
        <path id="Caminho_770999" data-name="Caminho 770999" d="M393.274,317.418a6.985,6.985,0,0,1,5,4.725,15.85,15.85,0,0,1-5.111,4.549c-.51.293-1.841,1.177-2.2,1.4l-5.9,2.411s-3.378-6.563.232-10.7a7.407,7.407,0,0,1,7.97-2.389" transform="translate(-315.639 -260.894)" fill="#422b2b"/>
        <path id="Caminho_771000" data-name="Caminho 771000" d="M306.339,375.225s.925,3.822-2.3,4.914c-2.246.761-9.226-.491-14.772,3.235,0,0,10.016,4.812,17.12,2.1s6.455-10.131,6.455-10.131Z" transform="translate(-237.999 -308.719)" fill="#422b2b"/>
        <path id="Caminho_771001" data-name="Caminho 771001" d="M420.448,373.938a2.479,2.479,0,1,1-2.479-2.479,2.479,2.479,0,0,1,2.479,2.479" transform="translate(-341.846 -305.621)" fill="#ed7549"/>
        <path id="Caminho_771002" data-name="Caminho 771002" d="M419.739,418.127a7.18,7.18,0,0,0,2.369,2.581c.178.115.342-.169.165-.283a6.837,6.837,0,0,1-2.251-2.463c-.1-.184-.385-.019-.283.165" transform="translate(-345.325 -343.814)" fill="#2b244a"/>
        <path id="Caminho_771003" data-name="Caminho 771003" d="M421.511,378.487a1.777,1.777,0,0,1,.96-2.07c.19-.091.024-.373-.165-.283a2.1,2.1,0,0,0-1.111,2.44.164.164,0,0,0,.316-.087" transform="translate(-346.481 -309.453)" fill="#2b244a"/>
        <path id="Caminho_771004" data-name="Caminho 771004" d="M417.578,449.187c.145,1.776.24,3.556.416,5.329.021.208.348.21.328,0-.176-1.773-.27-3.553-.416-5.329-.017-.209-.345-.21-.328,0" transform="translate(-343.564 -369.442)" fill="#2b244a"/>
        <path id="Caminho_771005" data-name="Caminho 771005" d="M420.213,467.981a8.647,8.647,0,0,0,1.67-2.475c.085-.191-.2-.358-.283-.165a8.391,8.391,0,0,1-1.618,2.409c-.146.152.085.384.232.232" transform="translate(-345.504 -382.792)" fill="#2b244a"/>
        <path id="Caminho_771006" data-name="Caminho 771006" d="M1378.7,242.126l-1.348-8.75-9,6.384,1.3,7.833Z" transform="translate(-1125.816 -192.012)" fill="#ff9c7a"/>
        <path id="Caminho_771007" data-name="Caminho 771007" d="M1328.923,166.214c-.39,4.2-.742,13.792,2.822,15.529s11.155-4.6,12.827-11.479.12-12-5.64-12.273-9.382,1.482-10.008,8.222" transform="translate(-1093.184 -129.967)" fill="#ff9c7a"/>
        <path id="Caminho_771008" data-name="Caminho 771008" d="M1332.452,262.662a6.443,6.443,0,0,1-1.1.784.164.164,0,0,0,.166.283,6.874,6.874,0,0,0,1.166-.836.164.164,0,1,0-.232-.232" transform="translate(-1095.311 -216.069)" fill="#2b244a"/>
        <path id="Caminho_771009" data-name="Caminho 771009" d="M1323.476,222.334s-.889,2.831-1.773,5.6c-.21.657,2.694,1.093,2.694,1.093Z" transform="translate(-1087.429 -182.927)" fill="#ff9c7a"/>
        <path id="Caminho_771010" data-name="Caminho 771010" d="M1338.345,148.8c-1.521-2.409-3.2-1.5-3.887-.948a9.656,9.656,0,0,0-5.085-1.4,2.414,2.414,0,0,0-2.256,2.93s-2.951-.2-3.63.842a1.9,1.9,0,0,0,.127,2.345h0a3.082,3.082,0,0,0-1.3,2.5c.046.893.4,3.034,3.445,2.794,1.764-.139,1.712,4.134,1.712,4.134l1.671,1.181a10.2,10.2,0,0,0,10.7,1.05l-.155-3.847s.855-5.025,1.015-7.112c.2-2.649-.155-4.275-2.355-4.471" transform="translate(-1087.936 -120.472)" fill="#422b2b"/>
        <path id="Caminho_771011" data-name="Caminho 771011" d="M1343.533,224.946a2.786,2.786,0,1,1-3.4-1.993,2.786,2.786,0,0,1,3.4,1.993" transform="translate(-1100.888 -183.362)" fill="#ff9c7a"/>
        <path id="Caminho_771012" data-name="Caminho 771012" d="M1330.379,228.364c.644-.046.611,1.041.514,1.484-.062.289-.2.634-.5.65-.426.023-.484-.649-.485-1.01,0-.4.044-1.094.466-1.124" transform="translate(-1094.193 -187.887)" fill="#331c1c"/>
        <path id="Caminho_771013" data-name="Caminho 771013" d="M1329.723,212.9c.01.591-.75.74-1.887.508a1.582,1.582,0,0,0-.194-.029,1.528,1.528,0,0,1,.1-1.856c1.2.139,1.968.78,1.98,1.378" transform="translate(-1092.107 -174.033)" fill="#422b2b"/>
        <path id="Caminho_771014" data-name="Caminho 771014" d="M1356.63,231.316a2.3,2.3,0,0,0-.045-1.532,2.131,2.131,0,0,0-.986-1.068c-.187-.1-.352.185-.166.283a1.807,1.807,0,0,1,.848.9,1.992,1.992,0,0,1,.032,1.328.164.164,0,0,0,.316.087" transform="translate(-1115.123 -188.162)" fill="#2b244a"/>
        <path id="Caminho_771015" data-name="Caminho 771015" d="M1274.9,1461.583l.521-4.5-14.126-2.045-.4,4.385s.547,4.24,6.372,4.38,7.638-2.22,7.638-2.22" transform="translate(-1037.401 -1197.142)" fill="#ffede4"/>
        <path id="Caminho_771016" data-name="Caminho 771016" d="M1213.391,1479.781s-8.283,4.779-9.589,6.512a2.482,2.482,0,0,0-.218,3.08h22.647s.205-1.141,1.17-7.433a33.488,33.488,0,0,1-6.671.2c-3.479-.275-4.977-2.254-7.339-2.354" transform="translate(-989.906 -1217.498)" fill="#422b2b"/>
        <path id="Caminho_771017" data-name="Caminho 771017" d="M1203.019,1522.136h23.146a.164.164,0,0,0,0-.328h-23.146a.164.164,0,0,0,0,.328" transform="translate(-989.66 -1252.077)" fill="#fae8e0"/>
        <path id="Caminho_771018" data-name="Caminho 771018" d="M1511.68,1448l-.389-5.068-14.351-1.483.6,4.385s.885,4.24,6.72,4.379,7.419-2.214,7.419-2.214" transform="translate(-1231.615 -1185.961)" fill="#ffede4"/>
        <path id="Caminho_771019" data-name="Caminho 771019" d="M1455.854,1466.192s-7.9,4.779-9.07,6.512a2.508,2.508,0,0,0,.027,3.08h23.766s-.192-1.972-.584-7.426a32.886,32.886,0,0,1-6.613.188c-3.5-.275-5.156-2.253-7.526-2.354" transform="translate(-1189.927 -1206.318)" fill="#422b2b"/>
        <path id="Caminho_771020" data-name="Caminho 771020" d="M1445.887,1508.547h23.982a.164.164,0,0,0,0-.328h-23.982a.164.164,0,0,0,0,.328" transform="translate(-1189.481 -1240.896)" fill="#fae8e0"/>
        <path id="Caminho_771021" data-name="Caminho 771021" d="M1308.565,1498.44a7.93,7.93,0,0,1,5.094-4.868c.2-.061.115-.378-.087-.316a8.275,8.275,0,0,0-5.323,5.1c-.071.2.246.285.316.087" transform="translate(-1076.36 -1228.579)" fill="#fae8e0"/>
        <path id="Caminho_771022" data-name="Caminho 771022" d="M1555.666,1484.595a6.256,6.256,0,0,1,4.035-4.962c.2-.07.112-.386-.087-.316a6.6,6.6,0,0,0-4.276,5.278c-.028.208.3.206.328,0" transform="translate(-1279.661 -1217.108)" fill="#fae8e0"/>
        <path id="Caminho_771023" data-name="Caminho 771023" d="M1465.541,1472.045c3.211.4,5.937-1.7,8.295-3.576.165-.132-.068-.362-.232-.232-2.3,1.83-4.94,3.866-8.063,3.48-.209-.026-.207.3,0,.328" transform="translate(-1205.653 -1207.969)" fill="#fae8e0"/>
        <path id="Caminho_771024" data-name="Caminho 771024" d="M1225.753,1485.635c3.211.4,5.937-1.7,8.3-3.576.165-.131-.068-.362-.232-.232-2.3,1.83-4.94,3.866-8.064,3.48-.209-.026-.207.3,0,.328" transform="translate(-1008.366 -1219.151)" fill="#fae8e0"/>
        <path id="Caminho_771025" data-name="Caminho 771025" d="M1315.359,690.884a130.979,130.979,0,0,1-1.7-15.354c-.22-7.732-2.685-30.086-2.774-48.392-.09-18.609-5.328-26.083-5.328-26.083l-26.124-1.836c-7.79,31.06-9.985,47.151-13.475,78.136-2.615,23.222-4.318,76.157-4.318,76.157h15.374c2.577-11.1,13.323-72.187,14.043-76.148,3.7,26.384,5.314,46.935,10.941,73.739l17.384-.195a398.127,398.127,0,0,0-4.026-60.025" transform="translate(-1038.024 -493.012)" fill="url(#linear-gradient-11)"/>
        <path id="Caminho_771026" data-name="Caminho 771026" d="M1371.489,268.932a17.525,17.525,0,0,1,2.646-3.476c.9-.923,3.514-3.557,6.608-3.752.787-.05,1.271,1.427,1.939,2.62,3.03,5.416-2.961,7.806-3.765,7.658s-7.428-3.049-7.428-3.049" transform="translate(-1128.4 -215.318)" fill="#ffd6c2"/>
        <path id="Caminho_771027" data-name="Caminho 771027" d="M1107.55,566.653a53.394,53.394,0,0,0-8.9,7.677c-3.287,3.861-9.245,10.779-9.445,12.312-.21,1.611,2.213,1.7,3.317,1.151.8-.4,5.9-4.056,5.9-4.056a2.368,2.368,0,0,0,1.649,1.831s.163,1.154,2.061,1.23c1.3.052,3.125-1.251,4.636-2.48a2.608,2.608,0,0,0,.966-2.248l6.761-5.73Z" transform="translate(-896.14 -466.218)" fill="#ff9c7a"/>
        <path id="Caminho_771028" data-name="Caminho 771028" d="M1196.15,553.315l-3.39,2.364a47.422,47.422,0,0,0,7.8,11.077l3.586-2.047Z" transform="translate(-981.349 -455.244)" fill="#ffd6c2"/>
        <path id="Caminho_771029" data-name="Caminho 771029" d="M1237.412,447.7l-25.524,18.72A68.538,68.538,0,0,0,1220.859,480l19.917-11.214Z" transform="translate(-997.087 -368.347)" fill="url(#linear-gradient-12)"/>
        <path id="Caminho_771030" data-name="Caminho 771030" d="M1339.8,286.714A19.82,19.82,0,0,0,1326,289.9c-10.329,5.7-7.723,24.971-6.67,32.177.38,7.305-3.6,27.286-2.886,34.012a9.771,9.771,0,0,0,7.781,8.3c7.375,1.527,24.529,1.923,35.01-.384-1.1-27.364-2.567-38.565-3.6-47.374-2.233-18.986-10.245-29.036-15.831-29.91" transform="translate(-1083.038 -235.718)" fill="url(#linear-gradient-13)"/>
        <path id="Caminho_771031" data-name="Caminho 771031" d="M1337.3,699.985l-.922,2.931s1.575,5.173,7.914,11.025l4.318-9.013Z" transform="translate(-1099.515 -575.917)" fill="#ff9c7a"/>
        <path id="Caminho_771032" data-name="Caminho 771032" d="M1343.3,674.2l-1.72,4.57,12.673,5.821,2.62-4.5Z" transform="translate(-1103.795 -554.703)" fill="#ffd6c2"/>
        <path id="Caminho_771033" data-name="Caminho 771033" d="M1353.841,631.454l-2.556,7.577,15.357,7.342L1373.1,633.6Z" transform="translate(-1111.777 -519.533)" fill="url(#linear-gradient-14)"/>
        <path id="Caminho_771034" data-name="Caminho 771034" d="M1429.048,678.025a1.3,1.3,0,1,1-1.3-1.3,1.3,1.3,0,0,1,1.3,1.3" transform="translate(-1173.625 -556.783)" fill="#ffd6c2"/>
        <path id="Caminho_771035" data-name="Caminho 771035" d="M1443.667,650.911a1.3,1.3,0,1,1-1.3-1.3,1.3,1.3,0,0,1,1.3,1.3" transform="translate(-1185.653 -534.475)" fill="#ffd6c2"/>
        <path id="Caminho_771036" data-name="Caminho 771036" d="M1425.877,710.271c.674.289,1.326.635,2.027.858.2.064.288-.252.087-.316-.674-.215-1.3-.547-1.949-.825a.169.169,0,0,0-.224.059.165.165,0,0,0,.059.224" transform="translate(-1173.082 -584.132)" fill="#fae8e0"/>
        <path id="Caminho_771037" data-name="Caminho 771037" d="M1438.381,366.311q4.914,8.284,9.235,16.909a29.317,29.317,0,0,1,3.06,7.973,13.363,13.363,0,0,1-.08,5.573,41.111,41.111,0,0,1-1.311,3.976c-.668,1.8-1.388,3.575-2.128,5.344-1.681,4.022-3.467,8-5.3,11.953-1.437,3.092-2.89,6.181-4.458,9.209q-.18.347-.364.693c-.1.186.184.351.283.165,1.506-2.824,2.868-5.729,4.227-8.626,1.864-3.975,3.673-7.978,5.389-12.019a92.5,92.5,0,0,0,3.793-9.933,14.939,14.939,0,0,0,.375-1.506,12.668,12.668,0,0,0,.116-2.849,21.256,21.256,0,0,0-2.368-8.188c-2.709-5.671-5.746-11.2-8.9-16.641q-.639-1.1-1.289-2.2a.164.164,0,0,0-.283.165" transform="translate(-1182.308 -301.185)" fill="#fae8e0"/>
        <path id="Caminho_771038" data-name="Caminho 771038" d="M1350.65,556.3c.531-1.279,1.052-2.563,1.572-3.847q1.04-2.568,2.072-5.139,1.151-2.861,2.3-5.723,1.108-2.753,2.222-5.5.93-2.292,1.872-4.579l.193-.466c.081-.194-.236-.279-.316-.087q-.915,2.2-1.807,4.408-1.1,2.711-2.193,5.426-1.156,2.869-2.309,5.74-1.056,2.625-2.115,5.249-.821,2.028-1.652,4.052l-.158.381c-.081.194.236.279.316.087" transform="translate(-1110.984 -436.76)" fill="#fae8e0"/>
        <path id="Caminho_771039" data-name="Caminho 771039" d="M1374.84,456.641c1.434,3.161,2.754,6.373,4.2,9.531q.837,1.833,1.708,3.65c.091.19.374.024.283-.165-1.71-3.572-3.287-7.2-4.864-10.832q-.512-1.178-1.04-2.35c-.087-.192-.37-.025-.283.165" transform="translate(-1131.143 -375.499)" fill="#fae8e0"/>
        <path id="Caminho_771040" data-name="Caminho 771040" d="M1150.651,634.933a1.61,1.61,0,0,0,1.324-.753,4.778,4.778,0,0,0,.59-1.818l.708-3.523.432-2.149c.041-.206-.274-.294-.316-.087l-.671,3.336-.33,1.64a15.94,15.94,0,0,1-.4,1.812c-.2.6-.641,1.228-1.339,1.215a.164.164,0,0,0,0,.328" transform="translate(-946.574 -515.445)" fill="#2b244a"/>
        <path id="Caminho_771041" data-name="Caminho 771041" d="M1138.733,629.951a30.978,30.978,0,0,0,.167,5.649c.025.206.353.209.328,0a30.978,30.978,0,0,1-.167-5.649c.013-.211-.314-.21-.327,0" transform="translate(-936.85 -518.166)" fill="#2b244a"/>
        <path id="Caminho_771042" data-name="Caminho 771042" d="M1185.237,646.013a2.054,2.054,0,0,1,.667.473,1.855,1.855,0,0,1,.4.681.167.167,0,0,0,.2.115.165.165,0,0,0,.114-.2,2.272,2.272,0,0,0-1.221-1.351.169.169,0,0,0-.224.059.165.165,0,0,0,.059.224" transform="translate(-975.094 -531.263)" fill="#2b244a"/>
        <path id="Caminho_771043" data-name="Caminho 771043" d="M1167,613.122a8.556,8.556,0,0,0,5.559-2.988c.134-.161-.1-.394-.232-.232a8.229,8.229,0,0,1-5.328,2.892c-.207.024-.209.352,0,.328" transform="translate(-960.03 -501.756)" fill="#2b244a"/>
        <path id="Caminho_771044" data-name="Caminho 771044" d="M1158.469,636.838c.611-.4,1.211-.844,1.849-1.2a1.233,1.233,0,0,1,1.079-.162,1.1,1.1,0,0,1,.651.817,2.091,2.091,0,0,1-.9,1.912,22.659,22.659,0,0,1-1.857,1.37c-.71.5-1.425.989-2.123,1.5-.168.124,0,.408.165.283.707-.522,1.431-1.019,2.151-1.524a18.849,18.849,0,0,0,2.02-1.512,2.308,2.308,0,0,0,.856-2.12,1.387,1.387,0,0,0-1.672-1.085,4.244,4.244,0,0,0-1.241.681l-1.148.757c-.175.115-.011.4.165.283" transform="translate(-952.011 -522.516)" fill="#2b244a"/>
        <path id="Caminho_771045" data-name="Caminho 771045" d="M1364.84,280.8s5.25-5.014,11.271-5.8c2.251-.293,3.148,2.243,3.148,2.243s-7.8,5.015-14.419,3.555" transform="translate(-1122.929 -226.237)" fill="#fba4b0"/>
        <path id="Caminho_771046" data-name="Caminho 771046" d="M1365.634,290.528a57.132,57.132,0,0,1,10.674-3.122q1.556-.259,3.132-.365c.209-.014.211-.342,0-.327a42.111,42.111,0,0,0-10.824,2.388c-1.029.353-2.051.727-3.069,1.11-.2.074-.111.39.087.316" transform="translate(-1123.419 -235.896)" fill="#fae8e0"/>
        <path id="Caminho_771047" data-name="Caminho 771047" d="M1437.178,787.915q-.783,4.185-1.624,8.359-.914,4.557-1.88,9.1-1,4.694-2.048,9.375-1,4.456-2.067,8.9c-.64,2.655-1.3,5.306-2,7.945q-.116.436-.233.87a.164.164,0,0,0,.316.087c.7-2.583,1.35-5.178,1.983-7.778q1.069-4.395,2.064-8.806,1.059-4.672,2.058-9.358.978-4.575,1.905-9.16.857-4.241,1.663-8.491.09-.478.18-.956c.039-.206-.277-.294-.316-.087" transform="translate(-1174.334 -648.165)" fill="#2b244a"/>
        <path id="Caminho_771048" data-name="Caminho 771048" d="M1262.938,1445.751h15.574a.164.164,0,0,0,0-.328h-15.574a.164.164,0,0,0,0,.328" transform="translate(-1038.958 -1189.231)" fill="#2b244a"/>
        <path id="Caminho_771049" data-name="Caminho 771049" d="M1485.21,1432.162h17.274a.164.164,0,0,0,0-.328H1485.21a.164.164,0,0,0,0,.328" transform="translate(-1221.834 -1178.051)" fill="#2b244a"/>
        <path id="Caminho_771050" data-name="Caminho 771050" d="M1335.2,715.087c1.241,3.817,3.815,6.985,6.582,9.817.795.814,1.611,1.606,2.432,2.394.152.146.384-.085.232-.231-2.837-2.721-5.7-5.551-7.607-9.027A17.718,17.718,0,0,1,1335.52,715c-.065-.2-.381-.114-.316.087" transform="translate(-1098.539 -588.177)" fill="#2b244a"/>
        <path id="Caminho_771051" data-name="Caminho 771051" d="M1323.241,465.717a70.248,70.248,0,0,1,.152,7.8c-.1,3.047-.36,6.088-.7,9.117-.226,2-.489,4-.776,5.993-.03.206.286.3.316.087.487-3.388.911-6.787,1.194-10.2.234-2.827.37-5.664.335-8.5q-.026-2.152-.191-4.3c-.016-.209-.344-.211-.327,0" transform="translate(-1087.611 -383.043)" fill="#fae8e0"/>
      </g>
    </g>
  </g>
</svg>
