<svg xmlns="http://www.w3.org/2000/svg" xmlns:xlink="http://www.w3.org/1999/xlink" width="360" height="414.634" viewBox="0 0 360 414.634">
  <defs>
    <clipPath id="clip-path">
      <rect id="Ret창ngulo_124885" data-name="Ret창ngulo 124885" width="333.05" height="216.991" fill="#40bbff"/>
    </clipPath>
    <clipPath id="clip-path-2">
      <rect id="Ret창ngulo_124863" data-name="Ret창ngulo 124863" width="232.544" height="247.254" fill="none"/>
    </clipPath>
    <linearGradient id="linear-gradient" x1="0.5" y1="0.164" x2="0.5" y2="1" gradientUnits="objectBoundingBox">
      <stop offset="0" stop-color="#64dadb"/>
      <stop offset="1" stop-color="#4dc5f2"/>
    </linearGradient>
  </defs>
  <g id="_img_joaomaria_16-mob_" data-name="&lt;img joaomaria_16-mob&gt;" transform="translate(0 -12187.971)">
    <path id="GettyImages-1412762526" d="M-110.9.131,196.69,0,144.569,226.643l-307.878-.174Z" transform="translate(163.31 12187.971)" fill="#0041d9"/>
    <g id="Grupo_233472" data-name="Grupo 233472" transform="translate(16 12385.613)" opacity="0.25">
      <g id="Grupo_233471" data-name="Grupo 233471" clip-path="url(#clip-path)">
        <path id="Caminho_770281" data-name="Caminho 770281" d="M332.532,35.732c-.12-1.2.112-2.418.1-3.623-.015-1.424-.117-2.851-.144-4.277h0a.416.416,0,0,0,.192-.407q.008-4.462.015-8.923,0-.584.007-1.168h0c.056-3.416.073-6.832,0-10.247a3.062,3.062,0,0,0,.111-.328,3.971,3.971,0,0,0,.017-2.621c0-.082,0-.164,0-.245-.057-.9-.118-1.389-.362-1.653v0c-.027-.575-.247-.771-1.077-.922A6,6,0,0,0,328.77,1.3c-.082,0-.163,0-.245,0-1.393.057-1.8.123-1.913.621L320.1,1.916c-.39-.358-.857-.21-1.289-.214-5.651-.058-11.3-.026-16.95.223-1.671.074-3.348.009-5.023.007-2.465-.309-4.949-.3-7.421-.426-1.009-.052-2.019-.077-3.029-.089a6.162,6.162,0,0,0-1.545-.7,4.336,4.336,0,0,0-3.965.722c-.714.006-1.428.011-2.142.01l-5.816.013c-1.626.012-3.251.1-4.873.152-1.795.054-3.587.182-5.382.258A5.451,5.451,0,0,0,260.437.6a4.235,4.235,0,0,0-4.138.961c-.071.059-.133.124-.2.187a2.636,2.636,0,0,0-.459-.033c-2.467.078-4.916-.377-7.383-.259-.29.014-.595-.048-.832.215h0c-2.112-.084-4.225.042-6.342-.178-1.807-.188-3.64-.059-5.462-.071-.314-.32-.7-.21-1.066-.212-1.134-.009-2.268-.008-3.4-.009a5.891,5.891,0,0,0-1.848-.922,4.388,4.388,0,0,0-4.289,1c-.015.012-.027.026-.041.038-2.19.19-4.379.371-6.578.37-2.085,0-4.171-.009-6.257-.014-.266-.32-.619-.225-.943-.225h-2.593A6.114,6.114,0,0,0,207.02.714a4.339,4.339,0,0,0-3.982.735l-6.774,0-.664-.005-1.767-.03h0c-.352-.343-.78-.194-1.177-.21-2.165-.086-4.329-.011-6.492.076A5.934,5.934,0,0,0,184.23.3a4.439,4.439,0,0,0-4.338,1.007c-.047.039-.086.082-.129.123-.123,0-.245,0-.367,0-.781-.017-1.563.005-2.344.009-3.107.1-6.215-.151-9.327.2-1.5.167-3.017.064-4.529.153a5.936,5.936,0,0,0-1.929-.975,4.439,4.439,0,0,0-4.337,1.007,3.027,3.027,0,0,0-.354.357,2.325,2.325,0,0,1-.7-.027,29.676,29.676,0,0,0-5.645-.2c-3.35.1-6.688-.325-10.037-.281a.756.756,0,0,0-.542-.234A5.82,5.82,0,0,0,137.538.314a4.424,4.424,0,0,0-4.322,1,3.147,3.147,0,0,0-.329.323c-3.491.143-6.991.029-10.487.026a1.865,1.865,0,0,1-.445-.027,41.357,41.357,0,0,0-4.877-.391,19.327,19.327,0,0,0-3.027-.081A5.936,5.936,0,0,0,112.134.2,4.439,4.439,0,0,0,107.8,1.209a3.1,3.1,0,0,0-.231.216h-2.452c-.352-.343-.782-.216-1.177-.207-3.156.076-6.311.025-9.47.139q-1.011.037-2.022.079A6.134,6.134,0,0,0,90.874.714a4.411,4.411,0,0,0-4.245.936c-1.844.05-3.689.071-5.534.028-2.64-.061-5.283,0-7.925.02-.4,0-.826-.13-1.174.22l-.111,0A5.786,5.786,0,0,0,69.678.714a4.439,4.439,0,0,0-4.338,1.007c-.077.065-.149.133-.218.2L61.748,1.92c-.232-.275-.539-.22-.829-.22q-3.873-.005-7.747,0a1.24,1.24,0,0,0-.67.089,5.942,5.942,0,0,0-1.92-.968,4.376,4.376,0,0,0-4.128.847c-.711-.018-1.41.315-2.13.254h0c-.305-.343-.7-.221-1.058-.221q-7.638-.015-15.277-.014c-.524.01-1-.254-1.537-.249-2.566.027-5.133.034-7.7.007-.527-.006-1.017.362-1.534.176a6.225,6.225,0,0,0-1.99-.173c-3.127-.1-6.259.135-9.384-.08-.073-.017-.147-.033-.232-.049A6.941,6.941,0,0,0,3.589,1.2c-.092,0-.184.007-.275.013a3.231,3.231,0,0,0-.626.1C.939,1.382.793,1.479.789,2.5Q.776,6.048.771,9.6c-.358.254-.21.558-.214.84C.5,14.123.531,17.8.78,21.484c.074,1.089.009,2.182.007,3.273a43.184,43.184,0,0,0-.426,4.836c-.182,2.316-.055,4.64-.06,6.96l.013,3.79c.012,1.059.1,2.118.152,3.175.079,1.711.324,3.419.319,5.131,0,.677,0,1.353,0,2.03a3.437,3.437,0,0,0-.213.921C.65,53.206.2,54.8.313,56.409c.014.189-.048.388.214.542h0C.444,58.328.57,59.7.35,61.084a23.952,23.952,0,0,0-.071,3.559c-.32.2-.21.459-.212.695C.052,66.6.05,67.861.051,69.123a13.829,13.829,0,0,0,.034,1.819A37.354,37.354,0,0,1,.54,75.866c0,1.359-.009,2.718-.014,4.077-.32.173-.225.4-.225.615q0,4.866.006,9.732L.3,90.722q-.015.575-.03,1.151h0c-.343.229-.194.509-.21.767-.176,2.883.318,5.759.225,8.641-.017.509.005,1.018.009,1.528a48.909,48.909,0,0,0,.2,6.077c.217,1.266-.026,2.555.3,3.825h0c0,.8-.006,1.594.015,2.39.012.5.369,1,.205,1.5a12.668,12.668,0,0,0-.2,3.678c.1,2.183-.325,4.358-.281,6.54-.327.2-.221.458-.22.693,0,1.258.082,2.514.173,3.771.173,2.373.047,4.754.043,7.131a.8.8,0,0,1-.027.29A17.807,17.807,0,0,0,.1,141.887a15.571,15.571,0,0,0-.037,3.127c0,.213-.084.441.213.621v4.046h0c-.343.229-.216.509-.207.767.076,2.057.025,4.112.139,6.17.161,2.9.425,5.806.322,8.713-.061,1.72,0,3.442.02,5.164,0,.258-.13.539.22.765q.008.358.015.716-.006,2.98-.014,5.961c-.275.152-.22.352-.22.541q-.005,2.524,0,5.047c0,.189-.06.39.226.539q.008.436.017.872a9.638,9.638,0,0,1-.231,2.719c-.2.55.282,1.084.21,1.637h0c-.343.2-.221.455-.221.689q-.015,4.977-.014,9.954c.01.341-.254.654-.249,1,.027,1.672.034,3.344.007,5.016-.006.343.362.663.176,1a2.706,2.706,0,0,0-.173,1.3c-.12,2.394.234,4.793-.234,7.183a1.936,1.936,0,0,0,0,.581c.084.745.413.934,1.66.959.41.008.823.027,1.229,0a5.589,5.589,0,0,0,2.016-.15c1.23-.145,1.244-.145,1.243-.805,0-1.38-.022-2.76-.035-4.141a13.229,13.229,0,0,0,.017-4.953q-.005-4.077-.01-8.152a31.277,31.277,0,0,0,.241-4.815c.108-1.255.1-2.513.2-3.77.164-2.2.059-4.409.054-6.613,0-.236.081-.489-.214-.7.009-1.5.026-3.008.027-4.512q0-7.86,0-15.719c0-2.377-.042-4.754-.064-7.131q0-7.921,0-15.841a.464.464,0,0,0-.207-.478h0q-.013-.43-.025-.861c.008-.266.026-.532.023-.8-.022-2.176-.112-4.351-.207-6.526-.158-3.6-.072-7.213-.08-10.819-.006-2.687,0-5.373,0-8.06h0q.021-1.743.041-3.485h0c.251-.159.2-.36.211-.551.07-1.159.067-2.318.2-3.479a36.748,36.748,0,0,0,.068-3.994,9.167,9.167,0,0,0,.184-3.11,19.723,19.723,0,0,1-.117-5.507,49.316,49.316,0,0,0,.167-5.218h0q0-4.8,0-9.6a10.651,10.651,0,0,0-.056-1.671,44.487,44.487,0,0,1-.373-4.565,46,46,0,0,1,.369-7.18c.187-1.836.059-3.683.07-5.525a15.778,15.778,0,0,0,.259-4.061c.247-.158.2-.358.207-.546.009-.646,0-1.293,0-1.939l.021-1.463h0c.012-.315.045-.63.032-.943-.062-1.595-.108-3.189-.227-4.784-.218-2.924.058-5.853-.234-8.78-.12-1.2.112-2.418.1-3.623-.015-1.424-.117-2.851-.144-4.277h0a.415.415,0,0,0,.192-.407L6.916,18.5q0-.584.007-1.168h0C6.977,14,7,10.671,6.933,7.34l2.725-.018a31,31,0,0,0,7.6.017l12.512-.01a73.44,73.44,0,0,0,7.389.241c1.927.108,3.856.1,5.785.2.858.042,1.717.066,2.577.079a6.233,6.233,0,0,0,.722.988q.719.807,1.448,1.605a1.26,1.26,0,0,1,.349.883c0,.508-.006,1.017,0,1.526.014.788.04,1.576.055,2.364a.146.146,0,0,1-.022-.038c-.02-.063-.036-.111-.051-.154,0-.007-.005-.015-.008-.021a.388.388,0,0,0-.049-.1l0,0h0c-.059-.073-.146-.073-.366-.069-.042,0-.084.009-.126.013a8.137,8.137,0,0,0-1.611.073h0c-.549.011-1.1,0-1.646.035-1.459.09-2.917.213-4.377.3q-.275.015-.549.035l-.34.032c-.867.067-1.734.149-2.6.231a5.753,5.753,0,0,0-1.255.147,10.381,10.381,0,0,0-1.612.178h0a4.555,4.555,0,0,0-.962.111q-1.775.261-3.543.561c-.762.129-1.529.238-2.28.433a2.308,2.308,0,0,0-.249.032c-1.343.311-2.689.612-4.021.974-1.015.276-2.029.557-3.018.913l-.087.027q-.32.117-.637.246l-.2.081-.071.031c-.053.022-.105.047-.156.074-.014.007-.029.012-.042.02l-.013.012a.984.984,0,0,0-.245.189.252.252,0,0,1-.076.1c-.093.062-.088.158-.092.252a.307.307,0,0,0-.082.251c-.129.135-.1.321-.122.477a4.293,4.293,0,0,0,.018,1.485c0,.006,0,.006-.006.016a.084.084,0,0,0,.023.072,1.246,1.246,0,0,0,.161.675.361.361,0,0,0,.076.249v0a.331.331,0,0,1,.016.05c0,.01.008.019.011.029a4.107,4.107,0,0,0,.649,1.326.493.493,0,0,0,.695.2c.211-.08.415-.18.628-.252q1.188-.4,2.381-.78c-.023.113-.048.226-.08.336q-.436,1.521-.8,3.059l-.107.322.029.015c-.17.732-.331,1.467-.472,2.206-.295,1.544-.6,3.088-.738,4.658-.117,1.3-.277,2.588-.4,3.883h-.005c-.026.223-.048.407-.067.564l.016.012c0,.034-.007.068-.01.1a13.476,13.476,0,0,0-.174,2.154,2.145,2.145,0,0,0-.091.379c-.05.873-.087,1.748-.135,2.622-.062,1.136-.111,2.273-.2,3.407-.171,2.205-.262,4.412-.222,6.624-.035.48-.086.96-.1,1.441-.088,2.631-.052,5.261.123,7.887a2.249,2.249,0,0,0,.1.969h0c.005.166.011.332.016.5,0,.044,0,.089.006.134l0,.256q.006,1.737.013,3.475a.64.64,0,0,0,.089.376h0c0,.24-.007.48-.009.721-.007.94.014,1.881-.029,2.819-.04.873-.1,1.744-.077,2.618a4.914,4.914,0,0,0-.093.58c-.093,2.092-.2,4.184-.261,6.276-.044,1.44-.032,2.881-.045,4.321h0a.763.763,0,0,0-.111.564c0,1.356,0,2.712.015,4.068a8.643,8.643,0,0,0,.1,1.831,11.749,11.749,0,0,0,.068,1.8c0,.018,0,.036,0,.054.014.084.031.167.051.251h0c-.009.693.032,1.392-.038,2.079h0a18.764,18.764,0,0,0-.084,2.531q-.136,3.018-.272,6.036h0a.645.645,0,0,0-.1.434c-.024,1.217-.185,2.426-.24,3.64a30.918,30.918,0,0,0-.164,3.709,2.916,2.916,0,0,0-.013.793l-.005.393a4.993,4.993,0,0,0-.09,1.375c.108,1.444.075,2.893.125,4.339a.62.62,0,0,0,.091.376c-.041,1.482.152,2.954.189,4.433a.6.6,0,0,0,.068.18c0,.131-.01.263,0,.393q.2,2.582.4,5.164c.146,1.874.267,3.75.454,5.62a9.312,9.312,0,0,0,.221,1.951,10.8,10.8,0,0,0,.127,1.885c.071,1.084.178,2.166.27,3.249a12.164,12.164,0,0,0,.1,2.375h0l.029,1.048q0,1.374-.006,2.749-.006,4.615-.011,9.231,0,1.249,0,2.5.006,1.38.012,2.761c-.018.618-.034,1.236-.01,1.853,0,.013,0,.026,0,.039,0,.116.011.231.019.348v0c-.006.043-.011.086-.017.129,0,.065,0,.131-.006.2l-.006.2a.989.989,0,0,0-.025.24,20.233,20.233,0,0,0-.094,2.658,8.337,8.337,0,0,0-.12,1.975c0,.044,0,.088-.006.133l0,.13c0,.044,0,.088,0,.132q-.005.2-.011.393a.171.171,0,0,0-.01.1c-.015.075-.02.15-.031.226a.3.3,0,0,0-.008.056,13.853,13.853,0,0,0-.043,1.975c0,.058.054.114.084.172h0c-.2.8-.066,1.113.659,1.462a1.188,1.188,0,0,0,.541.216v0l.006,0c.018.012.04.04.053.036h0a1.315,1.315,0,0,0,.732.224l.05.02.053,0a.447.447,0,0,0,.417.1,8.355,8.355,0,0,0,2.9.161,26.771,26.771,0,0,0,4.112-.19,3.85,3.85,0,0,0,1.282-.217,15.678,15.678,0,0,0,2.334-.314c.517-.082,1.029-.2,1.542-.3.164-.035.375-.039.409-.262a2.616,2.616,0,0,0,.017-.846c0-.011-.018-.021-.037-.029l.091-.013V174.6a.672.672,0,0,0,.085-.312c.021-.349.032-.7.048-1.049a3.537,3.537,0,0,0,.171-1.21,30.275,30.275,0,0,0,.335-3.419,5.3,5.3,0,0,0,.107-.578c.137-1.763.277-3.526.394-5.29s.2-3.532.314-5.3c.053-.827.171-1.651.2-2.479.035-.895.221-1.779.17-2.679a21.776,21.776,0,0,0,.27-3.157,6.615,6.615,0,0,0,.176-1.682,25.329,25.329,0,0,0,.214-3.059,3.923,3.923,0,0,0,.13-1.038c.118-1.459.267-2.916.343-4.377.057-1.091.23-2.176.186-3.273a8.76,8.76,0,0,0,.149-1.945.5.5,0,0,0,.038-.132,4.048,4.048,0,0,0,.064-1.08v-.267a21.456,21.456,0,0,0,.208-2.733,31.568,31.568,0,0,0,.194-3.716,10,10,0,0,0,.135-2.107c.17-1.127.175-2.267.27-3.4.119-1.416.251-2.832.344-4.25a19.307,19.307,0,0,0,.176-2.355c.258-1.565.377-3.146.54-4.722a2.355,2.355,0,0,0,.121-1.07,1.8,1.8,0,0,0,.121-.923c.094-.67.19-1.339.28-2.01.2-1.492.4-2.984.582-4.479.113-.952.305-1.9.327-2.858a28.388,28.388,0,0,0,.418-3.776,1.876,1.876,0,0,0,.106-.958l.019-.263a3.864,3.864,0,0,0,.137-1.315,31.615,31.615,0,0,0,.392-3.786c.22-1,.255-2.033.378-3.05.117-.976.223-1.953.307-2.932.032.439.034.881.029,1.323a4.789,4.789,0,0,1-.07,1.063.617.617,0,0,0,.051.519.911.911,0,0,1,.066.714,8.5,8.5,0,0,0-.22,1.7c.011.208.088.4.086.608,0,.808.139,1.611.086,2.42q0,1.63,0,3.261c0,.5.015.991-.007,1.485-.01.225.107.424.073.65a11.446,11.446,0,0,0-.149,1.8c-.133.123-.079.284-.08.428,0,1.058,0,2.115,0,3.173,0,.164-.032.327-.044.488a8.616,8.616,0,0,0-.105,1.921,11.7,11.7,0,0,1,.066,1.434c.008.275,0,.55,0,.824.026.345-.069.683-.074,1.022-.018,1.28-.008,2.56-.008,3.84,0,.1-.007.2.082.264a12.094,12.094,0,0,0,.076,1.269,13.788,13.788,0,0,0,.157,2.414.888.888,0,0,0,.491.694,5.341,5.341,0,0,0,1.562.463,15.819,15.819,0,0,0,3.5.367.307.307,0,0,0,.3.079,6.194,6.194,0,0,1,1.166.049c.02.372.038.744.059,1.115.043.787.09,1.574.153,2.36.152,1.876.3,3.753.476,5.627.178,1.9.357,3.793.589,5.682.223,1.828.378,3.659.453,5.5.09,2.189.229,4.374.457,6.553a5.624,5.624,0,0,0,.2,1.488l.023.226c.023,1.237.212,2.461.335,3.689a4.171,4.171,0,0,0,.172,1.345,27.665,27.665,0,0,0,.292,3.131,10.527,10.527,0,0,0,.13,2.105A9.148,9.148,0,0,0,53.5,156.8h0a1.774,1.774,0,0,0,.022.615,12.706,12.706,0,0,0,.056,1.925.909.909,0,0,0,.054.353c-.041,1.576.133,3.144.208,4.716.03.632.062,1.266.108,1.9.122,1.656.267,3.311.336,4.969.032.765.154,1.522.228,2.282l-.052-.017c0,.406,0,.573.1.682.007.155.011.311.009.467,0,.25.188.389.359.521a4.666,4.666,0,0,0,1.565.808,14.252,14.252,0,0,0,5.577.474,5.9,5.9,0,0,0,1.853-.234,7.7,7.7,0,0,0,2.1-.4.6.6,0,0,1,.108-.113l0,0h0l0,.007a.164.164,0,0,1-.111.11,2.4,2.4,0,0,0,1.051-.265h0a17.924,17.924,0,0,0,3.68-1.147,2.219,2.219,0,0,0,.791-.446c0-.034-.006-.067-.009-.1h0c0-.011,0-.022,0-.033,0-.037-.009-.073-.016-.11,0-.008,0-.015,0-.023l0,0a.1.1,0,0,1,.019.043.266.266,0,0,1,.007.03.636.636,0,0,1,0,.07,1.154,1.154,0,0,0,0,.122c.171-.1.132-.275.113-.413a3.7,3.7,0,0,1-.027-.557c.012-.232.021-.431.034-.7l-.01,0c0-.1.009-.2.009-.305,0-1.228,0-2.456,0-3.684q0-3.485,0-6.971h0c.106-1.305.115-2.614.118-3.923q.008-3.437.03-6.875c0-.077.006-.155.01-.232a.664.664,0,0,0,.085-.375q.023-2.246.044-4.493a.822.822,0,0,0,.081-.244c-.013-1.772.216-3.536.183-5.309a.944.944,0,0,0,.079-.242q.1-2.24.186-4.479a1.167,1.167,0,0,0,.1-.639c.026-.372.026-.746.06-1.116a31.438,31.438,0,0,0,.213-3.933h0q0-.262.007-.524c.133-1.523.269-3.045.4-4.568.026-.3.015-.613.033-.919,0-.07.01-.139.015-.208a3.048,3.048,0,0,0,.266.22c.194.142.334.349.609.331a.591.591,0,0,0,.282.177,11.4,11.4,0,0,0,2.51.676l1.17.234q-.153,3.311-.3,6.622a5.394,5.394,0,0,0-.024,1.024,1.366,1.366,0,0,0-.055.236c-.1,1.7-.182,3.4-.132,5.1.062,2.157.208,4.313.205,6.472a.431.431,0,0,0,.116.357.593.593,0,0,1,.387.1l.378.024a.352.352,0,0,1,.02.07,1.29,1.29,0,0,1,.582.1,3.094,3.094,0,0,1,.883.1l1.051.024.006,0H81.3a.1.1,0,0,0,.015.073l.035-.016.032.021a22.071,22.071,0,0,0,2.673.046,3.361,3.361,0,0,0,1.15-.047,1.448,1.448,0,0,1,.576-.043,16.9,16.9,0,0,0,1.889-.047l.17-.011c.261-.118.555.041.814-.095l.029-.021.033.014a.337.337,0,0,0,.1-.06.465.465,0,0,0,.416-.037.306.306,0,0,0,.2-.19.278.278,0,0,0,.038-.066.427.427,0,0,0,.157-.337c0-.061.008-.122.012-.183l.018-.293c.052-.849.1-1.7.181-2.546.2-2.109.419-4.217.642-6.324a26.671,26.671,0,0,0,.09-4.882,30.1,30.1,0,0,1-.116-3.077c.012-.454.027-.908.042-1.362.216,0,.431,0,.647,0a4.244,4.244,0,0,0,1.942-.21.914.914,0,0,1,.474-.08c.424.031.829-.119,1.251-.119a1.037,1.037,0,0,0,.56-.123,4.872,4.872,0,0,1,1.6-.531,8.915,8.915,0,0,0,2.191-.892c.888-.522,1.718-1.143,2.566-1.732l.065-.046a.254.254,0,0,1,.087-.167,3.109,3.109,0,0,1,.583-.4c.354-.394.716-.885,1.257-.94q.342-.3.673-.6c.794-.527,1.5-1.186,2.288-1.708,1.092-.719,2.213-1.4,3.374-2.007h0q.046,1.094.1,2.188c.067,1.31.129,2.621.252,3.927a36.047,36.047,0,0,1,.158,3.976c0,.17-.006.34,0,.51.034,1.057.166,2.11.128,3.17a2.041,2.041,0,0,0,.023.306c.092.8.17,1.593.2,2.4s.139,1.6.215,2.394c0,.031.032.059.048.088a16.415,16.415,0,0,0,.218,2.075c.2,1.858.377,3.719.63,5.572a3.872,3.872,0,0,0,.179,1.147.079.079,0,0,1,.037.034l-.037-.034c.05.574.078,1.15.159,1.719a3.733,3.733,0,0,0,.146,1.048c.176,1.424.177,2.86.315,4.287.194,2,.222,4.019.512,6.014.161,1.113.15,2.246.354,3.354a4.093,4.093,0,0,0,.119.908.927.927,0,0,1,.046.57l-.017-.005-.064.1c.011.017.021.036.032.054a.383.383,0,0,0-.158.189.3.3,0,0,0-.183.222,2.417,2.417,0,0,0-.021,1.326,4.653,4.653,0,0,0,.283,1.658h0a2.924,2.924,0,0,0,.513,1.022,10.813,10.813,0,0,0,1.951,1.021,1.245,1.245,0,0,0,.536.173,3.088,3.088,0,0,0,1.13.206c.4.055.8.126,1.2.162a14.793,14.793,0,0,0,2.281.065l.1-.009c.662-.036,1.326-.049,1.984-.115a7.823,7.823,0,0,0,2.231-.466,1.119,1.119,0,0,0,.5-.129h0a1.416,1.416,0,0,0,.733-.183,3.972,3.972,0,0,0,1.026-.411.264.264,0,0,0,.213-.1,2.77,2.77,0,0,0,1.23-.835c.2-.153.221-.419.389-.588a.77.77,0,0,0,.2-.653c-.047-.593-.079-1.188-.123-1.781a.656.656,0,0,0-.076-.185c-.015-.211.157-.42.006-.632a10.1,10.1,0,0,1,.119-1.5,13.34,13.34,0,0,0,.261-2.007c.088-.486.141-.978.243-1.46.2-.951.2-1.925.383-2.882.194-1.035.276-2.092.407-3.139.08-.642.15-1.286.24-1.926.18-1.268.151-2.551.272-3.824a16.911,16.911,0,0,0,.238-2.079.124.124,0,0,0-.034-.014l0-.006.03.02a.867.867,0,0,0,.079-.5c.018-.392-.006-.788.033-1.177.129-1.29.228-2.584.365-3.872s.161-2.587.331-3.873a.331.331,0,0,0,.079-.214,14.97,14.97,0,0,1-.082,2.785,20.878,20.878,0,0,0-.11,2.586.777.777,0,0,0-.1.442c0,.058,0,.116,0,.174a2.375,2.375,0,0,0-.018.722c-.041.794-.131,1.585-.174,2.378-.2,3.71-.458,7.42-.448,11.138,0,1.326-.223,2.64-.147,3.967.042.725.138.878.812,1.094a3.831,3.831,0,0,0,.677.094v-.01c.132.153.307.129.479.119a10.962,10.962,0,0,1,4.359,2.116,5.585,5.585,0,0,0,1.064.6,19.21,19.21,0,0,0,2.437.927c-.009.053-.019.1-.029.157a6.086,6.086,0,0,0-.344,1.47,1.1,1.1,0,0,0,.351,1.3,6.11,6.11,0,0,0,1.75,1.233,5.144,5.144,0,0,0,2.039.931h0a1.172,1.172,0,0,0,.618.2l.033.025.041-.006a.433.433,0,0,0,.328.1v0h0a4.789,4.789,0,0,0,2.673.5.5.5,0,0,0,.308-.009c.523,0,1.046.018,1.567,0a2.184,2.184,0,0,0,.9-.087,3.18,3.18,0,0,0,1.131-.1,7.9,7.9,0,0,0,2.049-.517h0a.885.885,0,0,0,.516-.3h0a2.449,2.449,0,0,0,1.123-1.03c.166-.225.447-.374.475-.691a4.774,4.774,0,0,0,.042-1.268.255.255,0,0,0-.01-.208c0-.134-.009-.268,0-.4.011-.207-.1-.212-.231-.2a.8.8,0,0,0-.036-.152l-.143.057a.433.433,0,0,1-.086-.173c1.338-.039,2.675-.094,4.013-.125s2.7-.029,4.051-.043a32.159,32.159,0,0,0,4.527-.016,1.13,1.13,0,0,0,.586-.117A14.15,14.15,0,0,0,172,163.02c1.98-.2,3.93-.574,5.888-.93a15.656,15.656,0,0,0,4.224-1.509,21.231,21.231,0,0,1,5.877-2.1h0a24.038,24.038,0,0,0,3.8-.377,19.007,19.007,0,0,0,2.973-.7,1.137,1.137,0,0,0,.885-1.107c.028-1.044.022-2.089.03-3.134h0a1.836,1.836,0,0,0,.106-.9c.01-.869.007-1.737.009-2.605,0-.891.013-1.781.023-2.672.4.057.8.149,1.208.178h0a3.157,3.157,0,0,0,1.154.124l.047.028.053-.012a.634.634,0,0,0,.155.064c1.22.149,2.44.3,3.648.529a8.824,8.824,0,0,0,1.95.442.95.95,0,0,0,.216.046,18.414,18.414,0,0,0,2.8.4h0a.276.276,0,0,0,.234.012l.049.025.052-.018a4.94,4.94,0,0,0,2.1,0l.055.011.047-.03a2.279,2.279,0,0,0,.561-.091c.367-.031.468-.23.491-.567.045-.646.148-1.287.193-1.933.011,0,.021,0,.031,0l-.026-.061a2.893,2.893,0,0,0-.082-1.3c-.022-1.293-.165-2.583-.113-3.879a1.571,1.571,0,0,0,.038-.737,40.055,40.055,0,0,1,.018-5.286,3.318,3.318,0,0,0,.005-.917,9.42,9.42,0,0,1-.078-1.889c0-.323,0-.646,0-.968,1.283-.059,2.564-.2,3.846-.2.449,0,.9-.006,1.344-.019l.016.081a3.626,3.626,0,0,1,.109,1.071,31.978,31.978,0,0,0,.33,5.128,7.239,7.239,0,0,0,.069.759c.085.477.244.6.724.579a13.678,13.678,0,0,1,2.221,0,22.719,22.719,0,0,0,4.632.082,7.515,7.515,0,0,0,1.951-.2,9.646,9.646,0,0,0,2.281-.389,1.45,1.45,0,0,0,.779-.368c.056-.026.114-.051.119-.125.035-.459.088-.918.1-1.378a3.554,3.554,0,0,0-.083-1.429,2.255,2.255,0,0,0-.118-.93c-.019-.688-.128-1.371-.153-2.058,1.925.029,3.845.22,5.772.146a1.11,1.11,0,0,1,.238.014,13.017,13.017,0,0,0,2.92.056c1.329-.055,2.656-.2,3.986-.195,1.712.007,3.418-.188,5.131-.139a1.85,1.85,0,0,0,.238-.013,27.973,27.973,0,0,1,3.387-.22,6.261,6.261,0,0,0,.775-.035c.789-.086,1.574-.2,2.371-.228.594-.023,1.191-.058,1.784-.115a3.473,3.473,0,0,0,.986-.218c.272-.111.375-.262.271-.5.154.011.308.024.462.034a.186.186,0,0,0,.149.009c.254.016.507.032.761.049a.427.427,0,0,0,.366-.082c.029.049.062.1.087.148a.425.425,0,0,0,.188-.316c0-.106,0-.212,0-.318a.586.586,0,0,1,.284-.035,9.424,9.424,0,0,0,2.907-.167.648.648,0,0,1,.268-.01.463.463,0,0,0,.234.43c.013-.028.026-.054.04-.079.119.1.287.053.449.023a13.4,13.4,0,0,1,2.466-.22,48.061,48.061,0,0,0,7.951-.513v.006c.012,0,.02-.008.031-.012q.56-.094,1.118-.211a48.418,48.418,0,0,0,4.932-1.184c.965-.311,1.942-.589,2.923-.849a31.824,31.824,0,0,0,4.677-1.6,1.667,1.667,0,0,0,1.1-1.857c-.048-.654-.126-1.308-.217-1.959a31.548,31.548,0,0,1-.466-4.869,2.01,2.01,0,0,1,.159-.8,4.124,4.124,0,0,0,.379-2.044,33.616,33.616,0,0,1,0-3.434,6.76,6.76,0,0,0-.1-1.832c-.018-.629-.022-1.26-.053-1.888.465.014.93.013,1.395-.016a2.055,2.055,0,0,0,.155.915c.09,1.395.182,2.79.267,4.185.028.465,0,.937.062,1.395a34.845,34.845,0,0,1,.338,4.179,22.893,22.893,0,0,0,.182,2.466,22.97,22.97,0,0,1,.277,2.332,34.792,34.792,0,0,0,.654,6.054.806.806,0,0,1-.021.5,1.89,1.89,0,0,0-.033,1.183,8.1,8.1,0,0,1,.165,2.906,17.805,17.805,0,0,0-.182,3.737,1.313,1.313,0,0,0,1.014,1.3,8.743,8.743,0,0,0,1.29.322,45.966,45.966,0,0,0,6.154.368c.785,0,1.569.021,2.353.036a10.159,10.159,0,0,0,1.525-.039.465.465,0,0,0,.448-.442c.235-1.42.7-2.793.854-4.232a5.206,5.206,0,0,1,.5-1.632,13.423,13.423,0,0,0,.725-3.143,9.316,9.316,0,0,0,.178-2.276c-.054-1.143-.134-2.285-.2-3.428.091-.793-.108-1.572-.075-2.375a22.414,22.414,0,0,0-.278-3.126c-.008-2.2,0-4.41-.032-6.614,0-.226,0-.453,0-.68a23.189,23.189,0,0,0,3.357-2.144,12.828,12.828,0,0,0,1.461-1.237c.128-.129.247-.3.469-.23s.221.268.231.457c.017.3.035.609.05.913.032.687.081,1.372.127,2.059l-.005,0a.476.476,0,0,0,.023.308c.023.362.05.724.066,1.086.02.45.035.9.076,1.352h-.032a.28.28,0,0,0,.064.281,6.561,6.561,0,0,0,.157.879c.121.46.211.5.671.59a9.252,9.252,0,0,0,1.657-.012,8.606,8.606,0,0,0,1.468.03,6.474,6.474,0,0,1,1.265-.267,7.556,7.556,0,0,0,2.138-.276,12.478,12.478,0,0,0,2.5-.674,1.356,1.356,0,0,0,.292-.182l0,0a.31.31,0,0,0,.117-.121l0-.007a1.033,1.033,0,0,0,.181-.63c.028-1.044-.078-2.08-.118-3.12a.336.336,0,0,0-.008-.275c0-.125-.011-.25-.011-.375,0-1.178-.008-2.356-.012-3.534a5.6,5.6,0,0,0-.117-1.488c.017-.714.044-1.427.041-2.144-.009-1.919-.224-3.83-.162-5.747a12.3,12.3,0,0,1-.1-1.717,19.529,19.529,0,0,0,.081-2.694c.131-3.114-.122-6.226-.112-9.341a1.052,1.052,0,0,0-.011-.246.651.651,0,0,0-.069-.154.117.117,0,0,0-.034-.063,59.089,59.089,0,0,0-.227-6.787,26.368,26.368,0,0,1-.276-4.492,1.882,1.882,0,0,0-.024-.37,19.1,19.1,0,0,1-.218-2.391,4.834,4.834,0,0,0-.221-1.949.769.769,0,0,1-.029-.306c0-.865-.2-1.72-.134-2.588a.911.911,0,0,0-.115-.476,7.86,7.86,0,0,0-.131-1.364c-.019-.864-.138-1.721-.147-2.588a5.166,5.166,0,0,0-.132-1.16,18.242,18.242,0,0,1-.461-4.4q0-1.673,0-3.348a3.549,3.549,0,0,0-.073-.735,3.138,3.138,0,0,1,.008-1.289,4.182,4.182,0,0,0,.006-1.6,2.866,2.866,0,0,1-.062-.551,21.279,21.279,0,0,0-.291-2.818c-.035-.285.022-.627-.2-.881.028-.22-.106-.406-.131-.615a12.413,12.413,0,0,0-.492-1.618.876.876,0,0,0-.128-.5c0-.137.019-.28-.119-.371v0a11.547,11.547,0,0,0-.991-3.481,18.444,18.444,0,0,0-2.115-4.462h0a6.45,6.45,0,0,0-.668-1.109,11.943,11.943,0,0,0-2.1-2.086.729.729,0,0,0-.515-.161.819.819,0,0,1-.628-.328,6.453,6.453,0,0,0-3.042-1.91.27.27,0,0,0-.251-.12.259.259,0,0,0-.247-.119.766.766,0,0,0-.357-.141,21.318,21.318,0,0,0-2.507-1.2,6.653,6.653,0,0,0-1.6-.653.683.683,0,0,0-.141-.117c-1.146-.513-2.285-1.046-3.444-1.526a13.062,13.062,0,0,1-1.844-.86c-.576-.351-1.206-.614-1.774-.985h0a1.585,1.585,0,0,0-.606-.487,3.45,3.45,0,0,0-1.5-.744h0a.824.824,0,0,0-.5-.247,9.163,9.163,0,0,0-1.372-.615,9.449,9.449,0,0,0-.912-.316c-.091-.07-.18-.142-.27-.214a5.39,5.39,0,0,0-.914-.633.271.271,0,0,0-.209-.135,1.583,1.583,0,0,0-.6-.371.537.537,0,0,0-.2-.158c-.472-.293-.976-.526-1.473-.773a.728.728,0,0,0-.348-.114.168.168,0,0,0-.157-.072.128.128,0,0,0-.051-.043c-.005,0-.009-.01-.014-.013a.217.217,0,0,0-.086-.014,1.784,1.784,0,0,0-.264-.117l-.065-.024-.015-.006h-.006l-.241-.079a7.8,7.8,0,0,0-1.762-.274l-.044-2.767a2.616,2.616,0,0,0-.333-1.253,4.662,4.662,0,0,0-1.063-1.36q-.382-.356-.745-.732c1.322.023,2.647.137,3.965.128,2.185-.015,4.375-.117,6.564-.144h0a.8.8,0,0,0,.625.192l13.694.015,1.793.007h0c6.107.064,12.215.081,18.321-.038q0,.785,0,1.569c-.358.254-.21.558-.214.84-.058,3.682-.026,7.363.223,11.044.074,1.089.009,2.182.007,3.273a43.177,43.177,0,0,0-.426,4.836c-.182,2.316-.055,4.64-.06,6.96q.006,1.9.013,3.79c.012,1.059.1,2.118.152,3.175.079,1.711.324,3.419.319,5.131,0,.677,0,1.353,0,2.03a3.438,3.438,0,0,0-.213.921c.078,1.607-.377,3.2-.259,4.811.014.189-.048.388.215.542h0c-.084,1.377.042,2.753-.177,4.132a23.837,23.837,0,0,0-.071,3.559c-.32.2-.21.459-.213.695-.015,1.262-.017,2.524-.016,3.785a13.835,13.835,0,0,0,.034,1.819,37.352,37.352,0,0,1,.455,4.923c0,1.359-.009,2.718-.014,4.077-.32.173-.225.4-.225.615q0,4.866.006,9.732c0,.144,0,.288-.005.433q-.015.575-.03,1.151h0c-.343.229-.194.509-.21.767-.176,2.883.318,5.759.225,8.641-.016.509.005,1.018.009,1.528a48.834,48.834,0,0,0,.2,6.077c.217,1.266-.026,2.555.295,3.825h0c0,.8-.006,1.594.014,2.39.012.5.369,1,.205,1.5a12.684,12.684,0,0,0-.2,3.678c.1,2.183-.325,4.358-.281,6.54-.326.2-.221.458-.22.693,0,1.258.082,2.514.173,3.771.173,2.373.047,4.754.043,7.131a.8.8,0,0,1-.027.29,17.812,17.812,0,0,0-.391,3.178,15.577,15.577,0,0,0-.037,3.127c0,.213-.084.441.213.621q0,2.023,0,4.046h0c-.343.229-.216.509-.207.767.076,2.057.025,4.112.139,6.17.161,2.9.425,5.806.322,8.713-.061,1.72,0,3.442.02,5.164,0,.258-.13.539.22.765q.007.358.015.716-.006,2.98-.014,5.961c-.275.152-.22.352-.22.541q0,2.524,0,5.047c0,.189-.06.39.226.539.006.291.011.581.017.872a9.638,9.638,0,0,1-.231,2.719c-.2.55.282,1.084.21,1.637h0c-.343.2-.221.455-.221.689q-.016,4.977-.014,9.954c.01.341-.254.654-.249,1,.027,1.672.034,3.344.007,5.016-.006.343.362.663.176,1a2.706,2.706,0,0,0-.173,1.3c-.12,2.394.234,4.793-.234,7.183a1.937,1.937,0,0,0,0,.581c.084.745.413.934,1.66.959.41.008.823.027,1.229,0a5.589,5.589,0,0,0,2.016-.15c1.23-.145,1.244-.145,1.243-.805,0-1.38-.022-2.76-.035-4.141a13.221,13.221,0,0,0,.017-4.953q-.005-4.077-.009-8.152a31.328,31.328,0,0,0,.241-4.815c.108-1.255.1-2.513.2-3.77.164-2.2.059-4.409.054-6.613,0-.236.08-.489-.214-.7.009-1.5.026-3.008.026-4.512q0-7.86,0-15.719c0-2.377-.042-4.754-.064-7.131q0-7.921,0-15.841a.464.464,0,0,0-.207-.478h0q-.013-.43-.025-.861c.008-.266.026-.532.023-.8-.022-2.176-.112-4.351-.207-6.526-.157-3.6-.072-7.213-.08-10.819-.006-2.687,0-5.373,0-8.06h0q.021-1.743.041-3.485h0c.251-.159.2-.36.211-.551.07-1.159.067-2.318.2-3.479a36.636,36.636,0,0,0,.068-3.994,9.178,9.178,0,0,0,.185-3.11,19.706,19.706,0,0,1-.117-5.507,49.316,49.316,0,0,0,.167-5.218h0q0-4.8,0-9.6a10.6,10.6,0,0,0-.056-1.671,44.49,44.49,0,0,1-.373-4.565,46.007,46.007,0,0,1,.369-7.18c.187-1.836.059-3.683.07-5.525a15.778,15.778,0,0,0,.259-4.061c.247-.158.2-.358.207-.546.009-.646,0-1.293,0-1.939l.021-1.463h0c.012-.315.045-.63.032-.943-.062-1.595-.108-3.189-.227-4.784-.218-2.924.058-5.853-.235-8.78M195.638,150.477q-.046-.03-.095-.056a.324.324,0,0,1,.093-.065c0,.041,0,.081,0,.121M41.93,86.107h0v0h0c.009,0,.014,0,.013,0a.018.018,0,0,1-.012,0M21.355,175.993s0,.009,0,.014,0,.028,0,.043,0,.035.006.054,0,.036.008.055l0,.012,0,0a.175.175,0,0,1-.056-.049L21.3,176.1a.185.185,0,0,1-.021-.1c.025,0,.05,0,.074-.006M17.889,20.539a.242.242,0,0,0,.048,0c-.008.015-.014.028-.022.043l-.026-.038M202.682,8.733q.719.807,1.448,1.605a1.26,1.26,0,0,1,.349.883c0,.508-.006,1.017,0,1.526.007.424.018.848.029,1.272-.02.006-.041.01-.061.017A4.466,4.466,0,0,0,203,14.4a1.892,1.892,0,0,0-.616.252l-.006,0-.059.035-.03,0-.017.007a.126.126,0,0,0-.044.019l-.017.007a.142.142,0,0,0-.028.04h0c-.021,0-.04,0-.059.006H202.1l-.005,0a.163.163,0,0,0-.052.012c-.085.042-.168.088-.252.131l-.043.021-.043.024c-.227.12-.451.247-.671.381l-.109.069c-.228.143-.452.293-.668.457a.236.236,0,0,0-.043.011.156.156,0,0,0-.032.008.124.124,0,0,0-.055.059c-.03.017-.061.032-.09.051a22.433,22.433,0,0,0-3.208,2.813.91.91,0,0,0-.291.27,5.816,5.816,0,0,0-.765.6,12.265,12.265,0,0,1-1.09.652,4.3,4.3,0,0,0-.433,0,3.192,3.192,0,0,1-.436-.028c-.4-.176-.8-.361-1.179-.575l-.017-.021L192.6,19.7a.432.432,0,0,0-.143-.088l-.009-.005-.021-.008a.139.139,0,0,0-.1-.068l-.009-.006-.023,0-.032-.032-.011-.008a2.326,2.326,0,0,0-.384-.282c-.06-.044-.12-.087-.179-.132-.435-.325-.831-.7-1.254-1.037a11.784,11.784,0,0,0-1.213-1.081,7.187,7.187,0,0,0-1.1-.788.243.243,0,0,0-.191-.123,1.435,1.435,0,0,0-.549-.34.488.488,0,0,0-.183-.145c-.433-.269-.893-.481-1.348-.708a.665.665,0,0,0-.318-.1.152.152,0,0,0-.144-.065c0-.006-.009-.007-.013-.012a.133.133,0,0,0-.047-.04.2.2,0,0,0-.079-.012,1.808,1.808,0,0,0-.307-.131l-.007,0h-.006l-.22-.072a6.79,6.79,0,0,0-1.538-.245l-.056-3.457a2.615,2.615,0,0,0-.333-1.253,4.654,4.654,0,0,0-1.063-1.36q-.207-.192-.41-.39a18.464,18.464,0,0,0,3.866.082,46.309,46.309,0,0,1,8.452-.117c2.673.209,5.338.143,8.007.167h.372a6.369,6.369,0,0,0,.673.9M70.618,171.464l0,0a.028.028,0,0,1,0-.013.055.055,0,0,1,0-.012.036.036,0,0,1,0-.007h0a.155.155,0,0,1,0,.027s0,.009,0,.009M20.31,169.686s0,0-.006,0l-.009-.006a.068.068,0,0,0,0-.038h0c0-.018,0-.025,0-.025l0,0a.039.039,0,0,1,.009.013.084.084,0,0,1,0,.011.074.074,0,0,1,0,.024.049.049,0,0,1,0,.014m-1.233-73.75h0l.031,0c0,.015,0,.031-.006.047v0h0c-.011-.015-.019-.031-.029-.046h0m36,59.32c.024,0,.046.008.066.01-.008.021-.009.039-.019.06-.017-.023-.032-.047-.047-.07M21.987,52.969c.009.006.02.006.029.012a.341.341,0,0,0,.093.038c.008,0,.015.009.023.01-.037.018-.074.035-.113.05l-.011,0v0c-.007-.037-.014-.074-.021-.111m128.384-45.9q2.714,0,5.429,0a5.628,5.628,0,0,0,1.129,1.865q.718.807,1.447,1.605a1.26,1.26,0,0,1,.349.883c0,.508-.006,1.017,0,1.526.01.592.026,1.185.041,1.777-.022.006-.045.011-.067.018a4.409,4.409,0,0,0-1.361.32,1.826,1.826,0,0,0-.562.216l-.02.007-.056.031-.029,0-.015.006a.128.128,0,0,0-.042.017l-.016.006a.118.118,0,0,0-.026.035h0l-.03,0-.038,0H156.5l0,0a.164.164,0,0,0-.05.011c-.081.038-.161.078-.241.118l-.035.015-.036.019c-.213.106-.422.217-.628.335l-.112.066c-.205.121-.408.248-.6.387l-.016.01a.215.215,0,0,0-.035.009.163.163,0,0,0-.036.009.113.113,0,0,0-.051.052c-.028.015-.057.028-.084.045-.276.175-.542.361-.8.556-.1.073-.19.153-.285.229-1.05-.264-2.1-.513-3.159-.733a15.349,15.349,0,0,0-1.837-.346,13.318,13.318,0,0,0-1.969-.327.07.07,0,0,0-.061-.007h0c-.044-.022-.089-.061-.134-.062a8.976,8.976,0,0,1-1.175-.172,2.707,2.707,0,0,0-.809-.1.076.076,0,0,0-.064-.007.537.537,0,0,0-.384-.067l-.217-.019a.825.825,0,0,0-.538-.067l-.222-.018a4.052,4.052,0,0,0-.991-.146c-.853-.1-1.7-.232-2.56-.289-.462-.031-.923-.077-1.385-.126l-.029,0c-.36-.038-.719-.076-1.078-.108-.058-.005-.118-.016-.178-.023a.715.715,0,0,0-.2,0v-.018l-.062-3.841a2.6,2.6,0,0,0-.331-1.248,4.647,4.647,0,0,0-1.059-1.355c-.33-.306-.655-.619-.957-.952-.022-.024-.041-.05-.062-.074,5.447-.148,10.9-.067,16.35-.075M34.942,156.225l-.007-.005.02,0c0,.007-.009.01-.013.01M197.036,19.51c0,.005.006.009.006.015s0,.009,0,.014a.085.085,0,0,1-.029.04.533.533,0,0,0,.022-.069M57.847,158.317a.527.527,0,0,0-.055-.038l-.024-.014a.25.25,0,0,0-.057-.02l0-.005a.855.855,0,0,0,.064-.13l.007-.015c0-.018.008-.037.011-.055,0,.008.006.015.008.023.012.041.028.083.044.124.008.02.015.04.024.06.019.043.042.085.066.128.007.013.013.026.021.04-.03-.03-.057-.055-.082-.076l-.03-.023M23.365,175.352c.017.017.034.036.051.055l-.053,0c-.006-.005-.012-.006-.018-.012a.108.108,0,0,1,0-.059l.021.02M28.645,19.058a.054.054,0,0,1-.007.016.035.035,0,0,1-.019.009l-.006,0a.1.1,0,0,1-.044-.013c.025-.01.053-.018.082-.026a.077.077,0,0,1-.006.012M31.415,17.6c-.019.008-.026.006-.034,0h0c.026-.015.036-.01.035,0h0M102.3,19.614a.027.027,0,0,1,.006.015s0,.008,0,.012a.077.077,0,0,1-.029.038.6.6,0,0,0,.022-.064M62.868,170.287h-.046a.186.186,0,0,1,.016-.027l.057.026h-.026M50.016,17.986h0M47.648,20.17s0,.007-.007.01h-.009l.016-.01m6.6-.675.021,0c-.006,0-.01.006-.013,0s-.006,0-.008-.009m-6.637-1.6-.032.01v-.012l.033,0M31.62,21.521c1.124-.205,2.261-.309,3.387-.495a1.742,1.742,0,0,0,.211,0q1.2-.127,2.394-.26c.714-.079,1.427-.162,2.141-.243a5.554,5.554,0,0,0,1.1-.08.215.215,0,0,1,.023-.009h0c-.009,0-.018.005-.026.009.62-.009,1.239-.042,1.857-.086l.063,0,.183-.01.054,0,.059-.006c.176-.019.353-.032.53-.049l.137-.011h0l.763-.016h4.671l1.774.016.088.022.044,0a11.1,11.1,0,0,0,1.2.07.568.568,0,0,0,.325.065c.533.045,1.066.092,1.6.146s1.041.109,1.561.165a2.72,2.72,0,0,0-.349.116c-.545.233-1.008.607-1.54.862a3.725,3.725,0,0,0-.988.488,6.479,6.479,0,0,0-1.554.5,5.136,5.136,0,0,1-.744.335c-.077.026-.153.056-.23.083-1.84,0-3.679.04-5.519.054a1.286,1.286,0,0,0-.309.08h0l-.226,0-.267,0a4.448,4.448,0,0,0-1.052.007l-.135.006-1.971-.01-.52-.016a1.433,1.433,0,0,0-.706-.084c-.808-.027-1.617-.03-2.424-.077-1.635-.1-3.266-.258-4.907-.217l-.36-.012h0a1.272,1.272,0,0,0-.307-.083c-1-.02-2.01-.03-3.014-.044a.154.154,0,0,0-.018-.007l-.028-.155c-.014-.079-.047-.24-.091-.444,1.037-.216,2.076-.423,3.119-.614m142.845-2.162a.032.032,0,0,1,.006.014s0,.008,0,.012a.08.08,0,0,1-.029.038.463.463,0,0,0,.022-.064m24.624-.844-.023.028-.03.029a.762.762,0,0,0,.053-.058M58.7,159.394l.014,0,.055-.013.03-.007c0,.032,0,.064,0,.1a.181.181,0,0,1-.1-.073M21.318,101.712c-.006.005-.011.01-.018.009h0a.415.415,0,0,0,.008-.047c0-.008,0-.017,0-.025l.02.021,0,0a.049.049,0,0,1,0,.027.03.03,0,0,1-.006.01m83.013-83.019-.023.027-.033.031A.737.737,0,0,0,104.332,18.693ZM21.254,123.64c0-.018,0-.02.006-.02s0,.013-.006.02M176.5,18.432l-.022.025c-.009.009-.018.017-.028.026C176.472,18.466,176.488,18.45,176.5,18.432ZM35.961,116.4c.018,0,.032,0,.049,0l.082,0,.035,0c-.006.007-.014.013-.021.02a.254.254,0,0,1-.051.039.228.228,0,0,1-.041.011.22.22,0,0,1-.058.012,1.363,1.363,0,0,1-.105-.02.4.4,0,0,1-.1-.059l.053,0,.07,0c.029,0,.063,0,.091,0m-6.443,41.873-.034-.042c.019-.013.039-.025.06-.037-.011.016-.019.033-.031.05s0,.02,0,.03M30.573,53.53s.006-.007.009-.009a.194.194,0,0,1,.1-.042h0a.672.672,0,0,0-.091.065l-.018.016a.48.48,0,0,0-.066.073l0,0a.217.217,0,0,1,.062-.106M45.565,73.182l.009-.018c-.006.056-.011.113-.014.17l0-.008a.2.2,0,0,1-.011-.051.185.185,0,0,1,0-.038.222.222,0,0,1,.019-.055M134.722,19.8l-.006.01h-.007l.014-.01m-.036-2.269-.029.01v-.012l.029,0M65.617,149.781a.176.176,0,0,0-.021-.026.146.146,0,0,1,.023.026.158.158,0,0,1,.019.023.163.163,0,0,1,.015.075.17.17,0,0,0-.018-.075.18.18,0,0,0-.018-.023m-8.573-14.835s.006,0,.007,0a.068.068,0,0,1,.022-.008c0,.008,0,.015,0,.022-.019,0-.031,0-.031-.01M23.368,150.077c-.016,0-.029-.011-.046-.015l0,0a.157.157,0,0,1,.1-.041.14.14,0,0,1,.049.059.228.228,0,0,1,.009.022c0,.006,0,.012,0,.018l-.008,0c-.035-.014-.072-.025-.109-.036m8.54-15.187c.007.011.012.02.019.032l-.006,0-.011,0a.126.126,0,0,1-.079-.009c0-.05.008-.092.012-.136.006.011.015.023.021.034s.028.049.044.073m-2.871.4-.034.032c-.008-.018-.016-.037-.025-.056l.059.024m6.29-41.25h-.009l.041-.057.023-.032s.005,0,.007.007a.244.244,0,0,0,.078.086.826.826,0,0,0-.139,0M24.953,106.289h0c.01-.016.019-.022.024-.019s0,.006,0,.008a.027.027,0,0,1,.005.015v0a.022.022,0,0,1-.014.019c-.007,0-.017,0-.031-.013h0a.4.4,0,0,1-.023-.047l-.007-.018C24.925,106.254,24.939,106.272,24.953,106.289Zm7.764-4.687,0,0c-.011-.008-.017-.018-.026-.026l.028,0v.026a.017.017,0,0,1,0,0m-1.06,12.2h-.03a.256.256,0,0,1,.024-.024c0,.009,0,.017.006.026m-2.23,11.629v-.025a1.22,1.22,0,0,0,.09-.085h0a.3.3,0,0,1-.09.11M27.064,99.62l.014-.026a.92.92,0,0,1,.013.1h0a.157.157,0,0,1-.06-.007l.009-.017.025-.047m-2.34,8.694c-.006.015-.007.027-.013.043v0c-.006-.015-.012-.029-.017-.044h.031m-3.786-12.62a.03.03,0,0,1-.014-.034c.005.012.009.023.014.034m8.751,60.449-.015-.005.015-.027Zm5.279-32.664c-.011,0-.012-.023-.012-.023s.008.016.012.023M147.028,21.193a.35.35,0,0,0-.3.163l-1.636.707c-.315.122-.632.237-.946.36-1.272.428-2.472,1.035-3.713,1.54-.555.169-1.1.377-1.634.592l-1.352.012c-.714.007-1.431.064-2.141.016-.113-.008-.226-.009-.339-.014a.268.268,0,0,1-.05-.04l-.272-.026a.545.545,0,0,0-.023-.074l-.258-.016c-.014-.026-.027-.053-.039-.079l-.273-.021c-.007-.025-.014-.05-.023-.075h-.186l-.107-.1-.278-.028a.616.616,0,0,0-.016-.072.341.341,0,0,1-.291-.1.925.925,0,0,1-.5-.18.381.381,0,0,1-.293-.1,27.02,27.02,0,0,0-.582-.205,118.884,118.884,0,0,1-.591-.195l-.266-.02-.029-.079a.337.337,0,0,1-.3-.093.408.408,0,0,1-.3-.091.374.374,0,0,1-.292-.1.41.41,0,0,1-.3-.094l-.274-.027a.312.312,0,0,1-.025-.07.36.36,0,0,1-.294-.094l-.353-.054a.256.256,0,0,0-.208-.075c-.008-.026-.016-.051-.023-.077a.383.383,0,0,1-.292-.1l-.259-.026c0-.006,0,0,0-.013a.081.081,0,0,0-.029-.067c-.108-.121-.282,0-.392-.105-.084-.087-.216-.017-.3-.086-.142-.141-.347.009-.49-.105-.122-.111-.293-.01-.421-.1a.056.056,0,0,1-.068-.01c-.079-.089-.217,0-.295-.1a.183.183,0,0,0-.185-.029c.016-.033.007-.056-.047-.056a.049.049,0,0,1-.062-.012.167.167,0,0,0-.22,0v.013l-.075-.006-.093-.01c0-.007,0-.014,0-.021h-.015a.265.265,0,0,0-.028-.059l-.36-.023a.182.182,0,0,0-.2,0l-.1-.081a.82.82,0,0,1-.486-.1.567.567,0,0,1-.4-.094l-.466-.018a.612.612,0,0,0-.117-.082.714.714,0,0,0-.438-.055l-.178-.073-.266-.109c.425-.063.85-.126,1.272-.2a1.369,1.369,0,0,0,.187,0q1.061-.127,2.121-.258c.633-.079,1.265-.161,1.9-.242a4.422,4.422,0,0,0,.978-.08c.006,0,.014-.005.02-.009h0c-.007,0-.016.005-.023.009.548-.009,1.094-.041,1.64-.085l.061,0,.162-.01.048,0,.052-.006c.152-.019.305-.032.458-.048.044,0,.089-.007.133-.012l.676-.016h4.14l1.16.012h.006l.406,0c.026.009.052.016.078.022l.039,0a8.63,8.63,0,0,0,1.066.069h0c.087.073.189.055.288.064.472.045.944.091,1.416.145.793.09,1.585.2,2.379.277.547.056,1.088.151,1.63.238l1.146.183c.256.047.512.1.768.141l.614.108c-.014.012-.029.021-.043.033m-7.262-4.12-.005.014v0l0,0-.021-.006c.009-.009.019-.009.029-.015m-3,.581.029-.016.006,0,.011-.006a.247.247,0,0,1-.025.021l-.021.005m-16.437-.419a.007.007,0,0,1,.006.008c-.018.008-.024.006-.031,0h0a.041.041,0,0,1,.022-.009l0,0M23.5,105.006l.006.02-.011,0-.02,0,.025-.014m-2.511-4.6A.065.065,0,0,1,21,100.4a.056.056,0,0,1,.014,0,.024.024,0,0,1,.026.019h0c.007.017.011.033.018.05l0,0,0-.006a.09.09,0,0,0-.017-.029v0a.028.028,0,0,0-.022-.006s0,0-.007,0h0L21,100.408v.009a.034.034,0,0,1-.021,0s0,0,0-.008,0,0,0,0m.411.933c.008,0,.013.011.02.016l-.02,0Zm161.729-81.8a1.2,1.2,0,0,0-.219-.056c-.184-.011-.368-.017-.551-.023a.78.78,0,0,0,.15-.115.4.4,0,0,1,.044-.033.357.357,0,0,1,.057-.041.2.2,0,0,1,.046-.011.23.23,0,0,1,.05-.011.25.25,0,0,1,.052.009.281.281,0,0,1,.045.008.771.771,0,0,1,.1.042c.166.079.332.158.5.232h-.275m-39.611-.655a.018.018,0,0,1-.005-.013l0,0a.018.018,0,0,1,0,.01v0M35.564,129.634c.012,0,.015.017.015.021v0l0,0c-.005-.006-.008-.013-.013-.019m1.972-32.88.052-.021c0,.013,0,.026,0,.039l-.025-.009-.023-.009m8.715,3.084.013-.022.012.023h-.026m9.164,42.041.013,0a.054.054,0,0,1,.029.03l0,0a.1.1,0,0,1,0,.053l-.006.015a.361.361,0,0,1-.025.052l0,0c-.006-.012-.014-.024-.02-.036s-.021-.046-.03-.069-.015-.042-.023-.064h.006a.186.186,0,0,1,.06.006m12.7-18.067a.136.136,0,0,1-.035.008.129.129,0,0,1-.035.006c.009,0,.038-.008.07-.014ZM209.683,21.322c-.188.05-.378.1-.571.133a8.557,8.557,0,0,0-1.653.422c-.061,0-.119.013-.179.018h-.541a.215.215,0,0,0-.211.1l-.421,0h-2.944l-.841,0c-.137-.158-.322-.1-.489-.1-.608-.006-1.217,0-1.825,0h-.2c.152-.067.3-.136.448-.217.1-.032.2-.056.293-.1,1.335-.585,2.658-1.2,4-1.759a1.518,1.518,0,0,0,.573-.324.352.352,0,0,1,.059-.047.384.384,0,0,1,.042-.032.2.2,0,0,1,.061-.015.277.277,0,0,1,.035-.009.449.449,0,0,1,.2.063l.053.027h0c.24.123.48.247.728.35.566.235,1.128.483,1.688.733l0,0,1.072.478.611.274M27.707,25.956l0,0-.011-.02-.01-.021a.144.144,0,0,1,.021-.006c0,.017,0,.033,0,.05m135.442-9.789h0l0,.006-.005-.005h0m-16.143.088h-.018l-.047-.005-.027,0,.06-.036.032.047m-2.121-.49c-.014-.022-.028-.043-.039-.059l-.017-.026h.126a.322.322,0,0,1-.07.085m-30.565.282h0s0,0,0,.005l0,0h0M53.34,17.432l-.006.014v0l0,0-.024-.006c.011-.009.022-.009.032-.015m-3.382.583L49.99,18,50,18l.012-.006a.293.293,0,0,1-.028.021l-.023.006M39.534,93.143a.217.217,0,0,0,.033-.012c.007.021.014.042.022.064a.724.724,0,0,1-.055-.053M54.613,138.5l-.012-.009a.061.061,0,0,1,.021-.031.155.155,0,0,0-.009.04M186.547,15.772h0l0,.006-.006-.006h0M72.363,17.651c0-.005-.007-.009-.009-.015l.011,0,0,.011M70.622,166.678l0,.015,0,.008-.031-.019h0l.035-.005v0M209.2,15.656h0l0,.006,0,0h0m-151.625,3.6a.019.019,0,0,1-.006-.014h0a.018.018,0,0,1,0,.011v0m122.817-4.647a1.951,1.951,0,0,0-.612.234l-.006,0-.059.033-.03,0-.017.007a.139.139,0,0,0-.044.018l-.017.007a.126.126,0,0,0-.028.037h0l-.027,0-.045,0h-.006l0,0a.163.163,0,0,0-.053.012c-.084.04-.167.082-.251.122l-.042.019-.041.022q-.338.167-.665.354l-.114.067c-.225.133-.447.271-.661.423a.138.138,0,0,0-.128.073c-.03.015-.061.029-.089.047a21.9,21.9,0,0,0-3.187,2.618.88.88,0,0,0-.289.252,5.694,5.694,0,0,0-.76.555c-.145.092-.294.177-.443.263a2.342,2.342,0,0,0-.653.108.09.09,0,0,0-.1.015,4.243,4.243,0,0,0-1.351.166.644.644,0,0,0-.166.048,2.126,2.126,0,0,0-.875.155c-.246-.116-.488-.238-.726-.371a.191.191,0,0,0-.016-.02l-.02-.012a.407.407,0,0,0-.133-.082l-.01-.006-.034-.022a.134.134,0,0,0-.076-.049l-.009-.006-.022,0-.007-.007-.023-.023-.007-.005a2.126,2.126,0,0,0-.362-.266c-.061-.044-.122-.088-.182-.134-.407-.305-.778-.653-1.174-.971a11.06,11.06,0,0,0-1.143-1.02,6.811,6.811,0,0,0-1.039-.744.231.231,0,0,0-.18-.116,1.358,1.358,0,0,0-.518-.32.459.459,0,0,0-.173-.137c-.407-.253-.842-.454-1.271-.667a.627.627,0,0,0-.3-.1.143.143,0,0,0-.135-.062c0-.005-.009-.006-.012-.01a.122.122,0,0,0-.045-.038.175.175,0,0,0-.074-.012,1.686,1.686,0,0,0-.289-.123l-.007,0h-.006l-.208-.067a5.453,5.453,0,0,0-1.207-.21l-.056-3.453a2.61,2.61,0,0,0-.333-1.253A4.661,4.661,0,0,0,158.76,8.6c-.331-.308-.658-.621-.961-.955a3.02,3.02,0,0,1-.409-.573h5.35l5.348.041h0c.245.251.554.2.846.211,1.779.07,3.558.067,5.339.2,1.661.128,3.332.087,5,.073a6.363,6.363,0,0,0,.614.823c.479.538.96,1.075,1.448,1.605a1.262,1.262,0,0,1,.349.883c0,.508-.006,1.017,0,1.526.011.612.028,1.225.042,1.838a4.534,4.534,0,0,0-1.345.328M120.47,7.568a.912.912,0,0,0,.734-.207h0l1.321-.025c.409.008.817.026,1.225.023,2.855-.019,5.709-.088,8.564-.167a5.97,5.97,0,0,0,.9,1.316c.478.536.957,1.071,1.443,1.6a1.254,1.254,0,0,1,.347.879c0,.507-.006,1.014,0,1.52.012.725.035,1.449.05,2.174l0,0-.009-.026a.407.407,0,0,0-.043-.094v0h0c-.052-.073-.129-.073-.325-.069-.037,0-.074.009-.111.013a6.38,6.38,0,0,0-1.432.073c-.486.01-.974,0-1.459.035-1.293.09-2.584.212-3.878.294-.162.01-.325.023-.486.035l-.3.032c-.77.067-1.538.149-2.307.231a4.548,4.548,0,0,0-1.112.146,8.156,8.156,0,0,0-1.429.177,3.644,3.644,0,0,0-.853.111q-1.572.261-3.14.559c-.663.126-1.33.234-1.983.421a3,3,0,0,0-.3-.178.246.246,0,0,0-.19-.123,1.44,1.44,0,0,0-.547-.338.489.489,0,0,0-.182-.144c-.43-.267-.888-.478-1.34-.7a.665.665,0,0,0-.316-.1.152.152,0,0,0-.143-.065c0-.006-.009-.006-.013-.011a.126.126,0,0,0-.047-.04.194.194,0,0,0-.078-.012,1.769,1.769,0,0,0-.3-.13l-.008,0h-.006l-.218-.071a6.252,6.252,0,0,0-1.413-.233l-.058-3.648a2.615,2.615,0,0,0-.333-1.253,4.661,4.661,0,0,0-1.063-1.36q-.328-.3-.642-.624H120.47m-48.278,9.1a.061.061,0,0,1,.02.029c-.007-.012-.019-.019-.029-.029h.009m-6.384-.324-.007-.013.016,0-.009.011M20.491,171.336c.018-.016.036-.03.055-.044a.083.083,0,0,1-.054.044h0m14.188-11.68h-.065a.051.051,0,0,1,.015,0,.143.143,0,0,1,.03,0l.021,0h0m98.851-36.814c.092-1.562.31-3.117.278-4.687a1.966,1.966,0,0,1,.04-.509,4.993,4.993,0,0,0,0-1.827,10.966,10.966,0,0,0,.124-2.6c0-.97-.11-1.948-.056-2.915.106-1.863-.023-3.722.021-5.584.045-1.929,0-3.861-.015-5.791a9.044,9.044,0,0,0-.186-2.83,23.96,23.96,0,0,0-.041-2.452,11.209,11.209,0,0,1-.032-1.839q.026-.441.049-.883c.077-.018.155-.035.232-.055l.111-.027c.093-.023.185-.049.277-.073l.013,0,.165-.044h.005s.006,0,.009,0l.155-.043a.247.247,0,0,0,.139-.034l.095-.015c.083-.086.212-.014.3-.087l.035-.023.042.006c.067-.043.154-.032.217-.083l.023-.025.034,0c.079-.03.176-.022.225-.1.064-.041.148-.03.208-.083l.051-.019h0c.078-.026.168-.025.223-.087a.937.937,0,0,1,.165-.046.4.4,0,0,0,.185-.028,1.725,1.725,0,0,0,.074.319c.016.494.009.99.052,1.482.092,1.055.182,2.109.191,3.169A13.961,13.961,0,0,0,137,96.572a.478.478,0,0,0,.038.2c-.032.155-.06.311-.094.466-.236,1.07-.509,2.132-.678,3.218-.328,2.115-.733,4.218-1.052,6.335-.205,1.365-.278,2.743-.486,4.1-.344,2.25-.426,4.519-.559,6.785-.007.091-.015.183-.022.274a11.321,11.321,0,0,0-.138,2.638h0a18.941,18.941,0,0,0-.4,2.789c-.047.331-.1.661-.144.991.016-.513.032-1.025.062-1.537M1.061,19.391c-.011.012-.018.025-.029.038a.153.153,0,0,1,.029-.038m95.1-11.823h10.928a6.334,6.334,0,0,0,.709.961c.479.538.96,1.075,1.448,1.605a1.261,1.261,0,0,1,.348.883c0,.508-.006,1.017,0,1.526.012.668.031,1.336.046,2l-.011,0a4.645,4.645,0,0,0-1.436.338,1.919,1.919,0,0,0-.593.227l-.022.008-.059.033-.03,0-.016.006a.129.129,0,0,0-.045.018l-.016.006a.124.124,0,0,0-.028.038h0l-.05,0-.023,0h-.006l0,0a.163.163,0,0,0-.053.012c-.086.04-.17.083-.256.125l-.036.016-.035.019q-.341.169-.673.358l-.1.061c-.224.132-.445.27-.658.421l0,0a.192.192,0,0,0-.036.009.153.153,0,0,0-.038.009.121.121,0,0,0-.054.055c-.029.016-.06.029-.088.047a21.774,21.774,0,0,0-3.17,2.6.879.879,0,0,0-.287.25,4.763,4.763,0,0,0-.619.443,1.237,1.237,0,0,1-.22-.226.213.213,0,0,0-.1-.2.86.86,0,0,0,0-.094c-.01-.047,0-.106-.031-.138a6.426,6.426,0,0,1-.789-1.477,7.1,7.1,0,0,0-.736-1.5,11.823,11.823,0,0,0-.974-1.945.2.2,0,0,0-.1-.194h0c-.071-.179-.222-.2-.387-.2h0l-.038-.016,0,0a1.251,1.251,0,0,0-.342-.147h0A6.678,6.678,0,0,0,96,13.112a3.839,3.839,0,0,0-1.169-.193c-.2.016-.379-.126-.584-.1l-.188-.009c-.108-.132-.259-.084-.4-.1a6.747,6.747,0,0,0-2.239-.288,9.423,9.423,0,0,0-1.645-.106l-.021-1.314a2.615,2.615,0,0,0-.333-1.253A4.661,4.661,0,0,0,88.366,8.4c-.27-.251-.534-.51-.788-.777,2.86-.013,5.72-.035,8.581-.053M61.511,16.611h-.019l-.054-.005-.03,0,.067-.037.036.048m-2.394-.492-.007-.009c-.012-.018-.026-.035-.035-.048l-.021-.029H59.2a.337.337,0,0,1-.079.086M19.642,63.03l-.029.027-.052.056-.017.018v0a.421.421,0,0,1,.007-.088c0-.009,0-.018,0-.027a.486.486,0,0,1,.049-.123c.03.033.056.069.083.1l0,0c-.012.009-.026.021-.04.034m.823,99.146c.01,0,.012.006.014.017l-.014-.016h0M287.543,15.751h0a.041.041,0,0,1,0,.007l-.006-.007h0m-61.294-2.536a5.207,5.207,0,0,0-1.613.379,2.206,2.206,0,0,0-.687.263h0l-.066.036-.034,0-.017.007a.153.153,0,0,0-.052.021l-.018.007,0,0c-.536.067-1.073.128-1.607.212a3.658,3.658,0,0,1-.764.091,2.12,2.12,0,0,0-.914.141c0-.026.009-.051.013-.076-.174-.119-.311-.085-.373.107-.021.064-.035.13-.051.2a2.361,2.361,0,0,0-.617.678,19.241,19.241,0,0,1-1.457,1.954,8.67,8.67,0,0,1-2.3,1.443c-.433.175-.87.343-1.295.537-.447-.354-.851-.764-1.284-1.137a12.135,12.135,0,0,0-1.22-1.163,7.286,7.286,0,0,0-1.109-.847.247.247,0,0,0-.192-.132,1.446,1.446,0,0,0-.553-.365.505.505,0,0,0-.184-.156c-.435-.288-.9-.517-1.356-.76a1.264,1.264,0,0,0-.193-.091.357.357,0,0,0-.126-.021.15.15,0,0,0-.145-.07.129.129,0,0,0-.033-.03c-.009-.008-.017-.02-.028-.025a.177.177,0,0,0-.079-.013,1.55,1.55,0,0,0-.244-.116l-.059-.023-.013-.005h0c-.074-.027-.148-.052-.223-.078a5.822,5.822,0,0,0-1.392-.249l-.047-2.927a2.615,2.615,0,0,0-.333-1.253,4.668,4.668,0,0,0-1.063-1.36q-.3-.276-.585-.565,6.219,0,12.438,0a25.045,25.045,0,0,0,2.565-.056c1.791-.186,3.586-.257,5.381-.318a6.2,6.2,0,0,0,.706.958q.71.8,1.431,1.587a1.248,1.248,0,0,1,.345.873c0,.5-.006,1.005,0,1.508,0,.237.011.473.016.71a3.344,3.344,0,0,0-.565.122m100.59,6.176c-.011.012-.018.025-.03.038a.166.166,0,0,1,.03-.038M305.018,2.178a.257.257,0,0,1,.057.029c-.019-.011-.038-.018-.057-.029M36.683,2.264h-.009l0-.006.012.006M1.112,194.278l.006-.008h0v0l-.006,0M85.214,7.631l.527,0a6.167,6.167,0,0,0,.794,1.1c.479.538.96,1.075,1.448,1.605a1.261,1.261,0,0,1,.348.883c0,.405,0,.811,0,1.217a12.612,12.612,0,0,1-1.777.095.613.613,0,0,0-.193.014,28.409,28.409,0,0,1-2.967.37,7.807,7.807,0,0,0-1.513.29c-.135.012-.284-.039-.39.094-.135.015-.285-.032-.39.1a4.664,4.664,0,0,0-1.337.381c-.132.045-.191.162-.257.275-.162.277-.344.544-.5.826a7.4,7.4,0,0,0-.926,2.317,3.579,3.579,0,0,0-.228.691.251.251,0,0,1,.164.33c-.1.292-.275.551-.391.838l-.088.218a.555.555,0,0,0,.122.229.186.186,0,0,1-.011.181,1.337,1.337,0,0,0-.173.248c-.236-.2-.471-.409-.714-.6a13.71,13.71,0,0,0-1.427-1.273,8.5,8.5,0,0,0-1.3-.929.292.292,0,0,0-.225-.145h0a1.7,1.7,0,0,0-.646-.4.575.575,0,0,0-.215-.17c-.509-.316-1.052-.567-1.586-.833A.773.773,0,0,0,71,15.459l-.006,0,0,0h0a.168.168,0,0,0-.164-.077.171.171,0,0,0-.163-.075h0a3.333,3.333,0,0,0-.635-.243,6.445,6.445,0,0,0-1.405-.252l-.058-3.6a2.615,2.615,0,0,0-.333-1.253A4.668,4.668,0,0,0,67.171,8.6c-.331-.308-.658-.621-.961-.955L66.2,7.635q9.507,0,19.013,0m-21.143,8.8,0,.007-.007.006s0-.009,0-.013M195.635,148.341l.015.015v.017c0-.011-.011-.021-.015-.032M257.428,11.06a4.921,4.921,0,0,1-1.067.123,7.289,7.289,0,0,0-1.445.156h0a13.692,13.692,0,0,0-2.552.257,5.678,5.678,0,0,0-1.406.22,7.194,7.194,0,0,0-1.953.214c-.37.076-.772-.056-1.112.178a5.078,5.078,0,0,0-2.759,1.435c-.319.364-.6.767-.887,1.156a7.386,7.386,0,0,0-1.067,2,12.313,12.313,0,0,1-1.58,2.492,2.8,2.8,0,0,1-.639.6c-.2.126-.4.256-.6.384a5.1,5.1,0,0,1-1.915-1.543,10.208,10.208,0,0,1-.853-1.565,7.356,7.356,0,0,0-.706-1.5.228.228,0,0,0-.122-.2c.008-.126,0-.263-.24-.289-.024.055-.058.116-.079.179a.333.333,0,0,0-.162-.05c-.22-.272-.573-.219-.855-.344a7.29,7.29,0,0,0-2.854-.611.5.5,0,0,0-.266-.114,4.4,4.4,0,0,0-1.078-.132l-.488-.242a.739.739,0,0,0-.355-.117h0a.135.135,0,0,0-.071-.059.177.177,0,0,0-.026,0,.3.3,0,0,0-.063-.01.13.13,0,0,0-.036-.031c-.01-.009-.019-.022-.031-.027a.219.219,0,0,0-.088-.014,1.851,1.851,0,0,0-.276-.123l-.047-.018-.027-.01-.01,0-.242-.079a5.791,5.791,0,0,0-1.217-.226l-.04-2.478a2.581,2.581,0,0,0-.329-1.239,4.615,4.615,0,0,0-1.051-1.345q-.359-.333-.7-.686c3.614-.117,7.219.134,10.828.373,2.818.187,5.653.059,8.48.07a36.949,36.949,0,0,0,6.233.259,1.048,1.048,0,0,0,.838.207c.992.009,1.984,0,2.977,0l.78.007c.012.013.022.027.034.041q.686.77,1.381,1.531a1.2,1.2,0,0,1,.332.842c0,.074,0,.149,0,.223a4.749,4.749,0,0,0-.585.108M326.89,194.278l.006-.008h0v0l-.006,0M47.417,7.859c1.893,0,3.785-.034,5.678-.037.362,0,.751.081,1.071-.214,2.308.009,4.616.026,6.924.027h3.354a6.039,6.039,0,0,0,.9,1.3q.719.807,1.448,1.605a1.26,1.26,0,0,1,.349.883c0,.508-.006,1.017,0,1.526.011.609.028,1.218.042,1.828a3.511,3.511,0,0,0-.541.119,5.517,5.517,0,0,0-1.7.4h0a2.441,2.441,0,0,0-.8.316.161.161,0,0,0-.158.083l0,0a.538.538,0,0,0-.158.023c-.448.21-.885.438-1.31.688a9.769,9.769,0,0,0-1.556-.209.088.088,0,0,0-.07-.007.475.475,0,0,0-.152-.062,11.245,11.245,0,0,1-1.326-.173,3.415,3.415,0,0,0-.913-.1.093.093,0,0,0-.073-.007.667.667,0,0,0-.434-.067l-.245-.02a1.034,1.034,0,0,0-.607-.067l-.25-.018a5.124,5.124,0,0,0-1.118-.147c-.962-.1-1.922-.233-2.889-.29-.521-.031-1.041-.077-1.561-.126l-.035,0c-.405-.038-.811-.076-1.217-.108a1.112,1.112,0,0,0-.539.008c0-.018,0-.033,0-.052l-.062-3.855a2.615,2.615,0,0,0-.333-1.253A4.662,4.662,0,0,0,48.074,8.5q-.336-.313-.657-.641M18.759,55.968c0,.044-.007.088-.009.131a.411.411,0,0,1,.009-.131m59.187,76.609v0h0l0,0m129.411,16.028h0a.41.41,0,0,0,0,.064l-.01,0c0-.02.008-.041.013-.061M281.952,10.543a1.261,1.261,0,0,1,.348.883c0,.508-.006,1.017,0,1.525.007.387.017.773.027,1.16a5.042,5.042,0,0,0-1.519.364,2.133,2.133,0,0,0-.67.256l-.006,0-.047.026-.018.009h0l-.032,0-.018.007a.147.147,0,0,0-.048.02l-.018.007a.133.133,0,0,0-.03.04h0l-.047,0-.033,0h-.006l0,0a.2.2,0,0,0-.059.013c-.093.044-.185.09-.277.135l-.043.019-.043.023q-.372.185-.732.39l-.118.07c-.245.144-.487.3-.72.461l-.005,0a.2.2,0,0,0-.064.015c-.006,0-.013,0-.018,0a.131.131,0,0,0-.059.06c-.032.017-.066.032-.1.052-.3.192-.594.4-.88.61a15.856,15.856,0,0,0-1.838.634c-.214.082-.425.168-.636.255-.339-.534-.6-1.113-.882-1.678a7.794,7.794,0,0,0-2.639-2.986,7.154,7.154,0,0,0-2.529-1,6.416,6.416,0,0,0-2.034-.619c-1.307-.05-2.6-.264-3.911-.25a5.957,5.957,0,0,1-1.691-.2.9.9,0,0,0-.676.062q-.249-.014-.5-.024l-.006-.387a2.5,2.5,0,0,0-.317-1.2,3.987,3.987,0,0,0-.7-.981c.272.01.543.017.815.01,2.448-.062,4.894-.108,7.343-.227,4.407-.214,8.824.045,13.236-.223a6.236,6.236,0,0,0,.748,1.027q.719.807,1.448,1.605" transform="translate(0 0)" fill="#40bbff"/>
        <path id="Caminho_770282" data-name="Caminho 770282" d="M181.726,43.073c-.018.067-.037.132-.058.2a1.416,1.416,0,0,0-.141.644q.1-.422.2-.842" transform="translate(-103.992 -24.676)" fill="#40bbff"/>
        <path id="Caminho_770283" data-name="Caminho 770283" d="M183.959,339.365l.038,0-.148-.038a.181.181,0,0,0,.111.035" transform="translate(-105.325 -194.4)" fill="#40bbff"/>
        <path id="Caminho_770284" data-name="Caminho 770284" d="M181.562,320.091v-.148a.132.132,0,0,0-.031.05.072.072,0,0,0,.031.1" transform="translate(-103.994 -183.293)" fill="#40bbff"/>
        <path id="Caminho_770285" data-name="Caminho 770285" d="M182.117,337.4a1.274,1.274,0,0,0,.041.514c.03.089.068.1.1.077-.1-.094-.129-.228-.137-.468l0-.123" transform="translate(-104.329 -193.297)" fill="#40bbff"/>
        <path id="Caminho_770286" data-name="Caminho 770286" d="M182.013,308.285a.526.526,0,0,0-.019.329l.017-.282,0-.047" transform="translate(-104.252 -176.614)" fill="#40bbff"/>
        <path id="Caminho_770287" data-name="Caminho 770287" d="M212.5,296.662c0,.081,0,.162,0,.243.045-.035.041-.1.042-.163a2.918,2.918,0,0,0-.018-.825c-.009.247-.017.5-.021.745" transform="translate(-121.74 -169.529)" fill="#40bbff"/>
        <path id="Caminho_770288" data-name="Caminho 770288" d="M182.156,304.161a.763.763,0,0,0-.032.627c.013-.205.023-.416.032-.627" transform="translate(-104.304 -174.252)" fill="#40bbff"/>
      </g>
    </g>
    <g id="Grupo_233382" data-name="Grupo 233382" transform="translate(16 12355.351)">
      <g id="Grupo_233381" data-name="Grupo 233381" clip-path="url(#clip-path-2)">
        <path id="Caminho_759117" data-name="Caminho 759117" d="M148.265,76.289a5.433,5.433,0,0,0,5.907,3.577c5.229-.688,5.04-10.684,5.04-10.684l-8.941.388Z" transform="translate(-70.852 -33.06)" fill="#8f8f8f"/>
        <path id="Caminho_759118" data-name="Caminho 759118" d="M237.924,121.426s-18.641,16.04-19.508,16.04-9.252-2.9-9.252-2.9l-1.925-9.8-2.1-10.708-.312-1.6,10.4-24.416,7.656-.581Z" transform="translate(-97.882 -41.797)" fill="#ffa694"/>
        <path id="Caminho_759119" data-name="Caminho 759119" d="M223.95,122.336s-6.611,10.073-8.02,13.978a64.07,64.07,0,0,0-2.276,10.424l-1.042-2.468-1.523-1.125.987-3.088a16.137,16.137,0,0,1-.752-1.9,22.338,22.338,0,0,0-1.862-2.959Z" transform="translate(-100.096 -58.461)"/>
        <path id="Caminho_759120" data-name="Caminho 759120" d="M202.47,148.982l8.009,2.059,17.612-18.533,6.993,9.633,11.865,5.866-14.322,30.78L221.1,192.55l-11.055.542L196.57,181.6l-2.826-14.848Z" transform="translate(-92.586 -63.322)" fill="#fff"/>
        <path id="Caminho_759121" data-name="Caminho 759121" d="M227.939,172.9a.362.362,0,0,1-.048,0,.434.434,0,0,1-.338-.232c-3.754-7.29-5.258-10.337-5.86-11.637l-3.823,7.446a.433.433,0,1,1-.771-.4l4.24-8.257a.433.433,0,0,1,.819.2c.149.467,3.484,7.034,5.867,11.668l17.863-21.4a.433.433,0,0,1,.666.555l-18.283,21.906a.432.432,0,0,1-.333.156" transform="translate(-103.723 -71.742)"/>
        <path id="Caminho_759122" data-name="Caminho 759122" d="M226.6,297.106c-10.118,17.341-28.76,18.1-28.76,18.1v5.853H51.673s-.529-26.376-.156-32.844a4.084,4.084,0,0,1,.156-1.257c.078-.1-.147.034-.633.338-3.607,2.228-21.771,13.5-39.615,2.549C-8.8,277.416,3.049,251.691,7.67,241.573S38.6,177.126,53.91,166.461s32.479-8.107,32.479-8.107L116.183,191.5a2.271,2.271,0,0,0,3.533-.194l26.463-36.871s18.641,1.231,34.031,7.639c7.162,2.983,15.954,9.937,23.3,19.023.2.234.391.477.572.719a76.716,76.716,0,0,1,6.91,10.266c8.02,14.306,13.153,45.737,16.907,58.456a137.638,137.638,0,0,1,3.615,14.046c.148.8.287,1.6.408,2.419,1.37,9.278.841,19.534-5.324,30.1" transform="translate(0 -73.8)" fill="url(#linear-gradient)"/>
        <path id="Caminho_759123" data-name="Caminho 759123" d="M16.469,314.443a.433.433,0,0,1-.375-.65L30.023,289.65a.433.433,0,1,1,.75.433L16.844,314.226a.431.431,0,0,1-.375.217" transform="translate(-7.663 -138.312)"/>
        <path id="Caminho_759124" data-name="Caminho 759124" d="M98.387,394.727c.078-.1-.147.034-.633.338a71.617,71.617,0,0,0,5.792-15.1l.841.191a71.319,71.319,0,0,1-6.156,15.832,4.09,4.09,0,0,1,.156-1.257" transform="translate(-46.714 -181.573)"/>
        <path id="Caminho_759125" data-name="Caminho 759125" d="M364.256,206.218a208.97,208.97,0,0,0-19.327,40.4,269.914,269.914,0,0,0-7.344,26.635c-.512,2.133-1.023,4.275-1.543,6.408a.435.435,0,0,1-.424.329.416.416,0,0,1-.1-.009.444.444,0,0,1-.321-.529c.529-2.133,1.04-4.266,1.552-6.407a271.129,271.129,0,0,1,7.361-26.714A210.849,210.849,0,0,1,363.684,205.5c.2.234.39.477.572.719" transform="translate(-160.175 -98.203)"/>
        <path id="Caminho_759126" data-name="Caminho 759126" d="M391.681,348.525c-3.676-7.2-9.009-13.326-16.838-15.954-6.624-2.228-13.916-2.246-20.809-1.786-7.639.521-14.445,3.321-18.884,9.78a.479.479,0,0,1-.8-.052c-.165-.251.234-.529.312-.728a7.611,7.611,0,0,1,1.448-1.812,22.02,22.02,0,0,1,3.416-3.13,22.673,22.673,0,0,1,8.15-3.85c2.341-.581,4.543-2.012,6.806-2.878a49.6,49.6,0,0,1,7.587-2.281,33.148,33.148,0,0,1,15.91.329.437.437,0,0,1-.234.841c-8.809-2.523-17.748-.494-25.9,3.139.841-.1,1.7-.191,2.575-.252,7.292-.451,15.078-.373,21.979,2.323,6.416,2.515,11.142,7.413,14.541,13.309.112.191.217.382.329.581.148.8.286,1.6.408,2.419" transform="translate(-159.76 -155.322)" fill="#4f332e"/>
        <path id="Caminho_759127" data-name="Caminho 759127" d="M346.5,345.258a8.393,8.393,0,0,1,4.385-2.805,18.9,18.9,0,0,1,6.738-.328c8.485.735,17.437,3.285,22.793,9.906,3.312,4.095,4.887,9.316,5.912,14.482,1.286,6.488,1.753,13.525-1.212,19.439-3.063,6.107-9.294,10-15.64,12.529-4.181,1.668-8.666,2.9-13.146,2.455a18.622,18.622,0,0,1-16.045-14.673c-.792-4.255-.026-8.628.739-12.888q1.617-9.01,3.236-18.02c.508-2.83.683-6.035,1.552-8.767a4.613,4.613,0,0,1,.69-1.331" transform="translate(-162.455 -163.423)" fill="#fff"/>
        <path id="Caminho_759128" data-name="Caminho 759128" d="M197.617,55.251C195.7,50.742,192.1,39.5,192.1,39.5L190.7,38a17.224,17.224,0,0,1-2.22-.226c-2.246-.381-.685-5.332-2.679-6.373-1.474-.772-6.893-2.159-8.714-1.535a10.177,10.177,0,0,0-2.783,1.977A22.583,22.583,0,0,1,163.577,36.5c-2.419.442-4.439,4.951-6.78,5.749-.2.069-.4.173-.607.252L150.91,50.8s6.581,18.433,9.875,25.1a26.52,26.52,0,0,0,9.2,10.856c.26.173.537.338.815.494.113.078.234.139.356.208A16.454,16.454,0,0,0,182.21,89.3c.094-.018.186-.043.279-.062,1.659-2.488,4.235-4.18,6.777-5.785a14.828,14.828,0,0,1,5.528-4.508c.116-.235.233-.469.344-.71a27.221,27.221,0,0,0,1.786-5.4c.061-.286.131-.589.191-.919.061-.278.121-.572.173-.876.893-4.483,2-11.87.329-15.789" transform="translate(-72.116 -14.196)" fill="#ffa694"/>
        <path id="Caminho_759129" data-name="Caminho 759129" d="M176.816,88.55c.839,1.706.653,3.515-.416,4.04s-2.615-.431-3.453-2.138-.653-3.515.416-4.04,2.615.432,3.454,2.138" transform="translate(-82.396 -41.225)"/>
        <path id="Caminho_759130" data-name="Caminho 759130" d="M206.3,79.388c.875,1.778.68,3.664-.434,4.213s-2.726-.45-3.6-2.228-.68-3.665.434-4.212,2.725.45,3.6,2.228" transform="translate(-96.395 -36.801)"/>
        <path id="Caminho_759131" data-name="Caminho 759131" d="M193.413,98.2a4.388,4.388,0,0,1-1.812.3c-.942-.039-1.137-.868-1.2-1.655a31.2,31.2,0,0,1-.06-3.6c.017-.558-.85-.558-.867,0-.036,1.131-.032,2.263.045,3.392A4.29,4.29,0,0,0,189.9,98.5c.714,1.242,2.618.972,3.739.535.514-.2.291-1.039-.23-.836" transform="translate(-90.533 -44.357)"/>
        <path id="Caminho_759132" data-name="Caminho 759132" d="M204.488,102.617a6.328,6.328,0,0,1-5.024,4.9.434.434,0,0,0,.23.836c2.746-.709,5.126-2.6,5.63-5.506.1-.546-.74-.78-.836-.23" transform="translate(-95.171 -48.888)"/>
        <path id="Caminho_759133" data-name="Caminho 759133" d="M201.83,65.842c-2.1-1.047-6.109-1.638-7.069,1.294-.292.895-.2,2.175,1,2.229a8.2,8.2,0,0,0,2.049-.586,31.839,31.839,0,0,0,4.162-.878c.364-.149.741-.407.8-.8.08-.581-.37-.98-.937-1.263" transform="translate(-93.005 -31.054)" fill="#8f8f8f"/>
        <path id="Caminho_759134" data-name="Caminho 759134" d="M168.72,73.7c-1.012.141-1.517,1.014-2.025,1.8a15.727,15.727,0,0,1-2.563,2.529,1.457,1.457,0,0,0-.45.631c-.15.558.447.8.872.9a5.662,5.662,0,0,0,5.5-1.974c1.059-1.246.926-4.2-1.335-3.885" transform="translate(-78.208 -35.208)" fill="#8f8f8f"/>
        <path id="Caminho_759135" data-name="Caminho 759135" d="M189.46,38.9a138.752,138.752,0,0,0-2.238-18.7c-.829-4.47-2.143-8.865-5.177-12.452-2.634-3.113-5.937-2.891-9.273-1.608-2.61-4.622-8.128-6.531-13.294-6.072C152.673.67,146.567,4,141.491,8.392c-2.99,2.585-5.909,4.841-9.674,6.185-2.046.73-6.12,1.039-7.239,3.306-.918,1.861.072,4.623,1.08,6.261a9.454,9.454,0,0,0,2.412,2.632c-2.557,2.119-4.716,4.988-3.1,8.339.946,1.965,3.029,2.562,5.021,2.913.209.037.417.067.625.1a5.87,5.87,0,0,0,2.237,5.17,4.777,4.777,0,0,0,6.405-.792c-.019.074-.045.148-.064.222a.434.434,0,0,0,.836.231,44.01,44.01,0,0,1,6.326-13.13,35.9,35.9,0,0,1,2.215-2.932q11.026-4.037,22.161-7.76c2.36,6.306,6.075,12.058,8.436,18.388,1.068,2.865,10.146,19.318,10.146,19.318s.459-9.927.148-17.943" transform="translate(-59.359 0)" fill="#8f8f8f"/>
        <path id="Caminho_759136" data-name="Caminho 759136" d="M235.788,58.91c0,6.359-3.445,11.514-7.7,11.514S220.4,65.269,220.4,58.91,223.843,47.4,228.093,47.4s7.7,5.155,7.7,11.514" transform="translate(-105.322 -22.649)" fill="#ffa694"/>
        <path id="Caminho_759137" data-name="Caminho 759137" d="M139.2,147.546s-2.6-10.549,1.589-17.558,6.5-9.754,7.081-14.306-2.023-7.876,0-9.682,5.78.795,7.153,6.286-1.084,9.754-1.084,13.656a16.342,16.342,0,0,0,1.5,6.817L153.07,141.4Z" transform="translate(-66.138 -50.383)" fill="#ffa694"/>
        <path id="Caminho_759138" data-name="Caminho 759138" d="M190.724,116.343c-4.916,4.266-14.74,12.642-14.74,12.642a18.476,18.476,0,0,1,2.453,3.98c.8,1.95-.572,4.187-.572,4.187a5.08,5.08,0,0,1,2.35,3.1,10.983,10.983,0,0,1,.069,3.469c-.034.277-.069.433-.069.433a3.4,3.4,0,0,1,.416.252,4.28,4.28,0,0,1,1.855,3.728c-.069,2.887-3.1,5.636-7.656,8.159s-22.04,7.951-22.04,7.951l-12.069-6.72-.789-7.9,14.445-16.309s33.095-23.046,35.7-23.478,5.566,2.237.65,6.5" transform="translate(-66.87 -52.468)" fill="#ffa694"/>
        <path id="Caminho_759139" data-name="Caminho 759139" d="M215.527,109.18a2.684,2.684,0,0,0-.78-.477c-1.708-.677-3.816.693-5.263,1.647-.347.226-.659.433-.937.589-2.272,1.309-4.681,2.766-7.344,4.448-3.424,2.167-6.849,4.448-10.161,6.65-1.2.789-2.4,1.6-3.6,2.384.26.173.538.338.815.494,1.084-.711,2.177-1.431,3.26-2.159,3.313-2.2,6.737-4.474,10.144-6.633,2.662-1.682,5.055-3.13,7.319-4.43.286-.165.616-.382.979-.616,1.4-.919,3.287-2.151,4.612-1.5a1.568,1.568,0,0,1,.391.251,2.083,2.083,0,0,1,.6,1.483c.078,1.977-1.456,3.3-2.965,4.587a.225.225,0,0,0-.061.043l-.477.4c-1.682,1.457-9.338,8.011-12.39,10.622l-1.266,1.084a.474.474,0,0,0-.147.347.44.44,0,0,0,.164.329,7.362,7.362,0,0,1,2.307,3.737,4.759,4.759,0,0,1-.5,3.824.433.433,0,0,0-.069.4.448.448,0,0,0,.294.277,5.458,5.458,0,0,1,1.106.559,4.406,4.406,0,0,1,.806.747,1.277,1.277,0,0,1,.816.028,4.007,4.007,0,0,0-1.991-1.949,5.927,5.927,0,0,0,.382-4.092,8.229,8.229,0,0,0-2.22-3.867c.442-.382,1.249-1.066,2.246-1.916,2.947-2.532,7.639-6.546,9.962-8.549.46-.391.833-.711,1.076-.919l.459-.4c1.6-1.353,3.424-2.9,3.337-5.315a2.9,2.9,0,0,0-.9-2.107" transform="translate(-89.574 -51.86)"/>
        <path id="Caminho_759140" data-name="Caminho 759140" d="M168.173,114.034a20.748,20.748,0,0,1-1.851-4.018c-.177-.526-1.014-.3-.836.231a21.879,21.879,0,0,0,1.938,4.225.434.434,0,0,0,.749-.438" transform="translate(-79.07 -52.431)"/>
        <path id="Caminho_759141" data-name="Caminho 759141" d="M206.4,164.179a.434.434,0,0,1-.235-.8l3.017-1.951a.434.434,0,0,1,.471.728l-3.017,1.951a.432.432,0,0,1-.235.069" transform="translate(-98.428 -77.11)"/>
        <path id="Caminho_759142" data-name="Caminho 759142" d="M200.174,148.837a.433.433,0,0,1-.256-.783l6.021-4.418a.434.434,0,1,1,.513.7l-6.021,4.418a.428.428,0,0,1-.256.084" transform="translate(-95.451 -68.6)"/>
        <path id="Caminho_759143" data-name="Caminho 759143" d="M214.4,175.463a.471.471,0,0,1-.113.113l-3.017,1.951a.485.485,0,0,1-.234.069.417.417,0,0,1-.364-.2.426.426,0,0,1,.129-.6l3.009-1.951a.431.431,0,0,1,.243-.069c-.035.278-.069.433-.069.433a3.4,3.4,0,0,1,.416.252" transform="translate(-100.643 -83.522)"/>
        <path id="Caminho_759144" data-name="Caminho 759144" d="M118.084,177.471l-27.42,29.3,16.582,8.562s1.409,7.044,2.493,7.044,7.107,1.518,7.478,1.084,17.232-29.7,17.232-29.7Z" transform="translate(-43.326 -84.809)" fill="#ffa694"/>
        <path id="Caminho_759145" data-name="Caminho 759145" d="M112.188,297.085a3.164,3.164,0,0,1-.867.122H45.14a3.291,3.291,0,0,1-3.173-2.437L16.979,201.19a3.368,3.368,0,0,1-.113-.867,2.92,2.92,0,0,1,.13-.867,3.264,3.264,0,0,1,3.156-2.393H86.316a3.261,3.261,0,0,1,1.916.616,3.192,3.192,0,0,1,.633.6,3.277,3.277,0,0,1,.624,1.222l25,93.58a3.282,3.282,0,0,1-2.3,4.006" transform="translate(-8.06 -94.171)" fill="#b4b2c2" stroke="#000" stroke-width="1"/>
        <path id="Caminho_759146" data-name="Caminho 759146" d="M132.707,238.264a5.1,5.1,0,0,1-4.913-3.78L123.9,219.927a5.094,5.094,0,0,1,9.842-2.633l3.894,14.557a5.1,5.1,0,0,1-4.929,6.413m-3.887-23.88a4.227,4.227,0,0,0-4.082,5.319l3.894,14.558a4.227,4.227,0,1,0,8.166-2.185L132.9,217.518a4.234,4.234,0,0,0-4.084-3.135" transform="translate(-59.125 -102.034)" stroke="#000" stroke-width="1"/>
        <path id="Caminho_759147" data-name="Caminho 759147" d="M112.188,299.275a3.164,3.164,0,0,1-.867.122L85.665,203.042l-68.8-.529a2.921,2.921,0,0,1,.13-.867l68.826.538h.512l.078.321.069.252Z" transform="translate(-8.06 -96.361)"/>
        <path id="Caminho_759148" data-name="Caminho 759148" d="M151.866,198.84l-2.385,2.289-.182.173-.6-.633.121-.113,2.411-2.315a3.192,3.192,0,0,1,.633.6" transform="translate(-71.06 -94.735)"/>
        <path id="Caminho_759149" data-name="Caminho 759149" d="M175.094,283.771l-.381,20.7s-22.2,7.318-24.113,7.8-10.907-.052-15.026-.867-11.766-1.63-15.824-2.818c-3.035-.885-2.558-3.277-2.124-4.439a4.435,4.435,0,0,1,.295-.65,12.581,12.581,0,0,1-2.5-.338c-1.361-.338-2.852-1-3.295-2.323a5.077,5.077,0,0,1-.278-2.922,1.462,1.462,0,0,1,.278-.6,2.779,2.779,0,0,1-1.318-.746,3.513,3.513,0,0,1-.85-2.835A2.861,2.861,0,0,1,113,290.968a3.475,3.475,0,0,1,.538.008,2.962,2.962,0,0,1,.069-.633,3.306,3.306,0,0,1,2.532-2.783c5.271-1.3,25.43-.035,27.6-1.951a8.316,8.316,0,0,0,2.5-4.786l-2.567-9.6a60.114,60.114,0,0,1,12.026,1.6c11.063,2.653,19.4,10.951,19.4,10.951" transform="translate(-52.541 -129.611)" fill="#ffa694"/>
        <path id="Caminho_759150" data-name="Caminho 759150" d="M303.713,371.154c-10.11,4.621-21.962,1.153-39.3-11.419-8.523-6.182-22.534-17.254-34.577-26.913-2.87-2.3-5.627-4.517-8.168-6.572-8.5-6.867-14.627-11.887-14.627-11.887l14.453-19.109s5.748,2.228,13.812,5.358c2.662,1.041,5.584,2.176,8.636,3.364,13.682,5.332,29.947,11.722,37.525,14.861,16.543,6.867,29.185,10.344,33.372,23.2s-1.006,24.485-11.124,29.115" transform="translate(-98.938 -141.094)" fill="#ffa694"/>
        <path id="Caminho_759151" data-name="Caminho 759151" d="M141.852,310.286l-.034.867s-13.8-.581-19.942-.867c-3.494-.165-5.228-1.041-6.086-1.821a3.472,3.472,0,0,1,.537.008,3.005,3.005,0,0,1,.069-.633c.7.642,2.228,1.422,5.515,1.578,6.147.286,19.942.867,19.942.867" transform="translate(-55.333 -147.109)" fill="#4f332e"/>
        <path id="Caminho_759152" data-name="Caminho 759152" d="M139.4,322.487a.442.442,0,0,1-.433.408h-.026c-.165-.009-16.586-.954-22.656-1.24a15.683,15.683,0,0,1-3.642-.546,1.457,1.457,0,0,1,.278-.6,2.782,2.782,0,0,1-1.318-.746,11.42,11.42,0,0,0,4.717,1.032c6.078.286,22.5,1.222,22.673,1.231a.441.441,0,0,1,.407.459" transform="translate(-53.332 -152.807)" fill="#4f332e"/>
        <path id="Caminho_759153" data-name="Caminho 759153" d="M144.212,334.128a.441.441,0,0,1-.433.407h-.026c-.156-.008-14.2-.815-21.113-1.162a4.5,4.5,0,0,1,.3-.65,12.532,12.532,0,0,1-2.5-.338c.225.017.459.035.7.043,6.069.286,22.5,1.231,22.664,1.24a.425.425,0,0,1,.407.46" transform="translate(-57.554 -158.838)" fill="#4f332e"/>
        <path id="Caminho_759154" data-name="Caminho 759154" d="M269.621,143.99a.433.433,0,0,1-.192-.045L266.3,142.4a.436.436,0,0,1-.161-.139l-6.591-9.346a.433.433,0,1,1,.708-.5l6.528,9.255,3.034,1.5a.434.434,0,0,1-.192.822" transform="translate(-123.992 -63.189)"/>
        <path id="Caminho_759155" data-name="Caminho 759155" d="M257.326,308.881c-3.052-1.188-5.974-2.323-8.636-3.364a25.925,25.925,0,0,1,.347,9.39,20.372,20.372,0,0,1-6.59,11.584,25.659,25.659,0,0,1-7.4,4.665c2.541,2.055,5.3,4.274,8.168,6.572a26.7,26.7,0,0,0,8.567-5.445,20.9,20.9,0,0,0,6.408-11.93,29.79,29.79,0,0,0-.867-11.471" transform="translate(-112.325 -145.999)" fill="#4f332e"/>
        <path id="Caminho_759156" data-name="Caminho 759156" d="M254.057,340.611c3.561,2.056,5.012,6.212,3.239,9.282s-6.1,3.892-9.658,1.835-5.012-6.212-3.239-9.281,6.1-3.892,9.658-1.836" transform="translate(-116.431 -162.228)" fill="#fff"/>
      </g>
    </g>
    <path id="Caminho_773575" data-name="Caminho 773575" d="M10.008,16,6.156,4.462H4.482L.252,16h1.44l.288-1.224.7-1.908,2.34-.054,2.592.054.648,1.98L8.532,16Zm-2.79-4.356-2.07.036-2.016-.036L5.22,5.956h.126ZM14.094,7.63c-1.782,0-2.844,1.008-2.844,2.376,0,2.556,3.762,2.214,3.762,3.87a1.353,1.353,0,0,1-1.494,1.242,3.542,3.542,0,0,1-2.2-.9l-.162.108-.18,1.224a5.288,5.288,0,0,0,2.394.594,2.626,2.626,0,0,0,2.934-2.52c0-2.484-3.744-2.142-3.744-3.8a1.247,1.247,0,0,1,1.368-1.17,3.123,3.123,0,0,1,1.728.594l.216-.054.2-1.17A5.248,5.248,0,0,0,14.094,7.63ZM21.978,8.8l-.234-1.1-1.332.09L22.968,16H24.5l3.024-8.244H26.244l-.288,1.116L23.85,14.578h-.09ZM29.5,11.806l5.022-.018.306-.234c.018-.216.036-.63.036-.828,0-1.944-1.044-3.1-2.844-3.1-2.358,0-3.87,1.638-3.87,4.3,0,2.592,1.386,4.212,3.744,4.212a5.644,5.644,0,0,0,2.5-.666l.144-1.206-.162-.09a4.4,4.4,0,0,1-2.412.81c-1.656,0-2.466-1.188-2.466-3.132ZM31.9,8.638c.99,0,1.692.594,1.692,1.89l-.036.216-3.96.108A2.315,2.315,0,0,1,31.9,8.638ZM42.066,16h1.44l-.072-3.582.036-2.34c.018-1.548-.918-2.43-2.754-2.43A5.666,5.666,0,0,0,38.43,8.926h-.108L38.34,7.72l-1.368.126.072,4.662L36.954,16h1.422L38.3,12.382l.018-2.268a3.569,3.569,0,0,1,2.43-1.278c.954,0,1.422.612,1.4,1.566ZM52.4,12.382l.108-9.018-1.422.126.036,4.3a7.013,7.013,0,0,0-1.584-.18c-2.5,0-4,1.548-4,4.284,0,2.664,1.278,4.194,3.672,4.194a5.986,5.986,0,0,0,1.962-1.242H51.3a1.327,1.327,0,0,0,1.26,1.26,2.592,2.592,0,0,0,1.026-.36l.126-.81-.144-.126a1.816,1.816,0,0,1-.612.108c-.378,0-.5-.18-.522-.684ZM49.356,8.62a4.2,4.2,0,0,1,1.764.45l.036,3.42-.036,1.3a2.556,2.556,0,0,1-1.98,1.1c-1.368,0-2.232-1.116-2.268-3.114C46.836,9.682,47.844,8.62,49.356,8.62Zm8.892-1.008A5.181,5.181,0,0,0,55.17,8.728l.18,1.026.144.072a3.922,3.922,0,0,1,2.538-1.188A1.3,1.3,0,0,1,59.454,10.1l-.018,1.17-2.916.684a1.854,1.854,0,0,0-1.674,1.926c0,1.386.936,2.25,2.556,2.25a5.308,5.308,0,0,0,1.926-1.35h.126A1.289,1.289,0,0,0,60.7,16.108a2.592,2.592,0,0,0,1.026-.36l.144-.81-.144-.126a1.964,1.964,0,0,1-.612.108c-.414,0-.558-.18-.558-.7,0-.63.216-3.816.216-4.446C60.768,8.422,59.8,7.612,58.248,7.612Zm1.17,4.572-.054,1.476a2.761,2.761,0,0,1-2.016,1.278,1.154,1.154,0,0,1-1.224-1.26.788.788,0,0,1,.684-.864ZM66.1,7.63c-1.782,0-2.844,1.008-2.844,2.376,0,2.556,3.762,2.214,3.762,3.87a1.353,1.353,0,0,1-1.494,1.242,3.542,3.542,0,0,1-2.2-.9l-.162.108-.18,1.224a5.288,5.288,0,0,0,2.394.594,2.626,2.626,0,0,0,2.934-2.52c0-2.484-3.744-2.142-3.744-3.8a1.247,1.247,0,0,1,1.368-1.17,3.123,3.123,0,0,1,1.728.594l.216-.054.2-1.17A5.248,5.248,0,0,0,66.1,7.63Zm8.046,4.176,5.022-.018.306-.234c.018-.216.036-.63.036-.828,0-1.944-1.044-3.1-2.844-3.1-2.358,0-3.87,1.638-3.87,4.3,0,2.592,1.386,4.212,3.744,4.212a5.644,5.644,0,0,0,2.5-.666l.144-1.206-.162-.09a4.4,4.4,0,0,1-2.412.81c-1.656,0-2.466-1.188-2.466-3.132Zm2.394-3.168c.99,0,1.692.594,1.692,1.89l-.036.216-3.96.108A2.315,2.315,0,0,1,76.536,8.638ZM83.862,7.63c-1.782,0-2.844,1.008-2.844,2.376,0,2.556,3.762,2.214,3.762,3.87a1.353,1.353,0,0,1-1.494,1.242,3.542,3.542,0,0,1-2.2-.9l-.162.108-.18,1.224a5.288,5.288,0,0,0,2.394.594,2.626,2.626,0,0,0,2.934-2.52c0-2.484-3.744-2.142-3.744-3.8A1.247,1.247,0,0,1,83.7,8.656a3.123,3.123,0,0,1,1.728.594l.216-.054.2-1.17A5.248,5.248,0,0,0,83.862,7.63Zm7,7.272c-.792,0-1.152-.324-1.134-1.3l.09-4.878h2.43l.09-.846-.072-.108H89.82l.036-1.746L89.712,5.9l-1.242.54V7.774h-1.1l-.09.846.072.108h1.134l.018,3.726-.054,1.278a2.079,2.079,0,0,0,1.926,2.376,5.189,5.189,0,0,0,1.8-.522l.144-.936-.162-.108A2.726,2.726,0,0,1,90.864,14.9Zm5.868-7.29a5.181,5.181,0,0,0-3.078,1.116l.18,1.026.144.072a3.922,3.922,0,0,1,2.538-1.188A1.3,1.3,0,0,1,97.938,10.1l-.018,1.17L95,11.95a1.854,1.854,0,0,0-1.674,1.926c0,1.386.936,2.25,2.556,2.25a5.308,5.308,0,0,0,1.926-1.35h.126a1.289,1.289,0,0,0,1.242,1.332,2.592,2.592,0,0,0,1.026-.36l.144-.81-.144-.126a1.964,1.964,0,0,1-.612.108c-.414,0-.558-.18-.558-.7,0-.63.216-3.816.216-4.446C99.252,8.422,98.28,7.612,96.732,7.612Zm1.17,4.572-.054,1.476a2.761,2.761,0,0,1-2.016,1.278,1.154,1.154,0,0,1-1.224-1.26.788.788,0,0,1,.684-.864Zm4.59-3.384-.234-1.1-1.332.09L103.482,16h1.53l3.024-8.244h-1.278l-.288,1.116-2.106,5.706h-.09Zm9.558-1.188a5.181,5.181,0,0,0-3.078,1.116l.18,1.026.144.072a3.922,3.922,0,0,1,2.538-1.188,1.3,1.3,0,0,1,1.422,1.458l-.018,1.17-2.916.684a1.854,1.854,0,0,0-1.674,1.926c0,1.386.936,2.25,2.556,2.25a5.308,5.308,0,0,0,1.926-1.35h.126a1.289,1.289,0,0,0,1.242,1.332,2.592,2.592,0,0,0,1.026-.36l.144-.81-.144-.126a1.964,1.964,0,0,1-.612.108c-.414,0-.558-.18-.558-.7,0-.63.216-3.816.216-4.446C114.57,8.422,113.6,7.612,112.05,7.612Zm1.17,4.572-.054,1.476a2.761,2.761,0,0,1-2.016,1.278,1.154,1.154,0,0,1-1.224-1.26.788.788,0,0,1,.684-.864ZM127.854,16h1.44l-.054-3.582.018-2.34c.018-1.548-.918-2.43-2.736-2.43a5.92,5.92,0,0,0-2.448,1.368h-.108c-.342-.882-1.206-1.368-2.574-1.368a5.5,5.5,0,0,0-2.268,1.278H119l.018-1.206-1.368.126.072,4.662L117.63,16h1.422l-.072-3.618.018-2.25a3.6,3.6,0,0,1,2.43-1.3c.954,0,1.422.612,1.4,1.566l-.09,5.6h1.44l-.072-3.582.036-2.34a3.552,3.552,0,0,1,2.394-1.242,1.351,1.351,0,0,1,1.422,1.566Zm10.062-8.388c-2.268,0-3.654,1.674-3.654,4.32,0,2.61,1.332,4.212,3.51,4.212a5.84,5.84,0,0,0,2.2-.468l.162-1.206-.162-.09a4.043,4.043,0,0,1-2.016.612c-1.476,0-2.34-1.206-2.34-3.132,0-1.944.846-3.078,2.25-3.078a3.5,3.5,0,0,1,1.854.612l.162-.054L140.13,8.1A5.473,5.473,0,0,0,137.916,7.612Zm6.5,0a5.181,5.181,0,0,0-3.078,1.116l.18,1.026.144.072A3.922,3.922,0,0,1,144.2,8.638,1.3,1.3,0,0,1,145.62,10.1l-.018,1.17-2.916.684a1.854,1.854,0,0,0-1.674,1.926c0,1.386.936,2.25,2.556,2.25a5.308,5.308,0,0,0,1.926-1.35h.126a1.289,1.289,0,0,0,1.242,1.332,2.592,2.592,0,0,0,1.026-.36l.144-.81-.144-.126a1.964,1.964,0,0,1-.612.108c-.414,0-.558-.18-.558-.7,0-.63.216-3.816.216-4.446C146.934,8.422,145.962,7.612,144.414,7.612Zm1.17,4.572-.054,1.476a2.761,2.761,0,0,1-2.016,1.278,1.154,1.154,0,0,1-1.224-1.26.788.788,0,0,1,.684-.864Zm5.184-8.118a.794.794,0,0,0-.846.846.739.739,0,0,0,.792.828.8.8,0,0,0,.846-.882A.737.737,0,0,0,150.768,4.066Zm.558,8.316.108-4.662-1.422.126.072,4.662L149.994,16h1.422ZM159.39,16h1.44l-.072-3.582.036-2.34c.018-1.548-.918-2.43-2.754-2.43a5.667,5.667,0,0,0-2.286,1.278h-.108l.018-1.206-1.368.126.072,4.662L154.278,16H155.7l-.072-3.618.018-2.268a3.569,3.569,0,0,1,2.43-1.278c.954,0,1.422.612,1.4,1.566Zm10.332-3.618.108-9.018-1.422.126.036,4.3a7.012,7.012,0,0,0-1.584-.18c-2.5,0-4,1.548-4,4.284,0,2.664,1.278,4.194,3.672,4.194a5.986,5.986,0,0,0,1.962-1.242h.126a1.327,1.327,0,0,0,1.26,1.26,2.592,2.592,0,0,0,1.026-.36l.126-.81-.144-.126a1.817,1.817,0,0,1-.612.108c-.378,0-.5-.18-.522-.684ZM166.68,8.62a4.2,4.2,0,0,1,1.764.45l.036,3.42-.036,1.3a2.556,2.556,0,0,1-1.98,1.1c-1.368,0-2.232-1.116-2.268-3.114C164.16,9.682,165.168,8.62,166.68,8.62Zm9.252-1.008c-2.394,0-3.762,1.6-3.762,4.374,0,2.646,1.3,4.158,3.546,4.158,2.394,0,3.744-1.6,3.744-4.374C179.46,9.124,178.164,7.612,175.932,7.612Zm-.09,1.008c1.476,0,2.286,1.188,2.286,3.474,0,2.016-.81,3.024-2.322,3.024-1.476,0-2.286-1.134-2.286-3.456C173.52,9.682,174.33,8.62,175.842,8.62Zm9.486,3.186,5.022-.018.306-.234c.018-.216.036-.63.036-.828,0-1.944-1.044-3.1-2.844-3.1-2.358,0-3.87,1.638-3.87,4.3,0,2.592,1.386,4.212,3.744,4.212a5.644,5.644,0,0,0,2.5-.666l.144-1.206-.162-.09a4.4,4.4,0,0,1-2.412.81c-1.656,0-2.466-1.188-2.466-3.132Zm2.394-3.168c.99,0,1.692.594,1.692,1.89l-.036.216-3.96.108A2.315,2.315,0,0,1,187.722,8.638Zm11.124-1.026c-2.394,0-3.762,1.6-3.762,4.374,0,2.646,1.3,4.158,3.546,4.158,2.394,0,3.744-1.6,3.744-4.374C202.374,9.124,201.078,7.612,198.846,7.612Zm-.09,1.008c1.476,0,2.286,1.188,2.286,3.474,0,2.016-.81,3.024-2.322,3.024-1.476,0-2.286-1.134-2.286-3.456C196.434,9.682,197.244,8.62,198.756,8.62Zm8.1-.99c-1.782,0-2.844,1.008-2.844,2.376,0,2.556,3.762,2.214,3.762,3.87a1.353,1.353,0,0,1-1.494,1.242,3.542,3.542,0,0,1-2.2-.9l-.162.108-.18,1.224a5.288,5.288,0,0,0,2.394.594,2.626,2.626,0,0,0,2.934-2.52c0-2.484-3.744-2.142-3.744-3.8a1.247,1.247,0,0,1,1.368-1.17,3.123,3.123,0,0,1,1.728.594l.216-.054.2-1.17A5.248,5.248,0,0,0,206.856,7.63ZM4.41,33.612c-2.268,0-3.654,1.674-3.654,4.32,0,2.61,1.332,4.212,3.51,4.212a5.84,5.84,0,0,0,2.2-.468l.162-1.206-.162-.09a4.043,4.043,0,0,1-2.016.612c-1.476,0-2.34-1.206-2.34-3.132,0-1.944.846-3.078,2.25-3.078a3.5,3.5,0,0,1,1.854.612l.162-.054L6.624,34.1A5.473,5.473,0,0,0,4.41,33.612Zm7.02,0c-2.394,0-3.762,1.6-3.762,4.374,0,2.646,1.3,4.158,3.546,4.158,2.394,0,3.744-1.6,3.744-4.374C14.958,35.124,13.662,33.612,11.43,33.612Zm-.09,1.008c1.476,0,2.286,1.188,2.286,3.474,0,2.016-.81,3.024-2.322,3.024-1.476,0-2.286-1.134-2.286-3.456C9.018,35.682,9.828,34.62,11.34,34.62ZM22.284,42h1.44l-.072-3.582.036-2.34c.018-1.548-.918-2.43-2.754-2.43a5.666,5.666,0,0,0-2.286,1.278H18.54l.018-1.206-1.368.126.072,4.662L17.172,42h1.422l-.072-3.618.018-2.268a3.569,3.569,0,0,1,2.43-1.278c.954,0,1.422.612,1.4,1.566Zm6.426-8.37c-1.782,0-2.844,1.008-2.844,2.376,0,2.556,3.762,2.214,3.762,3.87a1.353,1.353,0,0,1-1.494,1.242,3.542,3.542,0,0,1-2.2-.9l-.162.108L25.6,41.55a5.288,5.288,0,0,0,2.394.594,2.626,2.626,0,0,0,2.934-2.52c0-2.484-3.744-2.142-3.744-3.8a1.247,1.247,0,0,1,1.368-1.17,3.123,3.123,0,0,1,1.728.594l.216-.054.2-1.17A5.248,5.248,0,0,0,28.71,33.63Zm10.6.09-1.368.126V39.8a3.33,3.33,0,0,1-2.232,1.1c-.936,0-1.4-.594-1.386-1.566l.108-5.616-1.44.126.054,3.546-.018,2.286c-.018,1.548.918,2.43,2.7,2.43a5.229,5.229,0,0,0,2.232-1.26h.144a1.31,1.31,0,0,0,1.242,1.26,2.592,2.592,0,0,0,1.026-.36l.126-.81-.126-.126a1.979,1.979,0,0,1-.63.108c-.378,0-.54-.18-.54-.684ZM52.524,42h1.44l-.054-3.582.018-2.34c.018-1.548-.918-2.43-2.736-2.43a5.92,5.92,0,0,0-2.448,1.368h-.108c-.342-.882-1.206-1.368-2.574-1.368a5.5,5.5,0,0,0-2.268,1.278h-.126l.018-1.206-1.368.126.072,4.662L42.3,42h1.422l-.072-3.618.018-2.25a3.6,3.6,0,0,1,2.43-1.3c.954,0,1.422.612,1.4,1.566l-.09,5.6h1.44l-.072-3.582.036-2.34a3.552,3.552,0,0,1,2.394-1.242A1.351,1.351,0,0,1,52.632,36.4ZM57.4,30.066a.794.794,0,0,0-.846.846.739.739,0,0,0,.792.828.8.8,0,0,0,.846-.882A.737.737,0,0,0,57.4,30.066Zm.558,8.316.108-4.662-1.422.126.072,4.662L56.628,42H58.05Zm9.126,0,.108-9.018-1.422.126.036,4.3a7.013,7.013,0,0,0-1.584-.18c-2.5,0-4,1.548-4,4.284,0,2.664,1.278,4.194,3.672,4.194a5.986,5.986,0,0,0,1.962-1.242h.126a1.327,1.327,0,0,0,1.26,1.26,2.592,2.592,0,0,0,1.026-.36l.126-.81-.144-.126a1.816,1.816,0,0,1-.612.108c-.378,0-.5-.18-.522-.684ZM64.044,34.62a4.2,4.2,0,0,1,1.764.45l.036,3.42-.036,1.3a2.556,2.556,0,0,1-1.98,1.1c-1.368,0-2.232-1.116-2.268-3.114C61.524,35.682,62.532,34.62,64.044,34.62ZM73.3,33.612c-2.394,0-3.762,1.6-3.762,4.374,0,2.646,1.3,4.158,3.546,4.158,2.394,0,3.744-1.6,3.744-4.374C76.824,35.124,75.528,33.612,73.3,33.612Zm-.09,1.008c1.476,0,2.286,1.188,2.286,3.474,0,2.016-.81,3.024-2.322,3.024-1.476,0-2.286-1.134-2.286-3.456C70.884,35.682,71.694,34.62,73.206,34.62Zm9.612-.882a2.726,2.726,0,0,0-2.3,1.674h-.108l.018-1.692-1.368.126.09,4.662L79.038,42H80.46l-.09-3.618.018-1.26c.648-1.422,1.314-2,2.088-2a2.493,2.493,0,0,1,.648.09l.162-.054V33.774A3.539,3.539,0,0,0,82.818,33.738Zm2.574,4.068,5.022-.018.306-.234c.018-.216.036-.63.036-.828,0-1.944-1.044-3.1-2.844-3.1-2.358,0-3.87,1.638-3.87,4.3,0,2.592,1.386,4.212,3.744,4.212a5.644,5.644,0,0,0,2.5-.666l.144-1.206-.162-.09a4.4,4.4,0,0,1-2.412.81c-1.656,0-2.466-1.188-2.466-3.132Zm2.394-3.168c.99,0,1.692.594,1.692,1.89l-.036.216-3.96.108A2.315,2.315,0,0,1,87.786,34.638Zm7.326-1.008c-1.782,0-2.844,1.008-2.844,2.376,0,2.556,3.762,2.214,3.762,3.87a1.353,1.353,0,0,1-1.494,1.242,3.542,3.542,0,0,1-2.2-.9l-.162.108L92,41.55a5.288,5.288,0,0,0,2.394.594,2.626,2.626,0,0,0,2.934-2.52c0-2.484-3.744-2.142-3.744-3.8a1.247,1.247,0,0,1,1.368-1.17,3.123,3.123,0,0,1,1.728.594l.216-.054.2-1.17A5.248,5.248,0,0,0,95.112,33.63ZM107.586,42h1.44l-.072-3.582.036-2.34c.018-1.548-.918-2.43-2.754-2.43a5.666,5.666,0,0,0-2.286,1.278h-.108l.018-1.206-1.368.126.072,4.662L102.474,42H103.9l-.072-3.618.018-2.268a3.569,3.569,0,0,1,2.43-1.278c.954,0,1.422.612,1.4,1.566Zm9.576-11.556-.432-.45h-.144c-.468.45-.756.828-1.026.828-.45,0-2.034-.558-2.79-.648l-.18.054-1.1,1.242V31.6l.432.468h.162c.45-.45.738-.846,1.008-.846.468,0,2.052.594,2.79.666l.18-.054,1.1-1.242Zm-2.682,3.168a5.231,5.231,0,0,0-3.1,1.116l.2,1.026.144.072a3.885,3.885,0,0,1,2.538-1.188,1.3,1.3,0,0,1,1.422,1.458l-.018,1.17-2.916.684a1.854,1.854,0,0,0-1.674,1.926c0,1.386.936,2.25,2.556,2.25a5.308,5.308,0,0,0,1.926-1.35h.108a1.3,1.3,0,0,0,1.26,1.332,2.694,2.694,0,0,0,1.026-.36l.126-.81-.144-.126a1.8,1.8,0,0,1-.594.108c-.432,0-.576-.18-.576-.7,0-.63.234-3.816.234-4.446C117,34.422,116.01,33.612,114.48,33.612Zm1.17,4.572L115.6,39.66a2.791,2.791,0,0,1-2.034,1.278,1.149,1.149,0,0,1-1.206-1.26.775.775,0,0,1,.684-.864Zm7.506-4.572c-2.394,0-3.762,1.6-3.762,4.374,0,2.646,1.3,4.158,3.546,4.158,2.394,0,3.744-1.6,3.744-4.374C126.684,35.124,125.388,33.612,123.156,33.612Zm-.09,1.008c1.476,0,2.286,1.188,2.286,3.474,0,2.016-.81,3.024-2.322,3.024-1.476,0-2.286-1.134-2.286-3.456C120.744,35.682,121.554,34.62,123.066,34.62Zm11.07-.99c-1.782,0-2.844,1.008-2.844,2.376,0,2.556,3.762,2.214,3.762,3.87a1.353,1.353,0,0,1-1.494,1.242,3.542,3.542,0,0,1-2.2-.9l-.162.108-.18,1.224a5.288,5.288,0,0,0,2.394.594,2.626,2.626,0,0,0,2.934-2.52c0-2.484-3.744-2.142-3.744-3.8a1.247,1.247,0,0,1,1.368-1.17,3.123,3.123,0,0,1,1.728.594l.216-.054.2-1.17A5.248,5.248,0,0,0,134.136,33.63Zm5.076,4.176,5.022-.018.306-.234c.018-.216.036-.63.036-.828,0-1.944-1.044-3.1-2.844-3.1-2.358,0-3.87,1.638-3.87,4.3,0,2.592,1.386,4.212,3.744,4.212a5.644,5.644,0,0,0,2.5-.666l.144-1.206-.162-.09a4.4,4.4,0,0,1-2.412.81c-1.656,0-2.466-1.188-2.466-3.132Zm2.394-3.168c.99,0,1.692.594,1.692,1.89l-.036.216-3.96.108A2.315,2.315,0,0,1,141.606,34.638ZM2.2,56.066a.794.794,0,0,0-.846.846.739.739,0,0,0,.792.828.8.8,0,0,0,.846-.882A.737.737,0,0,0,2.2,56.066Zm.558,8.316.108-4.662-1.422.126.072,4.662L1.422,68H2.844Zm9.126,0,.108-9.018-1.422.126.036,4.3a7.013,7.013,0,0,0-1.584-.18c-2.5,0-4,1.548-4,4.284,0,2.664,1.278,4.194,3.672,4.194a5.986,5.986,0,0,0,1.962-1.242h.126a1.327,1.327,0,0,0,1.26,1.26,2.592,2.592,0,0,0,1.026-.36l.126-.81-.144-.126a1.816,1.816,0,0,1-.612.108c-.378,0-.5-.18-.522-.684ZM8.838,60.62a4.2,4.2,0,0,1,1.764.45l.036,3.42-.036,1.3a2.556,2.556,0,0,1-1.98,1.1c-1.368,0-2.232-1.116-2.268-3.114C6.318,61.682,7.326,60.62,8.838,60.62Zm6.84,3.186,5.022-.018.306-.234c.018-.216.036-.63.036-.828,0-1.944-1.044-3.1-2.844-3.1-2.358,0-3.87,1.638-3.87,4.3,0,2.592,1.386,4.212,3.744,4.212a5.644,5.644,0,0,0,2.5-.666l.144-1.206-.162-.09a4.4,4.4,0,0,1-2.412.81c-1.656,0-2.466-1.188-2.466-3.132Zm2.394-3.168c.99,0,1.692.594,1.692,1.89l-.036.216-3.96.108A2.315,2.315,0,0,1,18.072,60.638ZM28.242,68h1.44l-.072-3.582.036-2.34c.018-1.548-.918-2.43-2.754-2.43a5.666,5.666,0,0,0-2.286,1.278H24.5l.018-1.206-1.368.126.072,4.662L23.13,68h1.422l-.072-3.618.018-2.268a3.569,3.569,0,0,1,2.43-1.278c.954,0,1.422.612,1.4,1.566Zm6.768-1.1c-.792,0-1.152-.324-1.134-1.3l.09-4.878H36.4l.09-.846-.072-.108H33.966L34,58.028l-.144-.126-1.242.54v1.332h-1.1l-.09.846.072.108h1.134l.018,3.726L32.6,65.732a2.079,2.079,0,0,0,1.926,2.376,5.189,5.189,0,0,0,1.8-.522l.144-.936-.162-.108A2.726,2.726,0,0,1,35.01,66.9Zm3.906-10.836a.794.794,0,0,0-.846.846.739.739,0,0,0,.792.828.8.8,0,0,0,.846-.882A.737.737,0,0,0,38.916,56.066Zm.558,8.316.108-4.662-1.422.126.072,4.662L38.142,68h1.422Zm6.786-9.054c-2.34,0-3.4,1.044-3.4,3.348v1.1H41.652l-.09.846.072.108h1.242l.036,3.78L42.8,68h1.422l-.09-3.6.054-3.672h3.978l.072,3.8L48.132,68h1.44l-.108-3.582.108-4.7-.108-.054-.846.108H44.19l.018-1.368c0-1.4.594-2.034,1.89-2.034a4.737,4.737,0,0,1,2.124.558l.18-.054.18-1.188A8.1,8.1,0,0,0,46.26,55.328Zm9.018,4.284c-2.268,0-3.654,1.674-3.654,4.32,0,2.61,1.332,4.212,3.51,4.212a5.84,5.84,0,0,0,2.2-.468l.162-1.206-.162-.09a4.043,4.043,0,0,1-2.016.612c-1.476,0-2.34-1.206-2.34-3.132,0-1.944.846-3.078,2.25-3.078a3.5,3.5,0,0,1,1.854.612l.162-.054.252-1.242A5.473,5.473,0,0,0,55.278,59.612Zm6.5,0A5.181,5.181,0,0,0,58.7,60.728l.18,1.026.144.072a3.922,3.922,0,0,1,2.538-1.188A1.3,1.3,0,0,1,62.982,62.1l-.018,1.17-2.916.684a1.854,1.854,0,0,0-1.674,1.926c0,1.386.936,2.25,2.556,2.25a5.308,5.308,0,0,0,1.926-1.35h.126a1.289,1.289,0,0,0,1.242,1.332,2.592,2.592,0,0,0,1.026-.36l.144-.81-.144-.126a1.964,1.964,0,0,1-.612.108c-.414,0-.558-.18-.558-.7,0-.63.216-3.816.216-4.446C64.3,60.422,63.324,59.612,61.776,59.612Zm1.17,4.572-.054,1.476a2.761,2.761,0,0,1-2.016,1.278,1.154,1.154,0,0,1-1.224-1.26.788.788,0,0,1,.684-.864Zm4.59-3.384L67.3,59.7l-1.332.09L68.526,68h1.53l3.024-8.244H71.8l-.288,1.116-2.106,5.706h-.09Zm9.558-1.188a5.181,5.181,0,0,0-3.078,1.116l.18,1.026.144.072a3.922,3.922,0,0,1,2.538-1.188A1.3,1.3,0,0,1,78.3,62.1l-.018,1.17-2.916.684a1.854,1.854,0,0,0-1.674,1.926c0,1.386.936,2.25,2.556,2.25a5.308,5.308,0,0,0,1.926-1.35H78.3a1.289,1.289,0,0,0,1.242,1.332,2.592,2.592,0,0,0,1.026-.36l.144-.81-.144-.126a1.964,1.964,0,0,1-.612.108c-.414,0-.558-.18-.558-.7,0-.63.216-3.816.216-4.446C79.614,60.422,78.642,59.612,77.094,59.612Zm1.17,4.572L78.21,65.66a2.761,2.761,0,0,1-2.016,1.278,1.154,1.154,0,0,1-1.224-1.26.788.788,0,0,1,.684-.864ZM92.9,68h1.44l-.054-3.582.018-2.34c.018-1.548-.918-2.43-2.736-2.43a5.92,5.92,0,0,0-2.448,1.368H89.01c-.342-.882-1.206-1.368-2.574-1.368a5.5,5.5,0,0,0-2.268,1.278h-.126l.018-1.206-1.368.126.072,4.662L82.674,68H84.1l-.072-3.618.018-2.25a3.6,3.6,0,0,1,2.43-1.3c.954,0,1.422.612,1.4,1.566l-.09,5.6h1.44l-.072-3.582.036-2.34a3.552,3.552,0,0,1,2.394-1.242A1.351,1.351,0,0,1,93.006,62.4Zm10.062-8.388c-2.268,0-3.654,1.674-3.654,4.32,0,2.61,1.332,4.212,3.51,4.212a5.84,5.84,0,0,0,2.2-.468l.162-1.206-.162-.09a4.043,4.043,0,0,1-2.016.612c-1.476,0-2.34-1.206-2.34-3.132,0-1.944.846-3.078,2.25-3.078a3.5,3.5,0,0,1,1.854.612l.162-.054.252-1.242A5.473,5.473,0,0,0,102.96,59.612Zm7.02,0c-2.394,0-3.762,1.6-3.762,4.374,0,2.646,1.3,4.158,3.546,4.158,2.394,0,3.744-1.6,3.744-4.374C113.508,61.124,112.212,59.612,109.98,59.612Zm-.09,1.008c1.476,0,2.286,1.188,2.286,3.474,0,2.016-.81,3.024-2.322,3.024-1.476,0-2.286-1.134-2.286-3.456C107.568,61.682,108.378,60.62,109.89,60.62ZM125.946,68h1.44l-.054-3.582.018-2.34c.018-1.548-.918-2.43-2.736-2.43a5.92,5.92,0,0,0-2.448,1.368h-.108c-.342-.882-1.206-1.368-2.574-1.368a5.5,5.5,0,0,0-2.268,1.278h-.126l.018-1.206-1.368.126.072,4.662L115.722,68h1.422l-.072-3.618.018-2.25a3.6,3.6,0,0,1,2.43-1.3c.954,0,1.422.612,1.4,1.566l-.09,5.6h1.44l-.072-3.582.036-2.34a3.552,3.552,0,0,1,2.394-1.242,1.351,1.351,0,0,1,1.422,1.566Zm9.81-8.388a5.181,5.181,0,0,0-3.078,1.116l.18,1.026.144.072a3.922,3.922,0,0,1,2.538-1.188,1.3,1.3,0,0,1,1.422,1.458l-.018,1.17-2.916.684a1.854,1.854,0,0,0-1.674,1.926c0,1.386.936,2.25,2.556,2.25a5.308,5.308,0,0,0,1.926-1.35h.126a1.289,1.289,0,0,0,1.242,1.332,2.592,2.592,0,0,0,1.026-.36l.144-.81-.144-.126a1.964,1.964,0,0,1-.612.108c-.414,0-.558-.18-.558-.7,0-.63.216-3.816.216-4.446C138.276,60.422,137.3,59.612,135.756,59.612Zm1.17,4.572-.054,1.476a2.761,2.761,0,0,1-2.016,1.278,1.154,1.154,0,0,1-1.224-1.26.788.788,0,0,1,.684-.864ZM143.6,59.63c-1.782,0-2.844,1.008-2.844,2.376,0,2.556,3.762,2.214,3.762,3.87a1.353,1.353,0,0,1-1.494,1.242,3.542,3.542,0,0,1-2.2-.9l-.162.108-.18,1.224a5.288,5.288,0,0,0,2.394.594,2.626,2.626,0,0,0,2.934-2.52c0-2.484-3.744-2.142-3.744-3.8a1.247,1.247,0,0,1,1.368-1.17,3.123,3.123,0,0,1,1.728.594l.216-.054.2-1.17A5.248,5.248,0,0,0,143.6,59.63Zm10.836-4.3a2.683,2.683,0,0,0-2.952,3.006l.018,1.44h-1.224l-.09.846.072.108h1.242l.036,3.762L151.434,68h1.422l-.09-3.618.036-3.654h2.142l.09-.846-.054-.108h-2.16l.018-1.656c.018-1.17.54-1.746,1.476-1.746a2.714,2.714,0,0,1,1.314.324l.108-.09.108-1.116A6.729,6.729,0,0,0,154.44,55.328Zm5.76,4.41a2.726,2.726,0,0,0-2.3,1.674h-.108l.018-1.692-1.368.126.09,4.662L156.42,68h1.422l-.09-3.618.018-1.26c.648-1.422,1.314-2,2.088-2a2.492,2.492,0,0,1,.648.09l.162-.054V59.774A3.539,3.539,0,0,0,160.2,59.738Zm4.59-.126a5.181,5.181,0,0,0-3.078,1.116l.18,1.026.144.072a3.922,3.922,0,0,1,2.538-1.188A1.3,1.3,0,0,1,166,62.1l-.018,1.17-2.916.684a1.854,1.854,0,0,0-1.674,1.926c0,1.386.936,2.25,2.556,2.25a5.308,5.308,0,0,0,1.926-1.35H166a1.289,1.289,0,0,0,1.242,1.332,2.592,2.592,0,0,0,1.026-.36l.144-.81-.144-.126a1.964,1.964,0,0,1-.612.108c-.414,0-.558-.18-.558-.7,0-.63.216-3.816.216-4.446C167.31,60.422,166.338,59.612,164.79,59.612Zm1.17,4.572-.054,1.476a2.761,2.761,0,0,1-2.016,1.278,1.154,1.154,0,0,1-1.224-1.26.788.788,0,0,1,.684-.864Zm6.678-4.554c-1.782,0-2.844,1.008-2.844,2.376,0,2.556,3.762,2.214,3.762,3.87a1.353,1.353,0,0,1-1.494,1.242,3.542,3.542,0,0,1-2.2-.9l-.162.108-.18,1.224a5.288,5.288,0,0,0,2.394.594,2.626,2.626,0,0,0,2.934-2.52c0-2.484-3.744-2.142-3.744-3.8a1.247,1.247,0,0,1,1.368-1.17,3.123,3.123,0,0,1,1.728.594l.216-.054.2-1.17A5.248,5.248,0,0,0,172.638,59.63Zm5.076,4.176,5.022-.018.306-.234c.018-.216.036-.63.036-.828,0-1.944-1.044-3.1-2.844-3.1-2.358,0-3.87,1.638-3.87,4.3,0,2.592,1.386,4.212,3.744,4.212a5.644,5.644,0,0,0,2.5-.666l.144-1.206-.162-.09a4.4,4.4,0,0,1-2.412.81c-1.656,0-2.466-1.188-2.466-3.132Zm2.394-3.168c.99,0,1.692.594,1.692,1.89l-.036.216-3.96.108A2.315,2.315,0,0,1,180.108,60.638Zm7.326-1.008c-1.782,0-2.844,1.008-2.844,2.376,0,2.556,3.762,2.214,3.762,3.87a1.353,1.353,0,0,1-1.494,1.242,3.542,3.542,0,0,1-2.2-.9l-.162.108-.18,1.224a5.288,5.288,0,0,0,2.394.594,2.626,2.626,0,0,0,2.934-2.52c0-2.484-3.744-2.142-3.744-3.8a1.247,1.247,0,0,1,1.368-1.17A3.123,3.123,0,0,1,189,61.25l.216-.054.2-1.17A5.248,5.248,0,0,0,187.434,59.63Zm8.046,4.176,5.022-.018.306-.234c.018-.216.036-.63.036-.828,0-1.944-1.044-3.1-2.844-3.1-2.358,0-3.87,1.638-3.87,4.3,0,2.592,1.386,4.212,3.744,4.212a5.644,5.644,0,0,0,2.5-.666l.144-1.206-.162-.09a4.4,4.4,0,0,1-2.412.81c-1.656,0-2.466-1.188-2.466-3.132Zm2.394-3.168c.99,0,1.692.594,1.692,1.89l-.036.216-3.96.108A2.315,2.315,0,0,1,197.874,60.638ZM5.2,85.738a2.726,2.726,0,0,0-2.3,1.674H2.79l.018-1.692-1.368.126.09,4.662L1.422,94H2.844l-.09-3.618.018-1.26c.648-1.422,1.314-2,2.088-2a2.493,2.493,0,0,1,.648.09l.162-.054V85.774A3.539,3.539,0,0,0,5.2,85.738Zm2.574,4.068,5.022-.018.306-.234c.018-.216.036-.63.036-.828,0-1.944-1.044-3.1-2.844-3.1-2.358,0-3.87,1.638-3.87,4.3,0,2.592,1.386,4.212,3.744,4.212a5.644,5.644,0,0,0,2.5-.666l.144-1.206-.162-.09a4.4,4.4,0,0,1-2.412.81c-1.656,0-2.466-1.188-2.466-3.132Zm2.394-3.168c.99,0,1.692.594,1.692,1.89l-.036.216-3.96.108A2.315,2.315,0,0,1,10.17,86.638Zm8.532-5.31a2.683,2.683,0,0,0-2.952,3.006l.018,1.44H14.544l-.09.846.072.108h1.242L15.8,90.49,15.7,94h1.422l-.09-3.618.036-3.654h2.142l.09-.846-.054-.108h-2.16l.018-1.656c.018-1.17.54-1.746,1.476-1.746a2.713,2.713,0,0,1,1.314.324l.108-.09.108-1.116A6.729,6.729,0,0,0,18.7,81.328Zm2.358,8.478,5.022-.018.306-.234c.018-.216.036-.63.036-.828,0-1.944-1.044-3.1-2.844-3.1-2.358,0-3.87,1.638-3.87,4.3,0,2.592,1.386,4.212,3.744,4.212a5.644,5.644,0,0,0,2.5-.666l.144-1.206-.162-.09a4.4,4.4,0,0,1-2.412.81c-1.656,0-2.466-1.188-2.466-3.132Zm2.394-3.168c.99,0,1.692.594,1.692,1.89l-.036.216-3.96.108A2.315,2.315,0,0,1,23.454,86.638Zm8.838-.9a2.726,2.726,0,0,0-2.3,1.674H29.88L29.9,85.72l-1.368.126.09,4.662L28.512,94h1.422l-.09-3.618.018-1.26c.648-1.422,1.314-2,2.088-2a2.493,2.493,0,0,1,.648.09l.162-.054V85.774A3.539,3.539,0,0,0,32.292,85.738Zm2.88-1.152h.18c.666-.648,1.278-1.26,1.836-1.872.54.612,1.152,1.224,1.836,1.872h.162l.4-.576A28.29,28.29,0,0,1,37.4,81.6h-.432c-.774.918-1.494,1.71-2.2,2.412Zm-.306,5.22,5.022-.018.288-.234a6.608,6.608,0,0,0,.054-.828c0-1.944-1.062-3.1-2.862-3.1-2.34,0-3.852,1.638-3.852,4.3,0,2.592,1.368,4.212,3.726,4.212a5.582,5.582,0,0,0,2.5-.666l.162-1.206-.162-.09a4.444,4.444,0,0,1-2.412.81c-1.656,0-2.466-1.188-2.466-3.132Zm2.394-3.168c.99,0,1.674.594,1.674,1.89l-.036.216-3.942.108A2.315,2.315,0,0,1,37.26,86.638ZM47.43,94h1.44L48.8,90.418l.036-2.34c.018-1.548-.918-2.43-2.754-2.43a5.666,5.666,0,0,0-2.286,1.278h-.108L43.7,85.72l-1.368.126.072,4.662L42.318,94H43.74l-.072-3.618.018-2.268a3.569,3.569,0,0,1,2.43-1.278c.954,0,1.422.612,1.4,1.566Zm7.146-8.388c-2.268,0-3.654,1.674-3.654,4.32,0,2.61,1.332,4.212,3.51,4.212a5.84,5.84,0,0,0,2.2-.468l.162-1.206-.162-.09a4.043,4.043,0,0,1-2.016.612c-1.476,0-2.34-1.206-2.34-3.132,0-1.944.846-3.078,2.25-3.078a3.5,3.5,0,0,1,1.854.612l.162-.054L56.79,86.1A5.473,5.473,0,0,0,54.576,85.612Zm4.716-3.546a.794.794,0,0,0-.846.846.739.739,0,0,0,.792.828.8.8,0,0,0,.846-.882A.737.737,0,0,0,59.292,82.066Zm.558,8.316.108-4.662-1.422.126.072,4.662L58.518,94H59.94Zm5.688-4.77a5.181,5.181,0,0,0-3.078,1.116l.18,1.026.144.072a3.922,3.922,0,0,1,2.538-1.188A1.3,1.3,0,0,1,66.744,88.1l-.018,1.17-2.916.684a1.854,1.854,0,0,0-1.674,1.926c0,1.386.936,2.25,2.556,2.25a5.308,5.308,0,0,0,1.926-1.35h.126a1.289,1.289,0,0,0,1.242,1.332,2.592,2.592,0,0,0,1.026-.36l.144-.81-.144-.126a1.964,1.964,0,0,1-.612.108c-.414,0-.558-.18-.558-.7,0-.63.216-3.816.216-4.446C68.058,86.422,67.086,85.612,65.538,85.612Zm1.17,4.572-.054,1.476a2.761,2.761,0,0,1-2.016,1.278,1.154,1.154,0,0,1-1.224-1.26.788.788,0,0,1,.684-.864Zm6.678-4.554c-1.782,0-2.844,1.008-2.844,2.376,0,2.556,3.762,2.214,3.762,3.87a1.353,1.353,0,0,1-1.494,1.242,3.542,3.542,0,0,1-2.2-.9l-.162.108-.18,1.224a5.288,5.288,0,0,0,2.394.594,2.626,2.626,0,0,0,2.934-2.52c0-2.484-3.744-2.142-3.744-3.8a1.247,1.247,0,0,1,1.368-1.17,3.123,3.123,0,0,1,1.728.594l.216-.054.2-1.17A5.248,5.248,0,0,0,73.386,85.63Zm13.536,4.752.108-9.018-1.422.126.036,4.3a7.013,7.013,0,0,0-1.584-.18c-2.5,0-4,1.548-4,4.284,0,2.664,1.278,4.194,3.672,4.194A5.986,5.986,0,0,0,85.7,92.848h.126a1.327,1.327,0,0,0,1.26,1.26,2.592,2.592,0,0,0,1.026-.36l.126-.81-.144-.126a1.816,1.816,0,0,1-.612.108c-.378,0-.5-.18-.522-.684ZM83.88,86.62a4.2,4.2,0,0,1,1.764.45l.036,3.42-.036,1.3a2.556,2.556,0,0,1-1.98,1.1c-1.368,0-2.232-1.116-2.268-3.114C81.36,87.682,82.368,86.62,83.88,86.62Zm8.892-1.008a5.181,5.181,0,0,0-3.078,1.116l.18,1.026.144.072a3.922,3.922,0,0,1,2.538-1.188A1.3,1.3,0,0,1,93.978,88.1l-.018,1.17-2.916.684a1.854,1.854,0,0,0-1.674,1.926c0,1.386.936,2.25,2.556,2.25a5.308,5.308,0,0,0,1.926-1.35h.126a1.289,1.289,0,0,0,1.242,1.332,2.592,2.592,0,0,0,1.026-.36l.144-.81-.144-.126a1.964,1.964,0,0,1-.612.108c-.414,0-.558-.18-.558-.7,0-.63.216-3.816.216-4.446C95.292,86.422,94.32,85.612,92.772,85.612Zm1.17,4.572-.054,1.476a2.761,2.761,0,0,1-2.016,1.278,1.154,1.154,0,0,1-1.224-1.26.788.788,0,0,1,.684-.864Zm10.548-4.536-.7.288a8.049,8.049,0,0,0-2.16-.324c-2.466,0-3.96,1.512-3.96,4.338,0,2.592,1.26,4.14,3.6,4.14a5.778,5.778,0,0,0,1.854-1.062h.144v.342l-.054,3.96h1.4l-.09-6.912.108-4.68Zm-3.024.99a3.913,3.913,0,0,1,1.782.486l.036,3.438-.018,1.224a2.757,2.757,0,0,1-2.07,1.1c-1.332,0-2.16-1.116-2.2-3.06C98.964,87.664,99.972,86.638,101.466,86.638Zm12.2-.918-1.368.126V91.8a3.33,3.33,0,0,1-2.232,1.1c-.936,0-1.4-.594-1.386-1.566l.108-5.616-1.44.126.054,3.546-.018,2.286c-.018,1.548.918,2.43,2.7,2.43a5.229,5.229,0,0,0,2.232-1.26h.144a1.31,1.31,0,0,0,1.242,1.26,2.592,2.592,0,0,0,1.026-.36l.126-.81-.126-.126a1.979,1.979,0,0,1-.63.108c-.378,0-.54-.18-.54-.684Zm3.672,4.086,5.022-.018.306-.234c.018-.216.036-.63.036-.828,0-1.944-1.044-3.1-2.844-3.1-2.358,0-3.87,1.638-3.87,4.3,0,2.592,1.386,4.212,3.744,4.212a5.644,5.644,0,0,0,2.5-.666l.144-1.206-.162-.09a4.4,4.4,0,0,1-2.412.81c-1.656,0-2.466-1.188-2.466-3.132Zm2.394-3.168c.99,0,1.692.594,1.692,1.89l-.036.216-3.96.108A2.315,2.315,0,0,1,119.736,86.638Zm6.462,3.744.108-9.018-1.422.126.09,9L124.866,94h1.422Zm5.76-4.77a5.181,5.181,0,0,0-3.078,1.116l.18,1.026.144.072a3.922,3.922,0,0,1,2.538-1.188,1.3,1.3,0,0,1,1.422,1.458l-.018,1.17-2.916.684a1.854,1.854,0,0,0-1.674,1.926c0,1.386.936,2.25,2.556,2.25a5.308,5.308,0,0,0,1.926-1.35h.126a1.289,1.289,0,0,0,1.242,1.332,2.592,2.592,0,0,0,1.026-.36l.144-.81-.144-.126a1.964,1.964,0,0,1-.612.108c-.414,0-.558-.18-.558-.7,0-.63.216-3.816.216-4.446C134.478,86.422,133.506,85.612,131.958,85.612Zm1.17,4.572-.054,1.476a2.761,2.761,0,0,1-2.016,1.278,1.154,1.154,0,0,1-1.224-1.26.788.788,0,0,1,.684-.864Zm13.554.2.108-9.018-1.422.126.036,4.3a7.013,7.013,0,0,0-1.584-.18c-2.5,0-4,1.548-4,4.284,0,2.664,1.278,4.194,3.672,4.194a5.986,5.986,0,0,0,1.962-1.242h.126a1.327,1.327,0,0,0,1.26,1.26,2.592,2.592,0,0,0,1.026-.36l.126-.81-.144-.126a1.816,1.816,0,0,1-.612.108c-.378,0-.5-.18-.522-.684ZM143.64,86.62a4.2,4.2,0,0,1,1.764.45l.036,3.42-.036,1.3a2.556,2.556,0,0,1-1.98,1.1c-1.368,0-2.232-1.116-2.268-3.114C141.12,87.682,142.128,86.62,143.64,86.62Zm8.226-1.98.162.018c1.026-.72,2-1.458,3.06-2.286l.036-.144-.54-.756-.162-.018c-1.008.99-1.962,1.8-2.952,2.61Zm-1.386,5.166,5.022-.018.288-.234a6.609,6.609,0,0,0,.054-.828c0-1.944-1.062-3.1-2.862-3.1-2.34,0-3.852,1.638-3.852,4.3,0,2.592,1.368,4.212,3.726,4.212a5.582,5.582,0,0,0,2.5-.666l.162-1.206-.162-.09a4.444,4.444,0,0,1-2.412.81c-1.656,0-2.466-1.188-2.466-3.132Zm2.394-3.168c.99,0,1.674.594,1.674,1.89l-.036.216-3.942.108A2.315,2.315,0,0,1,152.874,86.638Zm8.046-1.026c-2.268,0-3.654,1.674-3.654,4.32,0,2.61,1.332,4.212,3.51,4.212a5.84,5.84,0,0,0,2.2-.468l.162-1.206-.162-.09a4.043,4.043,0,0,1-2.016.612c-1.476,0-2.34-1.206-2.34-3.132,0-1.944.846-3.078,2.25-3.078a3.5,3.5,0,0,1,1.854.612l.162-.054.252-1.242A5.473,5.473,0,0,0,160.92,85.612Zm6.5,0a5.181,5.181,0,0,0-3.078,1.116l.18,1.026.144.072a3.922,3.922,0,0,1,2.538-1.188,1.3,1.3,0,0,1,1.422,1.458l-.018,1.17-2.916.684a1.854,1.854,0,0,0-1.674,1.926c0,1.386.936,2.25,2.556,2.25a5.308,5.308,0,0,0,1.926-1.35h.126a1.289,1.289,0,0,0,1.242,1.332,2.592,2.592,0,0,0,1.026-.36l.144-.81-.144-.126a1.964,1.964,0,0,1-.612.108c-.414,0-.558-.18-.558-.7,0-.63.216-3.816.216-4.446C169.938,86.422,168.966,85.612,167.418,85.612Zm1.17,4.572-.054,1.476a2.761,2.761,0,0,1-2.016,1.278,1.154,1.154,0,0,1-1.224-1.26.788.788,0,0,1,.684-.864Zm10.584.2.108-9.018-1.422.126.036,4.3a7.013,7.013,0,0,0-1.584-.18c-2.5,0-4,1.548-4,4.284,0,2.664,1.278,4.194,3.672,4.194a5.986,5.986,0,0,0,1.962-1.242h.126a1.327,1.327,0,0,0,1.26,1.26,2.592,2.592,0,0,0,1.026-.36l.126-.81-.144-.126a1.816,1.816,0,0,1-.612.108c-.378,0-.5-.18-.522-.684ZM176.13,86.62a4.2,4.2,0,0,1,1.764.45l.036,3.42-.036,1.3a2.556,2.556,0,0,1-1.98,1.1c-1.368,0-2.232-1.116-2.268-3.114C173.61,87.682,174.618,86.62,176.13,86.62Zm8.892-1.008a5.181,5.181,0,0,0-3.078,1.116l.18,1.026.144.072a3.922,3.922,0,0,1,2.538-1.188,1.3,1.3,0,0,1,1.422,1.458l-.018,1.17-2.916.684a1.854,1.854,0,0,0-1.674,1.926c0,1.386.936,2.25,2.556,2.25a5.308,5.308,0,0,0,1.926-1.35h.126a1.289,1.289,0,0,0,1.242,1.332,2.592,2.592,0,0,0,1.026-.36l.144-.81-.144-.126a1.964,1.964,0,0,1-.612.108c-.414,0-.558-.18-.558-.7,0-.63.216-3.816.216-4.446C187.542,86.422,186.57,85.612,185.022,85.612Zm1.17,4.572-.054,1.476a2.761,2.761,0,0,1-2.016,1.278,1.154,1.154,0,0,1-1.224-1.26.788.788,0,0,1,.684-.864Zm5.076,2.232a.794.794,0,0,0-.846.846.739.739,0,0,0,.792.828.8.8,0,0,0,.846-.864A.742.742,0,0,0,191.268,92.416Z" transform="translate(74.599 12249.292)" fill="#fff"/>
  </g>
</svg>
