<svg xmlns="http://www.w3.org/2000/svg" xmlns:xlink="http://www.w3.org/1999/xlink" width="677.487" height="385.766" viewBox="0 0 677.487 385.766">
  <defs>
    <clipPath id="clip-path">
      <rect id="Ret창ngulo_124885" data-name="Ret창ngulo 124885" width="394.216" height="256.843" fill="#40bbff"/>
    </clipPath>
    <clipPath id="clip-path-2">
      <rect id="Ret창ngulo_124863" data-name="Ret창ngulo 124863" width="334.557" height="355.719" fill="none"/>
    </clipPath>
    <linearGradient id="linear-gradient" x1="0.5" y1="0.164" x2="0.5" y2="1" gradientUnits="objectBoundingBox">
      <stop offset="0" stop-color="#64dadb"/>
      <stop offset="1" stop-color="#4dc5f2"/>
    </linearGradient>
  </defs>
  <g id="_img_joaomaria_16_" data-name="&lt;img joaomaria_16&gt;" transform="translate(-122.146 -32.117)">
    <g id="Grupo_233472" data-name="Grupo 233472" transform="translate(259.593 32.117)" opacity="0.25">
      <g id="Grupo_233471" data-name="Grupo 233471" clip-path="url(#clip-path)">
        <path id="Caminho_770281" data-name="Caminho 770281" d="M393.6,42.294c-.143-1.426.132-2.862.117-4.288-.018-1.685-.139-3.375-.171-5.062h0a.492.492,0,0,0,.227-.482q.009-5.281.018-10.562,0-.691.009-1.382h0c.066-4.043.086-8.086,0-12.129A3.617,3.617,0,0,0,393.939,8a4.7,4.7,0,0,0,.02-3.1c0-.1,0-.194,0-.29-.067-1.067-.14-1.645-.428-1.956v0c-.032-.68-.293-.913-1.275-1.091a7.1,7.1,0,0,0-3.1-.013c-.1,0-.193,0-.29,0-1.649.068-2.128.146-2.264.736l-7.707-.013c-.461-.424-1.014-.248-1.526-.253-6.689-.069-13.376-.031-20.063.264-1.978.087-3.963.011-5.945.009-2.918-.366-5.858-.355-8.784-.5-1.194-.061-2.39-.091-3.586-.105a7.294,7.294,0,0,0-1.829-.833,5.132,5.132,0,0,0-4.693.855c-.845.007-1.691.013-2.535.012l-6.884.015c-1.924.014-3.848.123-5.768.18-2.124.064-4.246.215-6.37.305a6.452,6.452,0,0,0-2.637-1.5,5.013,5.013,0,0,0-4.9,1.137c-.084.07-.158.147-.233.222a3.119,3.119,0,0,0-.543-.039c-2.92.093-5.819-.446-8.738-.307-.343.017-.7-.057-.985.254h0c-2.5-.1-5,.05-7.507-.21-2.138-.222-4.309-.07-6.465-.084-.372-.379-.834-.248-1.262-.251-1.343-.01-2.685-.009-4.028-.011A6.973,6.973,0,0,0,271.423.333a5.194,5.194,0,0,0-5.076,1.178c-.017.015-.032.03-.049.045-2.592.225-5.183.439-7.786.438-2.468,0-4.937-.011-7.406-.016-.315-.379-.733-.266-1.117-.266q-1.535,0-3.069,0a7.236,7.236,0,0,0-1.879-.868,5.136,5.136,0,0,0-4.713.871l-8.018,0-.786-.006-2.091-.035h0c-.416-.406-.923-.23-1.393-.248-2.563-.1-5.124-.013-7.684.09A7.024,7.024,0,0,0,218.064.36a5.255,5.255,0,0,0-5.134,1.192c-.055.046-.1.1-.153.146-.145,0-.29,0-.435,0-.924-.02-1.85.006-2.775.011-3.678.113-7.356-.179-11.04.233-1.773.2-3.571.075-5.36.181A7.026,7.026,0,0,0,190.885.967a5.254,5.254,0,0,0-5.134,1.192,3.585,3.585,0,0,0-.419.422,2.752,2.752,0,0,1-.826-.032c-2.218-.468-4.454-.2-6.682-.239-3.965.115-7.916-.385-11.88-.332A.9.9,0,0,0,165.3,1.7a6.889,6.889,0,0,0-2.5-1.33,5.237,5.237,0,0,0-5.116,1.188,3.722,3.722,0,0,0-.39.382c-4.132.169-8.275.035-12.413.031a2.208,2.208,0,0,1-.527-.032c-1.9-.473-3.849-.218-5.773-.463a22.877,22.877,0,0,0-3.583-.1A7.027,7.027,0,0,0,132.728.239a5.255,5.255,0,0,0-5.134,1.192,3.669,3.669,0,0,0-.273.256h-2.9c-.416-.406-.925-.256-1.393-.245-3.735.09-7.47.029-11.209.164q-1.2.043-2.394.094a7.26,7.26,0,0,0-1.86-.854,5.221,5.221,0,0,0-5.024,1.108c-2.182.059-4.366.084-6.551.033-3.125-.072-6.254,0-9.38.024-.468,0-.978-.154-1.39.26l-.132,0A6.848,6.848,0,0,0,82.475.846a5.255,5.255,0,0,0-5.134,1.192c-.091.077-.176.157-.258.241l-3.995-.006c-.275-.326-.638-.26-.981-.261q-4.585-.006-9.17,0a1.468,1.468,0,0,0-.793.105A7.033,7.033,0,0,0,59.872.967a5.179,5.179,0,0,0-4.886,1c-.842-.021-1.669.373-2.522.3h0c-.361-.406-.826-.261-1.252-.262q-9.041-.018-18.082-.016c-.62.012-1.188-.3-1.819-.294-3.037.032-6.075.04-9.113.009-.624-.007-1.2.428-1.816.208a7.368,7.368,0,0,0-2.356-.2c-3.7-.12-7.409.159-11.108-.095-.086-.02-.174-.039-.275-.058a8.216,8.216,0,0,0-2.4-.142c-.109,0-.218.008-.326.016a3.824,3.824,0,0,0-.741.118C1.111,1.636.938,1.75.934,2.954q-.016,4.2-.022,8.409c-.424.3-.248.661-.253.994C.59,16.716.628,21.074.923,25.43c.087,1.289.011,2.582.009,3.874a51.115,51.115,0,0,0-.5,5.724C.211,37.769.362,40.519.356,43.266l.015,4.486c.014,1.254.123,2.508.18,3.758.094,2.025.384,4.046.377,6.073,0,.8,0,1.6,0,2.4a4.068,4.068,0,0,0-.252,1.09c.093,1.9-.446,3.792-.307,5.694.017.223-.057.459.254.642h0c-.1,1.629.05,3.258-.21,4.891A28.351,28.351,0,0,0,.33,76.514c-.379.242-.248.543-.251.823C.062,78.831.059,80.324.06,81.818A16.369,16.369,0,0,0,.1,83.971,44.214,44.214,0,0,1,.639,89.8c0,1.609-.011,3.217-.016,4.826-.379.205-.266.477-.266.727q0,5.76.008,11.52l-.006.512q-.018.681-.035,1.362h0c-.406.271-.23.6-.248.908-.208,3.412.377,6.817.266,10.228-.02.6.006,1.205.011,1.808.113,2.4-.179,4.793.233,7.193.257,1.5-.031,3.024.349,4.527h0c0,.943-.007,1.886.017,2.829.015.6.436,1.181.243,1.781-.468,1.445-.2,2.9-.239,4.354.115,2.583-.385,5.158-.332,7.741-.387.24-.261.542-.261.821.005,1.489.1,2.975.2,4.463.2,2.809.055,5.627.051,8.441a.948.948,0,0,1-.032.343c-.473,1.239-.218,2.508-.463,3.762a18.431,18.431,0,0,0-.043,3.7c0,.252-.1.522.252.736l0,4.79h0c-.406.271-.256.6-.245.907.09,2.434.029,4.867.164,7.3.191,3.435.5,6.872.381,10.314-.072,2.036,0,4.075.024,6.112,0,.305-.154.637.26.906q.009.424.018.848-.008,3.528-.016,7.055c-.326.179-.26.416-.261.64q-.006,2.987,0,5.974c0,.223-.071.462.267.637q.01.516.02,1.032a11.408,11.408,0,0,1-.274,3.218c-.235.651.334,1.283.248,1.937h0c-.406.236-.261.538-.262.815q-.018,5.891-.016,11.782c.012.4-.3.774-.294,1.186.032,1.979.04,3.958.009,5.938-.007.406.428.785.208,1.183a3.2,3.2,0,0,0-.2,1.535c-.142,2.833.277,5.673-.277,8.5a2.291,2.291,0,0,0,0,.688c.1.882.489,1.106,1.965,1.135.485.01.975.032,1.454,0a6.615,6.615,0,0,0,2.387-.178c1.455-.171,1.473-.171,1.471-.953,0-1.634-.026-3.267-.041-4.9a15.659,15.659,0,0,0,.02-5.862q-.006-4.825-.012-9.649a37.021,37.021,0,0,0,.286-5.7c.128-1.486.124-2.974.235-4.462.195-2.6.069-5.218.064-7.828,0-.279.1-.579-.253-.826.011-1.78.031-3.56.032-5.34q0-9.3-.005-18.606c-.006-2.814-.05-5.627-.076-8.441q0-9.375,0-18.75a.549.549,0,0,0-.245-.566h0q-.015-.509-.029-1.019c.01-.315.031-.63.028-.945-.026-2.575-.132-5.15-.245-7.724-.187-4.266-.085-8.538-.095-12.806-.008-3.18,0-6.36,0-9.54h0q.024-2.063.048-4.125h0c.3-.189.237-.427.25-.653.083-1.372.079-2.744.241-4.118a43.5,43.5,0,0,0,.081-4.728,10.851,10.851,0,0,0,.218-3.681,23.345,23.345,0,0,1-.139-6.518,58.373,58.373,0,0,0,.2-6.176h0q0-5.681,0-11.361a12.607,12.607,0,0,0-.067-1.978,52.657,52.657,0,0,1-.442-5.4,54.452,54.452,0,0,1,.436-8.5c.221-2.173.069-4.36.083-6.54a18.675,18.675,0,0,0,.306-4.807c.292-.188.242-.424.245-.647.01-.765,0-1.53,0-2.3L8.5,59.467h0c.014-.373.053-.745.038-1.117-.074-1.888-.128-3.775-.269-5.663-.258-3.46.068-6.929-.278-10.393-.143-1.426.132-2.862.117-4.288-.018-1.685-.139-3.375-.171-5.062h0a.491.491,0,0,0,.227-.482L8.186,21.9q0-.691.009-1.382h0c.064-3.943.086-7.887.011-11.829q1.613-.011,3.226-.021a36.692,36.692,0,0,0,9,.02l14.809-.012a86.928,86.928,0,0,0,8.746.286c2.281.128,4.565.124,6.848.235,1.016.05,2.033.078,3.05.094a7.378,7.378,0,0,0,.854,1.17q.851.955,1.714,1.9a1.491,1.491,0,0,1,.413,1.045c0,.6-.007,1.2,0,1.806.016.933.048,1.865.065,2.8a.173.173,0,0,1-.026-.044c-.023-.075-.042-.132-.061-.182,0-.008-.006-.018-.009-.025a.46.46,0,0,0-.058-.113l0,0h0c-.07-.087-.173-.087-.434-.082-.05,0-.1.01-.149.016a9.631,9.631,0,0,0-1.907.086h-.005c-.65.013-1.3,0-1.949.041-1.727.107-3.453.252-5.181.35q-.325.018-.65.042l-.4.038c-1.027.079-2.052.176-3.077.273a6.809,6.809,0,0,0-1.485.174,12.287,12.287,0,0,0-1.908.21h0a5.391,5.391,0,0,0-1.139.131q-2.1.309-4.194.664c-.9.153-1.81.282-2.7.512a2.732,2.732,0,0,0-.295.038c-1.59.369-3.183.725-4.759,1.153-1.2.327-2.4.659-3.573,1.081l-.1.032q-.379.139-.754.291l-.24.1c-.028.011-.056.024-.084.036-.063.026-.124.056-.185.087-.016.008-.034.014-.05.023l-.016.014a1.164,1.164,0,0,0-.29.223.3.3,0,0,1-.089.123c-.11.073-.1.188-.109.3a.363.363,0,0,0-.1.3c-.153.16-.123.38-.144.564a5.082,5.082,0,0,0,.022,1.758c0,.007-.006.007-.008.019a.1.1,0,0,0,.027.085,1.475,1.475,0,0,0,.19.8.428.428,0,0,0,.09.3v0a.391.391,0,0,1,.019.06c0,.012.01.023.013.034a4.861,4.861,0,0,0,.768,1.57.583.583,0,0,0,.823.239c.25-.095.491-.213.743-.3q1.407-.472,2.818-.923c-.027.133-.057.267-.095.4q-.516,1.8-.95,3.62l-.127.381.035.018c-.2.867-.392,1.737-.559,2.612-.349,1.827-.705,3.655-.873,5.513-.139,1.534-.328,3.064-.479,4.6H23.26c-.031.264-.057.482-.079.667l.019.014c0,.04-.008.081-.012.121a15.951,15.951,0,0,0-.206,2.55,2.539,2.539,0,0,0-.108.448c-.059,1.034-.1,2.069-.16,3.1-.074,1.345-.132,2.691-.237,4.033-.2,2.61-.31,5.222-.262,7.841-.041.568-.1,1.136-.121,1.705-.1,3.114-.061,6.227.146,9.336a2.663,2.663,0,0,0,.113,1.147v0c.006.2.013.393.019.589,0,.053,0,.106.007.159l0,.3q.008,2.057.016,4.113a.757.757,0,0,0,.105.445h0c0,.284-.008.568-.01.853-.009,1.112.017,2.226-.034,3.337-.047,1.033-.118,2.064-.092,3.1a5.816,5.816,0,0,0-.11.686c-.11,2.476-.233,4.952-.309,7.429-.053,1.7-.038,3.41-.054,5.115h0a.9.9,0,0,0-.131.667c0,1.605,0,3.21.017,4.815a10.231,10.231,0,0,0,.12,2.167,13.906,13.906,0,0,0,.081,2.128c0,.021,0,.042,0,.064.017.1.036.2.06.3h0c-.01.821.038,1.647-.045,2.46h0a22.21,22.21,0,0,0-.1,3q-.162,3.572-.323,7.144h0a.763.763,0,0,0-.118.514c-.029,1.441-.219,2.872-.285,4.308a36.6,36.6,0,0,0-.194,4.391,3.451,3.451,0,0,0-.015.938l-.006.465a5.91,5.91,0,0,0-.106,1.627c.127,1.71.088,3.424.148,5.135a.734.734,0,0,0,.108.445c-.049,1.754.18,3.5.224,5.247a.713.713,0,0,0,.081.213c0,.155-.012.311,0,.466q.235,3.057.476,6.113c.173,2.218.316,4.439.538,6.652a11.022,11.022,0,0,0,.262,2.309,12.784,12.784,0,0,0,.15,2.231c.084,1.283.211,2.564.32,3.845a14.4,14.4,0,0,0,.123,2.811h0l.035,1.241q0,1.627-.007,3.254-.007,5.463-.013,10.926,0,1.479.005,2.958.007,1.633.014,3.268c-.022.731-.04,1.463-.012,2.194,0,.015,0,.031,0,.046.006.137.013.274.022.412v0c-.007.051-.013.1-.02.153,0,.077,0,.155-.007.233l-.008.233a1.171,1.171,0,0,0-.029.284,23.949,23.949,0,0,0-.112,3.147,9.868,9.868,0,0,0-.142,2.337c0,.053,0,.1-.007.157l0,.154c0,.053,0,.1,0,.157q-.006.233-.013.466a.2.2,0,0,0-.012.123c-.018.089-.024.178-.037.267a.354.354,0,0,0-.009.066,16.4,16.4,0,0,0-.051,2.338c0,.068.064.135.1.2h0c-.239.952-.078,1.317.78,1.73a1.406,1.406,0,0,0,.64.256v0l.007.005c.021.015.047.047.062.042h0a1.556,1.556,0,0,0,.867.265l.059.024.063,0a.529.529,0,0,0,.493.121,9.889,9.889,0,0,0,3.437.19,31.688,31.688,0,0,0,4.867-.225,4.557,4.557,0,0,0,1.518-.256,18.557,18.557,0,0,0,2.763-.372c.612-.1,1.218-.231,1.825-.36.194-.041.444-.047.484-.31a3.1,3.1,0,0,0,.02-1c0-.013-.022-.024-.044-.034l.107-.015v-.791a.8.8,0,0,0,.1-.37c.024-.414.038-.827.057-1.241a4.187,4.187,0,0,0,.2-1.432,35.834,35.834,0,0,0,.4-4.047,6.278,6.278,0,0,0,.127-.684c.162-2.087.328-4.173.466-6.262s.238-4.181.372-6.271c.063-.979.2-1.954.241-2.935.041-1.059.262-2.106.2-3.171a25.775,25.775,0,0,0,.32-3.737,7.83,7.83,0,0,0,.208-1.991,29.981,29.981,0,0,0,.253-3.62,4.644,4.644,0,0,0,.154-1.229c.14-1.727.316-3.452.406-5.181.068-1.292.272-2.575.22-3.874a10.369,10.369,0,0,0,.176-2.3.588.588,0,0,0,.045-.156,4.792,4.792,0,0,0,.076-1.279l0-.316a25.4,25.4,0,0,0,.246-3.236,37.366,37.366,0,0,0,.23-4.4,11.842,11.842,0,0,0,.16-2.494c.2-1.334.207-2.683.319-4.025.141-1.676.3-3.352.407-5.031a22.853,22.853,0,0,0,.208-2.787c.305-1.852.446-3.723.64-5.589a2.787,2.787,0,0,0,.143-1.266,2.13,2.13,0,0,0,.144-1.092c.111-.793.225-1.585.331-2.379.234-1.766.479-3.532.689-5.3.134-1.127.361-2.244.387-3.383a33.6,33.6,0,0,0,.494-4.47,2.221,2.221,0,0,0,.126-1.134l.022-.311a4.574,4.574,0,0,0,.162-1.557,37.421,37.421,0,0,0,.464-4.482c.26-1.19.3-2.406.447-3.611.139-1.155.263-2.312.363-3.471.037.52.04,1.043.034,1.566a5.669,5.669,0,0,1-.082,1.259.73.73,0,0,0,.061.614,1.078,1.078,0,0,1,.078.845,10.06,10.06,0,0,0-.261,2.015c.013.247.1.476.1.719-.005.956.165,1.906.1,2.865q0,1.93,0,3.859c0,.586.018,1.173-.008,1.758-.012.266.126.5.086.769a13.548,13.548,0,0,0-.176,2.126c-.158.145-.094.336-.095.507-.005,1.252,0,2.5,0,3.756,0,.194-.038.387-.053.577a10.2,10.2,0,0,0-.124,2.273,13.85,13.85,0,0,1,.078,1.7c.009.325,0,.651,0,.976.03.408-.082.808-.088,1.21-.022,1.515-.009,3.03-.009,4.545,0,.114-.008.231.1.312a14.314,14.314,0,0,0,.09,1.5,16.32,16.32,0,0,0,.186,2.858,1.051,1.051,0,0,0,.581.822,6.322,6.322,0,0,0,1.849.548,18.724,18.724,0,0,0,4.142.435.363.363,0,0,0,.359.094,7.332,7.332,0,0,1,1.38.058c.023.44.045.88.069,1.32.051.931.106,1.863.181,2.793.179,2.221.356,4.442.563,6.661.21,2.244.423,4.489.7,6.726.264,2.163.447,4.332.536,6.506.106,2.591.27,5.178.541,7.756a6.657,6.657,0,0,0,.235,1.761l.027.268c.027,1.465.251,2.912.4,4.366a4.937,4.937,0,0,0,.2,1.592,32.745,32.745,0,0,0,.346,3.706,12.46,12.46,0,0,0,.154,2.492,10.829,10.829,0,0,0,.126,2.535v0a2.1,2.1,0,0,0,.026.728,15.04,15.04,0,0,0,.067,2.279,1.076,1.076,0,0,0,.064.418c-.049,1.866.158,3.722.247,5.582.035.748.073,1.5.128,2.247.144,1.96.316,3.92.4,5.882.038.906.182,1.8.27,2.7l-.061-.02c0,.481,0,.678.12.807.008.184.013.368.011.553,0,.3.222.46.425.616a5.523,5.523,0,0,0,1.853.956,16.869,16.869,0,0,0,6.6.561,6.982,6.982,0,0,0,2.194-.278,9.115,9.115,0,0,0,2.482-.477.71.71,0,0,1,.128-.134l0,0h0l0,.008a.194.194,0,0,1-.131.13,2.841,2.841,0,0,0,1.244-.314h0a21.216,21.216,0,0,0,4.355-1.357,2.627,2.627,0,0,0,.936-.528c0-.04-.007-.079-.011-.119h0c0-.013,0-.026-.006-.039-.006-.043-.011-.087-.019-.13,0-.009,0-.018,0-.027l.005,0a.123.123,0,0,1,.023.051.314.314,0,0,1,.008.036.753.753,0,0,1,0,.083,1.37,1.37,0,0,0,0,.144c.2-.119.156-.325.134-.489a4.378,4.378,0,0,1-.032-.66c.014-.275.025-.511.04-.827l-.012,0c.005-.12.01-.241.01-.361,0-1.453,0-2.907,0-4.36q0-4.125,0-8.252h0c.125-1.545.136-3.094.14-4.643q.01-4.068.035-8.137c0-.092.008-.183.012-.275a.785.785,0,0,0,.1-.444q.027-2.659.052-5.318a.973.973,0,0,0,.1-.289c-.016-2.1.256-4.186.216-6.284a1.117,1.117,0,0,0,.094-.287q.115-2.651.22-5.3a1.382,1.382,0,0,0,.117-.756c.031-.44.031-.883.071-1.321a37.211,37.211,0,0,0,.252-4.656h0q0-.31.008-.621c.158-1.8.318-3.6.47-5.407.03-.361.017-.725.039-1.087.005-.082.012-.164.017-.247a3.61,3.61,0,0,0,.315.261c.23.168.4.414.721.391a.7.7,0,0,0,.334.21,13.491,13.491,0,0,0,2.971.8l1.385.278q-.181,3.919-.352,7.838a6.385,6.385,0,0,0-.028,1.212,1.616,1.616,0,0,0-.065.279c-.119,2.01-.215,4.022-.157,6.037.073,2.554.246,5.1.243,7.661a.51.51,0,0,0,.137.423.7.7,0,0,1,.459.124l.448.029a.416.416,0,0,1,.024.082,1.527,1.527,0,0,1,.689.123,3.662,3.662,0,0,1,1.045.118l1.244.029.007,0h.036a.114.114,0,0,0,.017.086l.041-.019.038.025a26.123,26.123,0,0,0,3.164.055,3.979,3.979,0,0,0,1.361-.056,1.713,1.713,0,0,1,.681-.051,20,20,0,0,0,2.236-.055l.2-.013c.309-.14.657.049.964-.112l.034-.025.039.017a.4.4,0,0,0,.113-.071.55.55,0,0,0,.492-.044.363.363,0,0,0,.233-.225.328.328,0,0,0,.046-.078.506.506,0,0,0,.186-.4c.005-.072.009-.145.014-.217l.021-.346c.061-1.005.119-2.011.214-3.014.237-2.5.5-4.992.759-7.486a31.57,31.57,0,0,0,.107-5.779,35.633,35.633,0,0,1-.137-3.642c.014-.537.032-1.075.05-1.613.255,0,.511,0,.766,0a5.024,5.024,0,0,0,2.3-.249,1.082,1.082,0,0,1,.561-.095c.5.037.981-.141,1.481-.141a1.227,1.227,0,0,0,.662-.146,5.767,5.767,0,0,1,1.891-.628,10.552,10.552,0,0,0,2.593-1.056c1.051-.618,2.033-1.353,3.037-2.051l.077-.054a.3.3,0,0,1,.1-.2,3.68,3.68,0,0,1,.691-.468c.42-.467.847-1.047,1.488-1.113q.4-.35.8-.716c.94-.624,1.77-1.4,2.708-2.022,1.292-.851,2.619-1.655,3.993-2.376h0q.054,1.3.118,2.59c.079,1.551.153,3.1.3,4.648a42.669,42.669,0,0,1,.188,4.707c0,.2-.008.4,0,.6.04,1.251.2,2.5.151,3.753a2.417,2.417,0,0,0,.027.362c.109.943.2,1.886.241,2.836s.164,1.889.255,2.834c0,.036.037.07.057.1a19.427,19.427,0,0,0,.258,2.456c.237,2.2.446,4.4.745,6.595a4.583,4.583,0,0,0,.212,1.358.093.093,0,0,1,.043.04l-.043-.04c.059.679.092,1.361.188,2.035a4.419,4.419,0,0,0,.173,1.241c.208,1.685.209,3.386.373,5.075.23,2.37.263,4.757.606,7.119.191,1.317.178,2.659.419,3.971a4.844,4.844,0,0,0,.141,1.075,1.1,1.1,0,0,1,.054.675l-.02-.006-.076.114c.013.02.025.042.037.064a.453.453,0,0,0-.187.223.36.36,0,0,0-.217.263,2.861,2.861,0,0,0-.025,1.57,5.508,5.508,0,0,0,.335,1.963l0,0a3.461,3.461,0,0,0,.607,1.21,12.8,12.8,0,0,0,2.309,1.209,1.474,1.474,0,0,0,.634.2,3.654,3.654,0,0,0,1.338.244c.475.065.949.149,1.426.192a17.512,17.512,0,0,0,2.7.077l.121-.011c.783-.043,1.569-.058,2.348-.136a9.26,9.26,0,0,0,2.641-.551,1.324,1.324,0,0,0,.6-.153h0a1.676,1.676,0,0,0,.868-.216,4.7,4.7,0,0,0,1.215-.487.313.313,0,0,0,.252-.115,3.279,3.279,0,0,0,1.455-.988c.231-.181.262-.5.46-.7a.911.911,0,0,0,.238-.773c-.056-.7-.094-1.406-.146-2.109a.776.776,0,0,0-.089-.219c-.018-.249.186-.5.007-.748a11.952,11.952,0,0,1,.141-1.772,15.789,15.789,0,0,0,.309-2.376c.1-.575.167-1.158.288-1.728.239-1.126.241-2.279.453-3.411.23-1.225.327-2.476.481-3.716.095-.76.177-1.522.285-2.28.213-1.5.179-3.02.322-4.526a20.018,20.018,0,0,0,.282-2.461.146.146,0,0,0-.04-.017l0-.008.036.024a1.027,1.027,0,0,0,.094-.587c.021-.464-.007-.932.039-1.393.153-1.527.269-3.059.432-4.583s.191-3.063.391-4.584a.392.392,0,0,0,.094-.253,17.719,17.719,0,0,1-.1,3.3,24.71,24.71,0,0,0-.13,3.061.919.919,0,0,0-.114.523c0,.069,0,.137,0,.206a2.811,2.811,0,0,0-.022.854c-.049.94-.155,1.877-.206,2.815-.235,4.392-.542,8.782-.53,13.183,0,1.569-.264,3.125-.173,4.7.05.858.163,1.039.962,1.3a4.533,4.533,0,0,0,.8.111v-.012c.156.181.363.153.567.141a12.975,12.975,0,0,1,5.16,2.5,6.61,6.61,0,0,0,1.26.708,22.735,22.735,0,0,0,2.884,1.1c-.011.062-.023.124-.034.186a7.2,7.2,0,0,0-.407,1.74,1.3,1.3,0,0,0,.415,1.543,7.233,7.233,0,0,0,2.071,1.46,6.088,6.088,0,0,0,2.413,1.1h0a1.388,1.388,0,0,0,.732.233l.039.029.049-.007a.512.512,0,0,0,.388.117v0a5.668,5.668,0,0,0,3.164.6.6.6,0,0,0,.365-.011c.619,0,1.238.021,1.855,0a2.585,2.585,0,0,0,1.061-.1A3.763,3.763,0,0,0,181,199.2a9.349,9.349,0,0,0,2.426-.612h0a1.048,1.048,0,0,0,.611-.355h0a2.9,2.9,0,0,0,1.329-1.219c.2-.267.529-.443.562-.817a5.651,5.651,0,0,0,.05-1.5.3.3,0,0,0-.012-.246c0-.159-.011-.317,0-.475.013-.245-.123-.251-.273-.239a.943.943,0,0,0-.042-.179l-.17.067a.513.513,0,0,1-.1-.2c1.583-.047,3.166-.111,4.75-.148s3.2-.035,4.8-.051a38.063,38.063,0,0,0,5.358-.019,1.338,1.338,0,0,0,.694-.139,16.749,16.749,0,0,0,2.621-.105c2.344-.234,4.652-.68,6.969-1.1a18.531,18.531,0,0,0,5-1.786,25.131,25.131,0,0,1,6.956-2.491h0a28.456,28.456,0,0,0,4.5-.446,22.5,22.5,0,0,0,3.519-.825,1.346,1.346,0,0,0,1.047-1.31c.033-1.236.026-2.473.036-3.71h0a2.173,2.173,0,0,0,.125-1.067c.012-1.028.009-2.056.01-3.084,0-1.055.015-2.109.027-3.163.477.068.948.177,1.43.21h0a3.737,3.737,0,0,0,1.366.147l.056.033.063-.014a.751.751,0,0,0,.184.075c1.444.176,2.888.352,4.318.626a10.444,10.444,0,0,0,2.308.523,1.125,1.125,0,0,0,.255.055,21.8,21.8,0,0,0,3.319.477h0a.327.327,0,0,0,.277.014l.058.03.062-.022a5.847,5.847,0,0,0,2.484,0l.065.013.056-.036a2.7,2.7,0,0,0,.664-.108c.434-.036.554-.272.581-.671.053-.764.175-1.523.228-2.288.013,0,.025,0,.037,0l-.031-.072a3.424,3.424,0,0,0-.1-1.543c-.026-1.531-.2-3.058-.133-4.591a1.859,1.859,0,0,0,.044-.872,47.408,47.408,0,0,1,.021-6.257,3.928,3.928,0,0,0,.006-1.086,11.15,11.15,0,0,1-.092-2.236c0-.382,0-.764.006-1.146,1.518-.07,3.035-.241,4.552-.239.531,0,1.061-.008,1.591-.023l.019.1a4.292,4.292,0,0,1,.129,1.267,37.85,37.85,0,0,0,.391,6.07,8.563,8.563,0,0,0,.082.9c.1.564.289.711.857.686a16.19,16.19,0,0,1,2.629,0,26.892,26.892,0,0,0,5.482.1,8.9,8.9,0,0,0,2.309-.237,11.419,11.419,0,0,0,2.7-.461,1.717,1.717,0,0,0,.922-.435c.067-.031.134-.06.141-.148.041-.543.1-1.087.117-1.631a4.207,4.207,0,0,0-.1-1.692,2.669,2.669,0,0,0-.14-1.1c-.023-.814-.151-1.623-.181-2.436,2.278.034,4.551.261,6.832.173a1.315,1.315,0,0,1,.282.016,15.407,15.407,0,0,0,3.456.066c1.573-.065,3.144-.237,4.718-.231,2.027.009,4.046-.222,6.073-.164a2.191,2.191,0,0,0,.282-.015,33.111,33.111,0,0,1,4.008-.261,7.409,7.409,0,0,0,.918-.041c.934-.1,1.863-.233,2.806-.269.7-.028,1.41-.069,2.111-.137a4.111,4.111,0,0,0,1.167-.258c.322-.132.443-.31.321-.589.183.013.365.028.547.04a.22.22,0,0,0,.176.011c.3.019.6.037.9.058a.506.506,0,0,0,.434-.1c.034.058.074.117.1.175a.5.5,0,0,0,.222-.374c0-.125,0-.251,0-.376a.694.694,0,0,1,.336-.041,11.155,11.155,0,0,0,3.441-.2.767.767,0,0,1,.317-.012.548.548,0,0,0,.278.509c.015-.033.031-.064.048-.094.141.124.34.063.532.027a15.861,15.861,0,0,1,2.919-.261,56.886,56.886,0,0,0,9.411-.607v.008c.014,0,.024-.01.037-.014q.663-.111,1.324-.25a57.306,57.306,0,0,0,5.838-1.4c1.142-.369,2.3-.7,3.459-1a37.668,37.668,0,0,0,5.536-1.888,1.973,1.973,0,0,0,1.3-2.2c-.057-.775-.149-1.548-.257-2.318a37.339,37.339,0,0,1-.552-5.763,2.379,2.379,0,0,1,.189-.945,4.881,4.881,0,0,0,.448-2.42,39.782,39.782,0,0,1,0-4.065,8,8,0,0,0-.123-2.168c-.021-.745-.026-1.491-.062-2.235.551.017,1.1.016,1.651-.019a2.432,2.432,0,0,0,.184,1.083c.106,1.651.216,3.3.316,4.953.033.55-.005,1.109.073,1.651a41.247,41.247,0,0,1,.4,4.946,27.094,27.094,0,0,0,.216,2.919,27.192,27.192,0,0,1,.328,2.761,41.185,41.185,0,0,0,.774,7.166.954.954,0,0,1-.025.593,2.237,2.237,0,0,0-.039,1.4,9.588,9.588,0,0,1,.2,3.44,21.075,21.075,0,0,0-.215,4.423,1.554,1.554,0,0,0,1.2,1.536,10.349,10.349,0,0,0,1.527.382,54.407,54.407,0,0,0,7.284.435c.929,0,1.857.025,2.786.043a12.023,12.023,0,0,0,1.805-.047.551.551,0,0,0,.53-.523c.278-1.681.83-3.306,1.011-5.009a6.163,6.163,0,0,1,.6-1.931,15.887,15.887,0,0,0,.858-3.72,11.028,11.028,0,0,0,.21-2.695c-.064-1.353-.159-2.7-.241-4.057.108-.938-.128-1.861-.089-2.811a26.527,26.527,0,0,0-.33-3.7c-.009-2.61,0-5.22-.037-7.829,0-.268-.006-.536-.006-.8a27.447,27.447,0,0,0,3.974-2.537,15.185,15.185,0,0,0,1.729-1.465c.151-.153.292-.356.556-.272s.261.317.274.541c.02.36.041.721.059,1.08.038.813.1,1.624.151,2.437l-.006,0a.564.564,0,0,0,.028.365c.028.428.059.856.078,1.286.023.532.041,1.068.09,1.6l-.037,0a.332.332,0,0,0,.076.333,7.769,7.769,0,0,0,.186,1.04c.143.545.25.594.794.7a10.95,10.95,0,0,0,1.961-.014,10.187,10.187,0,0,0,1.737.036,7.663,7.663,0,0,1,1.5-.316,8.944,8.944,0,0,0,2.53-.327,14.77,14.77,0,0,0,2.958-.8,1.606,1.606,0,0,0,.345-.215l0,0a.367.367,0,0,0,.139-.143l0-.008a1.222,1.222,0,0,0,.214-.746c.033-1.236-.092-2.463-.14-3.693a.4.4,0,0,0-.009-.326c0-.148-.013-.3-.013-.444,0-1.394-.009-2.789-.014-4.183a6.633,6.633,0,0,0-.139-1.762c.021-.845.052-1.69.048-2.537-.01-2.271-.265-4.533-.192-6.8a14.565,14.565,0,0,1-.122-2.033,23.121,23.121,0,0,0,.1-3.189c.155-3.686-.145-7.37-.132-11.056a1.245,1.245,0,0,0-.013-.292.771.771,0,0,0-.081-.182.138.138,0,0,0-.04-.075,69.938,69.938,0,0,0-.268-8.033,31.208,31.208,0,0,1-.327-5.317,2.229,2.229,0,0,0-.028-.438,22.611,22.611,0,0,1-.258-2.83A5.722,5.722,0,0,0,379,78a.91.91,0,0,1-.034-.362c0-1.024-.243-2.036-.158-3.064a1.078,1.078,0,0,0-.136-.564,9.3,9.3,0,0,0-.155-1.615c-.022-1.023-.164-2.037-.174-3.064a6.115,6.115,0,0,0-.156-1.373,21.593,21.593,0,0,1-.546-5.214q0-1.981,0-3.962a4.2,4.2,0,0,0-.087-.871,3.715,3.715,0,0,1,.01-1.526,4.951,4.951,0,0,0,.007-1.89,3.392,3.392,0,0,1-.073-.652,25.187,25.187,0,0,0-.344-3.336c-.041-.338.026-.742-.241-1.043.033-.26-.126-.48-.155-.727a14.693,14.693,0,0,0-.583-1.915,1.037,1.037,0,0,0-.152-.588c0-.162.022-.331-.141-.439v0a13.667,13.667,0,0,0-1.173-4.121,21.832,21.832,0,0,0-2.5-5.282h0a7.636,7.636,0,0,0-.791-1.313,14.137,14.137,0,0,0-2.481-2.469.862.862,0,0,0-.61-.19.969.969,0,0,1-.743-.388,7.638,7.638,0,0,0-3.6-2.26.32.32,0,0,0-.3-.142.306.306,0,0,0-.293-.141.907.907,0,0,0-.422-.167A25.233,25.233,0,0,0,360,27.9a7.874,7.874,0,0,0-1.893-.773.808.808,0,0,0-.166-.139c-1.357-.608-2.7-1.238-4.077-1.806a15.462,15.462,0,0,1-2.182-1.018c-.681-.416-1.427-.727-2.1-1.166l0,0a1.876,1.876,0,0,0-.717-.577,4.084,4.084,0,0,0-1.773-.88h0a.976.976,0,0,0-.592-.293,10.845,10.845,0,0,0-1.624-.728,11.183,11.183,0,0,0-1.08-.374c-.107-.083-.213-.168-.32-.253a6.38,6.38,0,0,0-1.081-.749.321.321,0,0,0-.247-.159,1.873,1.873,0,0,0-.711-.439.636.636,0,0,0-.237-.188c-.559-.347-1.156-.622-1.743-.915a.862.862,0,0,0-.412-.135.2.2,0,0,0-.186-.085.151.151,0,0,0-.06-.051c-.006,0-.011-.012-.017-.015a.257.257,0,0,0-.1-.016,2.113,2.113,0,0,0-.312-.138l-.077-.028-.017-.007-.007,0-.286-.093a9.236,9.236,0,0,0-2.085-.325l-.052-3.275a3.1,3.1,0,0,0-.394-1.483,5.517,5.517,0,0,0-1.258-1.61q-.452-.421-.882-.867c1.565.028,3.133.162,4.693.152,2.587-.018,5.179-.139,7.769-.171h0a.949.949,0,0,0,.74.227l16.209.018,2.122.009h0c7.229.076,14.459.1,21.686-.044q0,.929-.005,1.857c-.424.3-.248.661-.253.994-.069,4.358-.031,8.716.264,13.072.087,1.289.011,2.582.009,3.874a51.112,51.112,0,0,0-.5,5.724c-.216,2.741-.065,5.492-.071,8.238q.008,2.243.015,4.486c.014,1.254.123,2.508.18,3.758.094,2.025.384,4.046.377,6.073,0,.8,0,1.6,0,2.4a4.068,4.068,0,0,0-.252,1.09c.093,1.9-.446,3.792-.307,5.694.017.223-.057.459.254.642h0c-.1,1.629.05,3.258-.21,4.891a28.218,28.218,0,0,0-.084,4.212c-.379.242-.249.543-.252.823-.017,1.494-.02,2.987-.019,4.481a16.373,16.373,0,0,0,.04,2.154,44.213,44.213,0,0,1,.538,5.827c0,1.609-.011,3.217-.016,4.826-.379.205-.266.477-.266.727q0,5.76.008,11.52c0,.17,0,.341-.006.512q-.018.681-.035,1.362h0c-.406.271-.23.6-.248.908-.208,3.412.377,6.817.266,10.228-.019.6.006,1.205.011,1.808.113,2.4-.179,4.793.234,7.193.256,1.5-.031,3.024.349,4.527h0c0,.943-.007,1.886.017,2.829.015.6.436,1.181.243,1.781-.467,1.445-.2,2.9-.239,4.354.115,2.583-.385,5.158-.332,7.741-.386.24-.261.542-.261.821.005,1.489.1,2.975.2,4.463.2,2.809.055,5.627.051,8.441a.948.948,0,0,1-.032.343c-.473,1.239-.218,2.508-.463,3.762a18.435,18.435,0,0,0-.043,3.7c0,.252-.1.522.252.736q0,2.394,0,4.79h0c-.406.271-.256.6-.245.907.09,2.434.029,4.867.164,7.3.191,3.435.5,6.872.381,10.314-.072,2.036,0,4.075.024,6.112,0,.305-.154.637.26.906q.008.424.017.848-.008,3.528-.016,7.055c-.326.179-.26.416-.261.64q-.005,2.987,0,5.974c0,.223-.071.462.267.637.007.344.013.688.02,1.032a11.408,11.408,0,0,1-.273,3.218c-.235.651.334,1.283.248,1.937h0c-.406.236-.261.538-.261.815q-.019,5.891-.017,11.782c.012.4-.3.774-.294,1.186.032,1.979.04,3.958.009,5.938-.007.406.429.785.208,1.183a3.2,3.2,0,0,0-.2,1.535c-.142,2.833.277,5.673-.277,8.5a2.292,2.292,0,0,0,0,.688c.1.882.489,1.106,1.965,1.135.485.01.975.032,1.454,0a6.615,6.615,0,0,0,2.387-.178c1.455-.171,1.473-.171,1.471-.953,0-1.634-.026-3.267-.041-4.9a15.65,15.65,0,0,0,.02-5.862q-.006-4.825-.011-9.649a37.081,37.081,0,0,0,.285-5.7c.128-1.486.124-2.974.235-4.462.195-2.6.069-5.218.064-7.828,0-.279.1-.579-.253-.826.011-1.78.03-3.56.031-5.34q0-9.3-.005-18.606c-.006-2.814-.049-5.627-.076-8.441q0-9.375,0-18.75a.549.549,0,0,0-.245-.566h0q-.015-.509-.029-1.019c.01-.315.031-.63.028-.945-.026-2.575-.132-5.15-.245-7.724-.186-4.266-.085-8.538-.095-12.806-.007-3.18,0-6.36,0-9.54h0q.025-2.063.049-4.125h0c.3-.189.237-.427.25-.653.083-1.372.079-2.744.241-4.118a43.372,43.372,0,0,0,.081-4.728,10.864,10.864,0,0,0,.218-3.681,23.325,23.325,0,0,1-.139-6.518,58.377,58.377,0,0,0,.2-6.176h0q0-5.681,0-11.361a12.548,12.548,0,0,0-.067-1.978,52.664,52.664,0,0,1-.442-5.4,54.457,54.457,0,0,1,.436-8.5c.221-2.173.069-4.36.083-6.54a18.675,18.675,0,0,0,.306-4.807c.292-.188.242-.424.245-.647.01-.765,0-1.53,0-2.3l.024-1.732h0c.014-.373.053-.745.038-1.117-.074-1.888-.128-3.775-.268-5.663-.258-3.46.068-6.929-.278-10.393M231.568,178.113q-.055-.036-.112-.067a.383.383,0,0,1,.11-.077c0,.048,0,.1,0,.144M49.63,101.921h0v-.005h0c.011,0,.016,0,.016,0a.022.022,0,0,1-.015,0M25.277,208.314s0,.011,0,.016,0,.033,0,.051,0,.041.007.064.006.042.01.065l0,.014-.005,0a.207.207,0,0,1-.066-.058.19.19,0,0,1-.015-.022.219.219,0,0,1-.025-.12c.029,0,.059,0,.088-.007m-4.1-184a.286.286,0,0,0,.057-.006c-.009.017-.016.033-.026.051l-.03-.045M239.905,10.337q.851.955,1.714,1.9a1.491,1.491,0,0,1,.413,1.045c0,.6-.007,1.2,0,1.806.009.5.022,1,.035,1.506-.024.008-.049.012-.072.02a5.286,5.286,0,0,0-1.72.432,2.239,2.239,0,0,0-.73.3l-.007,0-.07.042-.036,0-.02.009a.149.149,0,0,0-.053.023l-.02.009a.168.168,0,0,0-.033.047l0,0c-.025,0-.048.005-.07.007h-.022l-.006,0a.193.193,0,0,0-.062.015c-.1.05-.2.1-.3.155l-.051.024-.051.029c-.269.143-.534.292-.794.451l-.128.081c-.269.169-.535.346-.791.541a.28.28,0,0,0-.051.013.185.185,0,0,0-.037.01.147.147,0,0,0-.065.07c-.035.02-.072.038-.106.061a26.553,26.553,0,0,0-3.8,3.33,1.077,1.077,0,0,0-.345.32,6.884,6.884,0,0,0-.9.706,14.515,14.515,0,0,1-1.29.772,5.093,5.093,0,0,0-.512,0,3.778,3.778,0,0,1-.516-.033c-.473-.209-.942-.428-1.4-.681l-.02-.025-.025-.016a.511.511,0,0,0-.169-.1l-.01-.006-.025-.009a.164.164,0,0,0-.115-.08l-.01-.007-.027,0-.037-.038-.013-.01a2.753,2.753,0,0,0-.454-.334c-.071-.052-.142-.1-.212-.156-.515-.385-.984-.825-1.484-1.228a13.949,13.949,0,0,0-1.435-1.28,8.506,8.506,0,0,0-1.3-.933.288.288,0,0,0-.226-.146,1.7,1.7,0,0,0-.65-.4.578.578,0,0,0-.216-.171c-.512-.318-1.058-.57-1.6-.838a.787.787,0,0,0-.376-.123.18.18,0,0,0-.17-.077c0-.007-.011-.008-.016-.014a.158.158,0,0,0-.055-.048.24.24,0,0,0-.093-.015,2.14,2.14,0,0,0-.363-.155l-.008,0-.007,0-.26-.085a8.037,8.037,0,0,0-1.82-.29l-.066-4.091a3.1,3.1,0,0,0-.394-1.483,5.508,5.508,0,0,0-1.258-1.61q-.245-.227-.485-.461a21.855,21.855,0,0,0,4.576.1,54.814,54.814,0,0,1,10-.139c3.164.248,6.318.169,9.477.2h.441a7.538,7.538,0,0,0,.8,1.067M83.588,202.954l0-.006a.033.033,0,0,1,0-.016.065.065,0,0,1,0-.014.044.044,0,0,1,0-.009h0a.183.183,0,0,1,0,.032s0,.011-.005.011m-59.547-2.1s-.006,0-.007.006l-.011-.008a.08.08,0,0,0,0-.044h0c0-.022,0-.029,0-.029l0,0a.046.046,0,0,1,.011.016.1.1,0,0,1,0,.013.088.088,0,0,1,0,.028.058.058,0,0,1,0,.016m-1.46-87.295h0l.037,0c0,.018-.005.037-.007.056v0h0c-.013-.018-.022-.036-.034-.055h0M65.193,183.77c.028.006.054.01.078.012-.009.024-.011.047-.022.071-.02-.027-.038-.056-.056-.083M26.025,62.7c.011.008.023.008.034.014a.4.4,0,0,0,.11.046c.01,0,.018.01.028.012-.043.021-.088.041-.134.059l-.013.006v0c-.008-.044-.016-.088-.025-.132M177.987,8.371q3.213-.005,6.426,0a6.662,6.662,0,0,0,1.337,2.207q.85.955,1.713,1.9a1.491,1.491,0,0,1,.413,1.045c0,.6-.007,1.2,0,1.806.012.7.031,1.4.049,2.1-.026.008-.053.013-.079.021a5.219,5.219,0,0,0-1.611.379,2.162,2.162,0,0,0-.666.255l-.024.009-.066.037-.034,0-.018.007a.152.152,0,0,0-.05.02l-.019.008a.14.14,0,0,0-.031.041h0l-.036,0-.044,0h-.007l0,0a.193.193,0,0,0-.06.013c-.1.045-.19.093-.285.14l-.042.018-.043.023c-.252.125-.5.257-.744.4-.044.025-.088.052-.132.078-.243.144-.483.293-.714.458l-.019.012a.255.255,0,0,0-.041.01.193.193,0,0,0-.042.01.134.134,0,0,0-.06.062c-.033.018-.068.033-.1.053-.327.207-.642.427-.949.658-.116.087-.224.181-.338.27-1.243-.312-2.488-.607-3.74-.868a18.167,18.167,0,0,0-2.174-.41,15.764,15.764,0,0,0-2.331-.387.083.083,0,0,0-.072-.008h0c-.053-.026-.105-.072-.159-.074a10.624,10.624,0,0,1-1.391-.2,3.2,3.2,0,0,0-.957-.113.09.09,0,0,0-.076-.009.636.636,0,0,0-.455-.079l-.256-.023a.976.976,0,0,0-.637-.079l-.262-.021a4.8,4.8,0,0,0-1.173-.173c-1.009-.119-2.016-.275-3.03-.342-.547-.036-1.093-.092-1.639-.149l-.034,0c-.426-.044-.851-.09-1.277-.128-.069-.006-.14-.019-.21-.028a.846.846,0,0,0-.234,0V17.3l-.073-4.547a3.081,3.081,0,0,0-.392-1.478,5.5,5.5,0,0,0-1.254-1.6c-.39-.362-.775-.733-1.133-1.127-.026-.029-.049-.059-.073-.088,6.447-.175,12.9-.079,19.352-.089M41.359,184.917l-.009-.006.024-.006c-.005.009-.01.012-.015.012M233.223,23.093c0,.006.008.011.007.018s0,.011,0,.017a.1.1,0,0,1-.035.047.629.629,0,0,0,.026-.081M68.471,187.393a.624.624,0,0,0-.065-.044l-.029-.016a.3.3,0,0,0-.067-.024l0-.006a1.011,1.011,0,0,0,.076-.154l.009-.017c.005-.022.009-.043.013-.065,0,.009.007.018.01.027.015.049.033.1.053.147.01.024.018.048.029.071.023.051.05.1.078.152.009.016.015.031.024.047-.036-.036-.068-.065-.1-.09-.013-.011-.024-.018-.035-.027M27.656,207.557c.02.02.04.042.06.065l-.063,0c-.007-.006-.014-.007-.021-.014a.128.128,0,0,1,0-.07l.025.023m6.251-185a.064.064,0,0,1-.009.019.041.041,0,0,1-.022.01s0,0-.008,0a.121.121,0,0,1-.052-.016c.029-.012.063-.021.1-.031a.092.092,0,0,1-.007.014m3.278-1.723c-.023.009-.031.008-.04,0h0c.031-.018.042-.012.041,0h0m83.908,2.382a.032.032,0,0,1,.007.017c0,.005,0,.009,0,.014a.091.091,0,0,1-.034.044.709.709,0,0,0,.026-.075M74.414,201.561h-.055a.22.22,0,0,1,.019-.032l.067.03h-.031M59.2,21.289h0m-2.8,2.586s-.005.008-.009.012h-.01l.019-.012m7.808-.8.025,0c-.008.006-.012.007-.016.006s-.007,0-.009-.01m-7.856-1.9-.038.012v-.015l.039,0M37.427,25.473c1.33-.243,2.676-.366,4.009-.585a2.061,2.061,0,0,0,.25,0q1.417-.151,2.834-.307c.845-.094,1.69-.192,2.534-.288A6.574,6.574,0,0,0,48.36,24.2a.255.255,0,0,1,.027-.011h0c-.01.005-.021.006-.031.011.734-.01,1.466-.05,2.2-.1l.074,0,.216-.012.064,0,.07-.007c.209-.023.418-.038.627-.058.054-.006.108-.008.162-.013h0l.9-.019,5.529,0,2.1.019c.035.01.07.019.1.026l.052,0a13.134,13.134,0,0,0,1.424.082.672.672,0,0,0,.385.077c.63.054,1.261.109,1.891.172s1.232.129,1.848.2a3.219,3.219,0,0,0-.414.137c-.645.276-1.193.718-1.822,1.02a4.409,4.409,0,0,0-1.169.578,7.669,7.669,0,0,0-1.839.588,6.079,6.079,0,0,1-.881.4c-.092.031-.181.066-.272.1-2.177-.005-4.355.048-6.532.064a1.522,1.522,0,0,0-.366.095h0l-.267,0-.315.006a5.265,5.265,0,0,0-1.246.009l-.16.008-2.333-.012-.616-.019a1.7,1.7,0,0,0-.836-.1c-.956-.032-1.915-.036-2.869-.092-1.935-.114-3.865-.306-5.808-.257l-.426-.014,0,0a1.505,1.505,0,0,0-.363-.1c-1.189-.023-2.379-.036-3.568-.052a.182.182,0,0,0-.021-.008c-.011-.061-.022-.123-.033-.184-.016-.094-.056-.285-.107-.525,1.227-.256,2.457-.5,3.691-.726m169.08-2.56a.038.038,0,0,1,.008.017c0,.005,0,.01,0,.015a.094.094,0,0,1-.035.044.548.548,0,0,0,.026-.076m29.146-1-.027.033c-.011.012-.024.023-.035.035a.9.9,0,0,0,.062-.068M69.477,188.667l.016,0,.065-.015.036-.009c0,.038,0,.076,0,.114a.215.215,0,0,1-.12-.086M25.234,120.391c-.007.006-.013.012-.021.011h0a.492.492,0,0,0,.009-.055c0-.01,0-.02,0-.029l.023.025,0,0a.057.057,0,0,1,0,.032.035.035,0,0,1-.007.012m98.259-98.266-.028.032-.039.037A.871.871,0,0,0,123.493,22.126ZM25.158,146.347c0-.022,0-.024.008-.024s0,.016-.008.024M208.92,21.817l-.026.03c-.01.011-.022.02-.033.031C208.882,21.858,208.9,21.838,208.92,21.817ZM42.566,137.777c.021,0,.037,0,.058,0l.1-.006.042,0c-.008.009-.016.016-.024.023a.3.3,0,0,1-.061.046.27.27,0,0,1-.049.013.26.26,0,0,1-.068.014,1.611,1.611,0,0,1-.124-.023.472.472,0,0,1-.123-.07l.063,0,.083,0c.035,0,.075,0,.107,0M34.939,187.34l-.04-.05c.022-.016.047-.03.071-.044-.013.019-.022.039-.036.059,0,.012,0,.024.006.035M36.188,63.361s.007-.008.011-.011a.23.23,0,0,1,.122-.05h.005a.8.8,0,0,0-.108.077l-.021.019a.568.568,0,0,0-.078.086l0,.005a.257.257,0,0,1,.073-.125M53.933,86.622l.011-.022c-.007.067-.013.134-.017.2l0-.01a.232.232,0,0,1-.013-.061.219.219,0,0,1,0-.044.262.262,0,0,1,.022-.065M159.465,23.438s0,.008-.008.012h-.009l.016-.012m-.043-2.685-.034.012V20.75l.034,0M77.668,177.289a.208.208,0,0,0-.025-.031.173.173,0,0,1,.027.031.188.188,0,0,1,.023.027.192.192,0,0,1,.018.088.2.2,0,0,0-.021-.088.214.214,0,0,0-.021-.027m-10.147-17.56s.007,0,.008,0a.08.08,0,0,1,.026-.01c0,.009,0,.018,0,.026-.023,0-.037-.006-.036-.012M27.66,177.639c-.019-.006-.035-.013-.054-.018l0,0a.186.186,0,0,1,.116-.049.165.165,0,0,1,.058.069.272.272,0,0,1,.01.026c0,.007,0,.014.005.021l-.01,0c-.041-.017-.085-.03-.129-.043m10.109-17.977c.008.013.014.024.022.037l-.007,0-.013,0a.15.15,0,0,1-.094-.011c0-.059.01-.109.014-.161.007.013.017.027.025.04.016.028.033.058.052.087m-3.4.471-.04.038c-.01-.022-.019-.044-.03-.066l.07.028m7.445-48.825H41.8l.048-.068.027-.038s.006.006.008.009a.289.289,0,0,0,.093.1.978.978,0,0,0-.165,0m-12.279,14.5,0,0c.012-.019.022-.026.028-.023s0,.007,0,.01a.031.031,0,0,1,.006.018l0,0a.026.026,0,0,1-.017.023c-.009,0-.02,0-.036-.016h0a.467.467,0,0,1-.027-.056l-.008-.022C29.5,125.768,29.519,125.789,29.536,125.81Zm9.19-5.547,0,0c-.013-.009-.02-.021-.031-.03l.033,0,0,.031a.02.02,0,0,1,0,.006M37.471,134.7l-.035,0a.3.3,0,0,1,.028-.029c0,.011,0,.02.007.03m-2.64,13.765v-.03a1.443,1.443,0,0,0,.106-.1h0a.356.356,0,0,1-.106.13m-2.8-30.551.016-.031a1.089,1.089,0,0,1,.015.115h0a.186.186,0,0,1-.071-.008l.011-.02.03-.056m-2.769,10.29c-.007.018-.008.032-.016.051v0c-.007-.018-.014-.034-.02-.052h.036m-4.482-14.938a.036.036,0,0,1-.016-.04c.006.014.01.027.016.04m10.359,71.551-.018-.006.018-.032Zm6.248-38.663c-.013,0-.015-.028-.015-.028s.009.019.015.028M174.03,25.086a.414.414,0,0,0-.357.193l-1.936.837c-.373.144-.748.28-1.119.426-1.506.506-2.926,1.225-4.4,1.822-.657.2-1.3.446-1.934.7l-1.6.015c-.845.009-1.694.076-2.534.019-.133-.009-.267-.01-.4-.017a.318.318,0,0,1-.059-.047L159.373,29a.646.646,0,0,0-.027-.087l-.305-.019c-.017-.031-.032-.062-.047-.094l-.324-.025c-.008-.03-.017-.06-.027-.089h-.22l-.127-.116-.329-.033a.73.73,0,0,0-.019-.085.4.4,0,0,1-.344-.12,1.1,1.1,0,0,1-.6-.213A.45.45,0,0,1,156.66,28a31.963,31.963,0,0,0-.689-.243,139.916,139.916,0,0,1-.7-.231l-.315-.023-.035-.094a.4.4,0,0,1-.352-.11.483.483,0,0,1-.355-.108.442.442,0,0,1-.345-.121.485.485,0,0,1-.352-.111l-.324-.032a.369.369,0,0,1-.03-.083.426.426,0,0,1-.348-.112l-.418-.064a.3.3,0,0,0-.247-.088c-.01-.03-.019-.061-.027-.092a.453.453,0,0,1-.346-.116l-.306-.031c0-.007,0-.005.006-.016a.1.1,0,0,0-.034-.079c-.127-.143-.334,0-.464-.125-.1-.1-.256-.02-.351-.1-.168-.166-.411.01-.58-.124-.145-.131-.346-.012-.5-.113a.066.066,0,0,1-.081-.012c-.094-.106-.256-.006-.349-.117a.217.217,0,0,0-.219-.034c.019-.039.009-.066-.056-.067a.058.058,0,0,1-.073-.015.2.2,0,0,0-.26,0v.015l-.089-.007-.11-.012c0-.009,0-.016,0-.025l-.018,0a.314.314,0,0,0-.033-.069l-.426-.027a.215.215,0,0,0-.239.006l-.117-.1a.971.971,0,0,1-.576-.122.671.671,0,0,1-.469-.111l-.552-.021a.725.725,0,0,0-.139-.1.846.846,0,0,0-.519-.065l-.211-.086-.314-.129c.5-.075,1.006-.15,1.506-.242a1.62,1.62,0,0,0,.221,0q1.256-.15,2.511-.306c.749-.093,1.5-.191,2.246-.286a5.235,5.235,0,0,0,1.157-.095c.008-.005.016-.006.024-.011h0c-.009.005-.019.006-.027.011.648-.01,1.3-.049,1.941-.1l.072,0,.192-.012.057-.005.062-.007c.18-.022.361-.037.542-.057.053-.006.105-.008.158-.014l.8-.019,4.9,0,1.374.014h.007l.481,0c.03.01.061.019.092.026l.047,0a10.215,10.215,0,0,0,1.261.082h0c.1.087.223.065.341.076.559.054,1.118.108,1.676.172.939.107,1.876.232,2.816.328.647.067,1.288.179,1.93.282l1.356.216c.3.056.606.114.909.167l.726.128c-.017.014-.034.024-.051.039m-8.6-4.877-.006.017v0l0,.005-.025-.007c.011-.011.023-.011.034-.018m-3.547.688a.279.279,0,0,0,.034-.019l.008,0,.013-.007a.291.291,0,0,1-.029.025l-.025.006m-19.455-.5a.008.008,0,0,1,.007.009c-.021.009-.028.008-.037,0h0a.049.049,0,0,1,.026-.01l0,0M27.811,124.291l.008.024-.013,0-.024-.005.029-.016m-2.972-5.443a.078.078,0,0,1,.021-.009.066.066,0,0,1,.016-.005.028.028,0,0,1,.03.023h0c.009.02.013.039.021.059l0,0,0-.007a.106.106,0,0,0-.02-.034v0a.033.033,0,0,0-.026-.008s-.006,0-.009,0h0l-.009-.009v.011a.041.041,0,0,1-.024,0s0-.005,0-.01,0,0,0-.005m.486,1.1c.009.006.015.013.024.019l-.024.006ZM216.758,23.13a1.417,1.417,0,0,0-.259-.067c-.217-.013-.435-.02-.653-.027a.923.923,0,0,0,.177-.136.474.474,0,0,1,.053-.039.421.421,0,0,1,.067-.049.233.233,0,0,1,.054-.013.272.272,0,0,1,.059-.013.3.3,0,0,1,.062.01.333.333,0,0,1,.053.009.913.913,0,0,1,.122.05c.2.094.393.187.591.275h-.326m-46.886-.775a.022.022,0,0,1-.006-.016l0,0a.021.021,0,0,1,0,.012v0M42.1,153.442c.015,0,.018.02.018.024v0l0,0c-.006-.008-.009-.015-.015-.023m2.334-38.919.061-.025c0,.015,0,.03,0,.046l-.029-.011-.028-.01m10.315,3.651.016-.026.015.027-.03,0m10.847,49.761.016.006a.063.063,0,0,1,.035.036l0,0a.116.116,0,0,1,0,.063l-.007.017a.426.426,0,0,1-.03.062l0,.006c-.007-.015-.017-.028-.023-.043s-.024-.054-.036-.081-.018-.05-.027-.076h.008a.221.221,0,0,1,.071.008M80.63,146.551a.161.161,0,0,1-.042.009.153.153,0,0,1-.041.007c.01,0,.046-.009.083-.017ZM248.192,25.238c-.223.059-.447.114-.676.158a10.129,10.129,0,0,0-1.957.5c-.072,0-.141.016-.211.022h-.64a.255.255,0,0,0-.249.122l-.5,0h-3.485l-1,0c-.162-.187-.382-.119-.579-.121-.72-.007-1.44,0-2.16,0h-.233c.179-.079.358-.161.531-.257.116-.038.235-.067.347-.116,1.58-.692,3.146-1.419,4.737-2.082a1.8,1.8,0,0,0,.678-.383.416.416,0,0,1,.07-.056.454.454,0,0,1,.05-.038.238.238,0,0,1,.072-.018.328.328,0,0,1,.041-.01.532.532,0,0,1,.239.075l.062.032h0c.284.146.568.293.861.415.67.278,1.335.572,2,.868l.005,0q.634.283,1.268.566c.242.107.482.216.723.324M32.8,30.723l0,0-.013-.023-.012-.025a.17.17,0,0,1,.024-.008c0,.02,0,.039,0,.059M193.112,19.136h0l.005.007-.006-.006h0M174,19.24l-.021,0-.056-.006-.032-.006.071-.043.037.056m-2.511-.58c-.016-.026-.033-.051-.046-.07s-.015-.024-.02-.031h.15a.381.381,0,0,1-.083.1m-36.178.334h0s0,0,0,.006l-.005-.006h0m-72.18,1.639-.007.016v0l0,.005-.028-.007c.013-.011.026-.011.038-.018m-4,.691.038-.02.009,0,.014-.007a.346.346,0,0,1-.033.024l-.028.007M46.8,110.249a.257.257,0,0,0,.039-.014c.008.025.016.05.026.076a.857.857,0,0,1-.065-.062m17.847,53.683-.014-.011a.072.072,0,0,1,.025-.036.183.183,0,0,0-.011.048M220.807,18.668h0l.006.008-.007-.007h0M85.653,20.892c0-.006-.008-.011-.011-.017l.013,0,0,.013m-2.061,176.4,0,.017,0,.009-.036-.023h0l.041-.006v0M247.616,18.531h0l0,.007-.006-.006h0M68.144,22.788a.022.022,0,0,1-.007-.016l0,0a.021.021,0,0,1,.005.013v0m145.373-5.5a2.309,2.309,0,0,0-.725.277l-.007,0-.069.039-.036,0-.02.008a.165.165,0,0,0-.052.021l-.02.008a.149.149,0,0,0-.033.044l0,0-.032,0-.053,0h-.007l-.005,0a.193.193,0,0,0-.062.015c-.1.047-.2.1-.3.145l-.05.022-.049.026q-.4.2-.787.419l-.134.08c-.266.157-.529.321-.783.5a.164.164,0,0,0-.152.087c-.035.018-.072.035-.106.056a25.926,25.926,0,0,0-3.773,3.1,1.041,1.041,0,0,0-.342.3,6.74,6.74,0,0,0-.9.657c-.172.109-.348.21-.525.311a2.773,2.773,0,0,0-.773.127.107.107,0,0,0-.124.018,5.022,5.022,0,0,0-1.6.2.762.762,0,0,0-.2.057,2.517,2.517,0,0,0-1.036.184c-.291-.137-.577-.282-.859-.439a.226.226,0,0,0-.019-.023l-.024-.015a.481.481,0,0,0-.157-.1l-.012-.007-.04-.026a.159.159,0,0,0-.09-.058l-.011-.007-.026,0-.008-.008-.027-.027-.008-.006a2.518,2.518,0,0,0-.428-.315c-.072-.053-.144-.1-.215-.158-.482-.361-.921-.773-1.389-1.15A13.091,13.091,0,0,0,196.1,20.45a8.063,8.063,0,0,0-1.229-.88.274.274,0,0,0-.213-.137,1.608,1.608,0,0,0-.613-.379.543.543,0,0,0-.2-.162c-.482-.3-1-.537-1.5-.79a.742.742,0,0,0-.355-.116.169.169,0,0,0-.16-.073c0-.006-.01-.007-.014-.012a.145.145,0,0,0-.053-.045.207.207,0,0,0-.087-.014,2,2,0,0,0-.342-.146l-.008,0-.007,0-.246-.08a6.455,6.455,0,0,0-1.428-.248l-.066-4.087a3.09,3.09,0,0,0-.394-1.483,5.517,5.517,0,0,0-1.258-1.61c-.391-.364-.779-.736-1.137-1.131a3.575,3.575,0,0,1-.484-.678q3.166,0,6.332,0h0l6.33.048h0c.29.3.655.236,1,.25,2.106.083,4.211.079,6.32.241,1.966.151,3.944.1,5.921.086a7.533,7.533,0,0,0,.727.974c.567.637,1.136,1.272,1.714,1.9a1.493,1.493,0,0,1,.413,1.045c0,.6-.007,1.2,0,1.806.013.725.033,1.45.05,2.175a5.366,5.366,0,0,0-1.592.388m-70.922-8.33a1.079,1.079,0,0,0,.869-.245h0l1.564-.029c.484.01.967.031,1.45.028,3.38-.022,6.758-.1,10.137-.2a7.066,7.066,0,0,0,1.066,1.558c.565.635,1.132,1.267,1.708,1.893a1.484,1.484,0,0,1,.411,1.041c0,.6-.007,1.2,0,1.8.014.858.042,1.715.06,2.573l0-.006-.01-.031a.481.481,0,0,0-.051-.111l0,0h0c-.061-.086-.153-.087-.384-.081-.044,0-.088.01-.132.015a7.552,7.552,0,0,0-1.695.086c-.576.012-1.153,0-1.727.041-1.53.106-3.059.251-4.59.348-.192.012-.384.027-.576.042l-.352.037c-.911.079-1.821.176-2.73.273a5.383,5.383,0,0,0-1.316.173,9.654,9.654,0,0,0-1.691.21,4.313,4.313,0,0,0-1.01.131q-1.861.309-3.716.662c-.785.15-1.574.277-2.347.5a3.551,3.551,0,0,0-.358-.211.291.291,0,0,0-.225-.145,1.7,1.7,0,0,0-.647-.4.579.579,0,0,0-.215-.171c-.509-.315-1.052-.566-1.586-.833a.788.788,0,0,0-.374-.123.18.18,0,0,0-.169-.077c0-.007-.011-.008-.015-.013a.149.149,0,0,0-.056-.048.23.23,0,0,0-.093-.015,2.094,2.094,0,0,0-.36-.154l-.009,0-.008,0-.258-.084a7.4,7.4,0,0,0-1.673-.276l-.069-4.318a3.1,3.1,0,0,0-.394-1.483A5.517,5.517,0,0,0,129.76,9.7q-.388-.361-.76-.739h13.594M85.45,19.734a.072.072,0,0,1,.023.035c-.008-.015-.023-.022-.034-.034h.011m-7.557-.384-.008-.015.019,0-.011.013M24.254,202.8c.021-.019.043-.035.065-.053a.1.1,0,0,1-.064.052h0m16.793-13.825h-.077a.06.06,0,0,1,.017,0,.168.168,0,0,1,.036,0l.024,0h0M158.053,145.4c.109-1.849.367-3.689.329-5.547a2.326,2.326,0,0,1,.048-.6,5.911,5.911,0,0,0,0-2.162,12.979,12.979,0,0,0,.147-3.075c.006-1.148-.13-2.306-.066-3.45.125-2.2-.027-4.406.025-6.609.053-2.284,0-4.57-.017-6.855a10.7,10.7,0,0,0-.22-3.35,28.361,28.361,0,0,0-.049-2.9,13.266,13.266,0,0,1-.038-2.176q.031-.522.058-1.045c.092-.021.184-.042.275-.065l.131-.032c.11-.027.218-.058.328-.086l.015,0,.2-.052h.006s.007,0,.01-.006l.184-.051a.293.293,0,0,0,.165-.04l.112-.018c.1-.1.251-.017.353-.1l.042-.028.05.007c.079-.051.182-.038.257-.1l.028-.03.04.006c.094-.036.208-.026.266-.113.075-.049.175-.036.246-.1l.06-.023h0c.093-.031.2-.029.264-.1a1.109,1.109,0,0,1,.2-.054.468.468,0,0,0,.218-.033,2.043,2.043,0,0,0,.088.378c.019.585.011,1.172.062,1.754.109,1.249.215,2.5.226,3.751a16.523,16.523,0,0,0,.065,1.817.566.566,0,0,0,.045.241c-.038.184-.071.369-.111.552-.28,1.266-.6,2.523-.8,3.809-.388,2.5-.868,4.992-1.246,7.5-.243,1.616-.329,3.247-.575,4.858-.407,2.663-.5,5.349-.662,8.031-.009.108-.018.216-.026.325a13.4,13.4,0,0,0-.163,3.122v0a22.421,22.421,0,0,0-.469,3.3c-.055.391-.113.782-.17,1.173.019-.607.037-1.213.073-1.819M1.256,22.952c-.013.015-.021.029-.034.044a.181.181,0,0,1,.034-.044M113.818,8.957h12.935a7.5,7.5,0,0,0,.84,1.137c.567.637,1.136,1.272,1.714,1.9a1.493,1.493,0,0,1,.412,1.045c0,.6-.007,1.2,0,1.806.014.791.037,1.581.055,2.372l-.013,0a5.5,5.5,0,0,0-1.7.4,2.271,2.271,0,0,0-.7.269l-.026.009-.069.039-.035,0-.019.008a.153.153,0,0,0-.053.022l-.019.008a.147.147,0,0,0-.033.044h0c-.02,0-.039,0-.059.006l-.028,0h-.007l0,0a.193.193,0,0,0-.062.014c-.1.048-.2.1-.3.148l-.042.019-.041.022q-.4.2-.8.424c-.041.023-.081.048-.121.072-.265.156-.527.319-.779.5l-.005,0a.227.227,0,0,0-.042.011.182.182,0,0,0-.045.011.143.143,0,0,0-.064.065c-.035.019-.071.035-.1.056a25.773,25.773,0,0,0-3.753,3.082,1.04,1.04,0,0,0-.34.3,5.638,5.638,0,0,0-.733.525,1.464,1.464,0,0,1-.26-.267.252.252,0,0,0-.114-.235,1.019,1.019,0,0,0,0-.111c-.012-.055-.005-.125-.037-.164a7.606,7.606,0,0,1-.934-1.748,8.4,8.4,0,0,0-.871-1.781,13.994,13.994,0,0,0-1.153-2.3.239.239,0,0,0-.117-.23h0c-.084-.212-.262-.24-.458-.234h0l-.045-.019,0,0a1.481,1.481,0,0,0-.4-.174l-.005,0a7.905,7.905,0,0,0-1.736-.491,4.544,4.544,0,0,0-1.383-.229c-.24.019-.449-.149-.692-.113l-.222-.011c-.127-.157-.306-.1-.469-.113a7.986,7.986,0,0,0-2.651-.341,11.153,11.153,0,0,0-1.947-.126l-.025-1.556a3.1,3.1,0,0,0-.394-1.483,5.517,5.517,0,0,0-1.258-1.61c-.32-.3-.632-.6-.933-.92,3.386-.015,6.771-.042,10.156-.063m-41.01,10.7-.023,0-.064-.006-.035-.006.08-.043.042.057m-2.833-.582-.008-.011c-.014-.021-.03-.041-.042-.057l-.025-.034h.169a.4.4,0,0,1-.094.1M23.25,74.606l-.034.032-.062.066-.02.022v0a.5.5,0,0,1,.009-.1c0-.011,0-.021,0-.032a.575.575,0,0,1,.058-.146c.035.039.066.082.1.123l0,0c-.014.01-.031.025-.048.04m.975,117.355c.012-.005.014.007.016.02l-.017-.019h0M340.352,18.644h0a.048.048,0,0,1,.006.009l-.007-.008h0m-72.551-3a6.163,6.163,0,0,0-1.909.449,2.611,2.611,0,0,0-.813.311l0,0-.078.043-.04,0-.02.008a.181.181,0,0,0-.061.025l-.021.009,0,0c-.634.079-1.27.152-1.9.251a4.329,4.329,0,0,1-.9.108,2.509,2.509,0,0,0-1.082.167c.005-.03.011-.06.015-.09-.206-.141-.368-.1-.441.127-.025.076-.041.154-.06.232a2.794,2.794,0,0,0-.73.8,22.777,22.777,0,0,1-1.724,2.313,10.262,10.262,0,0,1-2.722,1.708c-.512.207-1.03.405-1.532.635-.529-.42-1.008-.9-1.52-1.345a14.364,14.364,0,0,0-1.444-1.376,8.623,8.623,0,0,0-1.312-1,.293.293,0,0,0-.227-.157,1.712,1.712,0,0,0-.655-.432.6.6,0,0,0-.218-.185c-.515-.341-1.064-.612-1.605-.9a1.5,1.5,0,0,0-.229-.107.423.423,0,0,0-.15-.025.177.177,0,0,0-.171-.083.152.152,0,0,0-.039-.036c-.011-.009-.02-.024-.033-.029a.21.21,0,0,0-.094-.016,1.834,1.834,0,0,0-.289-.137l-.069-.027-.016-.006h-.006c-.087-.032-.175-.062-.263-.092a6.891,6.891,0,0,0-1.648-.294l-.056-3.465a3.1,3.1,0,0,0-.394-1.483,5.526,5.526,0,0,0-1.258-1.61q-.352-.327-.692-.669,7.361,0,14.723,0A29.645,29.645,0,0,0,259.14,9.2c2.12-.22,4.245-.3,6.369-.376a7.339,7.339,0,0,0,.836,1.133q.84.945,1.694,1.879a1.477,1.477,0,0,1,.408,1.034c0,.6-.007,1.19,0,1.785,0,.28.013.56.019.84a3.959,3.959,0,0,0-.669.145m119.064,7.31c-.013.015-.021.029-.035.044a.2.2,0,0,1,.035-.044M361.036,2.578a.305.305,0,0,1,.068.034c-.023-.013-.045-.021-.068-.034M43.42,2.68h-.011l0-.007.015.007M1.316,229.958l.008-.01v.007l-.008,0M100.864,9.033l.624,0a7.3,7.3,0,0,0,.94,1.307c.567.637,1.136,1.272,1.714,1.9a1.493,1.493,0,0,1,.412,1.045c0,.48,0,.96,0,1.44a14.928,14.928,0,0,1-2.1.112.725.725,0,0,0-.229.017,33.627,33.627,0,0,1-3.512.438,9.24,9.24,0,0,0-1.791.343c-.16.014-.337-.047-.462.111-.159.018-.337-.038-.461.118a5.52,5.52,0,0,0-1.583.451c-.156.054-.226.192-.3.326-.192.328-.407.644-.589.978a8.756,8.756,0,0,0-1.1,2.743,4.236,4.236,0,0,0-.269.818.3.3,0,0,1,.194.391c-.121.346-.326.652-.463.991l-.1.258a.656.656,0,0,0,.145.271.22.22,0,0,1-.013.214,1.583,1.583,0,0,0-.2.294c-.28-.241-.558-.484-.845-.716a16.228,16.228,0,0,0-1.689-1.507,10.059,10.059,0,0,0-1.534-1.1.346.346,0,0,0-.266-.171h0a2.011,2.011,0,0,0-.765-.473.68.68,0,0,0-.255-.2c-.6-.374-1.245-.671-1.877-.986a.915.915,0,0,0-.443-.145l-.007.006,0,0h0a.2.2,0,0,0-.194-.092.2.2,0,0,0-.193-.089h0a3.945,3.945,0,0,0-.752-.288,7.629,7.629,0,0,0-1.663-.3l-.068-4.256a3.1,3.1,0,0,0-.394-1.483,5.526,5.526,0,0,0-1.258-1.61c-.392-.364-.779-.736-1.137-1.131l-.011-.014q11.253,0,22.5,0M75.838,19.446l0,.008-.008.007c0-.005,0-.01,0-.015M231.565,175.585l.018.018v.02c-.006-.013-.013-.025-.018-.037M304.706,13.091a5.825,5.825,0,0,1-1.263.146,8.628,8.628,0,0,0-1.71.185h0a16.206,16.206,0,0,0-3.021.3,6.721,6.721,0,0,0-1.664.261,8.516,8.516,0,0,0-2.311.254c-.438.09-.914-.067-1.316.21a6.011,6.011,0,0,0-3.265,1.7c-.378.431-.7.908-1.049,1.369a8.742,8.742,0,0,0-1.263,2.364,14.574,14.574,0,0,1-1.871,2.95,3.319,3.319,0,0,1-.756.71c-.24.15-.477.3-.716.455a6.034,6.034,0,0,1-2.267-1.826,12.083,12.083,0,0,1-1.009-1.852,8.707,8.707,0,0,0-.835-1.776.27.27,0,0,0-.145-.238c.01-.15,0-.311-.284-.342-.028.065-.069.137-.094.211a.394.394,0,0,0-.192-.059c-.26-.322-.678-.259-1.012-.407a8.629,8.629,0,0,0-3.378-.723.6.6,0,0,0-.315-.135,5.2,5.2,0,0,0-1.275-.156l-.578-.286a.875.875,0,0,0-.421-.138h0a.16.16,0,0,0-.084-.07.209.209,0,0,0-.03,0,.361.361,0,0,0-.075-.012.153.153,0,0,0-.043-.036c-.012-.01-.022-.026-.036-.032a.259.259,0,0,0-.1-.016,2.192,2.192,0,0,0-.327-.145l-.056-.021-.032-.012-.012,0-.287-.094a6.855,6.855,0,0,0-1.44-.268l-.048-2.933a3.055,3.055,0,0,0-.39-1.466,5.462,5.462,0,0,0-1.244-1.592q-.425-.394-.829-.811c4.277-.138,8.545.158,12.816.441,3.336.221,6.691.069,10.037.083a43.736,43.736,0,0,0,7.377.306,1.241,1.241,0,0,0,.992.245c1.174.01,2.348,0,3.523,0l.924.009c.014.016.026.032.04.048q.811.912,1.635,1.812a1.422,1.422,0,0,1,.393,1c0,.088,0,.176,0,.264a5.621,5.621,0,0,0-.692.128m82.22,216.867s0-.006.007-.01v.007l-.007,0M56.125,9.3c2.24,0,4.481-.04,6.72-.043.428,0,.889.1,1.267-.253,2.731.011,5.464.031,8.2.032h3.97A7.148,7.148,0,0,0,77.34,10.58q.851.955,1.714,1.9a1.491,1.491,0,0,1,.413,1.045c0,.6-.007,1.2,0,1.806.013.721.033,1.442.05,2.163a4.156,4.156,0,0,0-.641.141,6.53,6.53,0,0,0-2.011.473h0a2.889,2.889,0,0,0-.943.375.191.191,0,0,0-.188.1l-.006,0a.637.637,0,0,0-.187.028c-.53.249-1.048.518-1.551.814a11.563,11.563,0,0,0-1.841-.247.1.1,0,0,0-.082-.008.563.563,0,0,0-.179-.074,13.31,13.31,0,0,1-1.569-.2,4.042,4.042,0,0,0-1.08-.113.11.11,0,0,0-.086-.009.789.789,0,0,0-.513-.08l-.29-.023a1.224,1.224,0,0,0-.718-.079l-.3-.021a6.065,6.065,0,0,0-1.324-.174c-1.139-.119-2.274-.276-3.42-.343-.617-.036-1.232-.092-1.847-.149l-.041,0c-.48-.044-.96-.09-1.44-.128a1.317,1.317,0,0,0-.637.01c0-.022,0-.039,0-.062l-.073-4.564a3.1,3.1,0,0,0-.394-1.483,5.519,5.519,0,0,0-1.259-1.61q-.4-.37-.778-.758M22.2,66.247c0,.052-.008.1-.01.155a.487.487,0,0,1,.01-.155m70.057,90.679v0h0l0,0M245.439,175.9h0a.486.486,0,0,0-.006.076l-.012,0c0-.024.01-.049.016-.072M333.734,12.48a1.493,1.493,0,0,1,.412,1.045c0,.6-.007,1.2,0,1.805.008.458.02.915.032,1.373a5.968,5.968,0,0,0-1.8.431,2.525,2.525,0,0,0-.793.3l-.007,0-.055.031-.021.011h0l-.038,0-.022.009a.174.174,0,0,0-.057.023l-.022.009a.158.158,0,0,0-.035.048l0,0c-.019,0-.037,0-.055.006l-.039,0h-.007l0,0a.239.239,0,0,0-.069.016c-.11.052-.219.107-.328.16l-.051.023-.051.027q-.441.218-.866.461l-.14.083c-.29.171-.576.349-.852.545l-.006,0a.239.239,0,0,0-.075.018c-.007,0-.015,0-.021.005a.155.155,0,0,0-.07.071c-.038.02-.078.038-.115.062-.358.227-.7.47-1.041.722a18.768,18.768,0,0,0-2.175.75c-.253.1-.5.2-.753.3-.4-.632-.706-1.318-1.043-1.986a9.225,9.225,0,0,0-3.124-3.534,8.467,8.467,0,0,0-2.993-1.178,7.594,7.594,0,0,0-2.407-.733c-1.547-.059-3.079-.312-4.629-.3a7.05,7.05,0,0,1-2-.235,1.066,1.066,0,0,0-.8.073q-.295-.017-.589-.028l-.008-.459a2.957,2.957,0,0,0-.376-1.415,4.72,4.72,0,0,0-.825-1.162c.322.012.643.02.965.012,2.9-.074,5.793-.128,8.691-.269,5.216-.253,10.445.054,15.666-.263a7.38,7.38,0,0,0,.885,1.216q.851.955,1.714,1.9" transform="translate(0 0)" fill="#40bbff"/>
        <path id="Caminho_770282" data-name="Caminho 770282" d="M181.764,43.073c-.021.079-.043.157-.069.235a1.676,1.676,0,0,0-.167.762q.117-.5.236-1" transform="translate(-89.753 -21.298)" fill="#40bbff"/>
        <path id="Caminho_770283" data-name="Caminho 770283" d="M183.979,339.372l.044,0-.175-.045a.215.215,0,0,0,.131.042" transform="translate(-90.904 -167.783)" fill="#40bbff"/>
        <path id="Caminho_770284" data-name="Caminho 770284" d="M181.569,320.118v-.175a.157.157,0,0,0-.037.06.085.085,0,0,0,.037.115" transform="translate(-89.755 -158.197)" fill="#40bbff"/>
        <path id="Caminho_770285" data-name="Caminho 770285" d="M182.118,337.4a1.507,1.507,0,0,0,.049.609c.036.106.08.122.118.091-.119-.111-.153-.27-.162-.554l0-.146" transform="translate(-90.044 -166.83)" fill="#40bbff"/>
        <path id="Caminho_770286" data-name="Caminho 770286" d="M182.02,308.285a.623.623,0,0,0-.023.39l.02-.334,0-.056" transform="translate(-89.978 -152.432)" fill="#40bbff"/>
        <path id="Caminho_770287" data-name="Caminho 770287" d="M212.5,296.8c0,.1,0,.192,0,.287.053-.041.049-.123.05-.193a3.454,3.454,0,0,0-.022-.977c-.011.292-.02.587-.025.882" transform="translate(-105.071 -146.317)" fill="#40bbff"/>
        <path id="Caminho_770288" data-name="Caminho 770288" d="M182.173,304.161a.9.9,0,0,0-.038.742c.016-.243.027-.492.038-.742" transform="translate(-90.023 -150.393)" fill="#40bbff"/>
      </g>
    </g>
    <path id="GettyImages-1412762526" d="M-101.455.155,261.6,0,200.08,267.508l-363.39-.2Z" transform="translate(538.033 91.246)" fill="#0041d9"/>
    <path id="Caminho_773574" data-name="Caminho 773574" d="M11.676,19,7.182,5.539H5.229L.294,19h1.68l.336-1.428.819-2.226,2.73-.063,3.024.063.756,2.31L9.954,19ZM8.421,13.918l-2.415.042-2.352-.042L6.09,7.282h.147Zm8.022-4.683c-2.079,0-3.318,1.176-3.318,2.772,0,2.982,4.389,2.583,4.389,4.515a1.578,1.578,0,0,1-1.743,1.449,4.132,4.132,0,0,1-2.562-1.05l-.189.126-.21,1.428a6.169,6.169,0,0,0,2.793.693c2.226,0,3.423-1.407,3.423-2.94,0-2.9-4.368-2.5-4.368-4.431a1.455,1.455,0,0,1,1.6-1.365,3.643,3.643,0,0,1,2.016.693l.252-.063L18.753,9.7A6.123,6.123,0,0,0,16.443,9.235Zm9.2,1.365-.273-1.281-1.554.105L26.8,19h1.785l3.528-9.618H30.618l-.336,1.3-2.457,6.657h-.1Zm8.778,3.507,5.859-.021.357-.273c.021-.252.042-.735.042-.966,0-2.268-1.218-3.612-3.318-3.612-2.751,0-4.515,1.911-4.515,5.019,0,3.024,1.617,4.914,4.368,4.914a6.585,6.585,0,0,0,2.919-.777l.168-1.407-.189-.1a5.13,5.13,0,0,1-2.814.945c-1.932,0-2.877-1.386-2.877-3.654Zm2.793-3.7c1.155,0,1.974.693,1.974,2.2l-.042.252-4.62.126C34.818,11.335,35.784,10.411,37.212,10.411ZM49.077,19h1.68l-.084-4.179.042-2.73c.021-1.806-1.071-2.835-3.213-2.835a6.611,6.611,0,0,0-2.667,1.491h-.126L44.73,9.34l-1.6.147.084,5.439L43.113,19h1.659l-.084-4.221.021-2.646a4.164,4.164,0,0,1,2.835-1.491c1.113,0,1.659.714,1.638,1.827Zm12.054-4.221.126-10.521L59.6,4.4l.042,5.019a8.181,8.181,0,0,0-1.848-.21c-2.919,0-4.662,1.806-4.662,5,0,3.108,1.491,4.893,4.284,4.893A6.983,6.983,0,0,0,59.7,17.656h.147a1.548,1.548,0,0,0,1.47,1.47,3.024,3.024,0,0,0,1.2-.42l.147-.945-.168-.147a2.119,2.119,0,0,1-.714.126c-.441,0-.588-.21-.609-.8ZM57.582,10.39a4.9,4.9,0,0,1,2.058.525l.042,3.99-.042,1.512A2.982,2.982,0,0,1,57.33,17.7c-1.6,0-2.6-1.3-2.646-3.633C54.642,11.629,55.818,10.39,57.582,10.39ZM67.956,9.214a6.045,6.045,0,0,0-3.591,1.3l.21,1.2.168.084A4.576,4.576,0,0,1,67.7,10.411a1.517,1.517,0,0,1,1.659,1.7l-.021,1.365-3.4.8a2.163,2.163,0,0,0-1.953,2.247c0,1.617,1.092,2.625,2.982,2.625a6.193,6.193,0,0,0,2.247-1.575h.147a1.5,1.5,0,0,0,1.449,1.554,3.024,3.024,0,0,0,1.2-.42l.168-.945-.168-.147a2.291,2.291,0,0,1-.714.126c-.483,0-.651-.21-.651-.819,0-.735.252-4.452.252-5.187C70.9,10.159,69.762,9.214,67.956,9.214Zm1.365,5.334-.063,1.722a3.222,3.222,0,0,1-2.352,1.491,1.346,1.346,0,0,1-1.428-1.47.92.92,0,0,1,.8-1.008Zm7.791-5.313c-2.079,0-3.318,1.176-3.318,2.772,0,2.982,4.389,2.583,4.389,4.515a1.578,1.578,0,0,1-1.743,1.449,4.132,4.132,0,0,1-2.562-1.05l-.189.126-.21,1.428a6.169,6.169,0,0,0,2.793.693c2.226,0,3.423-1.407,3.423-2.94,0-2.9-4.368-2.5-4.368-4.431a1.455,1.455,0,0,1,1.6-1.365,3.643,3.643,0,0,1,2.016.693l.252-.063L79.422,9.7A6.123,6.123,0,0,0,77.112,9.235ZM86.5,14.107l5.859-.021.357-.273c.021-.252.042-.735.042-.966,0-2.268-1.218-3.612-3.318-3.612-2.751,0-4.515,1.911-4.515,5.019,0,3.024,1.617,4.914,4.368,4.914a6.585,6.585,0,0,0,2.919-.777l.168-1.407-.189-.1a5.13,5.13,0,0,1-2.814.945c-1.932,0-2.877-1.386-2.877-3.654Zm2.793-3.7c1.155,0,1.974.693,1.974,2.2l-.042.252-4.62.126C86.9,11.335,87.864,10.411,89.292,10.411Zm8.547-1.176c-2.079,0-3.318,1.176-3.318,2.772,0,2.982,4.389,2.583,4.389,4.515a1.578,1.578,0,0,1-1.743,1.449,4.132,4.132,0,0,1-2.562-1.05l-.189.126-.21,1.428A6.169,6.169,0,0,0,97,19.168c2.226,0,3.423-1.407,3.423-2.94,0-2.9-4.368-2.5-4.368-4.431a1.455,1.455,0,0,1,1.6-1.365,3.643,3.643,0,0,1,2.016.693l.252-.063.231-1.365A6.123,6.123,0,0,0,97.839,9.235Zm8.169,8.484c-.924,0-1.344-.378-1.323-1.512l.105-5.691h2.835l.105-.987-.084-.126H104.79l.042-2.037-.168-.147-1.449.63V9.4h-1.281l-.1.987.084.126h1.323l.021,4.347-.063,1.491a2.426,2.426,0,0,0,2.247,2.772,6.053,6.053,0,0,0,2.1-.609l.168-1.092-.189-.126A3.181,3.181,0,0,1,106.008,17.719Zm6.846-8.505a6.045,6.045,0,0,0-3.591,1.3l.21,1.2.168.084a4.576,4.576,0,0,1,2.961-1.386,1.517,1.517,0,0,1,1.659,1.7l-.021,1.365-3.4.8a2.163,2.163,0,0,0-1.953,2.247c0,1.617,1.092,2.625,2.982,2.625a6.193,6.193,0,0,0,2.247-1.575h.147a1.5,1.5,0,0,0,1.449,1.554,3.024,3.024,0,0,0,1.2-.42l.168-.945-.168-.147a2.291,2.291,0,0,1-.714.126c-.483,0-.651-.21-.651-.819,0-.735.252-4.452.252-5.187C115.794,10.159,114.66,9.214,112.854,9.214Zm1.365,5.334-.063,1.722a3.222,3.222,0,0,1-2.352,1.491,1.346,1.346,0,0,1-1.428-1.47.92.92,0,0,1,.8-1.008Zm5.355-3.948L119.3,9.319l-1.554.105L120.729,19h1.785l3.528-9.618h-1.491l-.336,1.3-2.457,6.657h-.105Zm11.151-1.386a6.045,6.045,0,0,0-3.591,1.3l.21,1.2.168.084a4.576,4.576,0,0,1,2.961-1.386,1.517,1.517,0,0,1,1.659,1.7l-.021,1.365-3.4.8a2.163,2.163,0,0,0-1.953,2.247c0,1.617,1.092,2.625,2.982,2.625a6.193,6.193,0,0,0,2.247-1.575h.147a1.5,1.5,0,0,0,1.449,1.554,3.024,3.024,0,0,0,1.2-.42l.168-.945-.168-.147a2.291,2.291,0,0,1-.714.126c-.483,0-.651-.21-.651-.819,0-.735.252-4.452.252-5.187C133.665,10.159,132.531,9.214,130.725,9.214Zm1.365,5.334-.063,1.722a3.222,3.222,0,0,1-2.352,1.491,1.346,1.346,0,0,1-1.428-1.47.92.92,0,0,1,.8-1.008ZM149.163,19h1.68l-.063-4.179.021-2.73c.021-1.806-1.071-2.835-3.192-2.835a6.906,6.906,0,0,0-2.856,1.6h-.126c-.4-1.029-1.407-1.6-3-1.6a6.415,6.415,0,0,0-2.646,1.491h-.147l.021-1.407-1.6.147.084,5.439L137.235,19h1.659l-.084-4.221.021-2.625a4.2,4.2,0,0,1,2.835-1.512c1.113,0,1.659.714,1.638,1.827L143.2,19h1.68l-.084-4.179.042-2.73a4.144,4.144,0,0,1,2.793-1.449,1.576,1.576,0,0,1,1.659,1.827ZM160.9,9.214c-2.646,0-4.263,1.953-4.263,5.04,0,3.045,1.554,4.914,4.1,4.914a6.813,6.813,0,0,0,2.562-.546l.189-1.407-.189-.1a4.717,4.717,0,0,1-2.352.714c-1.722,0-2.73-1.407-2.73-3.654,0-2.268.987-3.591,2.625-3.591a4.088,4.088,0,0,1,2.163.714l.189-.063.294-1.449A6.385,6.385,0,0,0,160.9,9.214Zm7.581,0a6.045,6.045,0,0,0-3.591,1.3l.21,1.2.168.084a4.576,4.576,0,0,1,2.961-1.386,1.517,1.517,0,0,1,1.659,1.7l-.021,1.365-3.4.8a2.163,2.163,0,0,0-1.953,2.247c0,1.617,1.092,2.625,2.982,2.625a6.193,6.193,0,0,0,2.247-1.575h.147a1.5,1.5,0,0,0,1.449,1.554,3.024,3.024,0,0,0,1.2-.42l.168-.945-.168-.147a2.291,2.291,0,0,1-.714.126c-.483,0-.651-.21-.651-.819,0-.735.252-4.452.252-5.187C171.423,10.159,170.289,9.214,168.483,9.214Zm1.365,5.334-.063,1.722a3.222,3.222,0,0,1-2.352,1.491A1.346,1.346,0,0,1,166,16.291a.92.92,0,0,1,.8-1.008ZM175.9,5.077a.926.926,0,0,0-.987.987.863.863,0,0,0,.924.966A.938.938,0,0,0,176.82,6,.86.86,0,0,0,175.9,5.077Zm.651,9.7.126-5.439-1.659.147.084,5.439L174.993,19h1.659ZM185.955,19h1.68l-.084-4.179.042-2.73c.021-1.806-1.071-2.835-3.213-2.835a6.611,6.611,0,0,0-2.667,1.491h-.126l.021-1.407-1.6.147.084,5.439L179.991,19h1.659l-.084-4.221.021-2.646a4.164,4.164,0,0,1,2.835-1.491c1.113,0,1.659.714,1.638,1.827Zm12.054-4.221.126-10.521-1.659.147.042,5.019a8.182,8.182,0,0,0-1.848-.21c-2.919,0-4.662,1.806-4.662,5,0,3.108,1.491,4.893,4.284,4.893a6.983,6.983,0,0,0,2.289-1.449h.147a1.548,1.548,0,0,0,1.47,1.47,3.024,3.024,0,0,0,1.2-.42l.147-.945-.168-.147a2.119,2.119,0,0,1-.714.126c-.441,0-.588-.21-.609-.8ZM194.46,10.39a4.9,4.9,0,0,1,2.058.525l.042,3.99-.042,1.512a2.982,2.982,0,0,1-2.31,1.281c-1.6,0-2.6-1.3-2.646-3.633C191.52,11.629,192.7,10.39,194.46,10.39Zm10.794-1.176c-2.793,0-4.389,1.869-4.389,5.1,0,3.087,1.512,4.851,4.137,4.851,2.793,0,4.368-1.869,4.368-5.1C209.37,10.978,207.858,9.214,205.254,9.214Zm-.1,1.176c1.722,0,2.667,1.386,2.667,4.053,0,2.352-.945,3.528-2.709,3.528-1.722,0-2.667-1.323-2.667-4.032C202.44,11.629,203.385,10.39,205.149,10.39Zm11.067,3.717,5.859-.021.357-.273c.021-.252.042-.735.042-.966,0-2.268-1.218-3.612-3.318-3.612-2.751,0-4.515,1.911-4.515,5.019,0,3.024,1.617,4.914,4.368,4.914a6.585,6.585,0,0,0,2.919-.777l.168-1.407-.189-.1a5.13,5.13,0,0,1-2.814.945c-1.932,0-2.877-1.386-2.877-3.654Zm2.793-3.7c1.155,0,1.974.693,1.974,2.2l-.042.252-4.62.126C216.615,11.335,217.581,10.411,219.009,10.411ZM5.271,38.214c-2.793,0-4.389,1.869-4.389,5.1,0,3.087,1.512,4.851,4.137,4.851,2.793,0,4.368-1.869,4.368-5.1C9.387,39.978,7.875,38.214,5.271,38.214ZM5.166,39.39c1.722,0,2.667,1.386,2.667,4.053,0,2.352-.945,3.528-2.709,3.528-1.722,0-2.667-1.323-2.667-4.032C2.457,40.629,3.4,39.39,5.166,39.39Zm9.45-1.155c-2.079,0-3.318,1.176-3.318,2.772,0,2.982,4.389,2.583,4.389,4.515a1.578,1.578,0,0,1-1.743,1.449,4.132,4.132,0,0,1-2.562-1.05l-.189.126-.21,1.428a6.169,6.169,0,0,0,2.793.693c2.226,0,3.423-1.407,3.423-2.94,0-2.9-4.368-2.5-4.368-4.431a1.455,1.455,0,0,1,1.6-1.365,3.643,3.643,0,0,1,2.016.693l.252-.063.231-1.365A6.123,6.123,0,0,0,14.616,38.235Zm12.075-.021c-2.646,0-4.263,1.953-4.263,5.04,0,3.045,1.554,4.914,4.095,4.914a6.813,6.813,0,0,0,2.562-.546l.189-1.407-.189-.1a4.717,4.717,0,0,1-2.352.714c-1.722,0-2.73-1.407-2.73-3.654,0-2.268.987-3.591,2.625-3.591a4.088,4.088,0,0,1,2.163.714l.189-.063.294-1.449A6.385,6.385,0,0,0,26.691,38.214Zm8.19,0c-2.793,0-4.389,1.869-4.389,5.1,0,3.087,1.512,4.851,4.137,4.851,2.793,0,4.368-1.869,4.368-5.1C39,39.978,37.485,38.214,34.881,38.214Zm-.1,1.176c1.722,0,2.667,1.386,2.667,4.053,0,2.352-.945,3.528-2.709,3.528-1.722,0-2.667-1.323-2.667-4.032C32.067,40.629,33.012,39.39,34.776,39.39ZM47.544,48h1.68l-.084-4.179.042-2.73c.021-1.806-1.071-2.835-3.213-2.835A6.611,6.611,0,0,0,43.3,39.747h-.126L43.2,38.34l-1.6.147.084,5.439L41.58,48h1.659l-.084-4.221.021-2.646a4.164,4.164,0,0,1,2.835-1.491c1.113,0,1.659.714,1.638,1.827Zm7.5-9.765c-2.079,0-3.318,1.176-3.318,2.772,0,2.982,4.389,2.583,4.389,4.515a1.578,1.578,0,0,1-1.743,1.449,4.132,4.132,0,0,1-2.562-1.05l-.189.126-.21,1.428a6.169,6.169,0,0,0,2.793.693c2.226,0,3.423-1.407,3.423-2.94,0-2.9-4.368-2.5-4.368-4.431a1.455,1.455,0,0,1,1.6-1.365,3.643,3.643,0,0,1,2.016.693l.252-.063.231-1.365A6.123,6.123,0,0,0,55.041,38.235Zm12.369.1-1.6.147v6.951a3.884,3.884,0,0,1-2.6,1.281c-1.092,0-1.638-.693-1.617-1.827l.126-6.552-1.68.147.063,4.137-.021,2.667c-.021,1.806,1.071,2.835,3.15,2.835a6.1,6.1,0,0,0,2.6-1.47H66a1.529,1.529,0,0,0,1.449,1.47,3.024,3.024,0,0,0,1.2-.42l.147-.945-.147-.147a2.309,2.309,0,0,1-.735.126c-.441,0-.63-.21-.63-.8ZM82.824,48H84.5l-.063-4.179.021-2.73c.021-1.806-1.071-2.835-3.192-2.835a6.906,6.906,0,0,0-2.856,1.6h-.126c-.4-1.029-1.407-1.6-3-1.6a6.415,6.415,0,0,0-2.646,1.491h-.147l.021-1.407-1.6.147L71,43.926,70.9,48h1.659l-.084-4.221.021-2.625a4.2,4.2,0,0,1,2.835-1.512c1.113,0,1.659.714,1.638,1.827L76.86,48h1.68l-.084-4.179.042-2.73a4.144,4.144,0,0,1,2.793-1.449,1.576,1.576,0,0,1,1.659,1.827Zm5.691-13.923a.926.926,0,0,0-.987.987.863.863,0,0,0,.924.966A.938.938,0,0,0,89.439,35,.86.86,0,0,0,88.515,34.077Zm.651,9.7.126-5.439-1.659.147.084,5.439L87.612,48h1.659Zm10.647,0,.126-10.521L98.28,33.4l.042,5.019a8.181,8.181,0,0,0-1.848-.21c-2.919,0-4.662,1.806-4.662,5,0,3.108,1.491,4.893,4.284,4.893a6.983,6.983,0,0,0,2.289-1.449h.147a1.548,1.548,0,0,0,1.47,1.47,3.024,3.024,0,0,0,1.2-.42l.147-.945-.168-.147a2.119,2.119,0,0,1-.714.126c-.441,0-.588-.21-.609-.8ZM96.264,39.39a4.9,4.9,0,0,1,2.058.525l.042,3.99-.042,1.512a2.982,2.982,0,0,1-2.31,1.281c-1.6,0-2.6-1.3-2.646-3.633C93.324,40.629,94.5,39.39,96.264,39.39Zm10.794-1.176c-2.793,0-4.389,1.869-4.389,5.1,0,3.087,1.512,4.851,4.137,4.851,2.793,0,4.368-1.869,4.368-5.1C111.174,39.978,109.662,38.214,107.058,38.214Zm-.105,1.176c1.722,0,2.667,1.386,2.667,4.053,0,2.352-.945,3.528-2.709,3.528-1.722,0-2.667-1.323-2.667-4.032C104.244,40.629,105.189,39.39,106.953,39.39Zm11.214-1.029c-.819,0-1.827.441-2.688,1.953h-.126l.021-1.974-1.6.147.105,5.439L113.757,48h1.659l-.105-4.221.021-1.47c.756-1.659,1.533-2.331,2.436-2.331a2.908,2.908,0,0,1,.756.1l.189-.063V38.4A4.129,4.129,0,0,0,118.167,38.361Zm3,4.746,5.859-.021.357-.273c.021-.252.042-.735.042-.966,0-2.268-1.218-3.612-3.318-3.612-2.751,0-4.515,1.911-4.515,5.019,0,3.024,1.617,4.914,4.368,4.914a6.585,6.585,0,0,0,2.919-.777l.168-1.407-.189-.1a5.13,5.13,0,0,1-2.814.945c-1.932,0-2.877-1.386-2.877-3.654Zm2.793-3.7c1.155,0,1.974.693,1.974,2.205l-.042.252-4.62.126C121.569,40.335,122.535,39.411,123.963,39.411Zm8.547-1.176c-2.079,0-3.318,1.176-3.318,2.772,0,2.982,4.389,2.583,4.389,4.515a1.578,1.578,0,0,1-1.743,1.449,4.132,4.132,0,0,1-2.562-1.05l-.189.126-.21,1.428a6.169,6.169,0,0,0,2.793.693c2.226,0,3.423-1.407,3.423-2.94,0-2.9-4.368-2.5-4.368-4.431a1.455,1.455,0,0,1,1.6-1.365,3.643,3.643,0,0,1,2.016.693l.252-.063.231-1.365A6.123,6.123,0,0,0,132.51,38.235ZM147.063,48h1.68l-.084-4.179.042-2.73c.021-1.806-1.071-2.835-3.213-2.835a6.611,6.611,0,0,0-2.667,1.491H142.7l.021-1.407-1.6.147.084,5.439L141.1,48h1.659l-.084-4.221.021-2.646a4.164,4.164,0,0,1,2.835-1.491c1.113,0,1.659.714,1.638,1.827Zm11.172-13.482-.5-.525h-.168c-.546.525-.882.966-1.2.966-.525,0-2.373-.651-3.255-.756l-.21.063-1.281,1.449v.147l.5.546h.189c.525-.525.861-.987,1.176-.987.546,0,2.394.693,3.255.777l.21-.063,1.281-1.449Zm-3.129,3.7a6.1,6.1,0,0,0-3.612,1.3l.231,1.2.168.084a4.533,4.533,0,0,1,2.961-1.386,1.517,1.517,0,0,1,1.659,1.7l-.021,1.365-3.4.8a2.163,2.163,0,0,0-1.953,2.247c0,1.617,1.092,2.625,2.982,2.625a6.193,6.193,0,0,0,2.247-1.575h.126a1.521,1.521,0,0,0,1.47,1.554,3.143,3.143,0,0,0,1.2-.42l.147-.945-.168-.147a2.1,2.1,0,0,1-.693.126c-.5,0-.672-.21-.672-.819,0-.735.273-4.452.273-5.187C158.046,39.159,156.891,38.214,155.106,38.214Zm1.365,5.334-.063,1.722a3.256,3.256,0,0,1-2.373,1.491,1.341,1.341,0,0,1-1.407-1.47.9.9,0,0,1,.8-1.008Zm8.757-5.334c-2.793,0-4.389,1.869-4.389,5.1,0,3.087,1.512,4.851,4.137,4.851,2.793,0,4.368-1.869,4.368-5.1C169.344,39.978,167.832,38.214,165.228,38.214Zm-.1,1.176c1.722,0,2.667,1.386,2.667,4.053,0,2.352-.945,3.528-2.709,3.528-1.722,0-2.667-1.323-2.667-4.032C162.414,40.629,163.359,39.39,165.123,39.39Zm12.915-1.155c-2.079,0-3.318,1.176-3.318,2.772,0,2.982,4.389,2.583,4.389,4.515a1.578,1.578,0,0,1-1.743,1.449,4.132,4.132,0,0,1-2.562-1.05l-.189.126-.21,1.428a6.169,6.169,0,0,0,2.793.693c2.226,0,3.423-1.407,3.423-2.94,0-2.9-4.368-2.5-4.368-4.431a1.455,1.455,0,0,1,1.6-1.365,3.643,3.643,0,0,1,2.016.693l.252-.063.231-1.365A6.123,6.123,0,0,0,178.038,38.235Zm5.922,4.872,5.859-.021.357-.273c.021-.252.042-.735.042-.966,0-2.268-1.218-3.612-3.318-3.612-2.751,0-4.515,1.911-4.515,5.019,0,3.024,1.617,4.914,4.368,4.914a6.585,6.585,0,0,0,2.919-.777l.168-1.407-.189-.1a5.13,5.13,0,0,1-2.814.945c-1.932,0-2.877-1.386-2.877-3.654Zm2.793-3.7c1.155,0,1.974.693,1.974,2.205l-.042.252-4.62.126C184.359,40.335,185.325,39.411,186.753,39.411ZM2.562,63.077a.926.926,0,0,0-.987.987.863.863,0,0,0,.924.966A.938.938,0,0,0,3.486,64,.86.86,0,0,0,2.562,63.077Zm.651,9.7.126-5.439-1.659.147.084,5.439L1.659,77H3.318Zm10.647,0,.126-10.521-1.659.147.042,5.019a8.182,8.182,0,0,0-1.848-.21c-2.919,0-4.662,1.806-4.662,5,0,3.108,1.491,4.893,4.284,4.893a6.983,6.983,0,0,0,2.289-1.449h.147a1.548,1.548,0,0,0,1.47,1.47,3.024,3.024,0,0,0,1.2-.42l.147-.945-.168-.147a2.119,2.119,0,0,1-.714.126c-.441,0-.588-.21-.609-.8ZM10.311,68.39a4.9,4.9,0,0,1,2.058.525l.042,3.99-.042,1.512a2.982,2.982,0,0,1-2.31,1.281c-1.6,0-2.6-1.3-2.646-3.633C7.371,69.629,8.547,68.39,10.311,68.39Zm7.98,3.717,5.859-.021.357-.273c.021-.252.042-.735.042-.966,0-2.268-1.218-3.612-3.318-3.612-2.751,0-4.515,1.911-4.515,5.019,0,3.024,1.617,4.914,4.368,4.914A6.585,6.585,0,0,0,24,76.391l.168-1.407-.189-.105a5.13,5.13,0,0,1-2.814.945c-1.932,0-2.877-1.386-2.877-3.654Zm2.793-3.7c1.155,0,1.974.693,1.974,2.2l-.042.252-4.62.126C18.69,69.335,19.656,68.411,21.084,68.411ZM32.949,77h1.68l-.084-4.179.042-2.73c.021-1.806-1.071-2.835-3.213-2.835a6.611,6.611,0,0,0-2.667,1.491h-.126L28.6,67.34l-1.6.147.084,5.439L26.985,77h1.659l-.084-4.221.021-2.646a4.164,4.164,0,0,1,2.835-1.491c1.113,0,1.659.714,1.638,1.827Zm7.9-1.281c-.924,0-1.344-.378-1.323-1.512l.1-5.691h2.835l.105-.987-.084-.126H39.627l.042-2.037-.168-.147-1.449.63V67.4H36.771l-.1.987.084.126h1.323l.021,4.347-.063,1.491a2.426,2.426,0,0,0,2.247,2.772,6.053,6.053,0,0,0,2.1-.609l.168-1.092-.189-.126A3.181,3.181,0,0,1,40.845,75.719ZM45.4,63.077a.926.926,0,0,0-.987.987.863.863,0,0,0,.924.966A.938.938,0,0,0,46.326,64,.86.86,0,0,0,45.4,63.077Zm.651,9.7.126-5.439-1.659.147.084,5.439L44.5,77h1.659ZM53.97,62.216c-2.73,0-3.969,1.218-3.969,3.906V67.4H48.594l-.1.987.084.126h1.449l.042,4.41L49.938,77H51.6l-.1-4.2.063-4.284H56.2l.084,4.431L56.154,77h1.68l-.126-4.179.126-5.481-.126-.063-.987.126H51.555l.021-1.6c0-1.638.693-2.373,2.205-2.373a5.526,5.526,0,0,1,2.478.651l.21-.063.21-1.386A9.445,9.445,0,0,0,53.97,62.216Zm10.521,5c-2.646,0-4.263,1.953-4.263,5.04,0,3.045,1.554,4.914,4.095,4.914a6.813,6.813,0,0,0,2.562-.546l.189-1.407-.189-.1a4.717,4.717,0,0,1-2.352.714c-1.722,0-2.73-1.407-2.73-3.654,0-2.268.987-3.591,2.625-3.591a4.088,4.088,0,0,1,2.163.714l.189-.063.294-1.449A6.385,6.385,0,0,0,64.491,67.214Zm7.581,0a6.045,6.045,0,0,0-3.591,1.3l.21,1.2.168.084a4.576,4.576,0,0,1,2.961-1.386,1.517,1.517,0,0,1,1.659,1.7l-.021,1.365-3.4.8A2.163,2.163,0,0,0,68.1,74.522c0,1.617,1.092,2.625,2.982,2.625a6.193,6.193,0,0,0,2.247-1.575h.147a1.5,1.5,0,0,0,1.449,1.554,3.024,3.024,0,0,0,1.2-.42l.168-.945-.168-.147a2.291,2.291,0,0,1-.714.126c-.483,0-.651-.21-.651-.819,0-.735.252-4.452.252-5.187C75.012,68.159,73.878,67.214,72.072,67.214Zm1.365,5.334-.063,1.722a3.222,3.222,0,0,1-2.352,1.491,1.346,1.346,0,0,1-1.428-1.47.92.92,0,0,1,.8-1.008ZM78.792,68.6l-.273-1.281-1.554.1L79.947,77h1.785l3.528-9.618H83.769l-.336,1.3-2.457,6.657h-.105Zm11.151-1.386a6.045,6.045,0,0,0-3.591,1.3l.21,1.2.168.084a4.576,4.576,0,0,1,2.961-1.386,1.517,1.517,0,0,1,1.659,1.7l-.021,1.365-3.4.8a2.163,2.163,0,0,0-1.953,2.247c0,1.617,1.092,2.625,2.982,2.625A6.193,6.193,0,0,0,91.2,75.572h.147A1.5,1.5,0,0,0,92.8,77.126a3.024,3.024,0,0,0,1.2-.42l.168-.945L94,75.614a2.291,2.291,0,0,1-.714.126c-.483,0-.651-.21-.651-.819,0-.735.252-4.452.252-5.187C92.883,68.159,91.749,67.214,89.943,67.214Zm1.365,5.334-.063,1.722a3.222,3.222,0,0,1-2.352,1.491,1.346,1.346,0,0,1-1.428-1.47.92.92,0,0,1,.8-1.008ZM108.381,77h1.68L110,72.821l.021-2.73c.021-1.806-1.071-2.835-3.192-2.835a6.906,6.906,0,0,0-2.856,1.6h-.126c-.4-1.029-1.407-1.6-3-1.6A6.415,6.415,0,0,0,98.2,68.747h-.147l.021-1.407-1.6.147.084,5.439L96.453,77h1.659l-.084-4.221.021-2.625a4.2,4.2,0,0,1,2.835-1.512c1.113,0,1.659.714,1.638,1.827l-.1,6.531h1.68l-.084-4.179.042-2.73a4.144,4.144,0,0,1,2.793-1.449,1.576,1.576,0,0,1,1.659,1.827Zm11.739-9.786c-2.646,0-4.263,1.953-4.263,5.04,0,3.045,1.554,4.914,4.095,4.914a6.813,6.813,0,0,0,2.562-.546l.189-1.407-.189-.1a4.717,4.717,0,0,1-2.352.714c-1.722,0-2.73-1.407-2.73-3.654,0-2.268.987-3.591,2.625-3.591a4.088,4.088,0,0,1,2.163.714l.189-.063.294-1.449A6.385,6.385,0,0,0,120.12,67.214Zm8.19,0c-2.793,0-4.389,1.869-4.389,5.1,0,3.087,1.512,4.851,4.137,4.851,2.793,0,4.368-1.869,4.368-5.1C132.426,68.978,130.914,67.214,128.31,67.214Zm-.1,1.176c1.722,0,2.667,1.386,2.667,4.053,0,2.352-.945,3.528-2.709,3.528-1.722,0-2.667-1.323-2.667-4.032C125.5,69.629,126.441,68.39,128.205,68.39ZM146.937,77h1.68l-.063-4.179.021-2.73c.021-1.806-1.071-2.835-3.192-2.835a6.906,6.906,0,0,0-2.856,1.6H142.4c-.4-1.029-1.407-1.6-3-1.6a6.415,6.415,0,0,0-2.646,1.491h-.147l.021-1.407-1.6.147.084,5.439L135.009,77h1.659l-.084-4.221.021-2.625a4.2,4.2,0,0,1,2.835-1.512c1.113,0,1.659.714,1.638,1.827l-.1,6.531h1.68l-.084-4.179.042-2.73a4.144,4.144,0,0,1,2.793-1.449,1.576,1.576,0,0,1,1.659,1.827Zm11.445-9.786a6.045,6.045,0,0,0-3.591,1.3l.21,1.2.168.084a4.576,4.576,0,0,1,2.961-1.386,1.517,1.517,0,0,1,1.659,1.7l-.021,1.365-3.4.8a2.163,2.163,0,0,0-1.953,2.247c0,1.617,1.092,2.625,2.982,2.625a6.193,6.193,0,0,0,2.247-1.575h.147a1.5,1.5,0,0,0,1.449,1.554,3.024,3.024,0,0,0,1.2-.42l.168-.945-.168-.147a2.291,2.291,0,0,1-.714.126c-.483,0-.651-.21-.651-.819,0-.735.252-4.452.252-5.187C161.322,68.159,160.188,67.214,158.382,67.214Zm1.365,5.334-.063,1.722a3.222,3.222,0,0,1-2.352,1.491,1.346,1.346,0,0,1-1.428-1.47.92.92,0,0,1,.8-1.008Zm7.791-5.313c-2.079,0-3.318,1.176-3.318,2.772,0,2.982,4.389,2.583,4.389,4.515a1.578,1.578,0,0,1-1.743,1.449,4.132,4.132,0,0,1-2.562-1.05l-.189.126-.21,1.428a6.169,6.169,0,0,0,2.793.693c2.226,0,3.423-1.407,3.423-2.94,0-2.9-4.368-2.5-4.368-4.431a1.455,1.455,0,0,1,1.6-1.365,3.643,3.643,0,0,1,2.016.693l.252-.063.231-1.365A6.123,6.123,0,0,0,167.538,67.235Zm12.642-5.019a3.13,3.13,0,0,0-3.444,3.507l.021,1.68h-1.428l-.1.987.084.126h1.449L176.8,72.9l-.126,4.1h1.659l-.1-4.221.042-4.263h2.5l.1-.987-.063-.126h-2.52l.021-1.932c.021-1.365.63-2.037,1.722-2.037a3.166,3.166,0,0,1,1.533.378l.126-.1.126-1.3A7.85,7.85,0,0,0,180.18,62.216Zm6.72,5.145c-.819,0-1.827.441-2.688,1.953h-.126l.021-1.974-1.6.147.105,5.439L182.49,77h1.659l-.1-4.221.021-1.47c.756-1.659,1.533-2.331,2.436-2.331a2.908,2.908,0,0,1,.756.105l.189-.063V67.4A4.129,4.129,0,0,0,186.9,67.361Zm5.355-.147a6.045,6.045,0,0,0-3.591,1.3l.21,1.2.168.084A4.576,4.576,0,0,1,192,68.411a1.517,1.517,0,0,1,1.659,1.7l-.021,1.365-3.4.8a2.163,2.163,0,0,0-1.953,2.247c0,1.617,1.092,2.625,2.982,2.625a6.193,6.193,0,0,0,2.247-1.575h.147a1.5,1.5,0,0,0,1.449,1.554,3.024,3.024,0,0,0,1.2-.42l.168-.945-.168-.147a2.291,2.291,0,0,1-.714.126c-.483,0-.651-.21-.651-.819,0-.735.252-4.452.252-5.187C195.2,68.159,194.061,67.214,192.255,67.214Zm1.365,5.334-.063,1.722a3.222,3.222,0,0,1-2.352,1.491,1.346,1.346,0,0,1-1.428-1.47.92.92,0,0,1,.8-1.008Zm7.791-5.313c-2.079,0-3.318,1.176-3.318,2.772,0,2.982,4.389,2.583,4.389,4.515a1.578,1.578,0,0,1-1.743,1.449,4.132,4.132,0,0,1-2.562-1.05l-.189.126-.21,1.428a6.169,6.169,0,0,0,2.793.693c2.226,0,3.423-1.407,3.423-2.94,0-2.9-4.368-2.5-4.368-4.431a1.455,1.455,0,0,1,1.6-1.365,3.643,3.643,0,0,1,2.016.693l.252-.063.231-1.365A6.123,6.123,0,0,0,201.411,67.235Zm5.922,4.872,5.859-.021.357-.273c.021-.252.042-.735.042-.966,0-2.268-1.218-3.612-3.318-3.612-2.751,0-4.515,1.911-4.515,5.019,0,3.024,1.617,4.914,4.368,4.914a6.585,6.585,0,0,0,2.919-.777l.168-1.407-.189-.105a5.13,5.13,0,0,1-2.814.945c-1.932,0-2.877-1.386-2.877-3.654Zm2.793-3.7c1.155,0,1.974.693,1.974,2.2l-.042.252-4.62.126C207.732,69.335,208.7,68.411,210.126,68.411Zm8.547-1.176c-2.079,0-3.318,1.176-3.318,2.772,0,2.982,4.389,2.583,4.389,4.515A1.578,1.578,0,0,1,218,75.971a4.132,4.132,0,0,1-2.562-1.05l-.189.126-.21,1.428a6.169,6.169,0,0,0,2.793.693c2.226,0,3.423-1.407,3.423-2.94,0-2.9-4.368-2.5-4.368-4.431a1.455,1.455,0,0,1,1.6-1.365,3.643,3.643,0,0,1,2.016.693l.252-.063.231-1.365A6.123,6.123,0,0,0,218.673,67.235Zm9.387,4.872,5.859-.021.357-.273c.021-.252.042-.735.042-.966,0-2.268-1.218-3.612-3.318-3.612-2.751,0-4.515,1.911-4.515,5.019,0,3.024,1.617,4.914,4.368,4.914a6.585,6.585,0,0,0,2.919-.777l.168-1.407-.189-.105a5.13,5.13,0,0,1-2.814.945c-1.932,0-2.877-1.386-2.877-3.654Zm2.793-3.7c1.155,0,1.974.693,1.974,2.2l-.042.252-4.62.126C228.459,69.335,229.425,68.411,230.853,68.411ZM6.069,96.361c-.819,0-1.827.441-2.688,1.953H3.255l.021-1.974-1.6.147.1,5.439L1.659,106H3.318l-.1-4.221.021-1.47c.756-1.659,1.533-2.331,2.436-2.331a2.908,2.908,0,0,1,.756.105l.189-.063V96.4A4.129,4.129,0,0,0,6.069,96.361Zm3,4.746,5.859-.021.357-.273c.021-.252.042-.735.042-.966,0-2.268-1.218-3.612-3.318-3.612-2.751,0-4.515,1.911-4.515,5.019,0,3.024,1.617,4.914,4.368,4.914a6.585,6.585,0,0,0,2.919-.777l.168-1.407-.189-.105a5.13,5.13,0,0,1-2.814.945c-1.932,0-2.877-1.386-2.877-3.654Zm2.793-3.7c1.155,0,1.974.693,1.974,2.2l-.042.252-4.62.126C9.471,98.335,10.437,97.411,11.865,97.411Zm9.954-6.2a3.13,3.13,0,0,0-3.444,3.507L18.4,96.4H16.968l-.1.987.084.126H18.4l.042,4.389-.126,4.1h1.659l-.1-4.221.042-4.263h2.5l.105-.987-.063-.126h-2.52l.021-1.932c.021-1.365.63-2.037,1.722-2.037a3.166,3.166,0,0,1,1.533.378l.126-.1.126-1.3A7.85,7.85,0,0,0,21.819,91.216Zm2.751,9.891,5.859-.021.357-.273c.021-.252.042-.735.042-.966,0-2.268-1.218-3.612-3.318-3.612-2.751,0-4.515,1.911-4.515,5.019,0,3.024,1.617,4.914,4.368,4.914a6.585,6.585,0,0,0,2.919-.777l.168-1.407-.189-.105a5.13,5.13,0,0,1-2.814.945c-1.932,0-2.877-1.386-2.877-3.654Zm2.793-3.7c1.155,0,1.974.693,1.974,2.2l-.042.252-4.62.126C24.969,98.335,25.935,97.411,27.363,97.411Zm10.311-1.05c-.819,0-1.827.441-2.688,1.953H34.86l.021-1.974-1.6.147.1,5.439L33.264,106h1.659l-.1-4.221.021-1.47c.756-1.659,1.533-2.331,2.436-2.331a2.908,2.908,0,0,1,.756.105l.189-.063V96.4A4.129,4.129,0,0,0,37.674,96.361Zm3.36-1.344h.21c.777-.756,1.491-1.47,2.142-2.184.63.714,1.344,1.428,2.142,2.184h.189l.462-.672a33,33,0,0,1-2.541-2.814h-.5c-.9,1.071-1.743,2-2.562,2.814Zm-.357,6.09,5.859-.021.336-.273a7.71,7.71,0,0,0,.063-.966c0-2.268-1.239-3.612-3.339-3.612-2.73,0-4.494,1.911-4.494,5.019,0,3.024,1.6,4.914,4.347,4.914a6.513,6.513,0,0,0,2.919-.777l.189-1.407-.189-.105a5.184,5.184,0,0,1-2.814.945c-1.932,0-2.877-1.386-2.877-3.654Zm2.793-3.7c1.155,0,1.953.693,1.953,2.2l-.042.252-4.6.126C41.076,98.335,42.042,97.411,43.47,97.411ZM55.335,106h1.68l-.084-4.179.042-2.73c.021-1.806-1.071-2.835-3.213-2.835a6.611,6.611,0,0,0-2.667,1.491h-.126l.021-1.407-1.6.147.084,5.439-.1,4.074H51.03l-.084-4.221.021-2.646A4.164,4.164,0,0,1,53.8,97.642c1.113,0,1.659.714,1.638,1.827Zm8.337-9.786c-2.646,0-4.263,1.953-4.263,5.04,0,3.045,1.554,4.914,4.1,4.914a6.813,6.813,0,0,0,2.562-.546l.189-1.407-.189-.1a4.717,4.717,0,0,1-2.352.714c-1.722,0-2.73-1.407-2.73-3.654,0-2.268.987-3.591,2.625-3.591a4.088,4.088,0,0,1,2.163.714l.189-.063.294-1.449A6.385,6.385,0,0,0,63.672,96.214Zm5.5-4.137a.926.926,0,0,0-.987.987.863.863,0,0,0,.924.966A.938.938,0,0,0,70.1,93,.86.86,0,0,0,69.174,92.077Zm.651,9.7.126-5.439-1.659.147.084,5.439L68.271,106H69.93Zm6.636-5.565a6.045,6.045,0,0,0-3.591,1.3l.21,1.2.168.084a4.576,4.576,0,0,1,2.961-1.386,1.517,1.517,0,0,1,1.659,1.7l-.021,1.365-3.4.8a2.163,2.163,0,0,0-1.953,2.247c0,1.617,1.092,2.625,2.982,2.625a6.193,6.193,0,0,0,2.247-1.575h.147a1.5,1.5,0,0,0,1.449,1.554,3.024,3.024,0,0,0,1.2-.42l.168-.945-.168-.147a2.291,2.291,0,0,1-.714.126c-.483,0-.651-.21-.651-.819,0-.735.252-4.452.252-5.187C79.4,97.159,78.267,96.214,76.461,96.214Zm1.365,5.334-.063,1.722a3.222,3.222,0,0,1-2.352,1.491,1.346,1.346,0,0,1-1.428-1.47.92.92,0,0,1,.8-1.008Zm7.791-5.313c-2.079,0-3.318,1.176-3.318,2.772,0,2.982,4.389,2.583,4.389,4.515a1.578,1.578,0,0,1-1.743,1.449,4.132,4.132,0,0,1-2.562-1.05l-.189.126-.21,1.428a6.169,6.169,0,0,0,2.793.693c2.226,0,3.423-1.407,3.423-2.94,0-2.9-4.368-2.5-4.368-4.431a1.455,1.455,0,0,1,1.6-1.365,3.643,3.643,0,0,1,2.016.693l.252-.063.231-1.365A6.123,6.123,0,0,0,85.617,96.235Zm15.792,5.544.126-10.521-1.659.147.042,5.019a8.182,8.182,0,0,0-1.848-.21c-2.919,0-4.662,1.806-4.662,5,0,3.108,1.491,4.893,4.284,4.893a6.983,6.983,0,0,0,2.289-1.449h.147a1.548,1.548,0,0,0,1.47,1.47,3.024,3.024,0,0,0,1.2-.42l.147-.945-.168-.147a2.119,2.119,0,0,1-.714.126c-.441,0-.588-.21-.609-.8ZM97.86,97.39a4.9,4.9,0,0,1,2.058.525l.042,3.99-.042,1.512a2.982,2.982,0,0,1-2.31,1.281c-1.6,0-2.6-1.3-2.646-3.633C94.92,98.629,96.1,97.39,97.86,97.39Zm10.374-1.176a6.045,6.045,0,0,0-3.591,1.3l.21,1.2.168.084a4.576,4.576,0,0,1,2.961-1.386,1.517,1.517,0,0,1,1.659,1.7l-.021,1.365-3.4.8a2.163,2.163,0,0,0-1.953,2.247c0,1.617,1.092,2.625,2.982,2.625a6.193,6.193,0,0,0,2.247-1.575h.147a1.5,1.5,0,0,0,1.449,1.554,3.024,3.024,0,0,0,1.2-.42l.168-.945-.168-.147a2.291,2.291,0,0,1-.714.126c-.483,0-.651-.21-.651-.819,0-.735.252-4.452.252-5.187C111.174,97.159,110.04,96.214,108.234,96.214Zm1.365,5.334-.063,1.722a3.222,3.222,0,0,1-2.352,1.491,1.346,1.346,0,0,1-1.428-1.47.92.92,0,0,1,.8-1.008ZM121.9,96.256l-.819.336a9.39,9.39,0,0,0-2.52-.378c-2.877,0-4.62,1.764-4.62,5.061,0,3.024,1.47,4.83,4.2,4.83a6.74,6.74,0,0,0,2.163-1.239h.168v.4l-.063,4.62h1.638l-.105-8.064.126-5.46Zm-3.528,1.155a4.565,4.565,0,0,1,2.079.567l.042,4.011-.021,1.428a3.217,3.217,0,0,1-2.415,1.281c-1.554,0-2.52-1.3-2.562-3.57C115.458,98.608,116.634,97.411,118.377,97.411Zm14.238-1.071-1.6.147v6.951a3.884,3.884,0,0,1-2.6,1.281c-1.092,0-1.638-.693-1.617-1.827l.126-6.552-1.68.147.063,4.137-.021,2.667c-.021,1.806,1.071,2.835,3.15,2.835a6.1,6.1,0,0,0,2.6-1.47h.168a1.529,1.529,0,0,0,1.449,1.47,3.024,3.024,0,0,0,1.2-.42l.147-.945-.147-.147a2.309,2.309,0,0,1-.735.126c-.441,0-.63-.21-.63-.8Zm4.284,4.767,5.859-.021.357-.273c.021-.252.042-.735.042-.966,0-2.268-1.218-3.612-3.318-3.612-2.751,0-4.515,1.911-4.515,5.019,0,3.024,1.617,4.914,4.368,4.914a6.585,6.585,0,0,0,2.919-.777l.168-1.407-.189-.105a5.13,5.13,0,0,1-2.814.945c-1.932,0-2.877-1.386-2.877-3.654Zm2.793-3.7c1.155,0,1.974.693,1.974,2.2l-.042.252-4.62.126C137.3,98.335,138.264,97.411,139.692,97.411Zm7.539,4.368.126-10.521L145.7,91.4l.1,10.5-.126,4.1h1.659Zm6.72-5.565a6.045,6.045,0,0,0-3.591,1.3l.21,1.2.168.084a4.576,4.576,0,0,1,2.961-1.386,1.517,1.517,0,0,1,1.659,1.7l-.021,1.365-3.4.8a2.163,2.163,0,0,0-1.953,2.247c0,1.617,1.092,2.625,2.982,2.625a6.193,6.193,0,0,0,2.247-1.575h.147a1.5,1.5,0,0,0,1.449,1.554,3.024,3.024,0,0,0,1.2-.42l.168-.945-.168-.147a2.291,2.291,0,0,1-.714.126c-.483,0-.651-.21-.651-.819,0-.735.252-4.452.252-5.187C156.891,97.159,155.757,96.214,153.951,96.214Zm1.365,5.334-.063,1.722a3.222,3.222,0,0,1-2.352,1.491,1.346,1.346,0,0,1-1.428-1.47.92.92,0,0,1,.8-1.008Zm15.813.231.126-10.521L169.6,91.4l.042,5.019a8.182,8.182,0,0,0-1.848-.21c-2.919,0-4.662,1.806-4.662,5,0,3.108,1.491,4.893,4.284,4.893a6.983,6.983,0,0,0,2.289-1.449h.147a1.548,1.548,0,0,0,1.47,1.47,3.024,3.024,0,0,0,1.2-.42l.147-.945-.168-.147a2.119,2.119,0,0,1-.714.126c-.441,0-.588-.21-.609-.8ZM167.58,97.39a4.9,4.9,0,0,1,2.058.525l.042,3.99-.042,1.512a2.982,2.982,0,0,1-2.31,1.281c-1.6,0-2.6-1.3-2.646-3.633C164.64,98.629,165.816,97.39,167.58,97.39Zm9.6-2.31.189.021c1.2-.84,2.331-1.7,3.57-2.667l.042-.168-.63-.882-.189-.021c-1.176,1.155-2.289,2.1-3.444,3.045Zm-1.617,6.027,5.859-.021.336-.273a7.711,7.711,0,0,0,.063-.966c0-2.268-1.239-3.612-3.339-3.612-2.73,0-4.494,1.911-4.494,5.019,0,3.024,1.6,4.914,4.347,4.914a6.512,6.512,0,0,0,2.919-.777l.189-1.407-.189-.105a5.184,5.184,0,0,1-2.814.945c-1.932,0-2.877-1.386-2.877-3.654Zm2.793-3.7c1.155,0,1.953.693,1.953,2.2l-.042.252-4.6.126C175.959,98.335,176.925,97.411,178.353,97.411Zm9.387-1.2c-2.646,0-4.263,1.953-4.263,5.04,0,3.045,1.554,4.914,4.1,4.914a6.813,6.813,0,0,0,2.562-.546l.189-1.407-.189-.1a4.717,4.717,0,0,1-2.352.714c-1.722,0-2.73-1.407-2.73-3.654,0-2.268.987-3.591,2.625-3.591a4.088,4.088,0,0,1,2.163.714l.189-.063.294-1.449A6.385,6.385,0,0,0,187.74,96.214Zm7.581,0a6.045,6.045,0,0,0-3.591,1.3l.21,1.2.168.084a4.576,4.576,0,0,1,2.961-1.386,1.517,1.517,0,0,1,1.659,1.7l-.021,1.365-3.4.8a2.163,2.163,0,0,0-1.953,2.247c0,1.617,1.092,2.625,2.982,2.625a6.193,6.193,0,0,0,2.247-1.575h.147a1.5,1.5,0,0,0,1.449,1.554,3.024,3.024,0,0,0,1.2-.42l.168-.945-.168-.147a2.291,2.291,0,0,1-.714.126c-.483,0-.651-.21-.651-.819,0-.735.252-4.452.252-5.187C198.261,97.159,197.127,96.214,195.321,96.214Zm1.365,5.334-.063,1.722a3.222,3.222,0,0,1-2.352,1.491,1.346,1.346,0,0,1-1.428-1.47.92.92,0,0,1,.8-1.008Zm12.348.231.126-10.521L207.5,91.4l.042,5.019a8.182,8.182,0,0,0-1.848-.21c-2.919,0-4.662,1.806-4.662,5,0,3.108,1.491,4.893,4.284,4.893a6.983,6.983,0,0,0,2.289-1.449h.147a1.548,1.548,0,0,0,1.47,1.47,3.024,3.024,0,0,0,1.2-.42l.147-.945-.168-.147a2.119,2.119,0,0,1-.714.126c-.441,0-.588-.21-.609-.8Zm-3.549-4.389a4.9,4.9,0,0,1,2.058.525l.042,3.99-.042,1.512a2.982,2.982,0,0,1-2.31,1.281c-1.6,0-2.6-1.3-2.646-3.633C202.545,98.629,203.721,97.39,205.485,97.39Zm10.374-1.176a6.045,6.045,0,0,0-3.591,1.3l.21,1.2.168.084a4.576,4.576,0,0,1,2.961-1.386,1.517,1.517,0,0,1,1.659,1.7l-.021,1.365-3.4.8a2.163,2.163,0,0,0-1.953,2.247c0,1.617,1.092,2.625,2.982,2.625a6.193,6.193,0,0,0,2.247-1.575h.147a1.5,1.5,0,0,0,1.449,1.554,3.024,3.024,0,0,0,1.2-.42l.168-.945-.168-.147a2.291,2.291,0,0,1-.714.126c-.483,0-.651-.21-.651-.819,0-.735.252-4.452.252-5.187C218.8,97.159,217.665,96.214,215.859,96.214Zm1.365,5.334-.063,1.722a3.222,3.222,0,0,1-2.352,1.491,1.346,1.346,0,0,1-1.428-1.47.92.92,0,0,1,.8-1.008Zm5.922,2.6a.926.926,0,0,0-.987.987.863.863,0,0,0,.924.966.932.932,0,0,0,.987-1.008A.866.866,0,0,0,223.146,104.152Z" transform="translate(475.934 166.969)" fill="#fff"/>
    <g id="Grupo_233382" data-name="Grupo 233382" transform="translate(122.146 62.164)">
      <g id="Grupo_233381" data-name="Grupo 233381" clip-path="url(#clip-path-2)">
        <path id="Caminho_759117" data-name="Caminho 759117" d="M148.265,79.407s1.982,6,8.5,5.146c7.522-.99,7.25-15.371,7.25-15.371l-12.864.558Z" transform="translate(-36.892 -17.214)" fill="#8f8f8f"/>
        <path id="Caminho_759118" data-name="Caminho 759118" d="M252.442,136.324S225.623,159.4,224.376,159.4s-13.31-4.167-13.31-4.167l-2.769-14.1-3.019-15.405-.449-2.308L219.8,88.3l11.015-.835Z" transform="translate(-50.967 -21.763)" fill="#ffa694"/>
        <path id="Caminho_759119" data-name="Caminho 759119" d="M230.306,122.336s-9.511,14.492-11.538,20.11-3.275,15-3.275,15l-1.5-3.551-2.191-1.619,1.42-4.443a23.219,23.219,0,0,1-1.082-2.729,32.135,32.135,0,0,0-2.679-4.258Z" transform="translate(-52.12 -30.441)"/>
        <path id="Caminho_759120" data-name="Caminho 759120" d="M206.3,156.208l11.522,2.963,25.338-26.663,10.06,13.858,17.07,8.439-20.6,44.282L233.1,218.89l-15.9.78L197.81,203.141l-4.065-21.362Z" transform="translate(-48.209 -32.972)" fill="#fff"/>
        <path id="Caminho_759121" data-name="Caminho 759121" d="M232.715,182.89a.521.521,0,0,1-.068,0,.624.624,0,0,1-.486-.334c-5.4-10.489-7.564-14.871-8.43-16.741l-5.5,10.712a.623.623,0,1,1-1.109-.57l6.1-11.88a.624.624,0,0,1,1.178.285c.214.672,5.013,10.119,8.44,16.786l25.7-30.792a.623.623,0,0,1,.958.8l-26.3,31.515a.622.622,0,0,1-.479.224" transform="translate(-54.008 -37.356)"/>
        <path id="Caminho_759122" data-name="Caminho 759122" d="M326,359.694c-14.557,24.948-41.376,26.033-41.376,26.033v8.42H74.341S73.58,356.2,74.116,346.9a5.875,5.875,0,0,1,.225-1.808c.113-.15-.212.05-.91.486C68.241,348.779,42.108,365,16.437,349.24c-29.1-17.875-12.05-54.885-5.4-69.442S55.53,187.079,77.559,171.737s46.727-11.663,46.727-11.663l42.864,47.686a3.267,3.267,0,0,0,5.083-.279l38.072-53.046s26.819,1.771,48.96,10.99c10.3,4.291,22.952,14.3,33.517,27.368.287.337.562.686.823,1.035a110.366,110.366,0,0,1,9.942,14.769c11.539,20.582,18.923,65.8,24.324,84.1a198.009,198.009,0,0,1,5.2,20.207c.213,1.148.412,2.308.587,3.48,1.971,13.348,1.21,28.1-7.659,43.31" transform="translate(0 -38.428)" fill="url(#linear-gradient)"/>
        <path id="Caminho_759123" data-name="Caminho 759123" d="M16.659,325.414a.623.623,0,0,1-.539-.935l20.04-34.733a.623.623,0,1,1,1.079.623L17.2,325.1a.62.62,0,0,1-.539.312" transform="translate(-3.99 -72.019)"/>
        <path id="Caminho_759124" data-name="Caminho 759124" d="M98.664,401.2c.112-.149-.212.05-.91.487a103.035,103.035,0,0,0,8.333-21.73l1.209.274a102.608,102.608,0,0,1-8.856,22.778,5.884,5.884,0,0,1,.225-1.809" transform="translate(-24.324 -94.545)"/>
        <path id="Caminho_759125" data-name="Caminho 759125" d="M377.01,206.534a300.64,300.64,0,0,0-27.8,58.129c-4.391,12.511-7.534,25.634-10.565,38.32-.736,3.069-1.472,6.15-2.22,9.218a.625.625,0,0,1-.611.474.6.6,0,0,1-.15-.013.638.638,0,0,1-.461-.761c.761-3.069,1.5-6.137,2.232-9.218,3.032-12.711,6.187-25.858,10.591-38.432A303.343,303.343,0,0,1,376.187,205.5c.287.337.561.686.823,1.035" transform="translate(-83.402 -51.134)"/>
        <path id="Caminho_759126" data-name="Caminho 759126" d="M416.847,358.833c-5.289-10.353-12.961-19.172-24.225-22.952-9.53-3.206-20.02-3.231-29.937-2.57-10.99.749-20.781,4.777-27.168,14.071a.689.689,0,0,1-1.147-.075c-.237-.361.337-.761.448-1.048a10.951,10.951,0,0,1,2.084-2.607,31.683,31.683,0,0,1,4.914-4.5,32.621,32.621,0,0,1,11.726-5.538c3.368-.836,6.536-2.894,9.792-4.141a71.359,71.359,0,0,1,10.915-3.281,47.69,47.69,0,0,1,22.89.474.629.629,0,0,1-.337,1.21c-12.674-3.63-25.534-.711-37.26,4.516,1.21-.15,2.445-.275,3.7-.362,10.491-.649,21.692-.536,31.621,3.343,9.231,3.618,16.029,10.665,20.919,19.147.161.275.312.549.473.836.213,1.148.412,2.308.587,3.48" transform="translate(-83.186 -80.876)" fill="#4f332e"/>
        <path id="Caminho_759127" data-name="Caminho 759127" d="M349.378,346.7a12.075,12.075,0,0,1,6.308-4.036,27.194,27.194,0,0,1,9.693-.472c12.207,1.057,25.086,4.726,32.792,14.252,4.765,5.891,7.031,13.4,8.5,20.835,1.851,9.335,2.522,19.458-1.744,27.966-4.406,8.786-13.371,14.385-22.5,18.026-6.015,2.4-12.468,4.166-18.912,3.532-11.131-1.1-21.038-10.113-23.084-21.109-1.139-6.122-.038-12.412,1.063-18.541q2.327-12.962,4.655-25.924c.731-4.071.983-8.683,2.233-12.614a6.638,6.638,0,0,1,.992-1.915" transform="translate(-84.59 -85.094)" fill="#fff"/>
        <path id="Caminho_759128" data-name="Caminho 759128" d="M218.107,66.457c-2.757-6.486-7.933-22.665-7.933-22.665l-2.021-2.158a24.781,24.781,0,0,1-3.193-.325c-3.231-.548-.985-7.671-3.854-9.168-2.121-1.11-9.917-3.106-12.536-2.208-1.5.512-2.794,1.858-4,2.844a32.49,32.49,0,0,1-15.431,6.7c-3.48.636-6.386,7.123-9.755,8.27-.287.1-.574.249-.873.362l-7.6,11.95s9.468,26.519,14.208,36.112c3.044,6.175,7.385,11.9,13.235,15.618.374.249.773.487,1.173.711.162.113.337.2.512.3a23.672,23.672,0,0,0,15.9,2.645c.135-.026.267-.062.4-.089,2.387-3.58,6.093-6.013,9.749-8.322a21.333,21.333,0,0,1,7.953-6.485c.167-.338.335-.675.5-1.021a39.163,39.163,0,0,0,2.569-7.771c.088-.412.188-.848.275-1.322.087-.4.174-.823.249-1.26,1.285-6.45,2.882-17.077.474-22.715" transform="translate(-37.55 -7.392)" fill="#ffa694"/>
        <path id="Caminho_759129" data-name="Caminho 759129" d="M178.744,89.551c1.207,2.454.939,5.057-.6,5.813s-3.762-.62-4.968-3.075-.939-5.057.6-5.813,3.762.621,4.969,3.075" transform="translate(-42.903 -21.466)"/>
        <path id="Caminho_759130" data-name="Caminho 759130" d="M208.307,80.432c1.258,2.558.979,5.272-.624,6.06s-3.921-.648-5.179-3.206-.979-5.272.624-6.06,3.921.648,5.179,3.205" transform="translate(-50.192 -19.162)"/>
        <path id="Caminho_759131" data-name="Caminho 759131" d="M195.153,100.564a6.312,6.312,0,0,1-2.607.425c-1.355-.056-1.636-1.248-1.732-2.381a44.884,44.884,0,0,1-.086-5.185c.025-.8-1.223-.8-1.248,0-.051,1.627-.046,3.256.065,4.88A6.171,6.171,0,0,0,190.1,101c1.028,1.786,3.766,1.4,5.379.77.74-.288.418-1.495-.331-1.2" transform="translate(-47.14 -23.097)"/>
        <path id="Caminho_759132" data-name="Caminho 759132" d="M206.828,102.755c-.654,3.775-3.666,6.132-7.229,7.051a.624.624,0,0,0,.331,1.2c3.95-1.019,7.375-3.738,8.1-7.922.137-.785-1.065-1.122-1.2-.331" transform="translate(-49.555 -25.456)"/>
        <path id="Caminho_759133" data-name="Caminho 759133" d="M204.992,66.218c-3.018-1.506-8.789-2.356-10.169,1.861-.421,1.288-.281,3.129,1.437,3.208a11.8,11.8,0,0,0,2.948-.844c1.963-.51,4.1-.491,5.988-1.263.524-.215,1.067-.585,1.145-1.146.116-.836-.532-1.409-1.348-1.816" transform="translate(-48.427 -16.17)" fill="#8f8f8f"/>
        <path id="Caminho_759134" data-name="Caminho 759134" d="M170.941,73.711c-1.456.2-2.182,1.46-2.914,2.583-.962,1.478-2.421,2.417-3.688,3.638a2.1,2.1,0,0,0-.647.907c-.216.8.644,1.15,1.254,1.3a8.146,8.146,0,0,0,7.914-2.84c1.524-1.793,1.332-6.045-1.921-5.589" transform="translate(-40.723 -18.333)" fill="#8f8f8f"/>
        <path id="Caminho_759135" data-name="Caminho 759135" d="M218.083,55.962a199.619,199.619,0,0,0-3.22-26.9c-1.193-6.431-3.083-12.753-7.448-17.914-3.79-4.478-8.542-4.159-13.341-2.313C190.32,2.182,182.381-.564,174.949.1c-9.791.868-18.576,5.666-25.879,11.977-4.3,3.718-8.5,6.965-13.918,8.9-2.943,1.05-8.8,1.495-10.415,4.756-1.321,2.678.1,6.652,1.553,9.007a13.6,13.6,0,0,0,3.47,3.787c-3.678,3.048-6.785,7.177-4.464,12,1.361,2.827,4.358,3.686,7.223,4.191.3.053.6.1.9.141-.08,2.845.744,5.642,3.219,7.438a6.873,6.873,0,0,0,9.215-1.139c-.027.106-.065.213-.092.319a.625.625,0,0,0,1.2.332c1.619-6.5,5.357-13.35,9.1-18.89a51.649,51.649,0,0,1,3.186-4.218q15.863-5.807,31.883-11.164c3.4,9.072,8.74,17.348,12.137,26.455,1.537,4.122,14.6,27.793,14.6,27.793s.66-14.282.213-25.814" transform="translate(-30.908 0)" fill="#8f8f8f"/>
        <path id="Caminho_759136" data-name="Caminho 759136" d="M242.539,63.961c0,9.149-4.956,16.565-11.071,16.565S220.4,73.109,220.4,63.961,225.354,47.4,231.468,47.4s11.071,7.416,11.071,16.565" transform="translate(-54.841 -11.793)" fill="#ffa694"/>
        <path id="Caminho_759137" data-name="Caminho 759137" d="M139.548,166.021s-3.742-15.177,2.287-25.26,9.356-14.033,10.187-20.582-2.911-11.331,0-13.929,8.315,1.143,10.291,9.043-1.559,14.033-1.559,19.647a23.511,23.511,0,0,0,2.159,9.808l-3.407,12.436Z" transform="translate(-34.438 -26.234)" fill="#ffa694"/>
        <path id="Caminho_759138" data-name="Caminho 759138" d="M213.006,119.215C205.933,125.353,191.8,137.4,191.8,137.4a26.582,26.582,0,0,1,3.53,5.726c1.148,2.806-.823,6.024-.823,6.024a7.309,7.309,0,0,1,3.381,4.466,15.8,15.8,0,0,1,.1,4.991c-.05.4-.1.623-.1.623a4.889,4.889,0,0,1,.6.362,6.158,6.158,0,0,1,2.669,5.363c-.1,4.154-4.466,8.109-11.014,11.739s-31.709,11.439-31.709,11.439l-17.363-9.668L139.933,167.1l20.782-23.464s47.613-33.155,51.355-33.778,8.008,3.218.935,9.354" transform="translate(-34.819 -27.32)" fill="#ffa694"/>
        <path id="Caminho_759139" data-name="Caminho 759139" d="M227.846,109.469a3.861,3.861,0,0,0-1.122-.686c-2.458-.974-5.49,1-7.572,2.37-.5.325-.949.623-1.348.848-3.268,1.883-6.735,3.979-10.565,6.4-4.926,3.118-9.854,6.4-14.619,9.568-1.722,1.135-3.456,2.295-5.177,3.43.374.249.774.487,1.172.711,1.559-1.023,3.132-2.058,4.69-3.106,4.766-3.168,9.692-6.437,14.595-9.543,3.83-2.42,7.272-4.5,10.529-6.374.411-.237.886-.549,1.408-.886,2.021-1.323,4.729-3.094,6.636-2.158a2.257,2.257,0,0,1,.562.361,3,3,0,0,1,.861,2.133c.112,2.844-2.1,4.753-4.266,6.6a.324.324,0,0,0-.087.062l-.687.573c-2.42,2.1-13.435,11.526-17.825,15.281l-1.822,1.559a.683.683,0,0,0-.212.5.633.633,0,0,0,.237.474,10.591,10.591,0,0,1,3.319,5.376,6.846,6.846,0,0,1-.723,5.5.623.623,0,0,0-.1.574.645.645,0,0,0,.424.4,7.853,7.853,0,0,1,1.592.8,6.34,6.34,0,0,1,1.159,1.074,1.836,1.836,0,0,1,1.174.04,5.764,5.764,0,0,0-2.864-2.8,8.528,8.528,0,0,0,.549-5.888,11.838,11.838,0,0,0-3.194-5.563c.636-.549,1.8-1.534,3.231-2.757,4.24-3.642,10.99-9.417,14.332-12.3.662-.562,1.2-1.023,1.547-1.323l.661-.573c2.307-1.946,4.926-4.167,4.8-7.647a4.172,4.172,0,0,0-1.3-3.031" transform="translate(-46.641 -27.003)"/>
        <path id="Caminho_759140" data-name="Caminho 759140" d="M169.363,115.927a29.848,29.848,0,0,1-2.663-5.781c-.255-.757-1.46-.432-1.2.332a31.477,31.477,0,0,0,2.788,6.078.624.624,0,0,0,1.077-.629" transform="translate(-41.171 -27.3)"/>
        <path id="Caminho_759141" data-name="Caminho 759141" d="M206.595,165.415a.624.624,0,0,1-.339-1.148l4.34-2.806a.624.624,0,0,1,.678,1.048l-4.34,2.806a.622.622,0,0,1-.339.1" transform="translate(-51.251 -40.151)"/>
        <path id="Caminho_759142" data-name="Caminho 759142" d="M200.364,151.155a.624.624,0,0,1-.369-1.127l8.662-6.356a.624.624,0,1,1,.738,1.006l-8.663,6.356a.616.616,0,0,1-.369.121" transform="translate(-49.701 -35.72)"/>
        <path id="Caminho_759143" data-name="Caminho 759143" d="M216.071,175.764a.678.678,0,0,1-.162.162l-4.341,2.806a.7.7,0,0,1-.337.1.6.6,0,0,1-.524-.287.614.614,0,0,1,.186-.861l4.329-2.806a.62.62,0,0,1,.349-.1c-.05.4-.1.623-.1.623a4.889,4.889,0,0,1,.6.362" transform="translate(-52.404 -43.489)"/>
        <path id="Caminho_759144" data-name="Caminho 759144" d="M130.113,177.471l-39.449,42.16,23.856,12.318s2.027,10.134,3.586,10.134,10.225,2.184,10.759,1.56,24.792-42.723,24.792-42.723Z" transform="translate(-22.56 -44.16)" fill="#ffa694"/>
        <path id="Caminho_759145" data-name="Caminho 759145" d="M154,340.962a4.552,4.552,0,0,1-1.248.175H57.544a4.735,4.735,0,0,1-4.565-3.506L17.028,203a4.845,4.845,0,0,1-.162-1.248,4.2,4.2,0,0,1,.187-1.248,4.7,4.7,0,0,1,4.541-3.443h95.189a4.691,4.691,0,0,1,2.757.886,4.594,4.594,0,0,1,.91.861,4.715,4.715,0,0,1,.9,1.758L157.311,335.2A4.721,4.721,0,0,1,154,340.962" transform="translate(-4.197 -49.035)" fill="#b4b2c2" stroke="#000" stroke-width="1"/>
        <path id="Caminho_759146" data-name="Caminho 759146" d="M136.648,249.12a7.338,7.338,0,0,1-7.068-5.438l-5.6-20.943a7.329,7.329,0,0,1,14.16-3.787l5.6,20.943a7.341,7.341,0,0,1-7.092,9.226m-5.592-34.356a6.081,6.081,0,0,0-5.873,7.652l5.6,20.944a6.081,6.081,0,1,0,11.748-3.143l-5.6-20.943a6.091,6.091,0,0,0-5.875-4.51" transform="translate(-30.786 -53.129)" stroke="#000" stroke-width="1"/>
        <path id="Caminho_759147" data-name="Caminho 759147" d="M154,342.1a4.553,4.553,0,0,1-1.248.175l-36.91-138.623-98.981-.761a4.2,4.2,0,0,1,.187-1.248l99.018.774h.736l.113.461.1.362Z" transform="translate(-4.197 -50.175)"/>
        <path id="Caminho_759148" data-name="Caminho 759148" d="M153.254,199.1l-3.431,3.293-.261.249-.861-.91.174-.162,3.468-3.331a4.594,4.594,0,0,1,.91.861" transform="translate(-37.001 -49.328)"/>
        <path id="Caminho_759149" data-name="Caminho 759149" d="M203.673,289.275l-.548,29.775s-31.934,10.528-34.691,11.227-15.692-.075-21.617-1.248-16.927-2.345-22.765-4.054c-4.366-1.272-3.68-4.715-3.056-6.386a6.379,6.379,0,0,1,.424-.935,18.1,18.1,0,0,1-3.593-.487c-1.958-.487-4.1-1.435-4.74-3.343a7.3,7.3,0,0,1-.4-4.2,2.1,2.1,0,0,1,.4-.861,4,4,0,0,1-1.9-1.073,5.054,5.054,0,0,1-1.223-4.079c.225-3.38,2.981-3.929,4.366-3.979a5,5,0,0,1,.774.012,4.261,4.261,0,0,1,.1-.91,4.756,4.756,0,0,1,3.642-4c7.584-1.871,36.586-.05,39.7-2.806a11.964,11.964,0,0,0,3.593-6.886l-3.693-13.809a86.485,86.485,0,0,1,17.3,2.3c15.917,3.817,27.917,15.754,27.917,15.754" transform="translate(-27.358 -67.488)" fill="#ffa694"/>
        <path id="Caminho_759150" data-name="Caminho 759150" d="M346.122,404.451c-14.545,6.649-31.6,1.659-56.545-16.428-12.262-8.894-32.42-24.823-49.746-38.719-4.129-3.305-8.1-6.5-11.751-9.455-12.225-9.879-21.043-17.1-21.043-17.1l20.794-27.492s8.27,3.205,19.871,7.709c3.829,1.5,8.033,3.131,12.424,4.84,19.684,7.672,43.084,16.865,53.987,21.381,23.8,9.879,41.988,14.882,48.012,33.38s-1.447,35.226-16,41.888" transform="translate(-51.517 -73.467)" fill="#ffa694"/>
        <path id="Caminho_759151" data-name="Caminho 759151" d="M153.285,311.359l-.05,1.248s-19.859-.836-28.69-1.248c-5.027-.237-7.521-1.5-8.756-2.619a5,5,0,0,1,.773.012,4.322,4.322,0,0,1,.1-.91c1.01.923,3.206,2.045,7.934,2.27,8.844.412,28.69,1.248,28.69,1.248" transform="translate(-28.811 -76.599)" fill="#4f332e"/>
        <path id="Caminho_759152" data-name="Caminho 759152" d="M151.595,323.682a.636.636,0,0,1-.623.587h-.038c-.237-.013-23.863-1.372-32.594-1.784a22.56,22.56,0,0,1-5.239-.786,2.1,2.1,0,0,1,.4-.861,4,4,0,0,1-1.9-1.073,16.43,16.43,0,0,0,6.786,1.484c8.744.412,32.37,1.759,32.62,1.771a.635.635,0,0,1,.586.661" transform="translate(-27.77 -79.566)" fill="#4f332e"/>
        <path id="Caminho_759153" data-name="Caminho 759153" d="M154.641,334.892a.635.635,0,0,1-.623.586h-.038c-.225-.012-20.433-1.173-30.374-1.671a6.477,6.477,0,0,1,.424-.935,18.027,18.027,0,0,1-3.592-.487c.324.025.661.05,1.01.062,8.732.412,32.37,1.771,32.607,1.784a.612.612,0,0,1,.586.661" transform="translate(-29.968 -82.706)" fill="#4f332e"/>
        <path id="Caminho_759154" data-name="Caminho 759154" d="M274.077,149.148a.623.623,0,0,1-.276-.065l-4.506-2.227a.627.627,0,0,1-.232-.2l-9.483-13.445a.623.623,0,1,1,1.019-.718l9.391,13.315,4.364,2.157a.624.624,0,0,1-.276,1.183" transform="translate(-64.562 -32.902)"/>
        <path id="Caminho_759155" data-name="Caminho 759155" d="M267.1,310.357c-4.391-1.709-8.595-3.343-12.424-4.84a37.3,37.3,0,0,1,.5,13.509,29.309,29.309,0,0,1-9.481,16.666,36.915,36.915,0,0,1-10.64,6.711c3.655,2.956,7.622,6.149,11.751,9.455a38.416,38.416,0,0,0,12.324-7.834,30.069,30.069,0,0,0,9.218-17.164,42.86,42.86,0,0,0-1.248-16.5" transform="translate(-58.487 -76.021)" fill="#4f332e"/>
        <path id="Caminho_759156" data-name="Caminho 759156" d="M258.625,341.107c5.124,2.958,7.21,8.937,4.66,13.354s-8.771,5.6-13.894,2.64-7.211-8.937-4.66-13.353,8.771-5.6,13.894-2.641" transform="translate(-60.625 -84.471)" fill="#fff"/>
      </g>
    </g>
  </g>
</svg>
