<svg xmlns="http://www.w3.org/2000/svg" xmlns:xlink="http://www.w3.org/1999/xlink" width="367.134" height="232.024" viewBox="0 0 367.134 232.024">
  <defs>
    <linearGradient id="linear-gradient" x1="0.209" x2="0.584" y2="1.161" gradientUnits="objectBoundingBox">
      <stop offset="0" stop-color="#fff"/>
      <stop offset="0.243" stop-color="#95ebff"/>
      <stop offset="0.644" stop-color="#0024a8"/>
      <stop offset="1" stop-color="#3db8f9"/>
    </linearGradient>
    <linearGradient id="linear-gradient-2" x1="0.973" y1="1" x2="0" y2="1" gradientUnits="objectBoundingBox">
      <stop offset="0" stop-color="#fff" stop-opacity="0"/>
      <stop offset="0.159" stop-color="#fff" stop-opacity="0.408"/>
      <stop offset="0.414" stop-color="#95ebff"/>
      <stop offset="0.598" stop-color="#3db8f9"/>
      <stop offset="0.82" stop-color="#1b74d8"/>
      <stop offset="1" stop-color="#0024a8"/>
    </linearGradient>
    <linearGradient id="linear-gradient-3" x1="0.027" y1="0" x2="1" y2="0" xlink:href="#linear-gradient-2"/>
    <clipPath id="clip-path">
      <rect id="Ret창ngulo_124885" data-name="Ret창ngulo 124885" width="300.006" height="195.462" fill="#40bbff"/>
    </clipPath>
    <linearGradient id="linear-gradient-4" x1="0.5" x2="0.5" y2="1" gradientUnits="objectBoundingBox">
      <stop offset="0" stop-color="#c95ee9"/>
      <stop offset="1" stop-color="#9d7df6"/>
    </linearGradient>
    <clipPath id="clip-path-2">
      <rect id="Ret창ngulo_124954" data-name="Ret창ngulo 124954" width="11.287" height="3.15"/>
    </clipPath>
  </defs>
  <g id="_Carrossel-imagem-fixa_3-mob_" data-name="&lt;Carrossel-imagem-fixa_3-mob&gt;" transform="translate(-433.866 -1561.553)">
    <g id="Grupo_232248" data-name="Grupo 232248" transform="translate(473 1578.507)">
      <path id="Caminho_734267" data-name="Caminho 734267" d="M-117.986,0H137.781L92.547,204.1l-255.856-.071Z" transform="translate(163.31 10.97)" fill="url(#linear-gradient)"/>
      <path id="GettyImages-1412762526" d="M-117.069.12,154.341,0l-45.99,207.059-271.66-.159Z" transform="translate(173.659 0)" fill="#fff"/>
    </g>
    <g id="Grupo_232268" data-name="Grupo 232268" transform="translate(690.689 1561.552)">
      <path id="Caminho_734262" data-name="Caminho 734262" d="M3.716-.459H110.311l-4.04,17.008H0Z" transform="translate(0 0.459)" fill="url(#linear-gradient-2)"/>
      <path id="Caminho_734263" data-name="Caminho 734263" d="M106.595,16.549H0L4.04-.459H110.311Z" transform="translate(0 17.361)" fill="url(#linear-gradient-3)"/>
    </g>
    <g id="Grupo_234171" data-name="Grupo 234171" transform="translate(434.866 1418.181)">
      <g id="Grupo_233472" data-name="Grupo 233472" transform="translate(52.13 171.346)" opacity="0.25">
        <g id="Grupo_233471" data-name="Grupo 233471" clip-path="url(#clip-path)">
          <path id="Caminho_770281" data-name="Caminho 770281" d="M299.539,32.187c-.109-1.085.1-2.178.089-3.263-.013-1.283-.105-2.568-.13-3.852h0a.374.374,0,0,0,.173-.367l.014-8.038q0-.526.007-1.052h0c.05-3.077.065-6.154,0-9.23a2.754,2.754,0,0,0,.1-.3,3.577,3.577,0,0,0,.015-2.361c0-.073,0-.147,0-.221-.051-.812-.107-1.252-.326-1.489v0c-.024-.518-.223-.694-.97-.83a5.4,5.4,0,0,0-2.361-.01c-.074,0-.147,0-.221,0-1.255.052-1.619.111-1.723.56l-5.865-.01c-.351-.323-.772-.189-1.161-.193-5.09-.052-10.18-.023-15.268.2-1.505.067-3.016.008-4.524.007-2.221-.278-4.458-.27-6.685-.384-.909-.047-1.819-.069-2.729-.08a5.551,5.551,0,0,0-1.392-.634,3.906,3.906,0,0,0-3.571.651c-.643.005-1.287.01-1.929.009l-5.239.012c-1.464.011-2.929.093-4.389.137-1.617.049-3.231.164-4.848.232A4.91,4.91,0,0,0,234.6.543a3.815,3.815,0,0,0-3.727.866c-.064.053-.12.112-.177.169a2.374,2.374,0,0,0-.413-.03c-2.222.07-4.429-.339-6.65-.234-.261.013-.536-.043-.749.194h0c-1.9-.075-3.805.038-5.713-.16-1.627-.169-3.279-.053-4.92-.064-.283-.289-.634-.189-.96-.191-1.022-.008-2.043-.007-3.065-.008a5.307,5.307,0,0,0-1.664-.83,3.953,3.953,0,0,0-3.863.9l-.037.034c-1.973.172-3.945.334-5.926.334-1.878,0-3.757-.008-5.636-.012-.24-.288-.557-.2-.85-.2h-2.336a5.508,5.508,0,0,0-1.43-.661,3.909,3.909,0,0,0-3.587.663l-6.1,0-.6,0L174.6,1.277h0c-.317-.309-.7-.175-1.06-.189-1.951-.077-3.9-.01-5.848.069a5.345,5.345,0,0,0-1.744-.883,4,4,0,0,0-3.907.907c-.042.035-.077.074-.116.111-.11,0-.22,0-.331,0-.7-.015-1.408,0-2.112.008-2.8.086-5.6-.136-8.4.177-1.349.151-2.718.057-4.079.138a5.347,5.347,0,0,0-1.737-.878,4,4,0,0,0-3.907.907,2.728,2.728,0,0,0-.319.321,2.1,2.1,0,0,1-.629-.025,26.731,26.731,0,0,0-5.085-.182c-3.017.088-6.025-.293-9.041-.253a.681.681,0,0,0-.488-.21A5.243,5.243,0,0,0,123.892.283a3.985,3.985,0,0,0-3.893.9,2.831,2.831,0,0,0-.3.291c-3.144.129-6.3.027-9.447.023a1.68,1.68,0,0,1-.4-.025,37.254,37.254,0,0,0-4.393-.352,17.41,17.41,0,0,0-2.727-.073,5.347,5.347,0,0,0-1.726-.87,4,4,0,0,0-3.907.907,2.793,2.793,0,0,0-.208.195H94.685c-.317-.309-.7-.195-1.06-.186-2.843.068-5.685.022-8.53.125q-.911.033-1.822.071a5.525,5.525,0,0,0-1.415-.65,3.973,3.973,0,0,0-3.823.843c-1.661.045-3.323.064-4.985.025-2.378-.055-4.759,0-7.139.018-.356,0-.744-.117-1.058.2l-.1,0A5.212,5.212,0,0,0,62.765.644a4,4,0,0,0-3.907.907c-.07.058-.134.12-.2.183l-3.04,0c-.209-.248-.486-.2-.747-.2q-3.489,0-6.978,0a1.117,1.117,0,0,0-.6.08A5.352,5.352,0,0,0,45.563.736a3.942,3.942,0,0,0-3.718.763c-.641-.016-1.27.284-1.919.229h0c-.275-.309-.629-.2-.953-.2q-6.88-.014-13.761-.012c-.472.009-.9-.229-1.384-.224-2.311.025-4.623.031-6.935.007-.475-.005-.916.326-1.382.158A5.607,5.607,0,0,0,13.719,1.3c-2.817-.092-5.638.121-8.453-.072-.065-.015-.133-.03-.209-.044a6.253,6.253,0,0,0-1.823-.108c-.083,0-.166.006-.248.012a2.91,2.91,0,0,0-.564.09C.846,1.245.714,1.332.711,2.248Q.7,5.448.694,8.648c-.323.229-.189.5-.193.757-.052,3.317-.023,6.633.2,9.948.067.981.008,1.965.007,2.948a38.9,38.9,0,0,0-.384,4.356c-.164,2.086-.05,4.179-.054,6.269L.283,36.34c.011.954.093,1.908.137,2.86.072,1.541.292,3.079.287,4.622,0,.609,0,1.219,0,1.828a3.1,3.1,0,0,0-.192.829c.07,1.448-.339,2.885-.234,4.333.013.17-.043.349.193.488h0c-.075,1.24.038,2.48-.16,3.722a21.576,21.576,0,0,0-.064,3.206c-.289.184-.189.414-.191.626-.013,1.137-.015,2.273-.015,3.41A12.457,12.457,0,0,0,.076,63.9a33.648,33.648,0,0,1,.41,4.435c0,1.224-.008,2.448-.012,3.673-.288.156-.2.363-.2.554q0,4.384.006,8.767l0,.39q-.014.518-.027,1.036h0c-.309.207-.175.458-.189.691-.158,2.6.287,5.188.2,7.783-.015.458,0,.917.008,1.376a44.056,44.056,0,0,0,.177,5.474c.2,1.14-.023,2.3.266,3.445h0c0,.718-.005,1.435.013,2.153.011.454.332.9.185,1.355a11.412,11.412,0,0,0-.182,3.313c.088,1.966-.293,3.925-.253,5.891-.294.182-.2.412-.2.624,0,1.133.073,2.264.156,3.4.156,2.138.042,4.282.039,6.424a.721.721,0,0,1-.025.261,16.04,16.04,0,0,0-.352,2.863,14.026,14.026,0,0,0-.033,2.817c0,.192-.075.4.192.56v3.645h0c-.309.206-.195.459-.186.691.068,1.852.022,3.7.125,5.558.145,2.614.383,5.23.29,7.849-.055,1.55,0,3.1.018,4.651,0,.232-.117.485.2.689q.007.323.013.645Q.7,157.6.7,160.284c-.248.137-.2.317-.2.487q0,2.273,0,4.546c0,.17-.054.352.2.485q.008.393.015.785a8.681,8.681,0,0,1-.208,2.449c-.179.5.254.976.189,1.474h0c-.309.179-.2.41-.2.621Q.482,175.614.483,180.1c.009.307-.229.589-.224.9.025,1.506.031,3.012.007,4.519-.005.309.326.6.158.9a2.438,2.438,0,0,0-.156,1.168c-.108,2.156.21,4.317-.211,6.47a1.744,1.744,0,0,0,0,.524c.075.671.372.842,1.5.864.369.007.742.024,1.107,0a5.035,5.035,0,0,0,1.816-.135c1.108-.13,1.121-.13,1.12-.725,0-1.243-.02-2.486-.031-3.73a11.917,11.917,0,0,0,.015-4.461q0-3.672-.009-7.343a28.174,28.174,0,0,0,.217-4.337c.1-1.131.094-2.263.179-3.4.148-1.982.053-3.971.048-5.957,0-.212.073-.441-.192-.629.008-1.355.023-2.709.024-4.064q0-7.08,0-14.16c0-2.141-.038-4.282-.058-6.423q0-7.135,0-14.269a.418.418,0,0,0-.187-.431h0q-.012-.387-.022-.775c.007-.24.023-.479.021-.719-.02-1.96-.1-3.919-.186-5.878-.142-3.247-.065-6.5-.072-9.746-.006-2.42,0-4.84,0-7.26h0q.018-1.57.037-3.139h0c.226-.144.18-.325.19-.5.063-1.044.06-2.088.183-3.134a33.1,33.1,0,0,0,.062-3.6,8.258,8.258,0,0,0,.166-2.8,17.766,17.766,0,0,1-.105-4.96,44.423,44.423,0,0,0,.151-4.7h0q0-4.323,0-8.646a9.594,9.594,0,0,0-.051-1.505,40.073,40.073,0,0,1-.336-4.112,41.439,41.439,0,0,1,.332-6.468c.168-1.654.053-3.318.063-4.977a14.212,14.212,0,0,0,.233-3.658c.222-.143.184-.322.186-.492.008-.582,0-1.165,0-1.747l.018-1.318h0c.011-.284.04-.567.029-.85-.056-1.437-.1-2.873-.2-4.31-.2-2.633.052-5.273-.211-7.909-.108-1.085.1-2.178.089-3.263-.013-1.283-.105-2.568-.13-3.852h0a.374.374,0,0,0,.173-.367l.014-8.038q0-.526.007-1.052h0c.048-3,.065-6,.008-9L8.7,6.6a27.924,27.924,0,0,0,6.847.015L26.817,6.6a66.154,66.154,0,0,0,6.656.217c1.736.1,3.474.094,5.211.179.773.038,1.547.059,2.321.071a5.614,5.614,0,0,0,.65.89q.647.727,1.3,1.446a1.135,1.135,0,0,1,.314.8c0,.458-.005.916,0,1.374.012.71.036,1.42.05,2.13a.131.131,0,0,1-.02-.034c-.018-.057-.032-.1-.046-.139l-.007-.019a.35.35,0,0,0-.044-.086l0,0h0c-.053-.066-.132-.066-.33-.062-.038,0-.075.008-.113.012a7.33,7.33,0,0,0-1.452.065h0c-.494.01-.99,0-1.483.032-1.315.081-2.628.192-3.943.266q-.248.014-.495.032l-.306.029c-.781.06-1.562.134-2.341.208a5.182,5.182,0,0,0-1.13.132,9.351,9.351,0,0,0-1.452.16h0a4.1,4.1,0,0,0-.867.1q-1.6.235-3.192.506c-.687.117-1.378.214-2.054.39a2.079,2.079,0,0,0-.224.029c-1.21.28-2.423.552-3.622.878-.915.249-1.827.5-2.719.823l-.078.025q-.289.106-.574.222l-.183.073-.064.028c-.048.02-.095.042-.141.067-.012.006-.026.011-.038.018l-.012.011a.886.886,0,0,0-.22.17.227.227,0,0,1-.068.094c-.083.055-.079.143-.083.227a.276.276,0,0,0-.073.226c-.116.122-.093.289-.11.429a3.867,3.867,0,0,0,.017,1.338c0,.005,0,0-.006.015a.076.076,0,0,0,.021.065,1.122,1.122,0,0,0,.145.608.326.326,0,0,0,.069.225v0a.3.3,0,0,1,.014.045c0,.009.007.017.01.026a3.7,3.7,0,0,0,.585,1.195.444.444,0,0,0,.626.182c.19-.072.374-.162.566-.227q1.071-.36,2.145-.7c-.021.1-.043.2-.072.3q-.393,1.37-.723,2.755l-.1.29.027.013c-.154.66-.3,1.322-.426,1.988-.265,1.39-.537,2.781-.664,4.2-.105,1.168-.249,2.331-.364,3.5h0c-.024.2-.043.367-.06.508l.015.011c0,.031-.006.062-.009.092a12.139,12.139,0,0,0-.157,1.941,1.932,1.932,0,0,0-.082.341c-.045.787-.078,1.575-.122,2.362-.056,1.023-.1,2.048-.18,3.069-.154,1.986-.236,3.974-.2,5.967-.032.432-.078.864-.092,1.3-.079,2.37-.047,4.739.111,7.1a2.026,2.026,0,0,0,.086.873h0c0,.15.01.3.014.449,0,.04,0,.08.005.121l0,.231q.006,1.565.012,3.13a.576.576,0,0,0,.08.339h0c0,.216-.006.432-.008.649-.007.846.013,1.694-.026,2.539-.036.786-.09,1.571-.07,2.358a4.426,4.426,0,0,0-.084.522c-.084,1.884-.177,3.768-.235,5.654-.04,1.3-.029,2.6-.041,3.893h0a.687.687,0,0,0-.1.508c0,1.222,0,2.443.013,3.665a7.786,7.786,0,0,0,.092,1.649,10.582,10.582,0,0,0,.062,1.619c0,.016,0,.032,0,.048.013.075.028.151.046.226h0c-.008.624.029,1.253-.035,1.872h0a16.9,16.9,0,0,0-.075,2.28q-.123,2.719-.245,5.437h0a.581.581,0,0,0-.09.391c-.022,1.1-.167,2.185-.217,3.279a27.851,27.851,0,0,0-.148,3.341,2.626,2.626,0,0,0-.012.714l0,.354a4.5,4.5,0,0,0-.081,1.238c.1,1.3.067,2.606.112,3.908a.559.559,0,0,0,.082.339c-.037,1.335.137,2.661.17,3.993a.543.543,0,0,0,.062.162c0,.118-.009.237,0,.354q.179,2.326.362,4.652c.132,1.688.241,3.378.409,5.063a8.388,8.388,0,0,0,.2,1.757,9.729,9.729,0,0,0,.114,1.7c.064.976.16,1.951.243,2.926a10.957,10.957,0,0,0,.094,2.139h0l.027.944q0,1.238-.005,2.476-.005,4.157-.01,8.315,0,1.125,0,2.251.005,1.243.011,2.487c-.017.556-.031,1.113-.009,1.669,0,.012,0,.023,0,.035,0,.1.01.209.017.313v0c-.005.039-.01.077-.015.116,0,.059,0,.118-.005.177l-.006.177a.891.891,0,0,0-.022.216,18.225,18.225,0,0,0-.085,2.395,7.51,7.51,0,0,0-.108,1.779c0,.04,0,.08-.005.12l0,.117c0,.04,0,.08,0,.119q0,.177-.01.354a.154.154,0,0,0-.009.094c-.014.068-.018.135-.028.2a.27.27,0,0,0-.007.05,12.479,12.479,0,0,0-.038,1.779c0,.052.049.1.076.155h0c-.182.724-.059,1,.594,1.317a1.07,1.07,0,0,0,.487.195v0l.005,0c.016.011.036.036.047.032h0a1.185,1.185,0,0,0,.66.2l.045.018.048,0a.4.4,0,0,0,.375.092,7.526,7.526,0,0,0,2.616.145,24.115,24.115,0,0,0,3.7-.171,3.468,3.468,0,0,0,1.155-.2,14.124,14.124,0,0,0,2.1-.283c.466-.074.927-.176,1.389-.274.148-.032.338-.035.369-.236a2.356,2.356,0,0,0,.015-.762c0-.01-.017-.018-.033-.026l.082-.012v-.6a.6.6,0,0,0,.076-.281c.018-.315.029-.629.043-.945a3.186,3.186,0,0,0,.154-1.09,27.271,27.271,0,0,0,.3-3.08,4.78,4.78,0,0,0,.1-.521c.123-1.588.25-3.176.355-4.765s.181-3.182.283-4.772c.048-.745.154-1.487.183-2.233.031-.806.2-1.6.154-2.413a19.615,19.615,0,0,0,.243-2.844,5.959,5.959,0,0,0,.159-1.515,22.816,22.816,0,0,0,.193-2.755,3.534,3.534,0,0,0,.117-.935c.107-1.314.24-2.627.309-3.943.052-.983.207-1.96.168-2.948a7.892,7.892,0,0,0,.134-1.752.448.448,0,0,0,.035-.119,3.647,3.647,0,0,0,.058-.973v-.241a19.326,19.326,0,0,0,.187-2.462,28.435,28.435,0,0,0,.175-3.347,9.011,9.011,0,0,0,.122-1.9c.154-1.015.157-2.042.243-3.063.107-1.276.226-2.551.31-3.828a17.391,17.391,0,0,0,.158-2.121c.232-1.41.34-2.834.487-4.253a2.121,2.121,0,0,0,.109-.964,1.621,1.621,0,0,0,.109-.831c.084-.6.172-1.207.252-1.811.178-1.344.365-2.688.524-4.034.1-.858.275-1.708.295-2.575a25.571,25.571,0,0,0,.376-3.4,1.69,1.69,0,0,0,.1-.863l.017-.237a3.481,3.481,0,0,0,.123-1.185,28.477,28.477,0,0,0,.353-3.411c.2-.905.23-1.831.34-2.748.106-.879.2-1.759.277-2.641.028.4.031.794.026,1.192a4.314,4.314,0,0,1-.063.958.556.556,0,0,0,.046.467.821.821,0,0,1,.06.643,7.655,7.655,0,0,0-.2,1.534c.01.188.079.362.078.547,0,.728.125,1.451.078,2.18q0,1.469,0,2.937c0,.446.013.893-.006,1.338-.009.2.1.382.066.585a10.31,10.31,0,0,0-.134,1.618c-.12.11-.071.255-.072.386,0,.953,0,1.906,0,2.858,0,.148-.029.295-.04.439a7.761,7.761,0,0,0-.095,1.73,10.539,10.539,0,0,1,.059,1.292c.007.247,0,.5,0,.743.023.31-.062.615-.067.921-.017,1.153-.007,2.306-.007,3.459,0,.087-.006.176.073.238a10.892,10.892,0,0,0,.069,1.143,12.419,12.419,0,0,0,.142,2.175.8.8,0,0,0,.442.626,4.811,4.811,0,0,0,1.407.417,14.25,14.25,0,0,0,3.152.331.277.277,0,0,0,.274.071,5.58,5.58,0,0,1,1.05.044c.018.335.035.67.053,1,.038.709.081,1.418.138,2.126.137,1.69.271,3.381.429,5.069.16,1.708.322,3.416.53,5.118.2,1.646.34,3.3.408,4.951.081,1.972.206,3.94.412,5.9a5.066,5.066,0,0,0,.179,1.34l.021.2c.021,1.115.191,2.216.3,3.323a3.757,3.757,0,0,0,.155,1.212,24.918,24.918,0,0,0,.263,2.82,9.482,9.482,0,0,0,.117,1.9,8.241,8.241,0,0,0,.1,1.929h0a1.6,1.6,0,0,0,.02.554,11.446,11.446,0,0,0,.051,1.734.819.819,0,0,0,.049.318c-.037,1.42.12,2.832.188,4.248.027.569.056,1.14.1,1.71.11,1.492.24,2.983.3,4.476.029.689.139,1.371.205,2.056l-.047-.015c0,.366,0,.516.091.614.006.14.01.28.008.421,0,.225.169.35.323.469a4.2,4.2,0,0,0,1.41.727,12.838,12.838,0,0,0,5.024.427,5.313,5.313,0,0,0,1.669-.211,6.937,6.937,0,0,0,1.889-.363.54.54,0,0,1,.1-.1l0,0h0l0,.006a.147.147,0,0,1-.1.1,2.162,2.162,0,0,0,.946-.239h0a16.144,16.144,0,0,0,3.314-1.033,2,2,0,0,0,.712-.4c0-.03-.005-.06-.008-.091h0c0-.01,0-.02,0-.03,0-.033-.008-.066-.015-.1,0-.007,0-.014,0-.021l0,0a.093.093,0,0,1,.017.038.239.239,0,0,1,.006.027.574.574,0,0,1,0,.063,1.041,1.041,0,0,0,0,.11c.154-.09.119-.247.1-.372a3.332,3.332,0,0,1-.025-.5c.01-.209.019-.389.031-.629l-.009,0c0-.092.008-.184.008-.275,0-1.106,0-2.212,0-3.318q0-3.139,0-6.28h0c.1-1.176.1-2.355.107-3.533q.008-3.1.027-6.193c0-.07.006-.139.009-.209a.6.6,0,0,0,.077-.338q.021-2.023.04-4.047a.741.741,0,0,0,.073-.22c-.012-1.6.195-3.186.165-4.783a.851.851,0,0,0,.071-.218q.088-2.018.167-4.035a1.051,1.051,0,0,0,.089-.576c.024-.335.024-.672.054-1.006a28.316,28.316,0,0,0,.192-3.543h0q0-.236.006-.472c.12-1.372.242-2.743.357-4.115.023-.275.013-.552.03-.828,0-.063.009-.125.013-.188a2.746,2.746,0,0,0,.24.2c.175.128.3.315.549.3a.532.532,0,0,0,.254.16,10.265,10.265,0,0,0,2.261.609l1.054.211q-.138,2.982-.268,5.965a4.859,4.859,0,0,0-.022.922,1.231,1.231,0,0,0-.05.212c-.091,1.53-.164,3.061-.119,4.594.056,1.943.187,3.885.185,5.83a.388.388,0,0,0,.1.322.534.534,0,0,1,.349.094l.341.022a.317.317,0,0,1,.018.063,1.162,1.162,0,0,1,.524.093,2.787,2.787,0,0,1,.8.09l.946.022.005,0h.028a.087.087,0,0,0,.013.066l.032-.014.029.019a19.883,19.883,0,0,0,2.408.042,3.027,3.027,0,0,0,1.036-.043,1.3,1.3,0,0,1,.519-.038,15.218,15.218,0,0,0,1.7-.042l.153-.01c.235-.106.5.037.734-.085l.026-.019.03.013A.3.3,0,0,0,80,130.6a.419.419,0,0,0,.374-.033.276.276,0,0,0,.177-.171.249.249,0,0,0,.035-.059.385.385,0,0,0,.141-.3c0-.055.007-.11.01-.165l.016-.264c.047-.765.091-1.53.163-2.293.18-1.9.377-3.8.578-5.7a24.024,24.024,0,0,0,.081-4.4,27.116,27.116,0,0,1-.1-2.772c.01-.409.025-.818.038-1.227.194,0,.389,0,.583,0a3.823,3.823,0,0,0,1.75-.189.823.823,0,0,1,.427-.072c.382.028.747-.107,1.127-.107a.934.934,0,0,0,.5-.111,4.389,4.389,0,0,1,1.439-.478,8.03,8.03,0,0,0,1.973-.8c.8-.471,1.547-1.03,2.311-1.56l.058-.041a.229.229,0,0,1,.078-.15,2.8,2.8,0,0,1,.526-.356c.319-.355.645-.8,1.132-.847q.308-.266.606-.545c.716-.475,1.347-1.068,2.061-1.539.983-.647,1.993-1.259,3.039-1.808h0q.041.986.09,1.971c.06,1.18.116,2.361.227,3.537a32.471,32.471,0,0,1,.143,3.582c0,.153-.006.306,0,.459.03.952.149,1.9.115,2.856a1.841,1.841,0,0,0,.02.275c.083.718.154,1.435.183,2.158s.125,1.438.194,2.156c0,.028.028.053.043.08a14.786,14.786,0,0,0,.2,1.869c.18,1.674.34,3.35.567,5.019a3.488,3.488,0,0,0,.161,1.033.071.071,0,0,1,.033.031l-.033-.031c.045.517.07,1.036.143,1.549a3.363,3.363,0,0,0,.132.944c.159,1.282.159,2.577.284,3.862.175,1.8.2,3.62.461,5.417.145,1,.135,2.023.319,3.022a3.686,3.686,0,0,0,.107.818.835.835,0,0,1,.041.514l-.015,0-.058.087c.01.015.019.032.028.048a.345.345,0,0,0-.142.17.274.274,0,0,0-.165.2,2.177,2.177,0,0,0-.019,1.195,4.192,4.192,0,0,0,.255,1.494h0a2.634,2.634,0,0,0,.462.921,9.74,9.74,0,0,0,1.757.92,1.122,1.122,0,0,0,.483.156,2.781,2.781,0,0,0,1.018.186c.362.05.722.113,1.085.146a13.33,13.33,0,0,0,2.055.058l.092-.008c.6-.033,1.194-.044,1.787-.1a7.047,7.047,0,0,0,2.01-.419,1.008,1.008,0,0,0,.454-.116h0a1.275,1.275,0,0,0,.661-.165,3.579,3.579,0,0,0,.925-.37.238.238,0,0,0,.192-.088,2.5,2.5,0,0,0,1.108-.752c.176-.138.2-.377.35-.529a.694.694,0,0,0,.181-.589c-.042-.534-.071-1.07-.111-1.6a.59.59,0,0,0-.068-.167c-.014-.19.141-.378.005-.569a9.1,9.1,0,0,1,.107-1.348,12.016,12.016,0,0,0,.235-1.808c.079-.438.127-.881.219-1.315.182-.857.183-1.734.345-2.6.175-.933.249-1.884.366-2.828.072-.578.135-1.158.217-1.735.162-1.143.136-2.3.245-3.444a15.232,15.232,0,0,0,.214-1.872.11.11,0,0,0-.031-.013l0-.006.027.018a.781.781,0,0,0,.072-.447c.016-.353-.005-.709.03-1.06.116-1.162.205-2.328.329-3.488s.145-2.331.3-3.489a.3.3,0,0,0,.072-.193,13.483,13.483,0,0,1-.073,2.509,18.8,18.8,0,0,0-.1,2.33.7.7,0,0,0-.087.4c0,.052,0,.1,0,.157a2.14,2.14,0,0,0-.017.65c-.037.716-.118,1.428-.157,2.142-.179,3.342-.412,6.684-.4,10.033,0,1.194-.2,2.378-.132,3.574.038.653.124.791.732.986a3.449,3.449,0,0,0,.609.084v-.009c.119.138.276.117.431.107a9.874,9.874,0,0,1,3.927,1.906,5.031,5.031,0,0,0,.959.539,17.3,17.3,0,0,0,2.195.835c-.008.047-.017.094-.026.142a5.482,5.482,0,0,0-.31,1.324.993.993,0,0,0,.316,1.174,5.5,5.5,0,0,0,1.576,1.111,4.633,4.633,0,0,0,1.837.838h0a1.056,1.056,0,0,0,.557.177l.03.022.037,0a.39.39,0,0,0,.3.089v0h0a4.314,4.314,0,0,0,2.408.454.453.453,0,0,0,.277-.008c.471,0,.942.016,1.412,0a1.967,1.967,0,0,0,.808-.078,2.864,2.864,0,0,0,1.019-.088,7.115,7.115,0,0,0,1.846-.466h0a.8.8,0,0,0,.465-.27h0a2.206,2.206,0,0,0,1.011-.928c.149-.2.4-.337.427-.622a4.3,4.3,0,0,0,.038-1.142.23.23,0,0,0-.009-.187c0-.121-.008-.242,0-.362.01-.187-.094-.191-.208-.182a.717.717,0,0,0-.032-.137l-.129.051a.391.391,0,0,1-.077-.156c1.2-.035,2.41-.084,3.615-.113s2.433-.027,3.649-.038a28.966,28.966,0,0,0,4.078-.014,1.018,1.018,0,0,0,.528-.105,12.746,12.746,0,0,0,1.994-.08c1.784-.178,3.54-.517,5.3-.838a14.1,14.1,0,0,0,3.8-1.359,19.126,19.126,0,0,1,5.294-1.9h0a21.653,21.653,0,0,0,3.421-.34,17.119,17.119,0,0,0,2.678-.628,1.024,1.024,0,0,0,.8-1c.025-.941.02-1.882.027-2.823h0a1.654,1.654,0,0,0,.1-.812c.009-.783.007-1.565.008-2.347,0-.8.012-1.6.021-2.407.363.052.722.135,1.088.16h0a2.843,2.843,0,0,0,1.04.112l.042.025.048-.01a.57.57,0,0,0,.14.057c1.1.134,2.2.268,3.286.476a7.948,7.948,0,0,0,1.756.4.856.856,0,0,0,.194.042,16.587,16.587,0,0,0,2.526.363h0a.249.249,0,0,0,.21.011l.044.023.047-.017a4.45,4.45,0,0,0,1.891,0l.05.01.043-.027a2.053,2.053,0,0,0,.505-.082c.33-.028.421-.207.442-.511.04-.582.133-1.159.174-1.741.01,0,.019,0,.028,0l-.023-.055a2.606,2.606,0,0,0-.074-1.174c-.02-1.165-.149-2.327-.1-3.494a1.415,1.415,0,0,0,.034-.664,36.072,36.072,0,0,1,.016-4.761,2.99,2.99,0,0,0,0-.826,8.487,8.487,0,0,1-.07-1.7c0-.291,0-.582,0-.872,1.155-.053,2.31-.183,3.464-.182.4,0,.808-.006,1.211-.017l.015.073a3.266,3.266,0,0,1,.1.965,28.8,28.8,0,0,0,.3,4.619,6.521,6.521,0,0,0,.062.684c.076.429.22.541.652.522a12.319,12.319,0,0,1,2,0,20.467,20.467,0,0,0,4.172.073,6.77,6.77,0,0,0,1.757-.18,8.691,8.691,0,0,0,2.054-.35,1.306,1.306,0,0,0,.7-.331c.051-.023.1-.046.107-.113.031-.414.08-.827.089-1.241a3.2,3.2,0,0,0-.075-1.287,2.031,2.031,0,0,0-.107-.838c-.017-.619-.115-1.235-.138-1.854,1.734.026,3.463.2,5.2.132a1,1,0,0,1,.215.012,11.725,11.725,0,0,0,2.63.05c1.2-.05,2.393-.18,3.591-.175,1.542.007,3.079-.169,4.622-.125a1.67,1.67,0,0,0,.215-.012,25.2,25.2,0,0,1,3.051-.2,5.639,5.639,0,0,0,.7-.032c.711-.078,1.418-.177,2.136-.205.535-.021,1.073-.052,1.607-.1a3.128,3.128,0,0,0,.888-.2c.245-.1.337-.236.244-.448.139.01.277.022.416.031a.167.167,0,0,0,.134.008c.229.015.457.028.685.044a.385.385,0,0,0,.33-.074c.026.044.056.089.078.133a.383.383,0,0,0,.169-.284c0-.1,0-.191,0-.286a.528.528,0,0,1,.256-.032,8.489,8.489,0,0,0,2.618-.151.584.584,0,0,1,.241-.009.417.417,0,0,0,.211.387c.012-.025.024-.049.036-.072.107.094.259.048.4.02a12.072,12.072,0,0,1,2.221-.2,43.292,43.292,0,0,0,7.162-.462v.006c.011,0,.018-.007.028-.011q.5-.084,1.007-.19a43.611,43.611,0,0,0,4.443-1.066c.869-.28,1.749-.531,2.633-.764a28.662,28.662,0,0,0,4.213-1.437,1.5,1.5,0,0,0,.987-1.672c-.043-.589-.113-1.178-.2-1.764a28.413,28.413,0,0,1-.42-4.386,1.81,1.81,0,0,1,.143-.719,3.714,3.714,0,0,0,.341-1.841,30.277,30.277,0,0,1,0-3.093,6.09,6.09,0,0,0-.094-1.65c-.016-.567-.02-1.135-.047-1.7.419.013.838.012,1.256-.014a1.852,1.852,0,0,0,.14.824c.081,1.257.164,2.513.241,3.77.025.419,0,.844.056,1.257a31.4,31.4,0,0,1,.3,3.764,20.624,20.624,0,0,0,.164,2.221,20.7,20.7,0,0,1,.25,2.1,31.344,31.344,0,0,0,.589,5.454.726.726,0,0,1-.019.451,1.7,1.7,0,0,0-.03,1.066,7.3,7.3,0,0,1,.149,2.618,16.037,16.037,0,0,0-.164,3.366,1.183,1.183,0,0,0,.913,1.169,7.879,7.879,0,0,0,1.162.29,41.4,41.4,0,0,0,5.543.331c.707,0,1.413.019,2.12.033a9.148,9.148,0,0,0,1.374-.035.419.419,0,0,0,.4-.4c.212-1.279.631-2.516.769-3.812a4.689,4.689,0,0,1,.455-1.47,12.091,12.091,0,0,0,.653-2.831,8.393,8.393,0,0,0,.16-2.051c-.048-1.03-.121-2.058-.183-3.087.082-.714-.1-1.416-.068-2.139a20.188,20.188,0,0,0-.251-2.815c-.007-1.986,0-3.972-.029-5.958,0-.2,0-.408,0-.612a20.884,20.884,0,0,0,3.024-1.931,11.558,11.558,0,0,0,1.316-1.115c.115-.117.222-.271.423-.207s.2.241.208.412c.015.274.032.549.045.822.029.619.073,1.236.115,1.854l0,0a.429.429,0,0,0,.021.278c.021.326.045.652.059.978.018.405.032.813.068,1.218H280.4a.252.252,0,0,0,.058.254,5.912,5.912,0,0,0,.141.791c.109.415.19.452.6.531a8.333,8.333,0,0,0,1.492-.011,7.752,7.752,0,0,0,1.322.027,5.831,5.831,0,0,1,1.139-.24,6.807,6.807,0,0,0,1.926-.249,11.24,11.24,0,0,0,2.251-.607,1.222,1.222,0,0,0,.263-.164l0,0a.279.279,0,0,0,.105-.109l0-.006a.93.93,0,0,0,.163-.568c.025-.941-.07-1.874-.107-2.81a.3.3,0,0,0-.007-.248c0-.112-.01-.225-.01-.338,0-1.061-.007-2.122-.011-3.183a5.045,5.045,0,0,0-.106-1.341c.016-.643.039-1.286.037-1.931-.008-1.728-.2-3.45-.146-5.177a11.091,11.091,0,0,1-.093-1.547A17.6,17.6,0,0,0,289.5,82.6c.118-2.805-.11-5.609-.1-8.414a.95.95,0,0,0-.01-.222.587.587,0,0,0-.062-.139.1.1,0,0,0-.031-.057,53.22,53.22,0,0,0-.2-6.113,23.747,23.747,0,0,1-.249-4.047,1.7,1.7,0,0,0-.021-.334,17.208,17.208,0,0,1-.2-2.154,4.356,4.356,0,0,0-.2-1.756.693.693,0,0,1-.026-.275c0-.779-.185-1.549-.12-2.331a.82.82,0,0,0-.1-.429,7.079,7.079,0,0,0-.118-1.229c-.017-.778-.125-1.55-.132-2.331a4.65,4.65,0,0,0-.118-1.045,16.433,16.433,0,0,1-.415-3.968q0-1.507,0-3.016a3.2,3.2,0,0,0-.066-.663,2.827,2.827,0,0,1,.007-1.161,3.767,3.767,0,0,0,.005-1.438,2.581,2.581,0,0,1-.056-.5,19.174,19.174,0,0,0-.262-2.538c-.032-.257.02-.565-.184-.794.025-.2-.1-.365-.118-.554a11.186,11.186,0,0,0-.444-1.457.789.789,0,0,0-.115-.447c0-.123.017-.252-.107-.334v0a10.4,10.4,0,0,0-.893-3.136,16.613,16.613,0,0,0-1.9-4.02h0a5.811,5.811,0,0,0-.6-1,10.756,10.756,0,0,0-1.888-1.879.656.656,0,0,0-.464-.145.738.738,0,0,1-.566-.3,5.813,5.813,0,0,0-2.74-1.72.244.244,0,0,0-.226-.108.233.233,0,0,0-.223-.107.69.69,0,0,0-.321-.127,19.206,19.206,0,0,0-2.258-1.081,5.993,5.993,0,0,0-1.44-.589.613.613,0,0,0-.127-.106c-1.033-.462-2.058-.942-3.1-1.375a11.764,11.764,0,0,1-1.661-.774c-.519-.316-1.086-.553-1.6-.887h0a1.427,1.427,0,0,0-.546-.439,3.108,3.108,0,0,0-1.349-.67h0a.743.743,0,0,0-.451-.223,8.255,8.255,0,0,0-1.236-.554,8.514,8.514,0,0,0-.822-.285c-.082-.063-.162-.128-.244-.193a4.857,4.857,0,0,0-.823-.57.244.244,0,0,0-.188-.121,1.426,1.426,0,0,0-.541-.334.484.484,0,0,0-.18-.143c-.426-.264-.879-.474-1.327-.7a.656.656,0,0,0-.313-.1.151.151,0,0,0-.142-.065.115.115,0,0,0-.046-.039s-.008-.009-.013-.012a.2.2,0,0,0-.077-.012,1.607,1.607,0,0,0-.237-.105l-.059-.022-.013-.005h-.005l-.217-.071a7.029,7.029,0,0,0-1.587-.247l-.04-2.492a2.357,2.357,0,0,0-.3-1.129,4.2,4.2,0,0,0-.958-1.225q-.344-.32-.671-.659c1.191.021,2.384.123,3.571.115,1.969-.013,3.941-.105,5.913-.13h0a.722.722,0,0,0,.563.173l12.335.014,1.615.007h0c5.5.058,11,.073,16.5-.034q0,.707,0,1.414c-.322.229-.189.5-.193.757-.052,3.317-.023,6.633.2,9.948.067.981.008,1.965.007,2.948a38.915,38.915,0,0,0-.384,4.356c-.164,2.086-.05,4.179-.054,6.269l.012,3.414c.011.954.094,1.908.137,2.86.072,1.541.292,3.079.287,4.622,0,.609,0,1.219,0,1.828a3.094,3.094,0,0,0-.192.829c.07,1.448-.339,2.885-.234,4.333.013.17-.043.349.194.488h0c-.075,1.24.038,2.48-.16,3.722a21.48,21.48,0,0,0-.064,3.206c-.289.184-.189.414-.192.626-.013,1.137-.015,2.273-.015,3.41a12.454,12.454,0,0,0,.031,1.639,33.647,33.647,0,0,1,.41,4.435c0,1.224-.008,2.448-.012,3.673-.288.156-.2.363-.2.554q0,4.384.006,8.767c0,.13,0,.26,0,.39q-.014.518-.027,1.036h0c-.309.207-.175.458-.189.691-.158,2.6.287,5.188.2,7.783-.015.458,0,.917.008,1.376a43.978,43.978,0,0,0,.178,5.474c.2,1.14-.024,2.3.265,3.445h0c0,.718-.005,1.435.013,2.153.011.454.332.9.185,1.355a11.426,11.426,0,0,0-.182,3.313c.088,1.966-.293,3.925-.253,5.891-.294.182-.2.412-.2.624,0,1.133.074,2.264.156,3.4.156,2.138.042,4.282.039,6.424a.721.721,0,0,1-.025.261,16.043,16.043,0,0,0-.352,2.863,14.028,14.028,0,0,0-.033,2.817c0,.192-.075.4.192.56q0,1.822,0,3.645h0c-.309.206-.195.459-.186.691.068,1.852.022,3.7.125,5.558.145,2.614.383,5.23.29,7.849-.055,1.55,0,3.1.018,4.651,0,.232-.117.485.2.689q.006.323.013.645-.006,2.685-.012,5.369c-.248.137-.2.317-.2.487q0,2.273,0,4.546c0,.17-.054.352.2.485.005.262.01.524.015.785a8.683,8.683,0,0,1-.208,2.449c-.179.5.254.976.189,1.474h0c-.309.179-.2.41-.2.621q-.014,4.483-.013,8.967c.009.307-.229.589-.224.9.025,1.506.031,3.012.007,4.519,0,.309.326.6.158.9a2.437,2.437,0,0,0-.156,1.168c-.108,2.156.21,4.317-.211,6.47a1.743,1.743,0,0,0,0,.524c.075.671.372.842,1.5.864.369.007.742.024,1.107,0a5.035,5.035,0,0,0,1.816-.135c1.108-.13,1.121-.13,1.12-.725,0-1.243-.02-2.486-.031-3.73a11.91,11.91,0,0,0,.015-4.461q0-3.672-.008-7.343a28.218,28.218,0,0,0,.217-4.337c.1-1.131.094-2.263.179-3.4.148-1.982.053-3.971.049-5.957,0-.212.072-.441-.192-.629.008-1.355.023-2.709.024-4.064q0-7.08,0-14.16c0-2.141-.038-4.282-.058-6.423q0-7.135,0-14.269a.418.418,0,0,0-.186-.431h0q-.012-.387-.022-.775c.007-.24.023-.479.021-.719-.02-1.96-.1-3.919-.186-5.878-.142-3.247-.065-6.5-.072-9.746-.005-2.42,0-4.84,0-7.26h0q.019-1.57.037-3.139h0c.226-.144.18-.325.19-.5.064-1.044.06-2.088.183-3.134a33.007,33.007,0,0,0,.062-3.6,8.268,8.268,0,0,0,.166-2.8,17.749,17.749,0,0,1-.106-4.96,44.416,44.416,0,0,0,.151-4.7h0q0-4.323,0-8.646a9.555,9.555,0,0,0-.051-1.505,40.073,40.073,0,0,1-.336-4.112,41.441,41.441,0,0,1,.332-6.468c.168-1.654.053-3.318.063-4.977a14.213,14.213,0,0,0,.233-3.658c.222-.143.184-.322.186-.492.008-.582,0-1.165,0-1.747q.009-.659.018-1.318h0c.011-.284.04-.567.029-.85-.056-1.437-.1-2.873-.2-4.31-.2-2.633.052-5.273-.212-7.909M176.228,135.547q-.042-.027-.085-.051a.291.291,0,0,1,.084-.058c0,.037,0,.073,0,.109M37.77,77.564h0v0h0c.008,0,.012,0,.012,0a.017.017,0,0,1-.011,0M19.236,158.531s0,.008,0,.012,0,.025,0,.039,0,.031.005.048,0,.032.007.05l0,.011,0,0a.158.158,0,0,1-.05-.044l-.011-.017a.167.167,0,0,1-.019-.091c.022,0,.045,0,.067,0M16.114,18.5a.218.218,0,0,0,.043,0c-.007.013-.012.025-.02.039l-.023-.035M182.573,7.867q.648.727,1.3,1.446a1.135,1.135,0,0,1,.314.8c0,.458-.005.916,0,1.374.007.382.017.764.027,1.146-.018.006-.037.009-.055.015a4.023,4.023,0,0,0-1.309.329,1.7,1.7,0,0,0-.555.227l-.005,0-.053.032-.027,0-.015.007a.113.113,0,0,0-.04.017l-.015.007a.128.128,0,0,0-.025.036h0c-.019,0-.036,0-.053.005h-.017l0,0a.147.147,0,0,0-.047.011c-.077.038-.152.079-.227.118l-.039.018-.038.022c-.2.108-.406.222-.6.344l-.1.062c-.205.129-.407.264-.6.412a.212.212,0,0,0-.039.01.141.141,0,0,0-.028.007.112.112,0,0,0-.049.053c-.027.015-.055.029-.081.046A20.208,20.208,0,0,0,177.3,16.95a.819.819,0,0,0-.262.243,5.237,5.237,0,0,0-.689.537,11.049,11.049,0,0,1-.982.587,3.876,3.876,0,0,0-.39,0,2.875,2.875,0,0,1-.392-.025c-.36-.159-.717-.325-1.062-.518l-.015-.019-.019-.012a.389.389,0,0,0-.129-.079l-.008,0-.019-.007a.125.125,0,0,0-.087-.061l-.008-.005-.021,0-.028-.029-.01-.007a2.1,2.1,0,0,0-.346-.254c-.054-.039-.108-.078-.162-.118-.392-.293-.749-.628-1.129-.935a10.616,10.616,0,0,0-1.092-.974,6.473,6.473,0,0,0-.993-.71.219.219,0,0,0-.172-.111,1.293,1.293,0,0,0-.495-.306.44.44,0,0,0-.165-.13c-.39-.242-.8-.434-1.214-.637a.6.6,0,0,0-.286-.094.137.137,0,0,0-.13-.059c0-.005-.008-.006-.012-.01a.12.12,0,0,0-.042-.036.182.182,0,0,0-.071-.011,1.629,1.629,0,0,0-.276-.118l-.006,0h-.005l-.2-.065a6.117,6.117,0,0,0-1.385-.22l-.05-3.114a2.356,2.356,0,0,0-.3-1.129,4.192,4.192,0,0,0-.958-1.225q-.186-.173-.369-.351a16.632,16.632,0,0,0,3.482.074,41.715,41.715,0,0,1,7.613-.105c2.408.189,4.808.128,7.213.151h.335a5.738,5.738,0,0,0,.606.812M63.612,154.452l0,0a.025.025,0,0,1,0-.012.049.049,0,0,1,0-.01.034.034,0,0,1,0-.007h0a.139.139,0,0,1,0,.025s0,.008,0,.008M18.3,152.85s0,0-.005,0l-.008-.006a.061.061,0,0,0,0-.034h0c0-.017,0-.022,0-.022l0,0a.036.036,0,0,1,.008.012.076.076,0,0,1,0,.01.067.067,0,0,1,0,.022.044.044,0,0,1,0,.012M17.185,86.417h0l.028,0c0,.014,0,.028-.005.042v0h0c-.01-.014-.017-.028-.026-.042h0m32.429,53.435.06.009c-.007.018-.008.035-.017.054-.015-.021-.029-.042-.043-.063M19.806,47.714a.24.24,0,0,0,.026.01.307.307,0,0,0,.084.035c.007,0,.013.008.021.009-.033.016-.067.031-.1.045l-.01,0v0c-.006-.033-.012-.067-.019-.1M135.452,6.371q2.445,0,4.89,0a5.07,5.07,0,0,0,1.017,1.68q.647.727,1.3,1.446a1.135,1.135,0,0,1,.314.8c0,.458-.005.916,0,1.374.009.534.024,1.067.037,1.6l-.06.016a3.972,3.972,0,0,0-1.226.289,1.645,1.645,0,0,0-.507.194l-.018.007-.05.028-.026,0-.013.005a.115.115,0,0,0-.038.015l-.014.006a.107.107,0,0,0-.024.032h0l-.027,0-.034,0h-.005l0,0a.147.147,0,0,0-.045.01c-.073.034-.145.07-.217.106l-.032.014-.033.017c-.192.1-.38.2-.566.3l-.1.06c-.185.109-.367.223-.544.348l-.015.009a.194.194,0,0,0-.031.008.147.147,0,0,0-.032.008.1.1,0,0,0-.046.047c-.025.013-.052.025-.076.04-.249.157-.489.325-.722.5-.088.066-.171.138-.257.206-.946-.238-1.893-.462-2.846-.661a13.826,13.826,0,0,0-1.654-.312,12,12,0,0,0-1.774-.295.063.063,0,0,0-.055-.006h0c-.04-.02-.08-.055-.121-.056a8.084,8.084,0,0,1-1.058-.155,2.439,2.439,0,0,0-.728-.086.069.069,0,0,0-.058-.007.484.484,0,0,0-.346-.06l-.2-.017a.743.743,0,0,0-.485-.06l-.2-.016a3.65,3.65,0,0,0-.893-.132c-.768-.091-1.534-.209-2.306-.26-.416-.028-.832-.07-1.247-.113l-.026,0c-.324-.034-.647-.068-.971-.1-.052,0-.106-.014-.16-.021a.644.644,0,0,0-.178,0v-.017l-.056-3.46a2.344,2.344,0,0,0-.3-1.125,4.186,4.186,0,0,0-.954-1.221c-.3-.276-.59-.558-.862-.858-.02-.022-.037-.045-.056-.067,4.906-.133,9.818-.06,14.728-.068M31.475,140.725l-.007,0,.018,0c0,.007-.008.009-.012.009M177.487,17.574s.006.008.005.013,0,.008,0,.013a.077.077,0,0,1-.027.036.48.48,0,0,0,.02-.062M52.108,142.61a.472.472,0,0,0-.049-.034l-.022-.012a.226.226,0,0,0-.051-.018l0,0a.769.769,0,0,0,.058-.117l.007-.013c0-.017.007-.033.01-.049,0,.007.005.014.007.021.011.037.025.075.04.112.007.018.014.036.022.054.017.039.038.077.06.115.007.012.012.024.018.036-.027-.027-.052-.05-.074-.069l-.027-.02M21.047,157.955c.015.015.03.032.046.049l-.048,0c-.005,0-.011-.005-.016-.011a.1.1,0,0,1,0-.053l.019.018M25.8,17.167a.049.049,0,0,1-.007.014.031.031,0,0,1-.017.008l-.006,0a.092.092,0,0,1-.04-.012c.022-.009.048-.016.074-.023a.07.07,0,0,1-.005.011M28.3,15.856c-.017.007-.023.006-.031,0h0c.024-.013.032-.009.032,0h0m63.856,1.812a.025.025,0,0,1,.005.013s0,.007,0,.01a.069.069,0,0,1-.026.034.541.541,0,0,0,.02-.057M56.63,153.392h-.042a.166.166,0,0,1,.014-.025l.051.023H56.63M45.053,16.2h0m-2.133,1.968-.007.009h-.008l.014-.009m5.942-.608.019,0c-.006,0-.009.005-.012,0s-.005,0-.007-.008m-5.979-1.443-.029.009v-.011l.03,0m-14.4,3.268c1.012-.185,2.037-.279,3.051-.446a1.569,1.569,0,0,0,.19,0q1.079-.115,2.157-.234c.643-.071,1.286-.146,1.929-.219a5,5,0,0,0,.994-.072.194.194,0,0,1,.021-.008h0c-.008,0-.016,0-.023.008.558-.008,1.116-.038,1.672-.077l.057,0,.165-.009.049,0,.053,0c.159-.017.318-.029.477-.044l.124-.01h0l.688-.015H44.3l1.6.014.079.02.039,0a10,10,0,0,0,1.084.063.512.512,0,0,0,.293.058c.48.041.96.083,1.439.131s.938.1,1.406.149a2.45,2.45,0,0,0-.315.1c-.491.21-.908.547-1.387.776a3.356,3.356,0,0,0-.89.44,5.836,5.836,0,0,0-1.4.447,4.627,4.627,0,0,1-.671.3c-.07.023-.138.05-.207.075-1.657,0-3.314.036-4.971.049a1.158,1.158,0,0,0-.278.072h0l-.2,0-.24,0a4.007,4.007,0,0,0-.948.007l-.122.006-1.776-.009-.469-.015a1.291,1.291,0,0,0-.636-.076c-.728-.025-1.457-.027-2.184-.07-1.472-.087-2.942-.233-4.42-.2l-.324-.01h0a1.145,1.145,0,0,0-.277-.075c-.9-.018-1.81-.027-2.715-.039a.139.139,0,0,0-.016-.006l-.025-.14c-.012-.071-.043-.217-.082-.4.934-.195,1.87-.381,2.809-.553m128.673-1.948a.029.029,0,0,1,.006.013s0,.007,0,.011a.072.072,0,0,1-.027.034.414.414,0,0,0,.02-.058m22.18-.76-.02.025-.027.027a.687.687,0,0,0,.047-.052M52.873,143.579l.012,0,.05-.012.027-.007c0,.029,0,.058,0,.087a.163.163,0,0,1-.092-.066M19.2,91.62s-.01.009-.016.008h0a.375.375,0,0,0,.007-.042c0-.007,0-.015,0-.022l.018.019,0,0a.044.044,0,0,1,0,.024.027.027,0,0,1-.005.009M93.98,16.838l-.021.025-.03.028A.662.662,0,0,0,93.98,16.838ZM19.146,111.373c0-.017,0-.018.006-.018s0,.012-.006.018M158.992,16.6l-.02.023c-.008.008-.017.015-.025.023C158.963,16.634,158.978,16.62,158.992,16.6Zm-126.6,88.248.044,0,.074,0,.032,0c-.006.007-.012.012-.018.018a.228.228,0,0,1-.046.035.206.206,0,0,1-.037.01.2.2,0,0,1-.052.01,1.22,1.22,0,0,1-.095-.018.359.359,0,0,1-.093-.053l.048,0,.063,0,.082,0m-5.8,37.719-.03-.038c.017-.012.035-.023.054-.033-.01.015-.017.03-.028.045s0,.018,0,.027m.951-94.351.008-.008a.175.175,0,0,1,.093-.038h0a.6.6,0,0,0-.082.058l-.016.014a.432.432,0,0,0-.059.066l0,0a.2.2,0,0,1,.056-.1m13.5,17.7.008-.017c-.005.051-.01.1-.013.154l0-.007a.176.176,0,0,1-.01-.046.167.167,0,0,1,0-.034.2.2,0,0,1,.017-.05m80.311-48.084-.006.009h-.007l.012-.009m-.033-2.044-.026.009v-.011l.026,0M59.107,134.92a.158.158,0,0,0-.019-.024.131.131,0,0,1,.02.024.143.143,0,0,1,.017.02.146.146,0,0,1,.013.067.153.153,0,0,0-.016-.067.164.164,0,0,0-.016-.02m-7.722-13.363s.005,0,.006,0a.061.061,0,0,1,.02-.007c0,.007,0,.013,0,.02-.017,0-.028,0-.028-.009M21.05,135.187c-.014,0-.027-.01-.041-.014l0,0a.141.141,0,0,1,.088-.037.126.126,0,0,1,.044.053.205.205,0,0,1,.008.02c0,.005,0,.011,0,.016l-.007,0c-.031-.013-.065-.023-.1-.033m7.693-13.681.017.028-.005,0-.01,0a.114.114,0,0,1-.072-.008c0-.045.007-.083.011-.122.005.01.013.021.019.031s.025.044.04.066m-2.586.358-.03.029c-.007-.017-.014-.033-.023-.05l.053.022m5.666-37.157h-.008l.037-.052.021-.029s0,0,.006.007a.22.22,0,0,0,.07.077.744.744,0,0,0-.125,0M22.478,95.744h0c.009-.015.017-.02.022-.017s0,0,0,.007a.024.024,0,0,1,0,.014v0a.02.02,0,0,1-.013.017c-.007,0-.015,0-.028-.012h0a.356.356,0,0,1-.02-.043L22.44,95.7Zm6.994-4.222,0,0c-.01-.007-.015-.016-.024-.023l.025,0v.024a.016.016,0,0,1,0,0m-.955,10.989H28.49a.231.231,0,0,1,.022-.022c0,.008,0,.015.005.023m-2.009,10.475v-.023a1.1,1.1,0,0,0,.081-.077h0a.271.271,0,0,1-.081.1m-2.129-23.25.012-.024a.829.829,0,0,1,.012.088h0a.142.142,0,0,1-.054-.006l.008-.015.023-.043m-2.108,7.831c-.005.013-.006.024-.012.038v0l-.015-.04h.028M18.86,86.2a.027.027,0,0,1-.012-.031c0,.01.008.02.012.031m7.883,54.452-.014,0,.014-.024ZM31.5,111.228c-.01,0-.011-.021-.011-.021s.007.014.011.021M132.44,19.091a.315.315,0,0,0-.272.147l-1.474.637c-.284.11-.569.213-.852.324-1.146.385-2.227.932-3.345,1.387-.5.152-.987.34-1.472.533l-1.218.011c-.643.007-1.289.058-1.929.015-.1-.007-.2-.008-.305-.013a.242.242,0,0,1-.045-.036l-.245-.023a.493.493,0,0,0-.02-.067l-.232-.015c-.013-.023-.025-.047-.035-.072l-.246-.019c-.006-.023-.013-.045-.021-.068h-.168l-.1-.088-.25-.025a.558.558,0,0,0-.015-.065.307.307,0,0,1-.262-.091.833.833,0,0,1-.454-.162.343.343,0,0,1-.264-.091,24.32,24.32,0,0,0-.524-.185,104.964,104.964,0,0,1-.532-.175l-.24-.018-.027-.071a.3.3,0,0,1-.268-.083.367.367,0,0,1-.27-.082.337.337,0,0,1-.263-.092.369.369,0,0,1-.268-.085l-.247-.025a.281.281,0,0,1-.023-.063.324.324,0,0,1-.265-.085l-.318-.049a.231.231,0,0,0-.188-.067c-.007-.023-.014-.046-.021-.07a.345.345,0,0,1-.263-.088l-.233-.023c0-.005,0,0,0-.012a.072.072,0,0,0-.026-.06c-.1-.109-.254,0-.353-.1-.076-.078-.195-.015-.267-.078-.128-.127-.313.008-.441-.095-.11-.1-.264-.009-.379-.086a.05.05,0,0,1-.062-.009c-.071-.08-.2,0-.265-.089a.165.165,0,0,0-.167-.026c.015-.03.007-.05-.043-.051a.044.044,0,0,1-.056-.011.151.151,0,0,0-.2,0v.012l-.068-.005-.083-.009c0-.007,0-.012,0-.019h-.013a.239.239,0,0,0-.025-.053l-.324-.021a.164.164,0,0,0-.182,0l-.089-.073a.739.739,0,0,1-.438-.093.511.511,0,0,1-.357-.084l-.42-.016a.551.551,0,0,0-.106-.073.644.644,0,0,0-.395-.05l-.16-.065-.239-.1c.383-.057.765-.114,1.146-.184a1.233,1.233,0,0,0,.169,0q.956-.114,1.911-.233c.57-.071,1.139-.145,1.709-.218a3.983,3.983,0,0,0,.881-.072c.006,0,.012,0,.018-.008h0c-.007,0-.014,0-.021.008.493-.008.986-.037,1.477-.077l.055,0,.146-.009.043,0,.047-.005c.137-.017.275-.028.413-.043.04,0,.08-.006.12-.011l.609-.015h3.729l1.045.01h.005l.366,0c.023.008.047.014.07.02l.035,0a7.773,7.773,0,0,0,.96.062h0c.078.066.17.05.259.058.425.041.851.082,1.275.131.714.081,1.428.177,2.143.25.492.051.98.136,1.469.214l1.032.165c.231.043.461.087.692.127l.553.1c-.013.011-.026.018-.039.03M125.9,15.379l0,.013v0l0,0-.019-.005c.008-.008.017-.008.026-.013m-2.7.524.026-.015.006,0,.01-.005a.22.22,0,0,1-.022.019l-.019,0m-14.806-.377a.006.006,0,0,1,.005.007c-.016.007-.022.006-.028,0h0a.037.037,0,0,1,.02-.008l0,0M21.165,94.588l.006.018-.01,0-.018,0,.022-.012M18.9,90.445a.059.059,0,0,1,.016-.007l.012,0a.022.022,0,0,1,.023.017h0c.007.015.01.03.016.045l0,0,0,0a.081.081,0,0,0-.015-.026v0a.025.025,0,0,0-.02-.006s0,0-.007,0h0l-.007-.007v.008a.031.031,0,0,1-.018,0s0,0,0-.007,0,0,0,0m.37.84c.007,0,.012.01.018.014l-.018,0ZM164.957,17.6a1.079,1.079,0,0,0-.2-.051c-.165-.01-.331-.015-.5-.02a.7.7,0,0,0,.135-.1.357.357,0,0,1,.04-.03.32.32,0,0,1,.051-.037.178.178,0,0,1,.041-.01.207.207,0,0,1,.045-.01.226.226,0,0,1,.047.008.253.253,0,0,1,.04.007.7.7,0,0,1,.093.038c.149.072.3.142.45.209h-.248m-35.681-.59a.017.017,0,0,1,0-.012l0,0a.016.016,0,0,1,0,.009v0m-97.24,99.76c.011,0,.014.015.014.018v0l0,0c0-.006-.007-.012-.012-.017m1.776-29.618.047-.019c0,.012,0,.023,0,.035l-.022-.008-.021-.008m7.85,2.778.012-.02.011.021h-.023M49.917,127.8l.012,0a.048.048,0,0,1,.027.027l0,0a.088.088,0,0,1,0,.048l-.005.013a.325.325,0,0,1-.023.047l0,0c-.005-.011-.013-.022-.018-.033s-.018-.041-.027-.062-.013-.038-.021-.058h.006a.168.168,0,0,1,.054.006m11.444-16.274a.122.122,0,0,1-.032.007.116.116,0,0,1-.031.005c.008,0,.035-.007.063-.013ZM188.879,19.207c-.17.045-.34.087-.514.12a7.708,7.708,0,0,0-1.489.381c-.055,0-.107.012-.161.017h-.487a.194.194,0,0,0-.19.093l-.379,0h-2.652l-.758,0c-.124-.142-.29-.09-.441-.092-.548-.005-1.1,0-1.644,0h-.177c.137-.06.272-.123.4-.2.088-.029.179-.051.264-.088,1.2-.527,2.394-1.08,3.605-1.584a1.367,1.367,0,0,0,.516-.292.317.317,0,0,1,.053-.043.345.345,0,0,1,.038-.029.181.181,0,0,1,.055-.014.249.249,0,0,1,.032-.008.4.4,0,0,1,.182.057l.047.024h0c.216.111.432.223.656.315.51.212,1.016.435,1.52.661l0,0,.965.431.551.247M24.958,23.381l0,0-.01-.018-.009-.019a.13.13,0,0,1,.018-.006c0,.015,0,.03,0,.045m122-8.818h0l0,.005,0,0h0m-14.541.079H132.4l-.042,0-.025,0,.054-.033.028.043M130.51,14.2l-.035-.053-.015-.024h.114a.29.29,0,0,1-.063.077m-27.532.254h0s0,0,0,0l0,0h0M48.048,15.7l-.005.012v0l0,0-.022-.005c.01-.008.02-.008.029-.013M45,16.228l.029-.015.007,0,.01-.005a.263.263,0,0,1-.025.018L45,16.228M35.612,83.9a.2.2,0,0,0,.03-.01c.006.019.012.038.02.058a.654.654,0,0,1-.05-.047m13.582,40.853-.011-.008a.054.054,0,0,1,.019-.028.139.139,0,0,0-.008.036M168.039,14.207h0l0,.006-.005-.005h0M65.184,15.9s-.006-.008-.008-.013l.01,0,0,.01M63.615,150.141l0,.013,0,.007-.028-.017h0l.031,0v0M188.44,14.1h0l0,.005,0,0h0M51.859,17.343a.017.017,0,0,1,0-.012h0a.016.016,0,0,1,0,.01v0M162.49,13.156a1.757,1.757,0,0,0-.552.211l-.005,0-.053.03-.027,0-.015.006a.126.126,0,0,0-.039.016l-.015.006a.114.114,0,0,0-.025.033h0l-.024,0-.04,0h-.005l0,0a.147.147,0,0,0-.047.011c-.076.036-.151.073-.226.11l-.038.017-.037.02q-.3.151-.6.319l-.1.061c-.2.12-.4.244-.6.381a.125.125,0,0,0-.115.066c-.027.014-.055.027-.08.043a19.731,19.731,0,0,0-2.871,2.358.793.793,0,0,0-.26.227,5.13,5.13,0,0,0-.685.5c-.131.083-.265.16-.4.237a2.11,2.11,0,0,0-.588.1.081.081,0,0,0-.094.013,3.822,3.822,0,0,0-1.217.15.58.58,0,0,0-.15.043,1.915,1.915,0,0,0-.788.14c-.221-.1-.439-.214-.654-.334l-.015-.018L152.1,17.9a.367.367,0,0,0-.12-.074l-.009-.005-.031-.02a.121.121,0,0,0-.068-.044l-.008-.005-.02,0-.006-.006-.021-.021-.006,0a1.917,1.917,0,0,0-.326-.24c-.055-.04-.11-.079-.163-.12-.367-.275-.7-.588-1.057-.875a9.959,9.959,0,0,0-1.03-.919,6.133,6.133,0,0,0-.936-.67.208.208,0,0,0-.162-.1,1.223,1.223,0,0,0-.467-.289.413.413,0,0,0-.155-.123c-.367-.228-.759-.409-1.145-.6a.565.565,0,0,0-.27-.088.129.129,0,0,0-.122-.056s-.008-.005-.011-.009a.11.11,0,0,0-.04-.035.157.157,0,0,0-.067-.01,1.519,1.519,0,0,0-.26-.111l-.006,0h-.005L145.4,13.4a4.912,4.912,0,0,0-1.087-.189l-.05-3.11a2.351,2.351,0,0,0-.3-1.129,4.2,4.2,0,0,0-.958-1.225c-.3-.277-.592-.56-.865-.861a2.72,2.72,0,0,1-.368-.516h4.819l4.818.037h0c.22.226.5.18.762.19,1.6.063,3.2.06,4.81.183,1.5.115,3,.078,4.506.066a5.734,5.734,0,0,0,.553.741c.432.485.865.968,1.3,1.446a1.137,1.137,0,0,1,.314.8c0,.458-.005.916,0,1.374.01.552.025,1.1.038,1.655a4.084,4.084,0,0,0-1.212.3M108.517,6.817a.821.821,0,0,0,.661-.187h0l1.19-.022c.368.007.736.023,1.1.021,2.572-.017,5.143-.079,7.714-.15A5.377,5.377,0,0,0,120,7.665c.43.483.862.965,1.3,1.441a1.129,1.129,0,0,1,.312.792c0,.457-.005.913,0,1.369.011.653.032,1.305.045,1.958l0,0-.008-.023a.366.366,0,0,0-.039-.085v0h0c-.047-.066-.117-.066-.292-.062-.033,0-.067.008-.1.012a5.747,5.747,0,0,0-1.29.066c-.438.009-.878,0-1.315.031-1.165.081-2.328.191-3.493.265-.146.009-.292.02-.438.032l-.268.028c-.693.06-1.386.134-2.078.208a4.1,4.1,0,0,0-1,.132,7.347,7.347,0,0,0-1.287.16,3.282,3.282,0,0,0-.768.1q-1.416.235-2.828.5c-.6.114-1.2.211-1.786.379a2.7,2.7,0,0,0-.272-.16.221.221,0,0,0-.171-.11,1.3,1.3,0,0,0-.492-.3.441.441,0,0,0-.164-.13c-.387-.24-.8-.431-1.207-.634a.6.6,0,0,0-.285-.093.137.137,0,0,0-.129-.058c0-.005-.008-.006-.012-.01a.114.114,0,0,0-.042-.036.175.175,0,0,0-.07-.011,1.594,1.594,0,0,0-.274-.117l-.007,0h-.006l-.2-.064a5.632,5.632,0,0,0-1.273-.21l-.052-3.286a2.356,2.356,0,0,0-.3-1.129A4.2,4.2,0,0,0,98.75,7.38q-.3-.275-.578-.562h10.345m-43.488,8.2a.055.055,0,0,1,.018.027c-.006-.011-.017-.017-.026-.026h.008m-5.751-.292-.006-.012.015,0-.008.01M18.458,154.337c.016-.015.033-.027.049-.04a.075.075,0,0,1-.048.04h0m12.78-10.521H31.18a.046.046,0,0,1,.013,0,.128.128,0,0,1,.027,0l.018,0h0m89.043-33.162c.083-1.407.279-2.808.25-4.222a1.77,1.77,0,0,1,.036-.458,4.5,4.5,0,0,0,0-1.646,9.878,9.878,0,0,0,.112-2.34c0-.873-.1-1.755-.05-2.626.1-1.678-.02-3.353.019-5.03.04-1.738,0-3.478-.013-5.217a8.147,8.147,0,0,0-.168-2.549,21.584,21.584,0,0,0-.037-2.209A10.1,10.1,0,0,1,120.4,82.7q.024-.4.044-.8l.209-.049.1-.024c.083-.021.166-.044.249-.066l.012,0,.148-.039h0s.005,0,.008,0l.14-.038a.223.223,0,0,0,.125-.03l.085-.014c.075-.077.191-.013.269-.078l.032-.021.038.005c.06-.038.139-.029.2-.075l.021-.023.03,0c.072-.027.158-.02.2-.086.057-.037.133-.027.187-.075l.046-.017h0c.07-.024.151-.022.2-.078a.843.843,0,0,1,.149-.041.356.356,0,0,0,.166-.025,1.555,1.555,0,0,0,.067.287c.014.445.008.892.047,1.335.083.95.164,1.9.172,2.855a12.573,12.573,0,0,0,.05,1.383.431.431,0,0,0,.035.183c-.029.14-.054.28-.085.42-.213.964-.459,1.92-.611,2.9-.3,1.906-.661,3.8-.948,5.707-.185,1.23-.25,2.471-.437,3.7-.31,2.027-.384,4.071-.5,6.112-.007.082-.013.165-.02.247a10.2,10.2,0,0,0-.124,2.376h0a17.066,17.066,0,0,0-.357,2.512c-.042.3-.086.6-.13.893.014-.462.028-.923.056-1.384M.956,17.467c-.01.011-.016.022-.026.034a.138.138,0,0,1,.026-.034M86.618,6.817h9.844a5.706,5.706,0,0,0,.639.866c.432.485.865.968,1.3,1.446a1.136,1.136,0,0,1,.314.8c0,.458-.005.916,0,1.374.01.6.028,1.2.042,1.805l-.01,0a4.184,4.184,0,0,0-1.293.3,1.728,1.728,0,0,0-.534.2l-.02.007-.053.03-.027,0-.014.006a.116.116,0,0,0-.04.017l-.015.006a.112.112,0,0,0-.025.034h0l-.045,0-.021,0H96.66l0,0a.147.147,0,0,0-.047.011c-.077.036-.154.075-.23.112l-.032.014-.032.017q-.308.152-.606.322l-.092.055c-.2.118-.4.243-.593.379l0,0a.173.173,0,0,0-.032.008.138.138,0,0,0-.035.008.109.109,0,0,0-.048.049c-.027.014-.054.027-.08.043a19.614,19.614,0,0,0-2.856,2.345.792.792,0,0,0-.259.225,4.29,4.29,0,0,0-.558.4,1.114,1.114,0,0,1-.2-.2.192.192,0,0,0-.087-.179.778.778,0,0,0,0-.085c-.009-.042,0-.1-.028-.125a5.788,5.788,0,0,1-.711-1.33,6.392,6.392,0,0,0-.663-1.355,10.65,10.65,0,0,0-.878-1.752.182.182,0,0,0-.089-.175h0c-.064-.162-.2-.182-.349-.178h0l-.034-.015,0,0a1.127,1.127,0,0,0-.308-.132h0a6.016,6.016,0,0,0-1.321-.374,3.458,3.458,0,0,0-1.053-.174c-.182.014-.342-.113-.526-.086l-.169-.008c-.1-.119-.233-.076-.357-.086a6.077,6.077,0,0,0-2.017-.26,8.488,8.488,0,0,0-1.482-.1l-.019-1.184a2.356,2.356,0,0,0-.3-1.129A4.2,4.2,0,0,0,79.6,7.564c-.243-.226-.481-.459-.71-.7,2.577-.012,5.153-.032,7.729-.048m-31.21,8.146h-.017l-.049,0-.027,0,.061-.033.032.043m-2.156-.443-.006-.008c-.011-.016-.023-.032-.032-.043l-.019-.026h.128a.3.3,0,0,1-.071.077M17.694,56.777l-.026.024-.047.05-.015.017v0a.379.379,0,0,1,.007-.08c0-.008,0-.016,0-.024a.438.438,0,0,1,.044-.111c.027.03.05.062.075.093l0,0c-.011.008-.023.019-.036.03m.742,89.309c.009,0,.011.005.012.015l-.013-.014h0m240.579-131.9h0a.037.037,0,0,1,0,.007l-.005-.006h0M203.8,11.9a4.69,4.69,0,0,0-1.453.342,1.987,1.987,0,0,0-.619.237h0l-.059.033-.03,0-.015.006a.138.138,0,0,0-.047.019l-.016.007,0,0c-.483.06-.967.115-1.447.191a3.3,3.3,0,0,1-.688.082,1.909,1.909,0,0,0-.824.127c0-.023.008-.046.012-.068-.157-.107-.28-.076-.336.1-.019.058-.032.117-.046.177a2.126,2.126,0,0,0-.556.611,17.335,17.335,0,0,1-1.312,1.76,7.81,7.81,0,0,1-2.071,1.3c-.39.157-.784.309-1.166.484-.4-.319-.767-.688-1.157-1.024a10.931,10.931,0,0,0-1.1-1.047,6.562,6.562,0,0,0-1-.763.223.223,0,0,0-.173-.119,1.3,1.3,0,0,0-.5-.329.455.455,0,0,0-.166-.14c-.392-.259-.81-.466-1.221-.685a1.139,1.139,0,0,0-.174-.082.322.322,0,0,0-.114-.019.135.135,0,0,0-.13-.063.116.116,0,0,0-.03-.027c-.008-.007-.015-.018-.025-.022a.16.16,0,0,0-.071-.012,1.4,1.4,0,0,0-.22-.1l-.053-.021-.012,0h0l-.2-.07a5.245,5.245,0,0,0-1.254-.224l-.042-2.637a2.355,2.355,0,0,0-.3-1.129,4.205,4.205,0,0,0-.958-1.225q-.268-.249-.527-.509,5.6,0,11.2,0A22.561,22.561,0,0,0,197.21,7c1.613-.167,3.23-.231,4.847-.286a5.584,5.584,0,0,0,.636.863q.639.719,1.289,1.43a1.124,1.124,0,0,1,.311.787c0,.453-.005.906,0,1.358,0,.213.01.426.015.639a3.013,3.013,0,0,0-.509.11m90.61,5.563c-.01.011-.016.022-.027.034a.148.148,0,0,1,.027-.034M274.755,1.962a.233.233,0,0,1,.052.026c-.017-.01-.034-.016-.052-.026M33.043,2.039h-.008l0-.005.011.005M1,175,1.007,175h0v0L1,175M76.76,6.874l.475,0a5.555,5.555,0,0,0,.715.995c.432.485.865.968,1.3,1.446a1.136,1.136,0,0,1,.314.8c0,.365,0,.731,0,1.1a11.361,11.361,0,0,1-1.6.085.552.552,0,0,0-.174.013,25.591,25.591,0,0,1-2.672.333,7.032,7.032,0,0,0-1.363.261c-.122.01-.256-.035-.352.084-.121.014-.257-.029-.351.09a4.2,4.2,0,0,0-1.2.344c-.119.041-.172.146-.232.248-.146.25-.31.49-.448.744a6.664,6.664,0,0,0-.834,2.088,3.224,3.224,0,0,0-.205.622.226.226,0,0,1,.148.3c-.092.263-.248.5-.352.754l-.079.2a.5.5,0,0,0,.11.206.167.167,0,0,1-.01.163,1.205,1.205,0,0,0-.155.224c-.213-.184-.424-.369-.643-.545a12.35,12.35,0,0,0-1.285-1.147A7.655,7.655,0,0,0,66.7,15.43a.263.263,0,0,0-.2-.13h0a1.531,1.531,0,0,0-.582-.36.518.518,0,0,0-.194-.154c-.458-.284-.947-.511-1.428-.75a.7.7,0,0,0-.337-.11l-.005,0,0,0h0a.151.151,0,0,0-.148-.07.154.154,0,0,0-.147-.068h0a3,3,0,0,0-.572-.219,5.806,5.806,0,0,0-1.266-.227L61.764,10.1a2.355,2.355,0,0,0-.3-1.129,4.2,4.2,0,0,0-.958-1.225c-.3-.277-.592-.56-.865-.861l-.008-.011q8.564,0,17.127,0M57.714,14.8l0,.006-.006.005s0-.008,0-.012M176.225,133.624l.013.013v.015c0-.01-.01-.019-.013-.028M231.887,9.963a4.433,4.433,0,0,1-.961.111,6.566,6.566,0,0,0-1.3.141h0a12.333,12.333,0,0,0-2.3.231,5.115,5.115,0,0,0-1.266.2,6.48,6.48,0,0,0-1.759.193c-.334.069-.7-.051-1,.16a4.574,4.574,0,0,0-2.485,1.293c-.288.328-.536.691-.8,1.041a6.654,6.654,0,0,0-.961,1.8,11.09,11.09,0,0,1-1.424,2.245,2.525,2.525,0,0,1-.576.541c-.182.114-.363.231-.545.346a4.592,4.592,0,0,1-1.725-1.39,9.194,9.194,0,0,1-.768-1.41,6.626,6.626,0,0,0-.636-1.352.205.205,0,0,0-.11-.181c.008-.114,0-.237-.216-.26-.022.05-.052.1-.072.161a.3.3,0,0,0-.146-.045c-.2-.245-.516-.2-.77-.31a6.567,6.567,0,0,0-2.571-.55.455.455,0,0,0-.24-.1,3.96,3.96,0,0,0-.971-.118l-.44-.218a.666.666,0,0,0-.32-.105h0a.122.122,0,0,0-.064-.053.159.159,0,0,0-.023,0,.275.275,0,0,0-.057-.009.117.117,0,0,0-.033-.028c-.009-.008-.017-.02-.028-.024a.2.2,0,0,0-.079-.012,1.668,1.668,0,0,0-.249-.11l-.042-.016-.024-.009-.009,0-.218-.071a5.217,5.217,0,0,0-1.1-.2l-.036-2.232a2.325,2.325,0,0,0-.3-1.116,4.156,4.156,0,0,0-.946-1.212q-.323-.3-.631-.617c3.255-.105,6.5.12,9.753.336,2.538.168,5.092.053,7.638.063A33.284,33.284,0,0,0,226.7,7.3a.944.944,0,0,0,.755.186c.893.008,1.787,0,2.681,0l.7.007c.011.012.02.025.03.037q.617.694,1.244,1.379a1.082,1.082,0,0,1,.3.759c0,.067,0,.134,0,.2a4.277,4.277,0,0,0-.527.1M294.458,175l.005-.007h0v0l-.005,0M42.713,7.079c1.7,0,3.41-.031,5.114-.033.326,0,.677.073.965-.192,2.079.008,4.158.023,6.237.024H58.05a5.44,5.44,0,0,0,.808,1.174q.648.727,1.3,1.446a1.135,1.135,0,0,1,.314.8c0,.458-.005.916,0,1.374.01.549.025,1.1.038,1.646a3.163,3.163,0,0,0-.487.107,4.97,4.97,0,0,0-1.53.36h0a2.2,2.2,0,0,0-.718.285.145.145,0,0,0-.143.075l0,0a.485.485,0,0,0-.142.021c-.4.189-.8.394-1.18.62a8.8,8.8,0,0,0-1.4-.188.079.079,0,0,0-.063-.006.428.428,0,0,0-.137-.056,10.129,10.129,0,0,1-1.194-.155,3.076,3.076,0,0,0-.822-.086.084.084,0,0,0-.066-.007.6.6,0,0,0-.391-.061l-.22-.018a.932.932,0,0,0-.547-.06l-.225-.016A4.615,4.615,0,0,0,50.238,14c-.867-.091-1.731-.21-2.6-.261-.469-.028-.938-.07-1.406-.113l-.031,0c-.365-.034-.731-.068-1.1-.1a1,1,0,0,0-.485.007c0-.017,0-.03,0-.047l-.056-3.473a2.356,2.356,0,0,0-.3-1.129A4.2,4.2,0,0,0,43.3,7.657q-.3-.282-.592-.577M16.9,50.415c0,.04-.006.079-.008.118a.37.37,0,0,1,.008-.118m53.315,69.008v0h0l0,0m116.571,14.438h0a.369.369,0,0,0,0,.058l-.009,0c0-.018.007-.037.012-.055M253.978,9.5a1.136,1.136,0,0,1,.314.8c0,.458-.005.916,0,1.374.006.349.015.7.024,1.045a4.542,4.542,0,0,0-1.368.328,1.921,1.921,0,0,0-.6.23l-.005,0-.042.024-.016.008h0l-.029,0-.017.007a.133.133,0,0,0-.043.018l-.017.007a.119.119,0,0,0-.027.036h0l-.042,0-.03,0h-.005l0,0a.182.182,0,0,0-.053.012c-.084.039-.167.081-.25.122l-.039.017-.039.021q-.335.166-.659.351l-.107.063c-.221.13-.439.266-.648.415l0,0a.182.182,0,0,0-.057.014c-.005,0-.011,0-.016,0a.118.118,0,0,0-.053.054c-.029.015-.06.029-.088.047-.273.173-.535.358-.793.549a14.284,14.284,0,0,0-1.656.571c-.192.074-.383.152-.573.23-.305-.481-.537-1-.794-1.511a7.021,7.021,0,0,0-2.377-2.69,6.444,6.444,0,0,0-2.278-.9,5.779,5.779,0,0,0-1.832-.558c-1.177-.045-2.343-.237-3.523-.225a5.365,5.365,0,0,1-1.523-.179.811.811,0,0,0-.609.055q-.224-.013-.449-.022l-.006-.349a2.25,2.25,0,0,0-.286-1.077,3.592,3.592,0,0,0-.628-.884c.245.009.489.015.734.009,2.2-.056,4.409-.1,6.614-.2,3.97-.193,7.949.041,11.922-.2a5.616,5.616,0,0,0,.674.925q.647.727,1.3,1.446" transform="translate(0 0)" fill="#40bbff"/>
          <path id="Caminho_770282" data-name="Caminho 770282" d="M181.706,43.073c-.016.06-.033.119-.052.179a1.275,1.275,0,0,0-.127.58q.089-.38.179-.759" transform="translate(-111.684 -26.501)" fill="#40bbff"/>
          <path id="Caminho_770283" data-name="Caminho 770283" d="M183.948,339.362l.034,0-.133-.034a.163.163,0,0,0,.1.032" transform="translate(-113.116 -208.779)" fill="#40bbff"/>
          <path id="Caminho_770284" data-name="Caminho 770284" d="M181.558,320.076v-.133a.119.119,0,0,0-.028.045.064.064,0,0,0,.028.088" transform="translate(-111.686 -196.851)" fill="#40bbff"/>
          <path id="Caminho_770285" data-name="Caminho 770285" d="M182.116,337.4a1.147,1.147,0,0,0,.037.463c.027.08.061.093.09.07-.09-.084-.116-.205-.124-.422l0-.111" transform="translate(-112.046 -207.594)" fill="#40bbff"/>
          <path id="Caminho_770286" data-name="Caminho 770286" d="M182.009,308.285a.474.474,0,0,0-.017.3l.015-.254,0-.042" transform="translate(-111.963 -189.678)" fill="#40bbff"/>
          <path id="Caminho_770287" data-name="Caminho 770287" d="M212.5,296.588c0,.073,0,.146,0,.219.04-.032.037-.094.038-.147a2.629,2.629,0,0,0-.017-.743c-.008.222-.015.447-.019.671" transform="translate(-130.745 -182.069)" fill="#40bbff"/>
          <path id="Caminho_770288" data-name="Caminho 770288" d="M182.147,304.161a.688.688,0,0,0-.029.565c.012-.185.021-.375.029-.565" transform="translate(-112.02 -187.141)" fill="#40bbff"/>
        </g>
      </g>
      <g id="Grupo_234013" data-name="Grupo 234013" transform="translate(-1 172.126)">
        <path id="Caminho_770806" data-name="Caminho 770806" d="M195.943,220.431l2.532-18,25.468-2.089v10.891s-7.942,4.924-8.9,4.924-19.1,4.278-19.1,4.278" transform="translate(-47.86 -56.341)"/>
        <path id="Caminho_770807" data-name="Caminho 770807" d="M109.168,102.379l14.669,3.342,10.682-3-2.912-11.96L120.034,76.85l7.527-2.64-1.731-7.1L112.247,82l-3,3.27-.024,5.478v.024L109.216,93Z" transform="translate(103.936 -18.873)" fill="#ffa694"/>
        <path id="Caminho_770793" data-name="Caminho 770793" d="M93.408,106.443s2.685,13.332,5.478,13.631,24.063.692,26.259.3,12.724-6.66,12.724-6.66l9.155-7.269-14.24-6.851-1.062-.513-1.205-.585-9.119.37-.489.024-9.656.393h-.06l-.788.323-2.793,1.122-.681.275-.489.2Z" transform="translate(102.759 -27.699)" fill="#ffa694"/>
        <path id="Caminho_770808" data-name="Caminho 770808" d="M118.368,95.851l3.951.62A17.748,17.748,0,0,0,132.858,93.8l.465-.287a16.953,16.953,0,0,0,4.213-3.712,16.159,16.159,0,0,0,2.542-4.56c.167-.465.609-3.211.931-4.512a5.426,5.426,0,0,1-1.683-1.265c-4.691,1.969-9.345,3.939-13.977,6.015l-3,3.27-.024,5.478v.024l-2.793,1.122-.68.275Z" transform="translate(90.832 -22.347)"/>
        <path id="Caminho_770796" data-name="Caminho 770796" d="M6.859,163.971,28.189,174.4l4.034,41.775h90.855l4.333-22.678,38.636-4.022S152.631,140.7,136.8,126.815c-10.062-8.844-22.5-14.633-30.2-17.677-.466-.19-.907-.358-1.325-.525-3.641-1.385-5.933-2.065-5.933-2.065a50.572,50.572,0,0,1-24.779,6.7c-13.845-.155-20.386-6.123-20.386-6.123s-2.555.633-5.98,1.635c-.454.132-.919.262-1.4.418-5.681,1.695-12.962,4.2-15.481,6.457-4.333,3.867-24.468,48.34-24.468,48.34" transform="translate(145.944 -29.965)" fill="url(#linear-gradient-4)"/>
        <path id="Caminho_770818" data-name="Caminho 770818" d="M223.255,220.57l-3.108-6.465s-15.691-2.437-24.345,5.522,5.819,20.391,5.819,20.391,15.732.479,16.967.414,4.667-19.862,4.667-19.862" transform="translate(-45.088 -60.114)"/>
        <path id="Caminho_770819" data-name="Caminho 770819" d="M166.368,233.97c.055-.38,3.13-1.284,3.567-1.432a12.2,12.2,0,0,1,4.407-.848c3.4.173,3.318,3.67,1.553,5.412a11.785,11.785,0,0,1-4.007,2.353c-6.7,2.617-5.522-5.47-5.52-5.486" transform="translate(20.304 -65.156)"/>
        <path id="Caminho_770820" data-name="Caminho 770820" d="M134.462,231.825c-.055-.38-3.13-1.284-3.567-1.432a12.2,12.2,0,0,0-4.407-.848c-3.4.173-3.318,3.67-1.553,5.412a11.8,11.8,0,0,0,4.007,2.355c6.7,2.616,5.522-5.471,5.52-5.486" transform="translate(93.441 -64.553)"/>
        <path id="Caminho_770821" data-name="Caminho 770821" d="M176.992,243.012a38.556,38.556,0,0,1,4.584-.441c.382-.024.788-.06,1.205-.084,1.838-.131,3.975-.262,6.147-.394l1.205-.071c2.161-.132,4.333-.263,6.266-.37.418-.024.811-.048,1.205-.072l.628-.035a4.654,4.654,0,0,0,4.322-5.448c-.658-3.781-1.66-8.6-2.777-10.69-1.445-2.7-3.963-1.91-5.2-1.3a5.719,5.719,0,0,0-.729.418,5.747,5.747,0,0,0-.763-2.053,3.922,3.922,0,0,0-3.426-1.957,3.291,3.291,0,0,0-3.474,2.638v.011a5.512,5.512,0,0,0-.214,1.361,4.267,4.267,0,0,0-.9-.871,3.759,3.759,0,0,0-3.413-.62c-1.8.537-1.957,3.282-1.874,5.036v.024a14.127,14.127,0,0,0,.155,1.491,3.842,3.842,0,0,0-1.182-.549,2.794,2.794,0,0,0-3.008.9c-1.839,2.065.871,13.428,1.241,13.082" transform="translate(-11.572 -62.014)" fill="#ffa694"/>
        <path id="Caminho_770822" data-name="Caminho 770822" d="M26.848,220.533c-2.835-.448-9.1,5.545-10.817,9.2s-1.492,11.712-1.492,11.712H34.83L50.72,245.1h49.534l-4.477-23.424-28.646,3.879L66,231.462s-36.322-10.481-39.156-10.929" transform="translate(206.223 -62.014)" fill="#ffa694"/>
        <path id="Caminho_770823" data-name="Caminho 770823" d="M117.359,244.82a.6.6,0,0,0,.592-.534,55.144,55.144,0,0,1,1.471-7.951c.932-3.167,5.058-6.534,5.1-6.567a.6.6,0,0,0-.75-.928c-.182.147-4.459,3.638-5.494,7.158a55.52,55.52,0,0,0-1.513,8.162.6.6,0,0,0,.53.656.476.476,0,0,0,.064,0" transform="translate(108.255 -64.319)" fill="#4f332e"/>
        <path id="Caminho_770824" data-name="Caminho 770824" d="M109.424,248.694a.6.6,0,0,0,.592-.534,55.163,55.163,0,0,1,1.471-7.951c.931-3.161,5.059-6.534,5.1-6.567a.6.6,0,0,0-.75-.928c-.182.147-4.459,3.639-5.494,7.158a55.522,55.522,0,0,0-1.513,8.162.6.6,0,0,0,.53.656.615.615,0,0,0,.064,0" transform="translate(121.893 -65.409)" fill="#4f332e"/>
        <path id="Caminho_770825" data-name="Caminho 770825" d="M102.411,252.9a.6.6,0,0,0,.592-.534,55.053,55.053,0,0,1,1.471-7.951c.931-3.161,5.059-6.534,5.1-6.567a.6.6,0,1,0-.75-.928c-.182.147-4.459,3.639-5.494,7.158a55.231,55.231,0,0,0-1.513,8.162.6.6,0,0,0,.53.656.633.633,0,0,0,.064,0" transform="translate(133.945 -66.591)" fill="#4f332e"/>
        <path id="Caminho_770826" data-name="Caminho 770826" d="M80.314,255.762H201.761V253.3a4.653,4.653,0,0,0-4.653-4.653H84.967a4.653,4.653,0,0,0-4.653,4.653Z" transform="translate(57.433 -69.928)"/>
        <path id="Caminho_770827" data-name="Caminho 770827" d="M235.942,253.087H290.1v-1.444a2.734,2.734,0,0,0-2.733-2.733H235.942Z" transform="translate(-142.764 -70.001)" fill="#b4b2c2"/>
        <path id="Caminho_770797" data-name="Caminho 770797" d="M168.782,90.6l14.908,75.578a7.491,7.491,0,0,0,7.352,6.039H318.934a7.474,7.474,0,0,0,4.13-1.229,7.017,7.017,0,0,0,1.039-.847,7.439,7.439,0,0,0,2.2-6.864L311.392,87.695a7.426,7.426,0,0,0-2.292-4.07,6.04,6.04,0,0,0-.942-.728,7.466,7.466,0,0,0-4.119-1.241h-127.9a7.462,7.462,0,0,0-6.529,3.843,5.343,5.343,0,0,0-.537,1.194,7.4,7.4,0,0,0-.287,3.9" transform="translate(-130.734 -22.964)" fill="#b4b2c2"/>
        <path id="Caminho_770816" data-name="Caminho 770816" d="M259.533,232.154H284.6l6.916-50.606H266.449Z" transform="translate(-161.137 -51.057)" fill="#b4b2c2"/>
        <path id="Caminho_770817" data-name="Caminho 770817" d="M256.969,199.868h1.241l3.044-18.679h25.22l-2.6,18.679H285.1l2.686-19.193a.615.615,0,0,0-.609-.681h-26.45a.617.617,0,0,0-.609.5Z" transform="translate(-155.573 -50.62)"/>
        <path id="Caminho_770798" data-name="Caminho 770798" d="M171.9,88.2H305.409a3.944,3.944,0,0,1,3.843,3.139l16.639,81.152a6.977,6.977,0,0,0,1.038-.847L310.422,91.1A5.134,5.134,0,0,0,305.409,87H172.433A5.412,5.412,0,0,0,171.9,88.2" transform="translate(-133.561 -24.468)"/>
        <path id="Caminho_770801" data-name="Caminho 770801" d="M361.585,113.817a.616.616,0,0,0,.12-.012.6.6,0,0,0,.466-.7l-2.835-13.875a.6.6,0,0,0-1.17.239L361,113.34a.6.6,0,0,0,.584.477" transform="translate(-302.693 -27.771)" fill="#4f332e"/>
        <path id="Caminho_770802" data-name="Caminho 770802" d="M354.82,113.817a.617.617,0,0,0,.12-.012.6.6,0,0,0,.466-.7l-2.835-13.875a.6.6,0,0,0-1.17.239l2.835,13.876a.6.6,0,0,0,.584.477" transform="translate(-291.065 -27.771)" fill="#4f332e"/>
        <path id="Caminho_770803" data-name="Caminho 770803" d="M348.054,113.817a.617.617,0,0,0,.12-.012.6.6,0,0,0,.466-.7l-2.835-13.875a.6.6,0,0,0-1.17.239l2.835,13.876a.6.6,0,0,0,.584.477" transform="translate(-279.436 -27.771)" fill="#4f332e"/>
        <path id="Caminho_770804" data-name="Caminho 770804" d="M193.01,88.1a.513.513,0,0,0,.311.107.609.609,0,0,0,.525-.239l2.841-3.855a6.05,6.05,0,0,0-.943-.728l-2.865,3.878a.608.608,0,0,0,.132.836" transform="translate(-18.32 -23.45)"/>
        <path id="Caminho_770828" data-name="Caminho 770828" d="M0,268.241H268.307a.818.818,0,0,0,.9-.694V255.416a.818.818,0,0,0-.9-.694H0Z" transform="translate(47.712 -71.636)" fill="#a64c38"/>
        <path id="Caminho_770829" data-name="Caminho 770829" d="M88.15,248.465s4.078-4.675,5.67-4.675S98,248.465,98,248.465Z" transform="translate(155.565 -68.561)"/>
        <path id="Caminho_770830" data-name="Caminho 770830" d="M202.457,232l2.818,13.535.214,1.015a.6.6,0,0,0,.586.465.5.5,0,0,0,.131-.012.583.583,0,0,0,.453-.7l-.178-.847-3-14.395a14.157,14.157,0,0,0,.155,1.492,3.829,3.829,0,0,0-1.182-.549" transform="translate(-35.271 -64.981)" fill="#4f332e"/>
        <path id="Caminho_770831" data-name="Caminho 770831" d="M192.349,224.689,196.2,243.13l.131.633a.59.59,0,0,0,.585.466.435.435,0,0,0,.119-.012.6.6,0,0,0,.466-.7l-.1-.454L193.458,224.2a5.512,5.512,0,0,0-.214,1.361,4.269,4.269,0,0,0-.9-.871" transform="translate(-18.848 -63.052)" fill="#4f332e"/>
        <path id="Caminho_770832" data-name="Caminho 770832" d="M181.792,223.237l3.319,19.181.239,1.408a.609.609,0,0,0,.584.5c.036,0,.072-.012.108-.012a.614.614,0,0,0,.489-.692l-.215-1.277-3.032-17.474a5.671,5.671,0,0,0-.728.418,5.757,5.757,0,0,0-.764-2.053" transform="translate(-0.282 -62.781)" fill="#4f332e"/>
        <path id="Caminho_770833" data-name="Caminho 770833" d="M40.728,213.135a.6.6,0,0,0,.553-.374l13.925-34.713A.6.6,0,1,0,54.1,177.6L40.175,212.316a.6.6,0,0,0,.553.819" transform="translate(232.827 -49.842)"/>
        <path id="Caminho_770834" data-name="Caminho 770834" d="M54.429,206.062a.6.6,0,0,0,.6-.584l.444-20.584a.6.6,0,0,0-.584-.61.611.611,0,0,0-.61.584l-.443,20.583a.6.6,0,0,0,.584.61Z" transform="translate(222.759 -51.827)"/>
        <path id="Caminho_770805" data-name="Caminho 770805" d="M89.556,109.982a44.559,44.559,0,0,0,25.769,9.585c1.11.06,2.2.095,3.259.095a52.493,52.493,0,0,0,30.771-9.716c-.466-.191-.907-.358-1.325-.525a51.654,51.654,0,0,1-32.633,8.952,43.538,43.538,0,0,1-24.445-8.809c-.454.131-.919.262-1.4.418" transform="translate(103.196 -30.772)"/>
        <rect id="Ret창ngulo_124953" data-name="Ret창ngulo 124953" width="316.921" height="200.65" transform="translate(0 0)" fill="none"/>
        <g id="Grupo_234016" data-name="Grupo 234016" transform="translate(179.214 6.363)">
          <path id="Caminho_770778" data-name="Caminho 770778" d="M67.617,49.162a7.493,7.493,0,0,0-5.1-1.663c-2.981.228-5.117,2.381-7.254,3.768-4.791,3.108-14.574,8.556-20.532,4.052-2.014-1.522-2.2-3.779-4.563-5.136-1.67-.962-5.488-2.438-7.637-1.971-2.034.442-3.658,2.828-4.526,4.2a8.789,8.789,0,0,0-1.481,6.322,9.343,9.343,0,0,0,1.265,2.854c.823,1.451-.128,1.838-.424,3.09a1.394,1.394,0,0,0,.323,1.279,5.487,5.487,0,0,1-3.69-2.732c-.24-.466-1.225-.263-.982.209A6.417,6.417,0,0,0,17.2,66.7c2.975.8,5.945-.511,8.964.342,2.462.7,4.581,1.9,7.263,2.078,3.49.236,6.806-1.039,10.288-.937,1.508.044,2.97.36,4.487.258,1.683-.113,3.231-.712,4.928-.773,1.376-.05,2.733.358,4.111.24,1.61-.138,2.629-.981,4.158-1.3,2.442-.5,4.192.373,6.091-1.369a12.043,12.043,0,0,0,3.174-5.38,9.667,9.667,0,0,0-3.049-10.7" transform="translate(-2.159 -7.9)" fill="#ffe3d1"/>
          <path id="Caminho_770781" data-name="Caminho 770781" d="M62.44,17.362C57.7,10.812,50.038,6.323,42,6.587,16.389,7.429,20.184,39.9,29.246,54.75c1.442,2.363,3.958,4.384,6.2,6.19a20.209,20.209,0,0,0,7.492,4.226c5.4,1.349,9.235-1.3,12.868-4.711a29.584,29.584,0,0,0,4.629-4.813c4.98-7.27,6.471-15.932,5.729-24.443-.287-3.3-2.6-12.277-3.725-13.836" transform="translate(-3.726 -1.094)" fill="#ffa694"/>
          <path id="Caminho_770784" data-name="Caminho 770784" d="M36.723,35.708a3.882,3.882,0,0,0-2.792-1.077A6.47,6.47,0,0,0,30.7,35.737c-.684.461-3.453,2.786-1.189,2.918a4.269,4.269,0,0,0,1.4-.253,16.108,16.108,0,0,1,4.013-.6c.736-.017,1.648-.062,1.977-.578a1.172,1.172,0,0,0-.179-1.515" transform="translate(-1.241 -5.762)" fill="#ffe3d1"/>
          <path id="Caminho_770785" data-name="Caminho 770785" d="M54.975,36.12c.375.524,1.244.441,1.943.353a13.117,13.117,0,0,1,3.871.083,3.507,3.507,0,0,0,1.354.077c2.125-.477-.783-2.652-1.487-3.064a5.414,5.414,0,0,0-3.191-.756,3.6,3.6,0,0,0-2.508,1.6,1.486,1.486,0,0,0,.018,1.706" transform="translate(-9.1 -5.456)" fill="#ffe3d1"/>
          <path id="Caminho_770787" data-name="Caminho 770787" d="M76.062,43.725a7.9,7.9,0,0,0,.775-2.4c.258-2.287-.834-4-1.459-6.134-.725-2.49-.025-5.062-.575-7.566-.45-2.122-1.926-3.494-3.043-5.317s-1.584-3.974-2.609-5.849a27.953,27.953,0,0,0-3.384-4.9c-2.176-2.542-5.2-5.467-8.645-6.876A23.927,23.927,0,0,0,47.91.907c-4.285-.84-10.387-1.68-14.538.36-6.711.165-13.3,4.469-17.989,8.376-2.5,2.077-4.093,4.477-4.235,7.566-.117,2.587.125,4.784-1.492,7.094a31.994,31.994,0,0,0-3.134,4.424,8.386,8.386,0,0,0-.792,4.537c.167,1.53.934,2.647-.292,4.267a21.365,21.365,0,0,1-1.876,1.71c-2.126,2.19-3.893,5-3.51,8,.083.637.367,1.215.492,1.837.25,1.215-.308,2.227-.35,3.382a3.684,3.684,0,0,0,.825,2.67,5.271,5.271,0,0,0,3.309,1.86c.283.045.584.082.884.1.267.022.542.037.817.037a3.457,3.457,0,0,0,.85.322,6.6,6.6,0,0,0,1.792.165c.292,0,.6-.015.892-.015a5.82,5.82,0,0,1,2.509.412,2.751,2.751,0,0,0,.584.232,2.694,2.694,0,0,0,.817.06c1.826-.06,4.043.42,4.752-1.575.2-.562.542-1.89.192-2.46-.05-.09-.142-.157-.192-.255-.233-.525.659-1.087.984-1.365a23.409,23.409,0,0,0,2.209-1.807,3.726,3.726,0,0,0,1.009-2.43,12.327,12.327,0,0,0-.834-3.547c-.6-2.37.3-3.577,1.075-5.7,1.117-3.059-.475-6.494-.759-9.591a35.372,35.372,0,0,1,.3-8.654,4.791,4.791,0,0,0,1.375.09,103.1,103.1,0,0,0,16.047-.8c1.15-.007,3.336-3.518,3.9-4.518,4.188,1.949,4.3,4.126,7.529,5.32.187,0,5.974.813,6.593.669a18.484,18.484,0,0,1,1.369,7.962c-.008,1.762-.517,3.629-.167,5.377.267,1.38,1.184,2.5,1.692,3.809,1.209,3.082-1.242,5.977.05,9.141.892,2.2.7,3.6.408,5.849a4.931,4.931,0,0,0,.65,3.569.513.513,0,0,0,.659.157,9.935,9.935,0,0,0,4.652.7c2.309-.022,7.419.165,8.811-1.95.767-1.155-.125-1.995.917-3.344.767-.975,1.434-1.41,1.659-2.7.417-2.415-1.034-4.447-2.292-6.531" transform="translate(0 0)" fill="#ffe3d1"/>
          <path id="Caminho_770835" data-name="Caminho 770835" d="M.167,3.308C.6,4.842,1.724,5.866,2.685,5.6s1.391-1.732.961-3.265S2.088-.227,1.128.043-.263,1.775.167,3.308" transform="translate(48.646 32.667) rotate(16)"/>
          <path id="Caminho_770839" data-name="Caminho 770839" d="M.167,3.308C.6,4.842,1.724,5.866,2.685,5.6s1.391-1.732.961-3.265S2.088-.227,1.128.043-.263,1.775.167,3.308" transform="translate(31.447 32.667) rotate(16)"/>
          <path id="Caminho_770836" data-name="Caminho 770836" d="M142.065,67.039c.469-.693,1.461.15,1,.838a6.68,6.68,0,0,0-.874,1.5c-.44.95-.387,2.6,1.051,2.5.835-.058.964,1.237.128,1.295a2.576,2.576,0,0,1-2.752-2.366c-.165-1.566.523-2.388,1.452-3.763" transform="translate(-102.353 -28.132)"/>
          <path id="Caminho_770837" data-name="Caminho 770837" d="M123.955,34.456c.065.442,1.117.25,1.221.667,1.86-3.149,4.751-8.725,6.612-11.874.338-.573.676-1.158,1.015-1.731a10.722,10.722,0,0,0-.989-.885c-.43.716-.846,1.444-1.275,2.16" transform="translate(-80.493 -18.641)" fill="#ffa694"/>
          <g id="Grupo_234047" data-name="Grupo 234047" transform="translate(36.071 50.414)">
            <g id="Grupo_234046" data-name="Grupo 234046" transform="translate(0 0)" clip-path="url(#clip-path-2)">
              <path id="Caminho_770841" data-name="Caminho 770841" d="M10.177.14a7.758,7.758,0,0,1-9,.357C.421.018-.471,1.1.291,1.584a9.217,9.217,0,0,0,10.715-.312A.7.7,0,0,0,10.177.14" transform="translate(0 0)"/>
            </g>
          </g>
        </g>
      </g>
    </g>
  </g>
</svg>
