<svg xmlns="http://www.w3.org/2000/svg" xmlns:xlink="http://www.w3.org/1999/xlink" fill="none" version="1.1" width="60" height="60" viewBox="0 0 60 60"><g><g><ellipse cx="30" cy="30" rx="30" ry="30" fill="#FFFFFF" fill-opacity="1"/><ellipse cx="30" cy="30" rx="29" ry="29" fill-opacity="0" stroke-opacity="1" stroke="#242424" fill="none" stroke-width="2"/></g><g><path d="M43.06396135559082,44.53129100646973C43.06396135559082,44.53129100646973,30.87046135559082,32.33779100646973,30.87046135559082,32.33779100646973C30.87046135559082,32.33779100646973,18.67702135559082,44.53129100646973,18.67702135559082,44.53129100646973C18.67702135559082,44.53129100646973,17.73906135559082,43.59329100646973,17.73906135559082,43.59329100646973C17.73906135559082,43.59329100646973,29.93256135559082,31.399791006469727,29.93256135559082,31.399791006469727C29.93256135559082,31.399791006469727,17.73906183242782,18.938351006469727,17.73906183242782,18.938351006469727C17.73906183242782,18.938351006469727,18.67702135559082,18.000391006469727,18.67702135559082,18.000391006469727C18.67702135559082,18.000391006469727,30.87046135559082,30.193891006469727,30.87046135559082,30.193891006469727C30.87046135559082,30.193891006469727,43.06396135559082,18.000391721725727,43.06396135559082,18.000391721725727C43.06396135559082,18.000391721725727,44.00196135559082,18.938351006469727,44.00196135559082,18.938351006469727C44.00196135559082,18.938351006469727,31.808461355590822,31.131791006469726,31.808461355590822,31.131791006469726C31.808461355590822,31.131791006469726,44.00196135559082,43.325291006469726,44.00196135559082,43.325291006469726C44.00196135559082,43.325291006469726,43.06396135559082,44.53129100646973,43.06396135559082,44.53129100646973C43.06396135559082,44.53129100646973,43.06396135559082,44.53129100646973,43.06396135559082,44.53129100646973Z" fill="#000000" fill-opacity="1"/><path d="M43.11096135559082,45.28529100646973L44.39666135559082,43.63229100646973L44.66756135559082,43.28389100646973L32.51556135559082,31.131791006469726L44.70906135559082,18.938351006469727L43.06396135559082,17.293285006469727L30.87046135559082,29.486791006469726L18.67702135559082,17.293284006469726L17.03577735559082,18.934529006469727L29.229261355590822,31.39599100646973L17.03195535559082,43.59329100646973L18.67702035559082,45.238391006469726L30.87046135559082,33.044891006469726L43.11096135559082,45.28529100646973ZM43.33626135559082,43.366791006469725L31.101361355590818,31.131791006469726L43.294861355590825,18.938352006469728L43.06396135559082,18.707499006469728L30.87046135559082,30.900991006469727L18.67702135559082,18.707498006469727L18.44234635559082,18.942173006469726L30.63586135559082,31.403591006469725L18.44616835559082,43.59329100646973L18.67702135559082,43.824191006469725L30.87046135559082,31.630691006469725L43.01706135559082,43.77719100646973L43.33626135559082,43.366791006469725Z" fill-rule="evenodd" fill="#242424" fill-opacity="1"/></g></g></svg>