<svg xmlns="http://www.w3.org/2000/svg" xmlns:xlink="http://www.w3.org/1999/xlink" fill="none" version="1.1" width="160.9736328125" height="157.982421875" viewBox="0 0 160.9736328125 157.982421875"><g><g><g><g><path d="M118.4400013961792,140.34799891662598L122.54000139617919,128.04799891662597L63.7210013961792,128.04799891662597C58.7482013961792,128.04189891662597,54.7181558561792,124.01279891662597,54.7110013961792,119.03999891662598L54.7110013961792,88.21099891662598L59.3980013961792,88.21099891662598L59.3980013961792,119.03999891662598C59.4007613961792,121.42639891662597,61.3346213961792,123.36019891662598,63.7210013961792,123.36299891662597L129.0430013961792,123.36299891662597L126.8940013961792,129.81099891662598L137.6400013961792,123.36199891662598L144.1220013961792,123.36199891662598C146.5081013961792,123.35919891662599,148.4413013961792,121.42509891662598,148.4430013961792,119.03899891662599L148.4430013961792,80.82099891662598C148.4413013961792,78.43415891662598,146.50680139617918,76.49965891662598,144.1200013961792,76.49799891662597L94.5470013961792,76.49799891662597L94.5470013961792,71.81099891662598L144.1200013961792,71.81099891662598C149.0936013961792,71.81706428662598,153.12390139617918,75.84742891662597,153.13000139617918,80.82099891662598L153.13000139617918,119.04299891662598C153.1234013961792,124.01599891662597,149.0930013961792,128.04549891662597,144.1200013961792,128.05099891662599L138.9390013961792,128.05099891662599L118.4400013961792,140.34799891662598Z" fill="#B0FF92" fill-opacity="1" style="mix-blend-mode:passthrough"/></g><g><path d="M104.29300112915038,157.98299960327148L111.65400112915039,135.8949996032715L63.721001129150395,135.8949996032715C54.41658112915039,135.88449960327148,46.87647052915039,128.34439960327148,46.86600112915039,119.03999960327148L46.86600112915039,80.36599960327149L67.24300112915039,80.36599960327149L67.24300112915039,115.51599960327148L140.5990011291504,115.51599960327148L140.5990011291504,84.34299960327148L86.69900112915039,84.34299960327148L86.69900112915039,63.965999603271484L144.1170011291504,63.965999603271484C153.4210011291504,63.976474803271486,160.9620011291504,71.51657960327148,160.97200112915039,80.82099960327149L160.97200112915039,119.04299960327148C160.9610011291504,128.34689960327148,153.4210011291504,135.88609960327148,144.1170011291504,135.8959996032715L141.10900112915039,135.8959996032715L104.29300112915038,157.98299960327148Z" fill="#68FE7F" fill-opacity="1" style="mix-blend-mode:passthrough"/></g></g><g><g><g><path d="M61.74499979019165,54.90900188446045L96.89499979019165,54.90900188446045L96.89499979019165,88.07900188446044C96.88889979019164,93.05260188446044,92.85859979019165,97.08290188446045,87.88499979019166,97.08900188446046L85.17399979019164,97.08900188446046L89.86099979019166,108.80600188446044L68.77099979019165,97.08800188446045L16.85499979019165,97.08800188446045C11.88142979019165,97.08190188446045,7.85106122019165,93.05160188446044,7.84499979019165,88.07800188446045L7.84499979019165,49.85900188446045C7.85106039019165,44.88543188446045,11.88142979019165,40.85506153446045,16.85499979019165,40.84900188446045L57.05499979019165,40.84900188446045L57.05499979019165,50.22200188446045L61.74499979019165,54.90900188446045Z" fill="#68FE7F" fill-opacity="1" style="mix-blend-mode:passthrough"/></g><g><path d="M16.855,33.00400161743164L64.9,33.00400161743164L64.9,46.97300161743164L64.991,47.06400161743164L104.736,47.06400161743164L104.736,88.07800161743164C104.73,94.24960161743164,101.356,99.92560161743164,95.936,102.87800161743164L105.336,126.37800161743164L66.738,104.93400161743165L16.855,104.93400161743165C7.55019,104.92350161743164,0.0099206,97.38280161743164,0,88.07800161743164L0,49.859001617431645C0.0104721,40.55458161743164,7.55058,33.01447201743164,16.855,33.00400161743164ZM49.21,48.69400161743164L16.855,48.69400161743164C16.2152,48.70260161743164,15.6986,49.21920161743164,15.69,49.859001617431645L15.69,88.07800161743164C15.6986,88.71780161743163,16.2152,89.23440161743164,16.855,89.24300161743164L70.8,89.24300161743164L74.378,91.23100161743164L73.578,89.24300161743164L87.881,89.24300161743164C88.5208,89.23440161743164,89.0374,88.71780161743163,89.046,88.07800161743164L89.046,62.75400161743164L58.492,62.75400161743164L49.21,53.472001617431644L49.21,48.69400161743164Z" fill="#68FE7F" fill-opacity="1" style="mix-blend-mode:passthrough"/></g></g></g><g><g><path d="M118.4400013961792,76.38199979019166L122.54000139617919,64.08199979019165L63.7210013961792,64.08199979019165C58.7482013961792,64.07589979019164,54.7181596761792,60.04679979019165,54.7110013961792,55.07399979019165L54.7110013961792,16.85499979019165C54.7170629461792,11.88142979019165,58.7474313961792,7.851060150191651,63.7210013961792,7.84499979019165L144.1210013961792,7.84499979019165C149.09400139617918,7.85161602019165,153.1235013961792,11.88197979019165,153.1290013961792,16.85499979019165L153.1290013961792,55.07699979019165C153.1224013961792,60.04999979019165,149.0920013961792,64.07949979019165,144.11900139617921,64.08499979019166L138.9380013961792,64.08499979019166L118.4400013961792,76.38199979019166ZM63.7210013961792,12.531999790191652C61.3348413961792,12.53530979019165,59.401311396179196,14.468839790191652,59.3980013961792,16.85499979019165L59.3980013961792,55.07699979019165C59.4024113961792,57.462399790191654,61.3356213961792,59.39469979019165,63.7210013961792,59.39799979019165L129.0430013961792,59.39799979019165L126.8940013961792,65.84499979019165L137.6400013961792,59.39599979019165L144.1220013961792,59.39599979019165C146.50780139617922,59.39269979019165,148.4408013961792,57.45879979019165,148.4430013961792,55.07299979019165L148.4430013961792,16.85499979019165C148.4402013961792,14.46861979019165,146.5064013961792,12.53475979019165,144.1200013961792,12.531999790191652L63.7210013961792,12.531999790191652Z" fill="#68FE7F" fill-opacity="1" style="mix-blend-mode:passthrough"/></g><g><path d="M104.29300112915038,94.017L111.65400112915039,71.93L63.721001129150395,71.93C54.41619112915039,71.9195,46.87592124915039,64.3788,46.86600112915039,55.074L46.86600112915039,16.855C46.87647442915039,7.55058,54.41658112915039,0.0104721,63.721001129150395,0L144.1210011291504,0C153.4250011291504,0.011025,160.9640011291504,7.55113,160.9740011291504,16.855L160.9740011291504,55.077C160.96300112915037,64.3805,153.4230011291504,71.9195,144.1200011291504,71.93L141.11200112915037,71.93L104.29300112915038,94.017ZM139.9260011291504,51.553L140.5980011291504,51.553L140.5980011291504,20.377L67.24300112915039,20.377L67.24300112915039,51.553L139.9260011291504,51.553Z" fill="#68FE7F" fill-opacity="1" style="mix-blend-mode:passthrough"/></g></g><g><g><rect x="66.09099817276001" y="22.131999492645264" width="75.83000183105469" height="4.395999908447266" rx="0" fill="#68FE7F" fill-opacity="1" style="mix-blend-mode:passthrough"/></g><g><path d="M58.24599838256836,14.286999702453613L149.76599838256834,14.286999702453613L149.76599838256834,34.37299970245361L58.24599838256836,34.37299970245361L58.24599838256836,14.286999702453613Z" fill="#68FE7F" fill-opacity="1" style="mix-blend-mode:passthrough"/></g></g><g><g><rect x="66.09099817276001" y="30.71500062942505" width="75.83000183105469" height="5.494999885559082" rx="0" fill="#68FE7F" fill-opacity="1" style="mix-blend-mode:passthrough"/></g><g><path d="M58.24599838256836,22.8700008392334L149.76599838256834,22.8700008392334L149.76599838256834,44.0550008392334L58.24599838256836,44.0550008392334L58.24599838256836,22.8700008392334Z" fill="#68FE7F" fill-opacity="1" style="mix-blend-mode:passthrough"/></g></g><g><g><rect x="66.09099817276001" y="41.6809983253479" width="63.74100112915039" height="4.395999908447266" rx="0" fill="#68FE7F" fill-opacity="1" style="mix-blend-mode:passthrough"/></g><g><path d="M58.24599838256836,33.83599853515625L137.67699838256834,33.83599853515625L137.67699838256834,53.92199853515625L58.24599838256836,53.92199853515625L58.24599838256836,33.83599853515625Z" fill="#68FE7F" fill-opacity="1" style="mix-blend-mode:passthrough"/></g></g><g><g><rect x="136.4259934425354" y="41.6809983253479" width="5.494999885559082" height="4.395999908447266" rx="0" fill="#68FE7F" fill-opacity="1" style="mix-blend-mode:passthrough"/></g><g><path d="M128.58099365234375,33.83599853515625L149.76599365234375,33.83599853515625L149.76599365234375,53.92199853515625L128.58099365234375,53.92199853515625L128.58099365234375,33.83599853515625Z" fill="#68FE7F" fill-opacity="1" style="mix-blend-mode:passthrough"/></g></g><g><g><rect x="19.93399953842163" y="56.6080002784729" width="29.67300033569336" height="4.395999908447266" rx="0" fill="#FFF44F" fill-opacity="1" style="mix-blend-mode:passthrough"/></g><g><path d="M12.08899974822998,48.76300048828125L57.45199974822998,48.76300048828125L57.45199974822998,68.84900048828125L12.08899974822998,68.84900048828125L12.08899974822998,48.76300048828125Z" fill="#FFF44F" fill-opacity="1" style="mix-blend-mode:passthrough"/></g></g><g><g><rect x="19.93399953842163" y="67.5549988746643" width="64.83999633789062" height="4.395999908447266" rx="0" fill="#FFF44F" fill-opacity="1" style="mix-blend-mode:passthrough"/></g><g><path d="M12.08899974822998,59.709999084472656L92.61899974822998,59.709999084472656L92.61899974822998,79.79599908447265L12.08899974822998,79.79599908447265L12.08899974822998,59.709999084472656Z" fill="#FFF44F" fill-opacity="1" style="mix-blend-mode:passthrough"/></g></g><g><g><rect x="19.93399953842163" y="77.45000314712524" width="53.849998474121094" height="5.494999885559082" rx="0" fill="#FFF44F" fill-opacity="1" style="mix-blend-mode:passthrough"/></g><g><path d="M12.08899974822998,69.6050033569336L81.62899974822999,69.6050033569336L81.62899974822999,90.7900033569336L12.08899974822998,90.7900033569336L12.08899974822998,69.6050033569336Z" fill="#FFF44F" fill-opacity="1" style="mix-blend-mode:passthrough"/></g></g><g><g><rect x="80.3779969215393" y="77.45000314712524" width="4.395999908447266" height="5.494999885559082" rx="0" fill="#874FFF" fill-opacity="1" style="mix-blend-mode:passthrough"/></g><g><path d="M72.53299713134766,69.6050033569336L92.61899713134765,69.6050033569336L92.61899713134765,90.7900033569336L72.53299713134766,90.7900033569336L72.53299713134766,69.6050033569336Z" fill="#FFF44F" fill-opacity="1" style="mix-blend-mode:passthrough"/></g></g><g><g><rect x="103.4569993019104" y="90.44499826431274" width="38.4640007019043" height="4.395999908447266" rx="0" fill="#68FE7F" fill-opacity="1" style="mix-blend-mode:passthrough"/></g><g><path d="M95.61199951171875,82.5999984741211L149.76699951171875,82.5999984741211L149.76699951171875,102.68599847412109L95.61199951171875,102.68599847412109L95.61199951171875,82.5999984741211Z" fill="#68FE7F" fill-opacity="1" style="mix-blend-mode:passthrough"/></g></g><g><g><rect x="96.86299753189087" y="101.39199686050415" width="45.05799865722656" height="4.395999908447266" rx="0" fill="#68FE7F" fill-opacity="1" style="mix-blend-mode:passthrough"/></g><g><path d="M89.01799774169922,93.5469970703125L149.7659977416992,93.5469970703125L149.7659977416992,113.6329970703125L89.01799774169922,113.6329970703125L89.01799774169922,93.5469970703125Z" fill="#68FE7F" fill-opacity="1" style="mix-blend-mode:passthrough"/></g></g><g><g><rect x="66.09099817276001" y="111.2590012550354" width="63.74100112915039" height="5.494999885559082" rx="0" fill="#68FE7F" fill-opacity="1" style="mix-blend-mode:passthrough"/></g><g><path d="M58.24599838256836,103.41400146484375L137.67699838256834,103.41400146484375L137.67699838256834,124.59900146484375L58.24599838256836,124.59900146484375L58.24599838256836,103.41400146484375Z" fill="#68FE7F" fill-opacity="1" style="mix-blend-mode:passthrough"/></g></g><g><g><rect x="136.4259934425354" y="111.2590012550354" width="5.494999885559082" height="5.494999885559082" rx="0" fill="#68FE7F" fill-opacity="1" style="mix-blend-mode:passthrough"/></g><g><path d="M128.58099365234375,103.41400146484375L149.76599365234375,103.41400146484375L149.76599365234375,124.59900146484375L128.58099365234375,124.59900146484375L128.58099365234375,103.41400146484375Z" fill="#68FE7F" fill-opacity="1" style="mix-blend-mode:passthrough"/></g></g></g><g><g><g><path d="M118.43998709106445,140.3479703063965L122.53998709106445,128.04797030639648L63.72098709106445,128.04797030639648C58.74818709106445,128.04187030639648,54.718141551064456,124.01277030639648,54.71098709106445,119.03997030639648L54.71098709106445,88.21097030639649L59.39798709106445,88.21097030639649L59.39798709106445,119.03997030639648C59.40074709106445,121.42637030639648,61.334607091064456,123.36017030639648,63.72098709106445,123.36297030639648L129.04298709106445,123.36297030639648L126.89398709106446,129.81097030639648L137.63998709106446,123.36197030639649L144.12198709106445,123.36197030639649C146.50808709106445,123.35917030639649,148.44128709106445,121.42507030639649,148.44298709106445,119.0389703063965L148.44298709106445,80.82097030639649C148.44128709106445,78.43413030639648,146.50678709106444,76.49963030639648,144.11998709106444,76.49797030639648L94.54698709106445,76.49797030639648L94.54698709106445,71.81097030639648L144.11998709106444,71.81097030639648C149.09358709106445,71.81703567639649,153.12388709106443,75.84740030639648,153.12998709106444,80.82097030639649L153.12998709106444,119.04297030639648C153.12338709106444,124.01597030639648,149.09298709106446,128.04547030639648,144.11998709106444,128.0509703063965L138.93898709106446,128.0509703063965L118.43998709106445,140.3479703063965Z" fill="#5C2D25" fill-opacity="1" style="mix-blend-mode:passthrough"/></g></g><g><g><g><path d="M61.74498596191406,54.90897232055664L96.89498596191406,54.90897232055664L96.89498596191406,88.07897232055663C96.88888596191406,93.05257232055664,92.85858596191406,97.08287232055665,87.88498596191407,97.08897232055665L85.17398596191406,97.08897232055665L89.86098596191407,108.80597232055663L68.77098596191406,97.08797232055664L16.85498596191406,97.08797232055664C11.881415961914062,97.08187232055664,7.851047391914062,93.05157232055663,7.8449859619140625,88.07797232055664L7.8449859619140625,49.85897232055664C7.851046561914062,44.88540232055664,11.881415961914062,40.85503197055664,16.85498596191406,40.84897232055664L57.05498596191406,40.84897232055664L57.05498596191406,50.22197232055664L61.74498596191406,54.90897232055664Z" fill="#5C2D25" fill-opacity="1" style="mix-blend-mode:passthrough"/></g></g></g><g><g><path d="M118.43998709106445,76.381970703125L122.53998709106445,64.081970703125L63.72098709106445,64.081970703125C58.74818709106445,64.07587070312499,54.71814537106445,60.046770703125,54.71098709106445,55.073970703125L54.71098709106445,16.854970703124998C54.71704864106445,11.881400703125,58.747417091064456,7.851031063125,63.72098709106445,7.844970703125L144.12098709106445,7.844970703125C149.09398709106443,7.851586933125,153.12348709106445,11.881950703125,153.12898709106446,16.854970703124998L153.12898709106446,55.076970703125C153.12238709106447,60.049970703125,149.09198709106445,64.079470703125,144.11898709106447,64.08497070312501L138.93798709106446,64.08497070312501L118.43998709106445,76.381970703125ZM63.72098709106445,12.531970703125001C61.334827091064454,12.535280703125,59.40129709106445,14.468810703125001,59.39798709106445,16.854970703124998L59.39798709106445,55.076970703125C59.40239709106445,57.462370703125,61.33560709106445,59.394670703125,63.72098709106445,59.397970703125L129.04298709106445,59.397970703125L126.89398709106446,65.844970703125L137.63998709106446,59.395970703125L144.12198709106445,59.395970703125C146.50778709106447,59.392670703125,148.44078709106446,57.458770703125,148.44298709106445,55.072970703125L148.44298709106445,16.854970703124998C148.44018709106444,14.468590703124999,146.50638709106445,12.534730703125,144.11998709106444,12.531970703125001L63.72098709106445,12.531970703125001Z" fill="#5C2D25" fill-opacity="1" style="mix-blend-mode:passthrough"/></g></g><g><g><rect x="66.09098434448242" y="22.131970405578613" width="75.83000183105469" height="4.395999908447266" rx="0" fill="#5C2D25" fill-opacity="1" style="mix-blend-mode:passthrough"/></g></g><g><g><rect x="66.09098434448242" y="30.7149715423584" width="75.83000183105469" height="5.494999885559082" rx="0" fill="#5C2D25" fill-opacity="1" style="mix-blend-mode:passthrough"/></g></g><g><g><rect x="66.09098434448242" y="41.68096923828125" width="63.74100112915039" height="4.395999908447266" rx="0" fill="#5C2D25" fill-opacity="1" style="mix-blend-mode:passthrough"/></g></g><g><g><rect x="136.4259796142578" y="41.68096923828125" width="5.494999885559082" height="4.395999908447266" rx="0" fill="#5C2D25" fill-opacity="1" style="mix-blend-mode:passthrough"/></g></g><g><g><rect x="19.933985710144043" y="56.60797119140625" width="29.67300033569336" height="4.395999908447266" rx="0" fill="#68FE7F" fill-opacity="1" style="mix-blend-mode:passthrough"/></g></g><g><g><rect x="19.933985710144043" y="67.55496978759766" width="64.83999633789062" height="4.395999908447266" rx="0" fill="#68FE7F" fill-opacity="1" style="mix-blend-mode:passthrough"/></g></g><g><g><rect x="19.933985710144043" y="77.4499740600586" width="53.849998474121094" height="5.494999885559082" rx="0" fill="#68FE7F" fill-opacity="1" style="mix-blend-mode:passthrough"/></g></g><g><g><rect x="80.37798309326172" y="77.4499740600586" width="4.395999908447266" height="5.494999885559082" rx="0" fill="#5C2D25" fill-opacity="1" style="mix-blend-mode:passthrough"/></g></g><g><g><rect x="103.45698547363281" y="90.4449691772461" width="38.4640007019043" height="4.395999908447266" rx="0" fill="#5C2D25" fill-opacity="1" style="mix-blend-mode:passthrough"/></g></g><g><g><rect x="96.86298370361328" y="101.3919677734375" width="45.05799865722656" height="4.395999908447266" rx="0" fill="#5C2D25" fill-opacity="1" style="mix-blend-mode:passthrough"/></g></g><g><g><rect x="66.09098434448242" y="111.25897216796875" width="63.74100112915039" height="5.494999885559082" rx="0" fill="#5C2D25" fill-opacity="1" style="mix-blend-mode:passthrough"/></g></g><g><g><rect x="136.4259796142578" y="111.25897216796875" width="5.494999885559082" height="5.494999885559082" rx="0" fill="#5C2D25" fill-opacity="1" style="mix-blend-mode:passthrough"/></g></g></g></g></svg>