<svg xmlns="http://www.w3.org/2000/svg" xmlns:xlink="http://www.w3.org/1999/xlink" fill="none" version="1.1" width="320" height="424" viewBox="0 0 320 424"><g><g><path d="M0,0C0,0,320,0,320,0C320,0,320,424,320,424C320,424,0,424,0,424C0,424,0,0,0,0C0,0,0,0,0,0Z" fill="#40BBFF" fill-opacity="1" style="mix-blend-mode:passthrough"/></g><g><g><path d="M189.79876616210936,176.35452749023437Q189.79876616210936,176.0254274902344,189.71356616210937,175.70752749023438Q189.62846616210936,175.38962749023437,189.46386616210938,175.10452749023437L162.16396616210938,127.81943749023438Q162.04086616210938,127.60619749023438,161.87856616210937,127.42106749023438Q161.71616616210937,127.23594749023438,161.52086616210937,127.08604749023438Q161.32546616210936,126.93615749023438,161.10466616210937,126.82724749023437Q160.88386616210937,126.71834749023438,160.64596616210937,126.65461749023437Q160.40816616210938,126.59088749023438,160.16246616210938,126.57477749023437Q159.91676616210938,126.55867749023437,159.67266616210938,126.59081749023437Q159.42846616210937,126.62295749023437,159.19536616210937,126.70209749023438Q158.96216616210938,126.78124749023438,158.74896616210938,126.90435749023437Q158.46386616210938,127.06892749023437,158.2311661621094,127.30165749023438Q157.99846616210937,127.53439749023437,157.83386616210936,127.81943749023438L130.53399616210936,175.10452749023437Q130.47258616210937,175.21092749023438,130.42190616210937,175.32282749023437Q130.37121616210936,175.4346274902344,130.33173616210937,175.55092749023436Q130.29225616210937,175.66722749023438,130.2643761621094,175.78682749023437Q130.23648616210937,175.90642749023436,130.22045616210937,176.02822749023437Q130.20442616210937,176.15002749023438,130.20040616210937,176.2727274902344Q130.19638616210938,176.39552749023437,130.20441616210937,176.51802749023437Q130.21245616210936,176.64062749023438,130.23245616210937,176.76182749023437Q130.25246616210939,176.88292749023438,130.2842561621094,177.00162749023437Q130.3160461621094,177.12022749023438,130.35930616210936,177.2351274902344Q130.40256616210937,177.35012749023437,130.45688616210938,177.4602274902344Q130.51120616210937,177.57042749023438,130.57606616210938,177.67472749023437Q130.64092616210937,177.77902749023437,130.71568616210936,177.8764274902344Q130.79045616210936,177.97392749023436,130.87441616210938,178.06352749023438Q130.95836616210937,178.15322749023437,131.05070616210938,178.23412749023439Q131.14304616210939,178.31512749023437,131.24287616210938,178.38672749023436Q131.34270616210938,178.45822749023438,131.44907616210938,178.51962749023437Q131.73410816210938,178.68422749023438,132.05202216210938,178.7693274902344Q132.36993716210938,178.85452749023437,132.69906616210938,178.85452749023437L187.29876616210936,178.85452749023437Q187.42166616210937,178.85452749023437,187.54386616210937,178.84252749023437Q187.66606616210936,178.83042749023437,187.78656616210938,178.80652749023437Q187.90696616210937,178.78252749023437,188.02446616210938,178.74692749023438Q188.14206616210936,178.71122749023436,188.25546616210937,178.66422749023437Q188.36896616210936,178.61722749023437,188.47726616210937,178.55932749023438Q188.5855661621094,178.5014274902344,188.68776616210937,178.43322749023437Q188.78986616210938,178.36502749023438,188.88476616210937,178.28712749023438Q188.97976616210937,178.20912749023438,189.06656616210938,178.12232749023437Q189.15336616210936,178.03542749023438,189.23136616210937,177.9405274902344Q189.30926616210937,177.8456274902344,189.37746616210939,177.74342749023438Q189.44566616210938,177.64132749023437,189.50356616210937,177.53302749023436Q189.56146616210938,177.42472749023437,189.60846616210938,177.3112274902344Q189.65546616210938,177.19782749023437,189.69116616210937,177.0802274902344Q189.72676616210939,176.96272749023439,189.75076616210936,176.84232749023437Q189.77476616210936,176.72182749023438,189.78676616210936,176.59962749023438Q189.79876616210936,176.47732749023436,189.79876616210936,176.35452749023437ZM182.96866616210937,173.85452749023437L159.99896616210938,134.06945749023438L137.02917616210937,173.85452749023437L182.96866616210937,173.85452749023437Z" fill-rule="evenodd" fill="#0024A9" fill-opacity="1" style="mix-blend-mode:passthrough"/></g><g><path d="M94.47185126953124,240.0665283203125Q94.30795126953126,240.0665283203125,94.14555126953125,240.0879183203125Q93.98305126953124,240.1093083203125,93.82485126953125,240.1517183203125Q93.66655126953125,240.1941283203125,93.51515126953124,240.2568383203125Q93.36375126953125,240.3195383203125,93.22185126953124,240.4014783203125Q93.07995126953125,240.4834083203125,92.94995126953125,240.5831583203125Q92.81995126953124,240.6829183203125,92.70405126953125,240.7987783203125Q92.58825126953124,240.9146483203125,92.48845126953125,241.0446483203125Q92.38875126953126,241.1746583203125,92.30675126953125,241.3165583203125L74.19997126953125,272.6796283203125Q74.13856126953125,272.7860283203125,74.08787126953125,272.8978283203125Q74.03719126953125,273.0097283203125,73.99771126953125,273.1260283203125Q73.95824126953124,273.2423283203125,73.93035126953124,273.3619283203125Q73.90246126953124,273.4815283203125,73.88643126953124,273.60332832031247Q73.87040126953124,273.7251283203125,73.86639126953125,273.8478283203125Q73.86237126953125,273.97062832031247,73.87041126953125,274.0931283203125Q73.87844126953125,274.2157283203125,73.89845126953125,274.3368283203125Q73.91846126953125,274.4580283203125,73.95025126953125,274.5767283203125Q73.98204126953125,274.6953283203125,74.02530126953125,274.8102283203125Q74.06856126953124,274.9252283203125,74.12289126953125,275.0353283203125Q74.17721126953126,275.1455283203125,74.24207126953125,275.24982832031253Q74.30692126953124,275.3541283203125,74.38169126953125,275.4515283203125Q74.45646126953125,275.5489283203125,74.54042126953125,275.6386283203125Q74.62438126953126,275.7282283203125,74.71672126953125,275.8092283203125Q74.80906126953126,275.89022832031253,74.90889126953125,275.9617283203125Q75.00872126953125,276.0332283203125,75.11508126953125,276.09472832031247Q75.40011526953126,276.2592283203125,75.71802226953125,276.3444283203125Q76.03593026953125,276.42962832031253,76.36505126953125,276.42962832031253L243.63505126953126,276.42962832031253Q243.75805126953125,276.42962832031253,243.88005126953124,276.4175283203125Q244.00205126953125,276.4055283203125,244.12305126953126,276.3815283203125Q244.24305126953124,276.35762832031253,244.36105126953126,276.3219283203125Q244.47805126953125,276.2863283203125,244.59205126953125,276.2393283203125Q244.70505126953125,276.1923283203125,244.81305126953126,276.1344283203125Q244.92205126953124,276.0765283203125,245.02405126953124,276.00822832031247Q245.12605126953125,275.9400283203125,245.22105126953124,275.8621283203125Q245.31605126953124,275.7842283203125,245.40305126953126,275.6973283203125Q245.48905126953125,275.6105283203125,245.56705126953125,275.5156283203125Q245.64505126953125,275.4206283203125,245.71405126953124,275.3185283203125Q245.78205126953125,275.2164283203125,245.84005126953124,275.1081283203125Q245.89805126953124,274.9997283203125,245.94505126953126,274.8863283203125Q245.99205126953126,274.7728283203125,246.02705126953126,274.6553283203125Q246.06305126953126,274.5378283203125,246.08705126953126,274.4173283203125Q246.11105126953126,274.2968283203125,246.12305126953126,274.1746283203125Q246.13505126953126,274.0524283203125,246.13505126953126,273.9296283203125Q246.13505126953126,273.6004283203125,246.05005126953125,273.2825283203125Q245.96505126953124,272.9646283203125,245.80005126953125,272.6796283203125L227.69305126953125,241.3165483203125Q227.61105126953126,241.1746483203125,227.51105126953124,241.0446483203125Q227.41205126953125,240.9146483203125,227.29605126953126,240.7987783203125Q227.18005126953125,240.6829083203125,227.05005126953125,240.5831583203125Q226.92005126953126,240.4833983203125,226.77805126953126,240.4014683203125Q226.63605126953124,240.3195383203125,226.48505126953125,240.2568383203125Q226.33305126953124,240.1941283203125,226.17505126953125,240.1517183203125Q226.01705126953124,240.1093083203125,225.85405126953125,240.0879183203125Q225.69205126953125,240.0665283203125,225.52805126953126,240.0665283203125L94.47185126953124,240.0665283203125ZM95.91525126953125,245.0665283203125L80.69510126953125,271.4296283203125L239.30505126953125,271.4296283203125L224.08405126953124,245.0665283203125L95.91525126953125,245.0665283203125Z" fill-rule="evenodd" fill="#0024A9" fill-opacity="1" style="mix-blend-mode:passthrough"/></g><g><path d="M199.52504345703124,192.529326875Q199.44314345703125,192.387416875,199.34334345703127,192.257416875Q199.24364345703125,192.127416875,199.12774345703124,192.011546875Q199.01194345703124,191.895676875,198.88194345703124,191.795926875Q198.75194345703125,191.696176875,198.61004345703125,191.614236875Q198.46814345703126,191.532306875,198.31674345703124,191.469606875Q198.16534345703127,191.406896875,198.00704345703124,191.364486875Q197.84874345703125,191.322076875,197.68634345703126,191.300686875Q197.52384345703126,191.279296875,197.35994345703125,191.279296875L122.63914345703125,191.279296875Q122.47534345703124,191.279296875,122.31284345703125,191.300686875Q122.15034345703125,191.322076875,121.99214345703125,191.364486875Q121.83384345703125,191.406896875,121.68244345703125,191.469596875Q121.53104345703125,191.532306875,121.38914345703125,191.614236875Q121.24724345703125,191.696166875,121.11724345703125,191.795926875Q120.98724345703125,191.895676875,120.87134345703126,192.011536875Q120.75554345703125,192.127406875,120.65574345703125,192.257406875Q120.55604345703125,192.387406875,120.47404345703126,192.529316875L102.36697345703125,223.892396875Q102.24385345703125,224.105696875,102.16471345703125,224.338796875Q102.08556345703126,224.571996875,102.05342345703124,224.816096875Q102.02129345703125,225.060196875,102.03739345703124,225.305896875Q102.05350345703125,225.551596875,102.11723345703125,225.789496875Q102.18096345703125,226.027296875,102.28987345703125,226.248096875Q102.39877345703125,226.46899687500002,102.54867345703126,226.664296875Q102.69857345703124,226.859696875,102.88369345703126,227.021996875Q103.06882345703124,227.184396875,103.28206345703126,227.307496875Q103.56709545703124,227.471996875,103.88500645703125,227.557196875Q104.20291845703125,227.642396875,104.53204345703125,227.642396875L215.46704345703125,227.642396875Q215.59004345703124,227.642396875,215.71204345703126,227.630396875Q215.83404345703127,227.618296875,215.95504345703125,227.594396875Q216.07504345703126,227.570396875,216.19304345703125,227.534696875Q216.31004345703127,227.499096875,216.42404345703125,227.452096875Q216.53704345703125,227.405096875,216.64504345703125,227.347196875Q216.75404345703123,227.289296875,216.85604345703126,227.221096875Q216.95804345703124,227.152796875,217.05304345703127,227.074896875Q217.14804345703124,226.996996875,217.23504345703125,226.910196875Q217.32104345703124,226.82329687499998,217.39904345703127,226.728396875Q217.47704345703124,226.63339687500002,217.54604345703126,226.531296875Q217.61404345703124,226.429196875,217.67204345703124,226.32089687500002Q217.73004345703123,226.212596875,217.77704345703125,226.099096875Q217.82404345703125,225.985596875,217.85904345703125,225.868096875Q217.89504345703125,225.75059687499999,217.91904345703125,225.630096875Q217.94304345703125,225.509696875,217.95504345703125,225.387396875Q217.96704345703125,225.26519687500002,217.96704345703125,225.142396875Q217.96704345703125,224.813296875,217.88204345703124,224.495396875Q217.79704345703124,224.177496875,217.63204345703124,223.892396875L199.52504345703124,192.529326875ZM195.91654345703125,196.279296875L124.08254345703125,196.279296875L108.86212345703125,222.642396875L211.13704345703127,222.642396875L195.91654345703125,196.279296875Z" fill-rule="evenodd" fill="#0024A9" fill-opacity="1" style="mix-blend-mode:passthrough"/></g></g></g></svg>