<svg xmlns="http://www.w3.org/2000/svg" xmlns:xlink="http://www.w3.org/1999/xlink" fill="none" version="1.1" width="400" height="320" viewBox="0 0 400 320"><defs><mask id="master_svg0_1_08279" style="mask-type:alpha" maskUnits="objectBoundingBox"><g><g><rect x="119.5654296875" y="5.880859375" width="183.0019989013672" height="291.7139892578125" rx="0" fill="#000000" fill-opacity="1" style="mix-blend-mode:passthrough"/></g></g></mask></defs><g><g><g style="opacity:0.5;"><path d="M0,0L400,0L400,320L0,320L0,0Z" fill="#FF90E8" fill-opacity="1" style="mix-blend-mode:passthrough"/></g></g><g><g mask="url(#master_svg0_1_08279)"><g><g><path d="M231.27147939453124,290.74684921875C231.22447939453124,290.05684921875,231.14347939453125,289.36984921875,231.07137939453125,288.68084921875C230.99937939453125,287.99184921875,231.03537939453125,287.27384921875,230.91537939453124,286.58084921875C230.87007939453125,286.23594921875,230.75587939453123,285.90364921875,230.57937939453126,285.60384921875C230.18027939453125,285.34084921875,229.70657939453125,285.21414921875,229.22937939453124,285.24284921875C229.15507939453124,285.24804921875,229.08767939453125,285.19914921875,229.06937939453127,285.12684921875C228.89237939453125,284.29684921875,228.74937939453125,283.45684921875,228.52737939453124,282.63684921875C228.38127939453125,282.03144921875,228.13877939453124,281.45344921875,227.80947939453125,280.92484921875C227.43957939453125,280.38054921875,226.93667939453124,279.93994921875003,226.34847939453124,279.64484921875C225.51357939453123,279.28494921875,224.65447939453125,278.98414921875,223.77737939453124,278.74484921875C223.25127939453125,278.56394921875,222.74007939453125,278.34224921875,222.24837939453124,278.08174921875C221.53047939453126,277.83384921875,220.83247939453125,277.52384921875,220.13537939453124,277.22974921875C218.05837939453124,276.35474921875,215.93537939453125,275.54274921875,213.92037939453124,274.52974921875C213.27597939453125,274.21284921875,212.65127939453126,273.85754921875,212.04937939453126,273.46574921875C210.79357939453126,272.63154921875,209.92197939453126,271.33134921875,209.62737939453126,269.85274921875L206.57337939453126,245.23278921874999C205.75637939453125,241.17077921875,201.40337939453124,237.99877921875,197.24741939453125,239.03277621875C193.00571939453124,239.96276921875,190.26385539453125,244.08666921875,191.04742439453125,248.35778921874999L194.46941939453126,274.80574921875C194.63096939453126,275.60984921875,194.59838939453124,276.44084921875003,194.37441939453126,277.22974921875L194.02640939453124,278.45674921875C193.23914939453124,280.63984921875,192.81223939453125,282.93654921875,192.76240939453126,285.25674921875C192.14377939453124,285.44824921875,191.65814239453124,285.93044921875,191.46240239453124,286.54774921875C191.33892839453125,287.64234921875,191.38819839453126,288.74954921875,191.60839839453126,289.82874921875C191.71640039453126,291.24274921875,191.80839539453126,292.65884921875,191.90840139453124,294.07284921875C192.03039939453126,295.79774921875,192.75739939453126,296.12384921875,194.17440939453124,296.12384921875L203.10237939453125,296.12384921875C205.93837939453124,296.12384921875,205.49237939453124,295.46584921875,205.59337939453124,294.06784921875C205.63197939453124,293.00474921875,205.74117939453126,291.94534921875,205.92037939453124,290.89674921875C206.03137939453126,290.27584921875,206.29237939453125,289.48484921875,206.90837939453124,289.48574921875C207.35577939453125,289.46604921875,207.77117939453126,289.71734921875,207.96137939453126,290.12284921875C208.50917939453126,291.22844921875003,208.82467939453124,292.43454921875,208.88837939453126,293.66684921875003C208.92037939453124,294.09684921875,208.97937939453124,294.52284921875,209.04037939453124,294.94874921875C209.03147939453126,295.40084921875,209.32717939453124,295.80264921875,209.76137939453125,295.92874921875C210.34137939453126,296.08274921875,223.67737939453124,295.63374921875,230.27537939453126,295.55574921875C230.48477939453124,295.51704921875,230.69097939453124,295.46294921875,230.89237939453125,295.39374921875003C230.96587939453124,295.31204921875,231.03017939453125,295.22244921875,231.08437939453125,295.12674921875C231.28097939453124,294.86984921875,231.37467939453126,294.54904921875,231.34737939453126,294.22674921875C231.38627939453124,293.07004921875,231.35927939453126,291.91224921875,231.26637939453124,290.75874921875" fill="#332033" fill-opacity="1" style="mix-blend-mode:passthrough"/></g><g><path d="M193.29443399804688,285.46484498046874C197.87343299804687,285.87683498046874,202.41443299804686,284.95184298046877,206.97847299804687,284.7648319804687C209.29737299804688,284.70159898046876,211.61727299804687,284.84283398046875,213.91147299804686,285.18682898046876C216.18847299804688,285.49383498046876,218.4644729980469,285.7418249804688,220.76147299804688,285.8258049804688C223.37787299804688,285.92004498046873,225.99757299804688,285.84051498046875,228.60347299804687,285.5878249804687C228.90347299804688,285.55883498046876,228.90347299804688,285.08782998046877,228.60347299804687,285.11285398046874C223.98287299804687,285.54614498046874,219.32787299804687,285.4484849804688,214.72947299804687,284.82183798046873C212.44957299804688,284.46154798046877,210.14557299804687,284.2750243804688,207.83747299804688,284.26385498046875C205.55647299804687,284.30688478046875,203.28747299804687,284.56384298046873,201.01846299804689,284.78582798046875C198.45523299804688,285.09191898046873,195.86908299804688,285.15887498046874,193.29345699804688,284.98583998046877C192.99345399804687,284.9588619804687,192.99345399804687,285.43383498046876,193.29443399804688,285.46484498046874Z" fill="#695A6E" fill-opacity="1" style="mix-blend-mode:passthrough"/></g><g><path d="M196.19943237304688,288.91986066015625L196.2724303730469,292.32488666015627C196.2021484330469,293.38451666015624,196.28227237304688,294.44872666015624,196.51043737304687,295.48589666015624C196.60343937304688,295.77587666015626,197.06243937304689,295.65191666015625,196.9684293730469,295.35992666015625C196.83224437304688,294.86913666015624,196.76857037304688,294.3610866601563,196.77943437304688,293.85192666015627Q196.76043737304687,293.02990666015626,196.74343837304687,292.20794666015627L196.67243937304687,288.91992166015626C196.66435237304688,288.79473876015624,196.56044037304687,288.69732666015625,196.43495137304689,288.69732666015625C196.30946337304687,288.69732666015625,196.2055206330469,288.79473876015624,196.19943237304688,288.91986066015625Z" fill="#695A6E" fill-opacity="1" style="mix-blend-mode:passthrough"/></g><g><path d="M201.53842160117188,288.9188840273437Q201.47842410117187,292.16589802734376,201.46041870117188,295.41888802734377C201.46850586117188,295.54412802734373,201.57244870117188,295.6415980273438,201.69793670117187,295.6415980273438C201.82342570117189,295.6415980273438,201.92733770117187,295.54412802734373,201.93542470117188,295.41888802734377Q201.95242270117188,292.17089802734375,202.01342770117188,288.9188840273437C202.0053407011719,288.79364012734374,201.90142870117188,288.69622802734375,201.77593970117186,288.69622802734375C201.65045170117187,288.69622802734375,201.54650880117188,288.79364012734374,201.53842160117188,288.9188840273437Z" fill="#695A6E" fill-opacity="1" style="mix-blend-mode:passthrough"/></g><g><path d="M213.3404388861328,288.7608640078125Q213.29542538613282,292.1128580078125,213.3254241861328,295.4668580078125C213.3335113861328,295.5920980078125,213.4374537861328,295.6895780078125,213.56294278613282,295.6895780078125C213.6884307861328,295.6895780078125,213.79234278613282,295.5920980078125,213.8004307861328,295.4668580078125Q213.7704317861328,292.1138280078125,213.81544478613282,288.7608640078125C213.80735778613283,288.6356201078125,213.70344578613282,288.5382080078125,213.5779567861328,288.5382080078125C213.4524687861328,288.5382080078125,213.3485259861328,288.6356201078125,213.3404388861328,288.7608640078125Z" fill="#695A6E" fill-opacity="1" style="mix-blend-mode:passthrough"/></g><g><path d="M218.42843627929688,288.6558835390625Q218.4674377792969,291.9558675390625,218.50543207929687,295.2558575390625C218.51364137929687,295.3810375390625,218.61752327929688,295.4783275390625,218.74292027929687,295.4783275390625C218.86831627929686,295.4783275390625,218.97222927929687,295.3810375390625,218.98043827929686,295.2558575390625Q218.94143627929688,291.9558675390625,218.90344227929688,288.6558835390625C218.89535527929687,288.5306396390625,218.79141227929688,288.4332275390625,218.6659242792969,288.4332275390625C218.54043627929687,288.4332275390625,218.43652343929688,288.5306396390625,218.42843627929688,288.6558835390625Z" fill="#695A6E" fill-opacity="1" style="mix-blend-mode:passthrough"/></g><g><path d="M223.35041809099218,288.49786395703126Q223.3454132119922,290.38788095703126,223.3874053919922,292.27685095703123Q223.40840149199218,293.22186095703125,223.44239809199217,294.16583095703123C223.4299773919922,294.46277095703124,223.44334409199217,294.76025095703125,223.4824062919922,295.05481095703124C223.5005642919922,295.22076095703125,223.6436002919922,295.3446009570313,223.8104092919922,295.3388109570312C224.1103972919922,295.32880095703126,224.1164092919922,294.85278095703126,223.8104092919922,294.86383095703127L223.76341229199218,294.86383095703127L223.9683992919922,294.98181095703126C223.89738429199218,294.88879095703123,223.9344022919922,294.6308009570312,223.93040429199218,294.51880095703126C223.92640729199218,294.40680095703124,223.9214022919922,294.28277095703123,223.9174042919922,294.16479095703124Q223.9023892919922,293.7517709570312,223.89039629199218,293.3388109570312Q223.8664092919922,292.53882095703125,223.8513942919922,291.74481095703123Q223.8203892919922,290.12183095703125,223.82539329199219,288.49682595703126C223.8173062919922,288.37164305703124,223.7133942919922,288.27423095703125,223.5879062919922,288.27423095703125C223.46241729199218,288.27423095703125,223.35847473199217,288.37164305703124,223.35041809099218,288.49786395703126Z" fill="#695A6E" fill-opacity="1" style="mix-blend-mode:passthrough"/></g><g><path d="M228.11842345746095,288.9898068828125C228.37629739746095,290.8745148828125,228.52156039746095,292.77282488281253,228.55342139746094,294.6748048828125C228.56150839746093,294.8000448828125,228.66545139746094,294.8974648828125,228.79093939746093,294.8974648828125C228.91642739746095,294.8974648828125,229.02034039746093,294.8000448828125,229.02842739746094,294.6748048828125C228.99333239746093,292.7305248828125,228.84239239746094,290.7901048828125,228.57643139746094,288.8638308828125C228.53443939746094,288.5638428828125,228.07643129746094,288.6908569328125,228.11842345746095,288.9898068828125Z" fill="#695A6E" fill-opacity="1" style="mix-blend-mode:passthrough"/></g><g><path d="M207.46543884285157,261.4558714921875C207.60545379785157,263.0108594921875,207.74244679785156,264.5668994921875,207.88642879785155,266.1218894921875C207.96162379785156,267.5245994921875,208.22328179785157,268.9111294921875,208.66444279785156,270.2448694921875C209.53190279785156,272.5459294921875,211.20912279785156,274.4513294921875,213.38145279785155,275.6039294921875C214.90846279785157,276.4168294921875,216.52244279785157,277.0858294921875,218.09249279785155,277.8119294921875C218.36849279785156,277.9389294921875,218.60949279785157,277.5299294921875,218.33249279785156,277.4019294921875C216.99244279785157,276.7829294921875,215.64445279785156,276.1799294921875,214.31343279785156,275.5429294921875C213.16551279785156,275.0213294921875,212.11931279785156,274.3001294921875,211.22343279785156,273.4129294921875C210.39814279785156,272.5674294921875,209.73607279785156,271.57682949218747,209.27043279785156,270.4909094921875C208.77241279785156,269.2006194921875,208.47627279785155,267.8413094921875,208.39244079785155,266.4608794921875C208.23142979785158,264.7938794921875,208.09245279785156,263.1248794921875,207.94044479785157,261.4608764921875C207.91343679785157,261.1608886921875,207.44044489785156,261.1608886921875,207.46543884285157,261.4558714921875Z" fill="#695A6E" fill-opacity="1" style="mix-blend-mode:passthrough"/></g><g><path d="M216.6004178935547,280.2668440625C217.3817008935547,279.2055040625,218.2737308935547,278.2303440625,219.2614308935547,277.3578490625C219.3449908935547,277.2636720625,219.3406808935547,277.1207270625,219.25163089355468,277.0316772625C219.1626108935547,276.9426269625,219.0196108935547,276.9382934625,218.92543089355468,277.0218505625C217.9094408935547,277.9237060625,216.99259989355468,278.9313940625,216.19044499355468,280.0278340625C216.0234528935547,280.2848540625,216.43443289355469,280.5278340625,216.6004178935547,280.2668440625Z" fill="#695A6E" fill-opacity="1" style="mix-blend-mode:passthrough"/></g><g><path d="M195.240432375,276.0798342421875C196.168899375,275.8634642421875,197.130889375,275.8322142421875,198.071429375,275.9878542421875C198.197339375,276.0184322421875,198.325299375,275.9456782421875,198.363429375,275.8218382421875C198.397429375,275.6952512421875,198.323529375,275.5647582421875,198.197429375,275.5288082421875C197.173769375,275.3558960421875,196.125989375,275.3871460421875,195.114441375,275.6207882421875C194.814437375,275.6897582421875,194.942443848,276.1488032421875,195.240432375,276.0798342421875Z" fill="#695A6E" fill-opacity="1" style="mix-blend-mode:passthrough"/></g><g><path d="M195.67543015039064,274.5218486328125L198.32542415039063,271.9978636328125C198.5474241503906,271.7868656328125,198.21041415039062,271.4508666328125,197.98942415039062,271.6618652328125L195.33943175039062,274.1888386328125C195.11743115039062,274.3998386328125,195.45443715039062,274.7358386328125,195.67543015039064,274.5218486328125Z" fill="#695A6E" fill-opacity="1" style="mix-blend-mode:passthrough"/></g><g><path d="M184.53341939697265,288.138873828125C184.40591939697265,287.385573828125,183.87931939697265,286.760973828125,183.15841939697265,286.507873828125C182.56841939697267,286.323873828125,182.52941939697266,285.713873828125,182.34641939697266,285.185873828125C182.08001939697266,284.094573828125,181.64331939697266,283.052173828125,181.05241939697265,282.096873828125C180.52031939697264,281.487273828125,179.83191939697267,281.034273828125,179.06141939697267,280.786873828125C177.11641939697265,280.09387382812497,174.30641939697267,279.556873828125,171.75141939697266,278.670873828125L171.73041939697265,278.657873828125C169.47501939697264,276.749173828125,167.68701939697266,274.34907382812503,166.50341939697265,271.641873828125L166.47241939697267,271.561873828125C166.24451939697266,270.950773828125,166.19251939697267,270.287973828125,166.32241939697266,269.648773828125C167.93241939697265,261.484773828125,172.58741939697265,245.409773828125,173.49541939697266,243.595873828125C175.35141939697266,239.885803828125,173.85941939697267,234.718813828125,169.95441939697267,232.969843828125C166.04941939697267,231.220885828125,160.37941939697265,230.006833828125,159.67941939697266,234.376833828125C157.94641939697266,245.217873828125,150.62742939697264,263.389873828125,147.42842939697266,273.662873828125C146.90418939697267,275.398973828125,146.67566939697267,277.210973828125,146.75242939697264,279.022873828125C146.79122939697265,279.419573828125,146.86518939697265,279.81217382812497,146.97342939697265,280.19577382812497C146.78526939697267,280.25667382812503,146.60678939697266,280.344273828125,146.44342939697265,280.455773828125C145.70933539697265,281.041673828125,145.30823519697265,281.949573828125,145.36943054697267,282.886873828125C145.35043339697265,283.965773828125,145.46443139697266,285.056773828125,145.51342739697265,286.133873828125L145.61943039697266,288.36787382812497C145.70043139697265,289.692873828125,145.73542739697265,291.022873828125,145.81942739697266,292.348873828125C145.79055039697266,293.279873828125,146.13888539697265,294.183273828125,146.78542939697266,294.853873828125C147.50939939697267,295.389973828125,148.37326939697266,295.704673828125,149.27242939697265,295.759873828125C150.29312939697266,295.911173828125,151.32270939697267,295.994673828125,152.35442939697265,296.009873828125C154.36461939697267,296.030373828125,156.36871939697266,295.78657382812503,158.31541939697266,295.284873828125C158.39541939697267,295.828173828125,158.57651939697266,296.351473828125,158.84941939697265,296.827973828125C159.03981939697266,297.114973828125,159.29811939697265,297.35067382812497,159.60141939697266,297.513873828125L166.15941939697265,297.592873828125Q178.62441939697266,297.469873828125,181.29441939697267,297.139873828125C181.39441939697267,297.139873828125,181.49441939697266,297.149873828125,181.58841939697265,297.152873828125C182.17851939697266,297.218473828125,182.77561939697267,297.17197382812503,183.34841939697264,297.015873828125C183.92661939697265,296.80267382812497,184.36021939697264,296.314973828125,184.50441939697265,295.715873828125C184.61031939697267,295.128573828125,184.64391939697265,294.530373828125,184.60441939697267,293.934873828125Q184.60441939697267,292.919873828125,184.61241939697265,291.905873828125Q184.61241939697265,290.851873828125,184.62141939697267,289.798873828125C184.64571939697265,289.241773828125,184.61421939697266,288.683673828125,184.53341939697265,288.138873828125Z" fill="#332033" fill-opacity="1" style="mix-blend-mode:passthrough"/></g><g><path d="M147.67543011035156,280.74285886328124C149.97549811035157,280.56988486328123,152.27335811035155,281.1059568632812,154.25942811035156,282.2788698632813C155.24911811035156,282.90081986328124,156.15889811035157,283.64165986328123,156.96842811035157,284.48485986328126C157.75893811035155,285.34051986328126,158.67063811035158,286.07567986328127,159.67443811035156,286.66686986328125C160.73273811035156,287.1885398632812,161.87193811035155,287.52666986328126,163.04343811035156,287.66686986328125C164.28543811035155,287.84984986328124,165.54343811035156,287.9488498632812,166.79543811035157,288.01885986328125C169.51733811035157,288.15838986328123,172.24453811035156,288.15838986328123,174.96643811035156,288.01885986328125C176.48343811035156,287.9488498632812,178.00043811035155,287.9068598632812,179.51743811035158,287.84386986328127C180.22803811035158,287.82293986328125,180.93643811035156,287.75609986328124,181.63843811035156,287.64385986328125C182.19733811035155,287.5972898632813,182.71443811035158,287.32897986328123,183.07443811035157,286.89885986328125C183.26043811035157,286.6568598632812,182.84743811035156,286.41985986328126,182.66443811035157,286.65886986328127C182.26513811035156,287.03612986328125,181.73473811035157,287.2434098632813,181.18543811035155,287.2368798632813C180.53873811035157,287.31896986328127,179.88813811035158,287.3673698632812,179.23643811035157,287.38189986328126C177.91043811035155,287.4268798632813,176.58643811035157,287.46990986328126,175.26043811035157,287.5328998632813C172.59743811035156,287.65990986328126,169.92743811035157,287.70189986328126,167.26043811035157,287.57287986328123C165.96043811035156,287.5098898632813,164.66043811035155,287.41686986328125,163.36943811035155,287.24187986328127C162.20203811035157,287.11937986328127,161.06343811035157,286.80272986328123,160.00043811035155,286.3048698632812C158.99443811035155,285.7305298632813,158.08353811035155,285.0035398632813,157.30043811035156,284.1498398632813C156.52853811035158,283.3494298632813,155.67143811035157,282.63585986328127,154.74443811035155,282.02184986328126C152.63310811035157,280.70123286328123,150.15610811035157,280.08721886328124,147.67243911035158,280.26885986328125C147.37243651035158,280.29187016328126,147.36743931035156,280.76885986328125,147.67543011035156,280.74285886328124Z" fill="#695A6E" fill-opacity="1" style="mix-blend-mode:passthrough"/></g><g><path d="M165.22643264990234,280.45685021484377C167.12695864990235,280.00824021484374,169.05325864990235,279.67694121484374,170.99443864990235,279.46484421484377C171.29443864990233,279.43182421484374,171.29443864990233,278.95684811484375,170.99443864990235,278.98986816484376C169.01056864990235,279.20465121484375,167.04181864990235,279.54156521484373,165.09943364990235,279.99884021484377C164.79943064990235,280.06885021484374,164.92743682890233,280.52686021484374,165.22643264990234,280.45685021484377Z" fill="#695A6E" fill-opacity="1" style="mix-blend-mode:passthrough"/></g><g><path d="M165.28543841552735,260.73284890625C164.89442841552733,262.28387390625,164.51543441552735,263.83783390625,164.18543241552734,265.40283390625C163.80371841552736,266.86541390625,163.59496311552735,268.36767390625,163.56343841552734,269.87884390625C163.60704801552734,271.12295390625,163.97447941552736,272.33415390625,164.62942841552734,273.39285390625C165.24329841552733,274.35045390625,165.93069841552733,275.25885390625,166.68542841552735,276.10975390625C167.58009841552735,277.10085390625,168.34614841552735,278.20085390625,168.96542841552736,279.38375390625C169.09642841552736,279.65975390625,169.50642841552735,279.41875390625,169.37543841552736,279.14375390625C168.38843841552733,277.06985390625,166.62942841552734,275.53385390625,165.35843841552733,273.65085390625C164.67400841552734,272.70155390625,164.23340641552736,271.59855390625,164.07543141552733,270.43884390625C164.00330341552734,268.91986390625,164.16690841552733,267.39880390625,164.56043241552734,265.92987390625C164.91243841552733,264.22985390625,165.32242841552736,262.54187390625,165.74742841552734,260.85888690625C165.77278841552734,260.73602290625,165.69841841552736,260.61456300625,165.57745841552733,260.58129882625C165.45648841552733,260.54803470625,165.33047841552735,260.61437990625,165.28543841552735,260.73284890625Z" fill="#695A6E" fill-opacity="1" style="mix-blend-mode:passthrough"/></g><g><path d="M158.40342428222655,294.705876484375C158.26942428222657,293.378846484375,158.14042428222658,292.050846484375,158.00342428222658,290.723876484375C157.93581428222657,289.565916484375,157.66925428222658,288.428286484375,157.21542428222656,287.360896484375C157.01542428222658,286.954895484375,156.75442428222655,286.455871484375,156.28442428222655,286.324890184375C155.80964628222657,286.232482884375,155.33678428222657,286.493164484375,155.16142228222657,286.943908484375C154.98954008222657,287.498896484375,154.93505098222656,288.083616484375,155.00141908222656,288.660886484375C155.00141908222656,289.322876484375,155.02242278222656,289.984866484375,155.04641728222657,290.646916484375C155.10241728222655,292.165896484375,155.20241528222655,293.682926484375,155.30141428222657,295.198916484375C155.32141128222656,295.498896484375,155.80141428222657,295.504946484375,155.77641328222657,295.198916484375C155.62541228222656,292.885926484375,155.47641028222657,290.569886484375,155.47641028222657,288.250916484375C155.47641028222657,287.798886484375,155.39340928222657,287.037902484375,155.90141328222657,286.810913484375C156.39440428222656,286.589904484375,156.72141428222656,287.401916484375,156.87041428222656,287.738896484375C157.24730428222657,288.710086484375,157.47129428222655,289.733946484375,157.53441428222655,290.773866484375C157.67141428222655,292.083866484375,157.80041428222657,293.394836484375,157.93441428222656,294.704896484375C157.96541428222656,295.004886484375,158.44041428222656,295.004886484375,158.40342428222655,294.705876484375Z" fill="#695A6E" fill-opacity="1" style="mix-blend-mode:passthrough"/></g><g><path d="M149.4944305419922,288.37390122265623C149.52686314199218,290.7283282226563,149.68106854199218,293.07946822265626,149.95642854199218,295.41790822265625C149.9914325419922,295.71789822265623,150.4674305419922,295.71789822265623,150.43142654199218,295.41790822265625C150.1559215419922,293.07946822265626,150.00171654199218,290.7283282226563,149.9694285419922,288.37390122265623C149.96128054199218,288.2487793226563,149.85737654199218,288.15142822265625,149.73192554199218,288.15142822265625C149.6064835419922,288.15142822265625,149.50257873199217,288.2487793226563,149.4944305419922,288.37390122265623Z" fill="#695A6E" fill-opacity="1" style="mix-blend-mode:passthrough"/></g><g><path d="M162.7534332271328,289.49987804296876Q162.98243691113282,293.27685404296875,163.38143891113282,297.0398540429687C163.4134369111328,297.33984404296876,163.8884439111328,297.33984404296876,163.8564439111328,297.0398540429687Q163.4564519111328,293.27685404296875,163.22843891113283,289.49987804296876C163.2104339111328,289.19989014296874,162.7344360111328,289.19384764296876,162.7534332271328,289.49987804296876Z" fill="#695A6E" fill-opacity="1" style="mix-blend-mode:passthrough"/></g><g><path d="M169.21243286132812,289.64080829296876Q169.21243286132812,291.52081529296873,169.22042847132812,293.40081529296873C169.18876646132813,294.60510529296874,169.26371766132812,295.80975529296876,169.44442786132814,297.00079529296875C169.49842786132814,297.3007852929687,169.95642086132813,297.17376529296877,169.90241986132813,296.8748152929688C169.72756986132813,295.6856052929688,169.65829486132813,294.48327529296876,169.69541886132814,293.28179529296875L169.68841586132814,289.63977029296876C169.68032886132812,289.51458739296874,169.57640086132812,289.41717529296875,169.45091286132813,289.41717529296875C169.32542386132812,289.41717529296875,169.22149658132813,289.51458739296874,169.21243286132812,289.64080829296876Z" fill="#695A6E" fill-opacity="1" style="mix-blend-mode:passthrough"/></g><g><path d="M175.03343200683594,289.2878421796875Q175.06942750683595,291.2128341796875,175.17244000683593,293.1348241796875Q175.22343400683593,294.0808141796875,175.29144300683595,295.0268541796875C175.29863000683594,295.6107141796875,175.37960800683595,296.1913441796875,175.53244000683594,296.7548841796875C175.63244600683595,297.0438841796875,176.08844200683595,296.9198641796875,175.99043300683593,296.6289041796875C175.83650200683593,296.0483441796875,175.75686600683593,295.4505641796875,175.75343300683593,294.8499141796875Q175.68943800683593,293.9338941796875,175.64042700683595,293.0179441796875Q175.54042100683594,291.1549641796875,175.50743100683593,289.2889401796875C175.49934400683594,289.1636962796875,175.39541600683594,289.0662841796875,175.26992800683593,289.0662841796875C175.14444000683594,289.0662841796875,175.04051208683595,289.1636962796875,175.03343200683594,289.2878421796875Z" fill="#695A6E" fill-opacity="1" style="mix-blend-mode:passthrough"/></g><g><path d="M180.68342590339844,289.43090831640626Q180.95442185839843,293.04992431640625,180.98942585839845,296.68090431640627C180.99758885839844,296.80609431640625,181.10150185839845,296.90350431640627,181.22694385839844,296.90350431640627C181.35238685839843,296.90350431640627,181.45628385839845,296.80609431640625,181.46443185839843,296.68090431640627Q181.42942785839844,293.0509043164063,181.15843185839844,289.43090831640626C181.13543685839844,289.13092041640624,180.65843195839844,289.12487791640626,180.68342590339844,289.43090831640626Z" fill="#695A6E" fill-opacity="1" style="mix-blend-mode:passthrough"/></g><g><path d="M210.17244797935484,253.52260205078124C209.95744797935487,248.39360205078125,202.12944797935486,162.82280205078126,200.33044797935486,152.10483205078125Q199.88444797935486,149.44882205078125,199.40944797935487,146.79883205078124C199.76894797935486,146.39563205078124,199.65544797935485,145.76220205078124,199.17844797935487,145.50882205078125C199.10844797935488,145.12283205078126,199.04144797935487,144.73681605078124,198.97144797935488,144.35083005078124C198.78844797935486,143.35083005078124,197.26144797935484,143.77383423078126,197.44444797935486,144.77182005078126C197.48544797935486,144.99481205078126,197.52344797935484,145.21783205078125,197.56444797935484,145.44082205078124Q194.13044797935487,145.43384205078124,190.69644797935484,145.42883205078124C188.35454797935486,145.35214205078125,186.01154797935487,145.54172205078126,183.71244797935486,145.99383205078124C182.41504797935485,146.28494205078124,181.17034797935486,146.77472205078124,180.02244797935487,147.44583205078126C179.06074797935486,147.71731205078126,178.13134797935487,148.09216205078124,177.25044797935487,148.56384205078126C177.22444797935486,148.64383205078124,177.20144797935487,148.72085205078125,177.17744797935487,148.78985205078126L176.75744797935485,149.98987205078126C176.48674797935485,150.95846205078124,175.98064797935484,151.84512205078124,175.28444797935487,152.57086205078124C174.06944797935486,153.75186205078126,172.76444797935486,154.83590205078124,171.54044797935487,156.00790205078124C170.29854797935485,157.22820205078125,169.16124797935487,158.55050205078126,168.14044797935486,159.96090205078124Q166.26344797935485,162.47690205078123,164.40444797935487,165.00590205078126Q160.40444797935487,170.43590205078124,156.46244797935486,175.90590205078126Q152.80944797935484,180.96390205078126,149.19744797935485,186.05190205078125C147.50544797935487,188.43890205078125,145.81344797935486,190.82790205078123,144.17244797935484,193.25190205078124L143.87244797935486,193.70290205078123Q141.31544797935487,197.51290205078124,138.94444797935486,201.44390205078125C133.57544797935486,208.59990205078125,128.70042797935486,216.11290205078126,123.94442797935486,223.68490205078126Q122.93342797935486,225.29290205078127,121.92842797935486,226.90390205078126C121.21784797935486,227.93990205078126,120.56259397935486,229.01270205078123,119.96542697935486,230.11790205078125C119.36649497935485,231.18380205078125,119.44465797935486,232.50120205078125,120.16542997935485,233.48880205078126C120.85207797935486,234.38090205078123,121.59491797935486,235.22830205078125,122.38942797935486,236.02580205078124C131.74834797935486,246.03560205078125,143.44274797935486,253.56960205078127,156.42644797935486,257.9536020507812C172.55244797935487,263.3746020507813,189.48744797935484,262.62660205078123,206.18944797935484,261.30760205078127C207.18894797935485,261.30560205078126,208.17414797935487,261.07060205078125,209.06644797935485,260.6196020507813C211.13144797935485,259.36160205078124,210.25344797935486,255.47860205078126,210.17244797935484,253.52260205078124Z" fill="#874FFF" fill-opacity="1" style="mix-blend-mode:passthrough"/></g><g><path d="M121.1164298505188,229.63684122265624C129.2544322505188,238.28717322265624,138.78181225051878,245.51545322265625,149.3044122505188,251.02285322265624C154.8787122505188,254.09595322265625,160.8974122505188,256.2824532226563,167.1444122505188,257.50385322265623C170.42661225051882,258.04155322265626,173.73381225051878,258.41365322265625,177.0534122505188,258.61885322265624Q182.08141225051878,258.9778532226562,187.1264122505188,259.0188532226563C193.8775122505188,259.0675532226563,200.6247122505188,258.68275322265623,207.32641225051879,257.86685322265623Q208.5264122505188,257.7208532226563,209.7164122505188,257.55685322265623C210.01641225051878,257.51585322265623,209.8894122505188,257.05685322265623,209.5904122505188,257.09885322265626C202.9504122505188,258.0034532226563,196.2595122505188,258.4837532226563,189.5584122505188,258.53685322265625C182.8731122505188,258.6406532226562,176.1890122505188,258.26095322265627,169.5584122505188,257.4008532226562C166.34431225051878,256.9794532226563,163.1768122505188,256.25765322265624,160.0974122505188,255.24485322265625C157.0861122505188,254.20715322265625,154.1504122505188,252.96185322265626,151.3114122505188,251.51785322265624C140.7909122505188,246.26665322265626,131.2186122505188,239.29965322265625,122.9874322505188,230.90289322265625Q122.2114322505188,230.11090122265625,121.4514292505188,229.30291752265626C121.2414292505188,229.07989522265626,120.9054292505188,229.41589322265625,121.1164298505188,229.63684122265624Z" fill="#000000" fill-opacity="1" style="mix-blend-mode:passthrough"/></g><g><path d="M193.88947314453125,152.43084706835938C193.78947314453126,158.3798500683594,194.28947314453126,164.33082006835937,194.10247314453125,170.27682006835937C193.99247314453126,173.8218200683594,193.70247314453124,177.37082006835936,193.45547314453125,180.90892006835938Q193.06843314453124,186.48592006835938,192.59843314453124,192.05692006835937Q191.65744314453124,203.19792006835937,190.38243314453126,214.30692006835937Q189.09343314453125,225.54292006835936,187.46142314453124,236.73692006835938Q185.84842314453124,247.80092006835937,183.90542614453125,258.81332006835936Q183.66243014453124,260.1893200683594,183.41442871453125,261.56532006835937C183.36042784453124,261.8653200683594,183.81442214453125,261.9923200683594,183.87242114453124,261.69132006835935Q185.86541314453126,250.63382006835937,187.52742314453124,239.52182006835938Q189.17642314453124,228.48582006835937,190.49542314453126,217.40382006835938Q191.82942314453126,206.19492006835938,192.82342314453126,194.94882006835937Q193.81247314453125,183.75792006835937,194.46347314453124,172.54082006835938C194.81047314453124,166.56392006835938,194.37547314453124,160.58286006835937,194.35147314453124,154.60287006835938Q194.35147314453124,153.51788006835937,194.36447314453125,152.43188506835938C194.35627314453126,152.30670166835938,194.25237314453125,152.20932006835938,194.12687314453126,152.20932006835938C194.00147314453125,152.20932006835938,193.89757314453124,152.30670166835938,193.88947314453125,152.43084706835938Z" fill="#000000" fill-opacity="1" style="mix-blend-mode:passthrough"/></g><g><path d="M123.86243002056885,236.17483676757814C127.98943202056884,230.80983676757813,132.12343202056886,225.43483676757813,135.79738202056885,219.74483676757814Q138.57938202056886,215.43693676757812,140.93838202056884,210.8819367675781C142.53238202056883,207.80093676757812,144.01538202056884,204.66383676757812,145.57838202056885,201.56783676757811Q150.05238202056884,192.70583676757812,155.15138202056886,184.17783676757813Q160.22538202056884,175.69083676757813,165.89338202056885,167.57783676757813Q168.73638202056884,163.50883676757812,171.72338202056886,159.5428467675781Q173.24538202056885,157.52184676757813,174.80438202056885,155.52883676757813Q175.55738202056884,154.56683676757814,176.31738202056886,153.61184676757813C176.76358202056883,153.12716676757813,177.13988202056885,152.58257676757813,177.43538202056885,151.99383676757813C177.70138202056884,151.35882676757814,177.86938202056885,150.69384676757812,178.14138202056884,150.05584676757812C178.26048202056884,149.77783206757812,177.85138202056885,149.53585776757814,177.73138202056884,149.8158567675781C177.46138202056886,150.44485476757814,177.28338202056887,151.10384676757812,177.03138202056886,151.7388567675781C176.70578202056885,152.3908967675781,176.28668202056883,152.99191676757812,175.78738202056886,153.52285676757813Q174.27338202056885,155.42785676757813,172.79238202056885,157.35885676757812Q169.77138202056886,161.29783676757813,166.89238202056885,165.34183676757812Q161.13538202056884,173.42983676757814,155.96438202056885,181.91383676757812Q150.79338202056886,190.39783676757813,146.24338202056884,199.2218367675781C143.10738202056885,205.30383676757813,140.31238202056886,211.55783676757812,136.71938202056884,217.39383676757814C133.09029202056885,223.11063676757811,129.17048202056884,228.63753676757813,124.97542202056884,233.9528367675781Q124.21442402056884,234.94483676757812,123.45242402056884,235.93483676757813C123.26642402056885,236.17683676757812,123.67842402056885,236.41383676757812,123.86243002056885,236.17483676757814Z" fill="#000000" fill-opacity="1" style="mix-blend-mode:passthrough"/></g><g><path d="M175.86242674628906,152.16384853710937C176.71438644628907,153.24966053710938,177.95017744628908,153.96759053710937,179.31542744628905,154.16986053710937C184.51460744628906,155.51718053710937,189.92195744628907,155.86703053710937,195.25145744628907,155.20087053710938Q196.72645744628906,155.01587053710938,198.18645744628907,154.72888053710938C198.90945744628905,154.58588053710938,199.88645744628906,154.5048805371094,200.27945744628906,153.78690053710937C200.42745744628905,153.51889053710937,200.01745744628906,153.27890053710937,199.86945744628906,153.54690053710937C199.68515744628905,153.81992053710937,199.39505744628906,154.00342053710938,199.06945744628905,154.05292053710937C198.66945744628907,154.16193053710938,198.24745744628905,154.2349205371094,197.83645744628907,154.31390053710936Q196.60445744628908,154.54990053710938,195.35845744628907,154.71390053710937C190.37175744628905,155.35477053710937,185.31065744628907,155.09805053710937,180.41442744628907,153.9559005371094C178.97143744628906,153.61691053710936,177.11942744628905,153.28690053710937,176.26843244628907,151.92590353710938C176.10643044628907,151.66690053710937,175.69543444628906,151.90591433710938,175.86242674628906,152.16384853710937Z" fill="#000000" fill-opacity="1" style="mix-blend-mode:passthrough"/></g><g><path d="M173.13842030419923,157.95285452148437C176.3874943041992,159.4718945214844,180.19635430419922,159.16793452148437,183.1633743041992,157.1528645214844C183.9690743041992,156.76159452148437,184.59607430419922,156.07888452148438,184.91737430419923,155.24285852148438C184.94287430419922,155.11999552148438,184.86847430419922,154.9985046214844,184.74747430419922,154.96520996148436C184.6264743041992,154.93188472148438,184.50047430419923,154.99826052148438,184.45937430419923,155.11685152148436C184.20337430419923,156.0748645214844,183.14347430419923,156.6418445214844,182.3394243041992,157.0888345214844C181.44518430419922,157.58966452148437,180.4866243041992,157.96582452148436,179.49042430419922,158.20684452148438C177.4390743041992,158.72122452148437,175.2714443041992,158.48571452148437,173.37842530419923,157.54284452148437C173.10742950419922,157.40185452148438,172.8664323041992,157.81283452148438,173.13842030419923,157.95285452148437Z" fill="#000000" fill-opacity="1" style="mix-blend-mode:passthrough"/></g><g><path d="M193.0504272949219,157.25888031054689C192.90238729492188,156.92938231054688,192.59672729492186,156.69796751054687,192.23942729492188,156.64486694054688C191.83404529492188,156.62634281054687,191.45433029492187,156.84326131054686,191.26441929492188,157.2018733105469C191.13162229492187,157.44967631054686,191.06288129492188,157.72674831054687,191.06442229492188,158.0078783105469C191.00502029492188,158.16116831054688,190.9608001949219,158.31991831054688,190.9324187949219,158.48186831054687C190.84391789492187,158.87398831054688,190.91592409492188,159.28521831054687,191.13241529492188,159.62386831054687C191.3260042949219,159.92095831054687,191.6548612949219,160.10204831054688,192.0094172949219,160.10686831054687C192.37374729492188,160.07864831054687,192.70248729492187,159.87746831054687,192.89341729492187,159.56588831054688C193.23893729492187,158.84576831054687,193.29617729492188,158.02084831054688,193.0504272949219,157.25888031054689Z" fill="#000000" fill-opacity="1" style="mix-blend-mode:passthrough"/></g><g><path d="M192.2224243652344,171.81887786914064C192.07438436523438,171.48934886914063,191.76872436523436,171.25796506914062,191.41142436523438,171.20486449914063C191.0060273652344,171.18637086914063,190.62632736523437,171.40328986914062,190.43641636523438,171.76187086914064C190.30371136523436,172.00936886914062,190.2349543652344,172.2861058691406,190.23641936523438,172.56686586914063C190.1770023652344,172.72012586914062,190.1327819652344,172.87887586914061,190.1044158652344,173.04086586914062C190.01591496523437,173.4329558691406,190.08792116523438,173.84420586914064,190.30441236523438,174.18289586914062C190.49798536523437,174.48001586914063,190.8268583652344,174.6611058691406,191.1814143652344,174.66586586914062C191.54580436523437,174.63778586914063,191.87460436523438,174.43655586914062,192.06541436523437,174.12484586914061C192.41095436523437,173.40475586914062,192.46818436523438,172.5798058691406,192.2224243652344,171.81887786914064Z" fill="#000000" fill-opacity="1" style="mix-blend-mode:passthrough"/></g><g><path d="M191.07043156738283,189.75985687304689C190.92222156738282,189.43051187304687,190.6166415673828,189.19912717304686,190.25943156738282,189.14584350304688C189.85426356738282,189.12710567304688,189.4746095673828,189.3435978730469,189.28442356738282,189.70187387304688C189.1516725673828,189.94967687304688,189.08293156738281,190.22677487304688,189.08442656738282,190.50790487304687C189.02500956738282,190.66116487304689,188.98078916738282,190.81991487304688,188.95242306738282,190.9819048730469C188.8639221673828,191.37399487304688,188.93592836738281,191.78524487304688,189.15241956738282,192.12393487304686C189.3459015673828,192.42111487304686,189.67483556738281,192.60226487304686,190.02942156738283,192.6069048730469C190.3937715673828,192.57864487304687,190.7224915673828,192.37747487304688,190.9134215673828,192.06588487304688C191.2589415673828,191.34579487304688,191.3161815673828,190.52084487304688,191.07043156738283,189.75985687304689Z" fill="#000000" fill-opacity="1" style="mix-blend-mode:passthrough"/></g><g><path d="M189.0694244873047,208.5998532109375C188.9212144873047,208.2705082109375,188.61563448730467,208.0391235109375,188.2584244873047,207.9858398409375C187.8530424873047,207.9673462109375,187.4733274873047,208.1842652109375,187.2834164873047,208.5428462109375C187.15074148730469,208.7902832109375,187.0820004873047,209.0670212109375,187.0834194873047,209.3478412109375C187.0239564873047,209.5011012109375,186.9797515873047,209.6598512109375,186.9514159873047,209.8218412109375C186.86291508730469,210.2139312109375,186.9349212873047,210.6251812109375,187.1514124873047,210.9638712109375C187.3450014873047,211.2609212109375,187.6738584873047,211.4420212109375,188.0284144873047,211.4468412109375C188.3928044873047,211.4187612109375,188.7216044873047,211.2175312109375,188.9124144873047,210.9058212109375C189.2579544873047,210.1857312109375,189.3152044873047,209.3607812109375,189.0694244873047,208.5998532109375Z" fill="#000000" fill-opacity="1" style="mix-blend-mode:passthrough"/></g><g><path d="M186.84043488769532,226.62289398242189C186.69221488769531,226.29354898242187,186.38664488769533,226.06216428242186,186.02943488769532,226.00888061242188C185.6240538876953,225.99038698242188,185.2443388876953,226.20730598242187,185.0544278876953,226.5658869824219C184.92176788769532,226.81332398242188,184.85301188769532,227.09006198242187,184.85443088769532,227.37088198242188C184.7950288876953,227.52420198242189,184.75080868769533,227.68295198242188,184.72242738769532,227.84488198242187C184.6333312876953,228.23697198242186,184.70538328769533,228.6484019824219,184.92242388769532,228.98691198242187C185.1160428876953,229.28396198242189,185.4448848876953,229.46506198242187,185.79942488769532,229.46988198242187C186.1638148876953,229.44180198242188,186.4925948876953,229.24057198242187,186.6834248876953,228.92886198242186C187.0289448876953,228.20877198242187,187.0861848876953,227.38382198242186,186.84043488769532,226.62289398242189Z" fill="#000000" fill-opacity="1" style="mix-blend-mode:passthrough"/></g><g><path d="M183.48143135742188,247.0418698125C183.33322135742188,246.7125248125,183.02763135742188,246.4811401125,182.67042135742187,246.4278564425C182.26504535742188,246.4092407125,181.88529935742187,246.6262208125,181.69541935742188,246.9848628125C181.56275935742187,247.2322998125,181.4940033574219,247.5090378125,181.4954223574219,247.7898578125C181.43598935742187,247.9431178125,181.39176945742187,248.1018678125,181.36341855742188,248.2638578125C181.27433775742188,248.6559478125,181.3463897574219,249.0673778125,181.5634153574219,249.4058878125C181.75698835742187,249.7029378125,182.08584635742187,249.8840378125,182.44041135742188,249.8888578125C182.80450135742188,249.8605978125,183.13292135742188,249.6593578125,183.32341135742186,249.3478378125C183.66911135742188,248.6277478125,183.72636135742187,247.8027378125,183.48143135742188,247.0418698125Z" fill="#000000" fill-opacity="1" style="mix-blend-mode:passthrough"/></g><g><path d="M199.76641375732422,104.18981401367188C199.3184137573242,100.98083401367188,198.42841375732422,96.79983401367187,196.3184137573242,94.04184401367188C195.11201375732423,92.97259401367188,193.70311375732422,92.15646401367188,192.17541375732424,91.64184601367188C191.3456137573242,91.32974201367188,190.46101375732422,91.18957521367187,189.5754137573242,91.22985839367188C188.73321375732422,91.29550171367187,187.92921375732422,91.60861201367187,187.26441375732423,92.12985201367188C185.6644137573242,93.37185401367188,184.9364137573242,95.33886401367188,184.18541375732423,97.14486401367188C183.93541375732423,97.74487401367188,183.6764137573242,98.35186401367187,183.38541375732422,98.93887401367188C181.51841375732423,107.60791401367187,172.22741375732423,112.12091401367188,165.23641375732421,116.19981401367187C157.71441375732422,120.58781401367187,151.00441375732422,126.27581401367188,148.8844147573242,135.09981401367187C148.6159057573242,136.22311401367188,148.4353637573242,137.36561401367186,148.34441375732422,138.51681401367188C148.38068385732421,139.07041401367186,148.45755775732422,139.62051401367188,148.57441675732423,140.1628140136719C148.7020267573242,140.80581401367186,148.94493875732422,141.42041401367186,149.2914197573242,141.97681401367188C149.63148375732422,142.51591401367187,150.12942375732422,142.93701401367187,150.7174237573242,143.18281401367187C151.30805375732422,143.41771401367188,151.9784337573242,143.1404140136719,152.23042375732422,142.55681401367187C152.4575537573242,142.07811401367186,152.62127375732422,141.57181401367188,152.7174237573242,141.05081401367187C152.7234237573242,140.94281401367186,152.73042375732422,140.83481401367186,152.7414237573242,140.72881401367187C153.5154237573242,133.45081401367187,158.64141375732422,127.30881401367188,164.1634137573242,122.89381401367187C164.51041375732422,122.61581401367188,164.86341375732422,122.34581401367187,165.2174137573242,122.07681401367188C163.1934137573242,124.47381401367187,161.48951375732423,127.12371401367187,160.14841375732422,129.95981401367186C158.39141375732422,133.74081401367187,156.72742375732423,138.74081401367187,157.6804237573242,142.95281401367188C157.98199375732423,144.71361401367187,159.24021375732423,146.15921401367189,160.94241375732423,146.70081401367187C161.75811375732422,146.92241401367187,162.62221375732423,146.88751401367188,163.41741375732423,146.60081401367188C165.4604137573242,148.89281401367188,169.5034137573242,147.93281401367187,172.3604137573242,147.36181401367188C174.59051375732423,146.91901401367187,176.8544137573242,146.66771401367188,179.12741375732423,146.61081401367187Q180.6344137573242,146.57081401367188,182.14341375732423,146.63781401367189C183.50041375732422,146.69781401367186,184.90941375732422,147.02781401367187,186.2594137573242,147.0018140136719C187.80241375732422,146.95301401367186,189.08001375732422,145.7878140136719,189.2704137573242,144.25581401367188C189.54401375732422,142.37741401367188,190.06801375732422,140.54411401367187,190.82841375732423,138.8048140136719C192.5634137573242,135.37981401367188,195.0984137573242,132.4248140136719,196.69541375732422,128.92081401367187C198.3365137573242,125.05601401367187,199.35841375732423,120.95671401367187,199.7234137573242,116.77381401367188C200.26821375732422,112.59391401367188,200.28071375732424,108.36181401367188,199.76041375732422,104.17881401367188" fill="#39453C" fill-opacity="1" style="mix-blend-mode:passthrough"/></g><g><path d="M275.72739638671874,103.79984757324219C275.0693963867187,104.32185757324218,274.4493963867187,104.88883757324218,273.80839638671875,105.43085757324219Q272.71939638671876,106.35087757324219,271.58739638671875,107.21986757324218C270.0437963867188,108.41309757324218,268.42139638671875,109.50089757324218,266.73139638671876,110.47587757324219C265.34739638671874,111.26685757324219,263.8963963867187,111.95487757324219,262.4493963867187,112.62388757324219C261.77799638671877,112.95208757324218,261.07769638671874,113.21748757324218,260.35739638671873,113.41688757324219C260.16729638671876,113.46578757324218,259.97469638671873,113.50448757324219,259.78039638671873,113.53288757324219C258.95689638671877,116.33328757324219,257.5335963867187,118.92088757324218,255.60939638671874,121.11588757324219C253.52489638671875,123.32198757324218,251.00959638671875,125.0765875732422,248.21939638671876,126.27088757324219C242.42639638671875,128.7888875732422,235.79839638671876,129.1938875732422,229.59439638671876,128.3828875732422C227.14489638671876,128.06778757324219,224.72869638671875,127.53228757324219,222.37539638671876,126.78288757324219C217.70809638671875,125.13878757324218,213.20309638671876,123.0654875732422,208.91839638671874,120.58988757324218C205.13041638671876,118.53988757324218,200.45042638671876,115.70788757324219,195.97041338671875,116.94188757324218C194.13340638671875,117.44788757324218,197.33541638671875,119.98688757324219,196.43041638671875,121.6998875732422C194.25042638671874,125.82588757324218,195.69342038671874,129.9098875732422,199.27142638671876,132.53588757324218C217.94039638671876,146.2358875732422,243.38839638671874,152.69188757324218,262.30839638671875,137.64888757324218C266.69839638671874,134.1588875732422,272.13739638671876,126.03688757324218,273.86839638671876,120.63988757324219C274.02079638671876,120.32158757324218,274.15639638671877,119.99548757324219,274.27439638671876,119.66288757324219C276.23739638671873,114.06938757324218,277.34619638671876,108.21189757324218,277.56339638671875,102.28788757324219C276.96939638671876,102.8128815732422,276.34639638671877,103.30488757324218,275.72739638671874,103.79984757324219Z" fill="#FD8954" fill-opacity="1" style="mix-blend-mode:passthrough"/></g><g><path d="M187.7424336328125,122.53982868652344C186.0081336328125,122.56472868652344,184.3215636328125,121.97162868652345,182.9844336328125,120.86682868652343C181.3494415328125,119.58682868652343,181.3154297328125,118.57682868652344,181.3844299328125,116.76682868652344C181.4504246328125,115.13182868652343,181.5934296328125,113.46682868652344,181.6844326328125,111.79984868652343C181.7314296328125,111.03983868652344,181.7664336328125,110.27885868652344,181.7794346328125,109.52183868652344C181.7984316328125,108.53382868652344,181.7854306328125,107.55183868652344,181.7094266328125,106.58481868652343C181.7094266328125,106.57181868652344,181.7094266328125,106.44181868652343,181.6904296328125,106.44181868652343C181.1264346328125,106.46381868652344,181.1904296328125,105.51981868652344,181.7534336328125,105.50080868652344C183.1073436328125,105.42890868652344,184.4361536328125,105.10645868652344,185.6724436328125,104.54981868652344C186.5976436328125,104.11335868652344,187.5551436328125,103.74894668652344,188.5364336328125,103.45982368652344C188.6224336328125,103.01881408652343,189.2424336328125,102.87382468652343,189.3664436328125,103.30082668652344C189.5945936328125,103.26606768652344,189.8080436328125,103.42192068652344,189.8444336328125,103.64982568652344C189.8909336328125,103.90080268652343,189.7409236328125,104.14649868652344,189.4964336328125,104.21982868652344C189.4864336328125,104.21982868652344,189.4804236328125,104.21982868652344,189.4714336328125,104.21982868652344Q189.9084336328125,108.51081868652344,190.3454236328125,112.80183868652344Q190.5594336328125,114.91182868652344,190.7764236328125,117.02782868652343C191.0294336328125,119.51182868652344,190.5544236328125,122.37482868652344,187.7424336328125,122.53982868652344Z" fill="#FD8954" fill-opacity="1" style="mix-blend-mode:passthrough"/></g><g><path d="M201.21946759033204,121.499847734375L201.15946759033204,121.399837734375C200.19106759033204,119.848237734375,198.88106759033204,118.538267734375,197.32946759033203,117.569857734375L197.27746759033204,117.534847734375C196.91916759033202,117.273497734375,196.52866759033202,117.059727734375,196.11546759033203,116.898867734375C195.36346759033202,116.767057734375,194.59376759033202,116.774167734375,193.84446759033204,116.919857734375C193.54446759033203,116.931857734375,193.23546759033204,116.940857734375,192.93146759033203,116.951877734375C192.79186759033203,116.874087734375,192.65816759033203,116.786167734375,192.53146759033203,116.688877734375C192.10426759033203,116.329127734375,191.81086759033204,115.835907734375,191.69846759033203,115.288877734375C191.59926759033203,114.645817734375,191.40796759033202,114.020387734375,191.13046759033205,113.431884734375C190.68746759033203,112.712890634375,190.58946759033202,112.794891357375,189.81046759033202,112.799896244375C188.28446759033204,112.808898934375,187.85546759033204,112.899902734375,184.62646759033203,113.069885734375C183.25046759033202,113.142883734375,182.39846759033202,112.921874734375,181.61446759033203,112.969878734375C180.92246759033202,113.013885734375,180.92746759033204,113.860867734375,180.75946759033204,114.369877734375C180.35176759033203,115.790767734375,179.30840759033202,116.942417734375,177.93445759033204,117.487887734375C174.95345759033202,118.446897734375,172.42145759033204,119.194887734375,170.15544859033204,121.504887734375C169.72013089033203,121.914977734375,169.58010059033202,122.549677734375,169.80245159033203,123.104877734375C169.26245859033205,125.492877734375,170.71344759033204,129.785877734375,171.23845759033202,131.043877734375C172.12544759033204,133.168877734375,173.22345759033203,135.204877734375,174.05545759033203,137.352877734375C174.85678759033203,139.668177734375,175.47830759033204,142.041977734375,175.91444759033203,144.452877734375C176.20030759033205,146.080277734375,176.77611759033203,147.643077734375,177.61444759033202,149.066877734375C178.77644759033203,150.847877734375,180.53746759033203,151.219877734375,182.51446759033203,151.471877734375C184.97356759033204,151.833677734375,187.46026759033202,151.973577734375,189.94446759033204,151.889877734375C192.77036759033203,151.80447773437498,195.53506759033203,151.045377734375,198.00846759033203,149.675877734375C200.28946759033204,148.336877734375,199.90846759033204,145.267877734375,200.08046759033203,142.982877734375C200.10846759033203,142.614877734375,200.13246759033203,142.246877734375,200.15946759033204,141.882877734375C201.69046759033205,138.821877734375,203.32846759033202,135.71887773437498,203.65946759033204,132.264877734375C203.81616759033204,130.21807773437502,203.60416759033203,128.159777734375,203.03346759033204,126.18787773437501C202.63656759033202,124.555977734375,202.02876759033202,122.982777734375,201.22546759033202,121.507907734375" fill="#FFEBE6" fill-opacity="1" style="mix-blend-mode:passthrough"/></g><g><path d="M179.70042378222655,117.36685150390625C181.31918678222655,118.01913150390625,183.04437678222655,118.36728150390626,184.78942678222657,118.39386150390625C186.55532678222656,118.44833150390625,188.32285678222655,118.37616150390625,190.07847678222657,118.17785150390625C190.98687678222657,118.12601150390626,191.86597678222657,117.83746350390625,192.62847678222656,117.34085050390625C192.87347678222656,117.16284150390625,192.63647678222657,116.75085450390625,192.38847678222658,116.93084720390625C191.52007678222657,117.47009250390624,190.51797678222655,117.75582850390624,189.49542678222656,117.75585950390625C188.44341678222656,117.83584550390626,187.38842678222656,117.90286150390625,186.33341678222655,117.92587150390625C184.15780678222657,118.05978150390625,181.97860678222656,117.72946150390625,179.94041478222655,116.95687870390626C179.66241458222657,116.83886720390625,179.41941878222656,117.24786350390625,179.70042378222655,117.36685150390625Z" fill="#000000" fill-opacity="1" style="mix-blend-mode:passthrough"/></g><g><path d="M196.08542295410157,131.09787000390625C195.58125295410156,134.13876400390626,194.03529295410155,136.90969400390625,191.71241755410156,138.93588400390624C191.48141495410155,139.13589400390626,191.81841995410156,139.47189400390624,192.04841595410156,139.27188400390625C194.43382295410157,137.19024400390626,196.02406295410157,134.34619400390625,196.54841295410156,131.22387700390624C196.59741295410157,130.92388916390624,196.13942295410158,130.79586800390626,196.08542295410157,131.09787000390625Z" fill="#000000" fill-opacity="1" style="mix-blend-mode:passthrough"/></g><g><path d="M220.70337298583985,117.27185044726562C219.19347298583983,116.97186274726562,217.30347298583985,116.75683544726563,216.40337298583984,117.41986044726562C216.03027298583984,117.75012244726562,215.81267298583984,118.22165344726562,215.80337298583984,118.71985344726562C215.31197298583984,123.52316344726563,213.76537298583986,128.1585834472656,211.27437298583985,132.29488344726562C209.19837298583985,135.84388344726563,204.88137298583985,139.35388344726562,200.59037298583985,140.05488344726564C198.47727298583985,140.3871834472656,196.32137298583984,139.82078344726563,194.64437298583985,138.49288344726563C194.86537298583985,138.66988344726562,195.08137298583983,138.85588344726563,195.29737298583984,139.03988344726562C191.56567298583985,135.80888344726563,188.27117298583985,132.10498344726562,185.49737298583983,128.02188344726562C183.03137298583985,124.42785344726562,181.55237298583984,120.09985344726563,176.66640298583985,119.44186344726563C174.96056298583986,119.18676344726562,173.21956298583984,119.54538344726562,171.75341298583984,120.45385344726563C168.04853098583985,122.71563344726563,166.79383298583986,127.50128344726562,168.91240298583983,131.28988344726562C171.55048298583984,135.9436834472656,174.66451298583985,140.31108344726562,178.20437298583985,144.32188344726563C182.02937298583984,148.6858834472656,186.27337298583984,152.5968834472656,191.76537298583983,154.69288344726561C197.67737298583984,156.94988344726562,204.15337298583984,156.15288344726562,209.78347298583984,153.56588344726563C214.27437298583985,151.50288344726562,218.00237298583983,147.74688344726562,221.01137298583984,143.90188344726562C225.23737298583984,138.50188344726564,228.70237298583984,132.47888344726562,228.60047298583984,125.39184344726563C228.49177298583984,121.66131344726563,225.88467298583984,118.47168344726562,222.25037298583985,117.62283344726562C221.85637298583984,117.52282744726563,221.31347298583984,117.38882444726562,220.70337298583985,117.27185044726562ZM195.97637298583984,139.41878344726564Q196.54337298583985,139.66678344726563,196.77637298583983,139.76478344726561C196.36037298583983,139.6507834472656,195.99337298583984,139.52388344726563,195.97637298583984,139.41878344726564Z" fill="#FD8954" fill-opacity="1" style="mix-blend-mode:passthrough"/></g><g><path d="M193.1523925048828,98.66186350585937C193.13139250488283,95.08020350585937,190.76059250488282,91.93756350585937,187.3224225048828,90.93386850585938C187.2600225048828,90.87527450585938,187.1823925048828,90.83541850585938,187.09842250488282,90.81887850585937C185.4010325048828,90.34100350585938,183.5810225048828,90.59713740585937,182.08142250488282,91.52487150585938C180.6217625048828,92.78183350585938,179.7053825048828,94.55508350585937,179.5244125048828,96.47287350585937C179.3644125048828,97.41687350585937,179.2794225048828,98.37286350585937,179.13540250488282,99.31787350585938C178.9786825048828,100.33468350585937,178.70588250488282,101.33024350585937,178.3224025048828,102.28484350585937C177.6974025048828,103.86084350585938,176.96540850488282,105.69784350585937,177.74240150488282,107.36284350585937C178.6462825048828,108.95034350585938,180.46025250488282,109.78654350585937,182.25439250488282,109.44284350585937C184.1423625048828,109.13504350585937,185.94658250488283,108.44124350585938,187.5543925048828,107.40484350585938C190.63039250488282,105.55584350585937,193.1153925048828,102.37784350585937,193.1523925048828,98.66186350585937Z" fill="#FD8954" fill-opacity="1" style="mix-blend-mode:passthrough"/></g><g><path d="M198.5464793701172,110.19791723632812C198.4463793701172,107.84791723632813,198.3213793701172,105.49781723632813,198.01947937011718,103.16391723632813C197.5584793701172,99.60491723632812,197.04347937011718,94.18386723632813,192.7614793701172,93.29888723632813C192.6121793701172,93.26818723632813,192.4590793701172,93.26043723632813,192.3074793701172,93.27587723632813C192.1159793701172,92.94277723632813,191.8504793701172,92.65810723632812,191.53147937011718,92.44387723632812C191.56647937011718,91.90688723632813,192.46447937011717,91.76287723632812,191.78047937011718,91.51388723632813C187.7354793701172,90.04687523632812,182.5424393701172,87.58086723632813,178.73643937011718,90.61388723632813C177.5364383701172,91.57089723632812,176.30943337011718,93.52187723632812,177.77844237011718,94.77889723632812C178.37144937011718,95.28689723632813,178.83043937011718,95.47891723632813,179.8164393701172,94.82589723632813C180.0792393701172,95.30172723632812,180.5055393701172,95.66622723632813,181.01642937011718,95.85189723632813C181.3260393701172,95.96209723632812,181.6518393701172,96.01989723632812,181.98043937011718,96.02288723632813C182.0424393701172,96.02288723632813,182.2994393701172,96.01189723632812,182.5234393701172,95.98489723632812C182.8220793701172,96.51675723632812,183.34575937011718,96.88448723632813,183.9474293701172,96.98489723632812C184.44909937011718,97.02984723632812,184.9530993701172,97.04321723632813,185.45643937011718,97.02490723632812C186.05070937011718,97.10046723632813,186.62844937011718,97.27343723632812,187.1664793701172,97.53689723632813C186.83643937011718,101.71591723632812,186.1414493701172,105.85891723632812,187.8154793701172,109.90791723632813C188.6244793701172,111.86391723632812,190.11547937011719,114.91291723632813,191.78547937011717,116.28191723632813C193.2904793701172,117.51291723632812,195.3144793701172,117.24291723632813,197.1944793701172,116.37391723632813C197.74647937011719,116.11891723632813,197.8894793701172,115.98991723632813,197.9874793701172,115.48391723632812C199.17247937011717,114.18991723632813,198.6174793701172,111.81391723632812,198.5464793701172,110.19791723632812Z" fill="#39453C" fill-opacity="1" style="mix-blend-mode:passthrough"/></g><g><path d="M190.93943786507813,100.261871203125C190.91143795507813,104.861873203125,191.03944395507813,109.761873203125,193.55143395507812,113.787883203125C194.16624395507813,114.782583203125,194.92631395507811,115.679883203125,195.80644395507812,116.449883203125C196.03643395507814,116.649883203125,196.37443395507813,116.31488320312499,196.14244395507814,116.113883203125C192.77343395507813,113.194883203125,191.70744295507814,108.634853203125,191.48043795507812,104.362853203125C191.40743995507813,102.99786320312501,191.40643295507812,101.629853203125,191.41444395507813,100.262848203125C191.4063109550781,100.137664803125,191.30241395507812,100.040283203125,191.1769559550781,100.040283203125C191.05149795507813,100.040283203125,190.94757075507812,100.137664803125,190.93943786507813,100.261871203125Z" fill="#000000" fill-opacity="1" style="mix-blend-mode:passthrough"/></g><g><path d="M187.46344028808593,97.88087771972656C188.05732728808593,98.28803771972656,188.79374528808594,98.43003771972656,189.49644528808594,98.27287771972657C190.04013528808593,97.98676771972656,190.32640528808594,97.37333771972656,190.19644528808593,96.77287771972657C190.15344528808595,96.40388771972657,190.03643528808593,96.04987771972657,189.96543528808593,95.68687771972657C189.89321528808594,95.30421771972657,189.85971528808594,94.91523771972656,189.86543528808593,94.52586771972656C189.87620528808594,93.75813771972656,190.03123528808592,92.99928271972657,190.32243528808593,92.28886371972656C190.43743528808594,92.00587462972656,189.97743528808593,91.88185071972656,189.86444528808593,92.16285671972656C189.39733528808594,93.31998771972657,189.27374528808593,94.58726771972657,189.50843528808593,95.81284771972656C189.61543528808593,96.36884771972656,189.93643528808593,97.06886771972657,189.59043528808593,97.59983771972657C189.20443528808593,98.19083771972656,188.16943328808594,97.72584771972656,187.70744328808593,97.46583771972657C187.59523028808593,97.40922771972656,187.45834348808594,97.44962771972656,187.39485168808594,97.55808771972656C187.33135988808593,97.66654771972657,187.36314391808594,97.80570771972657,187.46344028808593,97.88087771972656Z" fill="#000000" fill-opacity="1" style="mix-blend-mode:passthrough"/></g><g><path d="M182.71243643554686,90.31286620679687C181.81622643554687,90.50894121679687,181.03663643554688,91.05749521679688,180.54943843554688,91.83487221679688C179.94230643554687,92.61581221679687,179.61828613554687,93.57977221679687,179.6304321285469,94.56888221679688C179.64343263554687,94.86886221679687,180.11843843554686,94.87488221679688,180.1054384355469,94.56888221679688C180.09545943554687,93.68759221679687,180.38215643554688,92.82852221679687,180.91943643554688,92.12988221679687C181.3463764355469,91.43332221679688,182.0404164355469,90.94241321679688,182.83943643554687,90.77188121679687C183.13943643554688,90.73089621679688,183.01243643554687,90.27188111679688,182.71243643554686,90.31286620679687Z" fill="#000000" fill-opacity="1" style="mix-blend-mode:passthrough"/></g><g><path d="M182.1144255263672,92.37587013769532C181.78131102636718,93.47584613769531,181.7341614263672,94.6425961376953,181.97743252636718,95.76588613769532C182.01843252636718,95.88450613769531,182.14450052636718,95.95091613769532,182.26551852636717,95.91761613769532C182.3865355263672,95.88432613769531,182.4608915263672,95.76277613769531,182.4354245263672,95.63987613769531C182.2134095263672,94.59922613769531,182.2605595263672,93.51917613769531,182.5724185263672,92.50187713769532C182.6364135263672,92.20188903769531,182.1794125263672,92.07688913769532,182.1144255263672,92.37587013769532Z" fill="#000000" fill-opacity="1" style="mix-blend-mode:passthrough"/></g><g><path d="M185.68743899414062,96.92285154296874C185.91560399414064,96.82284154296875,186.12680099414064,96.68790154296875,186.31344599414064,96.52286154296876C186.4800389941406,96.35998154296875,186.60015899414063,96.15561154296876,186.6614489941406,95.93085154296875C186.75431899414062,95.47848154296875,186.74235899414063,95.01086454296875,186.62644899414062,94.56384254296874C186.59051899414064,94.43826294296875,186.46073899414063,94.36450194296874,186.3344389941406,94.39785766296875C186.20992999414062,94.43511964296874,186.13679499414062,94.56378154296875,186.16844199414064,94.68984954296874C186.25994899414061,95.04431154296876,186.27461199414063,95.41424154296875,186.21144099414062,95.77484154296874C186.17266799414062,95.93692154296875,186.08712799414062,96.08401154296875,185.9654389941406,96.19784154296875C185.80873099414063,96.32602154296875,185.63424699414063,96.43078154296875,185.44743299414063,96.50885154296876C185.33534240414062,96.57599154296875,185.29756169414063,96.72046154296875,185.36242679414062,96.83386154296875C185.43058779414062,96.94455154296875,185.57379199414063,96.98199154296876,185.68743899414062,96.92285154296874Z" fill="#000000" fill-opacity="1" style="mix-blend-mode:passthrough"/></g><g><path d="M183.4794307861328,109.20886248046875C182.82643078613282,109.32586648046875,182.4414367861328,109.39785748046874,181.78843678613282,109.51885948046875C181.7754363861328,110.27584748046876,181.74143978613282,111.03686748046874,181.6884307861328,111.79687748046875C181.7744292861328,111.78088748046875,181.84342978613282,111.76485748046875,181.8884277861328,111.75286748046875C182.5699767861328,111.56023748046874,183.2128707861328,111.25063748046875,183.7884207861328,110.83785748046876C184.07642078613281,110.63784748046875,184.3584307861328,110.43285748046875,184.63742078613282,110.21984748046874C184.9094207861328,109.97637748046876,185.0764607861328,109.63693248046874,185.1034207861328,109.27285748046874C185.06543078613282,108.57885748046876,183.87543078613282,109.13385048046875,183.4674207861328,109.20986948046875" fill="#000000" fill-opacity="1" style="mix-blend-mode:passthrough"/></g><g><path d="M180.7344362470703,96.96284439746094C180.6047672470703,96.76539609746094,180.3595582470703,96.67832949746094,180.1344302470703,96.74983219746093C180.0264282470703,96.79783629746093,179.9614262470703,96.96382139746093,179.9244232470703,97.06883239746094C179.8992004470703,97.14555339746094,179.8817749470703,97.22459439746093,179.87242124707032,97.30482439746093C179.87242124707032,97.31181339746094,179.8674163470703,97.31782539746094,179.8654174470703,97.32383739746093C179.83361814707033,97.44721939746094,179.81484984707032,97.57356239746093,179.80941772707033,97.70085139746094C179.79254150707033,97.82994239746094,179.80484008707032,97.96116239746094,179.84541324707033,98.08485239746093C179.9547272470703,98.30122239746093,180.22982824707032,98.37138239746093,180.4294132470703,98.23384239746093C180.6171112470703,98.08915239746094,180.75004624707032,97.88499239746093,180.80640824707032,97.65483139746094C180.8932782470703,97.42552139746094,180.8646382470703,97.16841139746094,180.7344362470703,96.96284439746094Z" fill="#000000" fill-opacity="1" style="mix-blend-mode:passthrough"/></g><g><path d="M183.36943100390624,97.16085818398437C183.25447100390625,97.12136838398438,183.12823500390624,97.13186645398437,183.02142300390625,97.18984988398438C182.92141700390624,97.18460078398438,182.82537800390625,97.22961428398438,182.76542700390624,97.30984458398437C182.69688420390625,97.45812958398437,182.66465760390625,97.62063558398438,182.67143250390626,97.78384358398438C182.60664370390626,98.04775958398437,182.61529540390626,98.32439858398438,182.69642640390626,98.58382858398437C182.75714100390624,98.70922858398437,182.88043200390624,98.79244858398438,183.01942400390624,98.80181858398437C183.17208900390625,98.80190858398437,183.31839000390625,98.74062858398437,183.42543000390626,98.63180858398438C183.62422200390625,98.42562858398438,183.74085900390625,98.15392858398438,183.75342900390626,97.86779758398437C183.80712900390625,97.57070958398438,183.64757900390626,97.27612258398437,183.36943100390624,97.16085818398437Z" fill="#000000" fill-opacity="1" style="mix-blend-mode:passthrough"/></g><g><path d="M180.88943056152343,97.82185366621094C180.63766056152343,97.98966986621093,180.39837656152343,98.17549086621094,180.17343156152344,98.37785386621094C179.94218456152345,98.56120286621093,179.74516256152344,98.78394786621094,179.59143066152345,99.03584786621094C179.46801756152342,99.31406786621093,179.46440126152345,99.63084786621094,179.58143616152344,99.91184786621093C179.67623856152343,100.20521786621094,179.80831956152343,100.48518786621094,179.97444156152343,100.74485786621094C180.13844256152345,101.00184786621094,180.55044056152343,100.76386786621094,180.38444556152345,100.50486786621094C180.25131256152343,100.30039786621094,180.14289856152342,100.08085786621093,180.06144756152344,99.85087786621094C179.95159956152344,99.65025786621094,179.94528156152344,99.40897786621093,180.04444856152344,99.20286786621094C180.18292256152344,99.01615786621093,180.34492456152344,98.84809786621094,180.52644056152343,98.70286586621094C180.71535056152345,98.53373686621094,180.91583056152345,98.37803686621093,181.12645056152343,98.23686186621094C181.37946056152344,98.06785586621093,181.14145056152344,97.65586886621094,180.88943056152343,97.82185366621094Z" fill="#000000" fill-opacity="1" style="mix-blend-mode:passthrough"/></g><g><path d="M180.7204437638672,100.22384613867187L180.7454376638672,100.25585913867188L180.7084350638672,100.20785513867187C180.84771696386719,100.38873313867188,180.96331796386718,100.58667013867188,181.0524289638672,100.79684413867187L181.0284269638672,100.73983813867187C181.0494229638672,100.78982513867187,181.0684199638672,100.83984713867187,181.08642596386719,100.88982713867188C181.10424796386718,100.94888713867188,181.14300496386718,100.99938713867188,181.19541896386718,101.03182713867187C181.27874796386718,101.08120713867187,181.38374296386718,101.07488713867187,181.4605869638672,101.01589713867187C181.5374299638672,100.95690713867188,181.5706179638672,100.85708713867187,181.54441796386718,100.76382413867188C181.4322659638672,100.44641113867188,181.26727296386719,100.15023813867188,181.0564119638672,99.88781733867188C181.01174896386718,99.84350583867187,180.95133996386718,99.81869506867187,180.88841296386718,99.81881713867188C180.8255619638672,99.81903076167187,180.7652739638672,99.84378053867188,180.7204131638672,99.88781733867188C180.6761169638672,99.93249513867187,180.65130615186717,99.99288913867187,180.6514129638672,100.05581713867187C180.65481567386718,100.11801113867187,180.6791229638672,100.17721513867187,180.7204437638672,100.22384613867187Z" fill="#000000" fill-opacity="1" style="mix-blend-mode:passthrough"/></g><g><path d="M181.37443969726561,101.90286227734374C181.16163969726563,101.81512427734376,180.92328969726563,101.81225627734375,180.70843969726562,101.89486727734375C180.39937969726563,102.00805627734375,180.05351269726563,101.94906627734375,179.79943869726563,101.73986827734375C179.73564169726563,101.67016627734375,179.66342169726562,101.60870357734375,179.58444169726562,101.55685427734375C179.29043569726562,101.40286227734374,179.1084441972656,101.68084727734374,179.08444213726563,101.93386827734375C179.06306459726562,102.25473027734375,179.17903139726562,102.56955427734376,179.40344269726563,102.79986427734374C179.7198336972656,103.10351427734375,180.16065969726563,103.24057427734375,180.5934496972656,103.16986427734375C181.01143969726562,103.11785427734375,181.57943969726563,102.94186427734375,181.65244969726564,102.45785527734375C181.69196969726562,102.23211627734375,181.57961969726563,102.00698827734375,181.37443969726561,101.90286227734374Z" fill="#FFFFFF" fill-opacity="1" style="mix-blend-mode:passthrough"/></g><g><path d="M166.15743268408204,122.1198741015625C169.26828868408202,119.8561441015625,172.21989868408204,117.3812841015625,174.99142868408202,114.7128601015625C175.21242868408203,114.4998471015625,174.87543868408204,114.1648561015625,174.65542868408204,114.3768616015625C171.91418868408203,117.0181841015625,168.99464868408202,119.4679541015625,165.91742668408205,121.7088641015625C165.67243168408203,121.8868741015625,165.90943148408203,122.2998641015625,166.15743268408204,122.1198741015625Z" fill="#000000" fill-opacity="1" style="mix-blend-mode:passthrough"/></g><g><path d="M163.7044183544922,146.60787993164064C164.3260183544922,146.03567993164063,164.44935835449218,145.10067993164063,163.9974183544922,144.38687993164064C163.7568083544922,143.93593993164063,163.54959135449218,143.4680199316406,163.3774263544922,142.98684993164062C163.2180173544922,142.4407999316406,163.1174313544922,141.87926993164064,163.0774233544922,141.3118599316406C163.0494383544922,139.01470993164062,163.4510043544922,136.73253993164062,164.26142835449218,134.5828549316406C164.35142835449219,134.28985595664062,163.8934283544922,134.16485593164063,163.8034383544922,134.45684793164062C163.06216435449218,136.48446993164063,162.64831545449218,138.61715993164063,162.5774383544922,140.77483993164063C162.5777435304922,141.79094993164063,162.76976035449218,142.79787993164064,163.14343235449218,143.7428299316406C163.37646435449219,144.14773993164061,163.56938135449218,144.57437993164064,163.71943835449218,145.01677993164063C163.8054383544922,145.42577993164062,163.85642835449218,145.93077993164061,163.46743735449218,146.19377993164062C163.2154383544922,146.3638799316406,163.4524383544922,146.7757799316406,163.7044183544922,146.60787993164064Z" fill="#000000" fill-opacity="1" style="mix-blend-mode:passthrough"/></g><g><path d="M167.1814267626953,132.33084128710937C165.1814267626953,135.93084428710938,165.50042676269533,140.26583428710939,166.8634367626953,144.03084428710937C167.2696267626953,145.13404428710936,167.7428467626953,146.21144428710937,168.2804367626953,147.25684428710937C168.41944676269532,147.52984428710937,168.8294367626953,147.28884428710938,168.6904467626953,147.01684428710936C166.9164467626953,143.52684428710938,165.6604457626953,139.5498642871094,166.4734497626953,135.61688428710937C166.68908676269533,134.55200428710938,167.0657467626953,133.52624428710936,167.5904567626953,132.57489028710938C167.7394567626953,132.30789188710938,167.3284567626953,132.06689428710936,167.1814267626953,132.33084128710937Z" fill="#000000" fill-opacity="1" style="mix-blend-mode:passthrough"/></g><g transform="matrix(0.8660253882408142,-0.5,0.5,0.8660253882408142,-0.8976671701209398,96.15156751778181)"><rect x="178.97243118286133" y="49.750858306884766" width="87.73899841308594" height="95.22100067138672" rx="0" fill="#68FE7F" fill-opacity="1" style="mix-blend-mode:passthrough"/></g><g><path d="M229.24640837402345,122.00486225585938C228.45940837402344,119.52886225585938,225.99540837402344,119.22186225585938,224.24040837402345,117.77786225585938C223.92940837402344,115.75686225585937,227.50340837402342,109.98987225585938,224.92340837402344,108.42285225585937C223.48740837402343,107.55084225585938,222.27640837402345,108.37985225585938,221.34940837402343,109.75085225585937C221.57270837402345,108.77038225585937,221.40480837402345,107.74148225585938,220.88140837402344,106.88284225585937C219.61243837402344,105.28283725585938,217.87345837402344,106.43185225585937,217.00043837402345,107.74484225585937C217.04609837402344,107.05630225585938,216.82639837402343,106.37643225585937,216.38642837402344,105.84484825585938C215.45417837402343,104.91992225585938,213.94746837402343,104.92977925585937,213.02741837402343,105.86685225585937C210.94874537402345,107.89520225585937,209.95607037402343,110.78970225585937,210.35243227402344,113.66684225585938C210.88642837402344,116.80886225585938,213.68543837402345,118.49886225585938,216.03544837402345,120.28786225585938C216.36549837402345,120.57266225585937,216.81892837402344,120.66756225585938,217.23545837402344,120.53886225585937Q217.47346837402344,120.72486225585938,217.71146837402344,120.90786225585937C218.01374837402344,121.16896225585937,218.42057837402345,121.27396225585937,218.81147837402344,121.19186225585938C219.51148837402343,121.76486225585937,220.14246837402345,122.44986225585937,220.81150837402345,123.05386225585937C221.58080837402343,123.74816225585937,222.41040837402343,124.37256225585938,223.29050837402343,124.91986225585937C223.32650837402343,125.21986225585937,223.36350837402344,125.50586225585937,223.40850837402343,125.77986225585937C223.67550837402342,127.38886225585938,225.08650837402342,131.9498622558594,227.55750837402343,129.84486225585937C228.47350837402342,129.06486225585937,228.75750837402344,127.35786225585937,229.04350837402345,126.25886225585937C229.51530837402345,124.88806225585938,229.58470837402345,123.41086225585937,229.24640837402345,122.00486225585938Z" fill="#FD8954" fill-opacity="1" style="mix-blend-mode:passthrough"/></g><g><path d="M214.7224293017578,123.75985741796875C213.83704930175782,127.59848341796875,212.0373093017578,131.16635341796876,209.4764293017578,134.15980341796876C208.7062193017578,135.06150341796874,207.89051830175782,135.92330341796875,207.03242490175782,136.74180341796875C206.81141630175782,136.95390341796875,207.1474153017578,137.28990341796876,207.36842330175782,137.07780341796874C210.3581393017578,134.32350341796874,212.6929493017578,130.93460341796876,214.2014293017578,127.15985341796875C214.60111930175782,126.09283341796875,214.92820930175782,125.00000341796876,215.18043930175781,123.88885541796876C215.24842930175782,123.58886718796875,214.79041930175782,123.46386741796876,214.7224293017578,123.75985741796875Z" fill="#000000" fill-opacity="1" style="mix-blend-mode:passthrough"/></g><g><path d="M228.29243451660156,128.402862875C227.28828451660155,132.682071875,225.53273451660155,136.749111875,223.10743451660156,140.414821875C222.47242451660156,141.414821875,221.80744951660157,142.39382187500001,221.13142391660156,143.364821875C220.95643651660157,143.615921875,221.36842351660155,143.853921875,221.54142751660157,143.604821875C224.08766451660156,140.143921875,226.15156451660155,136.352841875,227.67643451660157,132.335841875C228.11207451660155,131.090361875,228.47074451660157,129.819301875,228.75044451660156,128.529845875C228.81443451660155,128.229858395,228.35643451660155,128.104858875,228.29243451660156,128.402862875Z" fill="#000000" fill-opacity="1" style="mix-blend-mode:passthrough"/></g><g><path d="M215.89843799023438,120.57885784960938C218.07439999023438,122.17013084960938,220.44243999023436,123.48047084960938,222.94643999023438,124.47885084960937C223.23043999023437,124.59186084960938,223.35344999023437,124.13284084960938,223.07244999023436,124.02084084960937C220.60857999023438,123.03302084960937,218.2789299902344,121.73883084960937,216.13845799023437,120.16885374960937C215.89144899023438,119.98785384960938,215.65444899023439,120.39984084960938,215.89843799023438,120.57885784960938Z" fill="#000000" fill-opacity="1" style="mix-blend-mode:passthrough"/></g><g><path d="M220.91341990234375,109.89784237402344L219.65243490234374,113.08884837402344C219.43765290234376,113.59534837402344,219.24938990234375,114.11271837402344,219.08843990234374,114.63883837402344C218.95733690234374,115.13990837402343,218.86572290234375,115.65046837402343,218.81445290234376,116.16584837402344C218.59616090234374,117.16022837402343,218.64166260234376,118.19443837402343,218.94644190234374,119.16584837402344C219.37377890234376,119.95855837402344,220.00213990234374,120.62485837402343,220.76842990234374,121.09785837402343C221.01442990234375,121.27985837402343,221.25142990234374,120.86685837402344,221.00841990234375,120.68785837402343C220.23873990234375,120.23495837402344,219.63531490234374,119.54633837402343,219.28741490234376,118.72385837402344C219.10006690234374,117.75330837402343,219.11743190234375,116.75431837402344,219.33840990234376,115.79084837402344C219.51406890234375,114.82685837402343,219.80306990234374,113.88700837402344,220.19939990234374,112.99085837402343L221.37340990234375,110.01985137402343C221.48540990234375,109.73585510302344,221.02642990234375,109.61186237402343,220.91341990234375,109.89784237402344Z" fill="#000000" fill-opacity="1" style="mix-blend-mode:passthrough"/></g><g><path d="M216.4404345703125,107.85584985644532C215.3320945703125,109.48597285644531,214.6276855703125,111.35652285644531,214.3854365703125,113.31285285644532C214.2187805203125,114.28438285644532,214.1831359703125,115.27385285644532,214.2794494703125,116.25483285644532C214.4568785703125,117.26277285644531,214.8962095703125,118.2063528564453,215.5534345703125,118.99085285644531C215.7334245703125,119.23485285644531,216.1454445703125,118.99785285644532,215.9634445703125,118.7508528564453C215.3236645703125,118.0008528564453,214.8999025703125,117.09114285644532,214.7374265703125,116.11885285644532C214.6567685703125,115.15672285644531,214.7021485703125,114.18818285644531,214.8724365703125,113.23784285644531C215.1241455703125,111.39381285644531,215.8009645703125,109.63353285644531,216.8494245703125,108.0958408564453C217.02642457031249,107.84584045644532,216.61444457031251,107.60783385644531,216.4404345703125,107.85584985644532Z" fill="#000000" fill-opacity="1" style="mix-blend-mode:passthrough"/></g><g><path d="M281.4454296875,96.4138662109375C280.7804296875,92.7338562109375,279.9624296875,86.1638492109375,275.5224296875,85.5928345109375C274.9053296875,85.4906921109375,274.2737296875,85.6521301109375,273.7814296875,86.0378422109375C273.0814296875,86.6458462109375,273.2894296875,87.5448262109375,273.4214296875,88.3468362109375C272.0130296875,87.2310462109375,269.9234296875,88.0142562109375,269.5954296875,89.7808262109375C269.4842796875,90.5646662109375,269.6243296875,91.3635562109375,269.9954296875,92.0628362109375C269.3298996875,91.3299862109375,268.2858896875,91.0750162109375,267.3574796875,91.4185762109375C266.4290796875,91.7621162109375,265.8025196875,92.6353162109375,265.7744096875,93.6248462109375C265.7420996875,93.8054762109375,265.7383696875,93.9900862109375,265.7634296875,94.1718462109375L266.6414196875,100.6788662109375C267.0110496875,102.4204662109375,267.1787996875,104.1988662109375,267.1414196875,105.9788662109375C266.3604096875,107.9028662109375,263.8754296875,109.3058662109375,262.3984096875,110.4568662109375C260.8574196875,111.6568662109375,257.9984096875,114.35676621093751,260.4734196875,116.1967662109375C261.0508396875,116.6397662109375,261.7652896875,116.86616621093751,262.4924296875,116.8368662109375C263.5654596875,117.0448662109375,264.6749296875,116.9562662109375,265.7014496875,116.5807662109375C268.0292096875,115.6928662109375,270.1900296875,114.4174662109375,272.0924296875,112.8087662109375C274.8583296875,110.8821662109375,277.3550296875,108.5953662109375,279.5164296875,106.0088662109375C281.8554296875,103.1147662109375,282.2164296875,100.4257662109375,281.5304296875,96.83576621093749Q281.4914296875,96.6357662109375,281.4454296875,96.4138662109375Z" fill="#FD8954" fill-opacity="1" style="mix-blend-mode:passthrough"/></g><g><path d="M266.95141616210935,116.14285066406251C270.62952116210937,114.4457406640625,273.9716211621094,112.0995806640625,276.8173911621094,109.2168576640625C277.0323911621094,108.9988706640625,276.69639116210936,108.6628726640625,276.4814111621094,108.8808593640625C273.66363116210937,111.7337306640625,270.35431116210935,114.0549006640625,266.71240216210936,115.7328506640625C266.4353941621094,115.8608406640625,266.67639156210936,116.2708406640625,266.95141616210935,116.14285066406251Z" fill="#000000" fill-opacity="1" style="mix-blend-mode:passthrough"/></g><g><path d="M270.23742671992187,92.84686260546874C270.9213564199219,94.96243060546875,271.46948541992185,97.11948060546875,271.87841541992185,99.30487060546875C272.09277541992185,100.36447060546875,272.25134541992185,101.43463060546875,272.35342541992185,102.51086060546875C272.4858654199219,103.54417060546875,272.34088541992185,104.59407060546874,271.93341541992186,105.55287060546875C271.8014254199219,105.82687060546876,272.21142541992185,106.06787060546876,272.3434154199219,105.79287060546875C273.2784154199219,103.85287060546875,272.7614154199219,101.53586060546876,272.39840541992186,99.51486060546875C271.98461541992185,97.21435060546875,271.41668541992186,94.94421060546875,270.6983944199219,92.71984860546875C270.6054074199219,92.42983960546874,270.14639281992186,92.55386352546876,270.23742671992187,92.84686260546874Z" fill="#000000" fill-opacity="1" style="mix-blend-mode:passthrough"/></g><g><path d="M273.51342776601564,88.99085948535156C274.53500766601564,90.46564748535157,275.29263766601565,92.10670748535156,275.7524376660156,93.84086748535157C276.4006976660156,95.65879748535156,276.9134476660156,97.52222748535156,277.2864376660156,99.41589748535156C277.4813276660156,100.51149748535155,277.5560876660156,101.62499748535156,277.50945766601563,102.73689748535156C277.4944476660156,103.04289748535156,277.97045766601565,103.03689748535156,277.98443766601565,102.73689748535156C278.0315576660156,100.73859748535156,277.7615376660156,98.74559748535157,277.1844476660156,96.83189748535156C276.9144276660156,95.85490748535156,276.6014376660156,94.89088748535156,276.28442766601563,93.93189748535156C275.99441766601564,93.05088748535157,275.70742766601563,92.16688748535157,275.35342766601565,91.30988748535157C274.9776576660156,90.36152748535156,274.4728976660156,89.46946748535156,273.8534236660156,88.65888978535156C273.6644286660156,88.41889948535156,273.3304136660156,88.75889548535156,273.51342776601564,88.99085948535156Z" fill="#000000" fill-opacity="1" style="mix-blend-mode:passthrough"/></g></g></g></g></g></svg>