<svg xmlns="http://www.w3.org/2000/svg" xmlns:xlink="http://www.w3.org/1999/xlink">
  <symbol id="plyr-play" viewBox="0 0 28.000001907348633 28"><g transform="matrix(0,1,-1,0,28.000001907348633,-28.000001907348633)"><path d="M43.78890190734863,3.57771L54.55280190734864,25.1056C55.21770190734863,26.4354,54.25070190734863,28,52.76390190734863,28L31.23607190734863,28C29.749301907348634,28,28.782313907348634,26.4354,29.44721190734863,25.1056L40.211101907348635,3.57771C40.94820190734863,2.10361,43.05180190734863,2.10361,43.78890190734863,3.57771" fill="#FFFFFF" fill-opacity="1" style="mix-blend-mode:passthrough"/></g></symbol>
  
  <symbol id="plyr-pause" fill="#ffffff" viewBox="0 0 22 28"><g><g><rect x="0" y="0.00019532442092895508" width="8" height="27.99980354309082" rx="2" fill="#FFFFFF" fill-opacity="1" style="mix-blend-mode:passthrough"/></g><g><rect x="14.000097274780273" y="0" width="8" height="27.99980354309082" rx="2" fill="#FFFFFF" fill-opacity="1" style="mix-blend-mode:passthrough"/></g></g></symbol>

  <symbol id="plyr-muted" viewBox="0 0 32 28"><defs><mask id="master_svg0_0_356" style="mask-type:alpha" maskUnits="objectBoundingBox"><g><rect x="20.000022888183594" y="7.999966144561768" width="12" height="12" rx="0" fill="#FFFFFF" fill-opacity="1"/></g></mask></defs><g><g><path d="M16.2175,0.12465C15.5503,-0.13782,14.7848,0.022492,14.2857,0.527539C14.2857,0.527539,7.90773,6.96761,7.90773,6.96761C7.90773,6.96761,3.50858,6.96761,3.50858,6.96761C1.57397,6.96761,0,8.49384,0,10.3701C0,10.3701,0,17.6309,0,17.6309C0,19.5065,1.57397,21.0331,3.50858,21.0331C3.50858,21.0331,7.90773,21.0331,7.90773,21.0331C7.90773,21.0331,14.2857,27.4731,14.2857,27.4731C14.6254,27.8167,15.0875,28,15.559,28C15.7807,28,16.0045,27.9598,16.2175,27.876C16.8867,27.6155,17.3247,26.9872,17.3247,26.2882C17.3247,26.2882,17.3247,1.71324,17.3247,1.71324C17.3243,1.01422,16.8863,0.385588,16.2175,0.12465C16.2175,0.12465,16.2175,0.12465,16.2175,0.12465Z" fill="#FFFFFF" fill-opacity="1" style="mix-blend-mode:passthrough"/></g><g><g mask="url(#master_svg0_0_356)"><g><path d="M28.582632829795372,13.999966086173544C28.582632829795372,13.999966086173544,31.465722829795368,11.116836086173544,31.465722829795368,11.116836086173544C32.178422829795366,10.404136086173544,32.178422829795366,9.247966086173543,31.465722829795368,8.535270086173544C30.752022829795372,7.821531086173543,29.59689282979537,7.821531086173543,28.88315282979537,8.535270086173544C28.88315282979537,8.535270086173544,26.00002282979537,11.417356086173545,26.00002282979537,11.417356086173545C26.00002282979537,11.417356086173545,23.11793282979537,8.535270086173544,23.11793282979537,8.535270086173544C22.40419282979537,7.821531086173543,21.24906282979537,7.821531086173543,20.53532682979537,8.535270086173544C19.82158782979537,9.247966086173543,19.82158782979537,10.404136086173544,20.53532682979537,11.116836086173544C20.53532682979537,11.116836086173544,23.41845282979537,13.999966086173544,23.41845282979537,13.999966086173544C23.41845282979537,13.999966086173544,20.53532682979537,16.883096086173545,20.53532682979537,16.883096086173545C19.82158782979537,17.595796086173543,19.82158782979537,18.751966086173546,20.53532682979537,19.464666086173544C20.89219682979537,19.821566086173544,21.359672829795368,19.999966086173544,21.82611282979537,19.999966086173544C22.29359282979537,19.999966086173544,22.76106282979537,19.821566086173544,23.11793282979537,19.464666086173544C23.11793282979537,19.464666086173544,26.00002282979537,16.582576086173546,26.00002282979537,16.582576086173546C26.00002282979537,16.582576086173546,28.88315282979537,19.464666086173544,28.88315282979537,19.464666086173544C29.24002282979537,19.821566086173544,29.70750282979537,19.999966086173544,30.17392282979537,19.999966086173544C30.64142282979537,19.999966086173544,31.108922829795368,19.821566086173544,31.465722829795368,19.464666086173544C32.178422829795366,18.751966086173546,32.178422829795366,17.595796086173543,31.465722829795368,16.883096086173545C31.465722829795368,16.883096086173545,28.582632829795372,13.999966086173544,28.582632829795372,13.999966086173544C28.582632829795372,13.999966086173544,28.582632829795372,13.999966086173544,28.582632829795372,13.999966086173544Z" fill="#FFFFFF" fill-opacity="1" style="mix-blend-mode:passthrough"/></g></g></g></g></symbol>
  
  <symbol id="plyr-exit-fullscreen" viewBox="0 0 28 28.002197265625"><g><g transform="matrix(-1,0,0,-1,20.0830078125,20.0791015625)"><path d="M10.04150390625,20.07915078125C10.04150390625,20.07915078125,14.26898390625,20.07915078125,14.26898390625,20.07915078125C14.26898390625,20.07915078125,14.26898390625,14.26642078125,14.26898390625,14.26642078125C14.26898390625,14.26642078125,20.082103906249998,14.26642078125,20.082103906249998,14.26642078125C20.082103906249998,14.26642078125,20.082103906249998,10.03955078125,20.082103906249998,10.03955078125C20.082103906249998,10.03955078125,10.04150390625,10.03955078125,10.04150390625,10.03955078125C10.04150390625,10.03955078125,10.04150390625,20.07915078125,10.04150390625,20.07915078125C10.04150390625,20.07915078125,10.04150390625,20.07915078125,10.04150390625,20.07915078125Z" fill="#FFFFFF" fill-opacity="1" style="mix-blend-mode:passthrough"/></g><g transform="matrix(-1,0,0,-1,20.0791015625,56.00439453125)"><path d="M14.265930781249999,28.002197265625C14.265930781249999,28.002197265625,10.03955078125,28.002197265625,10.03955078125,28.002197265625C10.03955078125,28.002197265625,10.03955078125,38.041297265625,10.03955078125,38.041297265625C10.03955078125,38.041297265625,20.07915078125,38.041297265625,20.07915078125,38.041297265625C20.07915078125,38.041297265625,20.07915078125,33.818757265625,20.07915078125,33.818757265625C20.07915078125,33.818757265625,14.265930781249999,33.818757265625,14.265930781249999,33.818757265625C14.265930781249999,33.818757265625,14.265930781249999,28.002197265625,14.265930781249999,28.002197265625C14.265930781249999,28.002197265625,14.265930781249999,28.002197265625,14.265930781249999,28.002197265625Z" fill="#FFFFFF" fill-opacity="1" style="mix-blend-mode:passthrough"/></g><g transform="matrix(-1,0,0,-1,56,55.9970703125)"><path d="M33.81177,33.81500515625C33.81177,33.81500515625,28,33.81500515625,28,33.81500515625C28,33.81500515625,28,38.03773515625,28,38.03773515625C28,38.03773515625,38.0381,38.03773515625,38.0381,38.03773515625C38.0381,38.03773515625,38.0381,27.99853515625,38.0381,27.99853515625C38.0381,27.99853515625,33.81177,27.99853515625,33.81177,27.99853515625C33.81177,27.99853515625,33.81177,33.81500515625,33.81177,33.81500515625C33.81177,33.81500515625,33.81177,33.81500515625,33.81177,33.81500515625Z" fill="#FFFFFF" fill-opacity="1" style="mix-blend-mode:passthrough"/></g><g transform="matrix(-1,0,0,-1,56,20.0810546875)"><path d="M28,10.04052734375C28,10.04052734375,28,14.26839734375,28,14.26839734375C28,14.26839734375,33.81274,14.26839734375,33.81274,14.26839734375C33.81274,14.26839734375,33.81079,20.08012734375,33.81079,20.08012734375C33.81079,20.08012734375,38.0372,20.08012734375,38.0372,20.08012734375C38.0372,20.08012734375,38.0372,10.04052734375,38.0372,10.04052734375C38.0372,10.04052734375,28,10.04052734375,28,10.04052734375C28,10.04052734375,28,10.04052734375,28,10.04052734375Z" fill="#FFFFFF" fill-opacity="1" style="mix-blend-mode:passthrough"/></g></g></symbol>
  
  <symbol id="plyr-enter-fullscreen" viewBox="0 0 28 28.00244140625"><g><g><path d="M0.0009765625,10.0396C0.0009765625,10.0396,4.2284565625,10.0396,4.2284565625,10.0396C4.2284565625,10.0396,4.2284565625,4.22687,4.2284565625,4.22687C4.2284565625,4.22687,10.0415765625,4.22687,10.0415765625,4.22687C10.0415765625,4.22687,10.0415765625,0,10.0415765625,0C10.0415765625,0,0.0009765625,0,0.0009765625,0C0.0009765625,0,0.0009765625,10.0396,0.0009765625,10.0396C0.0009765625,10.0396,0.0009765625,10.0396,0.0009765625,10.0396Z" fill="#FFFFFF" fill-opacity="1" style="mix-blend-mode:passthrough"/></g><g><path d="M4.22638,17.9632568359375C4.22638,17.9632568359375,0,17.9632568359375,0,17.9632568359375C0,17.9632568359375,0,28.002356835937498,0,28.002356835937498C0,28.002356835937498,10.0396,28.002356835937498,10.0396,28.002356835937498C10.0396,28.002356835937498,10.0396,23.7798168359375,10.0396,23.7798168359375C10.0396,23.7798168359375,4.22638,23.7798168359375,4.22638,23.7798168359375C4.22638,23.7798168359375,4.22638,17.9632568359375,4.22638,17.9632568359375C4.22638,17.9632568359375,4.22638,17.9632568359375,4.22638,17.9632568359375Z" fill="#FFFFFF" fill-opacity="1" style="mix-blend-mode:passthrough"/></g><g><path d="M23.7736219921875,23.77594162109375C23.7736219921875,23.77594162109375,17.9617919921875,23.77594162109375,17.9617919921875,23.77594162109375C17.9617919921875,23.77594162109375,17.9617919921875,27.99861162109375,17.9617919921875,27.99861162109375C17.9617919921875,27.99861162109375,27.9999919921875,27.99861162109375,27.9999919921875,27.99861162109375C27.9999919921875,27.99861162109375,27.9999919921875,17.95941162109375,27.9999919921875,17.95941162109375C27.9999919921875,17.95941162109375,23.7736219921875,17.95941162109375,23.7736219921875,17.95941162109375C23.7736219921875,17.95941162109375,23.7736219921875,23.77594162109375,23.7736219921875,23.77594162109375C23.7736219921875,23.77594162109375,23.7736219921875,23.77594162109375,23.7736219921875,23.77594162109375Z" fill="#FFFFFF" fill-opacity="1" style="mix-blend-mode:passthrough"/></g><g><path d="M17.96270751953125,0.0009765625C17.96270751953125,0.0009765625,17.96270751953125,4.2288465625,17.96270751953125,4.2288465625C17.96270751953125,4.2288465625,23.775447519531248,4.2288465625,23.775447519531248,4.2288465625C23.775447519531248,4.2288465625,23.77349751953125,10.0405765625,23.77349751953125,10.0405765625C23.77349751953125,10.0405765625,27.99990751953125,10.0405765625,27.99990751953125,10.0405765625C27.99990751953125,10.0405765625,27.99990751953125,0.0009765625,27.99990751953125,0.0009765625C27.99990751953125,0.0009765625,17.96270751953125,0.0009765625,17.96270751953125,0.0009765625C17.96270751953125,0.0009765625,17.96270751953125,0.0009765625,17.96270751953125,0.0009765625Z" fill="#FFFFFF" fill-opacity="1" style="mix-blend-mode:passthrough"/></g></g></symbol>

  <symbol id="plyr-volume" viewBox="0 0 32.0006103515625 28"><g><g><path d="M16.2175,0.12465C15.5503,-0.13782,14.7848,0.022492,14.2857,0.527539C14.2857,0.527539,7.90773,6.96761,7.90773,6.96761C7.90773,6.96761,3.50858,6.96761,3.50858,6.96761C1.57397,6.96761,0,8.49384,0,10.3701C0,10.3701,0,17.6309,0,17.6309C0,19.5065,1.57397,21.0331,3.50858,21.0331C3.50858,21.0331,7.90773,21.0331,7.90773,21.0331C7.90773,21.0331,14.2857,27.4731,14.2857,27.4731C14.6254,27.8167,15.0875,28,15.559,28C15.7807,28,16.0045,27.9598,16.2175,27.876C16.8867,27.6155,17.3247,26.9872,17.3247,26.2882C17.3247,26.2882,17.3247,1.71324,17.3247,1.71324C17.3243,1.01422,16.8863,0.385588,16.2175,0.12465C16.2175,0.12465,16.2175,0.12465,16.2175,0.12465Z" fill="#FFFFFF" fill-opacity="1" style="mix-blend-mode:passthrough"/></g><g><path d="M24.590431213378906,5.189820186538697C24.590431213378906,4.735660186538697,24.769577213378906,4.2834231865386965,25.126259213378905,3.9367771865386962C25.839261213378908,3.2454021865386964,26.994981213378907,3.2454021865386964,27.709181213378905,3.9360131865386965C30.477511213378907,6.620400186538696,32.000591213378904,10.187080186538697,32.000591213378904,13.983650186538696C32.000591213378904,17.776550186538696,30.478301213378906,21.343550186538696,27.712741213378905,24.026750186538695C26.998521213378908,24.718150186538697,25.842031213378906,24.718950186538695,25.127838213378908,24.028350186538695C24.415245213378906,23.336550186538695,24.415245213378906,22.212850186538695,25.126259213378905,21.523350186538696C27.203311213378907,19.508150186538696,28.346411213378907,16.830650186538698,28.346411213378907,13.983650186538696C28.346411213378907,11.134030186538697,27.202151213378905,8.455770186538697,25.126259213378905,6.442100186538696C24.769554213378907,6.097750186538697,24.590431213378906,5.6428301865386965,24.590431213378906,5.189820186538697C24.590431213378906,5.189820186538697,24.590431213378906,5.189820186538697,24.590431213378906,5.189820186538697Z" fill="#FFFFFF" fill-opacity="1" style="mix-blend-mode:passthrough"/></g><g><path d="M20.677326202392578,8.98398443069458C20.677326202392578,8.53058443069458,20.85527420239258,8.07528343069458,21.21237220239258,7.7309384306945805C21.92656620239258,7.0387994306945805,23.082276202392578,7.0387994306945805,23.79527620239258,7.7309384306945805C25.51759620239258,9.40102443069458,26.46697620239258,11.621304430694579,26.46697620239258,13.98353443069458C26.46697620239258,16.343454430694578,25.51879620239258,18.56373443069458,23.798036202392577,20.23153443069458C23.083856202392578,20.924434430694582,21.927356202392577,20.924434430694582,21.213161202392577,20.23153443069458C20.500152202392577,19.54093443069458,20.500152202392577,18.41753443069458,21.213161202392577,17.726234430694582C22.245366202392578,16.72720443069458,22.812366202392578,15.39688443069458,22.812366202392578,13.98352443069458C22.812366202392578,12.56749443069458,22.245366202392578,11.23678443069458,21.21237220239258,10.23625443069458C20.85527420239258,9.891144430694581,20.677326202392578,9.436994430694579,20.677326202392578,8.98398443069458C20.677326202392578,8.98398443069458,20.677326202392578,8.98398443069458,20.677326202392578,8.98398443069458Z" fill="#FFFFFF" fill-opacity="1" style="mix-blend-mode:passthrough"/></g></g></symbol>
</svg>